<svg xmlns="http://www.w3.org/2000/svg" xml:space="preserve" id="Layer_1" x="0" y="0" version="1.1" viewBox="0 0 81.199 100.262">
    <style>
        .st0{fill:none;stroke:#010101;stroke-linecap:round;stroke-linejoin:round}.st3{fill:#fff;stroke:#fff}.st4{stroke-linecap:round}.st4,.st5{fill:none;stroke:#fff;stroke-width:3}
    </style>
    <path d="m39.633 25.991-1.565 40.431L1.289 84.29M79.934 74.639l-41.866-8.217" class="st0"/>
    <path d="M1.185 84.232 46.181 98.97l33.753-24.331-40.535-48.837z" style="fill:#fff;fill-opacity:.6;stroke:#010101;stroke-linecap:round;stroke-linejoin:round"/>
    <path d="m39.633 25.991 6.544 72.726" style="fill:#fff;fill-opacity:.7;stroke:#010101;stroke-linecap:round;stroke-linejoin:round"/>
    <path id="path2991_3_" d="M33.994 8.727c-.66.819-1.935 1.336-2.821 1.119-.886-.216-1.009-1.074-.301-1.881s1.941-1.27 2.779-1.065 1.003 1.008.343 1.827z" class="st3"/>
    <path id="path3761_3_" d="M29.76 12.939c-3.179-.137-4.293-2.573-2.549-5.084 1.743-2.51 5.315-4.173 8.016-4.031s3.868 2.055 2.603 4.559a7 7 0 0 1-1.325 1.782" class="st4"/>
    <path id="path2991-6_3_" d="M57.354 9.847c-1.146.216-1.801-.3-1.476-1.119s1.455-1.623 2.539-1.827c1.084-.205 1.761.258 1.499 1.065S58.5 9.63 57.354 9.847z" class="st3"/>
    <path id="path3761-1_3_" d="M51.643 10.135c.489-2.362 3.551-4.902 6.726-5.901s5.694-.217 5.764 1.944c.069 2.161-2.797 5.08-6.53 6.279-.903.29-1.792.455-2.598.484" class="st4"/>
    <path id="path2991-9_3_" d="M47.629 29.565c.324-.819 1.803-1.679 3.323-1.965s2.554.098 2.292.906c-.262.807-1.773 1.742-3.354 2.041-1.583.297-2.586-.163-2.261-.982z" class="st3"/>
    <path id="path3761-2_3_" d="M50.445 25.017c4.447-1.22 8.247-.762 8.579 1.331s-3.401 5.257-8.424 6.718-8.943.448-8.7-1.886c.059-.565.349-1.172.837-1.785" class="st4"/>
    <path id="path2991-6-9_3_" d="M16.242 27.599c1.175.287 1.621 1.146.961 1.965s-2.216 1.28-3.439.981-1.61-1.233-.902-2.041 2.205-1.192 3.38-.905z" class="st3"/>
    <path id="path3761-1-5_3_" d="M22.283 29.43c-1.053 2.532-5.388 4.65-9.573 4.292s-6.191-3.118-4.628-5.696 5.707-3.996 9.382-3.592a8.9 8.9 0 0 1 2.428.599" class="st4"/>
    <path d="M15.002 29.072c15.224-4.416 30.109-11.214 42.884-20.699" class="st5"/>
    <path d="M50.423 29.072c-8.375-2.807-16.821-11.688-18.01-20.699" class="st5"/>
    <path d="M47.009 19.801c-1.545 3.318-7.4 6.579-12.68 6.579s-7.217-3.26-4.774-6.579 7.674-5.536 12.053-5.536 6.945 2.218 5.401 5.536z" style="fill:#fff;stroke:#fff;stroke-width:3"/>
</svg>
