<?xml version="1.0" encoding="utf-8"?>
<!-- Generator: Adobe Illustrator 19.2.1, SVG Export Plug-In . SVG Version: 6.00 Build 0)  -->
<svg version="1.1" id="Layer_1" xmlns="http://www.w3.org/2000/svg" xmlns:xlink="http://www.w3.org/1999/xlink" x="0px" y="0px"
	 viewBox="0 0 81.199 100.262" style="enable-background:new 0 0 81.199 100.262;" xml:space="preserve">
<style type="text/css">
	.st0{fill:none;stroke:#010101;stroke-linecap:round;stroke-linejoin:round;}
	.st1{fill:#FFFFFF;fill-opacity:0.6;stroke:#010101;stroke-linecap:round;stroke-linejoin:round;}
	.st2{fill:#FFFFFF;fill-opacity:0.7;stroke:#010101;stroke-linecap:round;stroke-linejoin:round;}
	.st3{fill:#FFFFFF;stroke:#FFFFFF;}
	.st4{fill:none;stroke:#FFFFFF;stroke-width:3;stroke-linecap:round;}
	.st5{fill:none;stroke:#FFFFFF;stroke-width:3;}
	.st6{fill:#FFFFFF;stroke:#FFFFFF;stroke-width:3;}
</style>
<sodipodi:namedview  bordercolor="#666666" borderopacity="1.0" id="base" inkscape:current-layer="layer1" inkscape:cx="282.69484" inkscape:cy="221.0125" inkscape:document-units="px" inkscape:guide-bbox="true" inkscape:pageopacity="0.0" inkscape:pageshadow="2" inkscape:window-height="1017" inkscape:window-maximized="1" inkscape:window-width="1920" inkscape:window-x="-8" inkscape:window-y="-8" inkscape:zoom="2.8" pagecolor="#ffffff" showgrid="true" showguides="true">
	<sodipodi:guide  id="guide2985" orientation="1,0" position="250,420"></sodipodi:guide>
	<inkscape:grid  empspacing="10" enabled="true" id="grid2987" snapvisiblegridlinesonly="true" type="xygrid" visible="true">
		</inkscape:grid>
	<sodipodi:guide  id="guide2989" orientation="0,1" position="270,250"></sodipodi:guide>
</sodipodi:namedview>
<g>
	<path class="st0" d="M39.633,25.991l-1.565,40.431L1.289,84.29"/>
	<path class="st0" d="M79.934,74.639l-41.866-8.217"/>
	<path class="st1" d="M1.185,84.232L46.181,98.97l33.753-24.331L39.399,25.802L1.185,84.232z"/>
	<path class="st2" d="M39.633,25.991l6.544,72.726"/>
</g>
<g>
	<defs>
		
		
			<inkscape:path-effect  copytype="repeated" effect="skeletal" fuse_tolerance="0" id="path-effect4881" is_visible="true" normal_offset="0" pattern="M 0,0 1,0" prop_scale="1" prop_units="false" scale_y_rel="false" spacing="0" tang_offset="0" vertical_pattern="false">
			</inkscape:path-effect>
		
			<inkscape:path-effect  bendpath="m 110,180 140,0" effect="bend_path" id="path-effect3765" is_visible="true" prop_scale="1" scale_y_rel="false" vertical="false">
			</inkscape:path-effect>
	</defs>
	<g>
		<g>
			
				<path id="path2991_3_" sodipodi:cx="110" sodipodi:cy="110" sodipodi:rx="20" sodipodi:ry="20" sodipodi:type="arc" class="st3" d="
				M33.994,8.727c-0.66,0.819-1.935,1.336-2.821,1.119c-0.886-0.216-1.009-1.074-0.301-1.881c0.708-0.807,1.941-1.27,2.779-1.065
				C34.489,7.105,34.654,7.908,33.994,8.727z"/>
			
				<path id="path3761_3_" sodipodi:cx="110" sodipodi:cy="110" sodipodi:end="6.4866523" sodipodi:open="true" sodipodi:rx="50" sodipodi:ry="50" sodipodi:start="1.374765" sodipodi:type="arc" class="st4" d="
				M29.76,12.939c-3.179-0.137-4.293-2.573-2.549-5.084c1.743-2.51,5.315-4.173,8.016-4.031c2.701,0.143,3.868,2.055,2.603,4.559
				c-0.306,0.606-0.752,1.213-1.325,1.782"/>
			
				<path id="path2991-6_3_" inkscape:transform-center-x="-140.5" inkscape:transform-center-y="-140.5" sodipodi:cx="110" sodipodi:cy="110" sodipodi:rx="20" sodipodi:ry="20" sodipodi:type="arc" class="st3" d="
				M57.354,9.847c-1.146,0.216-1.801-0.3-1.476-1.119c0.324-0.819,1.455-1.623,2.539-1.827c1.084-0.205,1.761,0.258,1.499,1.065
				C59.654,8.772,58.5,9.63,57.354,9.847z"/>
			
				<path id="path3761-1_3_" inkscape:transform-center-x="-140.5" inkscape:transform-center-y="-140.50478" sodipodi:cx="110" sodipodi:cy="110" sodipodi:end="6.4866523" sodipodi:open="true" sodipodi:rx="50" sodipodi:ry="50" sodipodi:start="1.374765" sodipodi:type="arc" class="st4" d="
				M51.643,10.135c0.489-2.362,3.551-4.902,6.726-5.901c3.175-0.999,5.694-0.217,5.764,1.944c0.069,2.161-2.797,5.08-6.53,6.279
				c-0.903,0.29-1.792,0.455-2.598,0.484"/>
			
				<path id="path2991-9_3_" sodipodi:cx="110" sodipodi:cy="110" sodipodi:rx="20" sodipodi:ry="20" sodipodi:type="arc" class="st3" d="
				M47.629,29.565c0.324-0.819,1.803-1.679,3.323-1.965c1.52-0.287,2.554,0.098,2.292,0.906c-0.262,0.807-1.773,1.742-3.354,2.041
				C48.307,30.844,47.304,30.384,47.629,29.565z"/>
			
				<path id="path3761-2_3_" sodipodi:cx="110" sodipodi:cy="110" sodipodi:end="6.4866523" sodipodi:open="true" sodipodi:rx="50" sodipodi:ry="50" sodipodi:start="1.374765" sodipodi:type="arc" class="st4" d="
				M50.445,25.017c4.447-1.22,8.247-0.762,8.579,1.331c0.332,2.093-3.401,5.257-8.424,6.718c-5.023,1.461-8.943,0.448-8.7-1.886
				c0.059-0.565,0.349-1.172,0.837-1.785"/>
			
				<path id="path2991-6-9_3_" inkscape:transform-center-x="140.5" inkscape:transform-center-y="140.50002" sodipodi:cx="110" sodipodi:cy="110" sodipodi:rx="20" sodipodi:ry="20" sodipodi:type="arc" class="st3" d="
				M16.242,27.599c1.175,0.287,1.621,1.146,0.961,1.965c-0.66,0.819-2.216,1.28-3.439,0.981s-1.61-1.233-0.902-2.041
				C13.57,27.697,15.067,27.312,16.242,27.599z"/>
			
				<path id="path3761-1-5_3_" inkscape:transform-center-x="140.5" inkscape:transform-center-y="140.50476" sodipodi:cx="110" sodipodi:cy="110" sodipodi:end="6.4866523" sodipodi:open="true" sodipodi:rx="50" sodipodi:ry="50" sodipodi:start="1.374765" sodipodi:type="arc" class="st4" d="
				M22.283,29.43c-1.053,2.532-5.388,4.65-9.573,4.292c-4.185-0.359-6.191-3.118-4.628-5.696c1.563-2.578,5.707-3.996,9.382-3.592
				c0.889,0.098,1.711,0.301,2.428,0.599"/>
		</g>
		<path class="st5" d="M15.002,29.072c15.224-4.416,30.109-11.214,42.884-20.699"/>
		<path class="st5" d="M50.423,29.072c-8.375-2.807-16.821-11.688-18.01-20.699"/>
		<path class="st6" d="M47.009,19.801c-1.545,3.318-7.4,6.579-12.68,6.579c-5.28,0-7.217-3.26-4.774-6.579
			c2.443-3.318,7.674-5.536,12.053-5.536S48.553,16.483,47.009,19.801z"/>
	</g>
</g>
</svg>
