<svg xmlns="http://www.w3.org/2000/svg" xml:space="preserve" id="Layer_1" x="0" y="0" version="1.1" viewBox="194 896 97.2 97.4">
    <style>
        .st0{fill:none;stroke:#000;stroke-width:5.4819;stroke-linecap:round;stroke-linejoin:round;stroke-miterlimit:10}
    </style>
    <path d="M206.2 923.3q.45-.9 1.5-.9h62.1c.4 0 .7.1 1 .3s.5.5.6.8c.3.6.1 1.3-.4 1.9l-37.2 38.7c-.4.3-.9.5-1.4.5-.3 0-.6-.1-.8-.3-.2-.1-.3-.3-.5-.5l-9.6-15-6.3 3c-.6.3-1.2.2-1.7-.1-.5-.4-.8-.9-.7-1.6l1.3-12.9-7.8-12.1c-.4-.5-.4-1.1-.1-1.8m4.7 2.6 6 9.4c0 .1 0 .2.1.3l.1.2 41.8-9.9zm6.6 11.6-1 9.8 47.9-20.9zm6.1 8.6c.3.3.6.6.7.8l8.4 13.2 29.7-30.9z"/>
    <path id="path3890" d="M254 962.6c5.8 5.8 15.2 5.8 21 0s5.8-15.2 0-21" class="st0"/>
    <path id="path3892" d="M259.2 955.7c2.5 2.5 6.5 2.5 9 0s2.5-6.5 0-9" class="st0"/>
    <path d="m212.6 974.6 59.7-59.8" style="fill:none;stroke:#cb2027;stroke-width:6;stroke-linecap:round;stroke-miterlimit:10"/>
    <circle cx="242.6" cy="944.7" r="43.2" style="fill:none;stroke:#cb2027;stroke-width:6;stroke-miterlimit:10"/>
</svg>
