<svg xmlns="http://www.w3.org/2000/svg" xml:space="preserve" id="Layer_1" x="0" y="0" version="1.1" viewBox="0 0 201.6 155.534">
    <style>
        .st1{fill:none;stroke:#231f20;stroke-width:4;stroke-linejoin:round;stroke-miterlimit:10}
    </style>
    <ellipse cx="100.8" cy="119.056" rx="97.2" ry="32.784" style="fill:#008a0d"/>
    <ellipse cx="100.8" cy="24.593" class="st1" rx="68.894" ry="20.9"/>
    <path d="m32.295 26.396-.008 87.518" style="fill:#231f20;stroke:#231f20;stroke-width:4;stroke-linecap:round;stroke-linejoin:round;stroke-miterlimit:10"/>
    <path d="m169.207 114.115.055-90.902" style="fill:none;stroke:#231f20;stroke-width:4;stroke-linecap:round;stroke-linejoin:round;stroke-miterlimit:10"/>
    <path d="M79.006 78.38q-.075-.716.528-1.093l36.177-24.118a1.1 1.1 0 0 1 .678-.226 1.1 1.1 0 0 1 .678.226q.603.376.528 1.206l-6.03 36.177q-.15.528-.603.829-.302.15-.603.151-.226 0-.452-.075l-11.682-4.673-2.487 4.145q-.377.603-1.055.603c-.678 0-.804-.201-1.055-.603l-4.447-7.763-9.421-3.768q-.68-.302-.754-1.018zm3.768-.414 7.311 2.939q.075.075.188.151l.113.075 20.35-21.782zm8.517 3.994 3.392 5.879 19.445-30.374zm7.084 2.412q.452.075.754.151l10.25 4.145 4.824-28.866z" style="fill:#231f20;stroke:#231f20;stroke-miterlimit:10"/>
    <ellipse cx="100.8" cy="116.605" class="st1" rx="68.894" ry="20.9"/>
</svg>
