<?xml version="1.0" encoding="utf-8"?>
<!-- Generator: Adobe Illustrator 19.2.1, SVG Export Plug-In . SVG Version: 6.00 Build 0)  -->
<svg version="1.1" id="Layer_1" xmlns="http://www.w3.org/2000/svg" xmlns:xlink="http://www.w3.org/1999/xlink" x="0px" y="0px"
	 viewBox="0 0 201.6 155.534" style="enable-background:new 0 0 201.6 155.534;" xml:space="preserve">
<style type="text/css">
	.st0{fill:#008A0D;}
	.st1{fill:none;stroke:#231F20;stroke-width:4;stroke-linejoin:round;stroke-miterlimit:10;}
	.st2{fill:#231F20;stroke:#231F20;stroke-width:4;stroke-linecap:round;stroke-linejoin:round;stroke-miterlimit:10;}
	.st3{fill:none;stroke:#231F20;stroke-width:4;stroke-linecap:round;stroke-linejoin:round;stroke-miterlimit:10;}
	.st4{fill:#231F20;stroke:#231F20;stroke-miterlimit:10;}
</style>
<ellipse class="st0" cx="100.8" cy="119.056" rx="97.2" ry="32.784"/>
<ellipse class="st1" cx="100.8" cy="24.593" rx="68.894" ry="20.9"/>
<line class="st2" x1="32.295" y1="26.396" x2="32.287" y2="113.914"/>
<line class="st3" x1="169.207" y1="114.115" x2="169.262" y2="23.213"/>
<path class="st4" d="M79.006,78.38c-0.05-0.477,0.126-0.842,0.528-1.093l36.177-24.118c0.201-0.151,0.427-0.226,0.678-0.226
	c0.251,0,0.477,0.075,0.678,0.226c0.402,0.251,0.578,0.653,0.528,1.206l-6.03,36.177c-0.1,0.352-0.301,0.628-0.603,0.829
	c-0.201,0.1-0.402,0.151-0.603,0.151c-0.151,0-0.301-0.025-0.452-0.075l-11.682-4.673l-2.487,4.145
	c-0.251,0.402-0.603,0.603-1.055,0.603s-0.804-0.201-1.055-0.603l-4.447-7.763l-9.421-3.768
	C79.307,79.197,79.056,78.857,79.006,78.38L79.006,78.38z M82.774,77.966l7.311,2.939c0.05,0.05,0.113,0.1,0.188,0.151l0.113,0.075
	l20.35-21.782L82.774,77.966z M91.291,81.96l3.392,5.879l19.445-30.374L91.291,81.96z M98.375,84.372
	c0.301,0.05,0.553,0.1,0.754,0.151l10.25,4.145l4.824-28.866L98.375,84.372z"/>
<ellipse class="st1" cx="100.8" cy="116.605" rx="68.894" ry="20.9"/>
</svg>
