<svg xmlns="http://www.w3.org/2000/svg" xml:space="preserve" id="Layer_1" x="0" y="0" version="1.1" viewBox="0 0 288 288">
    <style>
        .st0,.st1{fill:#fff}.st1{stroke:#fff}.st2{stroke-linecap:round}.st2,.st3{fill:none;stroke:#fff;stroke-width:3}
    </style>
    <path d="M274.534 5.498H13.465C6.043 5.498 0 11.545 0 18.963v200.232c0 7.418 6.042 13.465 13.465 13.465h94.671l-6.086 39.603H85.606a5.12 5.12 0 0 0-5.12 5.115 5.123 5.123 0 0 0 5.12 5.124h116.789a5.124 5.124 0 0 0 5.124-5.124 5.12 5.12 0 0 0-5.124-5.115h-16.594l-6.091-39.603h94.825c7.427 0 13.465-6.047 13.465-13.465V18.963c-.001-7.418-6.039-13.465-13.466-13.465M112.417 272.262l6.086-39.603h50.836l6.1 39.603zm165.343-49.851H10.244v-39.814H277.76zm0-50.062H10.244V15.746H277.76z" class="st0"/>
    <path d="M144 209.843c4.447 0 8.068-3.621 8.068-8.068s-3.621-8.068-8.068-8.068-8.064 3.621-8.064 8.068 3.617 8.068 8.064 8.068" class="st0"/>
    <path id="path2991_3_" d="M103.117 52.265c-.629 3.062-4.237 4.993-8.034 4.185-3.8-.811-6.185-4.017-5.35-7.037s4.405-4.745 7.999-3.982c3.591.769 6.014 3.773 5.385 6.834z" class="st1"/>
    <path id="path3761_3_" d="M96.75 68.016c-12.195-.512-21.83-9.625-20.95-19.012s10.501-15.603 20.916-15.067 19.077 7.687 19.974 17.05a14.1 14.1 0 0 1-.952 6.663" class="st2"/>
    <path id="path2991-6_3_" d="M192.972 56.45c-3.8.811-7.408-1.12-8.034-4.185-.629-3.062 1.794-6.068 5.388-6.834s7.164.962 7.999 3.982c.832 3.021-1.553 6.23-5.353 7.037z" class="st1"/>
    <path id="path3761-1_3_" d="M172.269 57.533c-3.477-8.831 2.261-18.332 11.889-22.067 9.625-3.735 20.802-.814 25.919 7.267 5.116 8.082.962 18.995-10.305 23.482a25.9 25.9 0 0 1-8.625 1.807" class="st2"/>
    <path id="path2991-9_3_" d="M200.916 130.179c-.629-3.062 2.969-6.278 8.01-7.35 5.037-1.072 9.772.368 10.604 3.385.835 3.02-2.715 6.515-7.958 7.632s-10.027-.602-10.656-3.667z" class="st1"/>
    <path id="path3761-2_3_" d="M201.225 113.174c13.889-4.567 29.125-2.852 35.069 4.972s-.904 19.658-16.404 25.125-32.437 1.68-36.77-7.047c-1.048-2.11-1.33-4.381-.88-6.673" class="st2"/>
    <path id="path2991-6-9_3_" d="M79.13 122.829c5.037 1.072 8.635 4.288 8.01 7.35-.629 3.062-5.412 4.783-10.655 3.666-5.244-1.117-8.79-4.615-7.958-7.632.83-3.016 5.565-4.456 10.603-3.384z" class="st1"/>
    <path id="path3761-1-5_3_" d="M105.835 129.678c1.752 9.47-9.7 17.39-26.156 16.047-16.456-1.344-30.155-11.662-30.1-21.304.052-9.642 12.363-14.94 27.015-13.425a49 49 0 0 1 10.425 2.244" class="st2"/>
    <path d="M77.803 128.338c44.532-18.558 83.381-38.595 113.846-77.395" class="st3"/>
    <path d="M210.262 128.338C165.73 109.78 126.881 89.743 96.413 50.943" class="st3"/>
    <path d="M176.661 93.677c1.68 12.408-12.889 24.599-32.633 24.599s-34.313-12.191-32.633-24.599 16.256-20.699 32.633-20.699 30.949 8.288 32.633 20.699z" style="fill:#fff;stroke:#fff;stroke-width:3"/>
</svg>
