<?xml version="1.0" encoding="utf-8"?>
<!-- Generator: Adobe Illustrator 23.0.4, SVG Export Plug-In . SVG Version: 6.00 Build 0)  -->
<svg version="1.1" id="Layer_1" xmlns="http://www.w3.org/2000/svg" xmlns:xlink="http://www.w3.org/1999/xlink" x="0px" y="0px"
	 viewBox="0 0 288 288" style="enable-background:new 0 0 288 288;" xml:space="preserve">
<style type="text/css">
	.st0{fill:#FFFFFF;}
	.st1{fill:#FFFFFF;stroke:#FFFFFF;}
	.st2{fill:none;stroke:#FFFFFF;stroke-width:3;stroke-linecap:round;}
	.st3{fill:none;stroke:#FFFFFF;stroke-width:3;}
	.st4{fill:#FFFFFF;stroke:#FFFFFF;stroke-width:3;}
</style>
<g>
	<path class="st0" d="M274.534,5.498H13.465C6.043,5.498,0,11.545,0,18.963v200.232c0,7.418,6.042,13.465,13.465,13.465h94.671
		l-6.086,39.603H85.606c-2.825,0-5.12,2.294-5.12,5.115c0,2.83,2.294,5.124,5.12,5.124h116.789c2.83,0,5.124-2.294,5.124-5.124
		c0-2.821-2.294-5.115-5.124-5.115h-16.594l-6.091-39.603h94.825c7.427,0,13.465-6.047,13.465-13.465V18.963
		C287.999,11.545,281.961,5.498,274.534,5.498z M112.417,272.262l6.086-39.603h50.836l6.1,39.603H112.417z M277.76,222.411H10.244
		v-39.814H277.76V222.411z M277.76,172.349H10.244V15.746H277.76V172.349z"/>
	<path class="st0" d="M144,209.843c4.447,0,8.068-3.621,8.068-8.068c0-4.447-3.621-8.068-8.068-8.068s-8.064,3.621-8.064,8.068
		C135.936,206.222,139.553,209.843,144,209.843z"/>
</g>
<g>
	<g>
		<g>
			<path id="path2991_3_" class="st1" d="M103.117,52.265c-0.629,3.062-4.237,4.993-8.034,4.185c-3.8-0.811-6.185-4.017-5.35-7.037
				c0.835-3.02,4.405-4.745,7.999-3.982C101.323,46.2,103.746,49.204,103.117,52.265z"/>
			<path id="path3761_3_" class="st2" d="M96.75,68.016c-12.195-0.512-21.83-9.625-20.95-19.012
				c0.88-9.387,10.501-15.603,20.916-15.067c10.415,0.536,19.077,7.687,19.974,17.05c0.216,2.264-0.089,4.532-0.952,6.663"/>
			<path id="path2991-6_3_" class="st1" d="M192.972,56.45c-3.8,0.811-7.408-1.12-8.034-4.185c-0.629-3.062,1.794-6.068,5.388-6.834
				c3.594-0.766,7.164,0.962,7.999,3.982C199.157,52.434,196.772,55.643,192.972,56.45z"/>
			<path id="path3761-1_3_" class="st2" d="M172.269,57.533c-3.477-8.831,2.261-18.332,11.889-22.067
				c9.625-3.735,20.802-0.814,25.919,7.267c5.116,8.082,0.962,18.995-10.305,23.482c-2.725,1.086-5.676,1.704-8.625,1.807"/>
			<path id="path2991-9_3_" class="st1" d="M200.916,130.179c-0.629-3.062,2.969-6.278,8.01-7.35
				c5.037-1.072,9.772,0.368,10.604,3.385c0.835,3.02-2.715,6.515-7.958,7.632S201.545,133.244,200.916,130.179z"/>
			<path id="path3761-2_3_" class="st2" d="M201.225,113.174c13.889-4.567,29.125-2.852,35.069,4.972
				c5.945,7.824-0.904,19.658-16.404,25.125s-32.437,1.68-36.77-7.047c-1.048-2.11-1.33-4.381-0.88-6.673"/>
			<path id="path2991-6-9_3_" class="st1" d="M79.13,122.829c5.037,1.072,8.635,4.288,8.01,7.35
				c-0.629,3.062-5.412,4.783-10.655,3.666c-5.244-1.117-8.79-4.615-7.958-7.632C69.357,123.197,74.092,121.757,79.13,122.829z"/>
			<path id="path3761-1-5_3_" class="st2" d="M105.835,129.678c1.752,9.47-9.7,17.39-26.156,16.047
				c-16.456-1.344-30.155-11.662-30.1-21.304c0.052-9.642,12.363-14.94,27.015-13.425c3.546,0.368,7.072,1.124,10.425,2.244"/>
		</g>
		<path class="st3" d="M77.803,128.338c44.532-18.558,83.381-38.595,113.846-77.395"/>
		<path class="st3" d="M210.262,128.338c-44.532-18.558-83.381-38.595-113.849-77.395"/>
		<path class="st4" d="M176.661,93.677c1.68,12.408-12.889,24.599-32.633,24.599s-34.313-12.191-32.633-24.599
			c1.68-12.408,16.256-20.699,32.633-20.699S174.977,81.266,176.661,93.677z"/>
	</g>
</g>
</svg>
