<svg xmlns="http://www.w3.org/2000/svg" xml:space="preserve" id="Layer_1" x="0" y="0" version="1.1" viewBox="0 0 72 72">
    <style>
        .st0,.st3{stroke:#fff}.st0{fill:none;stroke-miterlimit:10}.st3{fill:#fff}.st4{stroke-linecap:round}.st4,.st5{fill:none;stroke:#fff;stroke-width:3}
    </style>
    <path d="M36 65.5v-1.8" class="st0"/>
    <path d="M36 60.2V40.5" style="fill:none;stroke:#fff;stroke-miterlimit:10;stroke-dasharray:3.0018,3.0018"/>
    <path d="M36 38.7v-1.8" class="st0"/>
    <path d="m36 71.8 3.6-8.9L36 65l-3.6-2.1z" style="fill:#fff"/>
    <path id="path2991_3_" d="M24.094 8.095c-.183.891-1.233 1.453-2.338 1.218-1.106-.236-1.8-1.169-1.557-2.048s1.282-1.381 2.328-1.159c1.045.224 1.75 1.098 1.567 1.989z" class="st3"/>
    <path id="path3761_3_" d="M22.241 12.679c-3.549-.149-6.353-2.801-6.097-5.533s3.056-4.541 6.087-4.385 5.552 2.237 5.813 4.962a4.1 4.1 0 0 1-.277 1.939" class="st4"/>
    <path id="path2991-6_3_" d="M50.244 9.313c-1.106.236-2.156-.326-2.338-1.218-.183-.891.522-1.766 1.568-1.989s2.085.28 2.328 1.159-.452 1.813-1.558 2.048z" class="st3"/>
    <path id="path3761-1_3_" d="M44.219 9.628c-1.012-2.57.658-5.335 3.46-6.422s6.054-.237 7.543 2.115.28 5.528-2.999 6.834a7.5 7.5 0 0 1-2.51.526" class="st4"/>
    <path id="path2991-9_3_" d="M52.556 30.77c-.183-.891.864-1.827 2.331-2.139 1.466-.312 2.844.107 3.086.985.243.879-.79 1.896-2.316 2.221s-2.918-.175-3.101-1.067z" class="st3"/>
    <path id="path3761-2_3_" d="M52.646 25.821c4.042-1.329 8.476-.83 10.206 1.447s-.263 5.721-4.774 7.312-9.44.489-10.701-2.051a3 3 0 0 1-.256-1.942" class="st4"/>
    <path id="path2991-6-9_3_" d="M17.113 28.631c1.466.312 2.513 1.248 2.331 2.139-.183.891-1.575 1.392-3.101 1.067s-2.558-1.343-2.316-2.221 1.62-1.297 3.086-.985z" class="st3"/>
    <path id="path3761-1-5_3_" d="M24.885 30.624c.51 2.756-2.823 5.061-7.612 4.67s-8.776-3.394-8.76-6.2c.015-2.806 3.598-4.348 7.862-3.907 1.032.107 2.058.327 3.034.653" class="st4"/>
    <path d="M16.727 30.234c12.96-5.401 24.266-11.232 33.132-22.524" class="st5"/>
    <path d="M55.276 30.234C42.316 24.833 31.01 19.002 22.143 7.71" class="st5"/>
    <path d="M45.497 20.147c.489 3.611-3.751 7.159-9.497 7.159s-9.986-3.548-9.497-7.159 4.731-6.024 9.497-6.024 9.007 2.412 9.497 6.024z" style="fill:#fff;stroke:#fff;stroke-width:3"/>
</svg>
