<?xml version="1.0" encoding="utf-8"?>
<!-- Generator: Adobe Illustrator 19.2.1, SVG Export Plug-In . SVG Version: 6.00 Build 0)  -->
<svg version="1.1" id="Layer_1" xmlns="http://www.w3.org/2000/svg" xmlns:xlink="http://www.w3.org/1999/xlink" x="0px" y="0px"
	 viewBox="0 0 39.07 60.197" style="enable-background:new 0 0 39.07 60.197;" xml:space="preserve">
<style type="text/css">
	.st0{fill:#FFFFFF;}
	.st1{fill:none;stroke:#FFFFFF;stroke-miterlimit:10;}
	.st2{fill:none;stroke:#FFFFFF;stroke-miterlimit:10;stroke-dasharray:3.0018,3.0018;}
</style>
<path class="st0" d="M39.022,8.423c0.114,0.401,0.022,0.755-0.277,1.064l-6.363,6.092l-1.061,7.694
	c-0.072,0.405-0.29,0.681-0.654,0.828c-0.364,0.147-0.713,0.099-1.045-0.143l-3.348-2.531l-7.891,7.554
	c-0.105,0.089-0.218,0.159-0.34,0.207c-0.162,0.065-0.34,0.09-0.534,0.074c-0.308-0.064-0.56-0.221-0.755-0.472L0.157,1.617
	c-0.22-0.429-0.209-0.81,0.033-1.142c0.113-0.187,0.271-0.321,0.473-0.402s0.409-0.094,0.62-0.038l36.96,7.68
	C38.648,7.786,38.908,8.023,39.022,8.423L39.022,8.423z M7.294,3.397L30.75,14.332l0.067-0.097c0.044-0.065,0.079-0.126,0.103-0.183
	l4.933-4.74L7.294,3.397z M3.952,2.98l25.516,18.148l0.823-5.835L3.952,2.98z M4.649,4.886l13.253,21.679l6.909-6.665
	c0.146-0.106,0.332-0.228,0.558-0.366L4.649,4.886z"/>
<g>
	<g>
		<line class="st1" x1="19.535" y1="54.901" x2="19.535" y2="53.401"/>
		<line class="st2" x1="19.535" y1="50.4" x2="19.535" y2="33.89"/>
		<line class="st1" x1="19.535" y1="32.389" x2="19.535" y2="30.889"/>
		<g>
			<polygon class="st0" points="19.535,60.197 22.584,52.735 19.535,54.506 16.486,52.735 			"/>
		</g>
	</g>
</g>
</svg>
