<svg xmlns="http://www.w3.org/2000/svg" xml:space="preserve" id="Layer_1" x="0" y="0" version="1.1" viewBox="0 0 72 72">
    <style>
        .st0{fill:#fff}.st1{fill:none;stroke:#fff;stroke-miterlimit:10}
    </style>
    <path d="M59.2 10.2c.1.5 0 .9-.3 1.3l-7.6 7.3-1.3 9.1c-.1.5-.3.8-.8 1-.4.1-.8.1-1.2-.2l-4-3-9.4 9c-.1.1-.3.2-.4.2-.2.1-.4.1-.6.1q-.6-.15-.9-.6L12.9 2.1c-.3-.5-.2-1 0-1.4.1-.2.3-.4.6-.5s.5-.1.7 0l44 9.1c.5.1.9.4 1 .9m-37.8-6 27.9 13 .1-.1c.1-.1.1-.1.1-.2l5.9-5.6zm-3.9-.5 30.4 21.6 1-6.9zm.8 2.3 15.8 25.8 8.2-7.9c.2-.1.4-.3.7-.4z" class="st0"/>
    <path d="M36 65.5v-1.8" class="st1"/>
    <path d="M36 60.2V40.5" style="fill:none;stroke:#fff;stroke-miterlimit:10;stroke-dasharray:3.0018,3.0018"/>
    <path d="M36 38.7v-1.8" class="st1"/>
    <path d="m36 71.8 3.6-8.9L36 65l-3.6-2.1z" class="st0"/>
</svg>
