<?xml version="1.0" encoding="utf-8"?>
<!-- Generator: Adobe Illustrator 19.2.1, SVG Export Plug-In . SVG Version: 6.00 Build 0)  -->
<svg version="1.1" id="Layer_1" xmlns="http://www.w3.org/2000/svg" xmlns:xlink="http://www.w3.org/1999/xlink" x="0px" y="0px"
	 viewBox="0 0 142.56 230.096" style="enable-background:new 0 0 142.56 230.096;" xml:space="preserve">
<style type="text/css">
	.st0{fill:none;stroke:#000000;stroke-width:10;}
	.st1{fill:#CB2027;}
	.st2{fill:none;stroke:#000000;stroke-width:10;stroke-miterlimit:10;}
</style>
<path id="rect4970" inkscape:connector-curvature="0" class="st0" d="M5,215.908V43.8c0-5.074,5.831-9.188,13.042-9.188h106.475
	c7.211,0,13.042,4.114,13.042,9.188v172.107c0,5.074-5.831,9.188-13.042,9.188H18.042C10.831,225.096,5,220.982,5,215.908z"/>
<path id="path4679" inkscape:connector-curvature="0" sodipodi:nodetypes="ccccc" class="st1" d="M21.158,214.991v-39.866h100.199
	v39.866H21.158z"/>
<g id="g4222" transform="translate(-127.22081,216.20249)">
	<path id="path4224" inkscape:connector-curvature="0" class="st2" d="M234.77-184.09c0,1.353-0.757,2.398-1.736,2.398h-68.995
		c-0.979,0-1.736-1.045-1.736-2.398v-24.715c0-1.353,0.757-2.398,1.736-2.398h68.995c0.979,0,1.736,1.045,1.736,2.398V-184.09
		L234.77-184.09L234.77-184.09z"/>
</g>
</svg>
