<svg xmlns="http://www.w3.org/2000/svg" xml:space="preserve" viewBox="0 0 142.56 230.096">
    <path d="M5 215.908V43.8c0-5.074 5.831-9.188 13.042-9.188h106.475c7.211 0 13.042 4.114 13.042 9.188v172.107c0 5.074-5.831 9.188-13.042 9.188H18.042C10.831 225.096 5 220.982 5 215.908z" style="fill:none;stroke:#000;stroke-width:10"/>
    <path d="M21.158 214.991v-39.866h100.199v39.866z" style="fill:#cb2027"/>
    <path d="M234.77-184.09c0 1.353-.757 2.398-1.736 2.398h-68.995c-.979 0-1.736-1.045-1.736-2.398v-24.715c0-1.353.757-2.398 1.736-2.398h68.995c.979 0 1.736 1.045 1.736 2.398v24.715z" style="fill:none;stroke:#000;stroke-width:10;stroke-miterlimit:10" transform="translate(-127.22 216.202)"/>
</svg>
