<?xml version="1.0" encoding="utf-8"?>
<!-- Generator: Adobe Illustrator 23.0.3, SVG Export Plug-In . SVG Version: 6.00 Build 0)  -->
<svg version="1.1" id="Layer_1" xmlns="http://www.w3.org/2000/svg" xmlns:xlink="http://www.w3.org/1999/xlink" x="0px" y="0px"
	 viewBox="0 0 72 72" style="enable-background:new 0 0 72 72;" xml:space="preserve">
<style type="text/css">
	.st0{fill:none;stroke:#A10000;stroke-width:4;stroke-linecap:round;stroke-miterlimit:10;}
	.st1{fill:none;stroke:#A10000;stroke-width:4;stroke-miterlimit:10;}
</style>
<path d="M18.089,56.362c-2.034,0-3.689-1.655-3.689-3.689V19.327c0-2.034,1.655-3.689,3.689-3.689l27.492,0
	c2.034,0,3.689,1.655,3.689,3.689v0.459l-2.68,0v-0.459c0-0.557-0.453-1.009-1.009-1.009H18.089c-0.557,0-1.009,0.453-1.009,1.009
	v33.346c0,0.557,0.453,1.009,1.009,1.009H45.58c0.556,0,1.009-0.453,1.009-1.009v-0.459h0.001v-7.247h2.68v7.706
	c0,2.034-1.655,3.689-3.689,3.689H18.089z M37.842,49.247c-0.268,0-0.527-0.079-0.748-0.229c-0.445-0.3-0.667-0.835-0.567-1.363
	l1.23-6.429c0.01-0.053,0.028-0.097,0.044-0.13c0.029-0.107,0.068-0.219,0.138-0.332l10.74-16.986c0.006-0.01,0.012-0.02,0.019-0.03
	c0.002-0.003,0.012-0.02,0.012-0.02l1.579-2.28c0.139-0.19,0.9-1.136,2.271-1.136c0.468,0,0.942,0.115,1.408,0.341
	c1.349,0.656,2.557,1.573,2.69,1.676c0.112,0.087,0.205,0.185,0.28,0.293c0.121,0.172,1.179,1.75,0.345,3.121
	c-0.345,0.566-1.289,1.952-1.574,2.368L44.392,45.148c-0.064,0.096-0.14,0.153-0.181,0.184l-0.003,0.002
	c-0.003,0.003-0.006,0.007-0.009,0.011c-0.037,0.046-0.099,0.124-0.199,0.188l-5.434,3.501
	C38.348,49.173,38.098,49.247,37.842,49.247z M39.746,45.083l1.124-0.724L40,43.754L39.746,45.083z M42.919,42.52l9.642-14.516
	l-2.357-1.63L40.89,41.107L42.919,42.52z M54.051,25.778c0.397-0.588,0.682-1.02,0.854-1.29c-0.018-0.051-0.044-0.115-0.077-0.181
	c-0.442-0.319-1.225-0.852-2.032-1.244c-0.063-0.03-0.122-0.045-0.18-0.045c-0.089,0-0.161,0.036-0.199,0.059l-0.736,1.063
	L54.051,25.778z M19.812,43.954c-0.739,0-1.34-0.601-1.34-1.34c0-0.739,0.601-1.34,1.34-1.34h9.492c0.739,0,1.34,0.601,1.34,1.34
	c0,0.739-0.601,1.34-1.34,1.34H19.812z M19.812,35.15c-0.739,0-1.34-0.601-1.34-1.34c0-0.739,0.601-1.34,1.34-1.34l15.777,0
	c0.739,0,1.34,0.601,1.34,1.34c0,0.739-0.601,1.34-1.34,1.34H19.812z M19.812,26.403c-0.739,0-1.34-0.601-1.34-1.34
	c0-0.739,0.601-1.34,1.34-1.34h22.063c0.739,0,1.34,0.601,1.34,1.34c0,0.739-0.601,1.34-1.34,1.34H19.812z"/>
<g>
	<line class="st0" x1="12.502" y1="59.445" x2="59.268" y2="12.554"/>
	<circle class="st1" cx="36" cy="36" r="33.84"/>
</g>
</svg>
