<svg xmlns="http://www.w3.org/2000/svg" xml:space="preserve" viewBox="0 0 72 72">
    <path d="M18.089 56.362a3.693 3.693 0 0 1-3.689-3.689V19.327a3.693 3.693 0 0 1 3.689-3.689h27.492a3.693 3.693 0 0 1 3.689 3.689v.459h-2.68v-.459a1.01 1.01 0 0 0-1.009-1.009H18.089a1.01 1.01 0 0 0-1.009 1.009v33.346a1.01 1.01 0 0 0 1.009 1.009H45.58a1.01 1.01 0 0 0 1.009-1.009v-.459h.001v-7.247h2.68v7.706a3.693 3.693 0 0 1-3.689 3.689zm19.753-7.115a1.34 1.34 0 0 1-1.315-1.592l1.23-6.429a.5.5 0 0 1 .044-.13c.029-.107.068-.219.138-.332l10.74-16.986.031-.05 1.579-2.28c.139-.19.9-1.136 2.271-1.136.468 0 .942.115 1.408.341 1.349.656 2.557 1.573 2.69 1.676q.168.13.28.293c.121.172 1.179 1.75.345 3.121-.345.566-1.289 1.952-1.574 2.368L44.392 45.148c-.064.096-.14.153-.181.184l-.003.002-.009.011c-.037.046-.099.124-.199.188l-5.434 3.501a1.35 1.35 0 0 1-.724.213m1.904-4.164 1.124-.724-.87-.605zm3.173-2.563 9.642-14.516-2.357-1.63-9.314 14.733zm11.132-16.742q.596-.883.854-1.29a2 2 0 0 0-.077-.181c-.442-.319-1.225-.852-2.032-1.244a.4.4 0 0 0-.18-.045.4.4 0 0 0-.199.059l-.736 1.063zM19.812 43.954c-.739 0-1.34-.601-1.34-1.34s.601-1.34 1.34-1.34h9.492c.739 0 1.34.601 1.34 1.34s-.601 1.34-1.34 1.34zm0-8.804c-.739 0-1.34-.601-1.34-1.34s.601-1.34 1.34-1.34h15.777c.739 0 1.34.601 1.34 1.34s-.601 1.34-1.34 1.34zm0-8.747c-.739 0-1.34-.601-1.34-1.34s.601-1.34 1.34-1.34h22.063c.739 0 1.34.601 1.34 1.34s-.601 1.34-1.34 1.34z" style="fill:#fff"/>
    <path d="m12.502 59.445 46.766-46.891" style="fill:none;stroke:#a10000;stroke-width:4;stroke-linecap:round;stroke-miterlimit:10"/>
    <circle cx="36" cy="36" r="33.84" style="fill:none;stroke:#a10000;stroke-width:4;stroke-miterlimit:10"/>
</svg>
