<svg xmlns="http://www.w3.org/2000/svg" xml:space="preserve" id="Layer_1" x="0" y="0" version="1.1" viewBox="0 0 288 144.29">
    <style>
        .st1,.st4{fill:#fff}.st4{stroke:#fff}.st5{stroke-linecap:round}.st5,.st6{fill:none;stroke:#fff;stroke-width:3}
    </style>
    <g style="opacity:.5">
        <g id="layer1_1_">
            <g id="g4623_1_">
                <path id="rect2192_1_" d="M57.675 110.412h9.17v19.439c-2.699 1.274-5.921 1.649-9.17 0z" class="st1"/>
                <path id="path1307_1_" d="M94.904 112.711c-20.813-4.223-43.151 4.622-65.289 0 15.091-13.843 19.439-41.726 32.631-56.543 10.695 14.417 17.342 42.7 32.658 56.543" class="st1"/>
                <path id="path2183_1_" d="M88.358 76.431c-16.641-3.373-34.506 3.699-52.196 0 12.068-11.069 15.541-33.356 26.085-45.2 8.545 11.52 13.867 34.131 26.111 45.2" class="st1"/>
                <path id="path2185_1_" d="M82.386 47.572c-12.818-2.599-26.61 2.849-40.253 0 9.32-8.545 11.993-25.736 20.139-34.855 6.572 8.894 10.669 26.335 20.114 34.855" class="st1"/>
            </g>
        </g>
    </g>
    <g id="layer1">
        <g id="g4623">
            <path id="rect2192" d="M35.528 116.618h10.617v22.506c-3.124 1.476-6.856 1.909-10.617 0z" class="st1"/>
            <path id="path1307" d="M78.63 119.28c-24.097-4.889-49.958 5.351-75.588 0 17.473-16.027 22.506-48.31 37.78-65.464 12.381 16.691 20.075 49.437 37.808 65.464" class="st1"/>
            <path id="path2183" d="M71.051 77.277c-19.266-3.905-39.949 4.282-60.43 0 13.973-12.815 17.994-38.619 30.201-52.331 9.893 13.335 16.054 39.516 30.229 52.331" class="st1"/>
            <path id="path2185" d="M64.138 43.864c-14.84-3.008-30.809 3.298-46.602 0 10.79-9.894 13.886-29.796 23.315-40.355C48.458 13.809 53.203 34 64.138 43.864" class="st1"/>
        </g>
    </g>
    <path d="M119.918 77.051h1.5" style="fill:none;stroke:#fff;stroke-width:4;stroke-miterlimit:10"/>
    <path d="M124.471 76.933h64.792" style="fill:none;stroke:#fff;stroke-width:4;stroke-miterlimit:10;stroke-dasharray:3.0529,3.0529"/>
    <path d="m98.737 77.051 29.847 12.197-7.082-12.197 7.082-12.193z" class="st1"/>
    <path id="path2991_3_" d="M209.253 58.856c-.317 1.544-2.136 2.517-4.051 2.11-1.916-.409-3.119-2.025-2.698-3.548s2.221-2.393 4.034-2.008c1.81.387 3.032 1.902 2.715 3.446z" class="st4"/>
    <path id="path3761_3_" d="M206.042 66.798c-6.149-.258-11.007-4.853-10.564-9.587.444-4.734 5.295-7.868 10.546-7.598 5.252.27 9.619 3.876 10.072 8.597a7.1 7.1 0 0 1-.48 3.36" class="st5"/>
    <path id="path2991-6_3_" d="M254.561 60.966c-1.916.409-3.736-.565-4.051-2.11-.317-1.544.904-3.06 2.717-3.446 1.812-.386 3.613.485 4.034 2.008.418 1.522-.784 3.141-2.7 3.548z" class="st4"/>
    <path id="path3761-1_3_" d="M244.122 61.512c-1.753-4.453 1.14-9.244 5.995-11.127 4.853-1.883 10.489-.411 13.069 3.664s.485 9.578-5.196 11.841a13 13 0 0 1-4.349.911" class="st5"/>
    <path id="path2991-9_3_" d="M258.566 98.143c-.317-1.544 1.497-3.165 4.039-3.706 2.54-.541 4.928.185 5.347 1.707.421 1.523-1.369 3.285-4.013 3.848s-5.056-.304-5.373-1.849z" class="st4"/>
    <path id="path3761-2_3_" d="M258.722 89.568c7.003-2.303 14.686-1.438 17.683 2.507s-.456 9.912-8.271 12.669-16.356.847-18.541-3.554a5.2 5.2 0 0 1-.444-3.365" class="st5"/>
    <path id="path2991-6-9_3_" d="M197.157 94.437c2.54.541 4.354 2.162 4.039 3.706-.317 1.544-2.729 2.412-5.373 1.849s-4.432-2.327-4.013-3.848c.42-1.522 2.807-2.248 5.347-1.707z" class="st4"/>
    <path id="path3761-1-5_3_" d="M210.623 97.89c.884 4.775-4.891 8.769-13.189 8.091s-15.205-5.881-15.178-10.742 6.234-7.533 13.622-6.769c1.788.185 3.566.567 5.257 1.131" class="st5"/>
    <path d="M196.489 97.214c22.455-9.358 42.044-19.461 57.405-39.025" class="st6"/>
    <path d="M263.279 97.214c-22.455-9.358-42.044-19.461-57.407-39.025" class="st6"/>
    <path d="M246.336 79.737c.847 6.256-6.499 12.404-16.455 12.404s-17.302-6.147-16.455-12.404S221.623 69.3 229.881 69.3s15.606 4.179 16.455 10.437z" style="fill:#fff;stroke:#fff;stroke-width:3"/>
</svg>
