<?xml version="1.0" encoding="utf-8"?>
<!-- Generator: Adobe Illustrator 23.0.4, SVG Export Plug-In . SVG Version: 6.00 Build 0)  -->
<svg version="1.1" id="Layer_1" xmlns="http://www.w3.org/2000/svg" xmlns:xlink="http://www.w3.org/1999/xlink" x="0px" y="0px"
	 viewBox="0 0 288 144.29" style="enable-background:new 0 0 288 144.29;" xml:space="preserve">
<style type="text/css">
	.st0{opacity:0.5;}
	.st1{fill:#FFFFFF;}
	.st2{fill:none;stroke:#FFFFFF;stroke-width:4;stroke-miterlimit:10;}
	.st3{fill:none;stroke:#FFFFFF;stroke-width:4;stroke-miterlimit:10;stroke-dasharray:3.0529,3.0529;}
	.st4{fill:#FFFFFF;stroke:#FFFFFF;}
	.st5{fill:none;stroke:#FFFFFF;stroke-width:3;stroke-linecap:round;}
	.st6{fill:none;stroke:#FFFFFF;stroke-width:3;}
	.st7{fill:#FFFFFF;stroke:#FFFFFF;stroke-width:3;}
</style>
<g>
	<g class="st0">
		<title>Layer 1</title>
		<g id="layer1_1_">
			<g id="g4623_1_">
				<path id="rect2192_1_" class="st1" d="M57.675,110.412h9.17v19.439c-2.699,1.274-5.921,1.649-9.17,0V110.412z"/>
				<path id="path1307_1_" class="st1" d="M94.904,112.711c-20.813-4.223-43.151,4.622-65.289,0
					c15.091-13.843,19.439-41.726,32.631-56.543C72.941,70.585,79.588,98.868,94.904,112.711z"/>
				<path id="path2183_1_" class="st1" d="M88.358,76.431c-16.641-3.373-34.506,3.699-52.196,0
					c12.068-11.069,15.541-33.356,26.085-45.2C70.792,42.751,76.114,65.362,88.358,76.431z"/>
				<path id="path2185_1_" class="st1" d="M82.386,47.572c-12.818-2.599-26.61,2.849-40.253,0
					c9.32-8.545,11.993-25.736,20.139-34.855C68.844,21.611,72.941,39.052,82.386,47.572z"/>
			</g>
		</g>
	</g>
	<g>
		<title>Layer 1</title>
		<g id="layer1">
			<g id="g4623">
				<path id="rect2192" class="st1" d="M35.528,116.618h10.617v22.506c-3.124,1.476-6.856,1.909-10.617,0V116.618z"/>
				<path id="path1307" class="st1" d="M78.63,119.28c-24.097-4.889-49.958,5.351-75.588,0c17.473-16.027,22.506-48.31,37.78-65.464
					C53.203,70.507,60.897,103.253,78.63,119.28z"/>
				<path id="path2183" class="st1" d="M71.051,77.277c-19.266-3.905-39.949,4.282-60.43,0
					c13.973-12.815,17.994-38.619,30.201-52.331C50.715,38.281,56.876,64.462,71.051,77.277z"/>
				<path id="path2185" class="st1" d="M64.138,43.864c-14.84-3.008-30.809,3.298-46.602,0c10.79-9.894,13.886-29.796,23.315-40.355
					C48.458,13.809,53.203,34,64.138,43.864z"/>
			</g>
		</g>
	</g>
</g>
<g>
	<line class="st2" x1="119.918" y1="77.051" x2="121.418" y2="77.051"/>
	<line class="st3" x1="124.471" y1="76.933" x2="189.263" y2="76.933"/>
	<g>
		<polygon class="st1" points="98.737,77.051 128.584,89.248 121.502,77.051 128.584,64.858 		"/>
	</g>
</g>
<g>
	<g>
		<g>
			<path id="path2991_3_" class="st4" d="M209.253,58.856c-0.317,1.544-2.136,2.517-4.051,2.11
				c-1.916-0.409-3.119-2.025-2.698-3.548c0.421-1.523,2.221-2.393,4.034-2.008C208.348,55.797,209.57,57.312,209.253,58.856z"/>
			<path id="path3761_3_" class="st5" d="M206.042,66.798c-6.149-0.258-11.007-4.853-10.564-9.587
				c0.444-4.734,5.295-7.868,10.546-7.598c5.252,0.27,9.619,3.876,10.072,8.597c0.109,1.142-0.045,2.285-0.48,3.36"/>
			<path id="path2991-6_3_" class="st4" d="M254.561,60.966c-1.916,0.409-3.736-0.565-4.051-2.11
				c-0.317-1.544,0.904-3.06,2.717-3.446c1.812-0.386,3.613,0.485,4.034,2.008C257.679,58.94,256.477,60.559,254.561,60.966z"/>
			<path id="path3761-1_3_" class="st5" d="M244.122,61.512c-1.753-4.453,1.14-9.244,5.995-11.127
				c4.853-1.883,10.489-0.411,13.069,3.664s0.485,9.578-5.196,11.841c-1.374,0.548-2.862,0.859-4.349,0.911"/>
			<path id="path2991-9_3_" class="st4" d="M258.566,98.143c-0.317-1.544,1.497-3.165,4.039-3.706
				c2.54-0.541,4.928,0.185,5.347,1.707c0.421,1.523-1.369,3.285-4.013,3.848C261.295,100.554,258.883,99.688,258.566,98.143z"/>
			<path id="path3761-2_3_" class="st5" d="M258.722,89.568c7.003-2.303,14.686-1.438,17.683,2.507
				c2.997,3.945-0.456,9.912-8.271,12.669s-16.356,0.847-18.541-3.554c-0.528-1.064-0.671-2.209-0.444-3.365"/>
			<path id="path2991-6-9_3_" class="st4" d="M197.157,94.437c2.54,0.541,4.354,2.162,4.039,3.706
				c-0.317,1.544-2.729,2.412-5.373,1.849c-2.644-0.563-4.432-2.327-4.013-3.848C192.23,94.622,194.617,93.896,197.157,94.437z"/>
			<path id="path3761-1-5_3_" class="st5" d="M210.623,97.89c0.884,4.775-4.891,8.769-13.189,8.091s-15.205-5.881-15.178-10.742
				c0.026-4.862,6.234-7.533,13.622-6.769c1.788,0.185,3.566,0.567,5.257,1.131"/>
		</g>
		<path class="st6" d="M196.489,97.214c22.455-9.358,42.044-19.461,57.405-39.025"/>
		<path class="st6" d="M263.279,97.214c-22.455-9.358-42.044-19.461-57.407-39.025"/>
		<path class="st7" d="M246.336,79.737c0.847,6.256-6.499,12.404-16.455,12.404s-17.302-6.147-16.455-12.404
			c0.847-6.256,8.197-10.437,16.455-10.437S245.487,73.479,246.336,79.737z"/>
	</g>
</g>
</svg>
