<?xml version="1.0" encoding="utf-8"?>
<!-- Generator: Adobe Illustrator 18.1.1, SVG Export Plug-In . SVG Version: 6.00 Build 0)  -->
<svg version="1.1" id="Layer_1" xmlns="http://www.w3.org/2000/svg" xmlns:xlink="http://www.w3.org/1999/xlink" x="0px" y="0px"
	 viewBox="36 9 216 279" enable-background="new 36 9 216 279" xml:space="preserve">
<g>
	<path fill="none" stroke="#FFFFFF" stroke-width="8" stroke-miterlimit="10" d="M238.475,270.675c0,3.96-3.24,7.2-7.2,7.2h-174.6
		c-3.96,0-7.2-3.24-7.2-7.2v-219.6c0-3.96,3.24-7.2,7.2-7.2h174.6c3.96,0,7.2,3.24,7.2,7.2V270.675z"/>
</g>
<g>
	<rect x="84.262" y="13.95" fill="none" stroke="#FFFFFF" stroke-width="6" stroke-miterlimit="10" width="28.8" height="28.8"/>
	<line fill="none" stroke="#FFFFFF" stroke-width="6" stroke-miterlimit="10" x1="92.141" y1="28.35" x2="105.184" y2="28.35"/>
</g>
<g>
	<rect x="173.928" y="13.95" fill="none" stroke="#FFFFFF" stroke-width="6" stroke-miterlimit="10" width="28.8" height="28.8"/>
	<g>
		<line fill="none" stroke="#FFFFFF" stroke-width="6" stroke-miterlimit="10" x1="188.328" y1="20.767" x2="188.328" y2="35.933"/>
		<line fill="none" stroke="#FFFFFF" stroke-width="6" stroke-miterlimit="10" x1="181.806" y1="28.35" x2="194.849" y2="28.35"/>
	</g>
</g>
<rect x="63" y="58.5" fill="#FFFFFF" width="75.6" height="207"/>
<rect x="149.4" y="58.5" fill="#FFFFFF" width="75.6" height="207"/>
</svg>
