<svg xmlns="http://www.w3.org/2000/svg" xml:space="preserve" viewBox="36 9 216 279">
    <path fill="none" stroke="#FFF" stroke-miterlimit="10" stroke-width="8" d="M238.475 270.675c0 3.96-3.24 7.2-7.2 7.2h-174.6c-3.96 0-7.2-3.24-7.2-7.2v-219.6c0-3.96 3.24-7.2 7.2-7.2h174.6c3.96 0 7.2 3.24 7.2 7.2z"/>
    <g fill="none" stroke="#FFF" stroke-miterlimit="10" stroke-width="6">
        <path d="M84.262 13.95h28.8v28.8h-28.8zM92.141 28.35h13.043"/>
    </g>
    <g fill="none" stroke="#FFF" stroke-miterlimit="10" stroke-width="6">
        <path d="M173.928 13.95h28.8v28.8h-28.8zM188.328 20.767v15.166M181.806 28.35h13.043"/>
    </g>
    <path fill="#FFF" d="M198 58.5h27v207h-27zM164.25 58.5h27v207h-27zM130.5 58.5h27v207h-27zM96.75 58.5h27v207h-27zM63 58.5h27v207H63z"/>
</svg>
