<?xml version="1.0" encoding="utf-8"?>
<!-- Generator: Adobe Illustrator 19.2.1, SVG Export Plug-In . SVG Version: 6.00 Build 0)  -->
<svg version="1.1"
	 id="svg3852" inkscape:version="0.91 r13725" sodipodi:docname="gps.svg" xmlns:cc="http://creativecommons.org/ns#" xmlns:dc="http://purl.org/dc/elements/1.1/" xmlns:inkscape="http://www.inkscape.org/namespaces/inkscape" xmlns:rdf="http://www.w3.org/1999/02/22-rdf-syntax-ns#" xmlns:sodipodi="http://sodipodi.sourceforge.net/DTD/sodipodi-0.dtd" xmlns:svg="http://www.w3.org/2000/svg"
	 xmlns="http://www.w3.org/2000/svg" xmlns:xlink="http://www.w3.org/1999/xlink" x="0px" y="0px" viewBox="-250 452 78.5 81.4"
	 style="enable-background:new -250 452 78.5 81.4;" xml:space="preserve">
<style type="text/css">
	.st0{display:none;}
	.st1{display:inline;}
	.st2{fill:none;stroke:#EB008B;stroke-width:0.25;stroke-linecap:round;stroke-linejoin:round;stroke-miterlimit:10;}
	.st3{display:inline;fill:none;stroke:#224A80;stroke-width:3;stroke-linecap:round;stroke-linejoin:round;stroke-miterlimit:10;}
	.st4{fill:none;stroke:#FFFFFF;stroke-width:5;stroke-linecap:round;stroke-linejoin:round;stroke-miterlimit:10;}
	.st5{fill:#FFFFFF;stroke:#FFFFFF;stroke-miterlimit:10;}
	.st6{fill:#FFFFFF;stroke:#FFFFFF;stroke-width:4;stroke-linecap:round;stroke-linejoin:round;stroke-miterlimit:10;}
	.st7{fill:none;stroke:#A10000;stroke-width:10;stroke-linecap:round;stroke-miterlimit:10;}
</style>
<title  id="title4758">GPS</title>
<sodipodi:namedview  bordercolor="#666666" borderopacity="1" gridtolerance="10" guidetolerance="10" id="namedview3929" inkscape:current-layer="svg3852" inkscape:cx="55" inkscape:cy="55" inkscape:pageopacity="0" inkscape:pageshadow="2" inkscape:window-height="480" inkscape:window-width="640" inkscape:zoom="11.136364" objecttolerance="10" pagecolor="#808080" showgrid="false">
	</sodipodi:namedview>
<g id="Layer_2" class="st0">
</g>
<g id="ex_thick" transform="matrix(-1,0,0,-1,111.82126,108.29692)">
</g>
<g id="Layer_2_copy_3" class="st0">
</g>
<g id="ex_thin" transform="matrix(-1,0,0,-1,111.82126,108.29692)">
</g>
<g id="Layer_2_copy" class="st0">
</g>
<g id="em_thick" transform="matrix(-1,0,0,-1,111.82126,108.29692)">
</g>
<g id="Layer_2_copy_4" class="st0">
	<g id="g3861" class="st1">
		<rect id="rect3863" x="-286.1" y="320.7" class="st2" width="56.3" height="56.3"/>
		<circle id="circle3865" class="st2" cx="-258" cy="348.8" r="28.2"/>
	</g>
	<g id="g3867" class="st1">
		<rect id="rect3869" x="-221.7" y="320.7" class="st2" width="56.3" height="56.3"/>
		<circle id="circle3871" class="st2" cx="-193.5" cy="348.8" r="28.2"/>
	</g>
	<g id="g3873" class="st1">
		<rect id="rect3875" x="-158.5" y="320.7" class="st2" width="56.3" height="56.3"/>
		<circle id="circle3877" class="st2" cx="-130.3" cy="348.8" r="28.2"/>
	</g>
</g>
<g id="Layer_2_copy_2" class="st0">
	<g id="g3905" class="st1">
		<rect id="rect3907" x="-286.1" y="425.3" class="st2" width="56.3" height="56.3"/>
		<circle id="circle3909" class="st2" cx="-258" cy="453.5" r="28.2"/>
	</g>
	<g id="g3911" class="st1">
		<rect id="rect3913" x="-221.7" y="425.3" class="st2" width="56.3" height="56.3"/>
		<circle id="circle3915" class="st2" cx="-193.5" cy="453.5" r="28.2"/>
	</g>
	<g id="g3917" class="st1">
		<rect id="rect3919" x="-158.5" y="425.3" class="st2" width="56.3" height="56.3"/>
		<circle id="circle3921" class="st2" cx="-130.3" cy="453.5" r="28.2"/>
	</g>
</g>
<g id="hornet" transform="matrix(-1,0,0,-1,111.82126,108.29692)">
</g>
<g id="Layer_2_copy_5" class="st0">
</g>
<g id="hornet_THIN" transform="matrix(-1,0,0,-1,111.82126,108.29692)">
</g>
<g id="Layer_6" class="st0">
	<polygon id="polygon3927" class="st3" points="-264.6,453.2 -269.5,453.2 -269.5,494.2 -246.6,494.2 -246.6,453.2 -251.5,453.2 
		-251.5,446.7 -264.6,446.7 	"/>
</g>
<g>
	<line class="st4" x1="-211.3" y1="484.9" x2="-211.4" y2="459.4"/>
	<circle class="st5" cx="-227.8" cy="506.7" r="5.2"/>
	<path class="st6" d="M-240.5,487.5V526h59.6v-38.5H-240.5z M-227.8,517.8c-6.1,0-11.1-4.9-11.1-11.1s4.9-11.1,11.1-11.1
		c6.1,0,11.1,4.9,11.1,11.1S-221.7,517.8-227.8,517.8z M-193.7,517.8c-6.1,0-11.1-4.9-11.1-11.1s4.9-11.1,11.1-11.1
		c6.1,0,11.1,4.9,11.1,11.1S-187.6,517.8-193.7,517.8z"/>
	<circle class="st5" cx="-193.7" cy="506.7" r="5.2"/>
</g>
<g>
	<line class="st7" x1="-243.2" y1="525.1" x2="-178.4" y2="460.3"/>
	<line class="st7" x1="-178.4" y1="525.1" x2="-243.2" y2="460.3"/>
</g>
</svg>
