<svg xmlns="http://www.w3.org/2000/svg" xml:space="preserve" id="svg3852" x="0" y="0" version="1.1" viewBox="-250 452 97.2 97.2">
    <style>
        .st0{display:none}.st1{display:inline}.st2,.st5{stroke-miterlimit:10}.st2{fill:none;stroke:#eb008b;stroke-width:.25;stroke-linecap:round;stroke-linejoin:round}.st5{fill:#fff;stroke:#fff}
    </style>
    <path d="m-201.8 494-.1-21.6" style="fill:none;stroke:#fff;stroke-width:5;stroke-linecap:round;stroke-linejoin:round;stroke-miterlimit:10"/>
    <circle cx="-215.8" cy="512.5" r="4.4" class="st5"/>
    <path d="M-226.6 496.2v32.6h50.4v-32.6zm10.8 25.6c-5.2 0-9.4-4.2-9.4-9.4s4.2-9.4 9.4-9.4 9.4 4.2 9.4 9.4c-.1 5.2-4.3 9.4-9.4 9.4m28.8 0c-5.2 0-9.4-4.2-9.4-9.4s4.2-9.4 9.4-9.4 9.4 4.2 9.4 9.4-4.2 9.4-9.4 9.4" style="fill:#fff;stroke:#fff;stroke-width:4;stroke-linecap:round;stroke-linejoin:round;stroke-miterlimit:10"/>
    <circle cx="-187" cy="512.5" r="4.4" class="st5"/>
    <path d="m-231.4 530.5 59.7-59.8" style="fill:none;stroke:#a10000;stroke-width:6;stroke-linecap:round;stroke-miterlimit:10"/>
    <circle cx="-201.4" cy="500.6" r="43.2" style="fill:none;stroke:#a10000;stroke-width:6;stroke-miterlimit:10"/>
</svg>
