<?xml version="1.0" encoding="utf-8"?>
<!-- Generator: Adobe Illustrator 19.2.1, SVG Export Plug-In . SVG Version: 6.00 Build 0)  -->
<svg version="1.1" id="Layer_1" xmlns="http://www.w3.org/2000/svg" xmlns:xlink="http://www.w3.org/1999/xlink" x="0px" y="0px"
	 viewBox="0 0 288 144.29" style="enable-background:new 0 0 288 144.29;" xml:space="preserve">
<style type="text/css">
	.st0{opacity:0.5;}
	.st1{fill:#FFFFFF;}
	.st2{fill:none;stroke:#FFFFFF;stroke-width:4;stroke-miterlimit:10;}
	.st3{fill:none;stroke:#FFFFFF;stroke-width:4;stroke-miterlimit:10;stroke-dasharray:3.0529,3.0529;}
	.st4{fill:none;stroke:#FFFFFF;stroke-width:4;stroke-miterlimit:10;stroke-dasharray:2.6569,2.6569;}
	.st5{fill:none;stroke:#FFFFFF;stroke-width:4;stroke-miterlimit:10;stroke-dasharray:3.2193,3.2193;}
	.st6{fill:none;stroke:#FFFFFF;stroke-width:4;stroke-miterlimit:10;stroke-dasharray:3.0184,3.0184;}
	.st7{fill:#FFFFFF;stroke:#FFFFFF;}
	.st8{fill:none;stroke:#FFFFFF;stroke-width:3;stroke-linecap:round;}
	.st9{fill:none;stroke:#FFFFFF;stroke-width:3;}
	.st10{fill:#FFFFFF;stroke:#FFFFFF;stroke-width:3;}
</style>
<g class="st0">
	<title>Layer 1</title>
	<g id="layer1_1_">
		<g id="g4623_1_">
			<path id="rect2192_1_" class="st1" d="M154.008,121.881h6.853v14.527c-2.017,0.952-4.425,1.232-6.853,0V121.881z"/>
			<path id="path1307_1_" class="st1" d="M181.83,123.599c-15.554-3.156-32.248,3.454-48.792,0
				c11.278-10.345,14.527-31.183,24.386-42.256C165.417,92.117,170.384,113.254,181.83,123.599z"/>
			<path id="path2183_1_" class="st1" d="M176.938,96.486c-12.436-2.521-25.787,2.764-39.007,0
				c9.019-8.272,11.614-24.928,19.494-33.779C163.811,71.316,167.788,88.214,176.938,96.486z"/>
			<path id="path2185_1_" class="st1" d="M172.475,74.919c-9.579-1.942-19.886,2.129-30.082,0
				c6.965-6.386,8.963-19.233,15.05-26.048C162.355,55.518,165.417,68.552,172.475,74.919z"/>
		</g>
	</g>
</g>
<g>
	<polygon class="st1" points="62.223,116.309 31.112,80.009 0,116.309 7.778,116.309 7.778,142.237 23.334,142.237 23.334,121.495 
		38.889,121.495 38.889,142.237 54.445,142.237 54.445,116.309 	"/>
</g>
<g>
	<title>Layer 1</title>
	<g id="layer1">
		<g id="g4623">
			<path id="rect2192" class="st1" d="M137.457,126.519h7.934v16.819c-2.335,1.103-5.124,1.427-7.934,0V126.519z"/>
			<path id="path1307" class="st1" d="M169.668,128.508c-18.008-3.654-37.335,3.999-56.489,0
				c13.058-11.977,16.819-36.103,28.234-48.923C150.666,92.059,156.416,116.531,169.668,128.508z"/>
			<path id="path2183" class="st1" d="M164.004,97.118c-14.398-2.918-29.855,3.2-45.161,0c10.442-9.577,13.447-28.861,22.57-39.108
				C148.807,67.976,153.411,87.541,164.004,97.118z"/>
			<path id="path2185" class="st1" d="M158.838,72.148c-11.09-2.248-23.024,2.465-34.827,0c8.064-7.394,10.377-22.267,17.424-30.158
				C147.12,49.687,150.666,64.776,158.838,72.148z"/>
		</g>
	</g>
</g>
<g>
	<g>
		<line class="st2" x1="149.569" y1="12.193" x2="151.069" y2="12.193"/>
		<line class="st3" x1="154.122" y1="12.193" x2="250.289" y2="12.193"/>
		<polyline class="st2" points="251.816,12.193 253.316,12.193 253.316,13.693 		"/>
		<line class="st4" x1="253.316" y1="16.35" x2="253.316" y2="25.65"/>
		<line class="st2" x1="253.316" y1="26.978" x2="253.316" y2="28.478"/>
		<g>
			<polygon class="st1" points="128.388,12.193 158.235,24.39 151.153,12.193 158.235,0 			"/>
		</g>
		<g>
			<polygon class="st1" points="254.291,26.308 262.775,40.365 262.775,57.465 253.316,48.007 243.856,57.465 243.856,40.365 
				252.338,26.308 			"/>
		</g>
	</g>
</g>
<g>
	<g>
		<line class="st2" x1="31.112" y1="50.606" x2="31.112" y2="49.106"/>
		<line class="st5" x1="31.112" y1="45.887" x2="31.112" y2="15.303"/>
		<polyline class="st2" points="31.112,13.693 31.112,12.193 32.612,12.193 		"/>
		<line class="st6" x1="35.63" y1="12.193" x2="136.745" y2="12.193"/>
		<line class="st2" x1="138.254" y1="12.193" x2="139.754" y2="12.193"/>
		<g>
			<polygon class="st1" points="31.112,71.788 43.308,41.94 31.112,49.023 18.918,41.94 			"/>
		</g>
	</g>
</g>
<g>
	<defs>
		
		
			<inkscape:path-effect  copytype="repeated" effect="skeletal" fuse_tolerance="0" id="path-effect4881" is_visible="true" normal_offset="0" pattern="M 0,0 1,0" prop_scale="1" prop_units="false" scale_y_rel="false" spacing="0" tang_offset="0" vertical_pattern="false">
			</inkscape:path-effect>
		
			<inkscape:path-effect  bendpath="m 110,180 140,0" effect="bend_path" id="path-effect3765" is_visible="true" prop_scale="1" scale_y_rel="false" vertical="false">
			</inkscape:path-effect>
	</defs>
	<g>
		<g>
			
				<path id="path2991_3_" sodipodi:cx="110" sodipodi:cy="110" sodipodi:rx="20" sodipodi:ry="20" sodipodi:type="arc" class="st7" d="
				M238.687,69.157c-0.209,1.011-1.4,1.647-2.652,1.378c-1.252-0.269-2.036-1.329-1.758-2.326c0.278-0.996,1.456-1.565,2.64-1.31
				C238.1,67.153,238.896,68.146,238.687,69.157z"/>
			
				<path id="path3761_3_" sodipodi:cx="110" sodipodi:cy="110" sodipodi:end="6.4866523" sodipodi:open="true" sodipodi:rx="50" sodipodi:ry="50" sodipodi:start="1.374765" sodipodi:type="arc" class="st8" d="
				M236.576,74.353c-4.023-0.176-7.193-3.191-6.892-6.289c0.301-3.098,3.479-5.143,6.909-4.961s6.277,2.544,6.568,5.636
				c0.07,0.748-0.031,1.497-0.316,2.2"/>
			
				<path id="path2991-6_3_" inkscape:transform-center-x="-140.5" inkscape:transform-center-y="-140.5" sodipodi:cx="110" sodipodi:cy="110" sodipodi:rx="20" sodipodi:ry="20" sodipodi:type="arc" class="st7" d="
				M268.303,70.535c-1.252,0.269-2.443-0.367-2.652-1.378c-0.209-1.011,0.587-2.004,1.77-2.258c1.184-0.254,2.362,0.314,2.64,1.31
				C270.338,69.205,269.555,70.266,268.303,70.535z"/>
			
				<path id="path3761-1_3_" inkscape:transform-center-x="-140.5" inkscape:transform-center-y="-140.50478" sodipodi:cx="110" sodipodi:cy="110" sodipodi:end="6.4866523" sodipodi:open="true" sodipodi:rx="50" sodipodi:ry="50" sodipodi:start="1.374765" sodipodi:type="arc" class="st8" d="
				M261.478,70.9c-1.151-2.914,0.736-6.052,3.903-7.288c3.167-1.237,6.851-0.28,8.547,2.384c1.696,2.664,0.337,6.271-3.376,7.758
				c-0.898,0.36-1.871,0.566-2.844,0.602"/>
			
				<path id="path2991-9_3_" sodipodi:cx="110" sodipodi:cy="110" sodipodi:rx="20" sodipodi:ry="20" sodipodi:type="arc" class="st7" d="
				M270.972,94.871c-0.209-1.011,0.979-2.074,2.643-2.432c1.664-0.358,3.23,0.114,3.508,1.11s-0.893,2.154-2.626,2.526
				C272.764,96.448,271.181,95.882,270.972,94.871z"/>
			
				<path id="path3761-2_3_" sodipodi:cx="110" sodipodi:cy="110" sodipodi:end="6.4866523" sodipodi:open="true" sodipodi:rx="50" sodipodi:ry="50" sodipodi:start="1.374765" sodipodi:type="arc" class="st8" d="
				M271.065,89.257c4.586-1.516,9.622-0.965,11.594,1.613c1.971,2.578-0.283,6.493-5.405,8.31
				c-5.123,1.817-10.726,0.574-12.161-2.305c-0.347-0.697-0.441-1.446-0.293-2.203"/>
			
				<path id="path2991-6-9_3_" inkscape:transform-center-x="140.5" inkscape:transform-center-y="140.50002" sodipodi:cx="110" sodipodi:cy="110" sodipodi:rx="20" sodipodi:ry="20" sodipodi:type="arc" class="st7" d="
				M230.723,92.439c1.664,0.358,2.852,1.421,2.643,2.432c-0.209,1.011-1.792,1.576-3.525,1.204c-1.733-0.372-2.903-1.53-2.626-2.526
				S229.058,92.082,230.723,92.439z"/>
			
				<path id="path3761-1-5_3_" inkscape:transform-center-x="140.5" inkscape:transform-center-y="140.50476" sodipodi:cx="110" sodipodi:cy="110" sodipodi:end="6.4866523" sodipodi:open="true" sodipodi:rx="50" sodipodi:ry="50" sodipodi:start="1.374765" sodipodi:type="arc" class="st8" d="
				M239.546,94.715c0.575,3.127-3.213,5.738-8.655,5.284s-9.964-3.876-9.939-7.059c0.025-3.183,4.098-4.92,8.939-4.409
				c1.171,0.124,2.336,0.376,3.443,0.747"/>
		</g>
		<path class="st9" d="M230.281,94.257c15.501-6.427,26.238-13.176,37.581-25.54"/>
		<path class="st9" d="M274.06,94.257c-15.501-6.427-26.238-13.175-37.581-25.54"/>
		<path class="st10" d="M262.941,82.831c0.56,4.096-4.25,8.127-10.773,8.127s-11.332-4.031-10.773-8.127
			c0.56-4.096,5.372-6.828,10.773-6.828C257.57,76.003,262.382,78.735,262.941,82.831z"/>
	</g>
</g>
</svg>
