<?xml version="1.0" encoding="utf-8"?>
<!-- Generator: Adobe Illustrator 23.0.4, SVG Export Plug-In . SVG Version: 6.00 Build 0)  -->
<svg version="1.1" id="Layer_1" xmlns="http://www.w3.org/2000/svg" xmlns:xlink="http://www.w3.org/1999/xlink" x="0px" y="0px"
	 viewBox="0 0 288 144.29" style="enable-background:new 0 0 288 144.29;" xml:space="preserve">
<style type="text/css">
	.st0{opacity:0.5;}
	.st1{fill:#FFFFFF;}
	.st2{fill:none;stroke:#FFFFFF;stroke-width:4;stroke-miterlimit:10;}
	.st3{fill:none;stroke:#FFFFFF;stroke-width:4;stroke-miterlimit:10;stroke-dasharray:3.0529,3.0529;}
	.st4{fill:none;stroke:#FFFFFF;stroke-width:4;stroke-miterlimit:10;stroke-dasharray:2.6569,2.6569;}
	.st5{fill:none;stroke:#FFFFFF;stroke-width:4;stroke-miterlimit:10;stroke-dasharray:3.2193,3.2193;}
	.st6{fill:none;stroke:#FFFFFF;stroke-width:4;stroke-miterlimit:10;stroke-dasharray:3.0184,3.0184;}
</style>
<g class="st0">
	<title>Layer 1</title>
	<g id="layer1_1_">
		<g id="g4623_1_">
			<path id="rect2192_1_" class="st1" d="M154.008,121.881h6.853v14.527c-2.017,0.952-4.425,1.232-6.853,0V121.881z"/>
			<path id="path1307_1_" class="st1" d="M181.83,123.599c-15.554-3.156-32.248,3.454-48.792,0
				c11.278-10.345,14.527-31.183,24.386-42.256C165.417,92.117,170.384,113.254,181.83,123.599z"/>
			<path id="path2183_1_" class="st1" d="M176.938,96.486c-12.436-2.521-25.787,2.764-39.007,0
				c9.019-8.272,11.614-24.928,19.494-33.779C163.811,71.316,167.788,88.214,176.938,96.486z"/>
			<path id="path2185_1_" class="st1" d="M172.475,74.919c-9.579-1.942-19.886,2.129-30.082,0
				c6.965-6.386,8.963-19.233,15.05-26.048C162.355,55.518,165.417,68.552,172.475,74.919z"/>
		</g>
	</g>
</g>
<g>
	<polygon class="st1" points="62.223,116.309 31.112,80.009 0,116.309 7.778,116.309 7.778,142.237 23.334,142.237 23.334,121.495 
		38.889,121.495 38.889,142.237 54.445,142.237 54.445,116.309 	"/>
</g>
<g>
	<title>Layer 1</title>
	<g id="layer1">
		<g id="g4623">
			<path id="rect2192" class="st1" d="M137.457,126.519h7.934v16.819c-2.335,1.103-5.124,1.427-7.934,0V126.519z"/>
			<path id="path1307" class="st1" d="M169.668,128.508c-18.008-3.654-37.335,3.999-56.489,0
				c13.058-11.977,16.819-36.103,28.234-48.923C150.666,92.059,156.416,116.531,169.668,128.508z"/>
			<path id="path2183" class="st1" d="M164.004,97.118c-14.398-2.918-29.855,3.2-45.161,0c10.442-9.577,13.447-28.861,22.57-39.108
				C148.807,67.976,153.411,87.541,164.004,97.118z"/>
			<path id="path2185" class="st1" d="M158.838,72.148c-11.09-2.248-23.024,2.465-34.827,0c8.064-7.394,10.377-22.267,17.424-30.158
				C147.12,49.687,150.666,64.776,158.838,72.148z"/>
		</g>
	</g>
</g>
<g>
	<g>
		<line class="st2" x1="149.569" y1="12.193" x2="151.069" y2="12.193"/>
		<line class="st3" x1="154.122" y1="12.193" x2="250.289" y2="12.193"/>
		<polyline class="st2" points="251.816,12.193 253.316,12.193 253.316,13.693 		"/>
		<line class="st4" x1="253.316" y1="16.35" x2="253.316" y2="25.65"/>
		<line class="st2" x1="253.316" y1="26.978" x2="253.316" y2="28.478"/>
		<g>
			<polygon class="st1" points="128.388,12.193 158.235,24.39 151.153,12.193 158.235,0 			"/>
		</g>
		<g>
			<polygon class="st1" points="254.291,26.308 262.775,40.365 262.775,57.465 253.316,48.007 243.856,57.465 243.856,40.365 
				252.338,26.308 			"/>
		</g>
	</g>
</g>
<g>
	<g>
		<line class="st2" x1="31.112" y1="50.606" x2="31.112" y2="49.106"/>
		<line class="st5" x1="31.112" y1="45.887" x2="31.112" y2="15.303"/>
		<polyline class="st2" points="31.112,13.693 31.112,12.193 32.612,12.193 		"/>
		<line class="st6" x1="35.63" y1="12.193" x2="136.745" y2="12.193"/>
		<line class="st2" x1="138.254" y1="12.193" x2="139.754" y2="12.193"/>
		<g>
			<polygon class="st1" points="31.112,71.788 43.308,41.94 31.112,49.023 18.918,41.94 			"/>
		</g>
	</g>
</g>
<path class="st1" d="M287.912,80.523c0.212,0.742,0.041,1.398-0.512,1.97l-11.78,11.278l-1.965,14.245
	c-0.133,0.75-0.537,1.261-1.211,1.533c-0.674,0.272-1.319,0.183-1.935-0.265l-6.198-4.685l-14.608,13.985
	c-0.195,0.165-0.404,0.293-0.629,0.384c-0.3,0.121-0.629,0.167-0.989,0.138c-0.57-0.118-1.036-0.41-1.397-0.874l-30.725-50.309
	c-0.407-0.794-0.386-1.499,0.062-2.115c0.209-0.345,0.501-0.594,0.875-0.745c0.375-0.151,0.757-0.174,1.147-0.07l68.423,14.218
	C287.219,79.344,287.7,79.781,287.912,80.523L287.912,80.523z M229.175,71.217l43.424,20.245l0.123-0.18
	c0.082-0.12,0.146-0.233,0.19-0.338l9.133-8.775L229.175,71.217z M222.987,70.446l47.238,33.597l1.524-10.802L222.987,70.446z
	 M224.278,73.975l24.535,40.135l12.79-12.338c0.269-0.196,0.614-0.422,1.033-0.678L224.278,73.975z"/>
</svg>
