<?xml version="1.0" encoding="utf-8"?>
<!-- Generator: Adobe Illustrator 19.1.0, SVG Export Plug-In . SVG Version: 6.00 Build 0)  -->
<svg version="1.1" id="Layer_1" xmlns="http://www.w3.org/2000/svg" xmlns:xlink="http://www.w3.org/1999/xlink" x="0px" y="0px"
	 viewBox="0 0 144 72" style="enable-background:new 0 0 144 72;" xml:space="preserve">
<style type="text/css">
	.st0{opacity:0.5;}
	.st1{fill:#FFFFFF;}
	.st2{fill:none;stroke:#FFFFFF;stroke-miterlimit:10;}
	.st3{fill:none;stroke:#FFFFFF;stroke-miterlimit:10;stroke-dasharray:3.0478,3.0478;}
	.st4{fill:none;stroke:#FFFFFF;stroke-miterlimit:10;stroke-dasharray:3.6243,3.6243;}
	.st5{fill:none;stroke:#FFFFFF;stroke-miterlimit:10;stroke-dasharray:3.0018,3.0018;}
	.st6{fill:none;stroke:#FFFFFF;stroke-miterlimit:10;stroke-dasharray:2.9665,2.9665;}
</style>
<g class="st0">
	<title>Layer 1</title>
	<g id="layer1_1_">
		<g id="g4623_1_">
			<path id="rect2192_1_" class="st1" d="M77.2,59.3h3.4v7.1c-1,0.5-2.2,0.6-3.4,0V59.3z"/>
			<path id="path1307_1_" class="st1" d="M90.9,60.2c-7.6-1.6-15.9,1.7-24,0c5.5-5.1,7.1-15.3,12-20.8
				C82.8,44.7,85.2,55.1,90.9,60.2z"/>
			<path id="path2183_1_" class="st1" d="M88.5,46.8c-6.1-1.2-12.7,1.4-19.2,0c4.4-4.1,5.7-12.3,9.6-16.6C82,34.5,84,42.8,88.5,46.8
				z"/>
			<path id="path2185_1_" class="st1" d="M86.3,36.2c-4.7-1-9.8,1-14.8,0c3.4-3.1,4.4-9.5,7.4-12.8C81.3,26.7,82.8,33.1,86.3,36.2z"
				/>
		</g>
	</g>
</g>
<path class="st1" d="M143,37.1c0.1,0.4,0,0.8-0.3,1.1l-6.4,6.1l-1.1,7.7c-0.1,0.4-0.3,0.7-0.7,0.8s-0.7,0.1-1-0.1l-3.3-2.5l-7.9,7.6
	c-0.1,0.1-0.2,0.2-0.3,0.2c-0.2,0.1-0.3,0.1-0.5,0.1c-0.3-0.1-0.6-0.2-0.8-0.5l-16.6-27.2c-0.2-0.4-0.2-0.8,0-1.1
	c0.1-0.2,0.3-0.3,0.5-0.4c0.2-0.1,0.4-0.1,0.6,0l37,7.7C142.6,36.4,142.9,36.7,143,37.1L143,37.1z M111.3,32L134.8,43l0.1-0.1
	c0-0.1,0.1-0.1,0.1-0.2l4.9-4.7L111.3,32z M108,31.6l25.5,18.1l0.8-5.8L108,31.6z M108.6,33.5l13.3,21.7l6.9-6.7
	c0.1-0.1,0.3-0.2,0.6-0.4L108.6,33.5z"/>
<g>
	<polygon class="st1" points="32,56.6 16.7,38.7 1.4,56.6 5.3,56.6 5.3,69.3 12.9,69.3 12.9,59.1 20.6,59.1 20.6,69.3 28.2,69.3 
		28.2,56.6 	"/>
</g>
<g>
	<title>Layer 1</title>
	<g id="layer1">
		<g id="g4623">
			<path id="rect2192" class="st1" d="M69,61.6h3.9v8.3c-1.1,0.5-2.5,0.7-3.9,0V61.6z"/>
			<path id="path1307" class="st1" d="M84.9,62.6c-8.9-1.8-18.4,2-27.8,0c6.4-5.9,8.3-17.8,13.9-24.1C75.5,44.7,78.4,56.7,84.9,62.6
				z"/>
			<path id="path2183" class="st1" d="M82.1,47.1c-7.1-1.4-14.7,1.6-22.2,0C65,42.4,66.5,32.9,71,27.9
				C74.6,32.8,76.9,42.4,82.1,47.1z"/>
			<path id="path2185" class="st1" d="M79.5,34.9c-5.5-1.1-11.3,1.2-17.1,0c4-3.6,5.1-11,8.6-14.8C73.8,23.8,75.5,31.2,79.5,34.9z"
				/>
		</g>
	</g>
</g>
<g>
	<g>
		<line class="st2" x1="77.3" y1="5.4" x2="78.8" y2="5.4"/>
		<line class="st3" x1="81.8" y1="5.4" x2="123" y2="5.4"/>
		<polyline class="st2" points="124.5,5.4 126,5.4 126,6.9 		"/>
		<line class="st4" x1="126" y1="10.5" x2="126" y2="15.9"/>
		<line class="st2" x1="126" y1="17.8" x2="126" y2="19.3"/>
		<g>
			<polygon class="st1" points="72,5.4 79.5,8.4 77.7,5.4 79.5,2.3 			"/>
		</g>
		<g>
			<g>
				<polygon class="st1" points="123.3,21.1 123.5,21 125.6,18.8 125.6,25.3 123.3,27.6 				"/>
				<path class="st1" d="M128.6,27.6l-2.2-2.3v-6.5c0.6,0.8,1.4,1.6,2.2,2.3V27.6z"/>
			</g>
		</g>
	</g>
</g>
<g>
	<g>
		<line class="st2" x1="16.7" y1="29.4" x2="16.7" y2="27.9"/>
		<line class="st5" x1="16.7" y1="24.9" x2="16.7" y2="8.4"/>
		<polyline class="st2" points="16.7,6.9 16.7,5.4 18.2,5.4 		"/>
		<line class="st6" x1="21.2" y1="5.4" x2="67.2" y2="5.4"/>
		<line class="st2" x1="68.7" y1="5.4" x2="70.2" y2="5.4"/>
		<g>
			<polygon class="st1" points="16.7,34.7 19.8,27.2 16.7,29 13.7,27.2 			"/>
		</g>
	</g>
</g>
</svg>
