<svg xmlns="http://www.w3.org/2000/svg" xml:space="preserve" id="Layer_1" x="0" y="0" version="1.1" viewBox="0 0 288 144.29">
    <style>
        .st1{fill:#fff}.st2{fill:none;stroke:#fff;stroke-width:4;stroke-miterlimit:10}
    </style>
    <g style="opacity:.5">
        <g id="layer1_1_">
            <g id="g4623_1_">
                <path id="rect2192_1_" d="M154.008 121.881h6.853v14.527c-2.017.952-4.425 1.232-6.853 0z" class="st1"/>
                <path id="path1307_1_" d="M181.83 123.599c-15.554-3.156-32.248 3.454-48.792 0 11.278-10.345 14.527-31.183 24.386-42.256 7.993 10.774 12.96 31.911 24.406 42.256" class="st1"/>
                <path id="path2183_1_" d="M176.938 96.486c-12.436-2.521-25.787 2.764-39.007 0 9.019-8.272 11.614-24.928 19.494-33.779 6.386 8.609 10.363 25.507 19.513 33.779" class="st1"/>
                <path id="path2185_1_" d="M172.475 74.919c-9.579-1.942-19.886 2.129-30.082 0 6.965-6.386 8.963-19.233 15.05-26.048 4.912 6.647 7.974 19.681 15.032 26.048" class="st1"/>
            </g>
        </g>
    </g>
    <path d="m62.223 116.309-31.111-36.3L0 116.309h7.778v25.928h15.556v-20.742h15.555v20.742h15.556v-25.928z" class="st1"/>
    <g id="layer1">
        <g id="g4623">
            <path id="rect2192" d="M137.457 126.519h7.934v16.819c-2.335 1.103-5.124 1.427-7.934 0z" class="st1"/>
            <path id="path1307" d="M169.668 128.508c-18.008-3.654-37.335 3.999-56.489 0 13.058-11.977 16.819-36.103 28.234-48.923 9.253 12.474 15.003 36.946 28.255 48.923" class="st1"/>
            <path id="path2183" d="M164.004 97.118c-14.398-2.918-29.855 3.2-45.161 0 10.442-9.577 13.447-28.861 22.57-39.108 7.394 9.966 11.998 29.531 22.591 39.108" class="st1"/>
            <path id="path2185" d="M158.838 72.148c-11.09-2.248-23.024 2.465-34.827 0 8.064-7.394 10.377-22.267 17.424-30.158 5.685 7.697 9.231 22.786 17.403 30.158" class="st1"/>
        </g>
    </g>
    <path d="M149.569 12.193h1.5" class="st2"/>
    <path d="M154.122 12.193h96.167" style="fill:none;stroke:#fff;stroke-width:4;stroke-miterlimit:10;stroke-dasharray:3.0529,3.0529"/>
    <path d="M251.816 12.193h1.5v1.5" class="st2"/>
    <path d="M253.316 16.35v9.3" style="fill:none;stroke:#fff;stroke-width:4;stroke-miterlimit:10;stroke-dasharray:2.6569,2.6569"/>
    <path d="M253.316 26.978v1.5" class="st2"/>
    <path d="m128.388 12.193 29.847 12.197-7.082-12.197L158.235 0zM254.291 26.308l8.484 14.057v17.1l-9.459-9.458-9.46 9.458v-17.1l8.482-14.057z" class="st1"/>
    <path d="M31.112 50.606v-1.5" class="st2"/>
    <path d="M31.112 45.887V15.303" style="fill:none;stroke:#fff;stroke-width:4;stroke-miterlimit:10;stroke-dasharray:3.2193,3.2193"/>
    <path d="M31.112 13.693v-1.5h1.5" class="st2"/>
    <path d="M35.63 12.193h101.115" style="fill:none;stroke:#fff;stroke-width:4;stroke-miterlimit:10;stroke-dasharray:3.0184,3.0184"/>
    <path d="M138.254 12.193h1.5" class="st2"/>
    <path d="M31.112 71.788 43.308 41.94l-12.196 7.083-12.194-7.083zM287.912 80.523q.318 1.113-.512 1.97l-11.78 11.278-1.965 14.245q-.2 1.125-1.211 1.533t-1.935-.265l-6.198-4.685-14.608 13.985a2.3 2.3 0 0 1-.629.384q-.45.181-.989.138a2.32 2.32 0 0 1-1.397-.874l-30.725-50.309q-.61-1.191.062-2.115.314-.518.875-.745a1.77 1.77 0 0 1 1.147-.07l68.423 14.218q1.124.2 1.442 1.312m-58.737-9.306 43.424 20.245.123-.18q.124-.18.19-.338l9.133-8.775zm-6.188-.771 47.238 33.597 1.524-10.802zm1.291 3.529 24.535 40.135 12.79-12.338q.404-.294 1.033-.678z" class="st1"/>
</svg>
