<svg xmlns="http://www.w3.org/2000/svg" xml:space="preserve" id="Layer_1" x="0" y="0" version="1.1" viewBox="0 0 288 144.29">
    <style>
        .st1{fill:#fff}.st2,.st7{stroke:#fff}.st2{fill:none;stroke-width:4;stroke-miterlimit:10}.st7{fill:#fff}.st8{stroke-linecap:round}.st8,.st9{fill:none;stroke:#fff;stroke-width:3}
    </style>
    <g style="opacity:.5">
        <g id="layer1_1_">
            <g id="g4623_1_">
                <path id="rect2192_1_" d="M154.008 121.881h6.853v14.527c-2.017.952-4.425 1.232-6.853 0z" class="st1"/>
                <path id="path1307_1_" d="M181.83 123.599c-15.554-3.156-32.248 3.454-48.792 0 11.278-10.345 14.527-31.183 24.386-42.256 7.993 10.774 12.96 31.911 24.406 42.256" class="st1"/>
                <path id="path2183_1_" d="M176.938 96.486c-12.436-2.521-25.787 2.764-39.007 0 9.019-8.272 11.614-24.928 19.494-33.779 6.386 8.609 10.363 25.507 19.513 33.779" class="st1"/>
                <path id="path2185_1_" d="M172.475 74.919c-9.579-1.942-19.886 2.129-30.082 0 6.965-6.386 8.963-19.233 15.05-26.048 4.912 6.647 7.974 19.681 15.032 26.048" class="st1"/>
            </g>
        </g>
    </g>
    <path d="m62.223 116.309-31.111-36.3L0 116.309h7.778v25.928h15.556v-20.742h15.555v20.742h15.556v-25.928z" class="st1"/>
    <g id="layer1">
        <g id="g4623">
            <path id="rect2192" d="M137.457 126.519h7.934v16.819c-2.335 1.103-5.124 1.427-7.934 0z" class="st1"/>
            <path id="path1307" d="M169.668 128.508c-18.008-3.654-37.335 3.999-56.489 0 13.058-11.977 16.819-36.103 28.234-48.923 9.253 12.474 15.003 36.946 28.255 48.923" class="st1"/>
            <path id="path2183" d="M164.004 97.118c-14.398-2.918-29.855 3.2-45.161 0 10.442-9.577 13.447-28.861 22.57-39.108 7.394 9.966 11.998 29.531 22.591 39.108" class="st1"/>
            <path id="path2185" d="M158.838 72.148c-11.09-2.248-23.024 2.465-34.827 0 8.064-7.394 10.377-22.267 17.424-30.158 5.685 7.697 9.231 22.786 17.403 30.158" class="st1"/>
        </g>
    </g>
    <path d="M149.569 12.193h1.5" class="st2"/>
    <path d="M154.122 12.193h96.167" style="fill:none;stroke:#fff;stroke-width:4;stroke-miterlimit:10;stroke-dasharray:3.0529,3.0529"/>
    <path d="M251.816 12.193h1.5v1.5" class="st2"/>
    <path d="M253.316 16.35v9.3" style="fill:none;stroke:#fff;stroke-width:4;stroke-miterlimit:10;stroke-dasharray:2.6569,2.6569"/>
    <path d="M253.316 26.978v1.5" class="st2"/>
    <path d="m128.388 12.193 29.847 12.197-7.082-12.197L158.235 0zM254.291 26.308l8.484 14.057v17.1l-9.459-9.458-9.46 9.458v-17.1l8.482-14.057z" class="st1"/>
    <path d="M31.112 50.606v-1.5" class="st2"/>
    <path d="M31.112 45.887V15.303" style="fill:none;stroke:#fff;stroke-width:4;stroke-miterlimit:10;stroke-dasharray:3.2193,3.2193"/>
    <path d="M31.112 13.693v-1.5h1.5" class="st2"/>
    <path d="M35.63 12.193h101.115" style="fill:none;stroke:#fff;stroke-width:4;stroke-miterlimit:10;stroke-dasharray:3.0184,3.0184"/>
    <path d="M138.254 12.193h1.5" class="st2"/>
    <path d="M31.112 71.788 43.308 41.94l-12.196 7.083-12.194-7.083z" class="st1"/>
    <path id="path2991_3_" d="M238.126 78.582c-.222 1.081-1.496 1.763-2.838 1.478-1.342-.286-2.185-1.419-1.89-2.486s1.556-1.676 2.825-1.407c1.269.273 2.125 1.333 1.903 2.415z" class="st7"/>
    <path id="path3761_3_" d="M235.877 84.145c-4.307-.181-7.71-3.4-7.4-6.715.311-3.316 3.709-5.511 7.388-5.322s6.738 2.715 7.055 6.022a5 5 0 0 1-.336 2.353" class="st8"/>
    <path id="path2991-6_3_" d="M269.863 80.06c-1.342.286-2.617-.396-2.838-1.478s.634-2.143 1.903-2.414 2.531.34 2.825 1.407-.547 2.2-1.89 2.485z" class="st7"/>
    <path id="path3761-1_3_" d="M262.551 80.442c-1.228-3.119.799-6.475 4.199-7.794s7.348-.288 9.155 2.567.34 6.709-3.64 8.294a9.1 9.1 0 0 1-3.046.638" class="st8"/>
    <path id="path2991-9_3_" d="M272.669 106.102c-.222-1.081 1.049-2.217 2.829-2.596 1.779-.379 3.452.13 3.745 1.195.295 1.067-.959 2.301-2.811 2.696s-3.54-.212-3.763-1.295z" class="st7"/>
    <path id="path3761-2_3_" d="M272.779 100.095c4.906-1.613 10.287-1.007 12.387 1.756s-.319 6.943-5.794 8.874-11.457.593-12.988-2.489a3.64 3.64 0 0 1-.311-2.357" class="st8"/>
    <path id="path2991-6-9_3_" d="M229.653 103.506c1.779.379 3.05 1.515 2.829 2.596-.222 1.081-1.912 1.689-3.764 1.295s-3.105-1.63-2.811-2.696c.294-1.065 1.967-1.574 3.746-1.195z" class="st7"/>
    <path id="path3761-1-5_3_" d="M239.086 105.925c.619 3.345-3.426 6.142-9.239 5.668s-10.651-4.119-10.632-7.525c.018-3.406 4.367-5.277 9.542-4.742 1.253.13 2.498.397 3.682.793" class="st8"/>
    <path d="M229.185 105.451c15.729-6.555 29.451-13.632 40.212-27.337" class="st9"/>
    <path d="M275.971 105.451c-15.729-6.555-29.451-13.632-40.213-27.337" class="st9"/>
    <path d="M264.102 93.209c.594 4.383-4.552 8.689-11.526 8.689s-12.12-4.306-11.526-8.689 5.742-7.311 11.526-7.311 10.931 2.927 11.526 7.311z" style="fill:#fff;stroke:#fff;stroke-width:3"/>
</svg>
