<?xml version="1.0" encoding="utf-8"?>
<!-- Generator: Adobe Illustrator 23.0.4, SVG Export Plug-In . SVG Version: 6.00 Build 0)  -->
<svg version="1.1" id="Layer_1" xmlns="http://www.w3.org/2000/svg" xmlns:xlink="http://www.w3.org/1999/xlink" x="0px" y="0px"
	 viewBox="0 0 288 144.29" style="enable-background:new 0 0 288 144.29;" xml:space="preserve">
<style type="text/css">
	.st0{opacity:0.5;}
	.st1{fill:#FFFFFF;}
	.st2{fill:none;stroke:#FFFFFF;stroke-width:4;stroke-miterlimit:10;}
	.st3{fill:none;stroke:#FFFFFF;stroke-width:4;stroke-miterlimit:10;stroke-dasharray:3.0529,3.0529;}
	.st4{fill:none;stroke:#FFFFFF;stroke-width:4;stroke-miterlimit:10;stroke-dasharray:2.6569,2.6569;}
	.st5{fill:none;stroke:#FFFFFF;stroke-width:4;stroke-miterlimit:10;stroke-dasharray:3.2193,3.2193;}
	.st6{fill:none;stroke:#FFFFFF;stroke-width:4;stroke-miterlimit:10;stroke-dasharray:3.0184,3.0184;}
	.st7{fill:#FFFFFF;stroke:#FFFFFF;}
	.st8{fill:none;stroke:#FFFFFF;stroke-width:3;stroke-linecap:round;}
	.st9{fill:none;stroke:#FFFFFF;stroke-width:3;}
	.st10{fill:#FFFFFF;stroke:#FFFFFF;stroke-width:3;}
</style>
<g class="st0">
	<title>Layer 1</title>
	<g id="layer1_1_">
		<g id="g4623_1_">
			<path id="rect2192_1_" class="st1" d="M154.008,121.881h6.853v14.527c-2.017,0.952-4.425,1.232-6.853,0V121.881z"/>
			<path id="path1307_1_" class="st1" d="M181.83,123.599c-15.554-3.156-32.248,3.454-48.792,0
				c11.278-10.345,14.527-31.183,24.386-42.256C165.417,92.117,170.384,113.254,181.83,123.599z"/>
			<path id="path2183_1_" class="st1" d="M176.938,96.486c-12.436-2.521-25.787,2.764-39.007,0
				c9.019-8.272,11.614-24.928,19.494-33.779C163.811,71.316,167.788,88.214,176.938,96.486z"/>
			<path id="path2185_1_" class="st1" d="M172.475,74.919c-9.579-1.942-19.886,2.129-30.082,0
				c6.965-6.386,8.963-19.233,15.05-26.048C162.355,55.518,165.417,68.552,172.475,74.919z"/>
		</g>
	</g>
</g>
<g>
	<polygon class="st1" points="62.223,116.309 31.112,80.009 0,116.309 7.778,116.309 7.778,142.237 23.334,142.237 23.334,121.495 
		38.889,121.495 38.889,142.237 54.445,142.237 54.445,116.309 	"/>
</g>
<g>
	<title>Layer 1</title>
	<g id="layer1">
		<g id="g4623">
			<path id="rect2192" class="st1" d="M137.457,126.519h7.934v16.819c-2.335,1.103-5.124,1.427-7.934,0V126.519z"/>
			<path id="path1307" class="st1" d="M169.668,128.508c-18.008-3.654-37.335,3.999-56.489,0
				c13.058-11.977,16.819-36.103,28.234-48.923C150.666,92.059,156.416,116.531,169.668,128.508z"/>
			<path id="path2183" class="st1" d="M164.004,97.118c-14.398-2.918-29.855,3.2-45.161,0c10.442-9.577,13.447-28.861,22.57-39.108
				C148.807,67.976,153.411,87.541,164.004,97.118z"/>
			<path id="path2185" class="st1" d="M158.838,72.148c-11.09-2.248-23.024,2.465-34.827,0c8.064-7.394,10.377-22.267,17.424-30.158
				C147.12,49.687,150.666,64.776,158.838,72.148z"/>
		</g>
	</g>
</g>
<g>
	<g>
		<line class="st2" x1="149.569" y1="12.193" x2="151.069" y2="12.193"/>
		<line class="st3" x1="154.122" y1="12.193" x2="250.289" y2="12.193"/>
		<polyline class="st2" points="251.816,12.193 253.316,12.193 253.316,13.693 		"/>
		<line class="st4" x1="253.316" y1="16.35" x2="253.316" y2="25.65"/>
		<line class="st2" x1="253.316" y1="26.978" x2="253.316" y2="28.478"/>
		<g>
			<polygon class="st1" points="128.388,12.193 158.235,24.39 151.153,12.193 158.235,0 			"/>
		</g>
		<g>
			<polygon class="st1" points="254.291,26.308 262.775,40.365 262.775,57.465 253.316,48.007 243.856,57.465 243.856,40.365 
				252.338,26.308 			"/>
		</g>
	</g>
</g>
<g>
	<g>
		<line class="st2" x1="31.112" y1="50.606" x2="31.112" y2="49.106"/>
		<line class="st5" x1="31.112" y1="45.887" x2="31.112" y2="15.303"/>
		<polyline class="st2" points="31.112,13.693 31.112,12.193 32.612,12.193 		"/>
		<line class="st6" x1="35.63" y1="12.193" x2="136.745" y2="12.193"/>
		<line class="st2" x1="138.254" y1="12.193" x2="139.754" y2="12.193"/>
		<g>
			<polygon class="st1" points="31.112,71.788 43.308,41.94 31.112,49.023 18.918,41.94 			"/>
		</g>
	</g>
</g>
<g>
	<g>
		<g>
			<path id="path2991_3_" class="st7" d="M238.126,78.582c-0.222,1.081-1.496,1.763-2.838,1.478
				c-1.342-0.286-2.185-1.419-1.89-2.486s1.556-1.676,2.825-1.407C237.492,76.44,238.348,77.5,238.126,78.582z"/>
			<path id="path3761_3_" class="st8" d="M235.877,84.145c-4.307-0.181-7.71-3.4-7.4-6.715c0.311-3.316,3.709-5.511,7.388-5.322
				c3.679,0.189,6.738,2.715,7.055,6.022c0.076,0.8-0.032,1.601-0.336,2.353"/>
			<path id="path2991-6_3_" class="st7" d="M269.863,80.06c-1.342,0.286-2.617-0.396-2.838-1.478
				c-0.222-1.081,0.634-2.143,1.903-2.414c1.27-0.271,2.531,0.34,2.825,1.407C272.048,78.641,271.206,79.775,269.863,80.06z"/>
			<path id="path3761-1_3_" class="st8" d="M262.551,80.442c-1.228-3.119,0.799-6.475,4.199-7.794
				c3.4-1.319,7.348-0.288,9.155,2.567c1.807,2.855,0.34,6.709-3.64,8.294c-0.962,0.384-2.005,0.602-3.046,0.638"/>
			<path id="path2991-9_3_" class="st7" d="M272.669,106.102c-0.222-1.081,1.049-2.217,2.829-2.596
				c1.779-0.379,3.452,0.13,3.745,1.195c0.295,1.067-0.959,2.301-2.811,2.696S272.892,107.185,272.669,106.102z"/>
			<path id="path3761-2_3_" class="st8" d="M272.779,100.095c4.906-1.613,10.287-1.007,12.387,1.756
				c2.1,2.764-0.319,6.943-5.794,8.874s-11.457,0.593-12.988-2.489c-0.37-0.745-0.47-1.547-0.311-2.357"/>
			<path id="path2991-6-9_3_" class="st7" d="M229.653,103.506c1.779,0.379,3.05,1.515,2.829,2.596
				c-0.222,1.081-1.912,1.689-3.764,1.295c-1.852-0.394-3.105-1.63-2.811-2.696C226.201,103.636,227.874,103.127,229.653,103.506z"
				/>
			<path id="path3761-1-5_3_" class="st8" d="M239.086,105.925c0.619,3.345-3.426,6.142-9.239,5.668s-10.651-4.119-10.632-7.525
				c0.018-3.406,4.367-5.277,9.542-4.742c1.253,0.13,2.498,0.397,3.682,0.793"/>
		</g>
		<path class="st9" d="M229.185,105.451c15.729-6.555,29.451-13.632,40.212-27.337"/>
		<path class="st9" d="M275.971,105.451c-15.729-6.555-29.451-13.632-40.213-27.337"/>
		<path class="st10" d="M264.102,93.209c0.594,4.383-4.552,8.689-11.526,8.689s-12.12-4.306-11.526-8.689
			c0.593-4.383,5.742-7.311,11.526-7.311C258.36,85.898,263.507,88.825,264.102,93.209z"/>
	</g>
</g>
</svg>
