<?xml version="1.0" encoding="utf-8"?>
<!-- Generator: Adobe Illustrator 18.1.1, SVG Export Plug-In . SVG Version: 6.00 Build 0)  -->
<svg version="1.1" id="Layer_1" xmlns="http://www.w3.org/2000/svg" xmlns:xlink="http://www.w3.org/1999/xlink" x="0px" y="0px"
	 viewBox="356 -168 306 480" enable-background="new 356 -168 306 480" xml:space="preserve">
<g>
	<title>Layer 1</title>
	<g id="layer1">
		<g id="g4623">
			<path id="rect2192" fill="#FFFFFF" d="M484.7,225.1h36.7v77.8c-10.8,5.1-23.7,6.6-36.7,0V225.1z"/>
			<path id="path1307" fill="#FFFFFF" d="M633.7,234.3c-83.3-16.9-172.7,18.5-261.3,0C432.8,178.9,450.2,67.3,503,8
				C545.8,65.7,572.4,178.9,633.7,234.3z"/>
			<path id="path2183" fill="#FFFFFF" d="M607.5,89.1c-66.6-13.5-138.1,14.8-208.9,0C446.9,44.8,460.8-44.4,503-91.8
				C537.2-45.7,558.5,44.8,607.5,89.1z"/>
			<path id="path2185" fill="#FFFFFF" d="M583.6-26.4c-51.3-10.4-106.5,11.4-161.1,0c37.3-34.2,48-103,80.6-139.5
				C529.4-130.3,545.8-60.5,583.6-26.4z"/>
		</g>
	</g>
</g>
</svg>
