<?xml version="1.0" encoding="utf-8"?>
<!-- Generator: Adobe Illustrator 22.0.1, SVG Export Plug-In . SVG Version: 6.00 Build 0)  -->
<svg version="1.1" id="Layer_1" xmlns="http://www.w3.org/2000/svg" xmlns:xlink="http://www.w3.org/1999/xlink" x="0px" y="0px"
	 width="72px" height="72px" viewBox="0 0 72 72" style="enable-background:new 0 0 72 72;" xml:space="preserve">
<style type="text/css">
	.st0{fill:#FFFFFF;}
</style>
<title>Page 1</title>
<desc>Created with Sketch.</desc>
<g id="Map-Copy-8" transform="translate(-2396.000000, -714.000000)">
	<g id="Group-3" transform="translate(2379.000000, 693.000000)">
		<path id="Page-1" class="st0" d="M88.463,84.307L57.076,25.426c-0.797-1.46-2.322-2.388-4-2.388c-1.681,0-3.203,0.928-3.978,2.388
			L17.532,84.307c-0.753,1.391-0.706,3.095,0.106,4.445c0.822,1.372,2.303,2.21,3.894,2.21h62.95c1.591,0,3.05-0.841,3.869-2.21
			C89.17,87.402,89.213,85.701,88.463,84.307L88.463,84.307z M52.995,82.811c-1.876,0-3.395-1.519-3.395-3.396
			c0-1.874,1.519-3.396,3.395-3.396s3.398,1.523,3.398,3.396C56.39,81.289,54.871,82.811,52.995,82.811z M56.363,48.674
			L54.505,72.04c-0.104,1.499-0.929,2.62-2.188,2.62c-1.258,0-2.083-1.121-2.188-2.62l-1.858-23.367
			c-0.096-1.352-0.014-2.576,1.059-3.691c0.861-0.896,1.853-1.568,2.99-1.568s2.126,0.671,2.99,1.568
			C56.377,46.097,56.459,47.322,56.363,48.674L56.363,48.674z"/>
	</g>
</g>
</svg>
