<?xml version="1.0" encoding="utf-8"?>
<!-- Generator: Adobe Illustrator 22.0.1, SVG Export Plug-In . SVG Version: 6.00 Build 0)  -->
<svg version="1.1" id="Layer_1" xmlns="http://www.w3.org/2000/svg" xmlns:xlink="http://www.w3.org/1999/xlink" x="0px" y="0px"
	 width="72px" height="72px" viewBox="0 0 72 72" style="enable-background:new 0 0 72 72;" xml:space="preserve">
<style type="text/css">
	.st0{fill:#FFFFFF;}
</style>
<path class="st0" d="M60.299,0.003c-3.006,0-6.011,1.132-8.285,3.41l-0.011,0.011L7.931,48.217L0,71.997l23.781-7.931l0.492-0.481
	l44.311-43.59v-0.011c4.553-4.553,4.556-12.023,0-16.571C66.308,1.137,63.304,0.003,60.299,0.003z M60.299,5.828
	c1.493,0,2.986,0.571,4.143,1.728c2.311,2.307,2.314,5.971,0,8.285l-4.623,4.555c-0.651-1.589-1.671-3.273-3.307-4.909
	c-1.633-1.633-3.32-2.647-4.909-3.296l4.578-4.646C57.33,6.402,58.814,5.828,60.299,5.828z M47.733,17.157
	c1.084,0.091,2.652,0.489,4.635,2.472c1.986,1.986,2.4,3.556,2.495,4.635c0.072,0.818-0.029,0.933-0.08,1.076L24.513,55.129
	c-0.652-1.448-1.65-2.977-3.159-4.486c-1.509-1.509-3.038-2.506-4.486-3.159l29.777-30.258
	C46.796,17.179,46.916,17.088,47.733,17.157z M12.84,52.348c0.909,0.072,2.359,0.425,4.372,2.438
	c2.012,2.012,2.366,3.462,2.438,4.372c0.008,0.099-0.015,0.033-0.011,0.114l-5.585,1.865c-0.438-0.566-0.917-1.135-1.488-1.705
	c-0.567-0.567-1.139-1.04-1.705-1.476l1.865-5.596C12.807,52.362,12.741,52.34,12.84,52.348z"/>
</svg>
