<?xml version="1.0" encoding="utf-8"?>
<!-- Generator: Adobe Illustrator 22.0.1, SVG Export Plug-In . SVG Version: 6.00 Build 0)  -->
<svg version="1.1" id="Capa_1" xmlns="http://www.w3.org/2000/svg" xmlns:xlink="http://www.w3.org/1999/xlink" x="0px" y="0px"
	 width="72px" height="72px" viewBox="0 0 72 72" style="enable-background:new 0 0 72 72;" xml:space="preserve">
<path d="M36,0C16.1,0,0,16.1,0,36s16.1,36,36,36c19.9,0,36-16.1,36-36S55.9,0,36,0z M36,12.2c4.4,0,8.5,1.2,12,3.2L15.4,48
	c-2.1-3.5-3.2-7.6-3.2-12C12.2,22.9,22.9,12.2,36,12.2z M36,59.8c-4.4,0-8.5-1.2-12-3.2L56.6,24c2.1,3.5,3.2,7.6,3.2,12
	C59.8,49.1,49.1,59.8,36,59.8z"/>
</svg>
