<?xml version="1.0" encoding="UTF-8" standalone="no"?>
<!-- Created with Inkscape (http://www.inkscape.org/) -->

<svg
   xmlns:dc="http://purl.org/dc/elements/1.1/"
   xmlns:cc="http://creativecommons.org/ns#"
   xmlns:rdf="http://www.w3.org/1999/02/22-rdf-syntax-ns#"
   xmlns:svg="http://www.w3.org/2000/svg"
   xmlns="http://www.w3.org/2000/svg"
   xmlns:xlink="http://www.w3.org/1999/xlink"
   xmlns:sodipodi="http://sodipodi.sourceforge.net/DTD/sodipodi-0.dtd"
   xmlns:inkscape="http://www.inkscape.org/namespaces/inkscape"
   width="204.65625"
   height="203.875"
   id="svg2"
   version="1.1"
   inkscape:version="0.48.2 r9819"
   sodipodi:docname="qgroundcontrol-ardrone.svg">
  <defs
     id="defs4">
    <linearGradient
       inkscape:collect="always"
       id="linearGradient4002">
      <stop
         style="stop-color:#020202;stop-opacity:1;"
         offset="0"
         id="stop4004" />
      <stop
         style="stop-color:#020202;stop-opacity:0;"
         offset="1"
         id="stop4006" />
    </linearGradient>
    <radialGradient
       inkscape:collect="always"
       xlink:href="#linearGradient4002"
       id="radialGradient4020"
       gradientUnits="userSpaceOnUse"
       gradientTransform="matrix(1,0,0,1.0868293,0,-36.925542)"
       cx="121.8222"
       cy="425.26608"
       fx="121.8222"
       fy="425.26608"
       r="26.555349" />
    <radialGradient
       inkscape:collect="always"
       xlink:href="#linearGradient4002"
       id="radialGradient4028"
       gradientUnits="userSpaceOnUse"
       gradientTransform="matrix(1,0,0,1.0868293,0,-36.925542)"
       cx="121.8222"
       cy="425.26608"
       fx="121.8222"
       fy="425.26608"
       r="26.555349" />
    <radialGradient
       inkscape:collect="always"
       xlink:href="#linearGradient4002"
       id="radialGradient4036"
       gradientUnits="userSpaceOnUse"
       gradientTransform="matrix(1,0,0,1.0868293,0,-36.925542)"
       cx="121.8222"
       cy="425.26608"
       fx="121.8222"
       fy="425.26608"
       r="26.555349" />
    <radialGradient
       inkscape:collect="always"
       xlink:href="#linearGradient4002"
       id="radialGradient4038"
       gradientUnits="userSpaceOnUse"
       gradientTransform="matrix(1,0,0,1.0868293,0,-36.925542)"
       cx="121.8222"
       cy="425.26608"
       fx="121.8222"
       fy="425.26608"
       r="26.555349" />
  </defs>
  <sodipodi:namedview
     id="base"
     pagecolor="#ffffff"
     bordercolor="#666666"
     borderopacity="1.0"
     inkscape:pageopacity="0.0"
     inkscape:pageshadow="2"
     inkscape:zoom="0.86772068"
     inkscape:cx="89.14956"
     inkscape:cy="84.037903"
     inkscape:document-units="px"
     inkscape:current-layer="layer1"
     showgrid="false"
     fit-margin-top="0"
     fit-margin-left="0"
     fit-margin-right="0"
     fit-margin-bottom="0"
     inkscape:window-width="1138"
     inkscape:window-height="714"
     inkscape:window-x="0"
     inkscape:window-y="0"
     inkscape:window-maximized="0" />
  <metadata
     id="metadata7">
    <rdf:RDF>
      <cc:Work
         rdf:about="">
        <dc:format>image/svg+xml</dc:format>
        <dc:type
           rdf:resource="http://purl.org/dc/dcmitype/StillImage" />
        <dc:title></dc:title>
      </cc:Work>
    </rdf:RDF>
  </metadata>
  <g
     inkscape:label="Ebene 1"
     inkscape:groupmode="layer"
     id="layer1"
     transform="translate(-69.4375,-373.03125)">
    <path
       style="fill:#3f3f3f;fill-opacity:0.72347263;stroke:#000000;stroke-width:1px;stroke-linecap:butt;stroke-linejoin:miter;stroke-opacity:0.82315111"
       d="m 123.4375,373.53125 c -29.25014,0 -52.9375,22.87542 -52.9375,51.09375 0,7.58451 1.739369,14.77789 4.8125,21.25 l -0.03125,0.0312 2.40625,5.125 2.96875,4.28125 2.6875,4.5625 -1.625,31.46875 0.34375,0.5 c -7.581525,8.93266 -12.125,20.40661 -12.125,32.90625 0,28.51621 23.717689,51.625 52.96875,51.625 7.80208,0 15.20584,-1.67195 21.875,-4.625 l 5.5,-1.90625 9.40625,-3.5 7.78125,-0.53125 3.21875,-0.28125 5.125,0 4.28125,0 5.125,1.34375 7,2.15625 7.5,2.40625 0.59375,0.1875 c 6.57323,3.04879 13.88198,4.78125 21.59375,4.78125 28.54753,0 51.6875,-23.31839 51.6875,-52.0625 0,-8.73443 -2.16142,-16.95923 -5.9375,-24.1875 L 268,499.6875 264.25,493.5 l -1.0625,-1.625 -1.375,-4.5625 -1.59375,-22.0625 1.03125,-5.8125 c 0.77945,-0.93304 1.53641,-1.8878 2.25,-2.875 l 1.8125,-2.3125 2.96875,-5.375 0.71875,-2 c 1.42622,-3.27588 2.55037,-6.72547 3.28125,-10.3125 l 0.3125,-1.125 0.78125,-5.9375 -0.15625,-0.125 c 0.0679,-1.08924 0.0937,-2.17481 0.0937,-3.28125 0,-28.66987 -23.13997,-51.90625 -51.6875,-51.90625 -9.81322,0 -18.96589,2.73092 -26.78125,7.5 l -1.5625,0.78125 -7.25,4.84375 -2.15625,1.34375 -7,10.75 -0.0625,0.84375 c -0.49879,0.87062 -0.98849,1.75477 -1.4375,2.65625 l -0.0937,0 0.53125,-1.625 -1.09375,0 -0.25,-3.75 -4.3125,-0.28125 -0.40625,2.59375 c -1.69175,-2.93298 -3.6707,-5.7082 -5.90625,-8.25 l -0.40625,-0.78125 -3.5,-3.78125 -2.375,-1.4375 c -9.21863,-7.50503 -21.11816,-12.0625 -34.125,-12.0625 z m 0.5,8.125 c 17.16197,0 32.04337,9.42094 39.5,23.25 l -0.25,9.8125 1.59375,2.6875 0.46875,24.0625 c -0.14966,0.35806 -0.30965,0.70928 -0.46875,1.0625 l 0,2.03125 -9.9375,15.875 -5.90625,2.9375 -2.6875,1.34375 -8.34375,2.15625 -0.0937,-0.5 c -4.36872,1.39249 -9.02615,2.15625 -13.875,2.15625 -24.643842,0 -44.625,-19.44816 -44.625,-43.4375 0,-23.98934 19.981158,-43.4375 44.625,-43.4375 z m 97.5625,0.8125 c 24.64383,0 44.625,19.44816 44.625,43.4375 0,23.98934 -19.98117,43.4375 -44.625,43.4375 -5.58587,0 -10.91714,-1.01946 -15.84375,-2.84375 l -4.84375,-0.6875 -9.40625,-4.3125 -4.34375,-8 c -1.9583,-2.31452 -3.68616,-4.82021 -5.125,-7.5 l -0.5,-2.78125 -0.53125,-25.8125 1.625,-2.15625 -0.1875,-10.1875 c 7.5797,-13.46636 22.27016,-22.59375 39.15625,-22.59375 z m -129.03125,84.6875 9.15625,5.09375 1.34375,1.09375 -0.5625,1.875 -12.875,8.0625 -0.5625,-1.09375 3.5,-15.03125 z M 251.625,468.5 l 3.21875,14.5 -12.90625,-7.53125 0,-2.125 9.6875,-4.84375 z m -106.46875,2.15625 2.96875,7.78125 -1.625,1.0625 -2.6875,-1.34375 -21.21875,-2.125 -0.5625,-1.625 23.125,-3.75 z m 54.3125,0.53125 22.5625,4.03125 0,0.8125 -17.46875,2.125 -4.84375,0.8125 -2.125,0.53125 0.25,-2.125 1.625,-6.1875 z m -76.625,9.65625 c 12.95415,0 24.62875,5.3551 32.78125,13.9375 L 165.0625,515 l -2.34375,28.75 c -0.21202,0.41084 -0.43141,0.81548 -0.65625,1.21875 l -2.375,12.78125 -17.75,6.4375 -0.21875,-0.53125 c -5.72964,2.6108 -12.12675,4.0625 -18.875,4.0625 -24.643842,0 -44.625,-19.44816 -44.625,-43.4375 0,-23.98934 19.981158,-43.4375 44.625,-43.4375 z m 97.59375,0 c 24.64383,0 44.625,19.44816 44.625,43.4375 0,23.98934 -19.98117,43.4375 -44.625,43.4375 -7.77961,0 -15.10307,-1.93502 -21.46875,-5.34375 l -1.375,-0.0625 -12.375,-4.03125 -1.875,-9.875 c -0.0723,-0.10514 -0.14735,-0.20672 -0.21875,-0.3125 l -3.03125,-30.40625 10.21875,-24.46875 -0.15625,-0.84375 c 7.95621,-7.15925 18.59298,-11.53125 30.28125,-11.53125 z"
       id="path3115"
       inkscape:connector-curvature="0" />
    <g
       id="g4010">
      <path
         inkscape:connector-curvature="0"
         id="path3998"
         d="m 155.25605,459.16108 -18.44626,-18.44626 -1.22975,0.46115 -0.92231,0 -9.37685,-6.60991 -1.38347,-2.76694 -3.68926,-0.30744 -2.30578,-1.6909 -1.07603,-2.15207 -0.30744,-3.99669 0.92231,-2.92066 2.92066,-1.99834 2.61322,-0.30744 3.2281,0.7686 1.69091,2.15206 1.38347,1.99835 -0.15372,2.61322 0,0.15371 2.61322,1.69091 2.61322,2.92066 3.99669,7.07107 0,1.99834 17.83139,17.83139 z"
         style="fill:#020202;fill-opacity:0.60771706;stroke:#000000;stroke-width:1px;stroke-linecap:butt;stroke-linejoin:miter;stroke-opacity:1" />
      <path
         inkscape:connector-curvature="0"
         id="path4000"
         d="m 97.61148,453.6272 -1.844627,-2.4595 20.905767,-23.36527 8.76197,-9.06941 0.30744,-2.92066 19.98345,-18.90742 2.15207,2.61322 -15.98676,19.06114 -3.2281,3.38182 -7.37851,8.1471 -1.07603,4.76528 z"
         style="fill:url(#radialGradient4038);fill-opacity:1;stroke:none" />
    </g>
    <g
       id="g4014"
       transform="matrix(-1,0,0,-1,346.04072,951.29831)">
      <path
         style="fill:#020202;fill-opacity:0.60771706;stroke:#000000;stroke-width:1px;stroke-linecap:butt;stroke-linejoin:miter;stroke-opacity:1"
         d="m 155.25605,459.16108 -18.44626,-18.44626 -1.22975,0.46115 -0.92231,0 -9.37685,-6.60991 -1.38347,-2.76694 -3.68926,-0.30744 -2.30578,-1.6909 -1.07603,-2.15207 -0.30744,-3.99669 0.92231,-2.92066 2.92066,-1.99834 2.61322,-0.30744 3.2281,0.7686 1.69091,2.15206 1.38347,1.99835 -0.15372,2.61322 0,0.15371 2.61322,1.69091 2.61322,2.92066 3.99669,7.07107 0,1.99834 17.83139,17.83139 z"
         id="path4016"
         inkscape:connector-curvature="0" />
      <path
         style="fill:url(#radialGradient4020);fill-opacity:1;stroke:none"
         d="m 97.61148,453.6272 -1.844627,-2.4595 20.905767,-23.36527 8.76197,-9.06941 0.30744,-2.92066 19.98345,-18.90742 2.15207,2.61322 -15.98676,19.06114 -3.2281,3.38182 -7.37851,8.1471 -1.07603,4.76528 z"
         id="path4018"
         inkscape:connector-curvature="0" />
    </g>
    <g
       transform="matrix(0,-1,1,0,-305.09183,648.85898)"
       id="g4022">
      <path
         inkscape:connector-curvature="0"
         id="path4024"
         d="m 155.25605,459.16108 -18.44626,-18.44626 -1.22975,0.46115 -0.92231,0 -9.37685,-6.60991 -1.38347,-2.76694 -3.68926,-0.30744 -2.30578,-1.6909 -1.07603,-2.15207 -0.30744,-3.99669 0.92231,-2.92066 2.92066,-1.99834 2.61322,-0.30744 3.2281,0.7686 1.69091,2.15206 1.38347,1.99835 -0.15372,2.61322 0,0.15371 2.61322,1.69091 2.61322,2.92066 3.99669,7.07107 0,1.99834 17.83139,17.83139 z"
         style="fill:#020202;fill-opacity:0.60771706;stroke:#000000;stroke-width:1px;stroke-linecap:butt;stroke-linejoin:miter;stroke-opacity:1" />
      <path
         inkscape:connector-curvature="0"
         id="path4026"
         d="m 97.61148,453.6272 -1.844627,-2.4595 20.905767,-23.36527 8.76197,-9.06941 0.30744,-2.92066 19.98345,-18.90742 2.15207,2.61322 -15.98676,19.06114 -3.2281,3.38182 -7.37851,8.1471 -1.07603,4.76528 z"
         style="fill:url(#radialGradient4028);fill-opacity:1;stroke:none" />
    </g>
    <g
       id="g4030"
       transform="matrix(0,1,-1,0,648.10112,301.30254)">
      <path
         style="fill:#020202;fill-opacity:0.60771706;stroke:#000000;stroke-width:1px;stroke-linecap:butt;stroke-linejoin:miter;stroke-opacity:1"
         d="m 155.25605,459.16108 -18.44626,-18.44626 -1.22975,0.46115 -0.92231,0 -9.37685,-6.60991 -1.38347,-2.76694 -3.68926,-0.30744 -2.30578,-1.6909 -1.07603,-2.15207 -0.30744,-3.99669 0.92231,-2.92066 2.92066,-1.99834 2.61322,-0.30744 3.2281,0.7686 1.69091,2.15206 1.38347,1.99835 -0.15372,2.61322 0,0.15371 2.61322,1.69091 2.61322,2.92066 3.99669,7.07107 0,1.99834 17.83139,17.83139 z"
         id="path4032"
         inkscape:connector-curvature="0" />
      <path
         style="fill:url(#radialGradient4036);fill-opacity:1;stroke:none"
         d="m 97.61148,453.6272 -1.844627,-2.4595 20.905767,-23.36527 8.76197,-9.06941 0.30744,-2.92066 19.98345,-18.90742 2.15207,2.61322 -15.98676,19.06114 -3.2281,3.38182 -7.37851,8.1471 -1.07603,4.76528 z"
         id="path4034"
         inkscape:connector-curvature="0" />
    </g>
  </g>
</svg>
