<svg width="72" height="72" viewBox="0 0 72 72" fill="none" xmlns="http://www.w3.org/2000/svg">
<path d="M63 23.0067C63 22.1439 62.6516 21.2811 62.0245 20.6599L57.2864 15.9663C56.6594 15.3451 55.7884 15 54.9174 15C54.0465 15 53.1755 15.3451 52.5484 15.9663L29.6942 38.6406L19.4516 28.4596C18.8245 27.8384 17.9535 27.4933 17.0826 27.4933C16.2116 27.4933 15.3406 27.8384 14.7135 28.4596L9.97548 33.1532C9.34839 33.7744 9 34.6372 9 35.5C9 36.3628 9.34839 37.2256 9.97548 37.8468L22.5871 50.3401L27.3252 55.0337C27.9523 55.6549 28.8232 56 29.6942 56C30.5652 56 31.4361 55.6549 32.0632 55.0337L36.8013 50.3401L62.0245 25.3535C62.6516 24.7323 63 23.8695 63 23.0067Z" fill="black"/>
</svg>
