<svg xmlns="http://www.w3.org/2000/svg" width="49" height="43" viewBox="0 0 13 11" stroke="#09102b"><path d="M12.82 11.125L.155 11.121 6.491.155z" opacity=".999" fill="#ffe353" stroke-linejoin="round" stroke-width=".31"/><path d="M4.914 7.071L3.521 8.302l1.287 1.084m1.144.027l1.394-1.231-1.287-1.084m-.283-.539l-.788 2.974" fill="none" stroke-linecap="round" stroke-width=".151"/><path d="M7.287 9.358l-.013.259 1.695.025-.021-.297-1.662.013zm.706.017L7.989 5.7l.367-.004.017 3.658m.33-3.512l-.238.008.004.255.238.033-.004-.297zm-.221.05l-3.199.008.004.238 3.165-.021.029-.226zm-2.965.255l.025.447.28-.15.23.163-.267.313m-.23-.322l-.242-.046-.084.163.288.226" fill="#41cd52" stroke-width=".151"/></svg>
