<svg xmlns="http://www.w3.org/2000/svg" xml:space="preserve" viewBox="78 206 72 72">
    <path d="m85.4 213.4 1.6 2.7-8.6 9.2c-.5.5-.5 1.4 0 1.9l2.2 2.6c.8.9 2.2 1.1 3.2.4l9.3-6.3 12.5 17.4-23.4 28.5c-.5.6-.6 1.5-.2 2.2l.7 1.3c.9 1.5 2.1 2.8 3.6 3.8l.9.6c.8.5 1.7.4 2.4-.2l25.5-23.9c.6-.6 1.6-.6 2.2 0l4.9 4.4 5.8 3.5 1.6-.5 4 .8-.7-4 .5-1.6-3.5-5.8-4.4-4.9c-.6-.6-.5-1.6 0-2.2l23.9-25.5c.6-.7.7-1.6.2-2.4l-.6-.9c-.9-1.5-2.2-2.7-3.8-3.6l-1.3-.7c-.7-.4-1.6-.3-2.2.2l-28.5 23.4L96 221.1l6.3-9.3c.7-1 .5-2.4-.4-3.2l-2.6-2.2c-.6-.5-1.4-.5-1.9 0l-9.2 8.6c-.1-.1-2.8-1.6-2.8-1.6" style="fill:#fff"/>
</svg>
