<?xml version="1.0" encoding="utf-8"?>
<!-- Generator: Adobe Illustrator 19.1.0, SVG Export Plug-In . SVG Version: 6.00 Build 0)  -->
<svg version="1.1"
	 id="svg2474" xmlns:dc="http://purl.org/dc/elements/1.1/" xmlns:inkscape="http://www.inkscape.org/namespaces/inkscape" xmlns:cc="http://creativecommons.org/ns#" xmlns:sodipodi="http://sodipodi.sourceforge.net/DTD/sodipodi-0.dtd" xmlns:rdf="http://www.w3.org/1999/02/22-rdf-syntax-ns#" xmlns:svg="http://www.w3.org/2000/svg" sodipodi:docname="airplane_topdown.svg" inkscape:version="0.46" inkscape:output_extension="org.inkscape.output.svg.inkscape" sodipodi:version="0.32"
	 xmlns="http://www.w3.org/2000/svg" xmlns:xlink="http://www.w3.org/1999/xlink" x="0px" y="0px" viewBox="78 206 72 72"
	 style="enable-background:new 78 206 72 72;" xml:space="preserve">
<style type="text/css">
	.st0{fill:#FFFFFF;}
</style>
<path class="st0" d="M85.4,213.4l1.6,2.7l-8.6,9.2c-0.5,0.5-0.5,1.4,0,1.9l2.2,2.6c0.8,0.9,2.2,1.1,3.2,0.4l9.3-6.3l12.5,17.4
	l-23.4,28.5c-0.5,0.6-0.6,1.5-0.2,2.2l0.7,1.3c0.9,1.5,2.1,2.8,3.6,3.8l0.9,0.6c0.8,0.5,1.7,0.4,2.4-0.2l25.5-23.9
	c0.6-0.6,1.6-0.6,2.2,0l4.9,4.4l5.8,3.5l1.6-0.5l4,0.8l-0.7-4l0.5-1.6l-3.5-5.8l-4.4-4.9c-0.6-0.6-0.5-1.6,0-2.2l23.9-25.5
	c0.6-0.7,0.7-1.6,0.2-2.4l-0.6-0.9c-0.9-1.5-2.2-2.7-3.8-3.6l-1.3-0.7c-0.7-0.4-1.6-0.3-2.2,0.2l-28.5,23.4L96,221.1l6.3-9.3
	c0.7-1,0.5-2.4-0.4-3.2l-2.6-2.2c-0.6-0.5-1.4-0.5-1.9,0l-9.2,8.6C88.1,214.9,85.4,213.4,85.4,213.4z"/>
</svg>
