<?xml version="1.0" encoding="UTF-8"?>
<svg version="1.1" xmlns="http://www.w3.org/2000/svg" width="150" height="150">
<path d="M0 0 C1.8125 0.0625 1.8125 0.0625 4 1 C8.1858618 7.51134057 7.71964419 15.48839778 8 23 C8.56380371 23.04535889 9.12760742 23.09071777 9.70849609 23.13745117 C17.09097075 23.79710195 24.33135716 25.01281675 31.625 26.3125 C39.11411301 27.64466569 46.59416752 28.96668376 54.125 30.04296875 C55.22376465 30.20563232 56.3225293 30.3682959 57.45458984 30.53588867 C59.52530307 30.83901711 61.59860148 31.12511052 63.67431641 31.3918457 C70.44078226 32.40758195 70.44078226 32.40758195 73.10546875 35.23046875 C74.10556837 38.32684703 74.50899052 41.06362747 74.6875 44.3125 C74.75324219 45.38113281 74.81898438 46.44976562 74.88671875 47.55078125 C74.94279297 48.76314453 74.94279297 48.76314453 75 50 C71.82103387 52.11931075 71.07025468 52.2469603 67.43676758 52.22705078 C66.51603958 52.22689972 65.59531158 52.22674866 64.64668274 52.22659302 C63.65597275 52.21627045 62.66526276 52.20594788 61.64453125 52.1953125 C60.11937141 52.19106766 60.11937141 52.19106766 58.56340027 52.18673706 C55.31298092 52.17553383 52.06283619 52.15042886 48.8125 52.125 C46.61003002 52.11497039 44.40755572 52.10584451 42.20507812 52.09765625 C36.80329157 52.07559405 31.40166541 52.04211508 26 52 C26.00229111 52.55774612 26.00458221 53.11549225 26.00694275 53.69013977 C26.01615499 56.26868465 26.02176566 58.84722605 26.02734375 61.42578125 C26.03100952 62.3027063 26.03467529 63.17963135 26.03845215 64.08312988 C26.05134301 72.06257113 25.86771628 80.06200294 25 88 C24 89 24 89 21.60180664 89.00585938 C20.54856201 88.95236328 19.49531738 88.89886719 18.41015625 88.84375 C17.24073486 88.79025391 16.07131348 88.73675781 14.86645508 88.68164062 C13.6111499 88.62169922 12.35584473 88.56175781 11.0625 88.5 C1.67343573 88.09336579 -7.56037828 87.92306838 -16.93139648 88.68164062 C-18.61882357 88.81720645 -20.30935201 88.91341111 -22 89 C-23 88 -23 88 -23.11352539 84.48999023 C-23.11336626 82.92951578 -23.10767142 81.36903607 -23.09765625 79.80859375 C-23.0962413 78.98875504 -23.09482635 78.16891632 -23.09336853 77.32423401 C-23.08775289 74.69528618 -23.07519779 72.06642227 -23.0625 69.4375 C-23.05748701 67.65950643 -23.05292376 65.88151154 -23.04882812 64.10351562 C-23.03777839 59.73564455 -23.02050331 55.36783652 -23 51 C-23.99 51.33 -24.98 51.66 -26 52 C-27.51447994 52.06418798 -29.0318583 52.06944513 -30.54736328 52.03759766 C-31.46486359 52.02072906 -32.38236389 52.00386047 -33.32766724 51.98648071 C-34.31524017 51.9625827 -35.30281311 51.93868469 -36.3203125 51.9140625 C-37.33471405 51.89282318 -38.3491156 51.87158386 -39.39425659 51.84970093 C-41.53779784 51.80344605 -43.68128283 51.75451836 -45.82470703 51.703125 C-49.11869563 51.62514924 -52.41278129 51.55808233 -55.70703125 51.4921875 C-57.78647296 51.44596612 -59.86590075 51.39911283 -61.9453125 51.3515625 C-62.9369339 51.33171295 -63.9285553 51.3118634 -64.95022583 51.29141235 C-65.86142181 51.26823944 -66.7726178 51.24506653 -67.71142578 51.22119141 C-68.51734161 51.20263092 -69.32325745 51.18407043 -70.15359497 51.16494751 C-72 51 -72 51 -73 50 C-73.203125 47.9609375 -73.203125 47.9609375 -73.25 45.375 C-73.28867188 44.11816406 -73.28867188 44.11816406 -73.328125 42.8359375 C-72.86851183 38.86356655 -72.17403163 36.40020161 -70 33 C-66.79788231 31.60493726 -63.51346975 31.32040454 -60.0625 30.9375 C-57.91111855 30.64178444 -55.76009919 30.34342719 -53.609375 30.04296875 C-52.41505859 29.88489746 -51.22074219 29.72682617 -49.99023438 29.56396484 C-45.50283279 28.94904874 -41.04190426 28.19144434 -36.578125 27.42578125 C-35.7717308 27.28780624 -34.96533661 27.14983124 -34.13450623 27.00767517 C-31.69370121 26.58923971 -29.25309304 26.16966986 -26.8125 25.75 C-23.71585236 25.2177863 -20.618216 24.69208824 -17.51953125 24.171875 C-16.83397156 24.05334671 -16.14841187 23.93481842 -15.44207764 23.81269836 C-11.92244701 23.22557014 -8.56875889 22.87124141 -5 23 C-4.96261719 22.23816406 -4.92523438 21.47632812 -4.88671875 20.69140625 C-4.4143278 13.2720895 -3.344074 6.68814801 0 0 Z M-12.625 51.5 C-16.275625 51.7475 -16.275625 51.7475 -20 52 C-20 59.59 -20 67.18 -20 75 C-17.97875 74.835 -15.9575 74.67 -13.875 74.5 C-1.48536489 73.62836738 10.64005479 74.06717395 23 75 C23 67.41 23 59.82 23 52 C17.39 51.67 11.78 51.34 6 51 C6 51.66 6 52.32 6 53 C5.34 53 4.68 53 4 53 C4 53.99 4 54.98 4 56 C6.31 56 8.62 56 11 56 C11 56.66 11 57.32 11 58 C7.24999436 57.98726653 3.65954112 57.85821097 0 57 C-2.1875 53.9375 -2.1875 53.9375 -3 51 C-6.21559615 51 -9.41811511 51.28111845 -12.625 51.5 Z " fill="#FAFAFA" transform="translate(73,22)"/>
<path d="M0 0 C0.99 0 1.98 0 3 0 C4.75 2.25 4.75 2.25 6 5 C5.6875 7.3125 5.6875 7.3125 5 9 C4.01 6.03 4.01 6.03 3 3 C2.34 3.33 1.68 3.66 1 4 C-1.55387492 4.07173806 -4.07276761 4.09287732 -6.625 4.0625 C-9.05875 4.041875 -11.4925 4.02125 -14 4 C-14 11.59 -14 19.18 -14 27 C-10.968125 26.505 -10.968125 26.505 -7.875 26 C4.71668948 24.228305 16.49740267 25.1128155 29 27 C29 19.41 29 11.82 29 4 C24.15350804 4.03950724 24.15350804 4.03950724 19.30712891 4.09008789 C14.22222222 4.11111111 14.22222222 4.11111111 12 3 C12 2.34 12 1.68 12 1 C44.67 1.99 44.67 1.99 78 3 C78 3.33 78 3.66 78 4 C62.82 4 47.64 4 32 4 C32 10.6 32 17.2 32 24 C31.25 39.75 31.25 39.75 30 41 C28.13599653 41.00455422 26.27176555 40.93830432 24.41015625 40.84375 C23.24073486 40.79025391 22.07131348 40.73675781 20.86645508 40.68164062 C19.6111499 40.62169922 18.35584473 40.56175781 17.0625 40.5 C7.67343573 40.09336579 -1.56037828 39.92306838 -10.93139648 40.68164062 C-12.61882357 40.81720645 -14.30935201 40.91341111 -16 41 C-17 40 -17 40 -17.11352539 36.48999023 C-17.11336626 34.92951578 -17.10767142 33.36903607 -17.09765625 31.80859375 C-17.0962413 30.98875504 -17.09482635 30.16891632 -17.09336853 29.32423401 C-17.08775289 26.69528618 -17.07519779 24.06642227 -17.0625 21.4375 C-17.05748701 19.65950643 -17.05292376 17.88151154 -17.04882812 16.10351562 C-17.03777839 11.73564455 -17.02050331 7.36783652 -17 3 C-17.99 3.33 -18.98 3.66 -20 4 C-21.51993605 4.05935952 -23.0425999 4.05922356 -24.56323242 4.02172852 C-25.48396042 4.00163223 -26.40468842 3.98153595 -27.35331726 3.96083069 C-28.34402725 3.93379562 -29.33473724 3.90676056 -30.35546875 3.87890625 C-31.37224197 3.85529526 -32.3890152 3.83168427 -33.43659973 3.80735779 C-36.68704212 3.73072902 -39.9372458 3.64670099 -43.1875 3.5625 C-45.38996224 3.50927855 -47.59243617 3.45653815 -49.79492188 3.40429688 C-55.19676257 3.27511492 -60.59842569 3.13985601 -66 3 C-66 2.67 -66 2.34 -66 2 C-44.22 2 -22.44 2 0 2 C0 1.34 0 0.68 0 0 Z " fill="#F3F3F3" transform="translate(67,70)"/>
<path d="M0 0 C0.99 0 1.98 0 3 0 C4.75 2.25 4.75 2.25 6 5 C5.6875 7.3125 5.6875 7.3125 5 9 C4.01 6.03 4.01 6.03 3 3 C2.34 3.33 1.68 3.66 1 4 C-1.55387492 4.07173806 -4.07276761 4.09287732 -6.625 4.0625 C-9.05875 4.041875 -11.4925 4.02125 -14 4 C-14 11.59 -14 19.18 -14 27 C-12.02 27 -10.04 27 -8 27 C-8 27.33 -8 27.66 -8 28 C-10.64 28 -13.28 28 -16 28 C-16 31.96 -16 35.92 -16 40 C-16.33 40 -16.66 40 -17 40 C-17 27.79 -17 15.58 -17 3 C-17.99 3.33 -18.98 3.66 -20 4 C-21.51993605 4.05935952 -23.0425999 4.05922356 -24.56323242 4.02172852 C-25.48396042 4.00163223 -26.40468842 3.98153595 -27.35331726 3.96083069 C-28.34402725 3.93379562 -29.33473724 3.90676056 -30.35546875 3.87890625 C-31.37224197 3.85529526 -32.3890152 3.83168427 -33.43659973 3.80735779 C-36.68704212 3.73072902 -39.9372458 3.64670099 -43.1875 3.5625 C-45.38996224 3.50927855 -47.59243617 3.45653815 -49.79492188 3.40429688 C-55.19676257 3.27511492 -60.59842569 3.13985601 -66 3 C-66 2.67 -66 2.34 -66 2 C-44.22 2 -22.44 2 0 2 C0 1.34 0 0.68 0 0 Z " fill="#D1D1D1" transform="translate(67,70)"/>
<path d="M0 0 C32.67 0.99 32.67 0.99 66 2 C66 2.33 66 2.66 66 3 C50.82 3 35.64 3 20 3 C20 9.6 20 16.2 20 23 C19.71101874 28.34615332 19.41715662 33.66635463 19 39 C18.67 39 18.34 39 18 39 C18 35.04 18 31.08 18 27 C15.69 27 13.38 27 11 27 C11 26.67 11 26.34 11 26 C12.98 26 14.96 26 17 26 C17 18.41 17 10.82 17 3 C12.15350804 3.03950724 12.15350804 3.03950724 7.30712891 3.09008789 C2.22222222 3.11111111 2.22222222 3.11111111 0 2 C0 1.34 0 0.68 0 0 Z " fill="#C8C8C8" transform="translate(79,71)"/>
<path d="M0 0 C0.33 0 0.66 0 1 0 C1 7.26 1 14.52 1 22 C2.98 22 4.96 22 7 22 C7 22.33 7 22.66 7 23 C4.36 23 1.72 23 -1 23 C-1 26.96 -1 30.92 -1 35 C-1.33 35 -1.66 35 -2 35 C-2.04944705 30.49765627 -2.08574161 25.9954707 -2.10986328 21.49291992 C-2.11991935 19.96131639 -2.133566 18.42973205 -2.15087891 16.89819336 C-2.17514498 14.69640364 -2.18648688 12.49486781 -2.1953125 10.29296875 C-2.20563507 9.60849167 -2.21595764 8.92401459 -2.22659302 8.21879578 C-2.22745382 4.56938339 -2.08567666 3.12851498 0 0 Z " fill="#C4C4C4" transform="translate(52,75)"/>
<path d="M0 0 C0.99 0 1.98 0 3 0 C4.75 2.25 4.75 2.25 6 5 C5.6875 7.3125 5.6875 7.3125 5 9 C4.34 7.02 3.68 5.04 3 3 C-2.94 3 -8.88 3 -15 3 C-15 2.67 -15 2.34 -15 2 C-10.05 2 -5.1 2 0 2 C0 1.34 0 0.68 0 0 Z " fill="#DFDFDF" transform="translate(67,70)"/>
</svg>
