<?xml version="1.0" encoding="utf-8"?>
<!-- Generator: Adobe Illustrator 20.1.0, SVG Export Plug-In . SVG Version: 6.00 Build 0)  -->
<svg version="1.1" id="Capa_1" xmlns="http://www.w3.org/2000/svg" xmlns:xlink="http://www.w3.org/1999/xlink" x="0px" y="0px"
	 viewBox="0 0 72 72" style="enable-background:new 0 0 72 72;" xml:space="preserve">
<style type="text/css">
	.st0{fill:#FFFFFF;}
</style>
<path class="st0" d="M18.333,42.453h11.67c1.611,0,2.918-1.3,2.918-2.904c0-1.604-1.306-2.904-2.918-2.904h-11.67
	c-1.611,0-2.918,1.3-2.918,2.904C15.415,41.153,16.721,42.453,18.333,42.453z"/>
<path class="st0" d="M69.345,65.243l-6.017-5.989c1.473-2.233,2.333-4.901,2.333-7.767c0-6.833-4.876-12.553-11.346-13.897V25.998
	c0-0.77-0.307-1.509-0.854-2.053L32.065,2.65c-0.547-0.545-1.289-0.85-2.063-0.85H4.718C3.106,1.8,1.8,3.1,1.8,4.704v58.076
	c0,1.603,1.306,2.904,2.918,2.904h46.68c2.88,0,5.56-0.856,7.805-2.323l6.017,5.989c0.57,0.567,1.316,0.851,2.063,0.851
	c0.747,0,1.493-0.284,2.063-0.851C70.485,68.215,70.485,66.377,69.345,65.243z M59.826,51.487c0,4.626-3.781,8.389-8.428,8.389
	s-8.428-3.763-8.428-8.389s3.781-8.389,8.428-8.389C56.045,43.098,59.826,46.861,59.826,51.487z M32.92,11.714l11.434,11.38H32.92
	V11.714z M7.635,7.608h19.45v18.391c0,1.604,1.306,2.904,2.918,2.904H48.48v8.688c-5.419,1.126-9.716,5.322-10.97,10.67H18.333
	c-1.611,0-2.918,1.3-2.918,2.904c0,1.603,1.306,2.904,2.918,2.904h19.042c0.397,2.142,1.277,4.117,2.525,5.808H7.635V7.608z"/>
</svg>
