<svg xmlns="http://www.w3.org/2000/svg" xmlns:xlink="http://www.w3.org/1999/xlink" width="72" zoomAndPan="magnify" viewBox="0 0 54 54" height="72" preserveAspectRatio="xMidYMid meet" version="1.0"><defs><clipPath id="6e6e7082bc"><path d="M 0.492188 0 L 53.507812 0 L 53.507812 53.019531 L 0.492188 53.019531 Z M 0.492188 0 " clip-rule="nonzero"/></clipPath><clipPath id="b3538ed435"><path d="M 1.71875 3.058594 L 52.527344 3.058594 L 52.527344 50 L 1.71875 50 Z M 1.71875 3.058594 " clip-rule="nonzero"/></clipPath></defs><g clip-path="url(#6e6e7082bc)"><path fill="#ffffff" d="M 0.492188 0 L 53.507812 0 L 53.507812 53.019531 L 0.492188 53.019531 Z M 0.492188 0 " fill-opacity="1" fill-rule="nonzero"/><path fill="#000000" d="M 0.492188 0 L 53.507812 0 L 53.507812 53.019531 L 0.492188 53.019531 Z M 0.492188 0 " fill-opacity="1" fill-rule="nonzero"/></g><g clip-path="url(#b3538ed435)"><path fill="#ffffff" d="M 51.636719 43.367188 L 49.066406 43.367188 L 49.066406 16.214844 C 49.066406 14.546875 47.710938 13.191406 46.046875 13.191406 L 40.351562 13.191406 C 40.152344 12.53125 39.632812 12.011719 38.972656 11.8125 C 38.199219 9.386719 36.671875 7.207031 34.636719 5.648438 C 32.429688 3.953125 29.789062 3.058594 26.996094 3.058594 C 24.207031 3.058594 21.566406 3.953125 19.355469 5.648438 C 17.324219 7.207031 15.792969 9.386719 15.019531 11.8125 C 14.363281 12.011719 13.839844 12.53125 13.644531 13.191406 L 7.949219 13.191406 C 6.285156 13.191406 4.925781 14.546875 4.925781 16.214844 L 4.925781 43.367188 L 2.359375 43.367188 C 2.011719 43.367188 1.730469 43.648438 1.730469 43.996094 L 1.730469 45.613281 C 1.730469 48.003906 3.675781 49.949219 6.066406 49.949219 L 47.929688 49.949219 C 50.320312 49.949219 52.265625 48.003906 52.265625 45.613281 L 52.265625 43.996094 C 52.265625 43.648438 51.984375 43.367188 51.636719 43.367188 Z M 15.609375 19.605469 L 17.96875 19.605469 C 19.007812 21.953125 20.9375 23.824219 23.328125 24.785156 C 16.03125 26.417969 10.511719 32.820312 10.226562 40.535156 L 9.015625 40.535156 L 9.015625 17.28125 L 13.554688 17.28125 L 13.554688 17.550781 C 13.554688 18.683594 14.476562 19.605469 15.609375 19.605469 Z M 36.027344 19.605469 L 36.566406 19.605469 L 36.566406 19.910156 C 36.566406 20.347656 36.210938 20.707031 35.773438 20.707031 L 35.453125 20.707031 C 35.667969 20.351562 35.859375 19.984375 36.027344 19.605469 Z M 35.605469 15.625 C 35.605469 17.523438 34.988281 19.28125 33.941406 20.703125 L 29.886719 20.703125 C 29.632812 20.019531 28.972656 19.53125 28.199219 19.53125 C 27.203125 19.53125 26.394531 20.339844 26.394531 21.332031 C 26.394531 22.328125 27.203125 23.136719 28.199219 23.136719 C 28.972656 23.136719 29.632812 22.648438 29.886719 21.964844 L 32.816406 21.964844 C 31.28125 23.371094 29.238281 24.234375 26.996094 24.234375 C 22.25 24.234375 18.386719 20.371094 18.386719 15.625 C 18.386719 10.878906 22.25 7.015625 26.996094 7.015625 C 31.742188 7.015625 35.605469 10.878906 35.605469 15.625 Z M 28.746094 21.332031 C 28.746094 21.636719 28.5 21.878906 28.199219 21.878906 C 27.898438 21.878906 27.652344 21.636719 27.652344 21.332031 C 27.652344 21.03125 27.898438 20.789062 28.199219 20.789062 C 28.5 20.789062 28.746094 21.03125 28.746094 21.332031 Z M 26.996094 25.640625 C 35.347656 25.640625 42.175781 32.265625 42.507812 40.535156 L 11.484375 40.535156 C 11.816406 32.265625 18.648438 25.640625 26.996094 25.640625 Z M 43.765625 40.535156 C 43.480469 32.820312 37.964844 26.417969 30.664062 24.785156 C 32.183594 24.175781 33.515625 23.199219 34.554688 21.964844 L 35.773438 21.964844 C 36.902344 21.964844 37.824219 21.042969 37.824219 19.910156 L 37.824219 19.605469 L 38.382812 19.605469 C 39.515625 19.605469 40.4375 18.683594 40.4375 17.550781 L 40.4375 17.28125 L 44.976562 17.28125 L 44.976562 40.535156 Z M 39.179688 17.550781 C 39.179688 17.988281 38.824219 18.347656 38.382812 18.347656 L 36.484375 18.347656 C 36.730469 17.480469 36.863281 16.570312 36.863281 15.625 C 36.863281 14.679688 36.738281 13.824219 36.503906 12.984375 L 38.382812 12.984375 C 38.820312 12.984375 39.179688 13.339844 39.179688 13.78125 Z M 26.996094 4.316406 C 31.746094 4.316406 35.996094 7.324219 37.613281 11.726562 L 36.0625 11.726562 C 34.546875 8.21875 31.054688 5.757812 26.996094 5.757812 C 22.9375 5.757812 19.445312 8.21875 17.929688 11.726562 L 16.378906 11.726562 C 17.996094 7.324219 22.246094 4.316406 26.996094 4.316406 Z M 14.8125 13.78125 C 14.8125 13.34375 15.167969 12.984375 15.609375 12.984375 L 17.488281 12.984375 C 17.253906 13.824219 17.128906 14.710938 17.128906 15.625 C 17.128906 16.539062 17.261719 17.480469 17.511719 18.347656 L 15.609375 18.347656 C 15.171875 18.347656 14.8125 17.992188 14.8125 17.550781 Z M 6.183594 16.214844 C 6.183594 15.242188 6.976562 14.449219 7.945312 14.449219 L 13.554688 14.449219 L 13.554688 16.023438 L 8.386719 16.023438 C 8.039062 16.023438 7.757812 16.304688 7.757812 16.652344 L 7.757812 41.167969 C 7.757812 41.511719 8.039062 41.796875 8.386719 41.796875 L 45.605469 41.796875 C 45.953125 41.796875 46.234375 41.511719 46.234375 41.167969 L 46.234375 16.652344 C 46.234375 16.304688 45.953125 16.023438 45.605469 16.023438 L 40.4375 16.023438 L 40.4375 14.449219 L 46.042969 14.449219 C 47.015625 14.449219 47.808594 15.242188 47.808594 16.214844 L 47.808594 43.367188 L 6.183594 43.367188 Z M 22.144531 44.625 L 31.847656 44.625 L 31.847656 44.78125 C 31.847656 45.453125 31.304688 45.996094 30.632812 45.996094 L 23.359375 45.996094 C 22.6875 45.996094 22.144531 45.453125 22.144531 44.78125 Z M 51.007812 45.613281 C 51.007812 47.308594 49.625 48.691406 47.925781 48.691406 L 6.066406 48.691406 C 4.367188 48.691406 2.988281 47.3125 2.988281 45.613281 L 2.988281 44.625 L 20.886719 44.625 L 20.886719 44.78125 C 20.886719 46.144531 21.996094 47.253906 23.359375 47.253906 L 30.632812 47.253906 C 31.996094 47.253906 33.105469 46.144531 33.105469 44.78125 L 33.105469 44.625 L 51.007812 44.625 Z M 51.007812 45.613281 " fill-opacity="1" fill-rule="nonzero"/></g></svg>