<svg xmlns="http://www.w3.org/2000/svg" xmlns:xlink="http://www.w3.org/1999/xlink" width="72" zoomAndPan="magnify" viewBox="0 0 54 54" height="72" preserveAspectRatio="xMidYMid meet" version="1.0"><defs><clipPath id="e5e994ce34"><path d="M 0.492188 0 L 53.507812 0 L 53.507812 53.019531 L 0.492188 53.019531 Z M 0.492188 0 " clip-rule="nonzero"/></clipPath><clipPath id="d8e6fa1dcc"><path d="M 1.558594 1.066406 L 52.367188 1.066406 L 52.367188 51.875 L 1.558594 51.875 Z M 1.558594 1.066406 " clip-rule="nonzero"/></clipPath></defs><g clip-path="url(#e5e994ce34)"><path fill="#ffffff" d="M 0.492188 0 L 53.507812 0 L 53.507812 53.019531 L 0.492188 53.019531 Z M 0.492188 0 " fill-opacity="1" fill-rule="nonzero"/><path fill="#000000" d="M 0.492188 0 L 53.507812 0 L 53.507812 53.019531 L 0.492188 53.019531 Z M 0.492188 0 " fill-opacity="1" fill-rule="nonzero"/></g><g clip-path="url(#d8e6fa1dcc)"><path fill="#ffffff" d="M 49.183594 20.300781 C 49.183594 20.300781 46.585938 20.152344 46.585938 20.152344 C 46.253906 19.128906 45.835938 18.121094 45.316406 17.109375 L 47.070312 15.203125 C 48.304688 13.859375 48.265625 11.796875 46.976562 10.503906 L 43 6.527344 C 41.710938 5.238281 39.644531 5.199219 38.304688 6.433594 L 36.351562 8.160156 C 35.386719 7.671875 34.378906 7.253906 33.304688 6.910156 L 33.203125 4.320312 C 33.125 2.496094 31.636719 1.066406 29.8125 1.066406 C 29.8125 1.066406 24.183594 1.066406 24.183594 1.066406 C 22.359375 1.066406 20.871094 2.496094 20.792969 4.320312 C 20.792969 4.320312 20.644531 6.917969 20.644531 6.917969 C 19.617188 7.253906 18.609375 7.671875 17.601562 8.1875 C 17.601562 8.1875 15.691406 6.433594 15.691406 6.433594 C 14.351562 5.199219 12.289062 5.242188 10.996094 6.53125 L 7.019531 10.507812 C 5.730469 11.796875 5.6875 13.859375 6.921875 15.199219 L 8.652344 17.152344 C 8.160156 18.121094 7.742188 19.128906 7.402344 20.199219 L 4.808594 20.300781 C 2.984375 20.378906 1.558594 21.867188 1.558594 23.691406 L 1.558594 29.324219 C 1.558594 31.144531 2.984375 32.632812 4.8125 32.710938 L 7.410156 32.859375 C 7.746094 33.886719 8.160156 34.894531 8.679688 35.902344 L 6.925781 37.8125 C 5.6875 39.152344 5.730469 41.214844 7.019531 42.507812 L 10.996094 46.484375 C 12.289062 47.777344 14.355469 47.816406 15.691406 46.582031 L 17.644531 44.851562 C 18.609375 45.34375 19.617188 45.761719 20.6875 46.101562 L 20.792969 48.695312 C 20.871094 50.519531 22.359375 51.945312 24.183594 51.945312 C 24.183594 51.945312 29.8125 51.945312 29.8125 51.945312 C 31.636719 51.945312 33.125 50.519531 33.203125 48.691406 C 33.203125 48.691406 33.351562 46.09375 33.351562 46.09375 C 34.378906 45.761719 35.386719 45.34375 36.394531 44.824219 L 38.304688 46.578125 C 39.644531 47.816406 41.707031 47.777344 43 46.484375 L 46.976562 42.507812 C 48.265625 41.214844 48.304688 39.152344 47.074219 37.8125 L 45.34375 35.859375 C 45.835938 34.878906 46.273438 33.859375 46.59375 32.816406 C 46.59375 32.816406 49.1875 32.710938 49.1875 32.710938 C 51.007812 32.632812 52.4375 31.144531 52.4375 29.324219 L 52.4375 23.691406 C 52.4375 21.867188 51.007812 20.378906 49.183594 20.300781 Z M 46.457031 29.425781 C 43.71875 29.433594 43.296875 32.367188 42.320312 34.324219 C 41.65625 35.625 41.851562 37.148438 42.816406 38.199219 C 42.816406 38.199219 44.578125 40.109375 44.578125 40.109375 L 40.601562 44.082031 L 38.6875 42.328125 C 36.746094 40.398438 34.371094 42.183594 32.300781 42.871094 C 30.910156 43.324219 29.976562 44.539062 29.917969 45.96875 L 29.8125 48.554688 L 24.183594 48.554688 L 24.078125 45.964844 C 24.019531 44.539062 23.085938 43.324219 21.695312 42.867188 C 19.621094 42.1875 17.273438 40.398438 15.304688 42.328125 C 15.308594 42.328125 13.394531 44.085938 13.394531 44.085938 L 9.421875 40.109375 L 11.179688 38.199219 C 13.105469 36.257812 11.324219 33.878906 10.632812 31.808594 C 10.179688 30.421875 8.964844 29.484375 7.539062 29.425781 C 7.539062 29.425781 4.949219 29.324219 4.949219 29.324219 L 4.949219 23.691406 C 4.949219 23.691406 7.539062 23.585938 7.539062 23.585938 C 8.964844 23.527344 10.179688 22.59375 10.636719 21.203125 C 11.324219 19.140625 13.101562 16.75 11.175781 14.816406 C 11.179688 14.816406 9.417969 12.902344 9.417969 12.902344 C 9.417969 12.902344 13.394531 8.929688 13.394531 8.929688 L 15.308594 10.6875 C 17.25 12.613281 19.625 10.832031 21.695312 10.144531 C 23.085938 9.691406 24.019531 8.476562 24.078125 7.046875 L 24.183594 4.460938 L 29.8125 4.457031 L 29.917969 7.046875 C 29.976562 8.476562 30.910156 9.691406 32.300781 10.144531 C 34.367188 10.835938 36.753906 12.605469 38.6875 10.6875 C 38.6875 10.6875 40.601562 8.929688 40.601562 8.929688 L 44.574219 12.90625 L 42.816406 14.816406 C 41.851562 15.867188 41.65625 17.386719 42.320312 18.6875 C 43.292969 20.644531 43.722656 23.578125 46.457031 23.585938 C 46.457031 23.585938 49.042969 23.691406 49.042969 23.691406 L 49.046875 29.324219 Z M 46.457031 29.425781 " fill-opacity="1" fill-rule="nonzero"/></g><path fill="#ffffff" d="M 26.996094 14.457031 C 20.355469 14.457031 14.949219 19.863281 14.949219 26.507812 C 14.949219 33.148438 20.355469 38.554688 26.996094 38.554688 C 33.640625 38.554688 39.046875 33.148438 39.046875 26.507812 C 39.046875 19.863281 33.640625 14.457031 26.996094 14.457031 Z M 26.996094 35.164062 C 22.222656 35.164062 18.339844 31.28125 18.339844 26.507812 C 18.339844 21.734375 22.222656 17.851562 26.996094 17.851562 C 31.769531 17.851562 35.65625 21.734375 35.65625 26.507812 C 35.65625 31.28125 31.769531 35.164062 26.996094 35.164062 Z M 26.996094 35.164062 " fill-opacity="1" fill-rule="nonzero"/></svg>