<svg xmlns="http://www.w3.org/2000/svg" xmlns:xlink="http://www.w3.org/1999/xlink" width="72" zoomAndPan="magnify" viewBox="0 0 54 54" height="72" preserveAspectRatio="xMidYMid meet" version="1.0"><defs><clipPath id="00526e8781"><path d="M 0.492188 0 L 53.507812 0 L 53.507812 53.019531 L 0.492188 53.019531 Z M 0.492188 0 " clip-rule="nonzero"/></clipPath><clipPath id="99f1c89c25"><path d="M 47 13.066406 L 49 13.066406 L 49 15 L 47 15 Z M 47 13.066406 " clip-rule="nonzero"/></clipPath><clipPath id="e785963a75"><path d="M 5 13.066406 L 7 13.066406 L 7 15 L 5 15 Z M 5 13.066406 " clip-rule="nonzero"/></clipPath><clipPath id="3b4ad49e8a"><path d="M 1.417969 15 L 10 15 L 10 17 L 1.417969 17 Z M 1.417969 15 " clip-rule="nonzero"/></clipPath><clipPath id="655e59ffe5"><path d="M 44 15 L 52.226562 15 L 52.226562 17 L 44 17 Z M 44 15 " clip-rule="nonzero"/></clipPath></defs><g clip-path="url(#00526e8781)"><path fill="#ffffff" d="M 0.492188 0 L 53.507812 0 L 53.507812 53.019531 L 0.492188 53.019531 Z M 0.492188 0 " fill-opacity="1" fill-rule="nonzero"/><path fill="#000000" d="M 0.492188 0 L 53.507812 0 L 53.507812 53.019531 L 0.492188 53.019531 Z M 0.492188 0 " fill-opacity="1" fill-rule="nonzero"/></g><path fill="#ffffff" d="M 14.765625 30.492188 L 14.765625 32.714844 L 21.945312 35.375 L 21.550781 33.007812 Z M 14.765625 30.492188 " fill-opacity="1" fill-rule="nonzero"/><path fill="#ffffff" d="M 26.996094 36.066406 C 28.085938 36.066406 28.976562 35.175781 28.976562 34.085938 C 28.976562 32.992188 28.085938 32.105469 26.996094 32.105469 C 25.902344 32.105469 25.011719 32.992188 25.011719 34.085938 C 25.011719 35.179688 25.902344 36.066406 26.996094 36.066406 Z M 26.996094 33.183594 C 27.492188 33.183594 27.894531 33.589844 27.894531 34.085938 C 27.894531 34.582031 27.492188 34.984375 26.996094 34.984375 C 26.496094 34.984375 26.09375 34.582031 26.09375 34.085938 C 26.09375 33.589844 26.496094 33.183594 26.996094 33.183594 Z M 26.996094 33.183594 " fill-opacity="1" fill-rule="nonzero"/><path fill="#ffffff" d="M 21.539062 29.960938 L 22.949219 29.960938 C 21.679688 27.394531 19.394531 25.894531 16.410156 25.652344 L 18.515625 28.449219 C 19.226562 29.394531 20.355469 29.960938 21.539062 29.960938 Z M 21.539062 29.960938 " fill-opacity="1" fill-rule="nonzero"/><g clip-path="url(#99f1c89c25)"><path fill="#ffffff" d="M 47.984375 13.171875 L 48.601562 13.171875 L 48.601562 14.351562 L 47.984375 14.351562 Z M 47.984375 13.171875 " fill-opacity="1" fill-rule="nonzero"/></g><path fill="#ffffff" d="M 12.769531 39.492188 C 12.769531 39.691406 12.933594 39.855469 13.132812 39.855469 C 13.335938 39.855469 13.496094 39.691406 13.496094 39.492188 L 13.496094 38.667969 L 12.769531 38.667969 Z M 12.769531 39.492188 " fill-opacity="1" fill-rule="nonzero"/><path fill="#ffffff" d="M 29.304688 21.441406 L 32.789062 17.078125 C 32.386719 16.933594 31.957031 16.847656 31.511719 16.847656 L 22.476562 16.847656 C 22.03125 16.847656 21.601562 16.933594 21.199219 17.082031 L 24.683594 21.441406 Z M 28.410156 20.535156 L 25.59375 20.535156 C 25.363281 20.535156 25.175781 20.347656 25.175781 20.117188 C 25.175781 19.886719 25.363281 19.699219 25.59375 19.699219 L 28.410156 19.699219 C 28.640625 19.699219 28.828125 19.886719 28.828125 20.117188 C 28.828125 20.347656 28.640625 20.535156 28.410156 20.535156 Z M 24.0625 18.242188 C 24.0625 18.011719 24.25 17.824219 24.480469 17.824219 L 29.523438 17.824219 C 29.757812 17.824219 29.945312 18.011719 29.945312 18.242188 C 29.945312 18.476562 29.757812 18.664062 29.523438 18.664062 L 24.480469 18.664062 C 24.25 18.664062 24.0625 18.476562 24.0625 18.242188 Z M 24.0625 18.242188 " fill-opacity="1" fill-rule="nonzero"/><g clip-path="url(#e785963a75)"><path fill="#ffffff" d="M 5.386719 13.171875 L 6.003906 13.171875 L 6.003906 14.351562 L 5.386719 14.351562 Z M 5.386719 13.171875 " fill-opacity="1" fill-rule="nonzero"/></g><g clip-path="url(#3b4ad49e8a)"><path fill="#ffffff" d="M 6.421875 16.507812 L 9.972656 16.507812 L 9.972656 15.1875 L 1.417969 15.1875 L 1.417969 16.507812 Z M 6.421875 16.507812 " fill-opacity="1" fill-rule="nonzero"/></g><path fill="#ffffff" d="M 5.386719 17.34375 L 6.003906 17.34375 L 6.003906 19.761719 L 5.386719 19.761719 Z M 5.386719 17.34375 " fill-opacity="1" fill-rule="nonzero"/><path fill="#ffffff" d="M 12.339844 37.832031 L 13.925781 37.832031 L 13.925781 25.613281 L 12.339844 25.613281 Z M 12.339844 37.832031 " fill-opacity="1" fill-rule="nonzero"/><path fill="#ffffff" d="M 47.566406 20.597656 L 47.140625 20.597656 L 47.140625 21.859375 C 47.140625 22.089844 46.953125 22.277344 46.722656 22.277344 L 39.136719 22.277344 C 36.980469 22.277344 35.582031 20.40625 34.785156 18.832031 C 34.496094 18.265625 34.066406 17.800781 33.554688 17.464844 L 29.835938 22.121094 C 29.757812 22.222656 29.636719 22.277344 29.507812 22.277344 L 24.480469 22.277344 C 24.351562 22.277344 24.230469 22.222656 24.152344 22.121094 L 20.433594 17.464844 C 19.921875 17.800781 19.492188 18.265625 19.203125 18.832031 C 18.40625 20.40625 17.007812 22.277344 14.851562 22.277344 L 7.265625 22.277344 C 7.035156 22.277344 6.847656 22.089844 6.847656 21.859375 L 6.847656 20.597656 L 4.542969 20.597656 L 4.542969 26.472656 L 6.847656 26.472656 L 6.847656 25.191406 C 6.847656 24.960938 7.035156 24.773438 7.265625 24.773438 L 15.539062 24.773438 C 19.4375 24.773438 22.382812 26.613281 23.871094 29.960938 L 30.117188 29.960938 C 31.605469 26.613281 34.546875 24.773438 38.449219 24.773438 L 46.722656 24.773438 C 46.953125 24.773438 47.140625 24.960938 47.140625 25.191406 L 47.140625 26.472656 L 49.441406 26.472656 L 49.441406 20.597656 Z M 47.566406 20.597656 " fill-opacity="1" fill-rule="nonzero"/><path fill="#ffffff" d="M 40.0625 37.832031 L 41.648438 37.832031 L 41.648438 25.613281 L 40.0625 25.613281 Z M 40.0625 37.832031 " fill-opacity="1" fill-rule="nonzero"/><g clip-path="url(#655e59ffe5)"><path fill="#ffffff" d="M 49.019531 15.1875 L 44.015625 15.1875 L 44.015625 16.507812 L 52.570312 16.507812 L 52.570312 15.1875 Z M 49.019531 15.1875 " fill-opacity="1" fill-rule="nonzero"/></g><path fill="#ffffff" d="M 47.984375 17.34375 L 48.601562 17.34375 L 48.601562 19.761719 L 47.984375 19.761719 Z M 47.984375 17.34375 " fill-opacity="1" fill-rule="nonzero"/><path fill="#ffffff" d="M 40.492188 39.492188 C 40.492188 39.691406 40.65625 39.855469 40.855469 39.855469 C 41.054688 39.855469 41.21875 39.691406 41.21875 39.492188 L 41.21875 38.667969 L 40.492188 38.667969 Z M 40.492188 39.492188 " fill-opacity="1" fill-rule="nonzero"/><path fill="#ffffff" d="M 35.472656 28.449219 L 37.578125 25.652344 C 34.59375 25.894531 32.308594 27.394531 31.039062 29.960938 L 32.449219 29.960938 C 33.632812 29.960938 34.761719 29.394531 35.472656 28.449219 Z M 35.472656 28.449219 " fill-opacity="1" fill-rule="nonzero"/><path fill="#ffffff" d="M 23.160156 37.554688 L 26.339844 37.554688 C 26.621094 37.554688 26.835938 37.554688 26.996094 37.570312 C 27.152344 37.554688 27.367188 37.554688 27.648438 37.554688 L 30.828125 37.554688 L 31.957031 30.796875 L 22.03125 30.796875 Z M 26.996094 31.265625 C 28.550781 31.265625 29.8125 32.53125 29.8125 34.085938 C 29.8125 35.640625 28.550781 36.90625 26.996094 36.90625 C 25.441406 36.90625 24.175781 35.640625 24.175781 34.085938 C 24.175781 32.53125 25.441406 31.265625 26.996094 31.265625 Z M 26.996094 31.265625 " fill-opacity="1" fill-rule="nonzero"/><path fill="#ffffff" d="M 32.042969 35.375 L 39.222656 32.714844 L 39.222656 30.492188 L 32.4375 33.007812 Z M 32.042969 35.375 " fill-opacity="1" fill-rule="nonzero"/></svg>