<svg xmlns="http://www.w3.org/2000/svg" xmlns:xlink="http://www.w3.org/1999/xlink" width="72" zoomAndPan="magnify" viewBox="0 0 54 54" height="72" preserveAspectRatio="xMidYMid meet" version="1.0"><defs><clipPath id="630eaab1bd"><path d="M 0.492188 0 L 53.507812 0 L 53.507812 53.019531 L 0.492188 53.019531 Z M 0.492188 0 " clip-rule="nonzero"/></clipPath><clipPath id="fcec0fc5b5"><path d="M 1.449219 0.957031 L 52.257812 0.957031 L 52.257812 51.765625 L 1.449219 51.765625 Z M 1.449219 0.957031 " clip-rule="nonzero"/></clipPath></defs><g clip-path="url(#630eaab1bd)"><path fill="#ffffff" d="M 0.492188 0 L 53.507812 0 L 53.507812 53.019531 L 0.492188 53.019531 Z M 0.492188 0 " fill-opacity="1" fill-rule="nonzero"/><path fill="#000000" d="M 0.492188 0 L 53.507812 0 L 53.507812 53.019531 L 0.492188 53.019531 Z M 0.492188 0 " fill-opacity="1" fill-rule="nonzero"/></g><g clip-path="url(#fcec0fc5b5)"><path fill="#ffffff" d="M 48.730469 13.0625 C 48.730469 13.054688 48.734375 13.050781 48.734375 13.050781 C 48.765625 12.96875 48.722656 12.878906 48.644531 12.847656 C 48.625 12.839844 48.609375 12.847656 48.59375 12.847656 C 44.054688 5.71875 36.085938 0.972656 27.023438 0.972656 C 21.210938 0.972656 15.851562 2.925781 11.550781 6.207031 C 11.5 6.214844 11.464844 6.246094 11.445312 6.289062 C 5.378906 10.96875 1.464844 18.300781 1.464844 26.535156 C 1.464844 40.625 12.929688 52.09375 27.023438 52.09375 C 41.117188 52.09375 52.582031 40.625 52.582031 26.535156 C 52.582031 21.589844 51.167969 16.976562 48.730469 13.0625 Z M 48.171875 39.109375 C 46.714844 39.988281 44.953125 40.753906 42.957031 41.390625 C 43.511719 38.9375 43.847656 36.613281 44 34.410156 C 46.117188 33.710938 47.957031 32.867188 49.4375 31.914062 C 49.496094 33.65625 49.449219 35.328125 49.34375 36.898438 C 48.988281 37.65625 48.597656 38.394531 48.171875 39.109375 Z M 16.667969 48.679688 C 16.089844 48.09375 15.550781 47.492188 15.050781 46.878906 C 16.636719 47.3125 18.503906 47.730469 20.570312 48.050781 C 21.160156 49.007812 21.847656 49.914062 22.644531 50.75 C 20.550781 50.375 18.554688 49.734375 16.679688 48.863281 C 16.714844 48.804688 16.714844 48.730469 16.667969 48.679688 Z M 16.1875 48.628906 C 14.640625 47.867188 13.183594 46.945312 11.839844 45.886719 C 12.589844 46.148438 13.5 46.441406 14.539062 46.738281 C 15.046875 47.382812 15.597656 48.011719 16.1875 48.628906 Z M 14.722656 46.460938 C 13.542969 44.953125 12.589844 43.375 11.867188 41.722656 C 13.867188 42.351562 16.097656 42.851562 18.476562 43.210938 C 18.925781 44.792969 19.542969 46.300781 20.355469 47.695312 C 18.226562 47.359375 16.324219 46.914062 14.722656 46.460938 Z M 4.191406 31.085938 C 4.195312 33.148438 4.457031 35.324219 5.046875 37.601562 C 3.785156 35.105469 2.933594 32.367188 2.589844 29.476562 C 3.015625 30.039062 3.554688 30.574219 4.191406 31.085938 Z M 5.601562 38.441406 C 4.867188 35.945312 4.535156 33.574219 4.511719 31.335938 C 5.902344 32.378906 7.714844 33.308594 9.851562 34.089844 C 9.921875 36.578125 10.410156 38.953125 11.304688 41.207031 C 9.035156 40.441406 7.089844 39.511719 5.601562 38.441406 Z M 5.867188 23.164062 C 7.277344 24.085938 9.050781 24.90625 11.09375 25.601562 C 10.378906 27.933594 9.921875 30.332031 9.847656 32.746094 C 9.839844 33.074219 9.839844 33.394531 9.84375 33.71875 C 7.6875 32.917969 5.871094 31.972656 4.507812 30.917969 C 4.527344 28.121094 5.035156 25.535156 5.867188 23.164062 Z M 4.703125 16.171875 C 5.230469 15.324219 5.808594 14.527344 6.417969 13.769531 C 6.964844 14.6875 7.867188 15.542969 9.0625 16.316406 C 7.738281 18.21875 6.570312 20.34375 5.707031 22.6875 C 4.621094 21.929688 3.777344 21.105469 3.226562 20.230469 C 3.601562 18.824219 4.097656 17.46875 4.703125 16.171875 Z M 5.894531 13.917969 C 6 13.742188 6.109375 13.570312 6.21875 13.398438 C 6.230469 13.425781 6.242188 13.449219 6.253906 13.476562 C 6.136719 13.621094 6.011719 13.765625 5.894531 13.917969 Z M 14.191406 5.535156 C 14.234375 5.527344 14.289062 5.523438 14.382812 5.515625 C 14.597656 5.507812 14.410156 5.605469 14.382812 5.683594 C 14.351562 5.761719 14.144531 6.019531 14.015625 6.136719 C 13.890625 6.253906 13.800781 6.332031 13.714844 6.617188 C 13.625 6.902344 13.714844 6.832031 13.800781 6.664062 C 13.890625 6.5 14.074219 6.363281 14.402344 6.117188 C 14.722656 5.871094 14.617188 6 14.785156 5.917969 C 14.949219 5.839844 15.078125 5.761719 15.292969 5.644531 C 15.511719 5.527344 15.402344 5.566406 15.558594 5.390625 C 15.714844 5.210938 15.816406 5.230469 16 5.085938 C 16.1875 4.9375 16.285156 4.917969 16.363281 4.839844 C 16.441406 4.761719 16.484375 4.730469 16.570312 4.601562 C 16.660156 4.476562 16.777344 4.457031 16.886719 4.300781 C 16.992188 4.140625 17.050781 4.140625 17.140625 4.023438 C 17.152344 4.007812 17.152344 3.996094 17.160156 3.984375 C 17.636719 3.777344 18.121094 3.578125 18.613281 3.398438 C 18.738281 3.636719 18.917969 3.863281 19.148438 4.082031 C 18.253906 4.480469 17.316406 4.929688 16.363281 5.4375 C 16.335938 5.445312 16.304688 5.453125 16.265625 5.457031 C 16.179688 5.472656 16.21875 5.46875 16.152344 5.546875 C 15.796875 5.738281 15.441406 5.941406 15.082031 6.148438 C 15.003906 6.171875 14.929688 6.246094 14.8125 6.285156 C 14.695312 6.320312 14.675781 6.363281 14.558594 6.441406 C 14.550781 6.445312 14.554688 6.457031 14.546875 6.464844 C 13.785156 6.921875 13.023438 7.410156 12.269531 7.941406 C 12.09375 7.6875 11.960938 7.421875 11.871094 7.152344 C 12.613281 6.570312 13.386719 6.027344 14.191406 5.535156 Z M 14.574219 6.8125 C 14.585938 6.871094 14.59375 6.929688 14.578125 6.96875 C 14.519531 7.109375 14.578125 6.96875 14.441406 6.988281 C 14.324219 7.007812 14.285156 7.039062 14.136719 7.082031 C 14.285156 6.992188 14.429688 6.898438 14.574219 6.8125 Z M 38.28125 5.132812 C 38.433594 5.285156 38.574219 5.417969 38.675781 5.457031 C 38.871094 5.535156 39.027344 5.652344 39.207031 5.792969 C 39.382812 5.929688 40.40625 7.167969 40.40625 7.167969 C 40.40625 7.167969 40.464844 7.992188 41.113281 8.167969 C 41.558594 8.289062 41.84375 8.410156 42.03125 8.519531 C 41.726562 8.832031 41.359375 9.136719 40.933594 9.421875 C 40.523438 9.003906 40.117188 8.609375 39.714844 8.242188 C 38.078125 6.753906 36.410156 5.585938 34.863281 4.660156 C 35.140625 4.492188 35.386719 4.316406 35.59375 4.132812 C 36.507812 4.441406 37.421875 4.777344 38.28125 5.132812 Z M 42.683594 8.660156 C 43.035156 8.5625 43.015625 8.679688 43.429688 8.933594 C 43.839844 9.191406 43.78125 9.074219 43.960938 9.523438 C 44.136719 9.976562 44.175781 9.660156 44.175781 10.25 C 44.175781 10.839844 44.585938 11.210938 44.527344 11.605469 C 44.46875 12 44.695312 12.253906 44.535156 12.585938 C 44.371094 12.921875 44.117188 13.039062 44.273438 13.234375 C 44.429688 13.433594 44.351562 13.394531 44.726562 13.472656 C 45.097656 13.550781 45.824219 13.726562 46.023438 13.882812 C 46.21875 14.039062 46.277344 14.316406 46.179688 14.453125 C 46.082031 14.589844 46 14.570312 45.511719 14.90625 C 45.40625 14.976562 45.316406 15.023438 45.234375 15.066406 C 44.761719 14.261719 44.269531 13.503906 43.761719 12.796875 C 43.871094 12.730469 43.96875 12.648438 44.003906 12.535156 C 44.042969 12.417969 43.925781 12.496094 44.003906 12.289062 C 44.085938 12.078125 44.019531 12.246094 44.085938 12.078125 C 44.148438 11.90625 44.164062 11.828125 44.164062 11.828125 C 44.164062 11.828125 44.265625 11.734375 44.292969 11.683594 C 44.320312 11.632812 44.332031 11.605469 44.292969 11.4375 C 44.253906 11.265625 44.292969 11.316406 44.175781 11.1875 C 44.054688 11.054688 43.992188 11.003906 43.886719 10.964844 C 43.78125 10.925781 43.730469 10.898438 43.664062 10.886719 C 43.597656 10.875 43.597656 10.925781 43.480469 10.847656 C 43.363281 10.769531 43.332031 10.730469 43.191406 10.691406 C 43.050781 10.652344 43.0625 10.664062 42.890625 10.585938 C 42.71875 10.507812 42.65625 10.464844 42.589844 10.441406 C 42.523438 10.414062 42.707031 10.570312 42.523438 10.414062 C 42.34375 10.257812 42.394531 10.324219 42.34375 10.257812 C 42.289062 10.191406 42.328125 10.296875 42.210938 10.101562 C 42.09375 9.902344 42.09375 9.902344 42.09375 9.902344 L 41.921875 9.8125 C 41.921875 9.8125 41.976562 9.734375 41.84375 9.757812 C 41.789062 9.769531 41.726562 9.8125 41.648438 9.757812 C 41.570312 9.707031 41.53125 9.574219 41.488281 9.628906 C 41.457031 9.675781 41.316406 9.714844 41.351562 9.859375 C 41.28125 9.785156 41.210938 9.710938 41.140625 9.636719 C 41.582031 9.339844 41.957031 9.027344 42.277344 8.703125 C 42.363281 8.785156 42.375 8.746094 42.683594 8.660156 Z M 46.964844 14.140625 C 46.886719 13.960938 46.886719 13.550781 47.238281 13.53125 C 47.488281 13.515625 47.820312 13.683594 48 13.789062 C 47.765625 14.140625 47.476562 14.484375 47.136719 14.820312 C 47.109375 14.375 47.039062 14.304688 46.964844 14.140625 Z M 47.304688 20.214844 C 47.324219 20.4375 47.277344 20.695312 47.277344 20.855469 C 47.277344 21.035156 47.082031 21.25 47.003906 21.621094 C 46.925781 21.996094 46.769531 21.800781 46.769531 22.546875 C 46.769531 22.917969 46.746094 23.484375 46.785156 24.035156 C 45.820312 24.507812 44.75 24.945312 43.585938 25.335938 C 43.144531 22.726562 42.453125 20.375 41.613281 18.277344 C 43.117188 17.753906 44.433594 17.144531 45.527344 16.464844 C 45.644531 16.621094 45.738281 16.773438 45.785156 16.96875 C 45.847656 17.203125 45.921875 17.339844 46.0625 17.421875 C 46.09375 17.4375 46.121094 17.445312 46.148438 17.445312 C 46.582031 18.359375 46.96875 19.285156 47.304688 20.214844 Z M 35.285156 33.0625 C 35.246094 33.046875 35.210938 33.035156 35.160156 33.015625 C 34.828125 32.878906 34.75 33.113281 34.75 32.9375 C 34.75 32.757812 34.75 32.820312 34.652344 32.679688 C 34.550781 32.542969 34.375 32.503906 34.121094 32.40625 C 33.863281 32.304688 33.960938 32.386719 33.863281 32.386719 C 33.765625 32.386719 33.648438 32.445312 33.433594 32.269531 C 33.214844 32.089844 33.433594 32.269531 33.414062 32.210938 C 33.394531 32.148438 33.511719 32.03125 33.511719 32.03125 C 33.511719 32.03125 33.511719 32.03125 33.394531 32.03125 C 33.273438 32.03125 33.238281 31.953125 33.15625 31.875 C 33.078125 31.796875 32.941406 31.679688 32.765625 31.679688 C 32.589844 31.679688 32.667969 31.71875 32.511719 31.777344 C 32.351562 31.835938 31.78125 31.835938 31.78125 31.835938 C 31.78125 31.835938 31.585938 31.835938 31.429688 31.835938 C 31.273438 31.835938 31.3125 31.835938 31.175781 31.835938 C 31.035156 31.835938 30.78125 31.777344 30.78125 31.777344 C 30.78125 31.777344 30.664062 31.699219 30.449219 31.621094 C 30.230469 31.542969 30.347656 31.503906 30.152344 31.484375 C 29.957031 31.464844 29.976562 31.621094 29.878906 31.757812 C 29.78125 31.894531 29.878906 31.757812 29.738281 31.835938 C 29.601562 31.914062 29.640625 32.050781 29.660156 32.109375 C 29.679688 32.171875 29.660156 32.347656 29.660156 32.347656 C 29.660156 32.347656 29.464844 32.425781 29.347656 32.367188 C 29.230469 32.308594 29.40625 31.855469 29.40625 31.699219 C 29.40625 31.542969 29.40625 31.699219 29.425781 31.5625 C 29.445312 31.421875 29.601562 31.363281 29.582031 31.304688 C 29.5625 31.246094 29.269531 31.460938 29.191406 31.480469 C 29.113281 31.503906 28.875 31.660156 28.582031 31.875 C 28.285156 32.089844 28.402344 31.972656 28.246094 32.011719 C 28.089844 32.050781 28.089844 32.050781 27.953125 32.246094 C 27.816406 32.445312 27.875 32.386719 27.816406 32.425781 C 27.757812 32.464844 27.539062 32.9375 27.539062 32.9375 L 27.285156 32.859375 C 27.285156 32.859375 27.285156 32.859375 27.128906 32.699219 C 26.96875 32.542969 27.128906 32.265625 27.023438 32.148438 C 27 32.125 26.949219 32.125 26.882812 32.136719 C 26.875 31.132812 26.871094 30.121094 26.871094 29.109375 C 26.90625 29.121094 26.949219 29.132812 27.023438 29.152344 C 27.285156 29.222656 27.128906 29.203125 27.285156 29.222656 C 27.441406 29.242188 27.363281 29.378906 27.578125 29.222656 C 27.796875 29.066406 27.796875 29.164062 27.796875 29.066406 C 27.796875 28.96875 27.539062 28.789062 27.371094 28.871094 C 27.167969 28.964844 26.929688 28.8125 26.871094 28.871094 C 26.871094 28.582031 26.875 28.292969 26.875 28.003906 C 26.917969 28.003906 26.964844 28.003906 27.007812 28.003906 C 26.984375 28.035156 26.964844 28.058594 27.023438 28.105469 C 27.125 28.183594 26.699219 28.125 27.03125 28.300781 C 27.363281 28.476562 27.34375 28.476562 27.578125 28.457031 C 27.816406 28.4375 27.8125 28.554688 28.03125 28.46875 C 28.246094 28.378906 28.441406 28.261719 28.441406 28.261719 C 28.441406 28.261719 28.699219 28.222656 28.34375 28.125 C 28.089844 28.050781 27.917969 28.050781 27.765625 28.007812 C 30.425781 27.992188 33.003906 27.808594 35.429688 27.484375 C 35.464844 29.234375 35.421875 31.097656 35.285156 33.0625 Z M 24.101562 29.8125 C 23.945312 29.773438 23.0625 29.773438 22.867188 29.773438 C 22.667969 29.773438 22.90625 29.300781 22.925781 29.203125 C 22.945312 29.105469 23.003906 28.929688 23.042969 28.8125 C 23.082031 28.695312 23.140625 28.597656 23.199219 28.457031 C 23.257812 28.320312 23.238281 28.339844 23.300781 28.203125 C 23.355469 28.066406 23.398438 28.027344 23.417969 27.929688 C 23.421875 27.910156 23.421875 27.894531 23.425781 27.882812 C 24.457031 27.945312 25.503906 27.988281 26.5625 28.003906 C 26.554688 29.421875 26.558594 30.839844 26.570312 32.242188 C 26.371094 32.324219 26.164062 32.425781 26.066406 32.445312 C 25.871094 32.484375 25.753906 32.464844 25.617188 32.445312 C 25.480469 32.425781 25.203125 32.269531 25.125 32.191406 C 25.046875 32.109375 24.929688 32.011719 24.929688 32.011719 C 24.929688 32.011719 24.8125 31.835938 24.753906 31.757812 C 24.691406 31.679688 24.714844 31.640625 24.675781 31.582031 C 24.632812 31.519531 24.691406 31.109375 24.691406 30.972656 C 24.691406 30.832031 24.832031 30.714844 24.8125 30.636719 C 24.789062 30.558594 24.261719 29.851562 24.101562 29.8125 Z M 21.980469 28.574219 C 21.882812 28.652344 21.765625 28.671875 21.511719 28.671875 C 21.253906 28.671875 21.097656 28.671875 20.941406 28.65625 C 20.785156 28.636719 20.726562 28.613281 20.625 28.574219 C 20.527344 28.539062 20.195312 28.496094 19.976562 28.320312 C 19.761719 28.144531 19.976562 28.320312 19.898438 28.125 C 19.820312 27.929688 19.761719 27.847656 19.605469 27.691406 C 19.535156 27.621094 19.476562 27.550781 19.429688 27.484375 C 20.457031 27.625 21.511719 27.734375 22.589844 27.820312 C 22.460938 27.882812 22.535156 27.90625 22.414062 27.964844 C 22.257812 28.042969 22.296875 28.125 22.082031 28.496094 C 21.863281 28.871094 22.082031 28.496094 21.980469 28.574219 Z M 43.742188 12.734375 C 43.742188 12.734375 43.734375 12.742188 43.730469 12.75 C 43.511719 12.445312 43.292969 12.152344 43.070312 11.867188 C 43.050781 11.785156 43.042969 11.75 42.945312 11.710938 C 42.65625 11.34375 42.363281 10.988281 42.066406 10.652344 C 42.238281 10.699219 42.25 10.671875 42.328125 10.730469 C 42.421875 10.792969 42.449219 10.9375 42.539062 10.992188 C 42.632812 11.042969 42.789062 11.042969 42.917969 11.070312 C 43.050781 11.09375 43.050781 11.132812 43.101562 11.1875 C 43.15625 11.238281 43.1875 11.355469 43.191406 11.398438 C 43.195312 11.4375 43.222656 11.558594 43.257812 11.601562 C 43.300781 11.644531 43.261719 11.683594 43.363281 11.777344 C 43.46875 11.867188 43.441406 11.878906 43.585938 11.910156 C 43.730469 11.945312 43.730469 11.945312 43.730469 11.945312 C 43.730469 11.945312 43.757812 11.984375 43.730469 12.144531 C 43.703125 12.300781 43.742188 12.734375 43.742188 12.734375 Z M 42.210938 11.300781 C 42.140625 11.410156 42.0625 11.523438 42.121094 11.601562 C 42.199219 11.710938 42.132812 11.789062 42.277344 11.894531 C 42.421875 12 42.398438 12 42.460938 12.078125 C 42.527344 12.15625 42.410156 12.289062 42.539062 12.417969 C 42.671875 12.550781 42.65625 12.695312 42.839844 12.613281 C 43.023438 12.535156 42.921875 12.695312 43.03125 12.457031 C 43.042969 12.425781 43.0625 12.402344 43.074219 12.382812 C 43.769531 13.300781 44.398438 14.246094 44.960938 15.203125 C 44.832031 15.269531 44.773438 15.324219 44.800781 15.457031 C 44.847656 15.65625 45.125 15.976562 45.316406 16.199219 C 44.25 16.855469 42.957031 17.445312 41.484375 17.960938 C 40.574219 15.746094 39.511719 13.820312 38.429688 12.179688 C 38.21875 11.859375 38.003906 11.550781 37.789062 11.246094 C 38.984375 10.835938 40.019531 10.351562 40.875 9.816406 C 41.34375 10.300781 41.789062 10.796875 42.210938 11.300781 Z M 23.332031 27.5625 C 23.332031 27.5625 23.328125 27.5625 23.328125 27.5625 C 21.957031 27.46875 20.621094 27.335938 19.332031 27.160156 C 19.332031 27.152344 19.332031 27.144531 19.332031 27.121094 C 19.332031 27.0625 19.332031 26.847656 19.332031 26.652344 C 19.332031 26.453125 19.371094 26.335938 19.332031 26.140625 C 19.292969 25.945312 19.410156 25.964844 19.449219 25.863281 C 19.488281 25.765625 19.546875 25.808594 19.761719 25.648438 C 19.976562 25.492188 19.761719 25.355469 19.722656 25.296875 C 19.683594 25.238281 19.703125 25.179688 19.703125 25.078125 C 19.703125 24.980469 19.800781 25 19.800781 24.941406 C 19.800781 24.882812 20.46875 24.53125 20.824219 24.410156 C 21.175781 24.292969 20.960938 24.332031 21.175781 24.3125 C 21.390625 24.292969 21.433594 24.390625 21.867188 24.609375 C 22.304688 24.824219 22.082031 24.628906 22.238281 24.609375 C 22.394531 24.585938 22.511719 24.609375 22.648438 24.609375 C 22.785156 24.609375 22.847656 24.53125 22.867188 24.472656 C 22.886719 24.410156 22.746094 24.332031 22.746094 24.273438 C 22.746094 24.214844 23.003906 24.253906 23.121094 24.253906 C 23.238281 24.253906 23.394531 24.253906 23.613281 24.253906 C 23.828125 24.253906 23.925781 24.273438 24.023438 24.371094 C 24.121094 24.472656 24.199219 24.53125 24.4375 24.648438 C 24.671875 24.765625 24.59375 24.667969 24.730469 24.667969 C 24.867188 24.667969 24.867188 24.667969 25.007812 24.667969 C 25.144531 24.667969 25.085938 24.824219 25.105469 25 C 25.125 25.179688 25.183594 25.296875 25.183594 25.296875 C 25.183594 25.296875 25.183594 25.296875 25.183594 25.53125 C 25.183594 25.765625 25.242188 25.707031 25.300781 25.746094 C 25.359375 25.785156 25.652344 26.355469 25.890625 26.316406 C 26.125 26.277344 26.007812 26.238281 26.085938 26.121094 C 26.164062 26.003906 26.183594 25.667969 26.183594 25.667969 C 26.183594 25.667969 26.046875 25.492188 26.007812 25.414062 C 25.96875 25.335938 25.890625 25.078125 25.871094 24.960938 C 25.851562 24.84375 25.832031 24.667969 25.792969 24.609375 C 25.753906 24.546875 25.792969 24.273438 25.773438 24.058594 C 25.753906 23.84375 25.851562 23.820312 25.871094 23.742188 C 25.890625 23.664062 26.046875 23.546875 26.085938 23.488281 C 26.125 23.429688 26.304688 23.3125 26.382812 23.191406 C 26.433594 23.117188 26.519531 23.070312 26.613281 23.023438 C 26.589844 24.488281 26.574219 25.976562 26.566406 27.46875 C 26.386719 27.390625 26.125 27.253906 26.125 27.253906 C 26.125 27.253906 25.929688 27.082031 25.773438 27.042969 C 25.617188 27.003906 25.402344 27.042969 25.203125 27.042969 C 25.007812 27.042969 24.574219 27.113281 24.515625 27.253906 C 24.457031 27.398438 24.378906 27.574219 24.378906 27.574219 C 24.378906 27.574219 24.457031 27.574219 24.574219 27.574219 C 24.691406 27.574219 24.691406 27.515625 24.8125 27.476562 C 24.929688 27.4375 24.910156 27.242188 25.066406 27.300781 C 25.222656 27.355469 25.441406 27.222656 25.578125 27.300781 C 25.714844 27.378906 25.929688 27.574219 25.929688 27.574219 C 25.929688 27.574219 25.96875 27.476562 26.027344 27.574219 C 26.050781 27.609375 26.109375 27.644531 26.179688 27.679688 C 25.214844 27.664062 24.265625 27.621094 23.332031 27.5625 Z M 21.445312 8.246094 C 21.765625 8.207031 21.726562 8.089844 22.039062 7.992188 C 22.355469 7.894531 22.375 7.753906 22.511719 7.835938 C 22.648438 7.914062 22.472656 8.070312 22.667969 8.109375 C 22.867188 8.148438 22.90625 8.320312 23.121094 8.261719 C 23.335938 8.207031 23.160156 8.34375 23.335938 8.207031 C 23.515625 8.070312 23.574219 8.265625 23.515625 8.070312 C 23.453125 7.875 23.238281 7.753906 23.199219 7.578125 C 23.160156 7.402344 23.082031 7.574219 23.121094 7.332031 C 23.160156 7.089844 23.140625 7.050781 23.179688 6.929688 C 23.21875 6.8125 23.21875 6.773438 23.21875 6.65625 C 23.21875 6.539062 23.277344 6.578125 22.964844 6.539062 C 22.941406 6.535156 22.921875 6.535156 22.902344 6.535156 C 23.042969 6.378906 23.175781 6.226562 23.3125 6.078125 C 23.601562 5.996094 23.347656 6.0625 23.632812 5.988281 C 23.703125 5.96875 23.746094 5.964844 23.769531 5.960938 C 23.78125 5.964844 23.792969 5.96875 23.804688 5.96875 C 23.8125 5.972656 23.8125 5.972656 23.820312 5.972656 C 24 6.003906 24.183594 6.027344 24.367188 6.054688 C 24.355469 6.097656 24.40625 6.082031 24.46875 6.140625 C 24.535156 6.203125 24.378906 6.183594 24.535156 6.203125 C 24.691406 6.222656 24.515625 6.203125 24.691406 6.222656 C 24.867188 6.242188 24.828125 6.320312 24.949219 6.222656 C 24.960938 6.210938 24.96875 6.207031 24.980469 6.195312 C 24.746094 6.722656 24.496094 7.296875 24.238281 7.894531 C 24.148438 7.996094 24.164062 7.980469 24.195312 8.003906 C 24.042969 8.355469 23.890625 8.71875 23.734375 9.09375 C 23.667969 9.097656 23.710938 9.011719 23.710938 9.011719 C 23.710938 9.011719 23.710938 8.816406 23.59375 8.757812 C 23.476562 8.699219 23.59375 8.757812 23.414062 8.796875 C 23.238281 8.835938 23.296875 8.816406 23.199219 8.777344 C 23.101562 8.738281 22.945312 8.699219 22.765625 8.601562 C 22.589844 8.5 22.648438 8.5625 22.53125 8.5 C 22.414062 8.441406 22.394531 8.402344 22.296875 8.265625 C 22.199219 8.128906 22.0625 8.402344 22 8.441406 C 21.945312 8.484375 21.511719 8.601562 21.511719 8.601562 C 21.511719 8.601562 21.511719 8.601562 21.511719 8.519531 C 21.511719 8.445312 21.375 8.445312 21.375 8.445312 C 21.375 8.445312 21.332031 8.453125 21.269531 8.460938 C 21.328125 8.390625 21.386719 8.316406 21.445312 8.246094 Z M 25.949219 5.007812 C 25.929688 5.183594 26.046875 5.242188 26.105469 5.253906 C 26.164062 5.261719 26.164062 5.457031 26.164062 5.457031 C 26.164062 5.457031 25.753906 5.695312 25.710938 5.636719 C 25.699219 5.613281 25.65625 5.585938 25.613281 5.558594 C 25.71875 5.324219 25.824219 5.097656 25.921875 4.886719 C 25.941406 4.925781 25.953125 4.964844 25.949219 5.007812 Z M 27.738281 4.515625 C 27.796875 4.476562 27.933594 4.121094 27.953125 4.023438 C 27.972656 3.925781 27.953125 3.769531 27.953125 3.652344 C 27.953125 3.535156 27.773438 3.492188 27.636719 3.453125 C 27.613281 3.449219 27.59375 3.449219 27.570312 3.453125 C 27.601562 2.875 27.621094 2.425781 27.636719 2.136719 C 27.859375 2.402344 28.214844 2.847656 28.652344 3.476562 C 28.601562 3.507812 28.546875 3.550781 28.515625 3.578125 C 28.476562 3.617188 28.242188 3.683594 28.226562 3.738281 C 28.214844 3.789062 28.175781 3.90625 28.175781 3.90625 C 28.175781 3.90625 28.277344 4.011719 28.175781 4.078125 C 28.070312 4.140625 28.03125 4.429688 28.082031 4.484375 C 28.132812 4.535156 28.175781 4.5625 28.148438 4.625 C 28.121094 4.691406 27.964844 4.835938 27.925781 4.863281 C 27.886719 4.886719 27.742188 5.007812 27.730469 5.113281 C 27.714844 5.214844 27.78125 5.375 27.820312 5.464844 C 27.859375 5.554688 27.949219 5.4375 27.9375 5.660156 C 27.933594 5.769531 27.945312 5.871094 27.988281 5.941406 C 27.8125 5.945312 27.632812 5.949219 27.453125 5.949219 C 27.472656 5.492188 27.492188 5.066406 27.511719 4.671875 C 27.570312 4.617188 27.6875 4.546875 27.738281 4.515625 Z M 27.375 14.0625 C 27.40625 14.207031 27.277344 14.28125 27.132812 14.34375 C 27.144531 13.960938 27.15625 13.582031 27.171875 13.210938 C 27.292969 13.277344 27.273438 13.316406 27.371094 13.589844 C 27.480469 13.882812 27.324219 13.84375 27.375 14.0625 Z M 25.476562 5.851562 C 25.488281 5.859375 25.496094 5.859375 25.503906 5.863281 C 25.492188 5.863281 25.484375 5.863281 25.476562 5.859375 C 25.476562 5.859375 25.476562 5.855469 25.476562 5.851562 Z M 27.125 6.257812 C 27.117188 6.4375 27.109375 6.621094 27.101562 6.804688 C 27.074219 6.789062 27.050781 6.773438 27.023438 6.753906 C 26.898438 6.675781 26.597656 6.65625 26.363281 6.65625 C 26.125 6.65625 25.8125 6.890625 25.65625 6.988281 C 25.496094 7.089844 25.65625 6.988281 25.4375 7.480469 C 25.222656 7.972656 25.496094 7.636719 25.535156 7.832031 C 25.578125 8.03125 25.535156 7.832031 25.578125 7.933594 C 25.617188 8.03125 25.773438 8.089844 25.871094 8.285156 C 25.96875 8.484375 25.890625 8.421875 25.871094 8.601562 C 25.851562 8.777344 25.792969 8.816406 25.675781 8.992188 C 25.554688 9.167969 25.597656 9.128906 25.441406 9.1875 C 25.28125 9.246094 25.339844 9.167969 25.339844 9.167969 C 25.339844 9.167969 25.378906 8.738281 25.359375 8.679688 C 25.339844 8.621094 25.359375 8.484375 25.28125 8.519531 C 25.203125 8.558594 25.105469 8.640625 25.046875 8.539062 C 24.988281 8.441406 25.007812 8.402344 25.007812 8.402344 C 25.007812 8.402344 24.8125 8.285156 24.773438 8.226562 C 24.734375 8.167969 24.8125 8.050781 24.8125 8.050781 C 24.8125 8.050781 24.929688 7.875 24.929688 7.8125 C 24.929688 7.753906 24.929688 7.617188 24.929688 7.617188 L 24.890625 7.363281 L 24.890625 7.179688 C 24.90625 7.144531 24.917969 7.109375 24.933594 7.078125 L 25.066406 6.988281 L 25.363281 6.871094 L 25.421875 6.617188 L 25.539062 6.441406 C 25.539062 6.441406 26.03125 6.457031 26.109375 6.457031 C 26.183594 6.457031 26.636719 6.480469 26.71875 6.480469 C 26.789062 6.480469 26.828125 6.28125 26.832031 6.253906 C 26.929688 6.257812 27.027344 6.257812 27.125 6.257812 Z M 27.375 8.226562 C 27.460938 8.265625 27.5 8.402344 27.578125 8.621094 C 27.65625 8.835938 27.617188 8.796875 27.675781 8.796875 C 27.738281 8.796875 27.855469 8.933594 27.855469 8.933594 C 27.855469 8.933594 28.148438 9.191406 28.148438 9.347656 C 28.148438 9.503906 28.089844 9.503906 27.992188 9.582031 C 27.894531 9.660156 27.855469 9.777344 27.835938 9.898438 C 27.816406 10.015625 27.914062 10.210938 27.796875 10.230469 C 27.675781 10.25 27.675781 10.25 27.375 10.25 C 27.335938 10.25 27.300781 10.25 27.277344 10.257812 C 27.300781 9.542969 27.332031 8.863281 27.355469 8.21875 C 27.359375 8.21875 27.371094 8.226562 27.375 8.226562 Z M 23.125 12.253906 C 23.125 12.234375 23.121094 12.222656 23.121094 12.195312 C 23.121094 12 23.21875 11.882812 23.277344 11.664062 C 23.335938 11.449219 23.394531 11.527344 23.808594 11.210938 C 24.21875 10.898438 24.042969 11.113281 24.203125 11.074219 C 24.359375 11.035156 24.320312 11.054688 24.417969 10.839844 C 24.515625 10.625 24.671875 10.722656 24.910156 10.605469 C 25.144531 10.488281 24.910156 10.605469 25.144531 10.488281 C 25.378906 10.367188 25.144531 10.488281 25.125 10.269531 C 25.105469 10.054688 24.964844 10.113281 25.222656 10.113281 C 25.476562 10.113281 25.417969 10.015625 25.417969 10.015625 C 25.417969 10.015625 25.417969 10.015625 25.496094 9.878906 C 25.574219 9.738281 25.636719 9.917969 25.695312 9.917969 C 25.753906 9.917969 25.871094 9.917969 26.046875 9.816406 C 26.222656 9.71875 26.34375 9.660156 26.441406 9.582031 C 26.539062 9.503906 26.558594 9.484375 26.597656 9.289062 C 26.636719 9.09375 26.519531 9.113281 26.5 8.972656 C 26.480469 8.835938 26.558594 8.816406 26.539062 8.699219 C 26.519531 8.582031 26.519531 8.519531 26.519531 8.519531 C 26.519531 8.519531 26.519531 8.421875 26.578125 8.285156 C 26.636719 8.148438 26.675781 8.265625 26.792969 8.207031 C 26.910156 8.148438 26.96875 8.1875 27.023438 8.109375 C 27.027344 8.101562 27.039062 8.105469 27.046875 8.101562 C 26.992188 9.414062 26.933594 10.890625 26.878906 12.484375 C 25.582031 12.464844 24.324219 12.386719 23.125 12.253906 Z M 25.632812 6.195312 C 25.632812 6.335938 25.589844 6.320312 25.476562 6.320312 C 25.382812 6.320312 25.320312 6.355469 25.230469 6.402344 C 25.265625 6.324219 25.300781 6.246094 25.335938 6.167969 C 25.4375 6.175781 25.53125 6.1875 25.632812 6.195312 Z M 24.351562 8.433594 C 24.382812 8.460938 24.410156 8.488281 24.417969 8.542969 C 24.4375 8.679688 24.417969 8.542969 24.359375 8.640625 C 24.300781 8.738281 24.28125 8.777344 24.167969 8.871094 C 24.226562 8.726562 24.289062 8.578125 24.351562 8.433594 Z M 26.871094 12.796875 C 26.851562 13.351562 26.832031 13.917969 26.8125 14.5 C 26.722656 14.5625 26.707031 14.628906 26.675781 14.808594 C 26.636719 15.042969 26.773438 14.945312 26.753906 15.296875 C 26.734375 15.652344 26.734375 15.476562 26.578125 15.671875 C 26.421875 15.867188 26.34375 15.769531 26.222656 15.75 C 26.105469 15.730469 25.988281 15.355469 25.949219 15.101562 C 25.910156 14.84375 25.988281 14.84375 25.96875 14.589844 C 25.949219 14.335938 25.871094 14.355469 25.671875 14.21875 C 25.476562 14.078125 25.417969 14.140625 25.222656 14.078125 C 25.023438 14.019531 25.007812 14.039062 24.75 13.921875 C 24.496094 13.804688 24.710938 13.765625 24.574219 13.609375 C 24.4375 13.449219 24.296875 13.410156 24.121094 13.3125 C 23.945312 13.214844 23.808594 13.136719 23.6875 13.097656 C 23.570312 13.058594 23.550781 12.941406 23.53125 12.746094 C 23.527344 12.683594 23.503906 12.640625 23.480469 12.605469 C 24.570312 12.714844 25.703125 12.78125 26.871094 12.796875 Z M 23.652344 17.164062 C 23.730469 17.164062 23.964844 16.988281 24.28125 16.78125 C 24.28125 16.78125 24.28125 16.78125 24.398438 16.847656 C 24.515625 16.914062 24.398438 16.847656 24.378906 16.910156 C 24.359375 16.96875 24.476562 16.96875 24.574219 17.125 C 24.671875 17.28125 25.183594 17.617188 25.144531 17.714844 C 25.105469 17.8125 25.144531 17.714844 24.476562 17.8125 C 23.808594 17.910156 24.476562 17.8125 24.28125 17.792969 C 24.082031 17.773438 24.082031 17.636719 23.964844 17.597656 C 23.847656 17.558594 23.867188 17.457031 23.632812 17.4375 C 23.394531 17.417969 23.632812 17.4375 23.414062 17.457031 C 23.199219 17.480469 23.316406 17.5 23.140625 17.457031 C 22.964844 17.417969 22.964844 17.359375 22.964844 17.359375 C 22.964844 17.359375 23.574219 17.164062 23.652344 17.164062 Z M 30.351562 12.375 C 30.285156 12.265625 30.226562 12.171875 30.152344 12.097656 C 30.035156 11.980469 30.152344 12.097656 30.015625 12.292969 C 29.878906 12.488281 30.015625 12.292969 30.046875 12.371094 C 30.046875 12.378906 30.046875 12.386719 30.042969 12.394531 C 29.765625 12.414062 29.484375 12.429688 29.203125 12.441406 C 29.121094 12.398438 29.039062 12.335938 28.953125 12.253906 C 28.796875 12.097656 28.933594 12.054688 28.894531 11.859375 C 28.855469 11.664062 28.875 11.761719 28.738281 11.703125 C 28.601562 11.644531 28.5625 11.644531 28.503906 11.546875 C 28.445312 11.449219 28.285156 11.410156 28.167969 11.371094 C 28.050781 11.332031 27.914062 11.332031 27.617188 11.292969 C 27.324219 11.25 27.460938 11.351562 27.375 11.46875 C 27.324219 11.535156 27.269531 11.632812 27.21875 11.789062 C 27.230469 11.476562 27.242188 11.171875 27.253906 10.871094 C 27.292969 10.867188 27.332031 10.859375 27.375 10.839844 C 27.5 10.78125 27.65625 10.605469 27.65625 10.605469 C 27.65625 10.605469 27.855469 10.703125 28.070312 10.898438 C 28.285156 11.09375 28.425781 11.210938 28.5625 11.390625 C 28.699219 11.566406 28.816406 11.644531 29.207031 11.46875 C 29.601562 11.292969 29.328125 11.449219 29.601562 11.390625 C 29.878906 11.332031 29.679688 11.210938 29.601562 11.113281 C 29.523438 11.015625 29.386719 10.996094 29.191406 10.917969 C 28.992188 10.839844 29.011719 10.78125 29.191406 10.800781 C 29.367188 10.820312 29.582031 10.820312 29.835938 10.742188 C 30.09375 10.664062 29.9375 10.527344 29.9375 10.527344 C 29.9375 10.527344 29.621094 10.40625 29.308594 10.152344 C 28.992188 9.898438 29.109375 9.9375 29.074219 9.820312 C 29.03125 9.699219 29.328125 9.761719 29.40625 9.761719 C 29.484375 9.761719 29.582031 9.898438 29.78125 10.074219 C 29.976562 10.25 29.894531 10.035156 29.894531 9.976562 C 29.894531 9.917969 29.816406 9.582031 29.738281 9.367188 C 29.660156 9.152344 29.386719 9.269531 29.289062 9.210938 C 29.191406 9.152344 28.796875 8.796875 28.757812 8.738281 C 28.71875 8.679688 28.699219 7.953125 28.5625 7.855469 C 28.425781 7.753906 28.246094 7.714844 28.128906 7.617188 C 28.011719 7.519531 27.855469 7.421875 27.738281 7.324219 C 27.628906 7.234375 27.507812 7.105469 27.40625 7.019531 C 27.417969 6.761719 27.429688 6.507812 27.4375 6.265625 C 28.128906 6.265625 28.796875 6.230469 29.441406 6.167969 C 29.585938 6.308594 29.734375 6.460938 29.835938 6.550781 C 30.007812 6.695312 30.207031 6.722656 30.230469 7.101562 C 30.257812 7.480469 30.375 7.441406 30.558594 7.441406 C 30.742188 7.441406 30.882812 7.519531 30.925781 7.546875 C 30.960938 7.574219 30.832031 7.691406 30.792969 7.78125 C 30.753906 7.875 30.609375 7.980469 30.742188 8.1875 C 30.871094 8.398438 30.636719 8.53125 30.929688 8.488281 C 31.140625 8.460938 31.269531 8.304688 31.347656 8.226562 C 31.378906 8.296875 31.414062 8.371094 31.449219 8.445312 C 31.441406 8.519531 31.429688 8.597656 31.421875 8.671875 C 31.394531 8.894531 31.179688 9.261719 31.457031 9.5 C 31.734375 9.734375 31.789062 9.839844 32.011719 9.941406 C 32.050781 9.960938 32.082031 9.984375 32.117188 10.003906 C 32.382812 10.660156 32.640625 11.355469 32.890625 12.09375 C 32.074219 12.214844 31.226562 12.308594 30.351562 12.375 Z M 28.332031 5.929688 C 28.53125 5.816406 28.742188 5.667969 28.894531 5.699219 C 29.050781 5.734375 29.007812 5.773438 29.121094 5.878906 C 28.863281 5.902344 28.597656 5.917969 28.332031 5.929688 Z M 32.71875 10.679688 C 32.863281 10.804688 32.882812 10.859375 33.097656 10.9375 C 33.347656 11.03125 33.253906 11.109375 33.398438 11.226562 C 33.542969 11.34375 33.648438 11.332031 33.871094 11.332031 C 34.09375 11.332031 34.183594 11.539062 34.304688 11.566406 C 34.421875 11.59375 34.460938 11.632812 34.550781 11.566406 C 34.644531 11.5 34.644531 11.660156 34.644531 11.410156 C 34.644531 11.160156 34.695312 11.304688 34.644531 11.015625 C 34.589844 10.726562 34.394531 9.996094 34.210938 9.667969 C 34.027344 9.339844 34.121094 9.355469 34.277344 9.210938 C 34.433594 9.066406 34.601562 9.105469 34.601562 8.855469 C 34.601562 8.605469 34.460938 8.554688 34.601562 8.226562 C 34.660156 8.097656 34.722656 8.050781 34.769531 8.007812 C 35.613281 8.929688 36.464844 9.953125 37.292969 11.09375 C 36.066406 11.484375 34.691406 11.808594 33.210938 12.042969 C 33.046875 11.570312 32.886719 11.117188 32.71875 10.679688 Z M 27.140625 5.945312 C 26.699219 5.941406 26.265625 5.921875 25.839844 5.890625 C 25.765625 5.78125 26.171875 5.828125 26.261719 5.773438 C 26.363281 5.714844 26.695312 5.832031 26.695312 5.832031 C 26.695312 5.832031 26.871094 5.871094 27.023438 5.851562 C 27.09375 5.839844 27.113281 5.847656 27.117188 5.859375 C 27.125 5.839844 27.136719 5.808594 27.148438 5.777344 C 27.144531 5.832031 27.140625 5.886719 27.140625 5.945312 Z M 25.59375 4.847656 C 25.460938 4.773438 25.386719 4.714844 25.296875 4.714844 C 25.183594 4.710938 25.320312 4.75 25.183594 4.710938 C 25.046875 4.671875 24.886719 4.714844 24.886719 4.714844 C 24.808594 4.8125 24.847656 4.691406 24.808594 4.8125 C 24.769531 4.929688 24.769531 5.140625 24.847656 5.132812 C 24.929688 5.125 24.808594 5.066406 24.929688 5.125 C 25.046875 5.183594 24.945312 5.183594 25.046875 5.183594 C 25.144531 5.183594 25.132812 5.121094 25.207031 5.132812 C 25.28125 5.144531 25.125 5.046875 25.28125 5.144531 C 25.351562 5.1875 25.390625 5.207031 25.421875 5.21875 C 25.335938 5.40625 25.246094 5.609375 25.15625 5.808594 C 25.152344 5.808594 25.148438 5.804688 25.148438 5.804688 C 25.148438 5.804688 25.140625 5.8125 25.128906 5.824219 C 25.089844 5.820312 25.046875 5.816406 25.007812 5.8125 C 25.007812 5.808594 25.007812 5.808594 25.007812 5.804688 C 25.027344 5.574219 25.027344 5.574219 25.027344 5.574219 L 24.949219 5.476562 C 24.949219 5.476562 24.890625 5.453125 24.78125 5.476562 C 24.671875 5.496094 24.515625 5.636719 24.527344 5.695312 C 24.535156 5.742188 24.59375 5.691406 24.558594 5.753906 C 24.429688 5.738281 24.296875 5.71875 24.171875 5.699219 C 24.175781 5.679688 24.179688 5.664062 24.183594 5.632812 C 24.203125 5.457031 24.183594 5.265625 24.183594 5.265625 C 24.183594 5.265625 24.210938 5.15625 24.285156 5.011719 C 25.3125 3.902344 26.164062 3.054688 26.707031 2.527344 C 26.441406 3.0625 26.054688 3.859375 25.59375 4.847656 Z M 28.523438 20.050781 C 28.640625 19.894531 28.796875 20.128906 29.210938 19.835938 C 29.621094 19.539062 29.367188 19.714844 29.40625 19.621094 C 29.445312 19.519531 29.40625 19.5 29.40625 19.402344 C 29.40625 19.304688 29.484375 19.148438 29.484375 19.089844 C 29.484375 19.03125 29.601562 18.949219 29.71875 18.851562 C 29.835938 18.753906 29.878906 18.777344 30.054688 18.695312 C 30.230469 18.617188 30.308594 18.539062 30.367188 18.5 C 30.425781 18.460938 30.484375 18.324219 30.859375 18.085938 C 31.230469 17.851562 30.878906 18.226562 30.839844 18.324219 C 30.800781 18.421875 30.464844 18.695312 30.523438 18.972656 C 30.585938 19.246094 30.621094 19.050781 30.839844 19.011719 C 31.054688 18.972656 31.390625 18.636719 31.449219 18.539062 C 31.507812 18.441406 32 18.066406 31.980469 17.988281 C 31.957031 17.910156 31.957031 17.8125 31.957031 17.8125 C 31.957031 17.8125 31.78125 17.753906 31.546875 17.636719 C 31.3125 17.519531 31.546875 17.636719 31.195312 17.539062 C 30.839844 17.4375 31.195312 17.539062 31.035156 17.359375 C 30.878906 17.183594 31.035156 17.359375 30.820312 17.28125 C 30.605469 17.203125 30.820312 17.28125 30.820312 17.144531 C 30.820312 17.007812 31.015625 17.046875 31.175781 16.785156 C 31.332031 16.519531 31.273438 16.59375 31.175781 16.476562 C 31.074219 16.359375 31.054688 16.457031 30.839844 16.457031 C 30.625 16.457031 30.605469 16.476562 30.269531 16.574219 C 29.9375 16.675781 30.269531 16.574219 30.132812 16.785156 C 29.996094 16.992188 30.035156 16.929688 29.9375 17.007812 C 29.839844 17.085938 29.742188 17.144531 29.367188 17.183594 C 28.992188 17.222656 29.367188 17.183594 29.425781 17.066406 C 29.484375 16.949219 29.425781 17.066406 29.621094 16.785156 C 29.816406 16.5 29.800781 16.613281 29.898438 16.476562 C 29.996094 16.339844 30.191406 16.300781 30.328125 16.203125 C 30.46875 16.105469 30.566406 16.144531 30.761719 16.105469 C 30.957031 16.066406 31.371094 16.105469 31.765625 16.085938 C 32.15625 16.066406 32.097656 16.027344 32.195312 15.90625 C 32.292969 15.789062 32.410156 15.554688 32.453125 15.417969 C 32.492188 15.277344 32.589844 15.296875 32.628906 15.242188 C 32.667969 15.179688 32.882812 14.984375 32.863281 14.867188 C 32.84375 14.75 32.824219 14.632812 32.726562 14.570312 C 32.628906 14.511719 32.53125 14.511719 32.332031 14.433594 C 32.136719 14.355469 32.175781 14.394531 32.175781 14.160156 C 32.175781 13.925781 32.175781 14.160156 32.117188 14.140625 C 32.058594 14.121094 31.765625 13.984375 31.527344 13.882812 C 31.292969 13.785156 31.410156 13.863281 31.15625 13.804688 C 30.902344 13.746094 30.917969 13.335938 30.820312 13.238281 C 30.738281 13.152344 30.636719 12.886719 30.527344 12.675781 C 31.375 12.605469 32.203125 12.511719 32.996094 12.390625 C 33.140625 12.828125 33.285156 13.277344 33.425781 13.746094 C 33.667969 14.558594 33.898438 15.441406 34.117188 16.378906 C 34.042969 16.304688 34.03125 16.308594 33.964844 16.230469 C 33.875 16.132812 34.121094 16.144531 33.835938 16.085938 C 33.550781 16.027344 33.453125 16.007812 33.375 16.027344 C 33.296875 16.046875 33.246094 16.035156 33.246094 16.035156 C 33.246094 16.035156 33.21875 16.027344 33.179688 15.988281 C 33.140625 15.949219 33.089844 15.847656 33.089844 15.769531 C 33.089844 15.691406 33.089844 15.59375 33.089844 15.535156 C 33.089844 15.476562 33.128906 15.40625 33.082031 15.417969 C 33.03125 15.429688 32.980469 15.417969 32.980469 15.417969 C 32.824219 15.644531 32.648438 15.742188 32.65625 15.8125 C 32.667969 15.878906 32.636719 15.988281 32.65625 16.035156 C 32.679688 16.085938 32.664062 16.144531 32.648438 16.222656 C 32.636719 16.300781 32.597656 16.292969 32.570312 16.441406 C 32.539062 16.585938 32.480469 16.695312 32.480469 16.734375 C 32.480469 16.773438 32.441406 16.792969 32.480469 16.898438 C 32.519531 17.007812 32.214844 16.960938 32.519531 17.007812 C 32.824219 17.058594 32.726562 16.988281 33.042969 17.007812 C 33.355469 17.027344 33.265625 16.980469 33.542969 16.941406 C 33.816406 16.898438 33.894531 16.832031 33.953125 16.839844 C 34.011719 16.851562 33.886719 16.945312 33.835938 17.027344 C 33.789062 17.105469 33.964844 17.105469 34.09375 17.105469 C 34.183594 17.105469 34.230469 17.144531 34.285156 17.140625 C 34.453125 17.90625 34.601562 18.714844 34.738281 19.558594 C 32.773438 19.847656 30.679688 20.023438 28.511719 20.070312 C 28.515625 20.0625 28.515625 20.058594 28.523438 20.050781 Z M 34.550781 16.875 C 34.558594 16.851562 34.550781 16.828125 34.53125 16.796875 C 34.285156 15.664062 34.011719 14.617188 33.726562 13.65625 C 33.589844 13.203125 33.453125 12.765625 33.308594 12.339844 C 34.820312 12.09375 36.222656 11.757812 37.472656 11.347656 C 37.710938 11.679688 37.945312 12.015625 38.175781 12.367188 C 39.242188 13.980469 40.292969 15.878906 41.1875 18.0625 C 39.371094 18.671875 37.296875 19.167969 35.050781 19.511719 C 34.898438 18.585938 34.730469 17.710938 34.550781 16.875 Z M 37.605469 10.992188 C 36.714844 9.753906 35.789062 8.640625 34.878906 7.65625 C 34.878906 7.628906 34.878906 7.613281 34.878906 7.585938 C 34.851562 7.074219 34.972656 7.257812 35.046875 7.113281 C 35.128906 6.96875 34.917969 6.761719 34.707031 6.628906 C 34.5 6.5 34.039062 6.183594 33.898438 5.988281 C 33.816406 5.875 33.582031 5.59375 33.363281 5.355469 C 33.796875 5.199219 34.191406 5.023438 34.546875 4.835938 C 36.121094 5.765625 37.828125 6.953125 39.503906 8.472656 C 39.90625 8.839844 40.289062 9.214844 40.660156 9.597656 C 39.820312 10.121094 38.792969 10.59375 37.605469 10.992188 Z M 33.117188 5.105469 C 33.046875 5.039062 32.984375 4.984375 32.941406 4.964844 C 32.746094 4.875 32.875 5.109375 32.546875 4.730469 C 32.222656 4.351562 32.066406 4.390625 31.917969 4.339844 C 31.777344 4.285156 31.660156 4.222656 31.488281 4.078125 C 31.316406 3.933594 31.4375 4.011719 31.25 3.90625 C 31.066406 3.800781 31.03125 3.738281 30.703125 3.515625 C 30.507812 3.382812 30.339844 3.386719 30.230469 3.40625 C 29.484375 2.835938 28.847656 2.402344 28.390625 2.105469 C 28.476562 2.125 28.578125 2.148438 28.675781 2.171875 C 29.742188 2.507812 31.800781 3.257812 34.226562 4.648438 C 33.894531 4.8125 33.523438 4.964844 33.117188 5.105469 Z M 29.816406 3.488281 C 29.785156 3.484375 29.722656 3.449219 29.578125 3.355469 C 29.210938 3.121094 28.988281 3.03125 28.894531 3.070312 C 28.859375 3.085938 28.820312 3.105469 28.785156 3.125 C 28.582031 2.835938 28.394531 2.582031 28.234375 2.378906 C 28.640625 2.640625 29.175781 3.007812 29.816406 3.488281 Z M 27.25 3.558594 C 27.09375 3.585938 26.851562 3.769531 26.734375 3.828125 C 26.640625 3.875 26.503906 3.976562 26.257812 4.171875 C 26.796875 3.039062 27.183594 2.277344 27.332031 1.992188 C 27.316406 2.285156 27.289062 2.816406 27.25 3.558594 Z M 23.363281 5.550781 C 23.257812 5.527344 23.15625 5.503906 23.050781 5.480469 C 23.0625 5.46875 23.066406 5.46875 23.082031 5.457031 C 23.296875 5.28125 23.21875 5.40625 23.394531 5.265625 C 23.574219 5.125 23.296875 5.242188 23.574219 5.125 C 23.847656 5.007812 23.847656 5.007812 23.847656 5.007812 L 23.847656 4.789062 L 23.535156 4.808594 C 23.515625 4.847656 23.652344 4.574219 23.316406 4.808594 C 22.984375 5.046875 22.847656 5.007812 22.808594 5.066406 C 22.765625 5.125 22.628906 5.265625 22.628906 5.265625 C 22.628906 5.265625 22.414062 5.132812 22.433594 5.265625 C 22.4375 5.292969 22.4375 5.308594 22.441406 5.328125 C 22.164062 5.25 21.902344 5.167969 21.652344 5.082031 C 23.714844 3.761719 25.441406 2.847656 26.429688 2.359375 C 25.757812 3.007812 24.671875 4.101562 23.363281 5.550781 Z M 23.054688 5.824219 C 23.027344 5.851562 23.011719 5.882812 22.964844 5.949219 C 22.867188 6.085938 22.609375 6.046875 22.867188 6.085938 C 22.871094 6.085938 22.875 6.089844 22.882812 6.089844 C 22.738281 6.253906 22.59375 6.410156 22.449219 6.582031 C 22.425781 6.566406 22.414062 6.535156 22.414062 6.480469 C 22.414062 6.222656 22.296875 6.441406 22.414062 6.222656 C 22.53125 6.007812 22.628906 5.832031 22.550781 5.8125 C 22.472656 5.792969 22.238281 5.8125 22.238281 5.8125 C 22.0625 5.851562 21.707031 5.851562 21.492188 6.027344 C 21.273438 6.203125 21.234375 6.183594 21.097656 6.363281 C 20.960938 6.539062 20.882812 6.539062 20.84375 6.597656 C 20.804688 6.65625 20.570312 6.769531 20.683594 6.8125 C 20.804688 6.851562 20.84375 6.75 20.980469 6.8125 C 21.117188 6.871094 21.238281 7.007812 21.238281 7.007812 C 21.238281 7.007812 21.238281 7.089844 21.257812 7.167969 C 21.273438 7.246094 21.019531 7.441406 21.039062 7.5 C 21.058594 7.558594 20.980469 7.714844 21.039062 7.835938 C 21.097656 7.949219 21.015625 7.921875 21.183594 8.074219 C 21.070312 8.210938 20.957031 8.347656 20.84375 8.488281 C 20.796875 8.488281 20.78125 8.484375 20.746094 8.464844 C 20.6875 8.421875 20.6875 8.285156 20.6875 8.285156 C 20.6875 8.285156 20.863281 8.167969 20.863281 8.109375 C 20.863281 8.050781 20.84375 7.972656 20.84375 7.972656 L 20.707031 7.796875 C 20.707031 7.796875 20.488281 7.578125 20.460938 7.519531 C 20.429688 7.460938 20.273438 7.421875 20.273438 7.421875 C 20.273438 7.421875 20.234375 7.1875 20.234375 6.988281 C 20.234375 6.792969 20.039062 6.832031 20.039062 6.832031 C 20.039062 6.832031 19.882812 6.832031 19.742188 6.832031 C 19.605469 6.832031 19.527344 6.890625 19.429688 6.910156 C 19.335938 6.929688 19.222656 6.914062 18.964844 6.910156 C 19.769531 6.328125 20.554688 5.789062 21.296875 5.308594 C 21.828125 5.507812 22.414062 5.683594 23.054688 5.824219 Z M 18.71875 7.09375 C 18.722656 7.089844 18.726562 7.085938 18.730469 7.085938 C 18.726562 7.085938 18.722656 7.089844 18.71875 7.09375 Z M 27.023438 34.683594 C 26.96875 34.707031 26.945312 34.742188 26.914062 34.777344 C 26.90625 34.25 26.898438 33.722656 26.890625 33.191406 C 26.902344 33.226562 26.910156 33.25 26.910156 33.25 L 27.109375 33.347656 C 27.109375 33.347656 27.128906 34.644531 27.023438 34.683594 Z M 27.398438 27.695312 C 27.363281 27.695312 27.328125 27.695312 27.292969 27.695312 C 27.285156 27.6875 27.277344 27.679688 27.265625 27.671875 C 27.148438 27.574219 27.226562 27.476562 26.953125 27.496094 C 26.917969 27.5 26.902344 27.5 26.878906 27.503906 C 26.886719 25.933594 26.902344 24.367188 26.929688 22.832031 C 27 22.777344 27.070312 22.722656 27.167969 22.664062 C 27.324219 22.566406 27.167969 22.664062 27.375 22.429688 C 27.578125 22.191406 27.363281 22.230469 27.375 22.074219 C 27.382812 21.917969 27.480469 21.230469 27.597656 21.289062 C 27.71875 21.347656 27.597656 21.289062 27.855469 21.308594 C 28.109375 21.328125 27.855469 21.308594 27.953125 21.09375 C 28.050781 20.875 28.167969 20.855469 28.207031 20.757812 C 28.246094 20.660156 28.285156 20.5625 28.34375 20.386719 C 30.601562 20.351562 32.761719 20.175781 34.789062 19.882812 C 35.128906 22.0625 35.363281 24.492188 35.425781 27.171875 C 32.890625 27.511719 30.191406 27.695312 27.398438 27.695312 Z M 35.101562 19.839844 C 37.382812 19.492188 39.480469 19 41.316406 18.382812 C 42.152344 20.476562 42.847656 22.824219 43.285156 25.4375 C 41.050781 26.164062 38.5 26.742188 35.738281 27.128906 C 35.671875 24.449219 35.441406 22.019531 35.101562 19.839844 Z M 34.5625 4.476562 C 33.386719 3.792969 32.300781 3.265625 31.351562 2.851562 C 32.539062 3.171875 33.882812 3.5625 35.246094 4.015625 C 35.046875 4.175781 34.820312 4.332031 34.5625 4.476562 Z M 26.601562 1.925781 C 25.65625 2.382812 23.679688 3.398438 21.277344 4.949219 C 20.675781 4.714844 20.160156 4.449219 19.753906 4.160156 C 22.6875 2.894531 25.113281 2.214844 26.214844 1.9375 C 26.34375 1.933594 26.472656 1.929688 26.601562 1.925781 Z M 20.9375 5.171875 C 20.164062 5.679688 19.351562 6.238281 18.515625 6.851562 C 18.511719 6.820312 18.515625 6.789062 18.503906 6.753906 C 18.464844 6.636719 18.425781 6.5 18.367188 6.402344 C 18.308594 6.300781 18.289062 6.164062 18.25 6.027344 C 18.210938 5.890625 18.230469 5.890625 18.152344 5.753906 C 18.074219 5.613281 17.933594 5.476562 17.894531 5.359375 C 17.855469 5.242188 17.816406 5.242188 17.699219 5.261719 C 17.582031 5.28125 17.582031 5.242188 17.484375 5.28125 C 17.433594 5.300781 17.40625 5.285156 17.355469 5.273438 C 18.058594 4.917969 18.746094 4.597656 19.410156 4.304688 C 19.816406 4.625 20.328125 4.917969 20.9375 5.171875 Z M 15.597656 6.222656 C 15.539062 6.300781 15.5 6.300781 15.421875 6.34375 C 15.402344 6.351562 15.386719 6.347656 15.375 6.335938 C 15.453125 6.292969 15.53125 6.253906 15.605469 6.207031 C 15.605469 6.214844 15.601562 6.21875 15.597656 6.222656 Z M 13.734375 8.777344 C 13.792969 8.777344 13.65625 8.875 13.554688 8.921875 C 13.488281 8.953125 13.46875 9.054688 13.457031 9.144531 C 13.382812 9.089844 13.3125 9.039062 13.246094 8.984375 C 13.382812 8.917969 13.6875 8.777344 13.734375 8.777344 Z M 13.832031 9.25 C 13.890625 9.25 14.066406 9.148438 14.066406 9.148438 C 14.066406 9.148438 14.300781 9.050781 14.320312 8.933594 C 14.34375 8.816406 14.402344 9.484375 14.402344 9.484375 C 14.402344 9.484375 14.433594 9.65625 14.453125 9.804688 C 14.15625 9.632812 13.878906 9.457031 13.628906 9.277344 C 13.714844 9.265625 13.804688 9.25 13.832031 9.25 Z M 14.675781 10.414062 C 14.714844 10.53125 14.773438 10.703125 14.753906 10.78125 C 14.734375 10.859375 14.714844 10.957031 14.65625 11.035156 C 14.597656 11.113281 14.597656 11.585938 14.519531 11.664062 C 14.441406 11.742188 14.519531 11.863281 14.460938 12.097656 C 14.402344 12.332031 14.519531 12.394531 14.519531 12.394531 L 14.460938 12.6875 C 14.460938 12.6875 14.359375 13.019531 14.300781 13.140625 C 14.242188 13.257812 14.203125 13.394531 14.203125 13.394531 C 14.203125 13.394531 14.261719 13.789062 14.125 13.90625 C 13.988281 14.023438 14.125 13.90625 14.066406 13.964844 C 14.007812 14.023438 13.988281 14.199219 13.949219 14.335938 C 13.910156 14.476562 14.125 14.769531 14.144531 14.867188 C 14.164062 14.964844 14.164062 15.0625 14.144531 15.144531 C 14.125 15.222656 14.222656 15.4375 14.164062 15.574219 C 14.105469 15.710938 13.929688 16.398438 13.832031 16.597656 C 13.734375 16.792969 13.515625 17.085938 13.378906 17.285156 C 13.25 17.46875 13.21875 17.574219 13.035156 17.898438 C 11.683594 17.410156 10.492188 16.855469 9.496094 16.242188 C 10.839844 14.347656 12.328125 12.675781 13.792969 11.246094 C 14.085938 10.960938 14.382812 10.683594 14.675781 10.414062 Z M 13.167969 21.070312 C 13.242188 21.121094 13.261719 21.15625 13.398438 21.308594 C 13.574219 21.503906 13.574219 22.585938 13.613281 22.78125 C 13.652344 22.976562 13.910156 23.09375 13.910156 23.09375 C 13.910156 23.09375 13.929688 23.234375 13.910156 23.332031 C 13.890625 23.429688 13.910156 23.605469 13.832031 23.683594 C 13.757812 23.761719 13.851562 23.804688 13.851562 23.804688 C 13.851562 23.804688 13.8125 23.902344 13.851562 23.980469 C 13.890625 24.058594 13.851562 24.15625 13.851562 24.15625 C 13.851562 24.15625 14.046875 24.292969 14.164062 24.351562 C 14.285156 24.410156 14.378906 24.472656 14.359375 24.527344 C 14.339844 24.585938 14.398438 25.039062 14.417969 25.195312 C 14.4375 25.355469 14.5 25.355469 14.5 25.433594 C 14.5 25.511719 14.714844 25.824219 14.714844 25.882812 C 14.714844 25.945312 14.890625 26.042969 14.890625 26.042969 L 14.988281 26.042969 C 14.988281 26.042969 15.027344 25.785156 15.027344 25.726562 C 15.027344 25.667969 15.027344 25.550781 15.027344 25.550781 C 15.027344 25.550781 14.988281 25.453125 14.890625 25.375 C 14.792969 25.296875 14.753906 25.058594 14.753906 25.058594 C 14.753906 25.058594 14.753906 24.785156 14.714844 24.726562 C 14.675781 24.667969 14.578125 24.234375 14.578125 24.234375 L 14.515625 23.902344 C 14.515625 23.902344 14.417969 23.566406 14.398438 23.507812 C 14.378906 23.449219 14.378906 23.371094 14.339844 23.292969 C 14.300781 23.214844 14.320312 22.996094 14.320312 22.996094 L 14.164062 22.464844 C 14.164062 22.464844 14.4375 22.390625 14.597656 22.464844 C 14.757812 22.546875 14.773438 22.9375 14.617188 23.175781 C 14.457031 23.410156 15.421875 24.429688 15.421875 24.429688 C 15.421875 24.429688 15.441406 24.648438 15.421875 24.785156 C 15.402344 24.921875 15.617188 24.960938 15.617188 25.097656 C 15.617188 25.238281 16.285156 26.316406 16.382812 26.613281 C 16.390625 26.632812 16.390625 26.65625 16.394531 26.675781 C 14.632812 26.328125 12.984375 25.90625 11.480469 25.414062 C 11.949219 23.933594 12.519531 22.480469 13.167969 21.070312 Z M 16.417969 26.992188 C 16.40625 27.179688 16.371094 27.382812 16.382812 27.632812 C 16.402344 28.066406 16.835938 28.320312 16.835938 28.320312 L 17.308594 28.652344 L 17.699219 28.789062 C 17.699219 28.789062 17.804688 28.851562 17.96875 28.933594 C 17.652344 31.164062 17.472656 33.441406 17.492188 35.683594 C 14.792969 35.230469 12.3125 34.601562 10.15625 33.828125 C 10.152344 33.476562 10.152344 33.117188 10.164062 32.757812 C 10.238281 30.375 10.6875 28.007812 11.394531 25.703125 C 12.933594 26.210938 14.617188 26.640625 16.417969 26.992188 Z M 18.265625 29.089844 C 18.753906 29.335938 19.4375 29.65625 19.800781 29.714844 C 20.410156 29.8125 20.664062 29.578125 20.941406 29.714844 C 21.214844 29.851562 21.667969 30.34375 21.921875 30.617188 C 22.179688 30.894531 22.160156 30.714844 22.316406 30.8125 C 22.472656 30.910156 22.53125 30.832031 22.886719 30.933594 C 23.238281 31.03125 23.589844 31.71875 23.589844 31.875 C 23.589844 32.03125 23.710938 32.171875 23.847656 32.40625 C 23.984375 32.640625 24.082031 32.40625 24.300781 32.40625 C 24.515625 32.40625 24.652344 32.9375 24.75 32.914062 C 24.851562 32.898438 25.164062 32.898438 25.164062 32.898438 C 25.164062 32.898438 25.496094 33.09375 25.65625 33.25 L 25.910156 33.015625 L 26.183594 32.796875 L 26.421875 32.699219 C 26.421875 32.699219 26.492188 32.730469 26.574219 32.765625 C 26.582031 33.496094 26.59375 34.222656 26.605469 34.945312 C 26.476562 35.039062 26.332031 35.171875 26.246094 35.234375 C 26.105469 35.332031 26.007812 35.84375 25.851562 36.175781 C 25.808594 36.265625 25.78125 36.363281 25.761719 36.460938 C 22.984375 36.386719 20.304688 36.140625 17.804688 35.734375 C 17.78125 33.527344 17.957031 31.285156 18.265625 29.089844 Z M 25.71875 36.773438 C 25.710938 36.886719 25.710938 36.980469 25.710938 37 C 25.710938 37.058594 25.871094 37.21875 25.871094 37.375 C 25.871094 37.53125 25.871094 37.375 25.792969 37.394531 C 25.714844 37.414062 25.597656 37.707031 25.515625 37.804688 C 25.4375 37.90625 25.515625 38.257812 25.515625 38.375 C 25.515625 38.492188 25.675781 38.652344 25.851562 38.710938 C 25.980469 38.753906 26.4375 38.996094 26.71875 39.1875 C 26.773438 40.703125 26.84375 42.164062 26.9375 43.550781 C 24.085938 43.527344 21.316406 43.316406 18.722656 42.933594 C 18.128906 40.753906 17.851562 38.4375 17.804688 36.074219 C 20.285156 36.464844 22.945312 36.703125 25.71875 36.773438 Z M 27.042969 39.527344 C 27.15625 39.707031 27.289062 39.941406 27.363281 40.027344 C 27.457031 40.144531 27.441406 40.378906 27.375 40.5 C 27.304688 40.613281 27.558594 40.65625 27.617188 40.8125 C 27.675781 40.96875 27.773438 40.949219 27.816406 41.046875 C 27.855469 41.144531 28.011719 41.28125 28.109375 41.441406 C 28.207031 41.597656 28.699219 41.792969 28.953125 41.8125 C 29.210938 41.832031 29.957031 42.011719 30.035156 42.246094 C 30.0625 42.332031 30.03125 42.855469 29.972656 43.5 C 29.125 43.535156 28.265625 43.554688 27.398438 43.554688 C 27.351562 43.554688 27.300781 43.554688 27.25 43.554688 C 27.167969 42.273438 27.097656 40.921875 27.042969 39.527344 Z M 27.398438 43.871094 C 28.257812 43.871094 29.101562 43.847656 29.941406 43.8125 C 29.832031 44.851562 29.65625 46.042969 29.523438 46.210938 C 29.300781 46.492188 29.238281 46.421875 28.8125 48.25 C 28.4375 48.257812 28.058594 48.273438 27.6875 48.273438 C 27.519531 46.941406 27.382812 45.457031 27.273438 43.867188 C 27.316406 43.867188 27.359375 43.871094 27.398438 43.871094 Z M 32.390625 47.882812 C 32.429688 47.824219 32.746094 47.804688 32.824219 47.785156 C 32.824219 47.785156 32.828125 47.785156 32.828125 47.78125 C 32.816406 47.832031 32.800781 47.886719 32.789062 47.9375 C 32.644531 47.957031 32.5 47.96875 32.359375 47.984375 C 32.371094 47.933594 32.382812 47.894531 32.390625 47.882812 Z M 39.152344 35.367188 C 38.914062 35.296875 38.910156 35.3125 38.773438 35.292969 C 38.636719 35.273438 38.421875 35.253906 38.085938 35.117188 C 37.753906 34.976562 37.4375 35.15625 37.4375 35.15625 L 37.792969 34.839844 C 37.792969 34.839844 37.8125 34.585938 37.617188 34.230469 C 37.359375 33.03125 35.828125 33.132812 35.710938 33.132812 C 35.675781 33.132812 35.636719 33.132812 35.597656 33.128906 C 35.734375 31.125 35.78125 29.226562 35.746094 27.441406 C 38.519531 27.054688 41.085938 26.472656 43.335938 25.738281 C 43.742188 28.304688 43.898438 31.125 43.699219 34.1875 C 42.296875 34.640625 40.773438 35.039062 39.152344 35.367188 Z M 43.640625 25.640625 C 44.792969 25.253906 45.855469 24.824219 46.820312 24.359375 C 46.878906 24.796875 46.984375 25.199219 47.199219 25.453125 C 47.730469 26.082031 47.730469 26.042969 47.710938 26.535156 C 47.691406 27.023438 47.691406 27.316406 47.808594 27.398438 C 47.929688 27.476562 48.183594 27.945312 48.300781 28.105469 C 48.417969 28.261719 48.398438 28.4375 48.574219 28.671875 C 48.746094 28.898438 48.617188 29 49.265625 29.183594 C 49.339844 29.984375 49.394531 30.773438 49.429688 31.554688 C 47.972656 32.519531 46.144531 33.367188 44.023438 34.082031 C 44.210938 31.023438 44.050781 28.207031 43.640625 25.640625 Z M 49.222656 16.121094 C 49.222656 16.121094 48.769531 15.847656 48.691406 15.945312 C 48.613281 16.046875 48.183594 16.574219 48.183594 16.574219 C 48.183594 16.574219 48.007812 17.164062 47.964844 17.222656 C 47.929688 17.28125 47.101562 17.949219 47.0625 18.007812 C 47.027344 18.0625 46.960938 18.230469 46.933594 18.4375 C 46.785156 18.09375 46.632812 17.753906 46.476562 17.421875 C 46.5 17.421875 46.523438 17.417969 46.554688 17.421875 C 46.808594 17.441406 47.164062 17.402344 47.222656 17.453125 C 47.28125 17.5 47.457031 17.421875 47.632812 17.203125 C 47.8125 16.988281 47.734375 16.851562 47.632812 16.515625 C 47.535156 16.183594 47.339844 16.007812 47.300781 15.75 C 47.269531 15.5625 47.210938 15.480469 47.171875 15.234375 C 47.589844 14.847656 47.9375 14.445312 48.21875 14.03125 C 48.617188 14.710938 48.988281 15.410156 49.324219 16.128906 Z M 37.71875 4.570312 C 37.105469 4.328125 36.476562 4.101562 35.84375 3.882812 C 35.917969 3.800781 35.980469 3.71875 36.039062 3.632812 C 36.542969 3.832031 37.042969 4.046875 37.53125 4.277344 C 37.578125 4.371094 37.644531 4.476562 37.71875 4.570312 Z M 35.511719 3.773438 C 33.246094 3.015625 30.992188 2.414062 29.460938 2.039062 C 31.648438 2.253906 33.753906 2.761719 35.738281 3.515625 C 35.671875 3.601562 35.597656 3.6875 35.511719 3.773438 Z M 24.699219 2.027344 C 23.382812 2.417969 21.550781 3.035156 19.476562 3.9375 C 19.234375 3.734375 19.042969 3.519531 18.914062 3.292969 C 20.753906 2.648438 22.691406 2.21875 24.699219 2.027344 Z M 12.554688 8.125 C 12.542969 8.175781 12.527344 8.222656 12.519531 8.269531 C 12.5 8.246094 12.476562 8.21875 12.453125 8.191406 C 12.488281 8.167969 12.519531 8.148438 12.554688 8.125 Z M 12.429688 8.609375 C 12.410156 8.710938 12.449219 8.757812 12.417969 8.914062 C 12.378906 9.113281 12.417969 8.914062 12.300781 8.972656 C 12.269531 8.988281 12.257812 8.996094 12.25 9 C 12.25 9 12.246094 9 12.246094 9 C 12.242188 9.003906 12.238281 9.003906 12.21875 9.011719 C 12.140625 9.050781 12.101562 9.128906 12.023438 9.128906 C 11.945312 9.128906 11.75 9.25 11.75 9.25 C 11.75 9.25 11.570312 9.347656 11.453125 9.347656 C 11.335938 9.347656 11.355469 9.445312 11.21875 9.464844 C 11.082031 9.484375 11.042969 9.484375 10.925781 9.484375 C 10.804688 9.484375 10.925781 9.679688 10.925781 9.679688 C 10.925781 9.679688 11.335938 9.71875 11.492188 9.699219 C 11.652344 9.679688 11.710938 9.660156 11.828125 9.621094 C 11.945312 9.582031 12.179688 9.582031 12.28125 9.523438 C 12.378906 9.464844 12.613281 9.328125 12.613281 9.328125 C 12.613281 9.328125 12.90625 9.269531 12.984375 9.25 C 13.015625 9.242188 13.039062 9.21875 13.058594 9.195312 C 13.46875 9.53125 13.953125 9.851562 14.496094 10.152344 C 14.191406 10.433594 13.886719 10.71875 13.582031 11.011719 C 12.097656 12.460938 10.589844 14.152344 9.230469 16.074219 C 8.027344 15.296875 7.140625 14.433594 6.628906 13.511719 C 8.304688 11.492188 10.230469 9.789062 12.21875 8.363281 C 12.285156 8.445312 12.355469 8.527344 12.429688 8.609375 Z M 9.328125 16.484375 C 10.335938 17.101562 11.535156 17.667969 12.890625 18.160156 C 12.808594 18.328125 12.828125 18.34375 12.828125 18.34375 C 12.828125 18.34375 12.886719 19.128906 12.851562 19.445312 C 12.808594 19.757812 12.828125 20.484375 12.851562 20.71875 C 12.859375 20.820312 12.875 20.867188 12.902344 20.898438 C 12.246094 22.335938 11.660156 23.808594 11.183594 25.3125 C 9.136719 24.617188 7.371094 23.796875 5.976562 22.867188 C 6.835938 20.519531 8.003906 18.390625 9.328125 16.484375 Z M 10.171875 34.207031 C 12.328125 34.96875 14.796875 35.585938 17.492188 36.023438 C 17.535156 38.378906 17.808594 40.699219 18.390625 42.878906 C 15.96875 42.507812 13.710938 41.988281 11.699219 41.339844 C 10.765625 39.085938 10.257812 36.703125 10.171875 34.207031 Z M 18.820312 43.261719 C 21.394531 43.636719 24.136719 43.84375 26.960938 43.863281 C 27.070312 45.457031 27.203125 46.941406 27.371094 48.277344 C 25.019531 48.269531 22.792969 48.066406 20.761719 47.761719 C 19.917969 46.363281 19.28125 44.855469 18.820312 43.261719 Z M 28.738281 48.5625 C 28.738281 48.566406 28.738281 48.570312 28.738281 48.570312 C 28.246094 50.730469 28.738281 51.0625 28.738281 51.0625 C 28.738281 51.0625 29.050781 51.023438 29.109375 50.964844 C 29.171875 50.90625 29.542969 50.90625 29.640625 50.847656 C 29.738281 50.789062 29.738281 50.769531 29.800781 50.671875 C 29.855469 50.574219 29.9375 50.496094 29.9375 50.496094 C 29.9375 50.496094 30.171875 50.257812 30.25 50.140625 C 30.328125 50.023438 30.445312 49.945312 30.484375 49.828125 C 30.523438 49.710938 30.484375 49.6875 30.484375 49.6875 C 30.484375 49.6875 30.5625 49.472656 30.585938 49.394531 C 30.605469 49.316406 30.722656 49.355469 30.820312 49.316406 C 30.917969 49.277344 31.035156 49.21875 31.074219 49.140625 C 31.117188 49.0625 31.175781 48.867188 31.175781 48.746094 C 31.175781 48.628906 31.332031 48.570312 31.449219 48.511719 C 31.566406 48.453125 31.703125 48.609375 31.980469 48.589844 C 32.097656 48.582031 32.183594 48.457031 32.246094 48.3125 C 32.398438 48.296875 32.546875 48.28125 32.699219 48.261719 C 32.492188 49.042969 32.273438 49.832031 32.039062 50.632812 C 30.773438 50.894531 29.46875 51.058594 28.140625 51.121094 C 27.984375 50.359375 27.851562 49.511719 27.726562 48.585938 C 28.0625 48.585938 28.402344 48.574219 28.738281 48.5625 Z M 33.035156 48.226562 C 35.789062 47.871094 38.609375 47.238281 41.460938 46.363281 C 41.460938 46.363281 41.464844 46.363281 41.464844 46.363281 C 41.5 46.363281 41.53125 46.351562 41.558594 46.332031 C 41.601562 46.320312 41.640625 46.304688 41.683594 46.292969 C 38.960938 48.320312 35.808594 49.789062 32.386719 50.554688 C 32.613281 49.769531 32.832031 48.992188 33.035156 48.226562 Z M 33.125 47.894531 C 33.136719 47.835938 33.152344 47.777344 33.167969 47.71875 C 33.25 47.707031 33.335938 47.695312 33.394531 47.6875 C 33.550781 47.667969 33.609375 47.566406 33.824219 47.488281 C 34.039062 47.410156 33.984375 47.410156 34.257812 47.175781 C 34.535156 46.941406 33.589844 46.507812 33.824219 46.3125 C 34.0625 46.113281 33.863281 46.410156 34.101562 46.566406 C 34.335938 46.722656 34.257812 46.605469 34.453125 46.605469 C 34.652344 46.605469 34.667969 46.585938 34.90625 46.527344 C 35.140625 46.46875 35.140625 46.527344 35.339844 46.410156 C 35.535156 46.292969 35.339844 46.410156 35.613281 46.191406 C 35.886719 45.976562 35.730469 46.097656 35.964844 45.859375 C 36.203125 45.625 36.144531 45.683594 36.378906 45.347656 C 36.613281 45.015625 36.554688 45.074219 37.34375 44.601562 C 38.128906 44.132812 37.460938 44.289062 37.417969 43.972656 C 37.382812 43.660156 37.480469 43.757812 37.617188 43.484375 C 37.703125 43.304688 38.511719 42.976562 39.21875 42.695312 C 40.378906 42.449219 41.484375 42.167969 42.53125 41.851562 C 42.207031 43.21875 41.8125 44.625 41.34375 46.070312 C 38.558594 46.921875 35.8125 47.539062 33.125 47.894531 Z M 40.375 42.109375 C 40.359375 42.070312 40.367188 42.003906 40.464844 41.855469 C 40.757812 41.402344 40.9375 41.304688 40.992188 41.167969 C 41.054688 41.027344 41.269531 40.773438 41.328125 40.554688 C 41.386719 40.339844 41.40625 40.417969 41.386719 40.28125 C 41.367188 40.144531 41.25 39.277344 41.464844 38.867188 C 41.679688 38.457031 41.976562 38.316406 42.230469 37.925781 C 42.484375 37.53125 42.484375 37.609375 42.683594 37.394531 C 42.878906 37.179688 42.976562 36.921875 43.015625 36.6875 C 43.054688 36.449219 43.015625 36.234375 42.859375 36.078125 C 42.703125 35.917969 42.605469 36.078125 42.390625 35.882812 C 42.171875 35.683594 42.074219 35.667969 41.5625 35.566406 C 41.054688 35.46875 41.230469 35.683594 40.679688 35.644531 C 40.128906 35.605469 40.425781 35.722656 40.050781 35.683594 C 39.710938 35.648438 39.988281 35.675781 39.933594 35.519531 C 41.253906 35.230469 42.503906 34.894531 43.675781 34.519531 C 43.515625 36.71875 43.175781 39.042969 42.609375 41.5 C 41.894531 41.71875 41.148438 41.921875 40.375 42.109375 Z M 49.75 31.707031 C 50.339844 31.308594 50.867188 30.890625 51.324219 30.453125 C 51.007812 32.417969 50.460938 34.304688 49.707031 36.085938 C 49.792969 34.5625 49.800781 33.105469 49.75 31.707031 Z M 49.734375 31.34375 C 49.707031 30.644531 49.660156 29.960938 49.601562 29.296875 C 49.992188 29.484375 49.796875 29.683594 50.265625 29.398438 C 50.8125 29.066406 51.128906 28.65625 51.40625 28.300781 C 51.472656 28.207031 51.535156 28.121094 51.589844 28.039062 C 51.550781 28.675781 51.484375 29.308594 51.398438 29.933594 C 50.929688 30.425781 50.371094 30.894531 49.734375 31.34375 Z M 11.613281 7.355469 C 11.714844 7.613281 11.855469 7.867188 12.03125 8.113281 C 10.058594 9.527344 8.144531 11.210938 6.476562 13.203125 C 6.457031 13.164062 6.4375 13.121094 6.421875 13.082031 C 7.84375 10.910156 9.597656 8.976562 11.613281 7.355469 Z M 3.125 20.636719 C 3.707031 21.46875 4.542969 22.253906 5.597656 22.980469 C 4.761719 25.332031 4.242188 27.898438 4.195312 30.664062 C 3.492188 30.082031 2.925781 29.464844 2.519531 28.824219 C 2.445312 28.070312 2.40625 27.304688 2.40625 26.535156 C 2.40625 24.5 2.660156 22.527344 3.125 20.636719 Z M 5.773438 38.9375 C 7.292969 39.960938 9.222656 40.859375 11.464844 41.589844 C 12.160156 43.234375 13.074219 44.8125 14.210938 46.316406 C 13.113281 45.996094 12.179688 45.679688 11.4375 45.410156 C 11.382812 45.390625 11.332031 45.414062 11.289062 45.445312 C 9.09375 43.617188 7.226562 41.414062 5.773438 38.9375 Z M 23.183594 50.847656 C 22.335938 50.003906 21.601562 49.089844 20.976562 48.109375 C 22.960938 48.398438 25.128906 48.585938 27.410156 48.589844 C 27.53125 49.515625 27.667969 50.367188 27.820312 51.128906 C 27.554688 51.136719 27.289062 51.148438 27.023438 51.148438 C 25.71875 51.148438 24.433594 51.042969 23.183594 50.847656 Z M 42.386719 45.746094 C 42.160156 45.820312 41.933594 45.886719 41.707031 45.957031 C 42.167969 44.511719 42.558594 43.109375 42.878906 41.742188 C 44.730469 41.164062 46.398438 40.476562 47.8125 39.691406 C 46.34375 41.996094 44.511719 44.042969 42.386719 45.746094 Z M 42.386719 45.746094 " fill-opacity="1" fill-rule="nonzero"/></g><path fill="#ffffff" d="M 28.777344 28.65625 C 28.757812 28.730469 28.464844 28.714844 28.386719 28.851562 C 28.304688 28.988281 28.167969 29.105469 28.386719 29.125 C 28.601562 29.144531 28.71875 29.105469 28.953125 29.125 C 29.191406 29.144531 28.953125 29.175781 29.269531 29.132812 C 29.582031 29.085938 29.445312 29.183594 29.757812 29.046875 C 30.074219 28.910156 30.269531 28.890625 30.445312 28.890625 C 30.621094 28.890625 30.621094 28.722656 30.703125 28.777344 C 30.78125 28.832031 30.839844 28.976562 30.839844 28.777344 C 30.839844 28.574219 30.820312 28.5 30.488281 28.5 C 30.152344 28.496094 30.054688 28.5 29.9375 28.5 C 29.816406 28.496094 29.554688 28.5 29.554688 28.5 L 29.269531 28.398438 C 28.875 28.417969 28.777344 28.5 28.777344 28.5 C 28.777344 28.5 28.953125 28.636719 29.023438 28.65625 C 29.09375 28.671875 28.796875 28.574219 28.777344 28.65625 Z M 28.777344 28.65625 " fill-opacity="1" fill-rule="nonzero"/><path fill="#ffffff" d="M 31.542969 29.074219 C 31.722656 29.066406 31.625 29.105469 31.722656 29.066406 C 31.820312 29.027344 31.703125 29.125 31.820312 29.027344 C 31.941406 28.929688 31.941406 28.929688 31.941406 28.929688 C 31.941406 28.929688 31.980469 28.851562 32.039062 28.851562 C 32.097656 28.851562 32.097656 28.703125 32.039062 28.773438 C 31.980469 28.851562 31.683594 28.773438 31.683594 28.773438 C 31.546875 28.789062 31.429688 28.8125 31.410156 28.851562 C 31.390625 28.890625 31.410156 28.890625 31.410156 28.96875 C 31.410156 29.046875 31.363281 29.082031 31.542969 29.074219 Z M 31.542969 29.074219 " fill-opacity="1" fill-rule="nonzero"/><path fill="#ffffff" d="M 37.835938 8.058594 C 37.617188 8.03125 37.601562 7.992188 37.496094 7.898438 C 37.390625 7.808594 37.269531 7.78125 37.226562 7.78125 C 37.183594 7.78125 37.117188 7.78125 37.117188 7.78125 C 37.027344 7.914062 36.984375 8.003906 36.972656 8.042969 C 36.960938 8.082031 36.804688 8.1875 36.804688 8.1875 C 36.804688 8.1875 36.789062 8.175781 36.699219 8.1875 C 36.609375 8.199219 36.410156 7.953125 36.359375 8.1875 C 36.304688 8.421875 36.226562 8.398438 36.359375 8.554688 C 36.488281 8.710938 36.804688 8.882812 36.949219 8.972656 C 37.09375 9.066406 37.050781 9.15625 37.382812 9.195312 C 37.707031 9.234375 37.578125 9.394531 37.835938 9.117188 C 38.101562 8.84375 38.0625 9.050781 38.113281 8.710938 C 38.167969 8.371094 38.203125 8.414062 38.113281 8.265625 C 38.023438 8.125 38.0625 8.082031 37.835938 8.058594 Z M 37.835938 8.058594 " fill-opacity="1" fill-rule="nonzero"/><path fill="#ffffff" d="M 23.800781 7.523438 C 23.792969 7.53125 23.792969 7.535156 23.800781 7.523438 Z M 23.800781 7.523438 " fill-opacity="1" fill-rule="nonzero"/><path fill="#ffffff" d="M 23.808594 7.460938 C 23.808594 7.492188 23.804688 7.511719 23.800781 7.523438 C 23.808594 7.507812 23.835938 7.480469 23.925781 7.460938 C 24.121094 7.421875 24.023438 7.5 24.121094 7.421875 C 24.21875 7.34375 24.0625 7.421875 24.21875 7.34375 C 24.378906 7.265625 24.339844 7.421875 24.378906 7.265625 C 24.417969 7.109375 24.320312 7.246094 24.378906 7.039062 C 24.4375 6.832031 24.359375 6.972656 24.4375 6.832031 C 24.515625 6.695312 24.457031 6.8125 24.515625 6.695312 C 24.574219 6.578125 24.363281 6.597656 24.363281 6.597656 C 24.363281 6.597656 24.320312 6.617188 24.21875 6.714844 C 24.121094 6.8125 23.925781 6.832031 23.847656 6.890625 C 23.769531 6.949219 23.847656 6.753906 23.769531 6.949219 C 23.691406 7.148438 23.730469 7.203125 23.769531 7.332031 C 23.808594 7.460938 23.808594 7.324219 23.808594 7.460938 Z M 23.808594 7.460938 " fill-opacity="1" fill-rule="nonzero"/><path fill="#ffffff" d="M 26.046875 10.484375 C 25.949219 10.367188 25.988281 10.269531 25.8125 10.269531 C 25.636719 10.269531 25.636719 10.269531 25.636719 10.269531 C 25.636719 10.269531 25.4375 10.386719 25.417969 10.503906 C 25.398438 10.625 25.273438 10.566406 25.296875 10.683594 C 25.320312 10.800781 25.136719 10.703125 25.296875 10.898438 C 25.457031 11.09375 25.554688 11.054688 25.636719 11.132812 C 25.714844 11.210938 25.558594 11.328125 25.636719 11.371094 C 25.714844 11.410156 25.515625 11.507812 25.8125 11.371094 C 26.105469 11.230469 25.890625 11.425781 26.105469 11.230469 C 26.324219 11.035156 26.304688 11.210938 26.324219 11.035156 C 26.34375 10.859375 26.460938 10.898438 26.324219 10.761719 C 26.183594 10.625 26.144531 10.605469 26.046875 10.484375 Z M 26.046875 10.484375 " fill-opacity="1" fill-rule="nonzero"/></svg>