<svg xmlns="http://www.w3.org/2000/svg" xmlns:xlink="http://www.w3.org/1999/xlink" width="72" zoomAndPan="magnify" viewBox="0 0 54 54" height="72" preserveAspectRatio="xMidYMid meet" version="1.0"><defs><clipPath id="61e6314919"><path d="M 0.492188 0 L 53.507812 0 L 53.507812 53.019531 L 0.492188 53.019531 Z M 0.492188 0 " clip-rule="nonzero"/></clipPath><clipPath id="20f84d187c"><path d="M 2.109375 1.621094 L 25 1.621094 L 25 24 L 2.109375 24 Z M 2.109375 1.621094 " clip-rule="nonzero"/></clipPath><clipPath id="5090644e7b"><path d="M 29 1.621094 L 52 1.621094 L 52 24 L 29 24 Z M 29 1.621094 " clip-rule="nonzero"/></clipPath><clipPath id="0495b52a8b"><path d="M 2.109375 29 L 25 29 L 25 51.691406 L 2.109375 51.691406 Z M 2.109375 29 " clip-rule="nonzero"/></clipPath><clipPath id="decb6e29ae"><path d="M 29 29 L 52 29 L 52 51.691406 L 29 51.691406 Z M 29 29 " clip-rule="nonzero"/></clipPath></defs><g clip-path="url(#61e6314919)"><path fill="#ffffff" d="M 0.492188 0 L 53.507812 0 L 53.507812 53.019531 L 0.492188 53.019531 Z M 0.492188 0 " fill-opacity="1" fill-rule="nonzero"/><path fill="#000000" d="M 0.492188 0 L 53.507812 0 L 53.507812 53.019531 L 0.492188 53.019531 Z M 0.492188 0 " fill-opacity="1" fill-rule="nonzero"/></g><path fill="#ffffff" d="M 19.40625 6.292969 C 19.1875 6.078125 17.476562 7.4375 15.582031 9.332031 C 15.386719 9.523438 15.199219 9.714844 15.019531 9.90625 C 15.3125 10.117188 15.574219 10.378906 15.792969 10.679688 C 15.980469 10.5 16.171875 10.3125 16.367188 10.117188 C 18.261719 8.222656 19.621094 6.511719 19.40625 6.292969 Z M 19.40625 6.292969 " fill-opacity="1" fill-rule="nonzero"/><path fill="#ffffff" d="M 6.785156 18.914062 C 7 19.128906 8.714844 17.769531 10.609375 15.875 C 10.804688 15.679688 10.992188 15.488281 11.171875 15.300781 C 10.871094 15.082031 10.609375 14.820312 10.394531 14.527344 C 10.207031 14.710938 10.015625 14.894531 9.824219 15.089844 C 7.925781 16.984375 6.566406 18.695312 6.785156 18.914062 Z M 6.785156 18.914062 " fill-opacity="1" fill-rule="nonzero"/><path fill="#ffffff" d="M 47.210938 18.914062 C 47.429688 18.695312 46.066406 16.984375 44.171875 15.089844 C 43.976562 14.894531 43.785156 14.707031 43.597656 14.523438 C 43.382812 14.816406 43.125 15.082031 42.824219 15.300781 C 43.003906 15.488281 43.191406 15.679688 43.386719 15.875 C 45.28125 17.769531 46.992188 19.128906 47.210938 18.914062 Z M 47.210938 18.914062 " fill-opacity="1" fill-rule="nonzero"/><path fill="#ffffff" d="M 34.589844 6.292969 C 34.375 6.511719 35.734375 8.222656 37.628906 10.117188 C 37.824219 10.3125 38.015625 10.5 38.203125 10.683594 C 38.421875 10.378906 38.683594 10.117188 38.976562 9.90625 C 38.796875 9.714844 38.609375 9.523438 38.414062 9.332031 C 36.519531 7.4375 34.808594 6.078125 34.589844 6.292969 Z M 34.589844 6.292969 " fill-opacity="1" fill-rule="nonzero"/><path fill="#ffffff" d="M 19.40625 46.71875 C 19.621094 46.503906 18.261719 44.789062 16.367188 42.894531 C 16.171875 42.703125 15.980469 42.515625 15.792969 42.332031 C 15.574219 42.636719 15.3125 42.894531 15.019531 43.109375 C 15.199219 43.296875 15.386719 43.488281 15.582031 43.683594 C 17.476562 45.578125 19.1875 46.9375 19.40625 46.71875 Z M 19.40625 46.71875 " fill-opacity="1" fill-rule="nonzero"/><path fill="#ffffff" d="M 6.785156 34.101562 C 6.566406 34.316406 7.925781 36.03125 9.824219 37.925781 C 10.015625 38.117188 10.207031 38.304688 10.394531 38.484375 C 10.609375 38.191406 10.871094 37.929688 11.171875 37.714844 C 10.992188 37.523438 10.804688 37.332031 10.609375 37.136719 C 8.714844 35.242188 7 33.882812 6.785156 34.101562 Z M 6.785156 34.101562 " fill-opacity="1" fill-rule="nonzero"/><path fill="#ffffff" d="M 47.210938 34.101562 C 46.992188 33.882812 45.28125 35.242188 43.386719 37.136719 C 43.191406 37.332031 43.003906 37.523438 42.824219 37.714844 C 43.125 37.929688 43.382812 38.195312 43.597656 38.488281 C 43.785156 38.308594 43.976562 38.121094 44.171875 37.925781 C 46.066406 36.03125 47.429688 34.316406 47.210938 34.101562 Z M 47.210938 34.101562 " fill-opacity="1" fill-rule="nonzero"/><path fill="#ffffff" d="M 34.589844 46.71875 C 34.808594 46.9375 36.519531 45.578125 38.414062 43.683594 C 38.609375 43.488281 38.796875 43.296875 38.976562 43.109375 C 38.683594 42.894531 38.421875 42.632812 38.203125 42.332031 C 38.015625 42.515625 37.824219 42.699219 37.628906 42.894531 C 35.734375 44.789062 34.375 46.503906 34.589844 46.71875 Z M 34.589844 46.71875 " fill-opacity="1" fill-rule="nonzero"/><g clip-path="url(#20f84d187c)"><path fill="#ffffff" d="M 13.09375 22.476562 C 7.652344 22.476562 3.222656 18.046875 3.222656 12.605469 C 3.222656 7.160156 7.652344 2.730469 13.09375 2.730469 C 18.539062 2.730469 22.964844 7.160156 22.964844 12.605469 C 22.964844 14.171875 22.597656 15.652344 21.945312 16.972656 L 22.832031 17.671875 C 23.625 16.15625 24.078125 14.429688 24.078125 12.605469 C 24.078125 6.546875 19.152344 1.621094 13.09375 1.621094 C 7.039062 1.621094 2.109375 6.546875 2.109375 12.605469 C 2.109375 18.660156 7.039062 23.585938 13.09375 23.585938 C 14.921875 23.585938 16.644531 23.136719 18.164062 22.34375 L 17.460938 21.453125 C 16.144531 22.105469 14.660156 22.476562 13.09375 22.476562 Z M 13.09375 22.476562 " fill-opacity="1" fill-rule="nonzero"/></g><g clip-path="url(#5090644e7b)"><path fill="#ffffff" d="M 31.03125 12.605469 C 31.03125 7.160156 35.457031 2.730469 40.902344 2.730469 C 46.34375 2.730469 50.773438 7.160156 50.773438 12.605469 C 50.773438 18.046875 46.34375 22.476562 40.902344 22.476562 C 39.332031 22.476562 37.851562 22.105469 36.535156 21.453125 L 35.832031 22.34375 C 37.347656 23.136719 39.074219 23.585938 40.902344 23.585938 C 46.957031 23.585938 51.882812 18.660156 51.882812 12.605469 C 51.882812 6.546875 46.957031 1.621094 40.902344 1.621094 C 34.84375 1.621094 29.917969 6.546875 29.917969 12.605469 C 29.917969 14.429688 30.367188 16.15625 31.160156 17.671875 L 32.050781 16.972656 C 31.398438 15.652344 31.03125 14.171875 31.03125 12.605469 Z M 31.03125 12.605469 " fill-opacity="1" fill-rule="nonzero"/></g><g clip-path="url(#0495b52a8b)"><path fill="#ffffff" d="M 22.964844 40.410156 C 22.964844 45.851562 18.539062 50.28125 13.09375 50.28125 C 7.652344 50.28125 3.222656 45.851562 3.222656 40.410156 C 3.222656 34.96875 7.652344 30.539062 13.09375 30.539062 C 14.660156 30.539062 16.144531 30.90625 17.460938 31.5625 L 18.164062 30.671875 C 16.644531 29.878906 14.921875 29.425781 13.09375 29.425781 C 7.039062 29.425781 2.109375 34.355469 2.109375 40.410156 C 2.109375 46.464844 7.039062 51.394531 13.09375 51.394531 C 19.152344 51.394531 24.078125 46.464844 24.078125 40.410156 C 24.078125 38.582031 23.625 36.859375 22.832031 35.339844 L 21.945312 36.042969 C 22.597656 37.359375 22.964844 38.84375 22.964844 40.410156 Z M 22.964844 40.410156 " fill-opacity="1" fill-rule="nonzero"/></g><g clip-path="url(#decb6e29ae)"><path fill="#ffffff" d="M 51.882812 40.410156 C 51.882812 34.355469 46.957031 29.425781 40.902344 29.425781 C 39.074219 29.425781 37.347656 29.878906 35.832031 30.671875 L 36.53125 31.5625 C 37.851562 30.90625 39.332031 30.539062 40.902344 30.539062 C 46.34375 30.539062 50.773438 34.96875 50.773438 40.410156 C 50.773438 45.851562 46.34375 50.28125 40.902344 50.28125 C 35.457031 50.28125 31.03125 45.851562 31.03125 40.410156 C 31.03125 38.84375 31.398438 37.359375 32.050781 36.042969 L 31.160156 35.339844 C 30.367188 36.859375 29.917969 38.582031 29.917969 40.410156 C 29.917969 46.464844 34.84375 51.394531 40.902344 51.394531 C 46.957031 51.394531 51.882812 46.464844 51.882812 40.410156 Z M 51.882812 40.410156 " fill-opacity="1" fill-rule="nonzero"/></g><path fill="#ffffff" d="M 37.292969 38.757812 C 38.015625 39.328125 38.496094 40.128906 38.765625 41.007812 C 38.804688 41.125 38.851562 41.246094 38.910156 41.367188 C 39.273438 42.085938 39.988281 42.59375 40.792969 42.632812 C 42.085938 42.695312 43.152344 41.648438 43.125 40.363281 C 43.109375 39.554688 42.613281 38.828125 41.902344 38.445312 C 41.773438 38.378906 41.648438 38.324219 41.527344 38.285156 C 40.617188 37.988281 39.789062 37.484375 39.195312 36.734375 L 33.675781 29.734375 C 32.183594 27.839844 32.183594 25.171875 33.675781 23.28125 L 39.195312 16.28125 C 39.789062 15.527344 40.617188 15.023438 41.527344 14.730469 C 41.648438 14.6875 41.773438 14.636719 41.902344 14.566406 C 42.613281 14.183594 43.109375 13.460938 43.125 12.652344 C 43.152344 11.363281 42.085938 10.320312 40.792969 10.382812 C 39.988281 10.421875 39.273438 10.929688 38.910156 11.648438 C 38.851562 11.769531 38.804688 11.886719 38.765625 12.003906 C 38.496094 12.886719 38.015625 13.6875 37.292969 14.257812 L 30.226562 19.828125 C 28.332031 21.320312 25.664062 21.320312 23.769531 19.828125 L 16.710938 14.261719 C 15.984375 13.691406 15.5 12.886719 15.226562 12 C 15.191406 11.886719 15.144531 11.765625 15.085938 11.648438 C 14.71875 10.925781 14 10.414062 13.1875 10.382812 C 11.882812 10.328125 10.8125 11.402344 10.871094 12.710938 C 10.910156 13.519531 11.421875 14.238281 12.148438 14.597656 C 12.265625 14.65625 12.382812 14.703125 12.5 14.738281 C 13.375 15.007812 14.171875 15.484375 14.742188 16.203125 L 20.320312 23.28125 C 21.8125 25.171875 21.8125 27.839844 20.320312 29.734375 L 14.742188 36.808594 C 14.171875 37.527344 13.375 38.007812 12.5 38.273438 C 12.382812 38.308594 12.265625 38.355469 12.148438 38.414062 C 11.421875 38.777344 10.910156 39.496094 10.871094 40.304688 C 10.8125 41.613281 11.882812 42.6875 13.1875 42.632812 C 14 42.597656 14.71875 42.089844 15.085938 41.367188 C 15.144531 41.246094 15.191406 41.128906 15.226562 41.011719 C 15.5 40.128906 15.984375 39.324219 16.710938 38.75 L 23.769531 33.1875 C 25.664062 31.695312 28.332031 31.695312 30.226562 33.1875 Z M 26.996094 29.285156 C 25.464844 29.285156 24.21875 28.042969 24.21875 26.507812 C 24.21875 24.972656 25.464844 23.730469 26.996094 23.730469 C 28.53125 23.730469 29.777344 24.972656 29.777344 26.507812 C 29.777344 28.042969 28.53125 29.285156 26.996094 29.285156 Z M 26.996094 29.285156 " fill-opacity="1" fill-rule="nonzero"/></svg>