<svg xmlns="http://www.w3.org/2000/svg" xml:space="preserve" viewBox="0 0 72 72">
    <path d="M14.4 65.5v-55c0-1.6 1.9-2.9 4.2-2.9h34.7c2.4 0 4.2 1.3 4.2 2.9v55c0 1.6-1.9 2.9-4.2 2.9H18.7c-2.4 0-4.3-1.3-4.3-2.9" style="fill:none"/>
    <path d="M171.9-208c0 .2-.2.4-.4.4H155c-.2 0-.4-.2-.4-.4v-4.2c0-.2.2-.4.4-.4h16.5c.2 0 .4.2.4.4z" style="fill:#fff;stroke:#fff;stroke-width:6;stroke-miterlimit:10" transform="translate(-127.22 216.2)"/>
    <path d="M51.6 9.4h-32c-2.2 0-3.9 1.3-3.9 2.8v52.9c0 1.6 1.7 2.8 3.9 2.8h31.9c2.2 0 3.9-1.3 3.9-2.8V12.2c.1-1.6-1.7-2.8-3.8-2.8zM20.6 24h30.1v8.2H20.6zm30 39.8h-30v-8.2h30.1v8.2zm0-10.5h-30v-8.2h30.1v8.2zm0-10.5h-30v-8.2h30.1v8.2zm0-21.1h-30v-8.2h30.1v8.2z" style="fill:#fff;stroke:#fff;stroke-width:2"/>
</svg>
