<svg xmlns="http://www.w3.org/2000/svg" xml:space="preserve" id="Layer_1" x="0" y="0" version="1.1" viewBox="264 336 72 72">
    <style>
        .st0{fill:#fff}
    </style>
    <circle cx="300" cy="397.3" r="7.1" class="st0"/>
    <path d="M300.7 388.2h-1c-2.4 0-4.4-2.2-4.4-5l-3.2-38.6c0-2.7 2-5 4.4-5h7.3c2.4 0 4.4 2.2 4.4 5l-3.1 38.6c-.1 2.8-2 5-4.4 5M290 350.4c-8.9 1.9-17.1 6.3-23.7 12.9l5.7 5.6c5.1-5.1 11.3-8.6 18-10.4zM310 350.4v8.2c6.8 1.8 13 5.3 18 10.4l5.7-5.6c-6.6-6.7-14.8-11.1-23.7-13M289 370.4c-3.5 1.4-6.7 3.5-9.4 6.3l5.6 5.7c1.2-1.1 2.4-2.1 3.8-3zM309 369.7v8.6c2.1 1 4.1 2.3 5.8 4l5.6-5.7c-3.2-3.1-7.1-5.5-11.4-6.9" class="st0"/>
</svg>
