<?xml version="1.0" encoding="utf-8"?>
<!-- Generator: Adobe Illustrator 19.1.0, SVG Export Plug-In . SVG Version: 6.00 Build 0)  -->
<svg version="1.1" id="Layer_1" xmlns="http://www.w3.org/2000/svg" xmlns:xlink="http://www.w3.org/1999/xlink" x="0px" y="0px"
	 viewBox="220 292 72 72" style="enable-background:new 220 292 72 72;" xml:space="preserve">
<style type="text/css">
	.st0{fill:#FFFFFF;}
</style>
<path class="st0" d="M234.4,310.4l-10-10c-1.1-1.1-1.1-2.9,0-3.9c1.1-1.1,2.9-1.1,3.9,0l10,10c7.7-5.7,18.6-5.1,25.5,1.8l-27.6,27.6
	C229.3,328.9,228.7,318,234.4,310.4z M275.7,320.1c7,7,7.6,17.9,1.8,25.5l10,10c1.1,1.1,1.1,2.9,0,3.9c-1.1,1.1-2.9,1.1-3.9,0
	l-10-10c-7.7,5.7-18.6,5.1-25.5-1.8l5.9-5.9l-4.9-4.9c-1.6-1.6-1.6-4.3,0-5.9c1.6-1.6,4.3-1.6,5.9,0l4.9,4.9l3.9-3.9L259,327
	c-1.6-1.6-1.6-4.3,0-5.9c1.6-1.6,4.3-1.6,5.9,0l4.9,4.9L275.7,320.1z"/>
</svg>
