<?xml version="1.0" encoding="UTF-8"?>
<svg id="Capa_2" data-name="Capa 2" xmlns="http://www.w3.org/2000/svg" viewBox="0 0 72 72">
  <defs>
    <style>
      .cls-1 {
        fill: #fff;
      }
    </style>
  </defs>
  <g id="UI_HARRIS" data-name="UI HARRIS">
    <g>
      <circle class="cls-1" cx="36" cy="36" r="6.16"/>
      <path class="cls-1" d="m62.86,1.31c-2.72,2.82-12.06,12.64-14.44,15.14-2.38,2.5-4.56,4.98-5.85,6.7-.96,1.27-2.69,4.07-3.53,5.44.95.39,1.85.97,2.62,1.75.53.53.98,1.12,1.33,1.75.93-.58,2.43-1.31,4.35-1.49,3.31-.32,4.44-2.71,4.44-2.71l2.6-5.11c2.26-4.45,9.39-15.25,11.21-17.99.29-.43.56-.88.83-1.33l.39-.66c.22-.38.15-.87-.18-1.16l-1.56-1.4c-.38-.34-.97-.31-1.31.07l-.9,1Z"/>
      <path class="cls-1" d="m9.14,70.69c2.72-2.82,12.06-12.64,14.44-15.14,2.38-2.5,4.56-4.98,5.85-6.7.96-1.27,2.69-4.07,3.53-5.44-.95-.39-1.85-.97-2.62-1.75-.53-.53-.98-1.12-1.33-1.75-.93.58-2.43,1.31-4.35,1.49-3.31.32-4.44,2.71-4.44,2.71l-2.6,5.11c-2.26,4.45-9.39,15.25-11.21,17.99-.29.43-.56.88-.83,1.33l-.39.66c-.22.38-.15.87.18,1.16l1.56,1.4c.38.34.97.31,1.31-.07l.9-1Z"/>
      <g>
        <path class="cls-1" d="m64.27,13.71c-1.79,2.78-3.48,5.47-4.76,7.63,2.72,4.35,4.18,9.39,4.18,14.65,0,7.4-2.88,14.35-8.11,19.59-5.23,5.23-12.19,8.11-19.59,8.11-4.32,0-8.49-.98-12.26-2.85-.3.32-.61.64-.94.99-1.54,1.61-3.3,3.47-4.99,5.23,5.34,3.13,11.55,4.93,18.18,4.93,19.88,0,36-16.12,36-36,0-8.42-2.89-16.16-7.73-22.29Z"/>
        <path class="cls-1" d="m12.49,50.65c-2.72-4.35-4.18-9.39-4.18-14.65,0-7.4,2.88-14.35,8.11-19.59,5.23-5.23,12.19-8.11,19.59-8.11,4.32,0,8.49.98,12.26,2.85.3-.32.62-.65.94-.99,1.53-1.61,3.3-3.46,4.98-5.23C48.85,1.8,42.63,0,36,0,16.12,0,0,16.12,0,36c0,8.42,2.89,16.16,7.73,22.29,1.79-2.78,3.48-5.47,4.76-7.63Z"/>
      </g>
    </g>
  </g>
</svg>