<svg xmlns="http://www.w3.org/2000/svg" xml:space="preserve" id="Capa_1" x="0" y="0" version="1.1" viewBox="160 862 72 72">
    <style>
        .st0{fill:#fff}
    </style>
    <path d="M164.7 888.4c.4 1.3.9 2.5 1.6 3.7l-1.9 2.4c-.6.8-.5 1.9.1 2.6l3.3 3.3c.7.7 1.8.8 2.6.1l2.4-1.9c1.2.7 2.5 1.3 3.9 1.6l.4 3.1c.1 1 1 1.7 1.9 1.7h4.6c1 0 1.8-.7 1.9-1.7l.3-2.9c1.5-.4 2.8-.9 4.1-1.7l2.3 1.8c.8.6 1.9.5 2.6-.1l3.3-3.3c.7-.7.8-1.8.1-2.6l-1.8-2.3c.7-1.3 1.3-2.6 1.7-4.1l2.7-.3c1-.1 1.7-1 1.7-1.9v-4.6c0-1-.7-1.8-1.7-1.9l-2.7-.3c-.4-1.4-.9-2.8-1.6-4l1.7-2.1c.6-.8.5-1.9-.1-2.6l-3.3-3.3c-.7-.7-1.8-.8-2.6-.1l-2 1.6q-1.95-1.2-4.2-1.8l-.3-2.6c-.1-1-1-1.7-1.9-1.7h-4.6c-1 0-1.8.7-1.9 1.7l-.3 2.6c-1.5.4-3 1-4.3 1.8l-2.1-1.7c-.8-.6-1.9-.5-2.6.1l-3.3 3.3c-.7.7-.8 1.8-.1 2.6l1.8 2.2c-.7 1.3-1.3 2.6-1.6 4.1l-2.8.3c-1 .1-1.7 1-1.7 1.9v4.6c0 1 .7 1.8 1.7 1.9zm16.7-12.5c4.2 0 7.6 3.4 7.6 7.6s-3.4 7.6-7.6 7.6-7.6-3.4-7.6-7.6 3.4-7.6 7.6-7.6" class="st0"/>
    <path d="m227 889.5-2.4-2.1c-.7-.6-1.9-.6-2.6.1l-1.3 1.3q-1.65-.75-3.6-1.2l-.4-1.9c-.2-1-1.1-1.6-2.1-1.5l-3.2.3c-1 .1-1.7.9-1.8 1.9l-.1 1.9c-1.2.4-2.4 1-3.4 1.8l-1.6-1.1c-.8-.5-1.9-.4-2.5.4l-2.1 2.4c-.6.7-.6 1.9.1 2.6l1.4 1.5c-.5 1.1-.8 2.2-1 3.4l-2 .4c-1 .2-1.6 1.1-1.5 2.1l.3 3.2c.1 1 .9 1.7 1.9 1.8l2.2.1c.4 1 .9 2 1.5 2.9l-1.2 1.8c-.5.8-.4 1.9.4 2.5l2.4 2.1c.7.6 1.9.6 2.6-.1l1.6-1.5c1 .5 2.1.8 3.3 1.1l.4 2.2c.2 1 1.1 1.6 2.1 1.5l3.2-.3c1-.1 1.7-.9 1.8-1.9l.1-2.1c1.2-.4 2.3-1 3.3-1.7l1.8 1.2c.8.5 1.9.4 2.5-.4l2.1-2.4c.6-.7.6-1.9-.1-2.6l-1.4-1.5c.5-1.1.9-2.3 1.1-3.4l1.9-.4c1-.2 1.6-1.1 1.5-2.1l-.3-3.2c-.1-1-.9-1.7-1.9-1.8l-1.9-.1c-.4-1.1-.9-2.2-1.6-3.2l1.1-1.6c.3-.7.2-1.8-.6-2.4m-11.9 18.4c-3.4.3-6.5-2.3-6.7-5.7-.3-3.4 2.3-6.5 5.7-6.7 3.4-.3 6.5 2.3 6.7 5.7s-2.3 6.4-5.7 6.7" class="st0"/>
    <path d="M175.8 916.4c-1 .1-1.7.9-1.7 1.9v2c0 1 .7 1.8 1.7 1.9l1.4.2c.2.9.6 1.7 1 2.5l-.9 1.1c-.6.8-.6 1.9.1 2.6l1.4 1.4c.7.7 1.8.8 2.6.2l1.2-.9c.8.5 1.7.9 2.6 1.1l.2 1.5c.1 1 .9 1.7 1.9 1.7h2c1 0 1.8-.7 1.9-1.7l.2-1.4c1-.2 1.9-.6 2.8-1.1l1.1.9c.8.6 1.9.6 2.6-.1l1.4-1.4c.7-.7.8-1.8.2-2.6l-.8-1.1c.5-.8.9-1.8 1.2-2.7l1.3-.1c1-.1 1.7-.9 1.7-1.9v-2c0-1-.7-1.8-1.7-1.9l-1.3-.2c-.2-.9-.6-1.9-1.1-2.7l.8-1c.6-.8.6-1.9-.1-2.6l-1.4-1.4c-.7-.7-1.8-.8-2.6-.2l-.9.7c-.9-.5-1.8-.9-2.8-1.2l-.1-1.2c-.1-1-.9-1.7-1.9-1.7h-2c-1 0-1.8.7-1.9 1.7l-.2 1.2c-1 .3-2 .7-2.9 1.2l-1-.8c-.8-.6-1.9-.6-2.6.1l-1.4 1.4c-.7.7-.8 1.8-.2 2.6l.8 1.1c-.5.8-.9 1.8-1.1 2.7zm12.6-2.2c2.8 0 5.1 2.3 5 5.1 0 2.8-2.3 5.1-5.1 5-2.8 0-5.1-2.3-5-5.1 0-2.8 2.3-5 5.1-5" class="st0"/>
</svg>
