<?xml version="1.0" encoding="utf-8"?>
<!-- Generator: Adobe Illustrator 19.1.0, SVG Export Plug-In . SVG Version: 6.00 Build 0)  -->
<svg version="1.1" id="Capa_1" xmlns="http://www.w3.org/2000/svg" xmlns:xlink="http://www.w3.org/1999/xlink" x="0px" y="0px"
	 viewBox="160 862 72 72" style="enable-background:new 160 862 72 72;" xml:space="preserve">
<style type="text/css">
	.st0{fill:#FFFFFF;}
</style>
<g>
	<path class="st0" d="M164.7,888.4c0.4,1.3,0.9,2.5,1.6,3.7l-1.9,2.4c-0.6,0.8-0.5,1.9,0.1,2.6l3.3,3.3c0.7,0.7,1.8,0.8,2.6,0.1
		l2.4-1.9c1.2,0.7,2.5,1.3,3.9,1.6l0.4,3.1c0.1,1,1,1.7,1.9,1.7h4.6c1,0,1.8-0.7,1.9-1.7l0.3-2.9c1.5-0.4,2.8-0.9,4.1-1.7l2.3,1.8
		c0.8,0.6,1.9,0.5,2.6-0.1l3.3-3.3c0.7-0.7,0.8-1.8,0.1-2.6l-1.8-2.3c0.7-1.3,1.3-2.6,1.7-4.1l2.7-0.3c1-0.1,1.7-1,1.7-1.9v-4.6
		c0-1-0.7-1.8-1.7-1.9l-2.7-0.3c-0.4-1.4-0.9-2.8-1.6-4l1.7-2.1c0.6-0.8,0.5-1.9-0.1-2.6l-3.3-3.3c-0.7-0.7-1.8-0.8-2.6-0.1l-2,1.6
		c-1.3-0.8-2.7-1.4-4.2-1.8l-0.3-2.6c-0.1-1-1-1.7-1.9-1.7h-4.6c-1,0-1.8,0.7-1.9,1.7l-0.3,2.6c-1.5,0.4-3,1-4.3,1.8l-2.1-1.7
		c-0.8-0.6-1.9-0.5-2.6,0.1l-3.3,3.3c-0.7,0.7-0.8,1.8-0.1,2.6l1.8,2.2c-0.7,1.3-1.3,2.6-1.6,4.1l-2.8,0.3c-1,0.1-1.7,1-1.7,1.9v4.6
		c0,1,0.7,1.8,1.7,1.9L164.7,888.4z M181.4,875.9c4.2,0,7.6,3.4,7.6,7.6s-3.4,7.6-7.6,7.6c-4.2,0-7.6-3.4-7.6-7.6
		S177.2,875.9,181.4,875.9z"/>
	<path class="st0" d="M227,889.5l-2.4-2.1c-0.7-0.6-1.9-0.6-2.6,0.1l-1.3,1.3c-1.1-0.5-2.3-0.9-3.6-1.2l-0.4-1.9
		c-0.2-1-1.1-1.6-2.1-1.5l-3.2,0.3c-1,0.1-1.7,0.9-1.8,1.9l-0.1,1.9c-1.2,0.4-2.4,1-3.4,1.8l-1.6-1.1c-0.8-0.5-1.9-0.4-2.5,0.4
		l-2.1,2.4c-0.6,0.7-0.6,1.9,0.1,2.6l1.4,1.5c-0.5,1.1-0.8,2.2-1,3.4l-2,0.4c-1,0.2-1.6,1.1-1.5,2.1l0.3,3.2c0.1,1,0.9,1.7,1.9,1.8
		l2.2,0.1c0.4,1,0.9,2,1.5,2.9l-1.2,1.8c-0.5,0.8-0.4,1.9,0.4,2.5l2.4,2.1c0.7,0.6,1.9,0.6,2.6-0.1l1.6-1.5c1,0.5,2.1,0.8,3.3,1.1
		l0.4,2.2c0.2,1,1.1,1.6,2.1,1.5l3.2-0.3c1-0.1,1.7-0.9,1.8-1.9l0.1-2.1c1.2-0.4,2.3-1,3.3-1.7l1.8,1.2c0.8,0.5,1.9,0.4,2.5-0.4
		l2.1-2.4c0.6-0.7,0.6-1.9-0.1-2.6l-1.4-1.5c0.5-1.1,0.9-2.3,1.1-3.4l1.9-0.4c1-0.2,1.6-1.1,1.5-2.1l-0.3-3.2
		c-0.1-1-0.9-1.7-1.9-1.8l-1.9-0.1c-0.4-1.1-0.9-2.2-1.6-3.2l1.1-1.6C227.9,891.2,227.8,890.1,227,889.5z M215.1,907.9
		c-3.4,0.3-6.5-2.3-6.7-5.7c-0.3-3.4,2.3-6.5,5.7-6.7c3.4-0.3,6.5,2.3,6.7,5.7C221,904.6,218.5,907.6,215.1,907.9z"/>
	<path class="st0" d="M175.8,916.4c-1,0.1-1.7,0.9-1.7,1.9l0,2c0,1,0.7,1.8,1.7,1.9l1.4,0.2c0.2,0.9,0.6,1.7,1,2.5l-0.9,1.1
		c-0.6,0.8-0.6,1.9,0.1,2.6l1.4,1.4c0.7,0.7,1.8,0.8,2.6,0.2l1.2-0.9c0.8,0.5,1.7,0.9,2.6,1.1l0.2,1.5c0.1,1,0.9,1.7,1.9,1.7l2,0
		c1,0,1.8-0.7,1.9-1.7l0.2-1.4c1-0.2,1.9-0.6,2.8-1.1l1.1,0.9c0.8,0.6,1.9,0.6,2.6-0.1l1.4-1.4c0.7-0.7,0.8-1.8,0.2-2.6l-0.8-1.1
		c0.5-0.8,0.9-1.8,1.2-2.7l1.3-0.1c1-0.1,1.7-0.9,1.7-1.9l0-2c0-1-0.7-1.8-1.7-1.9l-1.3-0.2c-0.2-0.9-0.6-1.9-1.1-2.7l0.8-1
		c0.6-0.8,0.6-1.9-0.1-2.6l-1.4-1.4c-0.7-0.7-1.8-0.8-2.6-0.2l-0.9,0.7c-0.9-0.5-1.8-0.9-2.8-1.2l-0.1-1.2c-0.1-1-0.9-1.7-1.9-1.7
		l-2,0c-1,0-1.8,0.7-1.9,1.7l-0.2,1.2c-1,0.3-2,0.7-2.9,1.2l-1-0.8c-0.8-0.6-1.9-0.6-2.6,0.1l-1.4,1.4c-0.7,0.7-0.8,1.8-0.2,2.6
		l0.8,1.1c-0.5,0.8-0.9,1.8-1.1,2.7L175.8,916.4z M188.4,914.2c2.8,0,5.1,2.3,5,5.1c0,2.8-2.3,5.1-5.1,5c-2.8,0-5.1-2.3-5-5.1
		C183.3,916.4,185.6,914.2,188.4,914.2z"/>
</g>
</svg>
