<?xml version="1.0" encoding="utf-8"?>
<!-- Generator: Adobe Illustrator 19.1.0, SVG Export Plug-In . SVG Version: 6.00 Build 0)  -->
<svg version="1.1"
	 id="svg3852" xmlns:dc="http://purl.org/dc/elements/1.1/" xmlns:inkscape="http://www.inkscape.org/namespaces/inkscape" xmlns:cc="http://creativecommons.org/ns#" xmlns:sodipodi="http://sodipodi.sourceforge.net/DTD/sodipodi-0.dtd" xmlns:rdf="http://www.w3.org/1999/02/22-rdf-syntax-ns#" xmlns:svg="http://www.w3.org/2000/svg" sodipodi:docname="gps.svg" inkscape:version="0.91 r13725"
	 xmlns="http://www.w3.org/2000/svg" xmlns:xlink="http://www.w3.org/1999/xlink" x="0px" y="0px" viewBox="-250 452 72 72"
	 style="enable-background:new -250 452 72 72;" xml:space="preserve">
<style type="text/css">
	.st0{display:none;}
	.st1{display:inline;}
	.st2{fill:none;stroke:#EB008B;stroke-width:0.25;stroke-linecap:round;stroke-linejoin:round;stroke-miterlimit:10;}
	.st3{fill:#FFFFFF;stroke:#FFFFFF;stroke-width:1.5;stroke-linecap:round;stroke-linejoin:round;stroke-miterlimit:10;}
	.st4{fill:none;stroke:#FFFFFF;stroke-width:3.9;stroke-linecap:round;stroke-linejoin:round;stroke-miterlimit:10;}
	.st5{fill:none;stroke:#FFFFFF;stroke-width:4.5;stroke-linecap:round;stroke-linejoin:round;stroke-miterlimit:10;}
	.st6{display:inline;fill:none;stroke:#224A80;stroke-width:3;stroke-linecap:round;stroke-linejoin:round;stroke-miterlimit:10;}
</style>
<title  id="title4758">GPS</title>
<sodipodi:namedview  inkscape:cy="55" bordercolor="#666666" showgrid="false" borderopacity="1" objecttolerance="10" guidetolerance="10" inkscape:cx="55" inkscape:zoom="11.136364" gridtolerance="10" pagecolor="#808080" inkscape:pageopacity="0" inkscape:pageshadow="2" inkscape:window-height="480" inkscape:current-layer="svg3852" inkscape:window-width="640" id="namedview3929">
	</sodipodi:namedview>
<g id="Layer_2" class="st0">
</g>
<g id="ex_thick" transform="matrix(-1,0,0,-1,111.82126,108.29692)">
</g>
<g id="Layer_2_copy_3" class="st0">
</g>
<g id="ex_thin" transform="matrix(-1,0,0,-1,111.82126,108.29692)">
</g>
<g id="Layer_2_copy" class="st0">
</g>
<g id="em_thick" transform="matrix(-1,0,0,-1,111.82126,108.29692)">
</g>
<g id="Layer_2_copy_4" class="st0">
	<g id="g3861" class="st1">
		<rect id="rect3863" x="-286.1" y="320.7" class="st2" width="56.3" height="56.3"/>
		<circle id="circle3865" class="st2" cx="-258" cy="348.8" r="28.2"/>
	</g>
	<g id="g3867" class="st1">
		<rect id="rect3869" x="-221.7" y="320.7" class="st2" width="56.3" height="56.3"/>
		<circle id="circle3871" class="st2" cx="-193.5" cy="348.8" r="28.2"/>
	</g>
	<g id="g3873" class="st1">
		<rect id="rect3875" x="-158.5" y="320.7" class="st2" width="56.3" height="56.3"/>
		<circle id="circle3877" class="st2" cx="-130.3" cy="348.8" r="28.2"/>
	</g>
</g>
<rect id="rect3882" x="-245.5" y="497.4" transform="matrix(-0.7071 0.7071 -0.7071 -0.7071 -44.474 1024.2881)" class="st3" width="22.3" height="11.1"/>
<rect id="rect3884" x="-210.1" y="462" transform="matrix(0.7071 -0.7071 0.7071 0.7071 -388.8625 -3.7341)" class="st3" width="22.3" height="11.1"/>
<path id="path3886" inkscape:connector-curvature="0" class="st3" d="M-230.5,471.4c-3.2,3.2-3.2,8.6,0,11.8l15.8,15.7l11.8-11.8
	l-15.7-15.7C-221.9,468.2-227.2,468.2-230.5,471.4z"/>
<path id="path3888" inkscape:connector-curvature="0" class="st3" d="M-208.8,493.1c-4.3,4.3-4.3,11.4,0,15.7l15.7-15.7
	C-197.4,488.8-204.5,488.8-208.8,493.1z"/>
<path id="path3890" inkscape:connector-curvature="0" class="st4" d="M-207.1,516.3c5.7,5.7,15,5.7,20.7,0c5.7-5.7,5.7-15,0-20.7"/>
<path id="path3892" inkscape:connector-curvature="0" class="st4" d="M-201.9,509.4c2.5,2.5,6.4,2.5,8.9,0c2.5-2.5,2.5-6.4,0-8.9"/>
<line id="line3894" class="st5" x1="-226.5" y1="495" x2="-222.5" y2="491.1"/>
<line id="line3896" class="st5" x1="-210.7" y1="479.3" x2="-206.8" y2="475.4"/>
<g id="Layer_2_copy_2" class="st0">
	<g id="g3905" class="st1">
		<rect id="rect3907" x="-286.1" y="425.3" class="st2" width="56.3" height="56.3"/>
		<circle id="circle3909" class="st2" cx="-258" cy="453.5" r="28.2"/>
	</g>
	<g id="g3911" class="st1">
		<rect id="rect3913" x="-221.7" y="425.3" class="st2" width="56.3" height="56.3"/>
		<circle id="circle3915" class="st2" cx="-193.5" cy="453.5" r="28.2"/>
	</g>
	<g id="g3917" class="st1">
		<rect id="rect3919" x="-158.5" y="425.3" class="st2" width="56.3" height="56.3"/>
		<circle id="circle3921" class="st2" cx="-130.3" cy="453.5" r="28.2"/>
	</g>
</g>
<g id="hornet" transform="matrix(-1,0,0,-1,111.82126,108.29692)">
</g>
<g id="Layer_2_copy_5" class="st0">
</g>
<g id="hornet_THIN" transform="matrix(-1,0,0,-1,111.82126,108.29692)">
</g>
<g id="Layer_6" class="st0">
	<polygon id="polygon3927" class="st6" points="-264.6,453.2 -269.5,453.2 -269.5,494.2 -246.6,494.2 -246.6,453.2 -251.5,453.2 
		-251.5,446.7 -264.6,446.7 	"/>
</g>
</svg>
