<?xml version="1.0" encoding="UTF-8" standalone="no"?>
<!-- Generator: Adobe Illustrator 23.0.2, SVG Export Plug-In . SVG Version: 6.00 Build 0)  -->

<svg
   xmlns:dc="http://purl.org/dc/elements/1.1/"
   xmlns:cc="http://creativecommons.org/ns#"
   xmlns:rdf="http://www.w3.org/1999/02/22-rdf-syntax-ns#"
   xmlns:svg="http://www.w3.org/2000/svg"
   xmlns="http://www.w3.org/2000/svg"
   xmlns:sodipodi="http://sodipodi.sourceforge.net/DTD/sodipodi-0.dtd"
   xmlns:inkscape="http://www.inkscape.org/namespaces/inkscape"
   version="1.1"
   x="0px"
   y="0px"
   width="100%"
   height="100%"
   viewBox="6 7 44.69 42.69"
   style="enable-background:new 6 7 44.69 42.69;"
   xml:space="preserve"
   id="svg14"
   sodipodi:docname="GpsInterferences.svg"
   inkscape:version="0.92.3 (2405546, 2018-03-11)"
   inkscape:export-filename="\\192.168.56.102\bekaert\develop\trunk\rx\gen\utils\httpd\htdocs\status\interferenceicon\icons\interference_na.png"
   inkscape:export-xdpi="37.22718"
   inkscape:export-ydpi="37.22718"><metadata
   id="metadata20"><rdf:RDF><cc:Work
       rdf:about=""><dc:format>image/svg+xml</dc:format><dc:type
         rdf:resource="http://purl.org/dc/dcmitype/StillImage" /><dc:title></dc:title></cc:Work></rdf:RDF></metadata><defs
   id="defs18" /><sodipodi:namedview
   pagecolor="#ffffff"
   bordercolor="#666666"
   borderopacity="1"
   objecttolerance="10"
   gridtolerance="10"
   guidetolerance="10"
   inkscape:pageopacity="0"
   inkscape:pageshadow="2"
   inkscape:window-width="1920"
   inkscape:window-height="1137"
   id="namedview16"
   showgrid="false"
   inkscape:zoom="16"
   inkscape:cx="53.04703"
   inkscape:cy="25.884697"
   inkscape:window-x="1912"
   inkscape:window-y="-8"
   inkscape:window-maximized="1"
   inkscape:current-layer="svg14" />
<style
   type="text/css"
   id="style2">
	.st0{display:none;}
	.st1{display:inline;}
	.st2{fill:none;stroke:#F49600;stroke-width:4.378;stroke-miterlimit:10;}
	.st3{fill:none;stroke:#13A538;stroke-width:4.378;stroke-miterlimit:10;}
</style>
<g 
   id="Layer_1"
   class="st0">
	<g
   class="st1"
   id="g6">
		<path
   class="st2"
   d="M20.25,9.68c10.29,10.29,10.29,27.04,0,37.34 M14.74,15.19c7.25,7.25,7.25,19.06,0,26.31 M9.22,35.99    c4.22-4.22,4.22-11.06,0-15.29 M36.44,47.01c-10.29-10.29-10.29-27.04,0-37.34 M41.96,41.5c-7.25-7.25-7.25-19.06,0-26.31     M47.47,20.7c-4.22,4.22-4.22,11.06,0,15.29"
   id="path4" />
	</g>
</g>
<g 
   id="Layer_2">
	<g
   id="g11">
		<path
   class="st3"
   d="M20.25,9.68c10.29,10.29,10.29,27.04,0,37.34 M14.74,15.19c7.25,7.25,7.25,19.06,0,26.31 M9.22,35.99    c4.22-4.22,4.22-11.06,0-15.29 M36.44,47.01c-10.29-10.29-10.29-27.04,0-37.34 M41.96,41.5c-7.25-7.25-7.25-19.06,0-26.31     M47.47,20.7c-4.22,4.22-4.22,11.06,0,15.29"
   id="path9"
   style="stroke:#ffffff;stroke-opacity:1;stroke-width:4.378" />
	</g>
</g>
</svg>
