<?xml version="1.0" encoding="utf-8"?>
<!-- Generator: Adobe Illustrator 19.1.0, SVG Export Plug-In . SVG Version: 6.00 Build 0)  -->
<svg version="1.1" id="Layer_1" xmlns="http://www.w3.org/2000/svg" xmlns:xlink="http://www.w3.org/1999/xlink" x="0px" y="0px"
	 viewBox="-255 447 72 72" style="enable-background:new -255 447 72 72;" xml:space="preserve">
<style type="text/css">
	.st0{fill:#FFFFFF;}
</style>
<g>
	<path class="st0" d="M-240.7,462.4c-7.9,0-14.3,6.4-14.3,14.3s6.4,14.3,14.3,14.3c1.3,0,2.4-1,2.6-2.2h0V465
		C-238.1,463.6-239.3,462.4-240.7,462.4z"/>
	<path class="st0" d="M-183,450.8c0-1.4-1.2-2.6-2.6-2.6c-0.6,0-1.1,0.2-1.6,0.5l-22.9,13.2h-20.6c-1.4,0-2.6,1.2-2.6,2.6v24.7h0
		c0.2,1.3,1.2,2.3,2.6,2.3h18.3l25,14.5c0.5,0.4,1.1,0.7,1.8,0.7c1.4,0,2.6-1.2,2.6-2.6c0-0.1,0-0.2,0-0.3h0v-4.4v-44.1v-4.4h0
		C-183,450.9-183,450.8-183,450.8z"/>
	<path class="st0" d="M-213.1,511.3L-213.1,511.3c0-0.1-0.1-0.1-0.1-0.1c0,0,0,0,0-0.1l-7.9-13.8l0,0c-0.4-0.6-1.1-1-1.8-1v0h-6.9v0
		c-0.4,0-0.7,0.1-1.1,0.3c-1.2,0.7-1.7,2.3-1,3.6c0.1,0.1,0.1,0.2,0.2,0.3l0,0l9.3,16c0,0,0,0,0,0c0,0,0,0,0,0l0.1,0.2l0,0
		c0.8,1.1,2.3,1.5,3.4,0.8c0.1-0.1,0.3-0.2,0.4-0.3l0,0l4.8-2.8l0,0C-212.8,513.7-212.5,512.4-213.1,511.3L-213.1,511.3z"/>
</g>
</svg>
