<?xml version="1.0" encoding="utf-8"?>
<!-- Generator: Adobe Illustrator 19.1.0, SVG Export Plug-In . SVG Version: 6.00 Build 0)  -->
<svg version="1.1" id="road-icon" xmlns="http://www.w3.org/2000/svg" xmlns:xlink="http://www.w3.org/1999/xlink" x="0px" y="0px"
	 viewBox="-255 447 72 72" style="enable-background:new -255 447 72 72;" xml:space="preserve">
<style type="text/css">
	.st0{fill:#FFFFFF;}
	.st1{fill:#FFFFFF;stroke:#FFFFFF;stroke-width:9;stroke-linecap:round;stroke-miterlimit:10;}
</style>
<g>
	<polygon class="st0" points="-246.5,455.1 -247.5,457.1 -245.5,457.1 -246.5,455.1 	"/>
	<path class="st0" d="M-246.5,447c-4.7,0-8.5,3.8-8.5,8.5c0,5.8,7.7,15.6,8,16c0.1,0.2,0.3,0.3,0.5,0.3h0c0.2,0,0.4-0.1,0.5-0.3
		c0.3-0.4,7.9-10.3,7.9-16C-238,450.8-241.8,447-246.5,447z M-242.5,460.1h-1.4c-0.2,0-0.3-0.1-0.4-0.3l-0.5-1h-3.4l-0.5,1
		c-0.1,0.2-0.2,0.3-0.5,0.3h-1.4c-0.2,0-0.3-0.2-0.2-0.3l3.9-8.5c0-0.1,0.1-0.1,0.2-0.1h0.1c0.1,0,0.2,0.1,0.2,0.1l3.9,8.5
		C-242.2,460-242.3,460.1-242.5,460.1z"/>
</g>
<g>
	<path class="st0" d="M-197.7,466.4c-8,0-14.6,6.6-14.6,14.6c0,9.9,13.2,26.8,13.7,27.5c0.2,0.3,0.6,0.4,0.9,0.4c0,0,0,0,0,0
		c0.4,0,0.7-0.2,0.9-0.4c0.6-0.7,13.6-17.6,13.6-27.5C-183.1,473-189.6,466.4-197.7,466.4z M-197.2,488.7h-5.3
		c-0.2,0-0.4-0.2-0.4-0.4V474c0-0.2,0.2-0.4,0.4-0.4h5c2.5,0,4.6,1.7,4.6,4c0,1.7-1.5,2.9-2.5,3.4c1.1,0.5,2.9,1.5,2.9,3.5
		C-192.5,486.9-194.6,488.7-197.2,488.7z"/>
	<path class="st0" d="M-197.8,482.5h-1.7v3.1h2c0.8,0,1.5-0.7,1.5-1.6C-196,483.2-197,482.5-197.8,482.5z"/>
	<path class="st0" d="M-196.4,478.2c0-0.9-0.7-1.5-1.5-1.5h-1.7v3h1.7C-197,479.7-196.4,479-196.4,478.2z"/>
</g>
<path class="st1" d="M-189.8,480"/>
<path class="st0" d="M-197.3,512.5l-38.9-21.3l9-4.8c0.9-0.5,1.4-1.5,1.3-2.5c-0.1-1-0.7-1.9-1.6-2.4c0,0-16.1-7.2-17.2-7.7
	c-0.8-0.3-1.9-0.3-2.3-0.2c-1.2,0.3-2,1-2,1.8c0,1.2,2.1,1.9,2.4,2.1l15.3,6.7l-11.3,4.7c-0.9,0.5-1.4,1.5-1.3,2.5
	c0,1,0.6,1.9,1.5,2.4l39.3,23.6c1.3,0.6,2.8,1.7,5.1,1.7c0.2,0,0.4,0,0.6,0c0,0,0,0,0.1,0c0.3,0,0.5,0,0.8-0.1
	c1.9-0.4,3.3-1.5,3.3-2.8C-193.2,514.6-195,513.7-197.3,512.5z"/>
</svg>
