<svg xmlns="http://www.w3.org/2000/svg" xml:space="preserve" id="road-icon" x="0" y="0" version="1.1" viewBox="-255 447 72 72">
    <style>
        .st0{fill:#fff}
    </style>
    <path d="m-246.5 455.1-1 2h2z" class="st0"/>
    <path d="M-246.5 447c-4.7 0-8.5 3.8-8.5 8.5 0 5.8 7.7 15.6 8 16 .1.2.3.3.5.3s.4-.1.5-.3c.3-.4 7.9-10.3 7.9-16 .1-4.7-3.7-8.5-8.4-8.5m4 13.1h-1.4c-.2 0-.3-.1-.4-.3l-.5-1h-3.4l-.5 1c-.1.2-.2.3-.5.3h-1.4c-.2 0-.3-.2-.2-.3l3.9-8.5c0-.1.1-.1.2-.1h.1c.1 0 .2.1.2.1l3.9 8.5c.3.2.2.3 0 .3M-197.7 466.4c-8 0-14.6 6.6-14.6 14.6 0 9.9 13.2 26.8 13.7 27.5.2.3.6.4.9.4.4 0 .7-.2.9-.4.6-.7 13.6-17.6 13.6-27.5.1-8-6.4-14.6-14.5-14.6m.5 22.3h-5.3c-.2 0-.4-.2-.4-.4V474c0-.2.2-.4.4-.4h5c2.5 0 4.6 1.7 4.6 4 0 1.7-1.5 2.9-2.5 3.4 1.1.5 2.9 1.5 2.9 3.5 0 2.4-2.1 4.2-4.7 4.2" class="st0"/>
    <path d="M-197.8 482.5h-1.7v3.1h2c.8 0 1.5-.7 1.5-1.6 0-.8-1-1.5-1.8-1.5M-196.4 478.2c0-.9-.7-1.5-1.5-1.5h-1.7v3h1.7c.9 0 1.5-.7 1.5-1.5M-197.3 512.5l-38.9-21.3 9-4.8c.9-.5 1.4-1.5 1.3-2.5s-.7-1.9-1.6-2.4c0 0-16.1-7.2-17.2-7.7-.8-.3-1.9-.3-2.3-.2-1.2.3-2 1-2 1.8 0 1.2 2.1 1.9 2.4 2.1l15.3 6.7-11.3 4.7c-.9.5-1.4 1.5-1.3 2.5 0 1 .6 1.9 1.5 2.4l39.3 23.6c1.3.6 2.8 1.7 5.1 1.7h.7c.3 0 .5 0 .8-.1 1.9-.4 3.3-1.5 3.3-2.8 0-1.6-1.8-2.5-4.1-3.7" class="st0"/>
</svg>
