<svg xmlns="http://www.w3.org/2000/svg" xml:space="preserve" id="svg2" x="0" y="0" version="1.1" viewBox="214 286 72 72">
    <style>
        .st0{fill:#fff;stroke:#fff}.st1{stroke-linecap:round}.st1,.st2{fill:none;stroke:#fff;stroke-width:3}
    </style>
    <path id="path2991" d="M230.5 299.3c0 1.8-1.4 3.2-3.2 3.2s-3.2-1.4-3.2-3.2 1.4-3.2 3.2-3.2 3.2 1.4 3.2 3.2z" class="st0"/>
    <path id="path3761" d="M229.2 308.8c-5.3 1-10.4-2.4-11.4-7.6-1-5.3 2.4-10.4 7.6-11.4 5.3-1 10.4 2.4 11.4 7.6.3 1.3.2 2.6 0 3.8" class="st1"/>
    <path id="path2991-6" d="M272.7 302.5c-1.8 0-3.2-1.4-3.2-3.2s1.4-3.2 3.2-3.2 3.2 1.4 3.2 3.2-1.4 3.2-3.2 3.2z" class="st0"/>
    <path id="path3761-1" d="M263.2 301.2c-1-5.3 2.4-10.4 7.6-11.4 5.3-1 10.4 2.4 11.4 7.6 1 5.3-2.4 10.4-7.6 11.4-1.3.3-2.6.2-3.8 0" class="st1"/>
    <path id="path2991-9" d="M269.5 344.7c0-1.8 1.4-3.2 3.2-3.2s3.2 1.4 3.2 3.2-1.4 3.2-3.2 3.2-3.2-1.4-3.2-3.2z" class="st0"/>
    <path id="path3761-2" d="M270.8 335.2c5.3-1 10.4 2.4 11.4 7.6 1 5.3-2.4 10.4-7.6 11.4-5.3 1-10.4-2.4-11.4-7.6-.3-1.3-.2-2.6 0-3.8" class="st1"/>
    <path id="path2991-6-9" d="M227.3 341.5c1.8 0 3.2 1.4 3.2 3.2s-1.4 3.2-3.2 3.2-3.2-1.4-3.2-3.2 1.4-3.2 3.2-3.2z" class="st0"/>
    <path id="path3761-1-5" d="M236.8 342.8c1 5.3-2.4 10.4-7.6 11.4-5.3 1-10.4-2.4-11.4-7.6-1-5.3 2.4-10.4 7.6-11.4 1.3-.3 2.6-.2 3.8 0" class="st1"/>
    <path d="m227.3 344.7 45.4-45.4M272.7 344.7l-45.4-45.4" class="st2"/>
    <circle cx="250" cy="322" r="13" style="fill:#fff;stroke:#fff;stroke-width:3"/>
</svg>
