<svg xmlns="http://www.w3.org/2000/svg" viewBox="0 0 83.31 79.59"><title>RID_ICON_GREEN_SVG</title><g id="Capa_2" data-name="Capa 2"><g id="REMOTE_ID" data-name="REMOTE ID"><circle cx="33.45" cy="21.02" r="21.02" style="fill:#00c500"/><path d="M51.9,39.36a24.5,24.5,0,0,1-36.9,0C6,47.7,0,62,0,78.23H66.89C66.89,62,60.93,47.7,51.9,39.36Z" style="fill:#00c500"/><path d="M40.13,78.23V50.6h7.81V78.23Z" style="fill:#fff;stroke:#f0f;stroke-linecap:round;stroke-linejoin:round;stroke-opacity:0;stroke-width:2.72174942493439px"/><path d="M53.5,78.23V50.6H66.57a18,18,0,0,1,8,1.7A13,13,0,0,1,80,57.08a13.33,13.33,0,0,1,2,7.3,13.54,13.54,0,0,1-2,7.36,13,13,0,0,1-5.43,4.79,18,18,0,0,1-8,1.7ZM61.32,72h4.85a8.9,8.9,0,0,0,4.16-.91,6.53,6.53,0,0,0,2.74-2.62,8.06,8.06,0,0,0,1-4.08,7.84,7.84,0,0,0-1-4,6.56,6.56,0,0,0-2.74-2.58,8.9,8.9,0,0,0-4.16-.91H61.32Z" style="fill:#fff;stroke:#f0f;stroke-linecap:round;stroke-linejoin:round;stroke-opacity:0;stroke-width:2.72174942493439px"/></g></g></svg>