<?xml version="1.0" encoding="UTF-8"?>
<svg id="Capa_2" data-name="Capa 2" xmlns="http://www.w3.org/2000/svg" viewBox="0 0 72 72">
  <defs>
    <style>
      .cls-1 {
        fill: #fff;
      }

      .cls-2 {
        fill: none;
      }
    </style>
  </defs>
  <g id="REMOTE_ID" data-name="REMOTE ID">
    <g>
      <g>
        <path class="cls-1" d="m34.27,72v-25.42h7.05v25.42h-7.05Z"/>
        <path class="cls-1" d="m46.34,72v-25.42h11.78c2.73,0,5.14.52,7.22,1.56s3.72,2.51,4.89,4.39c1.17,1.89,1.76,4.13,1.76,6.72s-.59,4.87-1.76,6.77c-1.18,1.9-2.81,3.37-4.89,4.41-2.09,1.04-4.5,1.56-7.22,1.56h-11.78Zm7.05-5.74h4.38c1.45,0,2.7-.28,3.75-.83,1.06-.56,1.88-1.36,2.47-2.41.59-1.06.89-2.31.89-3.76s-.3-2.69-.89-3.72c-.59-1.03-1.42-1.82-2.47-2.38-1.05-.56-2.31-.84-3.75-.84h-4.38v13.94Z"/>
      </g>
      <rect class="cls-2" width="72" height="72"/>
    </g>
  </g>
</svg>