<?xml version="1.0" encoding="utf-8"?>
<!-- Generator: Adobe Illustrator 19.1.0, SVG Export Plug-In . SVG Version: 6.00 Build 0)  -->
<svg version="1.1"
	 id="svg3852" xmlns:dc="http://purl.org/dc/elements/1.1/" xmlns:inkscape="http://www.inkscape.org/namespaces/inkscape" xmlns:cc="http://creativecommons.org/ns#" xmlns:sodipodi="http://sodipodi.sourceforge.net/DTD/sodipodi-0.dtd" xmlns:rdf="http://www.w3.org/1999/02/22-rdf-syntax-ns#" xmlns:svg="http://www.w3.org/2000/svg" sodipodi:docname="gps.svg" inkscape:version="0.91 r13725"
	 xmlns="http://www.w3.org/2000/svg" xmlns:xlink="http://www.w3.org/1999/xlink" x="0px" y="0px" viewBox="-250 452 72 72"
	 style="enable-background:new -250 452 72 72;" xml:space="preserve">
<style type="text/css">
	.st0{display:none;}
	.st1{display:inline;}
	.st2{fill:none;stroke:#EB008B;stroke-width:0.25;stroke-linecap:round;stroke-linejoin:round;stroke-miterlimit:10;}
	.st3{display:inline;fill:none;stroke:#224A80;stroke-width:3;stroke-linecap:round;stroke-linejoin:round;stroke-miterlimit:10;}
	.st4{fill:#FFFFFF;}
	.st5{opacity:0.5;fill:#FFFFFF;}
</style>
<title  id="title4758">GPS</title>
<sodipodi:namedview  inkscape:cy="55" bordercolor="#666666" showgrid="false" borderopacity="1" objecttolerance="10" guidetolerance="10" inkscape:cx="55" inkscape:zoom="11.136364" gridtolerance="10" pagecolor="#808080" inkscape:pageopacity="0" inkscape:pageshadow="2" inkscape:window-height="480" inkscape:current-layer="svg3852" inkscape:window-width="640" id="namedview3929">
	</sodipodi:namedview>
<g id="Layer_2" class="st0">
</g>
<g id="ex_thick" transform="matrix(-1,0,0,-1,111.82126,108.29692)">
</g>
<g id="Layer_2_copy_3" class="st0">
</g>
<g id="ex_thin" transform="matrix(-1,0,0,-1,111.82126,108.29692)">
</g>
<g id="Layer_2_copy" class="st0">
</g>
<g id="em_thick" transform="matrix(-1,0,0,-1,111.82126,108.29692)">
</g>
<g id="Layer_2_copy_4" class="st0">
	<g id="g3861" class="st1">
		<rect id="rect3863" x="-286.1" y="320.7" class="st2" width="56.3" height="56.3"/>
		<circle id="circle3865" class="st2" cx="-258" cy="348.8" r="28.2"/>
	</g>
	<g id="g3867" class="st1">
		<rect id="rect3869" x="-221.7" y="320.7" class="st2" width="56.3" height="56.3"/>
		<circle id="circle3871" class="st2" cx="-193.5" cy="348.8" r="28.2"/>
	</g>
	<g id="g3873" class="st1">
		<rect id="rect3875" x="-158.5" y="320.7" class="st2" width="56.3" height="56.3"/>
		<circle id="circle3877" class="st2" cx="-130.3" cy="348.8" r="28.2"/>
	</g>
</g>
<g id="Layer_2_copy_2" class="st0">
	<g id="g3905" class="st1">
		<rect id="rect3907" x="-286.1" y="425.3" class="st2" width="56.3" height="56.3"/>
		<circle id="circle3909" class="st2" cx="-258" cy="453.5" r="28.2"/>
	</g>
	<g id="g3911" class="st1">
		<rect id="rect3913" x="-221.7" y="425.3" class="st2" width="56.3" height="56.3"/>
		<circle id="circle3915" class="st2" cx="-193.5" cy="453.5" r="28.2"/>
	</g>
	<g id="g3917" class="st1">
		<rect id="rect3919" x="-158.5" y="425.3" class="st2" width="56.3" height="56.3"/>
		<circle id="circle3921" class="st2" cx="-130.3" cy="453.5" r="28.2"/>
	</g>
</g>
<g id="hornet" transform="matrix(-1,0,0,-1,111.82126,108.29692)">
</g>
<g id="Layer_2_copy_5" class="st0">
</g>
<g id="hornet_THIN" transform="matrix(-1,0,0,-1,111.82126,108.29692)">
</g>
<g id="Layer_6" class="st0">
	<polygon id="polygon3927" class="st3" points="-264.6,453.2 -269.5,453.2 -269.5,494.2 -246.6,494.2 -246.6,453.2 -251.5,453.2 
		-251.5,446.7 -264.6,446.7 	"/>
</g>
<rect x="-250" y="509.6" class="st4" width="8.6" height="14.4"/>
<rect x="-234.2" y="495.2" class="st4" width="8.6" height="28.8"/>
<rect x="-218.3" y="480.8" class="st4" width="8.6" height="43.2"/>
<rect x="-202.5" y="466.4" class="st5" width="8.6" height="57.6"/>
<rect x="-186.6" y="452" class="st5" width="8.6" height="72"/>
</svg>
