<?xml version="1.0" encoding="utf-8"?>
<!-- Generator: Adobe Illustrator 19.1.0, SVG Export Plug-In . SVG Version: 6.00 Build 0)  -->
<svg version="1.1" id="Layer_1" xmlns="http://www.w3.org/2000/svg" xmlns:xlink="http://www.w3.org/1999/xlink" x="0px" y="0px"
	 viewBox="194 896 108 72" style="enable-background:new 194 896 108 72;" xml:space="preserve">
<style type="text/css">
	.st0{fill:#FFFFFF;}
	.st1{fill:none;stroke:#FFFFFF;stroke-width:5.4819;stroke-linecap:round;stroke-linejoin:round;stroke-miterlimit:10;}
</style>
<path class="st0" d="M195.8,902.7c0.5-0.9,1.2-1.3,2.1-1.2l86.2,0.1c0.5,0,0.9,0.1,1.4,0.4c0.4,0.3,0.7,0.7,0.8,1.1
	c0.4,0.9,0.2,1.7-0.6,2.6l-51.7,53.8c-0.6,0.5-1.2,0.7-1.9,0.7c-0.4-0.1-0.8-0.2-1.1-0.4c-0.2-0.2-0.5-0.4-0.6-0.6L217,938.2
	l-8.8,4.2c-0.9,0.4-1.7,0.3-2.4-0.2c-0.7-0.5-1.1-1.2-1-2.2l1.9-17.9l-10.8-16.8C195.4,904.4,195.4,903.6,195.8,902.7L195.8,902.7z
	 M202.4,906.2l8.3,13.1c0,0.1,0.1,0.3,0.1,0.5l0.1,0.3l58-13.7L202.4,906.2z M211.4,922.4l-1.4,13.6l66.5-29.1L211.4,922.4z
	 M220,934.4c0.4,0.4,0.8,0.8,1,1.1l11.7,18.4L274,911L220,934.4z"/>
<g>
	<path id="path3890" inkscape:connector-curvature="0" class="st1" d="M262.1,957.3c8,8,21.1,8,29.1,0c8-8,8-21.1,0-29.1"/>
	<path id="path3892" inkscape:connector-curvature="0" class="st1" d="M269.4,947.6c3.5,3.5,9,3.5,12.5,0c3.5-3.5,3.5-9,0-12.5"/>
</g>
</svg>
