<svg xmlns="http://www.w3.org/2000/svg" xml:space="preserve" id="Layer_1" x="0" y="0" version="1.1" viewBox="194 896 108 72">
    <style>
        .st1{fill:none;stroke:#fff;stroke-width:5.4819;stroke-linecap:round;stroke-linejoin:round;stroke-miterlimit:10}
    </style>
    <path d="M195.8 902.7q.75-1.35 2.1-1.2l86.2.1c.5 0 .9.1 1.4.4.4.3.7.7.8 1.1.4.9.2 1.7-.6 2.6L234 959.5c-.6.5-1.2.7-1.9.7-.4-.1-.8-.2-1.1-.4-.2-.2-.5-.4-.6-.6l-13.4-21-8.8 4.2c-.9.4-1.7.3-2.4-.2s-1.1-1.2-1-2.2l1.9-17.9-10.8-16.8c-.5-.9-.5-1.7-.1-2.6m6.6 3.5 8.3 13.1c0 .1.1.3.1.5l.1.3 58-13.7zm9 16.2L210 936l66.5-29.1zm8.6 12c.4.4.8.8 1 1.1l11.7 18.4L274 911z" style="fill:#fff"/>
    <path id="path3890" d="M262.1 957.3c8 8 21.1 8 29.1 0s8-21.1 0-29.1" class="st1"/>
    <path id="path3892" d="M269.4 947.6c3.5 3.5 9 3.5 12.5 0s3.5-9 0-12.5" class="st1"/>
</svg>
