<?xml version="1.0" encoding="utf-8"?>
<!-- Generator: Adobe Illustrator 19.1.0, SVG Export Plug-In . SVG Version: 6.00 Build 0)  -->
<svg version="1.1" id="Layer_3" xmlns:svg="http://www.w3.org/2000/svg"
	 xmlns="http://www.w3.org/2000/svg" xmlns:xlink="http://www.w3.org/1999/xlink" x="0px" y="0px" viewBox="8 672 72 72"
	 style="enable-background:new 8 672 72 72;" xml:space="preserve">
<style type="text/css">
	.st0{fill:#FFFFFF;stroke:#DE2F26;stroke-width:6;stroke-miterlimit:10;}
	.st1{fill:#FFFFFF;}
</style>
<path id="path2231" class="st0" d="M76,732.5l-29.8-51.6c-0.5-0.8-1.3-1.3-2.3-1.3c-0.9,0-1.8,0.5-2.3,1.3L12,732.5
	c-0.5,0.8-0.5,1.8,0,2.6c0.5,0.8,1.3,1.3,2.3,1.3h59.6c0.9,0,1.8-0.5,2.3-1.3C76.5,734.3,76.5,733.3,76,732.5z"/>
<polygon id="polygon2233" class="st1" points="20.6,730.1 67.4,730.1 44,689.5 "/>
<path id="path2235" d="M41.6,715.3c0.1,1.2,0.3,2.1,0.6,2.7c0.3,0.6,0.8,0.9,1.6,0.9c0,0,0.2,0,0.2,0c0.8,0,1.3-0.3,1.6-0.9
	c0.3-0.6,0.5-1.5,0.6-2.7l0.7-9.5c0.1-1.8,0.2-3.2,0.2-4c0-1.1-0.3-1.9-0.9-2.6c-0.6-0.6-1.4-0.9-2.3-0.9c-0.9,0-1.7,0.3-2.3,0.9
	c-0.6,0.6-0.9,1.5-0.9,2.6c0,0.8,0.1,2.1,0.2,4L41.6,715.3z"/>
<circle id="circle2237" cx="44" cy="724.6" r="3.3"/>
</svg>
