<svg xmlns="http://www.w3.org/2000/svg" xml:space="preserve" viewBox="8 672 72 72">
    <path d="m76 732.5-29.8-51.6c-.5-.8-1.3-1.3-2.3-1.3-.9 0-1.8.5-2.3 1.3L12 732.5c-.5.8-.5 1.8 0 2.6s1.3 1.3 2.3 1.3h59.6c.9 0 1.8-.5 2.3-1.3.3-.8.3-1.8-.2-2.6z" style="fill:#fff;stroke:#de2f26;stroke-width:6;stroke-miterlimit:10"/>
    <path d="M20.6 730.1h46.8L44 689.5z" style="fill:#fff"/>
    <path d="M41.6 715.3q.15 1.8.6 2.7c.3.6.8.9 1.6.9h.2c.8 0 1.3-.3 1.6-.9q.45-.9.6-2.7l.7-9.5c.1-1.8.2-3.2.2-4 0-1.1-.3-1.9-.9-2.6-.6-.6-1.4-.9-2.3-.9s-1.7.3-2.3.9-.9 1.5-.9 2.6c0 .8.1 2.1.2 4z"/>
    <circle cx="44" cy="724.6" r="3.3"/>
</svg>
