<?xml version="1.0" encoding="utf-8"?>
<!-- Generator: Adobe Illustrator 21.0.2, SVG Export Plug-In . SVG Version: 6.00 Build 0)  -->
<svg version="1.1" id="Layer_1" xmlns="http://www.w3.org/2000/svg" xmlns:xlink="http://www.w3.org/1999/xlink" x="0px" y="0px"
	 viewBox="0 0 459.256 67.702" style="enable-background:new 0 0 459.256 67.702;" xml:space="preserve">
<style type="text/css">
	.st0{fill:#FFFFFF;}
</style>
<path class="st0" d="M71.274,0.054l0.027,23.5L50.913,44.043l-6.924,6.93v16.715H26.983V50.751l-6.75-6.735L0,23.642L0.027,0.134
	L16.94,0.087v20.16l9.983,10.002l17.127-0.02l10.412-10.063L54.435,0.054H71.274z M267.626,39.568l23.823,0.034V25.373l-40.903,0.04
	l-0.027,42.275h57.293V54.173L267.6,54.12L267.626,39.568z M137.999,53.851h-23.776l-13.33-13.498l-0.087-40.299H83.967
	l-0.013,47.163l20.234,20.485h50.731V0H138.02L137.999,53.851z M445.489,53.684h-29.371l-20.603-20.006l20.28-19.281h29.452
	L458.72,0.006L407.947,0l-33.679,33.758l33.686,33.89l51.302,0.054L445.489,53.684z M167.304,0.006l-0.027,67.655h16.893V14.397
	h27.982l8.997,9.144v44.121h16.825V19.878L218.29,0L167.304,0.006z M337.478,39.568l23.822,0.034V25.373l-40.903,0.04l-0.026,42.275
	h57.293V54.173l-40.206-0.054L337.478,39.568z M393.269,0.006L233.237,0.013l14.826,14.438l130.586-0.067L393.269,0.006z"/>
</svg>
