<?xml version="1.0" encoding="utf-8"?>
<!-- Generator: Adobe Illustrator 24.0.1, SVG Export Plug-In . SVG Version: 6.00 Build 0)  -->
<svg version="1.1" id="Layer_1" xmlns="http://www.w3.org/2000/svg" xmlns:xlink="http://www.w3.org/1999/xlink" x="0px" y="0px"
	 viewBox="0 0 288 288" style="enable-background:new 0 0 288 288;" xml:space="preserve">
<path d="M218.7,16.6H69.3C31,16.6,0,47.6,0,85.9v116.2c0,38.3,31,69.3,69.3,69.3h149.4c38.3,0,69.3-31,69.3-69.3V85.9
	C288,47.6,257,16.6,218.7,16.6z M139.5,215.9c0,14.7-11.9,26.6-26.6,26.6H55.5c-14.7,0-26.6-11.9-26.6-26.6v-44.7
	c0-14.7,11.9-26.6,26.6-26.6h57.4c14.7,0,26.6,11.9,26.6,26.6L139.5,215.9L139.5,215.9z M246.9,71.6l-15.7,58.8
	c-2.8,10.5-11.4,12.8-19.1,5.1l-6.8-6.8l-22.8,22.8c-5.9,5.9-15.6,5.9-21.5,0l-7.9-7.9c-5.9-5.9-5.9-15.5,0-21.5l22.8-22.8l-6.8-6.8
	c-7.7-7.7-5.4-16.2,5.1-19.1L233,57.7C243.4,54.9,249.7,61.2,246.9,71.6z"/>
</svg>
