<svg xmlns="http://www.w3.org/2000/svg" xml:space="preserve" viewBox="0 0 288 288">
    <path d="M218.7 16.6H69.3C31 16.6 0 47.6 0 85.9v116.2c0 38.3 31 69.3 69.3 69.3h149.4c38.3 0 69.3-31 69.3-69.3V85.9c0-38.3-31-69.3-69.3-69.3m-79.2 199.3c0 14.7-11.9 26.6-26.6 26.6H55.5c-14.7 0-26.6-11.9-26.6-26.6v-44.7c0-14.7 11.9-26.6 26.6-26.6h57.4c14.7 0 26.6 11.9 26.6 26.6zM246.9 71.6l-15.7 58.8c-2.8 10.5-11.4 12.8-19.1 5.1l-6.8-6.8-22.8 22.8c-5.9 5.9-15.6 5.9-21.5 0l-7.9-7.9c-5.9-5.9-5.9-15.5 0-21.5l22.8-22.8-6.8-6.8c-7.7-7.7-5.4-16.2 5.1-19.1L233 57.7c10.4-2.8 16.7 3.5 13.9 13.9"/>
</svg>
