<svg xmlns="http://www.w3.org/2000/svg" xml:space="preserve" viewBox="0 0 72 72">
    <path d="M36 7.545q-9.363 0-16.091 6.545-6.636 6.454-6.636 15.727 0 9.182 6.636 15.636L36 61.364l16.182-15.909q6.546-6.364 6.545-15.636 0-9.364-6.545-15.727Q45.455 7.545 36 7.545M36 0q12.636 0 21.455 8.727c8.819 8.727 8.818 12.848 8.818 21.091s-2.939 15.273-8.818 21.091L36 72 14.636 50.909q-8.909-8.727-8.909-21.091c0-12.364 2.97-15.273 8.909-21.091S27.697 0 36 0m0 20.818q-3.818 0-6.636 2.818t-2.818 6.682c0 3.864.939 4.803 2.818 6.682q2.727 2.727 6.636 2.727 4 0 6.727-2.727 2.818-2.818 2.818-6.682c0-3.864-.939-4.803-2.818-6.682Q39.909 20.818 36 20.818M36 17q5.455 0 9.364 3.909c3.909 3.909 3.909 5.727 3.909 9.364s-1.303 6.758-3.909 9.364-5.728 3.908-9.364 3.908-6.758-1.303-9.364-3.909-3.909-5.727-3.909-9.364 1.303-6.758 3.909-9.364S32.364 17 36 17" style="fill:#fff"/>
</svg>
