<?xml version="1.0" encoding="utf-8"?>
<!-- Generator: Adobe Illustrator 20.1.0, SVG Export Plug-In . SVG Version: 6.00 Build 0)  -->
<svg version="1.1" id="Layer_1" xmlns="http://www.w3.org/2000/svg" xmlns:xlink="http://www.w3.org/1999/xlink" x="0px" y="0px"
	 viewBox="0 0 72 72" style="enable-background:new 0 0 72 72;" xml:space="preserve">
<style type="text/css">
	.st0{fill:#FFFFFF;}
</style>
<path class="st0" d="M36,7.545c-6.242,0-11.606,2.182-16.091,6.545c-4.424,4.303-6.636,9.545-6.636,15.727
	c0,6.121,2.212,11.333,6.636,15.636L36,61.364l16.182-15.909c4.364-4.242,6.545-9.455,6.545-15.636
	c0-6.242-2.182-11.485-6.545-15.727C47.697,9.727,42.303,7.545,36,7.545z M36,0c8.424,0,15.576,2.909,21.455,8.727
	s8.818,12.848,8.818,21.091s-2.939,15.273-8.818,21.091L36,72L14.636,50.909c-5.939-5.818-8.909-12.848-8.909-21.091
	s2.97-15.273,8.909-21.091S27.697,0,36,0z M36,20.818c-2.545,0-4.758,0.939-6.636,2.818c-1.879,1.879-2.818,4.106-2.818,6.682
	s0.939,4.803,2.818,6.682c1.818,1.818,4.03,2.727,6.636,2.727c2.667,0,4.909-0.909,6.727-2.727c1.879-1.879,2.818-4.106,2.818-6.682
	s-0.939-4.803-2.818-6.682C40.848,21.758,38.606,20.818,36,20.818z M36,17c3.636,0,6.758,1.303,9.364,3.909s3.909,5.727,3.909,9.364
	s-1.303,6.758-3.909,9.364S39.636,43.545,36,43.545s-6.758-1.303-9.364-3.909s-3.909-5.727-3.909-9.364s1.303-6.758,3.909-9.364
	S32.364,17,36,17z"/>
</svg>
