<svg xmlns="http://www.w3.org/2000/svg" xml:space="preserve" id="Layer_1" x="0" y="0" version="1.1" viewBox="0 0 72 72">
    <style>
        .st0{fill:#fff}
    </style>
    <path d="M60.627 1.8H11.373C6.095 1.8 1.8 6.002 1.8 11.181V60.82c0 5.179 4.288 9.381 9.573 9.381h49.254c5.285 0 9.573-4.202 9.573-9.381V11.181c.007-5.179-4.288-9.381-9.573-9.381m5.634 59.019c0 3.043-2.529 5.521-5.634 5.521H11.373c-3.106 0-5.634-2.478-5.634-5.521V11.181c0-3.043 2.529-5.521 5.634-5.521h49.254c3.106 0 5.634 2.478 5.634 5.521z" class="st0"/>
    <path d="M18.496 44.271c-2.329 0-4.224 1.857-4.224 4.132 0 2.282 1.895 4.139 4.224 4.139s4.224-1.857 4.224-4.139c0-2.276-1.895-4.132-4.224-4.132M18.496 31.861c-2.329 0-4.224 1.857-4.224 4.132 0 2.282 1.895 4.139 4.224 4.139s4.224-1.857 4.224-4.139c0-2.275-1.895-4.132-4.224-4.132M18.496 19.458c-2.329 0-4.224 1.857-4.224 4.132 0 2.282 1.895 4.139 4.224 4.139s4.224-1.857 4.224-4.139-1.895-4.132-4.224-4.132M29.387 20.212h28.89v5.144h-28.89zM29.387 33.425h28.89v5.151h-28.89zM29.387 46.637h28.89v5.144h-28.89z" class="st0"/>
</svg>
