<?xml version="1.0" encoding="utf-8"?>
<!-- Generator: Adobe Illustrator 20.1.0, SVG Export Plug-In . SVG Version: 6.00 Build 0)  -->
<svg version="1.1" id="Layer_1" xmlns="http://www.w3.org/2000/svg" xmlns:xlink="http://www.w3.org/1999/xlink" x="0px" y="0px"
	 viewBox="0 0 72 72" style="enable-background:new 0 0 72 72;" xml:space="preserve">
<style type="text/css">
	.st0{fill:#FFFFFF;}
</style>
<g>
	<path class="st0" d="M60.627,1.8H11.373C6.095,1.8,1.8,6.002,1.8,11.181v49.639c0,5.179,4.288,9.381,9.573,9.381h49.254
		c5.285,0,9.573-4.202,9.573-9.381V11.181C70.207,6.002,65.912,1.8,60.627,1.8z M66.261,60.819c0,3.043-2.529,5.521-5.634,5.521
		H11.373c-3.106,0-5.634-2.478-5.634-5.521V11.181c0-3.043,2.529-5.521,5.634-5.521h49.254c3.106,0,5.634,2.478,5.634,5.521V60.819
		L66.261,60.819z"/>
	<path class="st0" d="M18.496,44.271c-2.329,0-4.224,1.857-4.224,4.132c0,2.282,1.895,4.139,4.224,4.139s4.224-1.857,4.224-4.139
		C22.72,46.127,20.825,44.271,18.496,44.271z"/>
	<path class="st0" d="M18.496,31.861c-2.329,0-4.224,1.857-4.224,4.132c0,2.282,1.895,4.139,4.224,4.139s4.224-1.857,4.224-4.139
		C22.72,33.718,20.825,31.861,18.496,31.861z"/>
	<path class="st0" d="M18.496,19.458c-2.329,0-4.224,1.857-4.224,4.132c0,2.282,1.895,4.139,4.224,4.139s4.224-1.857,4.224-4.139
		S20.825,19.458,18.496,19.458z"/>
	<path class="st0" d="M29.387,20.212h28.89v5.144h-28.89V20.212z"/>
	<path class="st0" d="M29.387,33.425h28.89v5.151h-28.89V33.425z"/>
	<path class="st0" d="M29.387,46.637h28.89v5.144h-28.89V46.637z"/>
</g>
</svg>
