<?xml version="1.0" encoding="utf-8"?>
<!-- Generator: Adobe Illustrator 24.0.3, SVG Export Plug-In . SVG Version: 6.00 Build 0)  -->
<svg version="1.1" id="Layer_1" xmlns="http://www.w3.org/2000/svg" xmlns:xlink="http://www.w3.org/1999/xlink" x="0px" y="0px"
	 viewBox="0 0 288 288" style="enable-background:new 0 0 288 288;" xml:space="preserve">
<style type="text/css">
	.st0{fill:#FFFFFF;}
	.st1{fill:none;stroke:#FFFFFF;stroke-width:10;stroke-miterlimit:10;}
	.st2{fill:none;stroke:#FFFFFF;stroke-width:10;stroke-linecap:round;stroke-miterlimit:10;}
	.st3{fill:none;stroke:#FFFFFF;stroke-width:10;stroke-linecap:round;stroke-linejoin:round;stroke-miterlimit:10;}
</style>
<path class="st0" d="M140.4,228.7h-105c-11,0-20-8.8-20-19.6V33.2c0-10.8,9-19.6,20-19.6h174.5c11,0,20,8.8,20,19.6v107.2
	c4.9,1.9,9.6,4.3,14,7.2V33.2c0-18.3-15.2-33.2-33.9-33.2H35.3C16.6,0,1.4,14.9,1.4,33.2v175.9c0,18.3,15.2,33.2,33.9,33.2h111.8
	C144.4,238.1,142.1,233.5,140.4,228.7z"/>
<circle class="st1" cx="193.7" cy="191.7" r="48.7"/>
<line class="st2" x1="229.6" y1="230" x2="280.1" y2="280.5"/>
<polyline class="st3" points="27.3,144.7 59.7,97.1 85.7,183.5 125,59.9 168.3,123 207.1,34.2 "/>
</svg>
