<svg id="Ebene_1" data-name="Ebene 1" xmlns="http://www.w3.org/2000/svg" viewBox="0 0 1920 1920"><defs><style>.cls-1{fill:#fff;}</style></defs><title>TimelapseIconv4Zeichenfläche 1</title><path class="cls-1" d="M959.72,1636c-180.94,0-351-70.61-478.8-198.8A677.21,677.21,0,0,1,283.79,950.44c2.44-177,72.51-343,197.93-468.43,127.68-127.68,297.44-198,478-198A674.58,674.58,0,0,1,1412.4,458l-74.67,82.75a563.29,563.29,0,0,0-378-145.25c-311.29,0-564.54,253.26-564.54,564.55s253.25,564.54,564.54,564.54a563.52,563.52,0,0,0,397-163.21,55.8,55.8,0,0,1,75.29-3.13h0a55.69,55.69,0,0,1,3.41,82.06A674.73,674.73,0,0,1,959.72,1636Z"/><path class="cls-1" d="M1246.27,619.06l293.87,62.76a28.75,28.75,0,0,0,33.36-37L1481,359a28.75,28.75,0,0,0-48.7-10.41L1230.94,571.69A28.74,28.74,0,0,0,1246.27,619.06Z"/></svg>