<?xml version="1.0" encoding="utf-8"?>
<!-- Generator: Adobe Illustrator 21.1.0, SVG Export Plug-In . SVG Version: 6.00 Build 0)  -->
<svg version="1.1" id="Layer_1" xmlns="http://www.w3.org/2000/svg" xmlns:xlink="http://www.w3.org/1999/xlink" x="0px" y="0px"
	 width="72px" height="72px" viewBox="0 0 72 72" style="enable-background:new 0 0 72 72;" xml:space="preserve">
<style type="text/css">
	.st0{fill:#FFFFFF;}
</style>
<g>
	<path class="st0" d="M44,17.1c-5.8,0-11.7,0-17.5,0c-5.8,0-11.6,0-17.4,0c-0.4,0-0.8,0-1.2,0.1c-2.4,0.4-4.2,2.5-4.2,4.9
		c0,9.3,0,18.6,0,27.8c0,0.8,0.2,1.6,0.6,2.3C5.3,54,6.9,54.9,9,54.9c11.7,0,23.3,0,35,0c3,0,5.5-2.5,5.5-5.5c0-8.9,0-17.8,0-26.8
		C49.5,19.6,47,17.1,44,17.1z"/>
	<path class="st0" d="M68.1,22.5c-0.7,0-1.4,0-2.1,0c-0.2,0-0.4,0.1-0.5,0.1c-4.4,2.6-8.7,5.2-13.1,7.8c-0.2,0.1-0.2,0.2-0.2,0.4
		c0,3.4,0,6.8,0,10.3c0,0.2,0.1,0.3,0.2,0.4c4.2,2.5,8.5,5.1,12.7,7.6c0.4,0.2,0.8,0.4,1.3,0.4c0.7,0,1.3,0,2,0c0-9,0-18,0-27
		C68.3,22.5,68.2,22.5,68.1,22.5z"/>
</g>
</svg>
