<?xml version="1.0" encoding="utf-8"?>
<!-- Generator: Adobe Illustrator 21.1.0, SVG Export Plug-In . SVG Version: 6.00 Build 0)  -->
<svg version="1.1" id="Layer_1" xmlns="http://www.w3.org/2000/svg" xmlns:xlink="http://www.w3.org/1999/xlink" x="0px" y="0px"
	 width="72px" height="72px" viewBox="0 0 72 72" style="enable-background:new 0 0 72 72;" xml:space="preserve">
<style type="text/css">
	.st0{display:none;}
	.st1{display:inline;}
	.st2{display:inline;stroke:#FFFFFF;stroke-width:1.1959;stroke-miterlimit:10;}
	.st3{display:inline;fill:none;stroke:#FFFFFF;stroke-width:9.567;stroke-miterlimit:10;}
	.st4{display:inline;stroke:#FFFFFF;stroke-width:0.9229;stroke-miterlimit:10;}
	.st5{display:inline;fill:none;stroke:#FFFFFF;stroke-width:9.2289;stroke-miterlimit:10;}
	.st6{display:inline;stroke:#FFFFFF;stroke-width:1.3383;stroke-miterlimit:10;}
	.st7{display:inline;fill:#FFFFFF;}
	.st8{display:inline;opacity:0.7;stroke:#FFFFFF;stroke-width:1.494;stroke-miterlimit:10;enable-background:new    ;}
	.st9{display:inline;opacity:0.7;stroke:#FFFFFF;stroke-width:0.9492;stroke-miterlimit:10;enable-background:new    ;}
	.st10{display:inline;fill:none;stroke:#000000;stroke-width:23.0795;stroke-miterlimit:10;}
	.st11{enable-background:new    ;}
	.st12{fill:none;stroke:#000000;stroke-miterlimit:10;}
	.st13{display:inline;fill:#FFFFFF;stroke:#000000;stroke-miterlimit:10;}
	.st14{display:inline;stroke:#000000;stroke-width:19.9759;stroke-miterlimit:10;}
	.st15{display:inline;stroke:#000000;stroke-width:20.4762;stroke-miterlimit:10;}
	.st16{display:inline;stroke:#000000;stroke-miterlimit:10;}
	.st17{fill:#FFFFFF;}
</style>
<g id="Media_play_icon" class="st0">
	<polygon class="st1" points="275.5,-149.9 24.1,-4.8 24.1,-295 	"/>
</g>
<g id="Document_icon" class="st0">
	<rect x="39.8" y="-291.1" class="st2" width="219.9" height="282.3"/>
	<line class="st3" x1="80.1" y1="-249.2" x2="220" y2="-249.2"/>
	<line class="st3" x1="80.1" y1="-223.2" x2="183.3" y2="-223.2"/>
	<line class="st3" x1="80.1" y1="-197.2" x2="196.8" y2="-197.2"/>
	<line class="st3" x1="80.1" y1="-171.1" x2="220" y2="-171.1"/>
	<line class="st3" x1="80.1" y1="-145.1" x2="138.4" y2="-145.1"/>
	<line class="st3" x1="80.1" y1="-119" x2="183.3" y2="-119"/>
	<line class="st3" x1="80.1" y1="-93" x2="196.8" y2="-93"/>
</g>
<g id="Contact_icon" class="st0">
	<rect x="7.1" y="-258.8" class="st4" width="285.8" height="217.9"/>
	<polyline class="st5" points="281.7,-248.9 150,-146.2 19,-248.9 	"/>
</g>
<g id="Image_icon" class="st0">
	<rect x="12.4" y="-291.4" class="st6" width="274.7" height="283"/>
	<rect x="39" y="-262.5" class="st7" width="220.5" height="220.5"/>
	<polygon class="st8" points="185.9,-55.5 48.5,-55.7 117.4,-174.6 	"/>
	<polygon class="st9" points="238.6,-56.1 151.3,-56.2 195,-131.8 	"/>
	<circle class="st9" cx="182.9" cy="-198.5" r="23.9"/>
</g>
<g id="Map_icon" class="st0">
	<circle class="st1" cx="149.8" cy="-196.1" r="99.2"/>
	<polygon class="st1" points="149.8,-4 77.3,-129.6 222.3,-129.6 	"/>
	<circle class="st7" cx="149.8" cy="-197" r="34.3"/>
</g>
<g id="Calendar_icon" class="st0">
	<rect x="29.3" y="-268.8" class="st10" width="241.3" height="248.6"/>
	<text transform="matrix(1 0 0 1 50.4731 -72.7944)" class="st1" style="font-family:'Futura-Medium'; font-size:172.5264px;">31</text>
	
		<text transform="matrix(1 0 0 1 50.4731 -72.7944)" style="display:inline;fill:none;stroke:#000000;stroke-miterlimit:10; font-family:'Futura-Medium'; font-size:172.5264px;">31</text>
	<polyline class="st1" points="192.1,-38.2 250.8,-38.2 250.8,-96.9 	"/>
	<rect x="18" y="-291" class="st1" width="263.7" height="66.4"/>
	<circle class="st13" cx="98.4" cy="-256" r="11.9"/>
	<circle class="st13" cx="199.1" cy="-257.8" r="11.9"/>
</g>
<g id="Company_icon" class="st0">
	<circle class="st14" cx="149.8" cy="-221.3" r="51.5"/>
	<path class="st15" d="M59.4-13.1c0-81.1,40.5-146.9,90.4-146.9s90.4,65.8,90.4,146.9"/>
	<polygon class="st16" points="88.7,-12.9 102.3,-12.8 95.9,-69.5 	"/>
	<polygon class="st16" points="201.6,-12.8 215.2,-12.7 208.7,-69.3 	"/>
</g>
<g id="Layer_8">
	<g id="BOOUm1.tif">
		<g>
			<path class="st17" d="M27,18.4c1.5,0,3,0,4.5,0c1,0.8,1.5,1.9,1.7,3.2c0.2,1.2,0.9,1.9,2,2.4c0.8,0.3,1.6,0.6,2.3,1
				c1.8,1.1,3.5,0.6,5.2-0.4c1.7-1,2.2-1,3.6,0.4c0.4,0.4,0.7,0.7,1.1,1.1c1.5,1.5,1.6,2.5,0.4,4.3c-0.5,0.7-1,1.4-0.8,2.2
				c0.5,1.9,1.1,3.8,2.2,5.4c0.8,1.1,2.2,1.3,3.5,1.6c1.4,0.3,1.8,1.4,1.7,2.6c-0.1,1.7,0.7,3.8-1.3,5c-0.3,0.2-0.7,0.2-1.1,0.3
				c-1,0.3-2,0.6-2.8,1.3c-2,2.1-2.4,5.8-0.8,8.3c0.7,1.1,0.6,2-0.2,2.9c-0.4,0.5-0.8,0.9-1.3,1.3c-1.7,1.7-2.6,1.8-4.6,0.5
				c-1.2-0.8-2.3-0.9-3.6-0.3c-0.6,0.3-1.2,0.6-1.8,0.7c-2.3,0.6-3.4,2.1-3.7,4.3c-0.2,1.3-1,1.9-2.3,2c-0.6,0-1.1,0-1.7,0
				c-2.5,0-3.3-0.6-3.7-3c-0.1-0.7-0.3-1.3-0.9-1.7c-1.6-1.2-3.6-1.9-5.5-2.4c-1.3-0.3-2.4,0.6-3.5,1.3c-1,0.7-1.9,0.5-2.8-0.2
				c-0.5-0.4-0.9-0.8-1.3-1.3c-1.8-1.8-1.9-2.6-0.5-4.7c0.7-1.1,0.8-2.2,0.4-3.3c-0.3-0.7-0.6-1.4-0.8-2.1c-0.6-2.3-2.2-3.3-4.3-3.7
				c-0.6-0.1-1.2-0.3-1.5-0.9c-1.5-2.4-0.2-6.1,2.6-6.8c1.3-0.3,2.2-1,2.6-2.3c0.2-0.6,0.4-1.3,0.8-1.8c1.2-2,0.9-3.9-0.5-5.8
				c-0.8-1.1-0.6-2,0.2-2.9c0.4-0.5,0.8-0.9,1.3-1.3c1.7-1.6,2.6-1.8,4.6-0.5c1.1,0.8,2.2,0.9,3.4,0.4c0.7-0.3,1.4-0.7,2.1-0.8
				c2.2-0.5,3.2-2.1,3.6-4.2C25.6,19.4,26.1,18.8,27,18.4z M29.3,52.2c5,0,8.9-3.9,8.9-8.9c0-4.8-4.1-8.8-8.9-8.8
				c-4.8,0-8.7,4-8.7,8.8C20.6,48.3,24.4,52.2,29.3,52.2z"/>
		</g>
	</g>
	<g id="BOOUm1.tif_1_">
		<g>
			<path class="st17" d="M51.6,4.3c0.7-0.2,1.3-0.5,2-0.7c0.6,0.2,1,0.6,1.2,1.1c0.3,0.5,0.7,0.7,1.2,0.7c0.4,0,0.8,0,1.2,0
				c1,0.2,1.6-0.3,2.2-1C60,3.7,60.2,3.7,61,4c0.2,0.1,0.4,0.2,0.7,0.3c0.9,0.4,1.1,0.8,0.9,1.8c-0.1,0.4-0.2,0.8,0,1.1
				c0.5,0.8,1.1,1.5,1.9,2c0.5,0.4,1.2,0.2,1.8,0.1c0.6-0.1,1,0.3,1.2,0.8c0.2,0.8,0.9,1.5,0.2,2.4c-0.1,0.1-0.3,0.2-0.4,0.3
				c-0.4,0.3-0.8,0.6-1,1c-0.5,1.2-0.1,2.9,1,3.7c0.5,0.4,0.6,0.8,0.4,1.3c-0.1,0.3-0.2,0.5-0.3,0.8c-0.5,1-0.8,1.2-1.9,1
				c-0.6-0.1-1.2,0-1.6,0.4c-0.2,0.2-0.4,0.4-0.7,0.6c-0.9,0.6-1.1,1.4-0.9,2.5c0.1,0.6-0.1,1-0.7,1.2c-0.2,0.1-0.5,0.2-0.7,0.3
				c-1.1,0.4-1.5,0.3-2.1-0.7c-0.2-0.3-0.4-0.5-0.7-0.6c-0.9-0.3-1.9-0.3-2.8-0.1c-0.6,0.1-1,0.6-1.3,1.1c-0.3,0.5-0.8,0.5-1.3,0.4
				c-0.3-0.1-0.5-0.2-0.8-0.3c-1.1-0.5-1.2-0.8-1-1.9c0.1-0.6,0-1.1-0.4-1.5c-0.2-0.3-0.5-0.5-0.7-0.8c-0.6-0.9-1.5-1.1-2.5-0.9
				c-0.3,0.1-0.6,0.1-0.8-0.1c-1.1-0.8-1.1-2.6,0-3.4c0.5-0.3,0.8-0.8,0.8-1.4c0-0.3,0-0.6,0-0.9c0.2-1.1-0.3-1.9-1.1-2.4
				c-0.5-0.3-0.6-0.8-0.4-1.3c0.1-0.3,0.2-0.5,0.3-0.8C46.6,9,47,8.7,48.1,9c0.6,0.1,1.1,0,1.6-0.4c0.2-0.2,0.5-0.5,0.8-0.7
				c0.9-0.6,1.1-1.5,0.8-2.4C51.2,5,51.3,4.7,51.6,4.3z M58.1,18.6c2.1-0.8,3.2-3.2,2.4-5.3c-0.8-2.1-3.2-3.1-5.3-2.3
				c-2.1,0.8-3.1,3.1-2.3,5.3C53.7,18.4,56,19.4,58.1,18.6z"/>
		</g>
	</g>
</g>
</svg>
