<?xml version="1.0" encoding="UTF-8"?>
<svg id="Capa_2" data-name="Capa 2" xmlns="http://www.w3.org/2000/svg" viewBox="0 0 72 72">
  <defs>
    <style>
      .cls-1 {
        fill: #fff;
      }

      .cls-2 {
        fill: none;
      }
    </style>
  </defs>
  <g id="Capa_8" data-name="Capa 8">
    <g>
      <rect class="cls-2" width="72" height="72"/>
      <path class="cls-1" d="m69.97,22.38H29.1c-1.12,0-2.03.98-2.03,2.19v23.58c0,1.21.91,2.19,2.03,2.19h40.86c1.12,0,2.03-.98,2.03-2.19v-23.58c0-1.21-.91-2.19-2.03-2.19Zm-11.9,24.93c0,.24-.18.43-.4.43h-16.27c-.22,0-.4-.19-.4-.43v-1.58c0-.24.18-.43.4-.43h16.27c.22,0,.4.19.4.43v1.58Zm8.22-5.39c0,1.21-.91,2.19-2.03,2.19h-29.45c-1.12,0-2.03-.98-2.03-2.19v-14.06c0-1.21.91-2.19,2.03-2.19h29.45c1.12,0,2.03.98,2.03,2.19v14.06Z"/>
    </g>
  </g>
</svg>