<?xml version="1.0" encoding="UTF-8"?>
<svg id="Capa_2" data-name="Capa 2" xmlns="http://www.w3.org/2000/svg" viewBox="0 0 72 72">
  <defs>
    <style>
      .cls-1 {
        fill: #fff;
      }

      .cls-2 {
        fill: none;
      }
    </style>
  </defs>
  <g id="Capa_8" data-name="Capa 8">
    <g>
      <rect class="cls-2" y="0" width="72" height="72"/>
      <path class="cls-1" d="m.11.51C.3.15.59-.04.99,0l36.75.07c.23-.01.4.05.59.18s.31.26.39.48c.14.36.11.73-.18,1.08l-21.23,22.58c-.25.21-.53.3-.79.29-.2-.03-.34-.06-.49-.16-.11-.08-.23-.15-.28-.24l-6.01-8.77-3.67,1.74c-.36.14-.69.14-1.03-.09s-.46-.53-.48-.92l.53-7.55L.23,1.63C-.05,1.22-.06.84.11.51H.11Zm2.84,1.46l3.73,5.5c.01.06.02.13.07.21l.05.09L31.33,2.07l-28.39-.09Zm4.12,6.79l-.4,5.73L34.59,2.34,7.06,8.76Zm3.83,5.02c.2.19.33.33.45.47l5.25,7.71L33.54,3.98,10.9,13.78Z"/>
    </g>
  </g>
</svg>