<?xml version="1.0" encoding="UTF-8"?>
<svg id="Capa_2" data-name="Capa 2" xmlns="http://www.w3.org/2000/svg" viewBox="0 0 72 72">
  <defs>
    <style>
      .cls-1 {
        fill: #fff;
      }

      .cls-2 {
        fill: none;
      }
    </style>
  </defs>
  <g id="Toolbar">
    <g>
      <rect class="cls-2" width="72" height="72"/>
      <g>
        <path class="cls-1" d="M56.91,49.31c0,.24-.18.43-.4.43h-16.27c-.22,0-.4-.19-.4-.43v-1.58c0-.24.18-.43.4-.43h16.27c.22,0,.4.19.4.43v1.58Z"/>
        <path class="cls-1" d="M65.13,43.92c0,1.21-.91,2.19-2.03,2.19h-29.45c-1.12,0-2.03-.98-2.03-2.19v-14.06c0-1.21.91-2.19,2.03-2.19h29.45c1.12,0,2.03.98,2.03,2.19v14.06Z"/>
        <path class="cls-1" d="M68.8,24.38c1.1,0,2,.9,2,2v23.95c0,1.1-.9,2-2,2H27.91c-1.1,0-2-.9-2-2v-23.95c0-1.1.9-2,2-2h40.89M68.8,23.18H27.91c-1.76,0-3.2,1.44-3.2,3.2v23.95c0,1.76,1.44,3.2,3.2,3.2h40.89c1.76,0,3.2-1.44,3.2-3.2v-23.95c0-1.76-1.44-3.2-3.2-3.2h0Z"/>
      </g>
    </g>
  </g>
</svg>