<?xml version="1.0" encoding="UTF-8"?>
<svg id="Capa_2" data-name="Capa 2" xmlns="http://www.w3.org/2000/svg" viewBox="0 0 72 72">
  <defs>
    <style>
      .cls-1 {
        fill: #fff;
      }

      .cls-2 {
        fill: none;
      }
    </style>
  </defs>
  <g id="Toolbar">
    <g>
      <rect class="cls-2" width="72" height="72"/>
      <path class="cls-1" d="M64.41,42.24h-.25v-10.68c0-7.9-6.43-14.34-14.34-14.34s-14.34,6.43-14.34,14.34v10.68h-.83c-2.4,0-4.34,1.94-4.34,4.34v20.14c0,2.39,1.94,4.34,4.34,4.34h29.75c2.4,0,4.34-1.94,4.34-4.34v-20.14c0-2.39-1.94-4.34-4.34-4.34ZM40.29,31.56c0-5.26,4.28-9.53,9.53-9.53s9.53,4.28,9.53,9.53v10.68h-19.07v-10.68ZM49.53,63.21c-1.83,0-3.32-1.49-3.32-3.32,0-.9.37-1.71.95-2.31v-5.12c0-1.31,1.06-2.37,2.37-2.37s2.37,1.06,2.37,2.37v5.12c.58.6.95,1.41.95,2.31,0,1.83-1.49,3.32-3.32,3.32Z"/>
    </g>
  </g>
</svg>