<svg xmlns="http://www.w3.org/2000/svg" xml:space="preserve" id="Layer_1" width="72" height="72" x="0" y="0" version="1.1">
    <style id="style873" type="text/css">
        .st1{fill:#4b2c6d}.st2{fill:#5ecbf1}
    </style>
    <path id="path877-3" d="M50.922.301H21.078C9.763.803.739 9.417.302 21.077V50.92C.78 62.411 9.766 71.246 21.078 71.697H50.92c11.448-.331 20.533-9.834 20.776-20.776V21.077C71.342 10.284 62.925.735 50.922.301" class="st1" style="fill:#fff;fill-opacity:1"/>
    <path id="path877-1" d="M49.669 3.302H22.33c-10.857-.379-19.4 8.495-19.03 19.03V49.67c-.348 10.622 8.402 19.389 19.03 19.032h27.337c10.788.164 19.345-8.21 19.03-19.03v-27.34c.28-10.837-8.471-19.314-19.03-19.031Z" class="st1" style="fill:#4b2c6d;fill-opacity:.99611115"/>
    <path id="path879" d="M34.7 12.607h-.137c-11.423.992-20.52 10.123-21.546 21.546v.24c0 .752.616 1.334 1.334 1.334s1.3-.581 1.334-1.265c.855-10.157 8.96-18.263 19.084-19.152a1.333 1.333 0 0 0 1.265-1.265v-.068c.034-.788-.581-1.37-1.334-1.37" class="st2"/>
    <path id="path881" d="M34.7 17.908h-.171c-8.584.992-15.39 7.969-16.211 16.279v.171c0 .752.616 1.334 1.334 1.334s1.3-.581 1.334-1.265v-.034c.855-7.25 6.566-12.996 13.783-13.851a1.333 1.333 0 0 0 1.265-1.265v-.068c.034-.719-.581-1.301-1.334-1.301" class="st2"/>
    <path id="path883" d="M34.7 23.243c-.068 0-.171 0-.239.034-5.506.923-9.85 5.301-10.773 10.807v.034c0 .068-.034.205-.034.239 0 .752.581 1.334 1.334 1.334h.171c.616-.068 1.129-.581 1.163-1.197v-.137c.787-4.275 4.172-7.661 8.482-8.447h.068c.65-.068 1.163-.616 1.163-1.265v-.068c.033-.718-.582-1.334-1.335-1.334" class="st2"/>
    <path id="path883-3" d="m49.748 55.802-3.659-3.659c-2.736 1.642-5.951 2.565-9.371 2.565-9.508 0-17.374-7.216-18.331-16.484h7.969a10.52 10.52 0 0 0 11.423 8.55 9.4 9.4 0 0 0 2.394-.547l-3.728-3.728 5.609-5.609 4.07 4.036c.547-1.129.923-2.36 1.06-3.659.547-5.643-3.352-10.465-8.584-11.389v-7.969c9.268.958 16.519 8.789 16.519 18.331 0 3.865-1.197 7.49-3.249 10.431l3.488 3.488z" class="st2" style="fill:#fff;fill-opacity:1"/>
</svg>
