<svg xmlns="http://www.w3.org/2000/svg" width="1221.333" height="1306.667" version="1.0" viewBox="0 0 916 980">
    <g fill="#5e5e5e">
        <path d="M247 1.6c-17.4 3.7-34.4 16.8-42.8 33-7 13.6-7.2 15.3-7.2 63.4s.2 49.8 7.2 63.4C215 182.2 237.6 196 261 196c29.1 0 55.2-20.6 62.5-49.5 2.2-8.7 2.2-88.3 0-97-8.7-34.2-42.4-55.3-76.5-47.9M639 1.6c-17.4 3.7-34.4 16.8-42.8 33-7 13.6-7.2 15.3-7.2 63.4s.2 49.8 7.2 63.4C607 182.2 629.6 196 653 196c29.1 0 55.2-20.6 62.5-49.5 2.2-8.7 2.2-88.3 0-97-8.7-34.2-42.4-55.3-76.5-47.9"/>
        <path d="M54.1 99.1c-23.7 4-45.9 25.1-51.5 48.9C1.2 153.8 1 196 1 522.6c0 328.5.2 369.1 1.6 376.4 6.3 33.6 27.1 66.8 48.2 77.2l6.7 3.3h801l6.9-3.4c21-10.3 41.7-43.6 48-77.1 1.4-7.3 1.6-47.9 1.6-376.4 0-407.6.5-373.8-6.6-388.1-6.5-13.4-17.5-24-31.1-30.3-12.9-6-15.4-6.2-72.9-6.2h-52.2l-.4 24.2c-.5 26.6-1.4 31.8-7.8 47.1-16.1 38.6-58.6 63.6-100.2 58.7-44-5.1-78.8-37.7-86.3-80.7-1-5.7-1.5-15.3-1.5-28.9V98H360v20.4c0 23-1.3 32.7-6 45.8-10.9 30-36.4 53.2-67.7 61.5-13.5 3.5-33.5 3.7-46.7.5-36-8.9-62.8-35.4-72.8-72-1.8-6.5-2.2-11.4-2.6-32l-.4-24.2-52.2.1c-28.6.1-54.5.5-57.5 1M817 604.5V882H99V327h718z"/>
        <path d="M164 441v49h98v-98h-98zM327 441v49h98v-98h-98zM491 441v49h98v-98h-98zM654 441v49h98v-98h-98zM164 604v49h98v-98h-98zM327.7 555.7c-.4.3-.7 22.4-.7 49V653h98v-98h-48.3c-26.6 0-48.7.3-49 .7M491 604v49h98l-.2-48.8-.3-48.7-48.7-.3-48.8-.2zM654 604v49h98v-98h-98zM164 768v49h98v-98h-98zM327.2 767.7l.3 48.8 48.8.3 48.7.2v-98h-98zM491 768v49l48.8-.2 48.7-.3.3-48.8.2-48.7h-98zM654 768v49h98v-98h-98z"/>
    </g>
</svg>
