<svg version="1.0" xmlns="http://www.w3.org/2000/svg" width="916.000000pt" height="980.000000pt" viewBox="0 0 916.000000 980.000000" preserveAspectRatio="xMidYMid meet">

<g transform="translate(0.000000,980.000000) scale(0.100000,-0.100000)" fill="#5e5e5e" stroke="none">
<path d="M2470 9784 c-174 -37 -344 -168 -428 -330 -70 -136 -72 -153 -72 -634 0 -481 2 -498 72 -634 108 -208 334 -346 568 -346 291 0 552 206 625 495 22 87 22 883 0 970 -87 342 -424 553 -765 479z" fill="#5e5e5e"/>
<path d="M6390 9784 c-174 -37 -344 -168 -428 -330 -70 -136 -72 -153 -72 -634 0 -481 2 -498 72 -634 108 -208 334 -346 568 -346 291 0 552 206 625 495 22 87 22 883 0 970 -87 342 -424 553 -765 479z" fill="#5e5e5e"/>
<path d="M541 8809 c-237 -40 -459 -251 -515 -489 -14 -58 -16 -480 -16 -3746 0 -3285 2 -3691 16 -3764 63 -336 271 -668 482 -772 l67 -33 4005 0 4005 0 69 34 c210 103 417 436 480 771 14 73 16 479 16 3764 0 4076 5 3738 -66 3881 -65 134 -175 240 -311 303 -129 60 -154 62 -729 62 l-522 0 -4 -242 c-5 -266 -14 -318 -78 -471 -161 -386 -586 -636 -1002 -587 -440 51 -788 377 -863 807 -10 57 -15 153 -15 289 l0 204 -980 0 -980 0 0 -204 c0 -230 -13 -327 -60 -458 -109 -300 -364 -532 -677 -615 -135 -35 -335 -37 -467 -5 -360 89 -628 354 -728 720 -18 65 -22 114 -26 320 l-4 242 -522 -1 c-286 -1 -545 -5 -575 -10z m7629 -5054 l0 -2775 -3590 0 -3590 0 0 2775 0 2775 3590 0 3590 0 0 -2775z" fill="#5e5e5e"/>
<path d="M1640 5390 l0 -490 490 0 490 0 0 490 0 490 -490 0 -490 0 0 -490z" fill="#5e5e5e"/>
<path d="M3270 5390 l0 -490 490 0 490 0 0 490 0 490 -490 0 -490 0 0 -490z" fill="#5e5e5e"/>
<path d="M4910 5390 l0 -490 490 0 490 0 0 490 0 490 -490 0 -490 0 0 -490z" fill="#5e5e5e"/>
<path d="M6540 5390 l0 -490 490 0 490 0 0 490 0 490 -490 0 -490 0 0 -490z" fill="#5e5e5e"/>
<path d="M1640 3760 l0 -490 490 0 490 0 0 490 0 490 -490 0 -490 0 0 -490z" fill="#5e5e5e"/>
<path d="M3277 4243 c-4 -3 -7 -224 -7 -490 l0 -483 490 0 490 0 0 490 0 490 -483 0 c-266 0 -487 -3 -490 -7z" fill="#5e5e5e"/>
<path d="M4910 3760 l0 -490 490 0 490 0 -2 488 -3 487 -487 3 -488 2 0 -490z" fill="#5e5e5e"/>
<path d="M6540 3760 l0 -490 490 0 490 0 0 490 0 490 -490 0 -490 0 0 -490z" fill="#5e5e5e"/>
<path d="M1640 2120 l0 -490 490 0 490 0 0 490 0 490 -490 0 -490 0 0 -490z" fill="#5e5e5e"/>
<path d="M3272 2123 l3 -488 488 -3 487 -2 0 490 0 490 -490 0 -490 0 2 -487z" fill="#5e5e5e"/>
<path d="M4910 2120 l0 -490 488 2 487 3 3 488 2 487 -490 0 -490 0 0 -490z" fill="#5e5e5e"/>
<path d="M6540 2120 l0 -490 490 0 490 0 0 490 0 490 -490 0 -490 0 0 -490z" fill="#5e5e5e"/>
</g>
</svg>