<svg version="1.0" xmlns="http://www.w3.org/2000/svg" width="888.000000pt" height="982.000000pt" viewBox="0 0 888.000000 982.000000" preserveAspectRatio="xMidYMid meet">

<g transform="translate(0.000000,982.000000) scale(0.100000,-0.100000)" fill="#5c5c5c" stroke="none">
<path d="M3300 9794 c-311 -6 -667 -12 -791 -13 -176 -1 -235 -4 -271 -17 -91 -31 -148 -115 -190 -281 -20 -77 -23 -113 -22 -293 0 -178 3 -215 22 -285 46 -169 121 -276 211 -303 21 -7 97 -12 170 -12 l131 0 0 -134 0 -133 -38 -7 c-22 -3 -56 -17 -77 -32 -22 -15 -92 -41 -162 -60 -228 -62 -498 -180 -708 -308 l-103 -63 -97 88 c-79 73 -107 92 -152 105 -96 28 -187 1 -256 -75 -40 -45 -57 -93 -57 -166 1 -73 31 -131 107 -201 l66 -62 -102 -111 c-131 -145 -191 -221 -295 -373 -848 -1243 -917 -3228 -164 -4732 130 -260 252 -459 418 -681 130 -176 214 -272 388 -448 655 -662 1460 -1047 2432 -1164 181 -22 675 -24 850 -4 856 97 1668 424 2375 957 748 563 1338 1319 1654 2119 414 1046 287 2129 -362 3105 -228 342 -567 714 -877 960 -36 28 -69 55 -73 59 -4 4 26 58 67 120 120 177 216 384 232 498 13 103 -17 153 -180 292 -241 205 -480 370 -751 518 -151 82 -192 97 -250 90 -84 -9 -128 -41 -233 -165 -54 -65 -126 -157 -160 -205 -59 -83 -196 -303 -204 -329 -3 -8 -63 5 -199 44 -162 47 -460 116 -611 142 l-38 7 0 194 0 193 188 4 c169 3 191 5 227 25 89 48 128 119 144 263 47 429 31 602 -71 762 -24 37 -53 66 -84 84 -43 25 -59 28 -188 35 -208 11 -1269 8 -1916 -7z m1629 -481 l152 -6 -3 -91 -3 -91 -620 -6 c-341 -4 -816 -12 -1055 -18 -239 -5 -529 -12 -645 -13 l-210 -3 -7 50 c-3 28 -7 74 -7 103 l-1 52 153 1 c83 1 433 7 777 13 744 15 1260 18 1469 9z m-419 -846 l0 -163 -137 12 c-259 23 -569 34 -941 34 l-372 0 0 124 0 124 223 7 c210 6 855 20 1110 23 l117 2 0 -163z m2205 -395 c106 -68 360 -255 370 -272 12 -19 -156 -287 -173 -276 -4 2 -50 30 -102 62 -52 31 -188 105 -303 164 l-207 107 56 89 c30 49 81 123 112 166 l57 76 45 -25 c25 -14 90 -55 145 -91z m-3105 -232 c1613 -71 2876 -470 3701 -1170 695 -590 1069 -1421 1069 -2374 0 -437 -87 -828 -277 -1252 -569 -1269 -2041 -2317 -3538 -2520 -163 -23 -658 -26 -805 -6 -578 79 -1026 244 -1485 546 -205 135 -378 278 -570 470 -314 315 -549 642 -755 1054 -235 471 -382 984 -447 1564 -24 216 -24 733 0 946 81 712 292 1289 644 1761 94 125 333 373 449 463 177 140 419 278 633 362 174 69 434 135 604 155 103 12 514 12 777 1z" fill="#5c5c5c"/>
<path d="M3373 7660 c-625 -47 -1140 -236 -1558 -573 -111 -90 -305 -292 -397 -415 -286 -380 -469 -872 -517 -1392 -14 -147 -14 -652 -1 -852 35 -509 117 -888 306 -1395 216 -580 463 -992 799 -1328 419 -420 941 -678 1570 -777 193 -31 709 -33 910 -5 292 42 581 112 831 203 1010 366 1826 1088 2269 2007 317 659 394 1356 220 1992 -47 172 -95 296 -180 470 -368 750 -1084 1352 -2025 1703 -332 124 -857 256 -1241 312 -325 48 -733 68 -986 50z m804 -489 c938 -121 1807 -492 2448 -1044 468 -402 731 -843 811 -1357 20 -126 22 -414 5 -545 -55 -420 -211 -819 -476 -1220 -573 -868 -1471 -1470 -2415 -1619 -257 -41 -596 -45 -828 -11 -794 115 -1429 556 -1846 1279 -439 761 -635 1742 -517 2584 95 669 395 1251 837 1618 169 141 679 291 1134 334 169 16 664 5 847 -19z" fill="#5c5c5c"/>
<path d="M3962 6899 c-26 -13 -55 -39 -70 -62 l-27 -41 1 -240 c1 -274 17 -414 54 -466 12 -17 45 -42 73 -56 43 -22 61 -25 118 -22 57 3 74 8 106 34 21 17 49 50 61 75 22 41 23 51 17 144 -4 55 -10 195 -14 310 -7 223 -11 245 -63 291 -64 59 -175 73 -256 33z" fill="#5c5c5c"/>
<path d="M2365 5812 c-74 -36 -115 -97 -115 -171 0 -46 21 -81 210 -357 457 -666 817 -1118 1210 -1518 302 -307 600 -568 667 -584 21 -5 59 -14 86 -20 69 -17 120 -15 190 9 93 31 168 81 244 163 94 101 142 196 156 310 13 109 10 116 -119 277 -429 540 -974 1028 -1633 1464 -213 141 -556 347 -680 407 -80 40 -158 47 -216 20z m1100 -1042 c414 -311 747 -624 1047 -985 59 -71 108 -134 108 -139 0 -18 -100 -106 -120 -106 -46 0 -498 421 -743 693 -188 208 -577 687 -621 765 -12 20 110 -64 329 -228z" fill="#5c5c5c"/>
<path d="M6057 4389 c-114 -60 -132 -259 -31 -348 47 -42 82 -48 289 -55 124 -3 209 -12 275 -25 154 -33 204 -26 267 39 95 97 81 269 -27 329 -87 48 -316 81 -563 81 -152 -1 -176 -3 -210 -21z" fill="#5c5c5c"/>
<path d="M1864 4131 c-119 -55 -156 -217 -74 -329 50 -70 71 -73 417 -70 l301 3 39 31 c60 49 78 88 78 169 0 86 -24 137 -84 180 l-43 30 -296 3 c-273 2 -300 1 -338 -17z" fill="#5c5c5c"/>
</g>
</svg>