<svg xmlns="http://www.w3.org/2000/svg" width="1184" height="1309.333" version="1.0" viewBox="0 0 888 982">
    <g fill="#5c5c5c">
        <path d="M330 2.6c-31.1.6-66.7 1.2-79.1 1.3-17.6.1-23.5.4-27.1 1.7-9.1 3.1-14.8 11.5-19 28.1-2 7.7-2.3 11.3-2.2 29.3 0 17.8.3 21.5 2.2 28.5 4.6 16.9 12.1 27.6 21.1 30.3 2.1.7 9.7 1.2 17 1.2H256v26.7l-3.8.7c-2.2.3-5.6 1.7-7.7 3.2-2.2 1.5-9.2 4.1-16.2 6-22.8 6.2-49.8 18-70.8 30.8l-10.3 6.3-9.7-8.8c-7.9-7.3-10.7-9.2-15.2-10.5-9.6-2.8-18.7-.1-25.6 7.5-4 4.5-5.7 9.3-5.7 16.6.1 7.3 3.1 13.1 10.7 20.1l6.6 6.2-10.2 11.1C85 253.4 79 261 68.6 276.2-16.2 400.5-23.1 599 52.2 749.4c13 26 25.2 45.9 41.8 68.1 13 17.6 21.4 27.2 38.8 44.8 65.5 66.2 146 104.7 243.2 116.4 18.1 2.2 67.5 2.4 85 .4 85.6-9.7 166.8-42.4 237.5-95.7 74.8-56.3 133.8-131.9 165.4-211.9 41.4-104.6 28.7-212.9-36.2-310.5-22.8-34.2-56.7-71.4-87.7-96-3.6-2.8-6.9-5.5-7.3-5.9s2.6-5.8 6.7-12c12-17.7 21.6-38.4 23.2-49.8 1.3-10.3-1.7-15.3-18-29.2-24.1-20.5-48-37-75.1-51.8-15.1-8.2-19.2-9.7-25-9-8.4.9-12.8 4.1-23.3 16.5-5.4 6.5-12.6 15.7-16 20.5-5.9 8.3-19.6 30.3-20.4 32.9-.3.8-6.3-.5-19.9-4.4-16.2-4.7-46-11.6-61.1-14.2l-3.8-.7v-38.7l18.8-.4c16.9-.3 19.1-.5 22.7-2.5 8.9-4.8 12.8-11.9 14.4-26.3 4.7-42.9 3.1-60.2-7.1-76.2-2.4-3.7-5.3-6.6-8.4-8.4-4.3-2.5-5.9-2.8-18.8-3.5-20.8-1.1-126.9-.8-191.6.7m162.9 48.1 15.2.6-.3 9.1-.3 9.1-62 .6c-34.1.4-81.6 1.2-105.5 1.8-23.9.5-52.9 1.2-64.5 1.3l-21 .3-.7-5c-.3-2.8-.7-7.4-.7-10.3L253 53l15.3-.1c8.3-.1 43.3-.7 77.7-1.3 74.4-1.5 126-1.8 146.9-.9M451 135.3v16.3l-13.7-1.2c-25.9-2.3-56.9-3.4-94.1-3.4H306v-24.8l22.3-.7c21-.6 85.5-2 111-2.3l11.7-.2zm220.5 39.5c10.6 6.8 36 25.5 37 27.2 1.2 1.9-15.6 28.7-17.3 27.6-.4-.2-5-3-10.2-6.2-5.2-3.1-18.8-10.5-30.3-16.4L630 196.3l5.6-8.9c3-4.9 8.1-12.3 11.2-16.6l5.7-7.6 4.5 2.5c2.5 1.4 9 5.5 14.5 9.1M361 198c161.3 7.1 287.6 47 370.1 117C800.6 374 838 457.1 838 552.4c0 43.7-8.7 82.8-27.7 125.2-56.9 126.9-204.1 231.7-353.8 252-16.3 2.3-65.8 2.6-80.5.6-57.8-7.9-102.6-24.4-148.5-54.6-20.5-13.5-37.8-27.8-57-47-31.4-31.5-54.9-64.2-75.5-105.4-23.5-47.1-38.2-98.4-44.7-156.4-2.4-21.6-2.4-73.3 0-94.6 8.1-71.2 29.2-128.9 64.4-176.1 9.4-12.5 33.3-37.3 44.9-46.3 17.7-14 41.9-27.8 63.3-36.2 17.4-6.9 43.4-13.5 60.4-15.5 10.3-1.2 51.4-1.2 77.7-.1"/>
        <path d="M337.3 216c-62.5 4.7-114 23.6-155.8 57.3-11.1 9-30.5 29.2-39.7 41.5-28.6 38-46.9 87.2-51.7 139.2-1.4 14.7-1.4 65.2-.1 85.2 3.5 50.9 11.7 88.8 30.6 139.5 21.6 58 46.3 99.2 79.9 132.8 41.9 42 94.1 67.8 157 77.7 19.3 3.1 70.9 3.3 91 .5 29.2-4.2 58.1-11.2 83.1-20.3 101-36.6 182.6-108.8 226.9-200.7 31.7-65.9 39.4-135.6 22-199.2-4.7-17.2-9.5-29.6-18-47-36.8-75-108.4-135.2-202.5-170.3-33.2-12.4-85.7-25.6-124.1-31.2-32.5-4.8-73.3-6.8-98.6-5m80.4 48.9c93.8 12.1 180.7 49.2 244.8 104.4 46.8 40.2 73.1 84.3 81.1 135.7 2 12.6 2.2 41.4.5 54.5-5.5 42-21.1 81.9-47.6 122-57.3 86.8-147.1 147-241.5 161.9-25.7 4.1-59.6 4.5-82.8 1.1-79.4-11.5-142.9-55.6-184.6-127.9-43.9-76.1-63.5-174.2-51.7-258.4 9.5-66.9 39.5-125.1 83.7-161.8 16.9-14.1 67.9-29.1 113.4-33.4 16.9-1.6 66.4-.5 84.7 1.9"/>
        <path d="M396.2 292.1c-2.6 1.3-5.5 3.9-7 6.2l-2.7 4.1.1 24c.1 27.4 1.7 41.4 5.4 46.6 1.2 1.7 4.5 4.2 7.3 5.6 4.3 2.2 6.1 2.5 11.8 2.2s7.4-.8 10.6-3.4c2.1-1.7 4.9-5 6.1-7.5 2.2-4.1 2.3-5.1 1.7-14.4-.4-5.5-1-19.5-1.4-31-.7-22.3-1.1-24.5-6.3-29.1-6.4-5.9-17.5-7.3-25.6-3.3M236.5 400.8c-7.4 3.6-11.5 9.7-11.5 17.1 0 4.6 2.1 8.1 21 35.7 45.7 66.6 81.7 111.8 121 151.8 30.2 30.7 60 56.8 66.7 58.4 2.1.5 5.9 1.4 8.6 2 6.9 1.7 12 1.5 19-.9 9.3-3.1 16.8-8.1 24.4-16.3 9.4-10.1 14.2-19.6 15.6-31 1.3-10.9 1-11.6-11.9-27.7-42.9-54-97.4-102.8-163.3-146.4-21.3-14.1-55.6-34.7-68-40.7-8-4-15.8-4.7-21.6-2m110 104.2c41.4 31.1 74.7 62.4 104.7 98.5 5.9 7.1 10.8 13.4 10.8 13.9 0 1.8-10 10.6-12 10.6-4.6 0-49.8-42.1-74.3-69.3-18.8-20.8-57.7-68.7-62.1-76.5-1.2-2 11 6.4 32.9 22.8M605.7 543.1c-11.4 6-13.2 25.9-3.1 34.8 4.7 4.2 8.2 4.8 28.9 5.5 12.4.3 20.9 1.2 27.5 2.5 15.4 3.3 20.4 2.6 26.7-3.9 9.5-9.7 8.1-26.9-2.7-32.9-8.7-4.8-31.6-8.1-56.3-8.1-15.2.1-17.6.3-21 2.1M186.4 568.9c-11.9 5.5-15.6 21.7-7.4 32.9 5 7 7.1 7.3 41.7 7l30.1-.3 3.9-3.1c6-4.9 7.8-8.8 7.8-16.9 0-8.6-2.4-13.7-8.4-18l-4.3-3-29.6-.3c-27.3-.2-30-.1-33.8 1.7"/>
    </g>
</svg>
