<?xml version="1.0" encoding="UTF-8" standalone="no"?>
<!-- Created with Inkscape (http://www.inkscape.org/) -->
<svg
   xmlns:dc="http://purl.org/dc/elements/1.1/"
   xmlns:cc="http://creativecommons.org/ns#"
   xmlns:rdf="http://www.w3.org/1999/02/22-rdf-syntax-ns#"
   xmlns:svg="http://www.w3.org/2000/svg"
   xmlns="http://www.w3.org/2000/svg"
   xmlns:xlink="http://www.w3.org/1999/xlink"
   xmlns:sodipodi="http://sodipodi.sourceforge.net/DTD/sodipodi-0.dtd"
   xmlns:inkscape="http://www.inkscape.org/namespaces/inkscape"
   inkscape:export-ydpi="240.00000"
   inkscape:export-xdpi="240.00000"
   inkscape:export-filename="/home/jimmac/gfx/novell/pdes/trunk/docs/BIGmime-text.png"
   sodipodi:docname="text-x-script.svg"
   sodipodi:docbase="/home/jimmac/src/cvs/tango-icon-theme/scalable/mimetypes"
   inkscape:version="0.46"
   sodipodi:version="0.32"
   id="svg249"
   height="48.000000px"
   width="48.000000px"
   inkscape:output_extension="org.inkscape.output.svg.inkscape">
  <defs
     id="defs3">
    <inkscape:perspective
       sodipodi:type="inkscape:persp3d"
       inkscape:vp_x="0 : 24 : 1"
       inkscape:vp_y="0 : 1000 : 0"
       inkscape:vp_z="48 : 24 : 1"
       inkscape:persp3d-origin="24 : 16 : 1"
       id="perspective76" />
    <radialGradient
       inkscape:collect="always"
       xlink:href="#linearGradient5060"
       id="radialGradient6719"
       gradientUnits="userSpaceOnUse"
       gradientTransform="matrix(-2.774389,0,0,1.969706,112.7623,-872.8854)"
       cx="605.71429"
       cy="486.64789"
       fx="605.71429"
       fy="486.64789"
       r="117.14286" />
    <linearGradient
       inkscape:collect="always"
       id="linearGradient5060">
      <stop
         style="stop-color:black;stop-opacity:1;"
         offset="0"
         id="stop5062" />
      <stop
         style="stop-color:black;stop-opacity:0;"
         offset="1"
         id="stop5064" />
    </linearGradient>
    <radialGradient
       inkscape:collect="always"
       xlink:href="#linearGradient5060"
       id="radialGradient6717"
       gradientUnits="userSpaceOnUse"
       gradientTransform="matrix(2.774389,0,0,1.969706,-1891.633,-872.8854)"
       cx="605.71429"
       cy="486.64789"
       fx="605.71429"
       fy="486.64789"
       r="117.14286" />
    <linearGradient
       id="linearGradient5048">
      <stop
         style="stop-color:black;stop-opacity:0;"
         offset="0"
         id="stop5050" />
      <stop
         id="stop5056"
         offset="0.5"
         style="stop-color:black;stop-opacity:1;" />
      <stop
         style="stop-color:black;stop-opacity:0;"
         offset="1"
         id="stop5052" />
    </linearGradient>
    <linearGradient
       inkscape:collect="always"
       xlink:href="#linearGradient5048"
       id="linearGradient6715"
       gradientUnits="userSpaceOnUse"
       gradientTransform="matrix(2.774389,0,0,1.969706,-1892.179,-872.8854)"
       x1="302.85715"
       y1="366.64789"
       x2="302.85715"
       y2="609.50507" />
    <linearGradient
       inkscape:collect="always"
       id="linearGradient3082">
      <stop
         style="stop-color:#ffffff;stop-opacity:1;"
         offset="0"
         id="stop3084" />
      <stop
         style="stop-color:#ffffff;stop-opacity:0;"
         offset="1"
         id="stop3086" />
    </linearGradient>
    <linearGradient
       id="aigrd1"
       gradientUnits="userSpaceOnUse"
       x1="99.7773"
       y1="15.4238"
       x2="153.0005"
       y2="248.6311">
      <stop
         offset="0"
         style="stop-color:#464646;stop-opacity:1"
         id="stop53300" />
      <stop
         offset="1"
         style="stop-color:#cdcdcd;stop-opacity:1"
         id="stop53302" />
    </linearGradient>
    <linearGradient
       inkscape:collect="always"
       id="linearGradient4542">
      <stop
         style="stop-color:#000000;stop-opacity:1;"
         offset="0"
         id="stop4544" />
      <stop
         style="stop-color:#000000;stop-opacity:0;"
         offset="1"
         id="stop4546" />
    </linearGradient>
    <linearGradient
       id="linearGradient15662">
      <stop
         id="stop15664"
         offset="0.0000000"
         style="stop-color:#ffffff;stop-opacity:1.0000000;" />
      <stop
         id="stop15666"
         offset="1.0000000"
         style="stop-color:#f8f8f8;stop-opacity:1.0000000;" />
    </linearGradient>
    <radialGradient
       id="aigrd3"
       cx="20.8921"
       cy="64.5679"
       r="5.257"
       fx="20.8921"
       fy="64.5679"
       gradientUnits="userSpaceOnUse">
      <stop
         offset="0"
         style="stop-color:#F0F0F0"
         id="stop15573" />
      <stop
         offset="1.0000000"
         style="stop-color:#9a9a9a;stop-opacity:1.0000000;"
         id="stop15575" />
    </radialGradient>
    <radialGradient
       id="aigrd2"
       cx="20.8921"
       cy="114.5684"
       r="5.256"
       fx="20.8921"
       fy="114.5684"
       gradientUnits="userSpaceOnUse">
      <stop
         offset="0"
         style="stop-color:#F0F0F0"
         id="stop15566" />
      <stop
         offset="1.0000000"
         style="stop-color:#9a9a9a;stop-opacity:1.0000000;"
         id="stop15568" />
    </radialGradient>
    <linearGradient
       id="linearGradient269">
      <stop
         id="stop270"
         offset="0.0000000"
         style="stop-color:#a3a3a3;stop-opacity:1.0000000;" />
      <stop
         id="stop271"
         offset="1.0000000"
         style="stop-color:#4c4c4c;stop-opacity:1.0000000;" />
    </linearGradient>
    <linearGradient
       id="linearGradient259">
      <stop
         id="stop260"
         offset="0.0000000"
         style="stop-color:#fafafa;stop-opacity:1.0000000;" />
      <stop
         id="stop261"
         offset="1.0000000"
         style="stop-color:#bbbbbb;stop-opacity:1.0000000;" />
    </linearGradient>
    <radialGradient
       inkscape:collect="always"
       xlink:href="#linearGradient269"
       id="radialGradient15656"
       gradientUnits="userSpaceOnUse"
       gradientTransform="matrix(0.968273,0.000000,0.000000,1.032767,3.353553,0.646447)"
       cx="8.8244190"
       cy="3.7561285"
       fx="8.8244190"
       fy="3.7561285"
       r="37.751713" />
    <radialGradient
       inkscape:collect="always"
       xlink:href="#linearGradient259"
       id="radialGradient15658"
       gradientUnits="userSpaceOnUse"
       gradientTransform="scale(0.960493,1.041132)"
       cx="33.966679"
       cy="35.736916"
       fx="33.966679"
       fy="35.736916"
       r="86.708450" />
    <radialGradient
       inkscape:collect="always"
       xlink:href="#linearGradient15662"
       id="radialGradient15668"
       gradientUnits="userSpaceOnUse"
       gradientTransform="matrix(0.968273,0.000000,0.000000,1.032767,3.353553,0.646447)"
       cx="8.1435566"
       cy="7.2678967"
       fx="8.1435566"
       fy="7.2678967"
       r="38.158695" />
    <radialGradient
       r="5.256"
       fy="114.5684"
       fx="20.8921"
       cy="114.5684"
       cx="20.8921"
       gradientTransform="matrix(0.229703,0.000000,0.000000,0.229703,4.613529,3.979808)"
       gradientUnits="userSpaceOnUse"
       id="radialGradient2283"
       xlink:href="#aigrd2"
       inkscape:collect="always" />
    <radialGradient
       r="5.257"
       fy="64.5679"
       fx="20.8921"
       cy="64.5679"
       cx="20.8921"
       gradientTransform="matrix(0.229703,0.000000,0.000000,0.229703,4.613529,3.979808)"
       gradientUnits="userSpaceOnUse"
       id="radialGradient2285"
       xlink:href="#aigrd3"
       inkscape:collect="always" />
    <radialGradient
       inkscape:collect="always"
       xlink:href="#linearGradient4542"
       id="radialGradient4548"
       cx="24.306795"
       cy="42.07798"
       fx="24.306795"
       fy="42.07798"
       r="15.821514"
       gradientTransform="matrix(1.000000,0.000000,0.000000,0.284916,0.000000,30.08928)"
       gradientUnits="userSpaceOnUse" />
    <linearGradient
       inkscape:collect="always"
       xlink:href="#aigrd1"
       id="linearGradient2193"
       gradientUnits="userSpaceOnUse"
       gradientTransform="matrix(0.200685,0.000000,0.000000,0.200685,25.33302,3.157373)"
       x1="99.7773"
       y1="15.4238"
       x2="153.0005"
       y2="248.6311" />
    <linearGradient
       inkscape:collect="always"
       xlink:href="#linearGradient3082"
       id="linearGradient3088"
       x1="44.592766"
       y1="9.9124937"
       x2="65.862885"
       y2="43.31715"
       gradientUnits="userSpaceOnUse" />
  </defs>
  <sodipodi:namedview
     inkscape:window-y="160"
     inkscape:window-x="343"
     inkscape:window-height="688"
     inkscape:window-width="872"
     inkscape:document-units="px"
     inkscape:grid-bbox="true"
     showgrid="false"
     inkscape:current-layer="layer6"
     inkscape:cy="7.8138058"
     inkscape:cx="10.569441"
     inkscape:zoom="5.6568542"
     inkscape:pageshadow="2"
     inkscape:pageopacity="0.0"
     borderopacity="0.25490196"
     bordercolor="#666666"
     pagecolor="#ffffff"
     id="base"
     inkscape:showpageshadow="false" />
  <metadata
     id="metadata4">
    <rdf:RDF>
      <cc:Work
         rdf:about="">
        <dc:format>image/svg+xml</dc:format>
        <dc:type
           rdf:resource="http://purl.org/dc/dcmitype/StillImage" />
        <dc:title>Generic Script</dc:title>
        <dc:subject>
          <rdf:Bag>
            <rdf:li>text</rdf:li>
            <rdf:li>plaintext</rdf:li>
            <rdf:li>regular</rdf:li>
            <rdf:li>script</rdf:li>
            <rdf:li>shell</rdf:li>
            <rdf:li>bash</rdf:li>
            <rdf:li>python</rdf:li>
            <rdf:li>perl</rdf:li>
            <rdf:li>php</rdf:li>
            <rdf:li>ruby</rdf:li>
          </rdf:Bag>
        </dc:subject>
        <cc:license
           rdf:resource="http://creativecommons.org/licenses/publicdomain/" />
        <dc:creator>
          <cc:Agent>
            <dc:title>Jakub Steiner</dc:title>
          </cc:Agent>
        </dc:creator>
        <dc:source>http://jimmac.musichall.cz</dc:source>
      </cc:Work>
      <cc:License
         rdf:about="http://creativecommons.org/licenses/publicdomain/">
        <cc:permits
           rdf:resource="http://creativecommons.org/ns#Reproduction" />
        <cc:permits
           rdf:resource="http://creativecommons.org/ns#Distribution" />
        <cc:permits
           rdf:resource="http://creativecommons.org/ns#DerivativeWorks" />
      </cc:License>
    </rdf:RDF>
  </metadata>
  <g
     inkscape:groupmode="layer"
     id="layer6"
     inkscape:label="Shadow">
    <g
       style="display:inline"
       transform="matrix(2.105461e-2,0,0,2.086758e-2,42.85172,41.1536)"
       id="g6707">
      <rect
         style="opacity:0.40206185;color:black;fill:url(#linearGradient6715);fill-opacity:1;fill-rule:nonzero;stroke:none;stroke-width:1;stroke-linecap:round;stroke-linejoin:miter;marker:none;marker-start:none;marker-mid:none;marker-end:none;stroke-miterlimit:4;stroke-dasharray:none;stroke-dashoffset:0;stroke-opacity:1;visibility:visible;display:inline;overflow:visible"
         id="rect6709"
         width="1339.6335"
         height="478.35718"
         x="-1559.2523"
         y="-150.69685" />
      <path
         style="opacity:0.40206185;color:black;fill:url(#radialGradient6717);fill-opacity:1;fill-rule:nonzero;stroke:none;stroke-width:1;stroke-linecap:round;stroke-linejoin:miter;marker:none;marker-start:none;marker-mid:none;marker-end:none;stroke-miterlimit:4;stroke-dasharray:none;stroke-dashoffset:0;stroke-opacity:1;visibility:visible;display:inline;overflow:visible"
         d="M -219.61876,-150.68038 C -219.61876,-150.68038 -219.61876,327.65041 -219.61876,327.65041 C -76.744594,328.55086 125.78146,220.48075 125.78138,88.454235 C 125.78138,-43.572302 -33.655436,-150.68036 -219.61876,-150.68038 z "
         id="path6711"
         sodipodi:nodetypes="cccc" />
      <path
         sodipodi:nodetypes="cccc"
         id="path6713"
         d="M -1559.2523,-150.68038 C -1559.2523,-150.68038 -1559.2523,327.65041 -1559.2523,327.65041 C -1702.1265,328.55086 -1904.6525,220.48075 -1904.6525,88.454235 C -1904.6525,-43.572302 -1745.2157,-150.68036 -1559.2523,-150.68038 z "
         style="opacity:0.40206185;color:black;fill:url(#radialGradient6719);fill-opacity:1;fill-rule:nonzero;stroke:none;stroke-width:1;stroke-linecap:round;stroke-linejoin:miter;marker:none;marker-start:none;marker-mid:none;marker-end:none;stroke-miterlimit:4;stroke-dasharray:none;stroke-dashoffset:0;stroke-opacity:1;visibility:visible;display:inline;overflow:visible" />
    </g>
  </g>
  <g
     style="display:inline"
     inkscape:groupmode="layer"
     inkscape:label="Base"
     id="layer1">
    <rect
       style="color:#000000;fill:url(#radialGradient15658);fill-opacity:1.0000000;fill-rule:nonzero;stroke:url(#radialGradient15656);stroke-width:1.0000000;stroke-linecap:round;stroke-linejoin:round;stroke-miterlimit:4.0000000;stroke-dashoffset:0.0000000;stroke-opacity:1.0000000;marker:none;marker-start:none;marker-mid:none;marker-end:none;visibility:visible;display:block;overflow:visible"
       id="rect15391"
       width="34.875000"
       height="40.920494"
       x="6.6035528"
       y="3.6464462"
       ry="1.1490486" />
    <rect
       style="color:#000000;fill:none;fill-opacity:1.0000000;fill-rule:nonzero;stroke:url(#radialGradient15668);stroke-width:1.0000000;stroke-linecap:round;stroke-linejoin:round;stroke-miterlimit:4.0000000;stroke-dashoffset:0.0000000;stroke-opacity:1.0000000;marker:none;marker-start:none;marker-mid:none;marker-end:none;visibility:visible;display:block;overflow:visible"
       id="rect15660"
       width="32.775887"
       height="38.946384"
       x="7.6660538"
       y="4.5839462"
       ry="0.14904857"
       rx="0.14904857" />
    <g
       transform="translate(0.646447,-3.798933e-2)"
       id="g2270">
      <g
         id="g1440"
         style="fill:#ffffff;fill-opacity:1.0000000;fill-rule:nonzero;stroke:#000000;stroke-miterlimit:4.0000000"
         transform="matrix(0.229703,0.000000,0.000000,0.229703,4.967081,4.244972)">
        <radialGradient
           id="radialGradient1442"
           cx="20.892099"
           cy="114.56840"
           r="5.2560000"
           fx="20.892099"
           fy="114.56840"
           gradientUnits="userSpaceOnUse">
          <stop
             offset="0"
             style="stop-color:#F0F0F0"
             id="stop1444" />
          <stop
             offset="1"
             style="stop-color:#474747"
             id="stop1446" />
        </radialGradient>
        <path
           style="stroke:none"
           d="M 23.428000,113.07000 C 23.428000,115.04300 21.828000,116.64200 19.855000,116.64200 C 17.881000,116.64200 16.282000,115.04200 16.282000,113.07000 C 16.282000,111.09600 17.882000,109.49700 19.855000,109.49700 C 21.828000,109.49700 23.428000,111.09700 23.428000,113.07000 z "
           id="path1448" />
        <radialGradient
           id="radialGradient1450"
           cx="20.892099"
           cy="64.567902"
           r="5.2570000"
           fx="20.892099"
           fy="64.567902"
           gradientUnits="userSpaceOnUse">
          <stop
             offset="0"
             style="stop-color:#F0F0F0"
             id="stop1452" />
          <stop
             offset="1"
             style="stop-color:#474747"
             id="stop1454" />
        </radialGradient>
        <path
           style="stroke:none"
           d="M 23.428000,63.070000 C 23.428000,65.043000 21.828000,66.643000 19.855000,66.643000 C 17.881000,66.643000 16.282000,65.043000 16.282000,63.070000 C 16.282000,61.096000 17.882000,59.497000 19.855000,59.497000 C 21.828000,59.497000 23.428000,61.097000 23.428000,63.070000 z "
           id="path1456" />
      </g>
      <path
         style="fill:url(#radialGradient2283);fill-rule:nonzero;stroke:none;stroke-miterlimit:4.0000000"
         d="M 9.9950109,29.952326 C 9.9950109,30.405530 9.6274861,30.772825 9.1742821,30.772825 C 8.7208483,30.772825 8.3535532,30.405301 8.3535532,29.952326 C 8.3535532,29.498892 8.7210780,29.131597 9.1742821,29.131597 C 9.6274861,29.131597 9.9950109,29.499122 9.9950109,29.952326 z "
         id="path15570" />
      <path
         style="fill:url(#radialGradient2285);fill-rule:nonzero;stroke:none;stroke-miterlimit:4.0000000"
         d="M 9.9950109,18.467176 C 9.9950109,18.920380 9.6274861,19.287905 9.1742821,19.287905 C 8.7208483,19.287905 8.3535532,18.920380 8.3535532,18.467176 C 8.3535532,18.013742 8.7210780,17.646447 9.1742821,17.646447 C 9.6274861,17.646447 9.9950109,18.013972 9.9950109,18.467176 z "
         id="path15577" />
    </g>
    <path
       style="fill:none;fill-opacity:0.75000000;fill-rule:evenodd;stroke:#000000;stroke-width:0.98855311;stroke-linecap:butt;stroke-linejoin:miter;stroke-miterlimit:4.0000000;stroke-opacity:0.017543854"
       d="M 11.505723,5.4942766 L 11.505723,43.400869"
       id="path15672"
       sodipodi:nodetypes="cc" />
    <path
       style="fill:none;fill-opacity:0.75000000;fill-rule:evenodd;stroke:#ffffff;stroke-width:1.0000000;stroke-linecap:butt;stroke-linejoin:miter;stroke-miterlimit:4.0000000;stroke-opacity:0.20467831"
       d="M 12.500000,5.0205154 L 12.500000,43.038228"
       id="path15674"
       sodipodi:nodetypes="cc" />
  </g>
  <g
     inkscape:groupmode="layer"
     id="layer5"
     inkscape:label="Text"
     style="display:inline">
    <g
       id="g2186"
       transform="matrix(0.703833,0.000000,0.000000,0.703833,-1.924835,14.32997)">
      <path
         id="path53304"
         d="M 50.204582,47.404518 L 30.293968,27.493904 L 50.204582,7.5832887 L 70.115196,27.493904 L 50.204582,47.404518 L 50.204582,47.404518 z "
         style="fill:url(#linearGradient2193);fill-rule:nonzero;stroke:#3e3e3e;stroke-width:1.42079258;stroke-linecap:round;stroke-linejoin:round;stroke-miterlimit:4;stroke-dasharray:none;stroke-opacity:1" />
      <path
         id="path53361"
         d="M 34.844554,31.353332 L 35.583003,30.329148 C 36.219753,30.59764 36.883622,30.814217 37.569187,30.974033 L 37.563375,32.550891 C 37.991103,32.639226 38.426385,32.707027 38.86748,32.755262 L 39.349254,31.253373 C 39.693295,31.28185 40.041018,31.29754 40.392615,31.29754 C 40.743824,31.29754 41.091739,31.282043 41.435781,31.253373 L 41.917556,32.755262 C 42.358844,32.707027 42.793932,32.639226 43.22166,32.550891 L 43.215655,30.97384 C 43.901413,30.814217 44.565088,30.59764 45.201837,30.329148 L 46.124317,31.60865 C 46.526668,31.426556 46.918558,31.226059 47.299212,31.008128 L 46.806395,29.510112 C 47.403625,29.147862 47.968118,28.736793 48.493866,28.28214 L 49.766007,29.213919 C 50.091645,28.917338 50.403336,28.605647 50.699723,28.280009 L 49.768138,27.008062 C 50.222985,26.482314 50.634054,25.918015 50.996304,25.320397 L 52.494319,25.813408 C 52.712251,25.43256 52.912942,25.040476 53.094648,24.63832 L 51.81534,23.716033 C 52.083832,23.079284 52.300408,22.415415 52.460419,21.729657 L 54.037082,21.735468 C 54.125417,21.307741 54.193219,20.872458 54.24126,20.43117 L 52.739565,19.949396 C 52.768429,19.605548 52.783732,19.257632 52.783732,18.906229 C 52.783732,18.554826 52.768041,18.207104 52.739565,17.862868 L 54.24126,17.381094 C 54.193413,16.94 54.125223,16.504911 54.037276,16.07699 L 52.460225,16.082995 C 52.300408,15.397236 52.083832,14.733368 51.815534,14.096814 L 53.094842,13.174525 C 52.913135,12.772174 52.712251,12.380283 52.494707,11.999435 L 50.996498,12.492446 C 50.634247,11.895022 50.223179,11.330723 49.768525,10.805169 L 50.700111,9.5330282 C 50.421739,9.2271488 50.129033,8.9350234 49.824703,8.6549084 L 30.985708,27.494098 L 31.99265,28.50104 L 32.291362,28.282334 C 32.81711,28.736987 33.381408,29.148056 33.978832,29.510306 L 33.736879,30.245463 L 34.844941,31.353525 L 34.844554,31.353332 z "
         style="opacity:0.5;fill:#ffffff;fill-rule:nonzero;stroke:none;stroke-miterlimit:4" />
      <path
         id="path53363"
         d="M 54.367757,36.399276 C 54.367757,29.914594 58.60164,24.419807 64.454997,22.525253 L 62.228025,20.298086 C 62.211171,20.305061 62.194125,20.311066 62.177465,20.318233 L 61.995952,20.066401 L 60.583948,18.654397 C 60.12077,18.873297 59.667278,19.108857 59.224634,19.362045 L 59.918723,21.471238 C 59.077409,21.980907 58.282975,22.559928 57.542976,23.19997 L 55.751866,21.888311 C 55.293145,22.305771 54.854569,22.744347 54.437302,23.202876 L 55.748767,24.99379 C 55.108726,25.733985 54.529899,26.528418 54.020036,27.369538 L 51.910649,26.675449 C 51.603995,27.211852 51.321556,27.763753 51.065655,28.330181 L 52.866837,29.628474 C 52.488895,30.524803 52.183985,31.459488 51.959079,32.424975 L 49.73908,32.416451 C 49.614908,33.018717 49.519211,33.631639 49.451604,34.252502 L 51.566027,34.9309 C 51.525734,35.415193 51.504036,35.90491 51.504036,36.39947 C 51.504036,36.894223 51.525734,37.38394 51.566027,37.868233 L 49.451604,38.546049 C 49.519211,39.1673 49.614908,39.780028 49.739274,40.382294 L 51.959079,40.373964 C 52.183985,41.339451 52.488895,42.274136 52.866837,43.170466 L 51.065655,44.468952 C 51.208037,44.783742 51.359524,45.093883 51.517791,45.399375 L 55.321814,41.595739 C 54.705794,39.981494 54.367564,38.229903 54.367564,36.39947 L 54.367757,36.399276 z "
         style="opacity:0.5;fill:#ffffff;fill-rule:nonzero;stroke:none;stroke-miterlimit:4" />
      <path
         style="opacity:0.52046784;fill:none;fill-rule:nonzero;stroke:url(#linearGradient3088);stroke-width:1.42079163;stroke-linecap:butt;stroke-linejoin:miter;stroke-miterlimit:4;stroke-dasharray:none;stroke-opacity:1"
         d="M 50.204564,45.706929 L 31.991529,27.493894 L 50.204564,9.2808575 L 68.417599,27.493894 L 50.204564,45.706929 L 50.204564,45.706929 z "
         id="path3078" />
    </g>
  </g>
</svg>
