<?xml version="1.0" encoding="utf-8"?>
<!-- Generator: Adobe Illustrator 22.1.0, SVG Export Plug-In . SVG Version: 6.00 Build 0)  -->
<svg version="1.1" id="Layer_1" xmlns="http://www.w3.org/2000/svg" xmlns:xlink="http://www.w3.org/1999/xlink" x="0px" y="0px"
	 width="288px" height="72px" viewBox="0 0 288 72" style="enable-background:new 0 0 288 72;" xml:space="preserve">
<style type="text/css">
	.st0{fill:url(#SVGID_1_);}
	.st1{fill:url(#SVGID_2_);}
	.st2{fill:#F69321;}
</style>
<g>
	<g>
		<linearGradient id="SVGID_1_" gradientUnits="userSpaceOnUse" x1="-1.6634" y1="97.4752" x2="104.1495" y2="36.3841">
			<stop  offset="0.1569" style="stop-color:#FDF280"/>
			<stop  offset="0.2474" style="stop-color:#FCE876"/>
			<stop  offset="0.4" style="stop-color:#FACE5C"/>
			<stop  offset="0.595" style="stop-color:#F8A431"/>
			<stop  offset="0.6632" style="stop-color:#F69321"/>
		</linearGradient>
		<path class="st0" d="M58.433,51.312l-11.648,6.645l4.324,10.45c0.839,2.028,2.818,3.351,5.013,3.351h5.846
			c2.408,0,4.04-2.448,3.106-4.667C62.535,61.056,58.433,51.312,58.433,51.312z"/>
		<linearGradient id="SVGID_2_" gradientUnits="userSpaceOnUse" x1="-21.7409" y1="62.9584" x2="84.072" y2="1.8673">
			<stop  offset="0.1569" style="stop-color:#FDF280"/>
			<stop  offset="0.2474" style="stop-color:#FCE876"/>
			<stop  offset="0.4" style="stop-color:#FACE5C"/>
			<stop  offset="0.595" style="stop-color:#F8A431"/>
			<stop  offset="0.6632" style="stop-color:#F69321"/>
		</linearGradient>
		<path class="st1" d="M64.082,41.884c-11.405,3.632-28.849,9.187-36.786,11.715c-1.616,0.515-3.096-1.083-2.458-2.655
			c2.001-4.936,5.42-13.367,7.528-18.566c0.677-1.669,3.033-1.67,3.723-0.007l4.77,11.497c0.404,0.974,1.49,1.476,2.495,1.156
			c3.025-0.963,6.001-1.911,8.853-2.817c1.126-0.358,1.701-1.602,1.249-2.694L38.352,3.068c-1.568-3.783-6.934-3.762-8.473,0.033
			L3.836,67.335c-0.846,2.087,0.682,4.368,2.934,4.38l7.954,0.042c1.095,0.006,2.173-0.277,3.124-0.819l47.179-26.889
			C66.267,43.343,65.441,41.451,64.082,41.884z"/>
	</g>
	<g>
		<path class="st2" d="M98.224,27.437c-3.228,0-5.907,1.109-8.19,3.391c-2.283,2.284-3.392,4.963-3.392,8.191
			c0,3.229,1.109,5.908,3.392,8.19c2.284,2.283,4.963,3.392,8.19,3.392c2.485,0,4.708-0.685,6.604-2.038l2.624-1.87v3.908h2.355
			V39.019c0-3.229-1.109-5.908-3.391-8.191C104.132,28.546,101.454,27.437,98.224,27.437z M104.753,45.546
			c-1.791,1.792-3.988,2.7-6.528,2.7c-2.539,0-4.736-0.908-6.527-2.7c-1.792-1.791-2.7-3.988-2.7-6.527
			c0-2.54,0.908-4.737,2.7-6.528c1.791-1.791,3.987-2.699,6.527-2.699c2.54,0,4.737,0.908,6.528,2.699
			c1.791,1.791,2.699,3.988,2.699,6.528C107.452,41.559,106.544,43.755,104.753,45.546z"/>
		<path class="st2" d="M123.396,45.546c-1.792-1.791-2.7-3.988-2.7-6.527V27.437h-2.355v11.582c0,3.229,1.109,5.908,3.392,8.19
			c2.284,2.283,4.963,3.392,8.19,3.392c3.228,0,5.907-1.109,8.191-3.392c2.282-2.282,3.391-4.961,3.391-8.19V27.437h-2.355v11.582
			c0,2.54-0.908,4.736-2.699,6.527c-1.791,1.792-3.988,2.7-6.528,2.7C127.383,48.247,125.187,47.339,123.396,45.546z"/>
		<path class="st2" d="M152.393,21.761h-2.355v17.258c0,3.229,1.109,5.908,3.392,8.19c1.886,1.886,4.028,2.966,6.53,3.289v-2.389
			c-1.848-0.317-3.482-1.177-4.867-2.562c-1.792-1.791-2.7-3.988-2.7-6.527v-9.228h7.567v-2.355h-7.567V21.761z"/>
		<path class="st2" d="M180.077,27.437c-3.228,0-5.907,1.109-8.19,3.391c-2.283,2.284-3.392,4.963-3.392,8.191
			c0,3.229,1.109,5.908,3.392,8.19c2.284,2.283,4.963,3.392,8.19,3.392c3.228,0,5.907-1.109,8.191-3.392
			c0.566-0.566,1.067-1.17,1.495-1.8h-3.023c-0.045,0.046-0.091,0.093-0.137,0.139c-1.79,1.79-3.986,2.698-6.526,2.698
			c-2.539,0-4.736-0.908-6.527-2.7c-0.915-0.915-1.606-1.95-2.054-3.077l-0.902-2.273h21.012c0.036-0.384,0.053-0.777,0.053-1.177
			c0-3.229-1.109-5.908-3.391-8.191C185.985,28.546,183.306,27.437,180.077,27.437z M189.56,37.842h-18.966l0.902-2.273
			c0.448-1.128,1.138-2.162,2.054-3.078c1.791-1.791,3.987-2.699,6.527-2.699c2.54,0,4.737,0.908,6.528,2.699
			c0.915,0.915,1.605,1.95,2.053,3.078L189.56,37.842z"/>
		<path class="st2" d="M200.193,50.601h2.355V39.019c0-2.54,0.908-4.737,2.7-6.528c1.384-1.384,3.019-2.244,4.867-2.561V27.54
			c-2.502,0.322-4.642,1.401-6.53,3.287c-2.283,2.284-3.392,4.963-3.392,8.191V50.601z"/>
		<rect x="219.756" y="27.437" class="st2" width="2.355" height="23.165"/>
		<path class="st2" d="M242.226,27.437c-3.228,0-5.907,1.109-8.19,3.391c-2.283,2.284-3.392,4.963-3.392,8.191
			c0,3.229,1.109,5.908,3.392,8.19c2.284,2.283,4.963,3.392,8.19,3.392c3.228,0,5.907-1.109,8.191-3.392
			c2.282-2.282,3.391-4.961,3.391-8.19s-1.109-5.908-3.391-8.191C248.134,28.546,245.455,27.437,242.226,27.437z M248.755,45.546
			c-1.791,1.792-3.988,2.7-6.528,2.7c-2.539,0-4.736-0.908-6.527-2.7c-1.792-1.791-2.7-3.988-2.7-6.527
			c0-2.54,0.908-4.737,2.7-6.528c1.791-1.791,3.987-2.699,6.527-2.699c2.54,0,4.737,0.908,6.528,2.699
			c1.791,1.791,2.699,3.988,2.699,6.528C251.454,41.559,250.546,43.755,248.755,45.546z"/>
		<path class="st2" d="M272.818,27.437c-3.228,0-5.907,1.109-8.19,3.391c-2.283,2.284-3.392,4.963-3.392,8.191v11.582h2.355V39.019
			c0-2.54,0.908-4.737,2.7-6.528c1.791-1.791,3.987-2.699,6.527-2.699c2.54,0,4.737,0.908,6.528,2.699
			c1.791,1.791,2.699,3.988,2.699,6.528v11.582h2.355V39.019c0-3.229-1.109-5.908-3.391-8.191
			C278.726,28.546,276.047,27.437,272.818,27.437z"/>
	</g>
</g>
</svg>
