<?xml version="1.0" encoding="utf-8"?>
<!-- Generator: Adobe Illustrator 21.0.2, SVG Export Plug-In . SVG Version: 6.00 Build 0)  -->
<svg version="1.1" id="Layer_1" xmlns="http://www.w3.org/2000/svg" xmlns:xlink="http://www.w3.org/1999/xlink" x="0px" y="0px"
	 viewBox="0 0 72 72" style="enable-background:new 0 0 72 72;" xml:space="preserve">
<style type="text/css">
	.st0{fill:#FFFFFF;}
</style>
<path class="st0" d="M41.378,40.977c0,0.478,0,0.956,0,1.434l4.201-4.095c0-0.139,0-0.278,0-0.416L41.378,40.977z M41.378,59.658
	c0,1.735,0,3.469,0,5.204c0,1.88-0.77,2.634-2.691,2.635c-8.174,0.002-16.348,0.002-24.522,0c-1.916-0.001-2.687-0.757-2.687-2.639
	C11.477,56,11.477,47.141,11.477,38.283c0-8.804-0.001-17.608,0-26.411c0-1.998,0.734-2.715,2.776-2.715h24.353
	c2.015,0,2.771,0.717,2.771,2.637c0.001,7.063,0,14.127,0,21.19l4.201-2.091c0-6.35,0.001-12.699,0-19.049
	c0-0.381-0.005-0.764-0.04-1.143c-0.19-2.073-1.236-3.632-3.052-4.726c-1.168-0.703-2.466-0.883-3.806-0.888
	c-1.652-0.007-3.304-0.002-5.056-0.002v-4.01H18.942v4.01c-1.669,0-3.216-0.024-4.761,0.011c-0.727,0.017-1.477,0.053-2.172,0.237
	c-3.028,0.796-4.729,3.055-4.731,6.26C7.27,29.422,7.268,47.251,7.28,65.079c0.002,3.901,2.612,6.454,6.67,6.47
	c8.316,0.034,16.633,0.013,24.949,0.007c1.527-0.001,2.959-0.336,4.189-1.269c1.831-1.387,2.507-3.238,2.504-5.448
	c-0.001-1.108-0.001-2.215-0.003-3.322L41.378,59.658z M38.908,42.756h0.132V42.66L38.908,42.756z"/>
</svg>
