<?xml version="1.0" encoding="utf-8"?>
<!-- Generator: Adobe Illustrator 21.0.2, SVG Export Plug-In . SVG Version: 6.00 Build 0)  -->
<svg version="1.1" id="Layer_1" xmlns="http://www.w3.org/2000/svg" xmlns:xlink="http://www.w3.org/1999/xlink" x="0px" y="0px"
	 viewBox="0 0 276.621 144" style="enable-background:new 0 0 276.621 144;" xml:space="preserve">
<style type="text/css">
	.st0{stroke:#000000;}
	.st1{fill:none;}
	.st2{stroke:#000000;stroke-width:6;stroke-miterlimit:10;}
</style>
<path id="rect4970" inkscape:connector-curvature="0" class="st0" d="M16.737,5.742h223.456c6.588,0,11.93,5.831,11.93,13.042
	V125.26c0,7.211-5.342,13.042-11.93,13.042H16.737c-6.588,0-11.93-5.831-11.93-13.042V18.785
	C4.807,11.573,10.149,5.742,16.737,5.742z"/>
<path id="rect4360" inkscape:connector-curvature="0" class="st1" d="M12.419,0l232.136,0c6.855,0,12.419,6.321,12.419,14.155
	v115.69c0,7.834-5.609,14.155-12.419,14.155H12.419C5.564,144,0,137.679,0,129.845L0,14.2C0,6.365,5.564,0,12.419,0z"/>
<g id="g4222" transform="translate(-127.22081,216.20249)">
	<path id="path4224" inkscape:connector-curvature="0" class="st2" d="M381.212-107.911c-0.979,0-1.736-0.757-1.736-1.736v-68.995
		c0-0.979,0.757-1.736,1.736-1.736h17.894c0.979,0,1.736,0.757,1.736,1.736v68.995c0,0.979-0.757,1.736-1.736,1.736H381.212
		L381.212-107.911L381.212-107.911z"/>
</g>
</svg>
