<?xml version="1.0" encoding="utf-8"?>
<!-- Generator: Adobe Illustrator 21.0.2, SVG Export Plug-In . SVG Version: 6.00 Build 0)  -->
<svg version="1.1" id="Layer_1" xmlns="http://www.w3.org/2000/svg" xmlns:xlink="http://www.w3.org/1999/xlink" x="0px" y="0px"
	 viewBox="0 0 72 72" style="enable-background:new 0 0 72 72;" xml:space="preserve">
<style type="text/css">
	.st0{fill:#FFFFFF;}
</style>
<g id="alert">
	<g>
		<path class="st0" d="M64.052,50.49l-5.688-7.524V28.907c0-6.417-2.194-12.371-6.182-16.754c-2.356-2.596-5.193-4.509-8.435-5.702
			c-0.297-1.719-1.151-3.289-2.437-4.464c-2.905-2.651-7.716-2.651-10.611,0c-1.304,1.183-2.158,2.754-2.451,4.469
			c-3.237,1.183-6.075,3.096-8.431,5.697c-3.984,4.392-6.182,10.346-6.182,16.749l0.018,14.036l-5.648,7.479
			c-0.796,0.851-1.232,1.953-1.232,3.11v3.659c0,2.507,2.037,4.541,4.537,4.541h49.383c2.504,0,4.532-2.034,4.532-4.541v-3.659
			C65.226,52.371,64.79,51.268,64.052,50.49z M38.419,5.268c-0.67-0.059-1.749-0.175-2.41-0.175s-1.785,0.112-2.451,0.175
			C34.683,3.432,37.578,3.77,38.419,5.268z M11.374,57.186l-0.009-3.632l5.647-7.479c0.787-0.851,1.228-1.948,1.228-3.11V28.903
			c0-5.265,1.771-10.121,4.982-13.667c1.592-1.755,3.471-3.114,5.58-4.05c4.429-1.971,10-1.971,14.42,0
			c2.113,0.945,3.988,2.309,5.576,4.055c3.215,3.546,4.982,8.397,4.982,13.667v14.058c0,1.166,0.436,2.277,1.173,3.042l5.692,7.52
			l0.045,3.609L11.374,57.186z M40.164,65.794c-2.275,2.075-6.038,2.07-8.3,0.005c-0.652-0.603-1.156-1.328-1.497-2.12h-4.793
			c0.49,2.106,1.592,4.028,3.206,5.504C30.753,71.001,33.325,72,36.023,72c2.693,0,5.265-0.999,7.235-2.808
			c1.614-1.476,2.716-3.398,3.206-5.508l-4.807-0.005C41.315,64.476,40.82,65.196,40.164,65.794z"/>
	</g>
</g>
</svg>
