<?xml version="1.0" encoding="utf-8"?>
<!-- Generator: Adobe Illustrator 21.0.2, SVG Export Plug-In . SVG Version: 6.00 Build 0)  -->
<svg version="1.1" id="Layer_1" xmlns="http://www.w3.org/2000/svg" xmlns:xlink="http://www.w3.org/1999/xlink" x="0px" y="0px"
	 viewBox="0 0 72 72" style="enable-background:new 0 0 72 72;" xml:space="preserve">
<style type="text/css">
	.st0{fill:none;stroke:#FFFFFF;stroke-width:3;stroke-miterlimit:10;}
</style>
<path class="st0" d="M5.07,59.359c0.368,0.9,1.268,1.514,2.25,1.514h17.836c0.777,5.277,5.359,9.327,10.8,9.327
	s10.023-4.05,10.8-9.327h17.877l0,0c0.123,0,0.245,0,0.368-0.041c0.9-0.123,1.636-0.736,1.964-1.555
	c0.327-0.941,0.082-1.923-0.614-2.577c-0.041-0.041-0.082-0.082-0.123-0.123c-0.245-0.245-1.227-1.35-2.168-3.682
	c-1.023-2.495-2.291-6.955-2.291-13.868c0-13.664-5.155-20.864-9.45-24.505c-2.864-2.414-5.727-3.6-7.609-4.173
	c-0.082-1.677-0.491-3.968-2.046-5.809C41.602,3.273,39.597,1.8,36.038,1.8c-3.518,0-5.523,1.514-6.586,2.741
	c-1.595,1.882-2.046,4.214-2.086,5.932c-1.923,0.573-4.786,1.759-7.609,4.091c-7.895,6.464-9.532,16.855-9.532,24.382
	c0,6.709-1.268,11.168-2.332,13.745c-1.145,2.741-2.25,3.968-2.25,3.968l0,0C4.906,57.355,4.702,58.418,5.07,59.359z"/>
</svg>
