<svg width="72" height="72" viewBox="0 0 72 72" fill="none" xmlns="http://www.w3.org/2000/svg">
<g clip-path="url(#clip0)">
<path d="M52.764 43.1576V47.0312C54.9767 48.2487 56.1689 49.5688 56.1689 50.727C56.1689 53.39 49.8806 56.9261 39.2549 58.0385V61.5337C50.05 60.4188 59.637 56.7116 59.637 50.7266C59.637 47.5461 56.9253 45.0062 52.7638 43.157L52.764 43.1576Z" fill="white"/>
<path d="M25.7594 64.9382L32.0997 60.9073C32.2149 60.8343 32.2871 60.7044 32.2871 60.5653V59.7217C32.2871 59.5826 32.2171 59.455 32.0997 59.3797L25.7594 55.3488C25.6443 55.2759 25.5043 55.2736 25.3823 55.3306C25.3733 55.3352 25.3643 55.3329 25.3552 55.3374L24.5988 55.7592C24.4724 55.8299 24.3934 55.9644 24.3934 56.1126V57.9275C14.3659 56.7077 8.46835 53.3083 8.46835 50.7297C8.46835 49.6376 9.52954 48.3973 11.512 47.2368V43.3268C7.55843 45.1598 5 47.6404 5 50.7299C5 56.5324 14.009 60.1941 24.3908 61.4273V64.1746C24.3908 64.3206 24.4699 64.4574 24.5963 64.528L25.3527 64.9498C25.3617 64.9544 25.3708 64.9521 25.3798 64.9567C25.434 64.9817 25.4882 65 25.5446 65C25.6214 65 25.6959 64.9795 25.7591 64.9384L25.7594 64.9382Z" fill="white"/>
<path d="M15.1495 50.7253C15.816 51.3659 16.7139 51.7649 17.7023 51.7649H47.3C48.2885 51.7649 49.1885 51.3682 49.8528 50.7253C50.5579 50.0458 51 49.0951 51 48.044V31.2999C51 29.2548 49.3336 27.579 47.3 27.579H42.8587C42.2488 27.579 41.5913 27.1025 41.3986 26.5211L40.2492 23.0579C40.0565 22.4742 39.399 22 38.7891 22H26.2109C25.601 22 24.9435 22.4765 24.7508 23.0579L23.6014 26.5211C23.4087 27.1048 22.7512 27.579 22.1413 27.579H17.7C15.6664 27.579 14 29.2548 14 31.2999V48.0417C14.0045 49.095 14.4466 50.0458 15.1495 50.7252L15.1495 50.7253ZM46.0055 30.883C46.9509 30.883 47.7149 31.6536 47.7149 32.5998C47.7149 33.5505 46.9486 34.3189 46.0055 34.3189C45.0646 34.3189 44.2961 33.5483 44.2961 32.5998C44.2961 31.6513 45.0646 30.883 46.0055 30.883V30.883ZM32.5021 30.1124C37.7596 30.1124 42.0217 34.3987 42.0217 39.6857C42.0217 44.9726 37.7594 49.2566 32.5021 49.2566C27.2448 49.2566 22.9825 44.9703 22.9825 39.6833C22.9825 34.3964 27.2448 30.1124 32.5021 30.1124V30.1124Z" fill="white"/>
<path d="M37.2132 39.6858C37.2132 42.3009 35.1047 44.4235 32.502 44.4235C29.8993 44.4235 27.7909 42.3009 27.7909 39.6858C27.7909 37.0684 29.8993 34.9481 32.502 34.9481C35.1047 34.9481 37.2132 37.0684 37.2132 39.6858" fill="white"/>
<path opacity="0.5" fill-rule="evenodd" clip-rule="evenodd" d="M65.3341 9.93096L60.5079 12.5131V11.68C60.5079 10.1995 59.2188 9 57.6278 9H45.88C44.2891 9 43 10.1995 43 11.68V20.0234C43 21.5039 44.2891 22.7034 45.88 22.7034H57.6278C59.2188 22.7034 60.5079 21.5039 60.5079 20.0234V19.1903L65.3341 21.7725C66.2481 22.2619 67 21.8597 67 20.8791V10.8292C67 9.84426 66.2509 9.44211 65.3341 9.93065V9.93096Z" fill="white"/>
</g>
<defs>
<clipPath id="clip0">
<rect width="62" height="57" fill="white" transform="translate(5 8)"/>
</clipPath>
</defs>
</svg>
