<?xml version="1.0" encoding="utf-8"?>
<!-- Generator: Adobe Illustrator 23.0.4, SVG Export Plug-In . SVG Version: 6.00 Build 0)  -->
<svg version="1.1" id="Layer_1" xmlns="http://www.w3.org/2000/svg" xmlns:xlink="http://www.w3.org/1999/xlink" x="0px" y="0px"
	 viewBox="0 0 288 288" style="enable-background:new 0 0 288 288;" xml:space="preserve">
<style type="text/css">
	.st0{fill-rule:evenodd;clip-rule:evenodd;fill:#FFFFFF;}
</style>
<path class="st0" d="M33.612,25.759h22.008v102.035H33.612V25.759z M213.674,163.007h60.821c18.006,0,18.006,36.413,0,36.413
	h-60.821C195.268,199.419,195.268,163.007,213.674,163.007z M255.289,25.759h-22.808v122.042h22.808V25.759z M255.289,214.625
	v47.216h-22.808v-47.216H255.289z M174.461,83.779h-60.821c-18.006,0-18.006,37.213,0,37.213h60.821
	C192.467,120.992,192.467,83.779,174.461,83.779z M133.646,25.759h22.008v43.615h-22.008V25.759z M155.254,261.841V135.797h-22.008
	v126.444h22.008V261.841z M14.405,143h60.021c19.207,0,19.207,36.413,0,36.413H14.405C-4.802,179.412-4.802,143,14.405,143z
	 M55.219,261.841v-67.223H33.612v67.223H55.219z"/>
</svg>
