<?xml version="1.0" encoding="utf-8"?>
<!-- Generator: Adobe Illustrator 23.0.4, SVG Export Plug-In . SVG Version: 6.00 Build 0)  -->
<svg version="1.1" id="Layer_1" xmlns="http://www.w3.org/2000/svg" xmlns:xlink="http://www.w3.org/1999/xlink" x="0px" y="0px"
	 viewBox="0 0 288 288" style="enable-background:new 0 0 288 288;" xml:space="preserve">
<style type="text/css">
	.st0{clip-path:url(#SVGID_2_);}
	.st1{fill:#FFFFFF;}
	.st2{opacity:0.5;fill-rule:evenodd;clip-rule:evenodd;fill:#FFFFFF;enable-background:new    ;}
</style>
<g>
	<defs>
		<rect id="SVGID_1_" y="11.613" width="288" height="264.774"/>
	</defs>
	<clipPath id="SVGID_2_">
		<use xlink:href="#SVGID_1_"  style="overflow:visible;"/>
	</clipPath>
	<g class="st0">
		<path class="st1" d="M221.871,174.926v17.993c10.278,5.655,15.816,11.788,15.816,17.168c0,12.37-29.21,28.796-78.568,33.963
			v16.236c50.145-5.179,94.678-22.399,94.678-50.201c0-14.774-12.596-26.572-31.927-35.162L221.871,174.926z"/>
		<path class="st1" d="M96.431,276.1l29.452-18.724c0.535-0.339,0.871-0.943,0.871-1.589v-3.919c0-0.646-0.325-1.239-0.871-1.589
			l-29.452-18.724c-0.535-0.339-1.185-0.349-1.752-0.085c-0.042,0.021-0.084,0.011-0.126,0.032l-3.514,1.959
			c-0.587,0.328-0.954,0.953-0.954,1.642v8.431c-46.579-5.666-73.974-21.457-73.974-33.435c0-5.073,4.929-10.834,14.138-16.225
			v-18.163C11.884,184.226,0,195.749,0,210.1c0,26.954,41.848,43.963,90.073,49.691v12.762c0,0.678,0.367,1.314,0.955,1.642
			l3.514,1.959c0.042,0.021,0.084,0.011,0.126,0.032c0.252,0.116,0.504,0.201,0.766,0.201c0.357,0,0.703-0.095,0.996-0.286
			L96.431,276.1z"/>
		<path class="st1" d="M47.146,210.079c3.096,2.976,7.267,4.829,11.858,4.829H196.49c4.592,0,8.772-1.843,11.858-4.829
			c3.275-3.156,5.329-7.573,5.329-12.455v-77.779c0-9.5-7.741-17.284-17.187-17.284H175.86c-2.833,0-5.887-2.213-6.782-4.914
			l-5.339-16.087c-0.895-2.711-3.949-4.914-6.782-4.914H98.528c-2.833,0-5.887,2.213-6.782,4.914l-5.339,16.087
			c-0.895,2.711-3.949,4.914-6.782,4.914H58.994c-9.446,0-17.187,7.784-17.187,17.284v77.768
			C41.827,202.506,43.881,206.922,47.146,210.079L47.146,210.079z M190.477,117.908c4.392,0,7.94,3.58,7.94,7.975
			c0,4.416-3.56,7.985-7.94,7.985c-4.371,0-7.94-3.58-7.94-7.985S186.107,117.908,190.477,117.908L190.477,117.908z
			 M127.752,114.329c24.422,0,44.22,19.911,44.22,44.47c0,24.559-19.799,44.458-44.22,44.458s-44.22-19.911-44.22-44.47
			C83.532,134.228,103.331,114.329,127.752,114.329L127.752,114.329z"/>
		<path class="st1" d="M149.636,158.799c0,12.148-9.794,22.007-21.884,22.007s-21.884-9.86-21.884-22.007
			c0-12.158,9.794-22.007,21.884-22.007S149.636,146.64,149.636,158.799"/>
		<path class="st2" d="M280.262,20.583l-22.418,11.994v-3.87c0-6.877-5.988-12.449-13.379-12.449h-54.57
			c-7.39,0-13.378,5.572-13.378,12.449v38.756c0,6.877,5.988,12.449,13.378,12.449h54.57c7.39,0,13.379-5.572,13.379-12.449v-3.87
			l22.418,11.995c4.246,2.273,7.738,0.405,7.738-4.15V24.755c0-4.575-3.48-6.443-7.738-4.174V20.583z"/>
	</g>
</g>
</svg>
