<?xml version="1.0" encoding="utf-8"?>
<!-- Generator: Adobe Illustrator 21.0.2, SVG Export Plug-In . SVG Version: 6.00 Build 0)  -->
<svg version="1.1" id="Layer_1" xmlns="http://www.w3.org/2000/svg" xmlns:xlink="http://www.w3.org/1999/xlink" x="0px" y="0px"
	 viewBox="0 0 72 72" style="enable-background:new 0 0 72 72;" xml:space="preserve">
<style type="text/css">
	.st0{fill:#FFFFFF;}
</style>
<g id="形状_101">
	<g>
		<path class="st0" d="M64.874,10.212c-1.929,0-3.499,1.467-3.499,3.272c0,1.804,1.57,3.272,3.499,3.272
			c1.929,0,3.499-1.467,3.499-3.272C68.373,11.68,66.803,10.212,64.874,10.212z M64.874,16.249c-1.63,0-2.956-1.24-2.956-2.764
			s1.326-2.764,2.956-2.764s2.956,1.24,2.956,2.764S66.504,16.249,64.874,16.249z M71.687,9.665
			c-0.204-0.19-0.474-0.296-0.762-0.296h-2.656l-0.34-0.634c-0.08-0.121-0.144-0.277-0.209-0.432
			c-0.16-0.384-0.342-0.819-0.829-0.819h-4.034c-0.487,0-0.669,0.435-0.829,0.819c-0.064,0.152-0.129,0.31-0.222,0.454l-0.328,0.612
			h-2.655c-0.595,0-1.078,0.452-1.078,1.009v6.79c0,0.556,0.484,1.009,1.078,1.009h12.102c0.595,0,1.078-0.452,1.078-1.009v-6.79
			C72.003,10.108,71.891,9.855,71.687,9.665z M71.46,17.168c0,0.276-0.24,0.5-0.535,0.5H58.822c-0.295,0-0.535-0.225-0.535-0.5
			v-6.79c0-0.276,0.24-0.5,0.535-0.5h2.991L62.282,9c0.104-0.16,0.179-0.338,0.252-0.514c0.117-0.282,0.216-0.496,0.322-0.496h4.034
			c0.107,0,0.205,0.215,0.323,0.498c0.071,0.17,0.144,0.344,0.241,0.495l0.477,0.893h2.991c0.295,0,0.535,0.224,0.535,0.5
			L71.46,17.168z"/>
	</g>
</g>
<g id="形状_98">
	<g>
		<path class="st0" d="M68.597,41.733c-0.599-1.415-1.398-2.235-2.131-2.83c-1.465-1.265-2.865-1.861-3.796-2.308
			c-0.933-0.447-1.465-0.596-1.465-0.596s0.467,0.298,1.332,0.894c0.8,0.596,1.998,1.564,3.131,2.979
			c0.533,0.67,1,1.564,1.265,2.456c0.2,0.894,0.134,1.861-0.333,2.68c-0.866,1.712-2.931,2.979-5.129,3.946
			c-4.463,1.861-9.792,2.606-14.387,2.904c-1.799,0.149-3.53,0.149-5.062,0.149v7.967c1.798-0.224,3.796-0.596,5.927-1.042
			c4.929-1.191,10.457-2.979,15.253-6.18c1.199-0.819,2.331-1.712,3.331-2.755c1-1.042,1.865-2.308,2.331-3.871
			C69.33,44.637,69.196,42.924,68.597,41.733z M25.859,51.933c-1.198,0-2.464-0.074-3.796-0.149
			c-4.596-0.298-9.925-0.968-14.387-2.83c-2.198-0.894-4.263-2.235-5.196-3.871c-0.467-0.819-0.6-1.712-0.333-2.68
			c0.2-0.894,0.667-1.787,1.199-2.456c1.066-1.415,2.265-2.308,3.131-2.978c0.8-0.596,1.332-0.894,1.332-0.894
			s-0.533,0.15-1.465,0.596c-0.933,0.447-2.265,1.042-3.796,2.309c-0.733,0.67-1.532,1.489-2.065,2.68s-0.667,2.904-0.2,4.393
			c0.467,1.489,1.398,2.755,2.398,3.871c0.933,1.042,2.065,1.936,3.264,2.755c4.796,3.202,10.324,4.988,15.253,6.18
			c1.598,0.372,3.198,0.67,4.663,0.894v4.765l8.659-8.339l-8.66-8.339v4.094H25.859z"/>
	</g>
</g>
</svg>
