<?xml version="1.0" encoding="utf-8"?>
<!-- Generator: Adobe Illustrator 21.0.2, SVG Export Plug-In . SVG Version: 6.00 Build 0)  -->
<svg version="1.1" id="Layer_1" xmlns="http://www.w3.org/2000/svg" xmlns:xlink="http://www.w3.org/1999/xlink" x="0px" y="0px"
	 viewBox="0 0 72 72" style="enable-background:new 0 0 72 72;" xml:space="preserve">
<style type="text/css">
	.st0{fill:#FFFFFF;}
</style>
<g id="形状_101_1_">
	<g>
		<path class="st0" d="M35.41,20.416c-5.015,0-9.096,3.815-9.096,8.505s4.081,8.505,9.096,8.505c5.015,0,9.096-3.815,9.096-8.505
			C44.506,24.233,40.425,20.416,35.41,20.416z M35.41,36.11c-4.237,0-7.684-3.224-7.684-7.186s3.447-7.186,7.684-7.186
			c4.237,0,7.684,3.224,7.684,7.186S39.647,36.11,35.41,36.11z M53.121,18.993c-0.531-0.495-1.233-0.77-1.981-0.77h-6.906
			l-0.884-1.649c-0.207-0.316-0.375-0.721-0.544-1.124c-0.416-0.999-0.89-2.13-2.155-2.13H30.164c-1.265,0-1.739,1.132-2.155,2.13
			c-0.166,0.395-0.335,0.805-0.577,1.181l-0.852,1.592h-6.903c-1.546,0-2.803,1.175-2.803,2.623v17.653
			c0,1.445,1.257,2.623,2.803,2.623h31.46c1.546,0,2.803-1.175,2.803-2.623V20.846C53.943,20.147,53.652,19.488,53.121,18.993z
			 M52.53,38.498c0,0.718-0.623,1.301-1.39,1.301H19.678c-0.767,0-1.39-0.585-1.39-1.301V20.846c0-0.718,0.623-1.301,1.39-1.301
			h7.777l1.216-2.28c0.269-0.416,0.465-0.879,0.656-1.336c0.305-0.732,0.561-1.29,0.838-1.29h10.487
			c0.278,0,0.533,0.558,0.841,1.295c0.185,0.441,0.375,0.895,0.626,1.287l1.241,2.321h7.777c0.767,0,1.39,0.582,1.39,1.301
			L52.53,38.498z"/>
	</g>
</g>
</svg>
