<svg width="72" height="72" viewBox="0 0 72 72" fill="none" xmlns="http://www.w3.org/2000/svg">
<path d="M52.764 43.1576V47.0312C54.9767 48.2487 56.1689 49.5688 56.1689 50.727C56.1689 53.39 49.8806 56.9261 39.2549 58.0385V61.5337C50.05 60.4188 59.637 56.7116 59.637 50.7266C59.637 47.5461 56.9253 45.0062 52.7638 43.157L52.764 43.1576Z" fill="white"/>
<path d="M25.7594 64.9382L32.0997 60.9073C32.2149 60.8343 32.2871 60.7044 32.2871 60.5653V59.7217C32.2871 59.5826 32.2171 59.455 32.0997 59.3797L25.7594 55.3488C25.6443 55.2759 25.5043 55.2736 25.3823 55.3306C25.3733 55.3352 25.3643 55.3329 25.3552 55.3374L24.5988 55.7592C24.4724 55.8299 24.3934 55.9644 24.3934 56.1126V57.9275C14.3659 56.7077 8.46835 53.3083 8.46835 50.7297C8.46835 49.6376 9.52954 48.3973 11.512 47.2368V43.3268C7.55843 45.1598 5 47.6404 5 50.7299C5 56.5324 14.009 60.1941 24.3908 61.4273V64.1746C24.3908 64.3206 24.4699 64.4574 24.5963 64.528L25.3527 64.9498C25.3617 64.9544 25.3708 64.9521 25.3798 64.9567C25.434 64.9817 25.4882 65 25.5446 65C25.6214 65 25.6959 64.9795 25.7591 64.9384L25.7594 64.9382Z" fill="white"/>
<path fill-rule="evenodd" clip-rule="evenodd" d="M48.4317 27.4898L40.9913 31.622V30.2887C40.9913 27.9196 39.004 26 36.5513 26H18.44C15.9873 26 14 27.9196 14 30.2887V43.6407C14 46.0098 15.9873 47.9294 18.44 47.9294H36.5513C39.004 47.9294 40.9913 46.0098 40.9913 43.6407V42.3074L48.4317 46.4396C49.8409 47.2228 51 46.5792 51 45.01V28.9272C51 27.3511 49.8452 26.7075 48.4317 27.4893V27.4898Z" fill="white"/>
<g opacity="0.5">
<path d="M45.6214 23.4412C45.9816 23.7856 46.4669 24 47.0013 24H63C63.5343 24 64.0208 23.7867 64.3799 23.4412C64.761 23.0759 65 22.5649 65 21.9999V12.9991C65 11.8998 64.0993 10.999 63 10.999H60.5993C60.2696 10.999 59.9142 10.7428 59.8101 10.4303L59.1887 8.56867C59.0846 8.25492 58.7292 8 58.3995 8H51.6005C51.2708 8 50.9154 8.25615 50.8113 8.56867L50.1899 10.4303C50.0858 10.7441 49.7304 10.999 49.4007 10.999H47C45.9007 10.999 45 11.8998 45 12.9991V21.9986C45.0025 22.5648 45.2414 23.0759 45.6213 23.4411L45.6214 23.4412ZM62.3003 12.775C62.8113 12.775 63.2243 13.1893 63.2243 13.6979C63.2243 14.2089 62.8101 14.622 62.3003 14.622C61.7917 14.622 61.3763 14.2077 61.3763 13.6979C61.3763 13.188 61.7917 12.775 62.3003 12.775V12.775ZM55.0011 12.3608C57.843 12.3608 60.1469 14.6649 60.1469 17.5069C60.1469 20.3488 57.8429 22.6517 55.0011 22.6517C52.1593 22.6517 49.8554 20.3476 49.8554 17.5056C49.8554 14.6636 52.1593 12.3608 55.0011 12.3608V12.3608Z" fill="white"/>
<path d="M57.5477 17.5069C57.5477 18.9127 56.408 20.0537 55.0011 20.0537C53.5942 20.0537 52.4545 18.9127 52.4545 17.5069C52.4545 16.1 53.5942 14.9602 55.0011 14.9602C56.408 14.9602 57.5477 16.1 57.5477 17.5069" fill="white"/>
</g>
</svg>
