<?xml version="1.0" encoding="utf-8"?>
<!-- Generator: Adobe Illustrator 21.0.2, SVG Export Plug-In . SVG Version: 6.00 Build 0)  -->
<svg version="1.1" id="Layer_1" xmlns="http://www.w3.org/2000/svg" xmlns:xlink="http://www.w3.org/1999/xlink" x="0px" y="0px"
	 viewBox="0 0 72 72" style="enable-background:new 0 0 72 72;" xml:space="preserve">
<style type="text/css">
	.st0{fill:#FFFFFF;stroke:#FFFFFF;stroke-miterlimit:10;}
	.st1{fill:#FFFFFF;}
</style>
<g id="形状_102">
	<g>
		<path class="st0" d="M71.27,8.813c-0.018-0.011-0.04-0.017-0.061-0.017c-0.02,0-0.039,0.005-0.056,0.014l-4.456,2.382V7.5
			c0-0.065-0.053-0.118-0.119-0.118H55.177c-0.066,0-0.119,0.053-0.119,0.118v10.61c0,0.065,0.053,0.118,0.119,0.118h11.4
			c0.066,0,0.119-0.053,0.119-0.118c0-0.065-0.053-0.118-0.119-0.118H55.296V7.618h11.163v3.772c0,0.041,0.022,0.08,0.058,0.101
			c0.019,0.011,0.04,0.017,0.061,0.017c0.02,0,0.039-0.005,0.056-0.014l4.456-2.382v7.386l-4.456-2.382
			c-0.018-0.01-0.036-0.014-0.056-0.014c-0.044,0-0.084,0.024-0.105,0.062c-0.031,0.057-0.01,0.129,0.048,0.16l4.631,2.476
			c0.017,0.009,0.037,0.014,0.056,0.014c0.021,0,0.042-0.006,0.061-0.016c0.036-0.021,0.058-0.06,0.058-0.101V8.915
			C71.328,8.873,71.306,8.834,71.27,8.813z"/>
	</g>
</g>
<g id="形状_98">
	<g>
		<path class="st1" d="M68.597,41.733c-0.599-1.415-1.398-2.235-2.131-2.83c-1.465-1.265-2.865-1.861-3.796-2.308
			c-0.933-0.447-1.465-0.596-1.465-0.596s0.467,0.298,1.332,0.894c0.8,0.596,1.998,1.564,3.131,2.979
			c0.533,0.67,1,1.564,1.265,2.456c0.2,0.894,0.134,1.861-0.333,2.68c-0.866,1.712-2.931,2.979-5.129,3.946
			c-4.463,1.861-9.792,2.606-14.387,2.904c-1.799,0.149-3.53,0.149-5.062,0.149v7.967c1.798-0.224,3.796-0.596,5.927-1.042
			c4.929-1.191,10.457-2.979,15.253-6.18c1.199-0.819,2.331-1.712,3.331-2.755c1-1.042,1.865-2.308,2.331-3.871
			C69.33,44.637,69.196,42.924,68.597,41.733z M25.859,51.933c-1.198,0-2.464-0.074-3.796-0.149
			c-4.596-0.298-9.925-0.968-14.387-2.83c-2.198-0.894-4.263-2.235-5.196-3.871c-0.467-0.819-0.6-1.712-0.333-2.68
			c0.2-0.894,0.667-1.787,1.199-2.456c1.066-1.415,2.265-2.308,3.131-2.978c0.8-0.596,1.332-0.894,1.332-0.894
			s-0.533,0.15-1.465,0.596c-0.933,0.447-2.265,1.042-3.796,2.309c-0.733,0.67-1.532,1.489-2.065,2.68s-0.667,2.904-0.2,4.393
			c0.467,1.489,1.398,2.755,2.398,3.871c0.933,1.042,2.065,1.936,3.264,2.755c4.796,3.202,10.324,4.988,15.253,6.18
			c1.598,0.372,3.198,0.67,4.663,0.894v4.765l8.659-8.339l-8.66-8.339v4.094H25.859z"/>
	</g>
</g>
</svg>
