<?xml version="1.0" encoding="utf-8"?>
<!-- Generator: Adobe Illustrator 21.1.0, SVG Export Plug-In . SVG Version: 6.00 Build 0)  -->
<svg version="1.1" id="Layer_1" xmlns="http://www.w3.org/2000/svg" xmlns:xlink="http://www.w3.org/1999/xlink" x="0px" y="0px"
	 width="72px" height="72px" viewBox="0 0 72 72" style="enable-background:new 0 0 72 72;" xml:space="preserve">
<style type="text/css">
	.st0{fill:#FFFFFF;}
</style>
<path class="st0" d="M35.41,20.416c-5.015,0-9.096,3.815-9.096,8.505s4.081,8.505,9.096,8.505s9.096-3.815,9.096-8.505
	C44.506,24.233,40.425,20.416,35.41,20.416z M35.41,36.11c-4.237,0-7.684-3.224-7.684-7.186s3.447-7.186,7.684-7.186
	s7.684,3.224,7.684,7.186S39.647,36.11,35.41,36.11z M53.121,18.993c-0.531-0.495-1.233-0.77-1.981-0.77h-6.906l-0.884-1.649
	c-0.207-0.316-0.375-0.721-0.544-1.124c-0.416-0.999-0.89-2.13-2.155-2.13H30.164c-1.265,0-1.739,1.132-2.155,2.13
	c-0.166,0.395-0.335,0.805-0.577,1.181l-0.852,1.592h-6.903c-1.546,0-2.803,1.175-2.803,2.623v17.653
	c0,1.445,1.257,2.623,2.803,2.623h31.46c1.546,0,2.803-1.175,2.803-2.623V20.846C53.943,20.147,53.652,19.488,53.121,18.993z
	 M52.53,38.498c0,0.718-0.623,1.301-1.39,1.301H19.678c-0.767,0-1.39-0.585-1.39-1.301V20.846c0-0.718,0.623-1.301,1.39-1.301h7.777
	l1.216-2.28c0.269-0.416,0.465-0.879,0.656-1.336c0.305-0.732,0.561-1.29,0.838-1.29h10.487c0.278,0,0.533,0.558,0.841,1.295
	c0.185,0.441,0.375,0.895,0.626,1.287l1.241,2.321h7.777c0.767,0,1.39,0.582,1.39,1.301L52.53,38.498z"/>
<path class="st0" d="M44.506,28.88c0-4.697-4.054-8.505-9.055-8.505s-9.055,3.808-9.055,8.505s4.054,8.505,9.055,8.505
	S44.506,33.577,44.506,28.88z M27.529,28.88c0-4.104,3.555-7.442,7.923-7.442s7.923,3.338,7.923,7.442
	c0,4.103-3.555,7.442-7.923,7.442S27.529,32.983,27.529,28.88z M35.451,28.88v-6.379c3.75,0,6.791,2.856,6.791,6.379H35.451z
	 M30.834,25.761l-0.566,0.921l-0.98-0.532l0.566-0.921L30.834,25.761z M40.069,31.997l0.566-0.92l0.98,0.532l-0.566,0.92
	L40.069,31.997z M33.112,24.01l-0.98,0.532l-0.566-0.921l0.98-0.532L33.112,24.01z M37.79,33.749l0.98-0.532l0.566,0.921
	l-0.979,0.532L37.79,33.749z M36.017,34.195v1.063l-1.132,0.001v-1.064H36.017z M33.112,33.749l-0.566,0.921l-0.98-0.531
	l0.567-0.922L33.112,33.749z M30.834,31.997l-0.98,0.533l-0.567-0.92l0.981-0.533L30.834,31.997z M29.792,29.411l-1.132,0.001
	l-0.002-1.063h1.134V29.411z"/>
</svg>
