<?xml version="1.0" encoding="utf-8"?>
<!-- Generator: Adobe Illustrator 23.0.3, SVG Export Plug-In . SVG Version: 6.00 Build 0)  -->
<svg version="1.1" id="Layer_1" xmlns="http://www.w3.org/2000/svg" xmlns:xlink="http://www.w3.org/1999/xlink" x="0px" y="0px"
	 viewBox="0 0 72 72" style="enable-background:new 0 0 72 72;" xml:space="preserve">
<style type="text/css">
	.st0{fill-rule:evenodd;clip-rule:evenodd;fill:#FFFFFF;}
</style>
<path class="st0" d="M8.4,6.5h5.5v25.5H8.4V6.5z M53.4,40.8h15.2c4.5,0,4.5,9.1,0,9.1H53.4C48.8,49.9,48.8,40.8,53.4,40.8z
	 M63.8,6.5h-5.7v30.5h5.7V6.5z M63.8,53.7v11.8h-5.7V53.7H63.8z M43.6,21H28.4c-4.5,0-4.5,9.3,0,9.3h15.2C48.1,30.3,48.1,21,43.6,21
	z M33.4,6.5h5.5v10.9h-5.5V6.5z M38.8,65.5V34h-5.5v31.6H38.8z M3.6,35.8h15c4.8,0,4.8,9.1,0,9.1h-15C-1.2,44.9-1.2,35.8,3.6,35.8z
	 M13.8,65.5V48.7H8.4v16.8H13.8z"/>
</svg>
