<?xml version="1.0" encoding="utf-8"?>
<!-- Generator: Adobe Illustrator 23.0.1, SVG Export Plug-In . SVG Version: 6.00 Build 0)  -->
<svg version="1.1" id="Layer_1" xmlns="http://www.w3.org/2000/svg" xmlns:xlink="http://www.w3.org/1999/xlink" x="0px" y="0px"
	 viewBox="0 0 72 72" style="enable-background:new 0 0 72 72;" xml:space="preserve">
<style type="text/css">
	.st0{fill-rule:evenodd;clip-rule:evenodd;}
	.st1{fill-rule:evenodd;clip-rule:evenodd;fill:#FFFFFF;}
</style>
<title>Path</title>
<desc>Created with Sketch.</desc>
<g id="Camera-focused">
	<g id="flight_control_0016w" transform="translate(-1178.000000, -243.000000)">
		<g id="middle" transform="translate(0.000000, 64.000000)">
			<g id="right" transform="translate(1134.000000, 170.000000)">
				<g id="camera-controls">
					<g id="Group-10" transform="translate(13.000000, 0.000000)">
						<g id="Group-9">
							<g id="Group-Copy-5" transform="translate(31.000000, 9.000000)">
								<g id="Path">
									<g>
										<path id="path-1" class="st0" d="M67.003,16.352l-14.479,8.569v-2.765c0-4.913-3.867-8.893-8.64-8.893H8.639
											c-4.773,0-8.64,3.981-8.64,8.893v27.687c0,4.913,3.867,8.893,8.64,8.893h35.245c4.773,0,8.64-3.981,8.64-8.893v-2.765
											l14.479,8.569c2.742,1.624,4.998,0.289,4.998-2.964v-33.35c0-3.268-2.247-4.603-4.998-2.982V16.352z"/>
									</g>
									<g>
										<path class="st1" d="M67.003,16.352l-14.479,8.569v-2.765c0-4.913-3.867-8.893-8.64-8.893H8.639
											c-4.773,0-8.64,3.981-8.64,8.893v27.687c0,4.913,3.867,8.893,8.64,8.893h35.245c4.773,0,8.64-3.981,8.64-8.893v-2.765
											l14.479,8.569c2.742,1.624,4.998,0.289,4.998-2.964v-33.35c0-3.268-2.247-4.603-4.998-2.982V16.352z"/>
									</g>
								</g>
							</g>
						</g>
					</g>
				</g>
			</g>
		</g>
	</g>
</g>
</svg>
