<?xml version="1.0" encoding="utf-8"?>
<!-- Generator: Adobe Illustrator 21.0.2, SVG Export Plug-In . SVG Version: 6.00 Build 0)  -->
<svg version="1.1" id="Layer_1" xmlns="http://www.w3.org/2000/svg" xmlns:xlink="http://www.w3.org/1999/xlink" x="0px" y="0px"
	 viewBox="0 0 72 72" style="enable-background:new 0 0 72 72;" xml:space="preserve">
<style type="text/css">
	.st0{fill:#FFFFFF;stroke:#FFFFFF;stroke-miterlimit:10;}
</style>
<g id="形状_102">
	<g>
		<path class="st0" d="M54.046,19.687c-0.042-0.025-0.091-0.039-0.14-0.039c-0.045,0-0.09,0.012-0.13,0.032l-10.252,5.48v-8.495
			c0-0.15-0.122-0.271-0.273-0.271H17.023c-0.151,0-0.273,0.121-0.273,0.271v24.409c0,0.15,0.122,0.271,0.273,0.271H43.25
			c0.151,0,0.273-0.121,0.273-0.271c0-0.15-0.122-0.271-0.273-0.271H17.296V16.937h25.681v8.678c0,0.095,0.051,0.184,0.134,0.233
			c0.043,0.025,0.091,0.039,0.14,0.039c0.045,0,0.09-0.012,0.13-0.032l10.252-5.48v16.992l-10.252-5.48
			c-0.041-0.022-0.084-0.032-0.129-0.032c-0.102,0-0.194,0.054-0.242,0.142c-0.071,0.132-0.022,0.297,0.111,0.368l10.655,5.696
			c0.04,0.021,0.085,0.032,0.13,0.032c0.049,0,0.097-0.014,0.139-0.038c0.083-0.049,0.134-0.138,0.134-0.233V19.92
			C54.179,19.825,54.128,19.735,54.046,19.687z"/>
	</g>
</g>
</svg>
