<?xml version="1.0" encoding="utf-8"?>
<!-- Generator: Adobe Illustrator 23.0.1, SVG Export Plug-In . SVG Version: 6.00 Build 0)  -->
<svg version="1.1" id="Layer_1" xmlns="http://www.w3.org/2000/svg" xmlns:xlink="http://www.w3.org/1999/xlink" x="0px" y="0px"
	 viewBox="0 0 72 72" style="enable-background:new 0 0 72 72;" xml:space="preserve">
<style type="text/css">
	.st0{fill:#FFFFFF;}
</style>
<title>Combined Shape</title>
<desc>Created with Sketch.</desc>
<g id="Camera-focused">
	<g id="flight_control_0016w" transform="translate(-1154.000000, -242.000000)">
		<g id="middle" transform="translate(0.000000, 64.000000)">
			<g id="right" transform="translate(1134.000000, 170.000000)">
				<g id="camera-controls">
					<g id="Group-10" transform="translate(13.000000, 0.000000)">
						<g id="Group-9">
							<g id="Group-Copy">
								<path id="Combined-Shape" class="st0" d="M70.072,22.726L70.072,22.726c4.921,0,8.858,3.937,8.935,8.784l-0.003,34.22
									c0,4.921-4.013,8.857-8.857,8.857H15.864c-4.921,0-8.857-4.013-8.857-8.857V31.51c0-4.847,3.936-8.784,8.857-8.784h11.131
									l3.407-6.814c0.757-1.514,2.345-2.499,4.087-2.499h16.96c1.739,0,3.33,0.985,4.087,2.499l3.407,6.814H70.072z
									 M42.967,64.667c9.541,0,17.262-7.644,17.262-17.185S52.508,30.22,42.967,30.22s-17.262,7.647-17.262,17.185
									C25.705,56.946,33.426,64.667,42.967,64.667z M42.967,35.674c6.435,0,11.735,5.3,11.735,11.735s-5.3,11.735-11.735,11.735
									s-11.735-5.3-11.735-11.735S36.532,35.674,42.967,35.674z"/>
							</g>
						</g>
					</g>
				</g>
			</g>
		</g>
	</g>
</g>
</svg>
