<?xml version="1.0" encoding="utf-8"?>
<!-- Generator: Adobe Illustrator 23.0.4, SVG Export Plug-In . SVG Version: 6.00 Build 0)  -->
<svg version="1.1" id="Layer_1" xmlns="http://www.w3.org/2000/svg" xmlns:xlink="http://www.w3.org/1999/xlink" x="0px" y="0px"
	 viewBox="0 0 288 288" style="enable-background:new 0 0 288 288;" xml:space="preserve">
<style type="text/css">
	.st0{fill:#FFFFFF;}
	.st1{fill-rule:evenodd;clip-rule:evenodd;fill:#FFFFFF;}
	.st2{opacity:0.5;}
</style>
<path class="st0" d="M229.267,175.956v18.593c10.621,5.844,16.344,12.18,16.344,17.74c0,12.782-30.184,29.756-81.187,35.095v16.777
	c51.816-5.352,97.834-23.146,97.834-51.874c0-15.266-13.016-27.458-32.991-36.334L229.267,175.956z"/>
<path class="st0" d="M99.645,280.503l30.433-19.348c0.553-0.35,0.9-0.974,0.9-1.642v-4.049c0-0.668-0.336-1.28-0.9-1.642
	l-30.433-19.348c-0.552-0.35-1.224-0.361-1.81-0.087c-0.043,0.022-0.086,0.011-0.13,0.033l-3.631,2.025
	c-0.607,0.339-0.986,0.985-0.986,1.696v8.712c-48.132-5.855-76.44-22.172-76.44-34.549c0-5.242,5.094-11.196,14.61-16.766v-18.768
	C12.28,185.567,0,197.474,0,212.304c0,27.852,43.243,45.428,93.076,51.348v13.187c0,0.701,0.38,1.357,0.986,1.696l3.631,2.025
	c0.043,0.022,0.087,0.011,0.13,0.033c0.26,0.12,0.52,0.208,0.791,0.208c0.369,0,0.726-0.098,1.03-0.296L99.645,280.503z"/>
<path class="st1" d="M208.472,100.751l-35.714,19.835v-6.4c0-11.372-9.539-20.586-21.312-20.586H64.512
	c-11.773,0-21.312,9.214-21.312,20.586v64.09c0,11.372,9.539,20.586,21.312,20.586h86.934c11.773,0,21.312-9.214,21.312-20.586v-6.4
	l35.714,19.835c6.764,3.759,12.328,0.67,12.328-6.862v-77.197c0-7.565-5.543-10.655-12.328-6.902V100.751z"/>
<g class="st2">
	<path class="st0" d="M194.983,81.318c1.729,1.653,4.058,2.682,6.624,2.682H278.4c2.565,0,4.9-1.024,6.624-2.682
		C286.853,79.564,288,77.112,288,74.4V31.196c0-5.277-4.323-9.6-9.6-9.6h-11.523c-1.583,0-3.288-1.23-3.788-2.73l-2.983-8.936
		c-0.5-1.506-2.206-2.73-3.788-2.73h-32.635c-1.583,0-3.288,1.23-3.788,2.73l-2.983,8.936c-0.5,1.506-2.206,2.73-3.788,2.73H201.6
		c-5.277,0-9.6,4.324-9.6,9.6v43.198C192.012,77.111,193.159,79.564,194.983,81.318L194.983,81.318z M275.041,30.12
		c2.453,0,4.435,1.989,4.435,4.43c0,2.453-1.988,4.436-4.435,4.436c-2.441,0-4.435-1.989-4.435-4.436
		C270.606,32.102,272.6,30.12,275.041,30.12L275.041,30.12z M240.005,28.132c13.641,0,24.7,11.06,24.7,24.701
		c0,13.641-11.059,24.695-24.7,24.695c-13.641,0-24.699-11.06-24.699-24.701S226.365,28.132,240.005,28.132L240.005,28.132z"/>
	<path class="st0" d="M252.229,52.833c0,6.748-5.471,12.225-12.224,12.225c-6.753,0-12.224-5.477-12.224-12.225
		c0-6.753,5.471-12.224,12.224-12.224C246.758,40.609,252.229,46.08,252.229,52.833"/>
</g>
</svg>
