<?xml version="1.0" encoding="utf-8"?>
<!-- Generator: Adobe Illustrator 23.0.1, SVG Export Plug-In . SVG Version: 6.00 Build 0)  -->
<svg version="1.1" id="Layer_1" xmlns="http://www.w3.org/2000/svg" xmlns:xlink="http://www.w3.org/1999/xlink" x="0px" y="0px"
	 viewBox="0 0 14 14" style="enable-background:new 0 0 14 14;" xml:space="preserve">
<style type="text/css">
	.st0{fill-rule:evenodd;clip-rule:evenodd;fill:#FFFFFF;}
</style>
<title>path-1</title>
<desc>Created with Sketch.</desc>
<path id="path-1" class="st0" d="M0.583,2.917C0.261,2.917,0,2.656,0,2.333S0.261,1.75,0.583,1.75h1.833
	c0.171-0.672,0.633-1.233,1.26-1.528c0.627-0.296,1.353-0.296,1.98,0c0.627,0.296,1.089,0.856,1.26,1.528h6.5
	C13.739,1.75,14,2.011,14,2.333s-0.261,0.583-0.583,0.583h-6.5c-0.171,0.672-0.633,1.233-1.26,1.528
	c-0.627,0.296-1.353,0.296-1.98,0c-0.627-0.296-1.089-0.856-1.26-1.528H0.583z M5.744,1.887c-0.181-0.436-0.606-0.72-1.078-0.72
	C4.022,1.167,3.5,1.689,3.5,2.333c0,0.472,0.284,0.897,0.72,1.078c0.436,0.181,0.938,0.081,1.271-0.253S5.925,2.323,5.744,1.887z
	 M0.583,7.583C0.261,7.583,0,7.322,0,7s0.261-0.583,0.583-0.583h6.5c0.171-0.672,0.633-1.233,1.26-1.528
	c0.627-0.296,1.353-0.296,1.98,0c0.627,0.296,1.089,0.856,1.26,1.528h1.833C13.739,6.417,14,6.678,14,7s-0.261,0.583-0.583,0.583
	h-1.833c-0.171,0.672-0.633,1.233-1.26,1.528c-0.627,0.296-1.353,0.296-1.98,0c-0.627-0.296-1.089-0.856-1.26-1.528H0.583z
	 M9.333,5.833L9.333,5.833C8.689,5.833,8.167,6.356,8.167,7c0,0.472,0.284,0.897,0.72,1.078c0.436,0.181,0.938,0.081,1.271-0.253
	c0.334-0.334,0.434-0.835,0.253-1.271C10.231,6.118,9.805,5.833,9.333,5.833z M0.583,12.25C0.261,12.25,0,11.989,0,11.667
	s0.261-0.583,0.583-0.583h1.833c0.171-0.672,0.633-1.233,1.26-1.528c0.627-0.296,1.353-0.296,1.98,0
	c0.627,0.296,1.089,0.856,1.26,1.528h6.5c0.322,0,0.583,0.261,0.583,0.583s-0.261,0.583-0.583,0.583h-6.5
	c-0.171,0.672-0.633,1.233-1.26,1.528c-0.627,0.296-1.353,0.296-1.98,0c-0.627-0.296-1.089-0.856-1.26-1.528H0.583z M4.667,10.5
	L4.667,10.5c-0.644,0-1.167,0.522-1.167,1.167c0,0.472,0.284,0.897,0.72,1.078c0.436,0.181,0.938,0.081,1.271-0.253
	s0.434-0.835,0.253-1.271C5.564,10.784,5.138,10.5,4.667,10.5z"/>
</svg>
