<?xml version="1.0" encoding="utf-8"?>
<!-- Generator: Adobe Illustrator 23.0.4, SVG Export Plug-In . SVG Version: 6.00 Build 0)  -->
<svg version="1.1" id="Layer_1" xmlns="http://www.w3.org/2000/svg" xmlns:xlink="http://www.w3.org/1999/xlink" x="0px" y="0px"
	 viewBox="0 0 72 72" style="enable-background:new 0 0 72 72;" xml:space="preserve">
<style type="text/css">
	.st0{fill-rule:evenodd;clip-rule:evenodd;}
</style>
<path class="st0" d="M63.6,65.5h-5.5V40h5.5V65.5z M18.6,31.2H3.4c-4.5,0-4.5-9.1,0-9.1h15.2C23.2,22.1,23.2,31.2,18.6,31.2z
	 M8.2,65.5h5.7V35H8.2V65.5z M8.2,18.3V6.5h5.7v11.8H8.2z M28.4,51h15.2c4.5,0,4.5-9.3,0-9.3H28.4C23.9,41.7,23.9,51,28.4,51z
	 M38.6,65.5h-5.5V54.6h5.5V65.5z M33.2,6.5V38h5.5V6.4L33.2,6.5L33.2,6.5z M68.4,36.2h-15c-4.8,0-4.8-9.1,0-9.1h15
	C73.2,27.1,73.2,36.2,68.4,36.2z M58.2,6.5v16.8h5.4V6.5H58.2z"/>
</svg>
