<?xml version="1.0" encoding="utf-8"?>
<!-- Generator: Adobe Illustrator 23.0.1, SVG Export Plug-In . SVG Version: 6.00 Build 0)  -->
<svg version="1.1" id="Layer_1" xmlns="http://www.w3.org/2000/svg" xmlns:xlink="http://www.w3.org/1999/xlink" x="0px" y="0px"
	 viewBox="0 0 72 72" style="enable-background:new 0 0 72 72;" xml:space="preserve">
<style type="text/css">
	.st0{fill-rule:evenodd;clip-rule:evenodd;fill:#FFFFFF;}
</style>
<title>open-close-chevron</title>
<desc>Created with Sketch.</desc>
<g id="Path">
	<g>
		<polygon id="path-1" class="st0" points="0,14.011 22.154,36 0,57.989 11.077,57.989 33.231,36 11.077,14.011 		"/>
	</g>
	<g>
		<polygon class="st0" points="0,14.011 22.154,36 0,57.989 11.077,57.989 33.231,36 11.077,14.011 		"/>
	</g>
</g>
<g>
	<g>
		<polygon id="path-3" class="st0" points="19.385,14.011 41.539,36 19.385,57.989 30.462,57.989 52.615,36 30.462,14.011 		"/>
	</g>
	<g>
		<polygon class="st0" points="19.385,14.011 41.539,36 19.385,57.989 30.462,57.989 52.615,36 30.462,14.011 		"/>
	</g>
</g>
<g>
	<g>
		<polygon id="path-5" class="st0" points="38.769,14.011 60.923,36 38.769,57.989 49.846,57.989 72,36 49.846,14.011 		"/>
	</g>
	<g>
		<polygon class="st0" points="38.769,14.011 60.923,36 38.769,57.989 49.846,57.989 72,36 49.846,14.011 		"/>
	</g>
</g>
</svg>
