<svg xmlns="http://www.w3.org/2000/svg" xml:space="preserve" id="Layer_1" x="0" y="0" version="1.1" viewBox="0 0 72 72">
    <style>
        .st0{fill:#fff}
    </style>
    <path d="M36 5.3q6.3 0 12 2.4c3.7 1.5 6.9 3.8 9.8 6.6 2.8 2.8 5 6.1 6.6 9.8q2.4 5.7 2.4 12c0 4.1-.8 8.2-2.4 12-1.5 3.7-3.8 6.9-6.6 9.8-2.8 2.8-6.1 5-9.8 6.6q-5.7 2.4-12 2.4t-12-2.4c-3.7-1.5-6.9-3.8-9.8-6.6-2.8-2.8-5-6.1-6.6-9.8q-2.4-5.7-2.4-12c0-4.1.8-8.2 2.4-12 1.5-3.7 3.8-6.9 6.6-9.8 2.8-2.8 6.1-5 9.8-6.6 3.8-1.6 7.9-2.4 12-2.4M36 0C16.1 0 0 16.1 0 36s16.1 36 36 36 36-16.1 36-36S55.9 0 36 0" class="st0"/>
    <path d="M45.2 47.9c-.7 0-1.4-.3-1.9-.8l-10-10V13.5c0-1.5 1.2-2.6 2.6-2.6 1.5 0 2.6 1.2 2.6 2.6v21.3l8.4 8.4c1 1 1 2.7 0 3.7-.3.7-1 1-1.7 1" class="st0"/>
</svg>
