<?xml version="1.0" encoding="utf-8"?>
<!-- Generator: Adobe Illustrator 21.0.0, SVG Export Plug-In . SVG Version: 6.00 Build 0)  -->
<svg version="1.1" id="Layer_1" xmlns="http://www.w3.org/2000/svg" xmlns:xlink="http://www.w3.org/1999/xlink" x="0px" y="0px"
	 viewBox="114 186 72 72" style="enable-background:new 114 186 72 72;" xml:space="preserve">
<style type="text/css">
	.st0{display:none;}
	.st1{display:inline;}
	.st2{display:inline;stroke:#FFFFFF;stroke-width:1.1959;stroke-miterlimit:10;}
	.st3{display:inline;fill:none;stroke:#FFFFFF;stroke-width:9.567;stroke-miterlimit:10;}
	.st4{display:inline;stroke:#FFFFFF;stroke-width:0.9229;stroke-miterlimit:10;}
	.st5{display:inline;fill:none;stroke:#FFFFFF;stroke-width:9.2289;stroke-miterlimit:10;}
	.st6{display:inline;stroke:#FFFFFF;stroke-width:1.3383;stroke-miterlimit:10;}
	.st7{display:inline;fill:#FFFFFF;}
	.st8{display:inline;opacity:0.7;stroke:#FFFFFF;stroke-width:1.494;stroke-miterlimit:10;enable-background:new    ;}
	.st9{display:inline;opacity:0.7;stroke:#FFFFFF;stroke-width:0.9492;stroke-miterlimit:10;enable-background:new    ;}
	.st10{display:inline;fill:none;stroke:#000000;stroke-width:23.0795;stroke-miterlimit:10;}
	.st11{enable-background:new    ;}
	.st12{fill:none;stroke:#000000;stroke-miterlimit:10;}
	.st13{display:inline;fill:#FFFFFF;stroke:#000000;stroke-miterlimit:10;}
	.st14{display:inline;stroke:#000000;stroke-width:19.9759;stroke-miterlimit:10;}
	.st15{display:inline;stroke:#000000;stroke-width:20.4762;stroke-miterlimit:10;}
	.st16{display:inline;stroke:#000000;stroke-miterlimit:10;}
	.st17{fill:#FFFFFF;}
</style>
<g id="Media_play_icon" class="st0">
	<polygon class="st1" points="389.467,36.093 138.098,181.223 138.098,-109.035 	"/>
</g>
<g id="Document_icon" class="st0">
	<rect x="153.839" y="-105.057" class="st2" width="219.887" height="282.301"/>
	<line class="st3" x1="194.113" y1="-63.239" x2="333.953" y2="-63.239"/>
	<line class="st3" x1="194.113" y1="-37.2" x2="297.306" y2="-37.2"/>
	<line class="st3" x1="194.113" y1="-11.161" x2="310.769" y2="-11.161"/>
	<line class="st3" x1="194.113" y1="14.878" x2="333.953" y2="14.878"/>
	<line class="st3" x1="194.113" y1="40.917" x2="252.44" y2="40.917"/>
	<line class="st3" x1="194.113" y1="66.957" x2="297.306" y2="66.957"/>
	<line class="st3" x1="194.113" y1="92.996" x2="310.769" y2="92.996"/>
</g>
<g id="Contact_icon" class="st0">
	<rect x="121.066" y="-72.835" class="st4" width="285.798" height="217.859"/>
	<polyline class="st5" points="395.701,-62.892 263.965,39.817 132.975,-62.892 	"/>
</g>
<g id="Image_icon" class="st0">
	<rect x="126.43" y="-105.412" class="st6" width="274.705" height="283.013"/>
	<rect x="152.99" y="-76.477" class="st7" width="220.487" height="220.485"/>
	<polygon class="st8" points="299.934,130.488 162.486,130.322 231.353,11.371 	"/>
	<polygon class="st9" points="352.599,129.922 265.278,129.817 309.028,54.248 	"/>
	<circle class="st9" cx="296.949" cy="-12.533" r="23.904"/>
</g>
<g id="Map_icon" class="st0">
	<circle class="st1" cx="263.783" cy="-10.059" r="99.167"/>
	<polygon class="st1" points="263.783,182 191.252,56.374 336.314,56.374 	"/>
	<circle class="st7" cx="263.783" cy="-11" r="34.309"/>
</g>
<g id="Calendar_icon" class="st0">
	<rect x="143.294" y="-82.763" class="st10" width="241.264" height="248.561"/>
	<text transform="matrix(1 0 0 1 164.4731 113.2056)" class="st1" style="font-family:'Futura-Medium'; font-size:172.5264px;">31</text>
	
		<text transform="matrix(1 0 0 1 164.4731 113.2056)" style="display:inline;fill:none;stroke:#000000;stroke-miterlimit:10; font-family:'Futura-Medium'; font-size:172.5264px;">31</text>
	<polyline class="st1" points="306.095,147.826 364.843,147.826 364.843,89.078 	"/>
	<rect x="131.95" y="-105" class="st1" width="263.667" height="66.441"/>
	<circle class="st13" cx="212.379" cy="-70.031" r="11.889"/>
	<circle class="st13" cx="313.089" cy="-71.78" r="11.889"/>
</g>
<g id="Company_icon" class="st0">
	<circle class="st14" cx="263.783" cy="-35.287" r="51.453"/>
	<path class="st15" d="M173.361,172.928c0-81.142,40.483-146.92,90.422-146.92s90.422,65.778,90.422,146.92"/>
	<polygon class="st16" points="202.715,173.065 216.336,173.151 209.887,116.5 	"/>
	<polygon class="st16" points="315.571,173.231 329.192,173.317 322.743,116.666 	"/>
</g>
<g id="BOOUm1.tif">
	<g>
		<path class="st17" d="M146.911,188.042c2.043,0,4.086,0,6.129,0c1.299,1.145,2.036,2.577,2.278,4.294
			c0.226,1.603,1.211,2.628,2.664,3.237c1.059,0.444,2.195,0.749,3.177,1.322c2.494,1.456,4.751,0.86,7.006-0.526
			c2.251-1.383,2.938-1.293,4.839,0.526c0.507,0.485,0.998,0.987,1.491,1.487c2.031,2.061,2.174,3.441,0.526,5.894
			c-0.617,0.919-1.338,1.883-1.07,2.977c0.639,2.603,1.54,5.173,3.036,7.39c1.042,1.545,3.005,1.78,4.766,2.156
			c1.866,0.398,2.42,1.863,2.327,3.476c-0.137,2.349,1.013,5.115-1.798,6.743c-0.42,0.243-0.992,0.209-1.48,0.353
			c-1.348,0.398-2.744,0.762-3.746,1.817c-2.706,2.851-3.222,7.846-1.073,11.249c0.952,1.507,0.786,2.747-0.304,3.99
			c-0.546,0.622-1.139,1.205-1.727,1.79c-2.289,2.277-3.524,2.463-6.187,0.675c-1.597-1.073-3.174-1.185-4.887-0.468
			c-0.824,0.345-1.622,0.796-2.48,1.006c-3.073,0.756-4.566,2.817-5.001,5.809c-0.265,1.823-1.389,2.638-3.149,2.701
			c-0.765,0.028-1.531,0.021-2.297,0.02c-3.453-0.004-4.426-0.776-5.037-4.123c-0.167-0.918-0.43-1.793-1.161-2.343
			c-2.225-1.675-4.841-2.628-7.477-3.278c-1.706-0.421-3.31,0.764-4.73,1.734c-1.423,0.971-2.641,0.681-3.824-0.321
			c-0.631-0.535-1.207-1.138-1.793-1.724c-2.413-2.415-2.57-3.514-0.668-6.316c0.997-1.469,1.131-2.93,0.495-4.525
			c-0.378-0.948-0.879-1.863-1.129-2.843c-0.788-3.08-2.951-4.467-5.877-4.969c-0.854-0.146-1.586-0.425-2.076-1.197
			c-2.101-3.313-0.216-8.339,3.534-9.176c1.812-0.405,2.948-1.378,3.572-3.076c0.308-0.838,0.59-1.704,1.038-2.467
			c1.633-2.779,1.207-5.36-0.638-7.826c-1.079-1.442-0.765-2.738,0.337-3.967c0.553-0.617,1.146-1.2,1.734-1.784
			c2.25-2.232,3.545-2.412,6.208-0.622c1.523,1.024,3.002,1.27,4.673,0.496c0.925-0.428,1.859-0.894,2.84-1.134
			c3.043-0.745,4.394-2.902,4.833-5.745C145.017,189.374,145.738,188.58,146.911,188.042z M150.039,233.914
			c6.73,0.004,12.114-5.361,12.06-12.017c-0.053-6.514-5.516-11.905-12.061-11.902c-6.566,0.003-11.879,5.371-11.869,11.993
			C138.178,228.697,143.366,233.91,150.039,233.914z"/>
	</g>
</g>
</svg>
