<?xml version="1.0" encoding="utf-8"?>
<!-- Generator: Adobe Illustrator 23.0.1, SVG Export Plug-In . SVG Version: 6.00 Build 0)  -->
<svg version="1.1" id="Layer_1" xmlns="http://www.w3.org/2000/svg" xmlns:xlink="http://www.w3.org/1999/xlink" x="0px" y="0px"
	 viewBox="0 0 288 288" style="enable-background:new 0 0 288 288;" xml:space="preserve">
<style type="text/css">
	.st0{fill-rule:evenodd;clip-rule:evenodd;fill:#595959;fill-opacity:0.002;}
	.st1{fill-rule:evenodd;clip-rule:evenodd;fill:#595959;}
	.st2{fill-rule:evenodd;clip-rule:evenodd;fill:#FFFFFF;}
</style>
<title>Tickmarks circle</title>
<desc>Created with Sketch.</desc>
<g id="Minor-tickmarks">
	<path id="Base-plate" class="st0" d="M144,5.4c49.511,0,95.268,26.411,120.024,69.3c24.755,42.889,24.755,95.711,0,138.6
		c-24.756,42.889-70.513,69.3-120.024,69.3s-95.268-26.411-120.024-69.3s-24.755-95.711,0-138.6S94.489,5.4,144,5.4v15.4
		c-44.006,0-84.7,23.485-106.703,61.6s-22.003,85.085,0,123.2S99.994,267.2,144,267.2s84.7-23.485,106.703-61.6
		s22.003-85.085,0-123.2S188.006,20.8,144,20.8V5.4z"/>
	<path id="Tick-minor-0" class="st1" d="M143.038,5.4c0.635,0,1.29,0,1.925,0l-0.115,15.4c-0.577,0-1.117,0-1.694,0L143.038,5.4z"/>
	<path id="Tick-minor-1" class="st1" d="M149.082,5.496c0.635,0.019,1.29,0.038,1.925,0.077l-0.77,15.381
		c-0.577-0.019-1.136-0.058-1.713-0.077L149.082,5.496z"/>
	<path id="Tick-minor-2" class="st1" d="M155.126,5.843c0.635,0.058,1.271,0.115,1.906,0.173l-1.444,15.323
		c-0.577-0.058-1.136-0.096-1.713-0.135L155.126,5.843z"/>
	<path id="Tick-minor-3" class="st1" d="M161.133,6.459c0.635,0.077,1.27,0.154,1.906,0.25l-2.118,15.265
		c-0.558-0.077-1.136-0.154-1.694-0.231L161.133,6.459z"/>
	<path id="Tick-minor-4" class="st1" d="M167.119,7.344c0.635,0.115,1.27,0.212,1.906,0.327l-2.791,15.15
		c-0.558-0.096-1.117-0.193-1.675-0.289L167.119,7.344z"/>
	<path id="Tick-minor-5" class="st1" d="M173.048,8.48c0.635,0.135,1.251,0.289,1.887,0.424L171.509,23.9
		c-0.558-0.135-1.117-0.25-1.675-0.366L173.048,8.48z"/>
	<path id="Tick-minor-6" class="st1" d="M178.939,9.885c0.616,0.154,1.251,0.308,1.867,0.481l-4.1,14.861
		c-0.558-0.154-1.097-0.308-1.656-0.443L178.939,9.885z"/>
	<path id="Tick-minor-7" class="st1" d="M184.752,11.522c0.616,0.192,1.232,0.385,1.848,0.577l-4.736,14.668
		c-0.539-0.173-1.097-0.347-1.636-0.52L184.752,11.522z"/>
	<path id="Tick-minor-8" class="st1" d="M190.489,13.427c0.597,0.212,1.232,0.424,1.829,0.655l-5.371,14.438
		c-0.539-0.193-1.078-0.385-1.617-0.578L190.489,13.427z"/>
	<path id="Tick-minor-9" class="st1" d="M196.148,15.583c0.597,0.25,1.174,0.481,1.771,0.732l-5.987,14.187
		c-0.52-0.231-1.059-0.443-1.579-0.655L196.148,15.583z"/>
	<path id="Tick-minor-10" class="st1" d="M201.692,17.99c0.577,0.269,1.174,0.539,1.752,0.809l-6.603,13.918
		c-0.52-0.25-1.039-0.5-1.559-0.731L201.692,17.99z"/>
	<path id="Tick-minor-11" class="st1" d="M207.14,20.627c0.577,0.289,1.155,0.578,1.713,0.885l-7.2,13.61
		c-0.5-0.269-1.02-0.52-1.521-0.789L207.14,20.627z"/>
	<path id="Tick-minor-12" class="st1" d="M212.472,23.495c0.558,0.308,1.097,0.635,1.656,0.962l-7.796,13.282
		c-0.5-0.289-0.982-0.577-1.482-0.866L212.472,23.495z"/>
	<path id="Tick-minor-13" class="st1" d="M217.65,26.594c0.539,0.347,1.097,0.693,1.636,1.04l-8.374,12.917
		c-0.481-0.308-0.963-0.597-1.444-0.905L217.65,26.594z"/>
	<path id="Tick-minor-14" class="st1" d="M222.713,29.924c0.52,0.366,1.059,0.732,1.579,1.097l-8.932,12.551
		c-0.462-0.327-0.943-0.654-1.405-0.982L222.713,29.924z"/>
	<path id="Tick-minor-15" class="st1" d="M227.603,33.466c0.52,0.385,1.04,0.77,1.54,1.155l-9.471,12.166
		c-0.443-0.347-0.886-0.693-1.348-1.04L227.603,33.466z"/>
	<path id="Tick-minor-16" class="st1" d="M232.357,37.201c0.501,0.404,0.982,0.828,1.463,1.251l-9.972,11.723
		c-0.443-0.366-0.866-0.731-1.309-1.097L232.357,37.201z"/>
	<path id="Tick-minor-17" class="st1" d="M236.92,41.167c0.481,0.424,0.963,0.866,1.425,1.309l-10.491,11.28
		c-0.424-0.385-0.828-0.789-1.251-1.174L236.92,41.167z"/>
	<path id="Tick-minor-18" class="st1" d="M241.328,45.325c0.462,0.443,0.905,0.886,1.348,1.347L231.722,57.49
		c-0.404-0.404-0.808-0.808-1.213-1.213L241.328,45.325z"/>
	<path id="Tick-minor-19" class="st1" d="M245.524,49.656c0.443,0.462,0.885,0.943,1.309,1.424l-11.415,10.318
		c-0.385-0.424-0.789-0.828-1.174-1.251L245.524,49.656z"/>
	<path id="Tick-minor-20" class="st1" d="M249.548,54.18c0.423,0.481,0.847,0.963,1.251,1.463l-11.877,9.817
		c-0.366-0.443-0.732-0.866-1.097-1.309L249.548,54.18z"/>
	<path id="Tick-minor-21" class="st1" d="M253.379,58.857c0.385,0.5,0.77,1.02,1.155,1.54l-12.281,9.278
		c-0.346-0.462-0.693-0.905-1.04-1.348L253.379,58.857z"/>
	<path id="Tick-minor-22" class="st1" d="M256.978,63.708c0.366,0.52,0.732,1.059,1.097,1.578l-12.667,8.759
		c-0.327-0.462-0.655-0.943-0.982-1.405L256.978,63.708z"/>
	<path id="Tick-minor-23" class="st1" d="M260.366,68.713c0.347,0.539,0.693,1.097,1.04,1.636l-13.052,8.181
		c-0.308-0.481-0.597-0.963-0.905-1.444L260.366,68.713z"/>
	<path id="Tick-minor-24" class="st1" d="M263.543,73.872c0.327,0.558,0.654,1.097,0.962,1.656l-13.379,7.623
		c-0.289-0.5-0.577-0.982-0.866-1.482L263.543,73.872z"/>
	<path id="Tick-minor-25" class="st1" d="M266.488,79.147c0.308,0.558,0.597,1.136,0.885,1.713l-13.706,7.007
		c-0.27-0.5-0.52-1.02-0.789-1.521L266.488,79.147z"/>
	<path id="Tick-minor-26" class="st1" d="M269.202,84.556c0.27,0.577,0.539,1.174,0.809,1.752l-13.995,6.41
		c-0.231-0.52-0.481-1.04-0.732-1.559L269.202,84.556z"/>
	<path id="Tick-minor-27" class="st1" d="M271.685,90.081c0.25,0.597,0.481,1.174,0.732,1.771l-14.264,5.794
		c-0.212-0.52-0.423-1.059-0.654-1.578L271.685,90.081z"/>
	<path id="Tick-minor-28" class="st1" d="M273.918,95.683c0.231,0.597,0.443,1.232,0.654,1.829l-14.515,5.159
		c-0.192-0.539-0.385-1.078-0.577-1.617L273.918,95.683z"/>
	<path id="Tick-minor-29" class="st1" d="M275.901,101.4c0.193,0.616,0.385,1.232,0.578,1.848l-14.726,4.524
		c-0.173-0.539-0.346-1.097-0.52-1.636L275.901,101.4z"/>
	<path id="Tick-minor-30" class="st1" d="M277.633,107.194c0.173,0.616,0.327,1.251,0.481,1.867l-14.9,3.888
		c-0.135-0.558-0.289-1.097-0.443-1.655L277.633,107.194z"/>
	<path id="Tick-minor-31" class="st1" d="M279.096,113.065c0.135,0.635,0.289,1.251,0.423,1.886l-15.053,3.215
		c-0.115-0.558-0.231-1.117-0.366-1.675L279.096,113.065z"/>
	<path id="Tick-minor-32" class="st1" d="M280.329,118.975c0.115,0.635,0.212,1.271,0.327,1.906l-15.188,2.56
		c-0.096-0.558-0.193-1.117-0.289-1.675L280.329,118.975z"/>
	<path id="Tick-minor-33" class="st1" d="M281.291,124.962c0.096,0.635,0.173,1.271,0.25,1.906l-15.284,1.906
		c-0.077-0.558-0.154-1.136-0.231-1.694L281.291,124.962z"/>
	<path id="Tick-minor-34" class="st1" d="M281.984,130.968c0.058,0.635,0.116,1.27,0.173,1.906l-15.362,1.251
		c-0.038-0.577-0.077-1.136-0.135-1.713L281.984,130.968z"/>
	<path id="Tick-minor-35" class="st1" d="M282.427,136.993c0.038,0.635,0.058,1.29,0.077,1.925l-15.381,0.558
		c-0.019-0.578-0.058-1.136-0.077-1.713L282.427,136.993z"/>
	<path id="Tick-minor-36" class="st1" d="M282.6,143.038c0,0.635,0,1.29,0,1.925l-15.4-0.115c0-0.577,0-1.117,0-1.694L282.6,143.038
		z"/>
	<path id="Tick-minor-37" class="st1" d="M282.504,149.082c-0.019,0.635-0.039,1.29-0.077,1.925l-15.381-0.77
		c0.019-0.577,0.058-1.136,0.077-1.713L282.504,149.082z"/>
	<path id="Tick-minor-38" class="st1" d="M282.157,155.126c-0.058,0.635-0.116,1.271-0.173,1.906l-15.323-1.444
		c0.058-0.577,0.096-1.136,0.135-1.713L282.157,155.126z"/>
	<path id="Tick-minor-39" class="st1" d="M281.541,161.133c-0.077,0.635-0.154,1.27-0.25,1.906l-15.265-2.118
		c0.077-0.558,0.154-1.136,0.231-1.694L281.541,161.133z"/>
	<path id="Tick-minor-40" class="st1" d="M280.656,167.119c-0.116,0.635-0.212,1.27-0.327,1.906l-15.15-2.791
		c0.096-0.558,0.193-1.117,0.289-1.675L280.656,167.119z"/>
	<path id="Tick-minor-41" class="st1" d="M279.52,173.048c-0.135,0.635-0.289,1.251-0.423,1.887l-14.996-3.426
		c0.135-0.558,0.25-1.117,0.366-1.675L279.52,173.048z"/>
	<path id="Tick-minor-42" class="st1" d="M278.115,178.939c-0.154,0.616-0.308,1.251-0.481,1.867l-14.861-4.1
		c0.154-0.558,0.308-1.097,0.443-1.656L278.115,178.939z"/>
	<path id="Tick-minor-43" class="st1" d="M276.479,184.752c-0.193,0.616-0.385,1.232-0.578,1.848l-14.669-4.736
		c0.173-0.539,0.347-1.097,0.52-1.636L276.479,184.752z"/>
	<path id="Tick-minor-44" class="st1" d="M274.573,190.489c-0.212,0.597-0.423,1.232-0.654,1.829l-14.438-5.371
		c0.192-0.539,0.385-1.078,0.577-1.617L274.573,190.489z"/>
	<path id="Tick-minor-45" class="st1" d="M272.417,196.148c-0.25,0.597-0.481,1.174-0.732,1.771l-14.187-5.987
		c0.231-0.52,0.443-1.059,0.654-1.579L272.417,196.148z"/>
	<path id="Tick-minor-46" class="st1" d="M270.01,201.692c-0.269,0.577-0.539,1.174-0.809,1.752l-13.918-6.603
		c0.25-0.52,0.501-1.039,0.732-1.559L270.01,201.692z"/>
	<path id="Tick-minor-47" class="st1" d="M267.373,207.14c-0.289,0.577-0.577,1.155-0.885,1.713l-13.61-7.2
		c0.27-0.5,0.52-1.02,0.789-1.521L267.373,207.14z"/>
	<path id="Tick-minor-48" class="st1" d="M264.505,212.472c-0.308,0.558-0.635,1.097-0.962,1.656l-13.283-7.796
		c0.289-0.5,0.577-0.982,0.866-1.482L264.505,212.472z"/>
	<path id="Tick-minor-49" class="st1" d="M261.406,217.65c-0.347,0.539-0.693,1.097-1.04,1.636l-12.917-8.374
		c0.308-0.481,0.597-0.963,0.905-1.444L261.406,217.65z"/>
	<path id="Tick-minor-50" class="st1" d="M258.076,222.713c-0.366,0.52-0.732,1.059-1.097,1.579l-12.551-8.932
		c0.327-0.462,0.655-0.943,0.982-1.405L258.076,222.713z"/>
	<path id="Tick-minor-51" class="st1" d="M254.533,227.603c-0.385,0.52-0.77,1.04-1.155,1.54l-12.166-9.471
		c0.347-0.443,0.693-0.886,1.04-1.348L254.533,227.603z"/>
	<path id="Tick-minor-52" class="st1" d="M250.799,232.357c-0.404,0.501-0.828,0.982-1.251,1.463l-11.723-9.972
		c0.366-0.443,0.732-0.866,1.097-1.309L250.799,232.357z"/>
	<path id="Tick-minor-53" class="st1" d="M246.833,236.92c-0.424,0.481-0.866,0.963-1.309,1.425l-11.281-10.491
		c0.385-0.424,0.789-0.828,1.174-1.251L246.833,236.92z"/>
	<path id="Tick-minor-54" class="st1" d="M242.676,241.328c-0.443,0.462-0.885,0.905-1.348,1.348l-10.818-10.953
		c0.404-0.404,0.809-0.808,1.213-1.213L242.676,241.328z"/>
	<path id="Tick-minor-55" class="st1" d="M238.344,245.524c-0.462,0.443-0.943,0.885-1.425,1.309l-10.318-11.415
		c0.423-0.385,0.828-0.789,1.251-1.174L238.344,245.524z"/>
	<path id="Tick-minor-56" class="st1" d="M233.821,249.548c-0.481,0.423-0.963,0.847-1.463,1.251l-9.817-11.877
		c0.443-0.366,0.866-0.732,1.309-1.097L233.821,249.548z"/>
	<path id="Tick-minor-57" class="st1" d="M229.143,253.379c-0.501,0.385-1.02,0.77-1.54,1.155l-9.279-12.281
		c0.462-0.346,0.905-0.693,1.348-1.04L229.143,253.379z"/>
	<path id="Tick-minor-58" class="st1" d="M224.292,256.978c-0.52,0.366-1.059,0.732-1.579,1.097l-8.759-12.667
		c0.462-0.327,0.943-0.655,1.405-0.982L224.292,256.978z"/>
	<path id="Tick-minor-59" class="st1" d="M219.287,260.366c-0.539,0.347-1.097,0.693-1.636,1.04l-8.181-13.052
		c0.481-0.308,0.962-0.597,1.444-0.905L219.287,260.366z"/>
	<path id="Tick-minor-60" class="st1" d="M214.128,263.543c-0.558,0.327-1.097,0.654-1.656,0.962l-7.623-13.379
		c0.501-0.289,0.982-0.577,1.482-0.866L214.128,263.543z"/>
	<path id="Tick-minor-61" class="st1" d="M208.853,266.488c-0.558,0.308-1.136,0.597-1.713,0.885l-7.007-13.706
		c0.5-0.27,1.02-0.52,1.521-0.789L208.853,266.488z"/>
	<path id="Tick-minor-62" class="st1" d="M203.444,269.202c-0.577,0.27-1.174,0.539-1.752,0.809l-6.41-13.995
		c0.52-0.231,1.04-0.481,1.559-0.732L203.444,269.202z"/>
	<path id="Tick-minor-63" class="st1" d="M197.919,271.685c-0.597,0.25-1.174,0.481-1.771,0.732l-5.794-14.264
		c0.52-0.212,1.059-0.423,1.579-0.654L197.919,271.685z"/>
	<path id="Tick-minor-64" class="st1" d="M192.317,273.918c-0.597,0.231-1.232,0.443-1.829,0.654l-5.159-14.515
		c0.539-0.192,1.078-0.385,1.617-0.577L192.317,273.918z"/>
	<path id="Tick-minor-65" class="st1" d="M186.6,275.901c-0.616,0.193-1.232,0.385-1.848,0.578l-4.524-14.726
		c0.539-0.173,1.097-0.346,1.636-0.52L186.6,275.901z"/>
	<path id="Tick-minor-66" class="st1" d="M180.806,277.633c-0.616,0.173-1.251,0.327-1.867,0.481l-3.889-14.9
		c0.558-0.135,1.097-0.289,1.656-0.443L180.806,277.633z"/>
	<path id="Tick-minor-67" class="st1" d="M174.935,279.096c-0.635,0.135-1.251,0.289-1.887,0.423l-3.215-15.053
		c0.558-0.115,1.117-0.231,1.675-0.366L174.935,279.096z"/>
	<path id="Tick-minor-68" class="st1" d="M169.025,280.329c-0.635,0.115-1.271,0.212-1.906,0.327l-2.56-15.188
		c0.558-0.096,1.117-0.193,1.675-0.289L169.025,280.329z"/>
	<path id="Tick-minor-69" class="st1" d="M163.038,281.291c-0.635,0.096-1.27,0.173-1.906,0.25l-1.906-15.284
		c0.558-0.077,1.136-0.154,1.694-0.231L163.038,281.291z"/>
	<path id="Tick-minor-70" class="st1" d="M157.032,281.984c-0.635,0.058-1.27,0.116-1.906,0.173l-1.251-15.362
		c0.577-0.038,1.136-0.077,1.713-0.135L157.032,281.984z"/>
	<path id="Tick-minor-71" class="st1" d="M151.007,282.427c-0.635,0.038-1.29,0.058-1.925,0.077l-0.558-15.381
		c0.578-0.019,1.136-0.058,1.713-0.077L151.007,282.427z"/>
	<path id="Tick-minor-72" class="st1" d="M144.962,282.6c-0.635,0-1.29,0-1.925,0l0.115-15.4c0.577,0,1.117,0,1.694,0L144.962,282.6
		z"/>
	<path id="Tick-minor-73" class="st1" d="M138.918,282.504c-0.635-0.019-1.29-0.039-1.925-0.077l0.77-15.381
		c0.577,0.019,1.136,0.058,1.713,0.077L138.918,282.504z"/>
	<path id="Tick-minor-74" class="st1" d="M132.874,282.157c-0.635-0.058-1.271-0.116-1.906-0.173l1.444-15.323
		c0.577,0.058,1.136,0.096,1.713,0.135L132.874,282.157z"/>
	<path id="Tick-minor-75" class="st1" d="M126.868,281.541c-0.635-0.077-1.271-0.154-1.906-0.25l2.117-15.265
		c0.558,0.077,1.136,0.154,1.694,0.231L126.868,281.541z"/>
	<path id="Tick-minor-76" class="st1" d="M120.881,280.656c-0.635-0.116-1.271-0.212-1.906-0.327l2.791-15.15
		c0.558,0.096,1.117,0.193,1.675,0.289L120.881,280.656z"/>
	<path id="Tick-minor-77" class="st1" d="M114.952,279.52c-0.635-0.135-1.251-0.289-1.886-0.423l3.426-14.996
		c0.558,0.135,1.117,0.25,1.675,0.366L114.952,279.52z"/>
	<path id="Tick-minor-78" class="st1" d="M109.061,278.115c-0.616-0.154-1.251-0.308-1.867-0.481l4.1-14.861
		c0.558,0.154,1.097,0.308,1.655,0.443L109.061,278.115z"/>
	<path id="Tick-minor-79" class="st1" d="M103.248,276.479c-0.616-0.193-1.232-0.385-1.848-0.578l4.736-14.669
		c0.539,0.173,1.097,0.347,1.636,0.52L103.248,276.479z"/>
	<path id="Tick-minor-80" class="st1" d="M97.511,274.573c-0.597-0.212-1.232-0.423-1.829-0.654l5.371-14.438
		c0.539,0.192,1.078,0.385,1.617,0.577L97.511,274.573z"/>
	<path id="Tick-minor-81" class="st1" d="M91.852,272.417c-0.597-0.25-1.174-0.481-1.771-0.732l5.987-14.187
		c0.52,0.231,1.059,0.443,1.578,0.654L91.852,272.417z"/>
	<path id="Tick-minor-82" class="st1" d="M86.308,270.01c-0.577-0.269-1.174-0.539-1.752-0.809l6.603-13.918
		c0.52,0.25,1.04,0.501,1.559,0.732L86.308,270.01z"/>
	<path id="Tick-minor-83" class="st1" d="M80.86,267.373c-0.577-0.289-1.155-0.577-1.713-0.885l7.199-13.61
		c0.501,0.27,1.02,0.52,1.521,0.789L80.86,267.373z"/>
	<path id="Tick-minor-84" class="st1" d="M75.528,264.505c-0.558-0.308-1.097-0.635-1.656-0.962l7.796-13.283
		c0.501,0.289,0.982,0.577,1.482,0.866L75.528,264.505z"/>
	<path id="Tick-minor-85" class="st1" d="M70.35,261.406c-0.539-0.347-1.097-0.693-1.636-1.04l8.374-12.917
		c0.481,0.308,0.962,0.597,1.444,0.905L70.35,261.406z"/>
	<path id="Tick-minor-86" class="st1" d="M65.287,258.076c-0.52-0.366-1.059-0.732-1.578-1.097l8.932-12.551
		c0.462,0.327,0.943,0.655,1.405,0.982L65.287,258.076z"/>
	<path id="Tick-minor-87" class="st1" d="M60.397,254.533c-0.52-0.385-1.04-0.77-1.54-1.155l9.471-12.166
		c0.443,0.347,0.886,0.693,1.348,1.04L60.397,254.533z"/>
	<path id="Tick-minor-88" class="st1" d="M55.643,250.799c-0.5-0.404-0.982-0.828-1.463-1.251l9.972-11.723
		c0.443,0.366,0.866,0.732,1.309,1.097L55.643,250.799z"/>
	<path id="Tick-minor-89" class="st1" d="M51.08,246.833c-0.481-0.424-0.963-0.866-1.424-1.309l10.491-11.281
		c0.424,0.385,0.828,0.789,1.251,1.174L51.08,246.833z"/>
	<path id="Tick-minor-90" class="st1" d="M46.672,242.676c-0.462-0.443-0.905-0.885-1.347-1.348l10.953-10.818
		c0.404,0.404,0.808,0.809,1.213,1.213L46.672,242.676z"/>
	<path id="Tick-minor-91" class="st1" d="M42.476,238.344c-0.443-0.462-0.886-0.943-1.309-1.425l11.415-10.318
		c0.385,0.423,0.789,0.828,1.174,1.251L42.476,238.344z"/>
	<path id="Tick-minor-92" class="st1" d="M38.452,233.821c-0.424-0.481-0.847-0.963-1.251-1.463l11.877-9.817
		c0.366,0.443,0.731,0.866,1.097,1.309L38.452,233.821z"/>
	<path id="Tick-minor-93" class="st1" d="M34.622,229.143c-0.385-0.501-0.77-1.02-1.155-1.54l12.281-9.279
		c0.347,0.462,0.693,0.905,1.04,1.348L34.622,229.143z"/>
	<path id="Tick-minor-94" class="st1" d="M31.022,224.292c-0.366-0.52-0.732-1.059-1.097-1.579l12.667-8.759
		c0.327,0.462,0.654,0.943,0.982,1.405L31.022,224.292z"/>
	<path id="Tick-minor-95" class="st1" d="M27.634,219.287c-0.347-0.539-0.693-1.097-1.04-1.636l13.052-8.181
		c0.308,0.481,0.597,0.962,0.905,1.444L27.634,219.287z"/>
	<path id="Tick-minor-96" class="st1" d="M24.457,214.128c-0.327-0.558-0.654-1.097-0.962-1.656l13.379-7.623
		c0.289,0.501,0.577,0.982,0.866,1.482L24.457,214.128z"/>
	<path id="Tick-minor-97" class="st1" d="M21.512,208.853c-0.308-0.558-0.597-1.136-0.885-1.713l13.706-7.007
		c0.27,0.5,0.52,1.02,0.789,1.521L21.512,208.853z"/>
	<path id="Tick-minor-98" class="st1" d="M18.798,203.444c-0.27-0.577-0.539-1.174-0.809-1.752l13.995-6.41
		c0.231,0.52,0.481,1.04,0.731,1.559L18.798,203.444z"/>
	<path id="Tick-minor-99" class="st1" d="M16.315,197.919c-0.25-0.597-0.481-1.174-0.732-1.771l14.264-5.794
		c0.212,0.52,0.424,1.059,0.655,1.579L16.315,197.919z"/>
	<path id="Tick-minor-100" class="st1" d="M14.082,192.317c-0.231-0.597-0.443-1.232-0.655-1.829l14.514-5.159
		c0.193,0.539,0.385,1.078,0.578,1.617L14.082,192.317z"/>
	<path id="Tick-minor-101" class="st1" d="M12.099,186.6c-0.193-0.616-0.385-1.232-0.577-1.848l14.726-4.524
		c0.173,0.539,0.347,1.097,0.52,1.636L12.099,186.6z"/>
	<path id="Tick-minor-102" class="st1" d="M10.366,180.806c-0.173-0.616-0.327-1.251-0.481-1.867l14.899-3.889
		c0.135,0.558,0.289,1.097,0.443,1.656L10.366,180.806z"/>
	<path id="Tick-minor-103" class="st1" d="M8.904,174.935c-0.135-0.635-0.289-1.251-0.424-1.887l15.054-3.215
		c0.115,0.558,0.231,1.117,0.366,1.675L8.904,174.935z"/>
	<path id="Tick-minor-104" class="st1" d="M7.671,169.025c-0.115-0.635-0.212-1.271-0.327-1.906l15.188-2.56
		c0.096,0.558,0.193,1.117,0.289,1.675L7.671,169.025z"/>
	<path id="Tick-minor-105" class="st1" d="M6.709,163.038c-0.096-0.635-0.173-1.27-0.25-1.906l15.285-1.906
		c0.077,0.558,0.154,1.136,0.231,1.694L6.709,163.038z"/>
	<path id="Tick-minor-106" class="st1" d="M6.016,157.032c-0.058-0.635-0.115-1.27-0.173-1.906l15.361-1.251
		c0.038,0.577,0.077,1.136,0.135,1.713L6.016,157.032z"/>
	<path id="Tick-minor-107" class="st1" d="M5.573,151.007c-0.038-0.635-0.058-1.29-0.077-1.925l15.381-0.558
		c0.019,0.578,0.058,1.136,0.077,1.713L5.573,151.007z"/>
	<path id="Tick-minor-108" class="st1" d="M5.4,144.962c0-0.635,0-1.29,0-1.925l15.4,0.115c0,0.577,0,1.117,0,1.694L5.4,144.962z"/>
	<path id="Tick-minor-109" class="st1" d="M5.496,138.918c0.019-0.635,0.038-1.29,0.077-1.925l15.381,0.77
		c-0.019,0.577-0.058,1.136-0.077,1.713L5.496,138.918z"/>
	<path id="Tick-minor-110" class="st1" d="M5.843,132.874c0.058-0.635,0.115-1.271,0.173-1.906l15.323,1.444
		c-0.058,0.577-0.096,1.136-0.135,1.713L5.843,132.874z"/>
	<path id="Tick-minor-111" class="st1" d="M6.459,126.868c0.077-0.635,0.154-1.271,0.25-1.906l15.265,2.117
		c-0.077,0.558-0.154,1.136-0.231,1.694L6.459,126.868z"/>
	<path id="Tick-minor-112" class="st1" d="M7.344,120.881c0.115-0.635,0.212-1.271,0.327-1.906l15.15,2.791
		c-0.096,0.558-0.193,1.117-0.289,1.675L7.344,120.881z"/>
	<path id="Tick-minor-113" class="st1" d="M8.48,114.952c0.135-0.635,0.289-1.251,0.424-1.886l14.996,3.426
		c-0.135,0.558-0.25,1.117-0.366,1.675L8.48,114.952z"/>
	<path id="Tick-minor-114" class="st1" d="M9.885,109.061c0.154-0.616,0.308-1.251,0.481-1.867l14.861,4.1
		c-0.154,0.558-0.308,1.097-0.443,1.655L9.885,109.061z"/>
	<path id="Tick-minor-115" class="st1" d="M11.522,103.248c0.192-0.616,0.385-1.232,0.577-1.848l14.668,4.736
		c-0.173,0.539-0.347,1.097-0.52,1.636L11.522,103.248z"/>
	<path id="Tick-minor-116" class="st1" d="M13.427,97.511c0.212-0.597,0.424-1.232,0.655-1.829l14.438,5.371
		c-0.193,0.539-0.385,1.078-0.578,1.617L13.427,97.511z"/>
	<path id="Tick-minor-117" class="st1" d="M15.583,91.852c0.25-0.597,0.481-1.174,0.732-1.771l14.187,5.987
		c-0.231,0.52-0.443,1.059-0.655,1.578L15.583,91.852z"/>
	<path id="Tick-minor-118" class="st1" d="M17.99,86.308c0.269-0.577,0.539-1.174,0.809-1.752l13.918,6.603
		c-0.25,0.52-0.5,1.04-0.731,1.559L17.99,86.308z"/>
	<path id="Tick-minor-119" class="st1" d="M20.627,80.86c0.289-0.577,0.578-1.155,0.885-1.713l13.61,7.199
		c-0.269,0.501-0.52,1.02-0.789,1.521L20.627,80.86z"/>
	<path id="Tick-minor-120" class="st1" d="M23.495,75.528c0.308-0.558,0.635-1.097,0.962-1.656l13.282,7.796
		c-0.289,0.501-0.577,0.982-0.866,1.482L23.495,75.528z"/>
	<path id="Tick-minor-121" class="st1" d="M26.594,70.35c0.347-0.539,0.693-1.097,1.04-1.636l12.917,8.374
		c-0.308,0.481-0.597,0.962-0.905,1.444L26.594,70.35z"/>
	<path id="Tick-minor-122" class="st1" d="M29.924,65.287c0.366-0.52,0.732-1.059,1.097-1.578l12.551,8.932
		c-0.327,0.462-0.654,0.943-0.982,1.405L29.924,65.287z"/>
	<path id="Tick-minor-123" class="st1" d="M33.466,60.397c0.385-0.52,0.77-1.04,1.155-1.54l12.166,9.471
		c-0.347,0.443-0.693,0.886-1.04,1.348L33.466,60.397z"/>
	<path id="Tick-minor-124" class="st1" d="M37.201,55.643c0.404-0.5,0.828-0.982,1.251-1.463l11.723,9.972
		c-0.366,0.443-0.731,0.866-1.097,1.309L37.201,55.643z"/>
	<path id="Tick-minor-125" class="st1" d="M41.167,51.08c0.424-0.481,0.866-0.963,1.309-1.424l11.28,10.491
		c-0.385,0.424-0.789,0.828-1.174,1.251L41.167,51.08z"/>
	<path id="Tick-minor-126" class="st1" d="M45.325,46.672c0.443-0.462,0.886-0.905,1.347-1.347L57.49,56.278
		c-0.404,0.404-0.808,0.808-1.213,1.213L45.325,46.672z"/>
	<path id="Tick-minor-127" class="st1" d="M49.656,42.476c0.462-0.443,0.943-0.886,1.424-1.309l10.318,11.415
		c-0.424,0.385-0.828,0.789-1.251,1.174L49.656,42.476z"/>
	<path id="Tick-minor-128" class="st1" d="M54.18,38.452c0.481-0.424,0.963-0.847,1.463-1.251l9.817,11.877
		c-0.443,0.366-0.866,0.731-1.309,1.097L54.18,38.452z"/>
	<path id="Tick-minor-129" class="st1" d="M58.857,34.622c0.5-0.385,1.02-0.77,1.54-1.155l9.278,12.281
		c-0.462,0.347-0.905,0.693-1.348,1.04L58.857,34.622z"/>
	<path id="Tick-minor-130" class="st1" d="M63.708,31.022c0.52-0.366,1.059-0.732,1.578-1.097l8.759,12.667
		c-0.462,0.327-0.943,0.654-1.405,0.982L63.708,31.022z"/>
	<path id="Tick-minor-131" class="st1" d="M68.713,27.634c0.539-0.347,1.097-0.693,1.636-1.04l8.181,13.052
		c-0.481,0.308-0.963,0.597-1.444,0.905L68.713,27.634z"/>
	<path id="Tick-minor-132" class="st1" d="M73.872,24.457c0.558-0.327,1.097-0.654,1.656-0.962l7.623,13.379
		c-0.5,0.289-0.982,0.577-1.482,0.866L73.872,24.457z"/>
	<path id="Tick-minor-133" class="st1" d="M79.147,21.512c0.558-0.308,1.136-0.597,1.713-0.885l7.007,13.706
		c-0.5,0.27-1.02,0.52-1.521,0.789L79.147,21.512z"/>
	<path id="Tick-minor-134" class="st1" d="M84.556,18.798c0.577-0.27,1.174-0.539,1.752-0.809l6.41,13.995
		c-0.52,0.231-1.04,0.481-1.559,0.731L84.556,18.798z"/>
	<path id="Tick-minor-135" class="st1" d="M90.081,16.315c0.597-0.25,1.174-0.481,1.771-0.732l5.794,14.264
		c-0.52,0.212-1.059,0.424-1.578,0.655L90.081,16.315z"/>
	<path id="Tick-minor-136" class="st1" d="M95.683,14.082c0.597-0.231,1.232-0.443,1.829-0.655l5.159,14.514
		c-0.539,0.193-1.078,0.385-1.617,0.578L95.683,14.082z"/>
	<path id="Tick-minor-137" class="st1" d="M101.4,12.099c0.616-0.193,1.232-0.385,1.848-0.577l4.524,14.726
		c-0.539,0.173-1.097,0.347-1.636,0.52L101.4,12.099z"/>
	<path id="Tick-minor-138" class="st1" d="M107.194,10.366c0.616-0.173,1.251-0.327,1.867-0.481l3.888,14.899
		c-0.558,0.135-1.097,0.289-1.655,0.443L107.194,10.366z"/>
	<path class="st1" d="M107.194,10.366c0.616-0.173,1.251-0.327,1.867-0.481l3.888,14.899c-0.558,0.135-1.097,0.289-1.655,0.443
		L107.194,10.366z"/>
	<path id="Tick-minor-139" class="st1" d="M113.065,8.904c0.635-0.135,1.251-0.289,1.886-0.424l3.215,15.054
		c-0.558,0.115-1.117,0.231-1.675,0.366L113.065,8.904z"/>
	<path id="Tick-minor-140" class="st1" d="M118.975,7.671c0.635-0.115,1.271-0.212,1.906-0.327l2.56,15.188
		c-0.558,0.096-1.117,0.193-1.675,0.289L118.975,7.671z"/>
	<path id="Tick-minor-141" class="st1" d="M124.962,6.709c0.635-0.096,1.271-0.173,1.906-0.25l1.906,15.285
		c-0.558,0.077-1.136,0.154-1.694,0.231L124.962,6.709z"/>
	<path id="Tick-minor-142" class="st1" d="M130.968,6.016c0.635-0.058,1.27-0.115,1.906-0.173l1.251,15.361
		c-0.577,0.038-1.136,0.077-1.713,0.135L130.968,6.016z"/>
	<path id="Tick-minor-143" class="st1" d="M136.993,5.573c0.635-0.038,1.29-0.058,1.925-0.077l0.558,15.381
		c-0.578,0.019-1.136,0.058-1.713,0.077L136.993,5.573z"/>
</g>
<path id="Tick-major-0" class="st2" d="M143.038,5.4c0.635,0,1.29,0,1.925,0l-0.154,23.1c-0.539,0-1.078,0-1.617,0L143.038,5.4z"/>
<path id="Tick-major-6" class="st2" d="M178.939,9.885c0.616,0.154,1.251,0.308,1.867,0.481l-6.141,22.272
	c-0.52-0.135-1.02-0.269-1.54-0.404L178.939,9.885z"/>
<path id="Tick-major-12" class="st2" d="M212.472,23.495c0.558,0.308,1.097,0.635,1.656,0.962l-11.685,19.924
	c-0.462-0.269-0.924-0.539-1.386-0.808L212.472,23.495z"/>
<path id="Tick-major-18" class="st2" d="M241.328,45.325c0.462,0.443,0.905,0.886,1.348,1.347L226.236,62.9
	c-0.385-0.385-0.751-0.751-1.136-1.136L241.328,45.325z"/>
<path id="Tick-major-24" class="st2" d="M263.543,73.872c0.327,0.558,0.654,1.097,0.962,1.656l-20.078,11.415
	c-0.27-0.462-0.539-0.924-0.809-1.386L263.543,73.872z"/>
<path id="Tick-major-30" class="st2" d="M277.633,107.194c0.173,0.616,0.327,1.251,0.481,1.867l-22.349,5.813
	c-0.135-0.52-0.27-1.02-0.404-1.54L277.633,107.194z"/>
<path id="Tick-major-36" class="st2" d="M282.6,143.038c0,0.635,0,1.29,0,1.925l-23.1-0.154c0-0.539,0-1.078,0-1.617L282.6,143.038z
	"/>
<path id="Tick-major-42" class="st2" d="M278.115,178.939c-0.154,0.616-0.308,1.251-0.481,1.867l-22.272-6.141
	c0.135-0.52,0.27-1.02,0.404-1.54L278.115,178.939z"/>
<path id="Tick-major-48" class="st2" d="M264.505,212.472c-0.308,0.558-0.635,1.097-0.962,1.656l-19.924-11.685
	c0.27-0.462,0.539-0.924,0.809-1.386L264.505,212.472z"/>
<path id="Tick-major-54" class="st2" d="M242.676,241.328c-0.443,0.462-0.885,0.905-1.348,1.348l-16.228-16.44
	c0.385-0.385,0.751-0.751,1.136-1.136L242.676,241.328z"/>
<path id="Tick-major-60" class="st2" d="M214.128,263.543c-0.558,0.327-1.097,0.654-1.656,0.962l-11.415-20.078
	c0.462-0.27,0.924-0.539,1.386-0.809L214.128,263.543z"/>
<path id="Tick-major-66" class="st2" d="M180.806,277.633c-0.616,0.173-1.251,0.327-1.867,0.481l-5.814-22.349
	c0.52-0.135,1.02-0.27,1.54-0.404L180.806,277.633z"/>
<path id="Tick-major-72" class="st2" d="M144.962,282.6c-0.635,0-1.29,0-1.925,0l0.154-23.1c0.539,0,1.078,0,1.617,0L144.962,282.6z
	"/>
<path id="Tick-major-78" class="st2" d="M109.061,278.115c-0.616-0.154-1.251-0.308-1.867-0.481l6.141-22.272
	c0.52,0.135,1.02,0.27,1.54,0.404L109.061,278.115z"/>
<path id="Tick-major-84" class="st2" d="M75.528,264.505c-0.558-0.308-1.097-0.635-1.656-0.962l11.685-19.924
	c0.462,0.27,0.924,0.539,1.386,0.809L75.528,264.505z"/>
<path id="Tick-major-90" class="st2" d="M46.672,242.676c-0.462-0.443-0.905-0.885-1.347-1.348L61.764,225.1
	c0.385,0.385,0.751,0.751,1.136,1.136L46.672,242.676z"/>
<path id="Tick-major-96" class="st2" d="M24.457,214.128c-0.327-0.558-0.654-1.097-0.962-1.656l20.078-11.415
	c0.269,0.462,0.539,0.924,0.808,1.386L24.457,214.128z"/>
<path id="Tick-major-102" class="st2" d="M10.366,180.806c-0.173-0.616-0.327-1.251-0.481-1.867l22.349-5.814
	c0.135,0.52,0.27,1.02,0.404,1.54L10.366,180.806z"/>
<path id="Tick-major-108" class="st2" d="M5.4,144.962c0-0.635,0-1.29,0-1.925l23.1,0.154c0,0.539,0,1.078,0,1.617L5.4,144.962z"/>
<path id="Tick-major-114" class="st2" d="M9.885,109.061c0.154-0.616,0.308-1.251,0.481-1.867l22.272,6.141
	c-0.135,0.52-0.269,1.02-0.404,1.54L9.885,109.061z"/>
<path id="Tick-major-120" class="st2" d="M23.495,75.528c0.308-0.558,0.635-1.097,0.962-1.656l19.924,11.685
	c-0.269,0.462-0.539,0.924-0.808,1.386L23.495,75.528z"/>
<path id="Tick-major-126" class="st2" d="M45.325,46.672c0.443-0.462,0.886-0.905,1.347-1.347L62.9,61.764
	c-0.385,0.385-0.751,0.751-1.136,1.136L45.325,46.672z"/>
<path id="Tick-major-132" class="st2" d="M73.872,24.457c0.558-0.327,1.097-0.654,1.656-0.962l11.415,20.078
	c-0.462,0.269-0.924,0.539-1.386,0.808L73.872,24.457z"/>
<path id="Tick-major-138" class="st2" d="M107.194,10.366c0.616-0.173,1.251-0.327,1.867-0.481l5.813,22.349
	c-0.52,0.135-1.02,0.27-1.54,0.404L107.194,10.366z"/>
</svg>
