<svg xmlns="http://www.w3.org/2000/svg" xml:space="preserve" viewBox="0 0 72 72">
    <path d="M7.7 9v54h17.2c4.9 0 9.2-1.1 13.1-3.3 3.9-2.1 7-5.2 9-9.1.8-1.4 1.5-3 2-4.6H37.2c-.6 1.4-1.3 2.6-2.2 3.7-2.4 2.9-5.9 4.3-10.4 4.3h-5.5V18h5.6c4.6 0 8 1.5 10.4 4.3 1.3 1.6 2.3 3.6 2.9 6.1h11.6c-.5-2.5-1.4-4.9-2.7-7.1-2.1-3.9-5.1-7-9-9.1C34.2 10 29.8 9 24.9 9z" style="fill:#fff"/>
    <path d="m47.8 35-5.7 1.2c-1.2.3-1.2 2 0 2.3l5.7 1.2 4.7 2.1v3.5l6.4-4 4.8-3c.7-.4.7-1.5 0-1.9l-4.9-3-6.4-4v3.5z" style="fill-rule:evenodd;clip-rule:evenodd;fill:#fff"/>
</svg>
