<svg width="72" height="72" viewBox="0 0 72 72" fill="none" xmlns="http://www.w3.org/2000/svg">
<path d="M7 9V62.8735V63H24.1795C29.0318 63 33.3596 61.8618 37.2938 59.7119C41.228 57.5621 44.2442 54.5269 46.3424 50.6066C47.1651 49.1599 47.8271 47.6445 48.3349 46.0539H36.5615C36.0031 47.4562 35.2877 48.6852 34.4087 49.7213C32.0481 52.63 28.5072 54.0211 24.0484 54.0211H18.5404V17.9789H24.1795C28.7695 17.9789 32.1791 19.4965 34.5397 22.2787C35.8817 23.8602 36.8421 25.8915 37.4213 28.3489H49C48.4687 25.815 47.5905 23.4618 46.3424 21.267C44.2442 17.3466 41.228 14.3115 37.2938 12.1616C33.4907 10.0117 29.1629 9 24.1795 9H7Z" fill="white"/>
<path fill-rule="evenodd" clip-rule="evenodd" d="M47.0769 34.7215L36 37.1237L47.1226 39.4023L57.2037 41.467L57.2088 45L63.6049 40.9953L70 36.9895L63.5932 32.9951L57.186 29L57.1911 32.5284L47.0769 34.7215Z" fill="white"/>
</svg>
