<?xml version="1.0" encoding="utf-8"?>
<!-- Generator: Adobe Illustrator 23.0.3, SVG Export Plug-In . SVG Version: 6.00 Build 0)  -->
<svg version="1.1" id="Layer_1" xmlns="http://www.w3.org/2000/svg" xmlns:xlink="http://www.w3.org/1999/xlink" x="0px" y="0px"
	 viewBox="0 0 72 72" style="enable-background:new 0 0 72 72;" xml:space="preserve">
<style type="text/css">
	.st0{fill:#FFFFFF;}
	.st1{fill:none;stroke:#FFFFFF;stroke-width:8;stroke-miterlimit:10;}
</style>
<path class="st0" d="M18.8,57.3V14.7h13.1c3.8,0,7.1,0.8,10,2.5c3,1.7,5.3,4.1,6.9,7.2c1.7,3.1,2.5,6.6,2.5,10.6v2
	c0,4-0.8,7.5-2.5,10.6c-1.6,3.1-3.9,5.5-6.9,7.2c-3,1.7-6.3,2.6-10,2.6H18.8z M27.6,21.8v28.5h4.2c3.4,0,6.1-1.1,7.9-3.4
	c1.8-2.2,2.7-5.5,2.8-9.6V35c0-4.3-0.9-7.6-2.7-9.8c-1.8-2.2-4.4-3.4-7.9-3.4H27.6z"/>
<g>
	<g>
		<line class="st1" x1="34.4" y1="36.8" x2="57.4" y2="36.8"/>
		<g>
			<polygon class="st0" points="54.5,46.7 71.8,36.8 54.5,26.8 			"/>
		</g>
	</g>
</g>
</svg>
