<svg width="72" height="72" viewBox="0 0 72 72" fill="none" xmlns="http://www.w3.org/2000/svg">
<path d="M7 9V62.8735V63H24.1795C29.0318 63 33.3596 61.8618 37.2938 59.7119C41.228 57.5621 44.2442 54.5269 46.3424 50.6066C47.1651 49.1599 47.8271 47.6445 48.3349 46.0539H36.5615C36.0031 47.4562 35.2877 48.6852 34.4087 49.7213C32.0481 52.63 28.5072 54.0211 24.0484 54.0211H18.5404V17.9789H24.1795C28.7695 17.9789 32.1791 19.4965 34.5397 22.2787C35.8817 23.8602 36.8421 25.8915 37.4213 28.3489H49C48.4687 25.815 47.5905 23.4618 46.3424 21.267C44.2442 17.3466 41.228 14.3115 37.2938 12.1616C33.4907 10.0117 29.1629 9 24.1795 9H7Z" fill="white"/>
<path fill-rule="evenodd" clip-rule="evenodd" d="M44.3801 34.1519L32 37.1546L44.4311 40.0029L55.6983 42.5837L55.704 47L62.8525 41.9941L70 36.9868L62.8395 31.9939L55.6785 27L55.6841 31.4105L44.3801 34.1519Z" fill="white"/>
</svg>
