<?xml version="1.0" encoding="utf-8"?>
<!-- Generator: Adobe Illustrator 23.0.4, SVG Export Plug-In . SVG Version: 6.00 Build 0)  -->
<svg version="1.1" id="Layer_1" xmlns="http://www.w3.org/2000/svg" xmlns:xlink="http://www.w3.org/1999/xlink" x="0px" y="0px"
	 viewBox="0 0 72 72" style="enable-background:new 0 0 72 72;" xml:space="preserve">
<style type="text/css">
	.st0{fill:#FFFFFF;}
	.st1{fill-rule:evenodd;clip-rule:evenodd;fill:#FFFFFF;}
</style>
<path class="st0" d="M7.7,9v53.9V63h17.2c4.9,0,9.2-1.1,13.1-3.3c3.9-2.1,7-5.2,9-9.1c0.8-1.4,1.5-3,2-4.6H37.2
	c-0.6,1.4-1.3,2.6-2.2,3.7c-2.4,2.9-5.9,4.3-10.4,4.3h-5.5V18h5.6c4.6,0,8,1.5,10.4,4.3c1.3,1.6,2.3,3.6,2.9,6.1h11.6
	c-0.5-2.5-1.4-4.9-2.7-7.1c-2.1-3.9-5.1-7-9-9.1C34.2,10,29.8,9,24.9,9H7.7z"/>
<path class="st1" d="M47.8,35l-5.7,1.2c-1.2,0.3-1.2,2,0,2.3l5.7,1.2l4.7,2.1l0,3.5l6.4-4l4.8-3c0.7-0.4,0.7-1.5,0-1.9l-4.9-3
	l-6.4-4l0,3.5L47.8,35z"/>
</svg>
