<svg xmlns="http://www.w3.org/2000/svg" width="2000" height="800">
    <path fill="#4c4c4c" fill-rule="evenodd" d="M1812.8 298.493v57.598l-9.023-3.396c-13.573-5.108-30.222-6.982-44.804-5.041-33.62 4.475-51.135 19.985-60.311 53.413-2.714 9.888-3.14 15.146-3.224 39.865-.077 22.259.46 31.118 2.46 40.577 7.004 33.116 27.492 55.46 54.902 59.876 11.237 1.81 26.399-.077 41.894-5.214 10.343-3.428 11.311-3.52 14.543-1.404 2.275 1.49 6.652 2.268 12.767 2.268h9.304v-296.14H1812.8zM574.62 286.1c.515 17.031.936 80.87.94 141.861l.002 110.895 45.204-.82c49.017-.89 58.558-2.079 72.943-9.09 16.157-7.873 28.724-25.589 33.914-47.806 2.104-9.015 2.396-19.678 2.322-85.055-.073-64.604-.409-76.196-2.476-85.425-5.07-22.635-16.283-37.745-34.489-46.474-16.841-8.076-24.483-9-74.576-9.028l-44.72-.024zm18.027 36.982c0 28.148.426 84.04.947 124.202l.947 73.026 35.715-.743c26.775-.557 37.853-1.326 44.257-3.075 18.026-4.924 27.729-14.702 33.828-34.096 3.138-9.98 3.19-11.363 3.19-87.023 0-75.51-.058-77.062-3.169-86.954-4.019-12.774-10.72-21.583-20.455-26.879-12.966-7.057-20.24-8.152-59.31-8.925l-35.95-.71zm673.593 25.333c-47.284 13.265-69.67 72.573-52.657 139.502 3.95 15.542 10.061 26.395 20.093 35.682 14.299 13.238 27.543 18.247 48.066 18.175 20.331-.07 36.43-5.57 49.636-16.962l6.213-5.36-6.883-5.97-6.884-5.973-5.023 4.02c-15.58 12.469-41.424 15.833-59.376 7.732-16.01-7.226-25.517-20.576-29.45-41.363-4.25-22.453-4.299-21.788 1.677-22.887 2.883-.53 29.57-5.525 59.303-11.1l54.061-10.135 1.279-6.388c.808-4.038.702-11.12-.288-19.257-3.616-29.699-14.804-47.143-36.654-57.146-10.364-4.745-30.978-5.974-43.113-2.57m651.148-.253c-24.23 6.152-42.86 24.51-52.082 51.314-5.8 16.859-7.424 29.916-6.484 52.135 1.913 45.274 14.103 69.943 41.09 83.16 26.172 12.815 58.21 8.829 81.999-10.203l6.089-4.872-6.09-5.51c-3.35-3.03-6.616-5.534-7.258-5.566s-4.057 1.93-7.591 4.362c-22.467 15.458-53.869 14.125-71.554-3.035-9.698-9.413-15.23-23.595-17.862-45.797l-.96-8.104 4.719-.89c2.595-.49 29.386-5.53 59.534-11.202l54.814-10.31.407-12.93c.806-25.569-6.315-45.64-21.027-59.26-11.158-10.331-20.76-14.06-37.753-14.662-7.324-.26-15.89.327-19.991 1.37M825.43 349.164c-6.361.94-11.037 2.506-33.004 11.054-5.635 2.192-6.11 2.174-8.898-.35-1.62-1.465-2.946-3.847-2.946-5.292 0-2.284-1.209-2.627-9.254-2.627h-9.255V538.46h18.509V387.741l10.322-5.697c12.817-7.073 29.698-13.828 37.864-15.151 8.36-1.356 17.307 1.36 24.35 7.39l5.74 4.911 7.213-6.082 7.213-6.082-5.417-4.683c-7.39-6.384-21.155-12.868-28.911-13.617-3.524-.34-9.61-.145-13.526.433m94.34 1.278c-24.004 7.674-37.326 24.537-43.93 55.61-4.178 19.654-4.602 58.91-.816 75.458 9.438 41.25 41.77 65.316 80.392 59.839 28.563-4.052 49.94-24.385 57.817-54.993 7.82-30.398 4.88-78.424-6.18-100.95-8.288-16.88-22.887-29.284-41.074-34.902-12.164-3.756-34.556-3.786-46.208-.062m177.595.651c-7.047 1.884-14.617 4.128-16.821 4.988-5.954 2.322-10.19 1.906-13.077-1.285-2.099-2.319-4.386-2.847-12.323-2.847h-9.746v186.511h18.509V384.834l8.899-4.96c14.522-8.092 29.757-12.56 45.567-13.364 21.944-1.116 30.814 3.794 36.189 20.03 2.158 6.524 2.514 16.032 2.975 79.664l.524 72.255h16.899v-70.994c0-41.193-.595-74.132-1.418-78.471-3.403-17.94-12.882-31.163-26.884-37.496-10.33-4.674-32.636-4.858-49.293-.406m325.173-1.432c-16.725 4.818-30.205 16.175-38.348 32.309-6.802 13.472-9.977 30.712-10.86 58.963-.65 20.787-.348 26.174 2.136 38.164 1.592 7.677 4.756 17.928 7.03 22.78 4.733 10.094 15.948 23.009 25.436 29.293 19.03 12.605 47.348 14.37 68.511 4.27 8.861-4.228 23.132-16.166 23.132-19.35 0-.846-3.108-3.53-6.907-5.968l-6.907-4.432-5.349 5.044c-19.367 18.265-52.751 17.163-71.529-2.364-12.334-12.823-17.838-32.18-17.761-62.454.08-31.198 5.353-53.607 15.368-65.306 16.864-19.702 55.862-20.228 75.076-1.015l4.867 4.867 7.304-4.92c6.22-4.188 7.093-5.314 5.876-7.588-2.668-4.986-13.529-13.22-24.214-18.36-10.28-4.943-11.27-5.132-28.475-5.472-11.583-.228-20.122.31-24.386 1.539m149.218-.506c-17.309 4.336-32.17 16.681-40.128 33.338-11.658 24.4-14.946 72.954-7.028 103.794 9.652 37.59 42.139 60.135 79.264 55.01 22.192-3.065 40.621-16.69 51.018-37.719 8.48-17.156 10.483-28.246 10.409-57.662-.102-40.085-5.607-59.787-21.509-76.963-5.849-6.318-10.941-10.016-19.921-14.466-11.964-5.927-12.207-5.98-29.378-6.331-9.523-.197-19.75.255-22.727 1m-638.2 16.99c-15.9 2.397-27.991 11.23-34.33 25.077-6.197 13.536-8.113 26.134-8.213 53.981-.081 22.712.283 26.924 3.199 37.018 7.853 27.176 24.926 40.991 50.812 41.116 14.799.072 24.161-3.129 33.373-11.411 8.23-7.4 14.516-19.18 18.134-33.976 4.894-20.015 2.423-65.802-4.43-82.105-9.004-21.428-32.922-33.56-58.545-29.7m334.66.529c-23.41 7.732-37.01 28.65-41.218 63.396-.903 7.447-.84 7.627 2.348 6.87 1.802-.427 24.739-4.757 50.971-9.623 26.233-4.865 47.97-9.084 48.305-9.377 1.485-1.297-3.138-23.17-6.41-30.326-7.36-16.094-16.31-21.74-35.488-22.39-7.951-.267-14.975.282-18.509 1.45m312.842-.345c-10.628 1.791-16.32 4.485-23.541 11.141-12.944 11.931-18.436 32.474-18.492 69.157-.038 25.287 2.643 39.392 9.812 51.627 11.111 18.958 32.086 28.458 54.297 24.59 29.233-5.09 42.432-26.219 44.052-70.522.881-24.088-1.88-45.168-7.576-57.862-9.313-20.752-33.467-32.357-58.552-28.13m176.216-.04c-19.461 3.403-33.154 15.347-39.072 34.078-6.721 21.278-7.54 54.17-1.996 80.17 3.75 17.582 13.929 32.073 27.486 39.132 13.992 7.285 39.325 4.189 59.854-7.317l8.543-4.788.37-64.87.37-64.869-4.854-3c-12.496-7.724-34.332-11.4-50.7-8.537m158.417 1.256c-13.795 4.965-22.162 13.174-29.78 29.217-4.61 9.704-9.043 27.66-9.043 36.619 0 3.741.417 4.2 3.204 3.522 1.761-.429 24.346-4.72 50.187-9.536s47.47-9.219 48.067-9.784c1.73-1.642-2.695-23.788-6.199-31.027-4.281-8.844-12.75-16.794-20.818-19.542-9.112-3.105-26.224-2.85-35.618.531" style="stroke-width:1.42374;fill:#fffaff;fill-opacity:1"/>
    <path fill="#5bc5cd" fill-rule="evenodd" d="M477.322 265.596c-2.74.987-44.005 16.495-91.698 34.463l-86.713 32.668-17.737 36.306c-25.826 52.862-70.093 145.564-70.093 146.784 0 .578 4.73 6.077 10.509 12.222 13.456 14.301 20.834 18.22 34.34 18.238 18.267.024 12.093 5.854 132.045-124.675 59.312-64.543 110.705-121.067 114.205-125.61 7.501-9.737 8.998-15.518 5.92-22.883-3.605-8.626-17.96-12.13-30.778-7.513" style="stroke-width:1.42374"/>
    <path fill="#23b473" fill-rule="evenodd" d="M12.294 265.643c-8.757 3.966-11.49 13.167-6.83 22.99 1.24 2.609 10.374 13.597 20.302 24.42 9.928 10.82 42.483 46.347 72.346 78.946l54.298 59.272 30.132-57.669c16.573-31.716 29.855-58.389 29.514-59.272-.338-.881-41.22-16.928-90.848-35.659-93.872-35.431-99.705-37.2-108.914-33.028" style="stroke-width:1.42374"/>
    <path fill="#48766d" fill-rule="evenodd" d="M183.295 392.164c-16.431 31.487-30.776 58.164-30.776 59.048 0 1.637 57.74 65.362 58.518 64.583l44.662-94.192-21.537-43.841-22.157-43.42z" style="stroke-width:1.42374"/>
</svg>
