<?xml version="1.0" encoding="utf-8"?>
<!-- Generator: Adobe Illustrator 23.0.3, SVG Export Plug-In . SVG Version: 6.00 Build 0)  -->
<svg version="1.1" id="Layer_1" xmlns="http://www.w3.org/2000/svg" xmlns:xlink="http://www.w3.org/1999/xlink" x="0px" y="0px"
	 viewBox="0 0 288 288" style="enable-background:new 0 0 288 288;" xml:space="preserve">
<style type="text/css">
	.st0{fill:#FFFFFF;}
</style>
<path class="st0" d="M66.732,86.624c3.003,3.003,7.5,3.003,10.502,0l9.375-9.375c3.003-3.003,3.003-7.5,0-10.502L57.358,37.496
	c-3.003-3.003-7.5-3.003-10.502,0l-9.36,9.008c-3.003,3.003-3.003,7.5,0,10.502L66.732,86.624z"/>
<path class="st0" d="M137.615,56.262h13.125c4.13,0,7.5-3.369,7.5-7.5V7.515c0-4.131-3.369-7.5-7.5-7.5h-13.125
	c-4.131,0-7.5,3.369-7.5,7.5v41.248C130.116,52.879,133.485,56.262,137.615,56.262z"/>
<path class="st0" d="M143.985,70.133c-38.99,0-70.5,31.492-70.5,70.118c0,38.625,31.507,70.5,70.5,70.5
	c38.993,0,70.499-31.493,70.499-70.117C214.485,102.006,182.979,70.133,143.985,70.133z M143.985,182.627
	c-23.246,0-41.994-18.749-41.994-41.994c0-23.246,18.749-41.994,41.994-41.994c23.244,0,41.993,18.749,41.993,41.994
	C185.979,163.88,167.23,182.627,143.985,182.627z"/>
<path class="st0" d="M56.248,150.371v-13.124c0-4.131-3.369-7.5-7.5-7.5H7.5c-4.131,0-7.5,3.369-7.5,7.5v13.124
	c0,4.13,3.369,7.5,7.5,7.5h41.248C52.864,157.871,56.248,154.501,56.248,150.371z"/>
<path class="st0" d="M280.472,129.747h-41.248c-4.132,0-7.5,3.369-7.5,7.5v13.124c0,4.13,3.369,7.5,7.5,7.5h41.248
	c4.13,0,7.5-3.369,7.5-7.5v-13.124C288.352,133.497,284.983,130.128,280.472,129.747
	C280.852,129.747,280.852,129.747,280.472,129.747z"/>
<path class="st0" d="M150.355,231.738h-13.123c-4.131,0-7.5,3.369-7.5,7.5v41.248c0,4.13,3.369,7.5,7.5,7.5h13.123
	c4.132,0,7.502-3.369,7.502-7.5v-41.248C157.857,235.122,154.488,231.738,150.355,231.738z"/>
<path class="st0" d="M77.236,201.376c-3.003-3.004-7.5-3.004-10.502,0l-29.251,29.25c-3.003,3.004-3.003,7.5,0,10.503l9.375,9.375
	c3.003,3.004,7.5,3.004,10.502,0l29.251-29.252c3.003-3.002,3.003-7.5,0-10.501L77.236,201.376z"/>
<path class="st0" d="M210.735,86.624c3.004,3.003,7.5,3.003,10.503,0l29.25-29.251c3.004-3.003,3.004-7.5,0-10.502l-9.007-9.36
	c-3.004-3.003-7.5-3.003-10.503,0l-29.25,29.251c-3.004,3.003-3.004,7.5,0,10.502L210.735,86.624z"/>
<path class="st0" d="M221.238,201.376c-3.002-3.004-7.5-3.004-10.501,0l-9.375,9.375c-3.004,3.002-3.004,7.5,0,10.501l29.25,29.252
	c3.004,3.004,7.5,3.004,10.503,0l9.375-9.375c3.004-3.004,3.004-7.5,0-10.503L221.238,201.376z"/>
</svg>
