<?xml version="1.0" encoding="utf-8"?>
<!-- Generator: Adobe Illustrator 23.0.3, SVG Export Plug-In . SVG Version: 6.00 Build 0)  -->
<svg version="1.1" id="Layer_1" xmlns="http://www.w3.org/2000/svg" xmlns:xlink="http://www.w3.org/1999/xlink" x="0px" y="0px"
	 viewBox="0 0 288 288" style="enable-background:new 0 0 288 288;" xml:space="preserve">
<style type="text/css">
	.st0{fill:#FFFFFF;}
</style>
<path class="st0" d="M253.404,49.659l25.701-25.863c2.159-1.97,3.413-4.731,3.476-7.642c0.063-2.911-1.08-5.735-3.136-7.793
	c-2.071-2.045-4.894-3.175-7.808-3.099c-2.911,0.075-5.672,1.343-7.629,3.501l-25.703,25.7C201.07,2.777,150.33-7.939,103.456,5.99
	C56.581,19.919,19.924,56.586,6.019,103.468c-13.905,46.87-3.175,97.604,28.538,134.823l-25.865,25.7
	c-4.104,4.203-4.104,10.905,0,15.096c4.192,4.154,10.943,4.154,15.135,0l25.702-25.7c37.21,31.774,87.976,42.553,134.898,28.662
	c46.923-13.89,83.618-50.583,97.549-97.479c13.918-46.908,3.174-97.678-28.576-134.91L253.404,49.659z M143.979,267.239
	c-29.015,0.025-57.101-10.214-79.291-28.912c-5.434-4.556-10.467-9.588-15.01-15.034c-24.221-28.849-33.924-67.185-26.317-104.077
	c7.605-36.892,31.664-68.278,65.322-85.194c33.66-16.916,73.216-17.505,107.352-1.581c34.149,15.912,59.134,46.568,67.818,83.222
	c8.697,36.641,0.126,75.255-23.243,104.806c-23.355,29.54-58.959,46.771-96.633,46.771H143.979z"/>
<path class="st0" d="M202.907,100.192c-3.701-1.28-7.579-2.435-11.633-3.438c-1.029-4.053-2.184-7.931-3.439-11.595
	c-9.337-26.929-25.175-43.982-43.813-43.982c-21.234,0-38.743,22.01-47.263,55.479c-33.471,8.546-55.546,26.114-55.546,47.319
	c0,18.66,16.993,34.47,43.848,43.821c3.702,1.279,7.58,2.434,11.634,3.438c1.029,4.054,2.184,7.931,3.439,11.596
	c9.388,26.916,25.188,43.946,43.887,43.946c21.234,0,38.778-21.936,47.264-55.454c33.469-8.572,55.544-26.114,55.544-47.345
	c0-18.635-17.055-34.47-43.924-43.782L202.907,100.192z M92.619,167.778c-19.277-6.425-29.969-16.062-29.969-23.767
	c0-7.717,10.692-17.292,29.969-23.843C90.863,135.993,90.863,151.955,92.619,167.778L92.619,167.778z M144.024,62.532
	c7.744,0,17.256,10.83,23.845,29.966v0.012c-15.826-1.769-31.801-1.769-47.613,0c6.488-19.212,16.026-29.979,23.769-29.979H144.024z
	 M144.024,225.375c-7.705,0-17.256-10.792-23.769-29.903c7.894,0.878,15.825,1.317,23.769,1.317
	c7.957-0.038,15.901-0.502,23.807-1.418c-6.551,19.275-16.064,30.042-23.807,30.042V225.375z M173.265,173.172
	c-9.676,1.569-19.452,2.334-29.241,2.309c-5.497,0-10.73-0.251-15.737-0.678c-5.007-0.414-9.224-0.929-13.466-1.606
	c-0.678-4.267-1.217-8.734-1.606-13.427c-0.389-4.693-0.64-10.277-0.64-15.774v0.013c-0.025-9.788,0.728-19.563,2.246-29.239
	c9.664-1.531,19.427-2.296,29.203-2.284c5.522,0,10.73,0.251,15.775,0.678c5.045,0.414,9.224,0.903,13.466,1.569
	c0.678,4.266,1.217,8.772,1.606,13.465c0.389,4.693,0.64,10.277,0.64,15.774c0.013,9.776-0.753,19.538-2.284,29.201L173.265,173.172
	z M195.429,167.776c0.878-7.893,1.317-15.836,1.317-23.767c0-7.968-0.439-15.924-1.317-23.842
	c19.277,6.425,29.969,16.062,29.969,23.842C225.398,151.777,214.706,161.251,195.429,167.776z"/>
</svg>
