<?xml version="1.0" encoding="utf-8"?>
<!-- Generator: Adobe Illustrator 21.0.2, SVG Export Plug-In . SVG Version: 6.00 Build 0)  -->
<svg version="1.1" id="Layer_1" xmlns="http://www.w3.org/2000/svg" xmlns:xlink="http://www.w3.org/1999/xlink" x="0px" y="0px"
	 viewBox="0 0 72 72" style="enable-background:new 0 0 72 72;" xml:space="preserve">
<style type="text/css">
	.st0{fill:#FFFFFF;}
</style>
<g id="形状_58">
	<g>
		<path class="st0" d="M54.183,34.924c-3.329,4.063-6.529,7.973-9.855,12.031c6.042,4.881,11.901,9.614,17.999,14.54
			c3.243-4.058,6.39-7.992,9.671-12.092C66.132,44.636,60.252,39.859,54.183,34.924z M4.57,14.263
			c4.425,3.644,8.776,7.375,13.164,11.063c0.899,0.755,1.839,1.456,2.847,2.253c3.354-4.1,6.516-7.962,9.853-12.038
			c-6.079-4.847-12.015-9.585-18.083-14.426C9.599,4.638,7.039,8.034,4.337,11.31C3.332,12.529,3.341,13.251,4.57,14.263z
			 M36.954,27.833c-0.952-0.767-1.827-0.66-2.621,0.319l-1.116,1.374l2.952,2.376l1.116-1.374
			C38.138,29.543,38.027,28.645,36.954,27.833z M53.917,21.018c-0.655-0.532-1.281-1.1-2.261-1.944
			c2.297-0.544,4.108-0.973,6.353-1.505c-3.886-3.16-7.395-6.016-11.32-9.211v6.738c-1.401-1.113-2.252-1.8-3.113-2.471
			c-2.36-1.835-5.917-1.545-7.797,0.727c-5.252,6.343-10.477,12.713-15.691,19.089c-1.46,1.784-1.71,5.443-0.146,6.928
			c1.765,1.669,1.159,3.446,1.074,5.345c-11.195-3.837-17.62-3.024-21.014,2.461c4.414,2.583,8.83,5.172,13.124,7.683
			c-1.055,4.191,0.843,6.723,3.858,5.514c1.755-0.704,2.563-0.016,3.482,0.966c2.952,3.16,5.848,6.365,8.767,9.548
			c4.598-4.898,4.15-10.504-1.797-20.982c1.926-0.626,3.62-1.275,5.676,0.066c1.793,1.173,5.217,0.018,6.725-1.812
			c5.028-6.107,10.055-12.221,15.06-18.347C57.386,26.761,57,23.526,53.917,21.018z M35.991,43.358
			c-2.412,2.708-5.273,2.807-8.587,0.297c-3.14-2.789-3.718-5.63-1.733-8.527c1.585-2.015,3.638-2.505,6.156-1.471l-0.69,2.109
			c-1.704-0.745-3.002-0.536-3.894,0.626c-1.253,1.865-0.766,3.72,1.461,5.565c2.336,1.776,4.273,1.847,5.812,0.212
			c0.718-0.884,1.023-1.841,0.915-2.869l-1.713-1.38l-2.041,2.511l-1.571-1.265l0,0l3.388-4.169l3.808,3.065
			C37.865,39.825,37.428,41.589,35.991,43.358z M40.19,37.803l-9.853-7.932l2.31-2.842c1.783-2.064,3.668-2.349,5.655-0.855
			c2.037,1.693,2.237,3.578,0.601,5.655l-1.116,1.374l3.712,2.989L40.19,37.803z M49.111,27.117
			c-1.675,2.256-3.788,2.724-6.336,1.403l0.833-1.994c1.665,0.923,2.995,0.739,3.989-0.549c0.944-1.225,0.953-2.238,0.026-3.035
			c-0.641-0.568-1.697-0.269-3.17,0.896c-2.388,1.84-4.253,2.167-5.598,0.979c-1.706-1.581-1.76-3.454-0.161-5.616
			c1.617-1.989,3.518-2.392,5.705-1.206l-0.833,1.994c-1.405-0.661-2.492-0.517-3.263,0.43c-0.898,1.106-0.932,2.019-0.101,2.739
			c0.43,0.504,1.357,0.204,2.777-0.898c2.401-1.986,4.414-2.298,6.038-0.938C50.838,22.893,50.868,24.824,49.111,27.117z"/>
	</g>
</g>
</svg>
