<?xml version="1.0" encoding="utf-8"?>
<!-- Generator: Adobe Illustrator 21.0.2, SVG Export Plug-In . SVG Version: 6.00 Build 0)  -->
<svg version="1.1" id="Layer_1" xmlns="http://www.w3.org/2000/svg" xmlns:xlink="http://www.w3.org/1999/xlink" x="0px" y="0px"
	 viewBox="0 0 72 72" style="enable-background:new 0 0 72 72;" xml:space="preserve">
<style type="text/css">
	.st0{fill:#FFFFFF;}
</style>
<g id="settings">
	<g>
		<path class="st0" d="M67.468,33.018H4.028C1.511,33.018,0,34.012,0,35.503V36c0,1.491,2.014,2.485,4.028,2.485h63.943
			C70.489,38.485,72,37.491,72,36v-0.497C72,34.509,69.986,33.018,67.468,33.018z M67.468,56.874H4.028
			C1.511,56.874,0,57.868,0,59.359v0.497c0,1.491,2.014,2.485,4.028,2.485h63.943c2.517,0,4.028-0.994,4.028-2.485v-0.497
			C72,57.868,69.986,56.874,67.468,56.874z M67.468,9.659H4.028C1.511,9.659,0,10.653,0,12.144v0.497
			c0,1.491,2.014,2.485,4.028,2.485h63.943c2.517,0,4.028-0.994,4.028-2.485v-0.497C72,10.653,69.986,9.659,67.468,9.659z"/>
	</g>
</g>
</svg>
