<?xml version="1.0" encoding="utf-8"?>
<!-- Generator: Adobe Illustrator 21.0.2, SVG Export Plug-In . SVG Version: 6.00 Build 0)  -->
<svg version="1.1" id="Layer_1" xmlns="http://www.w3.org/2000/svg" xmlns:xlink="http://www.w3.org/1999/xlink" x="0px" y="0px"
	 viewBox="0 0 72 72" style="enable-background:new 0 0 72 72;" xml:space="preserve">
<style type="text/css">
	.st0{fill:none;stroke:#FFFFFF;stroke-width:4;stroke-miterlimit:10;}
	.st1{fill:none;stroke:#FFFFFF;stroke-width:5;stroke-linejoin:round;}
	.st2{fill:#FFFFFF;}
</style>
<path class="st0" d="M63.701,69.3H8.299c-3.092,0-5.599-2.507-5.599-5.599V8.299C2.7,5.207,5.207,2.7,8.299,2.7h55.402
	c3.092,0,5.599,2.507,5.599,5.599v55.402C69.3,66.793,66.793,69.3,63.701,69.3z"/>
<g>
	<g>
		<line class="st1" x1="36" y1="16.667" x2="36" y2="55.333"/>
		<g>
			<polygon class="st2" points="20.663,29.092 23.41,31.65 35.996,18.106 48.587,31.65 51.333,29.092 35.996,12.6 			"/>
		</g>
		<g>
			<polygon class="st2" points="20.663,42.908 23.41,40.35 35.996,53.894 48.587,40.35 51.333,42.908 35.996,59.4 			"/>
		</g>
	</g>
</g>
</svg>
