<svg width="43" height="43" viewBox="0 0 43 43" fill="none" xmlns="http://www.w3.org/2000/svg">
<rect x="5.05878" y="5.05884" width="32.8824" height="32.8824" rx="16.4412" fill="#0B1629"/>
<rect x="3.05878" y="3.05884" width="36.8824" height="36.8824" rx="18.4412" stroke="white" stroke-opacity="0.25" stroke-width="4"/>
<path fill-rule="evenodd" clip-rule="evenodd" d="M17.4107 24.7722C18.7324 24.3945 20.1089 24.2402 21.484 24.2402L21.4646 24.2411C22.9531 24.2411 24.4417 24.4078 25.8618 24.8519C27.1941 25.2682 28.6956 25.9558 29.4049 27.1947C29.7203 27.746 29.8166 28.3872 29.6147 28.9925C29.4206 29.575 28.9988 30.0619 28.5222 30.4514C27.5344 31.2593 26.28 31.729 25.0412 32.0334C22.395 32.6822 19.6378 32.593 17.0459 31.7609C15.8757 31.3845 14.6547 30.8055 13.8748 29.8481C13.4787 29.3612 13.2283 28.7614 13.2882 28.134C13.3474 27.517 13.685 26.9615 14.1188 26.5195C14.988 25.6334 16.2198 25.1125 17.4107 24.7722ZM17.5649 31.0095C18.7888 31.4142 20.0982 31.6058 21.3898 31.6169H21.3898C22.1733 31.6528 22.9818 31.5553 23.7504 31.419C24.5424 31.2786 25.3281 31.0752 26.0688 30.766C27.0765 30.3461 28.2304 29.6509 28.5379 28.5579C28.8883 27.3156 27.8136 26.3078 26.8024 25.7502C24.5275 24.4954 21.676 24.3882 19.1549 24.8178C17.9039 25.0301 16.6686 25.3636 15.6346 26.11C15.1643 26.4489 14.7369 26.8833 14.5271 27.4222C14.3023 27.9998 14.3951 28.6182 14.7269 29.1377C15.3383 30.095 16.5009 30.6574 17.5649 31.0095Z" fill="white"/>
<path fill-rule="evenodd" clip-rule="evenodd" d="M24.3858 26.0761H23.2846C23.34 26.4903 23.396 26.905 23.4513 27.3191H19.5499C19.6059 26.905 19.6613 26.4903 19.7166 26.0761C19.5776 26.0761 18.6121 26.0659 18.6101 26.0671C18.6055 26.0693 18.4586 26.7976 18.3828 27.1468C18.2042 27.9711 18.0256 28.7954 17.8463 29.6193C17.9808 29.6193 19.2375 29.6424 19.2408 29.6181C19.3021 29.1611 19.3634 28.7034 19.4247 28.2458C19.4392 28.1384 19.4537 28.0305 19.4682 27.9231C19.4708 27.9022 19.4886 27.7841 19.4873 27.7802C19.4866 27.7779 19.7634 27.7802 19.8174 27.7802H21.6699H23.3155C23.3623 27.7802 23.5086 27.7542 23.5152 27.8028C23.5409 27.9949 23.5672 28.187 23.5929 28.3791C23.6048 28.4689 23.7313 29.6187 23.761 29.6187H25.1535C24.8978 28.4384 24.6421 27.257 24.3857 26.0762" fill="white"/>
<path fill-rule="evenodd" clip-rule="evenodd" d="M19.93 14.4602L21.1883 10.5392L22.3819 14.4763L23.4634 18.0448L25.314 18.0466L23.2163 20.3106L21.118 22.5743L19.0257 20.3065L16.933 18.0385L18.7812 18.0403L19.93 14.4602Z" fill="white"/>
</svg>
