<?xml version="1.0" encoding="utf-8"?>
<!-- Generator: Adobe Illustrator 23.0.3, SVG Export Plug-In . SVG Version: 6.00 Build 0)  -->
<svg version="1.1" id="Layer_1" xmlns="http://www.w3.org/2000/svg" xmlns:xlink="http://www.w3.org/1999/xlink" x="0px" y="0px"
	 viewBox="0 0 72 72" style="enable-background:new 0 0 72 72;" xml:space="preserve">
<style type="text/css">
	.st0{fill-rule:evenodd;clip-rule:evenodd;fill:#FFFFFF;}
</style>
<path class="st0" d="M5.7,30.6c0-15.8,12.8-28.7,28.6-28.7c15.8,0,28.6,12.9,28.6,28.7c0,6.4-2.1,12.3-5.6,17.1l-2.5-2.2
	c3-4.2,4.7-9.3,4.7-14.8c0-14-11.3-25.3-25.2-25.3S9.1,16.6,9.1,30.6c0,5.5,1.7,10.6,4.7,14.8l-2.5,2.2C7.8,42.9,5.7,37,5.7,30.6z
	 M33.2,34.1l11.7-14.2l-6.4,17.3c0.3,1,0.1,2.2-0.4,3.1c-1.2,2-3.7,2.7-5.8,1.6c-2-1.2-2.7-3.8-1.6-5.8
	C31.2,35.1,32.2,34.4,33.2,34.1z M64.6,69.7l6.9-6.8l0,0c0.6-0.6,0.6-1.6-0.1-2.2l-6.9-6.8c-0.6-0.6-1.7-0.6-2.3,0
	c-0.6,0.6-0.6,1.6,0,2.2l4.2,4.1h-61l4.2-4.1c0.6-0.6,0.6-1.6,0-2.2c-0.6-0.6-1.7-0.6-2.3,0l-6.9,6.8c-0.6,0.6-0.6,1.6,0,2.2
	l6.9,6.8c0.3,0.3,0.7,0.5,1.1,0.5s0.8-0.2,1.1-0.5c0.6-0.6,0.6-1.6,0-2.2l-4.2-4.1l61.1,0l-4.2,4.1c-0.6,0.6-0.6,1.6,0,2.2
	c0.3,0.3,0.7,0.5,1.1,0.5C63.9,70.2,64.3,70,64.6,69.7z"/>
</svg>
