<?xml version="1.0" encoding="UTF-8"?>
<svg version="1.1" xmlns="http://www.w3.org/2000/svg" width="96" height="96">
<path d="M0 0 C1.32 0 2.64 0 4 0 C3.67 3.96 3.34 7.92 3 12 C3.845625 12.20625 4.69125 12.4125 5.5625 12.625 C10.15309835 14.46123934 14.72894274 17.45788548 17 22 C17.203125 23.98828125 17.203125 23.98828125 17.25 26.3125 C17.27578125 27.07175781 17.3015625 27.83101562 17.328125 28.61328125 C16.87584222 31.90310004 16.1756664 33.45034207 14 36 C11.03390392 36.7515368 8.10788103 36.64936756 5.0625 36.6015625 C4.18601807 36.60956879 3.30953613 36.61757507 2.40649414 36.62582397 C-0.39613931 36.64893391 -3.19732673 36.6394121 -6 36.625 C-8.80240241 36.62115714 -11.60416423 36.62455008 -14.40649414 36.64559937 C-16.15043287 36.6577223 -17.89455113 36.65496404 -19.63842773 36.63589478 C-23.96739197 36.51528215 -23.96739197 36.51528215 -27.72354126 38.34310913 C-29.69298564 40.89952111 -29.38897842 43.1306472 -29.3984375 46.3125 C-29.40230469 47.55257812 -29.40617187 48.79265625 -29.41015625 50.0703125 C-29.39855469 51.36710937 -29.38695312 52.66390625 -29.375 54 C-29.38660156 55.29679687 -29.39820313 56.59359375 -29.41015625 57.9296875 C-29.40628906 59.16976562 -29.40242188 60.40984375 -29.3984375 61.6875 C-29.39505371 62.82574219 -29.39166992 63.96398437 -29.38818359 65.13671875 C-29.21736612 67.92102852 -29.21736612 67.92102852 -27.93008423 69.6546936 C-25.0339629 71.67334672 -22.13547111 71.41792871 -18.73046875 71.38818359 C-17.99357819 71.39344055 -17.25668762 71.39869751 -16.49746704 71.40411377 C-14.06059602 71.41732234 -11.62437772 71.40857302 -9.1875 71.3984375 C-7.49503453 71.400458 -5.80256991 71.40336923 -4.11010742 71.40713501 C-0.56257846 71.41155951 2.98472393 71.40512335 6.53222656 71.39111328 C11.08217909 71.3740212 15.63160077 71.38386173 20.18153381 71.40183067 C23.67651376 71.41266518 27.1713676 71.40922373 30.66635132 71.4014473 C32.34410668 71.39944436 34.02187344 71.40190785 35.69961548 71.40888596 C38.04354225 71.41649511 40.38660632 71.40490465 42.73046875 71.38818359 C43.42562592 71.39425629 44.12078308 71.40032898 44.83700562 71.40658569 C47.67479185 71.36903287 49.56552268 71.30283918 51.93008423 69.6546936 C53.61056801 67.05571728 53.38933823 64.74832255 53.3984375 61.6875 C53.40230469 60.44742188 53.40617187 59.20734375 53.41015625 57.9296875 C53.39855469 56.63289063 53.38695313 55.33609375 53.375 54 C53.38660156 52.70320313 53.39820312 51.40640625 53.41015625 50.0703125 C53.40628906 48.83023438 53.40242188 47.59015625 53.3984375 46.3125 C53.39336182 44.60513672 53.39336182 44.60513672 53.38818359 42.86328125 C53.19591267 40.05805704 53.19591267 40.05805704 51.90356445 38.13745117 C49.01298327 36.41022048 46.48929887 36.55884597 43.14453125 36.48828125 C42.48289474 36.47033005 41.82125824 36.45237885 41.13957214 36.43388367 C39.03061253 36.37979102 36.92187901 36.34589069 34.8125 36.3125 C33.38082792 36.27932573 31.94918567 36.24483595 30.51757812 36.20898438 C27.0119361 36.12406743 23.50621527 36.05725079 20 36 C20 34.68 20 33.36 20 32 C24.76881876 31.90099865 29.5370373 31.82847072 34.30664062 31.78027344 C35.92849143 31.76017856 37.55026997 31.73289746 39.171875 31.69824219 C41.5053898 31.6496273 43.83794557 31.62701111 46.171875 31.609375 C46.89493835 31.58872986 47.61800171 31.56808472 48.36297607 31.54681396 C51.59281251 31.5453798 53.68719251 31.80684293 56.45605469 33.51660156 C58.61193969 36.98429008 58.57377533 40.16358559 58.53125 44.125 C58.53699036 45.3008667 58.53699036 45.3008667 58.54284668 46.50048828 C58.54556353 48.15463549 58.5382181 49.80882583 58.52148438 51.46289062 C58.50006892 53.99186162 58.52129097 56.51799214 58.546875 59.046875 C58.54423168 60.65625626 58.53910661 62.26563575 58.53125 63.875 C58.53934692 64.6292627 58.54744385 65.38352539 58.55578613 66.16064453 C58.4987121 69.3633549 58.32272182 71.53503378 56.47399902 74.1986084 C53.05061645 76.69127414 49.97531351 76.56074012 45.8984375 76.51757812 C44.67824921 76.52809204 44.67824921 76.52809204 43.43341064 76.53881836 C40.74692558 76.55641059 38.0614956 76.54477163 35.375 76.53125 C33.50699664 76.53394457 31.63899465 76.5378267 29.77099609 76.54284668 C25.85696045 76.54874338 21.94329005 76.54017328 18.02929688 76.52148438 C13.01190111 76.49869468 7.99536119 76.51181685 2.97799683 76.53577423 C-0.87905324 76.55022759 -4.73590037 76.54562835 -8.59295654 76.53526306 C-10.44293316 76.53259449 -12.29292819 76.5358701 -14.1428833 76.54518127 C-16.72856457 76.55533937 -19.31285951 76.5398571 -21.8984375 76.51757812 C-23.04563263 76.52972351 -23.04563263 76.52972351 -24.21600342 76.54211426 C-27.66569636 76.48704033 -29.65139823 76.25382723 -32.47399902 74.1986084 C-34.74371194 70.92848606 -34.57247256 67.71505595 -34.53125 63.875 C-34.5350769 63.09108887 -34.53890381 62.30717773 -34.54284668 61.49951172 C-34.54556353 59.84536451 -34.5382181 58.19117417 -34.52148438 56.53710938 C-34.50006892 54.00813838 -34.52129097 51.48200786 -34.546875 48.953125 C-34.54423168 47.34374374 -34.53910661 45.73436425 -34.53125 44.125 C-34.53934692 43.3707373 -34.54744385 42.61647461 -34.55578613 41.83935547 C-34.49801499 38.59752707 -34.20077568 36.33918617 -32.53808594 33.53027344 C-28.72525489 31.23142532 -25.23710658 31.39692092 -20.859375 31.390625 C-19.97719299 31.37408875 -19.09501099 31.35755249 -18.18609619 31.34051514 C-15.3739935 31.29200806 -12.56243168 31.27065845 -9.75 31.25 C-7.84111858 31.22184254 -5.93226239 31.19191543 -4.0234375 31.16015625 C0.65099714 31.08624846 5.32513106 31.03669045 10 31 C11.44174575 28.11650851 11.40903442 26.18806236 11 23 C8.67571056 20.85892876 8.67571056 20.85892876 5.625 19.3125 C0.16115702 16.24173554 0.16115702 16.24173554 -2 13 C-2.265625 10.87890625 -2.265625 10.87890625 -2.25 8.5625 C-2.25515625 7.80066406 -2.2603125 7.03882813 -2.265625 6.25390625 C-1.9747292 3.78556982 -1.22975656 2.142314 0 0 Z " fill="#000000" transform="translate(36,4)"/>
<path d="M0 0 C13.86 0 27.72 0 42 0 C42 1.32 42 2.64 42 4 C28.14 4 14.28 4 0 4 C0 2.68 0 1.36 0 0 Z " fill="#000000" transform="translate(24,66)"/>
<path d="M0 0 C3.3 0 6.6 0 10 0 C10 1.32 10 2.64 10 4 C6.7 4 3.4 4 0 4 C0 2.68 0 1.36 0 0 Z " fill="#000000" transform="translate(70,66)"/>
<path d="M0 0 C3.3 0 6.6 0 10 0 C10 1.32 10 2.64 10 4 C6.7 4 3.4 4 0 4 C0 2.68 0 1.36 0 0 Z " fill="#000000" transform="translate(74,56)"/>
<path d="M0 0 C2.64 0 5.28 0 8 0 C8 1.32 8 2.64 8 4 C5.36 4 2.72 4 0 4 C0 2.68 0 1.36 0 0 Z " fill="#000000" transform="translate(12,66)"/>
<path d="M0 0 C2.64 0 5.28 0 8 0 C8 1.32 8 2.64 8 4 C5.36 4 2.72 4 0 4 C0 2.68 0 1.36 0 0 Z " fill="#000000" transform="translate(62,56)"/>
<path d="M0 0 C2.64 0 5.28 0 8 0 C8 1.32 8 2.64 8 4 C5.36 4 2.72 4 0 4 C0 2.68 0 1.36 0 0 Z " fill="#000000" transform="translate(50,56)"/>
<path d="M0 0 C2.64 0 5.28 0 8 0 C8 1.32 8 2.64 8 4 C5.36 4 2.72 4 0 4 C0 2.68 0 1.36 0 0 Z " fill="#000000" transform="translate(38,56)"/>
<path d="M0 0 C2.64 0 5.28 0 8 0 C8 1.32 8 2.64 8 4 C5.36 4 2.72 4 0 4 C0 2.68 0 1.36 0 0 Z " fill="#000000" transform="translate(26,56)"/>
<path d="M0 0 C2.64 0 5.28 0 8 0 C8 1.32 8 2.64 8 4 C5.36 4 2.72 4 0 4 C0 2.68 0 1.36 0 0 Z " fill="#000000" transform="translate(14,56)"/>
<path d="M0 0 C2.64 0 5.28 0 8 0 C8 1.32 8 2.64 8 4 C5.36 4 2.72 4 0 4 C0 2.68 0 1.36 0 0 Z " fill="#000000" transform="translate(72,46)"/>
<path d="M0 0 C2.64 0 5.28 0 8 0 C8 1.32 8 2.64 8 4 C5.36 4 2.72 4 0 4 C0 2.68 0 1.36 0 0 Z " fill="#000000" transform="translate(60,46)"/>
<path d="M0 0 C2.64 0 5.28 0 8 0 C8 1.32 8 2.64 8 4 C5.36 4 2.72 4 0 4 C0 2.68 0 1.36 0 0 Z " fill="#000000" transform="translate(48,46)"/>
<path d="M0 0 C2.64 0 5.28 0 8 0 C8 1.32 8 2.64 8 4 C5.36 4 2.72 4 0 4 C0 2.68 0 1.36 0 0 Z " fill="#000000" transform="translate(36,46)"/>
<path d="M0 0 C2.64 0 5.28 0 8 0 C8 1.32 8 2.64 8 4 C5.36 4 2.72 4 0 4 C0 2.68 0 1.36 0 0 Z " fill="#000000" transform="translate(24,46)"/>
<path d="M0 0 C2.64 0 5.28 0 8 0 C8 1.32 8 2.64 8 4 C5.36 4 2.72 4 0 4 C0 2.68 0 1.36 0 0 Z " fill="#000000" transform="translate(12,46)"/>
</svg>
