<?xml version="1.0" encoding="utf-8"?>
<!-- Generator: Adobe Illustrator 21.0.0, SVG Export Plug-In . SVG Version: 6.00 Build 0)  -->
<svg version="1.1" id="Layer_1" xmlns="http://www.w3.org/2000/svg" xmlns:xlink="http://www.w3.org/1999/xlink" x="0px" y="0px"
	 viewBox="0 0 72 72" style="enable-background:new 0 0 72 72;" xml:space="preserve">
<style type="text/css">
	.st0{fill:#FFFFFF;}
</style>
<g>
	<path class="st0" d="M48.024,7.941c2.584,0,4.971,1.378,6.263,3.616l12.024,20.827c1.292,2.238,1.292,4.995,0,7.232L54.288,60.443
		c-1.292,2.238-3.68,3.616-6.263,3.616H23.976c-2.584,0-4.971-1.378-6.263-3.616L5.688,39.616c-1.292-2.238-1.292-4.995,0-7.232
		l12.024-20.827c1.292-2.238,3.68-3.616,6.263-3.616H48.024 M48.024,4.941H23.976c-3.644,0-7.039,1.96-8.861,5.116L3.09,30.884
		c-1.822,3.156-1.822,7.077,0,10.232l12.024,20.827c1.822,3.156,5.217,5.116,8.861,5.116h24.049c3.644,0,7.039-1.96,8.861-5.116
		L68.91,41.116c1.822-3.156,1.822-7.077,0-10.232L56.886,10.057C55.064,6.901,51.668,4.941,48.024,4.941L48.024,4.941z"/>
</g>
<g>
	<path class="st0" d="M24.83,51.886h-5.451V20.114h5.451c0.828,4.371,1.495,9.762,1.491,15.941
		C26.317,42.185,25.653,47.539,24.83,51.886z"/>
	<path class="st0" d="M47.17,20.114h5.451v31.772H47.17c-0.828-4.371-1.495-9.762-1.491-15.941
		C45.683,29.815,46.347,24.461,47.17,20.114z"/>
	
		<rect x="33.827" y="20.114" transform="matrix(4.471718e-11 -1 1 4.471718e-11 0.5525 72.5525)" class="st0" width="5.451" height="31.772"/>
</g>
</svg>
