<?xml version="1.0" encoding="utf-8"?>
<!-- Generator: Adobe Illustrator 21.1.0, SVG Export Plug-In . SVG Version: 6.00 Build 0)  -->
<svg version="1.1" xmlns="http://www.w3.org/2000/svg" xmlns:xlink="http://www.w3.org/1999/xlink" x="0px" y="0px"
	 viewBox="0 0 360 360" style="enable-background:new 0 0 360 360;" xml:space="preserve">
<style type="text/css">
	.st0{fill:none;stroke:#888888;stroke-width:1.8253;stroke-linecap:round;stroke-linejoin:round;}
	.st1{fill:none;stroke:#888888;stroke-width:1.8253;stroke-linecap:round;stroke-linejoin:round;stroke-dasharray:6.9668,6.9668;}
	.st2{fill:#FFFFFF;}
	.st3{fill:#231916;}
	.st4{fill:none;stroke:#231916;stroke-miterlimit:10;}
	.st5{fill:none;stroke:#231916;stroke-width:2;stroke-linecap:round;stroke-linejoin:round;}
	.st6{fill:none;stroke:#231916;stroke-width:5;stroke-linecap:round;stroke-linejoin:round;}
	.st7{fill:none;stroke:#888888;stroke-width:1.8253;stroke-linecap:round;stroke-linejoin:round;stroke-dasharray:7.0297,7.0297;}
	.st8{fill:#00B550;stroke:#00AF41;stroke-width:2;stroke-miterlimit:10;}
	.st9{fill:#00B550;stroke:#00AF41;stroke-width:1.9528;stroke-miterlimit:10;}
</style>
<g id="Layer_3">
	<g>
		<g>
			<line class="st0" x1="181.68" y1="359.912" x2="181.656" y2="356.261"/>
			<line class="st1" x1="181.61" y1="349.294" x2="180.991" y2="255.244"/>
			<line class="st0" x1="180.968" y1="251.761" x2="180.944" y2="248.11"/>
		</g>
	</g>
	<g>
		<path class="st2" d="M165.814,361c-0.136,0-0.276-0.02-0.417-0.06c-9.429-2.716-18.024-7.227-26.337-11.588l-1.485-0.779
			c-12.336-6.468-13.344-6.996-23.784-16.977l-0.073-0.068c-0.201-0.186-0.411-0.367-0.624-0.539
			c-2.151,1.8-4.843,2.806-7.668,2.852l-0.195,0.001c-6.654,0-12.153-5.414-12.258-12.068c-0.011-0.698,0.039-1.4,0.149-2.096
			c-0.289-0.13-0.579-0.255-0.871-0.374c-0.027-0.012-0.055-0.024-0.083-0.039c-1.03-0.423-2.081-0.84-3.099-1.243
			c-0.912-0.362-1.823-0.725-2.731-1.094c-0.021-0.009-0.045-0.02-0.068-0.031c-1.422-0.572-2.889-1.201-4.36-1.871
			c-1.425-0.656-2.842-1.354-4.218-2.076c-0.066-0.024-0.13-0.054-0.187-0.088c-13.044-6.876-24.656-15.657-34.299-23.352
			c-0.189-0.104-0.341-0.26-0.49-0.412l-0.138-0.14c0,0-0.26-0.239-0.334-0.312c-0.259-0.249-0.485-0.496-0.686-0.745
			c-0.561-0.702-0.812-1.448-0.796-2.349c0.026-1.354,0.549-2.357,1.054-3.328l0.229-0.447l0.164-0.305
			c0.259-0.479,0.702-0.755,1.215-0.755c0.139,0,0.282,0.021,0.427,0.062c9.692,2.794,18.539,7.432,27.094,11.916l1.528,0.802
			c12.694,6.649,13.731,7.192,24.479,17.442l0.074,0.068c0.266,0.243,0.539,0.476,0.813,0.69c0.023,0.019,0.047,0.037,0.07,0.055
			c0.982-0.731,2.07-1.31,3.243-1.723c0.069-0.037,0.141-0.067,0.209-0.085c-0.004,0,3.013-0.987,6.291-5.997
			c2.824-4.512,3.354-5.621,3.376-5.666c0.029-0.062,0.079-0.146,0.12-0.199c0.317-0.375,0.99-1.081,1.774-1.328l22.818-42.096
			c-0.001-0.015-0.055-1.809-0.055-1.809c-0.004-0.146,0.031-0.331,0.089-0.464l1.51-3.713c0.006-0.057,0.016-0.111,0.03-0.162
			c0.032-0.111,0.093-0.227,0.17-0.332l4.964-12.202l-1.667-0.914c-0.111-0.061-0.211-0.144-0.292-0.241
			c-0.095-0.107-0.175-0.232-0.218-0.352c-0.074-0.22-0.38-1.248-0.087-2.501c0.245-1.053,2.832-10.21,2.867-10.333l0,0
			c-0.002,0,0.238-1.162-0.216-2.248c-0.653-1.563-4.83-11.963-7.039-17.543c-0.808-1.604-1.089-1.677-2.137-1.947
			c-1.282-0.333-13.177-3.401-14.038-3.623c-1.156-0.186-1.966-1.031-2.231-1.31c-0.303-0.313-0.472-0.73-0.474-1.171l-0.003-1.815
			l-3.21-0.282l0.044,2.819c0.003,0.211-0.077,0.474-0.199,0.647l-0.569,0.887c-0.099,0.153-0.262,0.289-0.443,0.381l0.337,21.45
			l0.25-0.004c1.306,0,2.355,1.033,2.376,2.303l0.464,29.499c0.02,1.251-0.45,2.436-1.322,3.336c-0.873,0.9-2.042,1.406-3.293,1.426
			l-4.889,0.077c-2.561,0-4.663-2.071-4.703-4.616l-0.464-29.499c-0.01-0.625,0.224-1.216,0.659-1.665
			c0.435-0.448,1.018-0.7,1.643-0.711l0.518-0.008l-0.338-21.521c-0.122-0.075-0.232-0.17-0.307-0.269l-0.731-1.011
			c-0.124-0.171-0.209-0.433-0.209-0.644l-0.059-3.868l-2.108-0.186c-0.038,0.004-0.075,0.007-0.097,0.007
			c-0.109,0-0.244-0.015-0.389-0.068c-0.034-0.01-0.067-0.02-0.094-0.029c0,0-1.722-0.803-1.759-0.821l-47.781,0.716
			c-0.39,0.504-1.068,0.939-2.081,0.984c-0.662,0.029-3.042,0.197-6.529,0.46l-0.124,0.009c-0.073,0.005-5.503,0.333-8.613,3.327
			c-0.639,0.568-1.306,1.051-2.013,1.463c-0.454,0.264-0.928,0.501-1.417,0.706c0.03,0.358,0.066,0.716,0.11,1.07
			c0.003,0.027,0.006,0.058,0.007,0.089c0.131,1.065,0.276,2.146,0.417,3.193l0.023,0.175c0.12,0.895,0.24,1.789,0.353,2.685
			c0.197,1.53,0.363,3.096,0.495,4.651c0.122,1.528,0.204,3.059,0.245,4.562c0.011,0.06,0.017,0.117,0.017,0.173
			c0.349,13.428-0.873,30.969-3.115,44.708c0,0.221-0.062,0.429-0.117,0.613l-0.049,0.168l-0.11,0.445
			c-0.089,0.343-0.193,0.654-0.311,0.942c-0.331,0.814-0.849,1.389-1.629,1.806c-1.167,0.625-2.271,0.66-3.34,0.694l-0.491,0.02
			l-0.336,0.006c-0.713,0-1.239-0.414-1.4-1.08c-2.246-9.541-2.893-23.301-3.206-34.225l-0.017-0.575
			c-0.401-13.925-0.434-15.062,3.157-29.054l0.023-0.098c0.063-0.266,0.118-0.538,0.165-0.811c-2.624-0.994-4.819-2.849-6.24-5.289
			c-1.646-2.825-2.091-6.127-1.255-9.298c0.836-3.17,2.854-5.822,5.679-7.468c0.604-0.352,1.241-0.652,1.9-0.897
			c-0.028-0.314-0.062-0.629-0.101-0.942c-0.003-0.028-0.006-0.061-0.006-0.093c-0.13-1.05-0.272-2.111-0.411-3.145l-0.02-0.146
			c-0.131-0.978-0.263-1.956-0.386-2.936c-0.203-1.581-0.375-3.194-0.51-4.792c-0.125-1.562-0.21-3.137-0.253-4.688
			c-0.009-0.049-0.015-0.097-0.016-0.142c-0.395-14.957,0.667-32.297,2.771-45.304c0-0.223,0.062-0.435,0.118-0.622l0.051-0.181
			l0.107-0.439c0.095-0.361,0.199-0.681,0.321-0.979c0.335-0.829,0.862-1.415,1.656-1.842c1.191-0.639,2.319-0.675,3.411-0.71
			l0.85-0.025c0.717,0,1.247,0.415,1.412,1.083c2.786,11.849,3.521,28.062,3.708,34.482l0.018,0.595
			c0.418,14.325,0.452,15.495-3.223,29.886l-0.023,0.1c-0.083,0.35-0.151,0.702-0.204,1.047c-0.004,0.03-0.009,0.06-0.013,0.09
			c1.12,0.498,2.156,1.163,3.09,1.982c0.062,0.04,0.121,0.085,0.167,0.131c0.01,0.009,2.346,2.154,8.318,2.56
			c3.19,0.15,4.922,0.183,5.809,0.183c0.521,0,0.733-0.011,0.782-0.014c0.029-0.003,0.058-0.004,0.085-0.004
			c0.066,0,0.151,0.01,0.216,0.022c0.44,0.085,1.357,0.32,1.95,0.885l47.889-0.714c0.014-0.009,1.55-0.934,1.55-0.934
			c0.115-0.068,0.281-0.127,0.413-0.146l2.208-0.274l-0.071-4.54c-0.003-0.203,0.073-0.459,0.186-0.628l0.766-1.132
			c0.067-0.101,0.161-0.191,0.271-0.267l-0.327-20.864l-0.25,0.004c-1.297,0-2.355-1.033-2.376-2.302l-0.477-30.296
			c-0.039-2.585,2.03-4.722,4.615-4.763l4.889-0.076c2.56,0,4.663,2.07,4.704,4.615l0.476,30.296
			c0.021,1.289-1.013,2.355-2.303,2.376l-0.517,0.008l0.325,20.742c0.159,0.061,0.309,0.153,0.413,0.263l0.74,0.82
			c0.157,0.174,0.274,0.463,0.283,0.696l0.057,3.629l3.026-0.377l-0.139-2.087c-0.016-0.238,0.074-0.542,0.219-0.733
			c0.095-0.127,0.945-1.235,2.102-1.733c0.1-0.072,0.207-0.128,0.315-0.158l14.481-4.419c-0.001,0-0.002,0-0.003,0
			c-0.02,0,0.691-0.36,1.242-1.749c0.219-0.549,0.735-1.921,1.395-3.668l0.08-0.212c1.744-4.625,4.381-11.613,5.229-13.418
			c0.719-1.699,0.269-3.505,0.149-3.788c-0.049-0.117-0.195-0.467-2.708-8.385c-0.185-0.583-0.262-1.188-0.229-1.802l0.115-2.151
			c0.008-0.137,0.046-0.276,0.107-0.401c0.041-0.087,0.095-0.176,0.148-0.241c0.033-0.039,0.075-0.081,0.119-0.119
			c0.087-0.081,0.186-0.145,0.294-0.191l1.475-0.579l-7.014-15.896c-0.027-0.039-0.052-0.078-0.07-0.113
			c-0.05-0.095-0.101-0.227-0.117-0.39c-0.016-0.073-0.025-0.146-0.025-0.206l-0.11-1.684c-0.006-0.045-0.01-0.091-0.013-0.136
			l-24.007-42.173c-0.504-0.079-1.283-0.371-1.886-1.361c-0.5-0.82-2.689-4.186-3.607-5.595l-0.061-0.094
			c-0.035-0.056-2.612-4.138-6.353-5.734c-0.872-0.232-1.7-0.547-2.46-0.936c-0.462-0.235-0.919-0.509-1.364-0.816
			c-0.257,0.212-0.51,0.427-0.757,0.646c-0.022,0.02-0.049,0.04-0.076,0.06c-0.837,0.736-1.678,1.493-2.491,2.226l-0.15,0.136
			c-0.687,0.617-1.372,1.233-2.062,1.845c-0.018,0.016-0.037,0.031-0.058,0.047c-1.143,1.02-2.358,2.056-3.615,3.08
			c-0.006,0.006-0.013,0.011-0.02,0.017c-1.196,0.966-2.454,1.93-3.74,2.865c-0.041,0.04-0.084,0.076-0.127,0.106
			C68.778,75.422,55.72,81.972,44.517,87.23c-0.185,0.128-0.396,0.196-0.583,0.257l-0.179,0.06c0,0-0.337,0.13-0.431,0.163
			c-0.347,0.124-0.669,0.219-0.979,0.286c-0.29,0.063-0.56,0.094-0.824,0.094c-0.556,0-1.09-0.138-1.634-0.423
			c-1.199-0.626-1.86-1.542-2.499-2.428l-0.299-0.409l-0.195-0.279c-0.398-0.575-0.355-1.253,0.109-1.771
			c6.856-7.483,14.97-13.383,22.816-19.087l1.399-1.018c11.641-8.469,12.591-9.16,26.567-14.279l0.095-0.036
			c0.294-0.114,0.584-0.238,0.864-0.37c-0.472-2.834-0.075-5.915,1.082-8.209c1.498-2.969,4.06-5.171,7.212-6.201
			c1.251-0.409,2.544-0.616,3.843-0.616c1.926,0,3.862,0.469,5.602,1.355c0.476,0.244,0.938,0.519,1.382,0.823
			c0.29-0.224,0.575-0.454,0.854-0.689c0.022-0.019,0.049-0.038,0.075-0.057c0.81-0.68,1.623-1.379,2.413-2.057
			c0.806-0.691,1.544-1.326,2.288-1.954c1.188-1.009,2.428-2.016,3.683-2.99c1.21-0.93,2.463-1.843,3.73-2.718
			c0.035-0.034,0.071-0.064,0.108-0.089c12.261-8.422,25.454-15.885,37.176-21.033c0.186-0.121,0.396-0.183,0.583-0.238l0.183-0.055
			l0.418-0.146c0.34-0.112,0.661-0.197,0.978-0.257c0.248-0.048,0.484-0.071,0.721-0.071c0.583,0,1.14,0.152,1.701,0.464
			c1.171,0.651,1.808,1.573,2.423,2.465l0.288,0.414l0.186,0.278c0.388,0.581,0.333,1.256-0.144,1.763
			c-8.638,9.025-19.226,16.798-24.769,20.628l-0.483,0.333c-11.603,8.018-12.55,8.673-26.403,13.321l-0.088,0.031
			c-0.272,0.098-0.54,0.203-0.799,0.313c0.34,1.592,0.365,3.248,0.071,4.856c0.051,0.195,0.056,0.414,0.007,0.59
			c-0.006,0.023-0.767,3.163,1.8,8.685c2.389,4.88,3.063,5.933,3.07,5.942c0.064,0.101,0.129,0.245,0.154,0.361
			c0.122,0.373,0.353,1.288,0.145,2.081l24.061,42.271c0.01,0.005,1.587,0.923,1.587,0.923c0.12,0.069,0.254,0.19,0.336,0.303
			l2.403,3.324c0.154,0.125,0.271,0.285,0.337,0.467l6.988,9.665l1.041-0.896c0.182-0.156,0.479-0.267,0.718-0.267
			c0.243,0,0.481,0.082,0.674,0.231c0.062,0.047,0.433,0.336,0.838,0.797l2.889,2.687c0.196,0.135,0.556,0.316,0.781,0.316
			l0.327-0.393c0.623-0.839,1.264-1.702,2.358-2.289c0.753-0.588,1.711-1.072,1.901-1.166c0.22-0.093,4.013-1.597,14.498-1.597
			c1.175,0,11.559,0.035,14.443,1.264c1.282,0.546,2.135,1.131,2.595,1.781c0.057,0.044,0.106,0.093,0.149,0.145
			c0.227,0.265,0.369,0.551,0.508,0.828c0.164,0.327,0.351,0.7,0.784,1.257c0.091-0.044,0.237-0.152,0.329-0.251l2.941-2.827
			c0.394-0.462,0.759-0.758,0.83-0.813c0.177-0.14,0.456-0.236,0.681-0.236c0.258,0,0.509,0.092,0.707,0.258l1.052,0.877
			l6.848-9.791c0.048-0.132,0.115-0.256,0.195-0.349c0.04-0.047,0.089-0.092,0.143-0.134l2.328-3.33
			c0.089-0.128,0.238-0.261,0.376-0.335c0,0,1.515-0.915,1.529-0.923l23.393-42.644c-0.224-0.797,0-1.734,0.135-2.175
			c0.02-0.066,0.059-0.156,0.092-0.218c0.059-0.096,0.704-1.14,3.02-6.067c2.47-5.541,1.661-8.67,1.652-8.7
			c-0.049-0.163-0.056-0.332-0.025-0.493c-0.278-1.361-0.368-2.753-0.264-4.08c-0.29-0.107-0.59-0.206-0.894-0.295l-0.114-0.033
			c-14.344-3.909-15.35-4.518-27.665-11.967l-1.478-0.894c-8.306-5.02-16.893-10.21-24.351-17.079
			c-0.517-0.482-0.616-1.156-0.265-1.762l0.151-0.263l0.28-0.463c0.562-0.938,1.145-1.908,2.285-2.632
			c0.613-0.39,1.213-0.571,1.888-0.571c0.17,0,0.345,0.012,0.53,0.036c0.317,0.042,0.646,0.108,1.009,0.204l0.452,0.129l0.159,0.038
			c0.207,0.048,0.424,0.1,0.615,0.208c11.605,4.289,25.169,9.705,37.919,17.37c0.04,0.024,0.081,0.054,0.122,0.087
			c1.344,0.812,2.679,1.665,3.967,2.536c1.333,0.909,2.66,1.857,3.946,2.819c0.795,0.591,1.587,1.19,2.378,1.789
			c0.875,0.662,1.776,1.343,2.671,2.005c0.028,0.018,0.056,0.036,0.079,0.054c0.264,0.195,0.532,0.386,0.806,0.574
			c0.417-0.343,0.85-0.654,1.29-0.929c1.966-1.223,4.216-1.87,6.505-1.87c0.951,0,1.908,0.111,2.844,0.331
			c3.227,0.759,5.965,2.735,7.711,5.566c1.504,2.441,2.115,5.298,1.753,8.126c0.269,0.09,0.543,0.172,0.82,0.245l0.1,0.025
			c14.189,3.454,15.189,4.026,27.432,11.03l0.51,0.292c5.847,3.345,17.055,10.189,26.421,18.446
			c0.523,0.467,0.638,1.136,0.302,1.749l-0.147,0.268l-0.268,0.465c-0.536,0.938-1.091,1.911-2.203,2.66
			c-0.628,0.423-1.251,0.62-1.959,0.62c-0.137,0-0.276-0.008-0.422-0.022c-0.314-0.032-0.642-0.089-0.998-0.174l-0.446-0.114
			l-0.078-0.016c-0.236-0.049-0.47-0.097-0.673-0.2c-12.118-4.133-25.902-10.452-38.832-17.802
			c-0.042-0.023-0.085-0.054-0.127-0.087c-1.323-0.755-2.649-1.559-3.942-2.388c-1.331-0.863-2.651-1.761-3.929-2.671
			c-0.727-0.514-1.45-1.035-2.174-1.557l-0.195-0.141c-0.907-0.654-1.779-1.283-2.646-1.894c0-0.001-0.062-0.037-0.091-0.057
			c-0.298-0.211-0.601-0.415-0.908-0.614c-0.416,0.342-0.854,0.655-1.309,0.938c-0.699,0.436-1.446,0.804-2.219,1.093
			c-4.191,1.375-7.07,6.096-7.1,6.144c-0.744,1.183-3.075,4.89-3.588,5.763c-0.586,0.995-1.354,1.303-1.865,1.39l-23.341,42.546
			c-0.001,0.046-0.095,1.885-0.095,1.885c-0.003,0.057-0.012,0.119-0.026,0.183c-0.017,0.135-0.057,0.247-0.096,0.33
			c-0.02,0.041-0.047,0.087-0.077,0.131l-6.765,16.009l1.456,0.546c0.115,0.043,0.227,0.111,0.32,0.194
			c0.047,0.039,0.093,0.083,0.128,0.124c0.058,0.067,0.112,0.156,0.156,0.248c0.051,0.101,0.084,0.207,0.1,0.318l0.157,2.218
			c0.042,0.613-0.025,1.222-0.202,1.807c-0.714,2.382-2.395,7.974-2.574,8.423c-0.114,0.285-0.535,2.104,0.227,3.827
			c0.858,1.75,3.603,8.69,5.417,13.283c0.729,1.843,1.305,3.299,1.54,3.867c0.586,1.414,1.323,1.744,1.354,1.758l14.482,4.168
			c0.101,0.029,0.201,0.079,0.295,0.146c1.205,0.496,2.099,1.66,2.138,1.712c0.141,0.186,0.233,0.479,0.224,0.713l-0.104,2.097
			l3.029,0.328v-3.605c0-0.236,0.107-0.53,0.26-0.711l0.723-0.825c0.105-0.12,0.26-0.223,0.426-0.29v-20.744h-0.518
			c-1.29,0-2.34-1.049-2.34-2.339v-30.299c0-2.586,2.104-4.689,4.689-4.689h4.83c2.586,0,4.689,2.104,4.689,4.689v30.299
			c0,1.29-1.05,2.339-2.34,2.339h-0.249v20.867c0.109,0.073,0.204,0.162,0.273,0.26l0.781,1.117c0.117,0.168,0.199,0.425,0.199,0.63
			v4.541l2.194,0.238c0.139,0.015,0.312,0.072,0.434,0.143c0,0,1.55,0.898,1.562,0.907l47.897-0.038
			c0.583-0.568,1.494-0.822,1.938-0.917c0.068-0.014,0.158-0.024,0.228-0.024c0.025,0,0.256,0.008,0.432,0.008
			c0.685,0,2.406-0.036,6.246-0.279c5.943-0.498,8.246-2.68,8.269-2.702c0.044-0.043,0.098-0.085,0.155-0.123
			c0.922-0.834,1.946-1.514,3.055-2.028c-0.004-0.029-0.009-0.059-0.014-0.088c-0.059-0.349-0.134-0.7-0.221-1.05l-0.027-0.104
			c-3.898-14.321-3.883-15.492-3.689-29.821l0.008-0.595c0.087-6.427,0.567-22.653,3.163-34.526
			c0.156-0.688,0.688-1.113,1.389-1.116l0.314,0.001l0.521,0.011c1.109,0.018,2.241,0.036,3.443,0.657
			c0.801,0.413,1.336,0.991,1.687,1.816c0.124,0.294,0.234,0.611,0.334,0.97l0.118,0.453l0.05,0.161
			c0.06,0.191,0.127,0.406,0.13,0.632c2.308,12.966,3.642,30.284,3.482,45.241c-0.001,0.048-0.006,0.099-0.014,0.15
			c-0.021,1.559-0.081,3.134-0.181,4.684c-0.11,1.61-0.257,3.227-0.435,4.807c-0.107,0.979-0.224,1.959-0.34,2.938l-0.013,0.104
			c-0.124,1.048-0.252,2.127-0.365,3.192c-0.001,0.03-0.002,0.06-0.005,0.087c-0.034,0.319-0.063,0.637-0.087,0.953
			c0.665,0.235,1.307,0.525,1.915,0.867c2.851,1.602,4.909,4.222,5.796,7.378c0.886,3.156,0.492,6.465-1.109,9.315
			c-1.384,2.464-3.549,4.353-6.156,5.388c0.051,0.269,0.11,0.541,0.178,0.811l0.028,0.106c3.806,13.916,3.791,15.054,3.609,28.979
			l-0.008,0.586c-0.142,10.927-0.572,24.695-2.666,34.263c-0.156,0.687-0.686,1.108-1.384,1.108h-0.299l-0.528-0.011
			c-1.068-0.018-2.174-0.036-3.352-0.642c-0.787-0.406-1.313-0.973-1.657-1.782c-0.121-0.282-0.229-0.593-0.328-0.944l-0.115-0.441
			l-0.049-0.156c-0.062-0.196-0.127-0.405-0.129-0.624c-2.457-13.707-3.954-31.224-3.816-44.672c0.001-0.048,0.006-0.099,0.014-0.15
			c0.02-1.52,0.077-3.049,0.173-4.548c0.108-1.574,0.25-3.145,0.423-4.674c0.095-0.87,0.198-1.742,0.301-2.614l0.029-0.249
			c0.124-1.046,0.252-2.127,0.366-3.192c0.001-0.031,0.002-0.062,0.005-0.09c0.039-0.359,0.07-0.719,0.095-1.077
			c-0.493-0.199-0.971-0.428-1.428-0.686c-0.716-0.402-1.392-0.875-2.01-1.407c-3.186-2.967-8.615-3.211-8.669-3.214l-0.202-0.012
			c-3.521-0.209-5.821-0.334-6.478-0.353c-1.058-0.031-1.725-0.487-2.098-0.953l-47.786,0.037c-0.037,0.019-0.075,0.035-0.113,0.051
			l-1.549,0.761c-0.054,0.026-0.118,0.051-0.185,0.069c-0.146,0.057-0.281,0.072-0.384,0.072c-0.024,0-0.059-0.002-0.094-0.004
			l-2.102,0.218v3.884c0,0.206-0.082,0.465-0.201,0.634l-0.707,1.011c-0.075,0.108-0.185,0.206-0.309,0.283v21.522h0.517
			c1.29,0,2.34,1.05,2.34,2.34v29.502c0,2.586-2.104,4.689-4.688,4.689h-4.83c-2.586,0-4.689-2.104-4.689-4.689V219.27
			c0-1.29,1.049-2.34,2.339-2.34h0.249v-21.453c-0.181-0.088-0.343-0.217-0.443-0.366l-0.613-0.919
			c-0.109-0.164-0.185-0.413-0.185-0.61v-2.817l-3.206,0.334l0.025,1.809c0.007,0.436-0.153,0.855-0.45,1.179
			c-0.27,0.29-1.074,1.154-2.322,1.371l-0.168,0.051c-1.983,0.545-12.499,3.436-13.614,3.743c-1.133,0.312-1.413,0.388-2.232,2.094
			c-2.102,5.573-6.111,16.027-6.726,17.563c-0.44,1.101-0.176,2.261-0.165,2.31c0.008,0.018,2.757,9.195,3.015,10.229
			c0.322,1.293-0.004,2.364-0.042,2.482c-0.037,0.116-0.109,0.239-0.195,0.346c-0.058,0.078-0.127,0.147-0.204,0.204
			c-0.032,0.025-0.067,0.048-0.103,0.067l-1.692,0.962l5.161,12.062c0.14,0.169,0.224,0.369,0.247,0.578l1.564,3.656
			c0.054,0.124,0.09,0.299,0.09,0.435c0,0-0.025,1.807-0.026,1.822l23.478,41.73c0.788,0.234,1.467,0.925,1.756,1.255
			c0.066,0.075,0.136,0.184,0.177,0.275l0,0c0.001,0,0.562,1.123,3.462,5.6c3.344,4.938,6.375,5.879,6.405,5.888
			c0.058,0.017,0.118,0.042,0.179,0.072c1.179,0.396,2.274,0.956,3.269,1.673c0.022-0.019,0.046-0.037,0.069-0.056
			c0.275-0.223,0.546-0.461,0.807-0.707l0.082-0.078c10.573-10.407,11.603-10.967,24.192-17.815l1.506-0.818
			c8.485-4.621,17.26-9.398,26.908-12.345c0.159-0.047,0.307-0.069,0.449-0.069c0.501,0,0.939,0.268,1.204,0.733l0.151,0.271
			l0.254,0.475c0.523,0.97,1.06,1.964,1.106,3.313c0.032,0.9-0.21,1.65-0.759,2.36c-0.193,0.249-0.415,0.5-0.681,0.766l-0.338,0.325
			l-0.077,0.081c-0.16,0.17-0.318,0.338-0.512,0.453c-9.524,7.849-21.005,16.817-33.996,23.932c-0.042,0.023-0.09,0.044-0.14,0.062
			c-1.348,0.734-2.749,1.453-4.169,2.136c-1.462,0.692-2.942,1.355-4.405,1.974c-0.907,0.386-1.819,0.766-2.731,1.144l-0.097,0.04
			c-0.972,0.404-1.975,0.821-2.959,1.242c-0.037,0.021-0.074,0.038-0.11,0.053c-0.276,0.118-0.559,0.245-0.842,0.378
			c0.12,0.693,0.181,1.395,0.181,2.093c0,6.761-5.5,12.262-12.261,12.262c-2.824,0-5.531-0.964-7.711-2.731
			c-0.211,0.177-0.419,0.361-0.619,0.553l-0.079,0.076c-10.273,10.134-11.273,10.678-23.507,17.34l-1.463,0.797
			c-8.245,4.494-16.771,9.14-26.15,12.003c-0.159,0.047-0.305,0.068-0.445,0.068c-0.501,0-0.938-0.268-1.199-0.733l-0.146-0.261
			l-0.248-0.466c-0.509-0.942-1.034-1.914-1.081-3.236c-0.032-0.886,0.203-1.621,0.741-2.317c0.191-0.248,0.408-0.493,0.663-0.748
			l0.331-0.318l0.114-0.121c0.125-0.134,0.27-0.287,0.457-0.398c9.25-7.638,20.399-16.365,33.026-23.287
			c0.039-0.021,0.084-0.042,0.132-0.06c1.326-0.723,2.69-1.422,4.056-2.079c1.414-0.67,2.853-1.315,4.281-1.919
			c0.883-0.375,1.77-0.745,2.656-1.113c0.975-0.404,1.979-0.822,2.966-1.244c0.037-0.02,0.073-0.038,0.108-0.052
			c0.315-0.135,0.637-0.281,0.958-0.435c-0.068-0.525-0.103-1.055-0.103-1.579c0-0.762,0.074-1.537,0.221-2.304
			c0.003-0.03,0.008-0.06,0.014-0.089c1.057-4.259-1.407-9.13-1.432-9.179c-0.035-0.072-2.423-4.992-2.954-6.006
			c-0.493-0.941-0.422-1.745-0.197-2.297l-23.429-41.646c-0.034-0.022-1.521-1.053-1.521-1.053c-0.05-0.034-0.1-0.076-0.147-0.123
			c-0.105-0.087-0.18-0.181-0.228-0.258c-0.024-0.038-0.047-0.081-0.066-0.126l-10.084-14.286l-1.696,1.184
			c-0.122,0.085-0.262,0.142-0.407,0.166c-0.08,0.019-0.161,0.029-0.232,0.029c-0.203,0-0.4-0.058-0.572-0.164l-0.706-0.442
			c-0.043,0.021-0.101,0.05-0.172,0.091l-0.164,0.104c-6.604,4.265-14.586,5.153-20.135,5.154c-0.02,0.001-0.105,0.003-0.234,0.003
			c-1.605,0-10.135-0.242-20.458-5.009c-0.117-0.055-0.207-0.089-0.273-0.11l-0.67,0.438c-0.162,0.105-0.396,0.174-0.589,0.174
			c-0.068,0-0.146-0.01-0.225-0.026c-0.158-0.026-0.31-0.09-0.438-0.187l-1.678-1.131l-9.856,14.44
			c-0.018,0.042-0.037,0.082-0.059,0.118c-0.05,0.088-0.134,0.201-0.264,0.302c-0.041,0.04-0.082,0.076-0.118,0.102l-1.397,0.995
			c-0.033,0.027-0.067,0.054-0.104,0.078l-22.771,42.014c0.251,0.59,0.296,1.392-0.158,2.294c-0.514,1.019-2.824,5.978-2.847,6.024
			c-0.036,0.075-2.404,4.972-1.319,9.143c0.183,0.839,0.277,1.658,0.29,2.475c0.009,0.524-0.018,1.054-0.077,1.581
			c0.327,0.149,0.657,0.293,0.988,0.429c0.026,0.011,0.054,0.023,0.082,0.038c0.997,0.409,2.014,0.812,2.999,1.203
			c0.89,0.354,1.777,0.707,2.664,1.067c1.435,0.58,2.88,1.201,4.293,1.844c0.005,0.003,0.011,0.006,0.017,0.008
			c1.368,0.632,2.741,1.309,4.085,2.015c0.051,0.018,0.1,0.038,0.144,0.062c12.74,6.726,24.038,15.289,33.415,22.788
			c0.178,0.104,0.312,0.242,0.43,0.364l0.133,0.135l0.324,0.304c0.256,0.246,0.477,0.488,0.671,0.733
			c0.548,0.688,0.795,1.42,0.776,2.304c-0.026,1.321-0.535,2.302-1.027,3.249l-0.228,0.443l-0.158,0.294
			C166.763,360.727,166.322,361,165.814,361z"/>
		<path class="st3" d="M161.076,3.788c0.42,0,0.803,0.109,1.216,0.339c0.965,0.537,1.509,1.325,2.085,2.16
			c0.097,0.14,0.194,0.282,0.295,0.423l0.17,0.255c0.129,0.194,0.117,0.356-0.04,0.523c-8.572,8.958-19.098,16.683-24.608,20.491
			l-0.482,0.333c-11.497,7.944-12.436,8.593-26.154,13.196l-0.109,0.038c-0.358,0.128-0.71,0.269-1.047,0.421
			c-0.2,0.089-0.386,0.194-0.578,0.292c0.528,1.845,0.577,3.761,0.177,5.598c0.003,0,0.003-0.005,0.006-0.005
			c0.009,0,0.018,0.001,0.027,0.004c0.053,0.015,0.084,0.07,0.068,0.123c-0.009,0.033-0.918,3.401,1.857,9.374
			c2.486,5.077,3.138,6.065,3.144,6.075c0.005,0.008,0.01,0.016,0.012,0.025c0.048,0.15,0.427,1.419,0.002,1.922l24.498,43.04
			c0.059,0.014,0.102,0.039,0.153,0.059c0.007-0.002,0.011-0.011,0.018-0.011c0.017,0,0.034,0.004,0.05,0.014l1.543,0.898
			c0.012,0.007,0.022,0.016,0.03,0.028l2.509,3.469c0.004,0,0.011,0,0.012,0c0.054,0.003,0.096,0.05,0.094,0.105
			c-0.001,0.01-0.009,0.016-0.012,0.025l9.367,12.956c0.015-1.175-1.168-2.428-1.184-2.444c-0.019-0.019-0.029-0.046-0.028-0.073
			c0.002-0.027,0.014-0.053,0.035-0.071l1.438-1.237c0.019-0.016,0.042-0.024,0.065-0.024c0.021,0,0.042,0.007,0.06,0.02
			c0.033,0.025,0.371,0.286,0.732,0.705l2.975,2.767c0,0,0.721,0.54,1.415,0.54c0.056,0,0.112-0.004,0.168-0.011
			c0.278-0.039,0.51-0.179,0.688-0.416c0.097-0.128,0.189-0.252,0.278-0.373c0.651-0.878,1.181-1.572,2.098-2.038
			c0.687-0.555,1.635-1.033,1.797-1.112c0.043-0.018,3.775-1.493,14.056-1.493c0.46,0,11.303,0.014,14.052,1.184
			c1.482,0.631,2.06,1.194,2.274,1.609c0.006-0.001,0.012-0.001,0.017-0.001c0.026,0,0.051,0.008,0.069,0.029
			c0.159,0.185,0.26,0.387,0.388,0.642c0.178,0.354,0.399,0.795,0.891,1.427c0.201,0.258,0.435,0.394,0.698,0.404
			c0.013,0.001,0.026,0.001,0.039,0.001c0.581,0,1.109-0.587,1.115-0.593l2.937-2.82c0.354-0.423,0.687-0.689,0.719-0.714
			c0.018-0.014,0.04-0.021,0.061-0.021c0.023,0,0.045,0.008,0.064,0.023l1.458,1.215c0.021,0.017,0.034,0.043,0.035,0.07
			c0.002,0.027-0.008,0.054-0.026,0.074c-0.015,0.016-1.178,1.287-1.145,2.461l9.162-13.1c-0.003-0.009-0.011-0.015-0.012-0.025
			c-0.003-0.055,0.038-0.102,0.092-0.106c0.001,0,0.008,0,0.011,0l2.454-3.509c0.008-0.011,0.018-0.021,0.03-0.028l1.528-0.922
			c0.016-0.01,0.034-0.014,0.051-0.014c0.007,0,0.011,0.009,0.018,0.01c0.05-0.02,0.093-0.046,0.152-0.061l23.818-43.42
			c-0.433-0.496-0.074-1.771-0.028-1.922c0.003-0.009,0.007-0.017,0.012-0.026c0.006-0.009,0.643-1.007,3.049-6.125
			c2.68-6.014,1.719-9.367,1.709-9.4c-0.015-0.048,0.012-0.097,0.057-0.117c-0.355-1.564-0.452-3.245-0.235-4.814
			c-0.198-0.086-0.392-0.18-0.597-0.258c-0.352-0.134-0.719-0.257-1.091-0.365l-0.115-0.033
			c-14.224-3.877-15.221-4.48-27.426-11.862l-1.477-0.893c-8.262-4.994-16.806-10.158-24.191-16.959
			c-0.171-0.16-0.195-0.322-0.077-0.526l0.153-0.265c0.094-0.151,0.183-0.3,0.272-0.449c0.525-0.876,1.022-1.704,1.963-2.302
			c0.447-0.284,0.868-0.416,1.352-0.416c0.129,0,0.262,0.009,0.402,0.028c0.276,0.036,0.564,0.095,0.88,0.179
			c0.084,0.022,0.168,0.047,0.251,0.071l0.182,0.052c0.044,0.012,0.129,0.032,0.217,0.053c0.251,0.059,0.333,0.078,0.352,0.121
			c11.618,4.29,25.187,9.705,37.885,17.338c0.015,0.009,0.026,0.021,0.035,0.035c1.355,0.816,2.704,1.677,4.011,2.56
			c1.315,0.897,2.629,1.836,3.907,2.792c0.797,0.592,1.587,1.189,2.377,1.787c0.891,0.674,1.812,1.371,2.725,2.046
			c0.009,0.003,0.018,0.007,0.025,0.013c0.484,0.358,0.98,0.703,1.485,1.033c0.535-0.497,1.116-0.95,1.739-1.338
			c1.824-1.135,3.882-1.719,5.976-1.719c0.87,0,1.747,0.101,2.615,0.305c2.967,0.697,5.484,2.515,7.088,5.117
			c1.522,2.469,2.048,5.394,1.489,8.241c0.2,0.081,0.394,0.17,0.601,0.242c0.347,0.122,0.71,0.233,1.079,0.33l0.113,0.029
			c14.058,3.422,15.049,3.989,27.177,10.928l0.51,0.292c5.815,3.326,16.958,10.131,26.257,18.328
			c0.172,0.154,0.198,0.313,0.086,0.519l-0.147,0.266c-0.089,0.152-0.175,0.301-0.26,0.45c-0.503,0.88-0.977,1.711-1.893,2.327
			c-0.459,0.309-0.893,0.45-1.402,0.45c-0.103,0-0.208-0.006-0.318-0.017c-0.274-0.028-0.558-0.078-0.869-0.152
			c-0.085-0.02-0.17-0.042-0.255-0.065l-0.173-0.045c-0.044-0.01-0.13-0.028-0.217-0.046c-0.242-0.049-0.325-0.066-0.346-0.109
			c-12.091-4.114-25.855-10.419-38.777-17.764c-0.014-0.009-0.026-0.02-0.035-0.035c-1.344-0.765-2.685-1.577-3.987-2.413
			c-1.317-0.854-2.625-1.743-3.89-2.644c-0.792-0.561-1.578-1.127-2.364-1.694c-0.888-0.641-1.807-1.303-2.718-1.944
			c-0.009-0.003-0.018-0.007-0.026-0.012c-0.515-0.363-1.044-0.708-1.581-1.039c-0.532,0.494-1.117,0.943-1.74,1.331
			c-0.654,0.407-1.338,0.742-2.042,1.005c-4.544,1.489-7.576,6.516-7.606,6.566c-0.031,0.05-3,4.761-3.593,5.77
			c-0.488,0.83-1.105,0.929-1.372,0.929c-0.077,0-0.125-0.008-0.133-0.009c-0.009-0.002-0.018-0.005-0.026-0.009
			c-0.008-0.004-0.037-0.019-0.056-0.028l-23.777,43.341c0.023,0.095,0.027,0.181,0.014,0.26l-0.087,1.795
			c-0.001,0.012-0.003,0.023-0.008,0.034l-0.015,0.034c0.004,0.021,0.006,0.043-0.004,0.063c-0.01,0.021-0.032,0.035-0.045,0.054
			l-7.778,18.406c0.689-0.366,0.914-1.063,0.917-1.072c0.008-0.026,0.026-0.048,0.051-0.061c0.014-0.007,0.029-0.01,0.044-0.01
			c0.012,0,0.023,0.002,0.035,0.006l1.944,0.729c0.007,0.003,0.011,0.01,0.017,0.014c0.008,0.005,0.015,0.01,0.021,0.017
			c0.01,0.011,0.014,0.023,0.018,0.038c0.002,0.006,0.008,0.01,0.008,0.017l0.149,2.149c0.035,0.491-0.019,0.978-0.161,1.448
			c-0.556,1.853-2.383,7.932-2.546,8.34c-0.18,0.45-0.667,2.551,0.24,4.603c0.858,1.75,3.593,8.668,5.402,13.246
			c0.732,1.851,1.309,3.313,1.546,3.883c0.79,1.906,1.907,2.304,1.918,2.308l14.566,4.196c0.031,0.009,0.05,0.032,0.061,0.06
			c0.984,0.337,1.811,1.388,1.852,1.441c0.014,0.019,0.022,0.042,0.021,0.066l-0.107,2.148c-0.002,0.028-0.015,0.054-0.037,0.072
			c-0.018,0.015-0.04,0.023-0.063,0.023c-0.005,0-0.01,0-0.015-0.001c-0.002,0-0.219-0.031-0.537-0.031
			c-0.531,0-1.344,0.087-1.913,0.548l7.596,0.824v-4.72c0-0.024,0.009-0.047,0.024-0.066l0.71-0.811
			c0.019-0.021,0.046-0.034,0.075-0.034h0.606c-0.002-0.007-0.008-0.012-0.008-0.019v-22.621c0-0.008,0.006-0.012,0.008-0.019
			h-1.525c-0.739,0-1.34-0.601-1.34-1.339v-30.299c0-2.035,1.655-3.69,3.69-3.69h4.83c2.035,0,3.69,1.655,3.69,3.69v30.299
			c0,0.739-0.601,1.339-1.34,1.339h-1.257c0.002,0.007,0.008,0.012,0.008,0.019v22.621c0,0.007-0.006,0.012-0.008,0.019h0.382
			c0.033,0,0.063,0.016,0.082,0.042l0.78,1.115c0.012,0.017,0.018,0.037,0.018,0.057v5.438l3.087,0.335
			c0.014,0.002,0.027,0.006,0.039,0.013l1.525,0.884c0.025,0.014,0.04,0.037,0.046,0.063c0.039,0.032,0.078,0.056,0.116,0.096
			l48.779-0.039c0.223-0.611,1.491-0.906,1.643-0.938c0.007-0.001,0.013-0.003,0.02-0.003c0.003,0,0.005,0,0.008,0.001c0,0,0,0,0,0
			c0.005,0,0.116,0.007,0.422,0.007c0.705,0,2.445-0.037,6.31-0.281c6.46-0.541,8.888-2.967,8.911-2.992
			c0.011-0.011,0.027-0.012,0.04-0.017c1.028-0.948,2.226-1.704,3.544-2.216c-0.03-0.294-0.059-0.587-0.109-0.883
			c-0.063-0.37-0.143-0.748-0.237-1.123l-0.03-0.115c-3.863-14.194-3.848-15.354-3.657-29.554l0.008-0.596
			c0.086-6.393,0.563-22.535,3.14-34.325c0.051-0.228,0.18-0.329,0.416-0.33l0.308,0c0.177,0.005,0.351,0.008,0.523,0.011
			c1.024,0.016,1.992,0.032,2.986,0.545c0.598,0.309,0.964,0.703,1.224,1.318c0.108,0.256,0.204,0.533,0.292,0.847
			c0.024,0.085,0.046,0.17,0.067,0.256l0.046,0.179c0.012,0.044,0.038,0.128,0.065,0.214c0.077,0.246,0.102,0.325,0.073,0.364
			c2.314,12.932,3.651,30.231,3.492,45.196c0,0.017-0.005,0.033-0.012,0.047c-0.018,1.577-0.079,3.169-0.179,4.733
			c-0.109,1.585-0.254,3.185-0.431,4.759c-0.107,0.979-0.223,1.956-0.339,2.932c-0.131,1.106-0.266,2.249-0.387,3.375
			c0.002,0.009,0.003,0.019,0.002,0.029c-0.063,0.586-0.108,1.177-0.138,1.767c0.856,0.241,1.688,0.583,2.47,1.022
			c5.414,3.04,7.346,9.918,4.305,15.333c-1.399,2.492-3.666,4.339-6.385,5.209c0.025,0.211,0.042,0.421,0.079,0.634
			c0.062,0.362,0.14,0.729,0.231,1.091l0.029,0.112c3.772,13.795,3.757,14.923,3.577,28.722l-0.007,0.577
			c-0.141,10.88-0.568,24.585-2.643,34.062c-0.051,0.222-0.177,0.322-0.408,0.322h-0.299c-0.173-0.006-0.343-0.008-0.51-0.011
			c-0.999-0.017-1.942-0.032-2.912-0.531c-0.583-0.301-0.94-0.684-1.195-1.283c-0.106-0.248-0.199-0.518-0.285-0.824
			c-0.024-0.084-0.045-0.169-0.067-0.253l-0.044-0.169c-0.012-0.042-0.037-0.124-0.063-0.208c-0.073-0.235-0.099-0.315-0.072-0.355
			c-2.463-13.672-3.964-31.17-3.826-44.629c0-0.017,0.005-0.033,0.012-0.047c0.017-1.531,0.075-3.078,0.172-4.598
			c0.106-1.549,0.246-3.104,0.418-4.624c0.104-0.954,0.217-1.906,0.33-2.858c0.127-1.071,0.258-2.178,0.374-3.27
			c-0.002-0.009-0.003-0.019-0.002-0.028c0.067-0.617,0.111-1.24,0.139-1.863c-0.682-0.226-1.347-0.519-1.977-0.873
			c-0.665-0.373-1.282-0.808-1.848-1.294c-3.455-3.219-9.227-3.452-9.285-3.454c-0.058-0.003-5.535-0.332-6.687-0.365
			c-1.224-0.036-1.501-0.832-1.512-0.866c-0.003-0.009-0.005-0.018-0.005-0.027c0-0.009-0.002-0.041-0.002-0.06l-48.692,0.037
			c-0.07,0.065-0.142,0.109-0.216,0.135l-1.587,0.779c-0.011,0.005-0.022,0.009-0.033,0.01l-0.037,0.004
			c-0.016,0.013-0.034,0.025-0.057,0.026c-0.007,0-0.014,0-0.02,0c-0.025,0-0.049-0.008-0.073-0.011l-3.103,0.323v4.785
			c0,0.021-0.006,0.04-0.018,0.057l-0.71,1.014c-0.019,0.026-0.049,0.042-0.082,0.042h-0.408v23.318
			c0,0.008-0.006,0.012-0.008,0.019h1.525c0.739,0,1.34,0.601,1.34,1.339v29.502c0,2.034-1.655,3.689-3.689,3.689h-4.83
			c-2.034,0-3.689-1.655-3.689-3.689v-29.502c0-0.739,0.601-1.339,1.339-1.339h1.257c-0.002-0.007-0.008-0.012-0.008-0.019v-23.318
			h-0.534c-0.033,0-0.065-0.017-0.083-0.044l-0.608-0.912c-0.011-0.016-0.017-0.035-0.017-0.055v-3.927l-7.016,0.73
			c0.431,0.218,0.892,0.28,1.24,0.28c0.266,0,0.445-0.032,0.447-0.033c0.006-0.001,0.012-0.002,0.018-0.002
			c0.023,0,0.045,0.008,0.063,0.023c0.023,0.019,0.036,0.046,0.037,0.075l0.031,2.192c0.003,0.181-0.064,0.354-0.187,0.488
			c-0.221,0.238-0.839,0.904-1.756,1.063c-0.942,0.259-12.695,3.489-13.878,3.815l-0.089,0.024c-1.174,0.323-1.763,0.485-2.78,2.6
			c-2.132,5.645-6.14,16.092-6.753,17.625c-0.575,1.438-0.212,2.898-0.208,2.913c0.026,0.089,2.764,9.23,3.016,10.24
			c0.259,1.035-0.011,1.896-0.023,1.932c-0.006,0.02-0.022,0.032-0.038,0.044c-0.004,0.003-0.003,0.01-0.008,0.013l-2.07,1.177
			c-0.015,0.008-0.032,0.013-0.049,0.013c-0.016,0-0.031-0.004-0.046-0.011c-0.03-0.016-0.05-0.046-0.053-0.079
			c-0.004-0.046-0.108-0.981-0.914-1.246l6.265,14.643c0.002,0,0.004,0.001,0.006,0.001c0.004,0,0.007,0,0.011,0
			c0.004,0,0.009,0.001,0.013,0.003c0.049,0.026,0.067,0.086,0.041,0.135c0,0.001-0.006,0.01-0.007,0.012l1.659,3.877
			c0.005,0.013,0.008,0.027,0.008,0.04l-0.024,1.762c0,0.029-0.014,0.054-0.034,0.072c-0.009,0.049-0.009,0.094-0.026,0.147
			l23.915,42.509c0.033-0.005,0.065-0.015,0.1-0.015c0.629,0,1.428,0.883,1.525,0.993c0.006,0.007,0.012,0.015,0.016,0.023
			c0.005,0.01,0.508,1.063,3.536,5.736c3.634,5.368,6.939,6.297,6.972,6.306c0.015,0.004,0.024,0.017,0.035,0.027
			c1.329,0.432,2.575,1.106,3.667,2.005c0.242-0.17,0.483-0.339,0.717-0.528c0.294-0.238,0.584-0.492,0.863-0.756l0.086-0.082
			c10.485-10.319,11.504-10.873,23.98-17.66l1.506-0.82c8.442-4.596,17.171-9.349,26.722-12.266
			c0.057-0.017,0.109-0.025,0.157-0.025c0.141,0,0.247,0.073,0.334,0.226l0.15,0.267c0.082,0.158,0.165,0.311,0.248,0.463
			c0.487,0.901,0.947,1.752,0.986,2.87c0.023,0.672-0.142,1.185-0.551,1.713c-0.169,0.219-0.364,0.438-0.596,0.669
			c-0.062,0.062-0.125,0.122-0.188,0.182l-0.135,0.129c-0.032,0.032-0.093,0.096-0.155,0.162c-0.176,0.187-0.231,0.242-0.28,0.242
			c0,0,0,0,0,0c-9.528,7.855-21.001,16.823-33.939,23.907c-0.015,0.008-0.031,0.012-0.048,0.012h0
			c-1.374,0.752-2.791,1.479-4.214,2.162c-1.439,0.683-2.906,1.34-4.36,1.954c-0.907,0.387-1.816,0.764-2.725,1.142
			c-1.027,0.426-2.089,0.868-3.129,1.313c-0.007,0.007-0.016,0.012-0.025,0.016c-0.542,0.232-1.079,0.482-1.608,0.745
			c0.209,0.864,0.318,1.757,0.318,2.655c0,6.21-5.052,11.261-11.261,11.261c-2.858,0-5.578-1.073-7.668-3.017
			c-0.171,0.126-0.347,0.243-0.514,0.379c-0.284,0.23-0.566,0.477-0.838,0.736l-0.084,0.08
			c-10.181,10.043-11.171,10.582-23.292,17.182l-1.462,0.797c-8.201,4.47-16.682,9.092-25.964,11.925
			c-0.055,0.016-0.106,0.024-0.153,0.024c-0.139,0-0.243-0.072-0.327-0.222l-0.147-0.261c-0.08-0.154-0.161-0.303-0.241-0.451
			c-0.474-0.879-0.923-1.709-0.962-2.798c-0.024-0.655,0.136-1.155,0.533-1.67c0.166-0.216,0.356-0.429,0.579-0.652
			c0.06-0.06,0.121-0.119,0.183-0.177l0.131-0.126c0.032-0.031,0.092-0.094,0.152-0.159c0.166-0.177,0.231-0.231,0.271-0.234
			c9.253-7.644,20.397-16.369,32.965-23.259c0.014-0.008,0.03-0.012,0.046-0.012c1.336-0.731,2.713-1.438,4.094-2.102
			c1.396-0.663,2.821-1.301,4.236-1.899c0.883-0.376,1.767-0.743,2.651-1.11c0.997-0.415,2.027-0.843,3.036-1.275
			c0.007-0.007,0.016-0.012,0.025-0.016c0.571-0.244,1.135-0.51,1.692-0.791c-0.136-0.706-0.207-1.429-0.207-2.151
			c0-0.75,0.077-1.481,0.218-2.19c0-0.004-0.003-0.008-0.002-0.012c1.142-4.601-1.499-9.778-1.526-9.83
			c-0.025-0.052-2.421-4.988-2.956-6.01c-0.568-1.084-0.01-1.716,0.014-1.742c0.006-0.007,0.013-0.013,0.021-0.018
			c0.007-0.004,0.035-0.021,0.051-0.032l-23.873-42.438c-0.09-0.029-0.164-0.07-0.223-0.122l-1.457-1.004
			c-0.01-0.007-0.018-0.015-0.025-0.024l-0.022-0.031c-0.02-0.008-0.039-0.017-0.05-0.036c-0.01-0.016-0.006-0.039-0.014-0.055
			l-11.403-16.155c-0.003,0.026-0.015,0.053-0.016,0.079c-0.033,0.587,0.33,0.959,0.334,0.963c0.021,0.021,0.031,0.05,0.029,0.079
			c-0.003,0.03-0.018,0.056-0.042,0.073l-2.151,1.502c-0.001,0.001-0.002,0.001-0.003,0.001c-0.003,0-0.006-0.002-0.008-0.002
			c0,0-0.002,0-0.002,0.001c-0.017,0.009-0.036,0.015-0.055,0.015c-0.014,0-0.029-0.004-0.042-0.012l-0.932-0.583l-0.001,0
			l-0.003-0.002c-0.008-0.006-0.067-0.053-0.207-0.053c-0.15,0-0.392,0.054-0.765,0.27c-0.06,0.035-0.15,0.093-0.27,0.17
			c-6.339,4.094-14.123,4.954-19.537,4.954c-0.008,0-0.085,0.003-0.228,0.003c-1.474,0-9.886-0.229-20.038-4.916
			c-0.421-0.194-0.675-0.237-0.817-0.237c-0.113,0-0.156,0.027-0.157,0.027l-0.934,0.606c-0.014,0.009-0.029,0.013-0.044,0.013
			c-0.018,0-0.037-0.006-0.054-0.015c0,0-0.001,0-0.002,0c-0.003,0-0.005,0.002-0.008,0.002c-0.001,0-0.002,0-0.002-0.001
			l-2.175-1.468c-0.025-0.016-0.04-0.043-0.043-0.072c-0.003-0.03,0.007-0.059,0.027-0.08c0.004-0.004,0.361-0.381,0.319-0.968
			c-0.002-0.026-0.014-0.053-0.018-0.08l-11.148,16.332c-0.008,0.017-0.004,0.04-0.014,0.056c-0.012,0.02-0.031,0.032-0.052,0.039
			l-0.02,0.029c-0.007,0.01-0.015,0.018-0.024,0.025l-1.439,1.025c-0.058,0.053-0.132,0.096-0.223,0.127l-23.203,42.808
			c0.017,0.01,0.045,0.027,0.052,0.031c0.008,0.005,0.015,0.01,0.022,0.017c0.024,0.026,0.592,0.649,0.042,1.741
			c-0.519,1.03-2.837,6.003-2.86,6.054c0,0-0.002,0.005-0.003,0.005v0l0,0c-0.054,0.109-2.56,5.263-1.378,9.809
			c0.158,0.728,0.246,1.476,0.258,2.238c0.011,0.723-0.048,1.447-0.173,2.154c0.562,0.272,1.13,0.529,1.704,0.764
			c0.01,0.004,0.018,0.009,0.026,0.016c1.019,0.418,2.059,0.831,3.065,1.231c0.886,0.352,1.773,0.704,2.657,1.064
			c1.424,0.575,2.856,1.191,4.258,1.829c0.003,0.001,0.006,0.002,0.009,0.004c1.39,0.641,2.78,1.327,4.132,2.04
			c0.002,0,0.004,0,0.006,0c0.013,0,0.025,0.003,0.035,0.009c12.674,6.69,23.953,15.24,33.325,22.737c0.001,0,0.002,0,0.003,0
			c0.036,0,0.106,0.059,0.274,0.231c0.061,0.063,0.122,0.125,0.154,0.155l0.133,0.124c0.062,0.058,0.125,0.115,0.186,0.174
			c0.228,0.22,0.421,0.43,0.589,0.643c0.406,0.509,0.573,1.006,0.56,1.661c-0.022,1.091-0.457,1.928-0.918,2.814
			c-0.078,0.149-0.156,0.3-0.232,0.452l-0.143,0.265c-0.083,0.154-0.188,0.228-0.329,0.228c-0.045,0-0.094-0.008-0.148-0.022
			c-9.322-2.685-17.872-7.172-26.14-11.51l-1.487-0.78c-12.22-6.407-13.218-6.931-23.556-16.813l-0.084-0.079
			c-0.275-0.253-0.56-0.496-0.849-0.722c-0.169-0.133-0.346-0.248-0.52-0.371c-2.059,1.977-4.763,3.092-7.62,3.138
			c-0.06,0.001-0.12,0.002-0.18,0.002c-6.127,0-11.161-4.935-11.257-11.084c-0.014-0.898,0.082-1.792,0.277-2.659
			c-0.534-0.255-1.074-0.497-1.62-0.72c-0.01-0.004-0.018-0.009-0.026-0.016c-1.052-0.432-2.126-0.858-3.165-1.271
			c-0.909-0.361-1.818-0.722-2.725-1.091c-0.008-0.003-0.016-0.007-0.023-0.012c-1.443-0.579-2.919-1.213-4.368-1.873
			c-1.428-0.658-2.858-1.363-4.254-2.098c-0.002,0-0.003,0-0.005,0c-0.014,0-0.027-0.003-0.039-0.01
			c-13.047-6.88-24.66-15.666-34.31-23.37c-0.002,0-0.005,0.001-0.007,0.001c-0.04,0-0.108-0.065-0.278-0.24
			c-0.063-0.065-0.124-0.127-0.157-0.158l-0.127-0.117c-0.068-0.063-0.136-0.125-0.202-0.189c-0.234-0.226-0.432-0.442-0.607-0.66
			c-0.417-0.522-0.589-1.031-0.577-1.704c0.021-1.118,0.468-1.976,0.94-2.885c0.08-0.154,0.16-0.308,0.239-0.464l0.147-0.272
			c0.085-0.157,0.192-0.232,0.336-0.232c0.046,0,0.096,0.008,0.151,0.023c9.595,2.766,18.397,7.38,26.909,11.842l1.525,0.799
			c12.579,6.589,13.606,7.127,24.253,17.28l0.086,0.08c0.286,0.262,0.58,0.512,0.874,0.742c0.236,0.185,0.48,0.35,0.725,0.516
			c1.078-0.916,2.313-1.609,3.635-2.062c0.011-0.01,0.02-0.023,0.035-0.027c0.033-0.009,3.322-0.99,6.873-6.416
			c2.953-4.719,3.439-5.779,3.444-5.789c0.004-0.009,0.009-0.017,0.015-0.024c0.096-0.112,0.889-1.017,1.52-1.017
			c0.031,0,0.06,0.009,0.09,0.013l23.243-42.879c-0.018-0.053-0.018-0.098-0.028-0.147c-0.02-0.018-0.035-0.042-0.036-0.07
			l-0.052-1.762c0-0.014,0.002-0.028,0.007-0.04l1.592-3.913l-0.001-0.002c-0.026-0.048-0.009-0.108,0.039-0.135
			c0.002-0.001,0.005-0.002,0.007-0.002c0.002,0,0.004,0,0.006,0c0.002,0,0.004,0,0.005-0.001l5.984-14.711
			c-0.742,0.305-0.829,1.186-0.832,1.231c-0.002,0.034-0.022,0.064-0.052,0.08c-0.015,0.008-0.031,0.012-0.048,0.012
			c-0.016,0-0.033-0.004-0.048-0.012l-2.084-1.142l-0.001,0l-0.003-0.002c-0.003-0.002-0.003-0.007-0.006-0.009
			c-0.017-0.012-0.034-0.026-0.041-0.047c-0.012-0.036-0.296-0.892-0.053-1.932c0.236-1.014,2.826-10.186,2.856-10.29v0l0-0.001
			c0.002-0.01,0.343-1.476-0.255-2.904c-0.641-1.533-4.813-11.918-7.033-17.526c-1.046-2.091-1.638-2.243-2.816-2.548l-0.089-0.023
			c-1.193-0.309-13.089-3.378-13.949-3.6c-0.912-0.15-1.537-0.799-1.759-1.032c-0.125-0.131-0.195-0.303-0.195-0.484l-0.004-2.192
			c0-0.029,0.013-0.057,0.035-0.076c0.018-0.015,0.039-0.024,0.062-0.024c0.006,0,0.013,0.001,0.019,0.002
			c0.002,0,0.159,0.026,0.395,0.026c0.366,0,0.853-0.066,1.3-0.303l-7.037-0.619l0.061,3.929c0,0.02-0.005,0.039-0.016,0.056
			l-0.594,0.922c-0.018,0.028-0.049,0.045-0.082,0.046l-0.533,0.008l0.366,23.314c0,0.008-0.006,0.012-0.008,0.019l1.257-0.02h0.021
			c0.727,0,1.328,0.591,1.339,1.319l0.464,29.498c0.032,2.034-1.597,3.715-3.631,3.747l-4.888,0.077
			c-2.002,0-3.656-1.629-3.688-3.631l-0.464-29.499c-0.006-0.358,0.128-0.696,0.377-0.953c0.249-0.257,0.583-0.401,0.941-0.407
			l1.525-0.024c-0.002-0.007-0.008-0.012-0.008-0.019l-0.367-23.315l-0.407,0.006c-0.032-0.006-0.063-0.015-0.082-0.041
			l-0.726-1.002c-0.012-0.016-0.019-0.037-0.019-0.057l-0.072-4.785l-3.113-0.274c-0.026,0.004-0.051,0.013-0.078,0.013
			c-0.004,0-0.008,0-0.012,0c-0.023-0.001-0.042-0.012-0.059-0.026l-0.036-0.003c-0.012-0.001-0.023-0.004-0.034-0.009l-1.6-0.754
			c-0.075-0.025-0.148-0.068-0.219-0.132l-48.686,0.729c0,0.019-0.001,0.051-0.001,0.06c0,0.009-0.002,0.019-0.005,0.028
			c-0.011,0.034-0.276,0.834-1.498,0.889c-1.152,0.052-6.624,0.466-6.679,0.47c-0.06,0.003-5.832,0.327-9.236,3.604
			c-0.557,0.494-1.165,0.936-1.823,1.319c-0.625,0.364-1.286,0.667-1.963,0.904c0.038,0.623,0.092,1.245,0.168,1.86
			c0.001,0.01,0.001,0.021-0.001,0.031c0.134,1.088,0.282,2.192,0.425,3.261c0.128,0.95,0.255,1.9,0.375,2.851
			c0.196,1.526,0.361,3.077,0.49,4.61c0,0.003,0.001,0.005,0.001,0.008c0.121,1.526,0.204,3.074,0.244,4.601
			c0.008,0.013,0.013,0.026,0.013,0.04c0.349,13.453-0.876,30.972-3.124,44.683c0.027,0.039,0.003,0.119-0.066,0.353
			c-0.025,0.084-0.05,0.168-0.061,0.21l-0.042,0.172c-0.02,0.084-0.04,0.169-0.063,0.253c-0.08,0.307-0.17,0.578-0.272,0.828
			c-0.245,0.602-0.596,0.991-1.175,1.302c-0.961,0.514-1.904,0.545-2.902,0.577c-0.169,0.005-0.338,0.011-0.509,0.019l-0.301,0.005
			c-0.003,0-0.007,0-0.01,0c-0.226,0-0.35-0.098-0.402-0.315c-2.224-9.445-2.866-23.141-3.178-34.017l-0.017-0.576
			c-0.397-13.796-0.429-14.923,3.126-28.777l0.027-0.111c0.086-0.362,0.157-0.73,0.214-1.094c0.033-0.213,0.047-0.424,0.069-0.635
			c-2.733-0.827-5.029-2.638-6.467-5.108c-3.125-5.366-1.302-12.274,4.063-15.399c0.775-0.451,1.602-0.806,2.454-1.061
			c-0.039-0.59-0.093-1.18-0.165-1.765c-0.001-0.01-0.001-0.021,0.001-0.03c-0.138-1.123-0.291-2.262-0.439-3.364
			c-0.131-0.975-0.262-1.951-0.385-2.928c-0.203-1.573-0.372-3.171-0.506-4.751c-0.126-1.572-0.211-3.166-0.253-4.738
			c-0.008-0.012-0.013-0.026-0.013-0.04c-0.395-14.959,0.671-32.278,2.781-45.246c-0.028-0.039-0.004-0.121,0.067-0.362
			c0.025-0.087,0.051-0.173,0.062-0.217c0.016-0.064,0.031-0.128,0.046-0.192c0.019-0.082,0.039-0.163,0.06-0.245
			c0.083-0.315,0.174-0.594,0.279-0.852c0.251-0.619,0.611-1.019,1.203-1.338c0.986-0.529,1.953-0.559,2.976-0.592
			c0.173-0.005,0.346-0.011,0.521-0.019l0.309-0.005c0.003,0,0.007,0,0.01,0c0.23,0,0.357,0.1,0.411,0.322
			c2.762,11.749,3.493,27.881,3.679,34.272l0.017,0.595c0.414,14.196,0.448,15.355-3.192,29.61l-0.028,0.115
			c-0.089,0.377-0.162,0.756-0.219,1.126c-0.046,0.297-0.07,0.59-0.096,0.885c1.326,0.491,2.535,1.229,3.578,2.16
			c0.014,0.005,0.03,0.006,0.041,0.017c0.024,0.024,2.49,2.412,8.959,2.852c3.228,0.153,4.974,0.185,5.873,0.185
			c0.65,0,0.857-0.017,0.862-0.017c0.003,0,0.006-0.001,0.008-0.001c0.007,0,0.013,0.001,0.02,0.002
			c0.152,0.03,1.425,0.305,1.657,0.912l48.773-0.728c0.037-0.041,0.076-0.065,0.114-0.098c0.006-0.026,0.02-0.05,0.045-0.064
			l1.511-0.908c0.012-0.007,0.025-0.012,0.039-0.014l3.081-0.383l-0.085-5.438c0-0.02,0.006-0.04,0.017-0.057l0.762-1.128
			c0.018-0.027,0.048-0.044,0.081-0.044l0.381-0.006c-0.002-0.007-0.008-0.011-0.008-0.019l-0.355-22.618
			c0-0.008,0.006-0.013,0.008-0.02l-1.257,0.02h0c-0.748,0-1.349-0.591-1.36-1.318l-0.476-30.295
			c-0.032-2.034,1.597-3.715,3.631-3.747l4.888-0.077c2.002,0,3.656,1.629,3.688,3.631l0.476,30.295
			c0.011,0.738-0.58,1.349-1.318,1.36l-1.525,0.024c0.002,0.007,0.008,0.012,0.008,0.019l0.355,22.618
			c0,0.007-0.006,0.012-0.008,0.019l0.606-0.01h0.002c0.028,0,0.055,0.012,0.074,0.033l0.722,0.8
			c0.016,0.018,0.025,0.041,0.026,0.065l0.074,4.72l7.575-0.942c-0.553-0.43-1.314-0.521-1.821-0.521h0
			c-0.365,0-0.626,0.042-0.628,0.043c-0.005,0.001-0.01,0.001-0.015,0.001c-0.022,0-0.045-0.007-0.063-0.021
			c-0.022-0.017-0.036-0.044-0.037-0.072l-0.141-2.147c-0.002-0.024,0.005-0.047,0.019-0.066c0.04-0.054,0.85-1.116,1.829-1.469
			c0.01-0.028,0.029-0.053,0.06-0.062l14.502-4.426c0.007-0.003,1.118-0.419,1.877-2.336c0.227-0.573,0.78-2.039,1.481-3.896
			c1.739-4.61,4.367-11.575,5.199-13.344c0.873-2.063,0.353-4.155,0.166-4.602c-0.162-0.387-1.926-5.933-2.677-8.299
			c-0.148-0.467-0.21-0.954-0.184-1.445l0.116-2.151c0-0.007,0.006-0.011,0.008-0.017c0.004-0.015,0.008-0.027,0.018-0.038
			c0.006-0.007,0.012-0.012,0.02-0.017c0.006-0.004,0.01-0.011,0.017-0.014l1.932-0.759c0.012-0.005,0.024-0.007,0.037-0.007
			c0.014,0,0.029,0.003,0.042,0.01c0.025,0.012,0.044,0.033,0.053,0.059c0.012,0.038,0.244,0.721,0.937,1.066l-8.07-18.288
			c-0.013-0.019-0.035-0.033-0.046-0.054c-0.011-0.021-0.01-0.043-0.006-0.064l-0.015-0.034c-0.005-0.011-0.008-0.022-0.008-0.034
			l-0.115-1.793c-0.015-0.079-0.013-0.165,0.009-0.261l-24.456-42.962c-0.018,0.009-0.047,0.025-0.055,0.029
			c-0.009,0.004-0.017,0.007-0.026,0.009c-0.009,0.001-0.064,0.012-0.151,0.012c-0.277,0-0.877-0.103-1.368-0.908
			c-0.609-1-3.652-5.664-3.682-5.711c-0.031-0.049-2.765-4.427-6.869-6.142c-0.796-0.207-1.577-0.493-2.328-0.876
			c-0.655-0.335-1.272-0.737-1.846-1.186c-0.476,0.372-0.941,0.758-1.392,1.155c-0.008,0.007-0.017,0.013-0.026,0.017
			c-0.855,0.752-1.716,1.527-2.548,2.276c-0.734,0.66-1.467,1.32-2.206,1.975c-0.007,0.005-0.014,0.01-0.022,0.014
			c-1.162,1.039-2.39,2.084-3.629,3.094c-0.002,0.002-0.004,0.004-0.006,0.005c-1.229,0.992-2.502,1.966-3.783,2.895
			c-0.006,0.014-0.015,0.026-0.028,0.035C68.236,74.58,55.175,81.126,43.964,86.386c-0.017,0.045-0.098,0.072-0.336,0.149
			c-0.087,0.028-0.171,0.056-0.215,0.072l-0.175,0.067c-0.082,0.032-0.164,0.063-0.246,0.093c-0.308,0.11-0.589,0.193-0.861,0.252
			c-0.215,0.047-0.417,0.071-0.612,0.071c-0.399,0-0.77-0.1-1.169-0.309c-0.988-0.516-1.553-1.299-2.151-2.127
			c-0.101-0.14-0.203-0.281-0.307-0.421l-0.177-0.253c-0.134-0.194-0.124-0.357,0.032-0.53c6.781-7.403,14.853-13.272,22.66-18.948
			l1.398-1.017c11.536-8.393,12.479-9.078,26.324-14.149l0.111-0.042c0.36-0.14,0.715-0.294,1.055-0.457
			c0.198-0.095,0.383-0.205,0.573-0.308c-0.628-2.775-0.3-6.016,0.851-8.297c1.378-2.729,3.732-4.754,6.629-5.701
			c1.158-0.378,2.348-0.566,3.532-0.566c1.768,0,3.525,0.419,5.147,1.246c0.654,0.334,1.274,0.731,1.846,1.178
			c0.508-0.376,1.007-0.765,1.488-1.17c0.008-0.007,0.018-0.012,0.027-0.016c0.851-0.714,1.708-1.45,2.536-2.162
			c0.736-0.633,1.472-1.265,2.214-1.891c1.187-1.008,2.416-2.005,3.651-2.965c1.226-0.942,2.495-1.866,3.775-2.747
			c0.006-0.013,0.015-0.025,0.027-0.033c12.25-8.414,25.429-15.865,37.129-20.991c0.018-0.044,0.098-0.068,0.336-0.138
			c0.086-0.025,0.17-0.05,0.212-0.065l0.172-0.06c0.082-0.029,0.163-0.058,0.245-0.085c0.302-0.1,0.581-0.173,0.853-0.225
			C160.728,3.806,160.905,3.788,161.076,3.788 M161.076,1.788c-0.298,0-0.596,0.029-0.91,0.089c-0.354,0.067-0.717,0.162-1.104,0.29
			c-0.092,0.03-0.191,0.065-0.291,0.1l-0.16,0.056l-0.117,0.034c-0.188,0.056-0.468,0.138-0.752,0.303
			c-11.766,5.172-24.997,12.658-37.281,21.096c-0.058,0.04-0.115,0.084-0.17,0.132c-1.259,0.87-2.509,1.782-3.718,2.711
			c-1.266,0.982-2.517,1.998-3.727,3.026c-0.742,0.627-1.482,1.262-2.223,1.899l-0.051,0.044c-0.782,0.671-1.587,1.363-2.389,2.037
			c-0.044,0.032-0.086,0.065-0.125,0.099c-0.082,0.069-0.167,0.139-0.254,0.21c-0.284-0.172-0.573-0.334-0.867-0.484
			c-1.879-0.958-3.973-1.465-6.056-1.465c-1.405,0-2.802,0.224-4.153,0.665c-3.406,1.113-6.174,3.493-7.793,6.7
			c-1.143,2.265-1.601,5.231-1.284,8.046c-0.045,0.018-0.09,0.036-0.135,0.053l-0.1,0.038c-14.083,5.157-15.285,6.032-26.787,14.4
			l-1.398,1.017c-7.888,5.735-16.043,11.664-22.959,19.214c-0.792,0.879-0.867,2.059-0.201,3.02l0.181,0.259
			c0.011,0.016,0.022,0.032,0.034,0.047c0.099,0.133,0.196,0.267,0.292,0.4c0.674,0.934,1.439,1.994,2.847,2.729
			c0.689,0.36,1.375,0.536,2.094,0.536c0.339,0,0.68-0.038,1.04-0.118c0.357-0.078,0.719-0.184,1.108-0.324
			c0.089-0.032,0.181-0.067,0.272-0.102l0.187-0.071l0.109-0.035c0.191-0.062,0.47-0.153,0.749-0.325
			c11.233-5.274,24.323-11.844,36.429-20.6c0.057-0.041,0.112-0.086,0.166-0.135c1.267-0.922,2.521-1.883,3.729-2.858
			c0.01-0.008,0.021-0.017,0.031-0.026c1.249-1.018,2.462-2.052,3.608-3.074c0.012-0.01,0.025-0.02,0.037-0.029
			c0.017-0.014,0.034-0.029,0.051-0.043c0.74-0.656,1.475-1.317,2.21-1.978l-1.299-1.521l1.338,1.487
			c0.792-0.713,1.61-1.448,2.423-2.165c0.031-0.023,0.06-0.047,0.088-0.071c0.064-0.057,0.129-0.113,0.193-0.169
			c0.274,0.167,0.551,0.322,0.831,0.464c0.805,0.411,1.674,0.744,2.585,0.991c3.404,1.486,5.801,5.266,5.825,5.305l0.08,0.123
			c1.907,2.926,3.25,5.009,3.592,5.57c0.631,1.036,1.429,1.504,2.085,1.711l23.684,41.606l0.105,1.643l0,0
			c0.006,0.097,0.021,0.197,0.042,0.296c0.034,0.216,0.103,0.427,0.205,0.625c0.024,0.046,0.051,0.093,0.081,0.14l6.56,14.867
			l-0.479,0.188c-0.221,0.087-0.431,0.217-0.61,0.377c-0.086,0.075-0.168,0.158-0.236,0.241c-0.15,0.179-0.268,0.384-0.35,0.609
			c-0.075,0.197-0.121,0.405-0.132,0.614l-0.116,2.151c-0.039,0.735,0.053,1.46,0.274,2.157c2.523,7.953,2.68,8.327,2.739,8.468
			c0.101,0.282,0.399,1.689-0.15,3.019c-0.888,1.907-3.505,8.846-5.241,13.449c-0.639,1.695-1.243,3.295-1.468,3.865
			c-0.315,0.794-0.664,1.119-0.796,1.219l-14.309,4.367c-0.197,0.06-0.381,0.147-0.548,0.258c-1.29,0.611-2.183,1.752-2.363,1.994
			c-0.293,0.389-0.442,0.886-0.409,1.388l0.075,1.147l-0.983,0.122l-0.039-2.491c-0.008-0.512-0.203-1.004-0.549-1.383l-0.715-0.791
			c-0.058-0.062-0.118-0.121-0.181-0.175l-0.302-19.231c1.609-0.26,2.83-1.672,2.805-3.348l-0.476-30.296
			c-0.049-3.088-2.601-5.6-5.688-5.6l-4.92,0.077c-3.137,0.049-5.649,2.641-5.599,5.778l0.476,30.295
			c0.025,1.567,1.155,2.882,2.64,3.209l0.307,19.519c-0.034,0.042-0.066,0.086-0.096,0.132l-0.758,1.122
			c-0.244,0.362-0.368,0.781-0.36,1.214l0.057,3.638l-1.3,0.162c-0.282,0.035-0.593,0.144-0.835,0.292l-1.308,0.786l-47.251,0.705
			c-0.693-0.505-1.536-0.748-2.109-0.861c-0.025-0.005-0.051-0.01-0.076-0.014c-0.104-0.017-0.228-0.027-0.334-0.027
			c-0.048,0-0.098,0.002-0.149,0.006c-0.044,0.003-0.238,0.012-0.722,0.012c-0.875,0-2.588-0.032-5.778-0.183
			c-5.486-0.373-7.659-2.288-7.68-2.307c-0.079-0.074-0.161-0.141-0.247-0.2c-0.79-0.683-1.646-1.264-2.559-1.738
			c0.023-0.113,0.048-0.225,0.075-0.338l0.026-0.107c3.702-14.498,3.659-15.978,3.246-30.134l-0.018-0.595
			c-0.188-6.45-0.927-22.742-3.731-34.671c-0.279-1.14-1.203-1.865-2.358-1.865l-0.352,0.005c-0.02,0-0.041,0.001-0.061,0.002
			c-0.159,0.007-0.318,0.012-0.475,0.017c-1.17,0.037-2.476,0.079-3.874,0.829c-0.998,0.536-1.689,1.305-2.112,2.35
			c-0.137,0.338-0.255,0.696-0.359,1.094l-0.069,0.281l-0.043,0.178l-0.027,0.093l-0.015,0.052
			c-0.054,0.184-0.137,0.463-0.152,0.792c-2.107,13.057-3.17,30.44-2.775,45.426c0.002,0.071,0.008,0.143,0.018,0.215
			c0.045,1.546,0.13,3.116,0.254,4.67c0.137,1.623,0.31,3.251,0.516,4.847c0.122,0.971,0.253,1.947,0.384,2.923
			c0.147,1.092,0.293,2.183,0.427,3.26c0.002,0.04,0.006,0.079,0.01,0.117c0.008,0.062,0.015,0.125,0.023,0.188
			c-0.457,0.201-0.902,0.427-1.331,0.677c-6.319,3.68-8.465,11.815-4.786,18.134c1.392,2.391,3.472,4.262,5.96,5.392l-0.019,0.08
			c-3.618,14.1-3.577,15.539-3.181,29.304L16.03,228c0.314,10.971,0.966,24.798,3.23,34.418c0.275,1.133,1.196,1.857,2.349,1.857
			l0.346-0.005c0.021,0,0.041-0.001,0.061-0.002c0.16-0.008,0.318-0.013,0.475-0.018c1.132-0.037,2.41-0.078,3.783-0.813
			c0.984-0.528,1.665-1.284,2.083-2.312c0.135-0.329,0.251-0.682,0.354-1.075c0.021-0.079,0.043-0.171,0.065-0.262l0.048-0.199
			l0.033-0.107c0.055-0.187,0.137-0.463,0.154-0.787c2.246-13.791,3.47-31.381,3.12-44.875c-0.002-0.07-0.008-0.142-0.018-0.214
			c-0.043-1.502-0.125-3.027-0.245-4.534h0c-0.001-0.009-0.002-0.019-0.002-0.028c-0.131-1.559-0.299-3.136-0.499-4.687
			c-0.114-0.909-0.237-1.822-0.359-2.736l-0.017-0.126c-0.138-1.029-0.281-2.091-0.41-3.14c-0.002-0.037-0.005-0.074-0.009-0.109
			c-0.015-0.118-0.028-0.236-0.041-0.355c0.292-0.142,0.577-0.295,0.856-0.457c0.761-0.443,1.483-0.965,2.143-1.551
			c0.02-0.018,0.04-0.037,0.06-0.056c2.829-2.723,7.907-3.045,7.958-3.048l0.161-0.012c3.477-0.261,5.846-0.428,6.498-0.457
			c1.062-0.048,1.897-0.45,2.476-0.99l47.132-0.705l1.458,0.687c0.087,0.041,0.182,0.077,0.281,0.107
			c0.209,0.075,0.43,0.116,0.657,0.121c0.014,0,0.041,0,0.055,0c0.036,0,0.071-0.001,0.104-0.003l1.114,0.098l0.045,2.981
			c0.008,0.444,0.15,0.862,0.41,1.214l0.714,0.987c0.041,0.056,0.084,0.111,0.13,0.162l0.316,20.1
			c-0.707,0.113-1.355,0.449-1.862,0.971c-0.623,0.643-0.957,1.488-0.942,2.379l0.464,29.498c0.049,3.088,2.6,5.6,5.688,5.6
			l4.92-0.077c1.518-0.024,2.937-0.638,3.995-1.73c1.058-1.092,1.628-2.53,1.604-4.048l-0.464-29.498
			c-0.025-1.573-1.157-2.892-2.64-3.213l-0.314-20.016c0.104-0.105,0.198-0.222,0.28-0.35l0.589-0.915
			c0.225-0.346,0.343-0.757,0.334-1.18l-0.027-1.701l1.195,0.105l0.002,0.898c0.002,0.699,0.268,1.361,0.751,1.865
			c0.315,0.329,1.263,1.319,2.778,1.604c1.315,0.339,12.708,3.279,13.873,3.58l0.093,0.024c0.835,0.216,0.884,0.228,1.486,1.428
			c2.225,5.62,6.369,15.936,7.015,17.48c0.262,0.627,0.206,1.376,0.155,1.661c-0.251,0.888-2.62,9.284-2.859,10.308
			c-0.362,1.549,0.03,2.807,0.112,3.043c0.076,0.227,0.236,0.55,0.551,0.842c0.134,0.128,0.285,0.238,0.45,0.325l0.862,0.473
			l-4.582,11.265c-0.138,0.217-0.235,0.457-0.287,0.705l-1.477,3.63c-0.105,0.258-0.162,0.574-0.154,0.852l0.045,1.542
			l-22.516,41.537c-0.79,0.365-1.42,0.994-1.789,1.426c-0.123,0.143-0.239,0.327-0.317,0.499c-0.011,0.023-0.552,1.134-3.317,5.552
			c-2.955,4.514-5.641,5.521-5.769,5.566c-0.105,0.032-0.205,0.072-0.302,0.12c-0.981,0.354-1.906,0.816-2.766,1.379
			c-0.087-0.076-0.173-0.152-0.258-0.231l-0.078-0.072c-10.83-10.328-12.141-11.015-24.685-17.586l-1.525-0.799
			c-8.6-4.509-17.493-9.171-27.283-11.993c-0.237-0.068-0.473-0.102-0.705-0.102c-0.876,0-1.659,0.477-2.093,1.277l-0.149,0.275
			c-0.01,0.019-0.02,0.037-0.029,0.056c-0.074,0.147-0.149,0.291-0.224,0.435c-0.533,1.025-1.137,2.184-1.167,3.772
			c-0.021,1.133,0.311,2.111,1.014,2.991c0.228,0.286,0.484,0.564,0.78,0.85c0.075,0.073,0.155,0.147,0.236,0.222l0.121,0.113
			l0.078,0.081c0.157,0.161,0.365,0.374,0.644,0.546c9.669,7.714,21.311,16.51,34.456,23.442c0.062,0.033,0.127,0.062,0.194,0.089
			c1.382,0.724,2.794,1.418,4.198,2.066c1.478,0.673,2.95,1.305,4.384,1.882c0.03,0.014,0.06,0.027,0.09,0.039l0,0
			c0.911,0.371,1.825,0.734,2.74,1.097c1.01,0.401,2.039,0.81,3.05,1.223c0.047,0.023,0.095,0.045,0.142,0.063
			c0.047,0.019,0.095,0.039,0.143,0.059c-0.049,0.497-0.07,0.996-0.062,1.493c0.113,7.198,6.06,13.053,13.257,13.053l0.186-0.001
			c2.788-0.044,5.44-0.941,7.645-2.557l0.055,0.051c10.526,10.062,11.801,10.73,23.994,17.124l1.486,0.78
			c8.357,4.385,16.998,8.92,26.516,11.661c0.246,0.068,0.476,0.1,0.701,0.1c0.875,0,1.656-0.477,2.088-1.276l0.144-0.266
			c0.01-0.019,0.02-0.037,0.029-0.056c0.071-0.142,0.145-0.283,0.217-0.423c0.522-1.004,1.112-2.139,1.143-3.698
			c0.023-1.115-0.303-2.08-0.996-2.948c-0.22-0.278-0.471-0.552-0.763-0.834c-0.064-0.062-0.134-0.127-0.205-0.193l-0.139-0.13
			l-0.082-0.085c-0.142-0.146-0.342-0.352-0.616-0.523c-9.394-7.51-20.708-16.076-33.489-22.823
			c-0.062-0.033-0.128-0.063-0.195-0.089c-1.333-0.699-2.702-1.374-4.074-2.007l0,0c-0.011-0.005-0.023-0.01-0.034-0.016
			c-1.426-0.65-2.88-1.274-4.322-1.856c-0.881-0.359-1.77-0.712-2.659-1.065c-0.977-0.388-1.977-0.786-2.959-1.188
			c-0.045-0.022-0.089-0.042-0.133-0.06c-0.098-0.04-0.197-0.081-0.298-0.124c0.019-0.324,0.026-0.648,0.02-0.97
			c-0.014-0.883-0.116-1.768-0.304-2.631c-0.006-0.026-0.012-0.053-0.019-0.079c-0.989-3.8,1.214-8.377,1.237-8.423
			c0.005-0.01,0.009-0.019,0.014-0.029c0.607-1.304,2.416-5.171,2.84-6.013c0.499-0.991,0.542-1.908,0.354-2.654l22.457-41.433
			l1.312-0.934c0.076-0.054,0.153-0.118,0.225-0.187c0.173-0.149,0.32-0.325,0.437-0.526c0.024-0.04,0.046-0.082,0.067-0.126
			l9.248-13.548l0.891,0.601c0.197,0.133,0.415,0.229,0.644,0.285c0.177,0.047,0.359,0.071,0.541,0.071
			c0.385,0,0.806-0.124,1.13-0.333l0.228-0.148c10.404,4.746,19.003,4.989,20.632,4.989c0.103,0,0.184-0.001,0.242-0.003
			c5.639-0.001,13.741-0.904,20.455-5.176l0.185,0.116c0.318,0.199,0.728,0.316,1.103,0.316c0.179,0,0.357-0.023,0.531-0.069
			c0.244-0.058,0.477-0.162,0.684-0.307l0.878-0.613l9.458,13.399c0.023,0.045,0.048,0.09,0.075,0.134
			c0.09,0.147,0.222,0.321,0.409,0.483c0.086,0.082,0.176,0.155,0.272,0.221l1.315,0.905l23.107,41.077
			c-0.174,0.769-0.102,1.697,0.394,2.645c0.519,0.991,2.904,5.906,2.928,5.955c0.008,0.016,0.016,0.032,0.024,0.048
			c0.019,0.037,2.308,4.607,1.36,8.427c-0.018,0.074-0.032,0.149-0.042,0.224c-0.154,0.818-0.233,1.645-0.233,2.46
			c0,0.322,0.012,0.646,0.036,0.969c-0.103,0.046-0.206,0.091-0.307,0.134c-0.041,0.018-0.083,0.037-0.124,0.059
			c-0.933,0.399-1.882,0.794-2.805,1.178l-0.113,0.047c-0.904,0.376-1.786,0.742-2.666,1.117c-1.438,0.607-2.89,1.258-4.311,1.933
			c-1.374,0.66-2.735,1.358-4.057,2.078c-0.073,0.03-0.143,0.064-0.209,0.102c-12.657,6.938-23.837,15.683-33.114,23.342
			c-0.269,0.175-0.462,0.381-0.595,0.522l-0.101,0.106l-0.112,0.108c-0.064,0.061-0.138,0.132-0.21,0.204
			c-0.282,0.282-0.528,0.559-0.749,0.845c-0.678,0.88-0.989,1.849-0.948,2.964c0.055,1.555,0.663,2.681,1.2,3.675
			c0.076,0.141,0.152,0.282,0.228,0.427c0.01,0.019,0.02,0.037,0.03,0.056l0.147,0.261c0.438,0.778,1.212,1.242,2.071,1.242
			c0.236,0,0.475-0.035,0.713-0.104c9.501-2.899,18.072-7.571,26.361-12.089l1.462-0.797c12.093-6.584,13.357-7.273,23.739-17.514
			l0.04-0.038c2.229,1.581,4.892,2.437,7.659,2.437c7.312,0,13.261-5.949,13.261-13.261c0-0.497-0.028-0.995-0.085-1.491
			c0.054-0.024,0.108-0.047,0.161-0.07c0.041-0.018,0.083-0.037,0.125-0.059c1.002-0.428,2.022-0.852,3.01-1.262
			c0.915-0.38,1.829-0.76,2.742-1.149c1.476-0.623,2.97-1.292,4.434-1.987c1.409-0.677,2.808-1.392,4.166-2.132
			c0.059-0.024,0.116-0.05,0.17-0.079c13.071-7.157,24.578-16.141,34.127-24.009c0.276-0.178,0.476-0.39,0.617-0.54l0.11-0.115
			l0.108-0.102c0.095-0.091,0.158-0.151,0.22-0.213c0.291-0.291,0.542-0.573,0.764-0.86c0.689-0.89,1.005-1.873,0.967-3.004
			c-0.055-1.587-0.676-2.736-1.224-3.751c-0.079-0.146-0.157-0.29-0.234-0.438c-0.01-0.019-0.02-0.037-0.03-0.056l-0.15-0.267
			c-0.44-0.781-1.216-1.247-2.077-1.247c-0.237,0-0.479,0.036-0.719,0.106c-9.77,2.984-18.588,7.786-27.116,12.429l-1.506,0.819
			c-12.441,6.767-13.741,7.475-24.427,17.991l-0.064,0.06c-0.082,0.077-0.165,0.154-0.25,0.23c-0.875-0.554-1.814-1.003-2.808-1.342
			c-0.091-0.043-0.185-0.079-0.28-0.107c-0.073-0.024-2.801-0.961-5.88-5.508c-2.813-4.342-3.372-5.447-3.394-5.492
			c-0.082-0.168-0.197-0.339-0.319-0.476c-0.37-0.42-1.008-1.039-1.805-1.391l-23.166-41.177l0.021-1.542
			c0.004-0.277-0.058-0.593-0.167-0.849l-1.523-3.558c-0.057-0.292-0.175-0.569-0.348-0.814l-4.754-11.11l0.916-0.52
			c0.177-0.101,0.338-0.229,0.476-0.377c0.27-0.279,0.41-0.577,0.482-0.797c0.079-0.244,0.443-1.511,0.062-3.038
			c-0.227-0.908-2.187-7.475-3.019-10.256l-0.001-0.003c-0.056-0.282-0.125-1.032,0.128-1.665c0.621-1.552,4.6-11.927,6.736-17.58
			c0.587-1.217,0.636-1.231,1.47-1.46l0.084-0.023c1.162-0.321,12.419-3.415,13.803-3.795c1.52-0.303,2.459-1.316,2.772-1.654
			c0.476-0.515,0.731-1.181,0.72-1.878l-0.012-0.892l1.193-0.124v1.708c0,0.414,0.121,0.816,0.35,1.161l0.61,0.915
			c0.082,0.124,0.176,0.238,0.281,0.34v20.017c-1.481,0.342-2.589,1.671-2.589,3.254v29.502c0,3.137,2.552,5.689,5.689,5.689h4.83
			c3.137,0,5.689-2.552,5.689-5.689v-29.502c0-1.677-1.243-3.07-2.857-3.305v-20.103c0.043-0.05,0.084-0.103,0.123-0.157l0.714-1.02
			c0.249-0.356,0.379-0.772,0.379-1.204v-2.982l1.111-0.116c0.021,0.001,0.042,0.001,0.064,0.001c0.016,0,0.039,0,0.057-0.001
			c0.01,0,0.021,0,0.031-0.001c0.174-0.006,0.395-0.036,0.634-0.122c0.101-0.031,0.197-0.069,0.291-0.114l1.461-0.717l47.127-0.036
			c0.567,0.521,1.393,0.919,2.503,0.952c1.008,0.029,5.787,0.312,6.625,0.363c0.018,0.001,0.036,0.002,0.054,0.003
			c0.041,0.002,5.117,0.243,7.989,2.919c0.02,0.018,0.039,0.036,0.06,0.053c0.671,0.577,1.402,1.089,2.172,1.521
			c0.281,0.158,0.569,0.306,0.862,0.444c-0.011,0.113-0.022,0.224-0.034,0.334c-0.005,0.044-0.008,0.09-0.01,0.136
			c-0.112,1.045-0.238,2.104-0.359,3.129c-0.115,0.97-0.228,1.928-0.333,2.889c-0.174,1.544-0.318,3.129-0.426,4.705
			c-0.097,1.509-0.155,3.035-0.175,4.548c-0.01,0.079-0.015,0.157-0.015,0.233c-0.138,13.477,1.362,31.044,3.824,44.797
			c0.022,0.325,0.108,0.6,0.165,0.784l0.046,0.149l0.033,0.13c0.023,0.093,0.05,0.195,0.079,0.297
			c0.109,0.388,0.23,0.737,0.369,1.064c0.435,1.022,1.128,1.767,2.119,2.278c1.385,0.713,2.665,0.735,3.793,0.754
			c0.168,0.003,0.323,0.005,0.482,0.01c0.021,0.001,0.042,0.001,0.063,0.001h0.299c1.173-0.002,2.096-0.738,2.357-1.875
			c2.117-9.674,2.551-23.509,2.693-34.483l0.007-0.577c0.18-13.769,0.198-15.209-3.648-29.275l-0.014-0.053
			c2.47-1.169,4.52-3.072,5.874-5.485c1.732-3.084,2.158-6.663,1.2-10.077c-0.958-3.414-3.185-6.247-6.27-7.979
			c-0.433-0.243-0.881-0.462-1.342-0.656c0.006-0.059,0.012-0.117,0.018-0.175c0.002-0.022,0.004-0.043,0.006-0.065
			c0.002-0.025,0.003-0.05,0.004-0.076c0.111-1.031,0.235-2.075,0.355-3.09l0.018-0.152c0.116-0.982,0.233-1.964,0.341-2.949
			c0.18-1.595,0.328-3.226,0.438-4.84c0.1-1.553,0.161-3.125,0.182-4.684c0.01-0.079,0.015-0.157,0.015-0.233
			c0.16-14.971-1.176-32.332-3.488-45.351c-0.021-0.333-0.109-0.616-0.169-0.806l-0.045-0.145l-0.038-0.148
			c-0.025-0.1-0.051-0.2-0.079-0.299c-0.109-0.393-0.233-0.749-0.376-1.087c-0.44-1.039-1.142-1.796-2.148-2.315
			c-1.411-0.729-2.718-0.75-3.872-0.768c-0.165-0.003-0.328-0.005-0.494-0.01c-0.02-0.001-0.039-0.001-0.059-0.001l-0.308,0
			c-1.183,0.002-2.111,0.744-2.369,1.89c-2.619,11.981-3.102,28.284-3.189,34.738l-0.008,0.595
			c-0.19,14.161-0.21,15.641,3.727,30.107l0.024,0.093c0.027,0.106,0.052,0.214,0.076,0.322c-0.911,0.491-1.762,1.09-2.545,1.791
			c-0.083,0.059-0.161,0.124-0.232,0.193c-0.061,0.056-2.215,1.972-7.681,2.429c-3.777,0.239-5.473,0.275-6.143,0.275
			c-0.189,0-0.282-0.003-0.314-0.004c-0.039-0.002-0.078-0.003-0.116-0.003c-0.139,0-0.297,0.017-0.433,0.046
			c-0.575,0.123-1.417,0.379-2.103,0.896l-47.256,0.038l-1.334-0.773c-0.239-0.138-0.542-0.239-0.817-0.27l-1.312-0.142V172.8
			c0-0.432-0.131-0.847-0.378-1.201l-0.782-1.118c-0.03-0.042-0.061-0.084-0.094-0.123v-19.517c1.481-0.342,2.589-1.671,2.589-3.254
			v-30.299c0-3.137-2.552-5.69-5.69-5.69h-4.83c-3.137,0-5.69,2.552-5.69,5.69v30.299c0,1.677,1.243,3.07,2.857,3.305v19.23
			c-0.058,0.052-0.114,0.108-0.166,0.167l-0.722,0.825c-0.34,0.397-0.519,0.882-0.519,1.383v2.492l-0.984-0.107l0.057-1.147
			c0.025-0.499-0.129-0.992-0.434-1.387c-0.181-0.236-1.096-1.369-2.4-1.958c-0.167-0.106-0.35-0.189-0.546-0.245l-14.372-4.14
			c-0.132-0.098-0.487-0.416-0.815-1.207c-0.225-0.542-0.781-1.949-1.485-3.73l-0.049-0.123c-2.39-6.046-4.604-11.616-5.446-13.35
			c-0.571-1.324-0.296-2.736-0.19-3.045c0.043-0.107,0.201-0.503,2.596-8.485c0.211-0.702,0.292-1.43,0.24-2.163l-0.149-2.147
			c-0.014-0.195-0.057-0.39-0.127-0.574c-0.083-0.229-0.207-0.444-0.368-0.635c-0.071-0.084-0.156-0.168-0.246-0.244
			c-0.183-0.158-0.397-0.286-0.621-0.37l-0.476-0.179l6.324-14.964c0.027-0.046,0.053-0.092,0.077-0.14
			c0.077-0.153,0.155-0.357,0.194-0.604c0.02-0.096,0.033-0.193,0.04-0.291l0.081-1.682l23.026-41.971
			c0.657-0.217,1.444-0.699,2.058-1.744c0.337-0.574,1.652-2.685,3.518-5.649l0.047-0.075c0.045-0.075,2.749-4.486,6.533-5.726
			c0.026-0.009,0.052-0.018,0.078-0.028c0.835-0.312,1.641-0.71,2.398-1.181c0.28-0.175,0.555-0.36,0.823-0.556
			c0.098,0.067,0.195,0.134,0.289,0.201c0.014,0.01,0.029,0.02,0.043,0.03c0.023,0.016,0.048,0.031,0.072,0.046
			c0.876,0.617,1.757,1.253,2.611,1.869l0.131,0.094c0.747,0.539,1.495,1.077,2.248,1.61c1.285,0.916,2.618,1.822,3.957,2.69
			c1.294,0.83,2.615,1.631,3.936,2.387c0.049,0.036,0.098,0.069,0.148,0.098c12.996,7.388,26.815,13.725,38.974,17.878
			c0.297,0.141,0.583,0.199,0.773,0.238l0.053,0.011l0.106,0.022l0.135,0.035c0.09,0.024,0.195,0.051,0.3,0.076
			c0.389,0.093,0.758,0.156,1.119,0.193c0.179,0.018,0.353,0.027,0.521,0.027c0.905,0,1.729-0.259,2.519-0.791
			c1.303-0.877,1.946-2.001,2.513-2.993c0.081-0.143,0.162-0.284,0.247-0.427c0.01-0.017,0.019-0.033,0.029-0.05l0.147-0.266
			c0.565-1.032,0.366-2.198-0.505-2.976c-9.443-8.324-20.716-15.209-26.597-18.573l-0.509-0.291
			c-12.101-6.923-13.366-7.647-27.698-11.136l-0.076-0.02c0.179-2.773-0.501-5.535-1.976-7.928
			c-1.886-3.059-4.845-5.195-8.333-6.015c-1.01-0.237-2.044-0.358-3.073-0.358c-2.476,0-4.908,0.699-7.033,2.021
			c-0.266,0.166-0.53,0.344-0.789,0.533c-0.063-0.046-0.126-0.092-0.188-0.138c-0.013-0.01-0.027-0.02-0.041-0.029
			c-0.023-0.016-0.046-0.031-0.07-0.047c-0.88-0.651-1.765-1.321-2.622-1.97c-0.795-0.601-1.59-1.202-2.391-1.798
			c-1.3-0.972-2.638-1.928-3.972-2.838c-1.292-0.874-2.623-1.725-3.964-2.535c-0.057-0.044-0.115-0.084-0.174-0.119
			c-12.806-7.698-26.406-13.134-38.046-17.436c-0.293-0.147-0.577-0.214-0.768-0.259l-0.15-0.036l-0.154-0.044
			c-0.119-0.034-0.205-0.059-0.292-0.082c-0.395-0.105-0.766-0.181-1.131-0.228c-0.23-0.03-0.446-0.045-0.662-0.045
			c-0.86,0-1.653,0.238-2.423,0.727c-1.342,0.852-2.013,1.973-2.606,2.962c-0.084,0.14-0.168,0.281-0.257,0.423
			c-0.011,0.018-0.022,0.036-0.032,0.054l-0.153,0.265c-0.585,1.018-0.41,2.189,0.445,2.988
			c7.544,6.948,16.175,12.164,24.521,17.209l1.477,0.893c12.169,7.361,13.442,8.13,27.935,12.081l0.081,0.024
			c0.046,0.013,0.091,0.027,0.137,0.041c-0.028,1.126,0.069,2.282,0.29,3.419c-0.017,0.233,0.005,0.472,0.071,0.707
			c0.031,0.132,0.647,2.994-1.608,8.053c-2.197,4.672-2.865,5.792-2.914,5.872c-0.003,0.004-0.006,0.009-0.008,0.013
			c-0.091,0.147-0.175,0.331-0.225,0.497c-0.172,0.572-0.357,1.446-0.232,2.308l-23.084,42.082l-1.343,0.81
			c-0.229,0.138-0.458,0.349-0.615,0.566l-2.275,3.252c-0.212,0.199-0.382,0.441-0.497,0.711l-6.139,8.777l-0.219-0.183
			c-0.395-0.32-0.864-0.486-1.344-0.486c-0.466,0-0.925,0.158-1.293,0.445c-0.076,0.059-0.49,0.389-0.946,0.917l-2.339,2.245
			c-0.033-0.063-0.064-0.125-0.096-0.188c-0.158-0.315-0.337-0.674-0.657-1.047c-0.05-0.059-0.104-0.115-0.16-0.168
			c-0.58-0.762-1.531-1.41-2.935-2.008c-2.929-1.247-12.096-1.344-14.836-1.344c-10.677,0-14.65,1.575-14.814,1.642
			c-0.043,0.018-0.086,0.037-0.128,0.058c-0.281,0.139-1.214,0.617-2.007,1.223c-1.13,0.626-1.831,1.489-2.432,2.291l-2.658-2.472
			c-0.44-0.495-0.841-0.812-0.958-0.901c-0.38-0.282-0.824-0.428-1.271-0.428c-0.498,0-0.982,0.178-1.362,0.501l-0.224,0.193
			l-6.278-8.683c-0.119-0.265-0.291-0.502-0.503-0.696l-2.308-3.192c-0.164-0.227-0.404-0.444-0.646-0.585l-1.354-0.789
			l-23.743-41.714c0.111-0.862-0.086-1.731-0.266-2.296c-0.054-0.171-0.141-0.354-0.241-0.508l0,0
			c-0.027-0.043-0.696-1.106-3.026-5.865c-2.314-4.981-1.747-7.852-1.717-7.992c0.074-0.285,0.088-0.576,0.043-0.859
			c0.23-1.388,0.242-2.805,0.037-4.191c0.001,0,0.002-0.001,0.002-0.001l0.104-0.037c13.956-4.683,15.155-5.511,26.623-13.436
			l0.482-0.333c5.575-3.852,16.224-11.67,24.917-20.754c0.81-0.862,0.908-2.039,0.261-3.012l-0.171-0.257
			c-0.012-0.018-0.024-0.035-0.036-0.052c-0.077-0.108-0.152-0.217-0.227-0.325l-0.052-0.075c-0.647-0.938-1.383-2.004-2.757-2.769
			C162.549,1.982,161.833,1.788,161.076,1.788L161.076,1.788z"/>
	</g>
	<path class="st4" d="M172.661,128.406h13.988c4.35,0,7.888,3.538,7.888,7.888v18.352c0,5.164-4.201,9.365-9.364,9.365h-11.035
		c-5.164,0-9.365-4.201-9.365-9.365v-18.352C164.773,131.944,168.312,128.406,172.661,128.406z"/>
	<path class="st5" d="M179.754,239.736c-3.474,0.015-11.943,0.051-15.653-4.425c-3.711-4.476-8.509-26.407-9.396-30.75
		c-0.887-4.343-2.963-15.853-4.391-28.308c-1.428-12.455-1.835-23.03-0.48-27.817c1.355-4.787,10.515-12.361,12.32-13.527
		s1.738,0.282,1.738,0.282l-0.104,9.563c0.008,1.884,0.312,5.215-1.708,6.745c-2.02,1.53-5.337,4.442-7.209,6.913
		c-1.871,2.471-1.51,9.47-1.51,9.47s0.213,8.937,2.296,22.186s6.593,34.295,9.532,38.044c2.939,3.749,14.576,3.253,14.576,3.253
		l0.655-0.008c0,0,11.659,0.447,14.588-3.318c2.928-3.765,7.356-24.848,9.387-38.118c2.03-13.269,2.206-22.215,2.206-22.215
		s0.332-7.006-1.553-9.472c-1.885-2.465-5.221-5.366-7.251-6.888c-2.03-1.523-1.74-4.858-1.74-6.743l-0.145-9.571
		c0,0-0.073-1.45,1.74-0.29c1.813,1.16,11.021,8.701,12.399,13.487c1.378,4.786,1.015,15.372-0.363,27.844
		c-1.378,12.472-3.408,24.001-4.278,28.351c-0.87,4.351-5.583,26.321-9.281,30.817s-12.182,4.496-15.662,4.496L179.754,239.736z"/>
</g>
<g id="Layer_1">
	<g>
		<g>
			<line class="st6" x1="179.624" y1="171.421" x2="179.624" y2="210.497"/>
			<g>
				<polygon class="st3" points="170.366,203.475 179.624,207.408 188.882,203.475 179.624,225.421 				"/>
			</g>
		</g>
	</g>
</g>
<g id="Layer_2">
	<g>
		<g>
			<line class="st0" x1="180.053" y1="112.744" x2="180.029" y2="109.094"/>
			<line class="st7" x1="179.983" y1="102.064" x2="179.359" y2="7.165"/>
			<line class="st0" x1="179.336" y1="3.651" x2="179.312" y2="0"/>
		</g>
	</g>
	<circle class="st8" cx="24.713" cy="185.692" r="12.342"/>
	<circle class="st9" cx="335.287" cy="183.867" r="12.342"/>
</g>
</svg>
