<?xml version="1.0" encoding="utf-8"?>
<!-- Generator: Adobe Illustrator 21.1.0, SVG Export Plug-In . SVG Version: 6.00 Build 0)  -->
<svg version="1.1" xmlns="http://www.w3.org/2000/svg" xmlns:xlink="http://www.w3.org/1999/xlink" x="0px" y="0px"
	 viewBox="0 0 360 360" style="enable-background:new 0 0 360 360;" xml:space="preserve">
<style type="text/css">
	.st0{fill:#FFFFFF;}
	.st1{fill:#231916;}
	.st2{fill:none;stroke:#231916;stroke-miterlimit:10;}
	.st3{fill:none;stroke:#231916;stroke-width:2;stroke-linecap:round;stroke-linejoin:round;}
	.st4{fill:none;stroke:#231916;stroke-width:5;stroke-linecap:round;stroke-linejoin:round;}
	.st5{fill:none;stroke:#888888;stroke-width:1.9723;stroke-linecap:round;stroke-linejoin:round;}
	.st6{fill:none;stroke:#888888;stroke-width:1.9723;stroke-linecap:round;stroke-linejoin:round;stroke-dasharray:7.3846,7.3846;}
	.st7{fill:none;stroke:#888888;stroke-width:1.9723;stroke-linecap:round;stroke-linejoin:round;stroke-dasharray:4.9151,4.9151;}
	.st8{fill:none;stroke:#888888;stroke-width:1.9552;stroke-linecap:round;stroke-linejoin:round;}
	.st9{fill:none;stroke:#888888;stroke-width:1.9552;stroke-linecap:round;stroke-linejoin:round;stroke-dasharray:5.2249,5.2249;}
	.st10{fill:none;stroke:#888888;stroke-width:1.9552;stroke-linecap:round;stroke-linejoin:round;stroke-dasharray:8.5433,8.5433;}
	.st11{fill:#00B550;stroke:#00AF41;stroke-width:2;stroke-miterlimit:10;}
	.st12{fill:#00B550;stroke:#00AF41;stroke-width:1.9528;stroke-miterlimit:10;}
</style>
<g id="Layer_3">
	<g>
		<path class="st0" d="M199.617,360.059c-0.482,0-0.913-0.254-1.181-0.697l-0.157-0.26l-0.269-0.464
			c-0.547-0.938-1.11-1.905-1.203-3.238c-0.062-0.891,0.152-1.642,0.673-2.361c0.186-0.257,0.398-0.512,0.649-0.777l0.323-0.331
			l0.062-0.07c0.162-0.183,0.318-0.358,0.51-0.479c9.643-8.43,22.007-17.208,34.833-24.728c0.042-0.025,0.089-0.047,0.139-0.066
			c1.329-0.776,2.688-1.522,4.039-2.221c1.413-0.722,2.852-1.416,4.279-2.068c0.842-0.387,1.689-0.768,2.536-1.148l0.119-0.054
			c0.976-0.438,1.983-0.892,2.971-1.349c0.034-0.02,0.068-0.037,0.101-0.052c0.323-0.149,0.648-0.309,0.973-0.475
			c-0.087-0.528-0.14-1.064-0.158-1.6c-0.027-0.822,0.027-1.653,0.163-2.47c0.91-4.336-1.742-9.171-1.77-9.219
			c-0.038-0.073-2.627-4.985-3.199-5.996c-0.506-0.895-0.493-1.714-0.272-2.312l-25.181-41.495c-0.039-0.024-0.076-0.05-0.112-0.077
			l-1.472-0.946c-0.049-0.031-0.1-0.071-0.147-0.116c-0.116-0.089-0.197-0.188-0.25-0.27c-0.021-0.031-0.042-0.068-0.061-0.108
			l-10.484-13.868l-1.202,0.99c-0.094,0.077-0.208,0.139-0.325,0.179c-0.084,0.03-0.173,0.052-0.255,0.061
			c-0.033,0.003-0.082,0.006-0.115,0.006c-0.052,0-0.112-0.005-0.171-0.014c-0.108-0.016-0.216-0.047-0.314-0.094l-1.937-0.945
			c-0.549-0.266-1.041-0.628-1.463-1.076c-2.595-2.753-5.743-6.105-6.009-6.442c-0.191-0.243-1.556-1.517-3.43-1.72
			c-1.943-0.131-9.322-1.225-14.204-1.948c-1.974-0.292-3.523-0.521-4.133-0.603c-0.255-0.033-0.49-0.048-0.705-0.048
			c-0.917,0-1.375,0.264-1.473,0.328l-10.875,10.476c-0.075,0.072-0.173,0.137-0.279,0.188c-1,0.769-2.38,0.969-2.542,0.989
			c-0.043,0.006-0.1,0.01-0.143,0.01c-0.194,0-0.438-0.072-0.601-0.179l-1.754-1.133l-1.801,2.462l3.124,1.803
			c0.212,0.122,0.416,0.373,0.493,0.604l0.346,1.014c0.053,0.152,0.063,0.338,0.038,0.517l17.972,10.372l0.258-0.447
			c0.416-0.722,1.193-1.17,2.029-1.17c0.408,0,0.812,0.107,1.167,0.312l26.246,15.153c1.084,0.626,1.858,1.638,2.184,2.849
			c0.324,1.212,0.158,2.476-0.467,3.559l-2.415,4.184c-0.835,1.446-2.395,2.346-4.069,2.346c-0.818,0-1.628-0.218-2.339-0.628
			l-26.246-15.153c-1.117-0.645-1.501-2.079-0.856-3.196l0.125-0.217l-18.076-10.437c-0.117,0.059-0.242,0.097-0.36,0.107
			l-1.359,0.118c-0.024,0.002-0.049,0.003-0.075,0.003c-0.178,0-0.388-0.049-0.536-0.127l-3.967-2.29l-1.305,1.782
			c-0.087,0.119-0.231,0.245-0.362,0.316c0,0-1.532,0.881-1.546,0.888l-23.92,41.508c0.19,0.742-0.006,1.604-0.174,2.133
			c-0.018,0.055-0.043,0.114-0.072,0.172c0,0-0.036,0.066-0.055,0.095c-0.074,0.116-0.79,1.268-3.073,5.869
			c-2.54,5.397-1.802,8.481-1.794,8.513c0.016,0.061,0.025,0.128,0.029,0.197c0.261,1.215,0.338,2.442,0.229,3.661
			c0.027,0.011,0.056,0.021,0.084,0.032c0.329,0.122,0.671,0.233,1.017,0.332l0.111,0.031c14.349,3.783,15.354,4.383,27.671,11.715
			l0.514,0.308c5.521,3.287,19.336,11.817,28.324,20.006c0.519,0.478,0.622,1.151,0.271,1.762l-0.156,0.27l-0.28,0.463
			c-0.561,0.937-1.142,1.908-2.283,2.639c-0.621,0.398-1.229,0.584-1.912,0.584c-0.162,0-0.329-0.011-0.504-0.032
			c-0.315-0.039-0.646-0.102-1.006-0.194l-0.453-0.125l-0.112-0.026c-0.223-0.049-0.455-0.101-0.659-0.213
			c-12.382-4.483-28.052-11.989-40.936-19.611c-0.042-0.024-0.084-0.055-0.126-0.089c-1.339-0.796-2.672-1.635-3.965-2.496
			c-1.322-0.89-2.648-1.824-3.945-2.781c-0.795-0.583-1.586-1.173-2.376-1.764l-0.239-0.178c-0.796-0.595-1.612-1.204-2.424-1.797
			c-0.032-0.02-0.063-0.039-0.091-0.06c-0.251-0.184-0.508-0.363-0.768-0.541c-0.536,0.458-1.108,0.868-1.709,1.225
			c-1.89,1.121-4.047,1.715-6.238,1.715l0,0c-4.32-0.001-8.369-2.301-10.566-6.005c-1.441-2.429-1.994-5.249-1.587-8.026
			c-0.258-0.091-0.524-0.175-0.793-0.251l-0.107-0.029c-13.959-3.664-14.938-4.246-26.912-11.37l-0.496-0.295
			c-9.395-5.587-21.107-12.847-28.348-19.445c-0.515-0.479-0.615-1.148-0.268-1.752l0.15-0.26L32.625,280
			c0.594-0.991,1.163-1.94,2.277-2.657c0.612-0.393,1.211-0.576,1.886-0.576c0.156,0,0.318,0.011,0.486,0.03
			c0.31,0.039,0.632,0.1,0.984,0.19l0.44,0.121l0.11,0.024c0.215,0.048,0.438,0.099,0.636,0.205
			c13.099,4.724,29.028,12.189,40.622,19.041c0.041,0.024,0.082,0.054,0.123,0.087c1.311,0.779,2.606,1.595,3.854,2.426
			c1.311,0.881,2.601,1.789,3.837,2.702c0.712,0.522,1.424,1.053,2.134,1.583l0.271,0.203c0.816,0.609,1.658,1.238,2.494,1.849
			c0.032,0.019,0.062,0.039,0.09,0.06c0.281,0.205,0.573,0.408,0.87,0.607c0.417-0.326,0.854-0.626,1.306-0.895
			c0.705-0.417,1.453-0.766,2.225-1.036c4.177-1.279,7.089-5.854,7.118-5.9c0.142-0.214,3.084-4.675,3.658-5.606
			c0.602-0.974,1.374-1.261,1.873-1.338l23.869-41.414c0.002-0.042,0.128-1.847,0.128-1.847c0.004-0.057,0.015-0.121,0.03-0.185
			c0.021-0.149,0.072-0.271,0.121-0.36c0.002-0.004,0.058-0.095,0.064-0.104l0.858-1.923l-3.364-1.942
			c-0.176-0.102-0.357-0.298-0.444-0.48l-0.526-1.128c-0.056-0.12-0.086-0.263-0.091-0.409l-18.644-10.765l-0.259,0.448
			c-0.417,0.722-1.194,1.17-2.029,1.17c-0.409,0-0.812-0.108-1.167-0.312l-25.557-14.755c-2.24-1.294-3.01-4.168-1.717-6.407
			l2.416-4.185c0.835-1.445,2.395-2.344,4.068-2.344c0.818,0,1.627,0.217,2.339,0.627l25.556,14.755
			c1.117,0.646,1.501,2.08,0.856,3.196l-0.125,0.216l18.584,10.73c0.17-0.115,0.369-0.191,0.554-0.202c0,0,1.125-0.073,1.144-0.073
			c0.19,0,0.416,0.06,0.573,0.152l2.433,1.404l1.315-2.945l-1.579-0.882c-0.383-0.213-0.667-0.562-0.797-0.984
			c-0.115-0.372-0.463-1.501-0.027-2.691c0.219-0.854,3.299-12.65,3.607-13.838c0.297-1.137,0.371-1.418-0.697-2.98
			c-3.764-4.593-10.815-13.296-11.851-14.61c-0.738-0.939-1.898-1.291-1.91-1.294c-0.046-0.01-9.35-2.214-10.377-2.509
			c-1.284-0.366-2.048-1.188-2.131-1.279s-0.153-0.216-0.202-0.346c-0.052-0.123-0.079-0.257-0.079-0.39l0.013-1.954l-13.021-1.561
			c-0.064,0.013-0.127,0.02-0.186,0.02c-0.157,0-0.31-0.033-0.448-0.095l-3.95-0.474c-0.137-0.017-0.308-0.074-0.427-0.144
			c0,0-1.545-0.922-1.558-0.93l-47.887-0.534c-0.557,0.534-1.434,0.785-1.966,0.894c-0.065,0.013-0.152,0.021-0.22,0.021
			c-0.035,0-0.114-0.006-0.115-0.006c-0.013,0-0.192-0.009-0.629-0.009c-0.876,0-2.619,0.036-5.95,0.207
			c-5.952,0.427-8.282,2.584-8.305,2.606c-0.044,0.042-0.096,0.082-0.152,0.118c-0.933,0.823-1.966,1.491-3.081,1.992
			c0.004,0.03,0.009,0.061,0.014,0.09c0.055,0.348,0.125,0.701,0.208,1.05l0.027,0.109c3.727,14.367,3.697,15.538,3.333,29.868
			l-0.043,1.715c-0.241,9.659-0.491,19.647-2.764,29.482c-0.041,0.166-0.094,0.301-0.167,0.425
			c-0.246,0.427-0.691,0.674-1.219,0.674l-0.325-0.003l-0.531-0.018c-1.109-0.032-2.24-0.064-3.434-0.699
			c-0.795-0.423-1.324-1.007-1.664-1.837c-0.12-0.292-0.226-0.609-0.323-0.972l-0.113-0.458l-0.049-0.165
			c-0.058-0.193-0.121-0.402-0.12-0.623c-2.035-12.171-4.061-26.595-3.727-41.405c0.001-0.048,0.006-0.1,0.016-0.151
			c0.037-1.548,0.116-3.122,0.235-4.682c0.13-1.609,0.296-3.224,0.493-4.802c0.117-0.961,0.242-1.921,0.367-2.882
			c0.148-1.133,0.294-2.248,0.426-3.348c0.001-0.04,0.004-0.079,0.009-0.114c0.036-0.302,0.067-0.61,0.094-0.923
			c-0.661-0.242-1.299-0.54-1.904-0.89c-5.856-3.381-7.87-10.896-4.489-16.753c1.414-2.447,3.603-4.31,6.222-5.314
			c-0.047-0.271-0.104-0.543-0.169-0.813l-0.027-0.113c-3.639-13.962-3.611-15.1-3.262-29.028l0.041-1.664
			c0.23-9.391,0.469-19.101,2.681-28.655c0.166-0.678,0.692-1.092,1.376-1.092l0.319,0.003l0.53,0.018
			c1.071,0.031,2.176,0.062,3.345,0.684c0.781,0.414,1.301,0.986,1.635,1.799c0.12,0.291,0.223,0.602,0.316,0.952l0.11,0.44
			l0.047,0.16c0.053,0.177,0.114,0.378,0.117,0.594c1.99,11.832,3.974,25.856,3.655,40.26c-0.001,0.045-0.006,0.094-0.015,0.144
			c-0.036,1.503-0.112,3.034-0.228,4.554c-0.125,1.562-0.287,3.131-0.479,4.668c-0.116,0.952-0.24,1.905-0.364,2.857l-0.027,0.209
			c-0.127,0.981-0.258,1.989-0.378,2.983c-0.001,0.043-0.004,0.085-0.01,0.123c-0.041,0.338-0.075,0.688-0.103,1.043
			c0.489,0.204,0.964,0.438,1.419,0.701c0.662,0.383,1.297,0.835,1.889,1.347c0.021,0.015,0.041,0.03,0.06,0.047
			c3.159,3.041,8.624,3.354,8.679,3.356c0.007,0.001,0.104,0.008,0.111,0.008c1.292,0.093,5.583,0.396,6.563,0.437
			c1.063,0.044,1.724,0.507,2.09,0.978l47.791,0.535c0.038-0.02,1.673-0.793,1.673-0.793c0.052-0.024,0.118-0.048,0.183-0.066
			c0.105-0.04,0.216-0.062,0.33-0.067c0.013-0.001,0.112,0.002,0.15,0.006l17.416-1.591l-0.177-2.062
			c-0.011-0.123,0.002-0.245,0.035-0.361c0.071-0.293,0.257-0.543,0.523-0.693l0.756-0.4c0.004-0.05,0.008-0.113,0.008-0.194
			c0-0.059-0.005-0.146-0.011-0.265c-0.39-7.788,2.837-15.15,5.611-19.956c0.011-0.025,4.357-8.127,14.681-15.415
			c0.105-0.074,0.18-0.135,0.231-0.181l-0.042-0.801c-0.011-0.208,0.061-0.438,0.181-0.631c0.111-0.198,0.287-0.357,0.502-0.443
			l1.796-0.878l-7.579-15.76c-0.024-0.031-0.046-0.062-0.064-0.094c-0.068-0.12-0.113-0.245-0.135-0.373
			c-0.011-0.037-0.019-0.071-0.023-0.101l-0.172-1.78c-0.007-0.043-0.013-0.087-0.017-0.131L106.12,71.526
			c-0.486-0.062-1.278-0.322-1.909-1.286c-0.248-0.377-1.082-1.598-3.646-5.263c0,0-0.157-0.225-0.167-0.238
			c-0.03-0.046-3.085-4.545-7.242-5.692c-0.817-0.26-1.575-0.588-2.289-0.986c-0.46-0.255-0.905-0.542-1.33-0.856
			c-0.294,0.208-0.582,0.422-0.865,0.641c-0.022,0.018-0.048,0.035-0.075,0.053c-0.798,0.617-1.601,1.251-2.381,1.867l-0.162,0.129
			c-0.75,0.593-1.501,1.186-2.256,1.773c-1.234,0.964-2.493,1.903-3.741,2.793c-0.006,0.005-0.019,0.014-0.019,0.014
			c-1.236,0.873-2.51,1.725-3.788,2.532c-0.047,0.041-0.096,0.076-0.146,0.105c-12.161,7.651-25.213,13.15-36.387,17.519
			c-0.19,0.11-0.398,0.163-0.572,0.207l-0.169,0.044l-0.429,0.131c-0.354,0.101-0.674,0.171-0.982,0.217
			c-0.203,0.03-0.397,0.045-0.585,0.045c-0.634,0-1.206-0.166-1.798-0.523c-1.133-0.686-1.728-1.617-2.303-2.519l-0.268-0.415
			l-0.176-0.284c-0.366-0.597-0.284-1.268,0.212-1.755c7.071-6.812,15.275-12,23.209-17.018l1.419-0.897
			c11.774-7.452,12.735-8.061,26.6-12.112l0.1-0.03c0.258-0.081,0.52-0.172,0.776-0.271c-0.483-2.763-0.01-5.599,1.364-8.068
			l0.1-0.175c2.18-3.774,6.256-6.123,10.636-6.123c2.072,0,4.128,0.534,5.945,1.545c0.611,0.341,1.194,0.735,1.741,1.178
			c0.257-0.186,0.51-0.374,0.759-0.567c0.025-0.019,0.052-0.038,0.081-0.056c0.854-0.661,1.714-1.341,2.548-2
			c0.844-0.667,1.613-1.276,2.388-1.878c0.018-0.014,0.036-0.027,0.057-0.041c1.209-0.948,2.489-1.904,3.806-2.844
			c1.271-0.898,2.583-1.776,3.906-2.613c0.042-0.036,0.085-0.068,0.128-0.094c12.521-7.884,25.94-13.554,37.433-18.061
			c0.194-0.114,0.412-0.169,0.597-0.215l0.184-0.048l0.438-0.133c0.349-0.101,0.677-0.173,0.996-0.221
			c0.208-0.032,0.408-0.047,0.602-0.047c0.644,0,1.225,0.169,1.827,0.531c1.159,0.7,1.768,1.654,2.356,2.577l0.275,0.43l0.177,0.287
			c0.287,0.465,0.305,0.987,0.047,1.432c-0.063,0.115-0.157,0.233-0.271,0.342c-7.262,6.993-15.701,12.336-23.863,17.503
			l-1.463,0.927c-12.11,7.671-13.099,8.298-27.353,12.482l-0.103,0.031c-0.334,0.105-0.674,0.227-0.996,0.356
			c-0.029,0.012-0.058,0.023-0.085,0.035c0.142,1.216,0.099,2.446-0.129,3.668c-0.002,0.073-0.011,0.145-0.026,0.206
			c-0.004,0.02-0.656,3.125,2.043,8.469c2.505,4.719,3.188,5.711,3.216,5.751c0.047,0.068,0.104,0.173,0.133,0.25
			c0.186,0.531,0.418,1.408,0.248,2.163l25.052,40.818c0.014,0.006,1.595,0.858,1.595,0.858c0.115,0.062,0.248,0.172,0.33,0.272
			l2.49,3.203c0.148,0.114,0.267,0.266,0.341,0.438l8.072,10.382l1.625-0.987c0.062-0.037,0.131-0.07,0.198-0.094
			c0.049-0.017,0.098-0.03,0.148-0.039c0.081-0.019,0.163-0.029,0.234-0.029c0.075,0,0.163,0.011,0.236,0.027
			c0.006,0,1.152,0.219,2.161,1.165c0.787,0.736,7.417,7.549,7.521,7.655l0,0c0.003,0,0.89,0.785,2.052,0.934
			c1.687,0.217,12.785,1.8,18.718,2.677c0.177,0.007,0.415,0.015,0.63,0.015c1.25,0,1.436-0.188,2.125-0.891
			c0.93-0.946,9.537-9.715,10.16-10.35c0.735-0.905,1.873-1.186,2.247-1.278c0.135-0.033,0.271-0.05,0.407-0.05
			c0.296,0,0.588,0.078,0.846,0.226l1.574,0.904l1.851-2.64l-2.465-1.371c-0.176-0.099-0.358-0.289-0.448-0.47l-0.496-0.965
			c-0.083-0.163-0.119-0.37-0.107-0.572l-18.751-10.437l-0.122,0.218c-0.434,0.753-1.212,1.2-2.049,1.2
			c-0.396,0-0.787-0.101-1.133-0.293l-25.785-14.352c-2.26-1.258-3.075-4.119-1.817-6.379l2.379-4.273
			c0.842-1.457,2.402-2.354,4.083-2.354c0.792,0,1.576,0.203,2.268,0.588l25.784,14.351c0.544,0.302,0.939,0.8,1.112,1.402
			c0.171,0.603,0.098,1.234-0.204,1.78l-0.253,0.453l18.812,10.471c0.134-0.072,0.279-0.122,0.41-0.134l1.216-0.126
			c0.034-0.004,0.078-0.006,0.112-0.006c0.171,0,0.388,0.057,0.536,0.139l3.395,1.892l1.216-1.735
			c0.016-0.036,0.032-0.069,0.043-0.089c0.06-0.1,0.144-0.211,0.266-0.309c0.03-0.031,0.062-0.059,0.088-0.08l1.458-1.014
			c0.033-0.027,0.068-0.053,0.104-0.077l23.28-41.754c-0.245-0.598-0.278-1.398,0.184-2.288c0.306-0.589,1.318-2.668,2.852-5.854
			l0.07-0.147c0.031-0.062,2.462-4.935,1.425-9.122c-0.173-0.841-0.258-1.66-0.26-2.476c-0.003-0.523,0.029-1.053,0.096-1.58
			c-0.325-0.153-0.652-0.3-0.981-0.439c-0.028-0.012-0.058-0.025-0.087-0.042c-0.987-0.418-1.994-0.832-2.969-1.232l-0.252-0.104
			c-0.805-0.332-1.609-0.663-2.412-1.001c-1.447-0.604-2.887-1.243-4.277-1.897c0,0-0.014-0.007-0.02-0.01
			c-1.366-0.65-2.729-1.342-4.05-2.058c-0.039-0.014-0.075-0.028-0.108-0.045c-11.868-6.447-26.464-16.288-37.248-25.107
			c-0.18-0.104-0.315-0.247-0.448-0.388l-0.118-0.124l-0.331-0.318c-0.256-0.252-0.475-0.498-0.666-0.746
			c-0.537-0.69-0.775-1.425-0.747-2.311c0.042-1.326,0.564-2.301,1.068-3.243l0.229-0.435l0.162-0.292
			c0.274-0.478,0.708-0.739,1.202-0.739c0.141,0,0.286,0.022,0.433,0.065c9.391,2.827,21.633,9.148,31.25,14.34l0.507,0.273
			c12.264,6.618,13.266,7.158,23.59,17.266l0.073,0.069c0.198,0.187,0.406,0.371,0.618,0.547c2.175-1.776,4.879-2.75,7.703-2.76
			c6.784,0,12.285,5.48,12.311,12.217c0.002,0.7-0.056,1.401-0.174,2.095c0.287,0.133,0.577,0.262,0.867,0.385
			c0.024,0.011,0.051,0.023,0.078,0.038c0.935,0.396,1.887,0.789,2.815,1.171l0.354,0.146c0.88,0.361,1.762,0.724,2.639,1.093
			c1.474,0.615,2.957,1.273,4.406,1.955c1.425,0.678,2.832,1.392,4.187,2.125c0.049,0.017,0.095,0.037,0.137,0.06
			c13.158,7.141,27.66,16.742,37.878,25.075c0.181,0.105,0.318,0.25,0.454,0.392l0.128,0.134l0.336,0.321
			c0.262,0.258,0.484,0.508,0.68,0.758c0.553,0.709,0.797,1.458,0.77,2.358c-0.043,1.354-0.577,2.352-1.094,3.316l-0.237,0.446
			c0,0-0.174,0.314-0.179,0.322c-0.264,0.457-0.7,0.719-1.196,0.719c-0.141,0-0.286-0.021-0.432-0.063
			c-11.66-3.514-26.07-10.984-31.725-14.034l-0.523-0.281c-12.619-6.804-13.649-7.359-24.277-17.739l-0.074-0.069
			c-0.262-0.247-0.533-0.482-0.805-0.7c-0.023-0.02-0.048-0.038-0.071-0.057c-0.991,0.72-2.085,1.285-3.262,1.685
			c-0.071,0.037-0.144,0.066-0.213,0.083c0.003,0.001-3.024,0.952-6.363,5.923c-2.776,4.324-3.386,5.511-3.446,5.632l-0.001-0.001
			c-0.044,0.09-0.101,0.176-0.16,0.245c-0.285,0.326-0.956,1.01-1.743,1.245l-23.331,41.842c0.001,0.009,0.033,1.809,0.033,1.809
			c0.002,0.139-0.032,0.316-0.085,0.443l-0.861,2.038l3.969,2.209c0.176,0.099,0.359,0.29,0.449,0.471l0.6,1.234
			c0.053,0.107,0.084,0.234,0.095,0.366l18.238,10.151l0.121-0.218c0.431-0.745,1.215-1.2,2.054-1.2
			c0.395,0,0.784,0.102,1.129,0.293l26.48,14.738c2.26,1.259,3.075,4.12,1.818,6.38l-2.379,4.272
			c-0.841,1.457-2.402,2.354-4.084,2.354c-0.792,0-1.576-0.203-2.267-0.587l-26.48-14.738c-1.128-0.63-1.534-2.058-0.907-3.184
			l0.254-0.455l-18.133-10.089c-0.14,0.113-0.304,0.198-0.46,0.231l-1.056,0.226c-0.068,0.015-0.16,0.025-0.23,0.025
			c-0.168,0-0.381-0.055-0.527-0.136l-3.158-1.758l-1.188,2.81l1.878,0.924c0.219,0.108,0.438,0.342,0.529,0.567
			c0.018,0.04,0.598,1.386,0.447,2.676c0.013,0.119,0.007,0.236-0.019,0.342l-3.416,14.766c0-0.002,0-0.003,0.001-0.003
			c0.008,0-0.026,0.791,0.894,1.951c0.372,0.472,1.326,1.636,2.538,3.114l0.085,0.104c3.131,3.82,7.863,9.594,9.007,11.24
			c1.111,1.47,2.904,1.984,3.21,2.023c0.453,0.059,5.592,1.183,8.615,1.848c0.597,0.131,1.16,0.368,1.675,0.703l1.806,1.176
			c0.115,0.075,0.218,0.178,0.295,0.295c0.061,0.089,0.113,0.188,0.144,0.278c0.014,0.042,0.026,0.092,0.036,0.142
			c0.025,0.115,0.03,0.232,0.016,0.349l-0.234,1.561l17.28,1.874c0.031-0.003,0.061-0.005,0.087-0.005
			c0.131,0.005,0.277,0.026,0.426,0.089c0.069,0.021,0.134,0.047,0.185,0.074l1.532,0.758c0.043,0.018,0.085,0.036,0.126,0.058
			l48.547,0.296c0.41-0.509,1.104-0.93,2.114-0.953c1.053-0.025,5.786-0.28,6.724-0.331c0.102-0.004,4.93-0.195,8.184-2.637
			c0.634-0.637,1.319-1.195,2.038-1.662c0.436-0.282,0.9-0.541,1.391-0.774c-0.055-0.328-0.114-0.655-0.18-0.98
			c-0.006-0.026-0.01-0.057-0.014-0.087c-0.22-1.095-0.455-2.204-0.683-3.278c-0.205-0.968-0.411-1.937-0.608-2.906
			c-0.006-0.026-0.01-0.055-0.014-0.083c-0.31-1.488-0.598-3.051-0.855-4.646c-0.003-0.014-0.006-0.027-0.008-0.041
			c-0.241-1.545-0.447-3.118-0.611-4.677c-0.016-0.062-0.025-0.122-0.029-0.18c-1.521-14.76-0.664-29.341,0.383-41.672
			c-0.021-0.222,0.026-0.439,0.07-0.642l0.037-0.184l0.073-0.45c0.067-0.369,0.147-0.694,0.243-0.997
			c0.273-0.858,0.754-1.482,1.514-1.965c1.141-0.726,2.265-0.84,3.352-0.951l0.504-0.054l0.341-0.029
			c0.028-0.003,0.116-0.007,0.145-0.007c0.637,0,1.136,0.37,1.335,0.99c3.053,9.676,4.105,19.653,5.123,29.303l0.182,1.725
			c1.515,14.316,1.639,15.486-0.918,30.155l-0.017,0.102c-0.048,0.31-0.085,0.623-0.111,0.932c2.691,1.01,5.163,2.895,6.571,5.044
			c1.821,2.783,2.447,6.103,1.764,9.348c-0.271,1.286-0.738,2.51-1.389,3.637c-0.963,1.669-2.338,3.112-3.976,4.174
			c-0.445,0.29-0.916,0.553-1.404,0.786c0.05,0.363,0.105,0.726,0.169,1.085c0.006,0.029,0.01,0.06,0.012,0.092
			c0.187,1.051,0.387,2.114,0.58,3.146c0.193,1.025,0.373,1.979,0.544,2.935c0.279,1.526,0.531,3.104,0.748,4.686
			c0.204,1.534,0.368,3.076,0.489,4.592c0.013,0.054,0.021,0.107,0.025,0.159c1.161,14.813,1.028,29.976-0.375,42.701
			c0.012,0.223-0.04,0.436-0.086,0.625l-0.041,0.175l-0.084,0.441c-0.076,0.36-0.163,0.68-0.269,0.979
			c-0.084,0.24-0.182,0.457-0.299,0.659c-0.288,0.502-0.698,0.908-1.252,1.24c-1.151,0.688-2.269,0.778-3.349,0.865l-0.497,0.042
			c0,0-0.428,0.026-0.448,0.026c-0.641,0-1.156-0.387-1.344-1.01c-3.5-11.999-4.937-25.057-5.482-31.772l-0.048-0.583
			c-1.142-14.065-1.234-15.214,1.666-29.536l0.02-0.102c0.051-0.277,0.093-0.56,0.126-0.839c-1.55-0.502-2.998-1.309-4.243-2.367
			c-0.195-0.055-0.388-0.161-0.516-0.292c-0.015-0.015-2.354-2.243-8.422-2.782c-4.022-0.274-5.746-0.316-6.414-0.316
			c-0.171,0-0.305,0.005-0.321,0.005c-0.083,0-0.183-0.009-0.256-0.025c-0.444-0.095-1.371-0.354-1.959-0.938l-48.647-0.3
			c-0.017,0.011-1.594,0.914-1.594,0.914c-0.131,0.074-0.316,0.132-0.466,0.142l-3.998,0.412c-0.131,0.055-0.273,0.084-0.421,0.084
			c-0.062,0-0.128-0.008-0.195-0.021l-11.872,1.221l0.255,1.35c0.042,0.221-0.003,0.518-0.106,0.717
			c-0.14,0.242-0.324,0.406-0.542,0.499c-0.087,0.036-0.523,0.214-1.126,0.334l-3.773,1.159c-0.272,0.129-0.61,0.381-0.677,0.545
			l0.175,0.42c0.43,0.994,0.858,1.983,0.818,3.22c0.13,0.918,0.079,1.934,0.06,2.231c-0.011,0.101-0.578,4.194-5.868,13.357
			c-0.962,1.662-5.88,10.046-8.317,11.879c-1.109,0.834-2.037,1.279-2.826,1.355c-0.058,0.021-0.117,0.039-0.178,0.052
			c-0.196,0.037-0.373,0.05-0.559,0.05c-0.137,0-0.279-0.008-0.438-0.017c-0.167-0.01-0.341-0.021-0.548-0.021
			c-0.296,0-0.605,0.022-0.945,0.069c-0.007,0.096,0.009,0.27,0.053,0.411l0.977,3.961c0.231,0.647,0.293,1.147,0.294,1.152
			c0.025,0.215-0.031,0.496-0.14,0.684c-0.133,0.223-0.327,0.386-0.553,0.475l-1.31,0.48l5.058,10.83
			c0.093,0.109,0.168,0.233,0.208,0.353c0.022,0.064,0.037,0.129,0.047,0.194l1.714,3.669c0.062,0.132,0.103,0.316,0.103,0.463
			c0,0,0.035,1.798,0.034,1.815l25.242,41.592c0.843,0.221,1.581,0.953,1.815,1.204c0.056,0.06,0.12,0.148,0.16,0.219
			c0.035,0.066,0.617,1.148,3.727,5.619c3.577,4.928,6.685,5.776,6.716,5.784c0.169,0.036,0.322,0.116,0.45,0.228
			c1.314,0.44,2.559,1.057,3.651,1.808c0.238-0.198,0.475-0.409,0.704-0.628l0.081-0.078c10.561-10.471,11.59-11.038,24.198-17.979
			l1.52-0.837c8.505-4.686,17.294-9.526,26.973-12.552c0.162-0.049,0.312-0.072,0.459-0.072c0.495,0,0.933,0.263,1.198,0.72
			l0.154,0.267l0.229,0.419c0.562,1.011,1.112,1.998,1.169,3.352c0.031,0.726-0.111,1.336-0.448,1.92
			c-0.089,0.152-0.186,0.298-0.298,0.443c-0.192,0.253-0.415,0.504-0.679,0.77l-0.339,0.328l-0.111,0.118
			c-0.154,0.164-0.305,0.325-0.494,0.434c-9.52,7.908-20.995,16.948-34.006,24.156c-0.04,0.022-0.086,0.043-0.135,0.061
			c-1.38,0.762-2.787,1.491-4.184,2.17c-1.435,0.691-2.919,1.366-4.416,2.008c-0.836,0.363-1.68,0.719-2.522,1.075l-0.219,0.092
			c-1.035,0.438-2.058,0.869-3.06,1.305c0,0.001-0.001,0.001-0.002,0.002c-0.356,0.157-0.683,0.307-0.994,0.455
			c0.089,0.536,0.143,1.066,0.158,1.583c0.077,2.313-0.487,4.585-1.632,6.569c-0.478,0.825-1.053,1.599-1.71,2.297
			c-2.27,2.417-5.352,3.801-8.678,3.896c-0.12,0.003-0.24,0.005-0.36,0.005c-2.734,0-5.387-0.9-7.556-2.551
			c-0.211,0.187-0.419,0.384-0.621,0.587l-0.076,0.078c-10.085,10.56-11.08,11.14-23.268,18.24l-0.511,0.298
			c-5.823,3.393-17.359,9.679-29.192,13.662C199.937,360.031,199.774,360.059,199.617,360.059z"/>
		<path class="st1" d="M190.35,4.353c0.047,0,0.097,0.008,0.152,0.024c9.294,2.798,21.479,9.09,31.057,14.26l0.507,0.274
			c12.149,6.556,13.141,7.091,23.365,17.1l0.083,0.079c0.27,0.255,0.553,0.501,0.84,0.733c0.168,0.135,0.344,0.253,0.516,0.378
			c2.083-1.953,4.8-3.037,7.659-3.047c0.014,0,0.028,0,0.043,0c6.191,0,11.24,5.025,11.264,11.221
			c0.003,0.897-0.103,1.79-0.309,2.657c0.53,0.261,1.068,0.51,1.611,0.74c0.009,0.004,0.018,0.01,0.026,0.016
			c1.042,0.442,2.105,0.879,3.134,1.302c0.911,0.374,1.821,0.749,2.729,1.131c1.464,0.611,2.933,1.263,4.369,1.938
			c1.425,0.678,2.848,1.4,4.231,2.15c0.001,0,0.002,0,0.003,0c0.014,0,0.027,0.003,0.038,0.009
			c13.155,7.139,27.625,16.724,37.803,25.038c0.002,0,0.003,0,0.005,0c0.047,0,0.108,0.064,0.275,0.24
			c0.063,0.065,0.124,0.13,0.157,0.162c0.047,0.046,0.095,0.091,0.143,0.136c0.061,0.058,0.122,0.115,0.182,0.174
			c0.232,0.229,0.428,0.448,0.599,0.667c0.411,0.527,0.578,1.039,0.557,1.711c-0.035,1.118-0.492,1.971-0.976,2.874
			c-0.082,0.152-0.164,0.306-0.244,0.461l-0.15,0.27c-0.002,0.003-0.004,0.006-0.005,0.009c-0.086,0.149-0.191,0.22-0.33,0.22
			c-0.047,0-0.099-0.008-0.155-0.025C307.969,83.77,293.629,76.335,288,73.3l-0.524-0.282c-12.504-6.741-13.525-7.292-24.052-17.574
			l-0.086-0.081c-0.282-0.265-0.574-0.518-0.866-0.753c-0.234-0.188-0.476-0.356-0.719-0.525c-1.089,0.903-2.332,1.582-3.66,2.019
			c-0.011,0.01-0.02,0.023-0.036,0.027c-0.033,0.009-3.335,0.95-6.951,6.335c-3.009,4.686-3.508,5.74-3.514,5.75
			c-0.004,0.009-0.009,0.016-0.016,0.024c-0.097,0.111-0.891,0.987-1.521,0.987c-0.033,0-0.066-0.002-0.098-0.008l-23.762,42.613
			c0.017,0.053,0.018,0.098,0.027,0.148c0.02,0.018,0.033,0.042,0.033,0.071l0.031,1.762c0,0.014-0.002,0.028-0.008,0.041
			l-1.209,2.86l4.753,2.646c0.018,0.01,0.032,0.025,0.041,0.043l0.595,1.224c0.014,0.029,0.014,0.064-0.002,0.092l-0.186,0.333
			c0.002,0.001,0.004,0.001,0.006,0.001c0.002,0,0.004,0,0.006,0c0.003,0,0.006,0,0.009,0.002l19.77,11.004
			c0.007,0.004,0.008,0.012,0.013,0.017l0.612-1.099l0,0c0.255-0.441,0.712-0.686,1.179-0.686c0.219,0,0.44,0.054,0.643,0.167
			l26.481,14.738c1.778,0.99,2.419,3.241,1.43,5.019l-2.378,4.273c-0.68,1.177-1.929,1.84-3.209,1.84
			c-0.606,0-1.219-0.149-1.781-0.461l-26.481-14.739c-0.645-0.359-0.878-1.177-0.519-1.822l0.742-1.333
			c-0.002-0.001-0.004-0.001-0.006-0.001c-0.002,0-0.004,0-0.006,0c-0.003,0-0.006,0-0.009-0.002l-19.77-11.004
			c-0.007-0.004-0.008-0.011-0.013-0.016l-0.295,0.53l-0.001,0.001c-0.014,0.024-0.038,0.041-0.065,0.048l-1.054,0.226
			c-0.007,0.002-0.014,0.002-0.021,0.002c-0.017,0-0.034-0.004-0.049-0.013l-4.125-2.296l-2.972,7.033
			c0.649-0.264,1.109-0.877,1.363-1.317l0,0c0.183-0.317,0.277-0.563,0.277-0.566c0.01-0.025,0.031-0.047,0.057-0.058
			c0.012-0.005,0.024-0.007,0.037-0.007c0.015,0,0.03,0.003,0.044,0.01l1.93,0.951c0.021,0.01,0.038,0.028,0.048,0.05
			c0.027,0.062,0.542,1.295,0.358,2.319c0.019,0.023,0.031,0.052,0.024,0.083l-3.419,14.776c-0.001,0.007-0.196,1.178,1.085,2.795
			c0.383,0.483,1.376,1.696,2.635,3.231c3.123,3.812,7.843,9.572,8.959,11.177c1.35,1.788,3.423,2.384,3.904,2.445
			c0.416,0.053,6.102,1.299,8.528,1.832c0.479,0.105,0.931,0.295,1.344,0.564l1.806,1.176c0.006,0.004,0.006,0.011,0.011,0.016
			c0.011,0.01,0.019,0.021,0.024,0.035c0.003,0.009,0.004,0.017,0.005,0.026c0.001,0.007,0.005,0.014,0.004,0.022l-0.308,2.053
			c-0.004,0.027-0.019,0.052-0.042,0.067c-0.017,0.012-0.037,0.018-0.057,0.018c-0.007,0-0.014-0.001-0.021-0.002
			c-0.016-0.003-0.143-0.029-0.331-0.029c-0.274,0-0.678,0.054-1.061,0.307l19.878,2.156c0.023-0.002,0.044-0.013,0.067-0.013
			c0.001,0,0.002,0,0.003,0c0.023,0.001,0.042,0.013,0.058,0.027l0.037,0.004c0.011,0.001,0.023,0.004,0.033,0.01l1.61,0.797
			c0.076,0.027,0.15,0.072,0.221,0.138l49.446,0.302c0.001-0.02,0.002-0.053,0.003-0.062c0.001-0.01,0.002-0.019,0.005-0.028
			c0.012-0.034,0.294-0.839,1.536-0.868c1.17-0.027,6.733-0.331,6.788-0.334c0.058-0.002,5.217-0.182,8.756-2.878
			c0.577-0.586,1.216-1.12,1.924-1.579c0.617-0.4,1.275-0.734,1.951-1.007c-0.085-0.598-0.186-1.194-0.305-1.783
			c-0.002-0.011-0.003-0.021-0.001-0.031c-0.224-1.117-0.464-2.25-0.697-3.345c-0.205-0.966-0.41-1.931-0.607-2.899
			c-0.001-0.008-0.002-0.017-0.002-0.026c-0.319-1.527-0.61-3.113-0.865-4.691c-0.001-0.003-0.001-0.006-0.002-0.008
			c-0.245-1.561-0.452-3.15-0.615-4.725c-0.009-0.012-0.015-0.026-0.016-0.041c-1.518-14.743-0.657-29.331,0.394-41.673
			c-0.031-0.037-0.013-0.12,0.039-0.366c0.019-0.089,0.037-0.177,0.045-0.222l0.03-0.185c0.014-0.087,0.027-0.173,0.043-0.26
			c0.058-0.322,0.128-0.607,0.212-0.872c0.203-0.638,0.53-1.064,1.096-1.423c0.941-0.598,1.902-0.696,2.919-0.8
			c0.172-0.018,0.345-0.035,0.518-0.055l0.308-0.026c0.021-0.002,0.04-0.003,0.059-0.003c0.199,0,0.318,0.093,0.384,0.296
			c3.021,9.576,4.068,19.504,5.08,29.106l0.182,1.72c1.501,14.191,1.623,15.35-0.909,29.879l-0.019,0.117
			c-0.059,0.382-0.103,0.767-0.132,1.143c-0.017,0.219-0.014,0.434-0.02,0.65c2.718,0.844,5.362,2.748,6.762,4.886
			c1.675,2.559,2.251,5.61,1.623,8.593c-0.252,1.193-0.684,2.317-1.276,3.343c-0.884,1.532-2.126,2.844-3.654,3.835
			c-0.616,0.4-1.271,0.738-1.944,1.01c0.071,0.628,0.159,1.254,0.269,1.874c0.002,0.011,0.002,0.021,0.001,0.032
			c0.193,1.094,0.402,2.204,0.604,3.279c0.18,0.954,0.359,1.908,0.531,2.864c0.279,1.533,0.529,3.095,0.742,4.645
			c0.203,1.533,0.369,3.095,0.492,4.644c0.008,0.012,0.014,0.026,0.015,0.04c1.162,14.82,1.025,29.963-0.386,42.661
			c0.03,0.037,0.01,0.119-0.048,0.36c-0.021,0.087-0.041,0.172-0.05,0.216l-0.034,0.179c-0.016,0.085-0.031,0.17-0.049,0.255
			c-0.065,0.312-0.14,0.59-0.232,0.851c-0.063,0.18-0.135,0.342-0.221,0.49c-0.21,0.363-0.496,0.641-0.901,0.884
			c-0.948,0.568-1.903,0.645-2.914,0.726c-0.17,0.014-0.341,0.027-0.514,0.044l-0.306,0.02c-0.016,0.001-0.031,0.001-0.046,0.001
			c-0.204,0-0.325-0.093-0.386-0.298c-3.472-11.905-4.9-24.887-5.443-31.565l-0.047-0.584c-1.132-13.932-1.224-15.07,1.649-29.256
			l0.021-0.114c0.068-0.374,0.122-0.75,0.159-1.117c0.023-0.218,0.025-0.432,0.037-0.647c-1.862-0.465-3.547-1.381-4.938-2.646
			c-0.001,0.002,0.002,0.005,0.001,0.008c-0.004,0.008-0.01,0.015-0.017,0.022c-0.019,0.019-0.044,0.028-0.069,0.028
			c-0.026,0-0.052-0.01-0.071-0.03c-0.024-0.025-2.487-2.497-9.049-3.08c-4.109-0.281-5.852-0.32-6.5-0.32
			c-0.242,0-0.331,0.005-0.334,0.006c-0.003,0-0.005,0-0.008,0c-0.007,0-0.013-0.001-0.02-0.002
			c-0.154-0.034-1.442-0.34-1.666-0.959l-49.535-0.304c-0.042,0.044-0.085,0.069-0.127,0.103c-0.002,0.007,0.004,0.015,0,0.021
			c-0.009,0.015-0.021,0.027-0.037,0.037l-1.55,0.887c-0.012,0.007-0.025,0.011-0.039,0.012l-4.26,0.438
			c-0.002,0.004-0.005,0.009-0.006,0.01c-0.019,0.029-0.051,0.045-0.083,0.045c-0.019,0-0.037-0.005-0.054-0.016
			c-0.009-0.006-0.009-0.015-0.016-0.023l-15.908,1.635c0.433,0.257,0.988,0.331,1.483,0.331c0.66,0,1.214-0.132,1.226-0.135
			c0.008-0.002,0.016-0.003,0.023-0.003c0.019,0,0.038,0.005,0.054,0.016c0.023,0.015,0.039,0.039,0.044,0.065l0.352,1.865
			c0.004,0.024,0,0.048-0.012,0.068c-0.01,0.018-0.027,0.033-0.047,0.042c-0.038,0.016-0.433,0.178-0.977,0.282l-3.885,1.193
			c0,0-0.968,0.415-1.249,1.107c-0.105,0.26-0.1,0.531,0.016,0.804c0.063,0.148,0.124,0.29,0.184,0.428
			c0.435,1.003,0.771,1.809,0.716,2.837c0.138,0.873,0.077,1.933,0.065,2.113c-0.006,0.046-0.594,4.016-5.736,12.923
			c-0.23,0.399-5.665,9.784-8.053,11.58c-1.23,0.925-1.995,1.166-2.467,1.166c-0.022,0-0.043-0.001-0.064-0.002
			c-0.013,0.03-0.034,0.055-0.068,0.061c-0.122,0.023-0.24,0.031-0.363,0.031c-0.12,0-0.246-0.007-0.386-0.016
			c-0.175-0.01-0.368-0.022-0.598-0.022c-0.291,0-0.64,0.018-1.084,0.079c-0.324,0.045-0.559,0.18-0.699,0.403
			c-0.322,0.503-0.067,1.287-0.065,1.296l0.974,3.955c0.19,0.518,0.253,0.94,0.259,0.98c0.003,0.023-0.002,0.045-0.012,0.063
			c-0.011,0.02-0.029,0.035-0.052,0.044l-1.781,0.655c-0.011,0.004-0.022,0.006-0.034,0.006c-0.015,0-0.031-0.004-0.045-0.011
			c-0.025-0.012-0.043-0.034-0.051-0.06c-0.006-0.022-0.526-1.664-1.559-2.223l6.766,14.488c0.002,0,0.004,0,0.005,0
			c0.004,0,0.007,0,0.011,0c0.004,0,0.007,0,0.011,0.002c0.049,0.024,0.07,0.084,0.046,0.133c0,0.001-0.004,0.007-0.005,0.01
			l1.812,3.881c0.006,0.013,0.009,0.026,0.009,0.04l0.035,1.785c0,0.019-0.004,0.036-0.013,0.052
			c-0.003,0.006-0.013,0.005-0.017,0.01c-0.007,0.054-0.006,0.103-0.023,0.162l25.7,42.347c0.04-0.008,0.082-0.012,0.124-0.012
			c0.635,0,1.454,0.841,1.555,0.949c0.006,0.007,0.012,0.014,0.016,0.023c0.005,0.01,0.551,1.061,3.781,5.705
			c3.869,5.33,7.254,6.173,7.288,6.181c0.049,0.011,0.077,0.059,0.072,0.108c1.532,0.474,3.037,1.232,4.288,2.204
			c0.174-0.129,0.352-0.249,0.522-0.388c0.292-0.238,0.582-0.494,0.862-0.762l0.086-0.083
			c10.472-10.383,11.493-10.945,23.992-17.825l1.513-0.833c8.458-4.659,17.204-9.477,26.789-12.473
			c0.059-0.018,0.112-0.027,0.161-0.027c0.14,0,0.246,0.072,0.333,0.223l0.153,0.265c0.084,0.157,0.168,0.309,0.253,0.46
			c0.496,0.893,0.965,1.737,1.012,2.851c0.022,0.529-0.074,0.96-0.316,1.379c-0.065,0.112-0.139,0.223-0.225,0.335
			c-0.169,0.221-0.364,0.441-0.595,0.673c-0.061,0.062-0.124,0.122-0.187,0.182l-0.136,0.131c-0.032,0.032-0.093,0.096-0.154,0.162
			c-0.17,0.181-0.229,0.245-0.275,0.245c-0.002,0-0.004,0-0.005,0c-9.527,7.919-21.003,16.965-33.966,24.146
			c-0.015,0.008-0.031,0.012-0.048,0.012c-1.384,0.766-2.805,1.504-4.224,2.194c-1.435,0.691-2.906,1.359-4.372,1.988
			c-0.911,0.394-1.824,0.78-2.737,1.165c-1.03,0.434-2.094,0.884-3.136,1.338c-0.007,0.006-0.015,0.011-0.024,0.015
			c-0.552,0.24-1.099,0.498-1.637,0.77c0.163,0.712,0.265,1.442,0.289,2.175c0.071,2.148-0.452,4.223-1.499,6.036
			c-0.435,0.754-0.961,1.462-1.572,2.113c-2.087,2.221-4.921,3.493-7.978,3.581c-0.111,0.003-0.222,0.005-0.333,0.005
			c-2.781,0-5.448-1.001-7.55-2.837c-0.17,0.132-0.344,0.257-0.51,0.4c-0.279,0.24-0.557,0.499-0.826,0.77l-0.082,0.083
			c-9.995,10.466-10.982,11.041-23.059,18.076l-0.508,0.296c-5.789,3.373-17.257,9.623-29.008,13.579
			c-0.06,0.02-0.115,0.03-0.166,0.03c-0.134,0-0.238-0.07-0.326-0.215l-0.157-0.26c-0.087-0.153-0.174-0.302-0.26-0.45
			c-0.511-0.876-0.993-1.703-1.069-2.804c-0.046-0.663,0.101-1.174,0.485-1.706c0.161-0.223,0.346-0.444,0.566-0.677
			c0.06-0.064,0.121-0.126,0.183-0.188l0.125-0.128c0.031-0.032,0.089-0.098,0.149-0.165c0.16-0.181,0.217-0.245,0.264-0.245
			c0.001,0,0.002,0,0.003,0c9.611-8.416,21.957-17.186,34.781-24.706c0.015-0.008,0.031-0.013,0.048-0.013
			c1.335-0.781,2.709-1.537,4.084-2.247c1.398-0.714,2.823-1.402,4.235-2.047c0.882-0.406,1.766-0.803,2.65-1.2
			c0.999-0.449,2.032-0.914,3.043-1.382c0.007-0.007,0.015-0.012,0.024-0.016c0.572-0.264,1.136-0.55,1.691-0.85
			c-0.162-0.708-0.258-1.439-0.282-2.173c-0.026-0.77,0.026-1.53,0.15-2.272c0.983-4.681-1.855-9.821-1.884-9.873
			c-0.028-0.052-2.624-4.98-3.201-5.998c-0.612-1.079-0.066-1.736-0.044-1.763c0.006-0.007,0.014-0.013,0.021-0.018
			c0.007-0.005,0.035-0.023,0.052-0.034l-25.652-42.272c-0.094-0.027-0.171-0.067-0.232-0.119l-1.511-0.972
			c-0.01-0.007-0.019-0.014-0.026-0.024l-0.023-0.03c-0.02-0.007-0.04-0.016-0.052-0.035c-0.013-0.019-0.014-0.045-0.024-0.066
			l-12.054-15.943c-0.028,0.78,0.464,1.323,0.47,1.33c0.019,0.02,0.029,0.047,0.027,0.075c-0.002,0.026-0.014,0.053-0.036,0.07
			l-1.604,1.319c-0.006,0.005-0.014,0.004-0.021,0.008c-0.009,0.004-0.016,0.008-0.025,0.009c-0.004,0.001-0.009,0.001-0.013,0.001
			c-0.01,0-0.019-0.002-0.029-0.005c-0.001,0-0.003-0.001-0.004-0.001c-0.003,0-0.005,0-0.008,0c-0.002,0-0.005,0-0.007-0.001
			l-1.936-0.945c-0.443-0.216-0.838-0.506-1.174-0.863c-1.327-1.409-5.679-6.031-5.951-6.376c-0.3-0.381-1.876-1.853-4.107-2.094
			c-1.945-0.132-9.306-1.223-14.176-1.945c-1.969-0.292-3.525-0.523-4.137-0.603c-0.304-0.04-0.583-0.057-0.838-0.057
			c-1.457,0-2.113,0.558-2.12,0.564l-10.92,10.519c-0.018,0.017-0.04,0.024-0.063,0.024c-0.006,0-0.013-0.001-0.019-0.001
			c-0.785,0.684-2.108,0.875-2.175,0.883c-0.004,0.001-0.009,0.001-0.013,0.001c-0.019,0-0.038-0.005-0.054-0.016l-1.807-1.167
			c-0.023-0.015-0.039-0.04-0.044-0.068c-0.005-0.028,0.003-0.056,0.02-0.078c0.004-0.005,0.962-1.223,0.778-2.38l-4.512,6.168
			l4.089,2.361c0.021,0.012,0.037,0.031,0.045,0.054l0.348,1.02c0.009,0.027,0.006,0.057-0.008,0.082l-0.303,0.525
			c0.002,0.001,0.004,0.001,0.006,0.001c0.002,0,0.003,0,0.005,0c0.003,0,0.006,0,0.009,0.002l19.595,11.313
			c0.007,0.004,0.007,0.012,0.013,0.017l0.763-1.321c0.248-0.43,0.699-0.67,1.163-0.67c0.227,0,0.457,0.058,0.667,0.179
			l26.246,15.153c1.762,1.018,2.368,3.279,1.351,5.041l-2.415,4.184c-0.683,1.183-1.926,1.845-3.202,1.845
			c-0.626,0-1.26-0.159-1.839-0.494l-26.246-15.153c-0.64-0.369-0.86-1.191-0.49-1.83l0.629-1.089
			c-0.002-0.001-0.005-0.001-0.007-0.001c-0.002,0-0.003,0-0.005,0c-0.003,0-0.006,0-0.009-0.002l-19.595-11.313
			c-0.006-0.004-0.007-0.012-0.013-0.016l-0.191,0.331c-0.016,0.028-0.045,0.047-0.078,0.049l-1.356,0.118c-0.003,0-0.006,0-0.009,0
			c-0.017,0-0.035-0.005-0.05-0.013l-4.711-2.72l-1.834,2.506c-0.008,0.011-0.019,0.02-0.031,0.027l-1.528,0.879
			c-0.015,0.009-0.031,0.013-0.047,0.013c-0.01,0-0.02-0.002-0.03-0.005c-0.047,0.017-0.087,0.04-0.141,0.052l-24.362,42.274
			c0.418,0.498,0.039,1.745-0.009,1.892c-0.003,0.009-0.006,0.018-0.013,0.026c-0.005,0.01-0.654,0.979-3.129,5.969
			c-2.762,5.866-1.874,9.183-1.865,9.216c0.004,0.015-0.003,0.029-0.005,0.044c0.307,1.364,0.363,2.781,0.147,4.179
			c0.269,0.121,0.537,0.243,0.819,0.347c0.353,0.131,0.719,0.25,1.091,0.356l0.115,0.032c14.228,3.753,15.225,4.346,27.43,11.613
			l0.512,0.305c5.495,3.271,19.239,11.757,28.163,19.887c0.172,0.158,0.195,0.32,0.078,0.525l-0.154,0.266
			c-0.093,0.151-0.182,0.3-0.271,0.448c-0.527,0.879-1.024,1.709-1.966,2.313c-0.454,0.291-0.881,0.426-1.374,0.426
			c-0.122,0-0.249-0.008-0.381-0.025c-0.276-0.034-0.564-0.09-0.88-0.171c-0.085-0.022-0.17-0.046-0.255-0.07l-0.178-0.05
			c-0.044-0.012-0.13-0.031-0.218-0.051c-0.252-0.056-0.333-0.075-0.352-0.118c-12.359-4.463-28.013-11.956-40.897-19.579
			c-0.014-0.008-0.026-0.021-0.035-0.035c-1.357-0.804-2.706-1.653-4.01-2.522c-1.319-0.887-2.633-1.813-3.907-2.754
			c-0.794-0.583-1.583-1.171-2.371-1.76c-0.893-0.666-1.815-1.355-2.73-2.023c-0.009-0.003-0.018-0.007-0.026-0.013
			c-0.476-0.348-0.965-0.682-1.462-1.003c-0.637,0.621-1.349,1.171-2.121,1.629c-1.798,1.067-3.776,1.575-5.729,1.575
			c-3.849,0-7.603-1.97-9.706-5.514c-1.459-2.458-1.925-5.346-1.319-8.136c-0.196-0.083-0.386-0.174-0.589-0.249
			c-0.344-0.127-0.701-0.243-1.06-0.345l-0.112-0.031c-13.836-3.632-14.805-4.209-26.669-11.266l-0.496-0.295
			c-9.354-5.563-21.012-12.788-28.185-19.325c-0.167-0.155-0.19-0.314-0.075-0.514l0.15-0.259c0.091-0.148,0.178-0.293,0.265-0.437
			c0.514-0.857,0.999-1.666,1.917-2.256c0.443-0.285,0.861-0.417,1.343-0.417c0.118,0,0.24,0.008,0.367,0.023
			c0.268,0.033,0.548,0.087,0.856,0.165c0.085,0.021,0.169,0.045,0.253,0.069l0.168,0.047c0.043,0.011,0.126,0.03,0.212,0.049
			c0.24,0.054,0.322,0.072,0.343,0.115c13.075,4.704,28.983,12.155,40.573,19.005c0.014,0.008,0.026,0.021,0.035,0.034
			c1.318,0.781,2.629,1.605,3.896,2.449c1.289,0.866,2.566,1.766,3.797,2.675c0.775,0.568,1.543,1.141,2.311,1.715
			c0.864,0.645,1.758,1.313,2.645,1.96c0.009,0.003,0.018,0.007,0.025,0.012c0.501,0.366,1.018,0.716,1.544,1.052
			c0.537-0.477,1.123-0.907,1.745-1.276c0.656-0.389,1.341-0.707,2.045-0.953c4.517-1.383,7.605-6.266,7.636-6.315
			c0.032-0.048,3.056-4.629,3.661-5.61c0.485-0.787,1.076-0.889,1.352-0.889c0.09,0,0.146,0.011,0.154,0.013
			c0.009,0.002,0.018,0.005,0.026,0.009c0.008,0.004,0.036,0.019,0.053,0.028l24.32-42.197c-0.021-0.093-0.023-0.178-0.008-0.255
			l0.119-1.765c0.001-0.012,0.004-0.023,0.008-0.034l0.015-0.034c-0.003-0.021-0.005-0.042,0.006-0.062
			c0.003-0.006,0.006-0.012,0.01-0.018c0.012-0.021,0.031-0.039,0.046-0.058l1.272-2.849l-4.145-2.393
			c-0.018-0.01-0.032-0.026-0.041-0.044l-0.523-1.122c-0.014-0.029-0.012-0.064,0.004-0.092l0.204-0.353l-20.199-11.662
			c-0.007-0.004-0.007-0.012-0.013-0.017l-0.763,1.321c-0.248,0.43-0.699,0.67-1.163,0.67c-0.227,0-0.457-0.058-0.668-0.179
			l-25.556-14.755c-1.762-1.017-2.368-3.279-1.351-5.041l2.416-4.184c0.683-1.183,1.926-1.844,3.202-1.844
			c0.626,0,1.259,0.159,1.839,0.494l25.556,14.755c0.64,0.369,0.86,1.19,0.49,1.83l-0.629,1.089
			c0.002,0.001,0.004,0.001,0.007,0.001c0.002,0,0.003,0,0.005,0c0.003,0,0.006,0,0.009,0.002l20.199,11.662l0.267-0.462
			c0.017-0.029,0.047-0.048,0.08-0.05l1.094-0.071c0.002,0,0.004,0,0.007,0c0.017,0,0.034,0.005,0.05,0.013l3.402,1.964l2.876-6.442
			c-0.404,0.265-0.689,0.633-0.863,0.934c-0.133,0.23-0.195,0.402-0.195,0.404c-0.009,0.027-0.031,0.049-0.059,0.06
			c-0.011,0.004-0.023,0.007-0.035,0.007c-0.017,0-0.033-0.004-0.048-0.013l-1.914-1.069c-0.158-0.088-0.275-0.232-0.329-0.406
			c-0.096-0.311-0.363-1.178-0.043-2.053c0.247-0.945,3.327-12.742,3.636-13.929l0.023-0.089c0.307-1.178,0.462-1.77-0.862-3.708
			c-3.824-4.67-10.869-13.367-11.891-14.664c-0.958-1.217-2.404-1.633-2.419-1.637c-0.09-0.021-9.378-2.222-10.379-2.508
			c-1.026-0.293-1.637-0.958-1.662-0.986c-0.014-0.015-0.017-0.035-0.019-0.054c-0.001-0.005-0.007-0.008-0.007-0.013l0.016-2.382
			c0.001-0.034,0.017-0.064,0.046-0.083c0.016-0.01,0.035-0.016,0.054-0.016c0.014,0,0.028,0.003,0.042,0.009
			c0.024,0.011,0.321,0.142,0.689,0.142c0.27,0,0.579-0.07,0.847-0.31l-15.817-1.896c-0.007,0.008-0.008,0.019-0.018,0.024
			c-0.016,0.01-0.035,0.015-0.053,0.015c-0.033,0-0.066-0.017-0.085-0.047c0-0.001-0.005-0.01-0.007-0.012l-4.188-0.502
			c-0.014-0.002-0.027-0.006-0.039-0.013l-1.514-0.902c-0.025-0.015-0.039-0.039-0.045-0.066c-0.038-0.032-0.077-0.055-0.114-0.096
			l-48.783-0.543c-0.012,0.031-0.019,0.064-0.036,0.094c-0.315,0.545-1.479,0.796-1.623,0.825c-0.007,0.001-0.014,0.002-0.02,0.002
			c-0.003,0-0.005,0-0.008,0c-0.004,0-0.184-0.014-0.732-0.014c-0.856,0-2.613,0.034-6.006,0.208
			c-6.467,0.464-8.925,2.862-8.949,2.886c-0.011,0.011-0.027,0.012-0.041,0.017c-1.039,0.935-2.246,1.678-3.571,2.174
			c0.026,0.294,0.052,0.588,0.099,0.885c0.059,0.373,0.134,0.752,0.224,1.126l0.028,0.115c3.695,14.243,3.665,15.403,3.305,29.604
			l-0.043,1.715c-0.24,9.611-0.489,19.55-2.739,29.282c-0.014,0.058-0.033,0.107-0.057,0.149c-0.069,0.12-0.183,0.176-0.354,0.176
			c-0.003,0-0.006,0-0.009,0l-0.306-0.004c-0.178-0.008-0.352-0.013-0.525-0.017c-1.024-0.029-1.991-0.056-2.979-0.581
			c-0.594-0.316-0.955-0.715-1.209-1.334c-0.105-0.256-0.197-0.534-0.282-0.851c-0.023-0.084-0.043-0.169-0.063-0.254l-0.044-0.182
			c-0.012-0.044-0.037-0.129-0.063-0.215c-0.074-0.247-0.095-0.321-0.069-0.364c-2.039-12.182-4.069-26.605-3.736-41.355
			c0.001-0.017,0.005-0.033,0.013-0.047l0,0c0.036-1.566,0.115-3.157,0.235-4.731c0.128-1.588,0.293-3.187,0.488-4.754
			c0.119-0.979,0.246-1.955,0.374-2.931c0.144-1.103,0.293-2.244,0.427-3.367c-0.002-0.01-0.003-0.02-0.001-0.03
			c0.07-0.585,0.122-1.175,0.159-1.766c-0.853-0.251-1.681-0.603-2.459-1.052c-5.379-3.106-7.228-10.008-4.123-15.387
			c1.429-2.476,3.719-4.295,6.449-5.133c-0.023-0.211-0.038-0.422-0.072-0.635c-0.057-0.361-0.13-0.729-0.218-1.094l-0.028-0.112
			c-3.608-13.842-3.58-14.969-3.235-28.769l0.041-1.665c0.23-9.34,0.467-18.998,2.655-28.455c0.054-0.219,0.177-0.317,0.403-0.317
			c0.003,0,0.006,0,0.008,0l0.299,0.003c0.173,0.007,0.343,0.012,0.511,0.017c0.998,0.029,1.941,0.055,2.905,0.567
			c0.58,0.307,0.932,0.695,1.18,1.297c0.104,0.252,0.194,0.523,0.275,0.827c0.022,0.082,0.042,0.164,0.062,0.247l0.044,0.177
			c0.011,0.043,0.036,0.127,0.062,0.212c0.07,0.232,0.084,0.315,0.067,0.352c1.994,11.838,3.979,25.855,3.661,40.187
			c0,0.017-0.005,0.032-0.012,0.046c-0.035,1.523-0.111,3.069-0.227,4.598c-0.124,1.54-0.283,3.094-0.473,4.62
			c-0.116,0.952-0.24,1.902-0.364,2.852c-0.139,1.07-0.284,2.177-0.414,3.267c0.002,0.01,0.003,0.02,0.002,0.03
			c-0.074,0.616-0.126,1.238-0.161,1.861c0.679,0.235,1.341,0.535,1.967,0.896c0.649,0.375,1.245,0.808,1.789,1.284
			c0.003,0.003,0.008,0.001,0.011,0.004c3.415,3.29,9.22,3.592,9.278,3.594c0.058,0.004,5.532,0.398,6.684,0.445
			c1.223,0.05,1.491,0.85,1.502,0.884c0.003,0.009,0.004,0.018,0.005,0.027c0,0.009,0.001,0.041,0.002,0.06l48.701,0.545
			c0.07-0.064,0.143-0.107,0.217-0.132l1.598-0.76c0.011-0.005,0.022-0.008,0.034-0.009l0.037-0.003
			c0.016-0.013,0.034-0.025,0.057-0.025l0.001,0c0.018,0,0.036,0.014,0.054,0.015l19.697-1.799c-0.021-0.016-0.038-0.039-0.06-0.054
			c-0.273-0.179-0.549-0.219-0.742-0.219c-0.155,0-0.257,0.026-0.259,0.027c-0.008,0.002-0.017,0.003-0.025,0.003
			c-0.02,0-0.04-0.006-0.057-0.018c-0.024-0.017-0.04-0.044-0.042-0.073l-0.225-2.614c0-0.005,0.007-0.006,0.007-0.011
			c0.001-0.035,0.014-0.068,0.045-0.085l0.971-0.516c0,0,0,0,0.001,0l0.003-0.002c0.02-0.008,0.299-0.118,0.298-0.95
			c0-0.07-0.005-0.176-0.013-0.319c-0.377-7.538,2.772-14.711,5.479-19.401c0.038-0.076,4.368-8.022,14.392-15.098
			c0.679-0.48,0.669-0.737,0.669-0.739l-0.058-1.112c-0.002-0.037,0.021-0.065,0.05-0.084c0.004-0.002,0.001-0.009,0.005-0.011
			l2.359-1.15c0.014-0.007,0.028-0.01,0.043-0.01c0.014,0,0.028,0.003,0.041,0.009c0.027,0.012,0.047,0.035,0.055,0.063
			c0.001,0.005,0.15,0.503,0.679,0.76c0.024,0.012,0.053,0.014,0.078,0.024l-8.572-17.824c-0.011-0.015-0.033-0.023-0.042-0.04
			c-0.012-0.02-0.012-0.043-0.008-0.065l-0.015-0.031c-0.005-0.011-0.008-0.022-0.01-0.034l-0.168-1.759
			c-0.017-0.077-0.018-0.162,0.001-0.257l-25.478-41.508c-0.017,0.01-0.045,0.026-0.053,0.03c-0.008,0.004-0.017,0.008-0.026,0.01
			c-0.009,0.002-0.077,0.017-0.184,0.017c-0.287,0-0.856-0.107-1.345-0.852c-0.632-0.965-3.781-5.46-3.813-5.505l-0.003-0.005l0,0v0
			c-0.067-0.101-3.278-4.85-7.808-6.099c-0.71-0.227-1.402-0.525-2.068-0.895c-0.632-0.352-1.23-0.765-1.779-1.227
			c-0.517,0.35-1.024,0.714-1.514,1.094c-0.008,0.007-0.017,0.011-0.027,0.015c-0.872,0.673-1.75,1.368-2.599,2.039
			c-0.749,0.592-1.497,1.183-2.25,1.769c-1.21,0.946-2.46,1.879-3.714,2.774c-0.003,0.002-0.005,0.004-0.008,0.006
			c-1.25,0.883-2.54,1.744-3.834,2.559c-0.007,0.014-0.016,0.024-0.028,0.032c-12.134,7.633-25.181,13.127-36.363,17.496
			c-0.015,0.032-0.099,0.063-0.338,0.124c-0.086,0.021-0.169,0.043-0.211,0.055l-0.174,0.053c-0.081,0.025-0.162,0.051-0.244,0.074
			c-0.305,0.087-0.583,0.149-0.851,0.189c-0.153,0.023-0.298,0.035-0.438,0.035c-0.452,0-0.853-0.122-1.281-0.381
			c-0.934-0.564-1.441-1.36-1.978-2.202c-0.09-0.142-0.182-0.285-0.275-0.427l-0.158-0.257c-0.121-0.197-0.103-0.355,0.06-0.516
			c6.988-6.732,15.151-11.895,23.044-16.887l1.419-0.898c11.662-7.381,12.614-7.984,26.345-11.997l0.11-0.033
			c0.356-0.112,0.71-0.237,1.05-0.374c0.2-0.08,0.388-0.176,0.581-0.265c-0.683-2.773-0.297-5.672,1.093-8.17
			c0.029-0.052,0.059-0.105,0.089-0.156c2.078-3.6,5.87-5.628,9.773-5.628c1.852,0,3.729,0.457,5.459,1.42
			c0.785,0.437,1.511,0.967,2.165,1.57c0.488-0.335,0.968-0.682,1.434-1.043c0.008-0.007,0.017-0.011,0.027-0.015
			c0.9-0.696,1.807-1.413,2.684-2.106c0.768-0.607,1.535-1.214,2.308-1.815c0.007-0.006,0.014-0.01,0.022-0.013
			c1.223-0.96,2.511-1.922,3.807-2.847c1.284-0.908,2.611-1.794,3.944-2.635c0.007-0.014,0.017-0.025,0.03-0.033
			c12.485-7.861,25.903-13.526,37.403-18.032c0.012-0.038,0.098-0.064,0.35-0.128c0.087-0.022,0.172-0.044,0.215-0.057l0.165-0.051
			c0.088-0.028,0.176-0.055,0.265-0.08c0.313-0.09,0.599-0.154,0.875-0.195c0.158-0.024,0.308-0.036,0.453-0.036
			c0.462,0,0.873,0.124,1.312,0.389c0.958,0.578,1.478,1.394,2.029,2.258c0.093,0.146,0.186,0.293,0.283,0.439l0.162,0.264
			c0.093,0.152,0.105,0.282,0.033,0.407c-0.023,0.04-0.055,0.08-0.096,0.119c-7.195,6.928-15.594,12.245-23.716,17.387l-1.455,0.921
			c-11.999,7.601-12.979,8.222-27.098,12.367l-0.113,0.035c-0.37,0.117-0.734,0.247-1.08,0.386c-0.279,0.112-0.544,0.241-0.81,0.369
			c0.254,1.391,0.237,2.808-0.032,4.181c0.003,0.015,0.01,0.028,0.006,0.044c-0.008,0.033-0.804,3.373,2.12,9.162
			c2.611,4.918,3.286,5.87,3.293,5.878c0.005,0.008,0.01,0.016,0.013,0.025c0.049,0.139,0.436,1.279,0.121,1.826
			c-0.016,0.027-0.038,0.048-0.057,0.071l25.519,41.579c0.054,0.011,0.094,0.033,0.141,0.049c0.012-0.004,0.024-0.006,0.036-0.006
			c0.015,0,0.029,0.003,0.043,0.011l1.552,0.836c0.012,0.007,0.023,0.016,0.031,0.027l2.593,3.336l0.002,0
			c0.055,0.001,0.098,0.046,0.097,0.101c0,0.007-0.006,0.011-0.008,0.018l9.751,12.541c0.106-0.795-0.613-1.311-0.65-1.337
			c-0.028-0.019-0.044-0.051-0.044-0.085c0.001-0.034,0.019-0.065,0.048-0.082l2.032-1.234l0.001,0l0.003-0.002
			c0.001-0.001,0.002-0.001,0.003-0.001c0.002,0,0.004,0.001,0.005,0.001c0.001,0,0.002,0,0.002,0
			c0.015-0.007,0.031-0.013,0.048-0.013c0.004,0,0.009,0,0.013,0.001c0.037,0.007,0.921,0.19,1.7,0.92
			c0.76,0.712,7.41,7.542,7.485,7.62l0,0l0,0c0.008,0.007,1.107,1.035,2.643,1.232c1.649,0.211,12.731,1.791,18.699,2.673
			c0.287,0.017,0.545,0.026,0.779,0.026c1.667,0,2.089-0.429,2.837-1.191l0.065-0.066c0.864-0.879,9.472-9.649,10.095-10.283
			c0.586-0.715,1.461-0.931,1.773-1.008c0.055-0.014,0.112-0.02,0.168-0.02c0.121,0,0.242,0.032,0.349,0.094l1.901,1.093
			c0.025,0.015,0.043,0.039,0.048,0.068c0.006,0.029-0.001,0.059-0.021,0.081c-0.001,0.001-0.102,0.125-0.22,0.329
			c-0.183,0.317-0.37,0.771-0.388,1.277l4.056-5.786l-3.434-1.912c-0.017-0.01-0.031-0.024-0.04-0.042l-0.502-0.975
			c-0.015-0.03-0.015-0.065,0.002-0.094l0.26-0.466l-20.379-11.343c-0.007-0.004-0.008-0.012-0.013-0.016l-0.612,1.099l-0.01,0.018
			c-0.247,0.427-0.701,0.668-1.165,0.668c-0.22,0-0.443-0.054-0.647-0.168l-25.785-14.351c-1.778-0.99-2.419-3.241-1.43-5.019
			l2.378-4.273c0.68-1.177,1.929-1.84,3.209-1.84c0.606,0,1.219,0.149,1.781,0.462l25.785,14.351
			c0.313,0.174,0.539,0.459,0.637,0.804c0.098,0.344,0.056,0.706-0.118,1.019l-0.742,1.333c0.002,0.001,0.004,0.001,0.006,0.001
			c0.002,0,0.004,0,0.006,0c0.003,0,0.006,0,0.009,0.002l20.379,11.343l0.198-0.356c0.021-0.025,0.044-0.047,0.077-0.05l1.231-0.127
			c0.003,0,0.007-0.001,0.011-0.001c0.017,0,0.034,0.004,0.048,0.012l4.181,2.331l1.794-2.56c0.01-0.025,0.015-0.051,0.028-0.074
			c0.002-0.004,0.004-0.007,0.006-0.01c0.012-0.02,0.032-0.03,0.051-0.038l0.02-0.029c0.007-0.01,0.015-0.018,0.025-0.025
			l1.453-1.009c0.059-0.052,0.133-0.094,0.223-0.124l23.718-42.538c-0.017-0.01-0.044-0.027-0.051-0.031
			c-0.008-0.005-0.015-0.011-0.022-0.018c-0.024-0.026-0.584-0.656-0.021-1.742c0.531-1.024,2.909-5.971,2.933-6.021
			c0.028-0.054,2.633-5.215,1.497-9.803c-0.149-0.729-0.228-1.478-0.231-2.239c-0.003-0.724,0.065-1.447,0.199-2.153
			c-0.559-0.279-1.124-0.543-1.695-0.785c-0.01-0.004-0.018-0.01-0.026-0.016c-1.01-0.428-2.04-0.852-3.037-1.262
			c-0.887-0.365-1.774-0.729-2.658-1.101c-1.42-0.593-2.846-1.226-4.239-1.881c-0.003-0.001-0.005-0.002-0.007-0.003
			c-1.382-0.658-2.765-1.361-4.108-2.09c-0.001,0-0.002,0-0.002,0c-0.015,0-0.028-0.003-0.04-0.009
			c-11.828-6.425-26.39-16.249-37.144-25.053c-0.001,0-0.003,0-0.004,0c-0.046,0-0.106-0.062-0.269-0.234
			c-0.06-0.064-0.12-0.127-0.152-0.158l-0.128-0.122c-0.063-0.06-0.126-0.119-0.188-0.181c-0.226-0.223-0.416-0.436-0.581-0.65
			c-0.399-0.513-0.561-1.012-0.54-1.668c0.035-1.09,0.48-1.921,0.951-2.802c0.08-0.149,0.16-0.298,0.238-0.45l0.146-0.264
			c0.002-0.003,0.004-0.006,0.005-0.009C190.111,4.423,190.214,4.353,190.35,4.353 M190.349,2.353c-0.847,0-1.615,0.454-2.055,1.215
			l-0.168,0.302c-0.01,0.018-0.02,0.036-0.029,0.055c-0.072,0.139-0.145,0.275-0.217,0.411c-0.539,1.007-1.143,2.136-1.193,3.692
			c-0.035,1.117,0.279,2.084,0.96,2.96c0.218,0.282,0.465,0.559,0.754,0.844c0.058,0.058,0.125,0.122,0.193,0.187l0.15,0.142
			l0.077,0.082c0.141,0.149,0.341,0.359,0.614,0.534c10.822,8.841,25.443,18.695,37.303,25.138c0.062,0.034,0.127,0.064,0.195,0.092
			c1.322,0.714,2.683,1.405,4.05,2.055l0,0c0.01,0.005,0.02,0.009,0.03,0.014c1.415,0.665,2.863,1.308,4.305,1.91
			c0.847,0.357,1.702,0.709,2.558,1.06l0.11,0.045c0.96,0.395,1.952,0.803,2.925,1.215c0.031,0.016,0.062,0.03,0.092,0.044
			c0.112,0.047,0.224,0.096,0.336,0.145c-0.023,0.324-0.033,0.648-0.032,0.971c0.003,0.881,0.095,1.767,0.272,2.632
			c0.006,0.027,0.012,0.053,0.018,0.08c0.945,3.812-1.317,8.372-1.34,8.418l-0.064,0.133c-1.492,3.101-2.562,5.296-2.86,5.87
			c-0.489,0.944-0.559,1.868-0.38,2.64l-22.961,41.181l-1.324,0.919c-0.079,0.055-0.158,0.12-0.234,0.19
			c-0.17,0.144-0.316,0.315-0.433,0.509c-0.008,0.013-0.021,0.036-0.029,0.049c-0.018,0.031-0.034,0.06-0.049,0.089l-0.643,0.917
			l-2.605-1.452c-0.298-0.166-0.681-0.266-1.022-0.266c-0.081,0-0.162,0.005-0.243,0.014l-1.204,0.124
			c-0.069,0.007-0.138,0.017-0.206,0.031l-17.57-9.779c0.255-0.669,0.289-1.399,0.09-2.099c-0.246-0.861-0.81-1.572-1.59-2.006
			l-25.784-14.351c-0.839-0.467-1.791-0.714-2.754-0.714c-2.036,0-3.93,1.088-4.941,2.84l-2.394,4.3
			c-0.739,1.327-0.916,2.863-0.499,4.326c0.417,1.463,1.377,2.675,2.704,3.414l25.785,14.351c0.494,0.275,1.054,0.42,1.619,0.42
			c0.955,0,1.857-0.409,2.483-1.1l17.497,9.739c0.039,0.142,0.093,0.281,0.162,0.415l0.499,0.971
			c0.188,0.369,0.484,0.674,0.852,0.878l1.49,0.83l-0.689,0.983l-0.779-0.448c-0.41-0.235-0.875-0.36-1.346-0.36
			c-0.217,0-0.434,0.026-0.645,0.078c-0.442,0.108-1.773,0.434-2.777,1.603c-0.95,0.968-9.196,9.368-10.04,10.227l-0.068,0.069
			c-0.579,0.59-0.579,0.59-1.407,0.59c-0.175,0-0.366-0.006-0.576-0.017c-5.981-0.883-16.987-2.452-18.647-2.665
			c-0.675-0.087-1.296-0.51-1.517-0.697c-0.645-0.663-6.729-6.911-7.499-7.632c-1.159-1.086-2.444-1.377-2.69-1.424
			c-0.124-0.024-0.264-0.037-0.39-0.037c-0.202,0-0.401,0.029-0.595,0.087c-0.172,0.048-0.338,0.119-0.492,0.211l0,0l-0.01,0.006
			c0,0-0.001,0-0.001,0.001l-0.866,0.526l-7.457-9.591c-0.121-0.236-0.285-0.446-0.482-0.62l-2.402-3.089
			c-0.17-0.218-0.414-0.425-0.657-0.557l-1.363-0.735l-24.72-40.278c0.079-0.867-0.151-1.727-0.34-2.263
			c-0.062-0.176-0.162-0.368-0.271-0.52c-0.017-0.025-0.709-1.049-3.154-5.654c-2.432-4.816-1.961-7.647-1.937-7.781
			c0.024-0.107,0.04-0.214,0.047-0.322c0.184-1.027,0.247-2.059,0.189-3.086c0.109-0.038,0.219-0.074,0.329-0.109l0.102-0.031
			c14.363-4.216,15.614-5.008,27.579-12.588l1.455-0.921c8.207-5.195,16.693-10.567,24.034-17.636
			c0.178-0.172,0.325-0.359,0.441-0.56c0.438-0.758,0.416-1.675-0.06-2.451l-0.164-0.267c-0.011-0.018-0.022-0.036-0.034-0.053
			c-0.091-0.137-0.178-0.275-0.265-0.412c-0.621-0.974-1.323-2.076-2.683-2.897c-0.756-0.455-1.522-0.676-2.345-0.676
			c-0.246,0-0.492,0.019-0.753,0.059c-0.362,0.055-0.731,0.137-1.126,0.25c-0.1,0.028-0.204,0.061-0.309,0.094l-0.16,0.049
			l-0.112,0.028c-0.182,0.046-0.466,0.119-0.759,0.271c-11.525,4.52-24.981,10.208-37.572,18.136
			c-0.059,0.037-0.117,0.079-0.173,0.123c-1.319,0.836-2.627,1.712-3.89,2.604c-1.322,0.944-2.606,1.903-3.823,2.856
			c-0.039,0.028-0.077,0.056-0.113,0.085c-0.744,0.578-1.516,1.188-2.288,1.798c-0.845,0.669-1.717,1.359-2.584,2.029
			c-0.044,0.029-0.086,0.06-0.125,0.091c-0.041,0.032-0.082,0.063-0.124,0.095c-0.407-0.291-0.828-0.559-1.263-0.8
			c-1.966-1.094-4.19-1.672-6.432-1.672c-4.736,0-9.144,2.539-11.505,6.628l-0.096,0.17c-1.352,2.43-1.901,5.176-1.604,7.893
			l-0.072,0.022c-13.98,4.086-15.197,4.856-26.833,12.22l-1.419,0.898c-7.978,5.046-16.227,10.263-23.362,17.137
			c-0.848,0.832-0.99,2.006-0.377,3.003l0.158,0.258c0.011,0.018,0.022,0.036,0.034,0.053c0.088,0.133,0.173,0.267,0.258,0.4
			c0.608,0.954,1.297,2.033,2.631,2.84c0.744,0.45,1.502,0.669,2.315,0.669c0.237,0,0.485-0.019,0.736-0.057
			c0.351-0.052,0.713-0.132,1.104-0.244c0.082-0.023,0.171-0.05,0.26-0.078l0.192-0.059l0.114-0.028
			c0.187-0.047,0.465-0.118,0.752-0.269c11.206-4.382,24.287-9.899,36.527-17.598c0.06-0.037,0.118-0.079,0.175-0.124
			c1.273-0.805,2.542-1.655,3.776-2.526l0,0c0.009-0.006,0.018-0.013,0.027-0.019c1.276-0.911,2.545-1.859,3.773-2.818
			c0.751-0.584,1.501-1.177,2.251-1.77c0.826-0.653,1.671-1.321,2.511-1.971c0.043-0.029,0.084-0.059,0.123-0.089
			c0.082-0.063,0.165-0.127,0.251-0.191c0.271,0.178,0.548,0.346,0.83,0.503c0.771,0.429,1.589,0.783,2.431,1.053
			c0.026,0.008,0.052,0.016,0.078,0.023c3.787,1.044,6.65,5.242,6.678,5.284c0.004,0.006,0.008,0.012,0.012,0.017
			c0.006,0.008,0.011,0.016,0.017,0.025c0.031,0.044,3.164,4.516,3.778,5.452c0.543,0.827,1.288,1.393,2.12,1.63l24.662,40.179
			l0.153,1.604c0.009,0.093,0.026,0.191,0.049,0.288c0.043,0.226,0.123,0.443,0.24,0.647c0.022,0.039,0.047,0.078,0.073,0.117
			l7.111,14.787l-0.967,0.471c-0.154,0.075-0.297,0.17-0.425,0.28c-0.494,0.406-0.786,1.047-0.752,1.715l0.014,0.27
			c-9.712,6.922-14.206,14.6-14.751,15.577l-0.001,0c-2.821,4.885-6.096,12.361-5.753,20.319l-0.193,0.102
			c-0.545,0.296-0.916,0.787-1.051,1.364c-0.055,0.213-0.075,0.437-0.057,0.661l0.093,1.08l-16.338,1.492
			c-0.034-0.002-0.068-0.003-0.102-0.003c-0.193,0.004-0.417,0.03-0.652,0.107c-0.121,0.033-0.234,0.076-0.343,0.128l-1.448,0.689
			l-47.139-0.527c-0.579-0.535-1.419-0.938-2.488-0.982c-0.871-0.036-4.569-0.294-6.616-0.441c-0.018-0.001-0.042-0.003-0.06-0.004
			c-0.042-0.002-5.145-0.304-7.981-3.037c-0.055-0.053-0.113-0.102-0.173-0.148c-0.631-0.543-1.308-1.024-2.014-1.432
			c-0.279-0.161-0.566-0.313-0.858-0.454c0.012-0.113,0.024-0.224,0.038-0.333c0.005-0.045,0.009-0.091,0.011-0.139
			c0.121-1.008,0.254-2.028,0.383-3.019l0.016-0.12c0.129-0.986,0.251-1.926,0.366-2.868c0.193-1.549,0.355-3.132,0.482-4.701
			c0.115-1.522,0.192-3.05,0.229-4.555c0.011-0.081,0.016-0.161,0.017-0.239c0.32-14.426-1.664-28.485-3.659-40.351
			c-0.017-0.32-0.099-0.59-0.155-0.776l-0.042-0.141l-0.037-0.151c-0.021-0.087-0.045-0.187-0.072-0.286
			c-0.102-0.383-0.219-0.735-0.357-1.07c-0.423-1.028-1.107-1.781-2.093-2.304c-1.375-0.73-2.654-0.766-3.782-0.799
			c-0.161-0.005-0.321-0.009-0.484-0.016c-0.021-0.001-0.042-0.002-0.063-0.002l-0.299-0.003c-1.182,0-2.103,0.723-2.377,1.841
			c-2.24,9.68-2.48,19.441-2.712,28.881l-0.041,1.665c-0.344,13.768-0.38,15.207,3.299,29.323l0.013,0.054
			c-2.485,1.14-4.557,3.019-5.941,5.416c-1.769,3.064-2.238,6.638-1.32,10.064c0.918,3.426,3.111,6.286,6.175,8.055
			c0.431,0.249,0.877,0.473,1.335,0.672c-0.007,0.059-0.013,0.117-0.02,0.175c-0.005,0.045-0.009,0.091-0.011,0.138
			c-0.13,1.082-0.273,2.178-0.412,3.239c-0.128,0.982-0.257,1.964-0.376,2.949c-0.199,1.591-0.366,3.219-0.496,4.834
			c-0.119,1.56-0.198,3.129-0.237,4.675c-0.009,0.064-0.014,0.127-0.017,0.189c-0.337,14.899,1.69,29.359,3.729,41.565
			c0.016,0.328,0.1,0.609,0.159,0.806l0.045,0.153l0.035,0.144c0.031,0.129,0.052,0.213,0.074,0.296
			c0.106,0.398,0.225,0.756,0.363,1.093c0.426,1.042,1.12,1.808,2.119,2.34c1.402,0.746,2.708,0.783,3.861,0.815
			c0.167,0.005,0.33,0.009,0.497,0.016c0.021,0.001,0.042,0.001,0.063,0.002l0.306,0.004c0.913,0,1.693-0.439,2.118-1.175
			c0.119-0.206,0.209-0.433,0.268-0.676c2.301-9.955,2.552-19.995,2.795-29.705l0.043-1.714c0.36-14.161,0.397-15.641-3.368-30.157
			l-0.021-0.086c-0.026-0.109-0.051-0.22-0.075-0.331c0.917-0.481,1.776-1.07,2.568-1.761c0.083-0.058,0.161-0.121,0.233-0.189
			c0.065-0.058,2.243-1.946,7.712-2.339c3.274-0.168,4.999-0.203,5.863-0.203c0.375,0,0.543,0.007,0.592,0.009
			c0.052,0.005,0.076,0.005,0.118,0.005c0.009,0,0.019,0,0.03,0c0.134,0,0.289-0.016,0.42-0.043
			c0.551-0.111,1.408-0.355,2.112-0.869l47.256,0.526l1.325,0.789c0.237,0.141,0.54,0.245,0.815,0.28l3.832,0.459
			c0.22,0.077,0.454,0.117,0.695,0.117c0.067,0,0.135-0.003,0.201-0.01l12,1.438l-0.007,1.054c-0.001,0.163,0.018,0.325,0.056,0.483
			c0.09,0.421,0.308,0.741,0.483,0.936c0.172,0.19,1.087,1.139,2.599,1.571c0.932,0.267,8.159,1.984,10.397,2.515
			c0.272,0.093,0.957,0.408,1.379,0.944c1.033,1.313,8.03,9.948,11.86,14.627c0.761,1.117,0.749,1.166,0.53,2.004l-0.022,0.083
			c-0.304,1.168-3.254,12.468-3.616,13.855c-0.498,1.468-0.09,2.788,0.046,3.228c0.208,0.67,0.657,1.224,1.266,1.563l0.78,0.436
			l-0.49,1.097l-1.48-0.854c-0.319-0.184-0.682-0.281-1.05-0.281c-0.042,0-0.09,0.002-0.131,0.004l-1.098,0.071
			c-0.149,0.009-0.294,0.034-0.434,0.073l-17.341-10.012c0.445-1.454-0.153-3.078-1.524-3.87l-25.556-14.755
			c-0.863-0.498-1.845-0.762-2.839-0.762c-2.03,0-3.921,1.09-4.934,2.844l-2.416,4.184c-0.759,1.315-0.96,2.848-0.567,4.317
			c0.394,1.469,1.335,2.697,2.65,3.456l25.556,14.755c0.507,0.293,1.083,0.447,1.668,0.447c1.028,0,1.995-0.477,2.623-1.27
			l17.415,10.055c0.022,0.062,0.047,0.124,0.074,0.184l0.527,1.13c0.183,0.392,0.477,0.713,0.851,0.929l2.586,1.493l-0.456,1.021
			c-0.011,0.018-0.022,0.036-0.033,0.056c-0.009,0.016-0.024,0.042-0.033,0.058c-0.086,0.161-0.172,0.368-0.218,0.615
			c-0.026,0.109-0.042,0.216-0.05,0.325l-0.109,1.621l-23.54,40.844c-0.825,0.258-1.552,0.843-2.075,1.69
			c-0.588,0.954-3.597,5.512-3.627,5.557c-0.01,0.015-0.02,0.031-0.03,0.047c-0.022,0.034-2.769,4.311-6.524,5.46
			c-0.025,0.008-0.051,0.016-0.076,0.025c-0.835,0.293-1.644,0.67-2.404,1.121c-0.277,0.164-0.55,0.34-0.816,0.525
			c-0.092-0.066-0.183-0.131-0.272-0.196c-0.014-0.01-0.028-0.02-0.042-0.03c-0.024-0.016-0.048-0.033-0.074-0.049
			c-0.852-0.622-1.709-1.262-2.538-1.882c-0.781-0.583-1.55-1.158-2.326-1.726c-1.249-0.923-2.551-1.84-3.863-2.722
			c-1.259-0.838-2.552-1.653-3.853-2.426c-0.063-0.047-0.127-0.09-0.193-0.128c-11.607-6.861-27.575-14.347-40.72-19.092
			c-0.292-0.144-0.574-0.207-0.762-0.249l-0.151-0.034l-0.129-0.036c-0.092-0.026-0.194-0.054-0.297-0.081
			c-0.39-0.1-0.753-0.169-1.106-0.212c-0.207-0.025-0.412-0.038-0.608-0.038c-0.862,0-1.655,0.24-2.424,0.734
			c-1.311,0.843-1.969,1.941-2.55,2.909c-0.083,0.138-0.164,0.274-0.25,0.413c-0.011,0.018-0.022,0.036-0.032,0.054l-0.15,0.259
			c-0.585,1.017-0.409,2.185,0.446,2.979c7.321,6.672,19.088,13.967,28.524,19.579l0.496,0.295
			c11.838,7.042,13.075,7.778,27.183,11.482l0.054,0.015c-0.223,2.724,0.401,5.452,1.814,7.832
			c2.376,4.005,6.755,6.493,11.426,6.493c2.371,0,4.705-0.641,6.75-1.855c0.427-0.254,0.841-0.532,1.24-0.834
			c0.048,0.035,0.096,0.069,0.143,0.104c0.037,0.027,0.075,0.053,0.115,0.077c0.834,0.609,1.673,1.236,2.489,1.845l0.136,0.102
			c0.792,0.592,1.585,1.184,2.384,1.77c1.292,0.954,2.631,1.898,3.974,2.801c1.294,0.863,2.626,1.702,3.966,2.499
			c0.063,0.048,0.128,0.091,0.194,0.129c12.891,7.627,28.598,15.153,41.031,19.661c0.298,0.148,0.588,0.213,0.782,0.257l0.149,0.034
			l0.146,0.041c0.096,0.027,0.197,0.055,0.298,0.081c0.396,0.102,0.766,0.173,1.13,0.218c0.213,0.026,0.424,0.04,0.626,0.04
			c0.872,0,1.675-0.243,2.454-0.742c1.337-0.857,2.009-1.979,2.602-2.969c0.087-0.145,0.17-0.283,0.256-0.423
			c0.01-0.017,0.02-0.033,0.03-0.05l0.154-0.266c0.59-1.026,0.411-2.2-0.452-2.997c-9.069-8.261-22.949-16.833-28.497-20.135
			l-0.511-0.305c-12.171-7.247-13.444-8.005-27.943-11.829l-0.093-0.026c-0.105-0.03-0.211-0.062-0.317-0.095
			c0.03-1.035-0.063-2.072-0.278-3.1c-0.01-0.101-0.027-0.201-0.051-0.298c-0.018-0.085-0.599-2.908,1.737-7.868
			c2.291-4.619,2.972-5.693,3-5.737c0.029-0.045,0.059-0.096,0.084-0.144l0,0c0.059-0.11,0.109-0.224,0.146-0.336
			c0.183-0.565,0.383-1.424,0.278-2.278l23.602-40.954l1.337-0.769c0.239-0.137,0.478-0.35,0.642-0.571l0.78-1.066l3.156,1.822
			c0.319,0.184,0.682,0.281,1.05,0.281c0.063,0,0.135-0.003,0.198-0.009l1.34-0.117c0.052-0.005,0.103-0.011,0.154-0.02
			l16.906,9.761c-0.183,0.593-0.196,1.227-0.031,1.842c0.231,0.862,0.783,1.583,1.556,2.029l26.246,15.153
			c0.863,0.498,1.845,0.762,2.839,0.762c2.031,0,3.921-1.09,4.934-2.845l2.415-4.184c0.759-1.315,0.961-2.848,0.567-4.318
			c-0.394-1.469-1.335-2.697-2.65-3.456l-26.246-15.153c-0.507-0.293-1.083-0.447-1.667-0.447c-1.028,0-1.995,0.477-2.623,1.27
			l-16.659-9.618c-0.016-0.077-0.037-0.153-0.062-0.229l-0.353-1.037c-0.176-0.495-0.506-0.891-0.937-1.14l-2.16-1.247l0.585-0.8
			l0.965,0.623c0.339,0.219,0.734,0.336,1.139,0.336c0.09,0,0.193-0.007,0.282-0.019c0.292-0.038,1.733-0.265,2.896-1.101
			c0.174-0.091,0.336-0.208,0.481-0.348l10.776-10.38c0.112-0.049,0.391-0.143,0.876-0.143c0.181,0,0.375,0.013,0.578,0.04
			c0.584,0.077,2.087,0.299,3.99,0.582l0.114,0.017c6.433,0.954,12.366,1.821,14.288,1.959c1.433,0.167,2.519,1.112,2.733,1.358
			c0.071,0.09,0.333,0.424,6.051,6.492c0.503,0.534,1.093,0.968,1.754,1.29l1.934,0.945c0.217,0.106,0.456,0.173,0.697,0.195
			c0.078,0.009,0.155,0.014,0.228,0.014c0.12,0,0.243-0.01,0.371-0.033c0.107-0.019,0.219-0.05,0.328-0.089
			c0.228-0.079,0.446-0.199,0.631-0.351l0.398-0.327l9.8,12.962c0.025,0.045,0.052,0.09,0.081,0.134
			c0.095,0.145,0.234,0.315,0.427,0.472c0.074,0.066,0.152,0.126,0.234,0.181l1.415,0.911l24.843,40.94
			c-0.153,0.762-0.069,1.685,0.479,2.652c0.328,0.578,1.499,2.772,3.132,5.869l0.043,0.082c0.042,0.076,2.511,4.625,1.693,8.523
			c-0.006,0.027-0.011,0.054-0.015,0.082c-0.147,0.879-0.206,1.777-0.177,2.667c0.011,0.33,0.034,0.661,0.07,0.991
			c-0.107,0.051-0.214,0.102-0.319,0.15c-0.016,0.007-0.032,0.015-0.048,0.023c-0.025,0.012-0.05,0.026-0.075,0.04
			c-0.973,0.45-1.964,0.896-2.924,1.327l-0.142,0.064c-0.842,0.379-1.684,0.757-2.523,1.144c-1.436,0.656-2.888,1.357-4.309,2.083
			c-1.366,0.705-2.721,1.449-4.037,2.216c-0.057,0.025-0.111,0.052-0.163,0.081c-12.889,7.557-25.285,16.355-34.963,24.807
			c-0.271,0.186-0.466,0.405-0.603,0.56l-0.037,0.041l-0.071,0.079l-0.098,0.1c-0.066,0.066-0.142,0.143-0.215,0.222
			c-0.275,0.291-0.515,0.579-0.727,0.873c-0.655,0.907-0.936,1.893-0.859,3.015c0.108,1.567,0.76,2.686,1.336,3.673
			c0.083,0.142,0.165,0.282,0.247,0.427c0.01,0.017,0.019,0.034,0.03,0.051l0.157,0.26c0.457,0.752,1.199,1.181,2.038,1.181
			c0.263,0,0.529-0.044,0.791-0.13c11.933-4.017,23.535-10.339,29.39-13.75l0.507-0.295c12.049-7.02,13.309-7.754,23.499-18.424
			l0.056-0.057c2.203,1.466,4.798,2.26,7.465,2.26c0.13,0,0.26-0.002,0.39-0.006c3.593-0.103,6.923-1.599,9.378-4.21
			c0.711-0.756,1.332-1.592,1.847-2.483c1.238-2.145,1.849-4.601,1.766-7.103c-0.01-0.314-0.033-0.631-0.067-0.95
			c0.072-0.032,0.143-0.063,0.214-0.094c0.016-0.007,0.031-0.014,0.047-0.021c0.025-0.012,0.05-0.024,0.075-0.037
			c1.004-0.436,2.027-0.868,3.017-1.286c0.919-0.388,1.837-0.776,2.753-1.172c1.491-0.639,2.989-1.32,4.445-2.022
			c1.404-0.683,2.806-1.41,4.179-2.166c0.067-0.028,0.132-0.059,0.192-0.092c13.061-7.236,24.563-16.29,34.108-24.218
			c0.276-0.177,0.479-0.393,0.631-0.555l0.106-0.112l0.115-0.11c0.09-0.086,0.155-0.149,0.218-0.213
			c0.288-0.288,0.539-0.573,0.763-0.865c0.141-0.184,0.262-0.364,0.37-0.551c0.43-0.745,0.62-1.55,0.582-2.462
			c-0.067-1.588-0.702-2.731-1.262-3.739c-0.079-0.143-0.159-0.286-0.239-0.435c-0.01-0.018-0.02-0.036-0.03-0.054l-0.153-0.265
			c-0.444-0.766-1.215-1.223-2.065-1.223c-0.246,0-0.497,0.038-0.744,0.114c-9.792,3.06-18.627,7.928-27.171,12.635l-1.512,0.833
			c-12.462,6.86-13.765,7.577-24.436,18.157l-0.061,0.058c-0.035,0.033-0.069,0.066-0.104,0.099
			c-0.962-0.588-2.011-1.081-3.107-1.459c-0.194-0.131-0.412-0.232-0.649-0.293c-0.135-0.041-2.921-0.943-6.171-5.42
			c-3.004-4.319-3.607-5.42-3.631-5.465c-0.086-0.173-0.191-0.312-0.322-0.453c-0.391-0.416-1.06-1.025-1.883-1.353l-24.91-41.045
			l-0.03-1.569c-0.005-0.268-0.073-0.572-0.182-0.817l-1.679-3.596c-0.066-0.283-0.191-0.551-0.367-0.786l-4.533-9.708l0.268-0.099
			c0.473-0.181,0.852-0.504,1.093-0.92c0.234-0.404,0.327-0.882,0.261-1.344c-0.013-0.096-0.093-0.62-0.321-1.276l-0.776-3.15
			c0.075,0.003,0.145,0.008,0.211,0.012c0.182,0.011,0.347,0.019,0.504,0.019c0.259,0,0.499-0.021,0.732-0.065
			c0.077-0.014,0.153-0.033,0.227-0.055c0.951-0.122,1.984-0.619,3.206-1.538c2.544-1.913,7.213-9.805,8.584-12.179
			c5.341-9.25,5.962-13.478,5.986-13.654c0.006-0.046,0.011-0.093,0.014-0.14c0.02-0.313,0.073-1.36-0.056-2.35
			c0.023-1.292-0.374-2.331-0.769-3.253l3.471-1.066c0.651-0.134,1.126-0.323,1.261-0.38c0.432-0.187,0.781-0.499,1.004-0.886
			c0.25-0.432,0.337-0.94,0.246-1.432l-0.055-0.289l10.657-1.095c0.074,0.008,0.15,0.012,0.225,0.012
			c0.224,0,0.442-0.035,0.648-0.102l3.906-0.401c0.277-0.029,0.585-0.127,0.827-0.265l1.363-0.781l48.009,0.295
			c0.691,0.528,1.543,0.791,2.122,0.918c0.141,0.031,0.304,0.049,0.448,0.049c0.035,0,0.074-0.001,0.112-0.003
			c0.026-0.001,0.096-0.003,0.23-0.003c0.528,0,2.206,0.031,6.364,0.315c5.484,0.488,7.685,2.422,7.783,2.51
			c0.206,0.202,0.451,0.359,0.717,0.462c1.088,0.895,2.312,1.616,3.618,2.132c0,0.001,0,0.002-0.001,0.003l-0.02,0.107
			c-2.923,14.432-2.805,15.884-1.677,29.783l0.047,0.584c0.549,6.756,1.995,19.891,5.516,31.964c0.32,1.063,1.224,1.738,2.306,1.738
			c0.042,0,0.13-0.003,0.172-0.005l0.309-0.02c0.021-0.001,0.042-0.003,0.062-0.005c0.129-0.012,0.259-0.023,0.387-0.033
			l0.101-0.008c1.135-0.091,2.427-0.195,3.777-1.003c0.702-0.421,1.228-0.944,1.606-1.6c0.149-0.258,0.273-0.531,0.378-0.833
			c0.119-0.341,0.218-0.702,0.301-1.102c0.02-0.095,0.04-0.199,0.059-0.303l0.031-0.166l0.029-0.118
			c0.046-0.191,0.115-0.475,0.114-0.803c1.404-12.779,1.536-27.984,0.371-42.844c-0.006-0.07-0.015-0.142-0.029-0.213
			c-0.124-1.526-0.288-3.065-0.489-4.577c-0.218-1.587-0.472-3.179-0.757-4.741c-0.172-0.956-0.352-1.915-0.533-2.875l-0.015-0.077
			c-0.19-1.009-0.386-2.049-0.568-3.077c-0.006-0.054-0.013-0.108-0.023-0.159c-0.019-0.106-0.037-0.214-0.055-0.324
			c0.291-0.16,0.576-0.33,0.853-0.509c1.77-1.148,3.256-2.708,4.298-4.513c0.703-1.217,1.208-2.539,1.501-3.93
			c0.739-3.507,0.062-7.095-1.906-10.102c-1.39-2.123-3.73-4.003-6.328-5.136c0.007-0.048,0.014-0.096,0.021-0.144l0.017-0.106
			c2.576-14.778,2.419-16.257,0.923-30.405l-0.182-1.72c-1.023-9.702-2.08-19.731-5.162-29.497
			c-0.335-1.035-1.233-1.694-2.291-1.694c-0.071,0-0.145,0.003-0.223,0.009l-0.316,0.027c-0.02,0.002-0.039,0.004-0.059,0.006
			c-0.165,0.019-0.329,0.036-0.492,0.053c-1.147,0.117-2.447,0.249-3.788,1.101c-0.955,0.606-1.587,1.426-1.93,2.506
			c-0.111,0.348-0.2,0.715-0.274,1.122c-0.017,0.092-0.032,0.188-0.047,0.284l-0.032,0.2l-0.024,0.11
			c-0.042,0.197-0.103,0.485-0.094,0.813c-1.049,12.368-1.905,26.993-0.375,41.859c0.007,0.07,0.019,0.141,0.034,0.212
			c0.165,1.558,0.37,3.125,0.611,4.66c0.002,0.014,0.005,0.028,0.007,0.042c0.257,1.59,0.546,3.157,0.858,4.661
			c0.002,0.014,0.004,0.027,0.006,0.041c0.004,0.024,0.008,0.047,0.013,0.071c0.198,0.972,0.404,1.941,0.61,2.911
			c0.229,1.081,0.458,2.16,0.672,3.224c0.005,0.038,0.011,0.076,0.018,0.112c0.017,0.084,0.033,0.168,0.05,0.252
			c-0.282,0.154-0.555,0.317-0.818,0.488c-0.758,0.492-1.481,1.077-2.151,1.743c-2.99,2.205-7.463,2.391-7.509,2.393l-0.162,0.008
			c-3.535,0.191-5.943,0.309-6.606,0.325c-1.112,0.026-1.948,0.427-2.523,0.95l-47.887-0.292l-1.476-0.731l0,0
			c-0.087-0.043-0.18-0.08-0.276-0.112c-0.204-0.078-0.42-0.124-0.642-0.135c-0.033-0.002-0.068-0.002-0.1-0.002
			c-0.022,0-0.045,0-0.069,0.001l-16.155-1.752l0.076-0.509c0.035-0.234,0.027-0.48-0.021-0.714
			c-0.022-0.114-0.054-0.229-0.092-0.331c-0.078-0.215-0.197-0.42-0.351-0.604c-0.13-0.16-0.284-0.301-0.454-0.414l-1.817-1.184
			c-0.617-0.401-1.292-0.684-2.005-0.841c-8.15-1.792-8.553-1.843-8.705-1.863c-0.295-0.053-1.663-0.499-2.54-1.64
			c-1.207-1.722-5.909-7.46-9.029-11.267c-1.199-1.462-2.234-2.725-2.613-3.205c-0.531-0.67-0.637-1.135-0.659-1.299l3.374-14.579
			c0.046-0.2,0.063-0.403,0.051-0.602c0.116-1.422-0.426-2.769-0.545-3.045c-0.189-0.449-0.547-0.827-0.999-1.05l-1.03-0.508
			l0.386-0.914l2.178,1.212c0.31,0.173,0.664,0.265,1.021,0.265c0.143,0,0.306-0.018,0.445-0.048l1.049-0.225
			c0.083-0.019,0.164-0.042,0.243-0.069l16.81,9.356c-0.58,1.524,0.032,3.287,1.497,4.104l26.482,14.739
			c0.839,0.467,1.792,0.714,2.754,0.714c2.036,0,3.93-1.088,4.941-2.84l2.394-4.3c1.526-2.742,0.537-6.213-2.204-7.739
			l-26.481-14.738c-0.494-0.275-1.052-0.419-1.616-0.419c-0.952,0-1.853,0.409-2.484,1.101l-17.061-9.496
			c-0.02-0.05-0.041-0.099-0.065-0.147l-0.593-1.22c-0.191-0.392-0.493-0.71-0.874-0.92l-3.177-1.769l0.51-1.207
			c0.111-0.262,0.172-0.586,0.165-0.871l-0.027-1.525l23.022-41.286c0.794-0.353,1.429-0.97,1.799-1.393
			c0.015-0.018,0.031-0.036,0.046-0.054c0.085-0.104,0.165-0.226,0.232-0.352l0.001,0c0.01-0.019,0.021-0.04,0.03-0.059
			c0.022-0.045,0.572-1.144,3.399-5.546c3.023-4.5,5.733-5.463,5.837-5.498c0.105-0.031,0.205-0.07,0.302-0.116
			c0.986-0.343,1.917-0.793,2.784-1.347c0.086,0.077,0.171,0.155,0.255,0.234l0.079,0.075c10.707,10.458,12.011,11.161,24.48,17.883
			l0.524,0.283c5.681,3.063,20.164,10.571,31.9,14.107c0.255,0.074,0.496,0.11,0.732,0.11c0.85,0,1.621-0.456,2.062-1.22
			l0.171-0.308c0.01-0.018,0.019-0.035,0.029-0.053c0.074-0.143,0.15-0.285,0.226-0.426c0.55-1.026,1.167-2.178,1.216-3.765
			c0.034-1.133-0.286-2.115-0.979-3.004c-0.224-0.288-0.476-0.569-0.768-0.859c-0.076-0.074-0.145-0.14-0.215-0.206l-0.127-0.121
			l-0.068-0.072l-0.035-0.036c-0.15-0.158-0.354-0.372-0.634-0.547c-10.255-8.351-24.769-17.956-37.939-25.104
			c-0.062-0.034-0.128-0.065-0.195-0.092c-1.361-0.734-2.764-1.446-4.172-2.115c-1.474-0.693-2.971-1.357-4.457-1.977
			c-0.903-0.38-1.814-0.755-2.725-1.129c-1.012-0.416-2.034-0.836-3.036-1.26c-0.034-0.017-0.068-0.033-0.102-0.048
			c-0.06-0.025-0.119-0.051-0.179-0.077c0.055-0.497,0.081-0.995,0.08-1.492c-0.028-7.286-5.978-13.214-13.264-13.214
			c-0.003,0-0.048,0-0.05,0c-2.768,0.01-5.428,0.876-7.652,2.466l-0.059-0.057c-10.405-10.187-11.672-10.87-23.794-17.411
			l-0.508-0.274c-9.661-5.214-21.965-11.566-31.429-14.415C190.826,2.388,190.586,2.353,190.349,2.353L190.349,2.353z"/>
	</g>
	<path class="st2" d="M230.444,202.366l-6.996,12.117c-2.175,3.768-7.01,5.063-10.778,2.888l-15.897-9.178
		c-4.473-2.582-6.011-8.322-3.429-12.795l5.519-9.559c2.582-4.473,8.323-6.011,12.796-3.429l15.897,9.178
		C231.324,193.764,232.62,198.598,230.444,202.366z"/>
	<path class="st3" d="M130.459,152.831c1.725-3.017,5.929-10.371,11.662-11.346c5.733-0.976,27.13,5.836,31.335,7.24
		c4.206,1.404,15.214,5.362,26.717,10.354c11.503,4.992,20.867,9.928,24.336,13.496s5.448,15.29,5.556,17.437
		c0.108,2.147-1.114,1.365-1.114,1.365l-8.232-4.873c-1.636-0.935-4.673-2.338-4.988-4.853s-1.178-6.845-2.383-9.702
		s-7.448-6.044-7.448-6.044s-7.848-4.285-20.367-9.106s-33.005-11.441-37.722-10.77c-4.717,0.671-10.108,10.999-10.108,10.999
		l-0.321,0.572c0,0-6.218,9.876-4.421,14.296c1.797,4.419,17.846,18.8,28.325,27.195c10.479,8.395,18.14,13.021,18.14,13.021
		s5.903,3.792,8.982,3.391c3.078-0.4,7.259-1.839,9.593-2.836c2.334-0.997,5.079,0.922,6.712,1.865l8.364,4.661
		c0,0,1.292,0.662-0.619,1.653c-1.912,0.99-13.049,5.196-17.884,3.996c-4.835-1.2-13.824-6.809-23.938-14.239
		c-10.114-7.431-19.086-14.955-22.419-17.885s-20.008-18-22.053-23.452c-2.045-5.452,2.198-12.801,3.939-15.815L130.459,152.831z"/>
</g>
<g id="Layer_1">
	<g>
		<g>
			<line class="st4" x1="191.729" y1="186.733" x2="157.888" y2="167.195"/>
			<g>
				<polygon class="st1" points="168.598,162.688 160.563,168.739 159.34,178.723 144.963,159.733 				"/>
			</g>
		</g>
	</g>
</g>
<g id="Layer_2">
	<g>
		<g>
			<line class="st5" x1="180.311" y1="89.118" x2="180.289" y2="85.174"/>
			<line class="st6" x1="180.248" y1="77.789" x2="179.852" y2="7.637"/>
			<line class="st5" x1="179.831" y1="3.944" x2="179.809" y2="0"/>
		</g>
	</g>
	<g>
		<g>
			<line class="st5" x1="180.551" y1="131.663" x2="180.529" y2="127.719"/>
			<line class="st7" x1="180.501" y1="122.804" x2="180.46" y2="115.431"/>
			<line class="st5" x1="180.446" y1="112.974" x2="180.424" y2="109.029"/>
		</g>
	</g>
	<g>
		<g>
			<line class="st8" x1="181.577" y1="255.181" x2="181.554" y2="251.27"/>
			<line class="st9" x1="181.524" y1="246.045" x2="181.479" y2="238.208"/>
			<line class="st8" x1="181.464" y1="235.596" x2="181.442" y2="231.685"/>
		</g>
	</g>
	<g>
		<g>
			<line class="st8" x1="182.178" y1="360" x2="182.155" y2="356.09"/>
			<line class="st10" x1="182.106" y1="347.547" x2="181.739" y2="283.473"/>
			<line class="st8" x1="181.715" y1="279.201" x2="181.692" y2="275.291"/>
		</g>
	</g>
	<circle class="st11" cx="21.788" cy="179.366" r="12.345"/>
	<circle class="st12" cx="338.212" cy="181.706" r="12.345"/>
</g>
</svg>
