<?xml version="1.0" encoding="utf-8"?>
<!-- Generator: Adobe Illustrator 21.1.0, SVG Export Plug-In . SVG Version: 6.00 Build 0)  -->
<svg version="1.1" xmlns="http://www.w3.org/2000/svg" xmlns:xlink="http://www.w3.org/1999/xlink" x="0px" y="0px"
	 viewBox="0 0 360 360" style="enable-background:new 0 0 360 360;" xml:space="preserve">
<style type="text/css">
	.st0{fill:none;stroke:#888888;stroke-width:1.9757;stroke-linecap:round;stroke-linejoin:round;}
	.st1{fill:none;stroke:#888888;stroke-width:1.9757;stroke-linecap:round;stroke-linejoin:round;stroke-dasharray:5.5081,5.5081;}
	.st2{fill:none;stroke:#888888;stroke-width:1.9548;stroke-linecap:round;stroke-linejoin:round;}
	.st3{fill:none;stroke:#888888;stroke-width:1.9548;stroke-linecap:round;stroke-linejoin:round;stroke-dasharray:5.2587,5.2587;}
	.st4{fill:#FFFFFF;}
	.st5{fill:#231916;}
	.st6{fill:none;stroke:#231916;stroke-miterlimit:10;}
	.st7{fill:none;stroke:#231916;stroke-width:2;stroke-linecap:round;stroke-linejoin:round;}
	.st8{fill:none;stroke:#231916;stroke-width:5;stroke-linecap:round;stroke-linejoin:round;}
	.st9{fill:none;stroke:#888888;stroke-width:1.9757;stroke-linecap:round;stroke-linejoin:round;stroke-dasharray:7.3069,7.3069;}
	.st10{fill:none;stroke:#888888;stroke-width:1.9548;stroke-linecap:round;stroke-linejoin:round;stroke-dasharray:7.0846,7.0846;}
	.st11{fill:#00B550;stroke:#00AF41;stroke-width:2;stroke-miterlimit:10;}
	.st12{fill:#00B550;stroke:#00AF41;stroke-width:1.9528;stroke-miterlimit:10;}
</style>
<g id="Layer_3">
	<g>
		<g>
			<line class="st0" x1="180.319" y1="132.116" x2="180.297" y2="128.165"/>
			<line class="st1" x1="180.266" y1="122.657" x2="180.219" y2="114.395"/>
			<line class="st0" x1="180.204" y1="111.641" x2="180.182" y2="107.69"/>
		</g>
	</g>
	<g>
		<g>
			<line class="st2" x1="181.345" y1="255.335" x2="181.323" y2="251.426"/>
			<line class="st3" x1="181.293" y1="246.167" x2="181.247" y2="238.279"/>
			<line class="st2" x1="181.232" y1="235.65" x2="181.21" y2="231.74"/>
		</g>
	</g>
	<g>
		<path class="st4" d="M192.786,360.362c-0.494,0-0.929-0.263-1.191-0.72l-0.149-0.258l-0.254-0.462
			c-0.52-0.935-1.057-1.901-1.121-3.227c-0.042-0.883,0.185-1.622,0.715-2.326c0.186-0.247,0.399-0.494,0.655-0.756l0.327-0.324
			l0.105-0.115c0.142-0.153,0.288-0.312,0.474-0.422c10.642-8.981,25.067-19.04,36.792-25.65c0.042-0.023,0.089-0.045,0.139-0.063
			c1.314-0.738,2.668-1.453,4.025-2.125c1.396-0.684,2.827-1.347,4.259-1.971c0.832-0.366,1.669-0.727,2.508-1.087l0.139-0.06
			c0.968-0.416,1.968-0.846,2.948-1.279c0.028-0.016,0.057-0.03,0.084-0.042c0.328-0.146,0.653-0.298,0.977-0.456
			c-0.075-0.526-0.115-1.056-0.121-1.58c-0.01-0.819,0.062-1.642,0.215-2.444c0.978-4.247-1.526-9.066-1.552-9.115l-0.081-0.16
			c-1.584-3.162-2.629-5.226-2.944-5.81c-0.535-0.993-0.423-1.787-0.223-2.29l-23.933-41.379c-0.034-0.023-0.068-0.047-0.101-0.072
			l-1.434-0.963c-0.046-0.031-0.097-0.072-0.144-0.116c-0.109-0.086-0.186-0.181-0.236-0.26c-0.021-0.032-0.066-0.119-0.072-0.132
			l-1.237-1.708l-3.365,1.943c-0.152,0.088-0.374,0.146-0.55,0.146c-0.031,0-0.072-0.002-0.104-0.005l-1.225-0.106
			c-0.132-0.012-0.271-0.057-0.399-0.125l-18.645,10.764l0.259,0.448c0.312,0.541,0.395,1.171,0.233,1.775
			c-0.162,0.604-0.549,1.108-1.09,1.421l-25.556,14.755c-0.711,0.41-1.521,0.628-2.339,0.628c-1.674,0-3.233-0.898-4.068-2.345
			l-2.416-4.184c-0.626-1.084-0.791-2.348-0.467-3.56c0.325-1.211,1.101-2.223,2.184-2.848l25.557-14.755
			c0.354-0.205,0.758-0.313,1.167-0.313c0.834,0,1.611,0.448,2.028,1.169l0.126,0.217l18.583-10.729
			c-0.015-0.204,0.019-0.414,0.101-0.579l0.484-0.979c0.09-0.182,0.272-0.374,0.45-0.473l2.427-1.401l-1.893-2.61l-1.555,0.927
			c-0.259,0.156-0.562,0.24-0.87,0.24c-0.127,0-0.254-0.014-0.378-0.042c-0.382-0.087-1.534-0.351-2.347-1.324
			c-0.63-0.615-9.306-9.181-10.18-10.042c-0.734-0.725-0.936-0.924-2.078-0.924c-0.25,0-0.532,0.012-0.853,0.036
			c-5.86,0.965-16.923,2.721-18.577,2.959c-1.185,0.17-2.063,0.995-2.072,1.003l-0.18,0.192c-2.964,3.138-6.615,6.993-7.185,7.544
			c-0.963,0.93-2.053,1.181-2.174,1.206c-0.067,0.015-0.148,0.022-0.218,0.022c-0.062,0-0.133-0.008-0.203-0.021
			c-0.078-0.012-0.154-0.032-0.228-0.062c-0.047-0.019-0.092-0.041-0.136-0.066l-1.68-0.984l-7.871,10.508
			c-0.053,0.137-0.128,0.265-0.216,0.359c-0.043,0.046-0.093,0.089-0.148,0.128l-2.394,3.196c-0.08,0.106-0.211,0.223-0.325,0.29
			c0,0-1.584,0.886-1.599,0.893l-24.406,41.206c0.184,0.757-0.036,1.634-0.208,2.146c-0.034,0.102-0.098,0.223-0.162,0.309l0,0
			c0.002,0-0.701,1.073-3.108,5.785c-2.605,5.366-1.904,8.463-1.896,8.494c0.015,0.06,0.023,0.126,0.026,0.194
			c0.247,1.218,0.309,2.446,0.186,3.663c0.027,0.012,0.056,0.022,0.083,0.033c0.331,0.127,0.671,0.242,1.015,0.344l0.108,0.032
			c14.305,3.955,15.304,4.566,27.53,12.046l1.466,0.896c8.244,5.039,16.769,10.249,24.15,17.135c0.133,0.13,0.223,0.245,0.291,0.368
			c0.244,0.424,0.231,0.938-0.043,1.4l-0.155,0.263l-0.248,0.399c-0.612,0.993-1.206,1.957-2.353,2.674
			c-0.615,0.384-1.211,0.562-1.877,0.562c-0.176,0-0.357-0.013-0.547-0.038c-0.312-0.043-0.641-0.11-1.003-0.207l-0.448-0.129
			l-0.169-0.041c-0.209-0.05-0.421-0.101-0.608-0.21c-11.562-4.325-25.066-9.783-37.717-17.474c-0.04-0.024-0.081-0.055-0.121-0.089
			c-1.326-0.809-2.65-1.665-3.938-2.545c-1.332-0.919-2.646-1.87-3.912-2.828c-0.743-0.558-1.482-1.123-2.222-1.689l-0.135-0.104
			c-0.887-0.678-1.769-1.354-2.646-2.011c-0.049-0.03-0.096-0.063-0.136-0.099c-0.217-0.161-0.457-0.333-0.707-0.508
			c-0.542,0.452-1.119,0.856-1.724,1.205c-1.859,1.073-3.973,1.641-6.113,1.641c-4.38,0-8.456-2.349-10.64-6.13
			c-1.412-2.445-1.931-5.273-1.491-8.045c-0.258-0.095-0.522-0.182-0.79-0.261l-0.105-0.03c-13.915-3.831-14.886-4.425-26.775-11.69
			l-1.421-0.868c-8.014-4.893-16.301-9.951-23.476-16.648c-0.51-0.489-0.601-1.159-0.246-1.757l0.151-0.257l0.28-0.449
			c0.562-0.912,1.142-1.854,2.264-2.556c0.602-0.378,1.189-0.554,1.845-0.554c0.171,0,0.348,0.013,0.532,0.037
			c0.31,0.042,0.631,0.107,0.98,0.201l0.438,0.125l0.166,0.04c0.187,0.045,0.389,0.092,0.574,0.197
			c11.245,4.194,24.384,9.489,36.688,16.963c0.039,0.023,0.078,0.052,0.117,0.084c1.292,0.788,2.58,1.62,3.83,2.474
			c1.294,0.895,2.572,1.817,3.803,2.748c0.708,0.533,1.414,1.073,2.12,1.613l0.172,0.132c0.836,0.64,1.699,1.3,2.556,1.942
			c0.015,0.009,0.029,0.018,0.042,0.026c0.313,0.233,0.616,0.451,0.918,0.658c0.42-0.321,0.861-0.615,1.317-0.879
			c0.663-0.383,1.376-0.707,2.118-0.965c0.062-0.027,0.129-0.049,0.196-0.062c4.095-1.183,7.08-5.751,7.109-5.798
			c0.139-0.203,3.134-4.628,3.726-5.562c0.614-0.969,1.395-1.245,1.889-1.316l24.361-41.125c0.003-0.043,0.007-0.085,0.014-0.126
			l0.137-1.72c0.005-0.061,0.017-0.126,0.034-0.191c0.021-0.126,0.061-0.229,0.099-0.306c0.023-0.047,0.053-0.094,0.087-0.14
			l7.331-15.88l-1.874-0.878c-0.085-0.039-0.162-0.09-0.231-0.15c-0.241-0.176-0.411-0.513-0.402-0.875l0.03-0.841
			c-0.04-0.028-0.094-0.063-0.163-0.104c-0.046-0.025-0.13-0.068-0.241-0.126c-6.931-3.552-11.695-10.027-14.471-14.834
			c-0.018-0.024-4.864-7.885-6.009-20.422c-0.012-0.131-0.027-0.227-0.042-0.295l-0.713-0.36c-0.182-0.093-0.343-0.264-0.451-0.46
			c0.027,0.044,0.059,0.088,0.094,0.128c-0.037-0.043-0.07-0.09-0.1-0.139c-0.077-0.144-0.127-0.301-0.135-0.449
			c-0.001,0.03,0.001,0.062,0.006,0.094c-0.013-0.075-0.017-0.152-0.011-0.23l0.145-2.064l-17.438-1.316
			c-0.043,0.006-0.084,0.009-0.123,0.009c-0.104,0-0.241-0.016-0.391-0.073c-0.056-0.016-0.108-0.032-0.149-0.052
			c0,0-1.651-0.75-1.69-0.768l-47.78,1.286c-0.359,0.473-1.015,0.95-2.069,1.01c-1.134,0.064-6.589,0.543-6.642,0.548
			c-0.085,0.007-5.502,0.397-8.58,3.43c-0.634,0.577-1.296,1.068-1.998,1.489c-0.451,0.27-0.923,0.512-1.408,0.723
			c0.034,0.358,0.075,0.715,0.123,1.069c0.004,0.031,0.007,0.063,0.008,0.098c0.145,1.066,0.303,2.147,0.456,3.193
			c0.139,0.948,0.277,1.895,0.408,2.843c0.215,1.526,0.4,3.09,0.549,4.645c0.003,0.031,0.006,0.073,0.006,0.105
			c0.134,1.422,0.235,2.949,0.295,4.455c0.01,0.051,0.016,0.101,0.018,0.148c0.546,14.388-1.217,28.44-3.021,40.302
			c0.001,0.221-0.058,0.428-0.106,0.601l-0.048,0.171l-0.102,0.436c-0.088,0.354-0.188,0.667-0.302,0.957
			c-0.321,0.816-0.832,1.396-1.607,1.824c-1.161,0.64-2.266,0.688-3.335,0.735l-0.488,0.024c0,0-0.34,0.01-0.341,0.01
			c-0.719,0-1.24-0.406-1.409-1.06c-2.363-9.526-2.754-19.228-3.133-28.608l-0.068-1.68c-0.567-13.92-0.613-15.058,2.81-29.092
			l0.023-0.1c0.06-0.266,0.112-0.538,0.155-0.81c-2.636-0.963-4.854-2.791-6.305-5.216l-0.1-0.17
			c-3.328-5.762-1.388-13.231,4.324-16.651c0.599-0.358,1.232-0.667,1.891-0.92c-0.032-0.314-0.069-0.628-0.112-0.94
			c-0.004-0.03-0.007-0.063-0.008-0.098c-0.145-1.07-0.304-2.154-0.458-3.206c-0.156-1.065-0.298-2.036-0.433-3.009
			c-0.003-0.022-0.005-0.046-0.007-0.071c-0.216-1.519-0.405-3.104-0.56-4.716c-0.143-1.546-0.247-3.122-0.311-4.69
			c-0.012-0.062-0.018-0.124-0.018-0.182c-0.567-14.768,1.232-29.222,3.076-41.422c-0.001-0.226,0.06-0.441,0.111-0.624l0.051-0.187
			l0.101-0.438c0.09-0.359,0.19-0.679,0.307-0.977c0.328-0.836,0.847-1.428,1.636-1.863c1.183-0.654,2.313-0.704,3.406-0.752
			l0.513-0.024c0,0,0.338-0.011,0.339-0.011c0.572,0,1.013,0.246,1.261,0.674c0.07,0.123,0.124,0.257,0.16,0.4
			c2.428,9.797,2.834,19.78,3.228,29.435l0.07,1.721c0.589,14.322,0.637,15.491-2.867,29.929l-0.023,0.103
			c-0.077,0.346-0.141,0.699-0.189,1.044c-0.004,0.03-0.008,0.061-0.012,0.091c1.125,0.485,2.17,1.138,3.115,1.947
			c0.071,0.044,0.136,0.096,0.189,0.149h0c0.003,0,2.373,2.105,8.331,2.439c2.183,0.077,3.951,0.117,5.238,0.117
			c0.98,0,1.31-0.023,1.353-0.027c0.026-0.002,0.06-0.003,0.093-0.003c0.049,0,0.1,0.002,0.138,0.007
			c0.592,0.108,1.476,0.347,2.048,0.873l47.874-1.286c0.008-0.006,1.54-0.952,1.54-0.952c0.139-0.085,0.335-0.148,0.496-0.16
			l3.952-0.548c0.129-0.053,0.262-0.083,0.387-0.083c0.048,0,0.097,0.004,0.144,0.01l13.02-1.8c0,0-0.043-1.908-0.043-1.928
			c0-0.132,0.026-0.262,0.076-0.383c0.048-0.13,0.117-0.253,0.199-0.346c0.013-0.017,0.761-0.9,2.106-1.309
			c0.988-0.3,9.707-2.512,10.35-2.675c0.261-0.093,1.232-0.476,1.875-1.319c1.027-1.348,7.947-10.168,11.677-14.872
			c0.986-1.503,0.908-1.782,0.618-2.825c-0.354-1.276-3.644-13.116-3.882-13.972c-0.42-1.102-0.09-2.223,0.019-2.591
			c0.119-0.418,0.397-0.773,0.78-0.995l1.567-0.908l-1.361-2.923l-2.42,1.448c-0.155,0.093-0.385,0.156-0.565,0.156l-1.149-0.055
			c-0.183-0.009-0.381-0.082-0.55-0.193l-18.413,11.02l0.128,0.215c0.653,1.131,0.284,2.557-0.806,3.209l-25.321,15.155
			c-0.727,0.435-1.558,0.664-2.402,0.664c-1.645,0-3.189-0.873-4.031-2.28l-2.511-4.196c-1.28-2.218-0.539-5.074,1.646-6.382
			l25.321-15.155c0.364-0.218,0.779-0.333,1.2-0.333c0.191,0,0.384,0.024,0.57,0.071c0.607,0.153,1.117,0.532,1.438,1.067
			l0.267,0.445l18.474-11.057c0.004-0.152,0.033-0.303,0.089-0.423l0.5-1.116c0.079-0.177,0.247-0.371,0.409-0.477l3.365-2.012
			l-0.889-1.908c-0.036-0.049-0.072-0.109-0.099-0.163c-0.036-0.067-0.078-0.176-0.099-0.314c-0.009-0.033-0.017-0.064-0.021-0.09
			c0,0-0.164-1.883-0.167-1.926l-24.518-41.033c-0.491-0.069-1.274-0.341-1.893-1.309c-0.241-0.378-1.057-1.602-3.566-5.285
			l-0.173-0.253c-0.032-0.05-3.04-4.592-7.184-5.787c-0.817-0.271-1.569-0.608-2.275-1.014c-0.455-0.26-0.896-0.552-1.319-0.872
			c-0.295,0.205-0.586,0.415-0.872,0.631c-0.022,0.018-0.049,0.035-0.076,0.052c-0.856,0.646-1.72,1.312-2.555,1.956l-0.131,0.102
			c-0.719,0.554-1.437,1.107-2.159,1.654c-1.224,0.934-2.495,1.86-3.775,2.751c-0.006,0.004-0.011,0.008-0.016,0.011
			c-1.254,0.863-2.538,1.7-3.821,2.488c-0.053,0.044-0.109,0.083-0.165,0.113C66.64,76.025,50.835,83.739,37.812,88.67
			c-0.186,0.108-0.395,0.159-0.589,0.206l-0.184,0.045l-0.427,0.124c-0.344,0.095-0.666,0.162-0.978,0.204
			c-0.186,0.025-0.367,0.038-0.541,0.038c-0.651,0-1.234-0.173-1.835-0.546c-1.125-0.698-1.708-1.638-2.273-2.547l-0.263-0.418
			L30.55,85.49c-0.356-0.617-0.261-1.28,0.235-1.753c7.138-6.714,18.736-14.158,28.042-19.894l0.49-0.302
			c11.86-7.311,12.829-7.908,26.746-11.796l0.1-0.029c0.26-0.077,0.522-0.166,0.781-0.262c-0.451-2.77,0.057-5.599,1.46-8.051
			c2.179-3.806,6.266-6.17,10.664-6.17c2.124,0,4.224,0.56,6.073,1.617c0.605,0.347,1.184,0.748,1.727,1.198
			c0.259-0.183,0.515-0.369,0.768-0.56c0.021-0.016,0.046-0.032,0.072-0.049c0.885-0.668,1.776-1.355,2.639-2.021
			c0.793-0.611,1.569-1.21,2.352-1.803c1.267-0.966,2.578-1.922,3.895-2.838c1.3-0.895,2.623-1.758,3.939-2.568
			c0.046-0.038,0.093-0.072,0.141-0.099c12.728-7.804,28.277-15.556,40.598-20.238c0.191-0.112,0.405-0.164,0.595-0.209l0.288-0.076
			l0.33-0.097c0.365-0.1,0.693-0.168,1.008-0.212c0.195-0.027,0.381-0.041,0.561-0.041c0.661,0,1.254,0.176,1.865,0.554
			c1.149,0.713,1.746,1.673,2.322,2.602l0.271,0.431c0,0,0.188,0.312,0.194,0.324c0.339,0.594,0.242,1.257-0.252,1.731
			c-8.871,8.339-22.547,17.083-28.015,20.457l-0.507,0.312c-12.201,7.528-13.198,8.142-27.5,12.156l-0.103,0.03
			c-0.339,0.102-0.679,0.219-1.004,0.345c-0.028,0.012-0.057,0.022-0.085,0.034c0.129,1.219,0.071,2.448-0.171,3.667
			c-0.003,0.068-0.012,0.135-0.026,0.193c-0.007,0.03-0.697,3.129,1.938,8.504c2.449,4.747,3.122,5.751,3.149,5.792
			c0.037,0.055,0.083,0.139,0.108,0.2c0.166,0.481,0.42,1.405,0.233,2.2l24.571,41.129c0.011,0.005,1.583,0.876,1.583,0.876
			c0.14,0.078,0.289,0.215,0.378,0.348l1.297,1.713l3.898-2.333c0.155-0.093,0.382-0.155,0.562-0.155c0.033,0,1.438,0.1,1.438,0.1
			c0.12,0.008,0.246,0.045,0.366,0.101l17.909-10.719l-0.128-0.214c-0.649-1.125-0.284-2.559,0.807-3.21l26.003-15.564
			c0.727-0.435,1.558-0.664,2.402-0.664c1.645,0,3.189,0.874,4.031,2.28l2.512,4.196c1.28,2.218,0.538,5.075-1.646,6.383
			l-26.004,15.564c-0.363,0.217-0.777,0.331-1.199,0.331c-0.82,0-1.591-0.437-2.011-1.139l-0.266-0.444l-17.805,10.657
			c0.027,0.18,0.018,0.368-0.033,0.522l-0.329,1.018c-0.072,0.226-0.268,0.474-0.469,0.599l-3.107,1.859l1.839,2.433l1.739-1.162
			c0.164-0.11,0.413-0.187,0.611-0.187c0.042,0,0.096,0.004,0.137,0.009c0.151,0.018,1.526,0.195,2.538,0.944
			c0.106,0.048,0.205,0.109,0.283,0.181l11.091,10.354c-0.001-0.002-0.002-0.002-0.001-0.002c0.016,0,0.456,0.265,1.358,0.265
			c0.247,0,0.509-0.021,0.78-0.061c0.562-0.083,1.924-0.307,3.671-0.594l0.428-0.07c4.872-0.801,12.233-2.012,14.237-2.18
			c1.829-0.227,3.172-1.521,3.358-1.768c0.259-0.34,3.355-3.742,5.908-6.537c0.408-0.449,0.895-0.819,1.443-1.099l1.923-0.977
			c0.114-0.058,0.242-0.094,0.37-0.105c0.045-0.006,0.09-0.009,0.13-0.009c0.062,0,0.139,0.007,0.2,0.019
			c0.047,0.009,0.1,0.023,0.15,0.04c0.071,0.022,0.14,0.052,0.205,0.089c0.045,0.025,0.088,0.055,0.128,0.087l1.218,0.971
			l10.264-14.03c0.021-0.046,0.044-0.089,0.067-0.124c0.072-0.11,0.162-0.205,0.267-0.282c0.053-0.048,0.107-0.091,0.156-0.12
			l1.416-0.944c0.037-0.028,0.074-0.056,0.113-0.08l24.533-41.901c-0.238-0.616-0.253-1.421,0.228-2.301
			c0.483-0.884,2.465-4.784,3.061-5.959c0.063-0.122,2.312-4.395,1.824-8.435c-0.234-0.869-0.376-1.743-0.421-2.598
			c-0.026-0.519-0.019-1.051,0.024-1.591c-0.311-0.117-0.623-0.228-0.937-0.333c-0.029-0.01-0.06-0.022-0.091-0.036
			c-1.057-0.356-2.132-0.706-3.174-1.045l-0.334-0.109c-0.83-0.27-1.66-0.54-2.488-0.817c-0.022-0.008-0.048-0.017-0.072-0.027
			c-1.457-0.481-2.955-1.014-4.453-1.583c-0.042-0.014-0.082-0.03-0.121-0.05c-1.368-0.523-2.83-1.13-4.271-1.772
			c-0.064-0.018-0.125-0.041-0.18-0.068c-13.54-6.061-25.739-14.093-35.893-21.164c-0.197-0.09-0.356-0.233-0.521-0.382l-0.14-0.125
			l-0.356-0.292c-0.284-0.241-0.526-0.473-0.741-0.708c-0.607-0.666-0.908-1.395-0.944-2.294c-0.058-1.35,0.405-2.381,0.854-3.378
			l0.205-0.464l0.143-0.306c0.25-0.528,0.707-0.829,1.256-0.829c0.108,0,0.222,0.013,0.335,0.037
			c9.909,2.195,19.077,6.273,27.943,10.218l1.581,0.702c13.156,5.847,14.23,6.325,25.657,15.874l0.082,0.067
			c0.241,0.194,0.494,0.384,0.749,0.561c2.22-1.827,5.088-3.024,7.652-3.169c0.239-0.013,0.477-0.02,0.714-0.02
			c3.055,0,5.989,1.124,8.264,3.166c0.979,0.88,1.806,1.896,2.455,3.021c0.977,1.692,1.524,3.553,1.628,5.531
			c0.027,0.533,0.02,1.071-0.022,1.608c0.34,0.139,0.682,0.271,1.024,0.396c0.027,0.009,0.056,0.021,0.084,0.035
			c0.945,0.344,1.906,0.681,2.843,1.01l0.232,0.082c0.928,0.325,1.842,0.646,2.755,0.976c1.493,0.534,2.985,1.104,4.432,1.694
			c1.421,0.587,2.84,1.217,4.223,1.873c0.046,0.014,0.088,0.03,0.128,0.048c13.425,6.408,26.484,14.101,36.807,21.679
			c0.189,0.094,0.34,0.236,0.488,0.376l0.151,0.143c0,0,0.27,0.23,0.344,0.298c0.262,0.233,0.496,0.47,0.706,0.714
			c0.167,0.192,0.306,0.386,0.422,0.589c0.292,0.506,0.438,1.063,0.449,1.705c0.021,1.343-0.461,2.354-0.926,3.333l-0.214,0.455
			l-0.147,0.3c-0.252,0.509-0.703,0.8-1.238,0.8c-0.117,0-0.239-0.015-0.361-0.044c-12.137-2.967-24.165-8.251-30.256-11.138
			l-0.529-0.251c-12.748-6.041-13.789-6.534-24.745-16.21l-0.076-0.065c-0.217-0.184-0.44-0.362-0.666-0.53
			c-1.206,1.089-2.626,1.938-4.163,2.487c-0.136,0.143-0.312,0.25-0.515,0.303c-0.022,0.007-3.123,0.919-6.624,5.903
			c-3.029,4.506-3.591,5.591-3.613,5.635c-0.035,0.069-0.099,0.166-0.149,0.226c-0.316,0.346-1.018,1.03-1.815,1.252l-24.584,41.982
			c0.001,0.016-0.006,1.838-0.006,1.838c-0.001,0.144-0.041,0.324-0.101,0.455l-1.654,3.693c-0.029,0.207-0.117,0.405-0.255,0.566
			l-4.875,10.884l1.297,0.453c0.229,0.08,0.472,0.284,0.592,0.494c0.107,0.175,0.161,0.406,0.141,0.644
			c-0.029,0.221-0.103,0.656-0.278,1.175l-0.882,3.847c-0.024,0.301,0.024,0.72,0.133,0.859l0.496,0.064
			c1.031,0.119,2.101,0.242,3.153,0.896c0.821,0.332,1.638,0.849,1.959,1.062c0.199,0.152,3.426,2.738,8.637,11.764
			c0.587,1.015,5.748,10.01,6.129,13.143c0.168,1.384,0.087,2.415-0.246,3.139c-0.009,0.062-0.022,0.123-0.043,0.18
			c-0.119,0.341-0.285,0.594-0.461,0.861c-0.212,0.323-0.443,0.674-0.707,1.324c0.003,0.019,0.219,0.121,0.379,0.156l3.923,1.136
			c0.635,0.116,1.081,0.296,1.131,0.316c0.204,0.084,0.424,0.274,0.534,0.466c0.129,0.234,0.173,0.485,0.134,0.727l-0.236,1.365
			l11.891,1.034c0.072-0.016,0.144-0.023,0.21-0.023c0.141,0,0.277,0.026,0.403,0.076l4.039,0.352
			c0.147,0.013,0.329,0.071,0.457,0.146c0,0,1.57,0.866,1.585,0.876l48.638-1.063c0.579-0.595,1.505-0.868,1.954-0.972
			c0.073-0.017,0.169-0.028,0.244-0.028c0.013,0,0.153,0.002,0.153,0.002c0.38,0,1.979-0.03,6.601-0.42
			c6.037-0.634,8.338-2.896,8.36-2.919c0.101-0.102,0.243-0.19,0.395-0.251c1.047-0.932,2.215-1.712,3.426-2.289
			c-0.053-0.305-0.117-0.614-0.192-0.922l-0.028-0.117c-3.786-14.375-3.763-15.551-3.469-29.94l0.034-1.732
			c0.195-9.713,0.397-19.743,2.617-29.637c0.159-0.686,0.69-1.108,1.389-1.111h0.31l0.541,0.012
			c1.092,0.018,2.222,0.036,3.422,0.662c0.644,0.336,1.102,0.765,1.439,1.35c0.085,0.148,0.162,0.305,0.233,0.475
			c0.124,0.301,0.231,0.619,0.329,0.979l0.113,0.454l0.051,0.167c0.06,0.2,0.123,0.411,0.124,0.63
			c2.09,12.2,4.181,26.66,3.918,41.531c-0.001,0.047-0.006,0.097-0.015,0.147c-0.031,1.565-0.103,3.149-0.213,4.708
			c-0.118,1.585-0.276,3.208-0.469,4.828c-0.114,0.985-0.237,1.972-0.36,2.958c-0.136,1.085-0.275,2.206-0.401,3.312
			c0,0.025-0.002,0.051-0.004,0.074c-0.038,0.338-0.07,0.673-0.097,1.007c0.507,0.19,0.992,0.408,1.449,0.653
			c2.044,1.092,3.729,2.716,4.873,4.698c0.475,0.822,0.856,1.707,1.135,2.629c0.958,3.176,0.615,6.537-0.965,9.463
			c-1.362,2.525-3.531,4.483-6.162,5.584c0.056,0.274,0.122,0.553,0.198,0.83l0.03,0.11c4.102,14.008,4.105,15.16,4.161,29.263
			l0.002,0.596c0.027,6.735-0.295,19.864-2.764,32.111c-0.144,0.688-0.666,1.122-1.365,1.137l-1.141,0.007
			c-0.974,0-2.015-0.045-3.106-0.579c-0.801-0.391-1.345-0.95-1.708-1.762c-0.13-0.289-0.245-0.602-0.35-0.952l-0.123-0.439
			l-0.055-0.167c-0.062-0.184-0.131-0.392-0.138-0.612c-2.479-12.561-3.897-27.655-3.998-42.525c0-0.049,0.004-0.101,0.012-0.154
			c-0.007-1.529,0.026-3.079,0.098-4.607c0.082-1.579,0.199-3.172,0.349-4.739c0.088-0.95,0.184-1.899,0.28-2.851
			c0.114-1.116,0.226-2.219,0.323-3.304c0-0.035,0.002-0.07,0.005-0.103c0.032-0.357,0.058-0.72,0.075-1.084
			c-0.503-0.189-0.993-0.412-1.465-0.664c-0.725-0.386-1.417-0.85-2.058-1.377c-3.285-2.941-8.817-3.075-8.873-3.076l-0.141-0.005
			c-3.55-0.136-5.972-0.217-6.646-0.222c-1.026-0.008-1.73-0.43-2.139-0.921l-48.525,1.06c-0.039,0.021-1.68,0.86-1.68,0.86
			c-0.05,0.026-0.112,0.051-0.175,0.07c-0.103,0.043-0.212,0.07-0.324,0.08c-0.023,0.002-0.132,0.002-0.162,0l-17.248,2.146
			l0.256,1.536c0.021,0.125,0.017,0.263-0.011,0.39c-0.014,0.067-0.034,0.14-0.057,0.196c-0.026,0.065-0.065,0.137-0.11,0.203
			c-0.094,0.15-0.209,0.247-0.297,0.306l-1.783,1.201c-0.505,0.342-1.064,0.587-1.662,0.729c-3.012,0.713-8.132,1.917-8.584,1.982
			c-0.307,0.045-2.092,0.589-3.204,2.11c-1.093,1.628-5.729,7.47-8.797,11.336l-0.301,0.379c-1.089,1.374-1.937,2.442-2.28,2.89
			c-0.933,1.216-0.849,2.02-0.845,2.054l3.633,14.628c0.025,0.102,0.031,0.214,0.021,0.328c0.162,1.203-0.309,2.449-0.409,2.697
			c-0.087,0.214-0.292,0.441-0.494,0.553l-1.885,0.966l1.23,2.79l3.124-1.804c0.152-0.088,0.374-0.147,0.55-0.147
			c0.068,0,0.157,0.009,0.225,0.023l1.046,0.206c0.157,0.031,0.324,0.115,0.466,0.226l17.969-10.376l-0.259-0.448
			c-0.644-1.117-0.26-2.551,0.855-3.196l26.247-15.153c0.711-0.41,1.52-0.628,2.339-0.628c1.675,0,3.233,0.898,4.068,2.345
			l2.415,4.184c1.293,2.24,0.523,5.115-1.717,6.408l-26.245,15.152c-0.354,0.205-0.759,0.313-1.168,0.313
			c-0.834,0-1.611-0.448-2.028-1.169l-0.125-0.217l-18.076,10.436c-0.009,0.133-0.038,0.261-0.089,0.37l-0.576,1.232
			c-0.083,0.179-0.257,0.372-0.425,0.475l-3.955,2.283l0.892,2.02c0.056,0.128,0.093,0.307,0.093,0.445c0,0-0.004,1.795-0.004,1.812
			l23.986,41.469c0.793,0.224,1.475,0.899,1.765,1.223c0.046,0.051,0.09,0.112,0.128,0.178c0,0,0.027,0.049,0.035,0.063
			c0.176,0.324,0.912,1.629,3.547,5.592c3.403,4.899,6.448,5.803,6.479,5.812c0.06,0.017,0.121,0.042,0.182,0.072
			c1.182,0.381,2.283,0.929,3.285,1.632c0.023-0.019,0.047-0.038,0.07-0.058c0.269-0.224,0.537-0.465,0.798-0.716l0.071-0.071
			c10.461-10.543,11.482-11.114,23.991-18.114l0.52-0.29c5.608-3.139,19.902-10.836,31.489-14.527
			c0.161-0.05,0.315-0.074,0.466-0.074c0.495,0,0.931,0.263,1.196,0.722l0.155,0.269l0.259,0.473
			c0.532,0.954,1.082,1.941,1.146,3.297c0.042,0.9-0.19,1.652-0.731,2.369c-0.191,0.254-0.411,0.508-0.671,0.773l-0.336,0.331
			l-0.119,0.128c-0.144,0.158-0.293,0.32-0.485,0.431c-10.078,8.482-24.407,18.295-37.438,25.635
			c-0.042,0.023-0.089,0.045-0.139,0.063c-1.35,0.758-2.744,1.492-4.146,2.187c-1.439,0.706-2.913,1.387-4.382,2.027
			c-0.901,0.396-1.808,0.786-2.714,1.175l-0.278,0.119c-0.912,0.393-1.848,0.795-2.766,1.201c-0.028,0.017-0.058,0.031-0.085,0.043
			c-0.29,0.129-0.577,0.262-0.863,0.399c0.129,0.692,0.198,1.393,0.207,2.092c0.039,3.271-1.201,6.363-3.492,8.71
			s-5.354,3.66-8.625,3.699l-0.148,0.001c-2.77,0-5.437-0.933-7.597-2.641c-0.209,0.18-0.415,0.368-0.615,0.562l-0.075,0.074
			c-10.153,10.258-11.146,10.814-23.301,17.623l-0.509,0.284c-9.533,5.342-21.674,11.854-31.013,14.827
			C193.084,360.339,192.933,360.362,192.786,360.362z"/>
		<path class="st5" d="M194.253,9.498c0.039,0,0.081,0.005,0.126,0.014c9.804,2.171,18.925,6.229,27.746,10.153l1.58,0.703
			c13.04,5.795,14.105,6.269,25.422,15.727l0.092,0.075c0.301,0.242,0.612,0.473,0.924,0.685c0.181,0.124,0.369,0.229,0.553,0.342
			c2.09-1.932,5.061-3.269,7.613-3.413c0.22-0.012,0.439-0.018,0.657-0.018c2.815,0,5.491,1.02,7.597,2.91
			c0.907,0.814,1.665,1.751,2.257,2.777c0.884,1.532,1.4,3.263,1.494,5.082c0.038,0.734,0.004,1.47-0.097,2.189
			c0.579,0.252,1.166,0.489,1.757,0.704c0.01,0.004,0.02,0.009,0.028,0.015c1.044,0.38,2.11,0.754,3.142,1.116
			c0.916,0.322,1.832,0.643,2.746,0.972c1.467,0.524,2.945,1.09,4.394,1.68c1.429,0.591,2.865,1.228,4.267,1.896
			c0.003,0,0.006,0,0.008,0c0.012,0,0.023,0.002,0.034,0.007c13.415,6.403,26.461,14.094,36.752,21.665
			c0.003,0,0.005-0.001,0.008-0.001c0.046,0,0.11,0.061,0.28,0.222c0.065,0.062,0.128,0.122,0.162,0.152l0.138,0.119
			c0.066,0.056,0.132,0.112,0.196,0.17c0.238,0.212,0.441,0.417,0.621,0.626c0.124,0.144,0.228,0.288,0.314,0.436
			c0.21,0.363,0.307,0.751,0.315,1.223c0.017,1.105-0.393,1.97-0.828,2.887c-0.073,0.154-0.147,0.309-0.219,0.467l-0.136,0.275
			c-0.082,0.165-0.19,0.243-0.342,0.243c-0.041,0-0.084-0.006-0.131-0.017c-12.046-2.945-24.003-8.199-30.057-11.069l-0.529-0.251
			c-12.631-5.986-13.663-6.475-24.512-16.056l-0.088-0.075c-0.29-0.247-0.589-0.481-0.888-0.696
			c-0.177-0.128-0.361-0.238-0.542-0.355c-1.334,1.38-2.969,2.381-4.761,2.953c0.002,0.002,0.006,0.001,0.007,0.003
			c0.004,0.008,0.008,0.016,0.01,0.026c0.013,0.053-0.019,0.108-0.072,0.121c-0.034,0.009-3.406,0.906-7.191,6.297
			c-3.155,4.692-3.685,5.752-3.69,5.762c-0.004,0.009-0.009,0.017-0.016,0.023c-0.1,0.11-0.915,0.973-1.552,0.973
			c-0.038,0-0.076-0.003-0.112-0.01l-25.031,42.746c0.018,0.058,0.017,0.108,0.026,0.161c0.005,0.005,0.015,0.004,0.018,0.011
			c0.009,0.015,0.013,0.032,0.013,0.05l-0.006,1.786c0,0.014-0.003,0.027-0.009,0.04l-1.751,3.908
			c0.002,0.004,0.005,0.009,0.006,0.01c0.025,0.049,0.005,0.108-0.044,0.133c-0.003,0.002-0.007,0.002-0.011,0.002
			c-0.004,0-0.008-0.001-0.012-0.001c-0.002,0-0.003,0-0.005,0l-6.538,14.594c1.026-0.575,1.519-2.226,1.525-2.248
			c0.008-0.026,0.026-0.048,0.05-0.061c0.014-0.007,0.03-0.011,0.046-0.011c0.011,0,0.022,0.002,0.033,0.005l1.791,0.627
			c0.023,0.008,0.042,0.024,0.053,0.044c0.01,0.018,0.015,0.04,0.013,0.062c-0.005,0.041-0.062,0.464-0.244,0.987l-0.909,3.961
			c0,0-0.125,1.046,0.334,1.635c0.173,0.221,0.41,0.352,0.705,0.388c0.16,0.02,0.313,0.037,0.462,0.055
			c1.086,0.125,1.952,0.237,2.815,0.798c0.825,0.317,1.712,0.9,1.862,1c0.037,0.028,3.181,2.523,8.324,11.429
			c0.23,0.399,5.641,9.798,6.002,12.764c0.194,1.599-0.004,2.382-0.257,2.774c0.02,0.026,0.03,0.057,0.019,0.089
			c-0.081,0.23-0.205,0.419-0.362,0.657c-0.218,0.331-0.489,0.743-0.791,1.485c-0.123,0.303-0.123,0.574-0.001,0.806
			c0.274,0.53,1.081,0.702,1.09,0.704l3.912,1.134c0.544,0.095,0.94,0.251,0.978,0.266c0.021,0.008,0.038,0.024,0.049,0.042
			c0.011,0.02,0.016,0.043,0.012,0.067l-0.323,1.87c-0.005,0.027-0.02,0.051-0.043,0.066c-0.016,0.011-0.036,0.017-0.055,0.017
			c-0.007,0-0.015-0.001-0.022-0.003c-0.012-0.003-0.523-0.116-1.147-0.116c-0.514,0-1.106,0.077-1.558,0.355l15.93,1.385
			c0.006-0.007,0.007-0.017,0.016-0.023c0.017-0.011,0.036-0.017,0.055-0.017c0.032,0,0.063,0.015,0.082,0.044
			c0.001,0.001,0.004,0.007,0.006,0.01l4.267,0.371c0.014,0.001,0.027,0.005,0.039,0.012l1.563,0.862
			c0.016,0.009,0.029,0.022,0.038,0.037c0.003,0.006-0.002,0.014,0,0.02c0.043,0.033,0.086,0.057,0.129,0.101l49.524-1.083
			c0.214-0.623,1.498-0.95,1.651-0.986c0.008-0.002,0.016-0.003,0.025-0.003c0.001,0,0.002,0,0.003,0
			c0.002,0,0.045,0.002,0.15,0.002c0.457,0,2.095-0.037,6.681-0.424c6.55-0.686,8.973-3.195,8.997-3.221
			c0.019-0.02,0.043-0.029,0.068-0.029c0.022,0,0.043,0.007,0.062,0.021c1.177-1.09,2.585-2.014,4.053-2.611
			c-0.024-0.215-0.04-0.43-0.075-0.646c-0.06-0.372-0.137-0.751-0.229-1.128l-0.028-0.116c-3.756-14.26-3.732-15.426-3.441-29.69
			l0.035-1.727c0.194-9.654,0.394-19.638,2.592-29.437c0.053-0.228,0.181-0.33,0.417-0.33l0.306,0
			c0.178,0.006,0.352,0.008,0.525,0.011c1.022,0.017,1.987,0.033,2.975,0.549c0.469,0.245,0.794,0.544,1.036,0.963
			c0.065,0.112,0.123,0.232,0.177,0.362c0.107,0.257,0.2,0.536,0.285,0.852c0.023,0.084,0.043,0.169,0.064,0.253l0.046,0.183
			c0.011,0.044,0.037,0.128,0.063,0.215c0.075,0.247,0.099,0.327,0.071,0.365c2.094,12.21,4.19,26.672,3.928,41.489
			c0,0.017-0.005,0.033-0.013,0.047c-0.029,1.582-0.1,3.181-0.212,4.755c-0.119,1.588-0.276,3.196-0.464,4.78
			c-0.114,0.986-0.237,1.969-0.359,2.952c-0.139,1.109-0.281,2.255-0.409,3.384c0.002,0.009,0.002,0.019,0.001,0.028
			c-0.068,0.598-0.118,1.2-0.152,1.803c0.698,0.215,1.381,0.491,2.029,0.837c1.896,1.012,3.431,2.503,4.478,4.317
			c0.435,0.754,0.786,1.563,1.044,2.418c0.88,2.918,0.564,6.008-0.888,8.699c-1.378,2.553-3.648,4.472-6.394,5.411
			c0.03,0.214,0.05,0.427,0.091,0.641c0.068,0.361,0.153,0.731,0.254,1.1l0.031,0.113c4.066,13.889,4.071,15.031,4.125,29.007
			l0.002,0.588c0.027,6.7-0.294,19.756-2.745,31.911c-0.047,0.226-0.172,0.329-0.406,0.334l-0.304,0.006
			c-0.075-0.001-0.15-0.001-0.224-0.001c-0.099,0-0.198,0-0.296,0.001c-0.098,0-0.195,0.001-0.291,0.001
			c-0.907,0-1.775-0.039-2.672-0.477c-0.597-0.292-0.966-0.674-1.235-1.273c-0.113-0.251-0.212-0.522-0.303-0.828
			c-0.025-0.084-0.049-0.168-0.071-0.253l-0.048-0.173c-0.013-0.043-0.041-0.126-0.069-0.211c-0.078-0.234-0.105-0.314-0.079-0.354
			c-2.483-12.531-3.905-27.608-4.005-42.474c0-0.017,0.004-0.033,0.012-0.048c-0.009-1.547,0.023-3.115,0.096-4.66
			c0.081-1.568,0.197-3.146,0.345-4.692c0.09-0.966,0.188-1.931,0.285-2.895c0.111-1.09,0.225-2.217,0.325-3.326
			c-0.002-0.009-0.003-0.019-0.002-0.029c0.057-0.627,0.092-1.258,0.109-1.889c-0.694-0.214-1.375-0.496-2.023-0.842
			c-0.679-0.363-1.311-0.788-1.892-1.266c-3.562-3.191-9.433-3.304-9.492-3.305c-0.059-0.002-5.625-0.218-6.795-0.227
			c-1.241-0.01-1.536-0.811-1.549-0.844c-0.003-0.009-0.005-0.018-0.005-0.027c0-0.009-0.002-0.042-0.004-0.062l-49.435,1.079
			c-0.071,0.068-0.144,0.114-0.219,0.142l-1.598,0.823c-0.01,0.005-0.022,0.009-0.034,0.01l-0.037,0.005
			c-0.016,0.014-0.034,0.026-0.057,0.028c-0.001,0-0.003,0-0.004,0c-0.022,0-0.043-0.011-0.065-0.012l-19.834,2.467
			c0.377,0.236,0.773,0.288,1.044,0.288c0.204,0,0.339-0.029,0.343-0.03c0.008-0.002,0.015-0.003,0.023-0.003
			c0.02,0,0.039,0.006,0.055,0.017c0.022,0.015,0.039,0.039,0.043,0.066l0.341,2.048c0.001,0.008-0.003,0.014-0.004,0.022
			c-0.001,0.01-0.001,0.018-0.004,0.027c-0.005,0.014-0.013,0.024-0.024,0.034c-0.005,0.005-0.005,0.012-0.011,0.016l-1.787,1.204
			c-0.408,0.276-0.857,0.472-1.335,0.585c-1.884,0.445-8.063,1.903-8.497,1.966c-0.48,0.069-2.543,0.698-3.867,2.51
			c-1.087,1.619-5.712,7.448-8.772,11.304c-1.238,1.56-2.215,2.791-2.591,3.281c-1.255,1.637-1.042,2.804-1.04,2.815l3.65,14.716
			c0.008,0.031-0.003,0.06-0.021,0.083c0.2,1.021-0.296,2.263-0.322,2.325c-0.009,0.022-0.025,0.04-0.047,0.051l-1.915,0.982
			c-0.014,0.007-0.03,0.011-0.045,0.011c-0.012,0-0.024-0.002-0.035-0.006c-0.026-0.01-0.047-0.031-0.057-0.057
			c-0.002-0.006-0.578-1.444-1.673-1.864l3.085,6.992l4.089-2.361c0.015-0.009,0.033-0.013,0.05-0.013
			c0.006,0,0.013,0.001,0.019,0.002l1.057,0.209c0.028,0.006,0.052,0.023,0.067,0.048l0.303,0.525
			c0.005-0.005,0.006-0.013,0.013-0.016l19.595-11.313c0.003-0.002,0.006-0.002,0.009-0.002c0.002,0,0.003,0,0.005,0
			c0.002,0,0.004,0,0.007-0.001l-0.763-1.321c-0.369-0.64-0.15-1.461,0.49-1.83l26.246-15.153c0.58-0.335,1.213-0.494,1.839-0.494
			c1.276,0,2.52,0.662,3.202,1.845l2.415,4.184c1.018,1.762,0.412,4.024-1.351,5.042l-26.246,15.153
			c-0.21,0.122-0.44,0.179-0.668,0.179c-0.463,0-0.915-0.24-1.163-0.67l-0.629-1.089c-0.005,0.005-0.006,0.013-0.013,0.017
			l-19.595,11.313c-0.003,0.002-0.006,0.002-0.009,0.002c-0.002,0-0.004,0-0.005,0c-0.002,0-0.004,0-0.006,0.001l0.191,0.331
			c0.016,0.028,0.018,0.062,0.004,0.092l-0.576,1.234c-0.009,0.018-0.023,0.034-0.041,0.044l-4.711,2.72l1.254,2.841
			c0.005,0.013,0.008,0.026,0.008,0.04l-0.003,1.763c0,0.029-0.012,0.053-0.032,0.071c-0.008,0.049-0.009,0.095-0.025,0.148
			l24.429,42.235c0.036-0.006,0.072-0.009,0.109-0.009c0.628,0,1.427,0.854,1.525,0.963c0.006,0.007,0.012,0.014,0.016,0.024
			c0.006,0.009,0.521,1.056,3.605,5.695c3.699,5.325,7.015,6.215,7.048,6.223c0.015,0.004,0.024,0.017,0.035,0.027
			c1.335,0.417,2.59,1.076,3.693,1.962c0.239-0.173,0.479-0.344,0.71-0.536c0.289-0.24,0.577-0.498,0.854-0.767l0.085-0.083
			c10.364-10.445,11.376-11.012,23.772-17.948l0.52-0.291c5.581-3.123,19.802-10.783,31.304-14.447
			c0.059-0.018,0.113-0.028,0.162-0.028c0.139,0,0.244,0.072,0.331,0.223l0.153,0.267c0.084,0.156,0.168,0.308,0.252,0.459
			c0.498,0.896,0.969,1.741,1.021,2.859c0.031,0.672-0.127,1.187-0.53,1.72c-0.168,0.222-0.36,0.444-0.588,0.676
			c-0.062,0.063-0.125,0.125-0.188,0.186l-0.132,0.129c-0.032,0.032-0.092,0.097-0.153,0.163c-0.168,0.182-0.227,0.246-0.273,0.246
			c-0.002,0-0.004,0-0.005,0c-10.044,8.472-24.361,18.282-37.404,25.628c-0.014,0.008-0.031,0.012-0.047,0.013
			c-1.375,0.773-2.784,1.517-4.189,2.212c-1.427,0.699-2.886,1.374-4.338,2.007c-0.902,0.397-1.805,0.785-2.71,1.173
			c-1.023,0.44-2.081,0.894-3.117,1.353c-0.007,0.007-0.015,0.012-0.024,0.016c-0.54,0.239-1.073,0.495-1.6,0.765
			c0.219,0.862,0.339,1.753,0.35,2.651c0.075,6.211-4.918,11.323-11.129,11.398c-0.046,0.001-0.091,0.001-0.137,0.001
			c-2.809,0-5.489-1.037-7.569-2.927c-0.17,0.128-0.344,0.247-0.51,0.386c-0.282,0.234-0.561,0.485-0.829,0.746l-0.082,0.081
			c-10.063,10.166-11.048,10.718-23.091,17.463l-0.503,0.282c-9.495,5.32-21.58,11.803-30.828,14.746
			c-0.057,0.018-0.109,0.026-0.158,0.026c-0.136,0-0.24-0.071-0.325-0.218l-0.15-0.259c-0.082-0.153-0.164-0.301-0.246-0.448
			c-0.485-0.874-0.943-1.698-0.996-2.788c-0.031-0.655,0.123-1.157,0.514-1.677c0.162-0.216,0.349-0.431,0.571-0.659
			c0.061-0.063,0.123-0.124,0.186-0.185l0.124-0.122c0.031-0.031,0.089-0.094,0.148-0.159c0.162-0.177,0.221-0.24,0.268-0.24
			c0.001,0,0.002,0,0.003,0c10.612-8.971,25.018-19.023,36.745-25.634c0.014-0.008,0.031-0.013,0.047-0.013
			c1.335-0.751,2.704-1.474,4.069-2.15c1.395-0.683,2.812-1.339,4.215-1.95c0.879-0.387,1.76-0.765,2.641-1.144
			c0.991-0.426,2.016-0.866,3.02-1.311c0.007-0.006,0.015-0.012,0.023-0.016c0.568-0.251,1.129-0.524,1.683-0.811
			c-0.145-0.704-0.224-1.426-0.232-2.149c-0.009-0.763,0.059-1.515,0.197-2.248c1.061-4.603-1.624-9.719-1.651-9.771
			c-0.026-0.052-2.481-4.961-3.028-5.976c-0.581-1.078-0.03-1.716-0.006-1.743c0.006-0.007,0.013-0.013,0.021-0.018
			c0.007-0.005,0.034-0.022,0.051-0.032l-24.384-42.16c-0.091-0.028-0.165-0.069-0.225-0.12l-1.469-0.985
			c-0.01-0.007-0.018-0.015-0.025-0.024l-0.022-0.03c-0.02-0.007-0.039-0.017-0.051-0.036c-0.004-0.006-0.007-0.012-0.01-0.017
			c-0.012-0.021-0.018-0.046-0.027-0.069l-1.831-2.526l-4.145,2.393c-0.015,0.009-0.033,0.013-0.05,0.013c-0.003,0-0.006,0-0.008,0
			l-1.233-0.108c-0.032-0.003-0.061-0.021-0.078-0.05l-0.204-0.353l-20.199,11.662c-0.003,0.002-0.006,0.002-0.009,0.002
			c-0.002,0-0.003,0-0.005,0c-0.002,0-0.004,0-0.007,0.001l0.763,1.321c0.369,0.64,0.15,1.461-0.49,1.83l-25.556,14.755
			c-0.58,0.335-1.213,0.494-1.839,0.494c-1.276,0-2.519-0.662-3.202-1.844l-2.416-4.184c-1.017-1.762-0.411-4.024,1.351-5.041
			l25.556-14.755c0.211-0.122,0.441-0.179,0.668-0.179c0.463,0,0.914,0.24,1.162,0.67l0.629,1.089
			c0.005-0.005,0.006-0.013,0.013-0.017l20.199-11.662l-0.267-0.462c-0.017-0.029-0.018-0.064-0.003-0.094l0.486-0.983
			c0.009-0.018,0.022-0.032,0.039-0.042l3.402-1.964l-4.141-5.712c0.027,0.482,0.203,0.913,0.378,1.214
			c0.133,0.23,0.251,0.369,0.252,0.371c0.019,0.022,0.027,0.052,0.022,0.081c-0.005,0.029-0.022,0.054-0.047,0.069l-1.883,1.123
			c-0.11,0.066-0.233,0.099-0.359,0.099c-0.052,0-0.105-0.006-0.157-0.018c-0.317-0.072-1.202-0.275-1.799-0.99
			c-0.695-0.686-9.371-9.252-10.245-10.113l-0.065-0.065c-0.737-0.728-1.162-1.147-2.713-1.147c-0.272,0-0.58,0.013-0.929,0.039
			c-5.956,0.976-17.01,2.73-18.645,2.965c-1.533,0.221-2.617,1.266-2.627,1.276c-0.064,0.067-6.613,7.01-7.362,7.734
			c-0.767,0.742-1.648,0.939-1.685,0.947c-0.004,0.001-0.008,0.001-0.012,0.001c-0.016,0-0.03-0.006-0.045-0.012
			c-0.001,0-0.002-0.001-0.003-0.001c-0.003,0-0.005,0.001-0.008,0.001c-0.001,0-0.003,0-0.004-0.001l-2.055-1.204
			c-0.029-0.017-0.047-0.047-0.049-0.082c-0.001-0.034,0.014-0.066,0.042-0.086c0.038-0.027,0.796-0.584,0.623-1.415l-9.551,12.75
			c0.004,0.01,0.012,0.016,0.012,0.027c0.002,0.055-0.041,0.101-0.096,0.103h0c-0.001,0-0.01,0-0.013,0c0,0-0.001,0-0.001,0
			l-2.529,3.376c-0.008,0.011-0.019,0.02-0.031,0.027l-1.538,0.86c-0.015,0.008-0.03,0.012-0.045,0.012
			c-0.012,0-0.023-0.002-0.034-0.006c-0.047,0.017-0.086,0.039-0.14,0.051l-24.862,41.976c0.021,0.026,0.046,0.049,0.063,0.078
			c0.315,0.545-0.05,1.678-0.097,1.818c-0.003,0.009-0.007,0.017-0.012,0.025c-0.006,0.009-0.667,0.972-3.201,5.932
			c-2.832,5.833-1.984,9.16-1.975,9.193c0.004,0.015-0.003,0.029-0.006,0.044c0.29,1.368,0.33,2.784,0.097,4.179
			c0.268,0.124,0.535,0.249,0.816,0.357c0.353,0.136,0.718,0.26,1.087,0.369l0.114,0.033c14.182,3.922,15.172,4.527,27.291,11.94
			l1.463,0.895c8.203,5.014,16.686,10.199,23.99,17.013c0.043,0.041,0.077,0.082,0.101,0.124c0.071,0.122,0.06,0.251-0.029,0.402
			l-0.156,0.264c-0.096,0.151-0.187,0.299-0.278,0.446c-0.537,0.872-1.044,1.696-1.993,2.289c-0.447,0.279-0.867,0.409-1.346,0.409
			c-0.132,0-0.269-0.01-0.413-0.029c-0.274-0.037-0.561-0.096-0.878-0.181c-0.084-0.023-0.168-0.048-0.252-0.072l-0.18-0.052
			c-0.044-0.012-0.13-0.033-0.218-0.053c-0.251-0.059-0.326-0.079-0.35-0.122c-11.569-4.325-25.076-9.779-37.683-17.442
			c-0.014-0.009-0.026-0.021-0.034-0.035l0,0c-1.338-0.814-2.677-1.678-3.98-2.569c-1.311-0.905-2.614-1.847-3.873-2.8
			c-0.789-0.593-1.57-1.191-2.352-1.79c-0.883-0.677-1.797-1.376-2.703-2.054c-0.009-0.003-0.019-0.008-0.027-0.014
			c-0.472-0.353-0.956-0.694-1.45-1.021c-0.644,0.613-1.362,1.154-2.14,1.604c-1.77,1.022-3.703,1.507-5.613,1.507
			c-3.896,0-7.69-2.02-9.774-5.63c-1.429-2.476-1.861-5.368-1.221-8.152c-0.195-0.086-0.384-0.179-0.586-0.256
			c-0.341-0.131-0.697-0.252-1.056-0.358l-0.111-0.032c-13.792-3.797-14.754-4.384-26.532-11.583l-1.421-0.868
			c-7.974-4.869-16.219-9.904-23.315-16.527c-0.165-0.158-0.187-0.316-0.069-0.515l0.153-0.257c0.093-0.146,0.182-0.291,0.271-0.434
			c0.524-0.85,1.019-1.654,1.943-2.232c0.437-0.274,0.847-0.401,1.316-0.401c0.128,0,0.26,0.009,0.398,0.028
			c0.27,0.036,0.55,0.093,0.854,0.176c0.082,0.022,0.163,0.046,0.245,0.07l0.175,0.051c0.043,0.012,0.128,0.032,0.214,0.052
			c0.236,0.056,0.315,0.085,0.339,0.118c11.249,4.193,24.38,9.482,36.634,16.923c0.014,0.008,0.026,0.02,0.034,0.034
			c1.301,0.792,2.602,1.631,3.868,2.496c1.272,0.878,2.538,1.793,3.764,2.72c0.767,0.577,1.527,1.159,2.288,1.741
			c0.857,0.656,1.743,1.334,2.623,1.992c0.009,0.003,0.019,0.008,0.027,0.014c0.497,0.372,1.009,0.728,1.531,1.07
			c0.543-0.471,1.134-0.894,1.76-1.255c0.649-0.375,1.322-0.674,2.006-0.907c0.004-0.002,0.005-0.006,0.009-0.007
			c4.557-1.312,7.72-6.188,7.752-6.238c0.033-0.048,3.11-4.592,3.727-5.566c0.487-0.768,1.069-0.873,1.349-0.873
			c0.097,0,0.158,0.013,0.167,0.015c0.009,0.002,0.018,0.005,0.026,0.01c0.008,0.004,0.036,0.019,0.053,0.029l24.822-41.904
			c-0.02-0.093-0.021-0.177-0.006-0.254l0.14-1.764c0.001-0.012,0.004-0.023,0.009-0.034l0.016-0.034
			c-0.003-0.021-0.004-0.042,0.006-0.062c0.009-0.016,0.03-0.025,0.041-0.04l8.291-17.957c-0.024,0.011-0.053,0.013-0.077,0.025
			c-0.525,0.265-0.665,0.765-0.667,0.771c-0.008,0.028-0.028,0.052-0.054,0.064c-0.014,0.006-0.028,0.009-0.043,0.009
			c-0.014,0-0.028-0.003-0.042-0.009l-2.377-1.113c-0.005-0.002-0.002-0.009-0.006-0.012c-0.029-0.019-0.052-0.046-0.051-0.082
			l0.039-1.099v-0.001l0-0.004c0.003-0.021,0.048-0.318-0.673-0.733c-0.06-0.035-0.156-0.084-0.282-0.149
			c-6.717-3.443-11.355-9.756-14.062-14.446c-0.047-0.071-4.764-7.794-5.879-20.013c-0.076-0.828-0.304-0.947-0.305-0.949
			l-0.992-0.506c-0.033-0.017-0.046-0.051-0.047-0.085c0-0.004-0.007-0.006-0.007-0.01l0.184-2.618
			c0.002-0.029,0.017-0.056,0.041-0.073c0.017-0.013,0.038-0.019,0.059-0.019c0.008,0,0.016,0.001,0.024,0.003
			c0.002,0.001,0.094,0.023,0.237,0.023c0.194,0,0.48-0.041,0.761-0.23c0.022-0.015,0.039-0.039,0.06-0.055l-19.722-1.489
			c-0.019,0.002-0.036,0.016-0.055,0.016h0c-0.023,0-0.043-0.011-0.06-0.025l-0.034-0.003c-0.012-0.001-0.023-0.004-0.034-0.009
			l-1.607-0.734c-0.075-0.024-0.149-0.066-0.222-0.129l-48.686,1.31c0,0.02-0.001,0.052-0.001,0.061
			c0,0.009-0.002,0.018-0.004,0.028c-0.01,0.034-0.266,0.837-1.488,0.907c-1.151,0.065-6.619,0.545-6.674,0.55c0,0-0.006,0-0.006,0
			l0,0l0,0c-0.121,0.008-5.839,0.414-9.186,3.712c-0.551,0.501-1.156,0.952-1.809,1.343c-0.621,0.372-1.278,0.682-1.953,0.927
			c0.045,0.623,0.107,1.244,0.19,1.859c0.002,0.01,0.001,0.02-0.001,0.031c0.147,1.091,0.31,2.199,0.467,3.271
			c0.138,0.944,0.276,1.888,0.407,2.834c0.214,1.521,0.397,3.07,0.545,4.603c0.001,0.003,0.001,0.007,0.001,0.01
			c0.14,1.524,0.241,3.072,0.299,4.6c0.009,0.013,0.013,0.026,0.013,0.04c0.543,14.325-1.222,28.371-3.029,40.239
			c0.02,0.029,0.005,0.118-0.062,0.355c-0.024,0.085-0.048,0.168-0.058,0.211l-0.041,0.178c-0.019,0.083-0.037,0.166-0.058,0.248
			c-0.077,0.307-0.162,0.58-0.262,0.832c-0.238,0.606-0.585,0.999-1.159,1.316c-0.956,0.527-1.898,0.568-2.896,0.612
			c-0.168,0.007-0.337,0.015-0.507,0.025l-0.302,0.008c-0.007,0-0.014,0-0.021,0c-0.218,0-0.34-0.096-0.395-0.31
			c-2.336-9.418-2.726-19.068-3.103-28.4l-0.068-1.678c-0.561-13.79-0.607-14.916,2.783-28.814l0.026-0.112
			c0.081-0.365,0.149-0.733,0.201-1.096c0.031-0.213,0.042-0.424,0.061-0.636c-2.743-0.795-5.061-2.579-6.529-5.032
			c-0.031-0.051-0.061-0.103-0.091-0.155c-3.065-5.308-1.306-12.136,3.972-15.295c0.771-0.461,1.593-0.825,2.442-1.09
			c-0.046-0.59-0.107-1.179-0.186-1.763c-0.001-0.01-0.001-0.02,0.001-0.031c-0.152-1.127-0.32-2.271-0.482-3.377
			c-0.142-0.968-0.284-1.936-0.418-2.906c-0.001-0.009-0.001-0.017,0-0.026c-0.22-1.54-0.409-3.136-0.562-4.721
			c-0.144-1.566-0.248-3.158-0.31-4.734c-0.009-0.013-0.013-0.027-0.013-0.043c-0.565-14.743,1.238-29.196,3.085-41.409
			c-0.027-0.029-0.006-0.117,0.064-0.367c0.024-0.087,0.048-0.171,0.059-0.215l0.038-0.169c0.02-0.09,0.04-0.18,0.063-0.269
			c0.079-0.316,0.166-0.595,0.268-0.855c0.243-0.622,0.599-1.026,1.188-1.352c0.979-0.541,1.946-0.583,2.969-0.628
			c0.173-0.007,0.347-0.015,0.521-0.025l0.309-0.008c0.007,0,0.014,0,0.021,0c0.167,0,0.279,0.055,0.348,0.175
			c0.023,0.04,0.042,0.087,0.055,0.142c2.403,9.695,2.808,19.627,3.199,29.232l0.07,1.721c0.584,14.192,0.631,15.351-2.839,29.651
			l-0.026,0.115c-0.084,0.379-0.153,0.759-0.205,1.128c-0.042,0.297-0.063,0.591-0.085,0.886c1.332,0.476,2.551,1.199,3.604,2.118
			c0.014,0.005,0.03,0.005,0.041,0.017c0.024,0.024,2.519,2.382,8.995,2.745c2.641,0.094,4.29,0.119,5.296,0.119
			c1.112,0,1.436-0.03,1.442-0.031c0.003,0,0.006,0,0.009,0c0.007,0,0.013,0.001,0.019,0.002c0.145,0.027,1.326,0.262,1.641,0.808
			c0.015,0.027,0.022,0.057,0.033,0.085l48.768-1.31c0.037-0.042,0.075-0.065,0.113-0.098c0.005-0.027,0.019-0.051,0.043-0.066
			l1.501-0.926c0.012-0.007,0.025-0.012,0.039-0.014l4.185-0.578l0.001-0.002c0.019-0.031,0.051-0.048,0.085-0.048
			c0.017,0,0.035,0.005,0.051,0.014c0.006,0.004,0.006,0.011,0.011,0.015l15.736-2.174c-0.252-0.195-0.532-0.254-0.779-0.254
			c-0.376,0-0.678,0.137-0.703,0.149c-0.014,0.007-0.028,0.01-0.043,0.01c-0.018,0-0.036-0.005-0.052-0.015
			c-0.029-0.017-0.047-0.049-0.048-0.083l-0.053-2.377l0-0.001l0-0.004c0-0.004,0.004-0.006,0.005-0.009
			c0.002-0.021,0.006-0.042,0.02-0.059c0.025-0.029,0.625-0.703,1.647-1.012c0.996-0.302,10.237-2.646,10.342-2.672l0,0l0.001,0
			c0.01-0.003,1.45-0.441,2.388-1.673c1.007-1.322,7.917-10.13,11.664-14.857c1.288-1.952,1.124-2.541,0.799-3.714l-0.025-0.089
			c-0.329-1.188-3.62-13.028-3.858-13.884c-0.326-0.865-0.076-1.731,0.014-2.04c0.051-0.174,0.165-0.32,0.322-0.411l1.897-1.1
			c0.015-0.009,0.032-0.013,0.05-0.013c0.011,0,0.023,0.002,0.033,0.006c0.028,0.01,0.051,0.03,0.06,0.059
			c0.001,0.001,0.057,0.15,0.175,0.355c0.183,0.317,0.483,0.706,0.912,0.974l-2.983-6.406l-3.373,2.018
			c-0.015,0.009-0.033,0.014-0.051,0.014c-0.002,0-0.004,0-0.006,0l-1.095-0.053c-0.033-0.001-0.063-0.02-0.08-0.048l-0.274-0.458
			l-20.013,11.977c-0.003,0.002-0.007,0.002-0.01,0.002c-0.001,0-0.002,0-0.003,0c-0.002,0-0.005,0-0.007,0.001l0.646,1.079
			l0.011,0.018c0.364,0.63,0.152,1.446-0.473,1.82l-25.321,15.155c-0.592,0.354-1.244,0.523-1.889,0.523
			c-1.256,0-2.482-0.64-3.173-1.794l-2.511-4.196c-1.001-1.734-0.417-3.982,1.301-5.011l25.321-15.155
			c0.211-0.126,0.447-0.191,0.686-0.191c0.109,0,0.22,0.014,0.328,0.041c0.347,0.088,0.639,0.305,0.823,0.612l0.783,1.309
			c0.005-0.005,0.006-0.013,0.013-0.017l20.013-11.978l-0.209-0.35c-0.011-0.031-0.019-0.062-0.005-0.092l0.505-1.13
			c0.008-0.019,0.022-0.034,0.04-0.045l4.109-2.456l-1.32-2.834c-0.016-0.021-0.037-0.038-0.05-0.062
			c-0.002-0.004-0.004-0.007-0.006-0.01c-0.011-0.02-0.01-0.042-0.007-0.064l-0.015-0.032c-0.005-0.011-0.008-0.022-0.009-0.034
			l-0.147-1.763c-0.016-0.077-0.015-0.162,0.005-0.255l-24.98-41.81c-0.017,0.009-0.045,0.025-0.053,0.029
			c-0.008,0.004-0.017,0.008-0.026,0.01c-0.009,0.002-0.072,0.015-0.171,0.015c-0.282,0-0.861-0.105-1.349-0.868
			c-0.621-0.972-3.716-5.505-3.747-5.55c-0.033-0.051-3.2-4.888-7.741-6.198c-0.706-0.235-1.394-0.541-2.054-0.919
			c-0.628-0.359-1.221-0.78-1.765-1.248c-0.521,0.344-1.032,0.702-1.527,1.076c-0.009,0.006-0.018,0.011-0.027,0.015
			c-0.876,0.66-1.758,1.341-2.612,1.999c-0.759,0.586-1.518,1.172-2.283,1.751c-1.224,0.933-2.485,1.852-3.749,2.73
			c-0.002,0.002-0.004,0.003-0.007,0.005c-1.261,0.868-2.561,1.714-3.864,2.513c-0.007,0.013-0.016,0.024-0.028,0.032
			c-11.478,7.03-27.267,14.73-40.269,19.641c-0.02,0.043-0.102,0.062-0.339,0.119c-0.086,0.02-0.17,0.041-0.213,0.053l-0.17,0.05
			c-0.083,0.025-0.166,0.05-0.25,0.072c-0.306,0.084-0.586,0.142-0.853,0.179c-0.142,0.02-0.277,0.03-0.407,0.03
			c-0.464,0-0.872-0.126-1.308-0.396c-0.926-0.575-1.424-1.377-1.951-2.225c-0.089-0.143-0.178-0.287-0.271-0.431l-0.155-0.258
			c-0.002-0.003-0.003-0.006-0.005-0.009c-0.113-0.195-0.09-0.352,0.072-0.506c7.07-6.65,18.612-14.056,27.878-19.766l0.49-0.303
			c11.752-7.243,12.712-7.835,26.491-11.684l0.11-0.032c0.356-0.107,0.711-0.229,1.055-0.361c0.201-0.078,0.391-0.171,0.585-0.258
			c-0.65-2.781-0.23-5.675,1.19-8.156c2.078-3.631,5.884-5.667,9.796-5.667c1.895,0,3.816,0.479,5.576,1.485
			c0.779,0.446,1.499,0.984,2.146,1.595c0.492-0.329,0.976-0.67,1.446-1.026c0.008-0.006,0.017-0.011,0.027-0.014
			c0.904-0.681,1.814-1.384,2.695-2.063c0.78-0.601,1.559-1.203,2.344-1.798c1.261-0.962,2.561-1.909,3.863-2.814
			c1.299-0.895,2.637-1.766,3.978-2.589c0.007-0.013,0.017-0.024,0.028-0.032c12.76-7.823,28.296-15.562,40.585-20.22
			c0.02-0.044,0.103-0.064,0.347-0.123c0.088-0.022,0.175-0.043,0.219-0.055c0.063-0.018,0.126-0.037,0.189-0.056
			c0.08-0.024,0.161-0.048,0.242-0.071c0.315-0.086,0.602-0.146,0.877-0.185c0.147-0.021,0.287-0.031,0.423-0.031
			c0.475,0,0.893,0.129,1.338,0.404c0.951,0.589,1.461,1.412,2.001,2.282c0.091,0.147,0.183,0.295,0.277,0.442l0.159,0.265
			c0.002,0.003,0.003,0.006,0.005,0.009c0.115,0.199,0.092,0.359-0.073,0.518c-8.796,8.269-22.405,16.97-27.848,20.327l-0.507,0.313
			c-12.09,7.458-13.077,8.068-27.245,12.043l-0.113,0.034c-0.371,0.112-0.736,0.238-1.085,0.373c-0.28,0.108-0.547,0.235-0.814,0.36
			c0.237,1.394,0.203,2.811-0.081,4.18c0.003,0.015,0.01,0.029,0.006,0.044c-0.009,0.033-0.844,3.363,2.011,9.187
			c2.553,4.949,3.217,5.908,3.223,5.918c0.006,0.008,0.009,0.016,0.013,0.025c0.05,0.147,0.448,1.387,0.039,1.892l25.023,41.885
			c0.054,0.012,0.094,0.034,0.142,0.05c0.01-0.003,0.021-0.005,0.032-0.005c0.016,0,0.031,0.004,0.046,0.012l1.542,0.854
			c0.012,0.007,0.023,0.016,0.031,0.027l1.873,2.477l4.668-2.793c0.015-0.009,0.033-0.014,0.051-0.014c0.002,0,0.005,0,0.007,0
			l1.358,0.097c0.033,0.002,0.062,0.02,0.079,0.048l0.196,0.327c0.005-0.005,0.006-0.013,0.012-0.016l19.415-11.619
			c0.003-0.002,0.007-0.002,0.011-0.002c0,0,0.002,0,0.002,0c0.003,0,0.005,0,0.008-0.001l-0.646-1.079l0,0
			c-0.374-0.648-0.162-1.464,0.462-1.838l26.004-15.564c0.592-0.354,1.244-0.523,1.889-0.523c1.256,0,2.482,0.64,3.173,1.794
			l2.511,4.196c1.001,1.734,0.417,3.982-1.301,5.011l-26.004,15.564c-0.215,0.129-0.452,0.19-0.686,0.19
			c-0.456,0-0.901-0.232-1.152-0.651l-0.783-1.309c-0.005,0.005-0.006,0.013-0.013,0.017l-19.415,11.62
			c-0.003,0.002-0.007,0.002-0.01,0.002c-0.001,0-0.002,0-0.003,0c-0.003,0-0.005,0-0.008,0.001l0.311,0.521l0.001,0.001
			c0.014,0.024,0.017,0.053,0.009,0.08l-0.331,1.026c-0.007,0.023-0.023,0.042-0.044,0.055l-4.051,2.424l4.604,6.09
			c0.096-0.694-0.205-1.399-0.459-1.839l0,0c-0.183-0.317-0.349-0.521-0.351-0.523c-0.017-0.021-0.026-0.05-0.022-0.078
			c0.004-0.028,0.02-0.053,0.043-0.068l1.789-1.196c0.016-0.011,0.036-0.017,0.055-0.017c0.004,0,0.008,0,0.012,0.001
			c0.067,0.008,1.392,0.178,2.187,0.849c0.008-0.001,0.015-0.002,0.023-0.002c0.022,0,0.044,0.006,0.061,0.023l11.087,10.349
			c0.005,0.004,0.643,0.529,2.038,0.529c0.278,0,0.586-0.021,0.925-0.071c0.61-0.09,2.157-0.344,4.115-0.666
			c4.863-0.799,12.211-2.007,14.159-2.17c2.223-0.275,3.776-1.772,4.07-2.158c0.254-0.334,4.176-4.636,5.85-6.469
			c0.331-0.362,0.721-0.659,1.16-0.882l1.921-0.976c0.002-0.001,0.004-0.001,0.007-0.001c0.002,0,0.005,0,0.008,0
			c0.002,0,0.003,0,0.005-0.001c0.01-0.003,0.02-0.005,0.029-0.005c0.004,0,0.009,0,0.013,0.001
			c0.009,0.002,0.016,0.005,0.025,0.009c0.007,0.003,0.015,0.003,0.021,0.007l1.624,1.293c0.021,0.017,0.035,0.042,0.037,0.07
			c0.002,0.027-0.007,0.055-0.025,0.075c-0.027,0.03-0.503,0.572-0.455,1.345l11.806-16.137c0.01-0.021,0.011-0.047,0.023-0.067
			c0.013-0.02,0.032-0.03,0.053-0.037l0.022-0.03c0.007-0.009,0.015-0.018,0.025-0.024l1.496-0.996
			c0.061-0.052,0.137-0.094,0.23-0.123l24.984-42.67c-0.017-0.011-0.045-0.028-0.052-0.033c-0.008-0.005-0.015-0.011-0.021-0.018
			c-0.023-0.028-0.579-0.674,0.016-1.764c0.561-1.027,3.08-5.996,3.105-6.046c0.027-0.051,2.452-4.609,1.885-9.022
			c-0.219-0.793-0.362-1.613-0.405-2.455c-0.038-0.735,0.002-1.471,0.104-2.192c-0.56-0.226-1.127-0.436-1.696-0.628
			c-0.01-0.004-0.02-0.008-0.028-0.015c-1.079-0.364-2.181-0.723-3.246-1.069c-0.939-0.305-1.878-0.611-2.814-0.924
			c-0.008-0.003-0.016-0.007-0.023-0.012c-1.481-0.487-3.001-1.028-4.495-1.596c-0.003-0.001-0.005-0.002-0.008-0.003
			c-1.474-0.568-2.954-1.184-4.4-1.83c-0.003,0-0.007,0.001-0.01,0.001c-0.011,0-0.023-0.002-0.034-0.007
			c-13.527-6.057-25.73-14.096-35.893-21.178c-0.003,0.001-0.006,0.001-0.009,0.001c-0.047,0-0.113-0.06-0.288-0.217
			c-0.068-0.061-0.134-0.121-0.17-0.15l-0.145-0.118c-0.068-0.055-0.136-0.11-0.203-0.167c-0.249-0.211-0.462-0.414-0.649-0.619
			c-0.451-0.495-0.656-0.992-0.685-1.661c-0.047-1.114,0.348-1.995,0.767-2.927c0.071-0.158,0.142-0.316,0.211-0.477l0.131-0.28
			C193.984,9.579,194.095,9.498,194.253,9.498 M194.253,7.498c-0.938,0-1.745,0.523-2.158,1.398l-0.134,0.286
			c-0.008,0.018-0.016,0.036-0.024,0.054c-0.066,0.152-0.133,0.303-0.201,0.453c-0.472,1.051-1.008,2.244-0.94,3.831
			c0.048,1.13,0.442,2.087,1.205,2.924c0.246,0.27,0.519,0.531,0.834,0.798c0.073,0.062,0.149,0.123,0.225,0.185l0.155,0.126
			l0.084,0.076c0.178,0.16,0.398,0.358,0.687,0.509c10.18,7.087,22.408,15.132,36.033,21.232c0.064,0.029,0.132,0.054,0.201,0.077
			c1.432,0.636,2.891,1.242,4.34,1.8c0.013,0.005,0.026,0.01,0.04,0.015c1.505,0.572,3.007,1.106,4.465,1.587
			c0.014,0.006,0.028,0.011,0.042,0.016c0.021,0.008,0.043,0.016,0.065,0.023c0.942,0.315,1.886,0.622,2.829,0.929
			c1.044,0.34,2.094,0.681,3.125,1.029c0.034,0.014,0.069,0.028,0.102,0.039c0.083,0.028,0.165,0.056,0.247,0.085
			c-0.007,0.321-0.003,0.639,0.013,0.952c0.047,0.903,0.193,1.822,0.434,2.735c0.414,3.692-1.661,7.659-1.682,7.699l-0.065,0.126
			c-1.582,3.117-2.715,5.323-3.031,5.901c-0.533,0.976-0.604,1.9-0.438,2.659l-24.197,41.326l-1.371,0.913l0,0
			c-0.081,0.054-0.16,0.116-0.235,0.184c-0.17,0.137-0.317,0.302-0.438,0.489c-0.029,0.044-0.056,0.092-0.082,0.141l-9.598,13.119
			l-0.403-0.321c-0.185-0.148-0.402-0.264-0.629-0.339c-0.11-0.038-0.224-0.067-0.331-0.085c-0.111-0.019-0.229-0.029-0.345-0.029
			c-0.077,0-0.159,0.005-0.241,0.015c-0.244,0.024-0.484,0.093-0.702,0.203l-1.932,0.981c-0.656,0.334-1.238,0.776-1.731,1.316
			c-5.627,6.163-5.873,6.486-5.965,6.607c-0.194,0.229-1.264,1.191-2.69,1.38c-2.095,0.184-9.415,1.388-14.271,2.186
			c-1.787,0.294-3.475,0.571-4.082,0.661c-0.223,0.033-0.436,0.049-0.634,0.049c-0.449,0-0.712-0.084-0.821-0.129l-10.938-10.211
			c-0.148-0.138-0.314-0.253-0.492-0.342c-1.174-0.814-2.614-1.018-2.913-1.053c-0.076-0.009-0.165-0.014-0.242-0.014
			c-0.416,0-0.818,0.122-1.165,0.353l-0.957,0.64l-0.598-0.791l2.139-1.28c0.44-0.263,0.768-0.678,0.923-1.167l0.328-1.015
			c0.025-0.081,0.046-0.163,0.061-0.245l16.508-9.88c0.629,0.767,1.583,1.229,2.59,1.229c0.602,0,1.194-0.164,1.712-0.473
			l26.005-15.564c2.65-1.587,3.55-5.053,2.006-7.727l-2.527-4.223c-1.021-1.707-2.895-2.767-4.889-2.767
			c-1.026,0-2.034,0.279-2.916,0.807l-26.004,15.564c-1.345,0.806-1.918,2.442-1.459,3.891l-16.755,10.027
			c-0.054-0.008-0.109-0.014-0.164-0.017l-1.349-0.096c-0.047-0.003-0.102-0.005-0.149-0.005c-0.383,0-0.758,0.104-1.085,0.302
			l-3.12,1.867l-0.79-1.045c-0.172-0.228-0.422-0.443-0.673-0.579l-1.332-0.738l-24.242-40.579c0.091-0.853-0.12-1.704-0.308-2.257
			c-0.008-0.024-0.018-0.05-0.027-0.074c-0.047-0.123-0.111-0.25-0.185-0.369l0.001,0c-0.012-0.019-0.025-0.039-0.037-0.057
			c-0.028-0.042-0.704-1.065-3.103-5.717c-2.374-4.844-1.87-7.669-1.843-7.802c0.026-0.107,0.043-0.215,0.051-0.323
			c0.196-1.024,0.271-2.055,0.225-3.082c0.109-0.036,0.22-0.071,0.33-0.104l0.105-0.031c14.41-4.044,15.671-4.821,27.727-12.259
			l0.507-0.313c5.494-3.388,19.237-12.177,28.167-20.572c0.848-0.811,1.013-1.974,0.436-2.975l-0.18-0.302
			c-0.01-0.017-0.021-0.035-0.032-0.052c-0.089-0.139-0.175-0.278-0.261-0.416c-0.609-0.981-1.298-2.092-2.648-2.928
			c-0.766-0.474-1.548-0.704-2.392-0.704c-0.225,0-0.46,0.017-0.699,0.05c-0.361,0.05-0.731,0.127-1.128,0.236
			c-0.103,0.029-0.195,0.056-0.287,0.083l-0.168,0.05l-0.096,0.023c-0.001,0-0.049,0.012-0.05,0.012
			c-0.186,0.045-0.47,0.113-0.763,0.265c-12.365,4.705-27.954,12.478-40.738,20.315c-0.06,0.037-0.12,0.078-0.177,0.123
			c-1.317,0.812-2.635,1.671-3.918,2.556c-1.337,0.93-2.66,1.894-3.941,2.871c-0.784,0.595-1.568,1.2-2.352,1.804
			c-0.859,0.663-1.731,1.336-2.598,1.99c-0.031,0.021-0.062,0.041-0.09,0.063c-0.052,0.04-0.105,0.079-0.158,0.118
			c-0.403-0.296-0.821-0.568-1.252-0.815c-2-1.145-4.272-1.75-6.569-1.75c-4.757,0-9.175,2.557-11.532,6.673
			c-1.375,2.402-1.956,5.139-1.69,7.86l-0.08,0.024c-14.023,3.917-15.249,4.673-26.974,11.9l-0.491,0.303
			c-9.346,5.759-20.998,13.239-28.198,20.011c-0.844,0.805-1.01,1.964-0.434,2.963l0.177,0.296c0.011,0.018,0.022,0.036,0.033,0.053
			c0.087,0.135,0.17,0.27,0.254,0.404c0.596,0.96,1.272,2.047,2.595,2.869c0.757,0.469,1.529,0.697,2.363,0.697
			c0.22,0,0.449-0.016,0.681-0.048c0.353-0.048,0.716-0.124,1.108-0.231c0.08-0.021,0.172-0.048,0.263-0.075l0.193-0.057
			l0.109-0.025c0.189-0.046,0.47-0.113,0.759-0.261c13.069-4.952,28.919-12.689,40.432-19.74c0.06-0.037,0.119-0.078,0.177-0.123
			c1.279-0.788,2.558-1.622,3.805-2.48l0,0c0.008-0.006,0.016-0.011,0.024-0.017c1.285-0.894,2.566-1.827,3.81-2.775
			c0.727-0.551,1.453-1.111,2.18-1.671l0.111-0.086c0.822-0.634,1.671-1.289,2.515-1.926c0.03-0.02,0.059-0.04,0.086-0.06
			c0.096-0.073,0.193-0.145,0.291-0.217c0.269,0.181,0.544,0.353,0.825,0.513c0.765,0.438,1.578,0.802,2.415,1.081
			c0.026,0.009,0.052,0.017,0.078,0.024c3.774,1.088,6.593,5.327,6.621,5.37l0.093,0.137c1.965,2.88,3.293,4.847,3.644,5.397
			c0.534,0.835,1.271,1.409,2.1,1.655l24.18,40.47l0.134,1.606c0.008,0.096,0.025,0.197,0.048,0.297
			c0.039,0.218,0.114,0.429,0.223,0.627c0.008,0.015,0.016,0.029,0.025,0.044c0.019,0.033,0.038,0.064,0.057,0.094l0.473,1.016
			l-2.56,1.53c-0.383,0.231-0.673,0.563-0.848,0.964l-0.497,1.111c-0.029,0.063-0.054,0.128-0.076,0.194l-17.254,10.327
			c-0.451-0.556-1.067-0.949-1.773-1.128c-0.27-0.068-0.544-0.102-0.818-0.102c-0.603,0-1.195,0.164-1.714,0.475l-25.32,15.154
			c-2.65,1.586-3.55,5.053-2.006,7.727l2.527,4.223c1.022,1.707,2.895,2.767,4.889,2.767c1.026,0,2.034-0.279,2.916-0.807
			l25.321-15.155c1.35-0.809,1.926-2.448,1.462-3.893l17.182-10.283c0.143,0.038,0.291,0.06,0.442,0.067l1.089,0.053
			c0.032,0.002,0.07,0.003,0.103,0.003c0.381,0,0.755-0.104,1.082-0.3l1.465-0.877l0.507,1.089l-0.778,0.451
			c-0.604,0.351-1.044,0.913-1.239,1.583c-0.128,0.438-0.511,1.754,0,3.208c0.363,1.307,3.515,12.648,3.837,13.809l0.026,0.092
			c0.231,0.832,0.244,0.881-0.494,2.002c-3.756,4.739-10.619,13.488-11.633,14.819c-0.412,0.541-1.089,0.867-1.361,0.965
			c-0.894,0.227-9.353,2.373-10.359,2.679c-1.525,0.461-2.417,1.43-2.581,1.62c-0.156,0.177-0.357,0.477-0.452,0.897
			c-0.042,0.171-0.062,0.348-0.057,0.526l0.023,1.01l-12.027,1.662c-0.038-0.002-0.077-0.003-0.115-0.003
			c-0.232,0-0.459,0.039-0.674,0.112l-3.872,0.535c-0.273,0.038-0.574,0.145-0.809,0.289l-1.319,0.814l-47.242,1.269
			c-0.711-0.502-1.57-0.733-2.129-0.837c-0.12-0.022-0.262-0.035-0.384-0.035c-0.06,0-0.128,0.003-0.187,0.008
			c-0.046,0.003-0.37,0.023-1.263,0.023c-0.876,0-2.494-0.02-5.224-0.117c-5.39-0.302-7.606-2.128-7.707-2.213
			c-0.08-0.074-0.165-0.142-0.255-0.202c-0.798-0.673-1.66-1.243-2.578-1.706c0.022-0.113,0.046-0.226,0.071-0.34l0.024-0.103
			c3.531-14.547,3.47-16.027,2.888-30.179l-0.07-1.721c-0.396-9.705-0.805-19.74-3.256-29.632c-0.06-0.239-0.148-0.46-0.264-0.661
			c-0.425-0.736-1.203-1.175-2.081-1.175c-0.017,0-0.055,0.001-0.073,0.001l-0.312,0.008c-0.021,0.001-0.042,0.002-0.063,0.003
			c-0.164,0.01-0.327,0.017-0.489,0.024c-1.154,0.051-2.461,0.108-3.851,0.875c-0.992,0.549-1.673,1.325-2.084,2.375
			c-0.133,0.341-0.247,0.701-0.346,1.101c-0.025,0.101-0.05,0.208-0.074,0.316l-0.037,0.162l-0.033,0.115
			c-0.051,0.179-0.13,0.461-0.144,0.79c-1.848,12.24-3.65,26.737-3.079,41.605c0.003,0.07,0.01,0.141,0.02,0.212
			c0.064,1.56,0.169,3.13,0.31,4.671c0.156,1.617,0.345,3.208,0.562,4.739c0.004,0.05,0.01,0.099,0.018,0.146
			c0.127,0.927,0.27,1.9,0.413,2.874c0.158,1.077,0.319,2.172,0.465,3.253c0.003,0.052,0.009,0.102,0.016,0.151
			c0.007,0.052,0.014,0.105,0.021,0.158c-0.455,0.206-0.898,0.438-1.324,0.693c-6.178,3.698-8.276,11.778-4.677,18.011l0.104,0.177
			c1.424,2.379,3.527,4.226,6.029,5.327l-0.017,0.075c-3.451,14.149-3.393,15.588-2.833,29.347l0.068,1.678
			c0.381,9.432,0.775,19.185,3.16,28.801c0.289,1.118,1.204,1.829,2.336,1.829c0.017,0,0.055-0.001,0.072-0.001l0.307-0.009
			c0.021-0.001,0.042-0.001,0.063-0.003c0.159-0.009,0.317-0.016,0.475-0.023c1.13-0.05,2.41-0.106,3.775-0.859
			c0.977-0.538,1.65-1.303,2.056-2.337c0.13-0.33,0.243-0.684,0.341-1.078c0.021-0.083,0.042-0.176,0.063-0.268l0.044-0.191
			l0.033-0.113c0.052-0.186,0.131-0.462,0.144-0.786c1.808-11.896,3.571-25.982,3.023-40.431c-0.003-0.07-0.01-0.142-0.02-0.213
			c-0.061-1.504-0.162-3.028-0.299-4.533h0c-0.001-0.011-0.002-0.021-0.003-0.031c-0.151-1.561-0.337-3.135-0.554-4.678
			c-0.13-0.945-0.269-1.894-0.408-2.842c-0.151-1.034-0.308-2.1-0.45-3.151c-0.003-0.051-0.009-0.101-0.016-0.149
			c-0.014-0.103-0.028-0.208-0.041-0.316c0.29-0.146,0.574-0.302,0.851-0.468c0.757-0.453,1.473-0.985,2.127-1.579
			c0.02-0.018,0.039-0.037,0.059-0.056c2.798-2.757,7.864-3.138,7.915-3.141c0.004,0,0.008-0.001,0.012-0.001
			c0.013-0.001,0.025-0.002,0.038-0.003c0.054-0.005,5.496-0.482,6.611-0.545c1.108-0.063,1.924-0.485,2.476-1.021l47.122-1.268
			l1.466,0.67c0.085,0.039,0.178,0.073,0.274,0.101c0.216,0.076,0.444,0.115,0.678,0.116c0.002,0,0.005,0,0.007,0
			c0.044,0,0.088-0.002,0.133-0.005l16.361,1.235l-0.075,1.073c-0.012,0.176-0.001,0.35,0.032,0.52
			c0.108,0.627,0.515,1.193,1.105,1.496l0.242,0.124c1.139,11.874,5.54,19.601,6.114,20.563l-0.001,0
			c2.821,4.885,7.657,11.46,14.72,15.142l-0.008,0.218c-0.016,0.619,0.224,1.186,0.656,1.592c0.157,0.154,0.339,0.283,0.542,0.379
			l0.984,0.461l-6.877,14.895c-0.028,0.043-0.054,0.087-0.078,0.132c-0.083,0.152-0.168,0.355-0.215,0.6
			c-0.028,0.114-0.046,0.226-0.054,0.339l-0.127,1.595l-24.026,40.56c-0.828,0.249-1.563,0.826-2.094,1.664
			c-0.521,0.822-3.046,4.559-3.694,5.515c-0.01,0.015-0.02,0.03-0.03,0.045c-0.022,0.034-2.835,4.303-6.62,5.392
			c-0.073,0.021-0.145,0.046-0.215,0.076c-0.786,0.275-1.541,0.621-2.247,1.029c-0.279,0.161-0.554,0.334-0.822,0.516
			c-0.092-0.067-0.181-0.133-0.27-0.199c-0.036-0.027-0.074-0.053-0.114-0.079c-0.816-0.612-1.637-1.24-2.435-1.85l-0.085-0.065
			c-0.784-0.6-1.539-1.178-2.301-1.751c-1.246-0.942-2.536-1.875-3.83-2.768c-1.26-0.861-2.545-1.691-3.83-2.476
			c-0.064-0.049-0.131-0.094-0.197-0.133c-12.335-7.491-25.502-12.802-36.776-17.008c-0.286-0.145-0.56-0.21-0.75-0.254
			l-0.143-0.034l-0.148-0.043c-0.086-0.025-0.184-0.054-0.282-0.08c-0.385-0.104-0.748-0.178-1.107-0.226
			c-0.225-0.03-0.449-0.046-0.663-0.046c-0.841,0-1.619,0.231-2.378,0.706c-1.32,0.826-1.991,1.916-2.583,2.877
			c-0.084,0.136-0.168,0.273-0.256,0.411c-0.011,0.018-0.022,0.036-0.033,0.054l-0.153,0.257c-0.595,1.005-0.435,2.174,0.406,2.98
			c7.263,6.78,15.597,11.868,23.656,16.789l1.421,0.868c11.751,7.182,12.98,7.933,27.044,11.804l0.053,0.016
			c-0.255,2.722,0.336,5.456,1.72,7.853c2.361,4.089,6.77,6.63,11.506,6.63c2.315,0,4.602-0.614,6.613-1.775
			c0.431-0.249,0.848-0.522,1.25-0.82c0.047,0.035,0.095,0.07,0.141,0.105c0.036,0.027,0.074,0.053,0.114,0.079
			c0.872,0.653,1.749,1.325,2.599,1.976c0.787,0.602,1.573,1.204,2.366,1.801c1.279,0.968,2.606,1.927,3.939,2.847
			c1.292,0.883,2.611,1.736,3.93,2.542c0.051,0.039,0.102,0.076,0.154,0.108c12.736,7.742,26.272,13.217,37.863,17.554
			c0.292,0.15,0.577,0.217,0.777,0.265l0.153,0.037l0.144,0.042c0.122,0.036,0.208,0.061,0.294,0.084
			c0.398,0.107,0.768,0.183,1.128,0.232c0.23,0.031,0.46,0.047,0.68,0.047c0.85,0,1.637-0.233,2.405-0.712
			c1.347-0.841,2.032-1.954,2.637-2.936c0.087-0.142,0.173-0.281,0.262-0.422c0.011-0.018,0.022-0.036,0.033-0.054l0.156-0.264
			c0.457-0.772,0.471-1.677,0.041-2.422c-0.118-0.205-0.271-0.398-0.452-0.57c-7.47-6.97-16.04-12.208-24.328-17.273l-1.463-0.895
			c-12.084-7.392-13.347-8.165-27.801-12.162l-0.086-0.025c-0.108-0.032-0.215-0.066-0.323-0.101
			c0.042-1.034-0.038-2.073-0.241-3.104c-0.009-0.101-0.024-0.201-0.048-0.298c-0.022-0.111-0.552-2.938,1.831-7.847
			c2.355-4.608,3.032-5.645,3.06-5.687l0,0c0.103-0.154,0.194-0.339,0.252-0.511c0.179-0.532,0.397-1.396,0.304-2.263l24.084-40.661
			l1.346-0.753c0.242-0.135,0.484-0.346,0.651-0.568l2.315-3.091c0.056-0.049,0.11-0.101,0.162-0.156
			c0.154-0.165,0.28-0.355,0.373-0.559l7.248-9.677l0.909,0.533c0.173,0.101,0.36,0.176,0.554,0.221
			c0.169,0.044,0.341,0.066,0.517,0.066c0.137,0,0.286-0.015,0.421-0.043c0.255-0.055,1.534-0.372,2.667-1.467
			c0.675-0.652,5.381-5.632,7.376-7.746c0.216-0.189,0.832-0.625,1.507-0.722c1.653-0.238,12.627-1.979,18.595-2.957
			c0.261-0.018,0.494-0.028,0.694-0.028c0.73,0,0.73,0,1.308,0.57l0.061,0.061c0.859,0.847,9.169,9.051,10.191,10.059
			c1.023,1.165,2.369,1.472,2.818,1.574c0.199,0.045,0.401,0.068,0.602,0.068c0.488,0,0.967-0.132,1.385-0.383l0.767-0.457
			l0.705,0.972l-1.48,0.854c-0.36,0.208-0.648,0.515-0.833,0.889l-0.485,0.982c-0.066,0.133-0.118,0.272-0.154,0.413l-17.341,10.012
			c-0.625-0.668-1.509-1.063-2.445-1.063c-0.584,0-1.161,0.155-1.668,0.447l-25.556,14.755c-2.717,1.569-3.652,5.056-2.083,7.773
			l2.416,4.184c1.013,1.754,2.904,2.844,4.934,2.844c0.994,0,1.976-0.263,2.839-0.762l25.556-14.755
			c0.772-0.446,1.325-1.166,1.556-2.029c0.189-0.704,0.144-1.434-0.122-2.099l17.414-10.054c0.065,0.012,0.131,0.022,0.198,0.028
			l1.241,0.108c0.058,0.005,0.125,0.008,0.183,0.008c0.368,0,0.731-0.097,1.049-0.281l2.584-1.492l0.657,0.906
			c0.01,0.018,0.02,0.037,0.031,0.055c0.009,0.016,0.024,0.041,0.034,0.057c0.097,0.156,0.233,0.333,0.422,0.496
			c0.082,0.078,0.168,0.147,0.26,0.209l1.348,0.904l23.6,40.805c-0.168,0.751-0.099,1.667,0.427,2.644
			c0.532,0.986,2.975,5.872,2.999,5.92c0.008,0.016,0.016,0.032,0.025,0.048c0.019,0.037,2.349,4.555,1.467,8.381
			c-0.006,0.026-0.011,0.052-0.016,0.078c-0.164,0.87-0.242,1.759-0.232,2.642c0.004,0.322,0.019,0.646,0.047,0.969
			c-0.103,0.047-0.205,0.093-0.306,0.138c-0.016,0.007-0.031,0.014-0.047,0.021c-0.026,0.012-0.052,0.025-0.078,0.039
			c-0.965,0.427-1.947,0.849-2.899,1.258c-0.9,0.386-1.78,0.764-2.658,1.151c-1.424,0.621-2.87,1.29-4.289,1.985
			c-1.355,0.671-2.707,1.383-4.028,2.123c-0.074,0.031-0.144,0.066-0.21,0.105c-11.738,6.617-26.199,16.698-36.88,25.707
			c-0.271,0.18-0.468,0.393-0.606,0.544l-0.106,0.114l-0.096,0.094c-0.068,0.066-0.144,0.141-0.218,0.217
			c-0.281,0.288-0.523,0.567-0.737,0.851c-0.667,0.888-0.966,1.861-0.913,2.974c0.075,1.557,0.696,2.675,1.244,3.662
			c0.079,0.142,0.156,0.28,0.233,0.423c0.01,0.018,0.02,0.037,0.031,0.055l0.15,0.259c0.443,0.764,1.211,1.218,2.057,1.218
			c0.247,0,0.497-0.039,0.745-0.115c9.439-3.004,21.64-9.547,31.218-14.913l0.504-0.282c12.017-6.731,13.274-7.434,23.535-17.801
			l0.04-0.039c2.203,1.523,4.82,2.347,7.529,2.347l0.161-0.001c3.538-0.042,6.851-1.463,9.328-4
			c2.478-2.537,3.819-5.883,3.776-9.421c-0.006-0.497-0.04-0.995-0.103-1.491c0.054-0.024,0.108-0.048,0.161-0.072
			c0.016-0.007,0.032-0.015,0.048-0.022c0.026-0.012,0.052-0.025,0.078-0.039c0.948-0.419,1.914-0.834,2.852-1.238l0.144-0.062
			c0.909-0.39,1.818-0.781,2.725-1.18c1.474-0.643,2.96-1.33,4.412-2.041c1.395-0.69,2.787-1.423,4.148-2.185
			c0.074-0.031,0.145-0.067,0.211-0.105c13.038-7.343,27.398-17.174,37.518-25.684c0.279-0.18,0.482-0.401,0.635-0.567l0.104-0.112
			l0.109-0.106c0.072-0.07,0.146-0.143,0.219-0.217c0.286-0.291,0.533-0.576,0.754-0.869c0.68-0.9,0.984-1.888,0.931-3.019
			c-0.074-1.587-0.71-2.729-1.271-3.738c-0.079-0.143-0.159-0.286-0.238-0.433c-0.009-0.017-0.019-0.034-0.029-0.051l-0.153-0.267
			c-0.445-0.769-1.216-1.225-2.064-1.225c-0.251,0-0.506,0.04-0.757,0.118c-11.688,3.723-26.052,11.458-31.686,14.611l-0.519,0.29
			c-12.362,6.917-13.654,7.64-24.216,18.285l-0.069,0.068c-0.078,0.076-0.159,0.152-0.241,0.227
			c-0.881-0.543-1.826-0.981-2.824-1.309c-0.093-0.042-0.188-0.078-0.285-0.105c-0.098-0.031-2.826-0.949-5.945-5.438
			c-2.855-4.295-3.444-5.421-3.468-5.467c-0.024-0.047-0.054-0.099-0.082-0.144l0,0c-0.066-0.107-0.141-0.209-0.221-0.298
			c-0.381-0.422-1.028-1.034-1.831-1.376l-23.668-40.919l0.003-1.542c0-0.276-0.064-0.588-0.174-0.841l-0.534-1.209l3.156-1.822
			c0.373-0.216,0.667-0.535,0.85-0.925l0.578-1.239c0.022-0.047,0.042-0.095,0.06-0.143l16.908-9.762
			c0.625,0.668,1.51,1.063,2.445,1.063c0.584,0,1.161-0.155,1.667-0.447l26.246-15.153c1.315-0.759,2.256-1.987,2.65-3.456
			c0.394-1.469,0.192-3.003-0.567-4.318l-2.415-4.184c-1.013-1.755-2.904-2.844-4.934-2.845c-0.994,0-1.976,0.263-2.839,0.762
			l-26.246,15.153c-1.453,0.839-2.037,2.612-1.433,4.127l-16.659,9.618c-0.074-0.024-0.15-0.045-0.228-0.061l-1.076-0.213
			c-0.128-0.025-0.276-0.04-0.407-0.04c-0.367,0-0.729,0.097-1.048,0.28l-2.162,1.248l-0.4-0.907l1.022-0.524
			c0.446-0.229,0.795-0.609,0.984-1.071c0.113-0.272,0.637-1.632,0.495-3.057c0.008-0.198-0.012-0.398-0.061-0.596l-3.601-14.52
			c0.018-0.164,0.117-0.63,0.638-1.309c0.355-0.464,1.289-1.64,2.471-3.129l0.1-0.126c4.042-5.094,7.759-9.797,8.84-11.394
			c0.862-1.158,2.223-1.625,2.543-1.688c0.114-0.016,0.537-0.077,8.648-1.995c0.714-0.168,1.385-0.463,1.994-0.874l1.785-1.203
			c0.155-0.104,0.295-0.231,0.416-0.375c0.163-0.187,0.295-0.411,0.383-0.657c0.037-0.104,0.067-0.218,0.088-0.334
			c0.046-0.237,0.05-0.486,0.01-0.722l-0.084-0.505l16.126-2.006c0.012,0,0.024,0,0.036,0c0.048,0,0.099-0.002,0.146-0.005
			c0.162-0.009,0.377-0.045,0.613-0.138c0.089-0.03,0.174-0.065,0.257-0.106l1.496-0.77l47.876-1.045
			c0.583,0.514,1.425,0.902,2.536,0.911c0.663,0.005,3.147,0.088,6.646,0.222l0.096,0.004c0.087,0.002,5.261,0.138,8.227,2.796
			c0.021,0.019,0.042,0.037,0.063,0.054c0.688,0.567,1.436,1.067,2.222,1.487c0.291,0.156,0.59,0.301,0.893,0.435
			c-0.009,0.119-0.019,0.236-0.029,0.351c-0.002,0.017-0.003,0.034-0.004,0.051c-0.002,0.028-0.003,0.057-0.004,0.087
			c-0.097,1.067-0.207,2.149-0.313,3.196l-0.016,0.162c-0.093,0.916-0.185,1.832-0.27,2.75c-0.15,1.571-0.269,3.179-0.351,4.773
			c-0.072,1.535-0.105,3.08-0.099,4.604c-0.007,0.061-0.01,0.122-0.011,0.18c0.1,14.949,1.522,30.089,4.005,42.699
			c0.027,0.328,0.119,0.605,0.181,0.789l0.016,0.049l0.034,0.104l0.037,0.134c0.024,0.09,0.053,0.194,0.084,0.297
			c0.115,0.384,0.244,0.736,0.392,1.067c0.458,1.021,1.172,1.758,2.182,2.251c1.283,0.628,2.505,0.68,3.55,0.68l0.301-0.001
			l0.286-0.001l0.206,0.001c0.006,0,0.013,0,0.019,0c0.013,0,0.026,0,0.039,0l0.304-0.006c1.176-0.027,2.086-0.782,2.324-1.925
			c2.488-12.343,2.814-25.552,2.787-32.328l-0.002-0.586c-0.055-13.945-0.06-15.403-4.206-29.563l-0.021-0.076
			c2.492-1.232,4.544-3.202,5.879-5.677c1.707-3.163,2.077-6.795,1.043-10.227c-0.3-0.994-0.712-1.95-1.227-2.84
			c-1.238-2.145-3.06-3.902-5.268-5.081c-0.277-0.148-0.563-0.287-0.857-0.417c0.008-0.078,0.017-0.155,0.026-0.232
			c0.005-0.043,0.008-0.087,0.01-0.132c0.124-1.088,0.262-2.191,0.395-3.259c0.123-0.99,0.247-1.979,0.361-2.971
			c0.192-1.611,0.351-3.249,0.472-4.861c0.111-1.556,0.182-3.135,0.214-4.701c0.009-0.07,0.015-0.14,0.016-0.208
			c0.264-14.945-1.829-29.445-3.924-41.68c-0.019-0.328-0.104-0.607-0.16-0.795l-0.044-0.147l-0.038-0.155
			c-0.029-0.118-0.051-0.207-0.075-0.295c-0.106-0.394-0.227-0.753-0.368-1.093c-0.089-0.214-0.184-0.409-0.293-0.596
			c-0.43-0.745-1.032-1.312-1.842-1.735c-1.409-0.736-2.716-0.757-3.869-0.776c-0.163-0.003-0.327-0.005-0.496-0.011
			c-0.021-0.001-0.041-0.001-0.062-0.001l-0.306,0c-1.174,0.002-2.101,0.739-2.365,1.879c-2.245,10.01-2.448,20.095-2.643,29.848
			l-0.035,1.726c-0.29,14.223-0.32,15.71,3.507,30.24l0.02,0.082c0.011,0.046,0.022,0.092,0.033,0.139
			c-0.99,0.539-1.943,1.202-2.818,1.962c-0.213,0.104-0.409,0.243-0.577,0.414c-0.098,0.091-2.269,2.058-7.78,2.635
			c-4.546,0.383-6.104,0.413-6.473,0.413l-0.074-0.001c-0.027-0.001-0.053-0.002-0.079-0.002c-0.151,0-0.326,0.02-0.474,0.054
			c-0.583,0.137-1.434,0.415-2.118,0.954l-47.998,1.05l-1.374-0.758c-0.234-0.129-0.531-0.222-0.796-0.25l-3.95-0.344
			c-0.197-0.06-0.403-0.092-0.615-0.092c-0.087,0-0.172,0.005-0.258,0.016l-10.672-0.928l0.049-0.282
			c0.08-0.5-0.01-0.992-0.252-1.41c-0.231-0.402-0.599-0.721-1.034-0.896c-0.086-0.035-0.579-0.229-1.264-0.359l-3.115-0.903
			c0.038-0.06,0.077-0.119,0.116-0.178c0.194-0.294,0.415-0.629,0.578-1.092c0.026-0.074,0.048-0.148,0.066-0.223
			c0.37-0.884,0.455-2.031,0.271-3.546c-0.385-3.161-4.885-11.15-6.255-13.523c-5.337-9.245-8.69-11.902-8.831-12.01
			c-0.037-0.029-0.076-0.057-0.115-0.083c-0.261-0.174-1.142-0.743-2.063-1.127c-1.107-0.666-2.206-0.841-3.201-0.961l0.812-3.539
			c0.209-0.63,0.283-1.135,0.302-1.281c0.054-0.477-0.039-0.922-0.265-1.314c-0.249-0.432-0.645-0.761-1.115-0.928L220.223,129
			l4.379-9.774c0.173-0.238,0.294-0.509,0.356-0.795l1.609-3.592c0.114-0.255,0.183-0.572,0.184-0.851l0.006-1.569l24.261-41.432
			c0.814-0.341,1.472-0.957,1.855-1.376c0.121-0.132,0.235-0.299,0.319-0.462l0,0c0.024-0.045,0.61-1.156,3.568-5.554
			c3.161-4.501,5.935-5.443,6.065-5.485c0.284-0.078,0.543-0.212,0.765-0.392c1.317-0.495,2.551-1.194,3.649-2.065
			c0.001,0.001,0.002,0.001,0.002,0.002l0.083,0.071c11.036,9.747,12.353,10.371,24.954,16.343l0.53,0.251
			c6.125,2.903,18.223,8.218,30.44,11.205c0.215,0.051,0.413,0.074,0.607,0.074c0.914,0,1.712-0.506,2.133-1.353l0.137-0.278
			c0.009-0.019,0.018-0.038,0.027-0.057c0.055-0.121,0.112-0.241,0.169-0.36l0.038-0.081c0.489-1.03,1.045-2.2,1.02-3.773
			c-0.013-0.819-0.204-1.535-0.582-2.191c-0.149-0.258-0.323-0.501-0.532-0.743c-0.236-0.274-0.499-0.54-0.804-0.812
			c-0.071-0.064-0.151-0.133-0.232-0.202l-0.128-0.111l-0.087-0.084c-0.159-0.151-0.371-0.353-0.656-0.513
			c-10.362-7.602-23.457-15.314-36.902-21.731c-0.064-0.031-0.131-0.058-0.201-0.082c-1.383-0.655-2.797-1.282-4.206-1.864
			c-1.484-0.605-2.99-1.181-4.485-1.715c-0.914-0.329-1.835-0.653-2.756-0.976l-0.072-0.025c-0.97-0.34-1.969-0.691-2.95-1.047
			c-0.047-0.021-0.093-0.04-0.139-0.056c-0.105-0.038-0.211-0.077-0.319-0.118c0.008-0.332,0.003-0.664-0.014-0.994
			c-0.109-2.106-0.718-4.174-1.76-5.979c-0.703-1.217-1.595-2.316-2.653-3.265c-2.459-2.206-5.631-3.421-8.932-3.421
			c-0.256,0-0.512,0.007-0.769,0.022c-2.533,0.143-5.332,1.23-7.612,2.912c-0.038-0.03-0.076-0.06-0.114-0.09l-0.083-0.068
			c-11.51-9.62-12.869-10.224-25.87-16.002l-1.58-0.703c-8.913-3.965-18.127-8.064-28.126-10.278
			C194.614,7.518,194.431,7.498,194.253,7.498L194.253,7.498z M111.554,314.944L111.554,314.944L111.554,314.944L111.554,314.944z"
			/>
	</g>
	<path class="st6" d="M222.91,148.864l6.996,12.117c2.175,3.768,0.88,8.603-2.888,10.778l-15.897,9.178
		c-4.473,2.582-10.213,1.045-12.795-3.428l-5.519-9.559c-2.582-4.473-1.044-10.213,3.429-12.796l15.897-9.178
		C215.9,143.801,220.735,145.096,222.91,148.864z"/>
	<path class="st7" d="M130.018,210.687c-1.75-3.002-6.017-10.32-3.995-15.773c2.021-5.453,18.619-20.577,21.938-23.517
		c3.318-2.94,12.251-10.495,22.325-17.961s19.032-13.107,23.856-14.328c4.824-1.221,15.966,2.927,17.879,3.907
		c1.913,0.98,0.625,1.647,0.625,1.647l-8.336,4.693c-1.628,0.949-4.361,2.878-6.697,1.893s-6.517-2.402-9.594-2.787
		s-8.958,3.428-8.958,3.428s-7.635,4.654-18.07,13.085s-26.41,22.863-28.188,27.283s4.472,14.253,4.472,14.253l0.335,0.564
		c0,0,5.444,10.323,10.17,10.977s25.204-6.055,37.714-10.932c12.51-4.878,20.347-9.199,20.347-9.199s6.235-3.217,7.428-6.083
		c1.193-2.866,2.037-7.206,2.341-9.726c0.304-2.52,3.338-3.937,4.971-4.88l8.218-4.912c0,0,1.22-0.788,1.122,1.362
		c-0.098,2.15-2.025,13.899-5.482,17.486s-12.808,8.567-24.301,13.611c-11.492,5.044-22.495,9.051-26.698,10.473
		s-25.593,8.327-31.336,7.372c-5.744-0.955-9.987-8.304-11.727-11.319L130.018,210.687z"/>
</g>
<g id="Layer_1">
	<g>
		<g>
			<line class="st8" x1="190.977" y1="175.898" x2="157.136" y2="195.436"/>
			<g>
				<polygon class="st5" points="158.588,183.908 159.811,193.892 167.846,199.943 144.211,202.898 				"/>
			</g>
		</g>
	</g>
</g>
<g id="Layer_2">
	<g>
		<g>
			<polyline class="st0" points="180.073,88.278 180.069,87.58 180.05,84.326 			"/>
			<line class="st9" x1="180.009" y1="77.02" x2="179.62" y2="7.605"/>
			<line class="st0" x1="179.599" y1="3.951" x2="179.577" y2="0"/>
		</g>
	</g>
	<g>
		<g>
			<line class="st2" x1="181.946" y1="360" x2="181.923" y2="356.09"/>
			<line class="st10" x1="181.882" y1="349.006" x2="181.496" y2="281.703"/>
			<line class="st2" x1="181.476" y1="278.161" x2="181.454" y2="274.251"/>
		</g>
	</g>
	<circle class="st11" cx="21.755" cy="186.985" r="12.345"/>
	<circle class="st12" cx="338.245" cy="179.664" r="12.345"/>
</g>
</svg>
