<?xml version="1.0" encoding="utf-8"?>
<!-- Generator: Adobe Illustrator 21.1.0, SVG Export Plug-In . SVG Version: 6.00 Build 0)  -->
<svg version="1.1" xmlns="http://www.w3.org/2000/svg" xmlns:xlink="http://www.w3.org/1999/xlink" x="0px" y="0px"
	 viewBox="0 0 360 360" style="enable-background:new 0 0 360 360;" xml:space="preserve">
<style type="text/css">
	.st0{fill:#FFFFFF;}
	.st1{fill:#231916;}
	.st2{fill:none;stroke:#231916;stroke-miterlimit:10;}
	.st3{fill:none;stroke:#231916;stroke-width:2;stroke-linecap:round;stroke-linejoin:round;}
	.st4{fill:none;stroke:#231916;stroke-width:5;stroke-linecap:round;stroke-linejoin:round;}
	.st5{fill:none;stroke:#888888;stroke-width:1.9627;stroke-linecap:round;stroke-linejoin:round;}
	.st6{fill:none;stroke:#888888;stroke-width:1.9627;stroke-linecap:round;stroke-linejoin:round;stroke-dasharray:7.3991,7.3991;}
	.st7{fill:none;stroke:#888888;stroke-width:1.9441;stroke-linecap:round;stroke-linejoin:round;}
	.st8{fill:none;stroke:#888888;stroke-width:1.9441;stroke-linecap:round;stroke-linejoin:round;stroke-dasharray:4.8414,4.8414;}
	.st9{fill:none;stroke:#888888;stroke-width:1.9627;stroke-linecap:round;stroke-linejoin:round;stroke-dasharray:4.8166,4.8166;}
	.st10{fill:none;stroke:#888888;stroke-width:1.9441;stroke-linecap:round;stroke-linejoin:round;stroke-dasharray:7.0372,7.0372;}
	.st11{fill:#00B550;stroke:#00AF41;stroke-width:2;stroke-miterlimit:10;}
	.st12{fill:#00B550;stroke:#00AF41;stroke-width:1.9528;stroke-miterlimit:10;}
</style>
<g id="Layer_3">
	<g>
		<path class="st0" d="M165.511,355.38c-0.108,0-0.222-0.013-0.335-0.037c-9.907-2.194-19.073-6.271-27.938-10.215l-1.586-0.705
			c-13.156-5.847-14.23-6.324-25.657-15.873l-0.079-0.064c-0.244-0.196-0.497-0.387-0.752-0.563
			c-2.219,1.827-5.087,3.025-7.652,3.169c-0.238,0.014-0.476,0.021-0.712,0.021c-3.056,0-5.991-1.124-8.266-3.166
			c-0.979-0.88-1.806-1.896-2.455-3.021c-0.963-1.668-1.526-3.581-1.628-5.531c-0.027-0.533-0.02-1.071,0.022-1.608
			c-0.34-0.139-0.682-0.271-1.024-0.396c-0.027-0.009-0.056-0.021-0.084-0.035c-0.945-0.344-1.906-0.681-2.843-1.01l-0.232-0.082
			c-0.919-0.322-1.837-0.646-2.754-0.976c-1.494-0.534-2.986-1.104-4.433-1.694c-1.421-0.587-2.84-1.217-4.223-1.873
			c-0.046-0.014-0.088-0.03-0.128-0.048c-13.425-6.408-26.483-14.101-36.802-21.677c-0.192-0.094-0.344-0.237-0.493-0.378
			l-0.149-0.143c0,0-0.271-0.231-0.345-0.298c-0.26-0.231-0.494-0.467-0.706-0.713c-0.168-0.195-0.306-0.387-0.422-0.588
			c-0.293-0.509-0.439-1.066-0.449-1.708c-0.021-1.34,0.46-2.353,0.925-3.331l0.212-0.453l0.15-0.304
			c0.251-0.508,0.702-0.799,1.237-0.799c0.117,0,0.239,0.015,0.361,0.043c12.137,2.968,24.166,8.252,30.256,11.139l0.529,0.251
			c12.748,6.041,13.789,6.534,24.745,16.21l0.071,0.061c0.221,0.188,0.446,0.367,0.671,0.535c1.206-1.089,2.626-1.938,4.163-2.487
			c0.136-0.143,0.312-0.25,0.515-0.303c0.022-0.007,3.123-0.919,6.624-5.903c3.029-4.506,3.591-5.591,3.613-5.635
			c0.035-0.069,0.099-0.166,0.149-0.226c0.316-0.346,1.018-1.03,1.815-1.252l24.584-41.983c-0.001-0.016,0.006-1.837,0.006-1.837
			c0.001-0.144,0.041-0.324,0.101-0.455l1.654-3.693c0.029-0.207,0.117-0.405,0.255-0.566l4.875-10.884l-1.297-0.453
			c-0.229-0.08-0.472-0.284-0.592-0.494c-0.113-0.185-0.167-0.438-0.136-0.685c0.006-0.046,0.067-0.526,0.273-1.134l0.882-3.847
			c0.024-0.301-0.024-0.72-0.133-0.859l-0.496-0.064c-1.031-0.119-2.101-0.242-3.153-0.896c-0.821-0.332-1.638-0.849-1.959-1.062
			c-0.199-0.152-3.426-2.738-8.637-11.764c-0.587-1.015-5.748-10.01-6.129-13.143c-0.168-1.385-0.088-2.417,0.246-3.139
			c0.009-0.063,0.022-0.123,0.043-0.18c0.121-0.346,0.29-0.602,0.469-0.873c0.204-0.312,0.436-0.662,0.699-1.312
			c-0.003-0.019-0.219-0.121-0.379-0.156l-3.923-1.136c-0.635-0.116-1.081-0.296-1.131-0.316c-0.204-0.083-0.423-0.274-0.533-0.465
			c-0.13-0.235-0.174-0.486-0.135-0.728l0.236-1.365l-11.891-1.034c-0.072,0.016-0.144,0.023-0.21,0.023
			c-0.141,0-0.277-0.026-0.403-0.076l-4.039-0.352c-0.147-0.013-0.329-0.071-0.457-0.146c0,0-1.57-0.866-1.585-0.876l-48.641,1.064
			c-0.578,0.587-1.498,0.864-1.945,0.97c-0.075,0.018-0.18,0.029-0.257,0.029l-0.151-0.002c-0.378,0-1.971,0.03-6.596,0.42
			c-6.036,0.632-8.341,2.897-8.363,2.921c-0.101,0.102-0.242,0.189-0.393,0.25c-1.046,0.931-2.214,1.71-3.425,2.288
			c0.052,0.305,0.117,0.614,0.192,0.921l0.029,0.118c3.787,14.379,3.763,15.555,3.469,29.947l-0.035,1.727
			c-0.195,9.706-0.396,19.739-2.617,29.635c-0.159,0.688-0.692,1.111-1.393,1.111l-0.303,0.001l-0.544-0.012
			c-1.092-0.018-2.221-0.036-3.421-0.662c-0.647-0.339-1.104-0.768-1.44-1.35c-0.085-0.149-0.163-0.307-0.234-0.478
			c-0.125-0.3-0.231-0.619-0.328-0.977l-0.115-0.456l-0.036-0.119c-0.064-0.211-0.13-0.433-0.135-0.658
			c-2.09-12.203-4.184-26.669-3.921-41.549c0.001-0.047,0.006-0.098,0.015-0.15c0.03-1.566,0.102-3.148,0.212-4.706
			c0.121-1.606,0.278-3.229,0.469-4.827c0.114-0.985,0.237-1.972,0.36-2.958c0.137-1.104,0.276-2.214,0.4-3.31
			c0-0.026,0.002-0.053,0.004-0.077c0.039-0.339,0.071-0.674,0.098-1.007c-0.507-0.19-0.993-0.409-1.45-0.653
			c-2.043-1.092-3.729-2.717-4.873-4.699c-0.476-0.823-0.857-1.708-1.135-2.629c-0.957-3.175-0.614-6.536,0.965-9.462
			c1.362-2.525,3.531-4.483,6.163-5.584c-0.057-0.275-0.123-0.554-0.199-0.83l-0.03-0.11c-4.102-14.01-4.106-15.162-4.161-29.269
			l-0.002-0.59c-0.027-6.736,0.296-19.867,2.764-32.111c0.145-0.689,0.667-1.122,1.366-1.137l0.305-0.006l0.84-0.001
			c0.971,0,2.01,0.045,3.101,0.578c0.802,0.393,1.344,0.952,1.708,1.763c0.129,0.287,0.243,0.599,0.348,0.949l0.125,0.447
			l0.027,0.08c0.075,0.228,0.15,0.452,0.162,0.679c2.48,12.565,3.9,27.667,4,42.541c0,0.048-0.004,0.1-0.012,0.151
			c0.007,1.53-0.025,3.081-0.097,4.61c-0.083,1.591-0.199,3.184-0.348,4.74c-0.08,0.861-0.167,1.724-0.254,2.587l-0.031,0.313
			c-0.108,1.064-0.22,2.162-0.318,3.247c0,0.02,0,0.039-0.001,0.058c-0.035,0.389-0.061,0.765-0.08,1.135
			c0.502,0.189,0.993,0.411,1.465,0.664c0.725,0.387,1.417,0.85,2.057,1.375c3.286,2.943,8.818,3.077,8.874,3.078l0.141,0.005
			c3.55,0.136,5.972,0.217,6.646,0.222c1.025,0.008,1.729,0.43,2.138,0.92l48.526-1.059c0.039-0.021,1.68-0.86,1.68-0.86
			c0.05-0.026,0.112-0.051,0.175-0.07c0.103-0.043,0.212-0.07,0.324-0.08c0.023-0.002,0.132-0.002,0.162,0l17.248-2.146
			l-0.256-1.536c-0.021-0.125-0.017-0.263,0.011-0.39c0.014-0.067,0.034-0.14,0.057-0.196c0.026-0.065,0.065-0.137,0.11-0.203
			c0.094-0.15,0.209-0.247,0.297-0.306l1.783-1.201c0.505-0.342,1.064-0.587,1.662-0.729c3.685-0.871,8.165-1.923,8.586-1.983
			c0.305-0.044,2.09-0.588,3.202-2.109c1.086-1.618,5.724-7.464,8.793-11.331l0.15-0.19c1.163-1.466,2.074-2.614,2.434-3.083
			c0.934-1.216,0.85-2.021,0.846-2.054l-3.633-14.628c-0.025-0.102-0.031-0.214-0.021-0.328c-0.162-1.203,0.309-2.449,0.409-2.697
			c0.092-0.226,0.309-0.461,0.526-0.569l1.853-0.949l-1.23-2.79l-3.124,1.804c-0.152,0.088-0.375,0.147-0.551,0.147
			c-0.068,0-0.156-0.009-0.224-0.023l-1.046-0.206c-0.157-0.031-0.324-0.115-0.466-0.226l-17.969,10.376l0.259,0.448
			c0.645,1.117,0.261,2.551-0.855,3.196l-26.247,15.153c-0.711,0.41-1.52,0.628-2.339,0.628c-1.675,0-3.233-0.898-4.068-2.345
			l-2.415-4.184c-1.293-2.24-0.523-5.115,1.717-6.408l26.245-15.152c0.354-0.205,0.759-0.313,1.168-0.313
			c0.834,0,1.611,0.448,2.028,1.169l0.126,0.217l18.075-10.436c0.009-0.133,0.038-0.261,0.089-0.37l0.576-1.232
			c0.083-0.179,0.257-0.372,0.425-0.475l3.955-2.283l-0.892-2.02c-0.056-0.128-0.093-0.307-0.093-0.445c0,0,0.004-1.796,0.004-1.812
			l-23.986-41.469c-0.793-0.224-1.475-0.899-1.765-1.223c-0.046-0.051-0.09-0.112-0.128-0.178c0,0-0.027-0.049-0.035-0.063
			c-0.176-0.324-0.912-1.629-3.547-5.592c-3.403-4.899-6.443-5.802-6.474-5.811c-0.059-0.017-0.121-0.041-0.183-0.072
			c-1.184-0.381-2.286-0.929-3.289-1.633c-0.023,0.019-0.047,0.038-0.07,0.058c-0.269,0.224-0.537,0.465-0.798,0.716l-0.071,0.071
			C84.956,68,83.935,68.571,71.426,75.571l-0.52,0.29C65.298,79,51.004,86.697,39.417,90.389c-0.161,0.05-0.315,0.074-0.466,0.074
			c-0.495,0-0.931-0.263-1.196-0.722L37.6,89.473L37.341,89c-0.532-0.954-1.083-1.942-1.146-3.298
			c-0.043-0.897,0.189-1.65,0.729-2.368c0.193-0.255,0.412-0.509,0.672-0.773l0.336-0.331l0.061-0.065
			c0.176-0.192,0.338-0.369,0.535-0.486c10.078-8.483,24.413-18.3,37.447-25.642c0.042-0.023,0.089-0.045,0.139-0.063
			c1.363-0.765,2.758-1.5,4.146-2.187c1.439-0.706,2.913-1.387,4.382-2.027c0.901-0.396,1.808-0.786,2.714-1.175l0.278-0.119
			c0.912-0.393,1.848-0.795,2.766-1.201c0.028-0.017,0.058-0.031,0.085-0.043c0.29-0.129,0.577-0.262,0.863-0.399
			c-0.129-0.692-0.198-1.393-0.207-2.092c-0.039-3.271,1.201-6.363,3.492-8.71c2.291-2.346,5.354-3.66,8.625-3.699l0.148-0.001
			c2.77,0,5.437,0.932,7.597,2.64c0.209-0.179,0.415-0.368,0.615-0.562l0.075-0.075C121.849,26.064,122.842,25.508,135,18.699
			l0.503-0.282c9.536-5.343,21.68-11.855,31.014-14.827c0.161-0.049,0.313-0.073,0.461-0.073c0.494,0,0.928,0.262,1.191,0.719
			l0.149,0.258l0.253,0.46c0.521,0.937,1.058,1.903,1.122,3.227c0.042,0.884-0.185,1.623-0.715,2.327
			c-0.186,0.248-0.399,0.496-0.655,0.757l-0.327,0.323l-0.105,0.116c-0.14,0.151-0.287,0.311-0.474,0.421
			c-10.641,8.982-25.067,19.041-36.792,25.651c-0.041,0.022-0.087,0.044-0.136,0.062c-1.318,0.74-2.673,1.455-4.028,2.126
			c-1.396,0.684-2.827,1.347-4.259,1.971c-0.832,0.366-1.669,0.727-2.508,1.087l-0.139,0.06c-0.968,0.416-1.968,0.846-2.948,1.279
			c-0.028,0.016-0.057,0.03-0.084,0.042c-0.328,0.146-0.653,0.298-0.977,0.456c0.075,0.526,0.115,1.055,0.121,1.579
			c0.01,0.819-0.062,1.642-0.215,2.444c-0.978,4.248,1.526,9.067,1.552,9.116l0.081,0.16c1.584,3.162,2.629,5.226,2.944,5.81
			c0.535,0.993,0.423,1.787,0.223,2.29l23.933,41.379c0.034,0.023,0.068,0.047,0.101,0.072l1.434,0.962
			c0.047,0.031,0.099,0.074,0.146,0.12c0.107,0.085,0.183,0.179,0.233,0.257c0.02,0.03,0.065,0.117,0.072,0.132l1.237,1.708
			l3.365-1.943c0.152-0.088,0.374-0.146,0.55-0.146c0.031,0,0.072,0.002,0.104,0.005l1.225,0.106
			c0.132,0.012,0.271,0.057,0.399,0.125l18.645-10.764l-0.259-0.448c-0.312-0.541-0.395-1.171-0.233-1.775
			c0.162-0.604,0.549-1.108,1.09-1.421l25.556-14.755c0.711-0.41,1.521-0.628,2.339-0.628c1.675,0,3.233,0.898,4.068,2.345
			l2.416,4.184c0.626,1.084,0.791,2.348,0.467,3.56c-0.325,1.211-1.101,2.223-2.184,2.848l-25.557,14.755
			c-0.354,0.205-0.758,0.313-1.167,0.313c-0.834,0-1.611-0.448-2.028-1.169l-0.125-0.217l-18.584,10.729
			c0.015,0.205-0.019,0.415-0.101,0.58l-0.484,0.979c-0.09,0.182-0.272,0.374-0.45,0.473l-2.427,1.401l1.893,2.61l1.555-0.927
			c0.259-0.156,0.562-0.24,0.87-0.24c0.127,0,0.254,0.014,0.378,0.042c0.382,0.087,1.534,0.351,2.347,1.324
			c0.63,0.615,9.306,9.181,10.18,10.042c0.733,0.725,0.936,0.924,2.075,0.924c0.25,0,0.533-0.013,0.854-0.037
			c5.889-0.969,16.948-2.723,18.578-2.958c1.185-0.17,2.063-0.995,2.072-1.003l0.18-0.192c2.964-3.138,6.615-6.993,7.185-7.544
			c0.963-0.93,2.053-1.181,2.174-1.206c0.067-0.015,0.149-0.023,0.219-0.023c0.064,0,0.137,0.009,0.209,0.023
			c0.075,0.012,0.15,0.032,0.221,0.061c0.047,0.019,0.092,0.041,0.136,0.066l1.68,0.984l7.871-10.508
			c0.053-0.137,0.128-0.265,0.216-0.359c0.043-0.046,0.093-0.089,0.148-0.128l2.394-3.196c0.08-0.106,0.213-0.224,0.328-0.291
			c0,0,1.581-0.885,1.596-0.892l24.409-41.211c-0.189-0.804,0.066-1.729,0.206-2.144c0.034-0.101,0.097-0.222,0.161-0.307l0,0
			c-0.002,0,0.701-1.073,3.108-5.785c2.605-5.366,1.904-8.463,1.896-8.494c-0.015-0.06-0.023-0.126-0.026-0.194
			c-0.247-1.218-0.309-2.446-0.186-3.663c-0.027-0.012-0.056-0.022-0.083-0.033c-0.331-0.127-0.671-0.242-1.015-0.344l-0.108-0.032
			c-14.305-3.955-15.304-4.566-27.53-12.046l-1.466-0.896c-8.244-5.039-16.77-10.249-24.15-17.135
			c-0.117-0.112-0.209-0.226-0.28-0.348c-0.255-0.445-0.242-0.959,0.032-1.419l0.155-0.263l0.248-0.399
			c0.611-0.993,1.204-1.957,2.353-2.674c0.614-0.383,1.21-0.561,1.877-0.561c0.175,0,0.356,0.013,0.547,0.039
			c0.312,0.042,0.641,0.109,1.003,0.207l0.453,0.131l0.16,0.038c0.201,0.047,0.415,0.098,0.606,0.208
			c11.56,4.325,25.065,9.782,37.723,17.476c0.04,0.024,0.081,0.055,0.122,0.088c1.332,0.814,2.656,1.67,3.937,2.545
			c1.332,0.919,2.646,1.87,3.912,2.828c0.771,0.579,1.536,1.165,2.303,1.752c0.916,0.702,1.81,1.385,2.695,2.049
			c0.028,0.018,0.056,0.035,0.079,0.054c0.253,0.189,0.509,0.374,0.769,0.555c0.541-0.452,1.118-0.856,1.723-1.205
			c1.859-1.073,3.973-1.641,6.113-1.641c4.38,0,8.457,2.349,10.64,6.13c1.412,2.445,1.931,5.272,1.491,8.045
			c0.259,0.095,0.523,0.182,0.79,0.261l0.105,0.03c13.915,3.831,14.886,4.425,26.775,11.69l1.421,0.868
			c8.014,4.893,16.301,9.951,23.477,16.648c0.51,0.492,0.6,1.161,0.246,1.757l-0.151,0.257l-0.238,0.381
			c-0.602,0.979-1.182,1.92-2.307,2.624c-0.602,0.378-1.188,0.554-1.845,0.554c-0.171,0-0.348-0.013-0.532-0.037
			c-0.31-0.042-0.631-0.107-0.98-0.201l-0.438-0.125l-0.166-0.04c-0.187-0.044-0.388-0.092-0.573-0.196
			c-11.243-4.194-24.38-9.488-36.688-16.964c-0.038-0.023-0.077-0.051-0.115-0.082c-1.28-0.781-2.569-1.614-3.832-2.476
			c-1.295-0.895-2.573-1.817-3.804-2.748c-0.708-0.533-1.414-1.073-2.12-1.613l-0.172-0.132c-0.836-0.64-1.699-1.3-2.556-1.942
			c-0.015-0.009-0.029-0.018-0.042-0.026c-0.313-0.233-0.617-0.451-0.918-0.658c-0.422,0.322-0.862,0.616-1.317,0.879
			c-0.663,0.383-1.376,0.707-2.118,0.965c-0.062,0.027-0.129,0.049-0.196,0.062c-4.084,1.18-7.081,5.753-7.111,5.799
			c-0.044,0.064-3.122,4.611-3.724,5.561c-0.614,0.969-1.395,1.245-1.889,1.316l-24.361,41.126
			c-0.003,0.042-0.008,0.083-0.014,0.124l-0.137,1.721c-0.005,0.061-0.017,0.126-0.034,0.191c-0.021,0.126-0.061,0.229-0.099,0.306
			c-0.023,0.047-0.053,0.094-0.087,0.14l-7.331,15.88l1.874,0.878c0.085,0.039,0.162,0.09,0.231,0.15
			c0.241,0.176,0.411,0.513,0.402,0.875l-0.03,0.84c0.04,0.028,0.093,0.062,0.162,0.103c0.056,0.032,0.136,0.072,0.242,0.128
			c6.931,3.552,11.695,10.027,14.471,14.834c0.018,0.024,4.864,7.885,6.009,20.422c0.012,0.128,0.027,0.223,0.041,0.29l0.715,0.365
			c0.181,0.093,0.342,0.264,0.45,0.46c-0.027-0.044-0.059-0.087-0.094-0.128c0.037,0.043,0.07,0.09,0.1,0.139
			c0.077,0.144,0.127,0.301,0.135,0.449c0.001-0.03-0.001-0.062-0.006-0.094c0.013,0.075,0.017,0.152,0.011,0.23l-0.145,2.064
			l17.438,1.316c0.043-0.006,0.084-0.009,0.123-0.009c0.104,0,0.241,0.016,0.391,0.073c0.056,0.016,0.108,0.032,0.149,0.052
			l1.573,0.718c0.039,0.015,0.077,0.031,0.115,0.049l47.782-1.285c0.359-0.473,1.015-0.95,2.069-1.01
			c1.123-0.064,6.589-0.544,6.642-0.549c0.085-0.006,5.502-0.396,8.579-3.429c0.634-0.576,1.296-1.067,1.998-1.488
			c0.45-0.271,0.922-0.513,1.408-0.725c-0.034-0.358-0.075-0.715-0.123-1.07c-0.003-0.025-0.006-0.055-0.007-0.085
			c-0.138-1.017-0.288-2.046-0.435-3.046l-0.022-0.159c-0.14-0.946-0.277-1.894-0.408-2.842c-0.217-1.537-0.401-3.101-0.55-4.643
			c-0.004-0.036-0.006-0.072-0.006-0.107c-0.134-1.411-0.233-2.937-0.295-4.45c-0.008-0.041-0.014-0.081-0.017-0.12
			c-0.547-14.416,1.217-28.474,3.021-40.34c0-0.22,0.059-0.426,0.107-0.598l0.051-0.185c0,0,0.076-0.337,0.101-0.431
			c0.084-0.337,0.183-0.651,0.3-0.946c0.321-0.817,0.832-1.397,1.606-1.824c1.162-0.64,2.267-0.688,3.335-0.735l0.487-0.024
			l0.341-0.01c0.719,0,1.239,0.405,1.409,1.058c2.363,9.528,2.755,19.229,3.134,28.61l0.067,1.68
			c0.567,13.92,0.613,15.058-2.811,29.092l-0.021,0.096c-0.061,0.27-0.113,0.542-0.156,0.813c2.636,0.963,4.854,2.791,6.306,5.216
			l0.103,0.176c3.323,5.756,1.384,13.227-4.328,16.646c-0.599,0.357-1.231,0.666-1.89,0.92c0.031,0.314,0.068,0.628,0.111,0.941
			c0.003,0.025,0.006,0.055,0.007,0.085c0.15,1.106,0.313,2.227,0.474,3.312c0.143,0.971,0.284,1.942,0.418,2.914
			c0.003,0.021,0.006,0.044,0.007,0.067c0.219,1.534,0.407,3.122,0.561,4.721c0.142,1.534,0.246,3.108,0.311,4.684
			c0.009,0.044,0.015,0.087,0.017,0.127c0.568,14.82-1.23,29.274-3.074,41.479c0.002,0.228-0.059,0.444-0.111,0.628l-0.051,0.182
			l-0.102,0.442c-0.09,0.362-0.19,0.681-0.308,0.979c-0.325,0.833-0.846,1.425-1.635,1.86c-1.183,0.654-2.312,0.704-3.405,0.752
			l-0.513,0.024l-0.339,0.011c-0.572,0-1.014-0.246-1.262-0.675c-0.068-0.116-0.123-0.253-0.159-0.399
			c-2.428-9.797-2.835-19.78-3.229-29.435l-0.07-1.721c-0.589-14.318-0.638-15.488,2.866-29.928l0.023-0.104
			c0.078-0.348,0.142-0.702,0.19-1.046c0.005-0.029,0.009-0.059,0.012-0.088c-1.125-0.485-2.169-1.139-3.114-1.948
			c-0.065-0.04-0.126-0.086-0.175-0.134c-0.002-0.002-2.366-2.12-8.345-2.455c-2.188-0.077-3.96-0.117-5.246-0.117
			c-0.94,0-1.277,0.021-1.338,0.026c-0.028,0.003-0.076,0.005-0.105,0.005c-0.037,0-0.095-0.003-0.132-0.008
			c-0.592-0.108-1.476-0.347-2.048-0.873l-47.874,1.286c-0.008,0.006-1.54,0.952-1.54,0.952c-0.12,0.073-0.293,0.135-0.433,0.153
			l-3.967,0.548c-0.135,0.058-0.284,0.09-0.437,0.09c-0.043,0-0.089-0.004-0.135-0.011l-13.027,1.8c0,0,0.043,1.909,0.043,1.929
			c0,0.132-0.026,0.262-0.076,0.383c-0.048,0.13-0.117,0.253-0.199,0.346c-0.013,0.017-0.761,0.9-2.106,1.309
			c-0.996,0.302-9.708,2.513-10.351,2.675c-0.261,0.093-1.231,0.476-1.874,1.319c-1.027,1.348-7.947,10.168-11.677,14.872
			c-0.986,1.503-0.908,1.782-0.618,2.825c0.354,1.276,3.645,13.116,3.883,13.973c0.419,1.101,0.089,2.222-0.02,2.59
			c-0.119,0.418-0.397,0.773-0.78,0.995l-1.567,0.908l1.361,2.923l2.42-1.448c0.155-0.093,0.385-0.156,0.565-0.156l1.149,0.055
			c0.183,0.009,0.381,0.082,0.55,0.193l18.413-11.021l-0.128-0.214c-0.653-1.131-0.284-2.557,0.806-3.209l25.321-15.155
			c0.727-0.435,1.558-0.664,2.402-0.664c1.645,0,3.189,0.873,4.031,2.28l2.511,4.196c1.28,2.218,0.539,5.074-1.646,6.382
			l-25.321,15.155c-0.364,0.218-0.779,0.333-1.2,0.333c-0.191,0-0.384-0.024-0.57-0.071c-0.607-0.153-1.117-0.532-1.438-1.067
			l-0.267-0.445l-18.474,11.057c-0.004,0.152-0.033,0.303-0.089,0.423l-0.5,1.116c-0.079,0.178-0.247,0.372-0.41,0.478l-3.364,2.011
			l0.889,1.908c0.033,0.046,0.067,0.102,0.093,0.15c0.039,0.075,0.083,0.187,0.104,0.325c0.01,0.034,0.018,0.065,0.021,0.092
			c0,0,0.164,1.883,0.167,1.926l24.517,41.033c0.492,0.069,1.275,0.341,1.894,1.309c0.351,0.549,1.549,2.324,3.562,5.277l0.177,0.26
			c0.034,0.053,3.031,4.591,7.184,5.788c0.815,0.271,1.567,0.607,2.274,1.012c0.456,0.262,0.898,0.554,1.32,0.874
			c0.295-0.205,0.586-0.415,0.872-0.631c0.022-0.018,0.049-0.035,0.076-0.052c0.856-0.646,1.72-1.312,2.555-1.956l0.131-0.102
			c0.719-0.554,1.437-1.107,2.159-1.654c1.224-0.934,2.495-1.86,3.775-2.751c0.006-0.004,0.011-0.008,0.016-0.011
			c1.254-0.863,2.538-1.7,3.821-2.488c0.053-0.044,0.109-0.083,0.165-0.113c11.43-7.002,27.236-14.717,40.262-19.648
			c0.19-0.109,0.401-0.16,0.587-0.204l0.182-0.045l0.425-0.123c0.346-0.095,0.667-0.162,0.979-0.204
			c0.186-0.025,0.366-0.038,0.541-0.038c0.649,0,1.232,0.173,1.834,0.545c1.125,0.699,1.709,1.639,2.273,2.548l0.262,0.416
			l0.173,0.287c0.357,0.616,0.263,1.28-0.234,1.754c-7.139,6.714-18.736,14.158-28.043,19.894l-0.49,0.302
			c-11.86,7.311-12.829,7.908-26.746,11.796l-0.1,0.029c-0.26,0.077-0.522,0.166-0.781,0.262c0.451,2.77-0.057,5.599-1.46,8.051
			c-2.179,3.806-6.266,6.17-10.664,6.17c-2.124,0-4.224-0.56-6.073-1.617c-0.606-0.349-1.185-0.75-1.727-1.198
			c-0.259,0.183-0.515,0.369-0.768,0.56c-0.023,0.018-0.051,0.036-0.079,0.054c-0.883,0.666-1.771,1.353-2.632,2.017
			c-0.793,0.611-1.569,1.211-2.352,1.803c-1.267,0.966-2.578,1.922-3.895,2.838c-1.301,0.896-2.622,1.757-3.935,2.564
			c-0.039,0.034-0.08,0.063-0.12,0.089c-12.754,7.818-28.303,15.569-40.621,20.252c-0.191,0.111-0.404,0.162-0.593,0.208
			l-0.203,0.051l-0.425,0.125c-0.359,0.098-0.688,0.167-1.004,0.21c-0.193,0.027-0.379,0.041-0.56,0.041
			c-0.66,0-1.252-0.176-1.863-0.554c-1.151-0.714-1.747-1.674-2.323-2.603l-0.271-0.433l-0.174-0.289
			c-0.359-0.62-0.265-1.287,0.232-1.764c8.875-8.343,22.548-17.085,28.016-20.457l0.507-0.312
			c12.2-7.527,13.197-8.142,27.499-12.155l0.103-0.03c0.338-0.102,0.679-0.22,1.004-0.346c0.028-0.012,0.057-0.022,0.085-0.034
			c-0.128-1.219-0.071-2.448,0.171-3.666c0.003-0.068,0.012-0.135,0.026-0.193c0.007-0.03,0.697-3.129-1.938-8.505
			c-2.449-4.746-3.122-5.75-3.149-5.791c-0.037-0.055-0.082-0.138-0.108-0.199c-0.166-0.482-0.42-1.407-0.233-2.202l-24.571-41.128
			c-0.011-0.005-1.583-0.876-1.583-0.876c-0.14-0.078-0.289-0.215-0.378-0.348l-1.297-1.713l-3.898,2.333
			c-0.155,0.093-0.385,0.155-0.565,0.155l-1.436-0.1c-0.12-0.008-0.246-0.045-0.366-0.101l-17.909,10.719l0.128,0.214
			c0.649,1.125,0.284,2.559-0.807,3.21l-26.003,15.563c-0.728,0.435-1.559,0.665-2.403,0.665c-1.645,0-3.188-0.874-4.03-2.281
			l-2.512-4.195c-1.28-2.218-0.538-5.075,1.646-6.383l26.004-15.564c0.363-0.217,0.777-0.331,1.199-0.331
			c0.82,0,1.591,0.437,2.011,1.139l0.266,0.444l17.805-10.657c-0.027-0.18-0.018-0.368,0.033-0.522l0.328-1.018
			c0.073-0.227,0.269-0.474,0.47-0.599l3.107-1.859l-1.839-2.433l-1.739,1.162c-0.164,0.11-0.413,0.187-0.611,0.187
			c-0.041,0-0.094-0.004-0.135-0.009c-0.154-0.018-1.528-0.196-2.539-0.944c-0.107-0.048-0.206-0.109-0.284-0.181l-11.091-10.354
			c0.001,0.002,0.002,0.002,0.001,0.002c-0.016,0-0.456-0.265-1.358-0.265c-0.247,0-0.509,0.021-0.78,0.061
			c-0.606,0.09-2.147,0.343-4.099,0.663c-4.872,0.802-12.234,2.013-14.238,2.18c-1.828,0.228-3.171,1.522-3.357,1.769
			c-0.259,0.34-3.355,3.742-5.908,6.537c-0.408,0.449-0.895,0.819-1.443,1.099l-1.923,0.977c-0.114,0.058-0.242,0.094-0.37,0.105
			c-0.045,0.006-0.09,0.009-0.13,0.009c-0.062,0-0.139-0.007-0.2-0.019c-0.046-0.009-0.1-0.023-0.151-0.041
			c-0.128-0.04-0.244-0.104-0.347-0.188l-1.203-0.957l-10.264,14.03c-0.021,0.046-0.044,0.089-0.067,0.124
			c-0.072,0.11-0.162,0.205-0.267,0.282c-0.053,0.048-0.107,0.091-0.156,0.12l-1.418,0.945c-0.036,0.027-0.072,0.054-0.11,0.078
			l-24.534,41.902c0.238,0.616,0.253,1.421-0.228,2.301c-0.485,0.888-2.468,4.791-3.064,5.966c-0.128,0.244-2.305,4.416-1.82,8.428
			c0.234,0.868,0.376,1.742,0.421,2.598c0.026,0.519,0.019,1.051-0.024,1.591c0.311,0.117,0.623,0.228,0.937,0.333
			c0.029,0.01,0.06,0.022,0.091,0.036c1.028,0.347,2.074,0.688,3.088,1.018l0.42,0.137c0.83,0.27,1.66,0.54,2.488,0.817
			c0.022,0.008,0.048,0.017,0.072,0.027c1.457,0.481,2.955,1.014,4.453,1.583c0.042,0.014,0.082,0.03,0.121,0.05
			c1.366,0.522,2.828,1.13,4.274,1.772c0.062,0.019,0.123,0.041,0.177,0.068c13.545,6.063,25.74,14.094,35.892,21.163
			c0.196,0.089,0.354,0.23,0.518,0.378l0.145,0.129l0.354,0.288c0.289,0.246,0.53,0.478,0.744,0.713
			c0.607,0.663,0.907,1.392,0.944,2.292c0.058,1.35-0.405,2.381-0.854,3.379l-0.205,0.464l-0.143,0.306
			C166.517,355.079,166.06,355.38,165.511,355.38z"/>
		<path class="st1" d="M166.978,4.516c0.136,0,0.24,0.071,0.325,0.218l0.15,0.259c0.082,0.153,0.164,0.301,0.246,0.448
			c0.485,0.874,0.943,1.698,0.996,2.788c0.031,0.655-0.123,1.157-0.514,1.677c-0.162,0.216-0.349,0.431-0.571,0.659
			c-0.061,0.063-0.123,0.124-0.186,0.185l-0.124,0.122c-0.031,0.031-0.089,0.094-0.148,0.159c-0.162,0.177-0.221,0.24-0.268,0.24
			c-0.001,0-0.002,0-0.003,0c-10.612,8.971-25.018,19.023-36.745,25.634c-0.014,0.008-0.031,0.012-0.047,0.013
			c-1.335,0.751-2.704,1.474-4.069,2.15c-1.395,0.683-2.812,1.339-4.215,1.95c-0.879,0.387-1.76,0.765-2.641,1.144
			c-0.991,0.426-2.016,0.866-3.02,1.311c-0.007,0.006-0.015,0.012-0.023,0.016c-0.568,0.251-1.129,0.524-1.683,0.811
			c0.145,0.704,0.224,1.426,0.232,2.149c0.009,0.763-0.059,1.515-0.197,2.248c-1.061,4.603,1.624,9.719,1.651,9.771
			c0.026,0.052,2.481,4.961,3.028,5.976c0.581,1.078,0.03,1.716,0.006,1.743c-0.006,0.007-0.013,0.013-0.021,0.018
			c-0.007,0.005-0.035,0.022-0.051,0.032l24.384,42.16c0.091,0.028,0.165,0.069,0.225,0.12l1.469,0.985
			c0.01,0.007,0.018,0.015,0.025,0.024l0.022,0.03c0.02,0.007,0.039,0.017,0.051,0.036c0.003,0.006,0.007,0.012,0.01,0.017
			c0.012,0.021,0.018,0.046,0.027,0.069l1.831,2.526l4.145-2.393c0.015-0.009,0.033-0.013,0.05-0.013c0.003,0,0.006,0,0.008,0
			l1.233,0.108c0.032,0.003,0.061,0.021,0.078,0.05l0.204,0.353l20.199-11.662c0.003-0.002,0.006-0.002,0.009-0.002
			c0.002,0,0.003,0,0.005,0c0.002,0,0.004,0,0.007-0.001l-0.763-1.321c-0.369-0.64-0.15-1.461,0.49-1.83l25.556-14.755
			c0.58-0.335,1.213-0.494,1.839-0.494c1.276,0,2.519,0.662,3.202,1.844l2.416,4.184c1.017,1.762,0.411,4.024-1.351,5.041
			L178.9,106.068c-0.211,0.122-0.441,0.179-0.668,0.179c-0.463,0-0.914-0.24-1.162-0.67l-0.629-1.089
			c-0.005,0.005-0.006,0.013-0.013,0.017l-20.199,11.662l0.267,0.462c0.017,0.029,0.018,0.064,0.003,0.094l-0.486,0.983
			c-0.009,0.018-0.022,0.032-0.039,0.042l-3.402,1.964l4.141,5.712c-0.027-0.482-0.203-0.913-0.378-1.214
			c-0.133-0.23-0.251-0.369-0.252-0.371c-0.019-0.022-0.027-0.052-0.022-0.081c0.005-0.029,0.022-0.054,0.047-0.069l1.883-1.123
			c0.11-0.066,0.233-0.099,0.359-0.099c0.052,0,0.105,0.006,0.157,0.018c0.317,0.072,1.202,0.275,1.799,0.99
			c0.695,0.686,9.371,9.252,10.245,10.113l0.065,0.065c0.737,0.728,1.162,1.147,2.713,1.147c0.272,0,0.58-0.013,0.929-0.039
			c5.956-0.976,17.01-2.73,18.645-2.965c1.533-0.221,2.617-1.266,2.627-1.276c0.064-0.067,6.613-7.01,7.362-7.734
			c0.767-0.742,1.648-0.939,1.685-0.947c0.004-0.001,0.008-0.001,0.012-0.001c0.016,0,0.03,0.006,0.045,0.012
			c0.001,0,0.002,0.001,0.003,0.001c0.003,0,0.005-0.001,0.008-0.001c0.001,0,0.003,0,0.004,0.001l2.055,1.204
			c0.029,0.017,0.047,0.047,0.049,0.082c0.001,0.034-0.014,0.066-0.042,0.086c-0.038,0.027-0.796,0.584-0.623,1.415l9.551-12.75
			c-0.004-0.01-0.012-0.016-0.012-0.027c-0.002-0.055,0.041-0.101,0.096-0.103h0c0.001,0,0.01,0,0.013,0c0,0,0,0,0,0l2.529-3.376
			c0.008-0.011,0.019-0.02,0.031-0.027l1.538-0.86c0.015-0.008,0.03-0.012,0.045-0.012c0.012,0,0.023,0.002,0.034,0.006
			c0.047-0.017,0.086-0.039,0.14-0.051l24.862-41.976c-0.021-0.026-0.046-0.049-0.063-0.078c-0.315-0.545,0.05-1.678,0.097-1.818
			c0.003-0.009,0.007-0.017,0.012-0.025c0.006-0.009,0.667-0.972,3.201-5.932c2.832-5.833,1.984-9.16,1.975-9.193
			c-0.004-0.015,0.003-0.029,0.006-0.044c-0.29-1.368-0.33-2.784-0.098-4.179c-0.268-0.124-0.535-0.249-0.816-0.357
			c-0.353-0.136-0.718-0.26-1.087-0.369l-0.114-0.033c-14.182-3.922-15.172-4.528-27.291-11.94l-1.463-0.895
			c-8.203-5.014-16.686-10.199-23.99-17.013c-0.043-0.041-0.077-0.082-0.101-0.124c-0.071-0.122-0.06-0.251,0.029-0.402l0.156-0.264
			c0.096-0.151,0.187-0.299,0.278-0.446c0.537-0.872,1.044-1.696,1.993-2.289c0.447-0.279,0.867-0.409,1.347-0.409
			c0.132,0,0.269,0.01,0.413,0.029c0.274,0.037,0.561,0.096,0.877,0.181c0.084,0.023,0.168,0.048,0.252,0.072l0.18,0.052
			c0.044,0.012,0.13,0.032,0.218,0.053c0.251,0.059,0.326,0.079,0.35,0.122c11.569,4.325,25.076,9.779,37.683,17.442
			c0.014,0.009,0.026,0.021,0.034,0.035l0,0c1.338,0.814,2.677,1.678,3.98,2.569c1.311,0.905,2.614,1.847,3.873,2.8
			c0.789,0.593,1.57,1.191,2.352,1.79c0.883,0.677,1.796,1.376,2.703,2.054c0.009,0.003,0.019,0.008,0.027,0.014
			c0.472,0.353,0.957,0.694,1.45,1.021c0.644-0.613,1.362-1.154,2.14-1.604c1.77-1.022,3.703-1.507,5.613-1.507
			c3.896,0,7.69,2.02,9.774,5.63c1.429,2.476,1.861,5.368,1.221,8.152c0.195,0.086,0.384,0.178,0.586,0.256
			c0.342,0.131,0.697,0.252,1.056,0.358l0.111,0.032c13.792,3.797,14.754,4.384,26.532,11.583l1.421,0.868
			c7.974,4.869,16.219,9.904,23.315,16.527c0.165,0.158,0.187,0.316,0.069,0.515l-0.152,0.257c-0.093,0.146-0.182,0.291-0.271,0.434
			c-0.524,0.85-1.019,1.654-1.943,2.232c-0.437,0.274-0.847,0.401-1.316,0.401c-0.128,0-0.26-0.009-0.398-0.028
			c-0.27-0.036-0.55-0.093-0.854-0.176c-0.082-0.022-0.163-0.046-0.245-0.07l-0.175-0.051c-0.043-0.012-0.128-0.032-0.214-0.052
			c-0.236-0.056-0.315-0.085-0.339-0.118c-11.249-4.193-24.38-9.482-36.634-16.923c-0.014-0.008-0.026-0.02-0.034-0.034
			c-1.301-0.792-2.602-1.631-3.868-2.496c-1.272-0.878-2.538-1.793-3.764-2.72c-0.767-0.577-1.527-1.159-2.288-1.741
			c-0.857-0.656-1.743-1.334-2.623-1.992c-0.009-0.003-0.019-0.008-0.027-0.014c-0.497-0.372-1.009-0.728-1.531-1.07
			c-0.543,0.471-1.134,0.894-1.76,1.255c-0.649,0.375-1.322,0.674-2.006,0.907c-0.004,0.002-0.005,0.006-0.009,0.007
			c-4.557,1.312-7.72,6.188-7.752,6.238c-0.033,0.048-3.11,4.592-3.727,5.566c-0.487,0.769-1.069,0.873-1.349,0.873
			c-0.097,0-0.158-0.012-0.167-0.015c-0.009-0.002-0.018-0.005-0.026-0.01c-0.007-0.004-0.036-0.019-0.053-0.029l-24.822,41.904
			c0.02,0.093,0.021,0.177,0.006,0.254l-0.141,1.764c-0.001,0.012-0.004,0.023-0.009,0.034l-0.016,0.034
			c0.003,0.021,0.004,0.042-0.006,0.062c-0.009,0.016-0.03,0.025-0.041,0.04l-8.291,17.957c0.024-0.011,0.053-0.014,0.077-0.025
			c0.525-0.265,0.665-0.765,0.667-0.771c0.008-0.028,0.028-0.052,0.054-0.064c0.014-0.006,0.028-0.009,0.043-0.009
			c0.014,0,0.028,0.003,0.042,0.009l2.377,1.113c0.005,0.002,0.002,0.009,0.006,0.012c0.029,0.018,0.052,0.046,0.051,0.082
			l-0.039,1.099c0,0,0,0.001,0,0.001l0,0.004c-0.003,0.021-0.048,0.318,0.673,0.733c0.06,0.035,0.156,0.084,0.282,0.149
			c6.717,3.443,11.355,9.756,14.062,14.446c0.047,0.071,4.764,7.794,5.879,20.013c0.076,0.828,0.304,0.947,0.305,0.949l0.992,0.506
			c0.033,0.017,0.046,0.051,0.047,0.085c0,0.004,0.007,0.006,0.007,0.01l-0.184,2.618c-0.002,0.029-0.017,0.056-0.041,0.073
			c-0.017,0.013-0.038,0.019-0.059,0.019c-0.008,0-0.016-0.001-0.024-0.003c-0.002-0.001-0.094-0.023-0.237-0.023
			c-0.194,0-0.48,0.041-0.761,0.23c-0.022,0.015-0.039,0.039-0.06,0.055l19.722,1.489c0.019-0.002,0.036-0.016,0.055-0.016
			c0,0,0,0,0,0c0.023,0,0.043,0.011,0.06,0.025l0.034,0.003c0.012,0.001,0.023,0.004,0.034,0.009l1.607,0.734
			c0.075,0.024,0.149,0.066,0.222,0.129l48.686-1.31c0-0.02,0.001-0.052,0.001-0.061c0-0.009,0.002-0.018,0.004-0.028
			c0.01-0.034,0.266-0.837,1.488-0.907c1.151-0.065,6.619-0.545,6.674-0.55l0.006,0l0,0l0,0c0.121-0.008,5.839-0.414,9.186-3.712
			c0.551-0.501,1.156-0.952,1.809-1.343c0.621-0.372,1.278-0.682,1.953-0.927c-0.045-0.623-0.107-1.244-0.19-1.858
			c-0.002-0.01-0.001-0.021,0.001-0.031c-0.147-1.091-0.31-2.199-0.467-3.271c-0.138-0.944-0.276-1.888-0.407-2.834
			c-0.214-1.521-0.397-3.07-0.545-4.603c-0.001-0.003-0.001-0.007-0.001-0.01c-0.14-1.524-0.241-3.072-0.299-4.6
			c-0.009-0.013-0.013-0.026-0.013-0.04c-0.543-14.325,1.222-28.371,3.029-40.239c-0.02-0.029-0.005-0.118,0.062-0.355
			c0.024-0.085,0.048-0.168,0.058-0.211l0.041-0.178c0.019-0.083,0.037-0.166,0.058-0.248c0.077-0.307,0.162-0.58,0.262-0.832
			c0.238-0.606,0.585-0.999,1.159-1.316c0.956-0.527,1.898-0.568,2.896-0.612c0.168-0.007,0.337-0.015,0.507-0.025l0.302-0.008
			c0.007,0,0.014,0,0.021,0c0.218,0,0.34,0.096,0.395,0.31c2.336,9.418,2.726,19.068,3.103,28.4l0.068,1.678
			c0.561,13.79,0.607,14.916-2.783,28.814l-0.026,0.112c-0.081,0.365-0.149,0.733-0.201,1.096c-0.031,0.213-0.042,0.424-0.061,0.636
			c2.743,0.795,5.061,2.579,6.529,5.032c0.031,0.051,0.061,0.103,0.091,0.155c3.064,5.308,1.306,12.136-3.972,15.295
			c-0.771,0.461-1.593,0.825-2.442,1.09c0.046,0.59,0.107,1.179,0.186,1.763c0.001,0.01,0.001,0.02-0.001,0.031
			c0.152,1.127,0.32,2.271,0.482,3.377c0.142,0.968,0.284,1.936,0.418,2.906c0.001,0.009,0.001,0.017,0,0.026
			c0.22,1.54,0.409,3.136,0.562,4.721c0.144,1.566,0.248,3.158,0.31,4.734c0.009,0.013,0.013,0.027,0.013,0.043
			c0.566,14.743-1.238,29.196-3.085,41.409c0.027,0.029,0.006,0.117-0.064,0.367c-0.024,0.087-0.048,0.171-0.059,0.215l-0.038,0.169
			c-0.02,0.09-0.04,0.18-0.063,0.269c-0.079,0.316-0.166,0.595-0.268,0.855c-0.243,0.622-0.599,1.026-1.188,1.352
			c-0.979,0.54-1.946,0.583-2.969,0.628c-0.173,0.007-0.346,0.015-0.522,0.025l-0.309,0.008c-0.007,0-0.014,0-0.02,0
			c-0.167,0-0.279-0.055-0.349-0.175c-0.023-0.04-0.041-0.087-0.055-0.142c-2.403-9.695-2.808-19.627-3.199-29.232l-0.07-1.721
			c-0.583-14.192-0.631-15.351,2.839-29.651l0.026-0.115c0.084-0.379,0.153-0.759,0.205-1.128c0.042-0.297,0.063-0.591,0.085-0.886
			c-1.332-0.476-2.551-1.199-3.604-2.118c-0.014-0.005-0.03-0.005-0.041-0.017c-0.024-0.024-2.519-2.382-8.995-2.745
			c-2.641-0.094-4.29-0.119-5.296-0.119c-1.112,0-1.436,0.03-1.442,0.031c-0.003,0-0.006,0-0.009,0
			c-0.007,0-0.013-0.001-0.019-0.002c-0.145-0.027-1.326-0.262-1.641-0.808c-0.016-0.027-0.022-0.057-0.033-0.085l-48.768,1.31
			c-0.037,0.042-0.075,0.065-0.113,0.098c-0.005,0.026-0.019,0.051-0.043,0.066l-1.5,0.926c-0.012,0.007-0.025,0.012-0.039,0.014
			l-4.185,0.578l-0.001,0.002c-0.019,0.031-0.051,0.048-0.085,0.048c-0.017,0-0.035-0.005-0.051-0.014
			c-0.006-0.004-0.006-0.011-0.011-0.015l-15.736,2.174c0.252,0.195,0.532,0.254,0.78,0.254c0.376,0,0.678-0.137,0.703-0.149
			c0.014-0.007,0.028-0.01,0.043-0.01c0.018,0,0.036,0.005,0.052,0.015c0.029,0.017,0.047,0.049,0.048,0.083l0.053,2.377l0,0.001
			l0,0.004c0,0.004-0.004,0.006-0.005,0.009c-0.002,0.021-0.006,0.042-0.02,0.059c-0.025,0.029-0.625,0.703-1.647,1.012
			c-0.996,0.302-10.237,2.646-10.342,2.672l0,0l-0.001,0c-0.01,0.003-1.45,0.441-2.388,1.673
			c-1.007,1.322-7.917,10.13-11.664,14.857c-1.288,1.952-1.124,2.541-0.799,3.714l0.025,0.089c0.329,1.188,3.62,13.028,3.858,13.884
			c0.326,0.865,0.076,1.731-0.014,2.04c-0.051,0.174-0.165,0.32-0.322,0.411l-1.897,1.1c-0.015,0.009-0.033,0.013-0.05,0.013
			c-0.011,0-0.023-0.002-0.033-0.006c-0.028-0.01-0.051-0.03-0.06-0.059c-0.001-0.001-0.057-0.15-0.175-0.355
			c-0.183-0.317-0.483-0.706-0.912-0.974l2.983,6.406l3.373-2.018c0.015-0.009,0.033-0.014,0.051-0.014c0.002,0,0.004,0,0.006,0
			l1.095,0.053c0.033,0.001,0.063,0.02,0.08,0.048l0.274,0.458l20.013-11.977c0.003-0.002,0.007-0.002,0.01-0.002
			c0.001,0,0.002,0,0.003,0c0.002,0,0.005,0,0.007-0.001l-0.646-1.079l-0.01-0.018c-0.364-0.63-0.152-1.446,0.473-1.82
			l25.321-15.155c0.592-0.354,1.244-0.523,1.889-0.523c1.256,0,2.482,0.641,3.173,1.794l2.511,4.196
			c1.001,1.734,0.417,3.982-1.301,5.011l-25.321,15.155c-0.211,0.126-0.447,0.191-0.686,0.191c-0.109,0-0.22-0.014-0.328-0.041
			c-0.347-0.088-0.639-0.305-0.823-0.612l-0.783-1.309c-0.005,0.005-0.006,0.013-0.012,0.017l-20.013,11.978l0.209,0.35
			c0.011,0.031,0.019,0.062,0.005,0.092l-0.505,1.13c-0.008,0.019-0.022,0.034-0.04,0.045l-4.109,2.456l1.32,2.834
			c0.016,0.021,0.037,0.038,0.05,0.061c0.002,0.004,0.004,0.007,0.006,0.01c0.011,0.02,0.01,0.042,0.007,0.064l0.015,0.032
			c0.005,0.011,0.008,0.022,0.009,0.034l0.147,1.763c0.016,0.077,0.015,0.162-0.005,0.255l24.98,41.81
			c0.017-0.009,0.045-0.025,0.053-0.029c0.008-0.004,0.017-0.008,0.026-0.01c0.009-0.002,0.072-0.015,0.171-0.015
			c0.282,0,0.861,0.105,1.349,0.868c0.621,0.972,3.716,5.504,3.747,5.55c0.033,0.051,3.2,4.888,7.741,6.198
			c0.706,0.235,1.394,0.541,2.054,0.919c0.628,0.359,1.221,0.78,1.765,1.248c0.521-0.344,1.032-0.702,1.527-1.076
			c0.008-0.006,0.017-0.011,0.027-0.015c0.876-0.66,1.758-1.341,2.612-1.999c0.759-0.586,1.518-1.172,2.283-1.751
			c1.224-0.934,2.485-1.852,3.749-2.73c0.002-0.002,0.004-0.003,0.007-0.005c1.261-0.868,2.561-1.714,3.864-2.513
			c0.007-0.013,0.016-0.024,0.028-0.032c11.478-7.03,27.267-14.73,40.269-19.641c0.02-0.043,0.102-0.062,0.339-0.12
			c0.086-0.02,0.17-0.041,0.213-0.053l0.17-0.05c0.083-0.025,0.166-0.05,0.25-0.072c0.306-0.084,0.586-0.142,0.853-0.179
			c0.141-0.02,0.277-0.03,0.407-0.03c0.464,0,0.872,0.126,1.308,0.396c0.926,0.575,1.424,1.377,1.951,2.225
			c0.089,0.143,0.178,0.287,0.271,0.431l0.155,0.258c0.002,0.003,0.004,0.006,0.005,0.009c0.113,0.195,0.09,0.352-0.072,0.506
			c-7.07,6.65-18.612,14.056-27.878,19.766l-0.49,0.302c-11.752,7.243-12.712,7.835-26.491,11.684l-0.11,0.032
			c-0.356,0.107-0.711,0.229-1.055,0.361c-0.201,0.078-0.391,0.171-0.585,0.258c0.65,2.781,0.23,5.675-1.19,8.156
			c-2.078,3.631-5.884,5.667-9.796,5.667c-1.895,0-3.816-0.478-5.576-1.485c-0.779-0.446-1.499-0.984-2.146-1.595
			c-0.492,0.329-0.976,0.67-1.446,1.026c-0.008,0.006-0.018,0.011-0.027,0.014c-0.904,0.681-1.814,1.384-2.695,2.063
			c-0.78,0.601-1.559,1.203-2.344,1.798c-1.261,0.962-2.561,1.909-3.863,2.814c-1.299,0.895-2.637,1.766-3.978,2.589
			c-0.007,0.013-0.016,0.024-0.028,0.032c-12.76,7.823-28.296,15.562-40.585,20.22c-0.02,0.044-0.103,0.064-0.347,0.123
			c-0.088,0.022-0.175,0.043-0.219,0.055c-0.063,0.018-0.126,0.037-0.189,0.056c-0.08,0.024-0.161,0.048-0.242,0.071
			c-0.315,0.086-0.602,0.146-0.877,0.185c-0.147,0.021-0.287,0.031-0.423,0.031c-0.475,0-0.893-0.129-1.338-0.404
			c-0.951-0.589-1.461-1.412-2.001-2.282c-0.091-0.147-0.183-0.295-0.277-0.442l-0.159-0.265c-0.002-0.003-0.003-0.006-0.005-0.009
			c-0.115-0.199-0.092-0.359,0.073-0.517c8.796-8.269,22.405-16.97,27.848-20.327l0.507-0.313
			c12.09-7.458,13.077-8.067,27.245-12.043l0.114-0.034c0.371-0.112,0.736-0.238,1.084-0.373c0.28-0.108,0.547-0.235,0.814-0.36
			c-0.237-1.394-0.203-2.811,0.082-4.18c-0.003-0.015-0.01-0.029-0.006-0.044c0.009-0.033,0.844-3.363-2.011-9.187
			c-2.553-4.949-3.217-5.908-3.223-5.918c-0.006-0.008-0.009-0.016-0.013-0.025c-0.05-0.147-0.448-1.387-0.039-1.892l-25.023-41.885
			c-0.054-0.012-0.094-0.034-0.142-0.05c-0.01,0.003-0.021,0.005-0.032,0.005c-0.015,0-0.031-0.004-0.046-0.012l-1.542-0.854
			c-0.012-0.007-0.023-0.016-0.031-0.027l-1.873-2.477l-4.668,2.793c-0.015,0.009-0.033,0.014-0.051,0.014c-0.002,0-0.005,0-0.007,0
			l-1.358-0.097c-0.033-0.002-0.062-0.02-0.079-0.048l-0.196-0.327c-0.005,0.005-0.006,0.013-0.012,0.016l-19.415,11.619
			c-0.003,0.002-0.007,0.002-0.01,0.002c-0.001,0-0.002,0-0.003,0c-0.003,0-0.005,0-0.008,0.001l0.646,1.079l0,0
			c0.374,0.648,0.162,1.464-0.462,1.838l-26.004,15.564c-0.592,0.354-1.244,0.523-1.889,0.523c-1.256,0-2.482-0.641-3.173-1.794
			l-2.511-4.196c-1.001-1.734-0.417-3.982,1.301-5.011l26.005-15.564c0.215-0.129,0.452-0.19,0.686-0.19
			c0.456,0,0.901,0.232,1.152,0.651l0.783,1.309c0.005-0.005,0.006-0.013,0.013-0.017l19.415-11.62
			c0.003-0.002,0.007-0.002,0.01-0.002c0.001,0,0.002,0,0.003,0c0.003,0,0.005,0,0.008-0.001l-0.312-0.521l-0.001-0.001
			c-0.014-0.024-0.017-0.053-0.009-0.08l0.331-1.026c0.007-0.023,0.023-0.043,0.044-0.055l4.051-2.424l-4.604-6.09
			c-0.096,0.694,0.205,1.399,0.459,1.839l0,0c0.183,0.317,0.349,0.521,0.351,0.523c0.017,0.021,0.026,0.05,0.022,0.078
			c-0.004,0.028-0.02,0.053-0.043,0.068l-1.789,1.196c-0.016,0.011-0.036,0.017-0.055,0.017c-0.004,0-0.008,0-0.012-0.001
			c-0.067-0.008-1.392-0.178-2.187-0.849c-0.007,0.001-0.015,0.002-0.022,0.002c-0.022,0-0.044-0.006-0.061-0.023l-11.087-10.349
			c-0.005-0.004-0.643-0.529-2.038-0.529c-0.278,0-0.586,0.021-0.925,0.071c-0.61,0.09-2.157,0.344-4.115,0.666
			c-4.863,0.799-12.211,2.007-14.159,2.17c-2.223,0.275-3.776,1.772-4.07,2.158c-0.254,0.334-4.176,4.636-5.85,6.469
			c-0.331,0.362-0.721,0.659-1.16,0.882l-1.921,0.976c-0.002,0.001-0.004,0.001-0.007,0.001c-0.003,0-0.005,0-0.008,0
			c-0.002,0-0.003,0-0.005,0.001c-0.01,0.003-0.02,0.005-0.029,0.005c-0.004,0-0.009,0-0.013-0.001
			c-0.009-0.002-0.016-0.005-0.025-0.009c-0.007-0.003-0.015-0.003-0.021-0.007l-1.624-1.293c-0.021-0.017-0.035-0.042-0.037-0.07
			c-0.002-0.027,0.007-0.055,0.025-0.075c0.027-0.03,0.503-0.572,0.455-1.345l-11.806,16.137c-0.01,0.021-0.011,0.047-0.023,0.067
			c-0.013,0.02-0.032,0.03-0.053,0.037l-0.022,0.03c-0.007,0.009-0.015,0.018-0.025,0.024l-1.496,0.996
			c-0.061,0.052-0.137,0.094-0.23,0.123l-24.984,42.67c0.017,0.011,0.045,0.028,0.052,0.033c0.008,0.005,0.015,0.011,0.021,0.018
			c0.023,0.028,0.579,0.674-0.016,1.764c-0.561,1.027-3.08,5.996-3.105,6.046c-0.027,0.051-2.451,4.609-1.885,9.022
			c0.219,0.793,0.362,1.613,0.405,2.455c0.038,0.735-0.002,1.471-0.104,2.192c0.56,0.226,1.127,0.436,1.696,0.628
			c0.01,0.004,0.02,0.008,0.028,0.015c1.079,0.364,2.181,0.723,3.246,1.069c0.939,0.305,1.878,0.611,2.814,0.924
			c0.008,0.003,0.016,0.007,0.023,0.012c1.481,0.487,3.001,1.028,4.495,1.596c0.003,0.001,0.006,0.002,0.008,0.003
			c1.474,0.568,2.954,1.184,4.4,1.83c0.003,0,0.007-0.001,0.01-0.001c0.011,0,0.023,0.002,0.034,0.007
			c13.527,6.057,25.73,14.096,35.893,21.178c0.003,0,0.006-0.001,0.009-0.001c0.047,0,0.113,0.06,0.288,0.217
			c0.068,0.061,0.134,0.121,0.17,0.15l0.145,0.118c0.068,0.055,0.136,0.11,0.203,0.167c0.249,0.211,0.462,0.414,0.649,0.619
			c0.451,0.495,0.656,0.992,0.685,1.661c0.047,1.114-0.348,1.995-0.767,2.927c-0.071,0.158-0.142,0.316-0.211,0.477l-0.131,0.28
			c-0.081,0.171-0.191,0.252-0.35,0.252c-0.039,0-0.081-0.005-0.126-0.014c-9.804-2.171-18.925-6.229-27.746-10.153l-1.581-0.703
			c-13.04-5.795-14.105-6.269-25.422-15.727l-0.092-0.075c-0.301-0.242-0.612-0.473-0.924-0.685
			c-0.181-0.124-0.369-0.229-0.553-0.342c-2.09,1.932-5.061,3.269-7.613,3.413c-0.22,0.012-0.439,0.018-0.657,0.018
			c-2.815,0-5.491-1.02-7.597-2.91c-0.907-0.814-1.665-1.751-2.257-2.777c-0.884-1.532-1.4-3.263-1.495-5.082
			c-0.038-0.734-0.004-1.47,0.097-2.189c-0.58-0.253-1.166-0.489-1.757-0.704c-0.01-0.004-0.02-0.009-0.028-0.015
			c-1.044-0.38-2.11-0.754-3.142-1.116c-0.916-0.322-1.832-0.643-2.746-0.972c-1.467-0.524-2.945-1.089-4.394-1.68
			c-1.429-0.591-2.865-1.228-4.267-1.896c-0.003,0-0.006,0-0.008,0c-0.012,0-0.023-0.002-0.034-0.007
			c-13.415-6.403-26.461-14.094-36.752-21.665c-0.002,0-0.005,0.001-0.008,0.001c-0.046,0-0.11-0.061-0.28-0.222
			c-0.065-0.062-0.128-0.122-0.162-0.152l-0.138-0.119c-0.066-0.056-0.132-0.112-0.196-0.17c-0.238-0.212-0.441-0.417-0.621-0.626
			c-0.125-0.144-0.228-0.288-0.314-0.436c-0.21-0.363-0.307-0.75-0.315-1.223c-0.017-1.105,0.393-1.97,0.828-2.887
			c0.073-0.154,0.147-0.309,0.219-0.467l0.136-0.275c0.082-0.165,0.19-0.243,0.342-0.243c0.041,0,0.084,0.006,0.132,0.017
			c12.046,2.945,24.003,8.199,30.057,11.069l0.529,0.251c12.631,5.986,13.663,6.475,24.511,16.056l0.088,0.075
			c0.29,0.247,0.589,0.481,0.888,0.696c0.177,0.128,0.361,0.238,0.542,0.355c1.334-1.38,2.969-2.381,4.761-2.953
			c-0.002-0.002-0.006-0.001-0.007-0.003c-0.004-0.008-0.008-0.016-0.01-0.025c-0.013-0.053,0.019-0.108,0.072-0.121
			c0.034-0.009,3.406-0.906,7.191-6.297c3.155-4.692,3.685-5.752,3.69-5.762c0.004-0.009,0.009-0.017,0.016-0.023
			c0.1-0.11,0.915-0.973,1.552-0.973c0.038,0,0.076,0.003,0.112,0.01l25.031-42.746c-0.018-0.058-0.017-0.108-0.026-0.161
			c-0.005-0.005-0.015-0.004-0.018-0.011c-0.009-0.015-0.013-0.032-0.013-0.05l0.006-1.786c0-0.014,0.003-0.027,0.009-0.04
			l1.751-3.908c-0.002-0.004-0.005-0.009-0.006-0.01c-0.025-0.049-0.005-0.108,0.044-0.133c0.004-0.002,0.007-0.002,0.011-0.002
			c0.004,0,0.008,0.001,0.012,0.001c0.002,0,0.003,0,0.005,0l6.538-14.594c-1.026,0.575-1.519,2.226-1.525,2.248
			c-0.008,0.026-0.026,0.048-0.05,0.061c-0.014,0.007-0.03,0.011-0.046,0.011c-0.011,0-0.022-0.002-0.033-0.005l-1.791-0.627
			c-0.023-0.008-0.042-0.024-0.053-0.044c-0.01-0.018-0.015-0.04-0.013-0.062c0.005-0.041,0.062-0.464,0.244-0.987l0.909-3.961
			c0,0,0.125-1.046-0.334-1.635c-0.173-0.221-0.41-0.352-0.705-0.388c-0.16-0.02-0.313-0.037-0.462-0.055
			c-1.086-0.125-1.952-0.237-2.815-0.798c-0.825-0.317-1.712-0.9-1.862-1c-0.037-0.028-3.181-2.523-8.324-11.429
			c-0.23-0.399-5.641-9.798-6.002-12.764c-0.194-1.599,0.004-2.382,0.257-2.774c-0.02-0.026-0.03-0.057-0.019-0.089
			c0.081-0.231,0.205-0.419,0.362-0.657c0.218-0.331,0.489-0.743,0.791-1.485c0.123-0.303,0.123-0.574,0.001-0.806
			c-0.274-0.53-1.081-0.702-1.09-0.704l-3.912-1.134c-0.544-0.095-0.94-0.251-0.978-0.266c-0.021-0.008-0.038-0.024-0.049-0.042
			c-0.011-0.02-0.016-0.043-0.012-0.067l0.323-1.87c0.005-0.027,0.02-0.051,0.043-0.066c0.016-0.011,0.036-0.017,0.055-0.017
			c0.007,0,0.015,0.001,0.022,0.003c0.012,0.003,0.523,0.116,1.147,0.116c0.514,0,1.106-0.077,1.558-0.355l-15.93-1.385
			c-0.006,0.007-0.007,0.017-0.016,0.023c-0.017,0.011-0.036,0.017-0.055,0.017c-0.032,0-0.063-0.015-0.082-0.044
			c0,0-0.004-0.007-0.006-0.01l-4.267-0.371c-0.014-0.001-0.027-0.005-0.039-0.012l-1.563-0.862
			c-0.016-0.009-0.029-0.022-0.038-0.037c-0.003-0.006,0.002-0.014,0-0.02c-0.043-0.033-0.086-0.057-0.129-0.101l-49.524,1.083
			c-0.214,0.623-1.498,0.95-1.651,0.986c-0.008,0.002-0.016,0.003-0.025,0.003c-0.001,0-0.002,0-0.003,0
			c-0.002,0-0.045-0.002-0.15-0.002c-0.457,0-2.095,0.037-6.681,0.424c-6.55,0.686-8.973,3.195-8.997,3.221
			c-0.019,0.02-0.043,0.029-0.068,0.029c-0.022,0-0.043-0.007-0.062-0.021c-1.177,1.09-2.585,2.014-4.053,2.611
			c0.024,0.215,0.04,0.43,0.075,0.646c0.06,0.372,0.137,0.751,0.229,1.128l0.028,0.116c3.756,14.26,3.732,15.426,3.441,29.69
			l-0.035,1.727c-0.194,9.654-0.394,19.638-2.592,29.437c-0.053,0.228-0.181,0.33-0.417,0.33l-0.306,0
			c-0.178-0.006-0.352-0.009-0.525-0.011c-1.022-0.017-1.987-0.033-2.975-0.549c-0.469-0.245-0.794-0.544-1.036-0.963
			c-0.065-0.112-0.123-0.232-0.177-0.362c-0.107-0.257-0.2-0.536-0.285-0.852c-0.023-0.084-0.043-0.169-0.064-0.253l-0.046-0.183
			c-0.011-0.044-0.037-0.128-0.063-0.215c-0.075-0.247-0.099-0.327-0.071-0.365c-2.094-12.21-4.19-26.672-3.928-41.488
			c0-0.017,0.005-0.033,0.013-0.048c0.029-1.582,0.1-3.181,0.212-4.755c0.119-1.588,0.276-3.196,0.464-4.78
			c0.114-0.986,0.237-1.969,0.359-2.952c0.139-1.109,0.281-2.255,0.41-3.384c-0.002-0.009-0.002-0.019-0.002-0.028
			c0.068-0.598,0.118-1.2,0.152-1.803c-0.698-0.215-1.381-0.491-2.028-0.837c-1.896-1.012-3.431-2.503-4.478-4.317
			c-0.435-0.754-0.786-1.563-1.044-2.418c-0.88-2.918-0.564-6.008,0.888-8.699c1.378-2.553,3.648-4.472,6.394-5.411
			c-0.03-0.214-0.05-0.427-0.091-0.641c-0.068-0.361-0.153-0.731-0.254-1.1l-0.031-0.113c-4.066-13.889-4.071-15.031-4.125-29.007
			l-0.002-0.588c-0.027-6.7,0.294-19.756,2.745-31.911c0.047-0.226,0.172-0.328,0.406-0.334l0.304-0.006
			c0.075,0.001,0.15,0.001,0.224,0.001c0.099,0,0.198,0,0.296-0.001c0.098,0,0.195-0.001,0.291-0.001
			c0.907,0,1.775,0.039,2.672,0.477c0.597,0.292,0.966,0.674,1.235,1.273c0.113,0.251,0.212,0.522,0.303,0.828
			c0.025,0.084,0.049,0.168,0.071,0.253l0.048,0.173c0.013,0.043,0.041,0.126,0.069,0.211c0.078,0.235,0.105,0.314,0.079,0.354
			c2.483,12.531,3.905,27.608,4.005,42.474c0,0.017-0.004,0.033-0.012,0.048c0.009,1.547-0.023,3.115-0.096,4.66
			c-0.081,1.568-0.197,3.146-0.345,4.692c-0.09,0.966-0.188,1.931-0.285,2.895c-0.111,1.09-0.225,2.217-0.325,3.326
			c0.002,0.009,0.003,0.019,0.002,0.029c-0.057,0.627-0.092,1.258-0.109,1.889c0.694,0.214,1.375,0.496,2.023,0.842
			c0.679,0.363,1.311,0.788,1.892,1.266c3.562,3.192,9.433,3.304,9.492,3.305c0.059,0.002,5.625,0.218,6.795,0.227
			c1.241,0.01,1.536,0.81,1.549,0.843c0.003,0.009,0.005,0.018,0.006,0.027c0,0.009,0.002,0.042,0.003,0.062l49.435-1.079
			c0.071-0.068,0.144-0.114,0.219-0.142l1.598-0.823c0.01-0.005,0.022-0.009,0.034-0.01l0.037-0.005
			c0.016-0.014,0.034-0.026,0.057-0.028c0.001,0,0.003,0,0.004,0c0.022,0,0.043,0.011,0.065,0.012l19.834-2.467
			c-0.377-0.236-0.773-0.288-1.044-0.288c-0.204,0-0.339,0.029-0.343,0.03c-0.008,0.002-0.015,0.003-0.023,0.003
			c-0.02,0-0.039-0.006-0.056-0.017c-0.022-0.015-0.039-0.039-0.043-0.066l-0.341-2.048c-0.001-0.008,0.003-0.014,0.004-0.022
			c0.001-0.01,0.001-0.018,0.004-0.027c0.005-0.014,0.013-0.024,0.024-0.034c0.005-0.005,0.005-0.012,0.011-0.016l1.787-1.204
			c0.408-0.276,0.857-0.472,1.335-0.585c1.884-0.445,8.063-1.903,8.497-1.966c0.48-0.069,2.543-0.698,3.867-2.51
			c1.087-1.619,5.712-7.448,8.772-11.304c1.238-1.56,2.215-2.791,2.591-3.281c1.255-1.637,1.042-2.804,1.04-2.815l-3.65-14.716
			c-0.008-0.031,0.003-0.06,0.021-0.083c-0.2-1.021,0.296-2.263,0.322-2.325c0.009-0.022,0.025-0.04,0.047-0.051l1.915-0.982
			c0.014-0.007,0.03-0.011,0.045-0.011c0.012,0,0.024,0.002,0.035,0.006c0.026,0.01,0.047,0.031,0.057,0.057
			c0.002,0.005,0.578,1.444,1.673,1.864l-3.085-6.992l-4.089,2.361c-0.015,0.009-0.033,0.013-0.05,0.013
			c-0.006,0-0.013-0.001-0.019-0.002l-1.057-0.209c-0.028-0.006-0.052-0.023-0.067-0.048l-0.303-0.525
			c-0.005,0.005-0.006,0.013-0.013,0.016l-19.595,11.313c-0.003,0.002-0.006,0.002-0.009,0.002c-0.002,0-0.003,0-0.005,0
			c-0.002,0-0.004,0-0.007,0.001l0.763,1.321c0.369,0.64,0.15,1.461-0.49,1.83l-26.246,15.153c-0.58,0.335-1.213,0.494-1.839,0.494
			c-1.276,0-2.52-0.662-3.202-1.845l-2.415-4.184c-1.018-1.762-0.412-4.024,1.351-5.041l26.246-15.153
			c0.21-0.122,0.44-0.179,0.668-0.179c0.463,0,0.915,0.24,1.163,0.67l0.629,1.089c0.005-0.005,0.006-0.013,0.013-0.017
			l19.595-11.313c0.003-0.002,0.006-0.002,0.009-0.002c0.002,0,0.003,0,0.005,0c0.002,0,0.004,0,0.007-0.001l-0.191-0.331
			c-0.016-0.028-0.018-0.062-0.004-0.092l0.576-1.234c0.009-0.018,0.023-0.034,0.041-0.044l4.711-2.72l-1.254-2.841
			c-0.005-0.013-0.008-0.026-0.008-0.04l0.003-1.763c0-0.029,0.012-0.053,0.032-0.071c0.008-0.049,0.009-0.095,0.026-0.148
			L112.39,70.247c-0.036,0.006-0.072,0.009-0.109,0.009c-0.628,0-1.427-0.854-1.525-0.963c-0.006-0.007-0.012-0.014-0.016-0.024
			c-0.006-0.009-0.521-1.056-3.605-5.695c-3.699-5.325-7.015-6.215-7.048-6.223c-0.015-0.004-0.024-0.017-0.035-0.027
			c-1.335-0.417-2.59-1.076-3.692-1.962c-0.239,0.173-0.479,0.344-0.71,0.536c-0.289,0.24-0.577,0.498-0.854,0.767L94.71,56.75
			C84.346,67.195,83.334,67.762,70.938,74.698l-0.52,0.291c-5.581,3.123-19.802,10.783-31.304,14.447
			c-0.059,0.018-0.113,0.028-0.162,0.028c-0.139,0-0.244-0.072-0.331-0.223l-0.153-0.267c-0.084-0.156-0.168-0.308-0.252-0.459
			c-0.498-0.896-0.969-1.741-1.021-2.859c-0.031-0.672,0.127-1.187,0.53-1.72c0.168-0.222,0.36-0.444,0.588-0.676
			c0.062-0.063,0.125-0.125,0.188-0.186l0.132-0.129c0.032-0.032,0.092-0.097,0.153-0.163c0.168-0.182,0.227-0.246,0.273-0.246
			c0.002,0,0.004,0,0.005,0c10.044-8.472,24.361-18.282,37.404-25.628c0.015-0.008,0.031-0.012,0.047-0.013
			c1.375-0.773,2.784-1.517,4.189-2.212c1.427-0.699,2.886-1.374,4.338-2.007c0.902-0.397,1.805-0.785,2.709-1.173
			c1.023-0.44,2.081-0.894,3.117-1.353c0.007-0.007,0.015-0.012,0.024-0.016c0.54-0.238,1.073-0.495,1.6-0.765
			c-0.219-0.862-0.339-1.753-0.35-2.651c-0.074-6.211,4.918-11.323,11.129-11.398c0.046-0.001,0.091-0.001,0.137-0.001
			c2.809,0,5.489,1.037,7.569,2.927c0.17-0.128,0.344-0.247,0.51-0.386c0.282-0.234,0.561-0.485,0.829-0.746l0.082-0.081
			c10.063-10.166,11.048-10.718,23.091-17.463l0.503-0.282c9.495-5.32,21.58-11.803,30.828-14.746
			C166.877,4.525,166.93,4.516,166.978,4.516 M166.978,2.516c-0.247,0-0.497,0.039-0.745,0.115
			c-9.439,3.004-21.64,9.548-31.218,14.913l-0.504,0.282c-12.017,6.731-13.274,7.434-23.535,17.801l-0.04,0.039
			c-2.203-1.523-4.82-2.347-7.529-2.347l-0.161,0.001c-3.538,0.042-6.851,1.463-9.328,4c-2.478,2.537-3.819,5.883-3.776,9.421
			c0.006,0.497,0.04,0.995,0.103,1.491c-0.054,0.024-0.108,0.048-0.161,0.072c-0.016,0.007-0.032,0.015-0.048,0.022
			c-0.026,0.012-0.052,0.025-0.078,0.039c-0.95,0.42-1.918,0.836-2.858,1.24l-0.138,0.059c-0.909,0.39-1.818,0.781-2.725,1.18
			c-1.473,0.642-2.959,1.33-4.412,2.041c-1.395,0.69-2.787,1.423-4.148,2.185c-0.073,0.031-0.143,0.066-0.209,0.104
			c-13.04,7.344-27.4,17.176-37.52,25.685c-0.279,0.18-0.482,0.401-0.635,0.567l-0.104,0.112l-0.108,0.106
			c-0.074,0.072-0.148,0.144-0.219,0.217c-0.286,0.292-0.533,0.577-0.754,0.869c-0.68,0.9-0.984,1.888-0.931,3.018
			c0.074,1.587,0.71,2.729,1.271,3.738c0.081,0.146,0.16,0.288,0.238,0.433c0.009,0.017,0.019,0.034,0.029,0.051l0.153,0.267
			c0.446,0.769,1.216,1.225,2.064,1.225c0.251,0,0.506-0.04,0.757-0.118c11.688-3.723,26.052-11.458,31.686-14.611l0.52-0.29
			c12.362-6.917,13.654-7.64,24.216-18.285l0.069-0.068c0.078-0.076,0.159-0.152,0.241-0.227c0.881,0.543,1.826,0.981,2.824,1.309
			c0.093,0.042,0.188,0.078,0.284,0.105c0.095,0.03,2.824,0.946,5.945,5.438c2.852,4.29,3.444,5.421,3.468,5.467
			c0.026,0.05,0.057,0.105,0.087,0.153l0,0c0.066,0.105,0.14,0.205,0.219,0.293c0.378,0.419,1.024,1.03,1.826,1.371l23.668,40.919
			l-0.003,1.542c0,0.275,0.064,0.588,0.174,0.841l0.534,1.209l-3.156,1.822c-0.374,0.215-0.669,0.537-0.852,0.928l-0.577,1.236
			c-0.022,0.047-0.042,0.095-0.06,0.143l-16.908,9.762c-0.625-0.668-1.51-1.063-2.445-1.063c-0.584,0-1.161,0.155-1.668,0.447
			l-26.246,15.153c-1.315,0.759-2.256,1.987-2.65,3.456c-0.394,1.469-0.192,3.003,0.567,4.318l2.415,4.184
			c1.013,1.755,2.904,2.845,4.934,2.845c0.994,0,1.976-0.263,2.839-0.762l26.246-15.153c0.772-0.446,1.325-1.166,1.556-2.029
			c0.189-0.704,0.144-1.434-0.122-2.099l16.658-9.618c0.074,0.024,0.15,0.045,0.228,0.061l1.076,0.213
			c0.128,0.025,0.276,0.04,0.407,0.04c0.368,0,0.731-0.097,1.05-0.281l2.159-1.247l0.4,0.907l-1.022,0.524
			c-0.446,0.23-0.793,0.608-0.983,1.068c-0.114,0.275-0.638,1.635-0.496,3.06c-0.008,0.197,0.012,0.396,0.061,0.592l3.602,14.523
			c-0.018,0.164-0.117,0.63-0.638,1.309c-0.356,0.464-1.291,1.643-2.476,3.136l-0.095,0.119c-4.042,5.094-7.759,9.797-8.84,11.394
			c-0.862,1.157-2.223,1.625-2.543,1.688c-0.114,0.016-0.534,0.077-8.648,1.995c-0.714,0.168-1.385,0.463-1.994,0.874l-1.785,1.203
			c-0.16,0.108-0.306,0.241-0.429,0.391c-0.158,0.186-0.284,0.402-0.369,0.638c-0.038,0.104-0.068,0.22-0.089,0.336
			c-0.046,0.238-0.05,0.488-0.01,0.724l0.084,0.503l-16.126,2.006c-0.012,0-0.024,0-0.036,0c-0.048,0-0.099,0.002-0.146,0.005
			c-0.162,0.009-0.377,0.045-0.613,0.138c-0.089,0.03-0.174,0.065-0.257,0.106l-1.496,0.77l-47.876,1.045
			c-0.583-0.514-1.425-0.902-2.536-0.911c-0.663-0.005-3.147-0.088-6.646-0.222l-0.096-0.004c-0.087-0.002-5.261-0.138-8.227-2.796
			c-0.021-0.019-0.042-0.037-0.063-0.054c-0.688-0.567-1.436-1.067-2.222-1.487c-0.291-0.156-0.59-0.301-0.893-0.435
			c0.009-0.119,0.019-0.236,0.029-0.351c0.002-0.017,0.003-0.034,0.004-0.052c0.002-0.028,0.003-0.057,0.004-0.086
			c0.097-1.067,0.207-2.149,0.313-3.196l0.018-0.174c0.092-0.912,0.185-1.824,0.269-2.738c0.15-1.571,0.269-3.179,0.351-4.773
			c0.072-1.536,0.105-3.081,0.099-4.604c0.007-0.063,0.011-0.125,0.011-0.186c-0.1-14.943-1.522-30.083-4.005-42.693
			c-0.027-0.328-0.119-0.605-0.181-0.789l-0.017-0.05l-0.034-0.103l-0.037-0.134c-0.024-0.09-0.053-0.195-0.085-0.298
			c-0.114-0.383-0.243-0.735-0.392-1.066c-0.458-1.021-1.172-1.758-2.181-2.251c-1.283-0.628-2.505-0.68-3.55-0.68l-0.301,0.001
			l-0.286,0.001l-0.206-0.001c-0.006,0-0.013,0-0.019,0c-0.013,0-0.026,0-0.039,0l-0.304,0.006
			c-1.176,0.027-2.086,0.782-2.324,1.925c-2.488,12.342-2.814,25.551-2.787,32.328l0.002,0.586
			c0.055,13.945,0.06,15.402,4.206,29.563l0.021,0.076c-2.492,1.232-4.544,3.202-5.879,5.677c-1.707,3.163-2.077,6.795-1.043,10.227
			c0.3,0.994,0.712,1.95,1.227,2.84c1.238,2.145,3.06,3.902,5.268,5.081c0.277,0.148,0.563,0.287,0.857,0.417
			c-0.008,0.078-0.017,0.155-0.026,0.233c-0.002,0.018-0.004,0.036-0.005,0.054c-0.002,0.026-0.004,0.053-0.005,0.081
			c-0.124,1.087-0.261,2.189-0.395,3.256c-0.125,1-0.247,1.984-0.361,2.97c-0.192,1.612-0.351,3.249-0.472,4.861
			c-0.111,1.557-0.182,3.135-0.214,4.701c-0.009,0.07-0.015,0.14-0.016,0.208c-0.264,14.945,1.829,29.445,3.924,41.68
			c0.019,0.328,0.104,0.607,0.16,0.795l0.044,0.147l0.039,0.156c0.03,0.121,0.052,0.208,0.075,0.294
			c0.106,0.395,0.227,0.754,0.368,1.094c0.089,0.214,0.185,0.409,0.292,0.596c0.43,0.745,1.033,1.313,1.842,1.735
			c1.409,0.736,2.716,0.757,3.869,0.776c0.163,0.003,0.327,0.005,0.495,0.011c0.021,0.001,0.042,0.001,0.063,0.001l0.306,0
			c1.173-0.002,2.101-0.739,2.365-1.879c2.245-10.01,2.448-20.095,2.644-29.848l0.035-1.726c0.29-14.223,0.32-15.71-3.507-30.24
			l-0.02-0.081c-0.011-0.046-0.022-0.093-0.033-0.14c0.99-0.539,1.943-1.202,2.818-1.962c0.213-0.104,0.409-0.243,0.577-0.414
			c0.097-0.091,2.268-2.058,7.78-2.635c4.546-0.383,6.104-0.413,6.473-0.413l0.074,0.001c0.027,0.001,0.053,0.002,0.079,0.002
			c0.152,0,0.328-0.02,0.476-0.054c0.582-0.137,1.432-0.414,2.116-0.954l47.998-1.05l1.374,0.758
			c0.236,0.13,0.535,0.224,0.803,0.251l3.942,0.343c0.197,0.06,0.403,0.092,0.615,0.092c0.087,0,0.173-0.005,0.258-0.016
			l10.672,0.928l-0.049,0.282c-0.08,0.501,0.011,0.991,0.25,1.406c0.233,0.404,0.6,0.723,1.034,0.898
			c0.089,0.036,0.583,0.23,1.266,0.36l3.115,0.903c-0.038,0.06-0.077,0.119-0.116,0.178c-0.194,0.294-0.415,0.629-0.578,1.092
			c-0.026,0.073-0.048,0.147-0.065,0.222c-0.37,0.884-0.456,2.031-0.272,3.547c0.384,3.16,4.885,11.15,6.255,13.523
			c5.342,9.252,8.692,11.903,8.832,12.011c0.037,0.029,0.075,0.056,0.114,0.082c0.261,0.174,1.142,0.743,2.063,1.127
			c1.107,0.666,2.206,0.841,3.201,0.961l-0.812,3.539c-0.209,0.632-0.284,1.137-0.302,1.283c-0.054,0.476,0.039,0.92,0.265,1.312
			c0.247,0.43,0.644,0.761,1.115,0.928l0.279,0.098l-4.38,9.777c-0.171,0.236-0.291,0.506-0.354,0.789l-1.61,3.594
			c-0.115,0.257-0.183,0.576-0.183,0.858l-0.006,1.562l-24.261,41.432c-0.814,0.34-1.472,0.956-1.855,1.376
			c-0.121,0.132-0.236,0.299-0.32,0.463l0,0c-0.023,0.045-0.61,1.156-3.568,5.554c-3.159,4.498-5.931,5.442-6.065,5.485
			c-0.284,0.078-0.543,0.212-0.766,0.392c-1.317,0.495-2.551,1.194-3.649,2.064c-0.001-0.001-0.002-0.001-0.002-0.001l-0.084-0.072
			c-11.036-9.747-12.353-10.371-24.954-16.343l-0.53-0.251c-6.125-2.903-18.224-8.218-30.44-11.204
			c-0.214-0.05-0.412-0.074-0.607-0.074c-0.914,0-1.712,0.506-2.133,1.353l-0.137,0.277c-0.009,0.019-0.019,0.038-0.027,0.057
			c-0.055,0.12-0.111,0.238-0.167,0.356l-0.041,0.086c-0.489,1.029-1.045,2.2-1.02,3.773c0.013,0.819,0.204,1.535,0.582,2.191
			c0.149,0.258,0.323,0.501,0.532,0.744c0.236,0.274,0.499,0.54,0.804,0.811c0.072,0.065,0.152,0.133,0.232,0.202l0.128,0.111
			l0.087,0.084c0.159,0.151,0.371,0.353,0.656,0.512c10.362,7.602,23.457,15.314,36.902,21.731c0.064,0.031,0.131,0.058,0.201,0.082
			c1.383,0.655,2.798,1.282,4.207,1.864c1.484,0.605,2.99,1.181,4.485,1.715c0.913,0.329,1.833,0.652,2.754,0.975l0.067,0.023
			c0.972,0.341,1.974,0.693,2.958,1.05c0.05,0.022,0.1,0.042,0.149,0.059c0.101,0.037,0.204,0.075,0.309,0.115
			c-0.008,0.332-0.003,0.664,0.014,0.994c0.109,2.107,0.718,4.174,1.76,5.979c0.703,1.217,1.595,2.315,2.653,3.265
			c2.459,2.206,5.631,3.421,8.933,3.421c0.255,0,0.512-0.007,0.769-0.022c2.533-0.142,5.332-1.23,7.612-2.912
			c0.038,0.03,0.076,0.06,0.114,0.09l0.083,0.068c11.51,9.62,12.869,10.224,25.87,16.002l1.58,0.703
			c8.913,3.965,18.127,8.064,28.126,10.278c0.198,0.042,0.38,0.062,0.558,0.062c0.938,0,1.745-0.523,2.158-1.398l0.134-0.286
			c0.008-0.018,0.016-0.036,0.024-0.054c0.066-0.152,0.133-0.303,0.201-0.452c0.472-1.052,1.008-2.244,0.94-3.831
			c-0.048-1.13-0.442-2.087-1.205-2.924c-0.246-0.27-0.519-0.531-0.834-0.798c-0.071-0.061-0.147-0.122-0.223-0.184l-0.157-0.127
			l-0.081-0.074c-0.179-0.161-0.4-0.36-0.69-0.511c-10.181-7.088-22.408-15.132-36.033-21.233c-0.064-0.029-0.132-0.054-0.201-0.077
			c-1.432-0.636-2.891-1.242-4.34-1.8c-0.013-0.005-0.026-0.01-0.039-0.015c-1.505-0.572-3.007-1.106-4.465-1.588
			c-0.013-0.005-0.026-0.01-0.039-0.015c-0.023-0.009-0.045-0.017-0.068-0.024c-0.942-0.315-1.885-0.622-2.829-0.929
			c-1.046-0.341-2.095-0.682-3.125-1.029c-0.033-0.014-0.067-0.027-0.099-0.038c-0.084-0.028-0.167-0.057-0.25-0.086
			c0.007-0.321,0.003-0.639-0.013-0.952c-0.047-0.902-0.193-1.821-0.434-2.735c-0.414-3.692,1.661-7.659,1.682-7.699l0.071-0.139
			c1.603-3.159,2.706-5.306,3.024-5.889c0.533-0.976,0.604-1.9,0.438-2.66l24.197-41.326l1.371-0.913l0,0
			c0.08-0.054,0.16-0.116,0.235-0.183c0.171-0.138,0.319-0.303,0.44-0.492c0.028-0.043,0.055-0.09,0.08-0.139l9.598-13.119
			l0.403,0.321c0.185,0.147,0.402,0.263,0.629,0.339c0.11,0.038,0.224,0.068,0.331,0.086c0.112,0.019,0.229,0.029,0.345,0.029
			c0.077,0,0.158-0.005,0.24-0.015c0.244-0.024,0.484-0.093,0.702-0.203l1.932-0.981c0.656-0.334,1.238-0.776,1.731-1.316
			c5.627-6.163,5.873-6.486,5.966-6.608c0.194-0.229,1.263-1.19,2.69-1.38c2.095-0.184,9.415-1.388,14.271-2.186
			c1.787-0.294,3.475-0.571,4.082-0.661c0.223-0.033,0.436-0.049,0.634-0.049c0.449,0,0.712,0.084,0.821,0.129l10.938,10.211
			c0.148,0.138,0.314,0.253,0.492,0.342c1.175,0.814,2.614,1.018,2.914,1.053c0.076,0.009,0.165,0.014,0.242,0.014
			c0.417,0,0.82-0.122,1.167-0.354l0.955-0.639l0.598,0.791l-2.139,1.28c-0.44,0.263-0.768,0.678-0.923,1.167l-0.328,1.015
			c-0.025,0.081-0.046,0.163-0.061,0.245l-16.508,9.88c-0.629-0.767-1.583-1.229-2.59-1.229c-0.602,0-1.194,0.163-1.712,0.473
			l-26.005,15.564c-2.65,1.587-3.55,5.053-2.006,7.727l2.527,4.223c1.022,1.707,2.895,2.767,4.889,2.767
			c1.026,0,2.034-0.279,2.916-0.807l26.004-15.564c1.345-0.806,1.918-2.442,1.459-3.891l16.755-10.028
			c0.053,0.008,0.107,0.014,0.161,0.017l1.352,0.096c0.047,0.003,0.101,0.005,0.149,0.005c0.382,0,0.756-0.104,1.083-0.301
			l3.123-1.869l0.79,1.045c0.173,0.229,0.424,0.444,0.676,0.58l1.329,0.737l24.242,40.578c-0.091,0.853,0.121,1.704,0.309,2.258
			c0.007,0.022,0.016,0.044,0.024,0.066c0.048,0.126,0.113,0.256,0.188,0.376l-0.001,0c0.012,0.019,0.025,0.039,0.037,0.057
			c0.028,0.042,0.704,1.065,3.103,5.717c2.38,4.856,1.867,7.683,1.843,7.803c-0.026,0.107-0.043,0.214-0.051,0.321
			c-0.196,1.024-0.271,2.056-0.225,3.083c-0.109,0.036-0.22,0.071-0.33,0.104l-0.106,0.031c-14.41,4.043-15.67,4.821-27.726,12.259
			l-0.507,0.313c-5.494,3.388-19.237,12.177-28.167,20.572c-0.848,0.811-1.013,1.974-0.436,2.975l0.181,0.302
			c0.01,0.017,0.021,0.034,0.032,0.051c0.089,0.139,0.175,0.278,0.261,0.416c0.609,0.981,1.298,2.092,2.648,2.928
			c0.766,0.474,1.548,0.704,2.392,0.704c0.225,0,0.46-0.017,0.699-0.05c0.361-0.05,0.731-0.128,1.128-0.236l0.273-0.079l0.182-0.054
			l0.089-0.021l0.056-0.014c0.186-0.045,0.469-0.113,0.762-0.265c12.365-4.705,27.953-12.477,40.737-20.315
			c0.06-0.037,0.12-0.078,0.177-0.123c1.317-0.812,2.634-1.671,3.918-2.556c1.337-0.93,2.661-1.895,3.941-2.871
			c0.784-0.595,1.568-1.2,2.352-1.804c0.859-0.663,1.731-1.336,2.597-1.99c0.032-0.021,0.062-0.042,0.091-0.063
			c0.052-0.04,0.105-0.079,0.158-0.118c0.403,0.296,0.821,0.568,1.252,0.815c2.001,1.145,4.272,1.75,6.569,1.75
			c4.757,0,9.175-2.557,11.531-6.673c1.375-2.402,1.956-5.139,1.69-7.86l0.079-0.023c14.024-3.918,15.25-4.673,26.976-11.9
			l0.491-0.303c9.346-5.759,20.998-13.239,28.198-20.011c0.844-0.805,1.01-1.964,0.434-2.963l-0.177-0.296
			c-0.011-0.018-0.022-0.036-0.033-0.053c-0.085-0.132-0.167-0.265-0.249-0.397c-0.601-0.968-1.277-2.055-2.6-2.876
			c-0.757-0.469-1.529-0.697-2.363-0.697c-0.22,0-0.449,0.016-0.681,0.048c-0.352,0.048-0.716,0.124-1.108,0.231
			c-0.081,0.022-0.171,0.048-0.262,0.075l-0.195,0.058l-0.109,0.025c-0.189,0.046-0.47,0.113-0.76,0.261
			c-13.07,4.952-28.919,12.689-40.432,19.74c-0.06,0.037-0.119,0.078-0.177,0.123c-1.279,0.788-2.559,1.622-3.805,2.48l0,0
			c-0.007,0.004-0.013,0.009-0.02,0.014c-1.286,0.895-2.57,1.829-3.814,2.779c-0.73,0.553-1.459,1.116-2.189,1.679l-0.102,0.079
			c-0.822,0.634-1.671,1.289-2.515,1.926c-0.031,0.02-0.062,0.041-0.09,0.063c-0.095,0.071-0.19,0.143-0.287,0.213
			c-0.269-0.182-0.545-0.353-0.825-0.513c-0.765-0.438-1.578-0.801-2.415-1.081c-0.026-0.009-0.052-0.017-0.078-0.024
			c-3.774-1.088-6.593-5.327-6.621-5.369l-0.093-0.137c-1.965-2.88-3.293-4.847-3.644-5.397c-0.534-0.835-1.271-1.409-2.1-1.655
			l-24.18-40.47l-0.134-1.607c-0.008-0.096-0.025-0.198-0.048-0.299c-0.039-0.218-0.114-0.428-0.222-0.626
			c-0.01-0.018-0.02-0.036-0.031-0.054c-0.017-0.03-0.035-0.059-0.052-0.086l-0.472-1.013l2.56-1.53
			c0.381-0.23,0.671-0.56,0.846-0.96l0.499-1.115c0.029-0.063,0.054-0.128,0.076-0.194l17.254-10.327
			c0.452,0.556,1.067,0.95,1.773,1.128c0.27,0.068,0.544,0.102,0.818,0.102c0.602,0,1.195-0.164,1.714-0.475l25.32-15.154
			c2.65-1.586,3.55-5.052,2.006-7.727l-2.527-4.223c-1.021-1.707-2.895-2.767-4.889-2.767c-1.026,0-2.034,0.279-2.916,0.807
			l-25.321,15.155c-1.35,0.809-1.926,2.448-1.462,3.893l-17.182,10.283c-0.143-0.037-0.291-0.06-0.442-0.067l-1.089-0.053
			c-0.032-0.002-0.07-0.003-0.103-0.003c-0.383,0-0.758,0.105-1.086,0.303l-1.461,0.874l-0.507-1.089l0.778-0.451
			c0.605-0.351,1.045-0.913,1.239-1.583c0.128-0.438,0.511-1.753,0-3.208c-0.363-1.306-3.515-12.648-3.837-13.809l-0.026-0.094
			c-0.231-0.831-0.244-0.88,0.495-2.002c3.757-4.74,10.619-13.488,11.633-14.818c0.412-0.541,1.09-0.867,1.362-0.965
			c0.898-0.228,9.355-2.374,10.359-2.679c1.522-0.461,2.416-1.429,2.579-1.619c0.158-0.18,0.359-0.48,0.453-0.898
			c0.044-0.177,0.063-0.36,0.057-0.544l-0.022-0.992l12.028-1.662c0.038,0.002,0.077,0.003,0.115,0.003
			c0.232,0,0.459-0.039,0.674-0.112l3.872-0.535c0.276-0.038,0.58-0.147,0.817-0.294l1.311-0.809l47.242-1.269
			c0.711,0.501,1.571,0.733,2.129,0.837c0.12,0.022,0.262,0.035,0.384,0.035c0.06,0,0.128-0.003,0.187-0.008
			c0.046-0.003,0.37-0.023,1.263-0.023c0.876,0,2.494,0.02,5.224,0.117c5.381,0.302,7.599,2.121,7.707,2.213
			c0.08,0.075,0.165,0.142,0.255,0.202c0.798,0.673,1.66,1.243,2.578,1.707c-0.022,0.113-0.046,0.226-0.071,0.34l-0.024,0.103
			c-3.531,14.547-3.47,16.026-2.888,30.179l0.07,1.721c0.396,9.705,0.805,19.74,3.256,29.632c0.06,0.24,0.149,0.46,0.264,0.661
			c0.425,0.736,1.203,1.176,2.081,1.176c0.018,0,0.056-0.001,0.073-0.001l0.312-0.009c0.021-0.001,0.042-0.001,0.063-0.003
			c0.164-0.01,0.327-0.017,0.49-0.024c1.154-0.051,2.46-0.108,3.85-0.875c0.992-0.549,1.673-1.325,2.084-2.375
			c0.133-0.34,0.247-0.701,0.346-1.1c0.025-0.099,0.049-0.204,0.072-0.309l0.038-0.169l0.033-0.114
			c0.051-0.179,0.13-0.461,0.144-0.79c1.848-12.24,3.649-26.738,3.079-41.605c-0.003-0.07-0.01-0.141-0.02-0.212
			c-0.064-1.56-0.169-3.131-0.31-4.671c-0.156-1.616-0.345-3.208-0.562-4.739c-0.004-0.05-0.01-0.099-0.018-0.146
			c-0.127-0.927-0.27-1.9-0.413-2.874c-0.157-1.07-0.318-2.168-0.465-3.252c-0.003-0.049-0.008-0.097-0.015-0.144
			c-0.007-0.055-0.015-0.11-0.022-0.166c0.455-0.207,0.898-0.438,1.324-0.693c6.178-3.698,8.276-11.777,4.677-18.011l-0.104-0.177
			c-1.424-2.379-3.527-4.226-6.029-5.327l0.017-0.074c3.452-14.15,3.393-15.589,2.833-29.348l-0.068-1.678
			c-0.381-9.432-0.775-19.185-3.16-28.801c-0.289-1.118-1.204-1.829-2.336-1.829c-0.017,0-0.055,0.001-0.072,0.001l-0.307,0.009
			c-0.021,0.001-0.042,0.002-0.062,0.003c-0.159,0.009-0.318,0.016-0.476,0.023c-1.13,0.05-2.409,0.106-3.775,0.859
			c-0.977,0.538-1.65,1.303-2.056,2.337c-0.13,0.33-0.243,0.684-0.341,1.078c-0.021,0.083-0.042,0.175-0.063,0.268l-0.044,0.191
			l-0.033,0.114c-0.052,0.185-0.131,0.462-0.143,0.786c-1.808,11.895-3.57,25.982-3.022,40.431c0.003,0.07,0.009,0.141,0.02,0.213
			c0.061,1.504,0.162,3.029,0.299,4.534h0c0.001,0.01,0.002,0.02,0.003,0.03c0.151,1.563,0.337,3.137,0.554,4.679
			c0.13,0.945,0.269,1.894,0.408,2.842c0.151,1.034,0.308,2.1,0.45,3.151c0.003,0.051,0.009,0.101,0.016,0.149
			c0.014,0.103,0.028,0.208,0.041,0.316c-0.29,0.146-0.574,0.302-0.851,0.468c-0.757,0.453-1.473,0.985-2.127,1.579
			c-0.02,0.018-0.039,0.037-0.059,0.056c-2.798,2.757-7.864,3.138-7.915,3.141c-0.015,0.001-0.03,0.002-0.044,0.003
			c-1.907,0.167-5.735,0.496-6.617,0.546c-1.108,0.064-1.923,0.485-2.476,1.021l-47.122,1.268l-1.466-0.67
			c-0.085-0.039-0.179-0.073-0.275-0.101c-0.216-0.075-0.443-0.115-0.677-0.116c-0.002,0-0.005,0-0.007,0
			c-0.044,0-0.088,0.002-0.133,0.005l-16.361-1.235l0.075-1.073c0.012-0.176,0.001-0.351-0.032-0.52
			c-0.108-0.626-0.514-1.192-1.103-1.494l-0.244-0.124c-1.139-11.879-5.538-19.599-6.114-20.563l0.001,0
			c-2.821-4.885-7.657-11.46-14.72-15.142l0.008-0.218c0.017-0.619-0.224-1.188-0.658-1.594c-0.156-0.153-0.338-0.281-0.54-0.377
			l-0.984-0.461l6.876-14.894c0.028-0.044,0.055-0.088,0.079-0.134c0.082-0.152,0.167-0.354,0.214-0.599
			c0.028-0.113,0.045-0.225,0.054-0.338l0.127-1.595l24.026-40.56c0.828-0.249,1.563-0.826,2.094-1.664
			c0.599-0.946,3.663-5.469,3.693-5.514c0.01-0.015,0.021-0.031,0.031-0.047c0.022-0.034,2.835-4.302,6.619-5.392
			c0.073-0.021,0.145-0.046,0.214-0.075c0.786-0.275,1.542-0.621,2.248-1.029c0.279-0.161,0.554-0.333,0.822-0.516
			c0.092,0.067,0.182,0.133,0.27,0.199c0.036,0.027,0.074,0.054,0.114,0.079c0.817,0.612,1.638,1.241,2.436,1.851l0.083,0.064
			c0.787,0.602,1.541,1.18,2.301,1.751c1.245,0.942,2.535,1.874,3.83,2.768c1.26,0.861,2.545,1.691,3.83,2.476
			c0.064,0.049,0.131,0.094,0.197,0.133c12.335,7.491,25.502,12.802,36.776,17.008c0.286,0.145,0.56,0.209,0.749,0.254l0.142,0.034
			l0.15,0.044c0.086,0.025,0.184,0.054,0.282,0.08c0.384,0.104,0.747,0.178,1.106,0.226c0.226,0.03,0.449,0.046,0.663,0.046
			c0.841,0,1.619-0.231,2.378-0.706c1.319-0.826,1.991-1.915,2.583-2.877c0.085-0.137,0.169-0.274,0.256-0.412
			c0.011-0.018,0.022-0.036,0.033-0.054l0.153-0.257c0.595-1.005,0.435-2.174-0.406-2.979c-7.263-6.78-15.597-11.869-23.656-16.789
			l-1.421-0.868c-11.751-7.182-12.98-7.933-27.044-11.804l-0.054-0.016c0.255-2.722-0.336-5.456-1.72-7.853
			c-2.361-4.089-6.77-6.63-11.506-6.63c-2.315,0-4.602,0.614-6.613,1.775c-0.431,0.249-0.848,0.522-1.25,0.82
			c-0.047-0.035-0.095-0.07-0.141-0.105c-0.036-0.027-0.074-0.054-0.114-0.079c-0.872-0.653-1.749-1.325-2.599-1.976
			c-0.787-0.602-1.573-1.204-2.366-1.801c-1.279-0.968-2.605-1.927-3.938-2.847c-1.291-0.883-2.611-1.736-3.931-2.543
			c-0.05-0.039-0.102-0.075-0.154-0.108c-12.736-7.742-26.272-13.217-37.863-17.554c-0.292-0.15-0.577-0.217-0.777-0.265
			l-0.155-0.038l-0.142-0.042c-0.127-0.037-0.21-0.061-0.294-0.084c-0.398-0.107-0.767-0.183-1.128-0.232
			c-0.231-0.031-0.46-0.047-0.68-0.047c-0.85,0-1.637,0.233-2.405,0.712c-1.347,0.841-2.032,1.954-2.637,2.936
			c-0.087,0.142-0.172,0.281-0.262,0.422c-0.011,0.018-0.022,0.036-0.033,0.054l-0.156,0.264c-0.457,0.772-0.471,1.677-0.041,2.423
			c0.119,0.206,0.27,0.397,0.451,0.569c7.471,6.971,16.041,12.208,24.329,17.273l1.463,0.895
			c12.084,7.392,13.347,8.165,27.801,12.162l0.086,0.025c0.107,0.032,0.215,0.066,0.323,0.101c-0.042,1.034,0.038,2.073,0.241,3.104
			c0.009,0.101,0.024,0.201,0.047,0.297c0.02,0.097,0.559,2.926-1.831,7.848c-2.355,4.608-3.032,5.645-3.06,5.687l0,0
			c-0.104,0.155-0.195,0.34-0.253,0.514c-0.179,0.53-0.396,1.393-0.303,2.26l-24.084,40.661l-1.346,0.753
			c-0.242,0.135-0.484,0.347-0.652,0.569l-2.318,3.095c-0.225,0.196-0.408,0.439-0.534,0.713l-7.246,9.674l-0.909-0.533
			c-0.171-0.1-0.356-0.174-0.548-0.22c-0.171-0.045-0.344-0.067-0.523-0.067c-0.139,0-0.289,0.016-0.425,0.044
			c-0.253,0.054-1.532,0.373-2.662,1.466c-0.696,0.673-5.802,6.078-7.376,7.746c-0.216,0.189-0.832,0.625-1.507,0.722
			c-1.655,0.239-12.629,1.98-18.595,2.957c-0.261,0.018-0.494,0.028-0.694,0.028c-0.731,0-0.731,0-1.308-0.57l-0.061-0.061
			c-0.86-0.847-9.171-9.052-10.191-10.06c-1.023-1.165-2.369-1.472-2.818-1.574c-0.199-0.045-0.401-0.068-0.602-0.068
			c-0.487,0-0.966,0.132-1.385,0.382l-0.767,0.457l-0.705-0.972l1.48-0.854c0.36-0.208,0.648-0.515,0.833-0.889l0.485-0.981
			c0.066-0.133,0.118-0.272,0.154-0.413l17.341-10.012c0.625,0.668,1.509,1.063,2.445,1.063c0.584,0,1.161-0.155,1.668-0.447
			l25.556-14.755c2.717-1.569,3.652-5.056,2.083-7.773l-2.416-4.184c-1.013-1.754-2.904-2.844-4.934-2.844
			c-0.994,0-1.976,0.263-2.839,0.762L171.794,93.76c-0.772,0.446-1.325,1.166-1.556,2.029c-0.189,0.704-0.144,1.434,0.122,2.099
			l-17.414,10.054c-0.065-0.012-0.131-0.022-0.198-0.028l-1.241-0.109c-0.058-0.005-0.124-0.008-0.183-0.008
			c-0.367,0-0.729,0.097-1.047,0.28l-2.587,1.493l-0.656-0.905c-0.01-0.018-0.02-0.036-0.03-0.055
			c-0.01-0.017-0.025-0.043-0.035-0.059c-0.097-0.155-0.233-0.333-0.423-0.496c-0.082-0.077-0.167-0.146-0.259-0.208l-1.348-0.904
			l-23.6-40.805c0.168-0.751,0.099-1.666-0.428-2.644c-0.488-0.904-2.684-5.289-2.999-5.919c-0.008-0.016-0.017-0.033-0.026-0.049
			c-0.019-0.036-2.348-4.553-1.467-8.379c0.006-0.026,0.011-0.052,0.016-0.078c0.164-0.87,0.242-1.759,0.232-2.643
			c-0.004-0.322-0.019-0.646-0.047-0.969c0.103-0.047,0.205-0.093,0.306-0.138c0.041-0.018,0.082-0.038,0.123-0.06
			c0.965-0.427,1.947-0.849,2.899-1.258c0.897-0.385,1.78-0.764,2.66-1.152c1.423-0.62,2.868-1.289,4.289-1.985
			c1.355-0.671,2.707-1.384,4.027-2.123c0.073-0.031,0.143-0.066,0.208-0.104c11.74-6.619,26.202-16.7,36.883-25.709
			c0.272-0.18,0.468-0.394,0.607-0.545l0.105-0.114l0.096-0.094c0.068-0.066,0.144-0.141,0.218-0.217
			c0.281-0.288,0.523-0.568,0.737-0.852c0.667-0.888,0.966-1.861,0.913-2.974c-0.075-1.557-0.696-2.675-1.244-3.663
			c-0.078-0.141-0.156-0.28-0.233-0.423c-0.01-0.018-0.02-0.037-0.031-0.055l-0.149-0.259C168.592,2.97,167.824,2.516,166.978,2.516
			L166.978,2.516z M248.21,48.935L248.21,48.935L248.21,48.935L248.21,48.935z"/>
	</g>
	<path class="st2" d="M136.854,215.014l-6.996-12.117c-2.175-3.768-0.88-8.603,2.888-10.778l15.897-9.178
		c4.473-2.582,10.213-1.045,12.795,3.428l5.519,9.559c2.582,4.473,1.044,10.213-3.429,12.796l-15.897,9.178
		C143.864,220.077,139.029,218.781,136.854,215.014z"/>
	<path class="st3" d="M229.746,153.191c1.75,3.002,6.017,10.32,3.995,15.773s-18.619,20.577-21.938,23.517
		s-12.251,10.495-22.325,17.961s-19.032,13.107-23.856,14.328c-4.824,1.221-15.966-2.927-17.879-3.907
		c-1.913-0.98-0.625-1.647-0.625-1.647l8.336-4.693c1.628-0.949,4.361-2.878,6.697-1.893c2.336,0.985,6.517,2.402,9.594,2.787
		c3.077,0.385,8.958-3.428,8.958-3.428s7.635-4.654,18.07-13.085c10.435-8.43,26.41-22.863,28.188-27.283
		c1.778-4.421-4.472-14.253-4.472-14.253l-0.335-0.564c0,0-5.444-10.323-10.17-10.977c-4.726-0.654-25.204,6.055-37.714,10.932
		c-12.51,4.878-20.347,9.199-20.347,9.199s-6.235,3.217-7.428,6.083s-2.037,7.206-2.341,9.726s-3.338,3.937-4.971,4.88l-8.218,4.912
		c0,0-1.22,0.788-1.122-1.362c0.098-2.15,2.025-13.899,5.482-17.486c3.456-3.587,12.808-8.567,24.301-13.611
		c11.492-5.044,22.495-9.051,26.698-10.473c4.204-1.422,25.593-8.327,31.336-7.372c5.744,0.955,9.987,8.304,11.727,11.319
		L229.746,153.191z"/>
</g>
<g id="Layer_1">
	<g>
		<g>
			<line class="st4" x1="167.52" y1="187.485" x2="201.36" y2="167.947"/>
			<g>
				<polygon class="st1" points="199.908,179.475 198.685,169.491 190.65,163.44 214.285,160.485 				"/>
			</g>
		</g>
	</g>
</g>
<g id="Layer_2">
	<g>
		<g>
			<line class="st5" x1="179.394" y1="89.239" x2="179.372" y2="85.314"/>
			<line class="st6" x1="179.33" y1="77.915" x2="178.93" y2="7.625"/>
			<line class="st5" x1="178.909" y1="3.925" x2="178.886" y2="0"/>
		</g>
	</g>
	<g>
		<g>
			<line class="st7" x1="180.648" y1="255.434" x2="180.626" y2="251.546"/>
			<line class="st8" x1="180.598" y1="246.705" x2="180.556" y2="239.443"/>
			<line class="st7" x1="180.542" y1="237.022" x2="180.519" y2="233.134"/>
		</g>
	</g>
	<g>
		<g>
			<line class="st5" x1="179.628" y1="130.391" x2="179.606" y2="126.465"/>
			<line class="st9" x1="179.578" y1="121.649" x2="179.537" y2="114.424"/>
			<line class="st5" x1="179.524" y1="112.016" x2="179.501" y2="108.09"/>
		</g>
	</g>
	<g>
		<g>
			<line class="st7" x1="181.255" y1="360" x2="181.232" y2="356.112"/>
			<line class="st10" x1="181.191" y1="349.075" x2="180.804" y2="282.222"/>
			<line class="st7" x1="180.783" y1="278.704" x2="180.761" y2="274.815"/>
		</g>
	</g>
	<circle class="st11" cx="22.047" cy="184.344" r="12.345"/>
	<circle class="st12" cx="337.953" cy="176.817" r="12.345"/>
</g>
</svg>
