<?xml version="1.0" encoding="utf-8"?>
<!-- Generator: Adobe Illustrator 21.1.0, SVG Export Plug-In . SVG Version: 6.00 Build 0)  -->
<svg version="1.1" xmlns="http://www.w3.org/2000/svg" xmlns:xlink="http://www.w3.org/1999/xlink" x="0px" y="0px"
	 viewBox="0 0 360 360" style="enable-background:new 0 0 360 360;" xml:space="preserve">
<style type="text/css">
	.st0{fill:#FFFFFF;}
	.st1{fill:#231916;}
	.st2{fill:none;stroke:#231916;stroke-miterlimit:10;}
	.st3{fill:none;stroke:#231916;stroke-width:5;stroke-linecap:round;stroke-linejoin:round;}
	.st4{fill:none;stroke:#231916;stroke-width:2;stroke-linecap:round;stroke-linejoin:round;}
	.st5{fill:none;stroke:#888888;stroke-width:1.8253;stroke-linecap:round;stroke-linejoin:round;}
	.st6{fill:none;stroke:#888888;stroke-width:1.8253;stroke-linecap:round;stroke-linejoin:round;stroke-dasharray:7.0297,7.0297;}
	.st7{fill:none;stroke:#888888;stroke-width:1.8253;stroke-linecap:round;stroke-linejoin:round;stroke-dasharray:6.9668,6.9668;}
	.st8{fill:#00B550;stroke:#00AF41;stroke-width:2;stroke-miterlimit:10;}
	.st9{fill:#00B550;stroke:#00AF41;stroke-width:1.9528;stroke-miterlimit:10;}
</style>
<g id="Layer_1">
	<g>
		<path class="st0" d="M198.848,361c-0.582,0-1.139-0.152-1.701-0.465c-1.17-0.651-1.807-1.574-2.423-2.466l-0.287-0.412
			l-0.187-0.279c-0.387-0.583-0.331-1.258,0.145-1.763c8.642-9.03,19.227-16.8,24.769-20.628l0.48-0.333
			c11.606-8.02,12.555-8.674,26.405-13.322l0.099-0.034c0.266-0.095,0.531-0.199,0.789-0.311c-0.341-1.592-0.365-3.248-0.072-4.856
			c-0.05-0.196-0.054-0.417-0.004-0.594c0.004-0.018,0.764-3.158-1.802-8.681c-2.368-4.836-3.05-5.91-3.077-5.954
			c-0.05-0.077-0.104-0.189-0.13-0.278c-0.137-0.426-0.372-1.355-0.163-2.153l-24.06-42.271c-0.003-0.001-1.588-0.923-1.588-0.923
			c-0.103-0.061-0.226-0.166-0.301-0.258l-2.428-3.355c-0.16-0.127-0.281-0.293-0.349-0.482l-6.986-9.663l-1.043,0.896
			c-0.181,0.155-0.477,0.266-0.716,0.266c-0.232,0-0.455-0.072-0.645-0.208c-0.124-0.095-0.479-0.378-0.867-0.82l-2.89-2.687
			c-0.196-0.135-0.556-0.316-0.78-0.316l-0.211,0.235l-0.123,0.165c-0.618,0.833-1.259,1.696-2.351,2.28
			c-0.76,0.595-1.715,1.075-1.904,1.168c-0.218,0.092-4.011,1.596-14.497,1.596c-1.175,0-11.558-0.035-14.443-1.264
			c-1.281-0.545-2.134-1.13-2.593-1.779c-0.052-0.04-0.098-0.084-0.138-0.13c-0.235-0.274-0.372-0.548-0.518-0.837
			c-0.172-0.342-0.359-0.716-0.788-1.266c-0.09,0.045-0.236,0.153-0.327,0.251l-2.942,2.827c-0.436,0.513-0.829,0.813-0.847,0.826
			c-0.174,0.132-0.446,0.225-0.664,0.225c-0.259,0-0.51-0.092-0.708-0.259l-1.051-0.875l-6.843,9.782
			c-0.068,0.197-0.189,0.368-0.347,0.496l-2.325,3.325c-0.083,0.119-0.222,0.245-0.347,0.318c0,0-1.543,0.931-1.558,0.938
			l-23.392,42.643c0.21,0.748,0.027,1.629-0.133,2.17c-0.026,0.086-0.075,0.194-0.123,0.271c-0.018,0.028-0.036,0.056-0.057,0.082
			c0-0.001,0-0.001,0-0.001c0.007,0-0.676,1.133-2.936,5.939c-2.47,5.541-1.661,8.671-1.652,8.702
			c0.055,0.165,0.062,0.34,0.029,0.507c0.275,1.356,0.363,2.742,0.26,4.064c0.293,0.108,0.593,0.207,0.895,0.295l0.119,0.035
			c14.336,3.906,15.342,4.515,27.656,11.964l1.48,0.896c8.302,5.017,16.887,10.204,24.352,17.079
			c0.515,0.479,0.615,1.151,0.267,1.759l-0.154,0.268l-0.279,0.462c-0.563,0.938-1.145,1.907-2.285,2.632
			c-0.614,0.391-1.214,0.572-1.888,0.572c-0.171,0-0.349-0.013-0.534-0.037c-0.323-0.042-0.653-0.109-1.008-0.204l-0.451-0.129
			l-0.167-0.039c-0.193-0.045-0.409-0.096-0.603-0.205c-11.609-4.29-25.178-9.708-37.922-17.37c-0.041-0.025-0.083-0.056-0.124-0.09
			c-1.337-0.807-2.671-1.658-3.966-2.534c-1.331-0.908-2.657-1.856-3.945-2.819c-0.797-0.592-1.589-1.191-2.382-1.79l-0.087-0.066
			c-0.842-0.637-1.71-1.294-2.572-1.932c-0.007-0.003-0.013-0.007-0.019-0.011c-0.305-0.224-0.593-0.429-0.874-0.623
			c-0.419,0.344-0.851,0.655-1.291,0.929c-1.965,1.224-4.214,1.87-6.504,1.87c-0.952,0-1.909-0.111-2.844-0.331
			c-3.229-0.759-5.967-2.735-7.711-5.566c-1.505-2.441-2.116-5.297-1.754-8.127c-0.266-0.088-0.539-0.17-0.816-0.242l-0.11-0.029
			c-14.181-3.451-15.181-4.023-27.421-11.027l-0.513-0.293c-5.848-3.346-17.058-10.191-26.422-18.446
			c-0.524-0.467-0.638-1.136-0.302-1.749l0.149-0.27l0.227-0.393c0.577-1.01,1.132-1.983,2.242-2.73
			c0.628-0.423,1.251-0.62,1.959-0.62c0.137,0,0.276,0.008,0.422,0.022c0.313,0.033,0.639,0.089,0.995,0.173l0.449,0.115
			l0.165,0.033c0.193,0.04,0.408,0.084,0.603,0.188c12.115,4.134,25.894,10.451,38.816,17.797c0.042,0.023,0.084,0.053,0.126,0.086
			c1.332,0.761,2.658,1.563,3.942,2.388c1.339,0.868,2.659,1.767,3.93,2.672c0.792,0.561,1.58,1.128,2.369,1.696
			c0.87,0.629,1.769,1.277,2.661,1.904c0.035,0.021,0.068,0.042,0.097,0.064c0.284,0.199,0.582,0.399,0.887,0.597
			c0.415-0.341,0.853-0.654,1.306-0.938c0.704-0.438,1.451-0.805,2.221-1.093c4.192-1.374,7.07-6.096,7.099-6.144
			c1.484-2.357,3.18-5.064,3.59-5.764c0.585-0.994,1.353-1.302,1.864-1.39l23.342-42.547c0.001-0.045,0.094-1.883,0.094-1.883
			c0.003-0.059,0.013-0.125,0.027-0.19c0.02-0.149,0.067-0.271,0.114-0.358c0.016-0.031,0.036-0.064,0.059-0.098l6.765-16.006
			l-1.458-0.547c-0.11-0.042-0.219-0.107-0.311-0.187c-0.048-0.039-0.094-0.083-0.13-0.124c-0.057-0.065-0.11-0.149-0.152-0.236
			c-0.097-0.181-0.119-0.354-0.119-0.476l-0.147-2.08c-0.043-0.607,0.024-1.215,0.2-1.804c2.393-7.967,2.525-8.3,2.575-8.425
			c0.115-0.287,0.537-2.102-0.226-3.827c-0.868-1.771-3.605-8.698-5.417-13.283l-0.186-0.468c-0.641-1.621-1.14-2.882-1.354-3.4
			c-0.587-1.414-1.324-1.745-1.355-1.758l-14.481-4.168c-0.101-0.029-0.201-0.079-0.295-0.146c-1.199-0.494-2.098-1.658-2.137-1.71
			c-0.142-0.186-0.234-0.48-0.225-0.715l0.104-2.096l-3.03-0.329v3.606c0,0.236-0.107,0.529-0.26,0.71l-0.721,0.824
			c-0.105,0.121-0.261,0.224-0.427,0.291v20.744h0.518c1.29,0,2.34,1.05,2.34,2.34V246.5c0,2.586-2.104,4.69-4.69,4.69h-4.829
			c-2.586,0-4.69-2.104-4.69-4.69v-30.298c0-1.29,1.05-2.34,2.34-2.34h0.25v-20.866c-0.109-0.073-0.205-0.162-0.274-0.26
			l-0.781-1.117c-0.117-0.168-0.198-0.426-0.198-0.631v-4.54l-2.194-0.238c-0.129-0.014-0.293-0.066-0.406-0.128
			c0,0-1.577-0.914-1.59-0.923l-47.896,0.039c-0.547,0.535-1.392,0.796-1.933,0.915c-0.071,0.016-0.164,0.025-0.236,0.025
			c-0.032,0-0.073-0.002-0.105-0.005c0.005,0.001,0.005,0.001-0.001,0.001c-0.021,0-0.127-0.003-0.325-0.003
			c-0.682,0-2.399,0.036-6.245,0.279c-5.943,0.497-8.247,2.68-8.27,2.702c-0.044,0.043-0.096,0.084-0.153,0.121
			c-0.921,0.834-1.946,1.515-3.056,2.03c0.005,0.029,0.009,0.059,0.015,0.088c0.059,0.347,0.133,0.698,0.221,1.048l0.028,0.106
			c3.897,14.319,3.881,15.489,3.689,29.819l-0.008,0.597c-0.086,6.423-0.566,22.645-3.163,34.524
			c-0.154,0.688-0.686,1.113-1.389,1.116l-0.314-0.001l-0.537-0.011c-1.092-0.017-2.224-0.034-3.428-0.656
			c-0.801-0.414-1.337-0.991-1.686-1.817c-0.124-0.293-0.233-0.609-0.334-0.968l-0.119-0.455l-0.047-0.151
			c-0.061-0.195-0.128-0.411-0.132-0.638c-2.308-12.966-3.642-30.286-3.483-45.244c0-0.046,0.005-0.096,0.014-0.146
			c0.02-1.57,0.081-3.146,0.18-4.688c0.11-1.603,0.256-3.219,0.436-4.808c0.107-0.978,0.223-1.957,0.339-2.938l0.017-0.137
			c0.123-1.037,0.249-2.104,0.361-3.157c0-0.015,0-0.029,0.001-0.043c0.037-0.347,0.066-0.677,0.09-1
			c-0.663-0.233-1.304-0.524-1.914-0.866c-2.852-1.602-4.91-4.222-5.796-7.378s-0.492-6.466,1.109-9.316
			c1.383-2.463,3.549-4.352,6.156-5.387c-0.051-0.271-0.111-0.543-0.179-0.812l-0.028-0.105
			c-3.806-13.919-3.791-15.058-3.609-28.986l0.007-0.577c0.141-10.928,0.572-24.697,2.666-34.264
			c0.158-0.685,0.686-1.105,1.38-1.108h0.303l0.516,0.012c1.081,0.018,2.187,0.036,3.364,0.642c0.786,0.406,1.312,0.972,1.658,1.78
			c0.122,0.286,0.229,0.595,0.328,0.947l0.116,0.442l0.046,0.149c0.062,0.198,0.128,0.408,0.131,0.628
			c2.457,13.702,3.954,31.218,3.816,44.672c0,0.047-0.005,0.098-0.014,0.15c-0.019,1.513-0.077,3.043-0.173,4.549
			c-0.107,1.568-0.249,3.14-0.422,4.673c-0.103,0.938-0.213,1.875-0.325,2.813l-0.021,0.179c-0.119,1.004-0.241,2.039-0.35,3.062
			c0,0.016-0.001,0.032-0.001,0.047c-0.042,0.388-0.073,0.759-0.098,1.123c0.491,0.197,0.968,0.427,1.428,0.685
			c0.711,0.399,1.387,0.873,2.009,1.408c3.185,2.966,8.615,3.211,8.669,3.213c0.271,0.017,5.579,0.333,6.68,0.364
			c1.019,0.03,1.707,0.459,2.101,0.953l47.783-0.037c0.037-0.019,1.662-0.811,1.662-0.811c0.052-0.025,0.113-0.049,0.177-0.067
			c0.132-0.052,0.254-0.07,0.349-0.074c0.008,0,0.099,0.001,0.139,0.004l2.1-0.219v-3.884c0-0.207,0.082-0.465,0.201-0.634
			l0.707-1.01c0.076-0.108,0.185-0.206,0.309-0.284v-21.522h-0.518c-1.29,0-2.34-1.049-2.34-2.339v-29.503
			c0-2.586,2.104-4.689,4.689-4.689h4.83c2.586,0,4.689,2.104,4.689,4.689v29.503c0,1.29-1.05,2.339-2.34,2.339h-0.249v21.453
			c0.186,0.09,0.352,0.226,0.454,0.381l0.603,0.905c0.109,0.165,0.185,0.412,0.185,0.609v2.817l3.207-0.333l-0.026-1.809
			c-0.007-0.438,0.154-0.858,0.454-1.182c0.262-0.283,1.062-1.151,2.318-1.369l0.707-0.199c2.877-0.791,13.172-3.62,13.176-3.621
			c1.033-0.285,1.313-0.362,2.133-2.067c2.089-5.54,6.1-15.998,6.726-17.562c0.444-1.11,0.169-2.289,0.166-2.301
			c-0.015-0.046-2.753-9.187-3.016-10.238c-0.299-1.192-0.049-2.186,0.034-2.462c0.036-0.12,0.107-0.246,0.194-0.356
			c0.079-0.108,0.18-0.201,0.294-0.27l1.713-0.975l-5.163-12.068c-0.091-0.112-0.163-0.239-0.201-0.362
			c-0.021-0.067-0.035-0.137-0.043-0.206l-1.565-3.66c-0.054-0.124-0.089-0.298-0.089-0.434c0,0,0.025-1.808,0.026-1.823
			l-23.479-41.731c-0.788-0.233-1.466-0.924-1.755-1.254c-0.066-0.075-0.137-0.184-0.177-0.275l0,0c-0.001,0-0.562-1.122-3.462-5.6
			c-3.349-4.944-6.379-5.88-6.409-5.889c-0.059-0.018-0.12-0.042-0.18-0.073c-1.177-0.395-2.271-0.955-3.264-1.67
			c-0.022,0.018-0.045,0.036-0.067,0.055c-0.277,0.224-0.547,0.46-0.808,0.706l-0.083,0.08
			C84.392,64.482,83.363,65.042,70.774,71.89l-1.505,0.819c-8.488,4.621-17.262,9.397-26.908,12.344
			c-0.15,0.046-0.301,0.069-0.449,0.069c-0.503,0-0.941-0.268-1.205-0.734l-0.151-0.269l-0.229-0.433
			c-0.546-1.008-1.084-2.002-1.131-3.355c-0.03-0.903,0.211-1.652,0.759-2.36c0.192-0.249,0.415-0.5,0.68-0.765l0.339-0.326
			l0.118-0.124c0.14-0.148,0.289-0.307,0.48-0.417c9.519-7.845,20.992-16.809,33.987-23.925c0.041-0.022,0.087-0.043,0.136-0.061
			c1.374-0.749,2.777-1.468,4.174-2.138c1.453-0.689,2.934-1.354,4.404-1.974c0.859-0.367,1.724-0.726,2.588-1.085l0.142-0.06
			c1.007-0.417,2.045-0.849,3.063-1.285c0.023-0.013,0.047-0.024,0.067-0.033c0.298-0.128,0.59-0.259,0.879-0.394
			c-0.121-0.693-0.182-1.395-0.182-2.094c0-6.761,5.501-12.261,12.262-12.261c2.824,0,5.531,0.964,7.711,2.73
			c0.21-0.176,0.418-0.361,0.619-0.553l0.083-0.079c10.271-10.131,11.27-10.675,23.503-17.336l1.462-0.796
			c8.247-4.495,16.772-9.142,26.15-12.003c0.159-0.046,0.305-0.067,0.444-0.067c0.501,0,0.938,0.267,1.2,0.732l0.146,0.257
			l0.25,0.469c0.509,0.942,1.034,1.915,1.081,3.238c0.032,0.883-0.204,1.619-0.741,2.316c-0.19,0.248-0.408,0.494-0.664,0.749
			l-0.325,0.314l-0.115,0.121c-0.128,0.135-0.272,0.289-0.458,0.4c-9.249,7.637-20.399,16.365-33.03,23.289
			c-0.039,0.021-0.083,0.041-0.13,0.059c-1.322,0.722-2.688,1.421-4.058,2.08c-1.42,0.674-2.858,1.319-4.281,1.919
			c-0.883,0.376-1.77,0.745-2.656,1.113l-0.302,0.125c-0.88,0.367-1.782,0.743-2.669,1.122c-0.023,0.013-0.046,0.024-0.066,0.033
			c-0.338,0.145-0.669,0.295-0.995,0.449c0.068,0.524,0.103,1.054,0.103,1.58c0,0.764-0.074,1.539-0.222,2.307
			c-0.005,0.048-0.014,0.097-0.025,0.144c-1.043,4.202,1.421,9.073,1.445,9.122c0.107,0.222,2.443,5.031,2.954,6.006
			c0.473,0.902,0.435,1.712,0.197,2.297l23.428,41.646c0.034,0.023,0.068,0.049,0.101,0.074l1.421,0.978
			c0.045,0.032,0.096,0.074,0.143,0.119c0.115,0.094,0.194,0.197,0.246,0.284c0.021,0.033,0.039,0.071,0.057,0.11l10.08,14.281
			l1.697-1.185c0.124-0.086,0.268-0.144,0.416-0.168c0.078-0.017,0.156-0.026,0.224-0.026c0.199,0,0.395,0.055,0.564,0.159
			l0.714,0.446c0.043-0.021,0.1-0.05,0.17-0.09c0.054-0.03,0.117-0.073,0.202-0.128c6.566-4.242,14.551-5.13,20.099-5.131
			c0.028-0.001,0.115-0.003,0.24-0.003c1.604,0,10.129,0.241,20.451,5.008c0.117,0.055,0.208,0.089,0.273,0.11l0.672-0.437
			c0.162-0.105,0.395-0.174,0.588-0.174c0.066,0,0.141,0.009,0.216,0.024c0.146,0.022,0.286,0.078,0.409,0.16l1.715,1.158
			l9.857-14.441c0.015-0.035,0.03-0.069,0.048-0.1c0.074-0.121,0.16-0.221,0.256-0.301c0.047-0.048,0.096-0.092,0.139-0.122
			l1.395-0.992c0.033-0.027,0.067-0.054,0.103-0.078l22.769-42.006c-0.226-0.538-0.317-1.349,0.162-2.303
			c0.516-1.021,2.824-5.978,2.846-6.024c0.017-0.033,0.054-0.1,0.054-0.1c-0.005,0.001,2.35-4.883,1.268-9.043
			c-0.184-0.841-0.278-1.66-0.291-2.475c-0.009-0.525,0.018-1.055,0.078-1.581c-0.327-0.148-0.656-0.292-0.987-0.427
			c-0.028-0.012-0.059-0.026-0.09-0.042c-0.995-0.408-2.01-0.812-2.992-1.201l-0.247-0.099c-0.807-0.32-1.614-0.642-2.419-0.97
			c-1.419-0.572-2.863-1.193-4.289-1.842c-0.015-0.006-0.028-0.013-0.041-0.019c-1.357-0.626-2.729-1.302-4.061-2.002
			c-0.043-0.015-0.083-0.031-0.12-0.05c-12.767-6.738-24.066-15.304-33.444-22.805c-0.177-0.104-0.309-0.24-0.426-0.36l-0.454-0.436
			c-0.259-0.25-0.48-0.492-0.675-0.738c-0.546-0.683-0.793-1.416-0.776-2.301c0.027-1.327,0.537-2.308,1.031-3.256l0.225-0.438
			l0.158-0.294c0.257-0.478,0.698-0.752,1.208-0.752c0.136,0,0.276,0.02,0.417,0.059c9.431,2.716,18.025,7.227,26.336,11.588
			l1.486,0.779c12.337,6.469,13.344,6.997,23.783,16.976l0.076,0.071c0.199,0.183,0.409,0.364,0.622,0.537
			c2.151-1.8,4.844-2.807,7.668-2.852l0.195-0.001c6.653,0,12.152,5.414,12.257,12.068c0.012,0.697-0.038,1.399-0.148,2.097
			c0.289,0.129,0.579,0.254,0.871,0.373c0.026,0.011,0.055,0.024,0.084,0.04c1.03,0.422,2.081,0.839,3.097,1.242
			c0.913,0.362,1.823,0.725,2.733,1.096c0.018,0.007,0.038,0.016,0.059,0.025c1.44,0.58,2.91,1.211,4.369,1.876
			c1.398,0.644,2.813,1.34,4.212,2.073c0.042,0.015,0.081,0.03,0.117,0.049c13.115,6.915,24.728,15.695,34.37,23.391
			c0.192,0.104,0.345,0.262,0.495,0.416l0.127,0.128l0.338,0.316c0.264,0.254,0.491,0.502,0.693,0.756
			c0.558,0.698,0.811,1.444,0.794,2.345c-0.026,1.352-0.548,2.355-1.053,3.327l-0.234,0.455l-0.158,0.294
			c-0.267,0.485-0.709,0.759-1.217,0.759c-0.139,0-0.282-0.021-0.427-0.062c-9.69-2.795-18.535-7.431-27.089-11.914l-1.535-0.805
			c-12.693-6.649-13.73-7.192-24.479-17.442l-0.077-0.072c-0.26-0.237-0.534-0.471-0.808-0.685
			c-0.024-0.019-0.049-0.038-0.073-0.057c-0.98,0.73-2.065,1.307-3.234,1.72c-0.059,0.032-0.118,0.059-0.175,0.077
			c-0.041,0.013-3.057,1-6.334,6.009c-2.837,4.534-3.365,5.645-3.37,5.655c-0.038,0.082-0.106,0.19-0.164,0.259
			c-0.356,0.414-0.997,1.05-1.735,1.281l-22.818,42.092c0.001,0.015,0.055,1.811,0.055,1.811c0.004,0.154-0.035,0.349-0.101,0.489
			l-1.495,3.679c-0.024,0.191-0.099,0.375-0.216,0.529l-4.951,12.175l1.667,0.914c0.113,0.062,0.216,0.147,0.298,0.248
			c0.098,0.112,0.179,0.245,0.221,0.371c0.035,0.101,0.386,1.162,0.078,2.475c-0.236,1.014-2.665,9.618-2.857,10.299
			c-0.05,0.262-0.207,1.298,0.205,2.282c0.646,1.542,4.822,11.939,7.04,17.544c0.807,1.604,1.089,1.677,2.136,1.948l14.04,3.623
			c1.16,0.186,1.967,1.031,2.231,1.309c0.303,0.315,0.472,0.733,0.472,1.175l0.003,1.811l3.211,0.282l-0.044-2.819
			c-0.003-0.198,0.068-0.448,0.176-0.614l0.593-0.92c0.1-0.154,0.261-0.289,0.442-0.38l-0.337-21.45l-0.248,0.004
			c-1.308,0-2.356-1.033-2.377-2.304l-0.464-29.498c-0.041-2.585,2.029-4.722,4.615-4.763l4.888-0.076
			c2.562,0,4.664,2.07,4.704,4.615l0.464,29.499c0.01,0.623-0.224,1.214-0.657,1.663c-0.438,0.45-1.021,0.702-1.645,0.713
			l-0.518,0.008l0.338,21.521c0.129,0.08,0.245,0.181,0.32,0.289l0.717,0.989c0.114,0.158,0.2,0.403,0.209,0.598l0.059,3.915
			l2.109,0.185c0.038-0.004,0.074-0.007,0.096-0.007c0.126,0.005,0.261,0.022,0.398,0.075c0.06,0.016,0.115,0.034,0.158,0.054
			l1.569,0.739c0.04,0.016,0.079,0.032,0.117,0.051l47.791-0.716c0.337-0.442,0.958-0.934,2.068-0.984
			c0.664-0.03,3.047-0.197,6.536-0.459l0.119-0.009c0.073-0.005,5.503-0.333,8.612-3.328c0.644-0.571,1.312-1.055,2.014-1.463
			c0.454-0.265,0.928-0.501,1.416-0.706c-0.03-0.358-0.066-0.716-0.11-1.07c-0.004-0.029-0.006-0.061-0.007-0.094
			c-0.131-1.061-0.275-2.135-0.415-3.175l-0.049-0.361c-0.111-0.837-0.224-1.673-0.329-2.511c-0.198-1.544-0.365-3.11-0.494-4.652
			c-0.121-1.519-0.203-3.049-0.246-4.562c-0.01-0.059-0.016-0.116-0.016-0.171c-0.35-13.424,0.873-30.964,3.114-44.705
			c-0.001-0.217,0.06-0.422,0.113-0.603l0.054-0.184l0.107-0.439c0.092-0.35,0.195-0.661,0.313-0.949
			c0.328-0.81,0.845-1.384,1.625-1.803c1.17-0.626,2.274-0.661,3.343-0.695l0.495-0.019l0.331-0.006c0.714,0,1.24,0.413,1.401,1.079
			c2.246,9.539,2.893,23.301,3.206,34.225l0.017,0.576c0.4,13.925,0.434,15.062-3.157,29.055l-0.022,0.094
			c-0.063,0.269-0.119,0.541-0.166,0.812c2.624,0.994,4.819,2.848,6.241,5.289c3.401,5.842,1.417,13.363-4.425,16.767
			c-0.604,0.351-1.239,0.651-1.9,0.896c0.028,0.314,0.062,0.629,0.101,0.941c0.004,0.027,0.006,0.059,0.007,0.091
			c0.135,1.1,0.285,2.215,0.431,3.293c0.131,0.979,0.263,1.957,0.386,2.937c0.203,1.58,0.375,3.193,0.51,4.792
			c0.126,1.575,0.211,3.149,0.254,4.687c0.011,0.061,0.017,0.12,0.017,0.177c0.394,14.923-0.668,32.261-2.771,45.268
			c0,0.223-0.062,0.435-0.117,0.622l-0.051,0.174l-0.109,0.452c-0.096,0.361-0.2,0.679-0.319,0.974
			c-0.337,0.83-0.863,1.416-1.656,1.843c-1.196,0.641-2.326,0.676-3.419,0.711l-0.503,0.019l-0.343,0.006
			c-0.715,0-1.244-0.415-1.408-1.084c-2.787-11.855-3.521-28.063-3.708-34.481l-0.018-0.595
			c-0.418-14.327-0.451-15.497,3.224-29.886l0.023-0.1c0.082-0.349,0.15-0.701,0.203-1.045c0.005-0.03,0.009-0.061,0.013-0.091
			c-1.12-0.5-2.158-1.166-3.094-1.986c-0.072-0.048-0.14-0.102-0.192-0.159c0.001,0,0.001,0,0.001,0
			c-0.005,0-2.351-2.125-8.29-2.528c-3.189-0.15-4.921-0.183-5.808-0.183c-0.53,0-0.742,0.012-0.786,0.014
			c-0.028,0.003-0.056,0.004-0.082,0.004c-0.042,0-0.097-0.004-0.138-0.009c-0.503-0.099-1.429-0.342-2.023-0.897l-47.894,0.714
			c-0.013,0.008-1.549,0.933-1.549,0.933c-0.115,0.068-0.281,0.127-0.413,0.146l-2.209,0.274l0.071,4.54
			c0.003,0.198-0.069,0.45-0.177,0.616l-0.774,1.145c-0.067,0.1-0.162,0.19-0.271,0.266l0.328,20.865l0.249-0.004
			c1.297,0,2.356,1.033,2.377,2.302l0.476,30.295c0.041,2.585-2.029,4.722-4.615,4.763l-4.888,0.076c-2.56,0-4.663-2.07-4.704-4.615
			l-0.477-30.295c-0.019-1.29,1.015-2.355,2.303-2.376l0.517-0.008l-0.325-20.742c-0.159-0.062-0.308-0.154-0.412-0.264
			l-0.741-0.819c-0.166-0.185-0.283-0.488-0.283-0.736l-0.057-3.59l-3.024,0.376l0.137,2.088c0.015,0.228-0.066,0.519-0.197,0.705
			c-0.187,0.245-1.02,1.286-2.121,1.762c-0.092,0.067-0.191,0.12-0.291,0.151l-14.507,4.427c0.001,0,0.002,0,0.003,0
			c0.019,0-0.692,0.359-1.243,1.748c-0.226,0.57-0.777,2.03-1.475,3.881c-1.742,4.62-4.375,11.603-5.229,13.417
			c-0.719,1.697-0.269,3.506-0.149,3.79c0.049,0.115,0.194,0.464,2.708,8.383c0.184,0.583,0.261,1.188,0.229,1.8l-0.116,2.153
			c-0.008,0.136-0.045,0.273-0.105,0.396c-0.042,0.091-0.096,0.179-0.151,0.246c-0.038,0.045-0.089,0.096-0.14,0.138
			c-0.093,0.082-0.197,0.145-0.312,0.188l-1.436,0.564l7.017,15.901c0.03,0.043,0.057,0.086,0.076,0.125
			c0.04,0.077,0.085,0.19,0.104,0.332c0.02,0.083,0.031,0.172,0.031,0.247l0.109,1.683c0.006,0.045,0.01,0.089,0.013,0.134
			l24.007,42.176c0.505,0.079,1.284,0.371,1.886,1.359c0.503,0.824,2.694,4.193,3.613,5.604c0.001,0.001,0.055,0.084,0.056,0.085
			c0.035,0.057,2.612,4.14,6.353,5.736c0.87,0.231,1.696,0.546,2.459,0.935c0.463,0.236,0.919,0.51,1.365,0.816
			c0.257-0.212,0.51-0.427,0.759-0.646c0.023-0.021,0.049-0.04,0.075-0.06c0.836-0.737,1.677-1.493,2.49-2.226
			c0.735-0.662,1.472-1.324,2.212-1.979c0.021-0.019,0.044-0.037,0.066-0.055c1.145-1.021,2.361-2.058,3.616-3.081
			c0.003-0.002,0.01-0.008,0.01-0.008c1.218-0.982,2.475-1.945,3.736-2.861c0.03-0.03,0.062-0.059,0.093-0.082
			c12.079-8.737,25.134-15.285,36.331-20.541c0.179-0.125,0.383-0.191,0.562-0.251l0.188-0.062l0.442-0.167
			c0.35-0.126,0.673-0.22,0.983-0.287c0.289-0.063,0.56-0.095,0.826-0.095c0.555,0,1.088,0.138,1.632,0.423
			c1.197,0.624,1.858,1.541,2.498,2.428l0.3,0.41l0.193,0.276c0.401,0.58,0.357,1.26-0.112,1.776
			c-6.849,7.478-14.959,13.374-22.804,19.077l-1.407,1.023c-11.64,8.47-12.591,9.161-26.568,14.28l-0.099,0.037
			c-0.289,0.112-0.58,0.236-0.86,0.368c0.473,2.834,0.076,5.917-1.082,8.21c-1.499,2.969-4.06,5.171-7.211,6.2
			c-1.253,0.409-2.545,0.616-3.843,0.616c-1.927,0-3.864-0.469-5.603-1.356c-0.475-0.242-0.938-0.517-1.382-0.822
			c-0.289,0.225-0.574,0.454-0.854,0.688c-0.023,0.021-0.052,0.041-0.081,0.062c-0.831,0.698-1.666,1.415-2.476,2.11
			c-0.738,0.634-1.476,1.268-2.22,1.896c-1.19,1.011-2.43,2.017-3.684,2.991c-1.218,0.937-2.473,1.851-3.734,2.721
			c-0.041,0.038-0.083,0.071-0.124,0.1c-12.239,8.407-25.432,15.871-37.156,21.021c-0.187,0.121-0.397,0.183-0.585,0.237
			l-0.183,0.056l-0.414,0.145c-0.35,0.114-0.671,0.199-0.982,0.258C199.322,360.977,199.085,361,198.848,361z"/>
		<path class="st1" d="M194.11,3.788c0.045,0,0.094,0.008,0.148,0.022c9.322,2.685,17.872,7.172,26.14,11.51l1.487,0.78
			c12.22,6.407,13.218,6.931,23.556,16.813l0.084,0.079c0.275,0.253,0.56,0.496,0.849,0.722c0.169,0.133,0.346,0.248,0.52,0.371
			c2.059-1.977,4.763-3.093,7.62-3.138c0.06-0.001,0.12-0.002,0.18-0.002c6.128,0,11.161,4.935,11.257,11.084
			c0.014,0.898-0.082,1.792-0.277,2.659c0.534,0.255,1.075,0.497,1.62,0.72c0.01,0.004,0.018,0.009,0.026,0.016
			c1.052,0.432,2.126,0.858,3.165,1.271c0.909,0.361,1.818,0.722,2.725,1.091c0.008,0.003,0.016,0.007,0.023,0.012
			c1.443,0.579,2.919,1.213,4.368,1.873c1.428,0.658,2.858,1.364,4.253,2.098c0.002,0,0.003,0,0.005,0
			c0.014,0,0.027,0.003,0.039,0.01c13.047,6.88,24.66,15.666,34.31,23.37c0.002-0.001,0.005-0.001,0.007-0.001
			c0.04,0,0.108,0.065,0.278,0.24c0.063,0.064,0.124,0.127,0.157,0.158l0.127,0.117c0.068,0.063,0.136,0.125,0.202,0.189
			c0.234,0.226,0.432,0.442,0.607,0.66c0.417,0.522,0.589,1.031,0.577,1.704c-0.021,1.118-0.468,1.976-0.941,2.885
			c-0.08,0.154-0.16,0.308-0.239,0.464l-0.147,0.272c-0.085,0.157-0.192,0.232-0.336,0.232c-0.046,0-0.096-0.008-0.151-0.023
			c-9.595-2.766-18.397-7.38-26.909-11.842l-1.525-0.799c-12.579-6.589-13.606-7.127-24.253-17.28l-0.086-0.08
			c-0.286-0.262-0.58-0.512-0.874-0.742c-0.236-0.185-0.48-0.35-0.725-0.516c-1.078,0.916-2.313,1.609-3.635,2.062
			c-0.011,0.01-0.02,0.023-0.035,0.027c-0.033,0.009-3.322,0.99-6.873,6.416c-2.953,4.719-3.439,5.779-3.444,5.789
			c-0.004,0.009-0.009,0.017-0.015,0.024c-0.096,0.112-0.889,1.017-1.52,1.017c-0.031,0-0.06-0.009-0.09-0.013l-23.243,42.879
			c0.018,0.053,0.018,0.098,0.028,0.147c0.02,0.018,0.035,0.042,0.036,0.071l0.052,1.762c0,0.014-0.002,0.028-0.007,0.04
			l-1.592,3.913l0.001,0.002c0.026,0.048,0.009,0.108-0.039,0.135c-0.002,0.001-0.005,0.002-0.007,0.002c-0.002,0-0.004,0-0.006,0
			c-0.002,0-0.004,0-0.005,0.001l-5.984,14.711c0.742-0.305,0.829-1.186,0.832-1.231c0.002-0.034,0.022-0.064,0.052-0.08
			c0.015-0.008,0.031-0.012,0.048-0.012c0.016,0,0.033,0.004,0.048,0.012l2.084,1.142l0.001,0l0.003,0.002
			c0.003,0.002,0.003,0.007,0.006,0.009c0.017,0.012,0.034,0.026,0.041,0.047c0.012,0.036,0.296,0.892,0.053,1.932
			c-0.236,1.014-2.826,10.186-2.856,10.29v0l0,0.001c-0.002,0.01-0.343,1.476,0.255,2.904c0.641,1.533,4.813,11.918,7.033,17.526
			c1.046,2.091,1.638,2.243,2.816,2.548l0.089,0.023c1.193,0.309,13.089,3.378,13.949,3.6c0.912,0.15,1.537,0.799,1.759,1.032
			c0.125,0.131,0.195,0.303,0.195,0.484l0.004,2.192c0,0.029-0.013,0.057-0.035,0.076c-0.018,0.015-0.039,0.024-0.062,0.024
			c-0.006,0-0.012-0.001-0.019-0.002c-0.002,0-0.159-0.026-0.395-0.026c-0.366,0-0.853,0.066-1.3,0.303l7.037,0.619l-0.061-3.929
			c0-0.02,0.005-0.039,0.016-0.056l0.594-0.922c0.018-0.028,0.049-0.045,0.082-0.045l0.533-0.008l-0.366-23.314
			c0-0.008,0.006-0.012,0.008-0.019l-1.257,0.02h-0.021c-0.727,0-1.328-0.591-1.339-1.319l-0.464-29.498
			c-0.032-2.034,1.597-3.715,3.631-3.747l4.888-0.077c2.002,0,3.656,1.629,3.688,3.631l0.464,29.499
			c0.006,0.358-0.128,0.696-0.377,0.953c-0.249,0.257-0.583,0.401-0.941,0.407l-1.525,0.024c0.002,0.007,0.008,0.012,0.008,0.019
			l0.367,23.315l0.407-0.006c0.032,0.006,0.063,0.015,0.082,0.041l0.726,1.002c0.012,0.016,0.019,0.037,0.019,0.057l0.072,4.785
			l3.113,0.274c0.026-0.004,0.052-0.013,0.078-0.013c0.004,0,0.008,0,0.012,0c0.023,0.001,0.042,0.012,0.059,0.026l0.036,0.003
			c0.012,0.001,0.023,0.004,0.034,0.009l1.6,0.754c0.075,0.025,0.148,0.068,0.219,0.132l48.686-0.729
			c0-0.019,0.001-0.051,0.001-0.06c0-0.009,0.002-0.019,0.005-0.028c0.01-0.034,0.276-0.834,1.498-0.889
			c1.152-0.052,6.624-0.466,6.679-0.47c0.061-0.003,5.832-0.327,9.236-3.604c0.557-0.494,1.165-0.936,1.823-1.319
			c0.625-0.364,1.286-0.667,1.963-0.904c-0.038-0.623-0.092-1.245-0.168-1.86c-0.001-0.01-0.001-0.021,0.001-0.031
			c-0.134-1.088-0.282-2.192-0.425-3.261c-0.128-0.95-0.255-1.9-0.375-2.852c-0.196-1.526-0.361-3.077-0.49-4.61
			c0-0.003-0.001-0.005-0.001-0.008c-0.121-1.526-0.204-3.074-0.244-4.601c-0.008-0.013-0.013-0.026-0.013-0.04
			c-0.349-13.453,0.876-30.972,3.124-44.683c-0.027-0.039-0.003-0.119,0.066-0.353c0.025-0.084,0.05-0.168,0.061-0.21l0.042-0.172
			c0.02-0.084,0.04-0.169,0.063-0.253c0.08-0.307,0.17-0.578,0.272-0.828c0.245-0.602,0.596-0.991,1.175-1.302
			c0.961-0.514,1.904-0.545,2.902-0.577c0.169-0.005,0.338-0.011,0.509-0.019l0.301-0.005c0.003,0,0.007,0,0.01,0
			c0.225,0,0.35,0.098,0.402,0.315c2.224,9.445,2.866,23.141,3.178,34.017l0.017,0.576c0.397,13.796,0.429,14.923-3.126,28.777
			l-0.027,0.111c-0.086,0.362-0.158,0.73-0.214,1.094c-0.033,0.213-0.047,0.424-0.069,0.635c2.733,0.827,5.029,2.638,6.467,5.108
			c3.125,5.366,1.302,12.274-4.063,15.399c-0.775,0.451-1.602,0.806-2.454,1.061c0.039,0.59,0.093,1.18,0.165,1.765
			c0.001,0.01,0.001,0.021-0.001,0.03c0.138,1.123,0.291,2.262,0.439,3.364c0.131,0.975,0.262,1.951,0.385,2.928
			c0.203,1.573,0.372,3.171,0.506,4.751c0.126,1.572,0.211,3.166,0.254,4.738c0.008,0.012,0.013,0.026,0.013,0.04
			c0.395,14.959-0.671,32.278-2.781,45.246c0.028,0.039,0.004,0.121-0.067,0.362c-0.025,0.087-0.051,0.173-0.062,0.217
			c-0.016,0.064-0.031,0.128-0.046,0.192c-0.019,0.082-0.039,0.163-0.06,0.245c-0.083,0.315-0.174,0.594-0.279,0.852
			c-0.251,0.619-0.611,1.019-1.203,1.338c-0.986,0.529-1.953,0.56-2.976,0.592c-0.173,0.005-0.346,0.011-0.521,0.019l-0.309,0.005
			c-0.004,0-0.007,0-0.01,0c-0.23,0-0.357-0.1-0.411-0.322c-2.762-11.749-3.493-27.881-3.679-34.272l-0.018-0.595
			c-0.414-14.196-0.448-15.355,3.192-29.61l0.028-0.115c0.089-0.377,0.162-0.756,0.219-1.126c0.046-0.297,0.07-0.59,0.096-0.885
			c-1.326-0.491-2.535-1.229-3.578-2.16c-0.014-0.005-0.03-0.006-0.041-0.017c-0.024-0.024-2.49-2.412-8.959-2.851
			c-3.228-0.153-4.974-0.185-5.873-0.185c-0.65,0-0.857,0.017-0.862,0.017c-0.003,0-0.006,0.001-0.008,0.001
			c-0.007,0-0.013-0.001-0.02-0.002c-0.152-0.03-1.425-0.305-1.657-0.912l-48.773,0.728c-0.037,0.041-0.076,0.065-0.114,0.098
			c-0.006,0.026-0.02,0.05-0.045,0.064l-1.51,0.908c-0.012,0.007-0.025,0.012-0.039,0.014l-3.081,0.383l0.085,5.438
			c0,0.02-0.006,0.04-0.017,0.057l-0.762,1.128c-0.018,0.027-0.048,0.044-0.081,0.044l-0.381,0.006
			c0.002,0.007,0.008,0.011,0.008,0.019l0.355,22.618c0,0.008-0.006,0.012-0.008,0.02l1.257-0.02h0c0.748,0,1.349,0.591,1.36,1.318
			l0.476,30.295c0.032,2.034-1.597,3.715-3.631,3.747l-4.888,0.077c-2.002,0-3.656-1.629-3.688-3.631l-0.476-30.295
			c-0.011-0.738,0.58-1.349,1.318-1.36l1.525-0.024c-0.002-0.007-0.008-0.012-0.008-0.019l-0.355-22.618
			c0-0.007,0.006-0.012,0.008-0.019l-0.606,0.01h-0.002c-0.028,0-0.055-0.012-0.074-0.033l-0.722-0.8
			c-0.016-0.018-0.025-0.041-0.026-0.065l-0.074-4.72l-7.575,0.942c0.553,0.43,1.314,0.521,1.821,0.521h0
			c0.365,0,0.626-0.042,0.628-0.043c0.005-0.001,0.01-0.001,0.015-0.001c0.022,0,0.045,0.007,0.063,0.021
			c0.022,0.018,0.036,0.044,0.037,0.072l0.141,2.147c0.002,0.024-0.005,0.047-0.019,0.066c-0.04,0.054-0.85,1.116-1.829,1.469
			c-0.01,0.028-0.029,0.053-0.06,0.062l-14.502,4.426c-0.007,0.003-1.118,0.419-1.877,2.336c-0.227,0.573-0.78,2.039-1.481,3.896
			c-1.739,4.61-4.367,11.575-5.199,13.344c-0.873,2.063-0.353,4.155-0.166,4.602c0.162,0.387,1.926,5.933,2.677,8.299
			c0.148,0.467,0.21,0.954,0.184,1.445l-0.116,2.151c0,0.007-0.006,0.011-0.008,0.017c-0.004,0.015-0.008,0.027-0.018,0.038
			c-0.006,0.007-0.012,0.012-0.02,0.017c-0.006,0.004-0.01,0.011-0.017,0.014l-1.932,0.759c-0.012,0.005-0.024,0.007-0.037,0.007
			c-0.014,0-0.029-0.003-0.042-0.01c-0.025-0.012-0.044-0.033-0.053-0.059c-0.012-0.038-0.244-0.721-0.937-1.066l8.07,18.288
			c0.013,0.019,0.035,0.033,0.046,0.054c0.011,0.021,0.01,0.043,0.006,0.064l0.015,0.034c0.005,0.01,0.008,0.022,0.008,0.034
			l0.115,1.793c0.015,0.079,0.013,0.165-0.009,0.261l24.456,42.961c0.018-0.009,0.047-0.025,0.055-0.029
			c0.009-0.004,0.017-0.007,0.026-0.009c0.009-0.002,0.064-0.012,0.151-0.012c0.277,0,0.877,0.103,1.368,0.908
			c0.609,1,3.652,5.664,3.682,5.711c0.031,0.049,2.765,4.427,6.869,6.142c0.796,0.207,1.577,0.493,2.328,0.876
			c0.655,0.335,1.272,0.737,1.846,1.186c0.476-0.372,0.941-0.758,1.392-1.155c0.008-0.007,0.017-0.013,0.026-0.017
			c0.855-0.752,1.716-1.527,2.548-2.276c0.734-0.66,1.467-1.32,2.206-1.975c0.007-0.005,0.014-0.01,0.022-0.014
			c1.163-1.039,2.39-2.084,3.629-3.094c0.002-0.002,0.004-0.004,0.006-0.005c1.229-0.992,2.502-1.966,3.783-2.895
			c0.006-0.014,0.015-0.026,0.028-0.035c12.006-8.684,25.067-15.231,36.278-20.491c0.017-0.046,0.098-0.072,0.336-0.149
			c0.087-0.028,0.171-0.056,0.215-0.072l0.175-0.067c0.082-0.031,0.164-0.063,0.247-0.093c0.308-0.11,0.589-0.193,0.861-0.252
			c0.215-0.047,0.417-0.071,0.612-0.071c0.399,0,0.77,0.1,1.169,0.309c0.988,0.516,1.553,1.299,2.151,2.127
			c0.101,0.14,0.203,0.281,0.307,0.421l0.177,0.253c0.134,0.194,0.124,0.357-0.032,0.53c-6.781,7.403-14.853,13.272-22.66,18.948
			l-1.398,1.017c-11.536,8.393-12.479,9.079-26.324,14.149l-0.111,0.042c-0.36,0.14-0.715,0.294-1.055,0.457
			c-0.198,0.095-0.383,0.205-0.573,0.308c0.628,2.775,0.301,6.016-0.851,8.297c-1.378,2.729-3.732,4.754-6.629,5.701
			c-1.158,0.378-2.348,0.566-3.532,0.566c-1.768,0-3.525-0.419-5.147-1.247c-0.654-0.334-1.274-0.731-1.846-1.178
			c-0.508,0.376-1.007,0.765-1.488,1.17c-0.008,0.007-0.018,0.012-0.027,0.016c-0.851,0.714-1.708,1.45-2.537,2.162
			c-0.736,0.633-1.472,1.265-2.214,1.891c-1.187,1.008-2.416,2.005-3.651,2.965c-1.226,0.942-2.495,1.866-3.775,2.747
			c-0.006,0.013-0.015,0.025-0.027,0.033c-12.25,8.414-25.43,15.865-37.129,20.991c-0.018,0.044-0.098,0.068-0.336,0.138
			c-0.086,0.025-0.17,0.05-0.212,0.065l-0.172,0.06c-0.082,0.029-0.163,0.058-0.245,0.085c-0.302,0.1-0.581,0.173-0.853,0.225
			c-0.187,0.036-0.363,0.054-0.534,0.054c-0.42,0-0.803-0.109-1.216-0.339c-0.965-0.537-1.509-1.325-2.085-2.16
			c-0.097-0.14-0.194-0.282-0.295-0.423l-0.17-0.255c-0.129-0.194-0.117-0.356,0.04-0.523c8.572-8.958,19.098-16.683,24.608-20.491
			l0.482-0.333c11.497-7.944,12.436-8.593,26.154-13.196l0.109-0.038c0.358-0.128,0.71-0.269,1.047-0.421
			c0.2-0.089,0.386-0.194,0.578-0.292c-0.528-1.845-0.577-3.761-0.177-5.598c-0.003,0-0.003,0.005-0.006,0.005
			c-0.009,0-0.018-0.001-0.027-0.004c-0.053-0.015-0.084-0.07-0.068-0.123c0.009-0.033,0.918-3.401-1.857-9.374
			c-2.486-5.077-3.138-6.065-3.144-6.075c-0.005-0.008-0.01-0.016-0.012-0.025c-0.048-0.15-0.427-1.419-0.002-1.922l-24.498-43.04
			c-0.059-0.014-0.102-0.039-0.153-0.059c-0.007,0.002-0.011,0.011-0.018,0.011c-0.017,0-0.034-0.004-0.05-0.014l-1.543-0.898
			c-0.012-0.007-0.022-0.016-0.03-0.028l-2.509-3.469c-0.004,0-0.011,0-0.012,0c-0.054-0.003-0.096-0.05-0.094-0.105
			c0.001-0.01,0.009-0.016,0.012-0.025l-9.367-12.956c-0.015,1.175,1.168,2.428,1.184,2.444c0.019,0.019,0.029,0.046,0.028,0.074
			c-0.002,0.027-0.014,0.053-0.035,0.071l-1.438,1.237c-0.019,0.016-0.042,0.024-0.065,0.024c-0.021,0-0.042-0.007-0.06-0.02
			c-0.033-0.025-0.371-0.286-0.732-0.705l-2.975-2.767c0,0-0.721-0.54-1.415-0.54c-0.056,0-0.112,0.004-0.168,0.011
			c-0.278,0.039-0.51,0.179-0.688,0.416c-0.097,0.128-0.189,0.252-0.278,0.373c-0.651,0.878-1.181,1.572-2.098,2.038
			c-0.687,0.555-1.635,1.033-1.797,1.112c-0.043,0.018-3.775,1.493-14.056,1.493c-0.46,0-11.303-0.014-14.052-1.184
			c-1.482-0.631-2.06-1.195-2.274-1.609c-0.006,0.001-0.012,0.001-0.017,0.001c-0.026,0-0.051-0.008-0.069-0.029
			c-0.159-0.185-0.26-0.387-0.388-0.641c-0.178-0.354-0.399-0.795-0.891-1.427c-0.201-0.258-0.435-0.394-0.698-0.404
			c-0.013-0.001-0.026-0.001-0.039-0.001c-0.581,0-1.109,0.587-1.115,0.593l-2.937,2.82c-0.354,0.423-0.687,0.689-0.719,0.714
			c-0.018,0.014-0.04,0.021-0.061,0.021c-0.023,0-0.045-0.008-0.064-0.023l-1.458-1.215c-0.021-0.018-0.034-0.043-0.035-0.07
			c-0.002-0.027,0.008-0.054,0.026-0.074c0.015-0.016,1.178-1.287,1.145-2.461l-9.162,13.1c0.003,0.009,0.011,0.015,0.012,0.025
			c0.003,0.055-0.038,0.102-0.092,0.106c-0.001,0-0.008,0-0.011,0l-2.454,3.509c-0.008,0.011-0.018,0.021-0.03,0.028l-1.528,0.922
			c-0.016,0.01-0.034,0.014-0.051,0.014c-0.007,0-0.011-0.009-0.018-0.01c-0.05,0.02-0.093,0.046-0.152,0.061l-23.818,43.42
			c0.433,0.496,0.074,1.771,0.028,1.922c-0.003,0.009-0.007,0.017-0.012,0.026c-0.006,0.009-0.644,1.007-3.049,6.125
			c-2.68,6.014-1.719,9.367-1.709,9.4c0.015,0.048-0.012,0.097-0.057,0.117c0.355,1.564,0.452,3.245,0.235,4.814
			c0.198,0.086,0.392,0.18,0.597,0.258c0.352,0.134,0.719,0.257,1.091,0.365l0.115,0.033c14.224,3.877,15.221,4.48,27.426,11.862
			l1.477,0.893c8.262,4.994,16.806,10.158,24.191,16.959c0.171,0.16,0.195,0.322,0.077,0.526l-0.153,0.265
			c-0.094,0.151-0.183,0.3-0.272,0.449c-0.525,0.876-1.022,1.704-1.963,2.302c-0.447,0.284-0.868,0.416-1.352,0.416
			c-0.129,0-0.262-0.009-0.402-0.028c-0.276-0.036-0.564-0.094-0.88-0.179c-0.084-0.022-0.168-0.047-0.251-0.071l-0.182-0.052
			c-0.044-0.012-0.129-0.032-0.217-0.053c-0.251-0.059-0.333-0.078-0.352-0.121c-11.618-4.29-25.187-9.705-37.885-17.338
			c-0.015-0.009-0.026-0.021-0.035-0.035c-1.355-0.816-2.705-1.677-4.011-2.56c-1.315-0.897-2.629-1.836-3.907-2.792
			c-0.797-0.592-1.587-1.189-2.377-1.787c-0.891-0.674-1.812-1.371-2.726-2.046c-0.009-0.003-0.018-0.007-0.025-0.013
			c-0.484-0.358-0.98-0.703-1.485-1.033c-0.535,0.497-1.116,0.95-1.739,1.338c-1.824,1.135-3.882,1.719-5.976,1.719
			c-0.87,0-1.746-0.101-2.615-0.305c-2.967-0.697-5.484-2.515-7.088-5.117c-1.522-2.469-2.048-5.394-1.489-8.241
			c-0.2-0.081-0.394-0.17-0.601-0.242c-0.347-0.122-0.71-0.233-1.079-0.33l-0.113-0.029c-14.058-3.422-15.049-3.989-27.177-10.928
			l-0.51-0.292c-5.814-3.326-16.958-10.131-26.257-18.328c-0.172-0.154-0.198-0.313-0.086-0.519l0.147-0.266
			c0.089-0.152,0.175-0.301,0.26-0.45c0.503-0.88,0.977-1.711,1.893-2.327c0.459-0.309,0.893-0.45,1.402-0.45
			c0.103,0,0.208,0.006,0.318,0.017c0.274,0.028,0.558,0.078,0.869,0.152c0.085,0.02,0.17,0.042,0.255,0.065l0.173,0.045
			c0.044,0.01,0.13,0.028,0.217,0.046c0.242,0.049,0.325,0.066,0.346,0.109c12.091,4.114,25.855,10.419,38.777,17.764
			c0.014,0.009,0.026,0.02,0.035,0.035c1.344,0.765,2.685,1.577,3.987,2.413c1.317,0.854,2.625,1.743,3.89,2.644
			c0.792,0.561,1.578,1.128,2.364,1.694c0.888,0.641,1.807,1.303,2.718,1.944c0.009,0.003,0.018,0.007,0.026,0.012
			c0.514,0.363,1.044,0.708,1.581,1.039c0.532-0.494,1.117-0.943,1.74-1.331c0.654-0.407,1.338-0.742,2.042-1.005
			c4.544-1.489,7.576-6.516,7.606-6.566c0.031-0.05,3-4.761,3.593-5.77c0.488-0.83,1.105-0.929,1.372-0.929
			c0.077,0,0.125,0.008,0.133,0.009c0.009,0.002,0.018,0.005,0.026,0.009c0.008,0.004,0.037,0.019,0.056,0.028l23.777-43.341
			c-0.023-0.095-0.027-0.181-0.014-0.26l0.087-1.795c0.001-0.012,0.003-0.023,0.008-0.034l0.015-0.034
			c-0.004-0.021-0.006-0.043,0.004-0.063c0.01-0.021,0.032-0.035,0.045-0.054l7.778-18.406c-0.689,0.366-0.914,1.063-0.917,1.072
			c-0.008,0.026-0.026,0.048-0.051,0.061c-0.014,0.007-0.029,0.01-0.044,0.01c-0.012,0-0.023-0.002-0.035-0.006l-1.944-0.729
			c-0.007-0.003-0.011-0.01-0.017-0.014c-0.008-0.005-0.015-0.01-0.021-0.017c-0.01-0.011-0.014-0.023-0.018-0.038
			c-0.002-0.006-0.008-0.01-0.008-0.017l-0.149-2.149c-0.035-0.491,0.019-0.978,0.161-1.448c0.556-1.853,2.383-7.932,2.546-8.34
			c0.18-0.45,0.667-2.551-0.24-4.603c-0.858-1.75-3.593-8.668-5.402-13.246c-0.732-1.851-1.309-3.313-1.546-3.883
			c-0.79-1.906-1.907-2.304-1.918-2.308l-14.566-4.196c-0.031-0.009-0.05-0.032-0.061-0.06c-0.984-0.337-1.811-1.388-1.852-1.441
			c-0.014-0.019-0.022-0.042-0.021-0.066l0.107-2.148c0.002-0.028,0.015-0.054,0.037-0.072c0.018-0.015,0.04-0.023,0.063-0.023
			c0.005,0,0.01,0,0.015,0.001c0.002,0,0.219,0.031,0.537,0.031c0.531,0,1.344-0.087,1.913-0.548l-7.596-0.824v4.72
			c0,0.024-0.009,0.047-0.025,0.066l-0.71,0.811c-0.019,0.021-0.046,0.034-0.075,0.034h-0.606c0.002,0.007,0.008,0.012,0.008,0.019
			v22.621c0,0.008-0.006,0.012-0.008,0.019h1.525c0.739,0,1.34,0.601,1.34,1.339V246.5c0,2.035-1.655,3.69-3.69,3.69h-4.83
			c-2.035,0-3.69-1.655-3.69-3.69v-30.299c0-0.739,0.601-1.339,1.34-1.339h1.257c-0.002-0.007-0.008-0.012-0.008-0.019v-22.621
			c0-0.007,0.006-0.012,0.008-0.019h-0.382c-0.033,0-0.063-0.016-0.082-0.042l-0.78-1.115c-0.012-0.017-0.018-0.037-0.018-0.057
			v-5.438l-3.087-0.335c-0.014-0.002-0.027-0.006-0.039-0.013l-1.525-0.884c-0.025-0.014-0.04-0.037-0.046-0.063
			c-0.039-0.032-0.078-0.056-0.116-0.096l-48.779,0.039c-0.223,0.611-1.491,0.906-1.643,0.938c-0.007,0.001-0.013,0.003-0.02,0.003
			c-0.003,0-0.005,0-0.008-0.001h0c-0.005,0-0.116-0.007-0.422-0.007c-0.705,0-2.445,0.037-6.311,0.281
			c-6.46,0.541-8.888,2.967-8.911,2.992c-0.011,0.011-0.027,0.012-0.041,0.017c-1.028,0.948-2.226,1.704-3.544,2.216
			c0.03,0.294,0.059,0.587,0.109,0.883c0.063,0.37,0.143,0.748,0.237,1.123l0.03,0.115c3.863,14.194,3.848,15.354,3.657,29.554
			l-0.008,0.596c-0.085,6.393-0.563,22.535-3.14,34.325c-0.051,0.228-0.18,0.329-0.416,0.33l-0.307,0
			c-0.177-0.005-0.351-0.008-0.523-0.011c-1.024-0.016-1.992-0.032-2.986-0.546c-0.598-0.309-0.964-0.703-1.224-1.318
			c-0.109-0.256-0.204-0.533-0.292-0.847c-0.024-0.085-0.045-0.17-0.067-0.256l-0.046-0.179c-0.012-0.044-0.038-0.128-0.065-0.214
			c-0.077-0.246-0.101-0.325-0.073-0.364c-2.314-12.932-3.651-30.231-3.492-45.196c0-0.017,0.005-0.033,0.012-0.047
			c0.018-1.577,0.079-3.169,0.179-4.733c0.108-1.585,0.253-3.185,0.431-4.759c0.107-0.979,0.223-1.956,0.339-2.932
			c0.131-1.106,0.266-2.249,0.387-3.375c-0.002-0.009-0.003-0.019-0.002-0.029c0.063-0.586,0.108-1.177,0.138-1.767
			c-0.856-0.241-1.688-0.583-2.47-1.022c-5.414-3.04-7.346-9.918-4.305-15.333c1.399-2.492,3.666-4.339,6.385-5.209
			c-0.026-0.211-0.042-0.421-0.079-0.634c-0.062-0.362-0.14-0.729-0.231-1.091l-0.029-0.112
			c-3.772-13.795-3.757-14.923-3.577-28.722l0.007-0.577c0.141-10.88,0.568-24.585,2.643-34.062
			c0.051-0.222,0.177-0.322,0.408-0.322h0.299c0.173,0.005,0.343,0.008,0.51,0.011c0.999,0.017,1.942,0.032,2.912,0.532
			c0.583,0.301,0.94,0.684,1.195,1.283c0.106,0.248,0.199,0.518,0.285,0.824c0.024,0.084,0.045,0.169,0.067,0.254l0.044,0.169
			c0.012,0.042,0.037,0.124,0.063,0.208c0.073,0.234,0.099,0.315,0.072,0.355c2.463,13.672,3.964,31.17,3.826,44.629
			c0,0.017-0.005,0.033-0.012,0.047c-0.017,1.531-0.075,3.078-0.172,4.598c-0.106,1.549-0.247,3.104-0.418,4.624
			c-0.104,0.954-0.217,1.906-0.33,2.858c-0.127,1.071-0.258,2.178-0.374,3.27c0.002,0.009,0.003,0.019,0.002,0.028
			c-0.067,0.617-0.111,1.24-0.139,1.863c0.682,0.226,1.347,0.519,1.977,0.873c0.665,0.373,1.282,0.808,1.847,1.294
			c3.455,3.219,9.227,3.452,9.285,3.454c0.058,0.003,5.535,0.332,6.687,0.365c1.224,0.036,1.501,0.832,1.512,0.866
			c0.003,0.009,0.005,0.018,0.005,0.027c0,0.009,0.002,0.041,0.002,0.06l48.692-0.037c0.07-0.065,0.142-0.109,0.216-0.135
			l1.587-0.779c0.01-0.005,0.022-0.009,0.033-0.01l0.037-0.004c0.016-0.013,0.034-0.025,0.057-0.026c0.007,0,0.014,0,0.02,0
			c0.025,0,0.049,0.007,0.073,0.011l3.103-0.323v-4.785c0-0.021,0.006-0.04,0.018-0.057l0.71-1.014
			c0.019-0.026,0.049-0.042,0.082-0.042h0.408v-23.318c0-0.008,0.006-0.012,0.008-0.019h-1.525c-0.739,0-1.34-0.601-1.34-1.339
			v-29.502c0-2.034,1.655-3.689,3.689-3.689h4.83c2.034,0,3.689,1.655,3.689,3.689v29.502c0,0.739-0.601,1.339-1.339,1.339h-1.257
			c0.002,0.007,0.008,0.012,0.008,0.019v23.318h0.534c0.033,0,0.065,0.017,0.083,0.044l0.608,0.912
			c0.011,0.016,0.017,0.035,0.017,0.055v3.927l7.016-0.73c-0.431-0.218-0.892-0.28-1.24-0.28c-0.266,0-0.445,0.032-0.447,0.033
			c-0.006,0.001-0.012,0.002-0.018,0.002c-0.023,0-0.045-0.008-0.063-0.023c-0.023-0.019-0.036-0.046-0.037-0.075l-0.031-2.192
			c-0.003-0.181,0.064-0.354,0.187-0.488c0.221-0.238,0.839-0.904,1.756-1.063c0.942-0.259,12.695-3.489,13.878-3.815l0.089-0.024
			c1.174-0.323,1.763-0.485,2.78-2.6c2.132-5.645,6.14-16.092,6.753-17.626c0.575-1.438,0.212-2.898,0.208-2.913
			c-0.026-0.089-2.764-9.23-3.016-10.24c-0.259-1.035,0.011-1.896,0.023-1.932c0.007-0.02,0.022-0.032,0.038-0.044
			c0.004-0.003,0.003-0.01,0.008-0.013l2.07-1.177c0.015-0.008,0.032-0.013,0.049-0.013c0.016,0,0.031,0.004,0.046,0.011
			c0.03,0.016,0.05,0.046,0.053,0.079c0.004,0.046,0.108,0.981,0.914,1.246l-6.265-14.643c-0.002,0-0.004-0.001-0.006-0.001
			c-0.004,0-0.007,0-0.011,0c-0.004,0-0.009-0.001-0.013-0.003c-0.049-0.026-0.067-0.086-0.041-0.135
			c0-0.001,0.006-0.009,0.007-0.012l-1.659-3.877c-0.005-0.013-0.008-0.027-0.008-0.04l0.024-1.762c0-0.029,0.014-0.054,0.034-0.072
			c0.009-0.049,0.009-0.094,0.026-0.147L111.793,67.06c-0.033,0.006-0.065,0.016-0.1,0.016c-0.629,0-1.428-0.883-1.525-0.993
			c-0.006-0.007-0.012-0.015-0.016-0.023c-0.005-0.01-0.508-1.063-3.536-5.736c-3.634-5.368-6.939-6.297-6.972-6.306
			C99.63,54.013,99.621,54,99.61,53.99c-1.329-0.432-2.575-1.106-3.667-2.005c-0.242,0.17-0.483,0.339-0.717,0.528
			c-0.294,0.238-0.584,0.492-0.863,0.756l-0.086,0.082c-10.485,10.319-11.504,10.873-23.98,17.66l-1.506,0.82
			c-8.442,4.596-17.171,9.349-26.722,12.266c-0.057,0.017-0.109,0.025-0.157,0.025c-0.141,0-0.247-0.073-0.334-0.226l-0.15-0.267
			c-0.082-0.158-0.165-0.311-0.248-0.463c-0.487-0.901-0.947-1.752-0.986-2.87c-0.023-0.672,0.141-1.185,0.551-1.713
			c0.169-0.219,0.364-0.438,0.596-0.669c0.062-0.062,0.125-0.122,0.188-0.182l0.135-0.129c0.032-0.032,0.093-0.096,0.155-0.162
			c0.176-0.187,0.231-0.242,0.28-0.242H42.1c9.528-7.855,21.001-16.823,33.938-23.907c0.015-0.008,0.031-0.012,0.048-0.012h0
			c1.374-0.752,2.791-1.479,4.214-2.162c1.439-0.683,2.906-1.34,4.36-1.954c0.907-0.386,1.816-0.764,2.725-1.142
			c1.027-0.426,2.089-0.868,3.129-1.313c0.007-0.007,0.016-0.012,0.025-0.016c0.542-0.232,1.079-0.481,1.608-0.745
			c-0.209-0.864-0.318-1.757-0.318-2.655c0-6.21,5.052-11.261,11.261-11.261c2.858,0,5.578,1.073,7.668,3.017
			c0.171-0.126,0.347-0.243,0.514-0.379c0.284-0.23,0.566-0.477,0.838-0.736l0.084-0.08c10.181-10.043,11.171-10.582,23.292-17.182
			l1.462-0.797c8.201-4.47,16.682-9.092,25.964-11.925c0.055-0.016,0.106-0.024,0.153-0.024c0.139,0,0.243,0.072,0.328,0.222
			l0.147,0.261c0.08,0.154,0.161,0.303,0.241,0.451c0.474,0.879,0.923,1.709,0.962,2.798c0.024,0.655-0.136,1.155-0.533,1.67
			c-0.166,0.216-0.356,0.429-0.579,0.652c-0.06,0.06-0.121,0.119-0.183,0.177l-0.131,0.126c-0.032,0.031-0.092,0.094-0.152,0.159
			c-0.166,0.177-0.231,0.231-0.271,0.234c-9.253,7.644-20.397,16.369-32.965,23.259c-0.014,0.008-0.03,0.012-0.046,0.012
			c-1.336,0.731-2.713,1.438-4.094,2.102c-1.396,0.663-2.821,1.301-4.236,1.899c-0.883,0.376-1.767,0.743-2.651,1.11
			c-0.996,0.414-2.027,0.843-3.036,1.275c-0.007,0.007-0.016,0.012-0.025,0.016c-0.571,0.244-1.135,0.51-1.692,0.791
			c0.136,0.705,0.207,1.429,0.207,2.151c0,0.75-0.077,1.481-0.218,2.19c0,0.004,0.003,0.008,0.002,0.012
			c-1.142,4.601,1.499,9.778,1.526,9.83c0.025,0.052,2.421,4.988,2.956,6.01c0.568,1.084,0.01,1.716-0.014,1.742
			c-0.006,0.007-0.013,0.013-0.021,0.018c-0.007,0.004-0.035,0.021-0.051,0.032l23.873,42.438c0.09,0.029,0.164,0.07,0.223,0.122
			l1.457,1.004c0.01,0.007,0.018,0.015,0.025,0.024l0.022,0.031c0.019,0.008,0.039,0.017,0.05,0.036
			c0.01,0.016,0.006,0.039,0.014,0.055l11.403,16.155c0.003-0.026,0.015-0.053,0.016-0.079c0.033-0.587-0.33-0.959-0.334-0.963
			c-0.021-0.021-0.031-0.05-0.029-0.079c0.003-0.03,0.018-0.056,0.042-0.073l2.151-1.502c0.001-0.001,0.002-0.001,0.003-0.001
			c0.003,0,0.006,0.002,0.008,0.002c0.001,0,0.002,0,0.002-0.001c0.017-0.009,0.036-0.015,0.055-0.015
			c0.014,0,0.029,0.004,0.042,0.012l0.932,0.583c0,0,0,0,0.001,0l0.003,0.002c0.008,0.006,0.067,0.053,0.207,0.053
			c0.15,0,0.392-0.054,0.765-0.27c0.06-0.035,0.15-0.093,0.27-0.17c6.339-4.094,14.123-4.954,19.537-4.954
			c0.008,0,0.085-0.003,0.229-0.003c1.475,0,9.887,0.229,20.037,4.916c0.421,0.194,0.675,0.237,0.817,0.237
			c0.113,0,0.156-0.027,0.157-0.027l0.934-0.606c0.014-0.009,0.029-0.013,0.044-0.013c0.018,0,0.037,0.006,0.054,0.015
			c0.001,0,0.001,0,0.002,0c0.003,0,0.005-0.002,0.008-0.002c0.001,0,0.002,0,0.002,0.001l2.175,1.468
			c0.025,0.016,0.04,0.043,0.043,0.072c0.003,0.03-0.007,0.059-0.027,0.08c-0.004,0.004-0.361,0.381-0.319,0.968
			c0.002,0.027,0.014,0.053,0.018,0.08l11.148-16.332c0.008-0.017,0.004-0.04,0.014-0.056c0.012-0.02,0.031-0.032,0.052-0.039
			l0.02-0.029c0.007-0.01,0.015-0.018,0.024-0.025l1.439-1.025c0.058-0.053,0.132-0.096,0.223-0.127l23.203-42.808
			c-0.017-0.01-0.045-0.027-0.052-0.031c-0.008-0.005-0.015-0.011-0.022-0.018c-0.024-0.026-0.592-0.648-0.042-1.741
			c0.519-1.03,2.837-6.003,2.86-6.054l0.003-0.005v0l0,0c0.054-0.109,2.56-5.263,1.378-9.809c-0.158-0.728-0.246-1.476-0.258-2.238
			c-0.011-0.723,0.048-1.447,0.173-2.154c-0.562-0.272-1.13-0.529-1.704-0.764c-0.01-0.004-0.018-0.009-0.026-0.016
			c-1.019-0.418-2.059-0.831-3.065-1.231c-0.886-0.352-1.773-0.705-2.657-1.064c-1.424-0.575-2.856-1.191-4.258-1.829
			c-0.003-0.001-0.006-0.002-0.009-0.004c-1.39-0.641-2.78-1.327-4.132-2.04c-0.002,0-0.004,0-0.006,0
			c-0.013,0-0.025-0.003-0.035-0.009c-12.674-6.69-23.953-15.24-33.325-22.737c-0.001,0-0.002,0-0.003,0
			c-0.036,0-0.106-0.059-0.274-0.231c-0.061-0.063-0.122-0.125-0.154-0.156l-0.133-0.124c-0.062-0.058-0.125-0.115-0.185-0.174
			c-0.228-0.22-0.421-0.43-0.589-0.643c-0.406-0.509-0.573-1.006-0.56-1.661c0.022-1.091,0.457-1.928,0.918-2.814
			c0.078-0.149,0.156-0.3,0.232-0.452l0.143-0.265C193.864,3.862,193.968,3.788,194.11,3.788 M194.11,1.788
			c-0.875,0-1.656,0.477-2.088,1.276l-0.144,0.266c-0.01,0.019-0.02,0.037-0.029,0.056c-0.071,0.142-0.144,0.283-0.217,0.423
			c-0.522,1.004-1.112,2.139-1.143,3.698c-0.023,1.115,0.303,2.08,0.996,2.948c0.22,0.277,0.47,0.551,0.763,0.834
			c0.061,0.059,0.13,0.123,0.198,0.186l0.146,0.136l0.082,0.085c0.142,0.146,0.342,0.352,0.616,0.523
			c9.394,7.51,20.708,16.076,33.488,22.822c0.062,0.033,0.128,0.063,0.195,0.089c1.333,0.699,2.703,1.374,4.075,2.007l0,0
			c0.011,0.005,0.022,0.01,0.033,0.015c1.426,0.649,2.88,1.274,4.323,1.857c0.884,0.36,1.775,0.714,2.667,1.068
			c0.969,0.385,1.969,0.782,2.951,1.184c0.045,0.022,0.089,0.042,0.133,0.06c0.098,0.04,0.197,0.081,0.298,0.124
			c-0.019,0.324-0.026,0.648-0.02,0.97c0.014,0.883,0.116,1.768,0.304,2.631c0.006,0.026,0.012,0.053,0.019,0.079
			c0.989,3.8-1.214,8.377-1.237,8.423c-0.398,0.853-2.403,5.147-2.854,6.042c-0.499,0.991-0.542,1.908-0.354,2.654l-22.457,41.433
			l-1.312,0.934c-0.076,0.054-0.152,0.118-0.225,0.187c-0.173,0.149-0.32,0.326-0.438,0.527c-0.024,0.04-0.046,0.082-0.067,0.126
			l-9.248,13.548l-0.891-0.601c-0.197-0.133-0.417-0.23-0.646-0.286c-0.176-0.047-0.357-0.071-0.538-0.071
			c-0.385,0-0.806,0.124-1.13,0.333l-0.228,0.148c-10.403-4.746-19.003-4.988-20.632-4.989c-0.104,0-0.185,0.001-0.243,0.003
			c-5.639,0.002-13.741,0.905-20.454,5.175l-0.185-0.116c-0.318-0.199-0.728-0.316-1.103-0.316c-0.179,0-0.357,0.023-0.531,0.069
			c-0.222,0.053-0.435,0.144-0.627,0.269c-0.018,0.012-0.037,0.024-0.055,0.037l-0.881,0.615l-9.458-13.399
			c-0.023-0.045-0.047-0.089-0.074-0.132c-0.091-0.148-0.222-0.321-0.409-0.484c-0.085-0.082-0.175-0.155-0.27-0.22l-1.318-0.908
			L120.784,63.05c0.174-0.769,0.102-1.697-0.394-2.645c-0.519-0.991-2.905-5.906-2.928-5.955c-0.008-0.016-0.016-0.032-0.024-0.048
			c-0.019-0.037-2.308-4.607-1.36-8.427c0.018-0.074,0.032-0.148,0.042-0.224c0.154-0.818,0.233-1.645,0.233-2.46
			c0-0.322-0.012-0.646-0.036-0.969c0.103-0.046,0.206-0.091,0.307-0.134c0.041-0.018,0.083-0.037,0.125-0.059
			c0.939-0.402,1.895-0.799,2.823-1.185l0.095-0.039l0.049-0.02c0.873-0.363,1.746-0.726,2.618-1.097
			c1.439-0.608,2.891-1.259,4.311-1.933c1.374-0.66,2.735-1.358,4.057-2.078c0.073-0.03,0.143-0.064,0.209-0.102
			c12.657-6.938,23.837-15.683,33.114-23.342c0.269-0.175,0.462-0.38,0.595-0.522l0.101-0.107l0.112-0.108
			c0.065-0.061,0.139-0.132,0.211-0.205c0.281-0.28,0.527-0.557,0.748-0.844c0.678-0.879,0.989-1.849,0.948-2.964
			c-0.055-1.555-0.663-2.681-1.2-3.675c-0.076-0.141-0.152-0.282-0.228-0.427c-0.01-0.019-0.02-0.037-0.03-0.055l-0.147-0.261
			c-0.438-0.778-1.212-1.242-2.071-1.242c-0.236,0-0.475,0.035-0.713,0.104c-9.501,2.899-18.072,7.571-26.361,12.089l-1.462,0.797
			c-12.092,6.584-13.357,7.273-23.739,17.514l-0.04,0.038c-2.229-1.581-4.892-2.437-7.659-2.437
			c-7.312,0-13.261,5.949-13.261,13.261c0,0.497,0.028,0.995,0.085,1.491c-0.054,0.024-0.108,0.047-0.161,0.07
			c-0.041,0.018-0.083,0.037-0.125,0.059c-1.002,0.428-2.022,0.852-3.01,1.262c-0.915,0.38-1.829,0.76-2.742,1.149
			c-1.476,0.623-2.97,1.292-4.434,1.987c-1.41,0.677-2.808,1.393-4.166,2.132c-0.059,0.024-0.116,0.05-0.17,0.079
			C62.037,58.678,50.53,67.662,40.98,75.529c-0.276,0.178-0.476,0.39-0.617,0.54l-0.111,0.116l-0.107,0.102
			c-0.095,0.091-0.158,0.151-0.22,0.213c-0.292,0.291-0.542,0.573-0.764,0.861c-0.689,0.89-1.005,1.873-0.967,3.004
			c0.055,1.587,0.676,2.736,1.224,3.751c0.079,0.147,0.157,0.29,0.234,0.438c0.01,0.019,0.02,0.037,0.03,0.056l0.15,0.267
			c0.44,0.781,1.216,1.247,2.077,1.247c0.237,0,0.479-0.036,0.719-0.106c9.769-2.984,18.588-7.786,27.116-12.429l1.506-0.819
			C83.694,66,84.995,65.293,95.68,54.777l0.064-0.061c0.082-0.077,0.165-0.154,0.249-0.23c0.875,0.554,1.814,1.003,2.808,1.343
			c0.091,0.043,0.185,0.079,0.279,0.107c0.068,0.022,2.799,0.957,5.88,5.508c2.813,4.342,3.372,5.447,3.394,5.492
			c0.083,0.17,0.2,0.343,0.323,0.481c0.366,0.416,1.004,1.035,1.801,1.387l23.166,41.177l-0.021,1.542
			c-0.004,0.277,0.058,0.593,0.167,0.849l1.523,3.558c0.057,0.292,0.175,0.569,0.348,0.814l4.754,11.11l-0.916,0.52
			c-0.145,0.082-0.279,0.183-0.398,0.298c-0.314,0.288-0.479,0.629-0.559,0.874c-0.08,0.249-0.444,1.516-0.062,3.041
			c0.227,0.91,2.187,7.475,3.02,10.259c0.056,0.282,0.125,1.032-0.129,1.665c-0.622,1.554-4.601,11.929-6.736,17.58
			c-0.587,1.217-0.635,1.231-1.47,1.46l-0.084,0.023c-1.162,0.321-12.419,3.415-13.803,3.795c-1.52,0.303-2.459,1.316-2.772,1.654
			c-0.476,0.515-0.731,1.181-0.721,1.878l0.013,0.892l-1.193,0.124v-1.708c0-0.415-0.122-0.818-0.352-1.163l-0.609-0.913
			c-0.082-0.124-0.176-0.238-0.281-0.34v-20.017c1.481-0.342,2.589-1.671,2.589-3.254v-29.502c0-3.137-2.552-5.689-5.689-5.689
			h-4.83c-3.137,0-5.689,2.552-5.689,5.689v29.502c0,1.677,1.243,3.07,2.857,3.305v20.103c-0.043,0.05-0.084,0.103-0.123,0.157
			l-0.714,1.02c-0.249,0.356-0.379,0.772-0.379,1.204v2.982l-1.112,0.116c-0.021-0.001-0.042-0.001-0.064-0.001
			c-0.018,0-0.046,0-0.064,0.001c-0.185,0.006-0.407,0.035-0.644,0.119c-0.106,0.032-0.207,0.071-0.305,0.118l-1.461,0.717
			l-47.127,0.036c-0.567-0.521-1.393-0.919-2.503-0.952c-1.01-0.029-5.788-0.312-6.625-0.363c-0.018-0.001-0.036-0.002-0.054-0.003
			c-0.041-0.002-5.117-0.243-7.989-2.919c-0.019-0.018-0.039-0.036-0.059-0.053c-0.671-0.577-1.402-1.089-2.172-1.521
			c-0.281-0.158-0.569-0.306-0.862-0.444c0.011-0.113,0.022-0.224,0.034-0.334c0.005-0.044,0.008-0.09,0.01-0.136
			c0.113-1.049,0.239-2.112,0.36-3.141c0.116-0.977,0.228-1.925,0.332-2.877c0.174-1.543,0.318-3.129,0.426-4.705
			c0.097-1.509,0.155-3.035,0.175-4.548c0.01-0.079,0.015-0.157,0.015-0.233c0.138-13.478-1.362-31.044-3.825-44.798
			c-0.022-0.325-0.108-0.6-0.165-0.784l-0.046-0.148l-0.033-0.13c-0.023-0.093-0.05-0.196-0.079-0.298
			c-0.109-0.387-0.23-0.736-0.369-1.063c-0.435-1.022-1.128-1.767-2.119-2.278c-1.385-0.713-2.665-0.735-3.793-0.754
			c-0.161-0.003-0.32-0.005-0.483-0.01c-0.021-0.001-0.042-0.001-0.063-0.001H20.42c-1.173,0.002-2.096,0.738-2.357,1.875
			c-2.117,9.673-2.551,23.509-2.693,34.483l-0.007,0.577c-0.18,13.769-0.198,15.209,3.648,29.275l0.014,0.053
			c-2.47,1.169-4.52,3.072-5.874,5.485c-1.732,3.084-2.158,6.663-1.2,10.077c0.958,3.414,3.185,6.247,6.27,7.979
			c0.433,0.243,0.881,0.462,1.342,0.656c-0.006,0.059-0.012,0.117-0.018,0.175c-0.002,0.019-0.004,0.037-0.005,0.056
			c-0.002,0.028-0.004,0.056-0.005,0.085c-0.111,1.028-0.234,2.069-0.353,3.081l-0.019,0.162c-0.116,0.982-0.233,1.964-0.341,2.949
			c-0.18,1.595-0.328,3.226-0.438,4.84c-0.1,1.553-0.161,3.125-0.182,4.683c-0.01,0.079-0.015,0.157-0.015,0.234
			c-0.16,14.972,1.176,32.333,3.488,45.351c0.021,0.332,0.109,0.616,0.169,0.806l0.045,0.146l0.038,0.148
			c0.025,0.097,0.05,0.197,0.078,0.297c0.11,0.395,0.233,0.751,0.376,1.089c0.44,1.039,1.142,1.796,2.148,2.315
			c1.411,0.729,2.718,0.75,3.872,0.768c0.171,0.003,0.331,0.005,0.494,0.01c0.02,0.001,0.039,0.001,0.059,0.001l0.307,0
			c1.183-0.002,2.111-0.744,2.369-1.89c2.619-11.981,3.102-28.284,3.189-34.738l0.008-0.595c0.19-14.161,0.21-15.641-3.727-30.107
			l-0.024-0.094c-0.026-0.105-0.052-0.213-0.076-0.322c0.911-0.491,1.762-1.09,2.545-1.79c0.083-0.059,0.161-0.124,0.232-0.193
			c0.063-0.058,2.217-1.972,7.681-2.429c3.777-0.238,5.473-0.275,6.144-0.275c0.187,0,0.28,0.003,0.313,0.004
			c0.039,0.002,0.079,0.003,0.117,0.003c0.139,0,0.297-0.017,0.433-0.046c0.575-0.123,1.417-0.379,2.103-0.896l47.256-0.038
			l1.334,0.773c0.239,0.138,0.542,0.239,0.817,0.27l1.312,0.142v3.643c0,0.431,0.13,0.846,0.376,1.199l0.784,1.12
			c0.03,0.042,0.061,0.084,0.094,0.123v19.517c-1.481,0.342-2.589,1.671-2.589,3.254V246.5c0,3.137,2.552,5.69,5.69,5.69h4.83
			c3.137,0,5.69-2.552,5.69-5.69v-30.299c0-1.677-1.243-3.07-2.857-3.305v-19.23c0.058-0.052,0.114-0.108,0.166-0.167l0.722-0.825
			c0.341-0.399,0.519-0.883,0.519-1.383v-2.492l0.984,0.107l-0.057,1.147c-0.024,0.502,0.13,0.993,0.434,1.387
			c0.18,0.235,1.095,1.368,2.4,1.958c0.167,0.106,0.35,0.189,0.546,0.245l14.372,4.141c0.132,0.098,0.487,0.416,0.815,1.206
			c0.225,0.542,0.781,1.949,1.485,3.73l0.049,0.123c2.39,6.047,4.605,11.617,5.447,13.35c0.571,1.324,0.296,2.736,0.19,3.044
			c-0.043,0.107-0.201,0.503-2.596,8.485c-0.211,0.702-0.292,1.43-0.24,2.163l0.149,2.147c0.014,0.195,0.057,0.39,0.127,0.574
			c0.083,0.229,0.207,0.444,0.368,0.635c0.071,0.084,0.156,0.168,0.246,0.243c0.183,0.158,0.397,0.287,0.622,0.37l0.476,0.179
			l-6.324,14.964c-0.027,0.046-0.053,0.092-0.077,0.14c-0.077,0.153-0.155,0.357-0.194,0.604c-0.02,0.096-0.033,0.193-0.04,0.291
			l-0.081,1.682l-23.026,41.971c-0.657,0.217-1.444,0.699-2.058,1.744c-0.336,0.571-1.649,2.68-3.513,5.641l-0.052,0.083
			c-0.045,0.074-2.749,4.486-6.533,5.725c-0.026,0.009-0.053,0.018-0.079,0.028c-0.835,0.313-1.641,0.71-2.398,1.181
			c-0.28,0.175-0.555,0.36-0.823,0.556c-0.098-0.067-0.194-0.134-0.289-0.201c-0.016-0.012-0.033-0.023-0.05-0.034
			c-0.021-0.014-0.044-0.028-0.066-0.042c-0.876-0.617-1.757-1.253-2.61-1.868l-0.143-0.103c-0.743-0.536-1.486-1.071-2.235-1.601
			c-1.285-0.915-2.618-1.822-3.957-2.69c-1.293-0.83-2.615-1.631-3.936-2.387c-0.05-0.036-0.1-0.07-0.151-0.1
			c-12.992-7.385-26.811-13.722-38.97-17.876c-0.297-0.141-0.583-0.199-0.774-0.238l-0.055-0.011l-0.103-0.022l-0.134-0.035
			c-0.09-0.024-0.195-0.051-0.301-0.076c-0.389-0.092-0.758-0.156-1.119-0.193c-0.179-0.018-0.353-0.027-0.521-0.027
			c-0.905,0-1.729,0.259-2.519,0.791c-1.303,0.877-1.946,2.001-2.513,2.993c-0.081,0.142-0.162,0.284-0.246,0.427
			c-0.01,0.017-0.02,0.034-0.029,0.051l-0.147,0.266c-0.565,1.032-0.365,2.198,0.505,2.975c9.443,8.324,20.716,15.209,26.597,18.573
			l0.509,0.291c12.101,6.924,13.366,7.647,27.698,11.136l0.076,0.02c-0.179,2.773,0.501,5.535,1.976,7.928
			c1.886,3.059,4.845,5.195,8.333,6.015c1.011,0.237,2.044,0.358,3.073,0.358c2.477,0,4.908-0.699,7.033-2.021
			c0.266-0.166,0.53-0.344,0.789-0.533c0.063,0.046,0.126,0.092,0.188,0.138c0.016,0.012,0.031,0.023,0.047,0.034
			c0.021,0.014,0.042,0.029,0.065,0.043c0.879,0.651,1.765,1.321,2.622,1.969c0.795,0.601,1.59,1.202,2.391,1.798
			c1.3,0.972,2.638,1.929,3.972,2.838c1.292,0.874,2.623,1.725,3.964,2.536c0.057,0.044,0.116,0.084,0.175,0.12
			c12.804,7.697,26.405,13.133,38.046,17.436c0.293,0.147,0.578,0.214,0.769,0.258l0.149,0.036l0.153,0.044
			c0.116,0.034,0.204,0.059,0.293,0.082c0.394,0.105,0.766,0.18,1.13,0.228c0.23,0.03,0.446,0.044,0.662,0.044
			c0.86,0,1.653-0.238,2.423-0.727c1.342-0.852,2.014-1.973,2.606-2.962c0.084-0.14,0.168-0.28,0.257-0.423
			c0.011-0.018,0.022-0.036,0.032-0.054l0.153-0.265c0.585-1.017,0.41-2.189-0.444-2.987c-7.544-6.948-16.175-12.164-24.521-17.209
			l-1.477-0.893c-12.169-7.361-13.442-8.13-27.936-12.081l-0.08-0.024c-0.046-0.013-0.091-0.027-0.137-0.041
			c0.028-1.126-0.069-2.282-0.29-3.419c0.017-0.233-0.005-0.472-0.071-0.707c-0.031-0.132-0.647-2.994,1.608-8.053
			c2.19-4.659,2.861-5.785,2.913-5.871c0.004-0.006,0.008-0.012,0.012-0.019c0.09-0.146,0.173-0.329,0.223-0.493
			c0.172-0.572,0.357-1.446,0.232-2.308l23.084-42.081l1.343-0.811c0.23-0.139,0.46-0.351,0.618-0.569l2.273-3.25
			c0.211-0.199,0.381-0.44,0.496-0.709l6.139-8.778l0.219,0.183c0.395,0.32,0.864,0.486,1.344,0.486c0.465,0,0.923-0.157,1.29-0.443
			c0.08-0.062,0.494-0.393,0.948-0.919l2.339-2.245c0.033,0.063,0.064,0.125,0.096,0.188c0.158,0.316,0.338,0.674,0.657,1.047
			c0.05,0.059,0.104,0.115,0.16,0.168c0.58,0.762,1.531,1.41,2.935,2.008c2.929,1.247,12.096,1.344,14.835,1.344
			c10.677,0,14.65-1.575,14.814-1.642c0.043-0.018,0.086-0.037,0.128-0.058c0.281-0.139,1.213-0.617,2.007-1.223
			c1.13-0.626,1.831-1.489,2.432-2.291l2.658,2.472c0.442,0.496,0.842,0.813,0.959,0.902c0.379,0.281,0.823,0.427,1.269,0.427
			c0.499,0,0.984-0.179,1.364-0.503l0.222-0.191l6.278,8.683c0.119,0.265,0.291,0.502,0.503,0.696l2.308,3.192
			c0.164,0.227,0.404,0.444,0.646,0.585l1.354,0.789l23.743,41.714c-0.111,0.862,0.086,1.731,0.266,2.296
			c0.054,0.171,0.141,0.353,0.241,0.508l0,0c0.027,0.043,0.696,1.106,3.026,5.865c2.319,4.991,1.745,7.864,1.717,7.993
			c-0.074,0.284-0.088,0.575-0.043,0.858c-0.23,1.388-0.242,2.805-0.037,4.191c-0.001,0-0.002,0.001-0.002,0.001l-0.104,0.037
			c-13.956,4.683-15.154,5.511-26.624,13.436l-0.482,0.333c-5.575,3.852-16.225,11.671-24.917,20.754
			c-0.81,0.862-0.908,2.039-0.261,3.012l0.171,0.257c0.012,0.018,0.024,0.035,0.036,0.052c0.077,0.107,0.151,0.215,0.225,0.323
			l0.053,0.077c0.647,0.938,1.383,2.004,2.757,2.769c0.715,0.398,1.431,0.591,2.188,0.591c0.298,0,0.596-0.029,0.91-0.089
			c0.354-0.067,0.717-0.162,1.104-0.29c0.092-0.03,0.191-0.065,0.29-0.1l0.161-0.056l0.116-0.034
			c0.189-0.056,0.468-0.138,0.752-0.303c11.765-5.172,24.997-12.659,37.28-21.096c0.058-0.04,0.115-0.084,0.17-0.132
			c1.259-0.87,2.51-1.782,3.718-2.711c1.265-0.982,2.516-1.998,3.727-3.026c0.742-0.627,1.482-1.262,2.223-1.899l0.057-0.049
			c0.78-0.67,1.583-1.36,2.383-2.032c0.044-0.032,0.086-0.065,0.125-0.099c0.082-0.069,0.167-0.139,0.254-0.21
			c0.284,0.172,0.573,0.334,0.867,0.484c1.879,0.958,3.973,1.465,6.056,1.465c1.405,0,2.802-0.224,4.153-0.665
			c3.406-1.113,6.174-3.493,7.794-6.7c1.143-2.265,1.601-5.231,1.284-8.046c0.045-0.018,0.09-0.036,0.135-0.053l0.1-0.038
			c14.082-5.157,15.285-6.032,26.787-14.4l1.398-1.017c7.889-5.735,16.043-11.664,22.959-19.214c0.792-0.879,0.867-2.059,0.202-3.02
			l-0.181-0.259c-0.011-0.016-0.023-0.032-0.034-0.048c-0.099-0.133-0.195-0.267-0.291-0.4c-0.675-0.935-1.44-1.994-2.847-2.729
			c-0.69-0.36-1.375-0.536-2.094-0.536c-0.339,0-0.68,0.038-1.04,0.118c-0.357,0.078-0.719,0.184-1.108,0.324
			c-0.089,0.032-0.181,0.067-0.273,0.102l-0.187,0.071l-0.104,0.033c-0.193,0.063-0.473,0.154-0.753,0.326
			c-11.233,5.274-24.325,11.844-36.43,20.601c-0.057,0.041-0.112,0.086-0.166,0.135c-1.267,0.922-2.521,1.883-3.729,2.858
			c-0.011,0.009-0.022,0.018-0.033,0.027c-1.247,1.017-2.46,2.05-3.606,3.072c-0.01,0.008-0.021,0.016-0.031,0.025
			c-0.019,0.016-0.038,0.032-0.057,0.048c-0.743,0.658-1.481,1.322-2.219,1.986c-0.826,0.742-1.642,1.477-2.453,2.191
			c-0.028,0.021-0.054,0.042-0.08,0.064c-0.067,0.059-0.135,0.118-0.202,0.176c-0.274-0.167-0.551-0.322-0.831-0.464
			c-0.805-0.41-1.673-0.743-2.585-0.991c-3.404-1.486-5.801-5.267-5.825-5.305l-0.084-0.13c-1.934-2.968-3.241-4.995-3.587-5.563
			c-0.631-1.036-1.429-1.504-2.085-1.711l-23.684-41.606l-0.105-1.643h0c-0.006-0.097-0.021-0.197-0.042-0.296
			c-0.034-0.216-0.103-0.425-0.204-0.623c-0.024-0.047-0.051-0.094-0.081-0.142l-6.56-14.867l0.479-0.188
			c0.22-0.087,0.429-0.216,0.607-0.375c0.089-0.077,0.173-0.163,0.243-0.248c0.146-0.174,0.264-0.379,0.346-0.605
			c0.075-0.196,0.121-0.405,0.132-0.614l0.116-2.151c0.039-0.735-0.053-1.46-0.274-2.157c-2.523-7.953-2.68-8.327-2.739-8.468
			c-0.101-0.282-0.399-1.689,0.15-3.019c0.888-1.907,3.505-8.846,5.241-13.449c0.668-1.77,1.244-3.299,1.468-3.865
			c0.315-0.794,0.664-1.119,0.796-1.22l14.309-4.367c0.197-0.06,0.381-0.147,0.548-0.258c1.289-0.611,2.183-1.752,2.363-1.994
			c0.294-0.389,0.442-0.887,0.41-1.389l-0.075-1.147l0.983-0.122l0.039,2.491c0.008,0.512,0.202,1.002,0.547,1.381l0.717,0.793
			c0.058,0.062,0.118,0.121,0.181,0.175l0.302,19.23c-1.609,0.26-2.83,1.672-2.805,3.348l0.476,30.296
			c0.049,3.088,2.601,5.6,5.688,5.6l4.92-0.077c3.137-0.049,5.649-2.641,5.6-5.778l-0.476-30.295
			c-0.025-1.567-1.155-2.882-2.64-3.209l-0.307-19.519c0.034-0.042,0.066-0.086,0.096-0.132l0.759-1.122
			c0.243-0.359,0.368-0.779,0.36-1.214l-0.057-3.638l1.3-0.162c0.284-0.035,0.596-0.145,0.84-0.295l1.303-0.783l47.251-0.705
			c0.693,0.505,1.536,0.748,2.109,0.861c0.025,0.005,0.051,0.01,0.076,0.014c0.104,0.017,0.228,0.027,0.334,0.027
			c0.048,0,0.097-0.002,0.146-0.005c0.024-0.002,0.21-0.012,0.724-0.012c0.875,0,2.588,0.032,5.778,0.183
			c5.486,0.373,7.659,2.288,7.68,2.307c0.079,0.074,0.161,0.141,0.247,0.2c0.79,0.683,1.646,1.264,2.559,1.738
			c-0.023,0.113-0.048,0.225-0.075,0.338l-0.026,0.106c-3.703,14.498-3.659,15.978-3.246,30.134l0.018,0.596
			c0.188,6.45,0.927,22.742,3.731,34.671c0.279,1.14,1.203,1.865,2.358,1.865l0.352-0.005c0.02,0,0.04-0.001,0.06-0.002
			c0.162-0.008,0.324-0.013,0.484-0.018c1.161-0.037,2.467-0.079,3.866-0.829c0.998-0.536,1.689-1.305,2.112-2.35
			c0.137-0.338,0.255-0.697,0.359-1.094c0.026-0.101,0.048-0.193,0.07-0.284l0.042-0.175l0.027-0.093l0.015-0.052
			c0.054-0.184,0.137-0.463,0.152-0.792c2.107-13.057,3.17-30.44,2.775-45.426c-0.002-0.071-0.008-0.143-0.018-0.215
			c-0.045-1.546-0.13-3.116-0.254-4.67c-0.137-1.623-0.31-3.251-0.516-4.847c-0.123-0.976-0.255-1.957-0.386-2.938
			c-0.147-1.092-0.292-2.175-0.424-3.244c-0.002-0.04-0.006-0.079-0.01-0.117c-0.008-0.062-0.015-0.125-0.023-0.188
			c0.457-0.201,0.902-0.427,1.331-0.677c6.319-3.68,8.465-11.815,4.786-18.134c-1.392-2.391-3.472-4.262-5.96-5.392l0.019-0.08
			c3.618-14.1,3.577-15.539,3.181-29.304l-0.017-0.576c-0.315-10.972-0.966-24.799-3.23-34.418
			c-0.275-1.133-1.196-1.857-2.349-1.857l-0.345,0.005c-0.021,0-0.041,0.001-0.062,0.002c-0.16,0.008-0.318,0.013-0.475,0.018
			c-1.132,0.037-2.41,0.078-3.783,0.813c-0.984,0.528-1.665,1.284-2.083,2.311c-0.135,0.329-0.251,0.682-0.354,1.075
			c-0.022,0.082-0.045,0.175-0.067,0.269l-0.046,0.192l-0.033,0.107c-0.055,0.187-0.137,0.463-0.154,0.788
			c-2.246,13.791-3.47,31.382-3.12,44.875c0.002,0.071,0.008,0.142,0.018,0.215c0.043,1.501,0.125,3.025,0.245,4.534h0
			c0.001,0.008,0.001,0.016,0.002,0.023c0.132,1.561,0.299,3.14,0.499,4.692c0.114,0.908,0.236,1.821,0.359,2.735l0.017,0.128
			c0.138,1.029,0.281,2.091,0.41,3.14c0.002,0.037,0.005,0.074,0.009,0.109c0.015,0.117,0.028,0.236,0.041,0.355
			c-0.292,0.142-0.577,0.295-0.856,0.457c-0.762,0.444-1.483,0.966-2.143,1.551c-0.02,0.018-0.04,0.037-0.06,0.056
			c-2.829,2.723-7.907,3.045-7.958,3.048l-0.16,0.012c-3.478,0.261-5.847,0.428-6.499,0.457c-1.062,0.048-1.897,0.45-2.476,0.99
			l-47.132,0.705l-1.458-0.687c-0.087-0.041-0.182-0.077-0.281-0.107c-0.209-0.075-0.43-0.116-0.656-0.121c-0.014,0-0.041,0-0.055,0
			c-0.036,0-0.071,0.001-0.104,0.003l-1.115-0.098l-0.045-2.981c-0.008-0.443-0.149-0.86-0.408-1.212l-0.717-0.99
			c-0.041-0.056-0.084-0.111-0.13-0.162l-0.316-20.1c0.707-0.113,1.355-0.449,1.863-0.971c0.623-0.643,0.956-1.487,0.942-2.379
			l-0.464-29.498c-0.049-3.088-2.6-5.6-5.688-5.6l-4.92,0.077c-1.518,0.024-2.937,0.638-3.995,1.731
			c-1.058,1.092-1.628,2.53-1.604,4.047l0.464,29.498c0.025,1.573,1.157,2.892,2.64,3.213l0.314,20.016
			c-0.103,0.104-0.197,0.22-0.278,0.347l-0.591,0.918c-0.226,0.348-0.343,0.758-0.334,1.18l0.027,1.701l-1.195-0.105l-0.002-0.898
			c-0.002-0.699-0.268-1.361-0.751-1.865c-0.315-0.329-1.262-1.319-2.778-1.604c-1.315-0.339-12.707-3.279-13.873-3.58l-0.093-0.024
			c-0.835-0.216-0.884-0.228-1.486-1.428c-2.225-5.62-6.369-15.936-7.015-17.48c-0.263-0.628-0.206-1.377-0.155-1.661
			c0.251-0.888,2.62-9.284,2.859-10.308c0.362-1.546-0.029-2.805-0.111-3.041c-0.077-0.229-0.237-0.552-0.551-0.843
			c-0.129-0.123-0.274-0.23-0.432-0.316l-0.881-0.483l4.578-11.254c0.142-0.221,0.241-0.466,0.293-0.721l1.475-3.626
			c0.105-0.257,0.162-0.574,0.154-0.852l-0.045-1.542l22.516-41.537c0.79-0.365,1.42-0.994,1.789-1.426
			c0.117-0.137,0.23-0.313,0.307-0.478c0.03-0.062,0.584-1.191,3.326-5.574c2.95-4.506,5.632-5.517,5.768-5.566
			c0.105-0.032,0.206-0.072,0.303-0.12c0.981-0.354,1.906-0.816,2.766-1.379c0.087,0.076,0.173,0.152,0.258,0.231l0.078,0.072
			c10.83,10.328,12.141,11.015,24.685,17.586l1.525,0.799c8.6,4.508,17.493,9.171,27.283,11.993
			c0.238,0.068,0.473,0.102,0.705,0.102c0.876,0,1.658-0.477,2.093-1.277l0.149-0.275c0.01-0.019,0.02-0.037,0.029-0.056
			c0.074-0.147,0.149-0.292,0.224-0.436c0.533-1.024,1.136-2.184,1.167-3.771c0.021-1.133-0.311-2.111-1.015-2.991
			c-0.228-0.285-0.483-0.564-0.78-0.85c-0.075-0.073-0.156-0.147-0.237-0.222l-0.121-0.113L317.93,74
			c-0.157-0.161-0.365-0.374-0.644-0.546c-9.669-7.714-21.311-16.51-34.456-23.442c-0.062-0.032-0.126-0.062-0.192-0.088
			c-1.383-0.725-2.796-1.419-4.201-2.067c-1.478-0.673-2.95-1.305-4.384-1.882c-0.043-0.02-0.086-0.038-0.128-0.054
			c-0.874-0.356-1.788-0.719-2.702-1.082c-1.017-0.404-2.043-0.811-3.049-1.223c-0.047-0.023-0.095-0.045-0.142-0.063
			c-0.047-0.019-0.095-0.039-0.143-0.059c0.049-0.497,0.07-0.996,0.062-1.493c-0.113-7.198-6.06-13.053-13.257-13.053l-0.196,0.002
			c-2.779,0.044-5.431,0.941-7.635,2.557l-0.055-0.051c-10.526-10.062-11.801-10.73-23.994-17.124l-1.486-0.78
			c-8.357-4.385-16.998-8.92-26.516-11.661C194.565,1.821,194.335,1.788,194.11,1.788L194.11,1.788z"/>
	</g>
	<path class="st2" d="M187.262,235.383h-13.988c-4.35,0-7.888-3.538-7.888-7.888v-18.352c0-5.164,4.201-9.365,9.364-9.365h11.035
		c5.164,0,9.365,4.201,9.365,9.365v18.352C195.15,231.844,191.612,235.383,187.262,235.383z"/>
	<g>
		<g>
			<line class="st3" x1="180" y1="193.632" x2="180" y2="154.556"/>
			<g>
				<polygon class="st1" points="189.258,161.578 180,157.645 170.742,161.578 180,139.632 				"/>
			</g>
		</g>
	</g>
	<path class="st4" d="M180.17,124.052c3.474-0.015,11.943-0.051,15.653,4.425c3.711,4.476,8.509,26.407,9.396,30.75
		s2.963,15.853,4.391,28.308c1.428,12.455,1.835,23.03,0.48,27.817c-1.355,4.787-10.515,12.361-12.32,13.527
		c-1.805,1.167-1.738-0.282-1.738-0.282l0.104-9.563c-0.008-1.884-0.312-5.215,1.708-6.745c2.02-1.53,5.337-4.442,7.209-6.913
		s1.51-9.47,1.51-9.47s-0.213-8.937-2.296-22.186c-2.083-13.249-6.593-34.295-9.532-38.044c-2.939-3.749-14.576-3.253-14.576-3.253
		l-0.655,0.008c0,0-11.659-0.447-14.588,3.318c-2.928,3.765-7.356,24.848-9.387,38.118c-2.03,13.269-2.206,22.215-2.206,22.215
		s-0.332,7.006,1.553,9.472c1.885,2.465,5.221,5.366,7.251,6.888c2.03,1.523,1.74,4.858,1.74,6.743l0.145,9.571
		c0,0,0.073,1.45-1.74,0.29s-11.021-8.701-12.399-13.487c-1.378-4.786-1.015-15.372,0.363-27.844
		c1.378-12.472,3.408-24.001,4.278-28.351c0.87-4.351,5.583-26.321,9.281-30.817c3.698-4.496,12.182-4.496,15.662-4.496
		L180.17,124.052z"/>
</g>
<g id="Layer_2">
	<g>
		<g>
			<line class="st5" x1="180.053" y1="112.744" x2="180.029" y2="109.094"/>
			<line class="st6" x1="179.983" y1="102.064" x2="179.359" y2="7.165"/>
			<line class="st5" x1="179.336" y1="3.651" x2="179.312" y2="0"/>
		</g>
	</g>
	<g>
		<g>
			<line class="st5" x1="181.68" y1="359.912" x2="181.656" y2="356.261"/>
			<line class="st7" x1="181.61" y1="349.294" x2="180.991" y2="255.244"/>
			<line class="st5" x1="180.968" y1="251.761" x2="180.944" y2="248.11"/>
		</g>
	</g>
	<circle class="st8" cx="24.713" cy="180.317" r="12.342"/>
	<circle class="st9" cx="335.287" cy="177.57" r="12.342"/>
</g>
</svg>
