<?xml version="1.0" encoding="utf-8"?>
<!-- Generator: Adobe Illustrator 21.1.0, SVG Export Plug-In . SVG Version: 6.00 Build 0)  -->
<svg version="1.1" xmlns="http://www.w3.org/2000/svg" xmlns:xlink="http://www.w3.org/1999/xlink" x="0px" y="0px"
	 viewBox="0 0 360 360" style="enable-background:new 0 0 360 360;" xml:space="preserve">
<style type="text/css">
	.st0{fill:#FFFFFF;}
	.st1{fill:#231916;}
	.st2{fill:none;stroke:#231916;stroke-miterlimit:10;}
	.st3{fill:none;stroke:#231916;stroke-width:2;stroke-linecap:round;stroke-linejoin:round;}
	.st4{fill:none;stroke:#231916;stroke-width:5;stroke-linecap:round;stroke-linejoin:round;}
	.st5{fill:none;stroke:#888888;stroke-width:1.9785;stroke-linecap:round;stroke-linejoin:round;}
	.st6{fill:none;stroke:#888888;stroke-width:1.9785;stroke-linecap:round;stroke-linejoin:round;stroke-dasharray:7.3673,7.3673;}
	.st7{fill:none;stroke:#888888;stroke-width:1.9785;stroke-linecap:round;stroke-linejoin:round;stroke-dasharray:5.0617,5.0617;}
	.st8{fill:none;stroke:#888888;stroke-width:1.9504;stroke-linecap:round;stroke-linejoin:round;}
	.st9{fill:none;stroke:#888888;stroke-width:1.9504;stroke-linecap:round;stroke-linejoin:round;stroke-dasharray:4.9214,4.9214;}
	.st10{fill:none;stroke:#888888;stroke-width:1.9504;stroke-linecap:round;stroke-linejoin:round;stroke-dasharray:8.5124,8.5124;}
	.st11{fill:none;stroke:#FF4338;stroke-width:7.984;stroke-linecap:round;stroke-linejoin:round;stroke-miterlimit:10;}
	.st12{fill:none;stroke:#FF4338;stroke-width:7.984;stroke-linecap:round;stroke-linejoin:round;}
	.st13{fill:#FF4338;}
	.st14{fill:#00B550;stroke:#00AF41;stroke-width:2;stroke-miterlimit:10;}
	.st15{fill:#00B550;stroke:#00AF41;stroke-width:1.9528;stroke-miterlimit:10;}
</style>
<g id="Layer_3">
	<g>
		<path class="st0" d="M169.806,360.525c-0.141,0-0.285-0.021-0.431-0.064c-9.383-2.824-21.63-9.146-31.252-14.34l-0.509-0.275
			c-12.263-6.616-13.265-7.157-23.587-17.264l-0.073-0.07c-0.198-0.187-0.407-0.37-0.619-0.547c-2.173,1.775-4.877,2.75-7.702,2.761
			c-6.783,0-12.285-5.48-12.312-12.217c-0.002-0.698,0.056-1.399,0.174-2.095c-0.287-0.134-0.575-0.262-0.866-0.385
			c-0.025-0.011-0.053-0.024-0.081-0.039c-1.021-0.433-2.062-0.861-3.068-1.275c-0.914-0.375-1.827-0.75-2.738-1.134
			c-1.456-0.607-2.939-1.266-4.405-1.954c-1.418-0.675-2.825-1.39-4.189-2.126c-0.057-0.021-0.111-0.046-0.16-0.074
			c-13.115-7.116-27.599-16.703-37.814-25.03c-0.193-0.107-0.345-0.268-0.493-0.424l-0.202-0.204l-0.248-0.236
			c-0.273-0.271-0.497-0.521-0.692-0.772c-0.551-0.705-0.795-1.454-0.768-2.355c0.042-1.355,0.577-2.353,1.095-3.316l0.238-0.451
			l0.161-0.291c0.276-0.481,0.713-0.745,1.211-0.745c0.141,0,0.286,0.021,0.432,0.063c11.662,3.515,26.071,10.985,31.726,14.034
			l0.523,0.282c12.618,6.803,13.648,7.358,24.276,17.738l0.074,0.069c0.262,0.247,0.533,0.482,0.805,0.7
			c0.023,0.02,0.048,0.038,0.071,0.057c0.992-0.721,2.087-1.286,3.267-1.687c0.069-0.035,0.142-0.064,0.209-0.081
			c-0.004,0,3.024-0.952,6.362-5.923c2.885-4.492,3.422-5.582,3.443-5.626c0.029-0.062,0.079-0.142,0.12-0.195
			c0.325-0.372,1.004-1.061,1.785-1.299l23.334-41.843c-0.001-0.021-0.033-1.809-0.033-1.809c-0.003-0.15,0.037-0.341,0.101-0.479
			l0.846-2.003l-3.969-2.209c-0.175-0.098-0.358-0.289-0.448-0.468l-0.602-1.236c-0.053-0.109-0.085-0.238-0.096-0.371
			l-18.237-10.147l-0.122,0.219c-0.429,0.744-1.213,1.199-2.052,1.199c-0.395,0-0.785-0.102-1.13-0.293l-26.48-14.738
			c-1.094-0.609-1.885-1.608-2.229-2.814s-0.197-2.472,0.411-3.565l2.378-4.272c0.842-1.457,2.403-2.354,4.084-2.354
			c0.792,0,1.576,0.203,2.267,0.587l26.481,14.738c1.127,0.628,1.534,2.056,0.906,3.184l-0.252,0.452l18.132,10.091
			c0.139-0.112,0.304-0.197,0.46-0.23l1.055-0.226c0.068-0.015,0.16-0.025,0.23-0.025c0.168,0,0.381,0.055,0.527,0.135l3.158,1.759
			l1.188-2.809l-1.877-0.926c-0.207-0.102-0.42-0.322-0.516-0.532c-0.114-0.271-0.602-1.507-0.462-2.706
			c-0.012-0.112-0.009-0.223,0.014-0.323l3.422-14.788c0,0.002,0,0.003-0.001,0.003c-0.009,0,0.025-0.792-0.894-1.951
			c-0.381-0.481-1.37-1.689-2.624-3.219c-3.143-3.836-7.87-9.604-9.007-11.24c-1.111-1.471-2.903-1.985-3.209-2.024
			c-0.422-0.054-4.918-1.034-8.616-1.847c-0.596-0.131-1.158-0.367-1.674-0.702l-1.807-1.177c-0.114-0.074-0.215-0.176-0.292-0.291
			c-0.051-0.073-0.097-0.153-0.126-0.226c-0.021-0.056-0.041-0.123-0.055-0.189c-0.026-0.118-0.032-0.237-0.018-0.357l0.234-1.561
			l-17.275-1.874c-0.032,0.003-0.064,0.005-0.092,0.005c-0.154-0.006-0.293-0.036-0.418-0.087c-0.084-0.026-0.166-0.06-0.228-0.097
			c0,0-1.581-0.774-1.621-0.795l-48.545-0.296c-0.412,0.518-1.103,0.929-2.116,0.953c-1.005,0.023-5.371,0.258-6.686,0.329
			c-0.142,0.006-4.969,0.196-8.223,2.638c-0.634,0.637-1.32,1.196-2.039,1.663c-0.435,0.282-0.9,0.541-1.39,0.774
			c0.055,0.327,0.115,0.654,0.18,0.979c0.006,0.03,0.011,0.063,0.014,0.098c0.22,1.092,0.454,2.198,0.681,3.27
			c0.206,0.968,0.412,1.937,0.609,2.906c0.005,0.024,0.009,0.051,0.012,0.078c0.313,1.508,0.603,3.078,0.86,4.67
			c0.001,0.008,0.003,0.021,0.003,0.021c0.241,1.533,0.446,3.104,0.611,4.67c0.012,0.044,0.021,0.087,0.025,0.128
			c1.526,14.822,0.669,29.408-0.378,41.74c0.018,0.22-0.027,0.433-0.067,0.622l-0.04,0.194l-0.075,0.456
			c-0.066,0.362-0.146,0.688-0.242,0.992c-0.272,0.857-0.753,1.481-1.513,1.964c-1.142,0.726-2.266,0.84-3.354,0.951l-0.501,0.054
			l-0.34,0.029c-0.028,0.003-0.117,0.007-0.145,0.007c-0.636,0-1.135-0.369-1.335-0.988c-3.053-9.675-4.105-19.65-5.123-29.297
			l-0.183-1.731c-1.514-14.319-1.638-15.489,0.918-30.156l0.017-0.105c0.047-0.306,0.085-0.619,0.111-0.929
			c-2.692-1.009-5.163-2.894-6.571-5.043c-1.822-2.782-2.449-6.103-1.765-9.348c0.272-1.288,0.739-2.511,1.389-3.637
			c0.964-1.669,2.339-3.112,3.977-4.174c0.446-0.29,0.916-0.554,1.403-0.786c-0.049-0.363-0.105-0.726-0.169-1.085
			c-0.005-0.03-0.009-0.062-0.012-0.096c-0.185-1.048-0.385-2.108-0.578-3.136c-0.193-1.025-0.373-1.981-0.545-2.94
			c-0.281-1.545-0.533-3.123-0.748-4.687c-0.201-1.514-0.366-3.058-0.489-4.595c-0.013-0.055-0.021-0.108-0.025-0.16
			c-1.162-14.805-1.028-29.967,0.375-42.698c-0.011-0.221,0.04-0.434,0.085-0.622l0.042-0.177l0.086-0.446
			c0.072-0.351,0.16-0.671,0.266-0.973c0.082-0.237,0.18-0.454,0.298-0.659c0.292-0.505,0.701-0.91,1.253-1.242
			c1.152-0.688,2.269-0.778,3.349-0.865l0.498-0.042c0,0,0.426-0.026,0.448-0.026c0.641,0,1.156,0.387,1.344,1.01
			c3.5,11.998,4.937,25.056,5.482,31.772l0.047,0.585c1.143,14.062,1.236,15.21-1.666,29.534l-0.019,0.102
			c-0.051,0.277-0.093,0.56-0.125,0.839c1.549,0.502,2.997,1.309,4.243,2.368c0.195,0.055,0.388,0.16,0.516,0.291
			c0.015,0.015,2.354,2.243,8.421,2.782c4.022,0.274,5.746,0.316,6.414,0.316c0.172,0,0.305-0.005,0.322-0.005
			c0.076,0,0.168,0.007,0.234,0.021c0.462,0.1,1.391,0.361,1.979,0.942l48.649,0.3c0.023-0.016,1.594-0.915,1.594-0.915
			c0.131-0.075,0.317-0.131,0.468-0.142l3.995-0.411c0.132-0.055,0.275-0.084,0.422-0.084c0.062,0,0.129,0.007,0.196,0.021
			l11.87-1.221l-0.255-1.35c-0.046-0.24,0.011-0.557,0.136-0.767c0.114-0.196,0.293-0.355,0.513-0.449
			c0.013-0.006,0.47-0.202,1.126-0.334l3.773-1.159c0.271-0.129,0.61-0.381,0.677-0.545l-0.174-0.417
			c-0.431-0.997-0.859-1.986-0.818-3.223c-0.134-0.949-0.074-2.02-0.061-2.231c0.034-0.254,0.694-4.395,5.868-13.357
			c0.962-1.662,5.88-10.046,8.319-11.879c1.106-0.833,2.034-1.278,2.823-1.355c0.066-0.025,0.136-0.045,0.207-0.057
			c0.169-0.032,0.347-0.046,0.533-0.046c0.139,0,0.284,0.009,0.447,0.019c0.154,0.009,0.329,0.02,0.536,0.02
			c0.295,0,0.604-0.022,0.945-0.069c0.007-0.1-0.013-0.277-0.051-0.402l-0.979-3.971c-0.205-0.576-0.278-1.04-0.291-1.129
			c-0.031-0.223,0.025-0.513,0.139-0.707c0.111-0.204,0.311-0.379,0.551-0.473l1.309-0.482l-5.035-10.782
			c-0.149-0.161-0.247-0.371-0.277-0.595l-1.713-3.668c-0.062-0.132-0.103-0.316-0.103-0.463c0,0-0.034-1.798-0.033-1.814
			l-25.241-41.592c-0.806-0.209-1.515-0.883-1.814-1.201c-0.066-0.071-0.138-0.174-0.182-0.261
			c-0.013-0.024-0.592-1.101-3.708-5.581c-3.565-4.911-6.679-5.774-6.71-5.783c-0.169-0.036-0.322-0.116-0.45-0.227
			c-1.315-0.44-2.562-1.058-3.657-1.81c-0.237,0.198-0.474,0.408-0.702,0.626l-0.083,0.081
			c-10.562,10.471-11.592,11.038-24.202,17.98l-1.516,0.834c-8.501,4.684-17.291,9.526-26.974,12.551
			c-0.159,0.049-0.312,0.073-0.459,0.073c-0.495,0-0.931-0.263-1.197-0.72l-0.155-0.268l-0.261-0.476
			c-0.531-0.954-1.08-1.941-1.137-3.294c-0.031-0.728,0.112-1.338,0.449-1.922c0.084-0.146,0.183-0.293,0.297-0.441
			c0.195-0.254,0.417-0.507,0.681-0.771l0.334-0.324l0.119-0.125c0.148-0.158,0.298-0.318,0.487-0.428
			c9.52-7.908,20.996-16.948,34.008-24.157c0.041-0.022,0.088-0.043,0.137-0.062c1.377-0.76,2.783-1.489,4.182-2.169
			c1.435-0.691,2.919-1.366,4.416-2.008c0.801-0.348,1.607-0.688,2.413-1.028l0.327-0.139c1.03-0.435,2.056-0.868,3.062-1.306
			c0.014-0.008,0.027-0.015,0.04-0.021c0.334-0.146,0.649-0.289,0.956-0.435c-0.089-0.533-0.143-1.062-0.159-1.582
			c-0.077-2.315,0.487-4.587,1.632-6.57c0.476-0.823,1.051-1.597,1.71-2.297c2.271-2.417,5.354-3.8,8.678-3.896
			c0.121-0.003,0.241-0.005,0.362-0.005c2.733,0,5.385,0.9,7.554,2.551c0.211-0.187,0.419-0.383,0.621-0.587l0.079-0.08
			c10.083-10.558,11.078-11.138,23.269-18.24l0.507-0.295c5.823-3.393,17.357-9.679,29.193-13.663
			c0.167-0.055,0.329-0.082,0.485-0.082c0.48,0,0.911,0.253,1.18,0.694l0.393,0.668c0.582,0.999,1.146,1.965,1.237,3.299
			c0.062,0.889-0.152,1.639-0.673,2.359c-0.188,0.261-0.401,0.516-0.65,0.779c-0.062,0.067-0.319,0.327-0.319,0.327l-0.073,0.083
			c-0.157,0.177-0.311,0.351-0.501,0.47c-9.637,8.426-22.002,17.204-34.832,24.727c-0.041,0.023-0.087,0.046-0.137,0.065
			c-1.322,0.771-2.683,1.519-4.042,2.221c-1.397,0.714-2.836,1.41-4.279,2.068c-0.88,0.405-1.764,0.803-2.648,1.2
			c-0.982,0.441-1.989,0.895-2.978,1.352c-0.008,0.005-0.016,0.009-0.022,0.014c-0.371,0.173-0.717,0.342-1.05,0.513
			c0.087,0.532,0.14,1.068,0.157,1.601c0.027,0.826-0.027,1.657-0.163,2.471c-0.905,4.316,1.745,9.173,1.771,9.222
			c0.287,0.543,2.658,5.041,3.197,5.991c0.507,0.894,0.494,1.714,0.273,2.312l25.18,41.495c0.038,0.023,0.074,0.049,0.11,0.075
			l1.474,0.949c0.048,0.03,0.098,0.07,0.146,0.113c0.117,0.089,0.199,0.188,0.253,0.271c0.021,0.033,0.043,0.071,0.062,0.113
			l10.481,13.863l1.202-0.989c0.09-0.073,0.197-0.134,0.31-0.174c0.053-0.02,0.106-0.036,0.154-0.047
			c0.071-0.017,0.156-0.025,0.229-0.025c0.035,0,0.075,0.003,0.115,0.008c0.133,0.009,0.266,0.046,0.384,0.105l1.926,0.94
			c0.55,0.268,1.043,0.63,1.463,1.077c0.945,1.002,5.683,6.028,6.008,6.441c0.191,0.243,1.555,1.517,3.43,1.719
			c1.944,0.132,9.322,1.226,14.204,1.948c1.974,0.293,3.523,0.522,4.133,0.604c0.256,0.033,0.491,0.048,0.706,0.048
			c1.022,0,1.475-0.328,1.493-0.343l10.854-10.461c0.075-0.072,0.172-0.137,0.277-0.187c0.999-0.768,2.38-0.969,2.542-0.99
			c0.043-0.006,0.102-0.01,0.146-0.01c0.186,0,0.421,0.067,0.579,0.165l1.773,1.146l1.801-2.461l-3.124-1.803
			c-0.208-0.12-0.41-0.365-0.489-0.592l-0.35-1.026c-0.052-0.151-0.063-0.337-0.038-0.515l-17.97-10.375l-0.259,0.448
			c-0.418,0.722-1.195,1.17-2.03,1.17c-0.408,0-0.812-0.107-1.166-0.312l-26.246-15.153c-1.084-0.626-1.859-1.638-2.184-2.849
			c-0.324-1.212-0.159-2.476,0.467-3.559l2.415-4.184c0.835-1.446,2.395-2.345,4.069-2.345c0.818,0,1.627,0.217,2.338,0.627
			l26.246,15.153c1.117,0.645,1.501,2.078,0.856,3.196l-0.126,0.218l18.077,10.435c0.118-0.058,0.242-0.096,0.36-0.106l1.359-0.118
			c0.025-0.002,0.051-0.003,0.077-0.003c0.197,0,0.428,0.06,0.589,0.158l3.913,2.259l1.305-1.783c0.081-0.111,0.215-0.23,0.334-0.3
			c0,0,1.56-0.896,1.573-0.903l23.922-41.51c-0.201-0.789,0.035-1.705,0.175-2.137c0.018-0.053,0.041-0.108,0.068-0.162
			c0,0,0.037-0.069,0.057-0.099c0.074-0.117,0.791-1.271,3.072-5.87c2.541-5.396,1.802-8.484,1.794-8.515
			c-0.016-0.061-0.024-0.126-0.029-0.193c-0.261-1.214-0.337-2.441-0.229-3.662c-0.028-0.011-0.057-0.021-0.085-0.032
			c-0.328-0.122-0.67-0.233-1.016-0.332l-0.113-0.031c-14.346-3.783-15.352-4.382-27.665-11.713l-0.518-0.309
			c-5.52-3.286-19.33-11.813-28.325-20.006c-0.52-0.483-0.62-1.156-0.27-1.764l0.155-0.268l0.275-0.456
			c0.567-0.946,1.148-1.916,2.286-2.646c0.621-0.398,1.229-0.584,1.913-0.584c0.162,0,0.33,0.011,0.505,0.032
			c0.315,0.039,0.644,0.102,1.005,0.195l0.452,0.125l0.171,0.039c0.192,0.043,0.412,0.092,0.607,0.203
			c12.387,4.486,28.054,11.991,40.93,19.609c0.04,0.024,0.081,0.053,0.122,0.086c1.339,0.796,2.674,1.637,3.969,2.5
			c1.334,0.897,2.661,1.832,3.946,2.781c0.794,0.583,1.585,1.173,2.375,1.763l0.141,0.105c0.828,0.618,1.681,1.255,2.527,1.873
			c0.032,0.019,0.062,0.039,0.089,0.06c0.249,0.182,0.505,0.361,0.766,0.538c0.535-0.457,1.106-0.867,1.707-1.225
			c1.891-1.122,4.049-1.714,6.24-1.714c4.319,0,8.368,2.3,10.566,6.002c1.441,2.431,1.994,5.252,1.587,8.028
			c0.259,0.091,0.525,0.175,0.792,0.251l0.103,0.027c13.966,3.667,14.943,4.249,26.918,11.372l0.495,0.295
			c9.396,5.588,21.109,12.848,28.348,19.444c0.516,0.479,0.615,1.148,0.268,1.753l-0.149,0.26l-0.26,0.429
			c-0.562,0.938-1.131,1.888-2.247,2.605c-0.611,0.393-1.21,0.576-1.885,0.576c-0.155,0-0.317-0.011-0.485-0.03
			c-0.311-0.039-0.631-0.1-0.984-0.19l-0.441-0.121l-0.155-0.035c-0.202-0.045-0.416-0.093-0.607-0.2
			c-13.097-4.725-29.018-12.187-40.604-19.035c-0.041-0.024-0.083-0.055-0.123-0.088c-1.307-0.775-2.603-1.591-3.854-2.425
			c-1.3-0.873-2.59-1.782-3.836-2.702c-0.724-0.53-1.445-1.069-2.166-1.607l-0.149-0.112c-0.876-0.653-1.734-1.293-2.585-1.914
			c-0.031-0.019-0.061-0.038-0.087-0.058c-0.283-0.207-0.575-0.411-0.872-0.61c-0.418,0.327-0.855,0.626-1.309,0.894
			c-0.7,0.417-1.449,0.766-2.224,1.037c-4.159,1.274-7.09,5.858-7.119,5.904l-0.07,0.107c-0.913,1.384-3.09,4.689-3.586,5.495
			c-0.602,0.975-1.374,1.261-1.873,1.338l-23.868,41.414c-0.002,0.042-0.128,1.847-0.128,1.847c-0.004,0.057-0.015,0.121-0.03,0.185
			c-0.019,0.126-0.059,0.247-0.121,0.36c-0.015,0.026-0.037,0.062-0.062,0.098l-0.862,1.93l3.365,1.942
			c0.176,0.102,0.356,0.298,0.443,0.481l0.526,1.127c0.056,0.12,0.086,0.263,0.091,0.409l18.645,10.765l0.259-0.448
			c0.416-0.722,1.193-1.17,2.029-1.17c0.408,0,0.812,0.107,1.167,0.312l25.556,14.755c1.084,0.626,1.859,1.638,2.184,2.849
			c0.324,1.212,0.159,2.476-0.467,3.559l-2.415,4.184c-0.835,1.446-2.395,2.345-4.069,2.345c-0.818,0-1.627-0.217-2.338-0.627
			l-25.557-14.755c-1.117-0.646-1.501-2.08-0.856-3.196l0.125-0.217l-18.584-10.729c-0.17,0.115-0.369,0.191-0.554,0.202
			c0,0-1.123,0.073-1.142,0.073c-0.183,0-0.401-0.055-0.554-0.14l-2.454-1.417l-1.314,2.944l1.58,0.883
			c0.38,0.211,0.663,0.56,0.795,0.979c0.116,0.377,0.464,1.506,0.026,2.697c-0.218,0.854-3.297,12.648-3.606,13.837
			c-0.297,1.136-0.37,1.417,0.697,2.98c3.775,4.606,10.825,13.308,11.851,14.61c0.739,0.939,1.897,1.29,1.909,1.294l0.057,0.013
			c2.812,0.667,9.448,2.246,10.321,2.496c1.225,0.349,1.98,1.115,2.119,1.266c0.084,0.091,0.158,0.217,0.209,0.347
			c0.056,0.127,0.085,0.265,0.085,0.402l-0.013,1.953l13.021,1.561c0.063-0.012,0.127-0.019,0.187-0.019
			c0.158,0,0.311,0.033,0.449,0.096l3.948,0.473c0.136,0.017,0.306,0.073,0.424,0.143c0,0,1.549,0.923,1.562,0.931l47.893,0.534
			c0.564-0.537,1.431-0.785,1.958-0.893c0.066-0.014,0.153-0.022,0.221-0.022c0.034,0,0.076,0.002,0.109,0.005
			c0.007,0,0.184,0.01,0.634,0.01c0.877,0,2.621-0.036,5.951-0.207c5.953-0.427,8.282-2.584,8.306-2.606
			c0.044-0.042,0.097-0.083,0.154-0.119c0.931-0.822,1.964-1.49,3.078-1.991c-0.004-0.03-0.009-0.061-0.013-0.09
			c-0.055-0.35-0.125-0.701-0.209-1.049l-0.026-0.11c-3.727-14.367-3.697-15.537-3.334-29.868l0.044-1.715
			c0.242-9.659,0.491-19.647,2.764-29.482c0.043-0.169,0.095-0.3,0.163-0.419c0.254-0.435,0.698-0.68,1.223-0.68l0.325,0.003
			l0.542,0.018c1.098,0.032,2.229,0.064,3.421,0.698c0.797,0.424,1.325,1.008,1.665,1.838c0.119,0.29,0.225,0.608,0.322,0.97
			l0.113,0.457l0.049,0.164c0.061,0.205,0.122,0.412,0.122,0.628c2.034,12.174,4.061,26.599,3.726,41.404
			c-0.001,0.046-0.007,0.096-0.016,0.146c-0.039,1.57-0.118,3.147-0.235,4.687c-0.128,1.587-0.294,3.201-0.493,4.802
			c-0.119,0.979-0.246,1.958-0.375,2.938c-0.141,1.078-0.286,2.193-0.418,3.293c0,0.023-0.001,0.046-0.003,0.067
			c-0.04,0.328-0.072,0.649-0.101,0.969c0.662,0.242,1.3,0.541,1.904,0.89c2.833,1.636,4.86,4.28,5.709,7.448
			c0.849,3.167,0.416,6.472-1.22,9.305c-1.412,2.447-3.602,4.31-6.222,5.314c0.047,0.271,0.104,0.543,0.168,0.813l0.026,0.103
			c3.641,13.971,3.612,15.108,3.265,29.037l-0.041,1.666c-0.231,9.391-0.47,19.1-2.681,28.655c-0.168,0.679-0.694,1.092-1.377,1.092
			l-0.318-0.003l-0.513-0.018c-1.086-0.03-2.191-0.062-3.362-0.683c-0.783-0.416-1.303-0.988-1.636-1.803
			c-0.119-0.288-0.224-0.599-0.317-0.949l-0.109-0.439l-0.048-0.162c-0.056-0.187-0.115-0.386-0.117-0.599
			c-1.989-11.834-3.973-25.857-3.654-40.254c0.001-0.046,0.007-0.096,0.016-0.146c0.036-1.508,0.112-3.038,0.227-4.551
			c0.127-1.562,0.287-3.131,0.479-4.667c0.115-0.948,0.239-1.896,0.363-2.845c0.14-1.075,0.279-2.145,0.406-3.199
			c0-0.029,0.002-0.058,0.004-0.084c0.044-0.366,0.08-0.729,0.108-1.089c-0.488-0.204-0.964-0.438-1.419-0.701
			c-0.659-0.381-1.292-0.832-1.882-1.342c-0.045-0.031-0.087-0.066-0.125-0.105c-3.1-2.987-8.566-3.3-8.621-3.303l-0.135-0.01
			c-3.492-0.249-5.876-0.407-6.54-0.435c-1.021-0.042-1.703-0.479-2.09-0.978l-47.792-0.535c-0.037,0.019-0.074,0.035-0.113,0.05
			l-1.559,0.743c-0.053,0.024-0.116,0.048-0.181,0.065c-0.127,0.048-0.243,0.064-0.335,0.068c-0.011,0.001-0.109-0.002-0.147-0.006
			l-17.416,1.591l0.177,2.062c0.012,0.14-0.006,0.278-0.05,0.408c-0.081,0.283-0.265,0.513-0.52,0.652l-0.745,0.396
			c-0.004,0.049-0.008,0.112-0.008,0.193l0.008,0.202c0.393,7.851-2.834,15.213-5.608,20.019
			c-0.011,0.025-4.357,8.128-14.682,15.415c-0.104,0.074-0.179,0.135-0.23,0.181l0.042,0.801c0.011,0.206-0.06,0.435-0.179,0.628
			c-0.098,0.176-0.246,0.322-0.429,0.413l-1.87,0.911l7.58,15.762c0.032,0.043,0.062,0.088,0.085,0.132
			c0.043,0.074,0.094,0.195,0.116,0.353c0.015,0.058,0.025,0.113,0.029,0.16l0.163,1.705c0.007,0.042,0.013,0.084,0.016,0.126
			l25.006,40.739c0.484,0.062,1.276,0.322,1.908,1.285c0.621,0.947,3.766,5.436,3.796,5.479c0.008,0.011,0.016,0.022,0.022,0.033
			c0.173,0.252,3.181,4.562,7.236,5.682c0.82,0.261,1.577,0.589,2.289,0.986c0.459,0.255,0.904,0.542,1.33,0.856
			c0.293-0.208,0.581-0.422,0.864-0.641c0.023-0.019,0.051-0.037,0.079-0.056c0.852-0.659,1.709-1.337,2.538-1.993l0.322-0.254
			c0.644-0.508,1.288-1.017,1.937-1.521c1.204-0.941,2.463-1.882,3.739-2.792c0.006-0.005,0.019-0.014,0.019-0.014
			c1.234-0.872,2.51-1.725,3.792-2.534c0.046-0.04,0.094-0.075,0.143-0.104c12.165-7.653,25.215-13.151,36.39-17.52
			c0.189-0.11,0.397-0.163,0.571-0.207l0.167-0.043l0.434-0.132c0.352-0.101,0.673-0.171,0.98-0.216
			c0.2-0.03,0.395-0.046,0.583-0.046c0.634,0,1.205,0.167,1.798,0.524c1.137,0.688,1.73,1.619,2.306,2.521l0.266,0.412l0.176,0.286
			c0.364,0.594,0.284,1.266-0.212,1.752c-7.066,6.807-15.269,11.995-23.201,17.013l-1.429,0.903
			c-11.771,7.45-12.732,8.059-26.599,12.112l-0.103,0.031c-0.256,0.08-0.517,0.171-0.773,0.269c0.483,2.766,0.009,5.601-1.364,8.068
			l-0.1,0.176c-2.18,3.774-6.256,6.123-10.637,6.123c-2.071,0-4.127-0.535-5.944-1.546c-0.611-0.341-1.194-0.735-1.741-1.178
			c-0.257,0.186-0.511,0.375-0.761,0.568c-0.023,0.018-0.049,0.035-0.076,0.052c-0.822,0.637-1.65,1.291-2.455,1.928l-0.17,0.134
			c-0.77,0.609-1.539,1.218-2.313,1.819c-0.018,0.014-0.037,0.027-0.059,0.042c-1.211,0.949-2.491,1.906-3.805,2.844
			c-1.26,0.891-2.572,1.769-3.905,2.612c-0.049,0.042-0.101,0.08-0.153,0.109c-12.496,7.869-25.917,13.54-37.41,18.047
			c-0.193,0.113-0.409,0.168-0.592,0.215l-0.18,0.046l-0.438,0.135c-0.355,0.102-0.683,0.174-0.999,0.222
			c-0.211,0.032-0.411,0.048-0.604,0.048c-0.645,0-1.225-0.169-1.827-0.532c-1.158-0.697-1.767-1.651-2.354-2.574l-0.275-0.428
			l-0.179-0.291c-0.286-0.47-0.303-0.989-0.047-1.432c0.071-0.122,0.156-0.23,0.262-0.334c7.273-7.003,15.716-12.348,23.88-17.516
			l1.457-0.921c12.106-7.671,13.096-8.298,27.351-12.482l0.105-0.031c0.332-0.105,0.671-0.227,0.993-0.356
			c0.029-0.012,0.058-0.023,0.086-0.035c-0.143-1.217-0.1-2.448,0.129-3.672c0.002-0.072,0.011-0.142,0.026-0.202
			c0.003-0.016,0.656-3.124-2.044-8.47c-2.505-4.719-3.187-5.71-3.215-5.75c-0.055-0.079-0.116-0.198-0.146-0.29
			c-0.143-0.396-0.415-1.319-0.234-2.123l-25.052-40.818c-0.023-0.012-1.595-0.858-1.595-0.858c-0.132-0.07-0.276-0.196-0.365-0.317
			l-2.453-3.154c-0.042-0.03-0.081-0.063-0.115-0.099c-0.085-0.086-0.159-0.2-0.214-0.324l-8.087-10.401l-1.625,0.987
			c-0.099,0.061-0.209,0.104-0.323,0.127c-0.089,0.021-0.181,0.034-0.259,0.034c-0.058,0-0.128-0.006-0.185-0.016
			c-0.059-0.011-1.205-0.231-2.212-1.176c-0.692-0.648-5.899-5.991-7.479-7.613c-0.008-0.01-0.907-0.824-2.092-0.977
			c-1.647-0.211-12.74-1.793-18.719-2.676c-0.177-0.007-0.415-0.015-0.63-0.015c-1.249,0-1.435,0.188-2.125,0.892
			c-0.93,0.945-9.537,9.714-10.159,10.349c-0.737,0.905-1.874,1.187-2.247,1.278c-0.135,0.033-0.271,0.05-0.407,0.05
			c-0.296,0-0.589-0.078-0.847-0.226l-1.573-0.905l-1.852,2.641l2.465,1.371c0.176,0.098,0.358,0.289,0.448,0.469l0.497,0.966
			c0.083,0.162,0.119,0.37,0.107,0.572l18.75,10.437l0.121-0.219c0.435-0.752,1.213-1.199,2.05-1.199
			c0.396,0,0.787,0.101,1.133,0.293l25.785,14.352c1.094,0.608,1.885,1.607,2.229,2.813s0.197,2.472-0.411,3.565l-2.378,4.273
			c-0.843,1.457-2.404,2.354-4.083,2.354c-0.793,0-1.577-0.203-2.268-0.588l-25.785-14.352c-0.547-0.305-0.941-0.803-1.112-1.403
			c-0.171-0.602-0.098-1.232,0.204-1.778l0.253-0.453l-18.812-10.47c-0.133,0.071-0.277,0.121-0.408,0.133l-1.218,0.127
			c-0.034,0.003-0.077,0.005-0.112,0.005c-0.17,0-0.388-0.057-0.536-0.139l-3.394-1.892l-1.219,1.738
			c-0.018,0.04-0.037,0.078-0.05,0.101c-0.056,0.093-0.139,0.202-0.264,0.3c-0.042,0.041-0.085,0.078-0.122,0.104l-1.417,0.983
			c-0.033,0.026-0.067,0.052-0.103,0.076l-23.276,41.745c0.219,0.544,0.3,1.355-0.188,2.297c-0.306,0.59-1.318,2.669-2.854,5.855
			l-0.069,0.146c-0.105,0.209-2.455,4.963-1.425,9.123c0.173,0.839,0.258,1.658,0.261,2.475c0.002,0.525-0.03,1.054-0.097,1.581
			c0.325,0.153,0.653,0.3,0.982,0.439c0.024,0.01,0.051,0.023,0.078,0.037c0.99,0.42,1.999,0.835,2.977,1.237l0.265,0.108
			c0.802,0.33,1.603,0.66,2.4,0.996c1.43,0.597,2.869,1.235,4.276,1.897c0.007,0.004,0.013,0.007,0.02,0.01
			c1.361,0.647,2.725,1.34,4.056,2.061c0.058,0.021,0.113,0.046,0.163,0.075c11.808,6.413,26.408,16.258,37.196,25.08
			c0.174,0.103,0.305,0.239,0.427,0.367l0.136,0.142l0.326,0.313c0.256,0.252,0.473,0.497,0.663,0.741
			c0.541,0.697,0.779,1.432,0.751,2.315c-0.042,1.321-0.562,2.295-1.065,3.235l-0.233,0.441l-0.162,0.293
			C170.731,360.265,170.298,360.525,169.806,360.525z"/>
		<path class="st1" d="M160.538,4.819c0.134,0,0.238,0.07,0.326,0.215l0.157,0.26c0.087,0.153,0.174,0.302,0.26,0.45
			c0.511,0.875,0.993,1.702,1.069,2.804c0.046,0.663-0.101,1.174-0.485,1.706c-0.161,0.223-0.346,0.444-0.566,0.677
			c-0.06,0.064-0.121,0.126-0.183,0.188l-0.125,0.128c-0.031,0.032-0.089,0.098-0.149,0.165c-0.16,0.181-0.217,0.245-0.264,0.245
			c-0.001,0-0.002,0-0.003,0c-9.611,8.416-21.957,17.186-34.781,24.706c-0.015,0.008-0.031,0.013-0.048,0.013
			c-1.335,0.781-2.709,1.537-4.084,2.247c-1.398,0.714-2.823,1.402-4.235,2.047c-0.882,0.406-1.766,0.803-2.65,1.201
			c-0.999,0.449-2.032,0.913-3.043,1.382c-0.007,0.007-0.015,0.012-0.024,0.016c-0.572,0.264-1.136,0.55-1.691,0.85
			c0.162,0.708,0.258,1.439,0.282,2.173c0.026,0.77-0.026,1.53-0.15,2.272c-0.983,4.681,1.855,9.821,1.884,9.873
			c0.028,0.052,2.624,4.98,3.201,5.998c0.612,1.079,0.066,1.736,0.044,1.763c-0.006,0.007-0.013,0.013-0.021,0.018
			c-0.007,0.005-0.035,0.023-0.052,0.034l25.652,42.272c0.094,0.027,0.171,0.067,0.232,0.119l1.511,0.972
			c0.01,0.007,0.019,0.014,0.026,0.024l0.023,0.03c0.02,0.007,0.04,0.016,0.052,0.035c0.013,0.019,0.014,0.045,0.024,0.066
			l12.054,15.943c0.028-0.78-0.464-1.323-0.47-1.33c-0.019-0.02-0.029-0.047-0.027-0.075c0.002-0.026,0.014-0.053,0.036-0.07
			l1.604-1.319c0.006-0.005,0.014-0.004,0.021-0.008c0.009-0.004,0.016-0.008,0.025-0.009c0.004-0.001,0.009-0.001,0.013-0.001
			c0.01,0,0.019,0.002,0.029,0.004c0.001,0,0.003,0.001,0.004,0.001c0.003,0,0.005,0,0.008,0c0.002,0,0.005,0,0.007,0.001
			l1.936,0.945c0.443,0.216,0.838,0.506,1.174,0.863c1.327,1.409,5.679,6.031,5.951,6.376c0.3,0.381,1.876,1.853,4.107,2.094
			c1.945,0.132,9.306,1.223,14.176,1.945c1.969,0.292,3.525,0.523,4.137,0.603c0.304,0.04,0.583,0.057,0.838,0.057
			c1.457,0,2.113-0.558,2.12-0.564l10.92-10.519c0.018-0.017,0.04-0.024,0.063-0.024c0.006,0,0.013,0.001,0.019,0.001
			c0.785-0.684,2.108-0.875,2.175-0.884c0.004-0.001,0.009-0.001,0.013-0.001c0.019,0,0.038,0.005,0.054,0.016l1.807,1.167
			c0.023,0.015,0.039,0.04,0.044,0.068c0.005,0.028-0.003,0.056-0.02,0.078c-0.004,0.005-0.962,1.223-0.778,2.38l4.513-6.168
			l-4.089-2.361c-0.021-0.012-0.037-0.031-0.045-0.054l-0.348-1.02c-0.009-0.027-0.006-0.057,0.008-0.082l0.303-0.525
			c-0.002-0.001-0.004-0.001-0.006-0.001c-0.002,0-0.003,0-0.005,0c-0.003,0-0.006,0-0.009-0.002l-19.595-11.313
			c-0.007-0.004-0.007-0.012-0.013-0.017l-0.763,1.321c-0.248,0.43-0.699,0.67-1.163,0.67c-0.227,0-0.457-0.058-0.668-0.179
			l-26.246-15.153c-1.762-1.018-2.368-3.279-1.351-5.041l2.415-4.184c0.683-1.183,1.926-1.845,3.202-1.845
			c0.626,0,1.26,0.159,1.839,0.494l26.246,15.153c0.64,0.369,0.86,1.191,0.49,1.83l-0.629,1.089
			c0.002,0.001,0.004,0.001,0.007,0.001c0.002,0,0.003,0,0.005,0c0.003,0,0.006,0,0.009,0.002l19.595,11.313
			c0.006,0.004,0.007,0.012,0.013,0.016l0.191-0.331c0.016-0.028,0.045-0.047,0.078-0.049l1.356-0.118c0.003,0,0.006,0,0.009,0
			c0.017,0,0.035,0.005,0.05,0.013l4.711,2.72l1.834-2.506c0.008-0.011,0.019-0.02,0.031-0.027l1.528-0.879
			c0.015-0.009,0.031-0.013,0.047-0.013c0.01,0,0.02,0.002,0.03,0.005c0.047-0.017,0.087-0.04,0.141-0.052l24.362-42.274
			c-0.418-0.498-0.039-1.745,0.009-1.892c0.003-0.009,0.006-0.018,0.012-0.026c0.005-0.01,0.654-0.979,3.129-5.969
			c2.762-5.866,1.874-9.183,1.865-9.216c-0.004-0.015,0.003-0.029,0.005-0.044c-0.307-1.364-0.363-2.78-0.147-4.179
			c-0.269-0.121-0.537-0.243-0.819-0.347c-0.353-0.131-0.719-0.25-1.091-0.356l-0.115-0.032
			c-14.228-3.752-15.225-4.346-27.43-11.613l-0.512-0.305c-5.495-3.271-19.239-11.757-28.163-19.887
			c-0.172-0.158-0.195-0.32-0.078-0.525l0.154-0.266c0.093-0.15,0.182-0.3,0.271-0.448c0.527-0.879,1.024-1.709,1.966-2.313
			c0.454-0.291,0.881-0.426,1.374-0.426c0.122,0,0.249,0.008,0.381,0.025c0.276,0.034,0.564,0.09,0.88,0.171
			c0.085,0.022,0.17,0.046,0.255,0.07l0.178,0.05c0.044,0.012,0.13,0.031,0.218,0.051c0.252,0.056,0.333,0.075,0.352,0.118
			c12.359,4.463,28.013,11.956,40.897,19.579c0.014,0.008,0.026,0.021,0.035,0.035c1.357,0.804,2.706,1.653,4.01,2.522
			c1.319,0.887,2.633,1.813,3.907,2.754c0.794,0.583,1.583,1.171,2.371,1.76c0.893,0.666,1.815,1.355,2.73,2.023
			c0.009,0.003,0.018,0.007,0.026,0.013c0.476,0.348,0.965,0.682,1.462,1.003c0.637-0.621,1.349-1.171,2.121-1.629
			c1.798-1.067,3.776-1.575,5.729-1.575c3.849,0,7.603,1.97,9.706,5.514c1.459,2.458,1.925,5.346,1.319,8.136
			c0.196,0.083,0.386,0.174,0.589,0.249c0.344,0.127,0.701,0.243,1.06,0.345l0.112,0.031c13.836,3.632,14.806,4.209,26.669,11.266
			l0.496,0.295c9.354,5.563,21.012,12.788,28.185,19.325c0.167,0.155,0.19,0.314,0.075,0.514l-0.149,0.259
			c-0.091,0.147-0.178,0.293-0.265,0.437c-0.514,0.857-0.999,1.666-1.917,2.256c-0.443,0.285-0.861,0.417-1.343,0.417
			c-0.118,0-0.24-0.008-0.367-0.023c-0.268-0.033-0.548-0.087-0.856-0.166c-0.085-0.021-0.169-0.045-0.253-0.069l-0.168-0.047
			c-0.043-0.011-0.126-0.03-0.212-0.049c-0.24-0.054-0.322-0.072-0.343-0.115c-13.075-4.705-28.983-12.155-40.573-19.005
			c-0.015-0.008-0.026-0.021-0.035-0.035c-1.318-0.781-2.629-1.604-3.896-2.449c-1.289-0.866-2.566-1.766-3.797-2.675
			c-0.775-0.568-1.543-1.141-2.311-1.715c-0.864-0.646-1.758-1.313-2.645-1.96c-0.009-0.003-0.018-0.007-0.025-0.012
			c-0.501-0.366-1.018-0.716-1.544-1.052c-0.537,0.477-1.123,0.907-1.745,1.276c-0.656,0.389-1.341,0.707-2.045,0.953
			c-4.517,1.383-7.605,6.266-7.636,6.315c-0.032,0.048-3.056,4.629-3.661,5.61c-0.485,0.787-1.076,0.889-1.352,0.889
			c-0.09,0-0.146-0.011-0.154-0.013c-0.009-0.002-0.018-0.005-0.026-0.009c-0.008-0.004-0.036-0.019-0.053-0.028l-24.32,42.197
			c0.021,0.093,0.023,0.178,0.008,0.255l-0.119,1.765c-0.001,0.012-0.004,0.023-0.008,0.034l-0.015,0.034
			c0.003,0.021,0.005,0.042-0.006,0.062c-0.003,0.006-0.006,0.012-0.01,0.018c-0.012,0.021-0.031,0.039-0.046,0.058l-1.272,2.849
			l4.145,2.393c0.018,0.01,0.032,0.026,0.041,0.044l0.523,1.122c0.014,0.029,0.012,0.064-0.004,0.092l-0.204,0.353l20.199,11.662
			c0.007,0.004,0.007,0.012,0.013,0.017l0.763-1.321c0.248-0.43,0.699-0.67,1.163-0.67c0.227,0,0.457,0.058,0.668,0.179
			l25.556,14.755c1.762,1.017,2.368,3.279,1.351,5.041l-2.416,4.184c-0.683,1.183-1.926,1.844-3.202,1.844
			c-0.626,0-1.259-0.159-1.839-0.494l-25.556-14.755c-0.64-0.369-0.86-1.19-0.49-1.83l0.629-1.089
			c-0.002-0.001-0.004-0.001-0.007-0.001c-0.002,0-0.003,0-0.005,0c-0.003,0-0.006,0-0.009-0.002l-20.199-11.662l-0.267,0.462
			c-0.017,0.029-0.047,0.048-0.08,0.05l-1.094,0.071c-0.002,0-0.004,0-0.007,0c-0.017,0-0.034-0.005-0.05-0.013l-3.402-1.964
			l-2.876,6.442c0.404-0.265,0.689-0.633,0.863-0.934c0.133-0.23,0.195-0.402,0.195-0.404c0.009-0.027,0.031-0.049,0.059-0.06
			c0.011-0.004,0.023-0.007,0.035-0.007c0.017,0,0.033,0.004,0.048,0.013l1.914,1.069c0.158,0.088,0.275,0.232,0.329,0.406
			c0.096,0.311,0.363,1.178,0.043,2.053c-0.247,0.945-3.327,12.742-3.636,13.929l-0.023,0.089c-0.307,1.178-0.462,1.77,0.862,3.708
			c3.824,4.67,10.869,13.367,11.891,14.664c0.958,1.217,2.404,1.633,2.419,1.637c0.09,0.021,9.377,2.222,10.379,2.508
			c1.026,0.293,1.637,0.958,1.662,0.986c0.014,0.015,0.017,0.035,0.019,0.054c0.001,0.005,0.007,0.008,0.007,0.013l-0.016,2.382
			c-0.001,0.034-0.017,0.064-0.046,0.083c-0.016,0.01-0.035,0.016-0.054,0.016c-0.014,0-0.028-0.003-0.042-0.009
			c-0.024-0.011-0.321-0.142-0.689-0.142c-0.27,0-0.579,0.07-0.847,0.31l15.817,1.896c0.007-0.008,0.008-0.019,0.018-0.024
			c0.016-0.01,0.035-0.015,0.053-0.015c0.033,0,0.066,0.017,0.085,0.047c0,0,0.005,0.01,0.007,0.012l4.188,0.502
			c0.014,0.002,0.027,0.006,0.039,0.013l1.514,0.902c0.025,0.015,0.039,0.039,0.045,0.066c0.038,0.032,0.077,0.055,0.114,0.096
			l48.783,0.543c0.012-0.031,0.019-0.064,0.036-0.094c0.315-0.545,1.479-0.796,1.623-0.825c0.007-0.001,0.014-0.002,0.02-0.002
			c0.003,0,0.005,0,0.008,0c0.004,0,0.184,0.014,0.732,0.014c0.856,0,2.613-0.034,6.006-0.208c6.467-0.464,8.925-2.862,8.949-2.886
			c0.011-0.011,0.027-0.012,0.041-0.017c1.039-0.935,2.246-1.678,3.571-2.174c-0.026-0.294-0.052-0.588-0.099-0.885
			c-0.059-0.373-0.134-0.752-0.224-1.126l-0.028-0.115c-3.695-14.243-3.665-15.403-3.305-29.604l0.043-1.715
			c0.24-9.611,0.489-19.55,2.739-29.282c0.014-0.058,0.033-0.107,0.057-0.149c0.069-0.12,0.183-0.176,0.354-0.176
			c0.003,0,0.006,0,0.009,0l0.306,0.004c0.178,0.008,0.352,0.013,0.525,0.017c1.024,0.029,1.991,0.056,2.979,0.581
			c0.594,0.316,0.955,0.715,1.209,1.334c0.105,0.256,0.197,0.534,0.282,0.851c0.023,0.084,0.043,0.169,0.064,0.254l0.044,0.182
			c0.011,0.044,0.037,0.129,0.063,0.215c0.074,0.247,0.095,0.321,0.069,0.364c2.039,12.182,4.069,26.605,3.736,41.355
			c-0.001,0.017-0.005,0.033-0.013,0.047l0,0c-0.036,1.566-0.115,3.157-0.235,4.731c-0.128,1.588-0.293,3.187-0.488,4.754
			c-0.119,0.979-0.247,1.955-0.374,2.931c-0.144,1.103-0.293,2.244-0.427,3.367c0.002,0.01,0.003,0.02,0.002,0.03
			c-0.07,0.585-0.122,1.175-0.159,1.766c0.853,0.251,1.681,0.603,2.459,1.052c5.379,3.106,7.228,10.008,4.123,15.387
			c-1.429,2.476-3.719,4.295-6.449,5.133c0.023,0.211,0.037,0.422,0.072,0.635c0.057,0.361,0.13,0.729,0.218,1.094l0.028,0.112
			c3.608,13.842,3.58,14.969,3.235,28.769l-0.041,1.665c-0.23,9.34-0.467,18.998-2.655,28.455c-0.054,0.219-0.177,0.317-0.403,0.317
			c-0.003,0-0.006,0-0.009,0l-0.299-0.003c-0.173-0.007-0.343-0.012-0.511-0.017c-0.998-0.029-1.941-0.055-2.905-0.567
			c-0.58-0.307-0.932-0.695-1.18-1.297c-0.104-0.252-0.194-0.523-0.275-0.827c-0.022-0.082-0.042-0.164-0.062-0.247l-0.044-0.177
			c-0.011-0.043-0.036-0.127-0.062-0.212c-0.07-0.232-0.084-0.315-0.067-0.352c-1.994-11.838-3.979-25.855-3.661-40.187
			c0-0.017,0.005-0.032,0.012-0.046c0.035-1.523,0.111-3.069,0.227-4.598c0.124-1.54,0.284-3.094,0.473-4.62
			c0.116-0.952,0.24-1.902,0.364-2.852c0.139-1.07,0.284-2.177,0.414-3.267c-0.002-0.01-0.003-0.02-0.002-0.03
			c0.074-0.616,0.126-1.238,0.161-1.861c-0.679-0.235-1.341-0.535-1.967-0.896c-0.649-0.375-1.245-0.808-1.789-1.284
			c-0.003-0.003-0.008-0.001-0.011-0.004c-3.414-3.29-9.22-3.592-9.278-3.594c-0.058-0.004-5.532-0.398-6.684-0.445
			c-1.223-0.05-1.492-0.85-1.502-0.884c-0.003-0.009-0.004-0.018-0.005-0.027c0-0.009-0.001-0.041-0.002-0.06L264.6,187.58
			c-0.07,0.064-0.143,0.107-0.217,0.132l-1.598,0.76c-0.011,0.005-0.022,0.008-0.034,0.009l-0.037,0.003
			c-0.016,0.013-0.034,0.025-0.057,0.025c0,0-0.001,0-0.001,0c-0.019,0-0.036-0.014-0.055-0.015l-19.697,1.799
			c0.021,0.016,0.038,0.039,0.06,0.054c0.273,0.179,0.549,0.219,0.742,0.219c0.155,0,0.257-0.026,0.259-0.027
			c0.008-0.002,0.017-0.003,0.025-0.003c0.02,0,0.04,0.006,0.057,0.018c0.024,0.017,0.04,0.044,0.042,0.073l0.225,2.614
			c0,0.005-0.007,0.006-0.007,0.011c-0.001,0.035-0.014,0.068-0.046,0.085l-0.971,0.516l-0.001,0l-0.003,0.002
			c-0.02,0.008-0.299,0.118-0.298,0.95c0,0.07,0.005,0.176,0.013,0.319c0.377,7.538-2.772,14.711-5.479,19.401
			c-0.038,0.076-4.368,8.022-14.392,15.098c-0.679,0.48-0.669,0.737-0.669,0.739l0.058,1.112c0.002,0.037-0.021,0.065-0.05,0.084
			c-0.004,0.002-0.001,0.009-0.005,0.011l-2.359,1.15c-0.014,0.007-0.028,0.01-0.043,0.01c-0.014,0-0.028-0.003-0.041-0.009
			c-0.027-0.012-0.047-0.035-0.055-0.063c-0.001-0.005-0.15-0.503-0.679-0.76c-0.024-0.012-0.053-0.014-0.078-0.024l8.572,17.824
			c0.011,0.015,0.033,0.023,0.042,0.04c0.012,0.02,0.012,0.043,0.008,0.064l0.015,0.031c0.005,0.011,0.008,0.022,0.01,0.034
			l0.168,1.759c0.017,0.077,0.018,0.163-0.001,0.257l25.478,41.508c0.017-0.01,0.045-0.026,0.053-0.03
			c0.008-0.004,0.017-0.008,0.026-0.01c0.009-0.002,0.077-0.017,0.184-0.017c0.287,0,0.856,0.107,1.345,0.852
			c0.632,0.965,3.781,5.46,3.813,5.505l0.003,0.005l0,0v0c0.067,0.101,3.278,4.85,7.808,6.099c0.71,0.227,1.402,0.525,2.068,0.895
			c0.632,0.352,1.23,0.765,1.78,1.227c0.517-0.35,1.024-0.714,1.514-1.094c0.008-0.007,0.017-0.011,0.027-0.015
			c0.872-0.673,1.75-1.368,2.599-2.039c0.749-0.592,1.497-1.184,2.25-1.769c1.21-0.946,2.46-1.879,3.714-2.774
			c0.003-0.002,0.005-0.004,0.008-0.006c1.25-0.883,2.54-1.744,3.834-2.559c0.007-0.014,0.016-0.024,0.028-0.032
			c12.134-7.633,25.181-13.127,36.363-17.496c0.015-0.032,0.099-0.063,0.338-0.124c0.086-0.021,0.169-0.043,0.212-0.055l0.174-0.053
			c0.081-0.025,0.162-0.051,0.244-0.074c0.305-0.087,0.583-0.149,0.851-0.189c0.153-0.023,0.298-0.035,0.438-0.035
			c0.452,0,0.853,0.122,1.281,0.381c0.934,0.564,1.441,1.36,1.978,2.202c0.09,0.142,0.182,0.285,0.275,0.427l0.158,0.257
			c0.121,0.197,0.103,0.355-0.06,0.516c-6.989,6.732-15.151,11.895-23.044,16.887l-1.419,0.898
			c-11.662,7.381-12.614,7.984-26.345,11.997l-0.11,0.033c-0.356,0.112-0.71,0.237-1.05,0.374c-0.2,0.08-0.388,0.176-0.581,0.265
			c0.683,2.773,0.297,5.672-1.093,8.17c-0.029,0.052-0.059,0.105-0.089,0.156c-2.078,3.6-5.87,5.628-9.773,5.628
			c-1.852,0-3.729-0.457-5.459-1.42c-0.785-0.437-1.511-0.967-2.165-1.57c-0.488,0.335-0.968,0.682-1.434,1.043
			c-0.008,0.007-0.017,0.011-0.027,0.015c-0.9,0.696-1.807,1.413-2.684,2.106c-0.768,0.607-1.535,1.214-2.308,1.815
			c-0.007,0.006-0.014,0.01-0.022,0.013c-1.223,0.96-2.511,1.922-3.807,2.847c-1.284,0.908-2.611,1.794-3.944,2.635
			c-0.007,0.014-0.017,0.025-0.03,0.033c-12.485,7.861-25.903,13.526-37.403,18.032c-0.012,0.038-0.098,0.064-0.35,0.128
			c-0.087,0.022-0.172,0.044-0.215,0.057l-0.165,0.051c-0.088,0.028-0.176,0.055-0.265,0.08c-0.313,0.09-0.599,0.154-0.875,0.195
			c-0.158,0.024-0.308,0.036-0.453,0.036c-0.462,0-0.873-0.124-1.312-0.389c-0.958-0.578-1.478-1.394-2.029-2.257
			c-0.093-0.146-0.186-0.293-0.283-0.439l-0.162-0.264c-0.093-0.152-0.105-0.282-0.033-0.407c0.023-0.04,0.055-0.08,0.096-0.119
			c7.195-6.928,15.594-12.245,23.716-17.387l1.455-0.921c11.999-7.601,12.979-8.222,27.098-12.367l0.113-0.035
			c0.37-0.117,0.734-0.247,1.08-0.386c0.279-0.112,0.544-0.241,0.81-0.369c-0.254-1.391-0.237-2.808,0.032-4.18
			c-0.003-0.015-0.01-0.028-0.006-0.044c0.008-0.033,0.804-3.373-2.121-9.162c-2.611-4.918-3.286-5.87-3.293-5.878
			c-0.005-0.008-0.01-0.016-0.013-0.025c-0.049-0.139-0.436-1.279-0.121-1.826c0.016-0.027,0.038-0.048,0.057-0.071l-25.519-41.579
			c-0.054-0.011-0.094-0.033-0.141-0.049c-0.012,0.004-0.024,0.006-0.036,0.006c-0.015,0-0.029-0.003-0.043-0.011l-1.552-0.836
			c-0.012-0.007-0.023-0.016-0.031-0.027l-2.593-3.335l-0.002,0c-0.055-0.001-0.098-0.046-0.097-0.101
			c0-0.007,0.006-0.011,0.008-0.017l-9.751-12.541c-0.106,0.795,0.613,1.311,0.65,1.337c0.028,0.019,0.044,0.051,0.044,0.085
			c-0.001,0.034-0.019,0.065-0.048,0.083l-2.032,1.234l-0.001,0l-0.003,0.002c-0.001,0.001-0.002,0.001-0.003,0.001
			c-0.002,0-0.004-0.001-0.005-0.001c-0.001,0-0.002,0-0.002,0c-0.016,0.007-0.032,0.013-0.048,0.013c-0.004,0-0.009,0-0.013-0.001
			c-0.037-0.007-0.921-0.19-1.7-0.92c-0.76-0.712-7.41-7.543-7.485-7.62l0,0l0,0c-0.008-0.007-1.107-1.035-2.643-1.232
			c-1.649-0.211-12.731-1.791-18.699-2.673c-0.287-0.017-0.545-0.026-0.779-0.026c-1.667,0-2.089,0.429-2.837,1.191l-0.065,0.066
			c-0.864,0.879-9.472,9.649-10.095,10.283c-0.586,0.715-1.461,0.931-1.773,1.008c-0.055,0.014-0.112,0.02-0.168,0.02
			c-0.121,0-0.242-0.032-0.349-0.094l-1.901-1.093c-0.025-0.015-0.043-0.04-0.048-0.068c-0.006-0.029,0.001-0.059,0.021-0.081
			c0.001-0.001,0.102-0.125,0.22-0.329c0.183-0.317,0.37-0.771,0.388-1.277l-4.056,5.786l3.434,1.912
			c0.017,0.01,0.031,0.024,0.04,0.042l0.502,0.975c0.015,0.029,0.015,0.065-0.002,0.094l-0.26,0.466l20.379,11.343
			c0.007,0.004,0.008,0.012,0.013,0.016l0.612-1.099l0.01-0.018c0.247-0.428,0.701-0.668,1.165-0.668
			c0.22,0,0.443,0.054,0.647,0.168l25.785,14.351c1.778,0.99,2.419,3.241,1.43,5.019l-2.378,4.273
			c-0.68,1.177-1.929,1.84-3.209,1.84c-0.606,0-1.219-0.149-1.781-0.462l-25.785-14.351c-0.313-0.174-0.539-0.459-0.637-0.803
			c-0.098-0.344-0.056-0.706,0.118-1.019l0.742-1.333c-0.002-0.001-0.004-0.001-0.006-0.001c-0.002,0-0.004,0-0.006,0
			c-0.003,0-0.006,0-0.009-0.002l-20.379-11.343l-0.198,0.356c-0.021,0.025-0.044,0.047-0.077,0.05l-1.231,0.127
			c-0.004,0-0.007,0.001-0.011,0.001c-0.017,0-0.034-0.004-0.048-0.012l-4.181-2.331l-1.794,2.56
			c-0.01,0.024-0.015,0.051-0.028,0.074c-0.002,0.004-0.004,0.007-0.006,0.01c-0.012,0.02-0.032,0.03-0.052,0.038l-0.02,0.029
			c-0.007,0.01-0.015,0.018-0.025,0.025l-1.453,1.009c-0.059,0.052-0.133,0.094-0.223,0.124l-23.718,42.538
			c0.017,0.01,0.044,0.027,0.051,0.031c0.008,0.005,0.015,0.011,0.022,0.018c0.024,0.026,0.584,0.656,0.021,1.742
			c-0.531,1.024-2.909,5.971-2.933,6.021c-0.028,0.054-2.633,5.215-1.497,9.803c0.149,0.729,0.228,1.478,0.231,2.239
			c0.003,0.724-0.065,1.447-0.199,2.153c0.558,0.279,1.124,0.543,1.695,0.784c0.01,0.004,0.018,0.01,0.026,0.016
			c1.01,0.428,2.04,0.852,3.037,1.262c0.887,0.365,1.774,0.729,2.658,1.101c1.42,0.593,2.846,1.226,4.239,1.881
			c0.003,0.001,0.005,0.002,0.007,0.003c1.382,0.658,2.765,1.361,4.108,2.09c0.001,0,0.002,0,0.003,0
			c0.014,0,0.027,0.003,0.039,0.009c11.828,6.425,26.39,16.249,37.144,25.053c0.001,0,0.003,0,0.004,0
			c0.046,0,0.106,0.062,0.269,0.234c0.06,0.064,0.12,0.127,0.152,0.158l0.128,0.122c0.063,0.06,0.126,0.119,0.188,0.181
			c0.226,0.223,0.416,0.436,0.581,0.65c0.399,0.513,0.561,1.012,0.54,1.668c-0.035,1.09-0.48,1.921-0.951,2.802
			c-0.08,0.149-0.16,0.298-0.238,0.45l-0.146,0.264c-0.002,0.003-0.004,0.006-0.005,0.009c-0.084,0.145-0.187,0.215-0.323,0.215
			c-0.047,0-0.097-0.008-0.152-0.024c-9.294-2.798-21.479-9.09-31.057-14.26l-0.507-0.273c-12.149-6.556-13.141-7.091-23.365-17.1
			l-0.083-0.079c-0.27-0.255-0.553-0.501-0.84-0.733c-0.168-0.135-0.344-0.253-0.516-0.378c-2.083,1.953-4.8,3.037-7.659,3.047
			c-0.014,0-0.028,0-0.043,0c-6.191,0-11.24-5.025-11.264-11.221c-0.003-0.897,0.103-1.79,0.309-2.657
			c-0.53-0.262-1.068-0.51-1.612-0.74c-0.009-0.004-0.018-0.01-0.026-0.016c-1.042-0.442-2.105-0.879-3.134-1.302
			c-0.911-0.374-1.821-0.749-2.729-1.131c-1.464-0.611-2.933-1.263-4.369-1.938c-1.425-0.678-2.848-1.4-4.231-2.15
			c-0.001,0-0.002,0-0.003,0c-0.014,0-0.027-0.003-0.038-0.009c-13.155-7.139-27.625-16.724-37.803-25.038c-0.002,0-0.003,0-0.005,0
			c-0.047,0-0.108-0.064-0.275-0.24c-0.063-0.065-0.124-0.13-0.157-0.162c-0.047-0.046-0.095-0.091-0.143-0.136
			c-0.061-0.058-0.122-0.115-0.182-0.174c-0.232-0.229-0.427-0.448-0.598-0.667c-0.411-0.527-0.578-1.039-0.557-1.711
			c0.035-1.118,0.492-1.971,0.976-2.874c0.082-0.152,0.164-0.306,0.244-0.461l0.15-0.27c0.002-0.003,0.003-0.006,0.005-0.009
			c0.086-0.149,0.191-0.22,0.33-0.22c0.047,0,0.099,0.008,0.155,0.025c11.559,3.483,25.899,10.918,31.528,13.953l0.524,0.282
			c12.504,6.741,13.525,7.292,24.052,17.573l0.086,0.081c0.282,0.265,0.574,0.518,0.866,0.753c0.234,0.188,0.476,0.356,0.719,0.525
			c1.089-0.903,2.332-1.582,3.66-2.019c0.011-0.01,0.02-0.023,0.036-0.027c0.033-0.009,3.335-0.95,6.951-6.335
			c3.009-4.686,3.508-5.74,3.513-5.75c0.004-0.009,0.009-0.016,0.016-0.024c0.097-0.111,0.891-0.987,1.521-0.987
			c0.033,0,0.066,0.002,0.098,0.008l23.762-42.613c-0.017-0.053-0.018-0.098-0.027-0.148c-0.02-0.018-0.033-0.042-0.033-0.071
			l-0.031-1.762c0-0.014,0.002-0.028,0.008-0.04l1.209-2.86l-4.753-2.646c-0.018-0.01-0.032-0.025-0.041-0.043l-0.595-1.224
			c-0.014-0.029-0.014-0.064,0.002-0.092l0.186-0.333c-0.002-0.001-0.004-0.001-0.006-0.001c-0.002,0-0.004,0-0.006,0
			c-0.003,0-0.006,0-0.009-0.002l-19.77-11.004c-0.007-0.004-0.008-0.012-0.013-0.017l-0.612,1.099l0,0
			c-0.255,0.441-0.712,0.686-1.179,0.686c-0.219,0-0.44-0.054-0.643-0.167l-26.481-14.738c-1.778-0.99-2.419-3.241-1.43-5.019
			l2.378-4.273c0.68-1.177,1.929-1.84,3.209-1.84c0.606,0,1.219,0.149,1.781,0.461l26.481,14.739
			c0.645,0.359,0.878,1.177,0.519,1.822l-0.742,1.333c0.002,0.001,0.004,0.001,0.006,0.001c0.002,0,0.004,0,0.006,0
			c0.003,0,0.006,0,0.009,0.002l19.77,11.004c0.007,0.004,0.008,0.011,0.013,0.016l0.295-0.53l0.001-0.001
			c0.014-0.024,0.038-0.041,0.065-0.048l1.054-0.226c0.007-0.002,0.014-0.002,0.021-0.002c0.017,0,0.034,0.004,0.049,0.013
			l4.125,2.296l2.972-7.033c-0.649,0.264-1.109,0.877-1.363,1.317l0,0c-0.183,0.317-0.277,0.563-0.277,0.566
			c-0.01,0.025-0.031,0.047-0.057,0.058c-0.012,0.005-0.024,0.007-0.037,0.007c-0.015,0-0.03-0.004-0.044-0.01l-1.93-0.951
			c-0.021-0.01-0.038-0.028-0.048-0.05c-0.027-0.062-0.542-1.294-0.358-2.319c-0.019-0.023-0.031-0.052-0.024-0.083l3.419-14.776
			c0.001-0.007,0.196-1.178-1.085-2.795c-0.383-0.483-1.376-1.696-2.635-3.231c-3.123-3.812-7.843-9.572-8.959-11.177
			c-1.35-1.788-3.423-2.384-3.904-2.445c-0.416-0.053-6.102-1.299-8.528-1.832c-0.479-0.105-0.931-0.295-1.344-0.564l-1.806-1.176
			c-0.006-0.004-0.006-0.011-0.011-0.016c-0.011-0.01-0.019-0.021-0.024-0.035c-0.003-0.009-0.004-0.017-0.005-0.026
			c-0.001-0.007-0.005-0.014-0.004-0.022l0.308-2.053c0.004-0.027,0.019-0.052,0.042-0.067c0.017-0.012,0.037-0.018,0.057-0.018
			c0.007,0,0.014,0.001,0.021,0.002c0.016,0.003,0.143,0.029,0.331,0.029c0.274,0,0.678-0.054,1.061-0.307l-19.878-2.156
			c-0.022,0.002-0.044,0.013-0.067,0.013c-0.001,0-0.002,0-0.003,0c-0.023-0.001-0.042-0.013-0.058-0.027l-0.037-0.004
			c-0.011-0.001-0.023-0.004-0.033-0.01l-1.61-0.797c-0.076-0.027-0.15-0.072-0.221-0.138l-49.446-0.302
			c-0.001,0.02-0.002,0.053-0.003,0.062c-0.001,0.01-0.002,0.019-0.005,0.028c-0.013,0.034-0.294,0.839-1.536,0.868
			c-1.17,0.027-6.733,0.331-6.788,0.334c-0.058,0.002-5.217,0.182-8.756,2.878c-0.577,0.586-1.216,1.12-1.924,1.579
			c-0.617,0.4-1.275,0.734-1.95,1.007c0.085,0.598,0.186,1.194,0.305,1.783c0.002,0.011,0.003,0.021,0.001,0.031
			c0.224,1.117,0.464,2.25,0.697,3.345c0.205,0.966,0.41,1.931,0.607,2.899c0.001,0.008,0.002,0.017,0.002,0.026
			c0.319,1.527,0.61,3.113,0.865,4.691c0.001,0.003,0.001,0.006,0.002,0.008c0.245,1.561,0.452,3.15,0.615,4.725
			c0.009,0.012,0.015,0.026,0.016,0.041c1.518,14.743,0.657,29.331-0.394,41.673c0.031,0.037,0.013,0.12-0.039,0.366
			c-0.019,0.089-0.037,0.177-0.045,0.222l-0.03,0.185c-0.014,0.087-0.027,0.173-0.043,0.26c-0.058,0.322-0.128,0.607-0.212,0.872
			c-0.203,0.638-0.531,1.064-1.096,1.423c-0.941,0.598-1.902,0.696-2.918,0.8c-0.172,0.018-0.345,0.035-0.518,0.055l-0.308,0.027
			c-0.021,0.002-0.04,0.003-0.059,0.003c-0.199,0-0.318-0.093-0.384-0.296c-3.021-9.576-4.068-19.504-5.08-29.106l-0.182-1.72
			c-1.501-14.191-1.623-15.35,0.909-29.879l0.019-0.117c0.059-0.382,0.103-0.767,0.132-1.143c0.017-0.219,0.014-0.434,0.02-0.65
			c-2.718-0.844-5.362-2.748-6.762-4.886c-1.675-2.559-2.251-5.61-1.623-8.593c0.252-1.193,0.684-2.317,1.276-3.343
			c0.884-1.532,2.126-2.844,3.654-3.835c0.616-0.4,1.271-0.738,1.944-1.01c-0.071-0.628-0.159-1.254-0.269-1.874
			c-0.002-0.011-0.002-0.021,0-0.032c-0.193-1.094-0.402-2.204-0.604-3.279c-0.18-0.954-0.359-1.908-0.531-2.864
			c-0.279-1.533-0.529-3.095-0.742-4.645c-0.203-1.533-0.369-3.095-0.492-4.644c-0.008-0.012-0.014-0.026-0.015-0.04
			c-1.162-14.82-1.025-29.963,0.386-42.661c-0.03-0.037-0.01-0.119,0.048-0.36c0.021-0.087,0.042-0.172,0.05-0.216l0.034-0.179
			c0.016-0.085,0.031-0.17,0.049-0.255c0.065-0.312,0.141-0.59,0.232-0.851c0.063-0.18,0.135-0.342,0.221-0.49
			c0.21-0.363,0.496-0.641,0.901-0.884c0.948-0.568,1.903-0.645,2.914-0.726c0.17-0.014,0.341-0.027,0.514-0.044l0.306-0.02
			c0.016-0.001,0.031-0.001,0.046-0.001c0.205,0,0.325,0.093,0.386,0.298c3.472,11.905,4.9,24.887,5.443,31.565l0.047,0.584
			c1.132,13.932,1.224,15.07-1.649,29.256l-0.021,0.114c-0.069,0.374-0.122,0.75-0.159,1.117c-0.023,0.218-0.025,0.432-0.037,0.647
			c1.862,0.465,3.547,1.381,4.938,2.646c0.001-0.002-0.002-0.005-0.001-0.008c0.004-0.008,0.01-0.015,0.017-0.022
			c0.019-0.019,0.044-0.028,0.069-0.028c0.026,0,0.052,0.01,0.071,0.03c0.024,0.025,2.487,2.497,9.049,3.08
			c4.109,0.281,5.852,0.32,6.5,0.32c0.242,0,0.331-0.005,0.334-0.006c0.003,0,0.005,0,0.008,0c0.007,0,0.013,0.001,0.02,0.002
			c0.154,0.034,1.442,0.34,1.666,0.959l49.535,0.304c0.042-0.044,0.085-0.069,0.127-0.103c0.002-0.007-0.004-0.015,0-0.021
			c0.009-0.015,0.021-0.027,0.037-0.037l1.55-0.887c0.012-0.007,0.025-0.011,0.039-0.012l4.26-0.438
			c0.002-0.004,0.006-0.009,0.006-0.01c0.019-0.029,0.051-0.045,0.083-0.045c0.019,0,0.037,0.005,0.054,0.016
			c0.009,0.005,0.009,0.015,0.016,0.023l15.908-1.635c-0.433-0.257-0.988-0.331-1.483-0.331c-0.66,0-1.214,0.132-1.226,0.135
			c-0.008,0.002-0.016,0.003-0.023,0.003c-0.019,0-0.038-0.005-0.054-0.016c-0.023-0.015-0.039-0.039-0.044-0.065l-0.352-1.865
			c-0.005-0.024,0-0.048,0.012-0.068c0.01-0.018,0.027-0.033,0.047-0.042c0.038-0.016,0.433-0.178,0.977-0.282l3.885-1.193
			c0,0,0.968-0.415,1.249-1.107c0.105-0.26,0.1-0.531-0.017-0.804c-0.063-0.148-0.124-0.29-0.184-0.428
			c-0.435-1.003-0.771-1.809-0.716-2.837c-0.138-0.873-0.077-1.933-0.065-2.113c0.006-0.046,0.594-4.016,5.736-12.923
			c0.23-0.399,5.665-9.784,8.053-11.58c1.23-0.925,1.995-1.166,2.467-1.166c0.022,0,0.043,0.001,0.064,0.002
			c0.013-0.03,0.034-0.055,0.068-0.061c0.122-0.023,0.24-0.031,0.363-0.031c0.12,0,0.246,0.007,0.386,0.016
			c0.175,0.01,0.368,0.022,0.598,0.022c0.291,0,0.64-0.018,1.084-0.079c0.324-0.045,0.559-0.18,0.699-0.403
			c0.322-0.503,0.067-1.287,0.065-1.296l-0.974-3.955c-0.19-0.518-0.253-0.94-0.259-0.98c-0.003-0.023,0.002-0.045,0.012-0.063
			c0.011-0.02,0.029-0.035,0.052-0.044l1.781-0.655c0.011-0.004,0.022-0.006,0.034-0.006c0.015,0,0.031,0.004,0.045,0.011
			c0.025,0.012,0.043,0.034,0.051,0.06c0.006,0.022,0.526,1.664,1.559,2.223l-6.766-14.488c-0.002,0-0.004,0-0.005,0
			c-0.004,0-0.007,0-0.011,0c-0.004,0-0.007,0-0.011-0.002c-0.049-0.024-0.07-0.084-0.046-0.133c0-0.001,0.004-0.007,0.005-0.01
			l-1.812-3.881c-0.006-0.013-0.009-0.026-0.009-0.04l-0.035-1.785c0-0.019,0.004-0.036,0.013-0.052
			c0.003-0.006,0.013-0.005,0.017-0.01c0.007-0.054,0.006-0.103,0.023-0.162l-25.7-42.347c-0.04,0.008-0.082,0.012-0.124,0.012
			c-0.635,0-1.454-0.841-1.555-0.949c-0.006-0.007-0.012-0.015-0.016-0.023c-0.005-0.01-0.551-1.061-3.781-5.705
			c-3.869-5.33-7.254-6.173-7.288-6.181c-0.049-0.012-0.077-0.059-0.072-0.108c-1.532-0.474-3.037-1.232-4.288-2.204
			c-0.174,0.129-0.352,0.249-0.522,0.388c-0.292,0.238-0.582,0.494-0.862,0.762l-0.086,0.083
			C79.434,66.883,78.413,67.445,65.914,74.326l-1.513,0.833c-8.458,4.659-17.204,9.477-26.789,12.473
			c-0.059,0.018-0.112,0.027-0.161,0.027c-0.14,0-0.246-0.072-0.333-0.223l-0.153-0.265c-0.084-0.157-0.168-0.309-0.253-0.46
			c-0.496-0.893-0.965-1.737-1.012-2.851c-0.022-0.529,0.074-0.96,0.316-1.379c0.065-0.112,0.139-0.223,0.225-0.335
			c0.169-0.221,0.364-0.441,0.595-0.673c0.061-0.062,0.124-0.122,0.187-0.182l0.136-0.131c0.032-0.032,0.093-0.096,0.154-0.162
			c0.17-0.181,0.229-0.245,0.275-0.245c0.002,0,0.004,0,0.005,0C47.12,72.836,58.597,63.79,71.56,56.608
			c0.015-0.008,0.031-0.012,0.048-0.012c1.384-0.766,2.805-1.504,4.224-2.194c1.435-0.691,2.906-1.359,4.372-1.988
			c0.911-0.394,1.824-0.78,2.737-1.165c1.029-0.434,2.094-0.884,3.136-1.338c0.007-0.006,0.015-0.011,0.024-0.015
			c0.552-0.24,1.099-0.498,1.637-0.77c-0.163-0.712-0.265-1.442-0.289-2.175c-0.071-2.148,0.452-4.223,1.499-6.036
			c0.435-0.754,0.961-1.462,1.572-2.113c2.088-2.221,4.921-3.493,7.978-3.581c0.111-0.003,0.222-0.005,0.333-0.005
			c2.781,0,5.448,1.001,7.55,2.837c0.17-0.132,0.344-0.257,0.51-0.4c0.279-0.24,0.557-0.499,0.826-0.77l0.082-0.083
			c9.995-10.466,10.982-11.041,23.059-18.076l0.508-0.295c5.789-3.373,17.257-9.623,29.008-13.579
			C160.432,4.829,160.487,4.819,160.538,4.819 M160.538,2.819c-0.263,0-0.529,0.044-0.791,0.13
			c-11.933,4.017-23.535,10.339-29.39,13.751l-0.507,0.295c-12.049,7.02-13.309,7.754-23.499,18.424l-0.056,0.057
			c-2.203-1.466-4.797-2.259-7.465-2.26c-0.13,0-0.26,0.002-0.39,0.006c-3.593,0.103-6.924,1.599-9.378,4.21
			c-0.711,0.756-1.332,1.592-1.847,2.482c-1.238,2.145-1.849,4.601-1.766,7.103c0.01,0.314,0.033,0.631,0.067,0.95
			c-0.072,0.032-0.143,0.063-0.214,0.094c-0.039,0.017-0.079,0.036-0.119,0.057c-1.005,0.437-2.029,0.869-3.02,1.287
			c-0.919,0.388-1.837,0.776-2.753,1.172c-1.493,0.64-2.991,1.321-4.446,2.022c-1.404,0.682-2.806,1.409-4.178,2.165
			c-0.066,0.027-0.129,0.058-0.189,0.09c-13.064,7.238-24.568,16.293-34.112,24.22c-0.276,0.177-0.478,0.393-0.63,0.555
			l-0.106,0.112l-0.116,0.111c-0.09,0.086-0.154,0.149-0.218,0.212c-0.288,0.289-0.539,0.573-0.763,0.865
			c-0.141,0.184-0.262,0.364-0.37,0.551c-0.43,0.745-0.62,1.55-0.582,2.463c0.067,1.588,0.702,2.731,1.262,3.739
			c0.079,0.143,0.159,0.286,0.238,0.434c0.01,0.018,0.02,0.037,0.03,0.055l0.153,0.265c0.444,0.766,1.215,1.223,2.065,1.223
			c0.246,0,0.497-0.038,0.744-0.114c9.792-3.061,18.627-7.928,27.171-12.635l1.512-0.833c12.462-6.86,13.765-7.577,24.436-18.157
			l0.061-0.058c0.034-0.033,0.069-0.066,0.104-0.098c0.962,0.588,2.012,1.081,3.107,1.459c0.194,0.131,0.412,0.232,0.648,0.293
			c0.133,0.041,2.919,0.941,6.171,5.42c2.952,4.245,3.585,5.381,3.629,5.461c0.003,0.005,0.006,0.011,0.008,0.016
			c0.081,0.151,0.199,0.315,0.316,0.44c0.391,0.416,1.06,1.025,1.883,1.353l24.91,41.045l0.03,1.569
			c0.005,0.269,0.074,0.574,0.184,0.819l1.676,3.59c0.016,0.07,0.036,0.14,0.059,0.208c0.073,0.214,0.179,0.411,0.312,0.587
			l4.531,9.702l-0.268,0.099c-0.473,0.181-0.853,0.504-1.093,0.92c-0.234,0.407-0.326,0.883-0.261,1.344
			c0.013,0.096,0.093,0.62,0.321,1.276l0.776,3.15c-0.075-0.003-0.145-0.008-0.211-0.012c-0.182-0.011-0.347-0.019-0.504-0.019
			c-0.259,0-0.499,0.021-0.732,0.065c-0.077,0.014-0.153,0.033-0.227,0.055c-0.951,0.122-1.983,0.619-3.205,1.537
			c-2.544,1.913-7.213,9.805-8.584,12.179c-5.341,9.25-5.962,13.478-5.986,13.654c-0.006,0.046-0.011,0.093-0.014,0.139
			c-0.02,0.313-0.073,1.359,0.056,2.351c-0.023,1.292,0.374,2.331,0.769,3.253l-3.472,1.067c-0.651,0.134-1.126,0.323-1.261,0.379
			c-0.439,0.191-0.778,0.494-1.004,0.886c-0.25,0.433-0.337,0.943-0.246,1.435l0.054,0.286l-10.657,1.095
			c-0.074-0.008-0.15-0.012-0.225-0.012c-0.001,0-0.002,0-0.003,0c-0.223,0-0.44,0.035-0.646,0.102l-3.905,0.401
			c-0.277,0.029-0.585,0.127-0.827,0.265l-1.363,0.781l-48.009-0.295c-0.691-0.528-1.543-0.791-2.122-0.918
			c-0.141-0.031-0.304-0.049-0.448-0.049c-0.035,0-0.074,0.001-0.112,0.003c-0.026,0.001-0.096,0.003-0.23,0.003
			c-0.528,0-2.206-0.031-6.364-0.315c-5.479-0.487-7.681-2.418-7.783-2.51c-0.206-0.203-0.451-0.359-0.717-0.463
			c-1.088-0.895-2.312-1.616-3.617-2.132c0-0.001,0-0.002,0.001-0.003l0.02-0.108c2.923-14.431,2.805-15.883,1.676-29.781
			l-0.047-0.585c-0.549-6.756-1.995-19.891-5.516-31.964c-0.32-1.063-1.224-1.738-2.306-1.738c-0.042,0-0.13,0.003-0.172,0.005
			l-0.308,0.02c-0.021,0.001-0.042,0.003-0.063,0.005c-0.133,0.013-0.265,0.023-0.396,0.034l-0.091,0.007
			c-1.136,0.091-2.428,0.195-3.777,1.003c-0.702,0.421-1.228,0.944-1.606,1.6c-0.149,0.258-0.273,0.531-0.378,0.833
			c-0.119,0.341-0.218,0.702-0.301,1.102c-0.02,0.095-0.039,0.198-0.058,0.302l-0.032,0.167l-0.029,0.117
			c-0.046,0.191-0.114,0.475-0.114,0.803c-1.404,12.779-1.536,27.984-0.371,42.845c0.006,0.07,0.015,0.142,0.029,0.213
			c0.124,1.526,0.288,3.065,0.489,4.577c0.218,1.587,0.472,3.179,0.757,4.741c0.172,0.956,0.352,1.915,0.533,2.875l0.012,0.066
			c0.191,1.012,0.387,2.056,0.57,3.087c0.005,0.052,0.013,0.103,0.022,0.151c0.019,0.108,0.038,0.219,0.057,0.332
			c-0.291,0.16-0.576,0.329-0.853,0.509c-1.77,1.148-3.256,2.709-4.298,4.513c-0.703,1.217-1.208,2.54-1.501,3.93
			c-0.739,3.507-0.062,7.095,1.906,10.102c1.39,2.123,3.731,4.003,6.328,5.136c-0.007,0.048-0.014,0.096-0.021,0.144l-0.017,0.107
			c-2.576,14.777-2.419,16.256-0.923,30.404l0.182,1.72c1.023,9.701,2.08,19.73,5.162,29.497c0.336,1.035,1.233,1.694,2.291,1.694
			c0.071,0,0.145-0.003,0.223-0.009l0.316-0.027c0.019-0.002,0.039-0.004,0.058-0.006c0.165-0.019,0.33-0.036,0.493-0.053
			c1.146-0.117,2.447-0.249,3.787-1.101c0.955-0.606,1.587-1.426,1.93-2.506c0.111-0.348,0.2-0.715,0.274-1.122
			c0.017-0.092,0.032-0.188,0.048-0.284l0.032-0.201l0.023-0.104c0.042-0.2,0.103-0.488,0.095-0.816
			c1.049-12.369,1.906-26.995,0.375-41.861c-0.007-0.07-0.019-0.141-0.034-0.212c-0.165-1.558-0.37-3.125-0.611-4.66
			c-0.002-0.014-0.004-0.027-0.007-0.041c-0.257-1.59-0.546-3.158-0.858-4.661c-0.002-0.014-0.004-0.028-0.006-0.042
			c-0.004-0.024-0.008-0.047-0.013-0.071c-0.198-0.972-0.404-1.941-0.61-2.911c-0.226-1.065-0.456-2.151-0.672-3.223
			c-0.005-0.036-0.01-0.071-0.016-0.105c-0.018-0.087-0.035-0.174-0.051-0.261c0.282-0.154,0.555-0.317,0.818-0.488
			c0.758-0.492,1.481-1.077,2.151-1.743c2.99-2.205,7.463-2.391,7.509-2.393l0.162-0.008c3.535-0.191,5.943-0.309,6.606-0.325
			c1.112-0.026,1.947-0.427,2.522-0.95l47.887,0.292l1.476,0.731l0,0c0.087,0.043,0.181,0.08,0.277,0.112
			c0.204,0.078,0.419,0.124,0.642,0.135c0.033,0.002,0.068,0.002,0.1,0.002c0.022,0,0.045,0,0.069-0.001l16.155,1.752l-0.076,0.509
			c-0.035,0.235-0.027,0.481,0.022,0.716c0.022,0.114,0.054,0.227,0.092,0.329c0.079,0.216,0.197,0.42,0.351,0.605
			c0.13,0.16,0.283,0.301,0.454,0.414l1.817,1.184c0.617,0.401,1.292,0.684,2.005,0.841c8.15,1.792,8.553,1.843,8.705,1.863
			c0.295,0.053,1.663,0.499,2.54,1.64c1.207,1.722,5.909,7.46,9.029,11.267c1.199,1.462,2.234,2.725,2.613,3.205
			c0.531,0.67,0.637,1.135,0.659,1.3l-3.374,14.579c-0.046,0.2-0.063,0.403-0.051,0.602c-0.117,1.423,0.426,2.769,0.545,3.046
			c0.189,0.448,0.546,0.827,0.999,1.05l1.03,0.508l-0.386,0.914l-2.178-1.212c-0.315-0.174-0.667-0.265-1.021-0.265
			c-0.144,0-0.307,0.018-0.448,0.048l-1.046,0.224c-0.083,0.019-0.164,0.042-0.243,0.069l-16.81-9.356
			c0.579-1.524-0.032-3.287-1.497-4.104l-26.482-14.739c-0.839-0.467-1.791-0.714-2.753-0.714c-2.037,0-3.93,1.088-4.941,2.84
			l-2.394,4.3c-1.526,2.742-0.537,6.213,2.204,7.739l26.481,14.738c0.494,0.275,1.052,0.419,1.616,0.419
			c0.952,0,1.853-0.41,2.484-1.101l17.061,9.496c0.02,0.05,0.042,0.1,0.066,0.149l0.592,1.218c0.19,0.39,0.491,0.708,0.871,0.918
			l3.181,1.771l-0.51,1.207c-0.112,0.264-0.173,0.59-0.165,0.877l0.027,1.518l-23.022,41.286c-0.794,0.353-1.429,0.971-1.799,1.393
			c-0.017,0.019-0.034,0.04-0.05,0.06c-0.083,0.103-0.162,0.223-0.228,0.346l-0.001,0c-0.01,0.019-0.021,0.04-0.03,0.059
			c-0.022,0.045-0.572,1.144-3.399,5.546c-3.022,4.499-5.732,5.462-5.837,5.498c-0.105,0.031-0.205,0.07-0.302,0.116
			c-0.986,0.343-1.917,0.793-2.784,1.347c-0.086-0.077-0.171-0.155-0.255-0.234l-0.08-0.076
			c-10.707-10.458-12.01-11.161-24.479-17.883l-0.524-0.283c-5.681-3.063-20.164-10.571-31.899-14.107
			c-0.256-0.075-0.496-0.11-0.732-0.11c-0.85,0-1.621,0.456-2.062,1.219l-0.172,0.308c-0.01,0.018-0.02,0.036-0.029,0.054
			c-0.075,0.145-0.151,0.287-0.227,0.429c-0.548,1.023-1.165,2.175-1.215,3.762c-0.035,1.133,0.286,2.115,0.979,3.004
			c0.224,0.288,0.476,0.569,0.768,0.859c0.076,0.074,0.145,0.14,0.215,0.206l0.127,0.12l0.064,0.068l0.04,0.042
			c0.15,0.158,0.353,0.372,0.633,0.546c10.255,8.351,24.769,17.956,37.939,25.103c0.062,0.034,0.128,0.065,0.195,0.092
			c1.362,0.734,2.765,1.446,4.172,2.115c1.474,0.693,2.971,1.357,4.457,1.977c0.907,0.382,1.823,0.758,2.739,1.135
			c0.999,0.41,2.02,0.83,3.022,1.255c0.034,0.017,0.068,0.033,0.102,0.048c0.06,0.025,0.119,0.051,0.179,0.077
			c-0.055,0.497-0.081,0.995-0.08,1.492c0.028,7.287,5.978,13.214,13.264,13.214c0.002,0,0.048,0,0.05,0
			c2.768-0.01,5.428-0.876,7.652-2.466l0.06,0.057c10.404,10.186,11.671,10.87,23.793,17.41l0.508,0.274
			c9.661,5.215,21.965,11.566,31.429,14.415c0.251,0.074,0.492,0.109,0.728,0.109c0.847,0,1.615-0.454,2.055-1.215l0.168-0.302
			c0.01-0.018,0.02-0.036,0.029-0.055c0.073-0.143,0.148-0.283,0.223-0.422c0.533-0.997,1.137-2.125,1.187-3.682
			c0.035-1.117-0.279-2.084-0.96-2.96c-0.218-0.282-0.465-0.559-0.754-0.844c-0.06-0.06-0.13-0.127-0.2-0.193l-0.142-0.135
			l-0.077-0.082c-0.142-0.149-0.341-0.359-0.615-0.535c-10.822-8.841-25.442-18.694-37.303-25.138
			c-0.062-0.034-0.128-0.064-0.195-0.092c-1.322-0.714-2.684-1.405-4.05-2.055l0,0c-0.009-0.004-0.017-0.008-0.026-0.012
			c-1.417-0.666-2.867-1.31-4.31-1.912c-0.836-0.352-1.68-0.699-2.524-1.047l-0.143-0.059c-0.96-0.395-1.952-0.803-2.925-1.215
			c-0.031-0.016-0.062-0.03-0.092-0.044c-0.112-0.047-0.224-0.096-0.336-0.145c0.023-0.324,0.033-0.648,0.032-0.971
			c-0.003-0.881-0.095-1.767-0.272-2.632c-0.006-0.027-0.012-0.053-0.018-0.08c-0.945-3.813,1.317-8.372,1.34-8.418l0.071-0.146
			c1.513-3.143,2.553-5.278,2.854-5.858c0.489-0.944,0.559-1.868,0.38-2.64l22.961-41.181l1.324-0.919
			c0.079-0.055,0.158-0.12,0.234-0.191c0.17-0.144,0.316-0.315,0.433-0.508c0.008-0.013,0.021-0.036,0.029-0.049
			c0.018-0.031,0.034-0.06,0.049-0.089l0.642-0.917l2.605,1.452c0.298,0.166,0.681,0.266,1.022,0.266
			c0.081,0,0.163-0.005,0.243-0.014l1.204-0.124c0.069-0.007,0.138-0.017,0.206-0.031l17.57,9.779
			c-0.256,0.669-0.289,1.399-0.09,2.099c0.245,0.861,0.81,1.572,1.59,2.006l25.784,14.351c0.839,0.467,1.791,0.714,2.754,0.714
			c2.036,0,3.93-1.088,4.941-2.84l2.394-4.3c1.526-2.741,0.537-6.213-2.204-7.739l-25.785-14.351
			c-0.494-0.275-1.054-0.42-1.619-0.42c-0.955,0-1.856,0.409-2.483,1.1l-17.497-9.739c-0.039-0.142-0.093-0.281-0.162-0.415
			l-0.499-0.971c-0.188-0.369-0.485-0.676-0.855-0.879l-1.487-0.828l0.689-0.983l0.779,0.448c0.41,0.235,0.875,0.36,1.346,0.36
			c0.217,0,0.434-0.026,0.645-0.078c0.442-0.108,1.773-0.433,2.777-1.603c0.949-0.967,9.196-9.368,10.04-10.227l0.068-0.069
			c0.579-0.59,0.579-0.59,1.407-0.59c0.175,0,0.366,0.006,0.576,0.017c5.98,0.883,16.985,2.452,18.647,2.665
			c0.675,0.086,1.296,0.51,1.517,0.696c0.645,0.662,6.73,6.911,7.5,7.632c1.161,1.089,2.446,1.378,2.692,1.425
			c0.123,0.024,0.262,0.037,0.388,0.037c0.202,0,0.402-0.029,0.596-0.087c0.186-0.052,0.365-0.131,0.53-0.235l0.838-0.509
			l7.457,9.591c0.121,0.235,0.285,0.446,0.482,0.62l2.402,3.089c0.17,0.218,0.414,0.425,0.657,0.557l1.363,0.735l24.72,40.278
			c-0.079,0.867,0.151,1.727,0.34,2.263c0.062,0.176,0.162,0.368,0.271,0.52c0.017,0.025,0.709,1.049,3.154,5.654
			c2.432,4.817,1.961,7.648,1.937,7.781c-0.024,0.107-0.04,0.214-0.047,0.322c-0.184,1.027-0.247,2.059-0.189,3.086
			c-0.109,0.038-0.219,0.074-0.33,0.109l-0.101,0.031c-14.364,4.216-15.615,5.008-27.58,12.588l-1.455,0.921
			c-8.207,5.195-16.693,10.567-24.034,17.636c-0.177,0.171-0.324,0.358-0.44,0.559c-0.439,0.76-0.416,1.676,0.059,2.452l0.164,0.267
			c0.011,0.018,0.022,0.036,0.034,0.053c0.091,0.138,0.178,0.275,0.265,0.412c0.621,0.974,1.323,2.076,2.683,2.897
			c0.756,0.455,1.522,0.676,2.345,0.676c0.243,0,0.497-0.02,0.754-0.059c0.361-0.055,0.73-0.137,1.126-0.25
			c0.101-0.029,0.206-0.061,0.312-0.094l0.157-0.049l0.112-0.028c0.182-0.046,0.466-0.119,0.759-0.271
			c11.525-4.52,24.981-10.208,37.572-18.136c0.059-0.037,0.117-0.079,0.173-0.123c1.319-0.836,2.627-1.711,3.89-2.604
			c1.323-0.944,2.607-1.903,3.824-2.857c0.039-0.027,0.077-0.056,0.112-0.084c0.744-0.578,1.516-1.188,2.288-1.798
			c0.855-0.676,1.722-1.362,2.584-2.03c0.044-0.029,0.086-0.06,0.125-0.091c0.041-0.032,0.082-0.063,0.124-0.095
			c0.407,0.291,0.828,0.559,1.263,0.8c1.966,1.094,4.19,1.672,6.432,1.672c4.736,0,9.145-2.54,11.505-6.628l0.102-0.179
			c1.348-2.423,1.896-5.167,1.599-7.884l0.073-0.022c13.98-4.086,15.196-4.855,26.832-12.22l1.419-0.898
			c7.978-5.046,16.227-10.263,23.362-17.137c0.848-0.832,0.99-2.006,0.376-3.004l-0.158-0.257c-0.011-0.018-0.022-0.036-0.034-0.053
			c-0.088-0.133-0.173-0.267-0.258-0.4c-0.608-0.954-1.297-2.033-2.631-2.84c-0.744-0.45-1.502-0.669-2.315-0.669
			c-0.238,0-0.485,0.019-0.736,0.057c-0.351,0.052-0.713,0.132-1.104,0.244c-0.082,0.023-0.172,0.051-0.262,0.079l-0.19,0.058
			l-0.114,0.028c-0.187,0.048-0.466,0.118-0.753,0.269c-11.206,4.382-24.287,9.899-36.526,17.598
			c-0.06,0.038-0.118,0.079-0.175,0.124c-1.272,0.805-2.542,1.654-3.776,2.526l0,0c-0.008,0.006-0.016,0.011-0.023,0.017
			c-1.277,0.911-2.547,1.86-3.776,2.82c-0.754,0.586-1.507,1.181-2.259,1.776c-0.818,0.647-1.663,1.315-2.503,1.965
			c-0.043,0.029-0.084,0.059-0.123,0.089c-0.082,0.063-0.165,0.127-0.251,0.191c-0.271-0.178-0.548-0.346-0.831-0.503
			c-0.771-0.429-1.589-0.783-2.431-1.053c-0.026-0.008-0.052-0.016-0.078-0.023c-3.787-1.044-6.65-5.241-6.678-5.284
			c-0.007-0.011-0.021-0.032-0.029-0.042c-0.383-0.546-3.216-4.596-3.777-5.452c-0.543-0.827-1.288-1.393-2.12-1.63l-24.662-40.179
			l-0.153-1.604c-0.009-0.093-0.026-0.19-0.049-0.287c-0.043-0.226-0.123-0.445-0.241-0.649c-0.022-0.039-0.046-0.077-0.072-0.115
			l-7.111-14.787l0.967-0.471c0.21-0.102,0.397-0.239,0.556-0.403c0.42-0.415,0.651-0.992,0.621-1.591l-0.014-0.27
			c9.712-6.922,14.206-14.6,14.751-15.577l0.001,0c2.821-4.885,6.096-12.361,5.753-20.319l0.193-0.102
			c0.545-0.296,0.916-0.787,1.051-1.364c0.055-0.213,0.075-0.437,0.057-0.661l-0.093-1.08l16.338-1.492
			c0.034,0.002,0.068,0.003,0.102,0.003c0.193-0.004,0.417-0.03,0.653-0.107c0.121-0.033,0.233-0.076,0.342-0.128l1.448-0.689
			l47.139,0.527c0.579,0.535,1.419,0.938,2.488,0.982c0.871,0.036,4.569,0.294,6.616,0.441c0.018,0.001,0.042,0.003,0.06,0.004
			c0.042,0.002,5.145,0.304,7.981,3.037c0.055,0.053,0.113,0.103,0.173,0.149c0.631,0.543,1.308,1.024,2.014,1.431
			c0.279,0.161,0.566,0.313,0.858,0.454c-0.012,0.113-0.024,0.224-0.038,0.333c-0.005,0.045-0.009,0.091-0.011,0.138
			c-0.121,1.007-0.254,2.027-0.383,3.018l-0.016,0.122c-0.128,0.983-0.251,1.925-0.366,2.868c-0.193,1.55-0.355,3.133-0.482,4.701
			c-0.115,1.522-0.192,3.05-0.229,4.555c-0.011,0.081-0.016,0.161-0.017,0.239c-0.32,14.426,1.664,28.485,3.659,40.351
			c0.017,0.32,0.099,0.59,0.155,0.776l0.042,0.141l0.037,0.151c0.021,0.087,0.045,0.186,0.072,0.285
			c0.102,0.384,0.219,0.736,0.357,1.071c0.423,1.028,1.107,1.781,2.093,2.304c1.375,0.73,2.654,0.766,3.783,0.799
			c0.16,0.005,0.32,0.009,0.483,0.016c0.021,0.001,0.042,0.001,0.064,0.002l0.299,0.003c1.182,0,2.103-0.723,2.377-1.842
			c2.24-9.68,2.48-19.441,2.712-28.881l0.041-1.665c0.344-13.768,0.38-15.207-3.299-29.323l-0.013-0.054
			c2.485-1.14,4.557-3.019,5.941-5.416c1.769-3.064,2.238-6.638,1.32-10.064c-0.918-3.426-3.111-6.286-6.175-8.055
			c-0.431-0.249-0.876-0.473-1.335-0.672c0.007-0.059,0.013-0.117,0.02-0.175c0.005-0.045,0.009-0.091,0.011-0.138
			c0.13-1.082,0.273-2.177,0.412-3.238c0.128-0.982,0.257-1.964,0.376-2.949c0.199-1.591,0.366-3.22,0.496-4.834
			c0.119-1.56,0.198-3.129,0.237-4.675c0.009-0.064,0.015-0.127,0.017-0.189c0.337-14.899-1.69-29.36-3.729-41.565
			c-0.016-0.328-0.1-0.609-0.159-0.806l-0.045-0.153l-0.035-0.144c-0.031-0.129-0.052-0.213-0.074-0.296
			c-0.107-0.399-0.225-0.757-0.364-1.093c-0.426-1.042-1.12-1.807-2.119-2.34c-1.402-0.746-2.708-0.783-3.861-0.815
			c-0.166-0.004-0.33-0.009-0.497-0.016c-0.021-0.001-0.042-0.002-0.063-0.002l-0.306-0.004c-0.913,0-1.693,0.439-2.118,1.175
			c-0.119,0.206-0.209,0.433-0.268,0.676c-2.301,9.955-2.552,19.996-2.795,29.705l-0.043,1.714
			c-0.36,14.161-0.397,15.641,3.368,30.157l0.021,0.086c0.026,0.109,0.051,0.22,0.075,0.331c-0.917,0.481-1.776,1.07-2.568,1.761
			c-0.083,0.058-0.161,0.121-0.232,0.188c-0.045,0.04-2.217,1.945-7.713,2.339c-3.274,0.168-4.999,0.203-5.863,0.203
			c-0.375,0-0.543-0.007-0.592-0.009c-0.052-0.005-0.076-0.005-0.118-0.005c-0.009,0-0.019,0-0.03,0
			c-0.134,0-0.289,0.016-0.42,0.043c-0.551,0.111-1.408,0.355-2.112,0.869l-47.256-0.526l-1.325-0.789
			c-0.239-0.143-0.545-0.247-0.821-0.28l-3.823-0.458c-0.22-0.077-0.455-0.117-0.698-0.117c-0.067,0-0.135,0.003-0.201,0.01
			l-11.999-1.438l0.007-1.054c0.001-0.204-0.029-0.407-0.089-0.6c-0.107-0.375-0.295-0.645-0.451-0.818
			c-0.172-0.19-1.087-1.139-2.599-1.571c-0.932-0.267-8.158-1.984-10.397-2.515c-0.272-0.093-0.957-0.408-1.379-0.944
			c-1.034-1.314-8.031-9.949-11.86-14.627c-0.761-1.117-0.748-1.166-0.53-2.003l0.022-0.083c0.304-1.168,3.254-12.468,3.616-13.855
			c0.498-1.468,0.09-2.788-0.046-3.228c-0.208-0.67-0.657-1.224-1.266-1.563l-0.78-0.436l0.49-1.097l1.48,0.854
			c0.317,0.184,0.681,0.281,1.05,0.281c0.042,0,0.09-0.002,0.131-0.004l1.098-0.071c0.149-0.009,0.294-0.034,0.435-0.073
			l17.339,10.011c-0.183,0.593-0.196,1.227-0.031,1.842c0.231,0.862,0.783,1.582,1.556,2.028l25.556,14.755
			c0.863,0.498,1.845,0.762,2.839,0.762c2.031,0,3.921-1.09,4.934-2.844l2.416-4.184c0.759-1.315,0.96-2.848,0.567-4.317
			c-0.394-1.469-1.335-2.697-2.65-3.456l-25.556-14.755c-0.507-0.292-1.083-0.447-1.667-0.447c-1.028,0-1.996,0.477-2.623,1.27
			l-17.415-10.055c-0.022-0.062-0.047-0.124-0.074-0.184l-0.527-1.13c-0.183-0.393-0.479-0.715-0.854-0.931l-2.583-1.491
			l0.456-1.021c0.011-0.018,0.022-0.036,0.033-0.056c0.009-0.017,0.024-0.042,0.033-0.058c0.086-0.161,0.172-0.368,0.218-0.615
			c0.026-0.108,0.042-0.216,0.05-0.325l0.109-1.622l23.54-40.844c0.825-0.258,1.552-0.843,2.075-1.69
			c0.588-0.954,3.597-5.512,3.627-5.557c0.01-0.015,0.02-0.031,0.03-0.047c0.022-0.034,2.769-4.311,6.524-5.46
			c0.025-0.008,0.051-0.016,0.076-0.025c0.835-0.293,1.644-0.67,2.404-1.121c0.277-0.164,0.55-0.34,0.816-0.525
			c0.092,0.066,0.183,0.131,0.272,0.196c0.014,0.01,0.028,0.02,0.042,0.03c0.024,0.016,0.048,0.032,0.073,0.048
			c0.852,0.622,1.709,1.262,2.539,1.882c0.781,0.583,1.55,1.158,2.326,1.726c1.249,0.923,2.551,1.84,3.863,2.722
			c1.258,0.838,2.551,1.652,3.853,2.426c0.064,0.048,0.129,0.091,0.195,0.129c11.604,6.859,27.571,14.345,40.716,19.09
			c0.292,0.144,0.574,0.207,0.761,0.249l0.153,0.035l0.128,0.036c0.092,0.026,0.194,0.055,0.297,0.081
			c0.39,0.1,0.753,0.169,1.106,0.212c0.207,0.025,0.412,0.038,0.609,0.038c0.862,0,1.655-0.24,2.424-0.734
			c1.311-0.843,1.969-1.941,2.55-2.909c0.084-0.141,0.165-0.276,0.25-0.413c0.011-0.018,0.022-0.036,0.033-0.054l0.15-0.259
			c0.585-1.017,0.409-2.185-0.446-2.979c-7.32-6.672-19.088-13.967-28.524-19.578l-0.496-0.295
			c-11.838-7.042-13.075-7.778-27.184-11.482l-0.054-0.015c0.223-2.724-0.401-5.452-1.814-7.832
			c-2.376-4.005-6.755-6.493-11.426-6.493c-2.371,0-4.705,0.641-6.75,1.855c-0.427,0.254-0.841,0.532-1.24,0.834
			c-0.048-0.035-0.096-0.069-0.143-0.104c-0.015-0.011-0.031-0.022-0.047-0.033c-0.023-0.016-0.046-0.031-0.07-0.046
			c-0.838-0.612-1.68-1.241-2.499-1.852l-0.124-0.092c-0.792-0.592-1.585-1.184-2.384-1.77c-1.292-0.954-2.63-1.897-3.974-2.8
			c-1.294-0.863-2.626-1.702-3.966-2.499c-0.063-0.048-0.128-0.091-0.194-0.129c-12.891-7.627-28.598-15.153-41.032-19.661
			c-0.298-0.148-0.587-0.213-0.781-0.256l-0.149-0.034l-0.146-0.041c-0.097-0.027-0.197-0.055-0.297-0.081
			c-0.396-0.102-0.767-0.174-1.131-0.219c-0.213-0.026-0.424-0.04-0.626-0.04c-0.872,0-1.675,0.243-2.453,0.742
			c-1.337,0.857-2.009,1.979-2.602,2.969c-0.084,0.141-0.168,0.281-0.256,0.423c-0.01,0.017-0.02,0.034-0.03,0.051l-0.154,0.266
			c-0.59,1.026-0.411,2.2,0.452,2.997c9.068,8.261,22.949,16.833,28.496,20.135l0.511,0.305
			c12.171,7.247,13.444,8.005,27.943,11.829l0.093,0.026c0.105,0.03,0.211,0.062,0.317,0.095c-0.03,1.035,0.063,2.072,0.278,3.1
			c0.01,0.101,0.027,0.201,0.051,0.298c0.018,0.085,0.599,2.908-1.737,7.868c-2.291,4.619-2.972,5.693-3,5.737
			c-0.029,0.045-0.059,0.096-0.085,0.144l0.001,0c-0.059,0.11-0.109,0.224-0.146,0.336c-0.183,0.565-0.383,1.424-0.279,2.278
			l-23.601,40.954l-1.337,0.769c-0.238,0.137-0.477,0.349-0.641,0.57l-0.781,1.067l-3.156-1.822
			c-0.319-0.184-0.682-0.281-1.05-0.281c-0.063,0-0.135,0.003-0.198,0.009l-1.34,0.117c-0.052,0.005-0.103,0.011-0.154,0.02
			l-16.906-9.761c0.183-0.593,0.196-1.227,0.031-1.842c-0.231-0.862-0.783-1.583-1.556-2.029l-26.246-15.153
			c-0.863-0.498-1.845-0.762-2.839-0.762c-2.031,0-3.921,1.09-4.935,2.845l-2.415,4.184c-0.759,1.315-0.961,2.848-0.567,4.318
			c0.394,1.469,1.335,2.697,2.65,3.456l26.246,15.153c0.507,0.293,1.083,0.447,1.668,0.447c1.028,0,1.995-0.477,2.623-1.27
			l16.659,9.618c0.016,0.077,0.037,0.153,0.062,0.229l0.353,1.037c0.176,0.495,0.506,0.891,0.937,1.14l2.16,1.247l-0.585,0.8
			l-0.965-0.623c-0.339-0.219-0.734-0.336-1.139-0.336c-0.09,0-0.193,0.007-0.282,0.019c-0.292,0.038-1.733,0.265-2.896,1.101
			c-0.174,0.091-0.336,0.208-0.481,0.348l-10.776,10.38c-0.112,0.049-0.391,0.143-0.876,0.143c-0.181,0-0.375-0.013-0.578-0.04
			c-0.584-0.077-2.087-0.299-3.99-0.582l-0.114-0.017c-6.433-0.954-12.366-1.821-14.288-1.959c-1.433-0.167-2.519-1.112-2.733-1.358
			c-0.071-0.09-0.333-0.424-6.051-6.492c-0.503-0.534-1.093-0.968-1.754-1.29l-1.934-0.945c-0.217-0.106-0.455-0.172-0.697-0.195
			c-0.078-0.009-0.155-0.014-0.228-0.014c-0.12,0-0.243,0.01-0.371,0.033c-0.107,0.019-0.219,0.05-0.328,0.089
			c-0.228,0.079-0.446,0.199-0.631,0.351l-0.398,0.327l-9.8-12.962c-0.025-0.045-0.052-0.09-0.081-0.133
			c-0.096-0.145-0.234-0.316-0.428-0.473c-0.072-0.065-0.148-0.123-0.227-0.177l-1.421-0.915l-24.843-40.94
			c0.153-0.762,0.069-1.685-0.479-2.652c-0.328-0.578-1.499-2.772-3.132-5.869l-0.043-0.082c-0.042-0.076-2.511-4.625-1.693-8.523
			c0.006-0.027,0.011-0.054,0.015-0.082c0.147-0.879,0.206-1.777,0.177-2.667c-0.011-0.33-0.034-0.661-0.07-0.991
			c0.107-0.051,0.214-0.102,0.319-0.15c0.016-0.007,0.032-0.015,0.048-0.023c0.025-0.012,0.05-0.025,0.075-0.039
			c0.973-0.45,1.964-0.896,2.925-1.327l0.175-0.079c0.831-0.374,1.662-0.748,2.49-1.129c1.436-0.656,2.888-1.357,4.309-2.083
			c1.365-0.705,2.72-1.449,4.037-2.216c0.057-0.025,0.112-0.052,0.163-0.081c12.889-7.557,25.285-16.355,34.963-24.807
			c0.271-0.186,0.466-0.405,0.603-0.56l0.034-0.038l0.073-0.082l0.099-0.1c0.066-0.066,0.142-0.143,0.215-0.222
			c0.275-0.292,0.515-0.579,0.727-0.873c0.655-0.907,0.936-1.893,0.859-3.015c-0.108-1.567-0.76-2.686-1.336-3.673
			c-0.083-0.141-0.165-0.282-0.247-0.427c-0.009-0.017-0.019-0.033-0.029-0.05L162.576,4C162.118,3.248,161.377,2.819,160.538,2.819
			L160.538,2.819z"/>
	</g>
	<path class="st2" d="M129.711,161.512l6.996-12.117c2.175-3.768,7.01-5.063,10.778-2.888l15.897,9.178
		c4.473,2.582,6.011,8.322,3.429,12.795l-5.519,9.559c-2.582,4.473-8.323,6.011-12.796,3.429l-15.897-9.178
		C128.831,170.114,127.536,165.279,129.711,161.512z"/>
	<path class="st3" d="M229.697,211.047c-1.725,3.017-5.929,10.371-11.662,11.346c-5.733,0.976-27.13-5.836-31.335-7.24
		c-4.206-1.404-15.214-5.362-26.717-10.354s-20.867-9.928-24.336-13.496c-3.469-3.568-5.448-15.29-5.556-17.437
		c-0.108-2.147,1.114-1.365,1.114-1.365l8.232,4.873c1.636,0.935,4.673,2.338,4.988,4.853c0.315,2.515,1.178,6.845,2.383,9.702
		c1.205,2.857,7.448,6.044,7.448,6.044s7.848,4.285,20.367,9.106c12.518,4.822,33.005,11.441,37.722,10.77
		c4.717-0.671,10.108-10.999,10.108-10.999l0.321-0.572c0,0,6.218-9.876,4.421-14.296c-1.797-4.419-17.846-18.8-28.325-27.195
		c-10.479-8.395-18.14-13.021-18.14-13.021s-5.903-3.792-8.982-3.391c-3.078,0.4-7.259,1.839-9.593,2.836
		c-2.334,0.997-5.079-0.922-6.712-1.865l-8.364-4.661c0,0-1.292-0.662,0.619-1.653c1.912-0.99,13.049-5.196,17.884-3.996
		c4.835,1.2,13.824,6.809,23.938,14.239c10.114,7.431,19.086,14.955,22.419,17.885c3.333,2.93,20.008,18,22.053,23.452
		c2.045,5.452-2.198,12.801-3.939,15.815L229.697,211.047z"/>
</g>
<g id="Layer_1">
	<g>
		<g>
			<line class="st4" x1="169.399" y1="176.65" x2="203.24" y2="196.188"/>
			<g>
				<polygon class="st1" points="192.53,200.695 200.565,194.644 201.788,184.66 216.165,203.65 				"/>
			</g>
		</g>
	</g>
</g>
<g id="Layer_2">
	<g>
		<g>
			<line class="st5" x1="179.544" y1="88.952" x2="179.522" y2="84.995"/>
			<line class="st6" x1="179.481" y1="77.628" x2="179.089" y2="7.64"/>
			<line class="st5" x1="179.068" y1="3.957" x2="179.046" y2="0"/>
		</g>
	</g>
	<g>
		<g>
			<line class="st5" x1="179.788" y1="132.493" x2="179.766" y2="128.536"/>
			<line class="st7" x1="179.737" y1="123.474" x2="179.695" y2="115.882"/>
			<line class="st5" x1="179.681" y1="113.351" x2="179.659" y2="109.394"/>
		</g>
	</g>
	<g>
		<g>
			<line class="st8" x1="180.809" y1="254.881" x2="180.786" y2="250.981"/>
			<line class="st9" x1="180.758" y1="246.059" x2="180.715" y2="238.677"/>
			<line class="st8" x1="180.701" y1="236.216" x2="180.679" y2="232.316"/>
		</g>
	</g>
	<g>
		<g>
			<line class="st8" x1="181.415" y1="360" x2="181.392" y2="356.099"/>
			<line class="st10" x1="181.343" y1="347.587" x2="180.975" y2="283.745"/>
			<line class="st8" x1="180.951" y1="279.489" x2="180.928" y2="275.589"/>
		</g>
	</g>
	<path class="st11" d="M212.109,102.942c-6.543-54.917-17.656-85.362-32.62-85.362c-9.419,0-18.037,14.808-24.668,39.319"/>
	<g>
		<g>
			<path class="st12" d="M142.395,146.917c-0.544,11.031-0.831,22.474-0.831,34.206c0,90.322,16.98,163.542,37.925,163.542
				c14.284,0,25.229-30.836,31.526-80.775"/>
			<g>
				<polygon class="st13" points="118.145,160.259 150.314,76.625 164.279,165.138 				"/>
			</g>
		</g>
	</g>
	<circle class="st14" cx="21.755" cy="182.172" r="12.345"/>
	<circle class="st15" cx="338.245" cy="184.443" r="12.345"/>
</g>
</svg>
