<?xml version="1.0" encoding="utf-8"?>
<!-- Generator: Adobe Illustrator 23.0.3, SVG Export Plug-In . SVG Version: 6.00 Build 0)  -->
<svg version="1.1" id="Layer_1" xmlns="http://www.w3.org/2000/svg" xmlns:xlink="http://www.w3.org/1999/xlink" x="0px" y="0px"
	 viewBox="0 0 72 72" style="enable-background:new 0 0 72 72;" xml:space="preserve">
<style type="text/css">
	.st0{fill-rule:evenodd;clip-rule:evenodd;fill:none;stroke:#00C929;stroke-width:3;stroke-miterlimit:10;}
	.st1{fill-rule:evenodd;clip-rule:evenodd;fill:url(#logo.svg_1_);}
</style>
<title>logo</title>
<desc>Created with Sketch.</desc>
<circle class="st0" cx="36" cy="36" r="34.2"/>
<linearGradient id="logo.svg_1_" gradientUnits="userSpaceOnUse" x1="9.3985" y1="40.473" x2="24.804" y2="48.5452" gradientTransform="matrix(9.8828 0 0 -11.3929 -140.1194 550.8276)">
	<stop  offset="0" style="stop-color:#FDF280"/>
	<stop  offset="0.16" style="stop-color:#FDF280"/>
	<stop  offset="0.66" style="stop-color:#F69321"/>
	<stop  offset="1" style="stop-color:#F69321"/>
</linearGradient>
<path id="logo.svg" class="st1" d="M41.2,45.4l5-2.9c0,0,1.8,4.2,2.9,6.8c0.4,1-0.3,2-1.3,2h-2.5c-0.9,0-1.8-0.6-2.2-1.4L41.2,45.4z
	 M34,21.8c0.3-0.8,1.1-1.2,1.8-1.2c0.7,0,1.5,0.4,1.8,1.2l6.5,15.7c0.2,0.5-0.1,1-0.5,1.2c-1.2,0.4-2.5,0.8-3.8,1.2
	c-0.4,0.1-0.9-0.1-1.1-0.5l-2.1-4.9c-0.3-0.7-1.3-0.7-1.6,0c-0.9,2.2-2.4,5.9-3.2,8c-0.3,0.7,0.4,1.4,1.1,1.1
	c3.4-1.1,10.9-3.5,15.8-5c0.6-0.2,0.9,0.6,0.4,0.9L28.8,51c-0.4,0.2-0.9,0.4-1.3,0.4l-3.4,0c-1,0-1.6-1-1.3-1.9L34,21.8z"/>
</svg>
