<svg width="72" height="72" viewBox="0 0 72 72" fill="none" xmlns="http://www.w3.org/2000/svg">
<path fill-rule="evenodd" clip-rule="evenodd" d="M23.0988 48.8689L34.0056 22.1874C34.3287 21.3963 35.0557 21 35.7826 21C36.5048 21 37.2264 21.3911 37.5538 22.1742L43.8787 37.3132C44.0676 37.7663 43.8272 38.2826 43.3555 38.4316C42.4206 38.7263 41.4535 39.0316 40.4695 39.3423C40.1969 39.4283 39.923 39.5148 39.6481 39.6016C39.2268 39.7347 38.7721 39.5258 38.6033 39.1216L36.6056 34.3458C36.3169 33.6547 35.3295 33.6553 35.0466 34.3484C34.1637 36.5079 32.7321 40.01 31.8943 42.0605C31.6268 42.7137 32.2471 43.3774 32.9237 43.1632C36.2474 42.1126 43.5518 39.8053 48.3284 38.2974C48.8977 38.1174 49.2432 38.9032 48.7242 39.1968L28.9669 50.3658C28.5684 50.5905 28.1174 50.7084 27.6589 50.7063L24.3277 50.6889C23.3848 50.6837 22.7449 49.7358 23.0988 48.8689ZM42.8958 49.3142L41.0849 44.9737L45.9628 42.2137C45.9628 42.2137 47.6804 46.261 48.7437 48.7679C49.1353 49.6895 48.4508 50.7063 47.4432 50.7063H44.9949C44.0759 50.7063 43.2471 50.1568 42.8958 49.3142Z" fill="url(#paint0_linear)"/>
<defs>
<linearGradient id="paint0_linear" x1="25.0199" y1="55.6596" x2="48.2849" y2="45.4804" gradientUnits="userSpaceOnUse">
<stop stop-color="#FFEA79"/>
<stop offset="0.24" stop-color="#FDE072"/>
<stop offset="0.38" stop-color="#F8C65F"/>
<stop offset="0.56" stop-color="#EF9B41"/>
<stop offset="1" stop-color="#EA802D"/>
</linearGradient>
</defs>
</svg>
