<?xml version="1.0" encoding="utf-8"?>
<!-- Generator: Adobe Illustrator 23.0.1, SVG Export Plug-In . SVG Version: 6.00 Build 0)  -->
<svg version="1.1" id="Layer_1" xmlns="http://www.w3.org/2000/svg" xmlns:xlink="http://www.w3.org/1999/xlink" x="0px" y="0px"
	 viewBox="0 0 72 72" style="enable-background:new 0 0 72 72;" xml:space="preserve">
<style type="text/css">
	.st0{fill-rule:evenodd;clip-rule:evenodd;fill:#FFFFFF;}
</style>
<title>satellite.svg</title>
<desc>Created with Sketch.</desc>
<g id="Camera-focused">
	<g transform="translate(-870.000000, -16.000000)">
		<g id="top">
			<g id="left" transform="translate(818.000000, 16.000000)">
				<g id="satellite" transform="translate(52.000000, 0.000000)">
					<path id="satellite.svg" class="st0" d="M20.731,51.269L20.731,51.269c3.645,3.645,8.429,5.471,13.219,5.488v4.691
						c-5.991-0.017-11.976-2.301-16.538-6.86c-4.562-4.559-6.846-10.547-6.86-16.538l4.691,0.003
						C15.258,42.843,17.086,47.621,20.731,51.269z M13.264,58.733L13.264,58.733c5.706,5.703,13.193,8.564,20.686,8.575v4.691
						c-8.693-0.011-17.384-3.33-24.002-9.945C3.327,55.434,0.014,46.743,0,38.05l4.691,0.003C4.705,45.54,7.56,53.032,13.264,58.733
						z M54.832,31.447L72,48.614l-15.083,15.08L39.749,46.533l-0.245-2.062c-3.341,2.72-8.269,2.523-11.382-0.591
						c-3.116-3.116-3.31-8.041-0.591-11.385l-2.062-0.245L8.302,15.084L23.386,0.001L40.55,17.168l0.245,2.062
						c3.347-2.723,8.274-2.528,11.385,0.588c3.116,3.113,3.313,8.043,0.591,11.385L54.832,31.447z M27.635,27.782l4.061,0.484
						l4.868-4.868l-0.481-4.061L23.385,6.638l-8.446,8.446L27.635,27.782z M56.916,57.06l8.446-8.446L52.663,35.913l-4.061-0.481
						L43.734,40.3l0.481,4.061L56.916,57.06z"/>
				</g>
			</g>
		</g>
	</g>
</g>
</svg>
