<?xml version="1.0" encoding="utf-8"?>
<!-- Generator: Adobe Illustrator 23.0.1, SVG Export Plug-In . SVG Version: 6.00 Build 0)  -->
<svg version="1.1" id="Layer_1" xmlns="http://www.w3.org/2000/svg" xmlns:xlink="http://www.w3.org/1999/xlink" x="0px" y="0px"
	 viewBox="0 0 72 72" style="enable-background:new 0 0 72 72;" xml:space="preserve">
<style type="text/css">
	.st0{fill-rule:evenodd;clip-rule:evenodd;fill:#5FCDF3;}
</style>
<title>drone</title>
<desc>Created with Sketch.</desc>
<g id="Camera-focused">
	<g transform="translate(-74.000000, -16.000000)">
		<g id="top">
			<g id="right" transform="translate(0.000000, 8.000000)">
				<g id="nav" transform="translate(74.000000, 8.000000)">
					<g id="flight.active">
						<path id="drone" class="st0" d="M62.622,23.014v-1.442c0-0.608-0.531-1.139-1.14-1.139s-1.14,0.531-1.14,1.139v1.442h-8.131
							c-0.837,0-1.52,0.682-1.52,1.519c0,0.837,0.683,1.519,1.52,1.519h8.131v2.581h-0.229c-0.609,0-1.063,0.457-1.063,1.062v3.495
							H48.64c-1.291,0-3.191-1.139-4.788-2.279c-2.28-1.67-2.051-2.581-4.94-2.581h-5.548c-2.888,0-2.583,0.911-4.94,2.581
							c-1.597,1.139-3.497,2.279-4.788,2.279H13.225v-3.495c0-0.608-0.457-1.062-1.063-1.062h-0.229v-2.581h8.131
							c0.837,0,1.52-0.682,1.52-1.519c0-0.837-0.683-1.519-1.52-1.519h-8.131v-1.442c0-0.608-0.531-1.139-1.14-1.139
							c-0.609,0-1.14,0.531-1.14,1.139v1.442H1.523c-0.837,0-1.52,0.682-1.52,1.519c0,0.837,0.683,1.519,1.52,1.519h8.131v2.581
							H9.425c-0.609,0-1.063,0.457-1.063,1.062V40.1c0,0.608,0.457,1.062,1.063,1.062h2.66c0.609,0,1.063-0.457,1.063-1.062v-2.658
							h10.411c0.911,0,2.051,0.911,3.268,2.127c-3.877,2.05-6.991,5.317-8.891,9.417c-0.38,0.911,0,1.976,0.911,2.43
							c0.911,0.38,1.977,0,2.431-0.911c1.597-3.646,4.483-6.456,7.902-8.053c0.609,0.837,1.14,1.596,1.52,2.127
							c0.457,0.682,1.291,1.139,2.129,1.139h6.231c0.837,0,1.671-0.457,2.129-1.139c0.38-0.608,0.911-1.368,1.52-2.127
							c3.497,1.596,6.308,4.406,7.902,8.053c0.303,0.682,0.989,1.062,1.671,1.062c0.229,0,0.531-0.077,0.76-0.151
							c0.911-0.38,1.369-1.519,0.911-2.43c-1.823-4.1-5.017-7.367-8.891-9.417c1.14-1.216,2.357-2.127,3.268-2.127h10.411V40.1
							c0,0.608,0.457,1.062,1.063,1.062h2.66c0.609,0,1.063-0.457,1.063-1.062V29.695c0-0.608-0.457-1.062-1.063-1.062h-0.229
							v-2.581h8.131c0.837,0,1.52-0.682,1.52-1.519c0.386-0.834-0.297-1.519-1.134-1.519L62.622,23.014z"/>
					</g>
				</g>
			</g>
		</g>
	</g>
</g>
</svg>
