<svg width="15" height="12" viewBox="0 0 15 12" fill="none" xmlns="http://www.w3.org/2000/svg">
<path fill-rule="evenodd" clip-rule="evenodd" d="M1.17976 2.40011H12.9797C13.6312 2.40011 14.1594 1.86293 14.1594 1.20034C14.1594 0.537162 13.6312 0 12.9797 0H1.17976C0.528203 0 0 0.537177 0 1.20034C0 1.86295 0.528217 2.40011 1.17976 2.40011ZM12.9797 4.80023H1.17977C0.528209 4.80023 5.94556e-06 5.3374 5.94556e-06 6C5.94556e-06 6.6626 0.528223 7.19978 1.17977 7.19978H12.9797C13.6312 7.19978 14.1594 6.6626 14.1594 6C14.1594 5.3374 13.6312 4.80023 12.9797 4.80023ZM1.17976 9.59988H12.9797C13.6312 9.59988 14.1594 10.137 14.1594 10.7997C14.1594 11.4628 13.6312 12 12.9797 12H1.17976C0.528217 12 0 11.4628 0 10.7997C0 10.1371 0.528203 9.59988 1.17976 9.59988Z" fill="white"/>
</svg>
