<?xml version="1.0" encoding="utf-8"?>
<!-- Generator: Adobe Illustrator 23.0.1, SVG Export Plug-In . SVG Version: 6.00 Build 0)  -->
<svg version="1.1" id="Layer_1" xmlns="http://www.w3.org/2000/svg" xmlns:xlink="http://www.w3.org/1999/xlink" x="0px" y="0px"
	 viewBox="0 0 71.993 72" style="enable-background:new 0 0 71.993 72;" xml:space="preserve">
<style type="text/css">
	.st0{fill-rule:evenodd;clip-rule:evenodd;fill:#FFFFFF;}
</style>
<title>settings</title>
<desc>Created with Sketch.</desc>
<g id="Camera-focused">
	<g transform="translate(-259.000000, -16.000000)">
		<g id="top">
			<g id="right" transform="translate(0.000000, 8.000000)">
				<g id="nav" transform="translate(74.000000, 8.000000)">
					<g id="settings" transform="translate(185.000000, 0.000000)">
						<path class="st0" d="M40.089,35.994c0,2.227-1.822,4.031-4.069,4.031c-2.249,0-4.069-1.804-4.069-4.031
							c0-2.225,1.821-4.029,4.069-4.029C38.266,31.965,40.089,33.769,40.089,35.994z M58.692,32.003L58.692,32.003
							c0.543,0.119,0.929,0.6,0.921,1.152v5.68c-0.015,0.552-0.403,1.026-0.945,1.152l-5.672,1.062
							c-0.353,1.152-0.82,2.267-1.394,3.327l3.233,4.728c0.305,0.459,0.255,1.064-0.118,1.47l-4.06,4.02
							c-0.414,0.384-1.039,0.435-1.512,0.126l-4.788-3.225c-1.071,0.563-2.197,1.016-3.362,1.353l-1.064,5.616
							c-0.12,0.537-0.596,0.923-1.152,0.936h-5.744c-0.552-0.018-1.025-0.402-1.152-0.936l-1.078-5.682
							c-1.113-0.34-2.19-0.788-3.215-1.338l-4.745,3.21c-0.469,0.303-1.088,0.247-1.494-0.135l-4.051-4.011
							c-0.423-0.4-0.5-1.042-0.185-1.53l3.239-4.68c-0.565-1.044-1.023-2.141-1.366-3.276l-5.672-1.062
							c-0.543-0.128-0.931-0.6-0.945-1.152v-5.664c0.03-0.572,0.454-1.051,1.027-1.15l5.672-1.062
							c0.334-1.117,0.781-2.197,1.337-3.225l-3.281-4.737c-0.299-0.466-0.244-1.075,0.138-1.479l4.06-4.02
							c0.408-0.377,1.023-0.433,1.494-0.135l4.755,3.219c1.039-0.55,2.129-0.998,3.257-1.338l1.073-5.682
							C32.026,13,32.5,12.615,33.056,12.6h5.742c0.554,0.018,1.027,0.402,1.154,0.936l1.058,5.616
							c1.185,0.347,2.328,0.817,3.412,1.404l4.817-3.276c0.462-0.292,1.065-0.245,1.475,0.117l4.06,4.02
							c0.38,0.404,0.438,1.013,0.137,1.479l-3.257,4.769c0.569,1.042,1.027,2.139,1.366,3.276L58.692,32.003z M36.004,45.758
							L36.004,45.758c2.616,0.004,5.127-1.024,6.977-2.854c1.852-1.83,2.891-4.314,2.891-6.905c0.002-2.589-1.036-5.073-2.884-6.905
							c-1.848-1.83-4.354-2.861-6.968-2.863c-2.616-0.002-5.124,1.026-6.974,2.856c-1.85,1.828-2.891,4.311-2.893,6.899
							c-0.002,2.589,1.034,5.073,2.882,6.905C30.882,44.724,33.39,45.755,36.004,45.758z"/>
					</g>
				</g>
			</g>
		</g>
	</g>
</g>
</svg>
