<?xml version="1.0" encoding="utf-8"?>
<!-- Generator: Adobe Illustrator 23.0.1, SVG Export Plug-In . SVG Version: 6.00 Build 0)  -->
<svg version="1.1" id="Layer_1" xmlns="http://www.w3.org/2000/svg" xmlns:xlink="http://www.w3.org/1999/xlink" x="0px" y="0px"
	 viewBox="0 0 72 72" style="enable-background:new 0 0 72 72;" xml:space="preserve">
<style type="text/css">
	.st0{fill-rule:evenodd;clip-rule:evenodd;fill:#FFFFFF;}
</style>
<title>path</title>
<desc>Created with Sketch.</desc>
<g id="Camera-focused">
	<g transform="translate(-210.000000, -16.000000)">
		<g id="top">
			<g id="right" transform="translate(0.000000, 8.000000)">
				<g id="nav" transform="translate(74.000000, 8.000000)">
					<g id="plan" transform="translate(136.000000, 0.000000)">
						<path id="path" class="st0" d="M53.263,56.337c-0.032-0.066-0.067-0.132-0.098-0.202c-0.333-0.675-0.743-1.422-1.242-2.239
							c-0.044-0.073-0.089-0.145-0.133-0.218c-0.518-0.842-1.131-1.757-1.855-2.744c-0.054-0.076-0.108-0.151-0.165-0.221
							c-0.746-1.012-1.604-2.097-2.595-3.255c-0.064-0.076-0.127-0.148-0.191-0.221c-0.499-0.58-1.026-1.173-1.591-1.791
							c-0.886-0.965-1.845-1.971-2.909-3.025c-3.141-3.11-5.088-7.412-5.088-12.168c0-9.49,7.746-17.179,17.298-17.179
							C64.255,13.076,72,20.765,72,30.255c0,4.756-1.947,9.058-5.088,12.168c-7.911,7.856-10.696,13.234-11.677,16.06
							c-0.013,0.054-0.025,0.104-0.054,0.151c-0.095,0.17-0.273,0.293-0.486,0.293s-0.391-0.12-0.483-0.293
							c-0.016-0.047-0.035-0.101-0.054-0.151c-0.127-0.366-0.286-0.776-0.48-1.227C53.562,56.968,53.419,56.659,53.263,56.337
							L53.263,56.337z M61.936,30.254c0-3.968-3.239-7.185-7.234-7.185c-3.995,0-7.234,3.217-7.234,7.185
							c0,3.971,3.239,7.185,7.234,7.185C58.697,37.439,61.936,34.222,61.936,30.254z M8.971,40.532L1.21,43.106l8.222,2.473
							l40.888,12.285c-1.283-2.678-4.078-7.052-10.179-13.114c-0.029-0.028-0.054-0.06-0.083-0.088l-21.452-3.113l6.361-3.274
							l4.579-2.356l-4.913-0.413l-18.772-1.59l13.291,3.236L8.971,40.532z M10.004,26.854c-2.684,2.665-3.627,4.485-3.96,5.444
							c-0.006,0.016-0.013,0.035-0.016,0.05c-0.032,0.057-0.092,0.098-0.165,0.098c-0.073,0-0.13-0.041-0.162-0.098
							c-0.006-0.016-0.013-0.035-0.016-0.05c-0.333-0.959-1.277-2.779-3.96-5.444C0.657,25.797,0,24.34,0,22.729
							c0-3.217,2.626-5.822,5.866-5.822s5.866,2.608,5.866,5.822C11.728,24.34,11.071,25.797,10.004,26.854L10.004,26.854z
							 M5.866,20.291c-1.353,0-2.455,1.091-2.455,2.435c0,1.347,1.099,2.438,2.455,2.438c1.356,0,2.455-1.091,2.455-2.438
							C8.317,21.382,7.222,20.291,5.866,20.291z"/>
					</g>
				</g>
			</g>
		</g>
	</g>
</g>
</svg>
