<?xml version="1.0" encoding="utf-8"?>
<!-- Generator: Adobe Illustrator 23.0.1, SVG Export Plug-In . SVG Version: 6.00 Build 0)  -->
<svg version="1.1" id="Layer_1" xmlns="http://www.w3.org/2000/svg" xmlns:xlink="http://www.w3.org/1999/xlink" x="0px" y="0px"
	 viewBox="0 0 72 72" style="enable-background:new 0 0 72 72;" xml:space="preserve">
<style type="text/css">
	.st0{fill:#FFFFFF;}
</style>
<title>remote</title>
<desc>Created with Sketch.</desc>
<path class="st0" d="M46.091,26.976L46.091,26.976c5.56,0,10.89,2.206,14.819,6.136c3.932,3.932,6.139,9.262,6.139,14.819v16.295
	c0,4.292-3.483,7.775-7.775,7.775H46.052v-5.259c0-0.481-0.391-0.874-0.874-0.874H26.82c-0.483,0-0.874,0.393-0.874,0.874V72H12.726
	c-4.295,0-7.775-3.483-7.775-7.775V47.933c0-5.56,2.207-10.889,6.136-14.819c3.933-3.932,9.262-6.139,14.822-6.139h5.405
	l2.988-17.405c-2.246-0.824-3.581-3.14-3.162-5.498C31.559,1.717,33.605,0,36,0c2.392,0,4.441,1.717,4.86,4.073
	c0.416,2.358-0.916,4.674-3.162,5.498l2.985,17.405H46.091z M19.705,60.784L19.705,60.784c4.267,0,7.727-3.463,7.727-7.73
	c0.003-3.126-1.88-5.945-4.77-7.142c-2.89-1.195-6.212-0.534-8.424,1.675c-2.209,2.212-2.873,5.537-1.675,8.424
	C13.76,58.901,16.577,60.784,19.705,60.784z M44.053,40.034v-3.14c0-1.855-1.504-3.359-3.359-3.359h-9.388
	c-1.855,0-3.359,1.504-3.359,3.359v3.137c0,1.855,1.504,3.359,3.359,3.359h9.388c0.891,0,1.746-0.351,2.375-0.984
	c0.63-0.63,0.984-1.484,0.984-2.375V40.034z M52.294,60.784L52.294,60.784c2.049,0,4.017-0.815,5.467-2.265
	c1.448-1.448,2.263-3.415,2.263-5.464c0-3.126-1.883-5.945-4.77-7.142c-2.89-1.195-6.215-0.534-8.424,1.675
	c-2.212,2.212-2.873,5.534-1.675,8.424C46.349,58.898,49.169,60.784,52.294,60.784z M27.694,67.614h16.609v4.385H27.694V67.614z"/>
</svg>
