<svg width="72" height="72" viewBox="0 0 72 72" fill="none" xmlns="http://www.w3.org/2000/svg">
<path fill-rule="evenodd" clip-rule="evenodd" d="M23.0988 48.8689L34.0056 22.1874C34.3287 21.3963 35.0557 21 35.7826 21C36.5048 21 37.2264 21.3911 37.5538 22.1742L43.8787 37.3132C44.0676 37.7663 43.8272 38.2826 43.3555 38.4316C42.4206 38.7263 41.4535 39.0316 40.4695 39.3423C40.1969 39.4283 39.923 39.5148 39.6481 39.6016C39.2268 39.7347 38.7721 39.5258 38.6033 39.1216L36.6056 34.3458C36.3169 33.6547 35.3295 33.6553 35.0466 34.3484C34.1637 36.5079 32.7321 40.01 31.8943 42.0605C31.6268 42.7137 32.2471 43.3774 32.9237 43.1632C36.2474 42.1126 43.5518 39.8053 48.3284 38.2974C48.8977 38.1174 49.2432 38.9032 48.7242 39.1968L28.9669 50.3658C28.5684 50.5905 28.1174 50.7084 27.6589 50.7063L24.3277 50.6889C23.3848 50.6837 22.7449 49.7358 23.0988 48.8689ZM42.8958 49.3142L41.0849 44.9737L45.9628 42.2137C45.9628 42.2137 47.6804 46.261 48.7437 48.7679C49.1353 49.6895 48.4508 50.7063 47.4432 50.7063H44.9949C44.0759 50.7063 43.2471 50.1568 42.8958 49.3142Z" fill="#0B1420"/>
<mask id="mask0" mask-type="alpha" maskUnits="userSpaceOnUse" x="23" y="21" width="26" height="30">
<path fill-rule="evenodd" clip-rule="evenodd" d="M23.0988 48.8689L34.0056 22.1874C34.3287 21.3963 35.0557 21 35.7826 21C36.5048 21 37.2264 21.3911 37.5538 22.1742L43.8787 37.3132C44.0676 37.7663 43.8272 38.2826 43.3555 38.4316C42.4206 38.7263 41.4535 39.0316 40.4695 39.3423C40.1969 39.4283 39.923 39.5148 39.6481 39.6016C39.2268 39.7347 38.7721 39.5258 38.6033 39.1216L36.6056 34.3458C36.3169 33.6547 35.3295 33.6553 35.0466 34.3484C34.1637 36.5079 32.7321 40.01 31.8943 42.0605C31.6268 42.7137 32.2471 43.3774 32.9237 43.1632C36.2474 42.1126 43.5518 39.8053 48.3284 38.2974C48.8977 38.1174 49.2432 38.9032 48.7242 39.1968L28.9669 50.3658C28.5684 50.5905 28.1174 50.7084 27.6589 50.7063L24.3277 50.6889C23.3848 50.6837 22.7449 49.7358 23.0988 48.8689ZM42.8958 49.3142L41.0849 44.9737L45.9628 42.2137C45.9628 42.2137 47.6804 46.261 48.7437 48.7679C49.1353 49.6895 48.4508 50.7063 47.4432 50.7063H44.9949C44.0759 50.7063 43.2471 50.1568 42.8958 49.3142Z" fill="white"/>
</mask>
<g mask="url(#mask0)">
</g>
<path d="M44.1449 25.2312V27.6794H43V21.0905H45.5206C46.2567 21.0905 46.8405 21.2821 47.2719 21.6652C47.7063 22.0484 47.9236 22.5552 47.9236 23.1857C47.9236 23.8314 47.7109 24.3337 47.2855 24.6927C46.8631 25.0517 46.2703 25.2312 45.507 25.2312H44.1449ZM44.1449 24.3125H45.5206C45.9279 24.3125 46.2386 24.2175 46.4528 24.0274C46.667 23.8344 46.7741 23.5568 46.7741 23.1948C46.7741 22.8388 46.6655 22.5552 46.4483 22.344C46.2311 22.1298 45.9324 22.0197 45.5523 22.0137H44.1449V24.3125Z" fill="black"/>
<path d="M51.3492 25.1407H50.0731V27.6794H48.9282V21.0905H51.2452C52.0054 21.0905 52.5922 21.261 53.0055 21.6019C53.4188 21.9428 53.6255 22.436 53.6255 23.0817C53.6255 23.5221 53.5184 23.8917 53.3042 24.1904C53.093 24.486 52.7973 24.7138 52.4172 24.8737L53.897 27.6206V27.6794H52.6706L51.3492 25.1407ZM50.0731 24.222H51.2497C51.6358 24.222 51.9375 24.1255 52.1547 23.9324C52.372 23.7363 52.4806 23.4693 52.4806 23.1314C52.4806 22.7785 52.3795 22.5054 52.1774 22.3123C51.9783 22.1193 51.6796 22.0197 51.2814 22.0137H50.0731V24.222Z" fill="black"/>
<path d="M59.97 24.5569C59.97 25.2025 59.8584 25.7697 59.6351 26.2584C59.4119 26.7442 59.0921 27.1183 58.6758 27.3807C58.2624 27.6402 57.7858 27.7699 57.2457 27.7699C56.7118 27.7699 56.2351 27.6402 55.8157 27.3807C55.3994 27.1183 55.0766 26.7457 54.8473 26.263C54.6211 25.7803 54.5064 25.2236 54.5034 24.5931V24.222C54.5034 23.5794 54.6165 23.0123 54.8428 22.5205C55.0721 22.0288 55.3934 21.6532 55.8067 21.3937C56.223 21.1312 56.6997 21 57.2367 21C57.7737 21 58.2489 21.1297 58.6622 21.3892C59.0785 21.6456 59.3998 22.0167 59.6261 22.5024C59.8523 22.9851 59.967 23.5478 59.97 24.1904V24.5569ZM58.8251 24.213C58.8251 23.4829 58.6863 22.9233 58.4088 22.5341C58.1342 22.1449 57.7435 21.9503 57.2367 21.9503C56.7419 21.9503 56.3543 22.1449 56.0737 22.5341C55.7961 22.9203 55.6543 23.4678 55.6483 24.1768V24.5569C55.6483 25.281 55.7886 25.8406 56.0692 26.2358C56.3528 26.631 56.7449 26.8286 57.2457 26.8286C57.7526 26.8286 58.1418 26.6355 58.4133 26.2494C58.6878 25.8632 58.8251 25.2991 58.8251 24.5569V24.213Z" fill="black"/>
</svg>
