<?xml version="1.0" encoding="utf-8"?>
<!-- Generator: Adobe Illustrator 23.0.2, SVG Export Plug-In . SVG Version: 6.00 Build 0)  -->
<svg version="1.1" id="Layer_1" xmlns="http://www.w3.org/2000/svg" xmlns:xlink="http://www.w3.org/1999/xlink" x="0px" y="0px"
	 viewBox="0 0 72 72" style="enable-background:new 0 0 72 72;" xml:space="preserve">
<style type="text/css">
	.st0{fill-rule:evenodd;clip-rule:evenodd;stroke:#00C929;stroke-width:3;stroke-miterlimit:10;}
	.st1{fill-rule:evenodd;clip-rule:evenodd;fill:url(#logo.svg_1_);}
</style>
<title>logo</title>
<desc>Created with Sketch.</desc>
<circle class="st0" cx="36" cy="36" r="34.2"/>
<linearGradient id="logo.svg_1_" gradientUnits="userSpaceOnUse" x1="9.3985" y1="31.527" x2="24.804" y2="23.4548" gradientTransform="matrix(9.8828 0 0 11.3929 -140.1194 -269.4612)">
	<stop  offset="0" style="stop-color:#FDF280"/>
	<stop  offset="0.16" style="stop-color:#FDF280"/>
	<stop  offset="0.66" style="stop-color:#F69321"/>
	<stop  offset="1" style="stop-color:#F69321"/>
</linearGradient>
<path id="logo.svg" class="st1" d="M41.237,45.449l5.014-2.86c0,0,1.764,4.193,2.858,6.79c0.402,0.955-0.301,2.008-1.338,2.008
	h-2.516c-0.944,0-1.796-0.569-2.157-1.443L41.237,45.449z M33.96,21.842c0.333-0.82,1.079-1.23,1.827-1.23
	c0.742,0,1.484,0.405,1.82,1.215l6.501,15.684c0.195,0.47-0.052,1.006-0.538,1.159c-1.226,0.39-2.508,0.798-3.81,1.213
	c-0.432,0.138-0.9-0.079-1.074-0.498l-2.052-4.948c-0.297-0.716-1.311-0.715-1.603,0.004c-0.907,2.237-2.379,5.865-3.24,7.989
	c-0.274,0.676,0.363,1.364,1.058,1.143c3.416-1.089,10.923-3.478,15.833-5.042c0.584-0.186,0.941,0.628,0.407,0.931L28.782,51.036
	c-0.409,0.233-0.873,0.355-1.344,0.352l-3.423-0.018c-0.97-0.006-1.626-0.986-1.264-1.885L33.96,21.842z"/>
</svg>
