<?xml version="1.0" encoding="utf-8"?>
<!-- Generator: Adobe Illustrator 23.0.1, SVG Export Plug-In . SVG Version: 6.00 Build 0)  -->
<svg version="1.1" id="Layer_1" xmlns="http://www.w3.org/2000/svg" xmlns:xlink="http://www.w3.org/1999/xlink" x="0px" y="0px"
	 viewBox="0 0 72 72" style="enable-background:new 0 0 72 72;" xml:space="preserve">
<style type="text/css">
	.st0{opacity:0.5;fill:#FFFFFF;}
	.st1{fill:#FFFFFF;}
</style>
<title>remote</title>
<desc>Created with Sketch.</desc>
<path class="st0" d="M69.391,9.602L69.391,9.602c1.425-0.044,2.604,1.06,2.607,2.439v47.908c0.003,1.354-1.131,2.454-2.532,2.451
	h-9.335c-1.401,0.003-2.535-1.098-2.532-2.451V17.261c0.003-0.871,0.483-1.679,1.266-2.115L68.2,9.927
	C68.563,9.726,68.974,9.613,69.391,9.602z"/>
<path class="st1" d="M50.192,20.339L50.192,20.339c1.425-0.043,2.604,1.061,2.607,2.44v37.169c0.003,1.354-1.131,2.454-2.532,2.451
	h-9.335c-1.401,0.003-2.535-1.098-2.532-2.451v-31.95c0.003-0.871,0.483-1.679,1.266-2.115l9.335-5.219
	C49.364,20.461,49.775,20.351,50.192,20.339z"/>
<path class="st1" d="M30.993,31.066L30.993,31.066c1.425-0.041,2.604,1.063,2.607,2.442v26.44c0.003,1.354-1.131,2.454-2.532,2.451
	h-9.335c-1.401,0.003-2.535-1.098-2.532-2.451v-21.22c0.003-0.874,0.483-1.679,1.266-2.115l9.335-5.219
	C30.165,31.191,30.576,31.077,30.993,31.066z"/>
<path class="st1" d="M11.794,41.804L11.794,41.804c1.425-0.04,2.604,1.063,2.607,2.443v15.702c0.003,1.354-1.131,2.454-2.532,2.451
	H2.534c-1.401,0.003-2.535-1.098-2.532-2.451V49.466c0.003-0.874,0.483-1.679,1.266-2.115l9.335-5.219
	C10.966,41.929,11.377,41.815,11.794,41.804z"/>
</svg>
