<?xml version="1.0" encoding="utf-8"?>
<!-- Generator: Adobe Illustrator 23.0.3, SVG Export Plug-In . SVG Version: 6.00 Build 0)  -->
<svg version="1.1" id="Layer_1" xmlns="http://www.w3.org/2000/svg" xmlns:xlink="http://www.w3.org/1999/xlink" x="0px" y="0px"
	 viewBox="0 0 72 72" style="enable-background:new 0 0 72 72;" xml:space="preserve">
<style type="text/css">
	.st0{fill-rule:evenodd;clip-rule:evenodd;fill:#FFFFFF;}
</style>
<path class="st0" d="M14.4,31.4c0-11,6.9-20.2,16.2-22.8l0-2.7C30.6,2.6,33,0,36,0c3,0,5.4,2.6,5.4,5.9v2.7
	c9.3,2.6,16.2,11.8,16.2,22.8v15.7c0,1.5,1.1,2.6,2.4,2.6c2.6,0,4.8,2.3,4.8,5.2c0,2.9-2.2,5.2-4.8,5.2H12c-2.7,0-4.8-2.3-4.8-5.2
	c0-2.9,2.2-5.2,4.8-5.2c1.3,0,2.4-1.2,2.4-2.6V31.4z M36,72c4.6,0,8.4-4.1,8.4-9.2H27.6C27.6,67.9,31.4,72,36,72z"/>
</svg>
