<svg xmlns="http://www.w3.org/2000/svg" width="16" height="13" fill="none">
    <path fill="#fff" fill-rule="evenodd" d="M16 1.158C16 .795 15.717.5 15.37.5L.63.5C.28.5 0 .794 0 1.158v8.932c0 .363.281.657.629.657h4.517a.48.48 0 0 1 .344.148l.928.957a.54.54 0 0 0 .392.168h1.57v-.46c0-.08.062-.146.14-.146h1.227q.047.001.087.031l.658.543a.13.13 0 0 0 .086.031h4.794c.347 0 .628-.293.628-.657zM4.328 9.683a.123.123 0 0 1-.12.125H1.317a.12.12 0 0 1-.12-.125v-.648c0-.068.055-.125.12-.125H4.21c.066 0 .12.057.12.125zm-.12-.98c.066 0 .12-.057.12-.125v-.649a.123.123 0 0 0-.119-.125H1.317a.123.123 0 0 0-.12.125v.648c0 .07.054.126.12.126zm.12-1.232a.123.123 0 0 1-.12.125H1.317a.12.12 0 0 1-.12-.125v-.647c0-.07.055-.126.12-.126H4.21c.066 0 .12.056.12.126zm-.12-.98c.066 0 .12-.056.12-.126v-.647a.123.123 0 0 0-.12-.125H.957a.12.12 0 0 0-.12.125v.647c0 .07.054.126.12.126zm.12-1.233c0 .07-.054.125-.12.125l-2.892.001a.12.12 0 0 1-.12-.125v-.647c0-.07.055-.125.12-.125H4.21c.066 0 .12.056.12.125zm-.12-.98c.066 0 .12-.057.12-.125v-.648a.123.123 0 0 0-.12-.125H.957a.12.12 0 0 0-.12.125v.648c0 .068.054.125.12.125zm.12-1.232c0 .07-.054.125-.12.125H1.317a.12.12 0 0 1-.12-.124v-.648c0-.068.055-.125.12-.125H4.21c.066 0 .12.057.12.125zm-.12-.98c.066 0 .12-.057.12-.126v-.647a.123.123 0 0 0-.119-.126H1.317a.123.123 0 0 0-.12.126v.647c0 .069.054.125.12.125z" clip-rule="evenodd"/>
</svg>
