<svg width="16" height="13" viewBox="0 0 16 13" fill="none" xmlns="http://www.w3.org/2000/svg">
<path fill-rule="evenodd" clip-rule="evenodd" d="M15.9992 1.15794C15.9992 0.795041 15.718 0.500817 15.3711 0.500817L0.628867 0.5C0.281225 0.5 0 0.794224 0 1.15793V10.0903C0 10.4532 0.281225 10.7474 0.628867 10.7474H5.14583C5.27473 10.7474 5.39816 10.8006 5.48957 10.8946L6.41842 11.8525C6.52311 11.9603 6.66295 12.02 6.8098 12.02H8.37926V11.5607C8.37926 11.4806 8.44176 11.4144 8.5191 11.4144H9.74715C9.7784 11.4144 9.80809 11.4258 9.83387 11.4454L10.4917 11.9881C10.5167 12.0094 10.5471 12.0192 10.5784 12.0192H15.3719C15.7188 12.0192 16 11.7258 16 11.3621L15.9992 1.15794ZM4.32879 9.68253C4.32879 9.75118 4.27489 9.80758 4.20927 9.80758H1.31722C1.25082 9.80758 1.19769 9.75118 1.19769 9.68253V9.0352C1.19769 8.96655 1.2516 8.91015 1.31722 8.91015H4.21007C4.27569 8.91015 4.32959 8.96655 4.32959 9.0352L4.32879 9.68253ZM4.20927 8.70339C4.27489 8.70339 4.32879 8.64618 4.32879 8.57752L4.32959 7.92938C4.32959 7.85991 4.27569 7.80351 4.21007 7.80351H1.31722C1.2516 7.80351 1.19769 7.85991 1.19769 7.92938V8.57671C1.19769 8.64618 1.25082 8.70257 1.31722 8.70257L4.20927 8.70339ZM4.32879 7.47087C4.32879 7.53952 4.27489 7.59592 4.20927 7.59592H1.31722C1.25082 7.59592 1.19769 7.53952 1.19769 7.47087V6.82354C1.19769 6.75489 1.2516 6.69767 1.31722 6.69767H4.21007C4.27569 6.69767 4.32959 6.75407 4.32959 6.82354L4.32879 7.47087ZM4.20927 6.49089C4.27489 6.49089 4.32879 6.4345 4.32879 6.36503V5.7177C4.32879 5.64904 4.27489 5.59265 4.20927 5.59265H0.957038C0.891415 5.59265 0.837512 5.64823 0.837512 5.7177V6.36503C0.837512 6.4345 0.891417 6.49089 0.957038 6.49089H4.20927ZM4.32879 5.25837C4.32879 5.32784 4.27489 5.38342 4.20927 5.38342L1.31722 5.38424C1.25082 5.38424 1.19769 5.32784 1.19769 5.25919V4.61186C1.19769 4.54239 1.2516 4.48681 1.31722 4.48681H4.21007C4.27569 4.48681 4.32959 4.5432 4.32959 4.61186L4.32879 5.25837ZM4.20927 4.27758C4.27489 4.27758 4.32879 4.22118 4.32879 4.15253V3.5052C4.32879 3.43655 4.27489 3.38015 4.20927 3.38015H0.957038C0.891415 3.38015 0.837512 3.43573 0.837512 3.5052V4.15253C0.837512 4.22118 0.891417 4.27758 0.957038 4.27758H4.20927ZM4.32879 3.04587C4.32879 3.11534 4.27489 3.17092 4.20927 3.17092L1.31722 3.17174C1.25082 3.17174 1.19769 3.11534 1.19769 3.04669V2.39936C1.19769 2.33071 1.2516 2.27431 1.31722 2.27431H4.21007C4.27569 2.27431 4.32959 2.33071 4.32959 2.39936L4.32879 3.04587ZM4.20927 2.06508C4.27489 2.06508 4.32879 2.00868 4.32879 1.94003L4.32959 1.2927C4.32959 1.22323 4.27569 1.16684 4.21007 1.16684H1.31722C1.2516 1.16684 1.19769 1.22323 1.19769 1.2927V1.94003C1.19769 2.00869 1.25082 2.06508 1.31722 2.06508H4.20927Z" fill="white"/>
</svg>
