<?xml version="1.0" encoding="utf-8"?>
<!-- Generator: Adobe Illustrator 23.0.4, SVG Export Plug-In . SVG Version: 6.00 Build 0)  -->
<svg version="1.1" id="Layer_1" xmlns="http://www.w3.org/2000/svg" xmlns:xlink="http://www.w3.org/1999/xlink" x="0px" y="0px"
	 viewBox="0 0 288 288" style="enable-background:new 0 0 288 288;" xml:space="preserve">
<style type="text/css">
	.st0{fill-rule:evenodd;clip-rule:evenodd;fill:#FFFFFF;}
</style>
<path class="st0" d="M287.986,52.163c0-6.532-5.062-11.828-11.306-11.828L11.32,40.32C5.062,40.32,0,45.616,0,52.163v160.783
	c0,6.532,5.062,11.828,11.32,11.828h81.305c2.32,0,4.542,0.958,6.187,2.65l16.719,17.242c1.884,1.94,4.402,3.015,7.045,3.015h28.25
	v-8.267c0-1.442,1.125-2.633,2.517-2.633h22.105c0.562,0,1.097,0.205,1.561,0.558l11.841,9.769c0.45,0.383,0.997,0.56,1.561,0.56
	h86.283c6.244,0,11.306-5.281,11.306-11.828L287.986,52.163z M77.918,205.606c0,1.236-0.97,2.251-2.151,2.251H23.71
	c-1.195,0-2.152-1.015-2.152-2.251v-11.652c0-1.236,0.97-2.251,2.152-2.251h52.071c1.181,0,2.151,1.015,2.151,2.251L77.918,205.606z
	 M75.767,187.981c1.181,0,2.151-1.03,2.151-2.266l0.014-11.667c0-1.25-0.97-2.266-2.151-2.266H23.71
	c-1.181,0-2.152,1.015-2.152,2.266v11.652c0,1.25,0.956,2.265,2.152,2.265L75.767,187.981z M77.918,165.796
	c0,1.236-0.97,2.251-2.151,2.251H23.71c-1.195,0-2.152-1.015-2.152-2.251v-11.652c0-1.236,0.97-2.266,2.152-2.266h52.071
	c1.181,0,2.151,1.015,2.151,2.266L77.918,165.796z M75.767,148.156c1.181,0,2.151-1.015,2.151-2.265v-11.652
	c0-1.236-0.97-2.251-2.151-2.251h-58.54c-1.181,0-2.151,1-2.151,2.251v11.652c0,1.25,0.97,2.265,2.151,2.265H75.767z
	 M77.918,125.971c0,1.25-0.97,2.251-2.151,2.251l-52.057,0.015c-1.195,0-2.152-1.015-2.152-2.251v-11.652
	c0-1.25,0.97-2.251,2.152-2.251h52.071c1.181,0,2.151,1.015,2.151,2.251L77.918,125.971z M75.767,108.316
	c1.181,0,2.151-1.015,2.151-2.251V94.414c0-1.236-0.97-2.251-2.151-2.251h-58.54c-1.181,0-2.151,1-2.151,2.251v11.652
	c0,1.236,0.97,2.251,2.151,2.251H75.767z M77.918,86.146c0,1.25-0.97,2.251-2.151,2.251L23.71,88.411
	c-1.195,0-2.152-1.015-2.152-2.251V74.508c0-1.236,0.97-2.251,2.152-2.251h52.071c1.181,0,2.151,1.015,2.151,2.251L77.918,86.146z
	 M75.767,68.491c1.181,0,2.151-1.015,2.151-2.251l0.014-11.652c0-1.25-0.97-2.265-2.151-2.265H23.71
	c-1.181,0-2.152,1.015-2.152,2.265v11.652c0,1.236,0.956,2.251,2.152,2.251H75.767z"/>
</svg>
