<?xml version="1.0" encoding="utf-8"?>
<!-- Generator: Adobe Illustrator 21.0.2, SVG Export Plug-In . SVG Version: 6.00 Build 0)  -->
<svg version="1.1" id="Capa_1" xmlns="http://www.w3.org/2000/svg" xmlns:xlink="http://www.w3.org/1999/xlink" x="0px" y="0px"
	 viewBox="0 0 72 72" style="enable-background:new 0 0 72 72;" xml:space="preserve">
<style type="text/css">
	.st0{fill:#FFFFFF;}
</style>
<path class="st0" d="M71.851,1.367c-0.443-1.115-1.704-1.654-2.817-1.218L1.369,26.98c-0.794,0.315-1.328,1.065-1.367,1.917
	s0.424,1.649,1.185,2.036l26.449,13.432l13.432,26.449c0.372,0.732,1.121,1.188,1.936,1.188c0.032,0,0.067-0.001,0.1-0.003
	c0.852-0.039,1.603-0.573,1.917-1.367l26.83-67.664c0.006-0.014,0.004-0.032,0.01-0.046C72.04,2.435,72.056,1.887,71.851,1.367z
	 M28.829,40.102L7.441,29.242L60.878,8.053L28.829,40.102z"/>
</svg>
