<?xml version="1.0" encoding="utf-8"?>
<!-- Generator: Adobe Illustrator 21.1.0, SVG Export Plug-In . SVG Version: 6.00 Build 0)  -->
<svg version="1.1" id="Layer_1" xmlns="http://www.w3.org/2000/svg" xmlns:xlink="http://www.w3.org/1999/xlink" x="0px" y="0px"
	 width="72px" height="72px" viewBox="0 0 72 72" style="enable-background:new 0 0 72 72;" xml:space="preserve">
<style type="text/css">
	.st0{fill:#FFFFFF;}
</style>
<path class="st0" d="M5.968,44.709c-2.46-2.362-3.666-5.24-3.617-8.635c0.049-3.395,1.255-6.323,3.617-8.783s5.24-3.69,8.636-3.69
	s6.323,1.23,8.783,3.69c2.46,2.362,3.69,5.24,3.69,8.635c0,3.395-1.23,6.323-3.69,8.783c-2.362,2.46-5.265,3.69-8.709,3.69
	S8.33,47.169,5.968,44.709z"/>
<path class="st0" d="M43.874,65.088c0-1.81,0.686-3.401,2.057-4.772c6.638-6.692,9.957-14.784,9.957-24.274
	s-3.319-17.581-9.957-24.274c-1.371-1.371-2.043-2.99-2.016-4.855s0.699-3.483,2.016-4.855c1.371-1.371,2.976-2.057,4.814-2.057
	c1.838,0,3.442,0.686,4.814,2.057c6.144,6.144,10.299,13.33,12.466,21.559c2.167,8.228,2.167,16.471,0,24.726
	c-2.167,8.256-6.322,15.456-12.466,21.6c-1.371,1.371-2.976,2.057-4.814,2.057c-1.838,0-3.442-0.686-4.814-2.057
	C44.56,68.571,43.874,66.953,43.874,65.088z"/>
<path class="st0" d="M29.31,21.436c0-1.865,0.686-3.483,2.057-4.855s2.99-2.057,4.855-2.057s3.483,0.686,4.855,2.057
	c3.511,3.511,5.883,7.625,7.118,12.343c1.234,4.718,1.234,9.435,0,14.153c-1.234,4.718-3.607,8.832-7.118,12.343
	c-1.371,1.371-2.99,2.057-4.855,2.057s-3.483-0.686-4.855-2.057c-1.371-1.371-2.057-2.99-2.057-4.855
	c0-1.865,0.686-3.483,2.057-4.855c2.688-2.688,4.032-5.924,4.032-9.71s-1.344-7.022-4.032-9.71
	C29.995,24.919,29.31,23.301,29.31,21.436z"/>
</svg>
