<?xml version="1.0" encoding="utf-8"?>
<!-- Generator: Adobe Illustrator 22.1.0, SVG Export Plug-In . SVG Version: 6.00 Build 0)  -->
<svg version="1.1" id="Layer_1" xmlns="http://www.w3.org/2000/svg" xmlns:xlink="http://www.w3.org/1999/xlink" x="0px" y="0px"
	 viewBox="0 0 72 72" style="enable-background:new 0 0 72 72;" xml:space="preserve">
<style type="text/css">
	.st0{fill:#FFFFFF;stroke:#FFFFFF;stroke-miterlimit:10;}
</style>
<path class="st0" d="M61.087,10.924C54.525,4.358,45.847,0.685,36.598,0.54v17.174c0,1.104,0.892,1.997,1.987,1.997
	c1.093,0,1.987-0.894,1.987-1.997V4.382l0.675,0.114c6.587,1.079,12.587,4.165,17.348,8.925c6.024,6.017,9.337,14.041,9.337,22.579
	s-3.313,16.554-9.337,22.579c-6.04,6.034-14.049,9.353-22.582,9.353s-16.543-3.318-22.575-9.353
	c-6.024-6.033-9.345-14.048-9.345-22.586c0-3.866,1.262-9.127,3.152-13.098c2.084-4.382,4.504-7.281,4.584-7.379
	c0.305-0.402,0.435-0.878,0.346-1.337c-0.089-0.451-0.37-0.845-0.771-1.096c-0.314-0.177-0.675-0.266-1.054-0.266
	c-0.747,0-1.455,0.354-1.873,0.951C8.444,13.8,5.95,17.014,3.828,21.759c-1.963,4.382-3.281,10.11-3.281,14.242
	c-0.009,9.473,3.682,18.374,10.373,25.076c6.698,6.695,15.602,10.384,25.068,10.384c9.473,0,18.384-3.689,25.1-10.384
	c6.683-6.695,10.367-15.595,10.367-25.077C71.452,26.519,67.77,17.61,61.087,10.924z"/>
<path class="st0" d="M30.14,44.885c0.225,0.286,0.479,0.6,0.748,0.955c0.593,0.805,3.498,2.401,5.77,2.401
	c4.515,0,8.198-3.546,8.198-7.924c0-2.088-1.496-4.461-2.286-5.266c-0.874-0.9-2.061-1.76-2.807-2.06l-0.084-0.028l-21.63-12.006
	c-1.007-0.559-2.104,0.578-1.509,1.565l12.514,20.727l0.029,0.081C29.306,43.863,29.673,44.313,30.14,44.885z"/>
</svg>
