<?xml version="1.0" encoding="utf-8"?>
<!-- Generator: Adobe Illustrator 23.0.4, SVG Export Plug-In . SVG Version: 6.00 Build 0)  -->
<svg version="1.1" id="Layer_1" xmlns="http://www.w3.org/2000/svg" xmlns:xlink="http://www.w3.org/1999/xlink" x="0px" y="0px"
	 viewBox="0 0 72 72" style="enable-background:new 0 0 72 72;" xml:space="preserve">
<style type="text/css">
	.st0{fill:#FFFFFF;}
	.st1{fill-rule:evenodd;clip-rule:evenodd;fill:#FFFFFF;}
	.st2{font-family:'Menlo-Regular';}
	.st3{font-size:46px;}
</style>
<path class="st0" d="M47,15.9c-0.6,0-1.2,0.3-1.6,0.7c-0.4,0.4-0.7,1-0.6,1.6c0,4.6,1.3,8.8,4.1,11.5c1.4,1.4,3.1,2.2,5,2.2
	c1.8,0,3.6-0.8,5-2.1c2.8-2.7,4.1-6.9,4.1-11.5l0,0c0-1.3-1-2.3-2.3-2.3s-2.3,1-2.3,2.3c0,3.6-1.3,6.8-2.7,8.2
	c-0.7,0.7-1.3,0.9-1.8,0.9s-1.1-0.2-1.8-0.9c-1.4-1.4-2.7-4.7-2.7-8.3l0,0c0-0.6-0.2-1.2-0.7-1.7C48.2,16.1,47.6,15.9,47,15.9
	L47,15.9z"/>
<path class="st0" d="M2,14.8c-1.2,0.1-2.1,1.1-2,2.3v37.8c0,1.3,1,2.3,2.3,2.3h67.4c1.3,0,2.3-1,2.3-2.3V17.1c0-1.3-1-2.3-2.3-2.3H2
	z M2.1,16.9l67.6,0.2v37.8H2.3L2.1,16.9z"/>
<path class="st0" d="M53.9,36.3c-2.3,0-4.5,1.3-6.1,3.3c-3.1,4.1-3.9,10.2-2.4,15.7l0,0c0.3,1.2,1.6,1.9,2.8,1.6
	c1.2-0.3,1.9-1.6,1.6-2.8c-1.1-4.1-0.2-9.3,1.6-11.7c0.9-1.2,1.8-1.6,2.4-1.5c0.7,0,1.5,0.3,2.4,1.6c1.8,2.5,2.7,7.7,1.5,11.7l0,0
	c-0.2,0.6-0.2,1.3,0.1,1.8c0.3,0.6,0.8,1,1.4,1.2c0.6,0.2,1.3,0.1,1.8-0.3c0.5-0.3,0.9-0.9,1-1.5c1.5-5.4,0.8-11.6-2.3-15.7
	C58.3,37.6,56.2,36.3,53.9,36.3L53.9,36.3z"/>
<path class="st1" d="M35.6,16.6v38.3h4.6V16.6H35.6z"/>
<text transform="matrix(1 0 0 1 5.3209 52.9379)" class="st0 st2 st3">1</text>
</svg>
