<?xml version="1.0" encoding="utf-8"?>
<!-- Generator: Adobe Illustrator 21.0.2, SVG Export Plug-In . SVG Version: 6.00 Build 0)  -->
<svg version="1.1" id="Layer_1" xmlns="http://www.w3.org/2000/svg" xmlns:xlink="http://www.w3.org/1999/xlink" x="0px" y="0px"
	 viewBox="0 0 72 72" style="enable-background:new 0 0 72 72;" xml:space="preserve">
<style type="text/css">
	.st0{fill:#FFFFFF;stroke:#FFFFFF;stroke-miterlimit:10;}
</style>
<g id="形状_110">
	<g>
		<path class="st0" d="M61.087,10.924C54.525,4.358,45.847,0.685,36.598,0.54v17.174c0,1.104,0.892,1.997,1.987,1.997
			c1.093,0,1.987-0.894,1.987-1.997V4.382l0.675,0.114c6.587,1.079,12.587,4.165,17.348,8.925
			c6.024,6.017,9.337,14.041,9.337,22.579s-3.313,16.554-9.337,22.579c-6.04,6.034-14.049,9.353-22.582,9.353
			s-16.543-3.318-22.575-9.353c-6.024-6.033-9.345-14.048-9.345-22.586c0-3.866,1.262-9.127,3.152-13.098
			c2.084-4.382,4.504-7.281,4.584-7.379c0.305-0.402,0.435-0.878,0.346-1.337c-0.089-0.451-0.37-0.845-0.771-1.096
			c-0.314-0.177-0.675-0.266-1.054-0.266c-0.747,0-1.455,0.354-1.873,0.951C8.444,13.8,5.95,17.014,3.828,21.759
			c-1.963,4.382-3.281,10.11-3.281,14.242c-0.009,9.473,3.682,18.374,10.373,25.076c6.698,6.695,15.602,10.384,25.068,10.384
			c9.473,0,18.384-3.689,25.1-10.384c6.683-6.695,10.367-15.595,10.367-25.077C71.452,26.519,67.77,17.61,61.087,10.924z
			 M33.06,38.69c0.128,0.169,0.273,0.354,0.426,0.564c0.338,0.475,1.994,1.418,3.289,1.418c2.574,0,4.673-2.094,4.673-4.679
			c0-1.233-0.853-2.634-1.303-3.11c-0.498-0.532-1.175-1.039-1.6-1.217l-0.048-0.017L22.123,21.339l10.318,16.385l0.017,0.048
			C32.585,38.086,32.794,38.352,33.06,38.69z"/>
	</g>
</g>
</svg>
