<svg xmlns="http://www.w3.org/2000/svg" xml:space="preserve" id="Layer_1" x="0" y="0" version="1.1" viewBox="0 0 72 72">
    <style>
        .st0{fill:#fff}
    </style>
    <path d="M47 15.9c-.6 0-1.2.3-1.6.7s-.7 1-.6 1.6c0 4.6 1.3 8.8 4.1 11.5 1.4 1.4 3.1 2.2 5 2.2 1.8 0 3.6-.8 5-2.1 2.8-2.7 4.1-6.9 4.1-11.5 0-1.3-1-2.3-2.3-2.3s-2.3 1-2.3 2.3c0 3.6-1.3 6.8-2.7 8.2-.7.7-1.3.9-1.8.9s-1.1-.2-1.8-.9c-1.4-1.4-2.7-4.7-2.7-8.3 0-.6-.2-1.2-.7-1.7-.5-.4-1.1-.6-1.7-.6" class="st0"/>
    <path d="M2 14.8c-1.2.1-2.1 1.1-2 2.3v37.8c0 1.3 1 2.3 2.3 2.3h67.4c1.3 0 2.3-1 2.3-2.3V17.1c0-1.3-1-2.3-2.3-2.3zm.1 2.1 67.6.2v37.8H2.3z" class="st0"/>
    <path d="M53.9 36.3c-2.3 0-4.5 1.3-6.1 3.3-3.1 4.1-3.9 10.2-2.4 15.7.3 1.2 1.6 1.9 2.8 1.6s1.9-1.6 1.6-2.8c-1.1-4.1-.2-9.3 1.6-11.7.9-1.2 1.8-1.6 2.4-1.5.7 0 1.5.3 2.4 1.6 1.8 2.5 2.7 7.7 1.5 11.7-.2.6-.2 1.3.1 1.8.3.6.8 1 1.4 1.2s1.3.1 1.8-.3c.5-.3.9-.9 1-1.5 1.5-5.4.8-11.6-2.3-15.7-1.4-2.1-3.5-3.4-5.8-3.4" class="st0"/>
    <path d="M35.6 16.6v38.3h4.6V16.6z" style="fill-rule:evenodd;clip-rule:evenodd;fill:#fff"/>
    <text class="st0" style="font-family:&quot;Menlo-Regular&quot;;font-size:46px" transform="translate(5.32 52.938)">1</text>
</svg>
