<?xml version="1.0" encoding="utf-8"?>
<!-- Generator: Adobe Illustrator 23.0.3, SVG Export Plug-In . SVG Version: 6.00 Build 0)  -->
<svg version="1.1" id="Layer_1" xmlns="http://www.w3.org/2000/svg" xmlns:xlink="http://www.w3.org/1999/xlink" x="0px" y="0px"
	 viewBox="0 0 288 288" style="enable-background:new 0 0 288 288;" xml:space="preserve">
<style type="text/css">
	.st0{fill-rule:evenodd;clip-rule:evenodd;fill:#FFFFFF;}
</style>
<path class="st0" d="M288,144c0,79.5-64.5,144-144,144C64.5,288,0,223.5,0,144C0,64.5,64.5,0,144,0C223.5,0,288,64.5,288,144z
	 M57.6,237.2L57.6,237.2L57.6,237.2L57.6,237.2z M144,271.1c-33.4,0-63.7-12.9-86.4-33.9h145.7c4.7,0,8.5-3.8,8.5-8.5V59.3
	c0-4.7-3.8-8.5-8.5-8.5H57.6c22.7-21,53-33.9,86.4-33.9c70.2,0,127.1,56.9,127.1,127.1C271.1,214.2,214.2,271.1,144,271.1z
	 M42.3,220.2c-4-5.3-7.6-11-10.7-16.9h137.8c4.7,0,8.5-3.8,8.5-8.5V93.2c0-4.7-3.8-8.5-8.5-8.5H31.6c3.1-5.9,6.7-11.6,10.7-16.9
	h152.5v152.5H42.3z M16.9,144c0,14.8,2.5,29.1,7.2,42.4h136.8v-84.7H24.2C19.5,114.9,16.9,129.2,16.9,144z"/>
</svg>
