<?xml version="1.0" encoding="utf-8"?>
<!-- Generator: Adobe Illustrator 23.0.3, SVG Export Plug-In . SVG Version: 6.00 Build 0)  -->
<svg version="1.1" id="Layer_1" xmlns="http://www.w3.org/2000/svg" xmlns:xlink="http://www.w3.org/1999/xlink" x="0px" y="0px"
	 viewBox="0 0 72 72" style="enable-background:new 0 0 72 72;" xml:space="preserve">
<style type="text/css">
	.st0{fill-rule:evenodd;clip-rule:evenodd;fill:#FFFFFF;}
</style>
<path class="st0" d="M33.7,67.9c-0.1-0.1-0.1-0.2-0.2-0.3c-0.5-1.1-1.2-2.2-2-3.5c-0.1-0.1-0.1-0.2-0.2-0.3c-0.8-1.3-1.8-2.8-3-4.3
	c-0.1-0.1-0.2-0.2-0.3-0.3c-1.2-1.6-2.6-3.3-4.2-5.1c-0.1-0.1-0.2-0.2-0.3-0.3c-0.8-0.9-1.7-1.8-2.6-2.8c-1.4-1.5-3-3.1-4.7-4.7
	C11.2,41.2,8.1,34.4,8.1,27C8.1,12.1,20.6,0,36,0c15.4,0,27.9,12.1,27.9,27c0,7.5-3.1,14.2-8.2,19.1C42.9,58.4,38.5,66.9,36.9,71.3
	c0,0.1,0,0.2-0.1,0.2C36.6,71.8,36.3,72,36,72c-0.3,0-0.6-0.2-0.8-0.5c0-0.1-0.1-0.2-0.1-0.2c-0.2-0.6-0.5-1.2-0.8-1.9
	C34.2,68.9,33.9,68.4,33.7,67.9L33.7,67.9z M47.7,27c0-6.2-5.2-11.3-11.7-11.3c-6.4,0-11.7,5.1-11.7,11.3c0,6.2,5.2,11.3,11.7,11.3
	C42.5,38.3,47.7,33.2,47.7,27z"/>
</svg>
