<?xml version="1.0" encoding="utf-8"?>
<!-- Generator: Adobe Illustrator 21.0.2, SVG Export Plug-In . SVG Version: 6.00 Build 0)  -->
<svg version="1.1" id="Layer_1" xmlns="http://www.w3.org/2000/svg" xmlns:xlink="http://www.w3.org/1999/xlink" x="0px" y="0px"
	 viewBox="0 0 72 72" style="enable-background:new 0 0 72 72;" xml:space="preserve">
<style type="text/css">
	.st0{fill:#FFFFFF;}
</style>
<g id="形状_105">
	<g>
		<path class="st0" d="M56.864,20.591h-6.712V3.026c0-0.957-0.798-1.74-1.774-1.74c-0.976,0-1.774,0.783-1.774,1.74V20.59H25.023
			V3.026c0-0.957-0.798-1.74-1.774-1.74s-1.774,0.783-1.774,1.74V20.59h-6.338C6.811,20.59,0,27.27,0,35.435v20.434
			c0,8.165,6.811,14.845,15.136,14.845h41.727c8.325,0,15.136-6.68,15.136-14.845V35.437C72,27.272,65.189,20.591,56.864,20.591z
			 M21.184,54.441c-5.071,0-9.191-4.042-9.191-9.014s4.12-9.014,9.191-9.014s9.191,4.042,9.191,9.014S26.255,54.441,21.184,54.441z
			 M51.005,54.667c-5.071,0-9.191-4.042-9.191-9.014s4.12-9.014,9.191-9.014s9.191,4.042,9.191,9.014S56.076,54.667,51.005,54.667z"
			/>
	</g>
</g>
</svg>
