<?xml version="1.0" encoding="utf-8"?>
<!-- Generator: Adobe Illustrator 21.0.2, SVG Export Plug-In . SVG Version: 6.00 Build 0)  -->
<svg version="1.1" id="Layer_1" xmlns="http://www.w3.org/2000/svg" xmlns:xlink="http://www.w3.org/1999/xlink" x="0px" y="0px"
	 viewBox="0 0 137.455 72" style="enable-background:new 0 0 137.455 72;" xml:space="preserve">
<style type="text/css">
	.st0{fill:#FFFFFF;}
</style>
<path class="st0" d="M137.451,21.929h-7.818c0-3.136,0.045-6.042-0.02-8.948c-0.033-1.366-0.104-2.774-0.462-4.081
	c-1.554-5.688-5.959-8.885-12.207-8.889c-34.764-0.014-69.528-0.02-104.29,0.002C5.047,0.018,0.071,4.922,0.037,12.548
	C-0.03,28.174,0.012,43.799,0.023,59.425c0.002,2.869,0.654,5.558,2.476,7.871c2.705,3.44,6.313,4.712,10.623,4.704
	c34.446-0.039,68.89-0.022,103.334-0.024c0.743,0,1.489-0.01,2.23-0.075c4.041-0.358,7.081-2.322,9.215-5.735
	c1.371-2.195,1.721-4.635,1.733-7.15c0.014-3.104,0.004-6.207,0.004-9.502h7.818V21.929H137.451z M121.692,58.879
	c0,3.786-1.397,5.207-5.142,5.207c-34.493,0.004-68.984,0.004-103.475,0c-3.664,0-5.136-1.448-5.138-5.055
	c-0.004-15.359-0.004-30.717,0-46.076c0.002-3.599,1.476-5.048,5.146-5.048c17.272-0.004,34.546-0.002,51.818-0.002
	c17.166,0,34.334-0.002,51.498,0c3.896,0,5.293,1.377,5.293,5.216L121.692,58.879z"/>
</svg>
