<?xml version="1.0" encoding="utf-8"?>
<!-- Generator: Adobe Illustrator 23.0.3, SVG Export Plug-In . SVG Version: 6.00 Build 0)  -->
<svg version="1.1" id="Layer_1" xmlns="http://www.w3.org/2000/svg" xmlns:xlink="http://www.w3.org/1999/xlink" x="0px" y="0px"
	 viewBox="0 0 72 72" style="enable-background:new 0 0 72 72;" xml:space="preserve">
<style type="text/css">
	.st0{fill:#FFFFFF;}
</style>
<path class="st0" d="M24.5,29.2l3.9,2.8l3.1-3.1l-2.8-3.9c0.7-1.1,1.3-2.6,1.5-3.9l4.8-0.9v-4.4L30.2,15c-0.4-1.3-0.9-2.8-1.5-3.9
	l2.8-3.9L28.5,4l-3.9,2.8c-1.1-0.7-2.6-1.3-3.9-1.5l-0.9-4.8h-4.4l-0.9,4.8c-1.3,0.4-2.8,0.9-3.9,1.5L6.6,4L3.5,7.1l2.8,3.9
	C5.7,12.1,5,13.7,4.8,15L0,15.9v4.4l4.8,0.9c0.4,1.3,0.9,2.8,1.5,3.9L3.5,29l3.1,3.1l3.9-2.8c1.1,0.7,2.6,1.3,3.9,1.5l0.9,4.8h4.4
	l0.9-4.8C21.9,30.5,23.2,29.9,24.5,29.2L24.5,29.2z M10.9,18.1c0-3.7,2.8-6.6,6.6-6.6s6.6,2.8,6.6,6.6c0,3.7-2.8,6.6-6.6,6.6
	S10.9,21.8,10.9,18.1z"/>
<path class="st0" d="M61.7,57.7l7.9,2.2l2.4-6.1L65.2,50c0.2-1.5,0.4-3.3,0.2-4.8l6.6-3.7l-2.6-6.1l-6.6,1.8
	c-1.1-1.8-2.4-3.1-3.7-4.2l1.8-6.3l-6.1-2.4l-3.1,5.3c-2-0.4-4.2-0.4-6.3-0.2L42.2,24l-5.9,2.8l1.5,5.7c-1.8,1.3-3.3,2.8-4.4,4.6
	l-5.9-1.5l-2.4,6.1l5.7,3.3c-0.2,2,0,3.7,0.2,5.7l-5.9,3.5l2.6,6.1l7.2-2c1.1,1.3,2.2,2.4,3.7,3.3l-2,7.4l6.1,2.4l3.9-7
	c1.3,0.2,2.8,0,4.2-0.2l4.2,7.2l6.1-2.6l-2.2-7.9C59.7,59.9,60.8,58.8,61.7,57.7L61.7,57.7z M39.4,46.5c0-4.8,3.9-8.8,8.8-8.8
	c4.8,0,8.8,3.9,8.8,8.8c0,4.8-3.9,8.8-8.8,8.8C43.3,55.3,39.4,51.3,39.4,46.5z"/>
</svg>
