<?xml version="1.0" encoding="utf-8"?>
<!-- Generator: Adobe Illustrator 21.0.2, SVG Export Plug-In . SVG Version: 6.00 Build 0)  -->
<svg version="1.1" id="Layer_1" xmlns="http://www.w3.org/2000/svg" xmlns:xlink="http://www.w3.org/1999/xlink" x="0px" y="0px"
	 viewBox="0 0 72 72" style="enable-background:new 0 0 72 72;" xml:space="preserve">
<style type="text/css">
	.st0{fill:none;stroke:#FFFFFF;stroke-width:2;stroke-miterlimit:10;}
	.st1{fill:none;stroke:#FFFFFF;stroke-width:2;stroke-linecap:round;stroke-miterlimit:10;}
</style>
<path class="st0" d="M23.489,24.697c-4.949,0-9-4.051-9-9.005c0-4.949,4.051-9,9-9s9,4.051,9,9
	C32.495,20.647,28.444,24.697,23.489,24.697z"/>
<line class="st1" x1="2.581" y1="15.695" x2="14.489" y2="15.695"/>
<line class="st1" x1="69.288" y1="15.695" x2="32.489" y2="15.695"/>
<path class="st0" d="M51.133,45.003c-4.949,0-9-4.051-9-9.005c0-4.949,4.051-9,9-9s9,4.051,9,9
	C60.139,40.952,56.088,45.003,51.133,45.003z"/>
<line class="st1" x1="2.712" y1="36" x2="41.892" y2="36"/>
<line class="st1" x1="69.419" y1="36" x2="60.133" y2="36"/>
<path class="st0" d="M11.712,65.308c-4.949,0-9-4.051-9-9.005c0-4.949,4.051-9,9-9s9,4.051,9,9
	C20.717,61.257,16.667,65.308,11.712,65.308z"/>
<line class="st1" x1="69.309" y1="56.305" x2="20.712" y2="56.305"/>
</svg>
