<?xml version="1.0" encoding="utf-8"?>
<!-- Generator: Adobe Illustrator 21.0.2, SVG Export Plug-In . SVG Version: 6.00 Build 0)  -->
<svg version="1.1" id="Layer_1" xmlns="http://www.w3.org/2000/svg" xmlns:xlink="http://www.w3.org/1999/xlink" x="0px" y="0px"
	 viewBox="0 0 72 72" style="enable-background:new 0 0 72 72;" xml:space="preserve">
<style type="text/css">
	.st0{fill:#FFFFFF;}
</style>
<path class="st0" d="M71.992,56.183c-0.005-0.156-0.011-0.314-0.016-0.471c-0.006-0.158-0.012-0.316-0.017-0.475l-0.005-0.119
	l-0.002-0.06l-0.001-0.015L71.95,54.91l0-0.006l-0.002-0.025l-0.015-0.198c-0.021-0.264-0.041-0.528-0.062-0.793l-0.016-0.2
	l-0.024-0.26c-0.016-0.173-0.033-0.346-0.049-0.518c-0.017-0.172-0.034-0.344-0.051-0.515c-0.009-0.086-0.017-0.171-0.026-0.256
	c-0.01-0.079-0.021-0.158-0.031-0.236c-0.086-0.625-0.163-1.239-0.273-1.829c-0.052-0.295-0.1-0.586-0.154-0.869
	c-0.059-0.282-0.117-0.558-0.173-0.827c-0.106-0.538-0.24-1.04-0.352-1.505c-0.029-0.116-0.057-0.23-0.085-0.34
	c-0.031-0.11-0.061-0.218-0.09-0.323c-0.059-0.21-0.115-0.409-0.168-0.595c-0.054-0.187-0.101-0.362-0.151-0.522
	c-0.051-0.16-0.098-0.307-0.14-0.44c-0.063-0.195-0.116-0.359-0.158-0.489c-0.062-0.192-0.264-0.299-0.458-0.244l-12.174,3.469
	c-0.185,0.053-0.3,0.238-0.265,0.427c0.013,0.071,0.028,0.152,0.045,0.243c0.017,0.091,0.037,0.193,0.058,0.303
	c0.02,0.11,0.035,0.231,0.055,0.359c0.02,0.128,0.04,0.264,0.062,0.408c0.011,0.072,0.023,0.145,0.033,0.221
	c0.009,0.076,0.017,0.153,0.027,0.233c0.034,0.317,0.085,0.657,0.107,1.022c0.015,0.181,0.03,0.368,0.046,0.558
	c0.012,0.191,0.018,0.386,0.028,0.584c0.026,0.395,0.021,0.806,0.029,1.221l0.002,0.155l-0.005,0.137
	c-0.003,0.091-0.006,0.183-0.009,0.274c-0.002,0.091-0.005,0.183-0.007,0.274L57.5,53.942l-0.008,0.197
	c-0.011,0.265-0.023,0.531-0.034,0.795l-0.008,0.198l-0.001,0.025l0,0.006c0,0.03-0.002-0.236-0.002-0.121l-0.001,0.01l-0.004,0.039
	l-0.007,0.078c-0.009,0.104-0.019,0.208-0.028,0.311c-0.009,0.103-0.018,0.206-0.027,0.308c-0.012,0.102-0.024,0.203-0.036,0.303
	c-0.026,0.201-0.042,0.4-0.074,0.594c-0.028,0.194-0.056,0.384-0.083,0.571c-0.032,0.185-0.064,0.367-0.094,0.543
	c-0.028,0.177-0.065,0.347-0.098,0.511c-0.035,0.164-0.062,0.324-0.098,0.475c-0.035,0.151-0.068,0.296-0.1,0.434
	c-0.016,0.068-0.031,0.134-0.046,0.199c-0.015,0.055-0.03,0.109-0.045,0.161c-0.008,0.032-0.017,0.062-0.025,0.093H71.57
	c0.2,0,0.366-0.157,0.373-0.356c0-0.001,0-0.002,0-0.004c0.012-0.277,0.025-0.562,0.038-0.853c0.006-0.291,0.011-0.588,0.017-0.89
	c0.008-0.302-0.001-0.609-0.002-0.919C71.996,56.496,71.994,56.34,71.992,56.183z"/>
<path class="st0" d="M68.121,40.557c0.2-0.08,0.291-0.312,0.199-0.506c-0.041-0.086-0.089-0.188-0.143-0.302
	c-0.051-0.107-0.108-0.226-0.169-0.356c-0.08-0.162-0.165-0.337-0.257-0.524c-0.093-0.186-0.191-0.385-0.295-0.594
	c-0.053-0.109-0.104-0.198-0.159-0.3c-0.054-0.1-0.109-0.202-0.166-0.306c-0.113-0.208-0.23-0.425-0.354-0.648
	c-0.129-0.22-0.262-0.448-0.398-0.682c-0.069-0.117-0.138-0.235-0.208-0.355c-0.074-0.118-0.148-0.237-0.223-0.358
	c-0.151-0.24-0.306-0.486-0.463-0.736c-0.332-0.489-0.662-1-1.031-1.498c-0.09-0.125-0.182-0.251-0.273-0.377l-0.137-0.189
	L63.9,32.64c-0.191-0.247-0.383-0.495-0.575-0.744c-0.195-0.245-0.397-0.486-0.595-0.727c-0.1-0.12-0.197-0.241-0.299-0.358
	c-0.102-0.117-0.204-0.233-0.306-0.349c-0.102-0.115-0.203-0.231-0.304-0.345c-0.1-0.115-0.201-0.228-0.306-0.337
	c-0.206-0.22-0.41-0.437-0.611-0.651c-0.201-0.213-0.409-0.413-0.607-0.613c-0.199-0.199-0.393-0.394-0.591-0.576
	c-0.196-0.183-0.386-0.361-0.57-0.534c-0.183-0.173-0.37-0.33-0.545-0.485c-0.176-0.154-0.344-0.301-0.504-0.441
	c-0.164-0.135-0.32-0.264-0.467-0.384c-0.147-0.12-0.284-0.233-0.411-0.337c-0.127-0.104-0.249-0.193-0.356-0.277
	c-0.156-0.12-0.288-0.221-0.392-0.301c-0.16-0.122-0.387-0.096-0.515,0.059l-6.534,7.908c-0.123,0.149-0.113,0.367,0.025,0.503
	c0.055,0.054,0.118,0.116,0.189,0.187c0.068,0.068,0.146,0.141,0.226,0.225c0.08,0.084,0.166,0.176,0.258,0.273
	c0.092,0.097,0.191,0.2,0.294,0.309c0.1,0.112,0.205,0.231,0.314,0.354c0.108,0.124,0.226,0.248,0.339,0.386
	c0.113,0.136,0.231,0.277,0.351,0.422c0.123,0.142,0.24,0.297,0.362,0.453c0.12,0.157,0.249,0.312,0.369,0.478
	c0.121,0.166,0.243,0.334,0.368,0.505c0.063,0.084,0.123,0.171,0.183,0.26c0.06,0.088,0.12,0.177,0.18,0.266
	c0.06,0.089,0.121,0.178,0.182,0.267c0.061,0.089,0.116,0.183,0.175,0.274c0.115,0.184,0.235,0.366,0.348,0.552
	c0.111,0.187,0.221,0.375,0.331,0.562l0.083,0.139l0.077,0.142c0.052,0.094,0.103,0.189,0.154,0.282
	c0.212,0.371,0.391,0.753,0.578,1.112c0.086,0.184,0.17,0.365,0.252,0.542c0.041,0.088,0.082,0.176,0.122,0.262
	c0.037,0.088,0.074,0.174,0.111,0.26c0.073,0.17,0.144,0.336,0.213,0.496c0.064,0.162,0.125,0.319,0.184,0.47
	c0.03,0.075,0.058,0.149,0.087,0.221c0.027,0.07,0.06,0.146,0.077,0.205c0.042,0.123,0.082,0.239,0.119,0.349
	c0.038,0.109,0.074,0.21,0.107,0.304c0.043,0.13,0.083,0.249,0.119,0.356c0.04,0.12,0.075,0.226,0.106,0.317
	c0.068,0.204,0.294,0.308,0.494,0.228L68.121,40.557z"/>
<path class="st0" d="M34.848,26.431c0.099,0.013,0.208,0.028,0.328,0.045c0.119,0.021,0.247,0.043,0.384,0.067
	c0.137,0.023,0.282,0.048,0.436,0.075c0.133,0.022,0.271,0.054,0.415,0.084l4.124-8.434c-0.204-0.032-0.407-0.064-0.606-0.095
	c-0.136-0.02-0.27-0.044-0.404-0.06c-0.133-0.016-0.265-0.032-0.395-0.048c-0.26-0.031-0.513-0.061-0.757-0.09
	c-0.245-0.021-0.482-0.041-0.709-0.061c-0.227-0.017-0.444-0.04-0.652-0.05c-0.207-0.01-0.404-0.02-0.589-0.029
	c-0.185-0.009-0.357-0.017-0.517-0.024c-0.16-0.003-0.306-0.005-0.439-0.007c-0.186-0.002-0.345-0.004-0.472-0.006
	c-0.201-0.002-0.368,0.155-0.377,0.356l-0.376,7.85c-0.009,0.193,0.13,0.362,0.322,0.388C34.645,26.404,34.74,26.417,34.848,26.431z
	"/>
<path class="st0" d="M45.931,30.754c0.111,0.081,0.216,0.157,0.315,0.229c0.099,0.071,0.191,0.137,0.277,0.198
	c0.037,0.025,0.098,0.072,0.148,0.109c0.051,0.038,0.101,0.075,0.147,0.11c0.101,0.076,0.191,0.143,0.268,0.2
	c0.173,0.129,0.417,0.085,0.535-0.095l5.384-8.2c0.118-0.18,0.061-0.422-0.126-0.529c-0.083-0.048-0.18-0.103-0.29-0.166
	c-0.05-0.029-0.103-0.059-0.159-0.091c-0.061-0.034-0.124-0.07-0.19-0.108c-0.153-0.084-0.319-0.176-0.496-0.273
	c-0.177-0.096-0.366-0.199-0.564-0.307c-0.189-0.095-0.388-0.194-0.596-0.299c-0.208-0.102-0.421-0.215-0.649-0.318
	c-0.227-0.104-0.462-0.212-0.703-0.322c-0.24-0.113-0.492-0.216-0.749-0.324c-0.258-0.105-0.517-0.221-0.788-0.323
	c-0.069-0.026-0.138-0.052-0.207-0.079l-2.323,10.08c0.128,0.081,0.249,0.166,0.369,0.243C45.672,30.582,45.805,30.67,45.931,30.754
	z"/>
<path class="st0" d="M27.62,26.39c0.104-0.014,0.206-0.031,0.308-0.041c0.102-0.01,0.203-0.021,0.302-0.031
	c0.198-0.021,0.391-0.041,0.577-0.06c0.187-0.013,0.368-0.025,0.541-0.036c0.087-0.006,0.171-0.012,0.254-0.017
	c0.083-0.006,0.165-0.013,0.236-0.013c0.146-0.004,0.285-0.007,0.415-0.011c0.13-0.004,0.251-0.008,0.364-0.012
	c0.139-0.001,0.266-0.002,0.381-0.003c0.127-0.001,0.238-0.001,0.334-0.002c0.215-0.001,0.384-0.183,0.37-0.398l-0.485-7.395
	c-0.014-0.215-0.206-0.373-0.419-0.346c-0.095,0.012-0.206,0.026-0.331,0.042c-0.116,0.015-0.245,0.031-0.386,0.049
	c-0.166,0.025-0.345,0.051-0.537,0.08c-0.191,0.029-0.395,0.06-0.609,0.093c-0.11,0.015-0.211,0.036-0.317,0.056
	c-0.106,0.02-0.214,0.041-0.324,0.062c-0.22,0.043-0.45,0.087-0.688,0.133c-0.236,0.054-0.48,0.109-0.731,0.166
	c-0.125,0.029-0.252,0.058-0.38,0.087c-0.128,0.03-0.257,0.067-0.387,0.1c-0.26,0.069-0.526,0.14-0.797,0.212
	c-0.268,0.081-0.54,0.163-0.815,0.246c-0.137,0.043-0.276,0.083-0.414,0.128c-0.137,0.047-0.276,0.094-0.414,0.141
	c-0.138,0.047-0.277,0.095-0.417,0.143c-0.139,0.047-0.279,0.095-0.417,0.149c-0.276,0.105-0.554,0.211-0.831,0.317
	c-0.276,0.108-0.548,0.228-0.82,0.341c-0.136,0.058-0.272,0.114-0.406,0.173c-0.133,0.061-0.266,0.123-0.398,0.184
	c-0.132,0.061-0.263,0.122-0.394,0.183c-0.131,0.06-0.261,0.12-0.388,0.186c-0.254,0.128-0.505,0.255-0.752,0.38
	c-0.247,0.124-0.482,0.26-0.716,0.386c-0.233,0.128-0.461,0.25-0.677,0.382c-0.217,0.129-0.428,0.254-0.632,0.375
	c-0.205,0.119-0.395,0.248-0.581,0.365c-0.185,0.118-0.362,0.232-0.53,0.34c-0.165,0.113-0.321,0.22-0.468,0.321
	c-0.147,0.101-0.284,0.195-0.411,0.283c-0.127,0.087-0.239,0.174-0.342,0.249c-0.14,0.103-0.26,0.192-0.356,0.263
	c-0.162,0.119-0.199,0.344-0.086,0.51l3.071,4.514c0.109,0.161,0.323,0.211,0.492,0.116c0.078-0.044,0.17-0.096,0.275-0.155
	c0.092-0.051,0.191-0.111,0.303-0.169c0.112-0.058,0.233-0.121,0.362-0.189c0.129-0.067,0.266-0.139,0.411-0.215
	c0.147-0.07,0.302-0.145,0.463-0.222c0.162-0.075,0.326-0.162,0.504-0.237c0.176-0.077,0.358-0.157,0.545-0.239
	c0.185-0.085,0.381-0.16,0.58-0.239c0.199-0.077,0.399-0.165,0.609-0.239c0.208-0.075,0.42-0.151,0.635-0.229
	c0.106-0.04,0.216-0.075,0.325-0.11c0.109-0.035,0.22-0.071,0.33-0.106c0.11-0.036,0.221-0.071,0.332-0.107
	c0.112-0.034,0.225-0.064,0.337-0.097c0.226-0.062,0.45-0.132,0.677-0.19c0.228-0.056,0.455-0.113,0.682-0.169
	c0.112-0.03,0.227-0.053,0.34-0.077c0.113-0.024,0.226-0.048,0.339-0.071c0.112-0.024,0.224-0.048,0.336-0.071
	c0.112-0.022,0.224-0.039,0.335-0.059c0.221-0.038,0.44-0.076,0.655-0.114C27.199,26.449,27.411,26.419,27.62,26.39z"/>
<path class="st0" d="M6.681,32.227c-0.08,0.114-0.161,0.228-0.242,0.343c-0.081,0.115-0.162,0.23-0.244,0.346
	c-0.081,0.116-0.157,0.236-0.236,0.354c-0.156,0.238-0.315,0.474-0.468,0.714c-0.149,0.242-0.298,0.485-0.446,0.726l-0.111,0.181
	l-0.105,0.184c-0.07,0.122-0.139,0.244-0.209,0.365c-0.283,0.481-0.53,0.974-0.78,1.441c-0.116,0.238-0.231,0.473-0.343,0.702
	c-0.056,0.115-0.111,0.228-0.165,0.34C3.281,38.037,3.23,38.15,3.18,38.26c-0.099,0.221-0.196,0.436-0.289,0.645
	c-0.087,0.211-0.171,0.414-0.252,0.61c-0.079,0.196-0.159,0.381-0.228,0.561c-0.067,0.18-0.131,0.351-0.192,0.512
	c-0.06,0.16-0.116,0.311-0.168,0.449c-0.048,0.14-0.092,0.269-0.131,0.385c-0.052,0.153-0.096,0.284-0.132,0.392
	c-0.064,0.19,0.033,0.396,0.221,0.468l2.858,1.096c0.182,0.07,0.387-0.012,0.471-0.187c0.042-0.087,0.091-0.191,0.149-0.311
	c0.047-0.099,0.1-0.208,0.157-0.327c0.061-0.117,0.127-0.244,0.197-0.379c0.07-0.135,0.144-0.279,0.223-0.43
	c0.079-0.151,0.17-0.306,0.261-0.47c0.092-0.163,0.187-0.332,0.286-0.508c0.104-0.172,0.212-0.351,0.322-0.534
	c0.055-0.091,0.111-0.184,0.168-0.278c0.059-0.092,0.12-0.185,0.181-0.28c0.122-0.188,0.246-0.38,0.373-0.575
	c0.269-0.38,0.532-0.781,0.829-1.168c0.073-0.098,0.145-0.196,0.218-0.294l0.11-0.148l0.115-0.144
	c0.153-0.192,0.306-0.385,0.46-0.578c0.156-0.191,0.318-0.376,0.476-0.564c0.08-0.093,0.157-0.188,0.238-0.278
	c0.082-0.09,0.163-0.18,0.245-0.27c0.081-0.09,0.162-0.179,0.242-0.268c0.08-0.089,0.16-0.177,0.243-0.261
	c0.164-0.17,0.326-0.338,0.486-0.503c0.159-0.165,0.325-0.318,0.482-0.473c0.158-0.154,0.311-0.305,0.469-0.444
	c0.155-0.141,0.306-0.278,0.451-0.411c0.145-0.133,0.294-0.253,0.431-0.372c0.139-0.118,0.271-0.231,0.398-0.339
	c0.124-0.098,0.242-0.191,0.352-0.279c0.11-0.087,0.213-0.169,0.308-0.245c0.044-0.036,0.103-0.079,0.153-0.117
	c0.051-0.039,0.1-0.076,0.147-0.111c0.101-0.076,0.19-0.144,0.267-0.201c0.172-0.13,0.198-0.377,0.059-0.541l-3.254-3.812
	c-0.14-0.164-0.388-0.176-0.543-0.027c-0.069,0.066-0.149,0.144-0.241,0.232c-0.042,0.04-0.086,0.083-0.132,0.127
	c-0.047,0.046-0.092,0.087-0.15,0.147c-0.112,0.113-0.232,0.234-0.361,0.364c-0.128,0.13-0.265,0.269-0.409,0.415
	c-0.134,0.145-0.274,0.297-0.421,0.456c-0.145,0.16-0.301,0.321-0.452,0.498c-0.152,0.176-0.309,0.358-0.47,0.545
	c-0.163,0.185-0.321,0.383-0.484,0.585c-0.161,0.202-0.331,0.404-0.494,0.618c-0.162,0.214-0.326,0.432-0.493,0.652
	C6.841,32,6.761,32.113,6.681,32.227z"/>
<path class="st0" d="M0.767,45.593c-0.019,0.094-0.041,0.203-0.067,0.327c-0.023,0.114-0.049,0.24-0.077,0.377
	c-0.027,0.14-0.054,0.306-0.084,0.475c-0.029,0.171-0.061,0.353-0.094,0.544c-0.016,0.095-0.034,0.194-0.049,0.294
	c-0.013,0.099-0.027,0.2-0.041,0.303c-0.053,0.413-0.124,0.858-0.164,1.333c-0.023,0.237-0.048,0.48-0.072,0.728
	c-0.02,0.249-0.034,0.504-0.051,0.762c-0.041,0.516-0.048,1.052-0.065,1.593l-0.006,0.204l0.001,0.204
	c0.001,0.136,0.002,0.273,0.002,0.41c0.001,0.137,0.002,0.274,0.002,0.411l0.001,0.206l0.008,0.206
	c0.011,0.274,0.022,0.548,0.033,0.822l0.008,0.204l0.003,0.066l0.004,0.049l0.007,0.098c0.01,0.131,0.019,0.262,0.029,0.393
	c0.01,0.13,0.019,0.26,0.029,0.389c0.013,0.135,0.026,0.269,0.039,0.402c0.013,0.133,0.026,0.266,0.039,0.397
	c0.007,0.066,0.013,0.131,0.02,0.196c0.008,0.064,0.016,0.128,0.024,0.192c0.032,0.254,0.064,0.504,0.095,0.748
	c0.038,0.243,0.074,0.482,0.11,0.713c0.033,0.232,0.076,0.456,0.116,0.672c0.003,0.017,0.007,0.034,0.01,0.052
	c0.033,0.177,0.187,0.306,0.367,0.306h1.007c0.215,0,0.386-0.181,0.373-0.396c-0.003-0.057-0.007-0.115-0.011-0.174
	c-0.013-0.209-0.028-0.424-0.033-0.647c-0.007-0.222-0.015-0.45-0.022-0.683c-0.001-0.233-0.003-0.471-0.004-0.713
	c0-0.06-0.001-0.121-0.001-0.182c0.001-0.06,0.003-0.12,0.004-0.181c0.003-0.121,0.005-0.242,0.008-0.365
	c0.003-0.122,0.005-0.245,0.008-0.369c0.006-0.129,0.012-0.26,0.018-0.39c0.006-0.131,0.012-0.262,0.018-0.393l0.005-0.099
	l0.002-0.049l0-0.006c0-0.016,0,0.014,0,0.009l0.001-0.012L2.322,55l0.015-0.191c0.02-0.255,0.041-0.511,0.061-0.767l0.016-0.192
	l0.022-0.191c0.015-0.127,0.029-0.254,0.044-0.381c0.015-0.127,0.029-0.253,0.044-0.379l0.022-0.189l0.028-0.187
	c0.077-0.498,0.142-0.988,0.237-1.457c0.045-0.235,0.085-0.466,0.131-0.691c0.05-0.224,0.099-0.443,0.147-0.657
	c0.088-0.428,0.203-0.825,0.296-1.193c0.024-0.092,0.047-0.182,0.07-0.27c0.024-0.087,0.05-0.169,0.074-0.25
	c0.048-0.162,0.094-0.315,0.137-0.459c0.044-0.145,0.08-0.275,0.122-0.406c0.044-0.133,0.085-0.255,0.121-0.365
	c0.04-0.12,0.075-0.226,0.105-0.317c0.068-0.204-0.051-0.423-0.259-0.478L1.23,45.307C1.022,45.251,0.81,45.382,0.767,45.593z"/>
<path class="st0" d="M29.354,58.682c0.822,0.402,1.692,0.592,2.549,0.592c2.151,0,4.218-1.198,5.226-3.261
	c0.194-0.397,0.344-0.835,0.442-1.248l5.88-25.52l2.239-9.719l1.387-6.02c0.161-0.701-0.396-1.178-0.955-1.178
	c-0.327,0-0.655,0.164-0.84,0.542l-2.823,5.774l-4.164,8.518l-11.61,23.746C25.275,53.791,26.47,57.272,29.354,58.682z"/>
</svg>
