<?xml version="1.0" encoding="utf-8"?>
<!-- Generator: Adobe Illustrator 23.0.4, SVG Export Plug-In . SVG Version: 6.00 Build 0)  -->
<svg version="1.1" id="Layer_1" xmlns="http://www.w3.org/2000/svg" xmlns:xlink="http://www.w3.org/1999/xlink" x="0px" y="0px"
	 viewBox="0 0 288 288" style="enable-background:new 0 0 288 288;" xml:space="preserve">
<style type="text/css">
	.st0{fill:#FFFFFF;}
</style>
<path class="st0" d="M79.2,0h-72C5.3,0,3.5,0.8,2.1,2.1C0.8,3.5,0,5.3,0,7.2v273.6c0,1.9,0.8,3.8,2.1,5.1c1.4,1.4,3.2,2.1,5.1,2.1
	h72c1.9,0,3.7-0.8,5.1-2.1c1.4-1.3,2.1-3.2,2.1-5.1V7.2c0-1.9-0.8-3.8-2.1-5.1C82.9,0.8,81.1,0,79.2,0z M43.2,259.2
	c-5.8,0-11.1-3.5-13.3-8.9c-2.2-5.4-1-11.6,3.1-15.7c4.1-4.1,10.3-5.3,15.7-3.1c5.4,2.2,8.9,7.5,8.9,13.3
	C57.6,252.7,51.2,259.2,43.2,259.2L43.2,259.2z"/>
<path class="st0" d="M280.8,201.6h-63l-117,67.6V288h180c1.9,0,3.8-0.8,5.1-2.1c1.4-1.4,2.1-3.2,2.1-5.1v-72c0-1.9-0.8-3.7-2.1-5.1
	C284.5,202.4,282.7,201.6,280.8,201.6L280.8,201.6z"/>
<path class="st0" d="M130.3,235.5L278,150.2c3.4-2,4.6-6.4,2.6-9.8l-36-62.4v0c-2-3.4-6.4-4.6-9.8-2.6l-18.1,10.4L130.3,235.5z"/>
<path class="st0" d="M219.6,37.6l-62.4-36c-3.4-2-7.8-0.8-9.8,2.6L100.8,85v172.8L222.2,47.5c1-1.6,1.2-3.6,0.7-5.5
	C222.5,40.1,221.3,38.6,219.6,37.6L219.6,37.6z"/>
</svg>
