<svg width="72" height="72" viewBox="0 0 72 72" fill="none" xmlns="http://www.w3.org/2000/svg">
<g clip-path="url(#clip0)">
<path d="M20.8822 52.9241C20.3666 53.4397 19.596 53.4397 19.0804 52.9241C18.5648 52.4085 18.5648 51.6379 19.0804 51.1223L21.9116 48.291C19.3372 45.3304 17.6647 41.4697 17.4079 37.2246H13.2904C12.5179 37.2246 12.0041 36.709 12.0041 35.9384C12.0041 35.2953 12.5197 34.6521 13.2904 34.6521H17.4079C17.6647 30.5346 19.3372 26.674 21.9116 23.7134L19.0804 20.8822C18.5648 20.3665 18.5648 19.5959 19.0804 19.0803C19.596 18.5647 20.3666 18.5647 20.8822 19.0803L23.7135 21.9115C26.6741 19.3371 30.5348 17.6646 34.6522 17.4078V13.2903C34.6522 12.5178 35.2953 12.004 35.9385 12.004C36.711 12.004 37.2247 12.5196 37.2247 13.2903V17.4078C41.4716 17.6646 45.3324 19.3371 48.2911 21.9115L51.1223 19.0803C51.638 18.5647 52.4086 18.5647 52.9242 19.0803C53.4398 19.5959 53.4398 20.3665 52.9242 20.8822L50.093 23.7134C52.6674 26.674 54.3399 30.5347 54.5967 34.6521H58.7142C59.3573 34.6521 60.0005 35.2952 60.0005 35.9384C60.0005 36.7109 59.3574 37.2246 58.7142 37.2246H54.5967C54.3399 41.4715 52.6674 45.3323 50.093 48.291L52.9242 51.1223C53.4398 51.6379 53.4398 52.4085 52.9242 52.9241C52.4086 53.4397 51.638 53.4397 51.1223 52.9241L48.2911 50.0929C45.3305 52.6673 41.4698 54.3398 37.2247 54.5966V58.7141C37.2247 59.3572 36.7091 60.0004 35.9385 60.0004C35.2954 60.0004 34.6522 59.3573 34.6522 58.7141V54.5966C30.5347 54.3398 26.6741 52.6673 23.7135 50.0929L20.8822 52.9241ZM35.9384 19.9803C27.0584 19.9803 19.8526 27.0584 19.8526 35.9364C19.8526 44.9441 27.0584 52.0222 35.9384 52.0222C44.9461 52.0222 52.0242 44.9441 52.0242 35.9364C52.0242 27.0564 44.9461 19.9803 35.9384 19.9803V19.9803Z" fill="white"/>
<circle cx="36" cy="36" r="12" fill="white"/>
</g>
<defs>
<clipPath id="clip0">
<rect width="48" height="48" fill="white" transform="translate(12 12)"/>
</clipPath>
</defs>
</svg>
