<?xml version="1.0" encoding="utf-8"?>
<!-- Generator: Adobe Illustrator 23.0.4, SVG Export Plug-In . SVG Version: 6.00 Build 0)  -->
<svg version="1.1" id="Layer_1" xmlns="http://www.w3.org/2000/svg" xmlns:xlink="http://www.w3.org/1999/xlink" x="0px" y="0px"
	 viewBox="0 0 288 288" style="enable-background:new 0 0 288 288;" xml:space="preserve">
<style type="text/css">
	.st0{fill:#FFFFFF;}
</style>
<g>
	<path class="st0" d="M53.3,245.5c-3.1,3.1-7.7,3.1-10.8,0c-3.1-3.1-3.1-7.7,0-10.8l17-17C44,200,34,176.8,32.4,151.3H7.7
		c-4.6,0-7.7-3.1-7.7-7.7c0-3.9,3.1-7.7,7.7-7.7h24.7C34,111.2,44,88,59.5,70.3l-17-17c-3.1-3.1-3.1-7.7,0-10.8
		c3.1-3.1,7.7-3.1,10.8,0l17,17C88,44,111.2,34,135.9,32.4V7.7c0-4.6,3.9-7.7,7.7-7.7c4.6,0,7.7,3.1,7.7,7.7v24.7
		c25.5,1.5,48.6,11.6,66.4,27l17-17c3.1-3.1,7.7-3.1,10.8,0c3.1,3.1,3.1,7.7,0,10.8l-17,17c15.4,17.8,25.5,40.9,27,65.6h24.7
		c3.9,0,7.7,3.9,7.7,7.7c0,4.6-3.9,7.7-7.7,7.7h-24.7c-1.5,25.5-11.6,48.6-27,66.4l17,17c3.1,3.1,3.1,7.7,0,10.8
		c-3.1,3.1-7.7,3.1-10.8,0l-17-17c-17.8,15.4-40.9,25.5-66.4,27v24.7c0,3.9-3.1,7.7-7.7,7.7c-3.9,0-7.7-3.9-7.7-7.7v-24.7
		c-24.7-1.5-47.9-11.6-65.6-27L53.3,245.5z M143.6,47.9c-53.3,0-96.5,42.5-96.5,95.7c0,54,43.2,96.5,96.5,96.5
		c54,0,96.5-42.5,96.5-96.5C240.1,90.3,197.7,47.9,143.6,47.9z"/>
	<circle class="st0" cx="144" cy="144" r="72"/>
</g>
</svg>
