<svg width="72" height="72" viewBox="0 0 72 72" fill="none" xmlns="http://www.w3.org/2000/svg">
<path d="M27 15.9994H17.0007C16.7344 15.9994 16.4794 16.1044 16.2919 16.2919C16.1044 16.4794 15.9994 16.7344 15.9994 17.0006V54.9993C15.9994 55.2656 16.1044 55.5206 16.2919 55.7081C16.4794 55.8957 16.7344 56.0006 17.0007 56.0006H27C27.2644 56.0006 27.5194 55.8956 27.7069 55.7081C27.8944 55.5206 27.9994 55.2656 27.9994 54.9993V17.0006C27.9994 16.7344 27.8944 16.4794 27.7069 16.2919C27.5194 16.1043 27.2644 15.9994 27 15.9994V15.9994ZM21.9994 51.9994C21.1913 51.9994 20.4619 51.5119 20.1525 50.7656C19.8431 50.0175 20.0137 49.1568 20.5856 48.585C21.1575 48.0131 22.0181 47.8425 22.7662 48.1519C23.5125 48.4612 24 49.1906 24 50.0006C23.9981 51.1031 23.1037 51.9994 21.9993 51.9994L21.9994 51.9994Z" fill="white"/>
<path d="M54.9994 44.0007H46.2523L30 53.3832V56.0007H54.9994C55.2656 56.0007 55.5206 55.8957 55.7081 55.7082C55.8957 55.5207 56.0006 55.2657 56.0006 54.9994V45.0001C56.0006 44.7357 55.8956 44.4807 55.7081 44.2932C55.5206 44.1056 55.2656 44.0007 54.9994 44.0007V44.0007Z" fill="white"/>
<path d="M34.0968 48.7089L54.6072 36.8664C55.0854 36.5908 55.2503 35.9795 54.9747 35.4995L49.9741 26.8389V26.8407C49.6985 26.3626 49.0872 26.1976 48.6072 26.4732L46.0966 27.9226L34.0968 48.7089Z" fill="white"/>
<path d="M46.5 21.2251L37.8394 16.2245C37.3612 15.9489 36.75 16.112 36.4743 16.5901L30.0001 27.8043V51.8043L46.8659 22.5901C46.999 22.3614 47.0346 22.0876 46.9671 21.8326C46.8977 21.5757 46.7309 21.3564 46.5002 21.2251L46.5 21.2251Z" fill="white"/>
</svg>
