<?xml version="1.0" encoding="utf-8"?>
<!-- Generator: Adobe Illustrator 21.0.2, SVG Export Plug-In . SVG Version: 6.00 Build 0)  -->
<svg version="1.1" id="Layer_1" xmlns="http://www.w3.org/2000/svg" xmlns:xlink="http://www.w3.org/1999/xlink" x="0px" y="0px"
	 viewBox="0 0 72 72" style="enable-background:new 0 0 72 72;" xml:space="preserve">
<style type="text/css">
	.st0{fill:#FFFFFF;stroke:#FFFFFF;stroke-miterlimit:10;}
</style>
<g id="形状_111">
	<g>
		<path class="st0" d="M64.286,54.779c-0.398-0.297-0.804-0.36-1.075-0.36c-0.567,0-1.089,0.262-1.432,0.718
			c-6.117,8.103-15.458,12.75-25.627,12.75c-17.662,0-32.031-14.306-32.031-31.888c0-17.586,14.37-31.892,32.031-31.892
			c0.988,0,1.791-0.801,1.791-1.786c0-0.982-0.804-1.781-1.791-1.781C16.515,0.538,0.539,16.446,0.539,36
			c0,19.553,15.976,35.46,35.614,35.46c11.313,0,21.699-5.172,28.495-14.191c0.286-0.378,0.407-0.844,0.34-1.313
			C64.919,55.484,64.67,55.065,64.286,54.779z M35.885,18.323c-0.989,0-1.794,0.801-1.794,1.786v20.019
			c0,0.985,0.805,1.786,1.794,1.786H50.27c0.48,0,0.931-0.186,1.27-0.524c0.337-0.336,0.522-0.782,0.521-1.258
			c0-0.985-0.804-1.786-1.791-1.786H37.674V20.109C37.674,19.125,36.871,18.323,35.885,18.323z M49.225,3.119
			c-0.218-0.089-0.445-0.134-0.676-0.134c-0.73,0-1.38,0.437-1.654,1.115c-0.369,0.912,0.072,1.956,0.985,2.329
			c12.147,4.907,19.996,16.514,19.996,29.57c0,2.792-0.368,5.581-1.095,8.29c-0.125,0.461-0.061,0.943,0.178,1.355
			c0.238,0.411,0.623,0.703,1.081,0.824l0.031,0.008c0.136,0.038,0.285,0.058,0.441,0.058c0.809,0,1.521-0.547,1.732-1.328
			c0.808-2.991,1.217-6.087,1.217-9.207C71.461,21.485,62.733,8.579,49.225,3.119z"/>
	</g>
</g>
</svg>
