<?xml version="1.0" encoding="utf-8"?>
<!-- Generator: Adobe Illustrator 22.1.0, SVG Export Plug-In . SVG Version: 6.00 Build 0)  -->
<svg version="1.1" id="Layer_1" xmlns="http://www.w3.org/2000/svg" xmlns:xlink="http://www.w3.org/1999/xlink" x="0px" y="0px"
	 viewBox="0 0 72 72" style="enable-background:new 0 0 72 72;" xml:space="preserve">
<style type="text/css">
	.st0{fill:#FFFFFF;stroke:#FFFFFF;stroke-miterlimit:10;}
</style>
<path class="st0" d="M64.286,54.779c-0.398-0.297-0.804-0.36-1.075-0.36c-0.567,0-1.089,0.262-1.432,0.718
	c-6.117,8.103-15.458,12.75-25.627,12.75c-17.662,0-32.031-14.306-32.031-31.888c0-17.586,14.37-31.892,32.031-31.892
	c0.988,0,1.791-0.801,1.791-1.786c0-0.982-0.804-1.781-1.791-1.781C16.515,0.538,0.539,16.446,0.539,36
	c0,19.553,15.976,35.46,35.614,35.46c11.313,0,21.699-5.172,28.495-14.191c0.286-0.378,0.407-0.844,0.34-1.313
	C64.919,55.484,64.67,55.065,64.286,54.779z"/>
<path class="st0" d="M40.251,10.651c-1.215,0-2.204,0.984-2.204,2.195l-5.763,26.95c-0.036,0.167-0.028,0.347,0.053,0.498
	c0.311,0.584,0.8,1.099,2.027,1.544l14.182,5.327c0.874,0.122,1.144-0.229,1.56-0.644c0.414-0.413,0.642-0.961,0.64-1.546
	c0-1.211-0.898-1.766-2.201-2.195l-11.984-5.327l5.888-24.607C42.45,11.637,41.463,10.651,40.251,10.651z"/>
<path class="st0" d="M49.225,3.119c-0.218-0.089-0.445-0.134-0.676-0.134c-0.73,0-1.38,0.437-1.654,1.115
	c-0.369,0.912,0.072,1.956,0.985,2.329c12.147,4.907,19.996,16.514,19.996,29.57c0,2.792-0.368,5.581-1.095,8.29
	c-0.125,0.461-0.061,0.943,0.178,1.355c0.238,0.411,0.623,0.703,1.081,0.824l0.031,0.008c0.136,0.038,0.285,0.058,0.441,0.058
	c0.809,0,1.521-0.547,1.732-1.328c0.808-2.991,1.217-6.087,1.217-9.207C71.461,21.485,62.733,8.579,49.225,3.119z"/>
</svg>
