<?xml version="1.0" encoding="utf-8"?>
<!-- Generator: Adobe Illustrator 22.1.0, SVG Export Plug-In . SVG Version: 6.00 Build 0)  -->
<svg version="1.1" id="Layer_1" xmlns="http://www.w3.org/2000/svg" xmlns:xlink="http://www.w3.org/1999/xlink" x="0px" y="0px"
	 width="72px" height="72px" viewBox="0 0 72 72" style="enable-background:new 0 0 72 72;" xml:space="preserve">
<style type="text/css">
	.st0{fill:url(#SVGID_1_);}
	.st1{fill:url(#SVGID_2_);}
</style>
<g>
	<g>
		<linearGradient id="SVGID_1_" gradientUnits="userSpaceOnUse" x1="0.1798" y1="96.6939" x2="104.6479" y2="36.3792">
			<stop  offset="0.1569" style="stop-color:#FDF280"/>
			<stop  offset="0.2474" style="stop-color:#FCE876"/>
			<stop  offset="0.4" style="stop-color:#FACE5C"/>
			<stop  offset="0.595" style="stop-color:#F8A431"/>
			<stop  offset="0.6632" style="stop-color:#F69321"/>
		</linearGradient>
		<path class="st0" d="M59.513,51.117l-11.5,6.561l4.269,10.317c0.829,2.002,2.782,3.308,4.949,3.308h5.772
			c2.377,0,3.989-2.416,3.067-4.607C63.562,60.738,59.513,51.117,59.513,51.117z"/>
		<linearGradient id="SVGID_2_" gradientUnits="userSpaceOnUse" x1="-19.6426" y1="62.6158" x2="84.8255" y2="2.3011">
			<stop  offset="0.1569" style="stop-color:#FDF280"/>
			<stop  offset="0.2474" style="stop-color:#FCE876"/>
			<stop  offset="0.4" style="stop-color:#FACE5C"/>
			<stop  offset="0.595" style="stop-color:#F8A431"/>
			<stop  offset="0.6632" style="stop-color:#F69321"/>
		</linearGradient>
		<path class="st1" d="M65.09,41.809c-11.261,3.586-28.482,9.07-36.318,11.567c-1.595,0.508-3.056-1.07-2.427-2.621
			c1.976-4.873,5.351-13.197,7.432-18.33c0.668-1.648,2.994-1.649,3.676-0.007l4.709,11.351c0.399,0.962,1.471,1.457,2.464,1.142
			c2.987-0.951,5.925-1.886,8.741-2.781c1.112-0.354,1.679-1.582,1.233-2.66L39.687,3.486c-1.548-3.735-6.846-3.714-8.365,0.032
			L5.61,66.937c-0.835,2.06,0.673,4.312,2.897,4.325l7.853,0.042c1.081,0.005,2.145-0.273,3.085-0.809l46.58-26.548
			C67.247,43.25,66.431,41.382,65.09,41.809z"/>
	</g>
</g>
</svg>
