<?xml version="1.0" encoding="utf-8"?>
<!-- Generator: Adobe Illustrator 21.1.0, SVG Export Plug-In . SVG Version: 6.00 Build 0)  -->
<svg version="1.1" id="Layer_1" xmlns="http://www.w3.org/2000/svg" xmlns:xlink="http://www.w3.org/1999/xlink" x="0px" y="0px"
	 width="1152px" height="1152px" viewBox="0 0 1152 1152" style="enable-background:new 0 0 1152 1152;" xml:space="preserve">
<style type="text/css">
	.st0{fill:url(#SVGID_1_);}
	.st1{fill:#FFFFFF;stroke:#000000;stroke-width:2;stroke-miterlimit:2;}
	.st2{fill:#FFFFFF;}
	.st3{fill:none;stroke:#000000;stroke-width:2;stroke-miterlimit:2;}
</style>
<linearGradient id="SVGID_1_" gradientUnits="userSpaceOnUse" x1="576" y1="756" x2="576" y2="518.8609">
	<stop  offset="0" style="stop-color:#FFFFFF"/>
	<stop  offset="1" style="stop-color:#A3A3A3"/>
</linearGradient>
<polygon class="st0" points="629.686,526.859 677.094,518.861 1116,651.64 474.895,756 36,623.981 443.968,556.81 "/>
<g>
	<path class="st1" d="M450.862,450.475l59.279,5.175c0,0,1.763,1.028,2.168,1.135c0.405,0.107-11.724,6.746-11.724,6.746
		s-0.319,1.528-1.993,2.023c-1.674,0.495-42.944,12.719-42.944,12.719s-2.531-1.585-3.945-1.235c-1.414,0.35-1.99-3.573-1.99-3.573
		s1.579-8.931,1.647-12.393c0.011-0.566-0.515-10.582-1.026-19.961c-0.444-8.137-0.876-15.794-0.937-16.382
		c-0.655-6.321-2.957-24.898-3.936-26.743c-0.979-1.845-4.079-1.162-4.63-0.121c-0.551,1.042-1.882,19.214-1.458,23.684
		c0.423,4.47,1.432,30.074,2.187,37.091c0.755,7.017,2.457,16.729,2.457,16.729s-3.386-2.064-5.449-1.631
		c-2.064,0.433-5.572-0.451-7.272,0.452c-1.701,0.903-7.207,4.578-7.355,7.711c-0.148,3.133-1.361,11.449,0.044,13.759
		s3.495,5.661,6.225,6.381s6.084,2.185,8.112,1.27c2.028-0.915,5.301-0.703,5.301-0.703s-0.924,2.198-2.215,6.313
		s-2.185,8.671-1.771,12.93c0.414,4.26,2.388,21.244,2.388,21.244l4.457,29.945c0,0,2.876,13.014,3.419,13.078
		c0.542,0.064,4.3-0.126,5.194-1.28c0.894-1.154,2.467-20.915,2.656-27.379c0.189-6.464-0.06-33.07-0.469-37.798
		c-0.408-4.729-2.648-14.701-3.147-17.322s-0.499-2.621-0.499-2.621s1.82-1.511,2.325-3.329c0.504-1.819,1.779-4.787,1.521-6.498
		s44.665-14.52,44.665-14.52s5.844-0.436,7.081-0.704c1.236-0.269,4.394-0.375,4.918,0.228s6.582,3.857,9.084,3.942
		c2.503,0.085,10.422,0.633,10.759,1.508c0.337,0.874,5.282,10.071,5.62,13.44s3.329,7.534,2.667,11.28
		c-0.662,3.746-1.19,13.879-1.19,13.879l-1.99,20.025c0,0-0.561,5.527-0.118,6.261c0.443,0.734,0.117,2.506,0.117,2.506
		l-14.845,67.288c0,0-0.685-0.101-2.237,3.86c-1.552,3.961-3.229,9.18-5.927,10.852c-2.697,1.672-7.42,6.417-7.684,10.334
		s-0.134,6.702-0.134,6.702s-15.11,3.344-20.586,4.6c-5.477,1.255-23.525,6.042-26.033,6.957s-3.991,2.322-4.109,3.509
		c-0.118,1.187-1.437,3.887-0.337,3.995c1.1,0.109,18.684,0.283,24.665-0.378c5.981-0.66,18.498-2.08,22.015-2.798
		c3.517-0.718,7.406-1.66,9.591-2.785c2.186-1.125,4.956,0.869,7.906,0.559c2.95-0.31,4.768,0.927,7.209-0.085
		c2.441-1.012,5.377,0.086,7.199-0.424c1.822-0.51,3.821-1.364,4.829-2.594c1.009-1.23,2.366-3.566,2.366-3.566l7.061-0.238
		c0,0,2.385,0.699,6.458,0.263c4.073-0.436,21.824-3.684,21.824-3.684l20.241-5.502c0,0,11.233-3.372,11.918-4.189
		s1.812-3.218,0.984-5.175c-0.828-1.957-7.41-2.959-14.794-2.662c-7.385,0.297-26.521,1.732-31.226,2.272
		c-4.705,0.54-10.637,0.836-13.601,2.33s-7.451,6.56-8.783,5.905c-1.332-0.655-4.204-1.492-6.198-3.838s-2.796-1.319-3.125-3.747
		c-0.329-2.429-0.326-16.381-0.326-16.381l3.679-17.802l10.451-46.796l1.399-6.055c0,0,1.048,0.07,1.93-1.697
		s8.451-18.355,8.451-18.355s2.336-0.831,3.52-0.987c1.184-0.156,9.539-0.598,13.18-1.028c3.64-0.43,10.357-1.642,12.991-2.566
		c2.633-0.924,8.92-3.492,10.737-3.492s3.131,1.51,4.482,0.842c1.351-0.667,3.569,0.394,3.569,0.394l8.95,10.022
		c0,0,3.062,3.835,4.367,4.35c1.305,0.515,3.013,2.097,3.013,2.097l42.195,57.971c0,0-0.452,0.963,0.45,2.412
		c0.901,1.449,3.596,6.53,4.463,8.44c0.866,1.911,1.031,5.584,0.896,7.656c-0.134,2.072-1.033,3.013-1.033,3.013
		s-17.07,3.751-22.004,5.019c-4.934,1.269-16.891,4.515-20.603,5.833c-3.712,1.318-10.817,2.903-10.938,4.386
		c-0.121,1.483-1.837,5.373,1.499,6.069c3.336,0.696,25.06,0.134,30.839-0.458c5.779-0.592,26.039-3.49,28.865-4.224
		c2.826-0.735,2.515-2.468,5.534-1.689c3.019,0.779,8.019,1.401,10.01,0.998c1.992-0.403,5.079,0.337,7.34-0.567
		s3.243-0.929,4.655-2.78c1.412-1.85,2.36-4.11,3.261-4.356c0.901-0.246,3.42,0.135,5.385,0.507
		c1.965,0.373,7.365,0.66,12.086-0.145c4.721-0.805,25.079-4.951,25.079-4.951l15.118-3.827c0,0,12.956-3.598,13.471-4.701
		c0.515-1.103,0.646-6.126-0.535-6.168c-1.181-0.043-21.461,0.79-26.614,1.401c-5.154,0.611-25.274,3.665-29.882,5.112
		s-9.77,3.284-11.445,3.555c-1.675,0.271-4.287-0.446-5.916-1.532c-1.628-1.087-5.106-4.746-6.212-5.222
		c-1.106-0.476-3.204-3.474-4.402-3.895c-1.199-0.422-5.822-1.858-8.717-3.432s-16.31-16.577-16.31-16.577l-40.57-54.237
		c0,0,0.722-2.137,0.661-2.486c-0.062-0.349-9.279-19.238-9.279-19.238l3.698-4.068l-5.474-13.807c0,0,2.462-4.509,2.695-7.456
		c0.233-2.947,2.634-9.642,3.098-12.288s2.758-5.867,3.569-6.215c0.811-0.348,15.11-6.124,15.11-6.124s2.026-0.219,2.297-1.592
		c0.271-1.373,0.477-4.841,0.477-4.841l19.016-5.079l1.349-1.431l72.352-5.088l2.651,0.532c0,0,9.293-0.677,10.77-0.074
		c1.478,0.603,5.88,4.117,7.207,4.537c1.327,0.419,5.065,1.725,7.175,1.947c2.11,0.222,6.375-0.652,6.375-0.652l3.984-0.097
		c0,0,0.332,4.355-0.205,7.298c-0.537,2.943,0.081,22.715-0.228,29.002c-0.309,6.287,1.916,34.906,2.98,38.611
		s1.641,8.099,2.375,8.326s2.985,0.702,3.627,0.121c0.641-0.581,2.949-33.394,2.494-37.487c-0.455-4.093-1.211-25.53-1.425-27.454
		c-0.214-1.924-3.599-12.489-3.262-12.917c0.337-0.427-0.25-5.702,1.203-7.272c1.453-1.571,4.978-4.032,5.049-7.777
		c0.071-3.744-2.218-8.966-2.897-9.49s-2.355-1.324-2.355-1.324s2.522-10.271,2.522-15.027c0-4.756-1.136-33.803-2.13-38.737
		s-4.104-29.577-5.142-30.487c-1.039-0.91-3.191-1.406-4.378-1.291c-1.187,0.115-2.157,0.222-2.359,1.803
		c-0.201,1.58-2.216,18.987-2.597,26.457c-0.381,7.47-1.08,24.128-1.088,30.696c-0.008,6.568,0.214,11.993,0.833,13.744
		c0.62,1.752,2.069,5.04,2.069,5.04s-5.234-0.571-7.398-0.281s-7.744,2.552-9.139,4.024c-1.395,1.472-4.315,4.449-5.636,4.94
		c-1.321,0.491-11.913,2.876-11.913,2.876l-3.527,1.027l-68.141,4.445c0,0-2.538-1.226-4.852-0.818
		c-2.314,0.408-16.085-0.276-16.085-0.276s-0.468-2.914-2.279-3.243c-1.811-0.329-17.435-2.784-17.435-2.784l-6.511-17.383
		c0,0,2.828-12.986,3.572-17.02c0.183-0.99-1.779-2.076-2.732-2.956c-0.952-0.88-1.563-1.205-1.409-1.653
		c1.203-3.487,8.463-20.785,8.463-20.785l0.045-2.53l42.635-62.659c0,0,1.606-0.337,2.352-1.264c0.746-0.927,6.45-7.22,7.335-7.917
		c0.885-0.696,3.997-3.477,5.488-3.769c1.491-0.292,2.85,0.441,4.744,0.001c1.894-0.44,4.001-0.516,4.001-0.516
		s2.107,0.427,3.675-0.252s2.341-1.17,2.341-1.17s2.141,1.719,3.544,3.561c1.404,1.842,6.9,6.275,13.629,9.156
		s27.031,11.036,30.098,11.976s12.746,3.989,13.407,3.229c0.661-0.76,3.092-5.346,2.453-6.075
		c-0.639-0.729-15.559-11.612-19.871-14.216c-4.312-2.604-18.276-10.195-21.823-11.697c-3.547-1.502-9.416-2.971-11.063-3.525
		c-1.647-0.554-5.219-0.661-5.463-2.124s-3.453-7.513-4.898-8.175s-4.474-3.373-5.839-4.309c-1.365-0.936-4.16-4.098-7.217-4.495
		s-7.328,1.171-8.858,0.091s-17.583-8.781-21.379-10.353c-3.797-1.573-16.002-6.272-19.906-7.223
		c-3.904-0.951-7.679-1.885-7.911-1.667c-0.232,0.218-2.308,5.647-0.704,6.965s16.004,11.286,20.921,14.157
		c4.916,2.871,16.968,9.165,16.968,9.165l1.061,0.581c0,0-0.965,3.577-0.932,4.745c0.033,1.168,1.151,4.172,0.137,7.338
		c-1.014,3.166-5.302,12.407-5.302,12.407l0.049,1.508l-41.35,61.562l-2.224,0.685l-15.051,16.991c0,0-2.553-0.618-3.513-0.297
		c-0.959,0.321-2.462,0.603-2.462,0.603s-9.268-1.965-10.556-1.968c-1.288-0.003-1.645-32.149-1.645-32.149s4.125-0.175,4.931-1.071
		c0.806-0.896,0.057-17.581,0.189-20.464c0.132-2.883,1.288-13.917-0.244-15.529c-1.532-1.612-5.773-2.892-8.706-2.78
		c-2.933,0.112-8.739,0.484-9.43,2.165s-1.008,7.999-0.754,11.505s0.581,24.504,0.581,24.504s1.7,1.576,3.68,1.683
		c1.98,0.107,1.98,0.107,1.98,0.107l0.513,32.826c0,0-7.486,1.072-10.682,2.791s-8.084,5.053-10.033,5.129s-6.508-5.907-6.508-5.907
		l-4.438-5.458l-17.656-50.085c0,0,1.236-2.412,0.894-3.827c-0.343-1.414-1.203-3.185-1.203-3.185s4.348-0.522,5.336-1.785
		c0.988-1.264,3.779-3.06,3.643-5.028s0.785-4.587,0.785-4.587l7.015-4.136c0,0,9.624-6.041,13.415-9.176
		c3.791-3.135,22.245-20.223,22.245-20.223l14.611-14.509c0,0,3.769-2.911,3.936-4.528c0.167-1.617-1.363-5.804-2.045-6.086
		c-0.682-0.281-18.953,10.014-18.953,10.014l-25.896,17.785c0,0-10.62,7.788-12.119,9.687c-1.499,1.9-4.367,12.045-6.891,11.658
		c-2.525-0.386-4.794-2.478-5.397-3.185s-3.062-3.677-6.613-4.262c-3.551-0.585-7.693-0.113-10.577,1.685
		c-2.884,1.798-6.446,4.54-7.116,8.638c-0.67,4.097-1.404,9.603,0.112,11.7s6.725,5.05,6.976,4.874
		c0.251-0.176-13.113,9.28-16.178,11.719c-3.064,2.438-13.667,11.07-19.752,16.654c-6.084,5.584-16.814,14.853-17.283,16.654
		c-0.469,1.801-0.263,4.978,0.455,5.439c0.718,0.46,15.164-8.162,19.253-11.112c4.088-2.95,12.652-9.246,20.04-15.244
		c7.388-5.998,11.074-8.964,13.437-11.826c2.363-2.862,5.474-7.037,5.474-7.037s1.104,1.51,1.684,2.744s1.263,3.054,2.482,3.391
		s16.458,50.268,16.458,50.268s-1.064,2.215-0.43,3.893c0.633,1.678,3.446,15.252,3.446,15.252l0.466,2.41l-3.808,1.02l1.431,15.178
		l-1.236,5.976l-2.341,10.722c0,0-0.192,7.252-0.899,7.161c-0.707-0.09-5.979-0.419-7.286,0.948
		c-1.307,1.368-3.456,4.553-5.269,4.441s-32.823-1.79-32.823-1.79l-24.866-2.264l-12.511-0.871"/>
	<path class="st1" d="M440.132,439.914l-20.424-2.197c0,0-5.215-1.541-6.082-1.62c-0.867-0.079-3.866-0.121-5.497-0.491
		s-5.411-3.026-5.411-3.026s-1.826-1.643-1.899-3.685c-0.073-2.042-0.856-52.428-0.856-52.428s3.551-0.231,4.508-1.097
		c0.958-0.866,0.567-19.517,0.63-23.081c0.063-3.565,0.031-13.104-0.832-13.773c-0.863-0.669-5.54-2.431-10.03-1.845
		c-4.49,0.587-8.384,1.148-8.29,3.992c0.094,2.844,0.447,34.138,0.447,34.138l5.795,1.788l0.469,53.508
		c-1.059,1.75-0.581,25.211-0.581,25.211c1.384,2.809,2.112,53.192,2.112,53.192s-3.713,0.116-4.697,1.103s-0.984,5.044-0.984,5.044
		l0.617,30.077c0,0-0.66,3.05,4.466,3.393s10.518,0.323,12.152-0.677s2.384-1.656,2.415-3.012
		c0.031-1.356-0.617-34.135-0.617-34.135s-2.502-2.26-3.348-2.02c-0.846,0.241-2.124,0.104-2.124,0.104l-0.869-52.305
		c0,0,1.33-0.357,1.415-1.279s1.107-4.327,2.225-5.243c1.118-0.916,2.72-2.065,4.39-1.797c1.67,0.268,31.505,1.614,31.505,1.614"/>
	<path class="st1" d="M571.593,514.707c0,0-10.22-7.967-11.733-11.527c-1.513-3.56-1.273-16.305-0.843-20.224
		c0.43-3.919,2.598-37.4,4.116-49.8c0.994-8.125,5.042-30.585,5.497-32.279c0.736-2.74,1.599-5.949,3.289-7.585
		c2.491-2.411,10.696-5.281,12.925-5.571s14.746-1.099,17.861,2.012c8.626,8.617,11.513,29.519,15.324,47.025
		s3.69,31.827,3.682,36.679c-0.008,4.852,0.016,10.255-0.916,13.432c-0.932,3.177-0.554,2.947-3.24,7.152
		c-2.686,4.205-8.108,10.493-8.969,11.631s0.441-13.871,0.441-13.871s4.336-5.48,6.37-9.304c2.034-3.824,3.741-6.822,3.004-16.99
		c-0.736-10.168-3.495-29.666-5.894-39.857c-2.399-10.191-6.124-23.869-9.635-26.675s-13.034-1.536-17.854-0.454
		c-4.819,1.083-10.031,1.514-12.9,6.726c-2.67,4.851-4.372,29.116-4.372,29.116s-3.753,36.555-3.999,40.064
		c-0.247,3.509-0.417,10.959,1.321,13.188c1.738,2.229,9.6,8.199,9.805,8.843c0.206,0.644-0.702,10.828-1.017,12.966
		C573.542,511.54,573.063,515.576,571.593,514.707z"/>
	<path class="st1" d="M580.229,519.274c-0.9-0.526-1.578-1.273-1.666-2.643s1.056-19.075,1.458-22.267
		c0.402-3.192,1.141-6.924,1.713-8.562c0.723-2.072,1.829-2.773,3.29-3.464c1.461-0.691,7.617-2.768,10.828-3.111
		c3.211-0.343,8.52-0.535,9.983,0c2.389,0.874,3.278,2.799,3.15,4.12c-0.129,1.321-0.172,2.315-0.466,6.42
		c-0.295,4.105-0.949,17.486-1.401,19.501c-0.451,2.015-1.083,4.438-2.588,5.417c-1.505,0.979-3.529,2.806-8.847,3.651
		c-5.318,0.846-7.881,1.173-10.155,1.365C584.063,519.825,580.836,519.629,580.229,519.274z"/>
	<g>
		<line class="st2" x1="591.572" y1="412.76" x2="591.572" y2="472.603"/>
		<g>
			<line class="st3" x1="591.572" y1="426.881" x2="591.572" y2="472.603"/>
			<g>
				<polygon points="591.572,412.76 583.441,432.658 591.572,427.936 599.701,432.658 				"/>
			</g>
		</g>
	</g>
</g>
</svg>
