<?xml version="1.0" encoding="utf-8"?>
<!-- Generator: Adobe Illustrator 22.0.1, SVG Export Plug-In . SVG Version: 6.00 Build 0)  -->
<svg version="1.1" id="Layer_1" xmlns="http://www.w3.org/2000/svg" xmlns:xlink="http://www.w3.org/1999/xlink" x="0px" y="0px"
	 width="288px" height="144.29px" viewBox="0 0 288 144.29" style="enable-background:new 0 0 288 144.29;" xml:space="preserve">
<style type="text/css">
	.st0{fill:#FFFFFF;stroke:#000000;stroke-width:2;stroke-miterlimit:2;}
	.st1{fill:#FF9915;stroke:#000000;stroke-width:0.25;stroke-miterlimit:2;}
	.st2{fill:none;stroke:#009444;stroke-width:8;stroke-miterlimit:10;}
	.st3{fill:#009444;}
</style>
<polygon class="st0" points="143.012,72.435 144.826,71.454 144.763,72.836 "/>
<path class="st1" d="M248.932,17.454c0,0-2.327-0.494-2.696-0.471c-0.369,0.023-1.619,0.49-2.444,0.77
	c-0.826,0.279-4.207,1.699-4.8,1.967c-0.593,0.269-3.973,2.099-4.321,2.374c-0.349,0.274-0.409,0.604-0.656,0.999
	c-0.247,0.394-0.364,0.707-0.364,0.707s-0.931,0.093-1.267,0.136c-0.336,0.043-1.383,0.314-2.017,0.567
	c-0.634,0.253-0.793,0.754-0.793,0.754l0.049,2.959l-4.51,2.7c0,0-4.15,2.731-4.846,3.174c-0.696,0.441-1.119,1.457-1.119,1.587
	c-0.001,0.129,0.581-0.087,1.191-0.124s2.036-0.61,2.511-0.827c0.476-0.217,2.264-1.24,2.723-1.511
	c0.457-0.271,3.013-1.89,3.013-1.89l0.047,2.474c0,0-0.439,0.139-0.72,0.291c-0.281,0.153-1.187,0.53-1.493,0.663
	c-0.306,0.134-1.724,0.73-2.33,0.851c-0.606,0.121-2.159,0.77-2.387,0.906c-0.229,0.136-0.693,0.679-0.693,0.679l-19.866,5.664
	l-12.381,3.429c0,0-0.476-0.164-0.869-0.283c-0.391-0.119-2.296,0.136-2.924,0.107c-0.627-0.029-3.001,0.253-3.494,0.21
	c-0.493-0.044-2.25-0.159-2.25-0.159l-0.229-0.537l0.687-0.574c0,0,1.323-0.964,1.49-1.231c0.167-0.267,0.234-0.813,0.234-0.813
	l9.256-5.306l3.571-0.13c0,0,11.526,0.021,12.507,0.029c0.983,0.007,2.007,0.011,1.921-0.134c-0.086-0.146-1.463-0.304-2.287-0.407
	c-0.824-0.103-4.434-0.403-4.847-0.434c-0.413-0.031-8.11-0.504-8.11-0.504l11.899-6.82c0,0,0.273,0.037,0.603,0.056
	c0.329,0.019,0.529-0.093,0.891-0.261c0.363-0.17,1.566-0.747,1.987-0.94c0.421-0.194,1.71-0.66,2.28-0.841
	c0.57-0.181,1.413-0.339,1.413-0.339s0.271,0.074,0.783,0.24c0.511,0.164,2.18,0.073,2.996,0.086
	c0.816,0.013,1.796-0.453,2.243-0.544c0.447-0.09,1.699-1.093,1.979-1.213c0.281-0.12,0.364-0.584,0.364-0.584
	s0.107-0.253,0.254-0.421c0.146-0.169,0.244-0.827,0.244-0.827s0.099-0.199,0.387-0.484c0.29-0.286,0.483-0.753,0.54-1.094
	c0.057-0.341-0.03-2.317-0.147-2.564c-0.117-0.247-0.887-0.401-0.887-0.401s-0.14-3.846-0.15-4.134
	c-0.01-0.289-1.084-0.681-1.084-0.681l-0.134-1.923c0,0,1.173,0.456,1.606,0.707c0.433,0.251,0.94,0.486,1.139,0.546
	c0.199,0.06,2.644,0.371,3.31,0.409c0.666,0.037,2.813-0.047,3.871-0.044c1.059,0.001,8.163,0.251,8.163,0.251
	s7.714,0.713,7.961,0.489s-6.551-1.324-6.551-1.324l-8.496-1.264l-10.996-1.729c0,0-0.073-0.239-0.246-0.443
	c-0.173-0.204-1.297-0.491-1.784-0.589c-0.487-0.097-2.091-0.164-2.856-0.144c-0.766,0.019-1.941,0.204-1.941,0.204
	s-1.656-0.541-2.186-0.679c-0.53-0.136-1.21-0.207-1.994-0.266c-0.784-0.057-6.799-0.297-6.799-0.297l-9.411-0.24
	c0,0-5.474,0.101-5.926,0.149c-0.451,0.047-1.161,0.367-1.434,0.47c-0.273,0.104-0.824,0.42-0.824,0.42l3.313,0.941l10.6,2.144
	c0,0,6.094,1.204,6.781,1.25c0.687,0.046,2.529-0.169,3.071-0.29c0.543-0.121,1.104-0.586,1.543-0.876
	c0.439-0.29,0.714-0.224,0.714-0.224l0.09,2.694c0,0-0.381,0.373-0.544,0.413c-0.161,0.041-0.553,0.347-0.553,0.347l0.213,4.133
	c0,0-0.34,0.111-0.583,0.226c-0.243,0.114-0.423,0.489-0.633,0.806c-0.21,0.316-1.134,1.373-1.429,1.68
	c-0.296,0.307-1.147,0.89-1.147,0.89s-1.351,0.969-1.571,1.223c-0.22,0.253-0.471,0.697-0.471,0.697l-5.317,3.047l-13.11,7.514
	c0,0-7.226-0.421-7.883-0.46c-0.659-0.039-6.1-0.156-6.1-0.156l-2.523,0.186c0,0-0.639-0.416-1.139-0.624
	c-0.499-0.207-1.647-0.591-3.671-0.609c-2.024-0.017-3.054,0.34-3.176,0.307c-0.123-0.033-1.014,0.316-1.014,0.316
	s-0.346-0.049-0.459-0.029c-0.113,0.02-1.767-0.32-2.483-0.431s-1.764-0.209-2.593-0.283c-0.829-0.074-3.074-0.113-3.936-0.103
	c-0.861,0.01-5.976,0.083-5.976,0.083l-8.62,0.179l-2.117-4.991l-2.449-5.773c0,0,0.04-0.42,0.043-0.557
	c0.003-0.137-0.086-0.843-0.086-0.843s0.641-0.349,0.866-0.58c0.224-0.231,0.39-0.784,0.39-0.784s0.273-3.587,0.299-3.951
	c0.026-0.363,0.026-0.671-0.136-0.979c-0.161-0.307-0.751-0.411-0.751-0.411l-0.001-0.207c0,0,0.214-3.56,0.166-3.85
	c-0.05-0.29-0.19-0.281-0.469-0.409c-0.279-0.129-0.594-0.357-0.594-0.357l0.111-2.41c0,0,1.044,0.3,1.464,0.531
	c0.419,0.231,1.763,0.91,2.19,1.051c0.427,0.141,2.933,0.47,3.649,0.51c0.714,0.04,3.319-0.251,3.319-0.251l11.424-0.549
	c0,0,16.101-0.954,16.52-0.961c0.419-0.007,0.723-0.079,0.827-0.243c0.104-0.166-0.343-0.459-0.554-0.65
	c-0.211-0.191-0.45-0.263-0.85-0.331c-0.4-0.069-3.264-0.351-3.264-0.351l-14.583-1.027c0,0-12.497-0.633-13.179-0.664
	c-0.681-0.031-2.013-0.011-2.587,0.014c-0.576,0.026-2.704,0.231-2.704,0.231l-2.446,0.323c0,0-0.123,0.03-0.791-0.246
	c-0.669-0.276-1.486-0.34-2.39-0.447c-0.904-0.107-2.55,0.007-3.181,0.029c-0.631,0.021-1.634,0.494-1.924,0.647
	c-0.29,0.153-0.247,0.39-0.247,0.39s-1.711-0.234-2.499-0.281c-0.787-0.047-3.536-0.086-4.304-0.144
	c-0.769-0.059-9.559,0.31-9.559,0.31l-12.497,0.3c0,0-8.417,0.446-9.111,0.601c-0.696,0.156-1.71,0.147-1.446,0.23
	c0.264,0.084,2.106,0.047,2.906,0.07c0.8,0.023,5.219,0.174,6.274,0.229c1.056,0.053,7.706,0.299,8.449,0.346
	c0.743,0.047,8.141,0.487,9.16,0.587c1.019,0.1,3.8,0.317,4.35,0.366s2.627,0.074,3.079,0.084c0.45,0.01,1.451-0.121,2.067-0.28
	c0.616-0.159,1.294-0.557,1.587-0.721c0.293-0.166,0.74-0.204,0.883-0.156c0.143,0.049,0.629,0.141,0.629,0.141l-0.179,2.293
	c0,0-0.456,0.277-0.641,0.371c-0.186,0.094-0.487,0.296-0.487,0.296s-0.1,4.08-0.12,4.043c-0.02-0.036-0.607,0.216-0.79,0.341
	c-0.183,0.126-0.256,0.463-0.256,0.463s-0.036,3.154,0.019,3.783c0.054,0.629,0.571,1.029,0.879,1.339
	c0.307,0.31,1.039,0.813,1.261,0.979c0.221,0.166,1.304,0.813,1.803,0.929c0.5,0.116,1.279,0.324,1.699,0.387
	c0.42,0.063,0.539,0.434,0.651,0.544c0.111,0.11,0.983,1.247,1.169,1.441c0.186,0.194,0.617,0.451,0.617,0.451l3.774,8.896
	l-10.251,0.541c0,0-0.891,0.096-1.047,0.24c-0.154,0.144-0.063,0.803,0.091,0.977c0.154,0.174,3.897,0.404,4.684,0.48
	c0.787,0.076,7.74,0.636,7.74,0.636l0.46,1.081c0,0-3.081,0.403-3.691,0.5c-0.61,0.097-3.896,0.711-4.849,0.917
	c-0.953,0.206-4.627,1.349-5.23,1.633c-0.603,0.284-1.857,0.891-1.857,0.891s-2.42,0.136-2.76,0.171
	c-0.34,0.037-1.133,0.043-1.637,0.189c-0.506,0.146-0.934,0.537-1.15,0.581c-0.216,0.043-1.559-0.147-1.559-0.147l-6.341-0.893
	c0,0-1.264-0.174-1.529-0.133c-0.264,0.043-0.894,0.24-0.894,0.24l-8.32-3.216l-9.084-3.474l-0.067-0.249l8.461,0.176
	c0,0,10.071,0.12,10.623,0.117c0.553-0.003,0.803-0.25,1.133-0.409c0.33-0.159,0.773-0.546,0.777-0.697
	c0.004-0.153-3.997-0.969-3.997-0.969l-7.041-1.357c0,0-5.44-0.887-6.406-1.033c-0.966-0.147-3.487-0.503-4.247-0.566
	c-0.761-0.063-2.739,0.004-2.739,0.004l-1.813,0.13c0,0,0,0-0.156-0.211c-0.156-0.211-0.393-0.2-0.756-0.311
	c-0.363-0.111-1.463-0.331-1.823-0.373c-0.36-0.041-1.756-0.024-2.244-0.003c-0.489,0.021-1.56,0.131-1.81,0.171
	c-0.249,0.041-1.347,0.343-1.347,0.343s-1.181-0.456-1.439-0.607c-0.257-0.15-0.439-0.533-0.899-0.867
	c-0.461-0.334-0.886-0.404-1.613-0.736c-0.726-0.331-1.941-0.961-2.499-1.377c-0.557-0.416-1.699-1.126-2.034-1.354
	c-0.336-0.229-0.787-0.58-0.787-0.58l-0.027-2.746c0,0-0.007-0.939-0.143-1.197c-0.137-0.259-0.956-0.44-0.956-0.44
	s-0.154-3.621-0.179-4.06s-0.373-0.449-0.526-0.531c-0.153-0.083,0.264-0.417,0.537-0.656c0.274-0.237,0.713-0.364,1.28-0.63
	s3.901-1.743,4.834-2.197c0.933-0.454,2.893-1.504,3.707-1.989c0.814-0.484,2.379-1.69,2.379-1.69s-0.277-0.113-0.833-0.057
	c-0.556,0.056-1.803,0.327-1.803,0.327l-3.324,1.437l-5.109,2.763c0,0-3.143,1.919-3.459,2.123
	c-0.316,0.204-0.954-0.064-1.283-0.084c-0.329-0.02-1.603,0-2.201,0.044c-0.6,0.044-1.799,0.337-2.23,0.441
	c-0.431,0.104-1.003,0.51-1.279,0.829c-0.276,0.317-0.143,0.817-0.143,0.817s-0.453,0.11-0.849,0.166
	c-0.396,0.056-1.331,0.521-1.816,0.784c-0.484,0.264-2.534,1.669-3.363,2.243c-0.829,0.576-3.224,2.601-3.91,3.249
	c-0.686,0.646-1.921,2.033-2.113,2.309s1.903,0.854,2.389,0.967c0.486,0.113,0.647-0.037,1.106-0.159s3.256-1.014,4.27-1.366
	c1.014-0.351,3.467-1.19,3.467-1.19l0.019,0.883l-0.559,0.306c0,0-0.361,0.454-0.4,0.611c-0.039,0.156,0.057,1.929,0.099,2.074
	c0.041,0.146,0.456,0.777,0.456,0.777l-6.14,0.04c0,0,0.176,0.129,0.464,0.199c0.289,0.07,1.581,0.183,1.581,0.183l4.611,0.52
	l0.251,0.951c0,0,0.539,0.529,0.99,0.906c0.451,0.377,1.811,0.999,2.459,1.21s2.56,0.297,3.863,0.189
	c1.304-0.109,1.351-0.583,1.351-0.583l1.529,0.216l3.994,0.6c0,0,1.196,0.451,1.329,0.777c0.133,0.326,0.694,0.396,1.096,0.511
	c0.401,0.116,1.059-0.19,1.059-0.19l0.803-0.126l0.93,0.226l-0.041,0.614L68.365,35.8l0.197,4.137l-0.546,0.211l-0.41,0.596
	l0.246,2.424l0.589,0.339c0,0,0.397,1.123,0.647,1.889c0.249,0.766,1.389,1.114,2.341,1.591s2.707,0.549,4.804,0.393
	c2.097-0.156,2.884-1,3.66-1.483c0.776-0.483,2.777,0.52,3.743,0.781s1.809-0.106,1.809-0.106l23.414,6.731
	c0,0,0.41,0.656,1.034,0.96c0.624,0.304,5.396,2.089,5.396,2.089s0.266,0.333,0.624,0.699c0.359,0.364,0.951,0.676,1.424,0.916
	c0.473,0.24,1.394,0.556,1.394,0.556s0.091,1.174,0.18,1.647c0.09,0.473,0.497,1.034,0.739,1.28c0.241,0.244,0.894,0.573,1.469,0.81
	c0.574,0.237,1.23,0.524,1.23,0.524s1.803,3.021,1.931,3.224c0.129,0.204,0.493,0.56,0.817,0.787
	c0.324,0.227,1.111,0.389,1.111,0.389l2.656,0.53l-2.523,0.433c0,0,0.064,0.677,0,0.843c-0.064,0.166,0.164,0.321,0.164,0.321
	s2.453,0.476,2.649,0.567c0.196,0.093,0.68,0.353,0.68,0.353s-0.209,0.449-0.144,0.686c0.064,0.239-0.21,0.18-0.474,0.336
	c-0.264,0.154-0.224,0.243-0.224,0.243s-1.637,5.157-1.663,5.637c-0.027,0.48,0.213,0.32,0.213,0.32l-5.009,12.511l-12.364,30.88
	c0,0-0.413-0.019-0.567,0.011c-0.154,0.031-0.356,0.537-0.356,0.537s-1.81,4.376-2.194,4.811c-0.386,0.436-0.833,0.279-1.379,0.287
	c-0.546,0.009-2.043-0.073-2.631-0.149c-0.589-0.076-0.953-0.064-1.281-0.033c-0.329,0.031-0.781,0.331-0.781,0.331l-13.171-2.281
	c0,0-0.054-0.807-0.213-1.236s-0.546-0.92-1.001-1.383c-0.456-0.464-1.574-0.57-1.574-0.57l-6.544-1.146
	c0,0-4.229-0.746-4.874-0.699c-0.646,0.047-1.591,0.306-2.52,1.497c-0.929,1.191-1.217,3.45-0.537,5.18
	c0.68,1.73,1.859,1.88,1.859,1.88l4.003,0.807c0,0,6.521,1.41,7.737,1.376c1.216-0.034,1.696-0.623,2.187-1.026
	c0.493-0.403,0.966-1.087,0.966-1.087l13.127,2.284c0,0,0.399,0.304,0.599,0.509c0.2,0.204,0.581,0.317,0.581,0.317l6.623,1.269
	c0,0,1.534,0.179,2.026,0.157c0.493-0.021,0.8-0.4,0.8-0.4l13.381,2.344c0,0,0.029,0.481,0.063,0.619
	c0.036,0.137,0.404,1,0.85,1.636c0.447,0.636,1.587,0.856,1.587,0.856s9.594,1.681,10.509,1.841c0.914,0.16,1.419,0.043,2.136-0.189
	c0.717-0.231,1.581-0.999,2.106-2.273s0.449-2.309,0.266-3.61c-0.184-1.301-1.107-1.861-1.66-2.27
	c-0.553-0.409-1.543-0.459-1.543-0.459s-10.457-1.887-10.809-1.897c-0.351-0.01-1.374,0.434-1.657,0.624s-1.22,1.546-1.22,1.546
	l-12.667-2.22l0.79-1.851c0,0,0.259-0.174,0.427-0.344c0.169-0.17,0.37-0.789,0.386-1.017c0.016-0.229-0.104-0.406-0.104-0.406
	s0.737-1.849,0.747-2.101c0.01-0.253-0.426-0.457-0.426-0.457l11.326-28.289l6.05-15.111l0.301-0.044c0,0-4.736,11.989-4.727,12.154
	c0.009,0.166,0.557,0.179,1.03,0.197c0.473,0.019,0.859-0.24,0.859-0.24s4.69-11.693,4.846-12.08
	c0.156-0.387,0.377-0.903,0.663-1.371c0.287-0.467,1.024-1.303,1.166-1.554c0.141-0.253,0.95-1.123,1.333-1.453
	c0.383-0.33,1.196-1.289,1.454-1.609c0.259-0.32,0.989-1.316,0.989-1.316l0.093,0.229l1.139-0.083l0.199-0.203l3.154-0.407
	l0.383,0.067l0.843-0.13l-0.001-0.554l3.92,0.679c0,0,2.136,3.847,2.447,4.273c0.311,0.427,1.55,0.553,2.657,0.71
	c1.107,0.157,2.409-0.027,2.409-0.027s4.511,9.79,4.64,10.011c0.127,0.221,1.017,0.129,1.393,0.109
	c0.376-0.019,0.471-0.294,0.471-0.294l-4.614-10.061l0.709-0.094l5.634,12.223l11.241,24.437c0,0-0.234,0.451-0.27,0.676
	c-0.036,0.224,0.606,1.566,0.606,1.566l-10.283-1.827c0,0-0.214-0.891-0.507-1.563c-0.293-0.671-1.191-1.277-1.434-1.404
	c-0.243-0.127-1.343-0.256-1.343-0.256s-10.301-1.82-10.893-1.803s-0.997,0.27-1.62,0.623c-0.623,0.353-1.256,1.413-1.653,2.277
	c-0.397,0.866-0.423,2.436-0.091,3.364c0.333,0.929,0.771,1.436,1.11,1.783c0.339,0.349,1.129,0.653,1.129,0.653
	s9.646,1.716,10.064,1.789s1.517,0.299,2.097,0.243c0.581-0.054,1.63-0.909,1.746-1.026c0.114-0.116,0.76-1.057,0.76-1.057
	l12.271,2.124l-2.797,2.804c0,0,1.916,0.479,2.303,0.547c0.387,0.067,1.374,0.067,1.374,0.067s5.717-0.8,6.346-0.894
	c0.629-0.093,0.796-0.316,0.796-0.316s2.199,0.387,2.65,0.204c0.451-0.184,0.766-0.364,0.766-0.364l13.43,2.309
	c0,0,0.079,0.664,0.626,1.64c0.549,0.976,1.49,1.436,1.49,1.436l8.783,1.506c0,0,2.597,0.444,3.606,0.396
	c1.009-0.049,1.571-0.83,2.099-1.406c0.527-0.576,1.083-1.62,1.099-3.14c0.016-1.52-0.4-2.61-1.206-3.33
	c-0.804-0.719-2.14-0.946-2.14-0.946s-9.97-1.747-10.321-1.809c-0.351-0.061-0.859-0.06-0.997-0.033
	c-0.139,0.027-1.211,0.576-1.457,0.776c-0.246,0.2-0.956,1.331-0.956,1.331l-0.17-0.03l-13.303-2.35c0,0,0.014-0.074-0.087-0.223
	c-0.101-0.147-0.436-0.389-0.696-0.517c-0.26-0.13-1.353-0.28-1.353-0.28l-4.841-0.917l-0.891-1.974c0,0-0.966-2.054-1.117-2.227
	c-0.151-0.171-0.764-0.294-0.764-0.294l-0.121-0.263l-16.211-35.17c0,0,3.017-0.477,3.476-0.557s1.04-0.301,1.329-0.611
	c0.289-0.311,1.14-3.859,1.14-3.859s0.524-0.231,0.68-0.364c0.156-0.133,0.199-0.633,0.266-0.633c0.069,0,0.736-0.323,1.004-0.64
	c0.269-0.317,0.513-1.347,0.819-2.63c0.306-1.284,1.16-5.206,1.26-5.619c0.1-0.413,0.327-2.69,0.327-2.69s2.094-0.934,2.526-1.077
	c0.433-0.143,0.497-0.471,0.497-0.471s2.156-0.667,2.516-0.831c0.36-0.164,0.754-0.644,0.754-0.644l4.87-1.73
	c0,0,0.05,0.15,0.103,0.22c0.053,0.07,0.589,0.001,0.903-0.087c0.314-0.089,1.191-0.457,1.267-0.543
	c0.076-0.086-0.059-0.416-0.059-0.416s1.656-0.633,1.97-0.794c0.314-0.161,0.517-0.766,0.517-0.766l30.997-8.951l0.847,0.281
	l0.466-0.107c0,0,0.363,0.401,0.723,0.373c0.36-0.029,1.18-0.379,1.437-0.506c0.257-0.127,0.189-0.484,0.189-0.484
	s0.763-0.139,1.274-0.216c0.511-0.079,1.567-0.126,2.097-0.1c0.53,0.026,1.576-0.154,1.576-0.154s1,0.524,1.49,0.713
	c0.49,0.19,1.786,0.453,2.646,0.44c0.86-0.013,2.149-0.199,2.913-0.347c0.766-0.149,1.624-0.796,2.003-1.004
	c0.379-0.209,0.987-0.883,1.243-1.074c0.256-0.191,0.713-2.483,0.713-2.483s0.266-0.244,0.493-0.393
	c0.227-0.149,0.063-0.683,0.063-0.683s0.007-1.346-0.113-1.683c-0.119-0.337-0.881-0.596-0.881-0.596s-0.069-3.543-0.083-3.89
	c-0.016-0.347-1.101-0.679-1.101-0.679l-0.016-2.517c0,0,1.057,0.031,1.771-0.061c0.714-0.093,1.244-0.543,2.101-1.149
	c0.857-0.606,2.03-1.989,2.421-2.317c0.391-0.329,2.74-2.893,3.133-3.396c0.393-0.503,0.956-1.841,0.986-1.939
	C249.42,17.56,248.932,17.454,248.932,17.454z M85.685,42.303c0,0-0.511-0.563-0.801-0.769c-0.29-0.204-1.79-0.496-2.631-0.856
	c-0.841-0.36-2.133-1.187-2.133-1.187l-0.036-0.974l19.649,7.663L85.685,42.303z M177.365,39.303
	c-0.346,0.123-2.729,0.687-3.247,0.809c-0.519,0.123-1.699,0.379-1.699,0.379s-0.719-0.264-1.474-0.481
	c-0.756-0.217-2.111-0.379-2.111-0.379l0.069-2.423l0.619-0.276c0,0,1.233,0.663,1.77,0.901s2.351,0.303,3.14,0.333
	c0.789,0.03,7.193-0.653,7.236-0.336c0.034,0.254-2.021,1.019-2.021,1.019s-0.266,0.42-0.723,0.321
	C178.465,39.073,177.71,39.18,177.365,39.303z"/>
<g>
	<g>
		<line class="st2" x1="64.446" y1="72.146" x2="20.422" y2="72.146"/>
		<g>
			<polygon class="st3" points="24.59,57.899 -0.081,72.146 24.59,86.391 			"/>
		</g>
	</g>
</g>
<g>
	<g>
		<line class="st2" x1="223.392" y1="72.146" x2="267.416" y2="72.146"/>
		<g>
			<polygon class="st3" points="263.247,86.391 287.919,72.146 263.247,57.899 			"/>
		</g>
	</g>
</g>
</svg>
