<?xml version="1.0" encoding="utf-8"?>
<!-- Generator: Adobe Illustrator 21.1.0, SVG Export Plug-In . SVG Version: 6.00 Build 0)  -->
<svg version="1.1" id="Layer_1" xmlns="http://www.w3.org/2000/svg" xmlns:xlink="http://www.w3.org/1999/xlink" x="0px" y="0px"
	 width="1152px" height="1152px" viewBox="0 0 1152 1152" style="enable-background:new 0 0 1152 1152;" xml:space="preserve">
<style type="text/css">
	.st0{fill:url(#SVGID_1_);}
	.st1{fill:#FFFFFF;stroke:#060203;stroke-width:2;stroke-miterlimit:2;}
	.st2{fill:#FFFFFF;}
	.st3{fill:none;stroke:#000000;stroke-width:2;stroke-miterlimit:2;}
</style>
<linearGradient id="SVGID_1_" gradientUnits="userSpaceOnUse" x1="576" y1="756" x2="576" y2="547.1295">
	<stop  offset="0" style="stop-color:#FFFFFF"/>
	<stop  offset="1" style="stop-color:#A3A3A3"/>
</linearGradient>
<polygon class="st0" points="709.973,568.469 1116,662.231 535.179,756 36,640.898 471.589,570.717 616.821,547.13 "/>
<path class="st1" d="M768.554,428.869c-0.659-0.802-3.004-3.069-3.688-3.018c-0.684,0.051-3.428,3.631-5.382,6.852
	c-1.953,3.221-12.745,22.543-15.463,27.431c-2.718,4.888-7.729,14.642-9.526,18.225s-3.339,6.069-3.726,9.519
	c-0.386,3.45-0.692,7.676-0.443,9.686c0.249,2.01-0.06,2.453-0.06,2.453s-3.02-1.241-4.091-1.272
	c-1.072-0.031-3.296-3.087-5.376-3.086c-2.08,0.001-6.575-0.935-8.8-0.773c-2.224,0.162-5.605,1.716-6.584,1.691
	c-0.979-0.025-10.74-4.185-11.562-4.199c-0.821-0.013-2.713-0.514-2.713-0.514l-59.236-29.725c0,0-0.059-1.02-0.981-1.737
	c-0.921-0.717-13.893-10.799-13.893-10.799s0.967-1.599,0.576-2.415c-0.392-0.816-5.555-5.693-5.555-5.693s3.826-0.743,4.82-1.959
	c0.994-1.216,2.451-5.139,2.624-8.081c0.173-2.942,0.358-9.56,0.257-12.934c-0.102-3.374-0.362-9.81-1.87-10.902
	c-1.508-1.091-5.051-3.641-4.888-4.683c0.163-1.041-0.543-2.971,0.095-3.704c0.638-0.732,4.116-4.336,4.116-4.336
	s1.133-0.386,0.628-1.894c-0.505-1.508-1.151-3.069-1.151-3.069l13.3-12.474c0,0,2.165-2.48,2.295-3.004
	c0.13-0.524,0.054-1.486,0.054-1.486l62.074-38.511c0,0,0.754,0.4,1.989-0.1c1.235-0.5,5.129-3.044,7.052-3.628
	c1.923-0.584,6.333-1.849,8.615-1.994c2.283-0.146,4.869,0.176,5.706,0.046c0.838-0.13,2.22-1.423,2.522-1.097
	c0.302,0.326,1.476,1.012,2.689,1.092c1.213,0.08,4.848-0.959,4.848-0.959s2.231-0.121,2.642,0.492s-0.424,5.812-0.135,8.738
	s0.41,4.715,2.08,8.132c1.67,3.418,9.478,17.749,9.478,17.749s8.441,14.843,10.275,17.674c1.834,2.831,8.138,12.67,9.089,12.542
	c0.951-0.129,4.188-2.691,4.539-3.461c0.351-0.77-0.616-5.525-1.121-7.315c-0.505-1.79-6.813-21.348-7.82-24.057
	c-1.007-2.709-8.489-20.854-9.761-23.15c-1.272-2.297-3.377-5.15-4.671-6.96c-1.294-1.81-3.797-4.809-3.753-5.271
	c0.044-0.462,1.725-5.457,1.045-7.746c-0.679-2.289-1.734-4.919-3.655-5.606c-1.921-0.687-2.58-1.344-3.57-2.21
	c-0.99-0.867-2.951-1.557-3.909-2.54c-0.958-0.983-1.858-2.412-2.104-3.488c-0.246-1.075-1.928-10.382-3.966-15.063
	c-2.039-4.68-12.078-25.363-12.078-25.363s-7.634-13.122-8.523-14.389c-0.889-1.267-2.445-3.75-2.994-3.418
	c-0.548,0.332-2.732,2.603-2.583,4.274c0.149,1.671,4.526,14.471,4.526,14.471s7.709,19.205,9.113,22.242
	c1.405,3.037,7.506,15.459,7.506,15.459s-2.316,0.219-4.066,0.689c-1.751,0.47-5.509,1.878-7.397,3.774
	c-1.888,1.897-3.107,2.788-4.15,5.206c-1.043,2.418-1.389,4.177-2.135,5.512c-0.746,1.335-3.595,4.928-5.498,6.552
	c-1.903,1.624-5.017,4.158-5.017,4.158s-0.183,1.008-0.802,1.662c-0.619,0.653-32.212,20.547-32.212,20.547l-28.713,18.032
	c0,0-1.357-0.679-2.469-0.17c-1.112,0.508-17.815,8.586-17.815,8.586s-2.634-1.597-4.072-1.708
	c-1.437-0.111-3.521,0.073-4.493,0.702c-0.972,0.63-9.394,4.256-9.394,4.256l-10.348-3.874c0,0-1.417-14.928-1.921-15.868
	c-0.504-0.94-5.784-3.635-5.746-4.545c0.037-0.91-0.152-17.942-0.152-17.942l-0.967-2.756l14.992-66.421
	c0,0,1.375-0.149,1.926-1.648c0.551-1.499,2.153-6.436,2.894-7.735c0.74-1.3,2.796-4.714,2.856-4.709
	c0.06,0.005,3.858-0.206,4.86-0.937c1.002-0.73,1.702-0.293,4.012-0.644c2.31-0.351,4.399-2.048,5.009-3.042
	c0.61-0.994,1.099-1.994,1.099-1.994s4.957-0.16,6.122-0.101c1.165,0.058,5.266,0.828,9.403,0.38
	c4.136-0.449,20.472-2.97,24.116-3.818c3.644-0.848,10.117-2.429,14.468-3.682c4.351-1.253,10.039-3.068,11.596-3.766
	c1.557-0.699,1.067-5.757,0.67-6.352c-0.397-0.594-4.938-1.32-8.645-1.512c-3.707-0.192-23.852,0.478-29.014,0.717
	c-5.162,0.239-16.025,0.869-18.9,1.92c-2.875,1.051-6.171,3.04-7.276,3.945c-1.105,0.905-2.556,2.478-3.056,1.805
	c-0.5-0.673-2.444-2.616-3.583-2.932c-1.139-0.316-3.395-3.331-4.125-3.361c-0.729-0.03-2.596-0.605-2.596-0.605
	s-1.927-2.422-3.737-2.95c-1.81-0.529-5.382-1.691-7.543-1.073c-2.161,0.619-7.052,2.577-8.973,4.963
	c-1.921,2.386-3.874,7.027-4.104,7.817c-0.23,0.79-0.465,1.707-0.465,1.707s-15.146,2.37-18.498,2.921
	c-3.352,0.551-14.639,3.062-17.992,3.955c-3.353,0.893-8.857,1.921-9.751,3.158c-0.895,1.238-1.841,3.078-1.891,4.525
	c-0.05,1.448,0.773,1.816,2.464,2.002s9.87,1.121,16.432,0.624c6.563-0.497,13.669-1.328,18.845-1.689
	c5.175-0.36,11.267-1.278,11.267-1.278l2.629-0.629c0,0,0.395,4.464,0.243,6.114c-0.152,1.65-0.928,4.284-0.53,5.604
	c0.399,1.319,0.686,1.721,0.686,1.721l-14.86,64.903c0,0-1.632,0.615-1.953,1.41c-0.321,0.796-7.462,22.236-7.462,22.236
	s-2.896-0.616-3.872,0.597c-0.975,1.213-3.904,9.09-5.211,12.327c-1.307,3.237-2.603,6.386-2.492,7.553
	c0.111,1.167-0.085,5.142-0.897,5.863c-0.812,0.721-2.318,0.884-2.318,0.884s-1.492-2.385-2.388-3.226
	c-0.896-0.841-6.131-5.358-6.425-5.506c-0.294-0.149-1.775-0.837-1.775-0.837l-40.997-44.486l11.624-33.953l7.923-1.477
	c0,0,1.809,3.164,3.215,3.719c1.407,0.555,3.558,0.757,5.213,0.49c1.655-0.267,21.339-3.261,25.534-4.335
	c1.355-0.347,3.064-2.31,3.496-4.369c0.432-2.059-0.039-7.149-1.061-9.625c-0.802-1.945-2.802-3.785-4.656-3.981
	c-1.854-0.196-4.693,0.297-4.693,0.297l-22.818,3.684c0,0-2.004,0.474-3.128,1.544c-1.124,1.07-2.492,3.682-2.878,4.051
	c-1.245,1.191-3.895,2.236-3.611,1.16c0.377-1.429,2.83-8.74,2.614-10.91c-0.215-2.17-2.963-4.012-3.776-2.337
	c-0.813,1.675-6.549,14.914-6.549,14.914l-22.682,3.661c0,0-0.777-0.973-2.07-0.981c-1.293-0.008-19.731,3.131-19.731,3.131
	s-1.298,1.58-2.005,1.694c-0.707,0.114-34.664,5.595-34.664,5.595s-1.505-3.287-3.735-4.328c-1.57-0.732-3.402-0.146-5.142,0.135
	c-1.74,0.281-23.549,3.854-23.549,3.854s-3.59,0.417-4.669,4.065c-1.874,6.338,1.373,12.412,4.099,13.579
	c2.727,1.167,4.636,0.655,5.879,0.454c1.243-0.201,23.829-3.711,23.829-3.711s2.62-0.607,3.288-2.163
	c0.667-1.556,1.219-4.325,1.219-4.325l34.667-5.595c0,0,0.593,0.799,1.491,0.889c0.898,0.09,1.202,12.704,1.202,12.704
	s1.054,2.415,1.462,2.451c0.408,0.035,6.463-0.943,6.463-0.943l1.275-1.321l2.189,1.813c0,0,2.41,1.67,2.918,1.751
	c0.508,0.081,1.335,0.054,1.335,0.054l11.232,12.188l-2.497,10.621c0,0-1.157,3.474-1.997,4.526s-1.402,1.686-1.402,1.686
	s-3.706-1.575-4.117-1.64c-0.411-0.065-1.73,0.089-1.73,0.089s-1.398-2.122-3.172-2.606c-1.774-0.484-5.49-1.093-6.676-1.055
	c-1.186,0.038-2.861,0.457-3.75,1.181c-0.889,0.724-2.456,2.348-2.456,2.348s-1.136-0.399-2.014,0.538
	c-0.878,0.938-4.05,4.98-4.171,7.56c-0.121,2.581-0.306,5.784,0.651,7.728c0.957,1.945,1.795,4.047,1.795,4.047
	s0.89,2.275,2.036,3.045c1.146,0.77,3.546,0.88,5.079,1.304c1.533,0.423,1.797,0.906,3.378,0.996
	c1.581,0.089,2.477,0.005,2.477,0.005s-0.284,0.943-1.764,2.794c-1.48,1.851-2.967,3.256-4.069,6.827
	c-1.102,3.572-6.018,20.462-6.925,23.856c-0.907,3.394-4.692,17.443-5.452,20.632c-0.759,3.188-2.543,11.97-3.01,14.96
	c-0.467,2.99-1.424,5.59-0.027,6.128c1.397,0.538,4.143,1.657,4.769,0.729c0.626-0.928,12.778-25.791,13.885-28.277
	c1.107-2.486,9.949-24.019,10.734-26.411c0.785-2.392,2.404-6.195,3.055-9.352c0.651-3.158,1.71-9.516,1.71-9.516l25.378,19.256
	c0,0,0.054,1.662,1.083,2.429c1.029,0.767,8.632,9.535,8.632,9.535l-2.499,2.718c0,0-1.148,2.399-1.886,2.934
	c-0.738,0.535-4.966,1.78-6.233,2.586c-1.267,0.805-2.356,1.427-2.761,3.48c-0.405,2.053-0.982,3.444-0.982,3.444
	s-1.477,0.77-1.827,2.741c-0.35,1.972-0.46,5.979-0.23,7.734c0.23,1.754,0.564,2.763,1.337,2.949
	c0.773,0.186,1.037,10.613,1.68,12.093c0.643,1.481,2.099,3.312,3.539,3.788c1.44,0.475,3.985,0.702,4.671,1.505
	c0.686,0.802,3.534,7.481,3.534,7.481s-1.316,2.175-1.237,3.191s1.778,2.313,2.388,2.65c0.611,0.338-2.669,5.868-2.669,5.868
	l-36.501,22.603c0,0-2.694,0.435-3.221,0.294c-0.527-0.14-3.585,0.721-3.585,0.721s-1.878-4.69-2.337-4.747
	s-6.719,0.956-6.719,0.956s-1.016,1.054-1.194,1.513c-0.178,0.459-7.819-11.958-7.819-11.958s-3.439,0.719-4.266,1.302
	c-0.827,0.584-1.68,2.141-1.266,2.994c0.415,0.853,2.798,13.155,3.429,15.526s3.297,11.527,3.297,11.527l-32.589,5.26
	c0,0-2.602-4.475-4.46-4.606c-1.859-0.131-4.448,0.421-4.448,0.421l-23.536,3.75c0,0-3.482,0.514-4.925,4.925
	c-1.442,4.411-0.755,5.497,0.219,7.63c0.974,2.133,2.688,4.747,4.058,5.317c1.37,0.57,3.113,0.786,5.08,0.469
	c1.967-0.318,24.724-3.858,24.724-3.858s2.646-1.395,3.288-2.909c0.642-1.514,1.221-3.576,1.221-3.576l32.731-5.487l0.836,0.067
	l4.604,14.479l1.448,4.201c0,0-1.756,0.511-2.815,1.508c-1.059,0.997-1.542,2.452-2.707,3.623c-1.165,1.171-2.504,2.212-3.153,5.771
	c-0.648,3.559-1.39,6.095,0.111,8.989c1.501,2.894,1.844,3.093,2.608,4.06s1.823,3.002,3.206,3.691
	c1.383,0.689,2.14,1.627,4.96,1.832c2.821,0.205,4.776-0.762,4.776-0.762s0.545,0.329,2.62,0.551
	c2.075,0.222,3.727,0.176,4.49-0.197c0.762-0.373,1.899-0.294,1.899-0.294s1.967,0.421,2.748,1.383s2.224,2.931,2.807,5.128
	c0.584,2.197,4.394,15.605,5.947,19.744c1.553,4.139,5.22,13.646,7.076,17.738c1.857,4.092,6.93,14.709,6.93,14.709
	s3.801,8.367,4.736,8.386c0.935,0.019,2.969-0.948,3.421-2.032c0.451-1.083-2.418-12.979-3.518-16.497
	c-1.1-3.518-7.949-22.556-9.281-26.02c-1.332-3.464-6.033-14.945-7.605-17.287c-1.572-2.342-4.107-4.542-4.404-5.733
	c-0.297-1.191-0.088-2.095,0.416-3.566c0.504-1.472,2.159-5.179,1.843-7.333c-0.316-2.153-1.598-5.664-3.175-6.538
	c-1.577-0.874-3.572-0.442-3.934-1.632c-0.362-1.189-0.848-3.942-0.848-3.942s2.224-2.915,2.418-4.053
	c0.195-1.138,0.081-2.767,0.081-2.767l16.738-23.468l15.019-2.291c0,0,1.404,2.199,3.215,2.823c1.811,0.625,4.845,1.032,6.136,0.567
	c1.291-0.465,24.516-4.399,24.516-4.399s2.188-1.135,2.888-2.767c0.7-1.632,1.732-5.801,0.816-8.286
	c-0.916-2.486-2.072-5.576-4.304-6.338c-2.232-0.762-3.827-0.651-6.101-0.316c-2.274,0.335-23.746,3.801-23.746,3.801
	s-2.748,1.003-3.421,2.444c-0.672,1.442-1.238,3.877-1.238,3.877l-7.06,1.195l7.792-11.231c0,0,1.445-0.232,2.737-1.205
	c1.292-0.973,9.861-8.159,9.861-8.159s2.043,0.539,3.678,0.375c1.635-0.165,6.087-1.372,7.318-2.315
	c1.231-0.943,4.435-2.52,4.435-2.52l8.514,4.138l3.455,10.118c0,0,2.016,5.472,3.08,8.446c1.065,2.974,2.978,2.848,3.675,2.84
	c0.697-0.008,1.397-0.1,1.397-0.1l6.763,21.987l1.583,1.351l14.778,72.372c0,0-0.869,1.5-0.831,2.019
	c0.038,0.519,0.675,6.347,0.508,8.721c-0.167,2.375,0.143,3.72-0.627,5.62c-0.77,1.899-1.683,3.037-2.391,5.15
	c-0.708,2.113-1.078,1.988-1.146,3.918c-0.068,1.929-0.154,2.505-0.154,2.505s-12.807,3.199-15.367,3.838
	c-2.56,0.639-13.249,3.328-16.082,4.235c-2.833,0.907-8.362,2.702-11.223,3.942c-2.861,1.24-4.988,1.562-5.085,2.34
	c-0.097,0.778,0.411,3.707,0.711,4.439c0.3,0.732,0.317,1.992,1.453,2.067c1.137,0.075,15.194,0.108,19.325-0.1
	c4.131-0.208,10.758-0.557,16.515-1.334c5.757-0.777,15.976-2.456,15.976-2.456l4.501-1.002c0,0,3.223,0.924,4.012,0.932
	c0.789,0.008,4.107-0.916,4.439-0.832c0.332,0.084,3.701,0.944,4.435,0.519s2.216-1.075,2.216-1.075s1.919,0.702,3.629,0.148
	c1.71-0.554,4.512-1.913,5.314-3.637c0.802-1.724,0.778-2.945,1.759-3.164s2.718,0.195,4.285,0.605
	c1.567,0.411,4.276,0.928,7.036,0.643c2.76-0.285,21.287-3.72,24.731-4.474c3.444-0.754,14.088-3.371,16.58-4.15
	c2.492-0.779,8.614-2.862,10.713-3.73c2.099-0.868,2.099-0.868,2.099-0.868s1.451-5.52,0.186-5.896
	c-1.265-0.376-9.836-0.148-14.234-0.038c-4.398,0.111-18.112,1.383-23.073,2.226c-4.96,0.843-12.695,2.216-15.79,3.247
	c-3.095,1.03-5.473,2.16-7.656,2.643c-2.183,0.484-5.079,1.618-5.628,0.778c-0.549-0.84-4.05-3.409-5.021-3.72
	c-0.97-0.311-3.446-3.384-4.512-3.523c-1.066-0.139-3.383-2.685-4.524-4.452c-1.141-1.767-3.984-6.694-4.735-9.355
	c-0.751-2.661-2.231-6.15-2.61-6.482c-0.379-0.332-15.243-74.4-15.243-74.4l1.162-1.953l0.105-22.922c0,0,4.334-0.33,5.15-1.092
	c0.816-0.762,3.077-20.604,3.31-21.355c0.232-0.751,8.546-6.119,8.546-6.119s6.957-5.572,7.638-5.223
	c0.681,0.349,6.013,1.654,7.541,2.029c1.527,0.375,2.888,1.102,4.255,0.797c1.367-0.305,2.956-0.97,3.404-1.681
	s2.498-0.06,2.498-0.06l13.065,4.476c0,0,1.75-0.249,2.852,0.25c1.102,0.498,58.332,29.113,58.332,29.113s0.61,0.744,1.367,1.509
	c0.757,0.765,3.91,2.407,5.739,3.88c1.829,1.473,3.988,2.567,5.144,5.676c1.156,3.11,1.851,5.957,4.325,8.005
	c2.475,2.048,4.215,3.342,7.057,3.896c2.842,0.554,5.32,1.413,7.154,0.992c1.835-0.421,2.721-0.775,2.721-0.775l1.919-0.163
	l-8.171,15.681c0,0-5.958,12.588-7.969,17.201c-2.01,4.613-5.497,12.955-7.164,17.236c-1.667,4.281-4.069,10.196-5.498,14.552
	s-2.137,5.655-1.875,6.536c0.262,0.881,1.783,3.266,2.321,3.242c0.538-0.024,8.674-16.332,11.755-21.561
	c3.081-5.229,10.195-21.004,11.81-24.861c1.615-3.857,5.204-14.287,5.76-16.497c0.557-2.21,0.549-4.834,1.867-6.822
	c1.318-1.989,3.772-5.268,4.493-5.587c0.721-0.319,3.304,0.066,4.928-1.672c1.624-1.739,3.347-2.41,3.876-6.253
	c0.529-3.843-0.236-6.797-0.501-7.625c-0.265-0.828,2.649-4.657,2.649-4.657s3.376-4.488,4.835-7.341
	c1.459-2.853,4.121-8.858,5.709-12.747c1.588-3.889,6.477-16.273,8.469-22.101c1.992-5.828,5.924-17.729,7.069-21.752
	C767.909,434.024,769.213,429.672,768.554,428.869z M466.01,528.322l-4.907-11.753c0,0,4.781-0.722,6.007-0.936
	c1.226-0.214,2.215-1.831,2.215-1.831l7.578-1.181L466.01,528.322z M482.964,503.885l-0.904,0.146l-13.978,2.256
	c0,0-1.77-0.964-2.207-0.983c-0.438-0.02,2.502-1.889,3.023-2.341c0.522-0.452,1.408-1.328,1.616-2.071s25.202-15.387,25.202-15.387
	L482.964,503.885z M471.643,312.195c0,0,0.243-1.917-0.588-2.745c-0.831-0.827-4.915-4.668-5.392-5.782
	c-0.478-1.114-0.066-2.545,0.717-3.451c0.782-0.906,2.234-0.808,3.104-1.921c0.87-1.113,0.87-1.113,0.87-1.113l18.145-2.931
	l-9.27,26.175L471.643,312.195z M522.188,388.539c0,0-2.561-0.486-4.252-0.742c-1.69-0.256-6.099-0.333-6.707-0.044
	c-0.608,0.289-1.197,0.592-1.197,0.592s-3.075-1.278-4.015-2.064s-4.316-0.762-4.316-0.762l-26.012-19.38
	c0,0,0.57-0.724,1.466-2.376c0.896-1.652,1.151-3.618,1.311-6.57c0.16-2.952-2.723-6.309-2.723-6.309s0.286-2.599,0.308-3.534
	c0.022-0.935,0.659-2.691,1.173-3.62c0.513-0.929,4.188-7.373,4.188-7.373l38.69,41.3l-0.877,1.437c0,0-11.697-13.185-12.122-13.463
	c-0.424-0.278-1.124,0.27-1.88,0.908c-0.757,0.638,0.07,2.553,0.07,2.553s14.565,15.848,15.984,16.586
	C522.697,386.416,522.188,388.539,522.188,388.539z"/>
<path class="st1" d="M514.75,434.148c0,0,0.294-10.442,1.859-12.839c1.564-2.397,5.463-5.128,7.441-6.182
	c1.978-1.054,38.206-16.257,38.206-16.257s19.429-6.641,22.222-7.443c2.793-0.802,11.31-3.223,13.609-2.861
	c2.299,0.362,4.036,1.867,5.639,3.928c1.602,2.061,7.7,10.864,7.7,10.864s-4.998,1.764-7.333,2.151
	c-2.334,0.386-4.25,0.81-5.436-1.343s-4.731-8.383-8.089-8.359c-3.358,0.024-12.817,2.372-17.275,3.839
	c-4.458,1.467-27.628,10.218-31.57,11.991c-3.942,1.772-11.148,4.931-13.144,6.622c-1.997,1.691-2.778,7.127-2.961,9.654
	c-0.184,2.526-0.511,16.67-0.027,19.434c0.484,2.764,1.151,5.412,2.821,6.927c1.67,1.516,15.824,4.289,20.596,4.893
	c4.772,0.604,18.275,1.718,23.26,1.605c4.985-0.113,13.477-0.486,15.7-1.356c2.224-0.87,3.564-1.483,4.742-2.867
	c1.178-1.383,5.672-8.081,6.395-9.152c0.724-1.071,2.099-2.085,3.38-2.476c1.281-0.392,8.581-2.523,8.581-2.523
	s-6.101,10.286-7.497,12.504s-2.769,4.966-5.358,6.222c-2.588,1.256-8.535,1.813-14.041,2.742s-20.539,0.416-25.343-0.022
	c-4.804-0.438-25.834-3.296-31.308-5.325c-5.474-2.029-8.427-1.662-10.459-5.895c-2.032-4.234-2.329-8.889-2.34-12.028
	C514.707,437.455,514.75,434.148,514.75,434.148z"/>
<path class="st1" d="M617.398,438.725l-5.326,2.002c0,0-6.328,1.678-8.835,2.48c-2.507,0.802-6.128,0.178-7.257-1.121
	c-1.121-1.29-1.04-2.205-1.491-5.717s0.284-15.854,0.284-15.854s0.281-5.304,1.599-6.757c1.318-1.454,3.394-2.183,5.736-2.799
	c2.342-0.616,7.66-1.667,9.34-1.975c1.681-0.308,3.631-1.17,4.69-0.743c1.059,0.427,2.686,1.11,2.686,2.545"/>
<g>
	<line class="st2" x1="533.083" y1="438.145" x2="590.897" y2="426.458"/>
	<g>
		<line class="st3" x1="546.924" y1="435.347" x2="590.897" y2="426.458"/>
		<g>
			<polygon points="533.083,438.145 554.198,442.172 547.959,435.138 550.977,426.235 			"/>
		</g>
	</g>
</g>
</svg>
