<?xml version="1.0" encoding="utf-8"?>
<!-- Generator: Adobe Illustrator 21.1.0, SVG Export Plug-In . SVG Version: 6.00 Build 0)  -->
<svg version="1.1" id="Layer_1" xmlns="http://www.w3.org/2000/svg" xmlns:xlink="http://www.w3.org/1999/xlink" x="0px" y="0px"
	 width="1152px" height="1152px" viewBox="0 0 1152 1152" style="enable-background:new 0 0 1152 1152;" xml:space="preserve">
<style type="text/css">
	.st0{fill:url(#SVGID_1_);}
	.st1{fill:#FFFFFF;stroke:#040101;stroke-width:2;stroke-miterlimit:2;}
</style>
<linearGradient id="SVGID_1_" gradientUnits="userSpaceOnUse" x1="576" y1="756" x2="576" y2="535.5041">
	<stop  offset="0" style="stop-color:#FFFFFF"/>
	<stop  offset="1" style="stop-color:#A3A3A3"/>
</linearGradient>
<polyline class="st0" points="540.849,553.574 36,636.687 500.478,756 1116,654.819 651.522,535.504 634.367,538.324 "/>
<path class="st1" d="M808.043,645.469c-2.516,0.917-8.659,3.491-8.659,3.491l-8.316,3.35l2.397-1.508l0.105-8.587
	c0,0,1.618-0.644,1.793-1.216c0.175-0.572-0.054-5.052-0.054-5.052s3.157,0.624,5.403,1.058c2.246,0.434,6.467,1.551,8.442,1.472
	c1.975-0.079,6.072-1.7,6.181-1.872c0.109-0.171-4.812-3.346-6.896-4.421c-2.084-1.075-9.63-4.66-11.965-5.804
	c-2.335-1.144-13.615-6.525-15.522-7.322c-1.907-0.797-7.462-2.16-9.372-1.864c-1.91,0.297-4.489,1.374-4.927,1.461
	c-0.438,0.087-0.354-5.933-0.354-5.933s2.058-0.568,2.278-1.191c0.219-0.622,0.223-8.448,0.223-8.448s1.001-0.18,1.513-0.963
	c0.511-0.784,0.753-2.812,0.671-3.643c-0.081-0.831-0.008-2.467-0.641-2.75c-0.634-0.283-2.078-5.281-2.078-5.281
	s-1.782-1.527-2.22-1.857c-0.438-0.33-2.224-1.705-4.222-2.251c-1.999-0.546-4.133-1.058-6.521-0.979
	c-2.388,0.079-3.526,0.038-5.659,0.969c-2.133,0.93-4.475,2.295-4.475,2.295s-1.708-0.469-2.345-0.148s-2.878,0.667-3.58,0.471
	c-0.702-0.196-3.281-0.985-4.802-1.072c-1.521-0.087-1.87,0.648-2.672,0.462c-0.802-0.186-54.116-12.585-54.116-12.585
	s-0.125-0.854-0.928-1.295c-0.803-0.441-11.38-3.893-11.38-3.893l-4.026-1.148c0,0-1.265-1.069-2.345-1.605
	c-1.08-0.536-7.473-2.862-7.473-2.862s-0.816-4.905-1.395-6.001c-0.58-1.096-1.428-1.844-1.428-1.844l-0.979-3.398l-1.178-1.083
	l-0.615-0.226l-2.612-8.257c0,0-0.977-1.33-2.534-1.521c-1.558-0.19-4.196-0.591-5.781-0.381c-1.585,0.211-6.299,0.884-6.299,0.884
	s1.45-1.132,1.605-1.795c0.155-0.664,0.138-1.11,0.138-1.11s1.008-0.306,1.149-0.661c0.141-0.354,2.371-6.566,2.662-7.482
	c0.291-0.916,1.204-3.425,1.217-4.17c0.014-0.745-0.266-1.134-0.266-1.134l38.598-93.125c0,0,1.119,0.316,1.398-0.038
	c0.28-0.354,2.968-9.516,4.598-10.566c1.63-1.05,4.565-1.398,5.993-1.254c1.428,0.144,4.853,0.718,5.425,0.501
	c0.571-0.218,2.533-0.076,2.533-0.076l23.285,5.8c0,0,0.448,3.05,1.907,4.749s3.669,2.446,5.678,2.958
	c2.009,0.513,18.489,4.665,18.489,4.665s3.345,0.459,4.869-0.501c1.523-0.96,5.008-3.49,5.202-7.013
	c0.194-3.523-0.018-6.563-2.451-9.127c-2.434-2.564-25.286-7.266-25.286-7.266s-3.696,0.735-4.893,2.005
	c-1.197,1.27-1.607,2.059-1.607,2.059l-24.925-6.323c0,0-0.946-1.985-2.647-2.287c-1.701-0.303-15.491-3.7-15.491-3.7
	s-1.184,1.281-2.484,0.816c-1.3-0.465-24.635-6.365-24.635-6.365s-0.258-4.098-1.669-5.069s-0.662-1.352-4.605-2.358
	c-3.942-1.006-18.701-4.639-21.194-5.227c-2.493-0.588-6.288,1.898-7.383,4.715c-1.095,2.817-2.163,6.799-0.74,9.176
	c1.423,2.378,2.636,3.995,4.171,4.402c1.535,0.406,23.638,5.853,23.638,5.853s2.514-0.785,3.499-1.604
	c0.986-0.818,2.402-2.523,2.402-2.523l22.418,6.152c0,0-0.356,1.41-0.881,2.64c-0.525,1.23-1.292,2.424-1.292,2.424
	s-1.752,1.744-1.651,2.661c0.101,0.917-1.232,5.204-1.232,5.204l0.945,0.927l-38.73,93.017l-0.718,0.049l10.169-25.758
	c0,0-1.98-0.744-2.708-0.5c-0.728,0.244-1.36,0.657-1.842,1.812c-0.481,1.155-10.638,25.52-10.638,25.52s-2.062,3.227-3.15,4.766
	c-1.088,1.54-6.378,7.011-7.092,8.281c-0.714,1.27-1.186,2.818-1.186,2.818s-2.957,0.25-4.274,0.359
	c-1.317,0.109-4.415,0.276-4.415,0.276l-5.765-0.901l2.054-0.914l-0.324-2.432l-12.272-3.243l-3.746-0.137L568.89,530.3
	l-10.544-20.374c0,0-2.365-0.51-2.951-0.277c-0.586,0.233-1.309,0.78-0.958,0.979c0.351,0.199,10.246,19.996,10.246,19.996
	l-2.021,0.304l-38.632-75.388l0.325-2.206l14.877,3.318c0,0,0.74,4.722,2.261,5.715c1.521,0.993,19.685,6.108,19.685,6.108
	s5.641,1.622,7.022,1.293c1.38-0.329,5.471-1.937,6.524-4.94c1.053-3.004,1.874-7.666,0.144-9.845
	c-1.73-2.18-2.503-3.205-5.24-3.877c-2.738-0.672-20.916-5.448-20.916-5.448s-2.882-0.356-4.72,1.305
	c-1.838,1.661-2.499,2.759-2.499,2.759l-22.569-5.761l7.329-6.977l-5.604-1.891l-17.844,2.927l-4.921-0.585l-2.364,0.258
	l-23.943-5.875c0,0-0.336-2.734-1.934-4.59c-1.598-1.857-4.067-2.657-5.302-2.972c-1.235-0.315-19.825-5-19.825-5
	s-3.199-1.287-5.683,1.79c-2.484,3.077-4.027,8.684-3.088,12.114c0.939,3.431,3.238,4.019,4.974,4.513
	c1.736,0.495,20.856,5.514,20.856,5.514s2.899-0.085,4.532-0.867c1.634-0.782,3.325-3.092,3.325-3.092l24.736,6.362
	c0,0,0.193,1.731,2.411,2.092c2.218,0.361,13.471,3.784,13.471,3.784l4.051,7.694l1.695,0.601l39.991,78.013l-0.068,1.314
	l1.11,3.518l-3.392,2.059l-5.849,1.567c0,0-2.897,1.404-3.498,2.647c-0.601,1.243-1.164,4.475-1.164,4.475l0.212,5.381
	c0,0-0.71,1.676-1.727,2.399s-2.231,1.096-2.794,2.878c-0.564,1.783-2.424,4.587-2.424,4.587s-15.809,6.026-19.74,7.397
	s-11.848,4.347-11.848,4.347s0.059,1.371-1.314,1.684c-1.373,0.313-61.265,16.772-61.265,16.772l-2.644,0.631
	c0,0,0.307-1.181-2.057-0.544c-2.364,0.637-12.131,2.122-12.131,2.122s-1.194,0.318-3.24-0.661c-2.046-0.979-7.019-2.41-9.772-2.127
	c-2.753,0.283-6.317,0.865-8.371,2.435c-2.054,1.57-3.678,2.141-3.946,4.153c-0.268,2.012-1.764,4.123-1.764,4.123l-0.128,4.734
	c0,0,1.785,1.303,1.989,1.368c0.204,0.065-0.063,7.911-0.063,7.911s1.145,1.083,2.008,1.684c0.862,0.601,0.127,6.905,0.127,6.905
	l-0.008,2.156l-1.463,1.614l-8.665,3.507c0,0-12.357,2.081-15.191,3.267c-2.834,1.186-6.967,2.753-6.967,2.753
	s5.128-0.201,7.65-0.786c2.522-0.585,20.91-5.512,20.91-5.512l7.215-2.762c0,0,3.969,1.112,6.064,0.689
	c2.095-0.423,4.54,0.21,6.737-0.509c2.197-0.72,2.131-1.424,3.811-2.106c1.68-0.682,6.148-1.386,9.042-2.583
	c2.894-1.197,11.372-4.889,14.337-6.537c2.965-1.649,8.156-3.983,8.284-5.008c0.128-1.026-2.847-2.861-4.57-2.693
	c-1.724,0.167-24.781,4.032-24.781,4.032l-0.22-5.702c0,0,2.138-1.711,4.698-2.364c2.56-0.653,5.718-1.431,7.109-1.894
	c1.39-0.462,1.137-0.939,3.428-1.836c2.291-0.898,63.772-17.681,63.772-17.681l2.229-0.928c0,0,0.351,1.167,2.195,1.124
	c1.845-0.044,16.064-0.449,16.064-0.449l1.687,1.306l-8.008,5.091c0,0-2.469,2.33-2.686,3.021c-0.218,0.691-1.829,2.358-1.829,2.358
	l-8.228,4.65l-22.249,3.689c0,0-3.667-0.003-3.678,0.724c-0.011,0.726-0.511,2.623,2.351,2.658l11.029,0.009l-27.234,15.412
	l-5.031,2.844c0,0-1.258-0.504-2.481,0.046c-1.223,0.55-5.86,2.767-8.191,3.444c-2.331,0.677-4.625,1.548-7.043,1.379
	c-2.419-0.169-6.028-1.073-8.823-0.017c-2.795,1.056-6.043,2.4-6.686,3.425c-0.643,1.026-1.825,2.786-2.672,4.01
	c-0.846,1.224-1.693,4.071-1.593,5.195c0.1,1.125-0.357,2.762,0.524,3.507c0.881,0.745,1.515,1.094,1.515,1.094l-0.022,4.179
	c0,0-20.14-3.937-22.331-4.682c-2.19-0.745-11.665-2.764-14.425-3.257c-2.759-0.492-5.2-1.417-6.454-1.085
	c-1.254,0.332-3.673,1.243-4.062,1.921c-0.389,0.677,0.465,1.216,1.321,1.71c0.856,0.494,20.454,9.86,22.356,10.63
	c1.902,0.77,13.741,5.523,15.414,5.971c1.673,0.449,4.671,1.121,6.576,1.319c1.904,0.199,3.689,0.365,3.689,0.365
	s0.1,1.622,0.778,1.972c0.678,0.35,5.264,1.891,6.935,2c1.67,0.109,5.866-0.028,6.612-0.161c0.746-0.133,3.027-0.774,3.027-0.774
	s7.16,2.717,9.167,3.346c2.006,0.629,14.065,4.253,14.065,4.253l16.142,4.869l9.187,2.217h3.343c0,0-12.501-4.589-15.15-5.37
	c-2.65-0.781-20.465-5.844-20.465-5.844s-5.779-1.34-7.202-2.175c-1.423-0.835-6.037-3.186-6.303-3.558
	c-0.267-0.373-0.276-7.551-0.276-7.551s1.403-0.498,1.917-0.959c0.513-0.461,0.62-8.793,0.62-8.793s1.388-0.332,1.951-1.398
	s3.257-4.715,4.628-5.893c1.37-1.178,5.079-3.55,5.623-4.111c0.544-0.56,1.523-2.138,1.523-2.138l27.837-15.738l21.485-12.147
	l22.558-0.884c0,0,15.545-1.015,17.428-1.29c1.883-0.275,9.278-1.816,10.649-2.137s3.031-0.496,4.655-0.159
	c1.624,0.338,8.266,0.418,10.488,1.001c2.221,0.584,10.708,1.542,13.665,2.387s6.561,3.228,6.912,3.505
	c0.351,0.277,3.801,0.844,5.207,0.87c1.406,0.026,1.936,2.136,1.936,2.136l6.546,26.725l0.427,1.745c0,0-0.373,1.028-0.354,1.934
	c0.019,0.906-0.033,2.595-0.033,2.595s-3.365,1.893-4.135,3.167c-0.77,1.273-1.394,4.159-1.198,5.602
	c0.196,1.442-0.021,6.046,0.55,6.693c0.571,0.647,1.578,1.194,1.578,1.194l0.84,8.283c0,0,0.754,0.906,1.339,1.092
	c0.585,0.187,0.762,1.24,0.762,1.24l0.408,3.987c0,0-1.717,0.631-2.829,0.209c-1.113-0.422-1.728-0.99-3.757-0.914
	c-2.029,0.076-6.521,0.18-9.076,0.884c-2.555,0.705-14.954,2.754-18.114,2.911c-3.16,0.157-24.248,2.919-27.09,3.202
	c-2.842,0.282-23.595,1.934-23.595,1.934s3.61,0.432,6.011,0.414c2.401-0.019,17.973-0.584,19.793-0.685
	c1.82-0.101,25.169-1.369,25.169-1.369s17.489-1.245,18.92-1.159c1.431,0.087,9.57-0.108,10.331-0.55
	c0.76-0.441,4.735-1.205,4.735-1.205s2.091,1.721,3.793,1.912c1.702,0.191,5.42,0.479,8.174,0.112
	c2.754-0.367,5.052-1.526,6.985-2.107c1.933-0.581,4.009-0.486,6.416-0.249c2.408,0.237,10.593,0.6,13.618,0.104
	c3.025-0.496,34.622-4.149,34.622-4.149l26.592-4.58c0,0,3.72-0.371,4.063-1.242c0.343-0.871,0.799-2.332-0.318-2.337
	s-41.028,0.751-41.028,0.751l-24.721,0.329c0,0-5.414,0.046-7.468,0.549c-2.054,0.503-5.071,1.314-6.203,2.008
	c-1.132,0.694-4.905,2.908-4.905,2.908l-0.174-3.644c0,0,1.97-0.558,2.02-1.909c0.05-1.351-0.39-8.106-0.39-8.106
	s1.78-1.114,1.896-1.714c0.116-0.6-1.219-10.036-1.219-10.036s-1.827-2.253-3.784-3.12c-1.957-0.868-4.872-1.284-5.89-2.446
	c-1.018-1.162-2.046-3.64-2.72-4.266c-0.675-0.626-1.933-4.241-1.933-4.241l-5.543-24.155c0,0,9.953,0.245,12.78-0.424
	c2.827-0.669,13.729-2.963,15.408-3.885s2.65-4.304,3.061-5.593c0.411-1.29,2.122-4.715,3.518-5.498
	c1.396-0.783,5.989,0.346,7.599,0.288c1.61-0.057,3.528,0.96,4.51,0.31s3.379-0.979,5.009-1.088
	c1.629-0.109,13.662,1.964,13.662,1.964s3.526,0.713,4.388,0.471c0.862-0.242,1.529-0.531,1.529-0.531l66.592,27.477
	c0,0,1.466,2.065,2.337,2.492c0.871,0.427,2.729,1.292,4.418,1.98c1.689,0.688,8.997,5.936,8.997,5.936s0.013,1.032,0.272,2.775
	c0.26,1.743,0.099,5.948,0.099,5.948s2.242,1.265,2.375,1.539c0.133,0.274-0.028,4.927-0.028,4.927s-2.955-0.749-4.658-0.357
	c-1.703,0.392-5.717,2.652-7.593,3.983c-1.876,1.331-7.909,5.281-9.658,7.098c-1.749,1.816-2.821,3.387-2.821,3.387
	s3.173,0.634,4.356,1.182c1.183,0.548,2.97,0.553,4.823,0.219c1.853-0.334,14.774-3.401,16.639-3.986
	c1.865-0.586,6.751-1.8,7.576-2.793s1.148-2.372,1.974-2.602c0.827-0.23,4.645,0.175,5.867-0.344
	c1.223-0.52,2.884-0.961,3.206-1.499c0.322-0.537,0.174-5.12,0.174-5.12s3.378-1.519,5.691-2.571
	c2.312-1.052,13.406-6.351,13.406-6.351s5.768-2.983,5.736-3.231C815.707,643.875,810.56,644.552,808.043,645.469z M745.945,614.224
	c0,0-3.45-1.904-4.228-2.462c-0.778-0.558-2.54-0.705-4.587-1.285c-2.047-0.581-5.694-1.399-5.694-1.399l-8.742-3.297
	c0,0-17.591-5.953-18.526-6.23s-3.486-0.793-3.486-0.793l-3.592-0.324l-7.721-3.477l-0.618-1.273l-1.317-0.944l-13.589-7.136
	l1.684-0.846l56.235,13.254c0,0,0.661,0.37,1.202,0.792c0.542,0.422,1.564,0.756,2.541,1.053s3.776,0.963,4.507,1.201
	c0.731,0.238,4.255,1.841,4.255,1.841s-0.131,7.579-0.083,8.123c0.047,0.544,1.977,1.129,1.977,1.129L745.945,614.224z"/>
<path class="st1" d="M622.226,600.6l23.757-3.672c0,0,5.64-0.525,6.692-1.404c1.053-0.879,2.31-3.418,2.204-4.913
	c-0.106-1.496-0.735-11.883-1.333-15.257s-2.86-15.5-3.444-16.407c-0.584-0.908-1.836-2.554-3.341-1.934
	c-1.504,0.62-25.989,2.576-29.006,2.99c-3.017,0.413-4.426,2.495-4.334,3.45s5.114,15.399,5.683,20.945
	c0.569,5.547,0.223,12.294,0.511,14.092C619.905,600.287,622.226,600.6,622.226,600.6z"/>
</svg>
