<?xml version="1.0" encoding="utf-8"?>
<!-- Generator: Adobe Illustrator 21.1.0, SVG Export Plug-In . SVG Version: 6.00 Build 0)  -->
<svg version="1.1" id="Layer_1" xmlns="http://www.w3.org/2000/svg" xmlns:xlink="http://www.w3.org/1999/xlink" x="0px" y="0px"
	 width="1152px" height="1152px" viewBox="0 0 1152 1152" style="enable-background:new 0 0 1152 1152;" xml:space="preserve">
<style type="text/css">
	.st0{fill:url(#SVGID_1_);}
	.st1{fill:#FFFFFF;stroke:#040101;stroke-width:2;stroke-miterlimit:2;}
	.st2{fill:#FFFFFF;}
	.st3{fill:none;stroke:#000000;stroke-width:2;stroke-miterlimit:2;}
</style>
<linearGradient id="SVGID_1_" gradientUnits="userSpaceOnUse" x1="576" y1="756" x2="576" y2="570.095">
	<stop  offset="0" style="stop-color:#FFFFFF"/>
	<stop  offset="1" style="stop-color:#A3A3A3"/>
</linearGradient>
<polygon class="st0" points="655.725,584.31 1116,663.208 576.47,756 36,662.133 426.563,595.586 575.53,570.095 "/>
<line class="st1" x1="446.33" y1="322.048" x2="459.779" y2="300.773"/>
<line class="st1" x1="461.32" y1="319.492" x2="468.009" y2="299.274"/>
<path class="st1" d="M634.837,355.633c0,0,5.306-2.882,6.989-4.098c1.682-1.216,7.859-1.819,10.06-2.026
	c2.201-0.207,3.104,0.361,4.903,0.256s3.381-1.35,3.381-1.35s1.298,0.285,1.721,0.336c0.423,0.052,3.366-0.625,4.142-0.757
	c0.776-0.132,2.14-0.928,3.09-0.723c0.95,0.206,3.235,4.166,4.51,7.035s1.719,6.037,2.355,7.964
	c0.636,1.926,8.344,20.626,9.151,22.413c0.808,1.788,11.138,22.396,11.138,22.396s4.75,8.111,5.359,8.359
	c0.609,0.248,2.791-1.991,3.182-3.079c0.391-1.088-1.937-6.811-3.001-10.13c-1.064-3.319-7.293-19.362-7.293-19.362l-13.174-28.6
	c0,0-4.943-6.331-5.551-7.37c-0.608-1.038-1.046-2.197,0.673-4.926c1.719-2.729,0.764-8.19-0.35-11.043
	c-1.115-2.853-4.653-3.424-5.768-3.436c-1.115-0.013-1.28-3.779-1.828-5.59c-0.548-1.812-0.992-4.828-1.82-7.639
	s-3.652-8.486-3.652-8.486l-12.169-24.076c0,0-11.642-19.418-12.671-20.9c-1.029-1.482-1.738-1.757-2.533-1.678
	c-0.795,0.078-2.837,1.266-3.381,1.63c-0.544,0.364-0.754,1.162-0.747,2.823c0.007,1.661,4.707,16.916,5.83,20.346
	c1.123,3.43,7.068,20.424,8.311,23.887c1.243,3.463,5.593,13.544,5.593,13.544s-4.383,1.396-5.493,2.015
	c-1.11,0.62-4.594,4.188-5.547,5.555c-0.953,1.367-2.675,6.803-3.556,8.742c-0.881,1.94-3.632,4.319-3.632,4.319
	s-5.024,4.437-5.472,4.825c-0.447,0.388-1.053,2.131-1.053,2.131s-57.609,38.136-58.354,38.603s-2.597-0.067-2.597-0.067
	l-17.15,8.43c0,0-0.692-0.318-1.452-0.542c-0.76-0.224-3.842-0.253-5.156,0.057c-1.315,0.31-9.952,4.149-9.952,4.149l-8.578-3.252
	c0,0-1.638-16.423-1.598-17.126c0.04-0.703-2.543-2.347-3.389-2.897c-0.846-0.55-2.14-1.088-2.14-1.088s0.089-16.984,0.03-18.645
	c-0.059-1.661-1.045-2.47-1.045-2.47l15.839-64.901c0,0,0.789-2.713,1.737-3.607c0.948-0.894,1.145-2.519,1.145-2.519
	s1.802-5.173,2.805-7.298c1.002-2.126,3.218-3.911,3.218-3.911s1.652,0.288,2.536,0.376c0.885,0.088,3.268-1.73,3.268-1.73
	s1.67,0.163,3.764,0.377s3.478-1.32,4.75-2.584c1.272-1.264,2.613-4.418,2.613-4.418s1.096,0.414,2.479,0.927
	c1.383,0.513,3.54,0.472,5.208,0.364c1.668-0.108,7.256-1.282,9.464-1.808c2.209-0.526,16.439-4.332,20.719-5.633
	c4.281-1.301,15.115-5.973,15.751-6.3c0.636-0.327,1.282-1.661,1.487-3.641c0.205-1.98-0.56-2.934-1.418-3.281
	c-0.858-0.346-6.114,0.25-8.959,0.43s-16.237,1.878-16.237,1.878s-14.174,3.154-17.684,4.235c-3.51,1.081-6.792,2.872-7.934,3.209
	c-1.142,0.336-3.882,0.57-3.882,0.57s-1.436-2.097-2.649-2.949c-1.212-0.851-3.183-0.52-3.744-1.042
	c-0.561-0.522-0.866-0.077-1.355-1.278c-0.489-1.201-1.886-1.078-2.603-1.382c-0.717-0.304-4.305-1.401-4.305-1.401
	s-2.107-1.482-2.885-1.794c-0.779-0.312-4.768-0.673-6.14-0.476c-1.372,0.198-2.774,1.053-3.898,1.71s-2.607,0.78-3.021,1.025
	c-0.415,0.245-2.308,2.175-3.552,4.061c-1.245,1.887-2.061,5.889-2.282,5.976c-0.22,0.086-7.457,2.268-8.853,2.713
	c-1.396,0.444-17.069,5.978-18.527,6.625c-1.457,0.647-7.32,3.877-7.627,4.655c-0.307,0.779,0.235,4.874,2.077,5.652
	c1.842,0.778,3.554,0.298,5.881,0.616c2.327,0.317,15.836-1.284,19.18-1.642c3.343-0.358,10.545-1.63,10.545-1.63
	s-0.514,9.297-0.633,10.367c-0.119,1.07,0.733,1.808,0.733,1.808s-15.909,65.469-16.199,65.757
	c-0.291,0.288-1.819,1.622-1.819,1.622l-7.632,22.056l-1.234,0.051c0,0-2.088,0.401-3.058,1.228s-3.209,7.193-3.209,7.193
	s-3.548,9.273-4.052,11.135c-0.504,1.862-0.725,6.188-0.725,6.188l-4.553,2.726l-0.816-1.226l-2.153-2.209
	c0,0-6.027-4.844-6.415-5.065c-0.388-0.221-1.703-0.525-1.703-0.525l-15.24-14.514l-13.899-13.353c0,0,2.538-3.675,3.481-5.283
	c0.943-1.608,4.637-9.655,6.068-12.77c1.431-3.115,12.319-29.961,12.319-29.961l6.786-1.108c0,0,1.436-0.498,3.829-2.424
	c2.392-1.926,1.878-5.8,1.428-9.292c-0.45-3.492-3.963-5.781-3.963-5.781s-1.398-1.358-1.983-2.584
	c-0.585-1.226-2.637-2.88-3.739-2.596c-1.548,0.399-3.899,5.066-3.899,5.066s-15.407,2.629-17.538,3.13
	c-2.13,0.501-3.025,0.492-4.812,1.999c-1.787,1.507-1.826,4.558-1.826,4.558l-30.907,5.328l-2.204-0.938
	c0,0-17.089,2.781-18.18,2.985c-1.091,0.205-2.383,1.834-2.383,1.834l-31.03,5.294c0,0-1.566-2.091-2.97-3.67
	c-1.405-1.58-3.854-0.916-3.854-0.916l-21.305,3.77c0,0-4.426,0.965-5.81,1.856c-1.385,0.892-2.298,3.51-2.753,5.461
	c-0.455,1.951,0.141,7.901,3.578,10.095c3.437,2.194,6.296,1.226,6.296,1.226s19.866-3.271,21.539-3.556
	c1.674-0.286,3.891-1.169,5.009-2.327c1.118-1.159,1.556-4.408,1.556-4.408l31.205-5.283l1.461,0.854c0,0,0.391,10.957,0.59,12.88
	c0.199,1.924,1.778,2.5,1.778,2.5l6.25-1.352l1.452-2.756c0,0,3.793,3.642,4.445,4.339c0.652,0.696,2.433,0.616,2.433,0.616
	l14.645,13.816l10.359,10.576c0,0-0.942-0.061-1.794-0.758c-0.853-0.698-2.239-0.81-3.532-1.16c-1.293-0.35-2.258-2.188-3.602-2.908
	c-1.344-0.72-6.181-1.406-7.775-1.389c-1.595,0.016-3.672,2.177-4.588,2.576c-0.916,0.399-2.168,1.123-4.008,2.697
	c-1.84,1.574-2.986,6.781-3.346,9.541c-0.36,2.76,1.486,6.933,1.486,6.933s1.272,2.646,2.077,3.869
	c0.806,1.223,3.825,1.561,3.825,1.561s5.642,1.655,7.447,1.602c1.805-0.054,2.764-0.878,2.764-0.878s2.567,0.585,2.519,1.767
	c-0.048,1.183-1.939,3.071-2.845,4.491c-0.906,1.42-7.341,12.874-10.39,18.492c-3.048,5.618-9.168,19.04-11.047,23.166
	c-1.879,4.126-9.042,21.553-9.359,22.434c-0.317,0.881,1.418,3.707,2.278,4.126c0.86,0.419,1.878-2.679,3.77-5.646
	c1.891-2.966,8.92-15.703,10.256-18.247c1.336-2.544,8.461-17.233,10.995-22.487c2.533-5.255,5.579-13.759,6.235-16.148
	c0.656-2.39,1.92-5.534,2.696-7.085c0.776-1.552,2.031-2.274,2.031-2.274l22.552,20.602l0.878,2.694l5.722,8.004l-1.74,0.419
	l-8.513,2.208l-2.104,1.479c0,0-3.788,1.056-5.054,1.905c-1.266,0.849-1.77,4.456-2.339,7.32
	c-0.569,2.864,0.103,20.505,0.223,23.571c0.12,3.065,1.078,6.738,1.078,6.738s2.05,1.918,1.972,3.238
	c-0.078,1.32,2.961,2.112,2.961,2.112l13.023,6.032l-1.075,2.624c0,0-2.558,1.538-3.772,1.902c-1.213,0.364-1.39,2.231-1.406,3.295
	c-0.016,1.064,1.931,1.244,1.931,1.244l3.81-2.319l1.84,0.986l0.191,0.87l-49.684,30.543l-11.638-18.619c0,0-1.948-2.39-2.465-2.147
	c-0.517,0.242-2.004,4.313-2.004,4.313l4.871,13.217l-0.82,0.177c0,0-3.412,0.546-4.433,0.721c-1.022,0.175-1.568,2.139-1.889,3.871
	c-0.321,1.732,0.186,14.217,0.186,14.217s-1.183,0.593-2.258,1.037c-1.074,0.444-1.309,1.393-1.309,1.393l-31.036,5.294
	c0,0-1.914-2.83-3.656-3.772s-3.124-0.551-3.124-0.551l-23.145,4.012c0,0-2.29,0.329-4.555,1.861
	c-2.264,1.532-2.317,6.24-1.889,9.731c0.428,3.492,4.25,7.283,7.608,6.929c3.358-0.354,23.492-3.947,25.125-4.091
	c1.633-0.145,2.206-1.331,3.354-2.169c1.148-0.839,1.565-4.421,1.565-4.421l29.306-4.999c0,0,1.73-0.295,2.233,0.091
	c0.504,0.385,3.449,0.387,3.449,0.387l9.577-1.341l7.921-2.039l8.249,15.129c0,0-2.136,1.28-2.672,1.444
	c-0.536,0.164-2.228-0.182-3.607-0.248c-1.379-0.066-2.271,0.797-3.672,2.045c-1.401,1.248-2.532,3.802-3.305,5.262
	s-2.214,9.494-1.315,11.334c0.899,1.84,3.602,5.273,4.756,6.147s2.871,2.679,4.129,3.301c1.258,0.622,4.255,0.804,6.614,0.77
	c2.359-0.033,3.618-1.379,3.618-1.379s2.789,0.377,4.235,0.011s2.609-1.309,2.609-1.309s1.927,0.29,2.138,1.104
	c0.21,0.814,0.159,8.298,0.423,10.453c0.264,2.155,3.929,9.267,5.384,11.849c1.455,2.582,17.112,28.013,18.83,30.591
	c1.719,2.578,10.025,12.659,10.025,12.659s3.403-3.079,3.987-4.055c0.585-0.975-0.594-3.443-1.108-5.141
	c-0.514-1.698-5.987-16.921-5.987-16.921l-10.892-25.451c0,0-3.466-7.061-4.39-8.772c-0.924-1.711-5.917-8.053-5.917-8.053
	s-2.99-3.68-2.588-5.013c0.401-1.334,0.593-4.894-0.489-8.626c-1.082-3.732-4.921-4.219-6.518-4.086
	c-1.596,0.134-1.366-2.588-1.366-2.588s1.234-2.573,1.603-3.405s0.121-2.57,0.121-2.57l11.102-18.484c0,0,2.503,1.718,3.276,2.288
	c0.773,0.57,3.618-0.926,3.618-0.926l22.53-3.667c0,0,2.046-0.712,3.347-1.752c1.301-1.04,2.101-4.057,2.349-7.382
	c0.248-3.324-2.171-6.14-3.459-7.557c-1.288-1.417-4.647-1.778-4.647-1.778l-16.132,2.705c0,0,3.971-6.604,4.399-7.317
	c0.429-0.713,2.837-1.635,2.837-1.635l8.082-7.095c0,0,1.873,0.033,4.009,0.281c2.136,0.248,5.342-1.905,5.342-1.905l4.23-2.845
	l6.595,3.12l0.775,4.201c0,0,4.518,11.086,5.187,12.868c0.669,1.782,2.282,4.004,3.338,4.767c1.056,0.762,2.619,0.42,2.619,0.42
	s6.901,20.966,7.266,21.914c0.365,0.948,1.713,1.188,1.713,1.188l11.66,51.402c0,0,4.365,20.527,3.96,21.346
	c-0.404,0.819,0.372,6.889,0.459,8.258c0.087,1.37-0.454,7.273-1.017,8.817c-0.563,1.544-1.918,5.453-2.085,6.689
	c-0.167,1.237,0.291,6.56,0.291,6.56l-8.229,1.722l-15.578,4.332c0,0-9.139,3.499-9.656,4.03c-0.517,0.531-1.363,5.288-1.234,5.852
	c0.129,0.563,4.655,0.579,7.11,0.722c2.454,0.143,12.324-0.451,16.337-0.863c4.012-0.412,14.53-1.909,14.53-1.909
	s5.048-1.358,7.155-1.219c2.106,0.138,4.166,0.653,5.737,0.449c1.571-0.205,2.592-1.137,2.592-1.137s3.532,0.49,4.44,0.547
	s2.619-1.201,2.619-1.201s2.574-0.146,3.687,0.122c1.113,0.268,2.606-0.545,3.983-1.378c1.377-0.833,3.303-4.895,3.303-4.895
	l5.323-0.081c0,0,4.426,0.401,5.951,0.407c1.525,0.005,5.207-0.636,5.207-0.636s13.611-2.778,15.214-3.209
	c1.603-0.431,13.87-4.358,13.87-4.358s9.475-3.824,10.019-4.554s-0.205-5.682-0.375-6.075c-0.17-0.393-2.303-0.471-2.303-0.471
	l-12.611-0.579c0,0-18.937,1.352-23.071,1.749c-4.133,0.397-11.478,2.112-13.652,3.316c-2.174,1.204-3.739,3.572-3.739,3.572
	s-2.085-1.444-2.708-1.843c-0.622-0.399-4.349-1.146-4.349-1.146s-0.984-1.204-1.917-1.774c-0.934-0.57-3.592-1.263-5.122-1.503
	c-1.529-0.24-2.166-3.058-2.166-3.058s-2.958-4.249-3.828-6.463s-2.007-6.097-2.387-7.333c-0.38-1.237-1.8-2.306-1.8-2.306
	l-8.171-36.656l-8.164-37.225l0.888-1.317l0.28-5.235l-0.36-17.902c0,0,4.246-1.169,5.095-1.441
	c0.849-0.272,0.853-1.622,0.853-1.622s0.98-11.521,1.41-14.935c0.43-3.414,0.533-5.602,0.533-5.602l14.491-10.009
	c0,0,4.041,0.908,6.089,1.369c2.048,0.461,4.2,0.916,5.827,0.722c1.627-0.194,2.848-1.317,2.848-1.317s12.368,4.066,13.422,4.413
	c1.053,0.347,2.562-0.089,2.562-0.089l57.159,29.077l1.696,1.943c0,0,2.783,1.716,5.245,3.365c2.463,1.649,4.429,4.831,5.17,7.228
	c0.741,2.398,4.566,7.094,6.218,8.257c1.651,1.164,5.084,1.901,6.727,2.365c1.643,0.464,2.813,0.623,4.432,0.564
	s2.311-1.432,2.799-0.884c1.522,1.711-4.556,5.127-6.032,6.891c-1.476,1.765-2.756,5.485-2.756,5.485s-7.352,22.143-8.694,26.437
	c-1.342,4.294-9.23,32.881-9.6,34.747c-0.37,1.865,0.707,2.68,2.297,3.216c1.589,0.536,2.551,0.264,3.066-0.137
	c0.515-0.401,6.989-12.38,6.989-12.38s7.945-15.469,10.251-20.216c2.306-4.746,9.27-20.85,10.464-23.681
	c1.194-2.831,3.48-10.849,3.48-10.849l1.771-9.489c0,0,1.086-0.181,2.554-0.806s3.37-3.416,4.583-6.029
	c1.212-2.613,0.256-7.568-0.455-9.281c-0.711-1.714-0.911-3.009-0.886-4.028c0.024-1.018,0.652-3.403,0.911-4.003
	s6.921-12.347,6.921-12.347s8.534-20.34,9.591-22.937c1.057-2.597,9.064-25.077,9.064-25.077s3.186-11.059,2.803-11.803
	c-0.383-0.744-2.511-0.757-3.413-0.167s-3.459,6.808-3.459,6.808l-11.373,25.897c0,0-9.195,24.458-10.036,26.966
	c-0.842,2.508-3.906,12.331-4.779,13.718c-0.873,1.387-1.982,2.094-1.982,2.094s-0.929-0.93-1.541-1.39
	c-0.612-0.46-4.002-1.237-4.002-1.237s-1.091-1.253-2.551-2.379c-1.46-1.126-4.493-1.381-6.437-1.778
	c-1.944-0.398-5.783-0.551-7.716-0.39c-1.933,0.16-4.845,1.42-4.845,1.42s-7.772-3.228-9.211-3.737
	c-1.439-0.509-2.831-0.405-2.831-0.405l-51.509-26.201c0,0-5.898-3.071-6.11-3.72c-0.213-0.649-1.774-2.007-1.774-2.007
	l-12.115-9.156c0,0,0.602-3.296,0.548-4.201c-0.054-0.905-1.037-1.245-1.037-1.245s1.387-5.814,2.064-7.945
	c0.676-2.131,2.147-11.625,2.406-15.596s-1.056-13.829-1.436-15.685c-0.38-1.856-3.312-9.631-3.312-9.631s1.334-1.771,1.437-2.436
	c0.102-0.665-1.078-4.071-1.078-4.071s13.074-13.111,14.133-14.26c1.059-1.149,0.609-2.171,0.609-2.171l59.488-39.379
	L634.837,355.633z M419.99,550.048l-1.423,0.582c0,0-0.873-2.858-1.315-4.125c-0.442-1.266-3.292-7.673-3.292-7.673l14.411-2.46
	L419.99,550.048z M445.485,507.916l-11.923,19.825l-23.223,3.963l-2.651-5.167l38.579-23.716c0,0-0.644,1.689-0.889,2.365
	C445.134,505.863,445.485,507.916,445.485,507.916z M409.534,338.848c0,0-1.105-1.843-1.506-3.357s-3.697-4.176-3.697-4.176
	s-3.073-2.936-2.987-3.521c0.086-0.585,1.913-2.667,2.527-2.756c0.614-0.089,2.152-1.805,2.152-1.805l30.881-5.139
	c0.608,1.539,3.731,3.975,4.623,4.339c0.893,0.365,4.802-0.385,4.802-0.385s-8.465,15.521-13.877,23.98
	c-1.869,2.921-4.766,10.634-4.766,10.634L409.534,338.848z M445.538,392.849c0.162,1.061,4.076,4.168,4.076,4.168l12.031,11.234
	l-0.74,0.56c0,0,0,0-1.301-0.024c-1.301-0.024-2.492,0.137-2.492,0.137s-1.444-0.342-3.02-1.32
	c-1.576-0.978-2.131-0.506-2.131-0.506l-20.695-18.907c0,0,2.652-2.442,3.064-4.429c0.412-1.986,0.415-3.923,0.428-5.335
	c0.013-1.411-0.649-3.214-0.649-3.214l27.965,26.731l0.547,1.805c0,0-15.068-13.91-15.429-14.06
	c-0.361-0.151-1.005,0.307-1.304,0.633C445.586,390.648,445.376,391.787,445.538,392.849z"/>
<line class="st1" x1="437.85" y1="538.584" x2="449.242" y2="519.452"/>
<line class="st1" x1="428.371" y1="536.373" x2="433.563" y2="527.741"/>
<line class="st1" x1="404.364" y1="541.522" x2="392.152" y2="515.187"/>
<path class="st1" d="M476.307,438.109c0,0,8.254-0.565,9.612-0.719c1.359-0.154,6.603-0.463,7.409-1.08
	c0.806-0.617,3.408-8.001,5.544-10.45s2.92-3.432,5.291-3.847c2.371-0.415,16.639-1.123,20.858-0.948
	c4.219,0.175,17.388,1.519,20.561,2.193s7.91,1.528,9.389,3.12c1.479,1.592,2.812,7.382,3.05,11.323s0.471,12.176-0.073,15.539
	s-1.684,8.044-2.92,9.534c-1.237,1.49-6.192,5.154-12.21,8.977c-6.017,3.823-20.047,9.984-25.626,11.587s-14.128,3.691-15.865,2.815
	c-1.738-0.876-4.95-6.145-5.878-7.834c-0.927-1.689-2.035-2.643-2.969-2.578c-0.935,0.065-16.116,1.145-16.116,1.145
	s-0.672,0.668,0.311,1.973s7.324,9.902,9.498,11.244c2.174,1.342,4.172,1.182,8.667,1.183c4.495,0.001,25.055-5.148,29.134-6.824
	c4.079-1.676,15.483-7.058,20.483-10.356s12.323-8.961,14.281-12.36c1.958-3.399,3.723-12.078,3.964-16.003
	c0.241-3.925-1.634-16.614-1.634-16.614s-0.393-3.24-3.028-5.367s-8.772-3.898-15.547-4.782s-28.192-2.235-35.861-1.627
	c-7.669,0.608-16.503,1.058-18.19,2.467c-1.687,1.409-7.706,9.601-9.505,12.425C477.138,435.068,474.469,438.07,476.307,438.109z"/>
<path class="st1" d="M477.032,446.022c0,0-0.008,0.275-0.023,0.761c-0.101,3.366-0.496,16.846-0.413,19.035
	c0.094,2.506-0.096,6.483,0.986,7.605c1.082,1.123,4.06,1.393,6.611,1.132c2.551-0.261,17.641-2.376,19.96-3.494
	c2.32-1.118,3.756-2.821,4.308-6.444c0.552-3.624,0.825-16.424,0.504-18.67c-0.339-2.375,0.054-4.847-4.397-6.091
	c-1.989-0.556-16.453,1.32-19.836,1.568C481.348,441.671,477.355,443.299,477.032,446.022z"/>
<g>
	<line class="st2" x1="553.344" y1="444.128" x2="513.185" y2="452.247"/>
	<g>
		<line class="st3" x1="539.503" y1="446.926" x2="513.185" y2="452.247"/>
		<g>
			<polygon points="553.344,444.128 532.229,440.102 538.468,447.136 535.451,456.039 			"/>
		</g>
	</g>
</g>
</svg>
