<?xml version="1.0" encoding="utf-8"?>
<!-- Generator: Adobe Illustrator 22.0.1, SVG Export Plug-In . SVG Version: 6.00 Build 0)  -->
<svg version="1.1" id="Layer_1" xmlns="http://www.w3.org/2000/svg" xmlns:xlink="http://www.w3.org/1999/xlink" x="0px" y="0px"
	 width="72px" height="72px" viewBox="0 0 72 72" style="enable-background:new 0 0 72 72;" xml:space="preserve">
<style type="text/css">
	.st0{fill:#FFFFFF;stroke:#000000;stroke-width:2;stroke-miterlimit:2;}
	.st1{fill:#FF9915;stroke:#000000;stroke-width:0.25;stroke-miterlimit:2;}
	.st2{fill:none;stroke:#009444;stroke-width:2;stroke-miterlimit:10;}
	.st3{fill:#009444;}
</style>
<polygon class="st0" points="35.773,28.193 36.227,27.948 36.211,28.293 "/>
<path class="st1" d="M62.253,23.256c0,0-0.582-0.124-0.674-0.118c-0.092,0.006-0.405,0.123-0.611,0.192
	c-0.206,0.07-1.052,0.425-1.2,0.492c-0.148,0.067-0.993,0.525-1.08,0.594s-0.102,0.151-0.164,0.249
	c-0.062,0.099-0.091,0.177-0.091,0.177s-0.233,0.023-0.317,0.034c-0.084,0.011-0.346,0.079-0.504,0.142
	c-0.159,0.063-0.198,0.189-0.198,0.189l0.012,0.74l-1.127,0.675c0,0-1.037,0.683-1.211,0.793c-0.174,0.11-0.279,0.364-0.28,0.397
	c0,0.032,0.146-0.022,0.298-0.031c0.152-0.009,0.509-0.152,0.628-0.207c0.119-0.054,0.566-0.31,0.681-0.378
	c0.114-0.068,0.753-0.472,0.753-0.472l0.012,0.619c0,0-0.11,0.035-0.18,0.073c-0.07,0.038-0.297,0.132-0.373,0.166
	c-0.076,0.033-0.431,0.182-0.582,0.213c-0.151,0.03-0.54,0.193-0.597,0.226c-0.057,0.034-0.173,0.17-0.173,0.17l-4.966,1.416
	l-3.096,0.857c0,0-0.119-0.041-0.217-0.071c-0.098-0.03-0.574,0.034-0.731,0.027c-0.157-0.007-0.75,0.063-0.874,0.052
	c-0.123-0.011-0.562-0.04-0.562-0.04l-0.057-0.134l0.172-0.143c0,0,0.331-0.241,0.372-0.308c0.042-0.067,0.059-0.203,0.059-0.203
	l2.314-1.326l0.893-0.032c0,0,2.881,0.005,3.127,0.007c0.246,0.002,0.502,0.003,0.48-0.034c-0.021-0.036-0.366-0.076-0.572-0.102
	c-0.206-0.026-1.109-0.101-1.212-0.108c-0.103-0.008-2.027-0.126-2.027-0.126l2.975-1.705c0,0,0.068,0.009,0.151,0.014
	c0.082,0.004,0.132-0.023,0.223-0.065c0.091-0.042,0.392-0.187,0.497-0.235c0.105-0.048,0.428-0.165,0.57-0.21
	c0.142-0.045,0.353-0.085,0.353-0.085s0.068,0.019,0.196,0.06c0.128,0.041,0.545,0.018,0.749,0.021s0.449-0.113,0.561-0.136
	c0.112-0.023,0.425-0.273,0.495-0.303c0.07-0.03,0.091-0.146,0.091-0.146s0.027-0.063,0.063-0.105
	c0.037-0.042,0.061-0.207,0.061-0.207s0.025-0.05,0.097-0.121c0.072-0.071,0.121-0.188,0.135-0.274
	c0.014-0.085-0.008-0.579-0.037-0.641c-0.029-0.062-0.222-0.1-0.222-0.1s-0.035-0.961-0.037-1.033
	c-0.003-0.072-0.271-0.17-0.271-0.17l-0.034-0.481c0,0,0.293,0.114,0.402,0.177c0.108,0.063,0.235,0.121,0.285,0.136
	c0.05,0.015,0.661,0.093,0.828,0.102c0.167,0.009,0.703-0.012,0.968-0.011c0.265,0.001,2.041,0.063,2.041,0.063
	s1.929,0.178,1.99,0.122s-1.638-0.331-1.638-0.331l-2.124-0.316l-2.749-0.432c0,0-0.018-0.06-0.061-0.111
	c-0.043-0.051-0.324-0.123-0.446-0.147c-0.122-0.024-0.523-0.041-0.714-0.036c-0.191,0.005-0.485,0.051-0.485,0.051
	s-0.414-0.135-0.546-0.17c-0.133-0.034-0.303-0.052-0.498-0.066c-0.196-0.014-1.7-0.074-1.7-0.074l-2.353-0.06
	c0,0-1.369,0.025-1.481,0.037c-0.113,0.012-0.29,0.092-0.359,0.118c-0.068,0.026-0.206,0.105-0.206,0.105l0.828,0.235l2.65,0.536
	c0,0,1.524,0.301,1.696,0.312c0.172,0.012,0.632-0.042,0.768-0.073c0.136-0.03,0.276-0.146,0.386-0.219
	c0.11-0.073,0.179-0.056,0.179-0.056l0.022,0.674c0,0-0.095,0.093-0.136,0.103c-0.041,0.01-0.138,0.087-0.138,0.087l0.053,1.033
	c0,0-0.085,0.028-0.146,0.056c-0.061,0.028-0.106,0.122-0.158,0.201c-0.053,0.079-0.283,0.343-0.357,0.42
	c-0.074,0.077-0.287,0.223-0.287,0.223s-0.338,0.242-0.393,0.306c-0.055,0.063-0.118,0.174-0.118,0.174l-1.329,0.762l-3.277,1.879
	c0,0-1.806-0.105-1.971-0.115c-0.165-0.01-1.525-0.039-1.525-0.039l-0.631,0.047c0,0-0.16-0.104-0.285-0.156
	c-0.125-0.052-0.412-0.148-0.918-0.152c-0.506-0.004-0.763,0.085-0.794,0.077c-0.031-0.008-0.253,0.079-0.253,0.079
	s-0.087-0.012-0.115-0.007c-0.028,0.005-0.442-0.08-0.621-0.108c-0.179-0.028-0.441-0.052-0.648-0.071
	c-0.207-0.019-0.769-0.028-0.984-0.026c-0.215,0.002-1.494,0.021-1.494,0.021l-2.155,0.045l-0.529-1.248l-0.612-1.443
	c0,0,0.01-0.105,0.011-0.139c0.001-0.034-0.021-0.211-0.021-0.211s0.16-0.087,0.216-0.145c0.056-0.058,0.098-0.196,0.098-0.196
	s0.068-0.897,0.075-0.988c0.007-0.091,0.006-0.168-0.034-0.245s-0.188-0.103-0.188-0.103l0-0.052c0,0,0.054-0.89,0.041-0.963
	c-0.012-0.073-0.048-0.07-0.117-0.102c-0.07-0.032-0.149-0.089-0.149-0.089l0.028-0.603c0,0,0.261,0.075,0.366,0.133
	c0.105,0.058,0.441,0.227,0.547,0.263c0.107,0.036,0.733,0.117,0.912,0.127c0.179,0.01,0.83-0.063,0.83-0.063l2.856-0.137
	c0,0,4.025-0.239,4.13-0.24c0.105-0.002,0.181-0.02,0.207-0.061c0.026-0.041-0.086-0.115-0.139-0.163
	c-0.053-0.048-0.112-0.066-0.212-0.083c-0.1-0.017-0.816-0.088-0.816-0.088l-3.646-0.257c0,0-3.124-0.158-3.295-0.166
	c-0.17-0.008-0.503-0.003-0.647,0.004c-0.144,0.007-0.676,0.058-0.676,0.058l-0.612,0.081c0,0-0.031,0.008-0.198-0.061
	c-0.167-0.069-0.371-0.085-0.598-0.112c-0.226-0.027-0.638,0.002-0.796,0.007c-0.158,0.005-0.408,0.124-0.481,0.162
	c-0.072,0.038-0.062,0.097-0.062,0.097s-0.428-0.059-0.625-0.07c-0.197-0.012-0.884-0.021-1.076-0.036
	c-0.192-0.015-2.39,0.077-2.39,0.077l-3.124,0.075c0,0-2.104,0.111-2.278,0.151c-0.174,0.039-0.428,0.037-0.361,0.058
	c0.066,0.021,0.526,0.012,0.726,0.017c0.2,0.006,1.305,0.044,1.569,0.057c0.264,0.013,1.926,0.075,2.112,0.086
	c0.186,0.012,2.035,0.122,2.29,0.147c0.255,0.025,0.95,0.079,1.087,0.091c0.137,0.012,0.657,0.018,0.769,0.021
	c0.113,0.003,0.363-0.03,0.517-0.07c0.154-0.04,0.324-0.139,0.397-0.18c0.073-0.041,0.185-0.051,0.221-0.039
	c0.036,0.012,0.157,0.035,0.157,0.035l-0.042,0.574c0,0-0.114,0.069-0.16,0.093s-0.122,0.074-0.122,0.074s-0.025,1.02-0.03,1.011
	c-0.005-0.009-0.152,0.054-0.198,0.085c-0.046,0.031-0.064,0.116-0.064,0.116s-0.009,0.789,0.005,0.946s0.143,0.257,0.22,0.335
	c0.077,0.077,0.26,0.203,0.315,0.245c0.055,0.041,0.326,0.203,0.451,0.232s0.32,0.081,0.425,0.097
	c0.105,0.016,0.135,0.109,0.163,0.136c0.028,0.028,0.246,0.312,0.292,0.36c0.047,0.049,0.154,0.113,0.154,0.113l0.943,2.224
	l-2.562,0.135c0,0-0.223,0.024-0.262,0.06c-0.039,0.036-0.016,0.201,0.023,0.244c0.038,0.044,0.974,0.101,1.171,0.12
	c0.197,0.019,1.935,0.159,1.935,0.159l0.115,0.271c0,0-0.77,0.101-0.923,0.125c-0.152,0.024-0.974,0.178-1.212,0.229
	c-0.238,0.051-1.157,0.337-1.307,0.408c-0.151,0.071-0.464,0.223-0.464,0.223s-0.605,0.034-0.69,0.043
	c-0.085,0.009-0.283,0.011-0.409,0.047c-0.126,0.036-0.234,0.134-0.287,0.145s-0.39-0.037-0.39-0.037l-1.585-0.223
	c0,0-0.316-0.044-0.382-0.033c-0.066,0.011-0.224,0.06-0.224,0.06l-2.08-0.804l-2.271-0.868L21,27.679l2.115,0.044
	c0,0,2.518,0.03,2.656,0.029c0.138-0.001,0.201-0.062,0.283-0.102c0.083-0.04,0.193-0.136,0.194-0.174
	c0.001-0.038-0.999-0.242-0.999-0.242l-1.76-0.339c0,0-1.36-0.222-1.601-0.258c-0.241-0.037-0.872-0.126-1.062-0.142
	s-0.685,0.001-0.685,0.001l-0.453,0.032c0,0,0,0-0.039-0.053c-0.039-0.053-0.098-0.05-0.189-0.078s-0.366-0.083-0.456-0.093
	c-0.09-0.01-0.439-0.006-0.561-0.001c-0.122,0.005-0.39,0.033-0.452,0.043c-0.062,0.01-0.337,0.086-0.337,0.086
	s-0.295-0.114-0.36-0.152c-0.064-0.038-0.109-0.133-0.225-0.217c-0.115-0.084-0.222-0.101-0.403-0.184
	c-0.181-0.083-0.485-0.24-0.625-0.344s-0.425-0.281-0.509-0.338c-0.084-0.057-0.197-0.145-0.197-0.145l-0.007-0.686
	c0,0-0.002-0.235-0.036-0.299c-0.034-0.065-0.239-0.11-0.239-0.11s-0.039-0.905-0.045-1.015c-0.006-0.11-0.093-0.112-0.131-0.133
	c-0.038-0.021,0.066-0.104,0.134-0.164c0.068-0.059,0.178-0.091,0.32-0.158c0.142-0.066,0.975-0.436,1.209-0.549
	c0.233-0.114,0.723-0.376,0.927-0.497c0.203-0.121,0.595-0.423,0.595-0.423s-0.069-0.028-0.208-0.014
	c-0.139,0.014-0.451,0.082-0.451,0.082l-0.831,0.359l-1.277,0.691c0,0-0.786,0.479-0.865,0.531
	c-0.079,0.051-0.239-0.016-0.321-0.021c-0.082-0.005-0.401,0-0.55,0.011c-0.15,0.011-0.45,0.084-0.557,0.11
	c-0.108,0.026-0.251,0.128-0.32,0.207c-0.069,0.079-0.036,0.204-0.036,0.204s-0.113,0.028-0.212,0.041
	c-0.099,0.014-0.333,0.13-0.454,0.196c-0.121,0.066-0.633,0.417-0.841,0.561c-0.207,0.144-0.806,0.651-0.977,0.812
	c-0.171,0.162-0.481,0.508-0.528,0.577s0.476,0.214,0.597,0.242c0.121,0.028,0.162-0.009,0.276-0.04
	c0.115-0.03,0.814-0.254,1.067-0.341c0.254-0.088,0.867-0.297,0.867-0.297l0.004,0.221l-0.14,0.077c0,0-0.09,0.114-0.1,0.153
	c-0.01,0.039,0.014,0.482,0.025,0.519c0.01,0.036,0.114,0.194,0.114,0.194l-1.535,0.01c0,0,0.044,0.032,0.116,0.05
	c0.072,0.017,0.395,0.046,0.395,0.046l1.153,0.13l0.063,0.238c0,0,0.135,0.132,0.247,0.227c0.113,0.094,0.453,0.25,0.615,0.303
	c0.162,0.053,0.64,0.074,0.966,0.047c0.326-0.027,0.338-0.146,0.338-0.146l0.382,0.054l0.999,0.15c0,0,0.299,0.113,0.332,0.194
	c0.033,0.081,0.174,0.099,0.274,0.128c0.101,0.029,0.265-0.048,0.265-0.048l0.201-0.032l0.232,0.056l-0.01,0.154l-0.267,0.19
	l0.049,1.034l-0.137,0.053l-0.103,0.149l0.061,0.606l0.147,0.085c0,0,0.099,0.281,0.162,0.472c0.062,0.191,0.347,0.278,0.585,0.398
	c0.238,0.119,0.677,0.137,1.201,0.098c0.524-0.039,0.721-0.25,0.915-0.371c0.194-0.121,0.694,0.13,0.936,0.195
	c0.242,0.065,0.452-0.027,0.452-0.027l5.853,1.683c0,0,0.102,0.164,0.259,0.24c0.156,0.076,1.349,0.522,1.349,0.522
	s0.066,0.083,0.156,0.174c0.09,0.091,0.238,0.169,0.356,0.229c0.118,0.06,0.349,0.139,0.349,0.139s0.023,0.294,0.045,0.412
	c0.022,0.118,0.124,0.259,0.185,0.32c0.06,0.061,0.224,0.143,0.367,0.202c0.144,0.059,0.307,0.131,0.307,0.131
	s0.451,0.755,0.483,0.806c0.032,0.051,0.123,0.14,0.204,0.197c0.081,0.057,0.278,0.097,0.278,0.097l0.664,0.132l-0.631,0.108
	c0,0,0.016,0.169,0,0.211c-0.016,0.041,0.041,0.08,0.041,0.08s0.613,0.119,0.662,0.142c0.049,0.023,0.17,0.088,0.17,0.088
	s-0.052,0.112-0.036,0.172c0.016,0.06-0.053,0.045-0.118,0.084c-0.066,0.039-0.056,0.061-0.056,0.061s-0.409,1.289-0.416,1.409
	c-0.007,0.12,0.053,0.08,0.053,0.08l-1.252,3.128l-3.091,7.72c0,0-0.103-0.005-0.142,0.003c-0.039,0.008-0.089,0.134-0.089,0.134
	s-0.452,1.094-0.549,1.203c-0.096,0.109-0.208,0.069-0.344,0.072c-0.136,0.002-0.511-0.018-0.658-0.037
	c-0.147-0.019-0.238-0.016-0.32-0.008c-0.082,0.008-0.195,0.083-0.195,0.083l-3.293-0.57c0,0-0.014-0.202-0.053-0.309
	c-0.039-0.107-0.136-0.23-0.25-0.346c-0.114-0.116-0.394-0.142-0.394-0.142l-1.636-0.287c0,0-1.057-0.187-1.218-0.175
	c-0.161,0.012-0.398,0.077-0.63,0.374c-0.232,0.298-0.304,0.863-0.134,1.295c0.17,0.432,0.465,0.47,0.465,0.47l1.001,0.202
	c0,0,1.63,0.352,1.934,0.344c0.304-0.008,0.424-0.156,0.547-0.257c0.123-0.101,0.241-0.272,0.241-0.272l3.282,0.571
	c0,0,0.1,0.076,0.149,0.127c0.05,0.051,0.145,0.079,0.145,0.079l1.656,0.317c0,0,0.384,0.045,0.507,0.039
	c0.123-0.005,0.2-0.1,0.2-0.1l3.345,0.586c0,0,0.007,0.12,0.016,0.155c0.009,0.034,0.101,0.25,0.213,0.409
	c0.112,0.159,0.397,0.214,0.397,0.214s2.398,0.42,2.627,0.46c0.229,0.04,0.355,0.011,0.534-0.047
	c0.179-0.058,0.395-0.25,0.526-0.568s0.112-0.577,0.066-0.902c-0.046-0.325-0.277-0.465-0.415-0.568
	c-0.138-0.102-0.386-0.115-0.386-0.115s-2.614-0.472-2.702-0.474c-0.088-0.002-0.343,0.108-0.414,0.156
	c-0.071,0.048-0.305,0.386-0.305,0.386l-3.167-0.555l0.197-0.463c0,0,0.065-0.044,0.107-0.086c0.042-0.043,0.093-0.197,0.096-0.254
	s-0.026-0.101-0.026-0.101s0.184-0.462,0.187-0.525s-0.107-0.114-0.107-0.114l2.831-7.072l1.513-3.778l0.075-0.011
	c0,0-1.184,2.997-1.182,3.038c0.002,0.041,0.139,0.045,0.257,0.049s0.214-0.06,0.214-0.06s1.173-2.923,1.211-3.02
	c0.039-0.097,0.094-0.226,0.166-0.343c0.072-0.117,0.256-0.326,0.291-0.389c0.035-0.063,0.237-0.281,0.333-0.363
	c0.096-0.082,0.299-0.322,0.364-0.402c0.065-0.08,0.247-0.329,0.247-0.329l0.023,0.057l0.285-0.021l0.05-0.051l0.789-0.102
	l0.096,0.017l0.211-0.032l0-0.139l0.98,0.17c0,0,0.534,0.962,0.612,1.068c0.078,0.107,0.387,0.138,0.664,0.178
	c0.277,0.039,0.602-0.007,0.602-0.007s1.128,2.447,1.16,2.503c0.032,0.056,0.254,0.032,0.348,0.027
	c0.094-0.005,0.118-0.074,0.118-0.074l-1.153-2.515l0.177-0.024l1.408,3.056l2.811,6.109c0,0-0.059,0.113-0.067,0.169
	c-0.009,0.056,0.151,0.392,0.151,0.392l-2.571-0.457c0,0-0.054-0.223-0.127-0.391c-0.073-0.168-0.298-0.319-0.359-0.351
	c-0.061-0.032-0.336-0.064-0.336-0.064s-2.575-0.455-2.723-0.451c-0.148,0.004-0.249,0.067-0.405,0.156
	c-0.156,0.088-0.314,0.353-0.413,0.569c-0.099,0.216-0.106,0.609-0.023,0.841c0.083,0.232,0.193,0.359,0.277,0.446
	c0.085,0.087,0.282,0.163,0.282,0.163s2.411,0.429,2.516,0.447c0.105,0.018,0.379,0.074,0.524,0.061
	c0.145-0.014,0.408-0.227,0.436-0.256c0.029-0.029,0.19-0.264,0.19-0.264l3.068,0.531l-0.699,0.701c0,0,0.479,0.12,0.576,0.137
	c0.097,0.017,0.344,0.017,0.344,0.017s1.429-0.2,1.586-0.223c0.157-0.023,0.199-0.079,0.199-0.079s0.55,0.097,0.662,0.051
	c0.113-0.046,0.191-0.091,0.191-0.091l3.357,0.577c0,0,0.02,0.166,0.157,0.41c0.137,0.244,0.373,0.359,0.373,0.359l2.196,0.377
	c0,0,0.649,0.111,0.902,0.099c0.252-0.012,0.393-0.207,0.525-0.351c0.132-0.144,0.271-0.405,0.275-0.785
	c0.004-0.38-0.1-0.653-0.301-0.832c-0.201-0.18-0.535-0.236-0.535-0.236s-2.492-0.437-2.58-0.452
	c-0.088-0.015-0.215-0.015-0.249-0.008c-0.035,0.007-0.303,0.144-0.364,0.194c-0.061,0.05-0.239,0.333-0.239,0.333l-0.043-0.007
	L47.5,48.19c0,0,0.003-0.019-0.022-0.056c-0.025-0.037-0.109-0.097-0.174-0.129s-0.338-0.07-0.338-0.07l-1.21-0.229l-0.223-0.493
	c0,0-0.241-0.514-0.279-0.557c-0.038-0.043-0.191-0.074-0.191-0.074l-0.03-0.066l-4.053-8.792c0,0,0.754-0.119,0.869-0.139
	c0.115-0.02,0.26-0.075,0.332-0.153c0.072-0.078,0.285-0.965,0.285-0.965s0.131-0.058,0.17-0.091
	c0.039-0.033,0.05-0.158,0.067-0.158s0.184-0.081,0.251-0.16c0.067-0.079,0.128-0.337,0.205-0.658
	c0.076-0.321,0.29-1.302,0.315-1.405s0.082-0.673,0.082-0.673s0.524-0.234,0.632-0.269c0.108-0.036,0.124-0.118,0.124-0.118
	s0.539-0.167,0.629-0.208c0.09-0.041,0.189-0.161,0.189-0.161l1.217-0.433c0,0,0.012,0.037,0.026,0.055
	c0.013,0.018,0.147,0,0.226-0.022c0.079-0.022,0.298-0.114,0.317-0.136c0.019-0.021-0.015-0.104-0.015-0.104
	s0.414-0.158,0.492-0.198c0.078-0.04,0.129-0.192,0.129-0.192L55.27,29.3l0.212,0.07l0.116-0.027c0,0,0.091,0.1,0.181,0.093
	c0.09-0.007,0.295-0.095,0.359-0.126c0.064-0.032,0.047-0.121,0.047-0.121s0.191-0.035,0.319-0.054
	c0.128-0.02,0.392-0.032,0.524-0.025c0.133,0.007,0.394-0.039,0.394-0.039s0.25,0.131,0.373,0.178
	c0.123,0.047,0.446,0.113,0.661,0.11c0.215-0.003,0.537-0.05,0.728-0.087c0.191-0.037,0.406-0.199,0.501-0.251
	c0.095-0.052,0.247-0.221,0.311-0.268c0.064-0.048,0.178-0.621,0.178-0.621s0.066-0.061,0.123-0.098
	c0.057-0.037,0.016-0.171,0.016-0.171s0.002-0.336-0.028-0.421c-0.03-0.084-0.22-0.149-0.22-0.149s-0.017-0.886-0.021-0.973
	c-0.004-0.087-0.275-0.17-0.275-0.17l-0.004-0.629c0,0,0.264,0.008,0.443-0.015c0.179-0.023,0.311-0.136,0.525-0.287
	c0.214-0.151,0.508-0.497,0.605-0.579c0.098-0.082,0.685-0.723,0.783-0.849c0.098-0.126,0.239-0.46,0.247-0.485
	C62.375,23.283,62.253,23.256,62.253,23.256z M21.442,29.468c0,0-0.128-0.141-0.2-0.192c-0.073-0.051-0.447-0.124-0.658-0.214
	c-0.21-0.09-0.533-0.297-0.533-0.297l-0.009-0.244l4.912,1.916L21.442,29.468z M44.361,28.718c-0.087,0.031-0.682,0.172-0.812,0.202
	c-0.13,0.031-0.425,0.095-0.425,0.095s-0.18-0.066-0.368-0.12c-0.189-0.054-0.528-0.095-0.528-0.095l0.017-0.606l0.155-0.069
	c0,0,0.308,0.166,0.442,0.225c0.134,0.06,0.588,0.076,0.785,0.083c0.197,0.008,1.798-0.163,1.809-0.084
	c0.009,0.064-0.505,0.255-0.505,0.255s-0.067,0.105-0.181,0.08C44.636,28.661,44.448,28.687,44.361,28.718z"/>
<g>
	<g>
		<line class="st2" x1="36" y1="16.132" x2="36" y2="7.176"/>
		<g>
			<polygon class="st3" points="40.986,8.635 36,0 31.014,8.635 			"/>
		</g>
	</g>
</g>
<g>
	<g>
		<line class="st2" x1="36" y1="55.868" x2="36" y2="64.824"/>
		<g>
			<polygon class="st3" points="31.014,63.365 36,72 40.986,63.365 			"/>
		</g>
	</g>
</g>
</svg>
