<?xml version="1.0" encoding="utf-8"?>
<!-- Generator: Adobe Illustrator 21.1.0, SVG Export Plug-In . SVG Version: 6.00 Build 0)  -->
<svg version="1.1" id="Layer_1" xmlns="http://www.w3.org/2000/svg" xmlns:xlink="http://www.w3.org/1999/xlink" x="0px" y="0px"
	 width="1152px" height="1152px" viewBox="0 0 1152 1152" style="enable-background:new 0 0 1152 1152;" xml:space="preserve">
<style type="text/css">
	.st0{fill:url(#SVGID_1_);}
	.st1{fill:#FFFFFF;stroke:#040101;stroke-width:2;stroke-miterlimit:2;}
	.st2{fill:#FFFFFF;}
	.st3{fill:none;stroke:#000000;stroke-width:2;stroke-miterlimit:2;}
</style>
<linearGradient id="SVGID_1_" gradientUnits="userSpaceOnUse" x1="576" y1="756" x2="576" y2="509.0137">
	<stop  offset="0" style="stop-color:#FFFFFF"/>
	<stop  offset="1" style="stop-color:#A3A3A3"/>
</linearGradient>
<polyline class="st0" points="432.968,554.425 36,622.127 449.7,756 889.886,681.014 1116,642.889 702.3,509.014 631.263,520.992 
	"/>
<path class="st1" d="M789.441,438.621c1.549-2.022,4.909-7.559,4.521-9.486c-0.388-1.928-0.764-4.901-3.095-6.501
	c-2.331-1.6-3.715-5.581-3.97-7.602s1.16-7.959,1.523-10.802c0.362-2.843,0.975-18.246,0.656-22.96
	c-0.319-4.714-1.376-24.782-1.667-27.614c-0.291-2.832-1.481-17.183-2.561-17.418c-1.08-0.235-4.895,0.871-5.11,2.658
	c-0.215,1.786-1.77,19.742-1.755,27.044c0.015,7.301-0.674,24.644,0,28.965c0.674,4.321,2.629,15.515,1.896,16.613
	c-0.732,1.098-4.922-1.379-8.668-1.038c-3.746,0.341-9.603,2.259-11.909,4.822c-2.306,2.563-5.764,4.884-8.633,5.638
	c-2.869,0.754-6.753,0.991-8.898,2.033c-2.146,1.042-74.108,7.236-74.108,7.236s-0.366-1.015-2.179-1.11
	c-1.813-0.095-19.29-1.188-19.29-1.188s-0.746-2.622-1.925-2.829c-1.178-0.207-16.361-2.108-17.757-3.056
	c-1.395-0.948-8.685-18.039-8.89-19.625c-0.205-1.586,4.858-13.28,4.554-14.705c-0.304-1.426-3.283-5.276-3.59-6.096
	c-0.307-0.819,8.053-18.503,7.953-19.918c-0.1-1.415,41.505-65.454,41.505-65.454s1.977-0.864,3.607-2.97
	c1.63-2.107,7.676-7.715,9.099-8.632c1.423-0.916,2.76-2.138,5.65-2.558c2.891-0.42,4.745,0.1,6.525-0.487
	c1.78-0.587,2.594-2.211,5.467-0.311c2.874,1.9,11.944,9.345,16.835,12.256s19.023,10.673,23.984,12.926
	c4.961,2.253,16.934,7.455,19.517,8.258c2.583,0.803,4.214-0.221,4.668-1.055c0.454-0.833,2.587-2.647,1.271-3.898
	c-1.316-1.251-19.226-15.534-25.649-19.683c-6.423-4.149-19.503-13.387-24.873-15.134c-5.371-1.747-9.861-2.021-11.596-2.624
	c-1.736-0.603-1.492-4.952-3.327-6.929c-1.835-1.977-5.383-6.257-7.197-6.662c-1.814-0.406-2.486-2.695-4.535-3.495
	s-5.534-1.977-8.034-1.57c-2.5,0.407-4.066,0.299-4.066,0.299s-21.934-12.625-26.474-14.768c-4.54-2.143-19.245-8.713-23.287-10.105
	c-4.042-1.391-5.06-1.781-6.173-0.925c-1.113,0.855-4.26,3.74-3.403,4.6c0.857,0.861,18.386,16.837,24.984,19.786
	c6.598,2.949,6.375,4.296,8.961,6.004c2.586,1.708,7.522,5.013,10.356,6.511c2.835,1.498,3.732,1.235,3.613,3.181
	c-0.119,1.946,0.711,7.69,0.593,8.435c-0.119,0.745-4.811,11.854-5.18,13.194c-0.368,1.34-0.441,3.058-0.441,3.058l-40.951,61.436
	c0,0-0.904,0.103-1.893,0.941c-0.989,0.838-15.204,17.648-15.204,17.648s-1.31-1.78-2.5-1.467c-1.19,0.313-5.969,3.632-5.969,3.632
	l-1.448-32.699c0,0-0.165-4.945-0.16-4.815c0.004,0.13,5.943-0.59,5.757-2.127c-0.186-1.537-1.502-35.408-1.502-35.408
	s-1.03-2.073-4.158-2.359c-3.128-0.285-7.3-0.429-9.603,0.136c-2.303,0.565-5.218,1.469-5.202,3.355s1.061,33.281,1.061,33.281
	s-0.508,2.23,1.134,2.681s4.671,0.704,4.671,0.704l1.092,32.795l-0.073,1.137c0,0-2.067-0.716-4.366-0.595
	c-2.298,0.121-15.552,1.498-20.272,2.671s-9.894,2.287-10.456,2.683c-0.562,0.395-1.01,0.877-1.01,0.877s-4.687-6.663-5.069-7.12
	c-0.382-0.457-1.748-0.659-2.164-1.73c-0.417-1.071-20.19-50.533-20.19-50.533s0.872-1.063,0.601-2.32
	c-0.271-1.257-1.197-4.545-1.197-4.545s2.293-0.375,3.946-1.642c1.653-1.268,3.308-3.065,4.186-5.617
	c0.878-2.552,1.021-5.135,0.817-6.071c-0.205-0.936,0.872-2.694,1.871-3.444s4.584-2.295,5.927-3.09
	c1.343-0.794,9.703-7.164,14.307-11.552c4.604-4.388,19.078-18.414,22.166-21.747c3.089-3.333,13.516-13.915,13.858-16.528
	c0.342-2.613-2.293-4.281-3.206-3.84c-0.913,0.442-18.504,13.785-22.218,16.973c-3.714,3.187-18.687,16.87-22.056,20.411
	c-3.369,3.541-7.945,9.382-9.769,11.181c-1.824,1.799-5.933,5.555-6.719,4.554c-0.786-1.001-4.22-3.597-5.278-3.767
	c-1.058-0.17-2.034-2.767-5.516-3.422c-3.482-0.655-6.82-1.983-11.581,1.862c-4.762,3.845-7.455,7.834-7.364,12.621
	c0.091,4.786,0.39,9.282,2.057,9.656c1.667,0.374,0.08,1.271,0.08,1.271s-8.554,7.738-11.625,10.995
	c-3.07,3.257-13.265,14.08-16.849,18.176c-3.584,4.096-14.228,17.06-15.667,19.607c-1.44,2.546,0.645,3.492,1.597,4.177
	c0.952,0.685,2.454,1.54,5.261-0.299c2.807-1.839,25.696-18.703,29.972-22.327c4.275-3.624,16.657-14.666,18.055-16.125
	c1.398-1.459,3.48-3.953,3.48-3.953s1.074,2.433,2.287,2.741c1.213,0.307,20.104,50.284,20.104,50.284s-0.989,0.793-0.734,2.231
	c0.255,1.438,3.302,14.052,3.302,14.052s-2.403,2.923-2.417,4.809c-0.014,1.885,2.457,9.368,2.551,10.7
	c0.094,1.332,0.231,8.643-0.128,10.234c-0.36,1.592-4.435,14.22-4.519,16.341c-0.084,2.121-0.358,3.272-1.828,3.489
	c-1.471,0.217-3.502,0.451-4.523,1.678c-1.022,1.227-4.224,4.066-4.224,4.066l-8.38-0.617l-2.381,0.213l-63.721-5.299
	c0,0-2.324-28.645-2.863-31.016c-0.539-2.371-1.079-7.378-1.915-7.726c-0.836-0.349-5.031-1.531-5.656-0.396
	c-0.625,1.135-2.913,13.403-3.211,15.835c-0.298,2.432-2.051,21.906-2.051,21.906l-8.353-0.697c0,0-1.207-1.475-2.462-1.536
	c-1.255-0.062-4.945-0.585-4.945-0.585s-0.011-2.702-1.019-3.123c-1.008-0.421-1.226-0.873-3.532-0.532
	c-2.306,0.342-6.016,0.656-6.016,0.656s-1.007-2.957-1.769-3.964c-0.762-1.007-1.564-23.007-1.564-23.007l-0.93-30.056
	c0,0,3.509,0.14,4.564-0.99c1.055-1.13,0.829-7.94,0.747-10.402c-0.082-2.462-0.445-25.329-1.093-26.221
	c-0.648-0.891-1.985-2.389-5.7-2.478c-3.715-0.089-8.221,0.036-9.935,0.772c-1.715,0.737-3.474,1.856-3.373,3.414
	c0.101,1.558,1.06,34.427,1.06,34.427s1.054,1.376,2.202,1.477c1.147,0.101,3.685,0.26,3.685,0.26l1.714,52.824
	c0,0-1.29,0.412-1.361,1.34c-0.072,0.928,0.825,24.859,0.825,24.859s1.449,0.01,1.49,1.233c0.041,1.223,1.699,52.694,1.699,52.694
	s-3.447-0.017-4.505,1.113c-1.058,1.13-1.425,1.87-1.193,2.971c0.233,1.101,1.232,32.587,1.232,32.587s0.575,2.349,2.407,2.831
	c1.833,0.482,8.792,0.814,10.34,0.573c1.547-0.241,5.116-1.033,5.73-2.013c0.615-0.98,1.122-5.823,0.838-7.436
	c-0.285-1.613-1.334-29.018-1.334-29.018s-2.23-1.344-3.895-1.609s-1.666-0.265-1.666-0.265l-1.81-52.692
	c0,0,1.384,0.628,1.296-0.88c-0.089-1.509,1.129-4.546,1.777-5.163c0.648-0.617,3.565-2.385,6.198-2.151
	c2.633,0.234,7.383,0.822,7.995,0.662s0.883-1.292,1.835-1.207c0.952,0.085,8.089,0.72,8.089,0.72s-0.657,10.338-0.758,13.246
	c-0.101,2.909-0.241,8.33,0.277,10.21c0.518,1.88,1.24,3.831,1.24,3.831s-1.91-1.104-3.853-0.842s-4.285,0.792-6.55,3.128
	c-2.265,2.336-5.251,4.557-5.836,8.15c-0.584,3.593,0.648,10.902,1.894,12.806c1.246,1.905,4.654,4.601,7.272,5.293
	c2.618,0.692,5.195,0.616,6.612,0.588c1.416-0.028,4.657-0.249,4.814,0.26c0.157,0.509,1.122,5.954,0.94,7.408
	c-0.182,1.454-2.027,17.511-1.963,22.814c0.064,5.303,0.166,22.138,0.321,25.371c0.155,3.233,0.434,10.313,0.947,15.995
	c0.513,5.682,0.349,11.275,1.581,11.715c1.232,0.44,3.837,1.58,4.404,0.031c0.567-1.55,3.217-29.452,3.217-29.452
	s0.634-25.853,0.457-30.532s-1.138-13.421-1.996-15.937s-1.121-4.612-0.197-6.564c0.925-1.952,3.817-3.347,4.612-5.883
	c0.795-2.536,2.456-9.18,1.622-9.498c-0.833-0.318,2.295-1.904,3.65-2.3c1.355-0.397,46.252-13.357,46.252-13.357
	s3.837,0.638,5.625,0.465c1.788-0.173,7.12-0.518,7.12-0.518s0.764,2.098,4.18,2.898c3.416,0.8,9.053,2.665,12.301,2.535
	c3.248-0.13,5.283,0.737,5.283,0.737s2.578,7.959,3.795,11.895c1.217,3.937,2.973,3.463,1.977,7.524
	c-0.997,4.061-3.042,16.361-1.874,17.703s3.657,2.68,3.657,2.68s-2.012,14.121-2.411,18.24c-0.399,4.119,0.108,6.077,0.213,7.629
	c0.105,1.552-15.832,70.224-15.832,70.224s-1.802,1.827-2.677,4.415c-0.875,2.588-4.692,10.007-6.22,10.902
	c-1.528,0.894-5.296,3.053-6.539,5.877c-1.243,2.824-2.815,6.674-2.815,6.674s-18.841,2.998-23.849,4.056
	c-5.008,1.058-21.227,4.733-25.369,6.145c-4.141,1.412-10.312,3.031-10.221,3.917c0.091,0.886,1.783,6.19,1.783,6.19
	c6.118,0.709,28.86,0.507,34.842,0s28.262-3.483,29.809-3.942c1.547-0.459,0.629,1.213,5.974,1.243
	c5.346,0.03,13.526-0.055,15.99-1.34c2.464-1.285,4.637-3.538,5.456-4.994c0.819-1.456,3.217-1.938,5.218-1.337
	c2.002,0.601,6.221,1.7,9.938,1.387c3.717-0.313,31.094-4.839,31.094-4.839s27.302-6.089,29.43-7.851
	c2.128-1.762-0.244-6.17-0.487-6.295c-0.244-0.125-19.46-0.355-27.396,0.323c-7.936,0.677-25.798,2.502-31.664,4.198
	c-5.865,1.695-10.639,3.258-12.717,3.455c-2.079,0.197-2.702,0.233-4.989-1.65c-2.287-1.882-3.665-2.91-4.892-4.366
	c-1.226-1.456-1.725-6.774-1.401-7.956c0.324-1.182,0.674-8.487,0.792-10.367c0.118-1.88,10.652-47.263,10.652-47.263l5.622-24.231
	c0,0,1.001-0.663,1.99-2.17c0.99-1.507,8.59-18.073,8.59-18.073s1.912-1.036,3.003-0.545c1.091,0.491,7.926,2.957,11.292,3.082
	c3.366,0.125,11.273-0.149,15.505-1.531c4.233-1.381,8.211-2.624,11.195-4.703c2.984-2.079,3.496-3.749,5.615-4.172
	c2.119-0.423,3.475-0.913,4.94,0.734c1.465,1.647,11.718,13.188,11.718,13.188s2.349-0.104,3.419,1.246
	c1.07,1.351,44.811,59.602,44.811,59.602s0.437,2.32,1.68,4.429c1.243,2.109,4.318,8.798,4.512,9.745s-0.094,4.872-0.058,6.242
	c0.036,1.37,0.454,4.092,0.454,4.092s-15.45,3.28-21.103,4.784c-5.653,1.503-20.898,5.942-24.22,7.189s-5.584,1.722-6.093,3.181
	c-0.509,1.459-1.375,4.438-0.963,5.013c0.411,0.575,16.666,0.349,19.005,0.097c2.338-0.252,17.327-2.151,24.322-3.444
	c6.995-1.293,14.129-3.275,15.583-4.033c1.453-0.759,2.022-1.651,4.117-1.023c2.094,0.628,5.858,1.441,6.929,1.283
	c1.071-0.158,6.523-0.714,7.533-0.914c1.009-0.199,3.776,0.332,6.168-0.988c2.392-1.32,5-4.089,5.454-5.141
	c0.454-1.052,6.198-1.583,7.225-1.614c1.027-0.03,8.659-0.054,11.66-0.606c3.001-0.552,29.106-6.872,34.969-8.834
	c5.864-1.961,16.704-5.276,17.191-6.508c0.487-1.232,0.634-6.847-0.565-6.926c-1.198-0.079-17.044-0.196-25.12,0.753
	c-8.075,0.949-28.714,3.669-31.257,4.288c-2.542,0.619-6.85,2.164-8.573,3.48s-4.883,4.966-5.932,4.302s-3.759-4.209-6.888-5.242
	c-3.129-1.033-5.44-4.024-7.688-4.492c-2.248-0.468-8.679-4.46-10.832-5.365c-2.154-0.905-14.716-15.875-16.277-17.947
	c-1.561-2.073-38.629-50.84-38.629-50.84s0.692-1.531-0.338-3.635c-1.03-2.104-9.307-17.928-9.307-17.928s3.79-3.037,3.801-3.693
	c0.011-0.656-5.215-16.217-5.215-16.217s1.946-7.751,2.835-11.339c0.889-3.588,2.433-9.661,3.613-11.284
	c1.179-1.622,5.943-3.347,8.071-4.191c2.129-0.844,10.518-2.727,11.121-4.316c0.603-1.589,1.113-6.295,1.113-6.295
	s6.303-0.48,9.489-1.636c3.186-1.156,8.956-3.481,11.409-4.086c2.453-0.605,74.138-6.774,74.138-6.774s1.145,0.962,3.33,0.886
	c2.185-0.076,11.703,0.216,13.785,0.868c2.083,0.652,6.638,3.634,8.579,4.505c1.941,0.87,5.911,0.837,7.17,0.723
	c1.26-0.113,4.325,0.22,4.003,1.278c-0.321,1.058-3.66,7.376-4.194,11.287c-0.534,3.912,0.258,27.268,1.2,33.753
	c0.942,6.485,4.497,31.532,4.967,33.537c0.471,2.004,1.243,4.416,2.09,4.319c0.847-0.097,4.55,0.246,5.107-1.783
	c0.558-2.029,2.857-29.516,3.499-40.019c0.642-10.503,0.334-29.419-0.523-33.508C790.488,444.991,787.892,440.643,789.441,438.621z
	 M495.591,456.639c0,0-0.438,2.634-1.679,2.998c-1.241,0.364-46.007,13.717-46.007,13.717s-1.999-0.832-3.474-0.576
	c-1.475,0.256,0.875-4.249,1.071-5.827c0.197-1.578,0.233-23.45,0.233-23.45l62.586,5.769c0,0,1.395,0.598,2.076,0.803
	C511.078,450.278,495.591,456.639,495.591,456.639z"/>
<path class="st1" d="M565.8,398.364c0,0-7.715,9.18-9.396,11.99c-1.68,2.81-3.626,7.757-3.386,11.17s7.153,50.195,7.153,50.195
	s6.478,34.058,7.412,37.462c0.934,3.404,1.845,7.844,4.622,9.303s7.45,1.201,11.566,1.069s12.682-3.073,14.071-3.831
	c1.39-0.758,4.108-1.949,6.013-5.177c1.905-3.228,6.27-11.461,8.363-19.708c2.093-8.247,6.542-31.589,7.054-42.494
	s0.997-22.421-0.008-29.903s-2.292-13.415-4.532-15.361c-2.24-1.946-11.785-9.908-11.785-9.908l2.713,18.656
	c0,0,3.674,3.07,5.221,4.391c1.547,1.32,4.233,3.026,4.883,7.76c0.651,4.734,0.576,19.157,0.072,28.478s-4.526,31.343-6.536,37.597
	c-2.01,6.254-4.233,13.797-6.043,15.215c-1.81,1.417-8.302,4.305-14.127,4.989c-5.825,0.684-12.167,1.625-13.897,0.872
	c-1.73-0.753-4.357-4.562-5.077-7.718s-8.269-43.966-9.219-50.707s-1.988-16.333-1.107-20.181s5.094-8.452,6.398-9.769
	c1.304-1.318,3.042-3.112,3.502-4.864c0.46-1.752-1.775-10.553-1.819-13.692S568.07,399.732,565.8,398.364z"/>
<path class="st1" d="M573.621,399.485c-0.347,6.867,2.3,24.58,3.732,27.249c1.431,2.669,2.132,5.725,6.614,5.73
	c4.482,0.006,12.272-1.141,14.135-1.874s3.754-1.733,5.185-3.231c1.431-1.498,2.802-7.358,2.276-10.583
	c-0.526-3.225-2.436-20.862-3.776-23.176s-3.042-3.347-4.712-3.386c-1.669-0.039-12.455,1.711-14.279,2.143
	c-1.824,0.432-5.758,0.698-7.142,2.267C574.268,396.194,573.687,398.17,573.621,399.485z"/>
<g>
	<line class="st2" x1="590.333" y1="501.081" x2="590.333" y2="440.645"/>
	<g>
		<line class="st3" x1="590.333" y1="486.96" x2="590.333" y2="440.645"/>
		<g>
			<polygon points="590.333,501.081 598.464,481.183 590.333,485.904 582.204,481.183 			"/>
		</g>
	</g>
</g>
</svg>
