<?xml version="1.0" encoding="utf-8"?>
<!-- Generator: Adobe Illustrator 21.1.0, SVG Export Plug-In . SVG Version: 6.00 Build 0)  -->
<svg version="1.1" id="Layer_1" xmlns="http://www.w3.org/2000/svg" xmlns:xlink="http://www.w3.org/1999/xlink" x="0px" y="0px"
	 width="1152px" height="1152px" viewBox="0 0 1152 1152" style="enable-background:new 0 0 1152 1152;" xml:space="preserve">
<style type="text/css">
	.st0{fill:url(#SVGID_1_);}
	.st1{fill:#FFFFFF;stroke:#000000;stroke-width:2;stroke-miterlimit:2;}
</style>
<linearGradient id="SVGID_1_" gradientUnits="userSpaceOnUse" x1="576" y1="756" x2="576" y2="592.4377">
	<stop  offset="0" style="stop-color:#FFFFFF"/>
	<stop  offset="1" style="stop-color:#A3A3A3"/>
</linearGradient>
<polyline class="st0" points="550.906,592.869 36,667.069 543.508,756 1116,673.501 651.986,592.438 "/>
<polygon class="st1" points="625.101,483.682 628.925,481.615 628.793,484.53 "/>
<path class="st1" d="M817.319,440.062c0,0-4.904-1.042-5.681-0.993c-0.777,0.049-3.412,1.034-5.152,1.622
	c-1.74,0.588-8.867,3.58-10.116,4.145c-1.249,0.565-8.372,4.424-9.108,5.004c-0.735,0.579-0.86,1.272-1.382,2.103
	c-0.522,0.831-0.768,1.49-0.768,1.49s-1.963,0.195-2.669,0.286c-0.706,0.091-2.913,0.663-4.251,1.196
	c-1.338,0.533-1.671,1.59-1.671,1.59l0.103,6.235l-9.505,5.691c0,0-8.746,5.757-10.214,6.689c-1.468,0.931-2.356,3.071-2.359,3.344
	c-0.003,0.272,1.227-0.185,2.512-0.262c1.285-0.077,4.289-1.284,5.293-1.743c1.003-0.459,4.773-2.614,5.737-3.186
	c0.965-0.572,6.349-3.982,6.349-3.982l0.1,5.215c0,0-0.925,0.292-1.517,0.615c-0.592,0.323-2.503,1.116-3.147,1.398
	c-0.644,0.282-3.635,1.538-4.911,1.794c-1.275,0.255-4.549,1.623-5.032,1.909c-0.483,0.286-1.46,1.43-1.46,1.43l-41.868,11.939
	l-26.097,7.226c0,0-1.004-0.345-1.83-0.596c-0.826-0.251-4.84,0.287-6.163,0.227s-6.325,0.534-7.364,0.442s-4.742-0.334-4.742-0.334
	l-0.483-1.134l1.448-1.209c0,0,2.787-2.032,3.14-2.596c0.353-0.564,0.494-1.714,0.494-1.714l19.507-11.182l7.528-0.273
	c0,0,24.292,0.044,26.362,0.06c2.07,0.016,4.229,0.025,4.048-0.283c-0.181-0.308-3.083-0.642-4.82-0.858
	c-1.737-0.216-9.346-0.849-10.216-0.914c-0.87-0.065-17.092-1.061-17.092-1.061l25.078-14.373c0,0,0.576,0.079,1.269,0.117
	c0.694,0.038,1.115-0.194,1.878-0.552s3.301-1.574,4.189-1.983c0.889-0.408,3.605-1.391,4.804-1.773
	c1.199-0.382,2.978-0.713,2.978-0.713s0.572,0.157,1.65,0.505c1.078,0.348,4.595,0.155,6.315,0.181s3.784-0.956,4.726-1.147
	c0.941-0.191,3.58-2.303,4.171-2.556c0.592-0.253,0.769-1.231,0.769-1.231s0.226-0.532,0.535-0.887
	c0.308-0.355,0.513-1.744,0.513-1.744s0.207-0.419,0.817-1.021s1.018-1.587,1.139-2.308c0.122-0.721-0.065-4.885-0.31-5.406
	c-0.246-0.521-1.87-0.845-1.87-0.845s-0.294-8.105-0.316-8.712s-2.286-1.437-2.286-1.437l-0.284-4.052c0,0,2.472,0.961,3.385,1.49
	c0.913,0.529,1.981,1.023,2.399,1.15s5.573,0.782,6.977,0.861c1.404,0.079,5.929-0.099,8.159-0.095
	c2.23,0.004,17.203,0.531,17.203,0.531s16.26,1.503,16.78,1.029c0.52-0.473-13.808-2.79-13.808-2.79l-17.905-2.666l-23.176-3.642
	c0,0-0.154-0.503-0.518-0.933c-0.364-0.43-2.734-1.035-3.761-1.24c-1.027-0.205-4.407-0.345-6.02-0.305
	c-1.614,0.041-4.092,0.432-4.092,0.432s-3.489-1.142-4.607-1.43c-1.118-0.288-2.551-0.438-4.202-0.56
	c-1.652-0.121-14.33-0.627-14.33-0.627l-19.837-0.506c0,0-11.539,0.214-12.489,0.313c-0.951,0.099-2.448,0.773-3.023,0.992
	c-0.576,0.218-1.738,0.884-1.738,0.884l6.982,1.983l22.341,4.518c0,0,12.845,2.537,14.294,2.634
	c1.449,0.097,5.331-0.356,6.475-0.613c1.144-0.256,2.326-1.233,3.252-1.846c0.926-0.613,1.506-0.472,1.506-0.472l0.189,5.68
	c0,0-0.805,0.785-1.147,0.871c-0.341,0.086-1.165,0.732-1.165,0.732l0.449,8.711c0,0-0.715,0.235-1.228,0.475
	c-0.513,0.24-0.891,1.031-1.333,1.697s-2.39,2.895-3.012,3.542s-2.418,1.877-2.418,1.877s-2.847,2.042-3.312,2.576
	c-0.464,0.534-0.994,1.469-0.994,1.469l-11.206,6.423l-27.631,15.837c0,0-15.228-0.887-16.616-0.969
	c-1.387-0.081-12.857-0.328-12.857-0.328l-5.317,0.393c0,0-1.347-0.877-2.399-1.314c-1.052-0.437-3.473-1.246-7.738-1.282
	c-4.266-0.036-6.437,0.718-6.694,0.647c-0.258-0.07-2.137,0.664-2.137,0.664s-0.729-0.103-0.966-0.062
	c-0.237,0.042-3.725-0.675-5.233-0.91c-1.508-0.235-3.72-0.438-5.466-0.595c-1.746-0.157-6.479-0.238-8.296-0.218
	c-1.816,0.02-12.596,0.175-12.596,0.175l-18.168,0.377l-4.463-10.519l-5.162-12.166c0,0,0.084-0.885,0.089-1.175
	c0.005-0.29-0.181-1.777-0.181-1.777s1.352-0.734,1.825-1.223c0.472-0.488,0.823-1.652,0.823-1.652s0.575-7.562,0.63-8.327
	c0.055-0.765,0.053-1.417-0.287-2.062s-1.584-0.868-1.584-0.868l-0.003-0.437c0,0,0.453-7.504,0.348-8.115
	c-0.105-0.611-0.401-0.593-0.987-0.863c-0.586-0.27-1.253-0.754-1.253-0.754l0.235-5.079c0,0,2.202,0.632,3.085,1.119
	c0.883,0.487,3.716,1.917,4.615,2.217c0.899,0.3,6.183,0.989,7.689,1.074c1.507,0.085,6.996-0.529,6.996-0.529l24.077-1.157
	c0,0,33.935-2.012,34.818-2.025c0.883-0.014,1.524-0.165,1.742-0.513c0.219-0.348-0.723-0.966-1.169-1.371
	c-0.445-0.405-0.947-0.553-1.791-0.699s-6.88-0.742-6.88-0.742l-30.736-2.164c0,0-26.339-1.334-27.776-1.401
	s-4.241-0.025-5.453,0.03c-1.213,0.055-5.699,0.488-5.699,0.488l-5.156,0.68c0,0-0.259,0.065-1.667-0.517
	c-1.408-0.582-3.131-0.717-5.039-0.942c-1.907-0.225-5.376,0.015-6.707,0.059c-1.331,0.045-3.443,1.042-4.054,1.363
	c-0.611,0.321-0.522,0.822-0.522,0.822s-3.608-0.494-5.268-0.594c-1.659-0.101-7.451-0.179-9.072-0.303
	c-1.621-0.124-20.146,0.653-20.146,0.653l-26.34,0.631c0,0-17.739,0.939-19.205,1.269c-1.466,0.33-3.604,0.309-3.047,0.486
	c0.557,0.177,4.438,0.098,6.123,0.147c1.685,0.049,11,0.368,13.225,0.481c2.225,0.112,16.241,0.63,17.806,0.729
	c1.565,0.099,17.158,1.027,19.305,1.239c2.147,0.211,8.008,0.669,9.167,0.77c1.159,0.101,5.538,0.156,6.487,0.178
	c0.949,0.022,3.059-0.256,4.357-0.591c1.298-0.335,2.728-1.173,3.344-1.521c0.616-0.348,1.56-0.43,1.862-0.328
	c0.302,0.103,1.325,0.297,1.325,0.297l-0.353,4.843c0,0-0.961,0.585-1.351,0.783c-0.39,0.198-1.027,0.624-1.027,0.624
	s-0.212,8.598-0.254,8.522c-0.042-0.076-1.279,0.456-1.665,0.721s-0.54,0.977-0.54,0.977s-0.075,6.649,0.038,7.973
	c0.113,1.323,1.204,2.167,1.851,2.82c0.648,0.653,2.19,1.713,2.658,2.062c0.467,0.349,2.748,1.712,3.801,1.957
	c1.053,0.245,2.694,0.683,3.579,0.815c0.885,0.132,1.136,0.915,1.372,1.147c0.236,0.232,2.072,2.629,2.464,3.039
	c0.392,0.41,1.3,0.95,1.3,0.95l7.954,18.75l-21.601,1.141c0,0-1.88,0.201-2.207,0.506c-0.326,0.305-0.132,1.692,0.192,2.059
	c0.324,0.367,8.213,0.851,9.873,1.01c1.66,0.16,16.312,1.341,16.312,1.341l0.969,2.281c0,0-6.495,0.849-7.78,1.053
	c-1.285,0.204-8.211,1.499-10.219,1.932c-2.008,0.433-9.753,2.841-11.023,3.441c-1.269,0.6-3.913,1.878-3.913,1.878
	s-5.102,0.285-5.817,0.363c-0.716,0.078-2.386,0.091-3.451,0.397c-1.065,0.306-1.97,1.134-2.424,1.225
	c-0.453,0.092-3.285-0.31-3.285-0.31l-13.365-1.883c0,0-2.664-0.368-3.22-0.279c-0.556,0.089-1.885,0.505-1.885,0.505l-17.535-6.777
	l-19.146-7.322l-0.143-0.521l17.835,0.37c0,0,21.226,0.253,22.391,0.248c1.164-0.005,1.692-0.526,2.389-0.861
	c0.696-0.335,1.63-1.15,1.638-1.47c0.008-0.321-8.425-2.041-8.425-2.041l-14.84-2.862c0,0-11.465-1.868-13.5-2.177
	c-2.035-0.309-7.349-1.06-8.953-1.193c-1.604-0.133-5.771,0.008-5.771,0.008l-3.821,0.273c0,0,0,0-0.329-0.445
	c-0.329-0.445-0.827-0.422-1.593-0.657c-0.766-0.235-3.084-0.699-3.843-0.787c-0.759-0.088-3.7-0.051-4.731-0.005
	c-1.031,0.046-3.289,0.276-3.814,0.362c-0.524,0.086-2.839,0.723-2.839,0.723s-2.49-0.962-3.031-1.279
	c-0.541-0.317-0.923-1.123-1.895-1.827c-0.972-0.704-1.868-0.851-3.398-1.55c-1.53-0.7-4.092-2.026-5.267-2.903
	c-1.175-0.877-3.58-2.373-4.287-2.853c-0.707-0.48-1.66-1.223-1.66-1.223l-0.058-5.786c0,0-0.014-1.978-0.302-2.524
	c-0.288-0.546-2.014-0.927-2.014-0.927s-0.325-7.632-0.377-8.557c-0.052-0.925-0.785-0.947-1.107-1.121
	c-0.322-0.174,0.557-0.88,1.134-1.381c0.577-0.501,1.503-0.769,2.699-1.328c1.196-0.559,8.222-3.674,10.189-4.631
	c1.966-0.957,6.098-3.171,7.813-4.192c1.715-1.021,5.012-3.563,5.012-3.563s-0.583-0.238-1.754-0.121
	c-1.171,0.116-3.8,0.688-3.8,0.688l-7.007,3.028l-10.768,5.822c0,0-6.625,4.042-7.29,4.473c-0.665,0.431-2.011-0.136-2.704-0.179
	c-0.692-0.043-3.377,0-4.641,0.095c-1.264,0.095-3.791,0.71-4.7,0.93c-0.909,0.219-2.114,1.076-2.695,1.745
	c-0.582,0.669-0.302,1.722-0.302,1.722s-0.955,0.232-1.789,0.348s-2.807,1.098-3.827,1.654c-1.02,0.556-5.34,3.516-7.087,4.729
	c-1.747,1.212-6.796,5.484-8.24,6.846c-1.444,1.362-4.051,4.285-4.453,4.865s4.011,1.8,5.034,2.038
	c1.023,0.238,1.363-0.078,2.329-0.335c0.967-0.256,6.861-2.137,8.998-2.877c2.138-0.74,7.306-2.507,7.306-2.507l0.038,1.86
	l-1.177,0.645c0,0-0.761,0.958-0.842,1.287c-0.081,0.329,0.119,4.066,0.208,4.372c0.088,0.307,0.961,1.638,0.961,1.638
	l-12.942,0.084c0,0,0.372,0.271,0.98,0.418c0.608,0.147,3.333,0.386,3.333,0.386l9.719,1.096l0.53,2.004c0,0,1.135,1.115,2.085,1.91
	c0.951,0.795,3.818,2.105,5.182,2.55c1.364,0.446,5.395,0.626,8.143,0.397c2.748-0.229,2.848-1.228,2.848-1.228l3.222,0.453
	l8.418,1.266c0,0,2.521,0.953,2.802,1.638c0.281,0.686,1.463,0.834,2.31,1.077c0.847,0.243,2.233-0.401,2.233-0.401l1.692-0.266
	l1.959,0.475l-0.086,1.295l-2.252,1.603l0.415,8.719l-1.151,0.447l-0.865,1.254l0.517,5.11l1.241,0.715c0,0,0.839,2.367,1.363,3.981
	c0.524,1.613,2.927,2.347,4.934,3.353c2.007,1.005,5.706,1.155,10.126,0.828c4.42-0.327,6.08-2.108,7.714-3.126
	c1.634-1.018,5.852,1.097,7.889,1.647s3.811-0.224,3.811-0.224l49.348,14.189c0,0,0.864,1.382,2.181,2.024
	c1.317,0.642,11.371,4.402,11.371,4.402s0.56,0.703,1.317,1.471c0.757,0.768,2.006,1.425,3.002,1.93
	c0.996,0.505,2.939,1.171,2.939,1.171s0.192,2.475,0.381,3.471c0.189,0.996,1.047,2.181,1.557,2.696
	c0.51,0.516,1.886,1.207,3.096,1.707s2.591,1.105,2.591,1.105s3.798,6.367,4.07,6.796c0.272,0.429,1.038,1.181,1.721,1.66
	c0.683,0.479,2.342,0.818,2.342,0.818l5.596,1.116l-5.317,0.914c0,0,0.136,1.428,0,1.777c-0.136,0.349,0.346,0.676,0.346,0.676
	s5.169,1.001,5.581,1.196c0.413,0.194,1.433,0.742,1.433,0.742s-0.44,0.945-0.305,1.447c0.135,0.502-0.443,0.381-0.999,0.707
	c-0.556,0.327-0.472,0.513-0.472,0.513s-3.449,10.869-3.506,11.881c-0.057,1.012,0.449,0.675,0.449,0.675l-10.557,26.369
	l-26.058,65.083c0,0-0.869-0.04-1.196,0.024c-0.327,0.065-0.75,1.131-0.75,1.131s-3.814,9.223-4.626,10.14
	c-0.812,0.917-1.754,0.586-2.904,0.605c-1.15,0.019-4.305-0.154-5.546-0.313c-1.241-0.159-2.007-0.134-2.7-0.068
	c-0.692,0.066-1.646,0.698-1.646,0.698l-27.759-4.809c0,0-0.116-1.701-0.448-2.604c-0.333-0.902-1.149-1.938-2.111-2.915
	s-3.319-1.2-3.319-1.2l-13.794-2.416c0,0-8.913-1.573-10.272-1.473c-1.36,0.099-3.354,0.645-5.311,3.157s-2.564,7.272-1.132,10.917
	s3.919,3.961,3.919,3.961l8.435,1.702c0,0,13.744,2.972,16.308,2.9c2.564-0.071,3.572-1.313,4.61-2.163
	c1.037-0.85,2.035-2.29,2.035-2.29l27.668,4.815c0,0,0.839,0.642,1.26,1.071c0.421,0.429,1.226,0.668,1.226,0.668l13.958,2.675
	c0,0,3.233,0.376,4.271,0.33c1.037-0.046,1.687-0.842,1.687-0.842l28.204,4.942c0,0,0.059,1.014,0.133,1.303
	c0.074,0.289,0.851,2.108,1.793,3.448c0.942,1.341,3.345,1.804,3.345,1.804s20.221,3.544,22.149,3.882
	c1.928,0.338,2.989,0.091,4.501-0.397c1.511-0.489,3.332-2.104,4.437-4.791c1.105-2.687,0.946-4.867,0.559-7.608
	c-0.387-2.742-2.332-3.924-3.497-4.785c-1.165-0.861-3.253-0.967-3.253-0.967s-22.039-3.979-22.781-3.999
	c-0.742-0.02-2.896,0.914-3.494,1.317c-0.598,0.403-2.571,3.258-2.571,3.258l-26.697-4.678l1.664-3.902c0,0,0.545-0.367,0.902-0.726
	c0.356-0.359,0.78-1.663,0.812-2.143c0.032-0.48-0.219-0.856-0.219-0.856s1.555-3.897,1.574-4.429
	c0.019-0.532-0.899-0.964-0.899-0.964l23.87-59.621l12.751-31.848l0.635-0.093c0,0-9.981,25.268-9.962,25.616
	c0.019,0.348,1.174,0.377,2.17,0.416c0.996,0.038,1.808-0.505,1.808-0.505s9.886-24.644,10.213-25.461
	c0.327-0.816,0.794-1.904,1.398-2.889c0.605-0.985,2.159-2.745,2.456-3.277s2.002-2.367,2.809-3.063
	c0.807-0.695,2.521-2.717,3.066-3.391c0.546-0.673,2.084-2.772,2.084-2.772l0.194,0.48l2.399-0.175l0.417-0.428l6.65-0.859
	l0.806,0.142l1.776-0.273l-0.003-1.169l8.261,1.43c0,0,4.502,8.108,5.158,9.006s3.266,1.167,5.6,1.497
	c2.334,0.331,5.077-0.056,5.077-0.056s9.509,20.633,9.778,21.101c0.269,0.468,2.143,0.27,2.936,0.229
	c0.793-0.04,0.993-0.621,0.993-0.621l-9.724-21.206l1.493-0.2l11.874,25.76l23.694,51.504c0,0-0.495,0.952-0.568,1.424
	c-0.073,0.472,1.277,3.301,1.277,3.301l-21.673-3.85c0,0-0.451-1.877-1.069-3.294c-0.618-1.417-2.51-2.691-3.023-2.958
	c-0.513-0.267-2.83-0.538-2.83-0.538s-21.711-3.836-22.958-3.801c-1.247,0.035-2.101,0.568-3.415,1.313
	c-1.314,0.745-2.647,2.977-3.483,4.8c-0.837,1.824-0.892,5.135-0.191,7.091c0.701,1.957,1.626,3.025,2.339,3.759
	c0.713,0.733,2.379,1.376,2.379,1.376s20.329,3.616,21.211,3.77s3.196,0.628,4.421,0.513c1.225-0.115,3.437-1.916,3.678-2.161
	c0.241-0.244,1.603-2.228,1.603-2.228l25.865,4.477l-5.895,5.911c0,0,4.038,1.01,4.855,1.152s2.896,0.14,2.896,0.14
	s12.048-1.687,13.373-1.884c1.325-0.197,1.676-0.664,1.676-0.664s4.633,0.816,5.584,0.429s1.614-0.769,1.614-0.769l28.304,4.866
	c0,0,0.165,1.401,1.32,3.456c1.155,2.056,3.141,3.027,3.141,3.027l18.512,3.175c0,0,5.473,0.937,7.6,0.835
	c2.127-0.101,3.312-1.749,4.424-2.962c1.112-1.213,2.282-3.415,2.316-6.617c0.034-3.202-0.843-5.502-2.54-7.017
	c-1.696-1.515-4.511-1.993-4.511-1.993s-21.013-3.683-21.755-3.813c-0.742-0.13-1.809-0.126-2.103-0.069
	c-0.293,0.058-2.553,1.213-3.07,1.634c-0.517,0.421-2.015,2.807-2.015,2.807l-0.359-0.063l-28.039-4.953
	c0,0,0.029-0.158-0.184-0.469s-0.918-0.818-1.466-1.09c-0.548-0.273-2.852-0.591-2.852-0.591l-10.203-1.932l-1.879-4.16
	c0,0-2.035-4.331-2.353-4.693c-0.318-0.362-1.611-0.621-1.611-0.621l-0.257-0.555l-34.168-74.125c0,0,6.36-1.007,7.325-1.174
	c0.965-0.167,2.192-0.634,2.799-1.29c0.607-0.656,2.402-8.132,2.402-8.132s1.104-0.489,1.433-0.769
	c0.329-0.281,0.418-1.333,0.561-1.333s1.552-0.68,2.118-1.348c0.566-0.668,1.081-2.838,1.724-5.544
	c0.644-2.706,2.444-10.972,2.654-11.841c0.21-0.869,0.691-5.671,0.691-5.671s4.414-1.969,5.325-2.27
	c0.911-0.3,1.048-0.993,1.048-0.993s4.545-1.406,5.303-1.752c0.758-0.345,1.59-1.358,1.59-1.358l10.264-3.646
	c0,0,0.105,0.316,0.216,0.464s1.242,0.003,1.904-0.182c0.662-0.185,2.512-0.965,2.671-1.145c0.159-0.181-0.124-0.877-0.124-0.877
	s3.49-1.333,4.151-1.673c0.661-0.34,1.089-1.615,1.089-1.615l65.33-18.867l1.784,0.594l0.982-0.227c0,0,0.765,0.845,1.523,0.785
	c0.758-0.059,2.486-0.798,3.028-1.066c0.543-0.268,0.397-1.02,0.397-1.02s1.608-0.291,2.685-0.456s3.303-0.266,4.421-0.211
	c1.118,0.056,3.32-0.327,3.32-0.327s2.108,1.104,3.142,1.503c1.034,0.399,3.764,0.956,5.576,0.928
	c1.812-0.027,4.527-0.42,6.14-0.732c1.613-0.312,3.422-1.678,4.221-2.118c0.799-0.44,2.081-1.86,2.62-2.263
	c0.54-0.403,1.504-5.232,1.504-5.232s0.559-0.515,1.039-0.829c0.48-0.314,0.132-1.439,0.132-1.439s0.014-2.837-0.237-3.546
	c-0.251-0.71-1.857-1.255-1.857-1.255s-0.143-7.468-0.175-8.199c-0.032-0.731-2.32-1.43-2.32-1.43l-0.034-5.306
	c0,0,2.228,0.067,3.734-0.131c1.507-0.197,2.623-1.144,4.428-2.421c1.806-1.277,4.279-4.191,5.104-4.882
	c0.824-0.691,5.776-6.097,6.604-7.158c0.829-1.061,2.013-3.881,2.078-4.086C818.347,440.286,817.319,440.062,817.319,440.062z
	 M473.252,492.435c0,0-1.077-1.188-1.689-1.619c-0.613-0.432-3.772-1.046-5.546-1.803c-1.775-0.757-4.497-2.502-4.497-2.502
	l-0.076-2.054l41.411,16.151L473.252,492.435z M666.479,486.111c-0.73,0.26-5.751,1.447-6.845,1.705
	c-1.094,0.258-3.581,0.799-3.581,0.799s-1.514-0.556-3.107-1.015c-1.592-0.459-4.451-0.798-4.451-0.798l0.143-5.107l1.304-0.58
	c0,0,2.599,1.398,3.73,1.9c1.131,0.502,4.956,0.638,6.618,0.702s15.159-1.375,15.249-0.707c0.072,0.535-4.259,2.146-4.259,2.146
	s-0.561,0.885-1.522,0.677C668.797,485.625,667.209,485.852,666.479,486.111z"/>
<path class="st1" d="M652.49,549.332l-20.138,2.966c0,0-7.578,0.807-8.018,0.715c-0.44-0.092-0.904-0.726-0.73-2.286
	c0.174-1.56,2.377-9.78,3.031-11.65c0.654-1.871,1.819-12.491,2.079-14.49c0.26-1.999-0.59-4.411-1.023-5.802
	c0,0-0.504-1.477,0.48-2.038c0.985-0.561,16.056-2.443,16.056-2.443s11.901-2.382,12.813-2.137c0.911,0.245,1.794,0.682,1.948,1.433
	c0.154,0.75,0.942,4.99,0.888,6.683c-0.054,1.693-0.294,5.208-0.294,5.208"/>
</svg>
