<?xml version="1.0" encoding="utf-8"?>
<!-- Generator: Adobe Illustrator 23.0.3, SVG Export Plug-In . SVG Version: 6.00 Build 0)  -->
<svg version="1.1" id="Layer_1" xmlns="http://www.w3.org/2000/svg" xmlns:xlink="http://www.w3.org/1999/xlink" x="0px" y="0px"
	 viewBox="0 0 72 72" style="enable-background:new 0 0 72 72;" xml:space="preserve">
<style type="text/css">
	.st0{fill-rule:evenodd;clip-rule:evenodd;fill:#FFFFFF;}
</style>
<path class="st0" d="M42.3,24.6l5.9-4.3c-1.4-2.1-2.1-4.5-2.1-7.4c0-7.1,5.7-12.8,12.8-12.8C66.3,0.1,72,5.8,72,13
	C72,20.3,66.3,26,58.9,26c-2.4,0-4.8-0.7-6.7-1.9l-4.5,6.2v12.4l4,5.5c1.9-1.4,4.5-2.1,7.1-2.1c7.1,0,12.8,5.9,12.8,13.1
	s-5.7,12.8-12.8,12.8c-7.1,0-13.1-5.7-13.1-12.8c0-2.6,1-5,2.1-7.1l-6.2-4.3H29.7l-5.5,4c1.4,2.1,2.4,4.5,2.4,7.4
	c0,7.1-5.9,12.8-13.1,12.8S0.7,66.2,0.7,59C0.7,51.9,6.4,46,13.5,46c2.6,0,5,0.7,6.9,2.1l4.3-5.9V29.6l-4.5-5.7
	c-2.1,1.2-4.5,2.1-7.4,2.1C5.7,26,0,20.3,0,12.9C0,5.8,5.7,0.1,12.8,0.1c7.4,0,13.1,5.7,13.1,12.8c0,2.6-0.7,5.2-2.1,7.1l6.4,4.5
	L42.3,24.6L42.3,24.6z M53.2,50l4,5.7l3.1,3.1c0.2,0.7-1.2,2.1-1.7,1.9l-3.3-3.6l-5.5-3.8c-1,1.7-1.7,3.6-1.7,5.7
	c0,5.7,4.8,10.5,10.7,10.5c5.7,0,10.5-4.8,10.5-10.5c0-5.9-4.8-10.7-10.5-10.7C56.8,48.4,54.9,49.1,53.2,50L53.2,50z M50.1,18.9
	l5.2-3.8l3.1-3.1c0.7-0.7,2.1,1.2,1.9,1.7L57.3,17l-3.6,5.2c1.4,1,3.3,1.4,5.2,1.4c5.9,0,10.7-4.8,10.7-10.7
	c0-5.7-4.8-10.5-10.7-10.5c-5.7,0-10.5,4.8-10.5,10.5C48.5,15.1,49.2,17.2,50.1,18.9L50.1,18.9z M18.8,22l-4-5.5l-3.1-2.9
	c-0.2-0.5,1.2-1.9,1.9-1.7l3.1,3.1l5.2,3.8c1-1.7,1.7-3.8,1.7-5.9c0-5.7-4.8-10.5-10.7-10.5C7.1,2.5,2.4,7.3,2.4,13
	c0,5.9,4.8,10.7,10.5,10.7C15.2,23.6,17.1,22.9,18.8,22L18.8,22z M22.3,53.1l-5.7,4l-3.1,3.6c-0.7,0.2-2.1-1.2-1.9-1.9l3.1-3.1
	L19,50c-1.7-1-3.3-1.7-5.5-1.7C7.8,48.4,3.1,53.1,3.1,59c0,5.9,4.8,10.5,10.5,10.5c5.9,0,10.7-4.5,10.7-10.5
	C24.2,56.9,23.5,54.8,22.3,53.1L22.3,53.1z"/>
</svg>
