<?xml version="1.0" encoding="utf-8"?>
<!-- Generator: Adobe Illustrator 23.0.3, SVG Export Plug-In . SVG Version: 6.00 Build 0)  -->
<svg version="1.1" id="Layer_1" xmlns="http://www.w3.org/2000/svg" xmlns:xlink="http://www.w3.org/1999/xlink" x="0px" y="0px"
	 viewBox="0 0 72 72" style="enable-background:new 0 0 72 72;" xml:space="preserve">
<style type="text/css">
	.st0{fill:#FFFFFF;}
</style>
<path class="st0" d="M3,15h9.4c0.9,3.5,3.3,6.3,6.5,7.9c3.2,1.5,7,1.5,10.2,0c3.2-1.5,5.6-4.4,6.5-7.9H69c1.7,0,3-1.3,3-3
	c0-1.7-1.3-3-3-3H35.6c-0.9-3.5-3.3-6.3-6.5-7.9c-3.2-1.5-7-1.5-10.2,0c-3.2,1.5-5.6,4.4-6.5,7.9H3c-1.7,0-3,1.3-3,3
	C0,13.7,1.3,15,3,15z M24,6c2.4,0,4.6,1.5,5.5,3.7c0.9,2.2,0.4,4.8-1.3,6.5c-1.7,1.7-4.3,2.2-6.5,1.3C19.5,16.6,18,14.4,18,12
	C18,8.7,20.7,6,24,6L24,6z"/>
<path class="st0" d="M3,39h33.4c0.9,3.5,3.3,6.3,6.5,7.9c3.2,1.5,7,1.5,10.2,0c3.2-1.5,5.6-4.4,6.5-7.9H69c1.7,0,3-1.3,3-3
	c0-1.7-1.3-3-3-3h-9.4c-0.9-3.5-3.3-6.3-6.5-7.9c-3.2-1.5-7-1.5-10.2,0c-3.2,1.5-5.6,4.4-6.5,7.9H3c-1.7,0-3,1.3-3,3
	C0,37.7,1.3,39,3,39z M48,30c2.4,0,4.6,1.5,5.5,3.7c0.9,2.2,0.4,4.8-1.3,6.5c-1.7,1.7-4.3,2.2-6.5,1.3C43.5,40.6,42,38.4,42,36
	C42,32.7,44.7,30,48,30L48,30z"/>
<path class="st0" d="M3,63h9.4c0.9,3.5,3.3,6.3,6.5,7.9c3.2,1.5,7,1.5,10.2,0c3.2-1.5,5.6-4.4,6.5-7.9H69c1.7,0,3-1.3,3-3
	c0-1.7-1.3-3-3-3H35.6c-0.9-3.5-3.3-6.3-6.5-7.9c-3.2-1.5-7-1.5-10.2,0c-3.2,1.5-5.6,4.4-6.5,7.9H3c-1.7,0-3,1.3-3,3
	C0,61.7,1.3,63,3,63z M24,54c2.4,0,4.6,1.5,5.5,3.7c0.9,2.2,0.4,4.8-1.3,6.5c-1.7,1.7-4.3,2.2-6.5,1.3C19.5,64.6,18,62.4,18,60
	C18,56.7,20.7,54,24,54L24,54z"/>
</svg>
