<?xml version="1.0" encoding="utf-8"?>
<!-- Generator: Adobe Illustrator 21.1.0, SVG Export Plug-In . SVG Version: 6.00 Build 0)  -->
<svg version="1.1" id="图层_1" xmlns="http://www.w3.org/2000/svg" xmlns:xlink="http://www.w3.org/1999/xlink" x="0px" y="0px"
	 width="1071.152px" height="340.745px" viewBox="0 0 1071.152 340.745" style="enable-background:new 0 0 1071.152 340.745;"
	 xml:space="preserve">
<style type="text/css">
	.st0{fill:url(#SVGID_1_);}
	.st1{fill:#FFFFFF;stroke:#040000;stroke-width:2.0383;stroke-miterlimit:2;}
	.st2{fill:#FFFFFF;stroke:#040000;stroke-width:2;stroke-miterlimit:2;}
	.st3{fill:none;stroke:#040000;stroke-width:2.0383;stroke-miterlimit:2;}
	.st4{fill:none;stroke:#040000;stroke-width:2.2487;stroke-miterlimit:2;}
</style>
<linearGradient id="SVGID_1_" gradientUnits="userSpaceOnUse" x1="535.5761" y1="340.7445" x2="535.5761" y2="178.5221">
	<stop  offset="0" style="stop-color:#FFFFFF"/>
	<stop  offset="1" style="stop-color:#A3A3A3"/>
</linearGradient>
<polyline class="st0" points="510.688,178.95 0,252.542 503.351,340.745 1071.152,258.921 610.94,178.522 "/>
<g>
	<path class="st1" d="M525.262,144.61c0,0-4.255,0.426-5.958,1.277c-1.702,0.851-1.702,0.851-1.702,0.851v5.875h1.901l0.142,0.851
		c0,0-1.419,0.426-1.135,1.135c0.284,0.709,0.851,1.844,0.851,1.844s-0.567,1.135-0.567,1.56s0.709,1.844,0.709,1.844
		s-0.709,0.426-0.426,1.277s1.135,2.27,1.135,2.27s-1.419,0.426-1.56,0.993c-0.142,0.567,0.567,5.958,0.567,5.958h9.646l5.674,0.993
		l4.823,1.135v1.702l1.702,0.709l0.709,6.384c0,0,1.844,0.993,2.695,1.135c0.851,0.142,2.979,0.284,3.972,0.851
		c0.993,0.567,1.702,1.135,2.128,1.702c0.426,0.567,1.702,2.979,1.702,2.979s-1.844-0.993-2.553-0.993s-4.965-0.426-4.965-0.426
		s-2.553-0.851-3.83-0.851c-1.277,0-4.681,0.851-7.093,2.27s-4.823,3.546-5.816,4.823c-0.993,1.277-1.702,3.546-1.702,3.546
		s-1.56,1.844-1.844,2.837c-0.284,0.993-1.135,3.121-0.993,4.398c0.142,1.277,0.284,2.837,0.709,3.972
		c0.426,1.135,0.993,1.986,0.993,2.695c0,0.709,0.567,3.83,0.567,3.83s0.709,2.27,1.419,3.546c0.709,1.277,4.398,6.384,4.398,6.384
		s3.206,3.263,3.376,4.114c0.17,0.851,1.589,1.56,2.44,1.986s5.249,2.412,5.249,2.412l6.525,2.695c0,0,2.979,1.702,3.83,1.844
		c0.851,0.142,2.837,0,4.398-0.851c1.56-0.851,4.114-1.986,4.965-2.979c0.851-0.993,5.391-7.377,5.391-7.377l3.405,1.419
		c0,0-1.986,0.993-2.979,1.277c-0.993,0.284-2.695,1.702-3.405,2.979s-0.993,2.412-0.709,3.972c0.284,1.56,1.844,6.1,2.695,7.235
		c0.851,1.135,2.695,2.837,4.398,3.263c1.702,0.426,5.958,0.851,7.235,0.709c1.277-0.142,5.249-0.993,6.1-1.56
		c0.851-0.567,2.553-1.419,3.121-2.553c0.567-1.135,1.844-4.965,2.128-6.667c0.284-1.702,0.567-4.256,0-5.107
		c-0.567-0.851-2.695-2.553-3.405-2.695s-2.27-0.709-2.27-0.709s1.844-0.851,2.837-2.27s1.419-2.553,1.986-5.391
		c0.567-2.837,0.284-5.816-0.567-7.093c-0.851-1.277-0.284-3.263-0.284-5.391c0-2.128-1.56-5.107-2.27-6.809
		c-0.709-1.702-10.631-17.763-10.631-17.763l-5.683-9.757l-5.674-1.135l16.314-3.83c0,0,2.412-0.284,2.979-0.851
		c0.567-0.567,0-6.384,0-6.384l-1.702-0.567c0,0,0.993-0.851,0.993-1.56c0-0.709-0.851-1.986-0.851-1.986s0.709-1.277,0.709-1.844
		s-1.135-1.419-1.135-1.419s0.993-0.993,0.993-1.56c0-0.567,0-0.567,0-0.567l-0.709-0.426c0,0-2.837,0.142-3.688,0.142
		s-2.695-0.567-3.546-0.709c-0.851-0.142-2.128-0.851-2.979-2.27c-0.851-1.419-2.837-4.965-2.837-4.965l-1.135-0.993h-9.646
		l-1.277-1.986l-2.418,1.844l-5.668-0.284l-2.553-4.114h-2.128l-9.646,5.249L525.262,144.61z"/>
	
		<ellipse transform="matrix(0.2306 -0.973 0.973 0.2306 211.0609 672.0901)" class="st1" cx="530.54" cy="202.576" rx="8.542" ry="6.794"/>
	<path class="st1" d="M526.841,194.893c0,0,4.579-2.674,6.281-2.83c1.702-0.156,4.256,0.006,6.525,1.415
		c2.27,1.408,3.121,3.536,3.121,4.246c0,0.709,0,2.979,0,2.979l11.058,2.837c0,0,5.397,1.986,6.39,2.27s2.553,1.419,2.553,1.419"/>
	<path class="st1" d="M525.372,211.036c0,0,3.439,3.711,5.169,3.711c1.73,0,6.269-0.594,7.546-2.921
		c1.277-2.327,1.277-3.746,1.277-3.746l9.504,2.957c0,0,5.391,2.15,6.525,2.718s3.405,1.277,3.688,2.128
		c0.284,0.851,0.284,3.83,1.56,4.965c1.277,1.135,2.128,2.553,3.405,3.121c1.277,0.567,3.688,1.844,3.688,1.844"/>
	<path class="st1" d="M531.277,164.245c0,0,6.1,0.709,8.086,1.844c1.986,1.135,3.121,2.128,6.242,1.844
		c3.121-0.284,17.165-2.979,17.165-2.979s12.849-3.014,12.335-3.552c-0.274-0.287-0.678-0.556-1.27-0.704
		c-1.702-0.426-11.065-1.702-11.065-1.702s1.702-1.277,0-1.419s-5.674-0.851-5.674-0.851s1.277-1.135,0.993-1.56
		c-0.284-0.426-1.277-1.419-1.277-1.419l16.597-2.837c0,0-0.567,1.419,0,1.844c0.567,0.426,0.567,1.419,0.567,1.419
		s-1.135,0.709-0.567,1.419c0.567,0.709,1.277,0.993,0.851,1.419c-0.426,0.426-1.419,0.851-0.709,1.702
		c0.709,0.851,0.876,2.134,0.876,2.134"/>
	<path class="st1" d="M537.44,160.699c0,0,1.214-1.844,1.923-1.844s1.702,0,1.702,0s0.426-1.986,0.851-2.128
		c0.426-0.142,0-0.851,0-0.851h-1.56l-0.583-1.56c0,0-1.261,1.986-1.686,3.192C537.661,158.713,537.44,160.699,537.44,160.699z"/>
	<path class="st1" d="M564.721,171.539c0,0-9.468,2.924-12.732,3.346c-1.583,0.204-6.384,0-6.384,0h-4.539"/>
	<polyline class="st1" points="552.272,187.935 561.209,203.256 562.77,208.079 563.763,215.739 563.763,216.945 560.925,215.456 
		559.081,215.881 	"/>
	<path class="st1" d="M564.756,231.485c0,0,5.4,1.986,8.303,2.27c2.903,0.284,6.166,0.993,8.578,0
		c2.411-0.993,7.201-2.081,7.235-2.979c0.034-0.898,0.034-0.898,0.034-0.898"/>
</g>
<g>
	<path class="st2" d="M495.548,108.693c0,0-9.971-3.729-11.278-4.366c-1.306-0.637-2.163-2.008-2.163-2.008l-48.944-14.072
		c0,0-1.759,0.768-3.78,0.222c-2.021-0.546-6.204-2.643-7.825-1.634s-3.267,2.775-7.651,3.1s-8.052,0.176-10.043-0.821
		c-1.991-0.997-4.374-1.725-4.894-3.325c-0.52-1.6-1.352-3.948-1.352-3.948l-1.231-0.709l-0.513-5.068l0.858-1.244l1.142-0.443
		l-0.412-8.648l2.234-1.59l0.085-1.284l-1.943-0.471l-1.678,0.264c0,0-1.374,0.638-2.214,0.397c-0.84-0.241-2.013-0.388-2.291-1.068
		c-0.278-0.68-2.779-1.625-2.779-1.625l-8.349-1.255l-3.196-0.45c0,0-0.099,0.99-2.824,1.218c-2.725,0.228-6.723,0.049-8.076-0.393
		s-4.197-1.741-5.14-2.53s-2.068-1.894-2.068-1.894l-0.526-1.987l-9.639-1.087c0,0-2.703-0.237-3.306-0.383
		c-0.603-0.146-0.972-0.415-0.972-0.415l12.836-0.083c0,0-0.865-1.321-0.953-1.625c-0.088-0.304-0.286-4.01-0.206-4.337
		c0.08-0.327,0.835-1.277,0.835-1.277l1.167-0.64l-0.038-1.844c0,0-5.126,1.753-7.246,2.487s-7.966,2.599-8.924,2.853
		s-1.296,0.568-2.31,0.332c-1.014-0.236-5.391-1.446-4.992-2.021c0.399-0.576,2.984-3.475,4.417-4.825
		c1.432-1.35,6.439-5.588,8.173-6.79c1.733-1.202,6.018-4.138,7.029-4.69c1.012-0.551,2.969-1.526,3.796-1.641
		c0.827-0.115,1.775-0.345,1.775-0.345s-0.277-1.044,0.3-1.708s1.771-1.513,2.673-1.731c0.902-0.218,3.408-0.828,4.661-0.922
		c1.254-0.094,3.916-0.137,4.603-0.094c0.687,0.043,2.022,0.605,2.682,0.178c0.66-0.427,7.23-4.436,7.23-4.436l10.68-5.774
		l6.949-3.003c0,0,2.607-0.567,3.769-0.683c1.162-0.115,1.74,0.12,1.74,0.12s-3.27,2.521-4.971,3.533
		c-1.701,1.013-5.799,3.208-7.749,4.157c-1.95,0.949-8.919,4.039-10.105,4.593c-1.186,0.554-2.105,0.82-2.677,1.317
		s-1.443,1.197-1.124,1.369c0.319,0.173,1.046,0.194,1.097,1.112s0.374,8.487,0.374,8.487s1.711,0.378,1.997,0.919
		c0.286,0.541,0.299,2.503,0.299,2.503l0.057,5.739c0,0,0.945,0.736,1.646,1.213c0.701,0.476,3.086,1.96,4.252,2.83
		c1.166,0.87,3.706,2.185,5.224,2.879c1.518,0.694,2.407,0.839,3.37,1.538c0.964,0.699,1.342,1.497,1.879,1.812
		s3.006,1.269,3.006,1.269s2.296-0.632,2.816-0.717s2.76-0.313,3.782-0.359c1.023-0.045,3.939-0.082,4.692,0.005
		c0.753,0.087,3.052,0.547,3.812,0.78s1.253,0.21,1.579,0.652s0.327,0.442,0.327,0.442l3.79-0.27c0,0,4.133-0.14,5.724-0.008
		c1.591,0.132,6.861,0.876,8.879,1.183s13.39,2.16,13.39,2.16l14.719,2.838c0,0,8.364,1.706,8.356,2.024
		c-0.008,0.318-0.934,1.126-1.625,1.458c-0.691,0.332-1.214,0.849-2.369,0.854c-1.155,0.005-22.207-0.246-22.207-0.246
		l-17.689-0.367l0.142,0.517l18.989,7.262l17.391,6.722c0,0,1.318-0.412,1.87-0.501c0.551-0.088,3.194,0.277,3.194,0.277
		l13.255,1.867c0,0,2.808,0.399,3.258,0.308s1.347-0.912,2.404-1.215c1.056-0.304,2.713-0.316,3.423-0.393s5.77-0.36,5.77-0.36
		s2.622-1.267,3.881-1.862s8.941-2.983,10.932-3.413c1.992-0.43,8.861-1.715,10.135-1.917c1.275-0.202,7.717-1.044,7.717-1.044
		l-0.961-2.262c0,0-14.533-1.171-16.179-1.33c-1.646-0.158-9.471-0.638-9.792-1.002c-0.321-0.364-0.514-1.74-0.19-2.042
		s2.188-0.502,2.188-0.502l21.424-1.131l-7.889-18.596c0,0-0.901-0.536-1.29-0.942s-2.21-2.784-2.444-3.014
		c-0.234-0.23-0.483-1.007-1.361-1.138c-0.878-0.131-2.505-0.565-3.549-0.808s-3.306-1.594-3.77-1.941
		c-0.464-0.346-1.993-1.397-2.636-2.045c-0.642-0.648-1.724-1.485-1.836-2.797c-0.113-1.313-0.038-7.908-0.038-7.908
		s0.153-0.707,0.536-0.969c0.383-0.262,1.61-0.79,1.652-0.715c0.042,0.075,0.252-8.452,0.252-8.452s0.631-0.422,1.018-0.618
		c0.387-0.197,1.34-0.777,1.34-0.777l0.35-4.803c0,0-1.015-0.193-1.314-0.294s-1.236-0.02-1.847,0.325
		c-0.611,0.345-2.029,1.176-3.317,1.508c-1.288,0.332-3.381,0.608-4.322,0.586s-5.284-0.076-6.434-0.177
		c-1.15-0.1-6.962-0.554-9.092-0.764s-17.595-1.131-19.147-1.229c-1.552-0.098-15.453-0.612-17.66-0.723
		c-2.207-0.112-11.445-0.429-13.116-0.477c-1.672-0.048-5.52,0.03-6.073-0.146c-0.553-0.175,1.568-0.155,3.022-0.482
		c1.454-0.327,19.047-1.259,19.047-1.259l26.125-0.626c0,0,18.374-0.77,19.981-0.648c1.608,0.123,7.352,0.201,8.998,0.3
		c1.646,0.1,5.224,0.589,5.224,0.589s-0.088-0.497,0.518-0.815c0.606-0.318,2.701-1.308,4.021-1.352
		c1.32-0.044,4.76-0.282,6.652-0.059s3.601,0.357,4.997,0.935c1.396,0.577,1.654,0.513,1.654,0.513l5.114-0.674
		c0,0,4.449-0.429,5.652-0.484c1.203-0.055,3.984-0.096,5.409-0.03s27.549,1.389,27.549,1.389L601.29,4.89
		c0,0,5.987,0.591,6.823,0.736c0.836,0.145,1.334,0.292,1.776,0.693c0.442,0.402,1.376,1.015,1.159,1.36
		c-0.217,0.345-0.852,0.495-1.728,0.509s-34.533,2.009-34.533,2.009l-23.88,1.147c0,0-5.444,0.609-6.938,0.525
		s-6.735-0.768-7.626-1.065c-0.891-0.297-3.701-1.715-4.577-2.199c-0.876-0.483-3.06-1.11-3.06-1.11l-0.233,5.038
		c0,0,0.662,0.481,1.243,0.748c0.581,0.267,0.875,0.249,0.979,0.856c0.104,0.606-0.345,8.048-0.345,8.048l0.003,0.434
		c0,0,1.233,0.221,1.571,0.86c0.337,0.64,0.339,1.286,0.284,2.045s-0.624,8.258-0.624,8.258s-0.348,1.154-0.816,1.638
		s-1.81,1.213-1.81,1.213s0.185,1.475,0.179,1.763s-0.088,1.166-0.088,1.166l5.119,12.066l4.426,10.433l18.019-0.374
		c0,0,10.691-0.153,12.493-0.173c1.802-0.02,6.496,0.06,8.228,0.216c1.731,0.156,3.925,0.357,5.421,0.59
		c1.496,0.233,4.955,0.944,5.19,0.903s0.958,0.061,0.958,0.061s1.864-0.729,2.119-0.659c0.256,0.07,2.409-0.678,6.639-0.642
		c4.231,0.036,6.631,0.838,7.675,1.272s2.379,1.304,2.379,1.304l5.273-0.39c0,0,11.376,0.245,12.752,0.326
		c1.376,0.081,16.479,0.961,16.479,0.961l27.404-15.707l11.114-6.37c0,0,0.526-0.927,0.986-1.457
		c0.461-0.53,3.285-2.555,3.285-2.555s1.782-1.22,2.398-1.862c0.617-0.641,2.548-2.852,2.987-3.513
		c0.439-0.66,0.814-1.445,1.322-1.683s1.218-0.471,1.218-0.471l-0.446-8.64c0,0,0.816-0.64,1.155-0.726
		c0.339-0.085,1.137-0.864,1.137-0.864l-0.187-5.634c0,0-0.576-0.139-1.494,0.468c-0.918,0.608-2.091,1.577-3.226,1.831
		c-1.135,0.254-4.984,0.704-6.422,0.608s-14.177-2.612-14.177-2.612l-22.158-4.481l-6.925-1.967c0,0,1.153-0.66,1.723-0.877
		c0.571-0.217,2.056-0.885,2.999-0.984s12.387-0.311,12.387-0.311l19.675,0.502c0,0,12.575,0.502,14.213,0.622
		c1.638,0.121,3.06,0.27,4.168,0.555c1.109,0.285,4.569,1.418,4.569,1.418s2.458-0.388,4.058-0.428
		c1.601-0.04,4.952,0.099,5.971,0.302s3.369,0.804,3.73,1.23c0.361,0.427,0.513,0.926,0.513,0.926l22.986,3.612l17.758,2.644
		c0,0,14.211,2.298,13.695,2.767s-16.642-1.021-16.642-1.021s-14.85-0.522-17.062-0.527c-2.212-0.004-6.7,0.172-8.092,0.094
		c-1.392-0.079-6.505-0.728-6.92-0.854c-0.415-0.126-1.474-0.616-2.379-1.14c-0.906-0.524-3.357-1.478-3.357-1.478l0.281,4.019
		c0,0,2.246,0.823,2.267,1.426s0.313,8.641,0.313,8.641s1.612,0.321,1.855,0.838c0.244,0.517,0.428,4.647,0.308,5.362
		c-0.12,0.715-0.525,1.692-1.13,2.289s-0.81,1.013-0.81,1.013s-0.203,1.377-0.509,1.73c-0.306,0.352-0.53,0.88-0.53,0.88
		s-0.176,0.97-0.763,1.221c-0.587,0.251-3.204,2.345-4.137,2.535c-0.934,0.19-2.981,1.164-4.687,1.138
		c-1.707-0.026-5.194,0.165-6.263-0.179s-1.637-0.501-1.637-0.501s-1.764,0.328-2.953,0.707c-1.189,0.379-3.883,1.354-4.765,1.759
		c-0.881,0.405-3.398,1.612-4.155,1.966c-0.757,0.354-1.175,0.585-1.863,0.547c-0.688-0.038-1.259-0.116-1.259-0.116l-24.872,14.255
		c0,0,16.089,0.989,16.952,1.053c0.863,0.064,8.409,0.692,10.132,0.907s4.602,0.546,4.781,0.851
		c0.179,0.305-1.962,0.297-4.015,0.281s-26.146-0.059-26.146-0.059l-7.466,0.271l-19.347,11.09c0,0-0.139,1.14-0.49,1.7
		c-0.351,0.559-3.115,2.575-3.115,2.575l-1.436,1.199l0.479,1.124c0,0,3.673,0.24,4.703,0.332s5.992-0.498,7.304-0.439
		c1.312,0.06,5.293-0.474,6.113-0.225c0.819,0.249,1.815,0.592,1.815,0.592l25.883-7.167l41.526-11.842c0,0,0.969-1.135,1.448-1.419
		c0.479-0.284,3.726-1.641,4.991-1.894c1.265-0.253,4.232-1.499,4.871-1.779c0.638-0.279,2.534-1.066,3.121-1.387
		c0.588-0.32,1.505-0.61,1.505-0.61l-0.099-5.172c0,0-5.34,3.382-6.297,3.95c-0.957,0.567-4.695,2.705-5.69,3.16
		s-3.975,1.652-5.249,1.729s-2.494,0.53-2.491,0.26c0.003-0.27,0.884-2.393,2.34-3.316c1.456-0.924,10.13-6.634,10.13-6.634
		l9.427-5.645l-0.102-6.184c0,0,0.33-1.048,1.657-1.577c1.327-0.528,3.516-1.096,4.216-1.186c0.7-0.09,2.647-0.284,2.647-0.284
		s0.244-0.653,0.762-1.478c0.518-0.824,0.641-1.512,1.37-2.086c0.729-0.575,7.795-4.403,9.033-4.963
		c1.238-0.56,8.307-3.528,10.033-4.111c1.726-0.583,4.339-1.561,5.11-1.609c0.771-0.048,5.635,0.985,5.635,0.985
		s1.02,0.222,0.956,0.426c-0.064,0.203-1.239,3-2.061,4.052s-5.733,6.414-6.55,7.099s-3.271,3.576-5.062,4.842
		c-1.791,1.266-2.898,2.206-4.392,2.401c-1.494,0.195-3.704,0.129-3.704,0.129l0.034,5.262c0,0,2.269,0.693,2.301,1.418
		s0.174,8.132,0.174,8.132s1.593,0.541,1.842,1.245c0.249,0.704,0.235,3.517,0.235,3.517s0.345,1.115-0.131,1.427
		c-0.476,0.311-1.03,0.822-1.03,0.822s-0.956,4.789-1.491,5.189c-0.535,0.4-1.807,1.808-2.599,2.245s-2.587,1.791-4.187,2.101
		c-1.6,0.309-4.293,0.699-6.09,0.726c-1.797,0.027-4.505-0.525-5.53-0.921s-3.116-1.491-3.116-1.491s-2.184,0.379-3.293,0.324
		c-1.109-0.055-3.316,0.046-4.385,0.209c-1.069,0.163-2.663,0.452-2.663,0.452s0.145,0.746-0.393,1.012
		c-0.538,0.266-2.251,0.998-3.003,1.057c-0.752,0.059-1.511-0.779-1.511-0.779l-0.974,0.225l-1.769-0.589L651.73,96.641
		c0,0-0.424,1.265-1.08,1.602c-0.656,0.337-4.117,1.66-4.117,1.66s0.281,0.691,0.123,0.87s-1.992,0.952-2.649,1.136
		c-0.657,0.184-1.779,0.328-1.888,0.181s-0.214-0.46-0.214-0.46l-10.18,3.616c0,0-0.825,1.004-1.577,1.346
		c-0.752,0.343-5.26,1.737-5.26,1.737s-0.136,0.687-1.039,0.985c-0.903,0.298-5.281,2.251-5.281,2.251s-0.477,4.762-0.685,5.624
		s-1.994,9.061-2.633,11.744c-0.638,2.684-1.149,4.836-1.71,5.499c-0.561,0.662-1.958,1.337-2.1,1.337
		c-0.142,0-0.23,1.044-0.557,1.322c-0.327,0.278-1.421,0.763-1.421,0.763s-1.78,7.415-2.382,8.065
		c-0.602,0.65-1.818,1.114-2.776,1.28c-0.957,0.166-7.265,1.164-7.265,1.164l33.888,73.518l0.255,0.551c0,0,1.282,0.257,1.598,0.616
		s2.334,4.654,2.334,4.654l1.863,4.126l10.119,1.917c0,0,2.285,0.316,2.829,0.586c0.543,0.27,1.242,0.773,1.453,1.081
		c0.212,0.309,0.183,0.465,0.183,0.465l27.809,4.912l0.356,0.062c0,0,1.485-2.366,1.998-2.784s2.754-1.564,3.045-1.621
		c0.291-0.057,1.35-0.061,2.085,0.068c0.736,0.129,21.577,3.781,21.577,3.781s2.792,0.473,4.474,1.977
		c1.682,1.503,2.552,3.784,2.519,6.96c-0.033,3.176-1.194,5.36-2.297,6.563c-1.103,1.203-2.278,2.837-4.387,2.937
		s-7.538-0.829-7.538-0.829l-18.361-3.149c0,0-1.97-0.963-3.116-3.002c-1.145-2.039-1.309-3.428-1.309-3.428l-28.072-4.826
		c0,0-0.657,0.379-1.601,0.763c-0.944,0.384-5.538-0.426-5.538-0.426s-0.348,0.463-1.662,0.659s-13.264,1.868-13.264,1.868
		s-2.063,0.003-2.873-0.139c-0.81-0.142-4.815-1.143-4.815-1.143l5.846-5.862l-25.653-4.441c0,0-1.351,1.967-1.59,2.209
		c-0.239,0.242-2.433,2.029-3.648,2.143c-1.215,0.114-3.51-0.355-4.385-0.509s-21.037-3.74-21.037-3.74s-1.652-0.638-2.359-1.365
		c-0.707-0.727-1.625-1.787-2.32-3.728s-0.64-5.224,0.19-7.033c0.83-1.809,2.152-4.023,3.455-4.761s2.15-1.268,3.387-1.302
		c1.237-0.034,22.77,3.77,22.77,3.77s2.298,0.269,2.807,0.534c0.508,0.265,2.386,1.529,2.998,2.934
		c0.612,1.405,1.06,3.267,1.06,3.267l21.495,3.818c0,0-1.338-2.805-1.266-3.274c0.072-0.468,0.563-1.412,0.563-1.412l-23.5-51.082
		L587.629,149.7l-1.48,0.198l9.645,21.032c0,0-0.198,0.576-0.985,0.616c-0.787,0.04-2.646,0.237-2.912-0.228
		c-0.267-0.464-9.698-20.928-9.698-20.928s-2.72,0.383-5.035,0.056c-2.315-0.328-4.904-0.594-5.554-1.485s-5.116-8.933-5.116-8.933
		l-8.194-1.419l0.003,1.159l-1.761,0.27l-0.799-0.141l-6.595,0.852l-0.414,0.424l-2.38,0.174l-0.193-0.476
		c0,0-1.525,2.081-2.067,2.749c-0.541,0.668-2.241,2.673-3.041,3.363c-0.801,0.689-2.492,2.51-2.786,3.037
		c-0.294,0.527-1.836,2.273-2.436,3.25c-0.6,0.977-1.063,2.056-1.387,2.866c-0.324,0.81-10.129,25.252-10.129,25.252
		s-0.805,0.539-1.794,0.501c-0.988-0.038-2.133-0.067-2.152-0.412c-0.019-0.345,9.88-25.406,9.88-25.406l-0.63,0.093l-12.647,31.587
		l-23.675,59.132c0,0,0.91,0.428,0.891,0.956c-0.019,0.527-1.561,4.393-1.561,4.393s0.249,0.372,0.217,0.849
		c-0.032,0.477-0.452,1.769-0.806,2.125c-0.353,0.356-0.894,0.72-0.894,0.72l-1.651,3.87l26.479,4.64c0,0,1.957-2.832,2.55-3.231
		c0.593-0.399,2.73-1.326,3.466-1.306c0.735,0.02,22.594,3.966,22.594,3.966s2.07,0.105,3.226,0.959s3.084,2.027,3.469,4.746
		c0.384,2.719,0.542,4.881-0.554,7.546c-1.096,2.665-2.902,4.267-4.401,4.751c-1.499,0.485-2.551,0.729-4.464,0.394
		c-1.913-0.335-21.968-3.85-21.968-3.85s-2.384-0.46-3.318-1.79c-0.934-1.33-1.704-3.133-1.778-3.42s-0.132-1.292-0.132-1.292
		l-27.973-4.901c0,0-0.644,0.79-1.673,0.835s-4.236-0.327-4.236-0.327l-13.844-2.653c0,0-0.798-0.237-1.215-0.663
		s-1.25-1.062-1.25-1.062l-27.441-4.776c0,0-0.99,1.429-2.019,2.271c-1.029,0.843-2.029,2.074-4.572,2.145
		c-2.543,0.071-16.174-2.876-16.174-2.876l-8.366-1.688c0,0-2.467-0.314-3.887-3.929c-1.42-3.615-0.818-8.337,1.123-10.828
		c1.941-2.491,3.919-3.033,5.267-3.131c1.349-0.098,10.188,1.461,10.188,1.461l13.681,2.396c0,0,2.338,0.221,3.292,1.19
		s1.764,1.996,2.094,2.891c0.33,0.895,0.445,2.582,0.445,2.582l27.532,4.769c0,0,0.946-0.626,1.633-0.692
		c0.687-0.066,1.447-0.091,2.678,0.067c1.23,0.158,4.36,0.329,5.5,0.311c1.14-0.019,2.075,0.31,2.88-0.6s4.588-10.057,4.588-10.057
		s0.42-1.057,0.744-1.122c0.324-0.064,1.186-0.024,1.186-0.024l25.845-64.55l10.47-26.153c0,0-0.502,0.335-0.445-0.669
		c0.056-1.004,3.477-11.784,3.477-11.784s-0.083-0.185,0.469-0.509c0.551-0.324,1.124-0.203,0.99-0.701
		c-0.134-0.498,0.302-1.435,0.302-1.435s-1.012-0.543-1.421-0.736c-0.409-0.193-5.536-1.186-5.536-1.186s-0.478-0.325-0.343-0.671
		c0.135-0.346,0-1.762,0-1.762l5.274-0.906l-5.55-1.107c0,0-1.646-0.336-2.323-0.811s-1.437-1.221-1.707-1.646
		s-4.037-6.74-4.037-6.74s-1.37-0.6-2.57-1.096c-1.2-0.496-2.564-1.182-3.07-1.693c-0.506-0.511-1.357-1.687-1.544-2.674
		c-0.188-0.988-0.378-3.442-0.378-3.442s-1.927-0.661-2.915-1.162c-0.988-0.501-2.226-1.152-2.977-1.914
		C496.103,109.39,495.548,108.693,495.548,108.693z"/>
	<path class="st2" d="M463.03,87.444l-41.072-16.018l0.075,2.037c0,0,2.7,1.731,4.46,2.481c1.76,0.751,4.893,1.36,5.501,1.788
		c0.608,0.428,1.676,1.606,1.676,1.606L463.03,87.444z"/>
	<polygon class="st2" points="584.275,70.658 588.068,68.607 587.937,71.498 	"/>
	<path class="st2" d="M607.62,68.688l-0.142,5.065c0,0,2.835,0.337,4.414,0.792c1.579,0.455,3.081,1.006,3.081,1.006
		s2.467-0.536,3.552-0.793c1.085-0.256,6.065-1.434,6.789-1.691c0.724-0.257,2.299-0.482,3.252-0.276
		c0.953,0.206,1.51-0.672,1.51-0.672s4.296-1.597,4.224-2.128c-0.09-0.662-13.476,0.764-15.124,0.701
		c-1.649-0.063-5.442-0.198-6.564-0.696c-1.122-0.498-3.699-1.885-3.699-1.885L607.62,68.688z"/>
	<path class="st2" d="M611.44,135.77l-19.973,2.942c0,0-7.516,0.8-7.952,0.709c-0.436-0.091-0.897-0.72-0.724-2.267
		s2.358-9.7,3.006-11.555c0.649-1.855,1.805-12.389,2.062-14.372c0.257-1.983-0.585-4.375-1.015-5.754c0,0-0.5-1.464,0.477-2.021
		c0.977-0.557,15.925-2.423,15.925-2.423s11.804-2.363,12.708-2.12c0.904,0.243,1.779,0.677,1.932,1.421
		c0.153,0.744,0.935,4.949,0.881,6.628c-0.054,1.679-0.292,5.166-0.292,5.166"/>
</g>
<g>
	<path class="st1" d="M541.956,181.262c0,0,1.844,0.993,2.695,1.135c0.851,0.142,2.979,0.284,3.972,0.851
		c0.993,0.567,1.702,1.135,2.128,1.702c0.426,0.567,1.702,2.979,1.702,2.979s-1.844-0.993-2.553-0.993
		c-0.709,0-4.965-0.426-4.965-0.426s-2.553-0.851-3.83-0.851c-1.277,0-4.681,0.851-7.093,2.27s-4.823,3.546-5.816,4.823
		c-0.993,1.277-1.702,3.546-1.702,3.546s-1.56,1.844-1.844,2.837c-0.284,0.993-1.135,3.121-0.993,4.398s0.284,2.837,0.709,3.972
		c0.426,1.135,0.993,1.986,0.993,2.695c0,0.709,0.567,3.83,0.567,3.83s0.709,2.27,1.419,3.546c0.709,1.277,4.398,6.384,4.398,6.384
		s3.206,3.263,3.376,4.114c0.17,0.851,1.589,1.56,2.44,1.986s5.249,2.412,5.249,2.412l6.525,2.695c0,0,2.979,1.702,3.83,1.844
		c0.851,0.142,2.837,0,4.398-0.851c1.56-0.851,4.114-1.986,4.965-2.979c0.851-0.993,5.391-7.377,5.391-7.377l3.405,1.419
		c0,0-1.986,0.993-2.979,1.277c-0.993,0.284-2.695,1.702-3.405,2.979s-0.993,2.412-0.709,3.972c0.284,1.56,1.844,6.1,2.695,7.235
		c0.851,1.135,2.695,2.837,4.398,3.263s5.958,0.851,7.235,0.709c1.277-0.142,5.249-0.993,6.1-1.56
		c0.851-0.567,2.553-1.419,3.121-2.553c0.567-1.135,1.844-4.965,2.128-6.667c0.284-1.702,0.567-4.256,0-5.107
		c-0.567-0.851-2.695-2.553-3.405-2.695c-0.709-0.142-2.27-0.709-2.27-0.709s1.844-0.851,2.837-2.27
		c0.993-1.419,1.419-2.553,1.986-5.391s0.284-5.816-0.567-7.093c-0.851-1.277-0.284-3.263-0.284-5.391
		c0-2.128-1.56-5.107-2.27-6.809c-0.709-1.702-8.795-14.611-8.795-14.611"/>
	
		<ellipse transform="matrix(0.2306 -0.973 0.973 0.2306 211.206 672.2621)" class="st1" cx="530.722" cy="202.571" rx="8.542" ry="6.794"/>
	<path class="st1" d="M525.553,211.03c0,0,3.439,3.711,5.169,3.711c1.73,0,6.269-0.594,7.546-2.921
		c1.277-2.327,1.277-3.746,1.277-3.746l9.504,2.957c0,0,5.391,2.15,6.525,2.718c1.135,0.567,3.405,1.277,3.688,2.128
		s0.284,3.83,1.56,4.965c1.277,1.135,2.128,2.553,3.405,3.121c1.277,0.567,3.688,1.844,3.688,1.844"/>
	<polyline class="st3" points="552.454,187.93 561.391,203.25 562.951,208.073 563.944,215.734 563.944,216.939 561.107,215.45 
		556.936,214.431 	"/>
	<path class="st1" d="M564.937,231.48c0,0,5.4,1.986,8.303,2.27c2.903,0.284,6.166,0.993,8.578,0s7.201-2.081,7.235-2.979
		c0.034-0.898,0.034-0.898,0.034-0.898"/>
</g>
<path class="st4" d="M526.841,194.893c0,0,2.456-2.664,4.334-2.836c1.878-0.172,4.695,0.007,7.199,1.561
	c2.504,1.554,3.443,3.901,3.443,4.684c0,0.783,0,3.287,0,3.287l12.2,3.13c0,0,5.954,2.191,7.05,2.504
	c1.096,0.313,1.795,1.565,1.795,1.565"/>
</svg>
