<?xml version="1.0" encoding="utf-8"?>
<!-- Generator: Adobe Illustrator 23.0.3, SVG Export Plug-In . SVG Version: 6.00 Build 0)  -->
<svg version="1.1" id="Layer_1" xmlns="http://www.w3.org/2000/svg" xmlns:xlink="http://www.w3.org/1999/xlink" x="0px" y="0px"
	 viewBox="0 0 72 72" style="enable-background:new 0 0 72 72;" xml:space="preserve">
<style type="text/css">
	.st0{fill-rule:evenodd;clip-rule:evenodd;fill:#FFFFFF;}
</style>
<path class="st0" d="M0,40.3c0-13.8,11.2-25,24.9-25s24.9,11.2,24.9,25c0,5.6-1.8,10.7-4.9,14.9l-2.2-2c2.6-3.6,4.1-8.1,4.1-12.9
	c0-12.2-9.8-22.1-22-22.1s-22,9.9-22,22.1c0,4.8,1.5,9.3,4.1,12.9l-2.2,2C1.8,51,0,45.9,0,40.3z M23.9,43.4L34.1,31L28.5,46
	c0.2,0.9,0.1,1.9-0.4,2.7c-1,1.8-3.3,2.4-5,1.4c-1.8-1-2.4-3.3-1.4-5C22.3,44.2,23.1,43.7,23.9,43.4z M60.5,52.5l4.8,4v0
	c0.4,0.4,1.1,0.4,1.6,0l4.8-4c0.5-0.4,0.5-1,0-1.3c-0.5-0.4-1.1-0.4-1.6,0l-2.9,2.4V18.4l2.9,2.4c0.5,0.4,1.1,0.4,1.6,0
	c0.5-0.4,0.5-1,0-1.3l-4.8-4c-0.5-0.4-1.1-0.4-1.6,0l-4.8,4c-0.2,0.2-0.3,0.4-0.3,0.6c0,0.2,0.1,0.5,0.3,0.6c0.5,0.4,1.1,0.4,1.6,0
	l2.9-2.4l0,35.2l-2.9-2.4c-0.5-0.4-1.1-0.4-1.6,0c-0.2,0.2-0.3,0.4-0.3,0.6C60.2,52.1,60.3,52.3,60.5,52.5z"/>
</svg>
