<?xml version="1.0" encoding="utf-8"?>
<!-- Generator: Adobe Illustrator 21.0.2, SVG Export Plug-In . SVG Version: 6.00 Build 0)  -->
<svg version="1.1" id="Layer_1" xmlns="http://www.w3.org/2000/svg" xmlns:xlink="http://www.w3.org/1999/xlink" x="0px" y="0px"
	 viewBox="0 0 72 72" style="enable-background:new 0 0 72 72;" xml:space="preserve">
<style type="text/css">
	.st0{fill:none;stroke:#FFFFFF;stroke-width:3;stroke-miterlimit:10;}
	.st1{fill:none;stroke:#FFFFFF;stroke-width:3;stroke-linecap:round;stroke-miterlimit:10;}
	.st2{fill:none;stroke:#FFFFFF;stroke-width:2;stroke-miterlimit:10;}
	.st3{fill:none;stroke:#FFFFFF;stroke-width:2;stroke-linecap:round;stroke-miterlimit:10;}
</style>
<g>
	<circle class="st0" cx="20.085" cy="37.373" r="9.471"/>
	<path class="st1" d="M37.901,36.051c0,8.223-12.777,27.91-16.593,32.927c-0.538,0.707-1.595,0.711-2.139,0.009
		c-3.876-5.005-16.9-24.708-16.9-32.936c0-9.839,7.976-17.815,17.815-17.815S37.901,26.211,37.901,36.051z"/>
</g>
<g>
	<circle class="st2" cx="58.364" cy="14.382" r="5.804"/>
	<path class="st3" d="M69.282,13.571c0,5.04-7.83,17.104-10.168,20.179c-0.33,0.433-0.977,0.436-1.311,0.005
		c-2.375-3.067-10.357-15.142-10.357-20.184c0-6.03,4.888-10.918,10.918-10.918C64.394,2.654,69.282,7.542,69.282,13.571z"/>
</g>
<path class="st3" d="M28.812,67.802l32.022-13.561c2.476-1.049,1.58-4.757-1.102-4.559l-15.673,1.159
	c-2.478,0.183-3.501-3.11-1.354-4.362l13.83-8.071"/>
<path class="st3" d="M-21.869,23.557"/>
</svg>
