<?xml version="1.0" encoding="utf-8"?>
<!-- Generator: Adobe Illustrator 21.0.2, SVG Export Plug-In . SVG Version: 6.00 Build 0)  -->
<svg version="1.1" id="Layer_1" xmlns="http://www.w3.org/2000/svg" xmlns:xlink="http://www.w3.org/1999/xlink" x="0px" y="0px"
	 viewBox="0 0 72 72" style="enable-background:new 0 0 72 72;" xml:space="preserve">
<style type="text/css">
	.st0{fill:#FFFFFF;}
</style>
<g id="plan1">
	<g>
		<path class="st0" d="M49.279,21.016c2.08,0,3.76-1.68,3.76-3.839c0-2.08-1.68-3.839-3.76-3.839c-2.08,0-3.76,1.68-3.76,3.839
			C45.519,19.256,47.199,21.016,49.279,21.016z M49.519,36.293c0,0,13.68-10.558,13.6-19.356c-0.08-7.599-6.08-13.757-13.6-13.757
			s-13.2,6.159-13.6,13.757C35.359,25.735,49.519,36.293,49.519,36.293z M39.919,16.697c0.32-4.639,4.72-9.278,9.52-9.278
			s9.44,4.639,9.52,9.278c0.08,5.439-9.52,12.718-9.52,12.718S39.599,22.136,39.919,16.697z M66.719,48.611
			c-18.32-3.839-14.72-8.798-14.72-8.798h-3.68c-2,12.957,29.52,8.158,17.2,19.196c-10.88,9.678-36.559,1.2-36.559,1.2l-3.68,4.079
			C66.399,79.565,80.879,51.57,66.719,48.611z M17.68,18.457C7.92,18.457,0,26.455,0,36.293s17.68,27.995,17.68,27.995
			s17.68-18.157,17.68-27.995C35.359,26.455,27.439,18.457,17.68,18.457z M4.24,36.373c0-7.119,6.48-13.677,13.44-13.677
			s13.44,6.559,13.44,13.677c0,7.119-13.44,21.036-13.44,21.036S4.24,43.492,4.24,36.373z M17.68,28.615
			c-4.16,0-7.6,3.439-7.6,7.599c0,4.239,3.36,7.679,7.6,7.679c4.16,0,7.6-3.439,7.6-7.679C25.28,32.054,21.92,28.615,17.68,28.615z
			 M17.68,38.773c-1.36,0-2.56-1.12-2.56-2.56c0-1.44,1.12-2.559,2.56-2.559c1.36,0,2.56,1.12,2.56,2.559
			C20.24,37.653,19.12,38.773,17.68,38.773z"/>
	</g>
</g>
</svg>
