<?xml version="1.0" encoding="utf-8"?>
<!-- Generator: Adobe Illustrator 21.0.0, SVG Export Plug-In . SVG Version: 6.00 Build 0)  -->
<svg version="1.1" id="Layer_1" xmlns="http://www.w3.org/2000/svg" xmlns:xlink="http://www.w3.org/1999/xlink" x="0px" y="0px"
	 viewBox="0 0 72 72" style="enable-background:new 0 0 72 72;" xml:space="preserve">
<style type="text/css">
	.st0{fill:#FFFFFF;}
</style>
<path class="st0" d="M32.626,8.155c14.059-1.012,28.443,4.248,38.477,14.154c1.315,1.353,1.143,3.721-0.244,4.961
	c-1.274,1.502-3.825,1.528-5.14,0.065c-8.584-8.264-20.703-12.732-32.602-11.843c-9.886,0.636-19.462,4.894-26.636,11.714
	c-0.638,0.652-1.453,1.187-2.391,1.233c-2.35,0.276-4.523-2.18-4.016-4.479c0.143-0.825,0.673-1.512,1.279-2.062
	C9.751,13.859,21.026,8.92,32.626,8.155z"/>
<path class="st0" d="M32.278,21.942c10.771-1.171,21.955,2.799,29.577,10.495c1.191,1.361,1.042,3.585-0.281,4.808
	c-1.207,1.477-3.64,1.643-5.007,0.304c-4.88-4.811-11.478-7.866-18.319-8.366c-8.308-0.689-16.796,2.463-22.712,8.317
	c-1.364,1.442-3.905,1.278-5.133-0.256c-1.323-1.249-1.433-3.534-0.163-4.857C16.104,26.52,24.031,22.789,32.278,21.942z"/>
<path class="st0" d="M33.869,35.546c6.797-0.675,13.824,1.928,18.554,6.85c1.295,1.348,1.145,3.668-0.219,4.915
	c-1.239,1.495-3.721,1.596-5.067,0.194c-2.666-2.737-6.359-4.467-10.183-4.675c-4.339-0.309-8.73,1.405-11.812,4.454
	c-0.758,0.852-1.884,1.375-3.036,1.239c-2.675-0.188-4.532-3.758-2.689-5.902C23.139,38.586,28.424,36.086,33.869,35.546z"/>
<path class="st0" d="M34.917,48.248c4.38-0.735,8.826,2.882,8.967,7.324c0.406,4.355-3.438,8.488-7.809,8.393
	c-3.93,0.136-7.571-3.124-7.916-7.032C27.599,52.829,30.807,48.721,34.917,48.248z"/>
</svg>
