<?xml version="1.0" encoding="utf-8"?>
<!-- Generator: Adobe Illustrator 23.0.3, SVG Export Plug-In . SVG Version: 6.00 Build 0)  -->
<svg version="1.1" id="Layer_1" xmlns="http://www.w3.org/2000/svg" xmlns:xlink="http://www.w3.org/1999/xlink" x="0px" y="0px"
	 viewBox="0 0 288 288" style="enable-background:new 0 0 288 288;" xml:space="preserve">
<style type="text/css">
	.st0{fill:#FFFFFF;}
</style>
<path class="st0" d="M281.367,254.821l-76.173-76.557c36.163-50.782,24.237-121.185-26.546-157.348
	C127.866-15.247,57.078-3.321,20.915,47.461S-3.322,169.03,47.46,204.808c39.241,27.699,91.562,27.699,130.803,0l76.559,76.558
	c6.925,8.079,18.851,8.848,26.545,1.924c8.079-6.925,8.848-18.851,1.924-26.545C282.906,255.975,282.137,255.205,281.367,254.821z
	 M176.34,175.955c-35.009,34.623-91.177,34.623-126.186,0c-35.009-34.624-34.624-91.177,0-126.186
	c34.624-34.624,91.177-34.624,125.802,0C210.964,84.778,210.964,141.331,176.34,175.955z"/>
<path class="st0" d="M160.566,104.398h-35.778V68.235c0-5.001-3.847-8.848-8.848-8.848s-8.848,3.847-8.848,8.848v36.163H70.543
	c-5.001,0-8.848,3.847-8.848,8.848c0,5.001,3.847,8.848,8.848,8.848h36.163v35.778c0,5.001,3.847,8.848,8.848,8.848
	s8.848-3.847,8.848-8.848v-35.778h35.778c5.001,0,8.848-3.847,8.848-8.848C169.415,108.245,165.568,104.398,160.566,104.398z"/>
</svg>
