<svg width="232px" height="122px" viewBox="0 0 232 122" fill="none" xmlns="http://www.w3.org/2000/svg" transform="rotate(0) scale(1, 1)">
<path d="M0 53.5914H17.0264V36.4783L50.4855 36.7443V24.3413L17.0264 24.673V12.4688L53.9171 12.8663V0H0L0.527981 24.7388L0 53.5914Z" fill="#000000"/>
<path d="M86.0593 54.7184C104.076 54.7184 113.578 50.0098 113.578 29.9124C113.578 9.8166 104.076 5.10645 86.0593 5.10645C68.043 5.10645 58.5391 9.8166 58.5391 29.9124C58.5391 50.0098 68.043 54.7184 86.0593 54.7184ZM74.0484 29.9124C74.0484 19.6986 77.8756 17.5767 86.0593 17.5767C94.2415 17.5767 98.0702 19.6986 98.0702 29.9124C98.0702 39.9947 94.3738 42.2497 86.0593 42.2497C77.8756 42.2497 74.0484 40.1277 74.0484 29.9124Z" fill="#000000"/>
<path d="M116.742 53.5914H133.703L145.451 37.3405L157.197 53.5914H174.157L156.339 29.3816L173.564 6.23438H156.604L145.451 21.4901L134.298 6.23438H117.337L134.561 29.3816L116.742 53.5914Z" fill="#000000"/>
<path d="M0 119.916H17.0264V102.804L50.4855 103.07V90.6674L17.0264 90.9992V78.7949L53.9171 79.1924V66.3262H0L0.527981 91.0649L0 119.916Z" fill="#000000"/>
<path d="M86.0593 121.045C104.076 121.045 113.578 116.334 113.578 96.2386C113.578 76.1413 104.076 71.4326 86.0593 71.4326C68.043 71.4326 58.5391 76.1413 58.5391 96.2386C58.5391 116.334 68.043 121.045 86.0593 121.045ZM74.0484 96.2386C74.0484 86.0248 77.8756 83.9014 86.0593 83.9014C94.2415 83.9014 98.0702 86.0248 98.0702 96.2386C98.0702 106.319 94.3738 108.576 86.0593 108.576C77.8756 108.576 74.0484 106.452 74.0484 96.2386Z" fill="#000000"/>
<path d="M130.934 121.044C137.072 121.044 148.62 117.993 158.454 114.876L159.84 119.916H171.851L171.784 106.055L171.851 72.5605H156.737L156.936 103.8C151.261 105.59 143.012 107.978 138.392 107.978C134.96 107.978 133.573 105.789 133.64 101.876L134.168 72.5605H119.055L118.461 106.917C118.263 117.131 122.025 121.044 130.934 121.044Z" fill="#000000"/>
<path d="M177.328 119.916H229.464V109.371L206.762 109.172V89.4062C210.986 86.7538 216.332 84.8306 220.621 85.4268L221.809 93.1869H231.84V71.9628C221.545 70.2384 209.864 71.9628 200.889 79.3912L199.503 72.5606H177.328V83.1061L191.187 83.5036V109.238L177.328 109.371V119.916Z" fill="#000000"/>
</svg>