<svg xml:space="preserve" width="100" height="100" xmlns="http://www.w3.org/2000/svg">
  <path d="M100 60c0 3.31-2.69 6-6 6H81v13c0 3.31-2.69 6-6 6s-6-2.69-6-6V66H56c-3.31 0-6-2.69-6-6s2.69-6 6-6h13V41c0-3.31 2.69-6 6-6s6 2.69 6 6v13h13c3.31 0 6 2.69 6 6z"/>
  <path d="M202.36 300v-4.518a3.863 3.863 0 0 1 3.872-3.872h18.07l1.517-3.017a3.828 3.828 0 0 1 3.453-2.146h18.442a3.87 3.87 0 0 1 3.469 2.146l1.516 3.017h18.071a3.863 3.863 0 0 1 3.872 3.872V300a1.942 1.942 0 0 1-1.936 1.936h-68.41A1.942 1.942 0 0 1 202.36 300zm66.99 9.148-3.291 52.647a7.75 7.75 0 0 1-7.729 7.26h-39.658a7.75 7.75 0 0 1-7.729-7.26l-3.291-52.647a1.938 1.938 0 0 1 1.936-2.049h57.842c1.097 0 1.985.936 1.92 2.05z"/>
  <path d="M12.117 58.046v-42a6 6 0 0 0-12 0v42a6 6 0 0 0 12 0zM32 58V16a6 6 0 0 0-12 0v42a6 6 0 0 0 12 0zM52.056 39.99v-24a6 6 0 0 0-12 0v24a6 6 0 0 0 12 0z"/>
</svg>
