<?xml version="1.0" encoding="UTF-8"?>
<svg version="1.1" xmlns="http://www.w3.org/2000/svg" width="1200" height="1200">
<path d="M0 0 C5.12421184 3.63755779 9.24075455 6.71765951 11.20019531 12.83154297 C11.86019531 12.83154297 12.52019531 12.83154297 13.20019531 12.83154297 C14.66472223 14.80107917 15.93580708 16.73577618 17.20019531 18.83154297 C17.82667969 19.82927734 17.82667969 19.82927734 18.46582031 20.84716797 C23.87579918 29.90725305 25.65137888 39.07377283 25.63598633 49.52856445 C25.64606216 50.53502014 25.656138 51.54147583 25.66651917 52.57843018 C25.69476621 55.86994862 25.70086328 59.161005 25.70410156 62.45263672 C25.71375648 64.76229534 25.72384996 67.07195217 25.73435974 69.38160706 C25.75226129 74.20879366 25.75788669 79.03581968 25.75610352 83.86303711 C25.75579848 90.02411861 25.79680242 96.18416424 25.84842014 102.34500027 C25.88189845 107.11079062 25.88785764 111.87633321 25.88627434 116.64222908 C25.88979506 118.91266523 25.90295493 121.18310912 25.92627144 123.45342827 C26.13708061 146.09201987 26.13708061 146.09201987 19.20019531 155.83154297 C18.54019531 156.82154297 17.88019531 157.81154297 17.20019531 158.83154297 C16.54019531 158.83154297 15.88019531 158.83154297 15.20019531 158.83154297 C14.82894531 159.72679687 14.82894531 159.72679687 14.45019531 160.64013672 C11.46784252 165.86857396 5.03033361 168.78220961 -0.48730469 170.70654297 C-8.97613508 172.94812474 -18.57240834 173.02175788 -26.79980469 169.83154297 C-27.93417969 169.41904297 -29.06855469 169.00654297 -30.23730469 168.58154297 C-39.33495802 164.11252028 -45.45018267 157.78569187 -49.87594604 148.59736633 C-50.97892384 145.29530082 -51.03996707 142.59465473 -51.02685547 139.11352539 C-51.02714752 138.45930603 -51.02743958 137.80508667 -51.02774048 137.13104248 C-51.02635451 134.98289418 -51.01082839 132.83509893 -50.99511719 130.68701172 C-50.99138444 129.19200327 -50.9885387 127.69699237 -50.98654175 126.20198059 C-50.97892587 122.27777283 -50.9592951 118.35371441 -50.93713379 114.42956543 C-50.91663118 110.42100037 -50.90753061 106.41241104 -50.89746094 102.40380859 C-50.87604714 94.54631838 -50.84193606 86.68894928 -50.79980469 78.83154297 C-52.56710786 80.27202585 -54.33364373 81.71345014 -56.09985352 83.15527344 C-57.57558586 84.35916214 -57.57558586 84.35916214 -59.08113098 85.58737183 C-61.9674752 87.96994918 -64.74210787 90.413896 -67.48730469 92.95654297 C-73.39228502 98.37641161 -79.31431908 103.68289393 -85.61230469 108.64404297 C-89.28868333 111.55591474 -92.78633142 114.59336101 -96.23730469 117.76904297 C-110.81292286 131.16453297 -110.81292286 131.16453297 -116.79980469 133.83154297 C-116.79980469 134.49154297 -116.79980469 135.15154297 -116.79980469 135.83154297 C-121.27039292 139.83154297 -121.27039292 139.83154297 -123.79980469 139.83154297 C-124.12980469 140.82154297 -124.45980469 141.81154297 -124.79980469 142.83154297 C-126.62011719 144.44482422 -126.62011719 144.44482422 -128.92480469 146.14404297 C-131.96651661 148.42411411 -134.89540449 150.744239 -137.73730469 153.26904297 C-140.79980469 155.83154297 -140.79980469 155.83154297 -142.79980469 155.83154297 C-143.12980469 156.82154297 -143.45980469 157.81154297 -143.79980469 158.83154297 C-148.25694754 162.83154297 -148.25694754 162.83154297 -150.79980469 162.83154297 C-150.79980469 163.49154297 -150.79980469 164.15154297 -150.79980469 164.83154297 C-151.45980469 164.83154297 -152.11980469 164.83154297 -152.79980469 164.83154297 C-152.79980469 165.49154297 -152.79980469 166.15154297 -152.79980469 166.83154297 C-154.47949219 168.33935547 -154.47949219 168.33935547 -156.67480469 169.95654297 C-157.39410156 170.49537109 -158.11339844 171.03419922 -158.85449219 171.58935547 C-160.79980469 172.83154297 -160.79980469 172.83154297 -162.79980469 172.83154297 C-163.03183594 173.40904297 -163.26386719 173.98654297 -163.50292969 174.58154297 C-165.12340081 177.39296274 -166.99243596 178.83407154 -169.54980469 180.83154297 C-170.53464844 181.61658203 -171.51949219 182.40162109 -172.53417969 183.21044922 C-173.32791992 183.84297607 -173.32791992 183.84297607 -174.13769531 184.48828125 C-177.07215843 186.8598171 -179.9365004 189.31242682 -182.79980469 191.76904297 C-183.39132324 192.27580566 -183.9828418 192.78256836 -184.59228516 193.3046875 C-188.34994514 196.54013491 -192.02755419 199.8472333 -195.67480469 203.20654297 C-199.29271629 206.52738265 -202.96509941 209.58021201 -206.94824219 212.44873047 C-209.55153989 214.39296546 -211.94901872 216.54827197 -214.35449219 218.72998047 C-215.79980469 219.83154297 -215.79980469 219.83154297 -217.79980469 219.83154297 C-217.79980469 220.49154297 -217.79980469 221.15154297 -217.79980469 221.83154297 C-217.26355469 222.07904297 -216.72730469 222.32654297 -216.17480469 222.58154297 C-213.21740649 224.13806833 -210.50256418 225.8658997 -207.79980469 227.83154297 C-207.79980469 228.49154297 -207.79980469 229.15154297 -207.79980469 229.83154297 C-206.91446045 230.2403772 -206.91446045 230.2403772 -206.01123047 230.6574707 C-203.85617657 231.80161446 -202.24397539 233.01096682 -200.41699219 234.61669922 C-199.80726563 235.14714844 -199.19753906 235.67759766 -198.56933594 236.22412109 C-197.94414062 236.77519531 -197.31894531 237.32626953 -196.67480469 237.89404297 C-195.42378983 238.99091037 -194.17125464 240.08604691 -192.91699219 241.17919922 C-192.36640137 241.66396729 -191.81581055 242.14873535 -191.24853516 242.64819336 C-189.79002732 243.92787481 -189.79002732 243.92787481 -187.79980469 244.83154297 C-187.79980469 245.49154297 -187.79980469 246.15154297 -187.79980469 246.83154297 C-187.24292969 247.07904297 -186.68605469 247.32654297 -186.11230469 247.58154297 C-183.37569555 249.06079115 -181.12329599 250.76621736 -178.79980469 252.83154297 C-178.79980469 253.49154297 -178.79980469 254.15154297 -178.79980469 254.83154297 C-178.25195312 255.07130859 -177.70410156 255.31107422 -177.13964844 255.55810547 C-174.23972529 257.1363608 -171.8960846 259.09095974 -169.36230469 261.20654297 C-165.20676283 264.66305308 -165.20676283 264.66305308 -160.95214844 267.99560547 C-160.241875 268.60146484 -159.53160156 269.20732422 -158.79980469 269.83154297 C-158.79980469 270.49154297 -158.79980469 271.15154297 -158.79980469 271.83154297 C-158.20167969 272.12029297 -157.60355469 272.40904297 -156.98730469 272.70654297 C-154.79980469 273.83154297 -154.79980469 273.83154297 -151.79980469 275.83154297 C-151.79980469 276.49154297 -151.79980469 277.15154297 -151.79980469 277.83154297 C-151.22101563 278.10353516 -150.64222656 278.37552734 -150.04589844 278.65576172 C-147.80643571 279.82807177 -145.88237704 281.12798867 -143.86230469 282.64404297 C-142.88970703 283.36527344 -142.88970703 283.36527344 -141.89746094 284.10107422 C-139.79980469 285.83154297 -139.79980469 285.83154297 -137.48339844 288.15185547 C-134.38938127 291.24136898 -131.13041133 294.06516233 -127.79980469 296.89404297 C-127.19652344 297.4103125 -126.59324219 297.92658203 -125.97167969 298.45849609 C-123.30785289 300.73143526 -120.64545012 302.94956674 -117.86230469 305.07763672 C-116.84136719 305.94582031 -116.84136719 305.94582031 -115.79980469 306.83154297 C-115.79980469 307.49154297 -115.79980469 308.15154297 -115.79980469 308.83154297 C-115.2390625 309.08291016 -114.67832031 309.33427734 -114.10058594 309.59326172 C-101.79255665 316.21744726 -90.59118762 328.43301975 -80.29980469 337.83154297 C-77.53085122 340.35508752 -74.76214339 342.64726637 -71.67480469 344.76904297 C-70.72605469 345.44966797 -69.77730469 346.13029297 -68.79980469 346.83154297 C-68.79980469 347.49154297 -68.79980469 348.15154297 -68.79980469 348.83154297 C-68.24292969 349.06873047 -67.68605469 349.30591797 -67.11230469 349.55029297 C-63.30420755 351.66018462 -60.39548667 354.77218306 -57.23730469 357.73779297 C-55.09403685 359.57880508 -53.32121665 360.64546652 -50.79980469 361.83154297 C-50.80868713 361.03720352 -50.81756958 360.24286407 -50.82672119 359.42445374 C-50.90715294 351.90734177 -50.96791323 344.39044097 -51.00705338 336.87300968 C-51.02785286 333.00898313 -51.05602857 329.14531466 -51.1015625 325.28149414 C-51.14529599 321.54671692 -51.16899912 317.81228229 -51.17931366 314.0772686 C-51.18665612 312.6584071 -51.20099338 311.23956254 -51.22272491 309.82084846 C-51.39713037 297.95388048 -49.67105067 290.26886653 -41.51855469 281.54638672 C-33.12544553 273.17235281 -23.14139145 269.65218634 -11.38430771 269.56181759 C-10.24813027 269.56798354 -10.24813027 269.56798354 -9.08899975 269.57427406 C-8.25659558 269.57076799 -7.4241914 269.56726191 -6.56656286 269.56364959 C-3.78895171 269.55437671 -1.01155213 269.55924825 1.7660675 269.56411743 C3.7823118 269.56037911 5.79855464 269.55577687 7.8147952 269.55038679 C13.34667993 269.53816407 18.87850416 269.5384164 24.41039932 269.54077554 C30.37986104 269.54118388 36.34930341 269.53014293 42.3187561 269.5206604 C54.01038059 269.50405387 65.70198997 269.4985251 77.39362446 269.49743564 C86.89702905 269.49651589 96.40042711 269.49239573 105.90382957 269.48603439 C108.64124065 269.48423926 111.37865173 269.48245963 114.11606282 269.48068464 C114.79662519 269.48024254 115.47718755 269.47980045 116.17837302 269.47934495 C135.3158081 269.4670402 154.45324091 269.45914346 173.59068012 269.46003151 C174.67251298 269.46007825 174.67251298 269.46007825 175.77620104 269.46012593 C179.43150065 269.46029214 183.08680025 269.46049022 186.74209986 269.46069534 C187.46803193 269.46073523 188.193964 269.46077512 188.94189401 269.46081622 C190.40990456 269.4608971 191.87791512 269.46098069 193.34592567 269.461067 C216.18596484 269.46229252 239.02594462 269.44727768 261.8659668 269.41992188 C287.53733479 269.38918746 313.20866376 269.37199016 338.88005131 269.37384832 C341.61840546 269.37399758 344.3567596 269.37409499 347.09511375 269.37415695 C347.76934676 269.37418026 348.44357977 269.37420357 349.13824407 269.37422758 C359.97818599 269.37428907 370.81807625 269.3615293 381.65800282 269.34429242 C392.55563477 269.32732238 403.45318772 269.32571544 414.35082547 269.33851106 C420.2520443 269.34504368 426.15307632 269.34514698 432.05427742 269.32780457 C437.459746 269.31208246 442.8648795 269.31492899 448.27033987 269.33237283 C450.22249366 269.33544456 452.1746724 269.33180387 454.12679676 269.32065268 C468.83639498 269.24221255 480.96338011 270.2655824 492.20019531 280.83154297 C495.57238432 284.4771527 497.83337084 288.49236477 500.20019531 292.83154297 C500.78800781 293.85248047 500.78800781 293.85248047 501.38769531 294.89404297 C506.13476017 306.21396685 502.35313028 318.071666 498.20019531 328.83154297 C497.54019531 328.83154297 496.88019531 328.83154297 496.20019531 328.83154297 C496.03519531 329.51216797 495.87019531 330.19279297 495.70019531 330.89404297 C492.2558882 337.6391444 485.20734662 342.2646872 478.20019531 344.83154297 C472.79103001 346.36926814 467.90361765 347.12038507 462.26608276 347.07763863 C461.50552572 347.07994631 460.74496868 347.082254 459.96136445 347.08463162 C457.42223283 347.08990988 454.88335674 347.08096573 452.34423828 347.072052 C450.50179707 347.07292451 448.65935611 347.07467634 446.81691647 347.07723033 C441.76125906 347.08169888 436.70568651 347.0737069 431.65003991 347.06367421 C426.19546021 347.05503495 420.74088527 347.05796021 415.28630066 347.05947876 C405.83824531 347.06052731 396.39021759 347.05425383 386.94216919 347.04300308 C373.2818906 347.02674699 359.62162537 347.02153996 345.96133816 347.0190271 C323.79827405 347.01465017 301.635224 347.00135831 279.47216797 346.98242188 C257.94319739 346.96404847 236.41423075 346.94988346 214.88525391 346.94140625 C214.22145123 346.9411432 213.55764856 346.94088015 212.87373066 346.94060912 C205.5459754 346.93771037 198.2182201 346.9349267 190.89046478 346.93219018 C135.66036479 346.91145775 80.43028076 346.87623226 25.20019531 346.83154297 C25.20907776 347.50424728 25.21796021 348.1769516 25.22711182 348.87004089 C25.31621503 355.92767768 25.37618893 362.98515238 25.41992188 370.04321289 C25.43992745 372.67055766 25.46714068 375.29785853 25.50195312 377.92504883 C25.55095864 381.72081393 25.57327582 385.51598586 25.59082031 389.31201172 C25.62178802 391.04876411 25.62178802 391.04876411 25.65338135 392.82060242 C25.65635532 403.84716462 23.05080453 413.83981493 17.07519531 423.14404297 C16.39199219 424.23330078 15.70878906 425.32255859 15.00488281 426.44482422 C14.40933594 427.23244141 13.81378906 428.02005859 13.20019531 428.83154297 C12.54019531 428.83154297 11.88019531 428.83154297 11.20019531 428.83154297 C10.82894531 429.69779297 10.82894531 429.69779297 10.45019531 430.58154297 C9.01719543 433.16094276 7.41594855 434.89275889 5.20019531 436.83154297 C4.54019531 436.83154297 3.88019531 436.83154297 3.20019531 436.83154297 C3.20019531 437.49154297 3.20019531 438.15154297 3.20019531 438.83154297 C-7.41809578 447.77188189 -22.03631366 453.04924863 -35.79980469 453.83154297 C-36.84201172 453.89341797 -36.84201172 453.89341797 -37.90527344 453.95654297 C-53.48540248 454.41060866 -66.46115098 450.08553325 -78.79980469 440.83154297 C-79.89292969 440.13029297 -80.98605469 439.42904297 -82.11230469 438.70654297 C-84.79980469 436.83154297 -84.79980469 436.83154297 -87.04980469 434.57373047 C-90.06664089 431.56546482 -93.23400541 428.82725428 -96.48730469 426.08154297 C-100.80225001 422.41850808 -105.06206308 418.71707861 -109.23730469 414.89404297 C-111.93478954 412.43977396 -114.61511659 410.15899309 -117.61230469 408.08154297 C-120.72337331 405.88549453 -123.11338071 403.51796694 -125.79980469 400.83154297 C-127.48936757 399.41304703 -129.19838751 398.01744648 -130.92480469 396.64404297 C-136.0012033 392.5457293 -140.80974839 388.23980191 -145.58496094 383.80029297 C-147.63659589 381.80482508 -147.63659589 381.80482508 -149.79980469 380.83154297 C-149.79980469 380.17154297 -149.79980469 379.51154297 -149.79980469 378.83154297 C-150.37730469 378.56341797 -150.95480469 378.29529297 -151.54980469 378.01904297 C-153.85530511 376.80225108 -155.82036661 375.52820418 -157.79980469 373.83154297 C-157.79980469 373.17154297 -157.79980469 372.51154297 -157.79980469 371.83154297 C-158.61964844 371.47382812 -158.61964844 371.47382812 -159.45605469 371.10888672 C-162.38142616 369.51455927 -164.74518802 367.53107807 -167.29980469 365.39404297 C-171.14107858 362.17816001 -171.14107858 362.17816001 -175.14355469 359.17138672 C-175.69011719 358.72923828 -176.23667969 358.28708984 -176.79980469 357.83154297 C-176.79980469 357.17154297 -176.79980469 356.51154297 -176.79980469 355.83154297 C-177.69699219 355.39841797 -177.69699219 355.39841797 -178.61230469 354.95654297 C-180.79980469 353.83154297 -180.79980469 353.83154297 -183.79980469 351.83154297 C-183.79980469 351.17154297 -183.79980469 350.51154297 -183.79980469 349.83154297 C-184.39075928 349.55826172 -184.98171387 349.28498047 -185.59057617 349.00341797 C-187.73061069 347.8682466 -189.33260743 346.67405485 -191.14746094 345.08154297 C-191.75267578 344.55560547 -192.35789062 344.02966797 -192.98144531 343.48779297 C-193.60212891 342.94123047 -194.2228125 342.39466797 -194.86230469 341.83154297 C-196.10190173 340.74673565 -197.34274217 339.66334714 -198.58496094 338.58154297 C-199.13031494 338.10201172 -199.67566895 337.62248047 -200.23754883 337.12841797 C-201.98060993 335.63542554 -201.98060993 335.63542554 -204.79980469 333.83154297 C-204.79980469 333.17154297 -204.79980469 332.51154297 -204.79980469 331.83154297 C-205.37730469 331.56341797 -205.95480469 331.29529297 -206.54980469 331.01904297 C-208.85530511 329.80225108 -210.82036661 328.52820418 -212.79980469 326.83154297 C-212.79980469 326.17154297 -212.79980469 325.51154297 -212.79980469 324.83154297 C-213.34765625 324.59177734 -213.89550781 324.35201172 -214.45996094 324.10498047 C-217.35988408 322.52672513 -219.70352477 320.5721262 -222.23730469 318.45654297 C-226.39284655 315.00003286 -226.39284655 315.00003286 -230.64746094 311.66748047 C-231.35773438 311.06162109 -232.06800781 310.45576172 -232.79980469 309.83154297 C-232.79980469 309.17154297 -232.79980469 308.51154297 -232.79980469 307.83154297 C-233.34636719 307.59306641 -233.89292969 307.35458984 -234.45605469 307.10888672 C-237.38142616 305.51455927 -239.74518802 303.53107807 -242.29980469 301.39404297 C-246.14107858 298.17816001 -246.14107858 298.17816001 -250.14355469 295.17138672 C-250.96339844 294.50816406 -250.96339844 294.50816406 -251.79980469 293.83154297 C-251.79980469 293.17154297 -251.79980469 292.51154297 -251.79980469 291.83154297 C-252.35410156 291.58533203 -252.90839844 291.33912109 -253.47949219 291.08544922 C-261.38368421 286.81399191 -268.13258466 279.72977959 -274.70605469 273.67919922 C-276.86313732 271.69208958 -276.86313732 271.69208958 -279.79980469 269.83154297 C-279.79980469 269.17154297 -279.79980469 268.51154297 -279.79980469 267.83154297 C-281.11980469 267.17154297 -282.43980469 266.51154297 -283.79980469 265.83154297 C-283.79980469 265.17154297 -283.79980469 264.51154297 -283.79980469 263.83154297 C-284.3734375 263.62271484 -284.94707031 263.41388672 -285.53808594 263.19873047 C-288.64173539 261.32260385 -290.01554421 258.9826219 -291.98730469 255.95654297 C-292.68210937 254.90724609 -293.37691406 253.85794922 -294.09277344 252.77685547 C-295.50940674 250.33259573 -296.35470054 248.58188802 -296.79980469 245.83154297 C-298.11980469 245.50154297 -299.43980469 245.17154297 -300.79980469 244.83154297 C-300.87466033 239.62120611 -300.92873594 234.41119087 -300.96459961 229.20043945 C-300.97957004 227.43248025 -300.99995371 225.66455742 -301.02612305 223.89672852 C-301.29771934 205.06072702 -301.29771934 205.06072702 -297.79980469 195.83154297 C-297.13980469 195.83154297 -296.47980469 195.83154297 -295.79980469 195.83154297 C-295.73792969 195.00654297 -295.67605469 194.18154297 -295.61230469 193.33154297 C-294.58839013 188.92083411 -292.66402657 185.34712995 -289.79980469 181.83154297 C-289.13980469 181.83154297 -288.47980469 181.83154297 -287.79980469 181.83154297 C-287.57421875 181.09548828 -287.34863281 180.35943359 -287.11621094 179.60107422 C-285.50860074 176.21889135 -283.69543007 174.79484407 -280.73730469 172.51904297 C-277.1645145 169.70820023 -273.66898229 166.88390821 -270.29980469 163.83154297 C-266.15560454 160.10176283 -261.85698372 156.59086497 -257.52246094 153.08544922 C-254.1035861 150.25518985 -250.8305097 147.28317347 -247.57714844 144.26513672 C-245.79980469 142.83154297 -245.79980469 142.83154297 -243.79980469 142.83154297 C-243.79980469 142.17154297 -243.79980469 141.51154297 -243.79980469 140.83154297 C-242.33170964 139.52000534 -240.79784685 138.28160222 -239.23730469 137.08154297 C-236.01124594 134.57391149 -232.8551393 132.04452508 -229.79980469 129.33154297 C-226.79980469 126.83154297 -226.79980469 126.83154297 -224.79980469 126.83154297 C-224.55230469 126.23341797 -224.30480469 125.63529297 -224.04980469 125.01904297 C-222.61907944 122.51527378 -221.23064648 121.35081909 -218.79980469 119.83154297 C-218.13980469 119.83154297 -217.47980469 119.83154297 -216.79980469 119.83154297 C-216.79980469 119.17154297 -216.79980469 118.51154297 -216.79980469 117.83154297 C-216.13980469 117.83154297 -215.47980469 117.83154297 -214.79980469 117.83154297 C-214.79980469 117.17154297 -214.79980469 116.51154297 -214.79980469 115.83154297 C-212.81290737 114.47876182 -210.81235251 113.14585991 -208.79980469 111.83154297 C-208.46980469 111.17154297 -208.13980469 110.51154297 -207.79980469 109.83154297 C-206.80980469 109.83154297 -205.81980469 109.83154297 -204.79980469 109.83154297 C-204.30480469 108.34654297 -204.30480469 108.34654297 -203.79980469 106.83154297 C-202.12655836 105.3093734 -200.38656337 103.85966792 -198.61230469 102.45654297 C-197.61972656 101.66634766 -196.62714844 100.87615234 -195.60449219 100.06201172 C-194.67894531 99.32595703 -193.75339844 98.58990234 -192.79980469 97.83154297 C-191.60836278 96.81531311 -190.41981595 95.795651 -189.23730469 94.76904297 C-186.79980469 92.83154297 -186.79980469 92.83154297 -184.79980469 92.83154297 C-184.47302734 91.9865625 -184.47302734 91.9865625 -184.13964844 91.12451172 C-182.36021204 88.07923719 -180.10573579 86.34826052 -177.36230469 84.14404297 C-175.91017578 82.96261719 -175.91017578 82.96261719 -174.42871094 81.75732422 C-171.79980469 79.83154297 -171.79980469 79.83154297 -168.79980469 78.83154297 C-168.46980469 77.84154297 -168.13980469 76.85154297 -167.79980469 75.83154297 C-165.81380132 74.47744976 -163.81162926 73.14696673 -161.79980469 71.83154297 C-160.12743031 70.17060363 -158.46168211 68.50298516 -156.79980469 66.83154297 C-154.6085398 64.84868092 -152.36583038 62.93058402 -150.11230469 61.01904297 C-149.2412207 60.2659082 -149.2412207 60.2659082 -148.35253906 59.49755859 C-144.03811251 55.83154297 -144.03811251 55.83154297 -141.79980469 55.83154297 C-141.46980469 54.84154297 -141.13980469 53.85154297 -140.79980469 52.83154297 C-138.76074219 50.99951172 -138.76074219 50.99951172 -136.17480469 49.01904297 C-132.96773137 46.53333142 -129.83354356 44.02606632 -126.79980469 41.33154297 C-123.79980469 38.83154297 -123.79980469 38.83154297 -121.79980469 38.83154297 C-121.46980469 37.84154297 -121.13980469 36.85154297 -120.79980469 35.83154297 C-119.34667969 34.62060547 -119.34667969 34.62060547 -117.54980469 33.45654297 C-114.20042856 31.27796646 -111.6170543 28.66104149 -108.79980469 25.83154297 C-106.54323111 23.81083375 -104.23602888 21.8518153 -101.92480469 19.89404297 C-101.04501953 19.14477539 -101.04501953 19.14477539 -100.14746094 18.38037109 C-98.96723406 17.37523282 -97.78527814 16.37212108 -96.6015625 15.37109375 C-95.34580674 14.29808618 -94.10112405 13.21204144 -92.86523438 12.11621094 C-92.24293945 11.56723145 -91.62064453 11.01825195 -90.97949219 10.45263672 C-90.4172998 9.95046631 -89.85510742 9.4482959 -89.27587891 8.9309082 C-87.79980469 7.83154297 -87.79980469 7.83154297 -85.79980469 7.83154297 C-85.79980469 7.17154297 -85.79980469 6.51154297 -85.79980469 5.83154297 C-83.58936312 3.95629131 -81.38679499 2.22453607 -79.04980469 0.51904297 C-78.03067993 -0.22526978 -78.03067993 -0.22526978 -76.9909668 -0.98461914 C-53.48498794 -17.67240584 -23.60203426 -15.32275312 0 0 Z " fill="#060606" transform="translate(300.7998046875,379.16845703125)"/>
<path d="M0 0 C1.14017817 -0.00320648 2.28035634 -0.00641296 3.45508537 -0.0097166 C7.27968576 -0.01802485 11.10412989 -0.01208927 14.92873287 -0.00622082 C17.69696671 -0.00813525 20.46519345 -0.01304916 23.23342365 -0.01781338 C29.25435337 -0.02656959 35.27524908 -0.02788955 41.29618359 -0.02431011 C50.24991138 -0.0190012 59.20360627 -0.02510039 68.15733049 -0.03339304 C85.08063752 -0.04863584 102.00392959 -0.05033774 118.92724205 -0.04787002 C131.99802218 -0.04603726 145.0687974 -0.0477966 158.13957691 -0.05209446 C160.01756053 -0.05269686 161.89554414 -0.05329806 163.77352775 -0.05389806 C166.6035161 -0.05480532 169.43350445 -0.05571399 172.26349279 -0.05663041 C198.57777441 -0.0650607 224.89205419 -0.0693952 251.20633698 -0.06522369 C252.69446366 -0.06498913 252.69446366 -0.06498913 254.21265351 -0.06474983 C259.24088979 -0.06394405 264.26912606 -0.06309828 269.29736234 -0.06223653 C270.79528519 -0.06197989 270.79528519 -0.06197989 272.32346912 -0.06171808 C274.34291332 -0.06137142 276.36235751 -0.06102289 278.3818017 -0.06067249 C309.79466824 -0.05531693 341.2075067 -0.06324069 372.620368 -0.08170605 C407.91786923 -0.10243062 443.21535306 -0.11314774 478.51286072 -0.10913056 C482.27807104 -0.10873522 486.04328137 -0.10837367 489.80849171 -0.10803318 C491.19911148 -0.10789708 491.19911148 -0.10789708 492.61782459 -0.10775824 C506.60326898 -0.10659305 520.58869578 -0.11323472 534.57413578 -0.1238451 C550.4854652 -0.13590433 566.39675593 -0.13744786 582.30808593 -0.12505493 C591.20749338 -0.1184333 600.10680831 -0.12004126 609.00620833 -0.13364345 C614.95840907 -0.14190528 620.91054069 -0.13916793 626.86273584 -0.12766818 C630.24917046 -0.12142872 633.63527832 -0.1214393 637.02172524 -0.13153151 C663.22475179 -0.20418346 682.71739071 3.86452125 705.44238949 17.25447559 C705.44238949 17.91447559 705.44238949 18.57447559 705.44238949 19.25447559 C706.27770199 19.62572559 706.27770199 19.62572559 707.12988949 20.00447559 C709.86649862 21.48372377 712.11889818 23.18914999 714.44238949 25.25447559 C714.44238949 25.91447559 714.44238949 26.57447559 714.44238949 27.25447559 C715.43238949 27.58447559 716.42238949 27.91447559 717.44238949 28.25447559 C730.44238949 43.43311279 730.44238949 43.43311279 730.44238949 50.25447559 C731.10238949 50.25447559 731.76238949 50.25447559 732.44238949 50.25447559 C733.94060008 53.62544943 734.44238949 55.45889679 734.44238949 59.25447559 C735.10238949 59.25447559 735.76238949 59.25447559 736.44238949 59.25447559 C738.07259373 62.84495109 738.69310367 65.63983866 738.69635677 69.57431507 C738.70199642 70.62717701 738.70763607 71.68003895 738.71344662 72.76480579 C738.70737392 74.48167843 738.70737392 74.48167843 738.70117855 76.23323536 C738.70643551 78.05348728 738.70643551 78.05348728 738.71179867 79.91051197 C738.71908467 83.23071446 738.71738862 86.55066716 738.7110405 89.87085557 C738.70596929 93.34833656 738.71067496 96.82580704 738.71381283 100.30328846 C738.71744872 106.14144776 738.71266277 111.97955641 738.70313168 117.81770802 C738.69224273 124.56548828 738.69577737 131.31314772 738.70678449 138.06092507 C738.71586202 143.85807852 738.71714051 149.65519563 738.71190715 155.45235389 C738.70879067 158.91321985 738.70836936 162.37402902 738.71498013 165.83489132 C738.721833 169.69167875 738.71233319 173.54833092 738.70117855 177.40511036 C738.70522701 178.55171635 738.70927547 179.69832233 738.71344662 180.87967396 C738.70498714 182.45473713 738.70498714 182.45473713 738.69635677 184.06161976 C738.69560272 184.97323148 738.69484867 185.8848432 738.69407177 186.82407951 C738.42750493 189.39820985 737.74427254 191.03805909 736.44238949 193.25447559 C735.78238949 193.25447559 735.12238949 193.25447559 734.44238949 193.25447559 C734.38051449 194.22385059 734.31863949 195.19322559 734.25488949 196.19197559 C732.49213519 208.07865661 721.08605996 221.41522702 712.31738949 229.06697559 C711.2925848 229.97383106 711.2925848 229.97383106 710.24707699 230.89900684 C708.44238949 232.25447559 708.44238949 232.25447559 706.44238949 232.25447559 C706.44238949 232.91447559 706.44238949 233.57447559 706.44238949 234.25447559 C696.30162477 243.56500227 679.71767082 249.0867171 666.44238949 251.25447559 C665.39137397 251.42618873 664.34035845 251.59790186 663.25749397 251.77481842 C659.31968517 252.2699027 655.46640566 252.40267958 651.50618649 252.40164661 C650.73688091 252.4053233 649.96757532 252.40899999 649.17495745 252.41278809 C646.61280872 252.42374749 644.05070064 252.42765549 641.48853207 252.43147755 C639.6449232 252.43774798 637.80131558 252.44439529 635.95770931 252.45139027 C629.91745529 252.47236162 623.87720121 252.48278523 617.83692074 252.49275684 C615.75231762 252.4968068 613.66771462 252.50092379 611.58311176 252.50510693 C601.7885919 252.52414229 591.99407951 252.53837756 582.19954473 252.5467189 C570.91501528 252.55648955 559.63068207 252.58281164 548.34622175 252.62321979 C539.60880872 252.65342787 530.87145182 252.66819216 522.13398761 252.67149991 C516.92231055 252.6738447 511.71084353 252.6827312 506.49922276 252.70796108 C501.59321353 252.73132951 496.68755139 252.73543989 491.78150082 252.7251997 C489.98852219 252.72470638 488.19552595 252.73096605 486.40260029 252.74475574 C473.88543548 252.83558389 462.50523752 252.06011604 452.19238949 244.12947559 C450.82340511 243.10467091 450.82340511 243.10467091 449.42676449 242.05916309 C448.77192074 241.46361622 448.11707699 240.86806934 447.44238949 240.25447559 C447.44238949 239.59447559 447.44238949 238.93447559 447.44238949 238.25447559 C446.78238949 238.25447559 446.12238949 238.25447559 445.44238949 238.25447559 C444.78238949 236.27447559 444.12238949 234.29447559 443.44238949 232.25447559 C442.78238949 232.25447559 442.12238949 232.25447559 441.44238949 232.25447559 C436.72861732 220.5752633 435.52046889 210.03648241 440.44238949 198.25447559 C440.77238949 197.26447559 441.10238949 196.27447559 441.44238949 195.25447559 C442.10238949 195.25447559 442.76238949 195.25447559 443.44238949 195.25447559 C443.58676449 194.63572559 443.73113949 194.01697559 443.87988949 193.37947559 C444.44238949 191.25447559 444.44238949 191.25447559 445.44238949 189.25447559 C446.10238949 189.25447559 446.76238949 189.25447559 447.44238949 189.25447559 C447.70406918 188.65635059 447.96574886 188.05822559 448.23535824 187.44197559 C451.96251572 180.68725653 459.57101428 178.12927895 466.57616138 176.07465649 C473.97386743 174.50530854 481.39665158 174.69340662 488.92896175 174.7244463 C490.75688566 174.71733476 492.58480343 174.70846537 494.41271114 174.69798756 C499.33774739 174.67453931 504.26251716 174.67508866 509.18759561 174.67990232 C514.35338302 174.68049864 519.51906643 174.65776311 524.68480587 174.63733387 C534.45442056 174.60202318 544.223961 174.58592326 553.99363226 174.5775587 C568.35120788 174.56456341 582.70872199 174.52629923 597.0662365 174.48345947 C598.11928948 174.48032079 599.17234247 174.4771821 600.25730616 174.4739483 C602.35641103 174.46766838 604.45551572 174.46132482 606.55462021 174.4549157 C612.70107972 174.43685373 618.84750266 174.42574519 624.99398625 174.42061865 C628.80836587 174.4167904 632.62273215 174.40917889 636.43710423 174.4008112 C638.20763349 174.39784857 639.9781666 174.39661574 641.74869823 174.39722347 C644.16168757 174.39788935 646.57459256 174.39255018 648.98757076 174.38577747 C650.04236695 174.38840303 650.04236695 174.38840303 651.11847216 174.39108163 C655.89464666 174.45591021 655.89464666 174.45591021 660.44238949 173.25447559 C664.63799034 164.85075326 663.92045684 155.48814053 663.95410824 146.31306934 C663.97097561 144.57714045 663.98912859 142.84122362 664.00850582 141.10532093 C664.0557887 136.56313821 664.08573796 132.02100441 664.11194515 127.47865772 C664.14186087 122.83286858 664.18835309 118.18724762 664.23340511 113.54158497 C664.31919084 104.44597022 664.38664547 95.35032063 664.44238949 86.25447559 C663.78238949 86.25447559 663.12238949 86.25447559 662.44238949 86.25447559 C662.09176449 85.32635059 661.74113949 84.39822559 661.37988949 83.44197559 C659.0152012 79.55168196 656.70102781 78.39755873 652.44238949 77.25447559 C648.78463592 76.84316415 645.16056269 76.85865 641.48283672 76.88812542 C640.38300925 76.88496348 639.28318178 76.88180155 638.1500262 76.87854379 C634.45052654 76.8715846 630.75142157 76.88610191 627.05194759 76.90044117 C624.3783173 76.89984922 621.7047121 76.89806361 619.03108621 76.89481175 C613.21056739 76.89013352 607.39014345 76.89658623 601.56964016 76.91031742 C592.9137688 76.93068025 584.25795126 76.93381032 575.60205902 76.93335777 C561.03657558 76.9330646 546.47113582 76.94660381 531.90566921 76.96785069 C517.47037061 76.98883258 503.03508932 77.00316212 488.59977627 77.00878239 C487.70188941 77.00913373 486.80400255 77.00948507 485.878907 77.00984706 C481.31854537 77.01159002 476.7581837 77.01320348 472.197822 77.01476003 C439.88122001 77.0259538 407.56464033 77.05030224 375.24805355 77.08308887 C367.41667338 77.09101932 359.58529319 77.09893582 351.75391293 77.10677052 C350.78262975 77.10774242 349.81134658 77.10871433 348.81063058 77.10971569 C326.27414947 77.13215346 303.73766521 77.14935828 281.20117855 77.16512012 C279.75392237 77.16613659 279.75392237 77.16613659 278.27742868 77.16717358 C256.23556008 77.18262672 234.1936909 77.19658752 212.15182018 77.20865536 C211.22447704 77.20916515 210.2971339 77.20967495 209.34168945 77.21020019 C200.99778947 77.21478465 192.65388948 77.21936001 184.30998936 77.22368576 C162.63174886 77.23495175 140.95352204 77.25067933 119.27529135 77.27433158 C105.66751568 77.28910859 92.05973979 77.3005709 78.45195898 77.30943738 C69.84871609 77.31518519 61.24548724 77.32385491 52.64225194 77.33668352 C46.88357406 77.34500064 41.12490062 77.3496161 35.36621701 77.35133491 C32.09281825 77.35242392 28.81944742 77.35563946 25.54605469 77.36232243 C14.23076566 77.38466242 2.92468628 77.39088843 -8.38037586 76.8575964 C-9.51320993 76.8087535 -9.51320993 76.8087535 -10.66892953 76.75892388 C-16.57299331 76.42896674 -21.44415345 75.20647135 -26.55761051 72.25447559 C-27.49927067 71.73047169 -27.49927067 71.73047169 -28.45995426 71.19588184 C-37.20232236 65.66733834 -42.79218884 56.1690438 -45.30761051 46.31697559 C-45.96545638 38.25836372 -45.73255217 31.7762258 -42.55761051 24.25447559 C-42.26757145 23.56353809 -41.97753239 22.87260059 -41.67870426 22.16072559 C-37.18242247 12.37802044 -30.38503998 6.67273866 -20.55761051 2.25447559 C-13.7308793 0.17772682 -7.08846765 -0.02968305 0 0 Z " fill="#040404" transform="translate(461.5576105117798,473.7455244064331)"/>
<path d="M0 0 C0.66 0.33 1.32 0.66 2 1 C1.26418258 2.1549921 0.51069961 3.29874185 -0.25 4.4375 C-0.66765625 5.07558594 -1.0853125 5.71367188 -1.515625 6.37109375 C-3.29183095 8.32024607 -4.47706243 8.46232478 -7 9 C-8.28436734 10.9837767 -8.28436734 10.9837767 -9 13 C-9.66 13 -10.32 13 -11 13 C-11 14.32 -11 15.64 -11 17 C-12.19625 17.2475 -13.3925 17.495 -14.625 17.75 C-24.9329152 21.14247842 -33.68229503 31.33383289 -41 39 C-41.33 38.34 -41.66 37.68 -42 37 C-37.13849158 30.51798878 -30.92443207 26.0006716 -24.52734375 21.109375 C-23.75519531 20.51640625 -22.98304687 19.9234375 -22.1875 19.3125 C-21.50042969 18.79300781 -20.81335938 18.27351562 -20.10546875 17.73828125 C-17.89594106 15.97118508 -17.89594106 15.97118508 -15.6640625 13.65625 C-12.64394454 10.64498869 -9.45864995 7.91892844 -6.1875 5.1875 C-5.59001953 4.68541016 -4.99253906 4.18332031 -4.37695312 3.66601562 C-2.91971152 2.44193268 -1.46010135 1.22067038 0 0 Z " fill="#5D5D5D" transform="translate(55,522)"/>
<path d="M0 0 C0.66 0 1.32 0 2 0 C1.68168213 1.07967041 1.68168213 1.07967041 1.35693359 2.18115234 C-0.73615138 9.78958368 -1.462242 16.7538332 -1.375 24.625 C-1.38660156 25.67945313 -1.39820312 26.73390625 -1.41015625 27.8203125 C-1.38725694 33.9878611 -0.67336685 39.15205026 1.45458984 44.95458984 C2 47 2 47 1 50 C-0.32 49.67 -1.64 49.34 -3 49 C-3.07485565 43.78966314 -3.12893126 38.5796479 -3.16479492 33.36889648 C-3.17976535 31.60093728 -3.20014903 29.83301445 -3.22631836 28.06518555 C-3.49791465 9.22918405 -3.49791465 9.22918405 0 0 Z " fill="#D6D6D6" transform="translate(3,575)"/>
<path d="M0 0 C0.66 0.33 1.32 0.66 2 1 C1.16855469 1.73605469 0.33710938 2.47210938 -0.51953125 3.23046875 C-1.61748628 4.21581301 -2.71512593 5.20150877 -3.8125 6.1875 C-4.35970703 6.67025391 -4.90691406 7.15300781 -5.47070312 7.65039062 C-8.68154398 10.54987721 -10.78349407 13.25257406 -13 17 C-13.99 17.33 -14.98 17.66 -16 18 C-16.66 18.66 -17.32 19.32 -18 20 C-19.98356483 20.71408334 -21.98315437 21.38617742 -24 22 C-24 22.66 -24 23.32 -24 24 C-24.66 23.67 -25.32 23.34 -26 23 C-22.22338949 19.11650429 -18.2570347 15.56262918 -14.125 12.0625 C-13.24521484 11.31323242 -13.24521484 11.31323242 -12.34765625 10.54882812 C-11.16894029 9.54497662 -9.98958463 8.54187575 -8.80957031 7.53955078 C-5.8656931 5.03495152 -2.9328645 2.51747785 0 0 Z " fill="#ABABAB" transform="translate(213,387)"/>
<path d="M0 0 C0.66 0 1.32 0 2 0 C2 0.66 2 1.32 2 2 C2.721875 1.9175 3.44375 1.835 4.1875 1.75 C7 2 7 2 9.5625 4.0625 C10.7690625 5.0215625 10.7690625 5.0215625 12 6 C13.32 5.67 14.64 5.34 16 5 C16 7.97 16 10.94 16 14 C12.45892576 12.22946288 10.31676081 10.67868114 7.4375 8.0625 C6.67308594 7.37285156 5.90867188 6.68320312 5.12109375 5.97265625 C1.49672819 2.60192953 1.49672819 2.60192953 0 1 C0 0.67 0 0.34 0 0 Z " fill="#646464" transform="translate(159,765)"/>
<path d="M0 0 C6.75 1.625 6.75 1.625 9 5 C10.32 5 11.64 5 13 5 C13.66 5.33 14.32 5.66 15 6 C15.144375 6.7425 15.28875 7.485 15.4375 8.25 C16.06913523 11.33799444 17.28038487 13.38319437 19 16 C15.28570797 14.37278635 12.38358949 12.05329514 9.25 9.5 C8.26515625 8.7059375 7.2803125 7.911875 6.265625 7.09375 C5.51796875 6.4028125 4.7703125 5.711875 4 5 C4 4.34 4 3.68 4 3 C2.68 2.34 1.36 1.68 0 1 C0 0.67 0 0.34 0 0 Z " fill="#4D4D4D" transform="translate(45,668)"/>
<path d="M0 0 C2 2 2 2 4 5 C5.2684375 5.495 5.2684375 5.495 6.5625 6 C7.7690625 6.495 7.7690625 6.495 9 7 C9.33 7.99 9.66 8.98 10 10 C12.97 10.495 12.97 10.495 16 11 C16.103125 11.7425 16.20625 12.485 16.3125 13.25 C17.04253504 16.17014018 18.06789398 17.73187554 20 20 C16.55488672 18.49767891 14.12997125 16.47594341 11.375 13.9375 C8.41210833 11.14219542 8.41210833 11.14219542 5 9 C5 8.34 5 7.68 5 7 C4.401875 6.71125 3.80375 6.4225 3.1875 6.125 C1 5 1 5 -2 3 C-2 2.34 -2 1.68 -2 1 C-1.34 0.67 -0.68 0.34 0 0 Z " fill="#909090" transform="translate(119,728)"/>
<path d="M0 0 C-0.51949219 0.21914063 -1.03898437 0.43828125 -1.57421875 0.6640625 C-6.80326114 3.04177863 -9.50774938 5.48061685 -13 10 C-13.66 10 -14.32 10 -15 10 C-16.175625 11.2375 -16.175625 11.2375 -17.375 12.5 C-20 15 -20 15 -24 15 C-24 14.34 -24 13.68 -24 13 C-21.66139154 11.09876488 -19.31936719 9.31795846 -16.875 7.5625 C-16.20984375 7.07201172 -15.5446875 6.58152344 -14.859375 6.07617188 C-4.45245288 -1.48415096 -4.45245288 -1.48415096 0 0 Z " fill="#919191" transform="translate(239,372)"/>
<path d="M0 0 C2.35953094 2.35953094 2.49141413 3.77895617 3 7 C4.32 6.67 5.64 6.34 7 6 C7.99 7.32 8.98 8.64 10 10 C9.34 11.32 8.68 12.64 8 14 C9.98 16.97 9.98 16.97 12 20 C10.68 19.34 9.36 18.68 8 18 C8 17.34 8 16.68 8 16 C7.34 16 6.68 16 6 16 C5.34 14.02 4.68 12.04 4 10 C3.34 10 2.68 10 2 10 C0.68373308 6.38026598 0 3.90432869 0 0 Z " fill="#959595" transform="translate(901,696)"/>
<path d="M0 0 C0.66 0.33 1.32 0.66 2 1 C-15 16.53125 -15 16.53125 -22 22 C-20.61828703 17.49166798 -18.64083155 15.53661724 -14.9375 12.6875 C-9.78263322 8.63433298 -4.85813121 4.40230655 0 0 Z " fill="#DFDFDF" transform="translate(35,539)"/>
<path d="M0 0 C0.66 0.33 1.32 0.66 2 1 C-0.42837151 3.98342785 -2.73802253 6.75719161 -5.5625 9.375 C-8.14315219 12.15416389 -9.54376928 14.71701026 -11.10546875 18.1328125 C-12 20 -12 20 -14 23 C-13.54177532 19.53058454 -13.10868317 16.32604951 -12 13 C-11.34 13 -10.68 13 -10 13 C-9.855625 12.38125 -9.71125 11.7625 -9.5625 11.125 C-9 9 -9 9 -8 7 C-7.34 7 -6.68 7 -6 7 C-5.7525 6.401875 -5.505 5.80375 -5.25 5.1875 C-3.83629988 2.71352479 -2.34944617 1.56629745 0 0 Z " fill="#CBCBCB" transform="translate(915,656)"/>
<path d="M0 0 C3.66415876 2.06312314 6.70548128 4.35872176 9.8125 7.1875 C10.60269531 7.90292969 11.39289063 8.61835937 12.20703125 9.35546875 C12.79871094 9.89816406 13.39039063 10.44085937 14 11 C11.30497325 11 9.56594408 10.65981419 7 10 C5.00211562 9.65421232 3.00240549 9.31856451 1 9 C1.33 8.01 1.66 7.02 2 6 C2.66 6 3.32 6 4 6 C3.34 5.38125 2.68 4.7625 2 4.125 C0 2 0 2 0 0 Z " fill="#747474" transform="translate(201,701)"/>
<path d="M0 0 C0.66 0.33 1.32 0.66 2 1 C1.15695313 1.77085937 0.31390625 2.54171875 -0.5546875 3.3359375 C-1.66148032 4.34893432 -2.76824994 5.36195647 -3.875 6.375 C-4.70837891 7.13683594 -4.70837891 7.13683594 -5.55859375 7.9140625 C-10.16985759 12.1151687 -10.16985759 12.1151687 -14 17 C-15.32 16.67 -16.64 16.34 -18 16 C-17.67 15.34 -17.34 14.68 -17 14 C-16.01 14 -15.02 14 -14 14 C-13.67 13.01 -13.34 12.02 -13 11 C-11.24176601 9.41674275 -9.41967853 7.90343936 -7.5625 6.4375 C-3.65375212 3.36145256 -3.65375212 3.36145256 0 0 Z " fill="#B5B5B5" transform="translate(110,475)"/>
<path d="M0 0 C0.66 0 1.32 0 2 0 C2 0.66 2 1.32 2 2 C3.98 2 5.96 2 8 2 C8 2.66 8 3.32 8 4 C8.99 4.33 9.98 4.66 11 5 C11 5.99 11 6.98 11 8 C12.93897879 10.67398476 12.93897879 10.67398476 15 13 C11.55164314 11.44864132 8.77008251 9.40847017 5.8125 7.0625 C4.93207031 6.37285156 4.05164063 5.68320312 3.14453125 4.97265625 C1 3 1 3 0 0 Z " fill="#898989" transform="translate(179,782)"/>
<path d="M0 0 C0.66 0.33 1.32 0.66 2 1 C-4.12608793 10.05229487 -4.12608793 10.05229487 -9 11 C-9.66 10.67 -10.32 10.34 -11 10 C-9.625 8.5 -9.625 8.5 -8 7 C-7.34 7 -6.68 7 -6 7 C-5.67 6.01 -5.34 5.02 -5 4 C-3.37667033 2.61423077 -1.71275535 1.27358732 0 0 Z " fill="#949494" transform="translate(165,428)"/>
<path d="M0 0 C3.36720387 1.39332574 4.9859524 2.9789286 7 6 C6.38125 6.12375 5.7625 6.2475 5.125 6.375 C2.80879168 6.87197356 2.80879168 6.87197356 1 9 C-0.61949011 6.42786866 -1.04408751 5.32330841 -0.625 2.25 C-0.41875 1.5075 -0.2125 0.765 0 0 Z " fill="#565656" transform="translate(99,614)"/>
<path d="M0 0 C3.3125 0.125 3.3125 0.125 7 1 C8.8125 3.875 8.8125 3.875 10 7 C10.99 8.485 10.99 8.485 12 10 C9.05043472 8.63055898 6.47531189 7.12169591 4 5 C4 4.34 4 3.68 4 3 C2.68 2.34 1.36 1.68 0 1 C0 0.67 0 0.34 0 0 Z " fill="#878787" transform="translate(92,708)"/>
<path d="M0 0 C0.66 0.33 1.32 0.66 2 1 C1.26418258 2.1549921 0.51069961 3.29874185 -0.25 4.4375 C-0.66765625 5.07558594 -1.0853125 5.71367187 -1.515625 6.37109375 C-3.30922119 8.33932957 -4.3937378 8.6413864 -7 9 C-7.99 9 -8.98 9 -10 9 C-6.7 6.03 -3.4 3.06 0 0 Z " fill="#959595" transform="translate(130,458)"/>
<path d="M0 0 C4.455 0.99 4.455 0.99 9 2 C9.12375 2.763125 9.2475 3.52625 9.375 4.3125 C9.88102792 7.20267136 9.88102792 7.20267136 12 10 C8.78727751 8.56006357 6.3793336 6.76981628 3.75 4.4375 C3.04359375 3.81746094 2.3371875 3.19742188 1.609375 2.55859375 C1.07828125 2.04425781 0.5471875 1.52992188 0 1 C0 0.67 0 0.34 0 0 Z " fill="#999999" transform="translate(33,658)"/>
<path d="M0 0 C1.98 0.66 3.96 1.32 6 2 C5.649375 2.61875 5.29875 3.2375 4.9375 3.875 C4.4734375 4.926875 4.4734375 4.926875 4 6 C4.33 6.66 4.66 7.32 5 8 C0.32307692 6.52307692 0.32307692 6.52307692 -1.3125 3.875 C-1.539375 3.25625 -1.76625 2.6375 -2 2 C-1.34 2 -0.68 2 0 2 C0 1.34 0 0.68 0 0 Z " fill="#646464" transform="translate(429,536)"/>
<path d="M0 0 C2.64 0.33 5.28 0.66 8 1 C3.25 5.875 3.25 5.875 1 7 C0.67 4.69 0.34 2.38 0 0 Z " fill="#444444" transform="translate(201,491)"/>
<path d="M0 0 C5.875 3.75 5.875 3.75 7 6 C4.525 5.01 4.525 5.01 2 4 C2 4.66 2 5.32 2 6 C0.68 6.33 -0.64 6.66 -2 7 C-2.33 5.68 -2.66 4.36 -3 3 C-2.01 2.67 -1.02 2.34 0 2 C0 1.34 0 0.68 0 0 Z " fill="#535353" transform="translate(215,713)"/>
<path d="M0 0 C6.51887872 1.35297483 6.51887872 1.35297483 8.8125 4.4375 C9.204375 5.283125 9.59625 6.12875 10 7 C10.99 8.485 10.99 8.485 12 10 C9.05043472 8.63055898 6.47531189 7.12169591 4 5 C4 4.34 4 3.68 4 3 C2.68 2.34 1.36 1.68 0 1 C0 0.67 0 0.34 0 0 Z " fill="#979797" transform="translate(45,668)"/>
<path d="M0 0 C0.99 0 1.98 0 3 0 C3 0.99 3 1.98 3 3 C3.66 3 4.32 3 5 3 C5 3.66 5 4.32 5 5 C6.32 5.66 7.64 6.32 9 7 C8.34 7.66 7.68 8.32 7 9 C5.82460004 8.07347299 4.65989423 7.13336613 3.5 6.1875 C2.52546875 5.40439453 2.52546875 5.40439453 1.53125 4.60546875 C0 3 0 3 0 0 Z " fill="#0F0F0F" transform="translate(41,661)"/>
<path d="M0 0 C0.66 0.33 1.32 0.66 2 1 C1.26418258 2.1549921 0.51069961 3.29874185 -0.25 4.4375 C-0.66765625 5.07558594 -1.0853125 5.71367188 -1.515625 6.37109375 C-3.30922119 8.33932957 -4.3937378 8.6413864 -7 9 C-7.99 9 -8.98 9 -10 9 C-6.7 6.03 -3.4 3.06 0 0 Z " fill="#A3A3A3" transform="translate(55,522)"/>
<path d="M0 0 C1.98 0.66 3.96 1.32 6 2 C5.67 2.66 5.34 3.32 5 4 C6.98 6.97 6.98 6.97 9 10 C4.71095765 8.4114658 2.67654474 5.56872632 0 2 C0 1.34 0 0.68 0 0 Z " fill="#666666" transform="translate(130,738)"/>
<path d="M0 0 C3.26460973 1.80412643 4.88929795 2.83394693 7 6 C4.1875 6.25 4.1875 6.25 1 6 C-0.875 4 -0.875 4 -2 2 C-1.34 2 -0.68 2 0 2 C0 1.34 0 0.68 0 0 Z " fill="#626262" transform="translate(188,690)"/>
<path d="M0 0 C0.99 0.33 1.98 0.66 3 1 C2.01 1.99 1.02 2.98 0 4 C-0.66 3.67 -1.32 3.34 -2 3 C-1.34 2.01 -0.68 1.02 0 0 Z M-4 4 C-3.34 4.33 -2.68 4.66 -2 5 C-2.8125 7.4375 -2.8125 7.4375 -4 10 C-4.99 10.33 -5.98 10.66 -7 11 C-7 7 -7 7 -5.5 5.25 C-5.005 4.8375 -4.51 4.425 -4 4 Z " fill="#343434" transform="translate(269,653)"/>
<path d="M0 0 C-0.63808594 0.18175781 -1.27617187 0.36351562 -1.93359375 0.55078125 C-2.75988281 0.80214844 -3.58617187 1.05351562 -4.4375 1.3125 C-5.26121094 1.55613281 -6.08492188 1.79976563 -6.93359375 2.05078125 C-7.61550781 2.36402344 -8.29742187 2.67726563 -9 3 C-9.33 3.99 -9.66 4.98 -10 6 C-11.32 5.34 -12.64 4.68 -14 4 C-12.42466914 3.13116294 -10.83935491 2.28040932 -9.25 1.4375 C-8.36828125 0.96183594 -7.4865625 0.48617188 -6.578125 -0.00390625 C-3.79298812 -1.07998186 -2.73019786 -1.06528748 0 0 Z " fill="#ABABAB" transform="translate(448,476)"/>
<path d="M0 0 C0.66 0.33 1.32 0.66 2 1 C1.01 2.485 1.01 2.485 0 4 C0 4.66 0 5.32 0 6 C0.66 6.33 1.32 6.66 2 7 C-0.60582371 7.93065133 -1.64198224 8.14917407 -4.25 7.0625 C-4.8275 6.711875 -5.405 6.36125 -6 6 C-5.38125 5.7525 -4.7625 5.505 -4.125 5.25 C-1.64931313 3.79371361 -1.04874998 2.62187494 0 0 Z " fill="#707070" transform="translate(118,468)"/>
<path d="M0 0 C2.875 -0.125 2.875 -0.125 6 0 C8 2 8 2 8 5 C4.20411134 4.45773019 2.52788007 2.79872437 0 0 Z " fill="#626262" transform="translate(222,819)"/>
<path d="M0 0 C2.49361571 1.20381448 4.68143083 2.45428722 7 4 C7 4.66 7 5.32 7 6 C8.32 6.66 9.64 7.32 11 8 C10.01 8.66 9.02 9.32 8 10 C7.608125 9.278125 7.21625 8.55625 6.8125 7.8125 C4.85350102 4.772674 2.62036403 2.47872273 0 0 Z " fill="#A4A4A4" transform="translate(142,651)"/>
<path d="M0 0 C0.66 0.33 1.32 0.66 2 1 C0.02 3.31 -1.96 5.62 -4 8 C-4.66 7.34 -5.32 6.68 -6 6 C-4.02 4.02 -2.04 2.04 0 0 Z M-8 7 C-7.34 7.33 -6.68 7.66 -6 8 C-6.99 8.99 -7.98 9.98 -9 11 C-9.66 10.67 -10.32 10.34 -11 10 C-10.01 9.01 -9.02 8.02 -8 7 Z " fill="#131313" transform="translate(32,543)"/>
<path d="M0 0 C0.33 0 0.66 0 1 0 C1.05447047 1.41623216 1.09300508 2.83308191 1.125 4.25 C1.14820313 5.03890625 1.17140625 5.8278125 1.1953125 6.640625 C0.9828378 9.20731941 0.28654105 10.7916067 -1 13 C-1.66 13 -2.32 13 -3 13 C-2.01 8.71 -1.02 4.42 0 0 Z " fill="#E5E5E5" transform="translate(1199,654)"/>
<path d="M0 0 C0.33 0.66 0.66 1.32 1 2 C-3.455 4.97 -3.455 4.97 -8 8 C-8 6.02 -8 4.04 -8 2 C-7.13375 2.3403125 -7.13375 2.3403125 -6.25 2.6875 C-3.87827523 3.26505193 -3.87827523 3.26505193 -1.75 1.5625 C-1.1725 1.046875 -0.595 0.53125 0 0 Z " fill="#8A8A8A" transform="translate(147,544)"/>
<path d="M0 0 C1.32 0.66 2.64 1.32 4 2 C2.75579353 2.5345256 1.50429064 3.05208611 0.25 3.5625 C-0.44609375 3.85253906 -1.1421875 4.14257812 -1.859375 4.44140625 C-4.30012784 5.07831803 -5.6403655 4.80248831 -8 4 C-7.34 4 -6.68 4 -6 4 C-6 3.34 -6 2.68 -6 2 C-4.35 2 -2.7 2 -1 2 C-0.67 1.34 -0.34 0.68 0 0 Z " fill="#919191" transform="translate(779,720)"/>
<path d="M0 0 C1.65 0.99 3.3 1.98 5 3 C4.67 3.99 4.34 4.98 4 6 C2.68 5.67 1.36 5.34 0 5 C0 3.35 0 1.7 0 0 Z " fill="#F3F3F3" transform="translate(0,619)"/>
<path d="M0 0 C1.65 0 3.3 0 5 0 C3.125 3.875 3.125 3.875 2 5 C1.01 4.67 0.02 4.34 -1 4 C-0.67 2.68 -0.34 1.36 0 0 Z " fill="#090909" transform="translate(49,529)"/>
<path d="M0 0 C3 1 3 1 3 1 Z M-2 1 C-1.01 1.33 -0.02 1.66 1 2 C1 2.99 1 3.98 1 5 C0.01 5.33 -0.98 5.66 -2 6 C-2.66 5.01 -3.32 4.02 -4 3 C-3.34 2.34 -2.68 1.68 -2 1 Z " fill="#0C0C0C" transform="translate(107,480)"/>
<path d="M0 0 C0.99 0.99 1.98 1.98 3 3 C2.01 3.99 1.02 4.98 0 6 C-0.66 4.68 -1.32 3.36 -2 2 C-1.34 1.34 -0.68 0.68 0 0 Z " fill="#121212" transform="translate(318,528)"/>
<path d="M0 0 C1.32 0 2.64 0 4 0 C4.33 1.32 4.66 2.64 5 4 C3.02 4.99 3.02 4.99 1 6 C0.67 4.02 0.34 2.04 0 0 Z " fill="#191919" transform="translate(249,457)"/>
</svg>
