<?xml version="1.0" encoding="utf-8"?>
<!-- Generator: Adobe Illustrator 18.1.1, SVG Export Plug-In . SVG Version: 6.00 Build 0)  -->
<svg version="1.1" xmlns="http://www.w3.org/2000/svg" xmlns:xlink="http://www.w3.org/1999/xlink" x="0px" y="0px"
	 viewBox="0 0 288 288" enable-background="new 0 0 288 288" xml:space="preserve">
<g id="Layer_1">
	<g>
		<path fill="#FFFFFF" d="M130.837,125.576l0.249,38.177h26.325l-0.249-38.16c7.832-4.559,13.162-12.957,13.162-22.692
			c0-14.534-11.774-26.325-26.325-26.325c-14.534,0-26.325,11.791-26.325,26.325C117.675,112.637,123.005,121.035,130.837,125.576z"
			/>
		<path fill="#FFFFFF" d="M184.344,143.246l18.613,18.613c15.734-15.734,24.405-36.677,24.405-58.957s-8.672-43.19-24.439-58.957
			L184.31,62.557c10.78,10.798,16.727,25.125,16.727,40.345C201.037,118.155,195.107,132.483,184.344,143.246z"/>
		<path fill="#FFFFFF" d="M240.551,163.753h30.055c9.024-18.75,13.794-39.435,13.794-60.851
			c-0.001-37.534-14.62-72.805-41.167-99.302L224.62,22.213c21.578,21.561,33.455,50.216,33.455,80.689
			C258.075,124.772,251.965,145.706,240.551,163.753z"/>
		<path fill="#FFFFFF" d="M85.077,161.858l18.613-18.613c-10.798-10.763-16.727-25.091-16.727-40.345
			c-0.001-15.218,5.93-29.546,16.693-40.344L85.043,43.944c-15.734,15.768-24.405,36.711-24.405,58.957
			C60.637,125.181,69.31,146.125,85.077,161.858z"/>
		<path fill="#FFFFFF" d="M47.475,163.753c-11.431-18.047-17.55-38.981-17.55-60.851c0-30.473,11.86-59.129,33.421-80.655
			L44.733,3.635C18.202,30.131,3.6,65.402,3.6,102.902c0,21.416,4.776,42.102,13.811,60.851H47.475z"/>
	</g>
</g>
<g id="Layer_2">
	<g>
		<path fill="#FFFFFF" d="M36.956,278.969V171.596h55.298c10.254,0,18.091,0.879,23.511,2.637s9.789,5.018,13.11,9.777
			c3.32,4.762,4.98,10.56,4.98,17.396c0,5.958-1.271,11.097-3.811,15.417c-2.541,4.322-6.035,7.826-10.479,10.511
			c-2.834,1.71-6.718,3.125-11.652,4.248c3.951,1.32,6.831,2.641,8.637,3.959c1.22,0.88,2.988,2.761,5.307,5.645
			c2.317,2.884,3.867,5.107,4.647,6.671l16.067,31.113h-37.489l-17.735-32.812c-2.246-4.248-4.248-7.006-6.006-8.276
			c-2.393-1.659-5.103-2.49-8.13-2.49h-2.93v43.579H36.956z M70.281,215.102h13.989c1.513,0,4.442-0.487,8.789-1.465
			c2.197-0.439,3.992-1.562,5.383-3.369c1.393-1.806,2.088-3.882,2.088-6.226c0-3.467-1.099-6.127-3.296-7.983
			c-2.197-1.855-6.324-2.783-12.378-2.783H70.281V215.102z"/>
		<path fill="#FFFFFF" d="M221.966,235.024l29.078,8.789c-1.953,8.155-5.029,14.967-9.229,20.435
			c-4.201,5.469-9.412,9.595-15.639,12.378c-6.225,2.783-14.146,4.175-23.766,4.175c-11.672,0-21.205-1.696-28.602-5.087
			c-7.398-3.391-13.781-9.355-19.152-17.896c-5.373-8.539-8.057-19.47-8.057-32.792c0-17.761,4.723-31.411,14.172-40.951
			c9.447-9.539,22.814-14.31,40.1-14.31c13.525,0,24.158,2.735,31.896,8.203c7.74,5.47,13.488,13.868,17.25,25.195l-29.297,6.519
			c-1.025-3.271-2.1-5.664-3.223-7.178c-1.857-2.538-4.127-4.492-6.812-5.859c-2.686-1.366-5.688-2.051-9.008-2.051
			c-7.52,0-13.283,3.024-17.285,9.071c-3.029,4.487-4.541,11.535-4.541,21.142c0,11.9,1.805,20.058,5.42,24.471
			c3.613,4.414,8.689,6.62,15.234,6.62c6.346,0,11.145-1.782,14.391-5.347C218.145,246.988,220.501,241.811,221.966,235.024z"/>
	</g>
</g>
</svg>
