<?xml version="1.0" encoding="utf-8"?>
<!-- Generator: Adobe Illustrator 18.1.1, SVG Export Plug-In . SVG Version: 6.00 Build 0)  -->
<svg version="1.1" xmlns="http://www.w3.org/2000/svg" xmlns:xlink="http://www.w3.org/1999/xlink" x="0px" y="0px"
	 viewBox="0 0 288 288" enable-background="new 0 0 288 288" xml:space="preserve">
<g id="Layer_1">
	<path fill="#FFFFFF" d="M29.925,102.902c0,30.473,11.877,59.129,33.455,80.689l-18.613,18.613
		C18.219,175.672,3.6,140.401,3.6,102.902S18.202,30.131,44.733,3.635l18.613,18.612C41.785,43.773,29.925,72.429,29.925,102.902z
		 M103.656,62.557L85.043,43.944c-15.734,15.768-24.405,36.711-24.405,58.957c0,22.28,8.672,43.224,24.44,58.957l18.613-18.613
		c-10.798-10.763-16.727-25.091-16.727-40.345C86.962,87.683,92.893,73.355,103.656,62.557z M243.233,3.6L224.62,22.213
		c21.578,21.561,33.455,50.216,33.455,80.689s-11.86,59.129-33.403,80.689l18.613,18.613c26.514-26.531,41.116-61.802,41.116-99.302
		C284.399,65.368,269.78,30.097,243.233,3.6z M144,76.577c-14.534,0-26.325,11.791-26.325,26.325c0,9.735,5.33,18.133,13.162,22.675
		l0,33.674h26.325l0-33.657c7.832-4.559,13.162-12.957,13.162-22.692C170.325,88.368,158.55,76.577,144,76.577z M202.923,43.945
		L184.31,62.557c10.78,10.798,16.727,25.126,16.727,40.345c0,15.254-5.93,29.582-16.693,40.345l18.613,18.613
		c15.734-15.734,24.405-36.677,24.405-58.957S218.69,59.712,202.923,43.945z"/>
</g>
<g id="Layer_2">
	<g>
		<path fill="#FFFFFF" d="M96.66,180h94.681v24.891h-31.766V280.8h-31.148v-75.909H96.66V180z"/>
	</g>
</g>
</svg>
