<?xml version="1.0" encoding="utf-8"?>
<!-- Generator: Adobe Illustrator 18.1.1, SVG Export Plug-In . SVG Version: 6.00 Build 0)  -->
<svg version="1.1" id="Layer_1" xmlns="http://www.w3.org/2000/svg" xmlns:xlink="http://www.w3.org/1999/xlink" x="0px" y="0px"
	 viewBox="0 0 288 288" enable-background="new 0 0 288 288" xml:space="preserve">
<path fill="#FFFFFF" d="M27,101.848c0,31.254,12.181,60.645,34.312,82.758l-19.09,19.09C14.994,176.484,0,140.309,0,101.848
	S14.977,27.211,42.187,0.036l19.09,19.09C39.164,41.203,27,70.594,27,101.848z M102.621,60.469l-19.09-19.09
	C67.394,57.551,58.5,79.031,58.5,101.847c0,22.852,8.895,44.332,25.067,60.469l19.09-19.09
	C91.582,132.187,85.5,117.492,85.5,101.847C85.5,86.239,91.582,71.543,102.621,60.469z M245.777,0l-19.09,19.09
	C248.818,41.204,261,70.594,261,101.848s-12.164,60.645-34.26,82.758l19.09,19.09C273.023,176.485,288,140.309,288,101.848
	C287.999,63.352,273.005,27.176,245.777,0z M144,74.848c-14.906,0-27,12.094-27,27c0,9.984,5.467,18.598,13.5,23.256V288h27V125.121
	c8.033-4.676,13.5-13.289,13.5-23.273C171,86.942,158.923,74.848,144,74.848z M204.433,41.379l-19.09,19.09
	C196.4,71.543,202.5,86.239,202.5,101.848c0,15.645-6.082,30.34-17.121,41.379l19.09,19.09
	C220.605,146.18,229.5,124.7,229.5,101.849S220.605,57.551,204.433,41.379z"/>
</svg>
