<svg xmlns="http://www.w3.org/2000/svg" xml:space="preserve" viewBox="0 0 288 288">
    <path fill="#FFF" d="M29.925 102.902c0 30.473 11.877 59.129 33.455 80.689l-18.613 18.613C18.219 175.672 3.6 140.401 3.6 102.902S18.202 30.131 44.733 3.635l18.613 18.612c-21.561 21.526-33.421 50.182-33.421 80.655m73.731-40.345L85.043 43.944c-15.734 15.768-24.405 36.711-24.405 58.957 0 22.28 8.672 43.224 24.44 58.957l18.613-18.613c-10.798-10.763-16.727-25.091-16.727-40.345-.002-15.217 5.929-29.545 16.692-40.343M243.233 3.6 224.62 22.213c21.578 21.561 33.455 50.216 33.455 80.689s-11.86 59.129-33.403 80.689l18.613 18.613c26.514-26.531 41.116-61.802 41.116-99.302-.002-37.534-14.621-72.805-41.168-99.302M144 76.577c-14.534 0-26.325 11.791-26.325 26.325 0 9.735 5.33 18.133 13.162 22.675v33.674h26.325v-33.657c7.832-4.559 13.162-12.957 13.162-22.692.001-14.534-11.774-26.325-26.324-26.325m58.923-32.632L184.31 62.557c10.78 10.798 16.727 25.126 16.727 40.345 0 15.254-5.93 29.582-16.693 40.345l18.613 18.613c15.734-15.734 24.405-36.677 24.405-58.957s-8.672-43.191-24.439-58.958M96.66 180h94.681v24.891h-31.766V280.8h-31.148v-75.909H96.66z"/>
</svg>
