<?xml version="1.0" encoding="utf-8"?>
<!-- Generator: Adobe Illustrator 18.1.1, SVG Export Plug-In . SVG Version: 6.00 Build 0)  -->
<svg version="1.1" xmlns="http://www.w3.org/2000/svg" xmlns:xlink="http://www.w3.org/1999/xlink" x="0px" y="0px"
	 viewBox="0 0 288 288" enable-background="new 0 0 288 288" xml:space="preserve">
<g id="Layer_1">
	<g>
		<path fill="#FFFFFF" d="M130.837,125.576l0.249,38.177h26.325l-0.249-38.16c7.832-4.559,13.162-12.957,13.162-22.692
			c0-14.534-11.774-26.325-26.325-26.325c-14.534,0-26.325,11.791-26.325,26.325C117.675,112.637,123.005,121.035,130.837,125.576z"
			/>
		<path fill="#FFFFFF" d="M184.344,143.246l18.613,18.613c15.734-15.734,24.405-36.677,24.405-58.957s-8.672-43.19-24.439-58.957
			L184.31,62.557c10.78,10.798,16.727,25.125,16.727,40.345C201.037,118.155,195.107,132.483,184.344,143.246z"/>
		<path fill="#FFFFFF" d="M240.551,163.753h30.055c9.024-18.75,13.794-39.435,13.794-60.851
			c-0.001-37.534-14.62-72.805-41.167-99.302L224.62,22.213c21.578,21.561,33.455,50.216,33.455,80.689
			C258.075,124.772,251.965,145.706,240.551,163.753z"/>
		<path fill="#FFFFFF" d="M85.077,161.858l18.613-18.613c-10.798-10.763-16.727-25.091-16.727-40.345
			c-0.001-15.218,5.93-29.546,16.693-40.344L85.043,43.944c-15.734,15.768-24.405,36.711-24.405,58.957
			C60.637,125.181,69.31,146.125,85.077,161.858z"/>
		<path fill="#FFFFFF" d="M47.475,163.753c-11.431-18.047-17.55-38.981-17.55-60.851c0-30.473,11.86-59.129,33.421-80.655
			L44.733,3.635C18.202,30.131,3.6,65.402,3.6,102.902c0,21.416,4.776,42.102,13.811,60.851H47.475z"/>
	</g>
</g>
<g id="Layer_2">
	<g>
		<path fill="#FFFFFF" d="M46.824,279.138v-97.475h50.201c9.309,0,16.423,0.798,21.344,2.394c4.92,1.596,8.887,4.555,11.902,8.876
			c3.014,4.323,4.521,9.586,4.521,15.792c0,5.409-1.153,10.074-3.459,13.996c-2.307,3.924-5.479,7.105-9.513,9.542
			c-2.573,1.552-6.099,2.837-10.578,3.856c3.587,1.199,6.201,2.397,7.841,3.594c1.107,0.799,2.713,2.506,4.817,5.124
			c2.104,2.618,3.511,4.637,4.219,6.056l14.586,28.245H108.67L92.569,249.35c-2.039-3.856-3.856-6.36-5.452-7.513
			c-2.172-1.506-4.632-2.261-7.38-2.261h-2.66v39.562H46.824z M77.077,221.158h12.7c1.373,0,4.033-0.442,7.979-1.33
			c1.995-0.399,3.624-1.418,4.887-3.059c1.264-1.639,1.895-3.524,1.895-5.652c0-3.147-0.997-5.562-2.992-7.247
			c-1.995-1.684-5.741-2.527-11.237-2.527H77.077V221.158z"/>
		<path fill="#FFFFFF" d="M214.779,239.243l26.398,7.979c-1.773,7.404-4.566,13.587-8.378,18.551
			c-3.814,4.965-8.545,8.71-14.197,11.237c-5.651,2.527-12.842,3.79-21.575,3.79c-10.596,0-19.25-1.54-25.965-4.618
			c-6.716-3.078-12.511-8.493-17.387-16.246c-4.878-7.752-7.314-17.675-7.314-29.769c0-16.124,4.287-28.516,12.866-37.176
			c8.576-8.66,20.711-12.991,36.403-12.991c12.279,0,21.931,2.483,28.956,7.447c7.027,4.966,12.245,12.59,15.66,22.873
			l-26.596,5.918c-0.931-2.969-1.906-5.142-2.926-6.516c-1.686-2.304-3.747-4.078-6.185-5.319c-2.438-1.24-5.163-1.862-8.177-1.862
			c-6.826,0-12.059,2.746-15.692,8.235c-2.75,4.074-4.122,10.472-4.122,19.193c0,10.803,1.638,18.209,4.92,22.215
			c3.28,4.007,7.888,6.01,13.83,6.01c5.761,0,10.117-1.618,13.064-4.854C211.311,250.104,213.449,245.405,214.779,239.243z"/>
	</g>
</g>
</svg>
