<svg xmlns="http://www.w3.org/2000/svg" xml:space="preserve" viewBox="0 0 288 288">
    <g fill="#FFF">
        <path d="m130.837 125.576.249 38.177h26.325l-.249-38.16c7.832-4.559 13.162-12.957 13.162-22.692 0-14.534-11.774-26.325-26.325-26.325-14.534 0-26.325 11.791-26.325 26.325.001 9.736 5.331 18.134 13.163 22.675M184.344 143.246l18.613 18.613c15.734-15.734 24.405-36.677 24.405-58.957s-8.672-43.19-24.439-58.957L184.31 62.557c10.78 10.798 16.727 25.125 16.727 40.345 0 15.253-5.93 29.581-16.693 40.344M240.551 163.753h30.055c9.024-18.75 13.794-39.435 13.794-60.851-.001-37.534-14.62-72.805-41.167-99.302L224.62 22.213c21.578 21.561 33.455 50.216 33.455 80.689 0 21.87-6.11 42.804-17.524 60.851M85.077 161.858l18.613-18.613c-10.798-10.763-16.727-25.091-16.727-40.345-.001-15.218 5.93-29.546 16.693-40.344L85.043 43.944c-15.734 15.768-24.405 36.711-24.405 58.957-.001 22.28 8.672 43.224 24.439 58.957M47.475 163.753c-11.431-18.047-17.55-38.981-17.55-60.851 0-30.473 11.86-59.129 33.421-80.655L44.733 3.635C18.202 30.131 3.6 65.402 3.6 102.902c0 21.416 4.776 42.102 13.811 60.851z"/>
    </g>
    <g fill="#FFF">
        <path d="M46.824 279.138v-97.475h50.201q13.963 0 21.344 2.394 7.38 2.394 11.902 8.876 4.521 6.484 4.521 15.792 0 8.113-3.459 13.996-3.461 5.886-9.513 9.542-3.86 2.328-10.578 3.856 5.38 1.799 7.841 3.594 1.66 1.198 4.817 5.124 3.156 3.927 4.219 6.056l14.586 28.245H108.67L92.569 249.35q-3.058-5.784-5.452-7.513-3.258-2.26-7.38-2.261h-2.66v39.562zm30.253-57.98h12.7q2.06.001 7.979-1.33 2.993-.598 4.887-3.059 1.895-2.46 1.895-5.652 0-4.72-2.992-7.247-2.993-2.526-11.237-2.527H77.077zM214.779 239.243l26.398 7.979q-2.66 11.106-8.378 18.551-5.72 7.447-14.197 11.237t-21.575 3.79q-15.893 0-25.965-4.618-10.074-4.617-17.387-16.246-7.316-11.628-7.314-29.769-.001-24.186 12.866-37.176 12.864-12.99 36.403-12.991 18.419 0 28.956 7.447 10.539 7.449 15.66 22.873l-26.596 5.918q-1.396-4.454-2.926-6.516-2.529-3.457-6.185-5.319-3.657-1.861-8.177-1.862-10.24 0-15.692 8.235-4.124 6.111-4.122 19.193-.002 16.205 4.92 22.215 4.918 6.01 13.83 6.01 8.642 0 13.064-4.854t6.417-14.097"/>
    </g>
</svg>
