<?xml version="1.0" encoding="utf-8"?>
<!-- Generator: Adobe Illustrator 18.1.1, SVG Export Plug-In . SVG Version: 6.00 Build 0)  -->
<svg version="1.1" id="Layer_1" xmlns="http://www.w3.org/2000/svg" xmlns:xlink="http://www.w3.org/1999/xlink" x="0px" y="0px"
	 viewBox="0 0 162 288" enable-background="new 0 0 162 288" xml:space="preserve">
<path id="rect4970" inkscape:connector-curvature="0" fill="#E7E7E7" stroke="#E7E7E7" stroke-width="6" d="M14.742,264.074V40.618
	c0-6.588,5.831-11.93,13.042-11.93H134.26c7.211,0,13.042,5.342,13.042,11.93v223.456c0,6.588-5.831,11.93-13.042,11.93H27.785
	C20.573,276.003,14.742,270.662,14.742,264.074z"/>
<path id="rect4360" inkscape:connector-curvature="0" fill="none" d="M9,268.391V36.255c0-6.855,6.321-12.419,14.155-12.419h115.69
	c7.834,0,14.155,5.609,14.155,12.419v232.136c0,6.855-6.321,12.419-14.155,12.419H23.2C15.365,280.811,9,275.246,9,268.391z"/>
<path id="path4679" inkscape:connector-curvature="0" sodipodi:nodetypes="ccccc" fill="#5B140E" d="M30.9,265.899v-39.866H131.1
	v39.866H30.9z"/>
<g id="g4222" transform="translate(-127.22081,216.20249)">
	
		<path id="path4224" inkscape:connector-curvature="0" fill="#E7E7E7" stroke="#E7E7E7" stroke-width="6" stroke-miterlimit="10" d="
		M244.512-189.383c0,0.979-0.757,1.736-1.736,1.736h-68.995c-0.979,0-1.736-0.757-1.736-1.736v-17.894
		c0-0.979,0.757-1.736,1.736-1.736h68.995c0.979,0,1.736,0.757,1.736,1.736V-189.383L244.512-189.383L244.512-189.383z"/>
</g>
</svg>
