<svg xmlns="http://www.w3.org/2000/svg" xml:space="preserve" id="Layer_1" x="0" y="0" version="1.1" viewBox="0 0 72 72">
    <style>
        .st0{fill:#fff}
    </style>
    <path d="M25.758 41.569c0 5.672 4.592 10.264 10.264 10.264s10.264-4.592 10.264-10.264-4.592-10.264-10.264-10.264a10.26 10.26 0 0 0-10.264 10.264" class="st0"/>
    <path d="m55.477 20.513-.47-4.438c-.228-2.16-1.22-4.188-2.961-5.753s-3.923-2.278-6.091-2.278H25.92c-2.175 0-4.349.749-6.091 2.314-1.741 1.572-2.733 3.563-2.961 5.723l-.47 4.43H9.162c-2.329 0-4.687.97-6.465 2.748A9.3 9.3 0 0 0 0 29.777v24.818c0 2.329.918 4.79 2.696 6.561s4.136 2.799 6.465 2.799h53.706c2.329 0 4.673-1.021 6.451-2.792C71.096 59.385 72 56.931 72 54.602V29.777c0-2.329-.904-4.739-2.682-6.517s-4.122-2.748-6.451-2.748zM36.022 59.062c-9.661 0-17.493-7.832-17.493-17.493s7.832-17.493 17.493-17.493 17.493 7.832 17.493 17.493-7.832 17.493-17.493 17.493m22.996-24.98c-1.918 0-3.475-1.558-3.475-3.475s1.558-3.475 3.475-3.475 3.475 1.558 3.475 3.475a3.477 3.477 0 0 1-3.475 3.475" class="st0"/>
</svg>
