<?xml version="1.0" encoding="utf-8"?>
<!-- Generator: Adobe Illustrator 21.0.0, SVG Export Plug-In . SVG Version: 6.00 Build 0)  -->
<svg version="1.1" id="Layer_1" xmlns="http://www.w3.org/2000/svg" xmlns:xlink="http://www.w3.org/1999/xlink" x="0px" y="0px"
	 viewBox="0 0 72 72" style="enable-background:new 0 0 72 72;" xml:space="preserve">
<style type="text/css">
	.st0{fill:#FFFFFF;}
</style>
<g>
	<path class="st0" d="M25.758,41.569c0,5.672,4.592,10.264,10.264,10.264s10.264-4.592,10.264-10.264s-4.592-10.264-10.264-10.264
		C30.35,31.305,25.758,35.897,25.758,41.569z"/>
	<path class="st0" d="M55.477,20.513l-0.47-4.438c-0.228-2.16-1.22-4.188-2.961-5.753s-3.923-2.278-6.091-2.278H25.92
		c-2.175,0-4.349,0.749-6.091,2.314c-1.741,1.572-2.733,3.563-2.961,5.723l-0.47,4.43H9.162c-2.329,0-4.687,0.97-6.465,2.748
		C0.918,25.038,0,27.448,0,29.777v24.818c0,2.329,0.918,4.79,2.696,6.561s4.136,2.799,6.465,2.799h53.706
		c2.329,0,4.673-1.021,6.451-2.792C71.096,59.385,72,56.931,72,54.602V29.777c0-2.329-0.904-4.739-2.682-6.517
		s-4.122-2.748-6.451-2.748L55.477,20.513L55.477,20.513z M36.022,59.062c-9.661,0-17.493-7.832-17.493-17.493
		s7.832-17.493,17.493-17.493s17.493,7.832,17.493,17.493S45.683,59.062,36.022,59.062z M59.018,34.082
		c-1.918,0-3.475-1.558-3.475-3.475s1.558-3.475,3.475-3.475s3.475,1.558,3.475,3.475C62.493,32.525,60.936,34.082,59.018,34.082z"
		/>
</g>
</svg>
