<?xml version="1.0" encoding="utf-8"?>
<!-- Generator: Adobe Illustrator 22.0.1, SVG Export Plug-In . SVG Version: 6.00 Build 0)  -->
<svg version="1.1" id="Capa_1" xmlns="http://www.w3.org/2000/svg" xmlns:xlink="http://www.w3.org/1999/xlink" x="0px" y="0px"
	 width="72px" height="72px" viewBox="0 0 72 72" style="enable-background:new 0 0 72 72;" xml:space="preserve">
<style type="text/css">
	.st0{fill:#010002;stroke:#000000;stroke-width:4;stroke-miterlimit:10;}
</style>
<g>
	<path class="st0" d="M70.2,33.1c0-8.7-15-15.5-34.2-15.5S1.8,24.4,1.8,33.1c0,0.6,0.5,1.1,1.1,1.1S4,33.7,4,33.1
		c0-7.2,14.7-13.3,32-13.3s32,6.1,32,13.3c0,7.1-14.4,13.2-31.6,13.3l3.9-3.9c0.4-0.4,0.4-1.1,0-1.6c-0.4-0.4-1.1-0.4-1.6,0
		l-6.6,6.6l6.6,6.6c0.2,0.2,0.5,0.3,0.8,0.3c0.3,0,0.6-0.1,0.8-0.3c0.4-0.4,0.4-1.1,0-1.6l-3.9-3.9C55.4,48.5,70.2,41.7,70.2,33.1z"
		/>
</g>
</svg>
