<?xml version="1.0" encoding="utf-8"?>
<!-- Generator: Adobe Illustrator 22.0.1, SVG Export Plug-In . SVG Version: 6.00 Build 0)  -->
<svg version="1.1" id="Capa_1" xmlns="http://www.w3.org/2000/svg" xmlns:xlink="http://www.w3.org/1999/xlink" x="0px" y="0px"
	 width="72px" height="72px" viewBox="0 0 72 72" style="enable-background:new 0 0 72 72;" xml:space="preserve">
<style type="text/css">
	.st0{fill:#010002;stroke:#000000;stroke-width:4;stroke-miterlimit:10;}
</style>
<g>
	<path class="st0" d="M35.63,48.573l-3.947,3.945c-0.43,0.43-0.43,1.132,0,1.56c0.214,0.214,0.496,0.322,0.781,0.322
		c0.282,0,0.565-0.104,0.781-0.322l6.602-6.6l-6.602-6.597c-0.43-0.428-1.13-0.428-1.56,0c-0.43,0.43-0.43,1.132,0,1.56l3.93,3.925
		C18.443,46.276,4.007,40.235,4.007,33.091c0-7.2,14.653-13.285,31.994-13.285s31.994,6.083,31.994,13.285
		c0,0.609,0.494,1.103,1.103,1.103c0.609,0,1.103-0.494,1.103-1.103c0-8.687-15.024-15.491-34.2-15.491S1.8,24.402,1.8,33.091
		C1.8,41.72,16.634,48.481,35.63,48.573z"/>
</g>
</svg>
