<svg xmlns="http://www.w3.org/2000/svg" xml:space="preserve" width="72" height="72">
    <path d="m35.63 48.573-3.947 3.945c-.43.43-.43 1.132 0 1.56a1.1 1.1 0 0 0 .781.322c.282 0 .565-.104.781-.322l6.602-6.6-6.602-6.597a1.11 1.11 0 0 0-1.56 0c-.43.43-.43 1.132 0 1.56l3.93 3.925c-17.172-.09-31.608-6.131-31.608-13.275 0-7.2 14.653-13.285 31.994-13.285s31.994 6.083 31.994 13.285a1.103 1.103 0 0 0 2.206 0c0-8.687-15.024-15.491-34.2-15.491S1.8 24.402 1.8 33.091c0 8.629 14.834 15.39 33.83 15.482z" style="fill:#010002;stroke:#000;stroke-width:4;stroke-miterlimit:10"/>
</svg>
