<svg xml:space="preserve" width="100" height="100" xmlns="http://www.w3.org/2000/svg">
  <path d="M48.056 26.061h-42a6 6 0 0 1 0-12h42a6 6 0 0 1 0 12zM48.01 45.944h-42a6 6 0 0 1 0-12h42a6 6 0 0 1 0 12zM30 66H6a6 6 0 0 1 0-12h24a6 6 0 0 1 0 12z"/>
  <path d="M53.39 60.954V56.27a2.296 2.296 0 0 1 2.302-2.3h10.74l.9-1.794a2.275 2.275 0 0 1 2.053-1.275h10.96a2.3 2.3 0 0 1 2.061 1.275l.901 1.793h10.74a2.296 2.296 0 0 1 2.3 2.301v4.685c0 .633-.517 1.15-1.15 1.15H54.541c-.632 0-1.15-.517-1.15-1.15zm39.813 5.437-1.956 29.288a4.606 4.606 0 0 1-4.593 4.315h-23.57a4.606 4.606 0 0 1-4.592-4.315L56.536 66.39a1.152 1.152 0 0 1 1.15-1.218h34.376c.652 0 1.18.556 1.14 1.218z"/>
</svg>
