<!DOCTYPE svg PUBLIC "-//W3C//DTD SVG 1.1//EN" "http://www.w3.org/Graphics/SVG/1.1/DTD/svg11.dtd">
<!-- Uploaded to: SVG Repo, www.svgrepo.com, Transformed by: SVG Repo Mixer Tools -->
<svg width="800px" height="800px" viewBox="0 0 18.096 18.096" xmlns="http://www.w3.org/2000/svg" fill="#000000">
<g id="SVGRepo_bgCarrier" stroke-width="0"/>
<g id="SVGRepo_tracerCarrier" stroke-linecap="round" stroke-linejoin="round"/>
<g id="SVGRepo_iconCarrier"> <g id="boat-right" transform="translate(-2.932 -2.933)"> <path id="secondary" fill="#ef2929" d="M9.85,18.39a5.49,5.49,0,0,1-5,1.5h0a1,1,0,0,1-.78-.78h0a5.49,5.49,0,0,1,1.5-5l8.54-8.54a5.49,5.49,0,0,1,5-1.5h0a1,1,0,0,1,.78.78h0a5.49,5.49,0,0,1-1.5,5Z"/> <path id="primary" d="M9.85,18.39a5.49,5.49,0,0,1-5,1.5h0a1,1,0,0,1-.78-.78h0a5.49,5.49,0,0,1,1.5-5l8.54-8.54a5.49,5.49,0,0,1,5-1.5h0a1,1,0,0,1,.78.78h0a5.49,5.49,0,0,1-1.5,5ZM6.25,6.25l11.5,11.5M18.59,20l-.71-.71a1,1,0,0,1,0-1.41h0a1,1,0,0,1,1.41,0l.71.71ZM5.41,4l.71.71a1,1,0,0,1,0,1.41h0a1,1,0,0,1-1.41,0L4,5.41Z" fill="none" stroke="#000000" stroke-linecap="round" stroke-linejoin="round" stroke-width="2"/> </g> </g>
</svg>