<svg xmlns="http://www.w3.org/2000/svg" viewBox="194 896 72 72">
  <!-- Paper plane (unchanged) -->
  <path d="M194 943.5c-.1-.9.2-1.6 1-2l67.5-45c.4-.3.8-.4 1.3-.4s.9.1 1.3.4c.7.5 1.1 1.2 1 2.2l-11.2 67.5c-.2.7-.6 1.2-1.1 1.5-.4.2-.7.3-1.1.3-.3 0-.6 0-.8-.1l-21.8-8.7-4.6 7.7c-.5.7-1.1 1.1-2 1.1s-1.5-.4-2-1.1l-8.3-14.5-17.6-7c-1-.4-1.5-1.1-1.6-1.9m7-.8 13.6 5.5c.1.1.2.2.4.3l.2.1 38-40.6zm15.9 7.4 6.3 11 36.3-56.6zm13.2 4.5c.6.1 1 .2 1.4.3l19.1 7.7 9-53.8z"
        style="fill:black"/>

  <!-- Gear enlarged and inset slightly -->
  <g transform="translate(198,900) scale(0.48)">
    <path d="M0 24c.4 1.3.9 2.5 1.6 3.7l-1.9 2.4c-.6.8-.5 1.9.1 2.6l3.3 3.3c.7.7 1.8.8 2.6.1l2.4-1.9c1.2.7 2.5 1.3 3.9 1.6l.4 3.1c.1 1 1 1.7 1.9 1.7h4.6c1 0 1.8-.7 1.9-1.7l.3-2.9c1.5-.4 2.8-.9 4.1-1.7l2.3 1.8c.8.6 1.9.5 2.6-.1l3.3-3.3c.7-.7.8-1.8.1-2.6l-1.8-2.3c.7-1.3 1.3-2.6 1.7-4.1l2.7-.3c1-.1 1.7-1 1.7-1.9v-4.6c0-1-.7-1.8-1.7-1.9l-2.7-.3c-.4-1.4-.9-2.8-1.6-4l1.7-2.1c.6-.8.5-1.9-.1-2.6l-3.3-3.3c-.7-.7-1.8-.8-2.6-.1l-2 1.6q-1.95-1.2-4.2-1.8l-.3-2.6c-.1-1-1-1.7-1.9-1.7h-4.6c-1 0-1.8.7-1.9 1.7l-.3 2.6c-1.5.4-3 1-4.3 1.8l-2.1-1.7c-.8-.6-1.9-.5-2.6.1l-3.3 3.3c-.7.7-.8 1.8-.1 2.6l1.8 2.2c-.7 1.3-1.3 2.6-1.6 4.1l-2.8.3c-1 .1-1.7 1-1.7 1.9v4.6c0 1 .7 1.8 1.7 1.9zm16.7-12.5c4.2 0 7.6 3.4 7.6 7.6s-3.4 7.6-7.6 7.6-7.6-3.4-7.6-7.6 3.4-7.6 7.6-7.6"
          style="fill:black"/>
  </g>
</svg>