<svg xmlns="http://www.w3.org/2000/svg" xml:space="preserve" viewBox="160 862 72 72">
    <path d="M170.781 905.108a26.6 26.6 0 0 0 2.381 5.653l-2.873 3.624a2.975 2.975 0 0 0 .223 3.941l4.949 4.949a2.963 2.963 0 0 0 3.941.223l3.601-2.85a26.2 26.2 0 0 0 5.876 2.486l.54 4.633a2.967 2.967 0 0 0 2.944 2.627h7.002a2.967 2.967 0 0 0 2.944-2.627l.516-4.469a26.5 26.5 0 0 0 6.298-2.545l3.483 2.756a2.975 2.975 0 0 0 3.941-.223l4.949-4.949a2.963 2.963 0 0 0 .223-3.941l-2.709-3.436a25.8 25.8 0 0 0 2.592-6.193l4.175-.481a2.967 2.967 0 0 0 2.627-2.944v-7.002a2.967 2.967 0 0 0-2.627-2.944l-4.117-.481a26 26 0 0 0-2.486-6.122l2.533-3.202a2.975 2.975 0 0 0-.223-3.941l-4.938-4.938a2.963 2.963 0 0 0-3.941-.223l-3.108 2.463a26 26 0 0 0-6.439-2.698l-.469-4.023a2.967 2.967 0 0 0-2.944-2.627h-7.002a2.967 2.967 0 0 0-2.944 2.627l-.469 4.023a26 26 0 0 0-6.603 2.791l-3.225-2.557a2.975 2.975 0 0 0-3.941.223l-4.949 4.949a2.963 2.963 0 0 0-.223 3.941l2.698 3.413a25.5 25.5 0 0 0-2.44 6.181l-4.316.493a2.967 2.967 0 0 0-2.627 2.944v7.002a2.967 2.967 0 0 0 2.627 2.944zm25.369-18.942c6.38 0 11.576 5.196 11.576 11.576s-5.196 11.576-11.576 11.576-11.576-5.196-11.576-11.576 5.196-11.576 11.576-11.576"/>
</svg>
