<svg xmlns="http://www.w3.org/2000/svg" viewBox="0 0 20 20">
    <!-- drone scaled to 68%, left-anchored, vertically centred -->
    <g transform="scale(0.68) translate(0.5 4.5)">
        <path d="M12 4h4.27a2 2 0 1 1 0 2h-2.14a9 9 0 0 1 4.84 7.25 2 2 0 1 1-2 .04 7 7 0 0 0-4.97-6V8H8v-.71a7 7 0 0 0-4.96 6 2 2 0 1 1-2-.04A9 9 0 0 1 5.86 6H3.73a2 2 0 1 1 0-2H8V3h4z"/>
    </g>
    <!-- dashed geofence wall, right-anchored, 3 dashes with small gaps -->
    <path d="M17 2h2.5v4.7h-2.5ZM17 7.7h2.5v4.7h-2.5ZM17 13.4h2.5v4.6h-2.5Z"/>
</svg>
