<svg xmlns="http://www.w3.org/2000/svg" id="Capa_2" data-name="Capa 2" viewBox="0 0 159 120.12">
    <defs>
        <style>
            .cls-1,.cls-2{fill:#fff}.cls-2{fill-rule:evenodd}
        </style>
    </defs>
    <g id="Capa_5" data-name="Capa 5">
        <path d="M79.5 51.32c-2.69 0-4.93-1.94-5.39-4.5H61.69v8.43h8.33l6.03 13.67h6.91l6.03-13.67h8.43v-8.43H84.9c-.47 2.56-2.7 4.5-5.39 4.5ZM102.45 41.56l-10.03-6.71-.02-.03H66.75l-.02.03-10.03 6.71v2.91h17.49c.61-2.37 2.75-4.13 5.31-4.13s4.71 1.76 5.31 4.13h17.64z" class="cls-1"/>
        <path d="m27.66 85.64 27.2-16.66s.04-.09 0-.12L27.66 52.2s-.1 0-.1.06v9.81s-.03.07-.07.07H.07s-.07.03-.07.07v13.43s.03.07.07.07h27.42s.07.03.07.07v9.81c0 .05.06.09.1.06Z" class="cls-2"/>
        <path d="M64.19 114.66c-.47-.53-.76-1.2-.84-1.9-.16-1.32-.04-2.66.34-3.95l.1-.33c.07-.23 0-.48-.16-.65l-1.17-1.18c-.62-.62-1.05-1.4-1.26-2.25s-.19-1.74.06-2.57l.49-1.62c.07-.23 0-.48-.16-.65l-1.2-1.21c-.6-.61-1.03-1.37-1.24-2.2s-.18-1.7.06-2.52l.53-1.76c.07-.23 0-.48-.16-.65l-.63-.63a8.1 8.1 0 0 1-2.12-3.78c-.12-.49.05-1.01.44-1.33l15.77-12.89L68 61.89H56.64l-2.71 2.9 2.49 1.53c.91.55 1.48 1.56 1.48 2.62s-.57 2.07-1.47 2.62l-15.65 9.58 18.13 38.19c.23.49.73.81 1.28.81h4.92l.06-.17.91-3.02c.07-.23 0-.48-.16-.65l-1.72-1.61Z" class="cls-1"/>
        <path d="m131.34 85.64-27.2-16.66s-.04-.09 0-.12l27.2-16.66s.1 0 .1.06v9.81s.03.07.07.07h27.42s.07.03.07.07v13.43s-.03.07-.07.07h-27.42s-.07.03-.07.07v9.81c0 .05-.06.09-.1.06Z" class="cls-2"/>
        <path d="M102.59 71.54c-.91-.55-1.48-1.56-1.48-2.62s.57-2.07 1.47-2.62l2.5-1.53-2.71-2.9H91.01l-5.04 10.7 15.77 12.89c.39.32.56.84.44 1.33a8.13 8.13 0 0 1-2.12 3.78l-.63.63a.65.65 0 0 0-.16.65l.53 1.76c.25.82.27 1.69.06 2.52s-.63 1.59-1.24 2.2l-1.2 1.21a.65.65 0 0 0-.16.65l.49 1.62a4.87 4.87 0 0 1-1.2 4.82l-1.17 1.18a.65.65 0 0 0-.16.65l.1.33c.39 1.28.5 2.63.34 3.95-.08.7-.38 1.37-.84 1.9l-1.72 1.61a.65.65 0 0 0-.16.65l.91 3.02.06.17h4.92c.55 0 1.04-.31 1.28-.81l18.13-38.19-15.64-9.58ZM66.75 0v32.48h25.66V0zm18.5 29.28c0 .57-.47 1.04-1.04 1.04h-9.27c-.57 0-1.04-.47-1.04-1.04V3.2c0-.57.47-1.04 1.04-1.04h9.27c.57 0 1.04.47 1.04 1.04v26.07Z" class="cls-1"/>
    </g>
</svg>
