<svg xmlns="http://www.w3.org/2000/svg" id="Capa_2" data-name="Capa 2" viewBox="0 0 159.34 120.37">
    <defs>
        <style>
            .cls-1,.cls-2{fill:#fff}.cls-2{fill-rule:evenodd}
        </style>
    </defs>
    <g id="Capa_5" data-name="Capa 5">
        <path d="M79.67 51.43c-2.7 0-4.94-1.94-5.41-4.51H61.81v8.44h8.35l6.04 13.7h6.93l6.04-13.7h8.45v-8.44H85.07c-.47 2.56-2.71 4.51-5.41 4.51ZM102.67 41.65l-10.05-6.72-.02-.03H66.89l-.02.03-10.05 6.72v2.92h17.53c.61-2.38 2.76-4.14 5.32-4.14s4.72 1.76 5.32 4.14h17.68z" class="cls-1"/>
        <path d="M27.29 52.32.03 69.01s-.04.09 0 .12l27.26 16.69s.1 0 .1-.06v-9.83s.03-.07.07-.07h27.47s.07-.03.07-.07V62.34s-.03-.07-.07-.07H27.46s-.07-.03-.07-.07v-9.83c0-.05-.06-.09-.1-.06Z" class="cls-2"/>
        <path d="M64.33 114.91c-.47-.54-.76-1.2-.85-1.91a9.6 9.6 0 0 1 .35-3.95l.1-.33c.07-.23 0-.48-.16-.65l-1.17-1.18a4.9 4.9 0 0 1-1.27-2.25c-.21-.85-.19-1.74.06-2.58l.49-1.62c.07-.23 0-.48-.16-.65l-1.2-1.22c-.6-.61-1.03-1.37-1.24-2.21-.21-.83-.18-1.71.06-2.53l.53-1.77c.07-.23 0-.48-.16-.65l-.63-.64a8.23 8.23 0 0 1-2.13-3.79c-.12-.49.05-1.01.44-1.33l15.8-12.92-5.06-10.72H57.96c.01.11.03.22.03.34V75.8c0 1.69-1.38 3.07-3.07 3.07H40.98l-.86.92 18.89 39.78c.23.49.73.81 1.28.81h4.93l.06-.17.91-3.02c.07-.23 0-.48-.16-.65l-1.72-1.61Z" class="cls-1"/>
        <path d="m132.05 52.32 27.26 16.69s.04.09 0 .12l-27.26 16.69s-.1 0-.1-.06v-9.83s-.03-.07-.07-.07h-27.47s-.07-.03-.07-.07V62.34s.03-.07.07-.07h27.47s.07-.03.07-.07v-9.83c0-.05.06-.09.1-.06Z" class="cls-2"/>
        <path d="M104.4 78.86c-1.69 0-3.07-1.38-3.07-3.07V62.34c0-.12.02-.23.03-.34H91.19l-5.06 10.72 15.8 12.92c.39.32.56.84.44 1.33a8.15 8.15 0 0 1-2.13 3.79l-.63.64a.65.65 0 0 0-.16.65l.53 1.77c.25.82.27 1.69.06 2.53-.21.83-.64 1.6-1.24 2.21l-1.2 1.22a.65.65 0 0 0-.16.65l.49 1.62c.25.84.27 1.73.06 2.58s-.65 1.63-1.27 2.25l-1.17 1.18a.65.65 0 0 0-.16.65l.1.33c.39 1.28.5 2.63.35 3.95-.08.71-.38 1.37-.85 1.91l-1.72 1.61a.65.65 0 0 0-.16.65l.91 3.02.06.17h4.93c.55 0 1.05-.32 1.28-.81l18.89-39.78-.86-.92h-13.94ZM66.89 0v32.55H92.6V0zm18.54 29.34c0 .58-.47 1.04-1.04 1.04H75.1c-.58 0-1.04-.47-1.04-1.04V3.21c0-.58.47-1.04 1.04-1.04h9.29c.58 0 1.04.47 1.04 1.04z" class="cls-1"/>
    </g>
</svg>
