<?xml version="1.0" encoding="UTF-8"?>
<svg id="Capa_2" data-name="Capa 2" xmlns="http://www.w3.org/2000/svg" viewBox="0 0 79.06 85.47">
  <defs>
    <style>
      .cls-1 {
        fill: #fff;
      }
    </style>
  </defs>
  <g id="Capa_5" data-name="Capa 5">
    <g>
      <g>
        <path class="cls-1" d="m39.53,16.53c-2.7,0-4.94-1.94-5.41-4.51h-12.45v8.44h8.35l6.04,13.7h6.93l6.04-13.7h8.45v-8.44h-12.55c-.47,2.56-2.71,4.51-5.41,4.51Z"/>
        <path class="cls-1" d="m62.53,6.75L52.47.03l-.02-.03h-25.71l-.02.03-10.05,6.72v2.92h17.53c.61-2.38,2.76-4.14,5.32-4.14s4.72,1.76,5.32,4.14h17.68v-2.92Z"/>
      </g>
      <path class="cls-1" d="m25.16,85.3l.91-3.02c.07-.23,0-.48-.16-.65l-1.72-1.61h0c-.47-.54-.76-1.2-.85-1.91-.16-1.32-.04-2.67.35-3.95l.1-.33c.07-.23,0-.48-.16-.65l-1.17-1.18c-.62-.62-1.05-1.4-1.27-2.25h0c-.21-.85-.19-1.74.06-2.58l.49-1.62c.07-.23,0-.48-.16-.65l-1.2-1.22c-.61-.61-1.03-1.37-1.24-2.21h0c-.21-.83-.18-1.71.06-2.53l.53-1.77c.07-.23,0-.48-.16-.65l-.63-.63c-1.04-1.05-1.77-2.36-2.13-3.79h0c-.12-.49.05-1.01.44-1.33l15.8-12.92-5.06-10.72h-11.39L0,44.88l18.89,39.78c.23.49.73.81,1.28.81h4.93l.06-.17Z"/>
      <path class="cls-1" d="m53.9,85.3l-.91-3.02c-.07-.23,0-.48.16-.65l1.72-1.61h0c.47-.54.76-1.2.85-1.91.16-1.32.04-2.67-.35-3.95l-.1-.33c-.07-.23,0-.48.16-.65l1.17-1.18c.62-.62,1.05-1.4,1.27-2.25h0c.21-.85.19-1.74-.06-2.58l-.49-1.62c-.07-.23,0-.48.16-.65l1.2-1.22c.61-.61,1.03-1.37,1.24-2.21h0c.21-.83.18-1.71-.06-2.53l-.53-1.77c-.07-.23,0-.48.16-.65l.63-.63c1.04-1.05,1.77-2.36,2.13-3.79h0c.12-.49-.05-1.01-.44-1.33l-15.8-12.92,5.06-10.72h11.39s16.61,17.78,16.61,17.78l-18.89,39.78c-.23.49-.73.81-1.28.81h-4.93s-.06-.17-.06-.17Z"/>
    </g>
  </g>
</svg>