<svg xmlns="http://www.w3.org/2000/svg" id="Capa_2" data-name="Capa 2" viewBox="0 0 79.06 85.47">
    <defs>
        <style>
            .cls-1{fill:#fff}
        </style>
    </defs>
    <g id="Capa_5" data-name="Capa 5">
        <path d="M39.53 16.53c-2.7 0-4.94-1.94-5.41-4.51H21.67v8.44h8.35l6.04 13.7h6.93l6.04-13.7h8.45v-8.44H44.93c-.47 2.56-2.71 4.51-5.41 4.51ZM62.53 6.75 52.47.03 52.45 0H26.74l-.02.03-10.05 6.72v2.92H34.2c.61-2.38 2.76-4.14 5.32-4.14s4.72 1.76 5.32 4.14h17.68V6.75ZM25.16 85.3l.91-3.02c.07-.23 0-.48-.16-.65l-1.72-1.61c-.47-.54-.76-1.2-.85-1.91a9.6 9.6 0 0 1 .35-3.95l.1-.33c.07-.23 0-.48-.16-.65L22.46 72a4.9 4.9 0 0 1-1.27-2.25c-.21-.85-.19-1.74.06-2.58l.49-1.62c.07-.23 0-.48-.16-.65l-1.2-1.22a4.7 4.7 0 0 1-1.24-2.21c-.21-.83-.18-1.71.06-2.53l.53-1.77c.07-.23 0-.48-.16-.65l-.63-.63a8.23 8.23 0 0 1-2.13-3.79c-.12-.49.05-1.01.44-1.33l15.8-12.92-5.06-10.72H16.6L0 44.88l18.89 39.78c.23.49.73.81 1.28.81h4.93zM53.9 85.3l-.91-3.02c-.07-.23 0-.48.16-.65l1.72-1.61c.47-.54.76-1.2.85-1.91a9.6 9.6 0 0 0-.35-3.95l-.1-.33c-.07-.23 0-.48.16-.65L56.6 72a4.9 4.9 0 0 0 1.27-2.25c.21-.85.19-1.74-.06-2.58l-.49-1.62c-.07-.23 0-.48.16-.65l1.2-1.22c.61-.61 1.03-1.37 1.24-2.21.21-.83.18-1.71-.06-2.53l-.53-1.77c-.07-.23 0-.48.16-.65l.63-.63a8.23 8.23 0 0 0 2.13-3.79c.12-.49-.05-1.01-.44-1.33l-15.8-12.92 5.06-10.72h11.39l16.61 17.78-18.89 39.78c-.23.49-.73.81-1.28.81h-4.93l-.06-.17Z" class="cls-1"/>
    </g>
</svg>
