<?xml version="1.0" encoding="UTF-8"?>
<svg id="Capa_2" data-name="Capa 2" xmlns="http://www.w3.org/2000/svg" viewBox="0 0 159.34 120.37">
  <defs>
    <style>
      .cls-1, .cls-2 {
        fill: #fff;
      }

      .cls-2 {
        fill-rule: evenodd;
      }
    </style>
  </defs>
  <g id="Capa_5" data-name="Capa 5">
    <g>
      <g>
        <path class="cls-1" d="m79.67,51.43c-2.7,0-4.94-1.94-5.41-4.51h-12.45v8.44h8.35l6.04,13.7h6.93l6.04-13.7h8.45v-8.44h-12.55c-.47,2.56-2.71,4.51-5.41,4.51Z"/>
        <path class="cls-1" d="m102.67,41.65l-10.05-6.72-.02-.03h-25.71l-.02.03-10.05,6.72v2.92h17.53c.61-2.38,2.76-4.14,5.32-4.14s4.72,1.76,5.32,4.14h17.68v-2.92Z"/>
      </g>
      <path class="cls-2" d="m27.29,52.32L.03,69.01s-.04.09,0,.12l27.26,16.69s.1,0,.1-.06v-9.83s.03-.07.07-.07h27.47s.07-.03.07-.07v-13.45s-.03-.07-.07-.07h-27.47s-.07-.03-.07-.07v-9.83c0-.05-.06-.09-.1-.06Z"/>
      <path class="cls-1" d="m64.33,114.91c-.47-.54-.76-1.2-.85-1.91-.16-1.32-.04-2.67.35-3.95l.1-.33c.07-.23,0-.48-.16-.65l-1.17-1.18c-.62-.62-1.05-1.4-1.27-2.25h0c-.21-.85-.19-1.74.06-2.58l.49-1.62c.07-.23,0-.48-.16-.65l-1.2-1.22c-.6-.61-1.03-1.37-1.24-2.21-.21-.83-.18-1.71.06-2.53l.53-1.77c.07-.23,0-.48-.16-.65l-.63-.64c-1.04-1.05-1.77-2.36-2.13-3.79-.12-.49.05-1.01.44-1.33l15.8-12.92-5.06-10.72h-10.17c.01.11.03.22.03.34v13.45c0,1.69-1.38,3.07-3.07,3.07h-13.94l-.86.92,18.89,39.78c.23.49.73.81,1.28.81h4.93l.06-.17.91-3.02c.07-.23,0-.48-.16-.65l-1.72-1.61Z"/>
      <path class="cls-2" d="m132.05,52.32l27.26,16.69s.04.09,0,.12l-27.26,16.69s-.1,0-.1-.06v-9.83s-.03-.07-.07-.07h-27.47s-.07-.03-.07-.07v-13.45s.03-.07.07-.07h27.47s.07-.03.07-.07v-9.83c0-.05.06-.09.1-.06Z"/>
      <path class="cls-1" d="m104.4,78.86c-1.69,0-3.07-1.38-3.07-3.07v-13.45c0-.12.02-.23.03-.34h-10.17l-5.06,10.72,15.8,12.92c.39.32.56.84.44,1.33-.35,1.43-1.09,2.74-2.13,3.79l-.63.64c-.17.17-.23.42-.16.65l.53,1.77c.25.82.27,1.69.06,2.53-.21.83-.64,1.6-1.24,2.21l-1.2,1.22c-.17.17-.23.42-.16.65l.49,1.62c.25.84.27,1.73.06,2.58h0c-.21.85-.65,1.63-1.27,2.25l-1.17,1.18c-.17.17-.23.42-.16.65l.1.33c.39,1.28.5,2.63.35,3.95-.08.71-.38,1.37-.85,1.91l-1.72,1.61c-.17.17-.23.42-.16.65l.91,3.02.06.17h4.93c.55,0,1.05-.32,1.28-.81l18.89-39.78-.86-.92h-13.94Z"/>
      <path class="cls-1" d="m66.89,0v32.55h25.71V0h-25.71Zm18.54,29.34c0,.58-.47,1.04-1.04,1.04h-9.29c-.58,0-1.04-.47-1.04-1.04V3.21c0-.58.47-1.04,1.04-1.04h9.29c.58,0,1.04.47,1.04,1.04v26.13Z"/>
    </g>
  </g>
</svg>