<svg xmlns="http://www.w3.org/2000/svg" xml:space="preserve" viewBox="0 0 72 72">
    <path d="m45.137 36.644 22.678-3.449-.742-4.349-25.259 3.819c-.812-.816-1.623-1.632-2.514-2.349-1.188-.956-2.357-1.734-3.427-2.431L32.092 2.983l-4.349.742 3.292 22.062c-3.649-1.142-6.706-.992-8.22.89-1.594 1.98-.968 5.257 1.127 8.737L1.8 38.805l.742 4.349 24.544-3.742c.911.896 1.821 1.792 2.91 2.668 1.287 1.036 2.654 1.973 3.903 2.651l3.623 24.286 4.349-.742-3.234-21.526c1.408.48 2.777.603 3.948.567l18.367 11.842-1.418 5.109 1.98 1.594 1.578-5.307 5.589 3.845 1.115-1.386-5.032-4.538 5.434-3.406-1.98-1.594-5.274 3.208-15.54-14.951c-.431-1.49-1.16-3.219-2.267-5.088" style="fill:#231f20;stroke:#231f20;stroke-width:1.5;stroke-linecap:round;stroke-linejoin:round;stroke-miterlimit:10"/>
</svg>
