<?xml version="1.0" encoding="UTF-8"?>
<svg version="1.1" xmlns="http://www.w3.org/2000/svg" width="128" height="128">
<path d="M0 0 C42.24 0 84.48 0 128 0 C128 42.24 128 84.48 128 128 C85.76 128 43.52 128 0 128 C0 85.76 0 43.52 0 0 Z " fill="#022B95" transform="translate(0,0)"/>
<path d="M0 0 C3.64520798 -0.17631541 7.28930228 -0.28151354 10.9375 -0.375 C11.95908203 -0.42527344 12.98066406 -0.47554687 14.03320312 -0.52734375 C23.37640082 -0.70644658 28.0099086 2.51753993 34.85546875 8.4921875 C39.65886238 13.40017765 44.10623804 18.33346837 48 24 C38.79930713 27.00258522 27.42091309 28.17811736 18.4375 23.9375 C16.13671875 22.53515625 16.13671875 22.53515625 14 21 C12.92685547 20.25556641 12.92685547 20.25556641 11.83203125 19.49609375 C6.19659691 15.10827902 2.75406438 9.55133497 0 3 C0 2.01 0 1.02 0 0 Z " fill="#052D96" transform="translate(36,60)"/>
<path d="M0 0 C1 3 1 3 -0.125 5.66796875 C-1.053125 7.41013672 -1.053125 7.41013672 -2 9.1875 C-6.59447265 18.00368619 -10.79757718 26.99273942 -15 36 C-15.69005243 37.47683082 -16.3801557 38.95363788 -17.0703125 40.43041992 C-18.71564877 43.95263358 -20.35853532 47.47598051 -22 51 C-25.76891804 49.23716742 -28.34016475 46.98981647 -31.375 44.125 C-35.0809322 40.62785271 -38.71522932 37.71747993 -43 35 C-38.88727178 30.65156206 -34.37581551 27.06616713 -29.625 23.4375 C-28.01886108 22.20008813 -26.41340387 20.96179097 -24.80859375 19.72265625 C-24.00534668 19.10277832 -23.20209961 18.48290039 -22.37451172 17.84423828 C-18.78431264 15.05579865 -15.2324129 12.22067056 -11.6875 9.375 C-10.78281982 8.6488147 -10.78281982 8.6488147 -9.85986328 7.90795898 C-8.74918402 7.01554441 -7.63880902 6.12275096 -6.52880859 5.22949219 C-4.35595828 3.48205141 -2.17812173 1.74086277 0 0 Z " fill="#F7F8FB" transform="translate(109,16)"/>
<path d="M0 0 C0.99 0.495 0.99 0.495 2 1 C-15.7455615 15.53359209 -15.7455615 15.53359209 -22.30053711 20.38012695 C-25.00296636 22.38810479 -27.42698599 24.42520935 -29.81640625 26.8046875 C-39.20945391 35.91454368 -49.35864526 35.19892619 -61.90332031 35.015625 C-66.47087211 34.99257838 -71.00646385 35.26483216 -75.5625 35.5625 C-77.02209065 35.64790404 -78.48172144 35.73262705 -79.94140625 35.81640625 C-80.95074219 35.87699219 -81.96007812 35.93757813 -83 36 C-79.26028064 32.76571542 -74.98788344 31.15152802 -70.46875 29.296875 C-69.6165538 28.94174332 -68.7643576 28.58661163 -67.88633728 28.22071838 C-65.09316486 27.05825029 -62.29672462 25.90389296 -59.5 24.75 C-57.57020798 23.94991113 -55.6406035 23.14936979 -53.71118164 22.34838867 C-50.75179039 21.120057 -47.79216676 19.89231103 -44.83155823 18.66691589 C-38.28020938 15.95401027 -31.74353752 13.20833432 -25.21484375 10.44140625 C-22.7432472 9.39748752 -20.27135071 8.35428301 -17.79931641 7.31140137 C-16.2264749 6.64618729 -14.65469123 5.9784664 -13.08398438 5.30822754 C-10.91176601 4.38199715 -8.73575717 3.465314 -6.55859375 2.55078125 C-5.91792465 2.27464493 -5.27725555 1.99850861 -4.61717224 1.71400452 C-3.10166202 1.08285478 -1.55279934 0.53285591 0 0 Z " fill="#F2F4F9" transform="translate(105,16)"/>
<path d="M0 0 C0.99 0.495 0.99 0.495 2 1 C4.89727254 9.69181761 3.66427807 20.44634594 0.140625 28.734375 C-1.35040325 31.69600645 -2.98996268 34.36182602 -5 37 C-5.53625 37.825 -6.0725 38.65 -6.625 39.5 C-14.3203494 47.60036779 -24.52834947 51.09795817 -35.4375 51.4375 C-47.38935765 51.15094197 -55.31775539 46.44880375 -63.7890625 38.2734375 C-68.08129618 33.64289969 -71 28.47831312 -71 22 C-81.23 22 -91.46 22 -102 22 C-102 21.67 -102 21.34 -102 21 C-86.7028827 19.83815451 -71.40768465 18.79668237 -56.0625 18.625 C-54.41447388 18.58632813 -54.41447388 18.58632813 -52.7331543 18.546875 C-43.01117178 18.52265142 -38.04601154 20.85498557 -31.0625 27.546875 C-29.3646145 29.2710843 -27.67727618 31.00573583 -26 32.75 C-25.12988281 33.63816406 -24.25976562 34.52632812 -23.36328125 35.44140625 C-21.23276013 37.61875201 -19.11219596 39.8048978 -17 42 C-8.66348192 37.10935598 -4.14118643 30.40233243 -1.45629883 21.12036133 C-0.99658233 18.98411855 -0.90021666 17.14149491 -0.9375 14.9609375 C-0.94910156 13.84332031 -0.94910156 13.84332031 -0.9609375 12.703125 C-0.98027344 11.55070312 -0.98027344 11.55070312 -1 10.375 C-1.1346463 2.2692926 -1.1346463 2.2692926 0 0 Z M-69 22 C-67.5674941 29.86568524 -63.35204174 36.81614362 -56.9453125 41.68359375 C-56.30335937 42.11800781 -55.66140625 42.55242187 -55 43 C-54.31679688 43.48597656 -53.63359375 43.97195312 -52.9296875 44.47265625 C-45.0798599 49.24907677 -34.8014873 49.55924056 -25.92333984 47.52392578 C-24.27064742 47.05499144 -22.6331661 46.53297295 -21 46 C-24.58784997 40.81755005 -28.52621148 36.2328378 -32.9375 31.75 C-33.42702148 31.24307617 -33.91654297 30.73615234 -34.42089844 30.21386719 C-39.72686712 24.91489385 -44.08796285 21.82007944 -51.71484375 21.609375 C-53.78942484 21.63571889 -55.86383163 21.68306595 -57.9375 21.75 C-59.00291016 21.76804687 -60.06832031 21.78609375 -61.16601562 21.8046875 C-63.77828929 21.85154443 -66.38866226 21.91713074 -69 22 Z " fill="#EBEEF6" transform="translate(105,38)"/>
<path d="M0 0 C0 0.33 0 0.66 0 1 C2.64 1.33 5.28 1.66 8 2 C8 2.33 8 2.66 8 3 C3.38 3 -1.24 3 -6 3 C-1.02398738 14.5847057 -1.02398738 14.5847057 8 23 C9.02287109 23.72123047 9.02287109 23.72123047 10.06640625 24.45703125 C19.19899817 30.06638974 30.82753183 28.95132251 41 27 C41.495 28.485 41.495 28.485 42 30 C32.30350622 33.11184011 21.67166419 33.76183992 12.2734375 29.328125 C2.60108104 23.67760748 -4.74547531 16.84841563 -8 6 C-8 5.01 -8 4.02 -8 3 C-18.23 3 -28.46 3 -39 3 C-39 2.67 -39 2.34 -39 2 C-34.73182804 1.71177574 -30.46343888 1.42708123 -26.19482422 1.14550781 C-24.74586801 1.04944798 -23.29697289 0.95246152 -21.84814453 0.85449219 C-19.75308778 0.71299283 -17.65782629 0.57494343 -15.5625 0.4375 C-13.67724609 0.31181641 -13.67724609 0.31181641 -11.75390625 0.18359375 C-7.82385134 -0.00861497 -3.93384807 -0.03049495 0 0 Z " fill="#DAE0EF" transform="translate(42,57)"/>
<path d="M0 0 C2.87247797 0.351732 4.62388046 0.87431105 7.0625 2.375 C7.7225 1.715 8.3825 1.055 9.0625 0.375 C12.1875 0.25 12.1875 0.25 15.0625 0.375 C15.3925 1.695 15.7225 3.015 16.0625 4.375 C14.0825 3.715 12.1025 3.055 10.0625 2.375 C10.0625 3.365 10.0625 4.355 10.0625 5.375 C11.7125 6.035 13.3625 6.695 15.0625 7.375 C14.1875 12.25 14.1875 12.25 13.0625 13.375 C9.03089809 13.63793056 7.50357266 13.66904844 4.0625 11.375 C3.4025 12.035 2.7425 12.695 2.0625 13.375 C-0.9375 13.6875 -0.9375 13.6875 -3.9375 13.375 C-6.26329101 9.88631349 -6.35615457 8.47781481 -5.9375 4.375 C-4.36938571 1.06453651 -3.67018212 0.46853389 0 0 Z " fill="#11379B" transform="translate(59.9375,99.625)"/>
<path d="M0 0 C0.66 0.33 1.32 0.66 2 1 C4.89727254 9.69181761 3.66427807 20.44634594 0.140625 28.734375 C-1.35040325 31.69600645 -2.98996268 34.36182602 -5 37 C-5.66 37.886875 -6.32 38.77375 -7 39.6875 C-8.87497835 41.85544372 -10.5837192 43.46968883 -13 45 C-13.66 45 -14.32 45 -15 45 C-15.495 43.515 -15.495 43.515 -16 42 C-15.49210937 41.63390625 -14.98421875 41.2678125 -14.4609375 40.890625 C-7.40128108 35.33808625 -2.84409494 27.84853893 -1 19 C-0.9337658 17.65511465 -0.91448054 16.30725606 -0.9375 14.9609375 C-0.94523437 14.21585938 -0.95296875 13.47078125 -0.9609375 12.703125 C-0.97382812 11.93484375 -0.98671875 11.1665625 -1 10.375 C-1.1346463 2.2692926 -1.1346463 2.2692926 0 0 Z " fill="#DBE0EF" transform="translate(105,38)"/>
<path d="M0 0 C0.99 0.33 1.98 0.66 3 1 C1.84788751 3.30422498 0.890903 3.94406331 -1.1875 5.4375 C-4.97519511 8.21961233 -8.68674339 11.08805304 -12.375 14 C-18.10944861 18.52009478 -23.86155451 23.01693183 -29.625 27.5 C-30.39505371 28.09941406 -31.16510742 28.69882812 -31.95849609 29.31640625 C-33.05025146 30.16525391 -33.05025146 30.16525391 -34.1640625 31.03125 C-34.80811035 31.53205078 -35.4521582 32.03285156 -36.11572266 32.54882812 C-36.73753418 33.02771484 -37.3593457 33.50660156 -38 34 C-38.61375488 34.55018799 -39.22750977 35.10037598 -39.85986328 35.66723633 C-42.72416061 37.45096883 -44.72157418 37.34232979 -48.078125 37.29296875 C-49.23828125 37.28330078 -50.3984375 37.27363281 -51.59375 37.26367188 C-52.8003125 37.23853516 -54.006875 37.21339844 -55.25 37.1875 C-57.08304688 37.16719727 -57.08304688 37.16719727 -58.953125 37.14648438 C-61.96919498 37.1111398 -64.98437487 37.0617956 -68 37 C-68 36.67 -68 36.34 -68 36 C-67.31599121 36.02731201 -66.63198242 36.05462402 -65.92724609 36.08276367 C-48.41234796 36.81842969 -48.41234796 36.81842969 -33.69702148 28.63769531 C-32.64511295 27.61748546 -31.60498549 26.58498447 -30.57714844 25.54052734 C-27.89677132 22.92238808 -24.91049356 20.70988807 -21.9375 18.4375 C-20.78420081 17.53116238 -19.63185114 16.62361517 -18.48046875 15.71484375 C-16.10336266 13.85177928 -13.7092308 12.01375957 -11.30078125 10.19140625 C-10.70467041 9.73902588 -10.10855957 9.28664551 -9.49438477 8.82055664 C-8.36126783 7.96274985 -7.22518926 7.10883624 -6.08569336 6.25952148 C-3.49207534 4.29465935 -1.82978733 2.744681 0 0 Z " fill="#4C68B3" transform="translate(108,14)"/>
<path d="M0 0 C0 0.33 0 0.66 0 1 C2.64 1.33 5.28 1.66 8 2 C8 2.33 8 2.66 8 3 C3.38 3 -1.24 3 -6 3 C-4.68 6.3 -3.36 9.6 -2 13 C-2.66 13.66 -3.32 14.32 -4 15 C-4.67354499 13.56570999 -5.33859701 12.12742943 -6 10.6875 C-6.37125 9.88699219 -6.7425 9.08648437 -7.125 8.26171875 C-8 6 -8 6 -8 3 C-18.23 3 -28.46 3 -39 3 C-39 2.67 -39 2.34 -39 2 C-34.73182804 1.71177574 -30.46343888 1.42708123 -26.19482422 1.14550781 C-24.74586801 1.04944798 -23.29697289 0.95246152 -21.84814453 0.85449219 C-19.75308778 0.71299283 -17.65782629 0.57494343 -15.5625 0.4375 C-13.67724609 0.31181641 -13.67724609 0.31181641 -11.75390625 0.18359375 C-7.82385134 -0.00861497 -3.93384807 -0.03049495 0 0 Z " fill="#BBC5E1" transform="translate(42,57)"/>
<path d="M0 0 C1.11761719 0.07863281 2.23523438 0.15726563 3.38671875 0.23828125 C6.3125 0.6875 6.3125 0.6875 9.3125 2.6875 C7.44658203 2.61789063 7.44658203 2.61789063 5.54296875 2.546875 C-6.89888995 2.21534231 -16.21417535 2.6210254 -26.125 10.9375 C-30.23869177 14.89472806 -32.54637052 18.42389002 -34.6875 23.6875 C-35.34383292 25.02595034 -36.00797697 26.3606727 -36.6875 27.6875 C-37.3475 27.6875 -38.0075 27.6875 -38.6875 27.6875 C-36.59897795 17.66259416 -29.74463797 10.68381885 -21.6875 4.6875 C-14.64115439 0.65271134 -8.11007635 -0.63109769 0 0 Z " fill="#9AAAD3" transform="translate(72.6875,14.3125)"/>
<path d="M0 0 C0.66 1.32 1.32 2.64 2 4 C1.01 4 0.02 4 -1 4 C-1 3.34 -1 2.68 -1 2 C-2.98 2.99 -2.98 2.99 -5 4 C-5 5.98 -5 7.96 -5 10 C-4.01 10.33 -3.02 10.66 -2 11 C-2 10.01 -2 9.02 -2 8 C-2.66 8 -3.32 8 -4 8 C-4 7.34 -4 6.68 -4 6 C-2.35 6 -0.7 6 1 6 C1 7.98 1 9.96 1 12 C-1.76250036 13.38125018 -3.94731099 13.19079306 -7 13 C-9 11 -9 11 -9.3125 7.625 C-9 4 -9 4 -7.875 1.5625 C-5.24871143 -0.6260738 -3.31446363 -0.29461899 0 0 Z " fill="#DDE3F0" transform="translate(34,100)"/>
<path d="M0 0 C0.66 1.32 1.32 2.64 2 4 C1.01 4 0.02 4 -1 4 C-1 3.34 -1 2.68 -1 2 C-3.06402968 2.48705712 -3.06402968 2.48705712 -5 4 C-5.81870185 7.56206661 -5.81870185 7.56206661 -6 11 C-4.68 11 -3.36 11 -2 11 C-2 10.01 -2 9.02 -2 8 C-2.66 8 -3.32 8 -4 8 C-4 7.34 -4 6.68 -4 6 C-2.35 6 -0.7 6 1 6 C1 7.98 1 9.96 1 12 C-1.76250036 13.38125018 -3.94731099 13.19079306 -7 13 C-9 11 -9 11 -9.3125 7.625 C-9 4 -9 4 -7.875 1.5625 C-5.24871143 -0.6260738 -3.31446363 -0.29461899 0 0 Z " fill="#F2F4F9" transform="translate(51,100)"/>
<path d="M0 0 C1.4540625 0.0309375 1.4540625 0.0309375 2.9375 0.0625 C3.2675 1.3825 3.5975 2.7025 3.9375 4.0625 C1.9575 3.4025 -0.0225 2.7425 -2.0625 2.0625 C-2.0625 3.0525 -2.0625 4.0425 -2.0625 5.0625 C0.4125 6.0525 0.4125 6.0525 2.9375 7.0625 C2.0625 11.9375 2.0625 11.9375 0.9375 13.0625 C-1.06208364 13.10330783 -3.06295254 13.10504356 -5.0625 13.0625 C-5.3925 11.7425 -5.7225 10.4225 -6.0625 9.0625 C-4.0825 9.7225 -2.1025 10.3825 -0.0625 11.0625 C-0.0625 10.0725 -0.0625 9.0825 -0.0625 8.0625 C-2.5375 7.0725 -2.5375 7.0725 -5.0625 6.0625 C-3.98897059 0.08140756 -3.98897059 0.08140756 0 0 Z " fill="#E7EAF4" transform="translate(72.0625,99.9375)"/>
<path d="M0 0 C0.928125 0.0825 1.85625 0.165 2.8125 0.25 C3.4725 1.57 4.1325 2.89 4.8125 4.25 C3.8225 4.25 2.8325 4.25 1.8125 4.25 C1.8125 3.59 1.8125 2.93 1.8125 2.25 C-0.25152968 2.73705712 -0.25152968 2.73705712 -2.1875 4.25 C-3.00620185 7.81206661 -3.00620185 7.81206661 -3.1875 11.25 C-2.2903125 10.755 -2.2903125 10.755 -1.375 10.25 C0.8125 9.25 0.8125 9.25 3.8125 9.25 C3.1525 10.57 2.4925 11.89 1.8125 13.25 C-1.0625 13.4375 -1.0625 13.4375 -4.1875 13.25 C-6.51329101 9.76131349 -6.60615457 8.35281481 -6.1875 4.25 C-4.54235479 0.77691566 -3.88782193 0.30492721 0 0 Z " fill="#E3E7F3" transform="translate(60.1875,99.75)"/>
<path d="M0 0 C2.64 0 5.28 0 8 0 C8 0.66 8 1.32 8 2 C6.02 2 4.04 2 2 2 C2 2.99 2 3.98 2 5 C3.65 5 5.3 5 7 5 C7 5.99 7 6.98 7 8 C5.02 8 3.04 8 1 8 C1 9.65 1 11.3 1 13 C0.01 13 -0.98 13 -2 13 C-1.34 8.71 -0.68 4.42 0 0 Z " fill="#E0E5F2" transform="translate(83,100)"/>
<path d="M0 0 C0.33 0.66 0.66 1.32 1 2 C-4.06814202 3.6543676 -8.36173621 4.27163961 -13.75 4.25 C-15.04421875 4.25515625 -16.3384375 4.2603125 -17.671875 4.265625 C-21 4 -21 4 -24 2 C-22.35 2 -20.7 2 -19 2 C-19 1.67 -19 1.34 -19 1 C-18.10796875 0.93941406 -17.2159375 0.87882812 -16.296875 0.81640625 C-14.54117188 0.69072266 -14.54117188 0.69072266 -12.75 0.5625 C-11.58984375 0.48128906 -10.4296875 0.40007812 -9.234375 0.31640625 C-6.13050083 0.09788188 -6.13050083 0.09788188 -3.703125 -0.59765625 C-2 -1 -2 -1 0 0 Z " fill="#BBC6E2" transform="translate(83,85)"/>
<path d="M0 0 C0.99 0 1.98 0 3 0 C3 1.65 3 3.3 3 5 C3.66 5 4.32 5 5 5 C5.66 3.35 6.32 1.7 7 0 C7.99 0.33 8.98 0.66 10 1 C9.65066406 1.53109375 9.30132812 2.0621875 8.94140625 2.609375 C8.48636719 3.31578125 8.03132813 4.0221875 7.5625 4.75 C7.11003906 5.44609375 6.65757813 6.1421875 6.19140625 6.859375 C5.0391991 8.92957014 4.45323018 10.68696324 4 13 C3.34 13 2.68 13 2 13 C1.34 8.71 0.68 4.42 0 0 Z " fill="#E6EAF4" transform="translate(100,100)"/>
<path d="M0 0 C0.99 0 1.98 0 3 0 C3 0.66 3 1.32 3 2 C4.32 2 5.64 2 7 2 C7 3.98 7 5.96 7 8 C6.01 8.495 6.01 8.495 5 9 C5 7.35 5 5.7 5 4 C3.35 4 1.7 4 0 4 C0 4.66 0 5.32 0 6 C0.66 6 1.32 6 2 6 C2 6.99 2 7.98 2 9 C0.68 9 -0.64 9 -2 9 C-2.125 5.625 -2.125 5.625 -2 2 C-1.34 1.34 -0.68 0.68 0 0 Z " fill="#0E359A" transform="translate(47,102)"/>
<path d="M0 0 C0.99 0.33 1.98 0.66 3 1 C2.34 4.3 1.68 7.6 1 11 C2.65 11 4.3 11 6 11 C6 11.66 6 12.32 6 13 C3.36 13 0.72 13 -2 13 C-1.34 8.71 -0.68 4.42 0 0 Z " fill="#F9FAFC" transform="translate(93,100)"/>
<path d="M0 0 C2.97 0 5.94 0 9 0 C10.05404945 3.98196457 9.84098656 6.98195309 9 11 C7 8 7 8 7 6 C5.35 6 3.7 6 2 6 C2 5.01 2 4.02 2 3 C3.98 3 5.96 3 8 3 C8 2.34 8 1.68 8 1 C5.36 1 2.72 1 0 1 C0 0.67 0 0.34 0 0 Z " fill="#2346A2" transform="translate(83,99)"/>
<path d="M0 0 C0.99 0 1.98 0 3 0 C2.34 4.29 1.68 8.58 1 13 C0.01 13 -0.98 13 -2 13 C-1.48041715 8.62065881 -0.94324258 4.31196609 0 0 Z " fill="#E0E5F2" transform="translate(21,100)"/>
<path d="M0 0 C1.4540625 0.0309375 1.4540625 0.0309375 2.9375 0.0625 C3.5975 1.3825 4.2575 2.7025 4.9375 4.0625 C3.9475 4.0625 2.9575 4.0625 1.9375 4.0625 C1.9375 3.4025 1.9375 2.7425 1.9375 2.0625 C-0.09491727 2.70229849 -0.09491727 2.70229849 -2.0625 4.0625 C-2.87421228 6.61769921 -2.87421228 6.61769921 -3.0625 9.0625 C-3.3925 8.0725 -3.7225 7.0825 -4.0625 6.0625 C-4.7225 6.0625 -5.3825 6.0625 -6.0625 6.0625 C-3.76028481 0.07674051 -3.76028481 0.07674051 0 0 Z " fill="#E0E5F2" transform="translate(48.0625,99.9375)"/>
<path d="M0 0 C-0.33 0.33 -0.66 0.66 -1 1 C1.31 1.33 3.62 1.66 6 2 C6 2.33 6 2.66 6 3 C0.06 3.33 -5.88 3.66 -12 4 C-4.61538462 -1.53846154 -4.61538462 -1.53846154 0 0 Z " fill="#CAD2E8" transform="translate(34,48)"/>
<path d="M0 0 C0.66 0.33 1.32 0.66 2 1 C2.05402274 3.10388569 2.09280256 5.20816714 2.125 7.3125 C2.14820312 8.48425781 2.17140625 9.65601563 2.1953125 10.86328125 C2 14 2 14 0 17 C-0.19436491 14.54203147 -0.3807742 12.08390706 -0.5625 9.625 C-0.61857422 8.92632812 -0.67464844 8.22765625 -0.73242188 7.5078125 C-1.11328125 2.2265625 -1.11328125 2.2265625 0 0 Z " fill="#E6EAF4" transform="translate(105,38)"/>
<path d="M0 0 C0.94875 0.04125 1.8975 0.0825 2.875 0.125 C3.535 1.445 4.195 2.765 4.875 4.125 C3.885 4.125 2.895 4.125 1.875 4.125 C1.875 3.465 1.875 2.805 1.875 2.125 C-0.12363756 2.70444932 -0.12363756 2.70444932 -2.125 4.125 C-3.41731642 7.16699472 -3.41731642 7.16699472 -4.125 10.125 C-4.455 10.125 -4.785 10.125 -5.125 10.125 C-5.3203125 4.0703125 -5.3203125 4.0703125 -5.125 2.125 C-3.125 0.125 -3.125 0.125 0 0 Z " fill="#EAEEF6" transform="translate(31.125,99.875)"/>
<path d="M0 0 C-0.34069235 3.15140423 -0.58076841 4.60781561 -2.9375 6.8125 C-5 8 -5 8 -7 8 C-7.33 7.01 -7.66 6.02 -8 5 C-2.25 0 -2.25 0 0 0 Z " fill="#D5DCED" transform="translate(97,75)"/>
<path d="M0 0 C2.17854707 3.2678206 3.49760034 6.38058265 5 10 C4.34 10.66 3.68 11.32 3 12 C2.30062798 10.5682384 1.61587282 9.12932968 0.9375 7.6875 C0.55464844 6.88699219 0.17179687 6.08648437 -0.22265625 5.26171875 C-1 3 -1 3 0 0 Z " fill="#B9C4E0" transform="translate(35,60)"/>
<path d="M0 0 C1.65 0 3.3 0 5 0 C5 1.98 5 3.96 5 6 C4.01 6.33 3.02 6.66 2 7 C2 5.35 2 3.7 2 2 C1.34 2 0.68 2 0 2 C0 1.34 0 0.68 0 0 Z " fill="#E3E7F3" transform="translate(47,106)"/>
<path d="M0 0 C-5.75 5 -5.75 5 -8 5 C-8 4.34 -8 3.68 -8 3 C-8.66 2.67 -9.32 2.34 -10 2 C-8.71211992 1.46987262 -7.41953322 0.9511671 -6.125 0.4375 C-5.40570313 0.14746094 -4.68640625 -0.14257812 -3.9453125 -0.44140625 C-2 -1 -2 -1 0 0 Z " fill="#C9D1E8" transform="translate(107,17)"/>
<path d="M0 0 C0.99 0.33 1.98 0.66 3 1 C2.67 3.31 2.34 5.62 2 8 C1.01 8 0.02 8 -1 8 C-0.67 5.36 -0.34 2.72 0 0 Z " fill="#E8ECF5" transform="translate(93,100)"/>
<path d="M0 0 C0.99 0.33 1.98 0.66 3 1 C1.80873219 3.38253561 0.61305574 4.12188876 -1.5625 5.625 C-2.20316406 6.07101563 -2.84382813 6.51703125 -3.50390625 6.9765625 C-3.99761719 7.31429688 -4.49132812 7.65203125 -5 8 C-5.66 7.67 -6.32 7.34 -7 7 C-6.21625 6.401875 -5.4325 5.80375 -4.625 5.1875 C-1.85425677 3.08914751 -1.85425677 3.08914751 0 0 Z " fill="#4D69B3" transform="translate(108,14)"/>
<path d="M0 0 C0.99 0 1.98 0 3 0 C2.67 2.31 2.34 4.62 2 7 C1.34 7 0.68 7 0 7 C0 4.69 0 2.38 0 0 Z " fill="#FAFBFD" transform="translate(102,106)"/>
<path d="M0 0 C-0.33 2.31 -0.66 4.62 -1 7 C-1.66 7 -2.32 7 -3 7 C-3 5.02 -3 3.04 -3 1 C-1 0 -1 0 0 0 Z " fill="#F0F2F8" transform="translate(107,56)"/>
</svg>
