<?xml version="1.0" encoding="UTF-8"?>
<svg version="1.1" xmlns="http://www.w3.org/2000/svg" width="1024" height="1024">
<path d="M0 0 C2.26264559 -0.00374327 4.52528988 -0.00834747 6.78793216 -0.01373065 C12.964416 -0.02589275 19.1408454 -0.02570822 25.31733847 -0.02334189 C31.30801185 -0.02297417 37.29866715 -0.03197624 43.28933262 -0.04056767 C57.04574595 -0.05984671 70.80214431 -0.06553365 84.55856958 -0.06668179 C95.19054584 -0.06760332 105.82251629 -0.07173267 116.45449066 -0.07808304 C119.52262075 -0.07987833 122.59075085 -0.08165796 125.65888095 -0.08343279 C126.8032424 -0.08409594 126.8032424 -0.08409594 127.97072227 -0.08477248 C149.4130333 -0.09707075 170.85534231 -0.10497466 192.29765701 -0.10408592 C193.50878632 -0.10403919 193.50878632 -0.10403919 194.74438288 -0.10399151 C198.83605002 -0.10382531 202.92771716 -0.10362723 207.01938429 -0.10342209 C207.83189661 -0.1033822 208.64440893 -0.10334231 209.48154283 -0.10330121 C211.12464063 -0.10322034 212.76773842 -0.10313674 214.41083622 -0.10305043 C239.95105798 -0.10182606 265.49122655 -0.11682133 291.03143311 -0.14419556 C319.77609285 -0.1749922 348.52071766 -0.19212343 377.26539493 -0.19026911 C380.33729728 -0.19011987 383.40919963 -0.19002245 386.48110199 -0.18996048 C387.23738898 -0.18993717 387.99367597 -0.18991386 388.77288075 -0.18988985 C400.88475445 -0.18982859 412.99658156 -0.20253943 425.10844145 -0.21982501 C437.30706844 -0.23687285 449.50562812 -0.23868443 461.7042605 -0.22560637 C468.29823472 -0.21891612 474.89207791 -0.21882771 481.48604584 -0.23631287 C529.88868342 -0.35649866 574.04670673 3.98054218 618.27069092 25.26742554 C619.08618408 25.65881714 619.90167725 26.05020874 620.74188232 26.45346069 C642.92986504 37.24772935 662.61792817 51.24384987 680.72381592 67.94320679 C682.8461784 69.88002531 685.00547065 71.73674019 687.20819092 73.57992554 C732.5302891 113.28282049 759.59150562 178.27446344 764.27069092 237.26742554 C764.39750513 240.52045329 764.40889881 243.76798706 764.40211868 247.02321148 C764.40519763 248.42309135 764.40519763 248.42309135 764.40833879 249.85125163 C764.41397519 252.96595718 764.4125557 256.08061804 764.41113281 259.19532776 C764.41371839 261.45620709 764.41673209 263.71708597 764.42013621 265.97796422 C764.42818708 272.18183448 764.42999472 278.38569316 764.43073368 284.58956802 C764.43239711 290.59657589 764.43871756 296.60357784 764.44481209 302.61058241 C764.46084528 318.69839309 764.46677271 334.78620278 764.47156084 350.87402 C764.47389988 358.49192 764.47750291 366.10981925 764.48125622 373.72771867 C764.49409051 399.82859321 764.50480888 425.92946734 764.50825882 452.03034496 C764.50848045 453.66776825 764.50870223 455.30519153 764.50892417 456.94261481 C764.50914481 458.58389242 764.50936529 460.22517002 764.50958562 461.86644763 C764.51002816 465.15887972 764.51047528 468.45131181 764.51092529 471.7437439 C764.51103468 472.56007106 764.51114407 473.37639822 764.51125678 474.21746256 C764.51488456 500.66587498 764.53079468 527.11425994 764.55411566 553.56266185 C764.57875332 581.55576546 764.59243352 609.5488534 764.59362674 637.54196817 C764.59379818 640.61948892 764.5940136 643.69700966 764.59426117 646.77453041 C764.59431694 647.53224744 764.59437271 648.28996447 764.59443017 649.07064263 C764.5955773 661.22592099 764.60657063 673.38117102 764.62114822 685.53643984 C764.63556837 697.77277351 764.63871927 710.00907116 764.63070825 722.245411 C764.62666504 728.86490276 764.62766378 735.48432 764.64176559 742.10380554 C764.65458747 748.17836991 764.6532349 754.25276932 764.64117488 760.32733373 C764.63923212 762.5104729 764.6422295 764.6936241 764.65101925 766.87674644 C764.80005892 806.43826685 755.79483409 844.76147412 738.27069092 880.26742554 C737.88300537 881.06052124 737.49531982 881.85361694 737.09588623 882.67074585 C726.73358656 903.67540735 713.46399225 922.69087661 697.52069092 939.82992554 C695.61938013 941.88967889 693.81433583 943.99005164 692.02069092 946.14242554 C658.05626008 984.92506633 606.2340017 1009.96885476 556.39569092 1020.07992554 C555.43509766 1020.27481567 554.47450439 1020.46970581 553.48480225 1020.67050171 C537.11166034 1023.80478493 521.15927055 1024.56114137 504.54138184 1024.53485107 C502.27873625 1024.53859434 500.01609196 1024.54319855 497.75344968 1024.54858172 C491.57696584 1024.56074382 485.40053643 1024.5605593 479.22404337 1024.55819297 C473.23336999 1024.55782525 467.24271468 1024.56682731 461.25204922 1024.57541875 C447.49563588 1024.59469779 433.73923752 1024.60038473 419.98281226 1024.60153286 C409.35083599 1024.60245439 398.71886555 1024.60658375 388.08689117 1024.61293411 C385.01876109 1024.61472941 381.95063099 1024.61650904 378.88250089 1024.61828387 C378.11959325 1024.61872596 377.35668561 1024.61916806 376.57065956 1024.61962355 C355.12834854 1024.63192183 333.68603953 1024.63982574 312.24372482 1024.638937 C311.03259552 1024.63889026 311.03259552 1024.63889026 309.79699896 1024.63884258 C305.70533182 1024.63867638 301.61366468 1024.6384783 297.52199754 1024.63827316 C296.70948522 1024.63823327 295.89697291 1024.63819338 295.05983901 1024.63815228 C293.41674121 1024.63807141 291.77364342 1024.63798781 290.13054562 1024.6379015 C264.59032386 1024.63667713 239.05015528 1024.6516724 213.50994873 1024.67904663 C184.76528899 1024.70984328 156.02066418 1024.7269745 127.27598691 1024.72512019 C124.20408456 1024.72497095 121.1321822 1024.72487352 118.06027985 1024.72481155 C117.30399286 1024.72478825 116.54770586 1024.72476494 115.76850109 1024.72474092 C103.65662739 1024.72467966 91.54480028 1024.73739051 79.43294038 1024.75467608 C67.23431339 1024.77172392 55.03575372 1024.77353551 42.83712134 1024.76045744 C36.24314712 1024.7537672 29.64930393 1024.75367878 23.055336 1024.77116394 C-36.74497399 1024.91968111 -93.04014077 1017.04148293 -143.72930908 982.26742554 C-144.42169678 981.79981812 -145.11408447 981.33221069 -145.82745361 980.85043335 C-155.63155608 974.20929763 -164.89776527 967.15381505 -173.72930908 959.26742554 C-174.26507568 958.7933728 -174.80084229 958.31932007 -175.35284424 957.8309021 C-223.82052282 914.78366696 -254.60849815 851.82819544 -259.72930908 787.26742554 C-259.85612329 784.01439778 -259.86751697 780.76686401 -259.86073685 777.5116396 C-259.86278948 776.57838634 -259.86484211 775.64513309 -259.86695695 774.68359944 C-259.87259335 771.56889389 -259.87117387 768.45423304 -259.86975098 765.33952332 C-259.87233655 763.07864398 -259.87535025 760.8177651 -259.87875438 758.55688685 C-259.88680524 752.35301659 -259.88861289 746.14915792 -259.88935184 739.94528306 C-259.89101528 733.93827519 -259.89733573 727.93127323 -259.90343026 721.92426866 C-259.91946345 705.83645799 -259.92539087 689.7486483 -259.93017901 673.66083107 C-259.93251804 666.04293107 -259.93612107 658.42503182 -259.93987438 650.80713241 C-259.95270867 624.70625787 -259.96342704 598.60538374 -259.96687698 572.50450611 C-259.96709861 570.86708283 -259.9673204 569.22965954 -259.96754234 567.59223626 C-259.96776297 565.95095866 -259.96798345 564.30968105 -259.96820378 562.66840345 C-259.96864632 559.37597136 -259.96909344 556.08353927 -259.96954346 552.79110718 C-259.96965285 551.97478002 -259.96976224 551.15845286 -259.96987494 550.31738851 C-259.97350272 523.86897609 -259.98941284 497.42059113 -260.01273382 470.97218923 C-260.03737149 442.97908561 -260.05105168 414.98599767 -260.0522449 386.99288291 C-260.05241634 383.91536216 -260.05263176 380.83784141 -260.05287933 377.76032066 C-260.0529351 377.00260363 -260.05299087 376.2448866 -260.05304833 375.46420845 C-260.05419547 363.30893008 -260.0651888 351.15368005 -260.07976639 338.99841123 C-260.09418653 326.76207756 -260.09733743 314.52577992 -260.08932641 302.28944007 C-260.0852832 295.66994831 -260.08628194 289.05053107 -260.10038376 282.43104553 C-260.11320563 276.35648117 -260.11185307 270.28208176 -260.09979305 264.20751735 C-260.09785029 262.02437818 -260.10084766 259.84122698 -260.10963741 257.65810464 C-260.25507088 219.05382571 -251.8468955 180.97012716 -234.72930908 146.26742554 C-234.32486572 145.44081421 -233.92042236 144.61420288 -233.50372314 143.76254272 C-223.036086 122.56734968 -210.14746463 103.07152763 -194.01837158 85.74398804 C-192.08347692 83.65060371 -190.24354002 81.51660346 -188.41680908 79.32992554 C-179.41999243 69.02983171 -168.59496262 60.49035078 -157.72930908 52.26742554 C-156.85145752 51.59324585 -155.97360596 50.91906616 -155.06915283 50.22445679 C-110.02079894 16.455598 -55.94868021 -0.08851348 0 0 Z " fill="#0671D9" transform="translate(259.72930908203125,-0.267425537109375)"/>
<path d="M0 0 C23.70748882 20.60293672 39.56987903 48.09802586 42.49609375 79.72167969 C44.47414854 112.28350468 35.76231062 144.29068248 13.99609375 168.97167969 C12.50473096 170.56315117 11.00493886 172.14677306 9.49609375 173.72167969 C8.81160156 174.46933594 8.12710938 175.21699219 7.421875 175.98730469 C-10.07589455 194.48771907 -33.80359916 204.28521676 -58.50390625 208.72167969 C-59.52742187 208.90730469 -60.5509375 209.09292969 -61.60546875 209.28417969 C-94.16293022 212.93792286 -126.27808289 205.79137355 -152.50390625 185.72167969 C-156.6697661 182.22865631 -160.59051367 178.49224772 -164.50390625 174.72167969 C-165.14972656 174.13902344 -165.79554688 173.55636719 -166.4609375 172.95605469 C-184.5895697 156.14355269 -193.3974643 131.44470579 -197.50390625 107.72167969 C-197.68953125 106.77550781 -197.87515625 105.82933594 -198.06640625 104.85449219 C-202.12632087 75.78260358 -194.09243686 45.32865818 -177.01928711 21.62402344 C-157.41960441 -4.28081394 -128.80624247 -21.88227984 -96.50463867 -26.56835938 C-62.18037758 -30.81937207 -26.66529616 -22.66550173 0 0 Z " fill="#0670DA" transform="translate(589.50390625,296.2783203125)"/>
<path d="M0 0 C0.98720535 -0.00137466 1.97441071 -0.00274933 2.99153137 -0.00416565 C4.07837723 -0.00057037 5.16522308 0.0030249 6.28500366 0.00672913 C7.42646347 0.0065831 8.56792328 0.00643707 9.74397278 0.00628662 C13.53159459 0.00698546 17.31916774 0.01477654 21.10678101 0.02259827 C23.7270912 0.02446255 26.34740174 0.0258864 28.9677124 0.02688599 C35.16899011 0.029997 41.37025025 0.0382073 47.57152021 0.04823548 C54.63068014 0.05940374 61.6898409 0.06490886 68.74900746 0.06993091 C83.27192022 0.08039009 97.79481912 0.0979851 112.31771851 0.12025452 C112.96002942 1.3718653 113.59848845 2.6254532 114.23536682 3.87983704 C114.59133029 4.57770954 114.94729376 5.27558205 115.314044 5.9946022 C116.84881624 9.24505057 117.83473034 12.58925051 118.80599976 16.04212952 C119.02558853 16.79835098 119.24517731 17.55457245 119.47142029 18.33370972 C120.19835041 20.84384012 120.91422968 23.35698342 121.63021851 25.87025452 C122.15180492 27.67897229 122.67412262 29.48747932 123.19711304 31.29579163 C124.32099806 35.18703204 125.44011557 39.07959969 126.55551147 42.97328186 C128.34470278 49.21855346 130.14464603 55.46069348 131.94662476 61.70228577 C133.83080318 68.2297831 135.71458251 74.75739166 137.59481812 81.286026 C141.93211651 96.34334969 146.30091237 111.39124327 150.69271851 126.43275452 C151.27548404 128.42933601 151.85824773 130.42591803 152.44100952 132.42250061 C154.55320777 139.65779954 156.66605828 146.89290694 158.78207397 154.12709045 C159.87156887 157.85203595 160.95920154 161.57751979 162.0453186 165.30345154 C162.60968217 167.23738172 163.17630432 169.17065236 163.74301147 171.10389709 C164.07317261 172.23722473 164.40333374 173.37055237 164.74349976 174.53822327 C165.16756104 175.98878113 165.16756104 175.98878113 165.60018921 177.46864319 C169.54059313 192.030306 166.21021672 203.08433203 161.07382202 216.83119202 C160.27756637 219.24181293 159.76733998 221.62376645 159.31771851 224.12025452 C155.35834569 223.51039851 152.88125691 221.5267834 149.69271851 219.18275452 C121.07776259 198.88371217 87.35922567 188.69384779 52.31771851 188.74525452 C51.65129333 188.74613068 50.98486816 188.74700684 50.29824829 188.74790955 C15.53151605 188.89717397 -22.40717476 200.72974264 -48.96743774 223.94447327 C-51.68228149 226.12025452 -51.68228149 226.12025452 -54.68228149 226.12025452 C-62.82390724 211.57474133 -65.43292282 195.99783985 -61.15127563 179.78675842 C-59.23857816 173.17200679 -57.10492736 166.63106292 -54.9376297 160.09602356 C-53.86421907 156.83794602 -52.82230426 153.56985629 -51.77944946 150.30189514 C-51.3604536 148.98990085 -50.94141689 147.67791959 -50.52233887 146.36595154 C-50.3163998 145.72111187 -50.11046074 145.0762722 -49.8982811 144.41189194 C-49.27924423 142.47794773 -48.65684934 140.54511601 -48.03338623 138.6125946 C-45.09744638 129.49609066 -42.35763181 120.35085809 -39.80728149 111.12025452 C-35.15783335 94.45565355 -30.13158043 77.90578604 -25.10894012 61.3507843 C-24.44195608 59.15214572 -23.77548216 56.95335304 -23.10910034 54.75453186 C-14.60923348 26.71604167 -14.60923348 26.71604167 -10.49472046 13.86073303 C-9.46888169 10.65100954 -8.50240861 7.44572088 -7.65005493 4.18666077 C-7.3306897 3.1747467 -7.01132446 2.16283264 -6.68228149 1.12025452 C-4.25225833 -0.09475707 -2.71569125 -0.00290759 0 0 Z " fill="#FEFEFE" transform="translate(457.6822814941406,43.87974548339844)"/>
<path d="M0 0 C14.88436147 2.77665119 26.21604273 6.77005976 36.765625 17.88671875 C37.47267578 18.60794922 38.17972656 19.32917969 38.90820312 20.07226562 C42.91324955 24.18805066 46.75142063 28.42509756 50.50805664 32.76782227 C52.60900101 35.1850027 54.78005175 37.53438525 56.953125 39.88671875 C61.07719176 44.40325712 64.95749365 49.06554891 68.796875 53.82421875 C71.14531468 56.65521453 73.58722402 59.36805473 76.078125 62.07421875 C80.11767318 66.46800423 83.92492119 70.99260699 87.671875 75.63671875 C90.3759065 78.93774422 93.15905434 82.16203669 95.953125 85.38671875 C100.0107479 90.07681557 103.9108396 94.85492729 107.703125 99.76171875 C111.80199802 105.06036911 116.13750476 110.03770197 120.69921875 114.94921875 C122.99532869 117.48285731 125.13638173 120.08723001 127.265625 122.76171875 C131.10563031 127.53284039 135.22614646 131.95697197 139.453125 136.38671875 C158.63908328 156.53619032 158.63908328 156.53619032 159.375 163.3046875 C159.00080196 167.42578963 157.63946239 169.46479193 155.328125 172.88671875 C154.9269043 173.48645508 154.52568359 174.08619141 154.11230469 174.70410156 C152.78499737 176.67336131 151.43484491 178.62512148 150.078125 180.57421875 C149.38783203 181.57171143 149.38783203 181.57171143 148.68359375 182.58935547 C142.04087205 192.16228601 135.20450086 201.59964592 128.36328125 211.03125 C126.16815681 214.05956987 123.98979632 217.09892415 121.82421875 220.1484375 C116.44253314 227.70834743 110.95748078 235.15418234 105.140625 242.38671875 C104.36138672 243.36439209 104.36138672 243.36439209 103.56640625 244.36181641 C99.99089053 248.74251431 96.21329421 253.00663415 91.078125 255.57421875 C83.75204356 256.26393021 78.28395884 254.08118153 71.515625 251.44921875 C58.73302006 246.68751254 45.78847489 242.66876852 32.703125 238.82421875 C31.70731415 238.53130951 30.7115033 238.23840027 29.68551636 237.93661499 C25.58748418 236.73156282 21.48932536 235.52694733 17.39057922 234.32432556 C6.26111174 231.05288746 -4.83006256 227.65816823 -15.921875 224.26171875 C-28.33254557 220.46455807 -40.75205482 216.71406828 -53.22689819 213.13290405 C-78.66448961 205.82607735 -102.19275658 198.5467922 -118.921875 176.57421875 C-118.921875 176.24421875 -118.921875 175.91421875 -118.921875 175.57421875 C-118.37225098 175.39971191 -117.82262695 175.22520508 -117.25634766 175.04541016 C-97.45136643 168.62069278 -80.00347331 158.70205411 -63.921875 145.57421875 C-63.14972656 144.94515625 -62.37757813 144.31609375 -61.58203125 143.66796875 C-31.26895502 118.06767404 -13.59922802 76.96079996 -10.12255859 38.04394531 C-9.64159397 29.72828935 -9.80932729 21.37177253 -10.03198242 13.04833984 C-10.07029175 11.07341553 -10.07029175 11.07341553 -10.109375 9.05859375 C-10.14417969 7.88006836 -10.17898438 6.70154297 -10.21484375 5.48730469 C-9.921875 2.57421875 -9.921875 2.57421875 -8.53222656 0.68237305 C-5.72688849 -1.24810444 -3.24148612 -0.44072838 0 0 Z " fill="#FEFEFE" transform="translate(677.921875,357.42578125)"/>
<path d="M0 0 C1.84382834 1.84382834 1.12347981 4.35170981 1.1328125 6.796875 C1 9 1 9 0.50219727 11.32568359 C-1.91994263 24.22413787 -0.39931702 39.19450228 2 52 C2.1853833 53.01658691 2.1853833 53.01658691 2.37451172 54.05371094 C5.68075887 71.75916539 11.56646391 88.43277258 20.08740234 104.29248047 C20.90949845 105.83066671 21.70086808 107.38518023 22.48828125 108.94140625 C40.46277678 143.72585253 73.12548628 167.28594539 109 181 C105.10665886 190.71017821 92.06009089 200.9396074 82.74658203 204.97680664 C74.74703457 207.84804691 66.63063483 210.27776164 58.48248291 212.68493652 C54.02336925 214.00351751 49.5684028 215.33597301 45.11328125 216.66796875 C43.72903961 217.08165207 43.72903961 217.08165207 42.3168335 217.50369263 C16.91190023 225.1068897 -8.37353309 233.09130835 -33.625 241.1875 C-35.75413156 241.86952493 -37.88328176 242.55149168 -40.01245117 243.23339844 C-42.09034321 243.89905365 -44.16822423 244.56474326 -46.24609375 245.23046875 C-47.25314865 245.55310699 -48.26020355 245.87574524 -49.29777527 246.2081604 C-53.9370648 247.69515805 -58.57549771 249.18468164 -63.21142578 250.68212891 C-67.0204258 251.91239153 -70.83213002 253.13381608 -74.64642334 254.3475647 C-75.98520911 254.77551095 -77.32286479 255.20701229 -78.65924072 255.64242554 C-91.87768203 259.94687264 -91.87768203 259.94687264 -97 259 C-102.10556956 255.66298425 -105.18596946 251.31762859 -108.5625 246.3125 C-109.61607746 244.78439032 -110.67080331 243.2570719 -111.7265625 241.73046875 C-112.26571289 240.94720215 -112.80486328 240.16393555 -113.36035156 239.35693359 C-115.99444366 235.57052426 -118.71945381 231.85134042 -121.4375 228.125 C-125.88161047 222.00954348 -130.19778127 215.82116301 -134.4375 209.5625 C-138.88653908 203.00023481 -143.46791832 196.5579747 -148.1875 190.1875 C-148.76967285 189.39891602 -149.3518457 188.61033203 -149.95166016 187.79785156 C-152.63328672 184.17132861 -155.33198672 180.56046901 -158.0703125 176.9765625 C-158.98469014 175.75544425 -159.8987725 174.53410481 -160.8125 173.3125 C-161.60269531 172.27738281 -162.39289063 171.24226562 -163.20703125 170.17578125 C-165.49301672 166.12674816 -165.92025635 163.64858596 -166 159 C-164.953125 156.671875 -164.953125 156.671875 -163.25 154.75 C-162.28320312 153.63044922 -162.28320312 153.63044922 -161.296875 152.48828125 C-160.15992188 151.25658203 -160.15992188 151.25658203 -159 150 C-158.11828125 149.02417969 -157.2365625 148.04835938 -156.328125 147.04296875 C-154.44256837 144.96563833 -152.54307085 142.90228314 -150.6328125 140.84765625 C-147.94587855 137.94146211 -145.33495531 134.98193411 -142.7421875 131.9921875 C-140.68499601 129.63979365 -138.59403085 127.31965034 -136.5 125 C-133.81016569 122.01937279 -131.13689636 119.02754767 -128.5 116 C-125.10746907 112.10487189 -121.64805799 108.27217237 -118.1875 104.4375 C-116.27445851 102.30582519 -114.38112388 100.1598089 -112.5 98 C-109.86310364 94.97245233 -107.18983431 91.98062721 -104.5 89 C-99.70092208 83.67665307 -94.9592205 78.31136661 -90.3203125 72.84765625 C-84.72558261 66.26681821 -79.04264888 59.80234102 -73.15625 53.48046875 C-69.93710045 50.02286368 -66.78755757 46.51970949 -63.69921875 42.9453125 C-61.70593572 40.6633471 -59.66506973 38.42771426 -57.625 36.1875 C-54.51790506 32.75554859 -51.56968705 29.24727848 -48.6875 25.625 C-35.65934603 9.64621882 -21.87260399 -1.4581736 0 0 Z " fill="#FEFEFE" transform="translate(353,353)"/>
<path d="M0 0 C1.31775421 -0.00014603 2.63550842 -0.00029205 3.99319458 -0.0004425 C7.58978659 -0.00072834 11.18634496 0.00513377 14.78292918 0.01213145 C18.54787572 0.01840064 22.3128231 0.01897161 26.07777405 0.02015686 C33.19969935 0.02325968 40.32160923 0.0314589 47.44352776 0.04150635 C55.55477909 0.05270011 63.66603118 0.05818615 71.77728832 0.06320179 C88.45578404 0.07364241 105.13425851 0.09197482 121.81274414 0.11352539 C121.81274414 12.65352539 121.81274414 25.19352539 121.81274414 38.11352539 C118.49735596 38.12810791 115.18196777 38.14269043 111.76611328 38.15771484 C100.79773057 38.2081086 89.8294891 38.27471235 78.86124516 38.3492403 C72.21283981 38.39391958 65.56452458 38.43318128 58.91601562 38.45996094 C52.49683098 38.4860179 46.07788114 38.52643797 39.65884209 38.57671165 C37.21294519 38.59336405 34.76700769 38.60488843 32.32106209 38.6111393 C28.88843442 38.62079774 25.45640526 38.64887937 22.02392578 38.68115234 C21.01835129 38.67971725 20.01277679 38.67828217 18.97673035 38.67680359 C11.74366167 38.77263488 4.56917256 39.28818626 -0.68725586 44.67602539 C-4.94993289 51.60287557 -4.3504111 59.92564548 -4.39038086 67.86352539 C-4.39893097 69.21075684 -4.39893097 69.21075684 -4.40765381 70.58520508 C-4.41703494 72.47093552 -4.42361009 74.35668185 -4.42749023 76.24243164 C-4.43723028 79.10600463 -4.46833302 81.96886911 -4.49975586 84.83227539 C-4.50628459 86.67602119 -4.51153557 88.51977204 -4.51538086 90.36352539 C-4.52772766 91.20753906 -4.54007446 92.05155273 -4.55279541 92.92114258 C-4.52916338 99.30845097 -3.89573656 106.40504469 0.81274414 111.11352539 C4.95839328 113.18634996 8.60663356 113.25028699 13.12988281 113.22705078 C14.24244698 113.22726982 14.24244698 113.22726982 15.37748718 113.22749329 C17.82859219 113.22679673 20.27962116 113.21901637 22.73071289 113.21118164 C24.43036355 113.20931655 26.13001475 113.20789307 27.82966614 113.20689392 C32.30294275 113.20307594 36.7761869 113.19325177 41.24945068 113.18218994 C45.81416383 113.17196038 50.37888221 113.16739299 54.94360352 113.16235352 C63.90000029 113.15162887 72.85636443 113.13403787 81.81274414 113.11352539 C81.81274414 107.83352539 81.81274414 102.55352539 81.81274414 97.11352539 C79.3699707 97.05293945 76.92719727 96.99235352 74.41040039 96.92993164 C72.05400351 96.86818741 69.69765684 96.80478106 67.34130859 96.74121094 C65.69910111 96.69780242 64.05684675 96.65613181 62.41455078 96.61621094 C60.05885669 96.55865099 57.70339986 96.49491647 55.34790039 96.42993164 C54.60935318 96.41321915 53.87080597 96.39650665 53.10987854 96.37928772 C47.92661585 96.2273971 47.92661585 96.2273971 46.81274414 95.11352539 C46.71026142 92.04205794 46.67428249 88.99752519 46.68774414 85.92602539 C46.68387695 85.09393555 46.68000977 84.2618457 46.67602539 83.40454102 C46.68737275 75.89826103 47.27406226 68.65507177 47.81274414 61.11352539 C72.89274414 61.11352539 97.97274414 61.11352539 123.81274414 61.11352539 C123.81274414 91.47352539 123.81274414 121.83352539 123.81274414 153.11352539 C88.39533329 153.27473753 88.39533329 153.27473753 73.51782227 153.30883789 C63.25805637 153.33254333 52.99842218 153.36036351 42.73876953 153.4152832 C35.26565535 153.4552674 27.79264835 153.48098571 20.31943017 153.48987937 C16.36574898 153.49507462 12.41237428 153.5072053 8.45879173 153.53644562 C4.72985983 153.56379839 1.00135776 153.57193083 -2.72766495 153.56595612 C-4.73305525 153.56756404 -6.73839981 153.58898211 -8.7436676 153.61120605 C-19.94713885 153.56064235 -29.09687391 151.31542526 -37.24975586 143.35180664 C-48.22122321 130.67710746 -47.65341632 111.53938143 -47.58569336 95.66430664 C-47.58772288 93.95094174 -47.59064153 92.2375777 -47.59439087 90.5242157 C-47.59876947 86.96527737 -47.59252714 83.40656763 -47.57836914 79.84765625 C-47.56124046 75.32609362 -47.57117029 70.80506408 -47.58908653 66.2835207 C-47.60001291 62.75638429 -47.59643849 59.2293709 -47.58870316 55.70223045 C-47.58672755 54.03635784 -47.58906546 52.37047339 -47.59614182 50.70461464 C-47.64599783 35.68452896 -47.08290168 21.71699679 -36.37084961 10.15258789 C-25.94948609 0.17334283 -13.64127979 -0.03964181 0 0 Z " fill="#FDFEFE" transform="translate(201.187255859375,652.886474609375)"/>
<path d="M0 0 C1.36076855 0.00056499 2.72153771 0.00024584 4.08230591 -0.00088501 C7.75532294 -0.0014561 11.4282079 0.01025843 15.10119438 0.02426291 C18.94754228 0.03681117 22.79389358 0.03794398 26.64025879 0.04031372 C33.91446108 0.04651649 41.18860286 0.06291095 48.46277857 0.0830127 C56.74816673 0.10540924 65.03355785 0.11637455 73.31896877 0.12640357 C90.35395682 0.1472783 107.38888606 0.18243077 124.42382812 0.22705078 C124.305891 5.62068315 124.18166632 11.01411925 124.05151367 16.4074707 C124.00809993 18.24369325 123.96642974 20.07995786 123.92651367 21.91625977 C123.86896644 24.54993389 123.80522814 27.18339499 123.74023438 29.81689453 C123.72352188 30.64293686 123.70680939 31.46897919 123.68959045 32.3200531 C123.53769983 38.11317907 123.53769983 38.11317907 122.42382812 39.22705078 C121.00211761 39.32818886 119.57544269 39.36056137 118.15014648 39.36508179 C117.22780716 39.37053513 116.30546783 39.37598846 115.35517883 39.38160706 C114.33498154 39.38264938 113.31478424 39.38369171 112.26367188 39.38476562 C111.19533615 39.38984634 110.12700043 39.39492706 109.02629089 39.40016174 C106.69634838 39.41089429 104.36639536 39.41950305 102.03643799 39.42628098 C98.34568852 39.4380381 94.65505777 39.45748529 90.96435547 39.47940063 C80.46699625 39.54110564 69.96965563 39.59498288 59.47216797 39.62841797 C53.0583299 39.64939978 46.6447041 39.6847395 40.23098755 39.72917557 C37.78787746 39.74331654 35.34472976 39.75205369 32.90158081 39.75522995 C29.47387624 39.76015532 26.04673098 39.78335884 22.61914062 39.81054688 C21.61513718 39.80754074 20.61113373 39.80453461 19.57670593 39.80143738 C12.36130761 39.88614528 5.22649084 40.42438806 -0.07617188 45.72705078 C-2.23595094 49.32668256 -2.70356524 52.02088466 -2.72143555 56.13818359 C-2.7278154 57.13642151 -2.73419525 58.13465942 -2.74076843 59.16314697 C-2.74188126 60.24126648 -2.74299408 61.31938599 -2.74414062 62.43017578 C-2.74746902 63.54132751 -2.75079742 64.65247925 -2.75422668 65.79730225 C-2.75929316 68.15099676 -2.7616351 70.50469847 -2.76147461 72.85839844 C-2.76365475 76.44885214 -2.78179617 80.03899547 -2.80078125 83.62939453 C-2.80371654 85.9171539 -2.80570043 88.20491472 -2.80664062 90.49267578 C-2.81382614 91.56269836 -2.82101166 92.63272095 -2.82841492 93.73516846 C-2.81142983 99.31572857 -2.44490912 103.95993671 -0.57617188 109.22705078 C-0.24617188 110.21705078 0.08382812 111.20705078 0.42382812 112.22705078 C8.78391888 115.02673613 17.56094303 114.48154177 26.27148438 114.42236328 C27.89529749 114.41862696 29.51911289 114.41578292 31.14292908 114.41378784 C35.38929616 114.40620008 39.63552354 114.38659407 43.88183594 114.36437988 C48.22589224 114.34381606 52.56997141 114.33476372 56.9140625 114.32470703 C65.41738855 114.30334295 73.92057479 114.26820117 82.42382812 114.22705078 C82.42382812 108.61705078 82.42382812 103.00705078 82.42382812 97.22705078 C79.98105469 97.23865234 77.53828125 97.25025391 75.02148438 97.26220703 C72.66512176 97.26999762 70.30876057 97.27607437 67.95239258 97.28198242 C66.31013348 97.28702252 64.66787889 97.29385456 63.02563477 97.30249023 C60.67007334 97.31457004 58.31457104 97.32028217 55.95898438 97.32470703 C55.22043716 97.32986832 54.48188995 97.3350296 53.72096252 97.34034729 C51.95484725 97.34054328 50.18885667 97.28899797 48.42382812 97.22705078 C46.75219931 95.55542196 47.2937765 93.52346841 47.29101562 91.23095703 C47.28972656 90.19648437 47.2884375 89.16201172 47.28710938 88.09619141 C47.29097656 87.005 47.29484375 85.91380859 47.29882812 84.78955078 C47.29496094 83.73316406 47.29109375 82.67677734 47.28710938 81.58837891 C47.28839844 80.54230469 47.2896875 79.49623047 47.29101562 78.41845703 C47.29214355 77.47172119 47.29327148 76.52498535 47.29443359 75.54956055 C47.46787002 71.09617137 47.98036342 66.66169783 48.42382812 62.22705078 C73.17382812 62.22705078 97.92382812 62.22705078 123.42382812 62.22705078 C123.42382812 92.58705078 123.42382812 122.94705078 123.42382812 154.22705078 C89.84244439 154.38826292 89.84244439 154.38826292 75.71484375 154.42236328 C65.97981284 154.44605056 56.24492093 154.47381924 46.51000977 154.52880859 C39.41849219 154.56884696 32.32708794 154.59452378 25.23546046 154.60340476 C21.48515225 154.60859096 17.73516808 154.62066262 13.98496437 154.64997101 C10.44479873 154.67741002 6.90508618 154.68543937 3.3648243 154.67948151 C1.46716612 154.68108222 -0.43044433 154.70245439 -2.32797241 154.72473145 C-13.95348437 154.66972805 -24.93516288 152.41222673 -33.57617188 144.22705078 C-34.11757813 143.72560547 -34.65898437 143.22416016 -35.21679688 142.70751953 C-43.24850596 134.37157904 -45.7209985 123.14841683 -45.73730469 111.95532227 C-45.74226959 111.13506058 -45.7472345 110.31479889 -45.75234985 109.46968079 C-45.76692349 106.76249339 -45.77376719 104.05536468 -45.77929688 101.34814453 C-45.78505439 99.45589701 -45.79081204 97.5636495 -45.79656982 95.67140198 C-45.80706766 91.70288828 -45.81291759 87.73439476 -45.81640625 83.76586914 C-45.82187368 78.70799044 -45.84586931 73.65038328 -45.8743782 68.59258938 C-45.89310975 64.6812312 -45.89821586 60.76993689 -45.89974213 56.85853767 C-45.90274795 54.9956216 -45.91070551 53.13270609 -45.92392731 51.26983452 C-46.02219681 36.35370671 -45.58823604 22.043008 -34.91210938 10.41455078 C-24.74053544 1.12544217 -13.26217286 -0.07558603 0 0 Z " fill="#FDFEFE" transform="translate(453.576171875,652.77294921875)"/>
<path d="M0 0 C1.20085739 -0.00043808 2.40171478 -0.00087616 3.63896179 -0.00132751 C6.90920158 0.0003961 10.17904897 0.01537156 13.44921112 0.03639436 C16.8751401 0.05523391 20.30107799 0.0569173 23.72705078 0.06047058 C30.20443822 0.0697698 36.68167254 0.09435452 43.15899277 0.12451905 C50.53749265 0.15812951 57.91600011 0.17456571 65.29455757 0.18960536 C80.4633839 0.2209062 95.63206721 0.27362499 110.80078125 0.34057617 C110.68285139 6.01903149 110.55862722 11.69730012 110.4284668 17.37548828 C110.38505084 19.30871802 110.34338083 21.24198776 110.3034668 23.17529297 C110.24592494 25.94795819 110.18218505 28.72042074 110.1171875 31.49291992 C110.10047501 32.36270981 110.08376251 33.23249969 110.06654358 34.12864685 C109.91465296 40.22670447 109.91465296 40.22670447 108.80078125 41.34057617 C107.41196857 41.44591822 106.01789427 41.48294283 104.62512207 41.49206543 C103.27475609 41.50458092 103.27475609 41.50458092 101.89710999 41.51734924 C100.40406593 41.52362587 100.40406593 41.52362587 98.88085938 41.5300293 C97.83868759 41.5383226 96.79651581 41.54661591 95.72276306 41.55516052 C93.45174201 41.57260449 91.18070252 41.58775927 88.90965271 41.60093689 C85.32192161 41.6218852 81.73428335 41.64891355 78.14660645 41.6776123 C69.23521494 41.74760968 60.32375764 41.80691043 51.41229248 41.86663818 C43.8882204 41.9174709 36.36419795 41.97226901 28.8401947 42.03245544 C25.29423474 42.05914027 21.74827045 42.07988842 18.20227051 42.10046387 C16.04174579 42.1170591 13.88122317 42.13393025 11.72070312 42.15112305 C10.22765907 42.15739967 10.22765907 42.15739967 8.70445251 42.1638031 C7.35408653 42.17631859 7.35408653 42.17631859 5.97644043 42.18908691 C5.18960625 42.19424065 4.40277206 42.19939438 3.59209442 42.20470428 C1.7774688 42.14668839 1.7774688 42.14668839 0.80078125 43.34057617 C0.72872614 45.02666583 0.71692057 46.71558276 0.73828125 48.40307617 C0.74730469 49.32217773 0.75632812 50.2412793 0.765625 51.18823242 C0.77722656 51.89850586 0.78882813 52.6087793 0.80078125 53.34057617 C3.95415923 54.39170216 6.20380758 54.47749626 9.51538086 54.49829102 C10.69188705 54.50855316 11.86839325 54.51881531 13.08055115 54.52938843 C14.35850052 54.53668976 15.63644989 54.54399109 16.953125 54.55151367 C18.2909882 54.5645009 19.62884356 54.57831954 20.96669006 54.59292603 C26.63356188 54.65415314 32.30042377 54.70794565 37.9675293 54.74194336 C89.00784628 55.06530938 89.00784628 55.06530938 101.14453125 66.45776367 C113.11860605 80.06980153 115.63138571 95.48849254 114.97998047 112.93383789 C114.12675572 124.39308802 107.52232178 135.67460387 99.25390625 143.45385742 C87.12462448 152.78258846 73.93545442 154.67280827 58.97363281 154.56762695 C57.30314377 154.56806503 57.30314377 154.56806503 55.59890747 154.56851196 C51.96299102 154.56713233 48.32728636 154.55163609 44.69140625 154.53588867 C42.15265006 154.53215368 39.61389243 154.529309 37.07513428 154.52731323 C31.10436829 154.52048931 25.13366886 154.5047694 19.16293693 154.48461425 C12.35747824 154.46214713 5.55201573 154.45123482 -1.2534709 154.44122338 C-15.23542787 154.42039951 -29.21731921 154.3852916 -43.19921875 154.34057617 C-43.2238665 148.80469084 -43.24205371 143.26883717 -43.25415039 137.73291016 C-43.25919119 135.84813888 -43.26602373 133.96337152 -43.2746582 132.07861328 C-43.28673492 129.37555981 -43.29244943 126.67255786 -43.296875 123.96948242 C-43.30203629 123.12156631 -43.30719757 122.27365021 -43.31251526 121.40003967 C-43.3127107 119.37986549 -43.26128086 117.35979683 -43.19921875 115.34057617 C-41.01252713 113.15388455 -35.75529371 114.18619675 -32.70996094 114.18286133 C-31.71322861 114.17778061 -30.71649628 114.17269989 -29.68955994 114.16746521 C-27.51676066 114.15673485 -25.34395015 114.14812521 -23.17113495 114.14134598 C-19.73351693 114.12959568 -16.29602676 114.11015223 -12.85845947 114.08822632 C-3.08162687 114.02648488 6.69519417 113.9725643 16.47216797 113.93920898 C22.4450948 113.91827892 28.41779142 113.88298493 34.39058685 113.83845139 C36.66953574 113.82427358 38.94852539 113.81556495 41.22751617 113.812397 C44.41657118 113.80749574 47.60501433 113.78435613 50.79394531 113.75708008 C51.73752396 113.76008621 52.6811026 113.76309235 53.65327454 113.76618958 C58.45853381 113.70506639 61.98306827 113.6151098 65.80078125 110.34057617 C66.97742996 106.81063004 66.99928728 104.04602204 66.80078125 100.34057617 C66.14078125 99.35057617 65.48078125 98.36057617 64.80078125 97.34057617 C61.63727895 96.88133533 61.63727895 96.88133533 57.84765625 96.95581055 C57.13190933 96.95043777 56.41616241 96.945065 55.6787262 96.93952942 C54.12093814 96.92973188 52.56309538 96.92681323 51.00527954 96.92988586 C48.53214551 96.93435988 46.05972881 96.9203716 43.58666992 96.90148926 C38.32471904 96.86463848 33.06284211 96.85100844 27.80078125 96.84057617 C21.72879612 96.82846755 15.65715757 96.80665454 9.58532715 96.76057434 C7.16253687 96.7471001 4.74019525 96.75115991 2.31738281 96.75598145 C-11.92640324 96.70480879 -22.14962472 93.96297829 -32.82421875 84.21557617 C-43.4395697 73.05711425 -47.63063563 58.84300443 -47.4765625 43.77807617 C-46.46686571 31.26352447 -39.53402772 17.73638069 -30.19921875 9.34057617 C-20.41527923 2.29485868 -11.90512785 -0.11450785 0 0 Z " fill="#FCFDFE" transform="translate(819.19921875,653.659423828125)"/>
<path d="M0 0 C1.5985231 -0.002062 1.5985231 -0.002062 3.2293396 -0.00416565 C4.39315155 -0.00057037 5.5569635 0.0030249 6.75604248 0.00672913 C7.98557648 0.0065831 9.21511047 0.00643707 10.48190308 0.00628662 C13.84935148 0.00686374 17.21673852 0.01187762 20.58417606 0.01886058 C24.10490297 0.0251136 27.6256307 0.02569946 31.1463623 0.02688599 C37.81152202 0.02999355 44.47666532 0.0381992 51.14181781 0.04823548 C58.73063936 0.05941445 66.3194617 0.06491156 73.90828943 0.06993091 C89.5173823 0.08038229 105.12645256 0.09872064 120.73553467 0.12025452 C120.40553467 12.99025452 120.07553467 25.86025452 119.73553467 39.12025452 C115.26228638 39.1421283 115.26228638 39.1421283 110.69866943 39.16444397 C100.82790992 39.21485881 90.95730701 39.2814662 81.08670139 39.35596943 C75.1041811 39.4006309 69.12172824 39.43989652 63.13909912 39.46669006 C57.36180242 39.49276488 51.58476582 39.53319731 45.80763054 39.58344078 C43.60735251 39.60008116 41.40702952 39.611613 39.20669746 39.61786842 C36.11650675 39.62754011 33.02697726 39.65563677 29.93695068 39.68788147 C28.58287613 39.68572884 28.58287613 39.68572884 27.20144653 39.68353271 C20.32809617 39.78447011 13.44926514 40.54568971 8.29803467 45.43275452 C4.76888756 51.50288754 4.42767591 56.95177578 4.43475342 63.79603577 C4.42832573 65.18292854 4.42832573 65.18292854 4.42176819 66.59783936 C4.41604211 68.54858077 4.41551189 70.49934353 4.41986084 72.4500885 C4.42301342 75.41278627 4.39956557 78.3744774 4.37420654 81.33705139 C4.37193243 83.24004494 4.37123057 85.14304114 4.37225342 87.04603577 C4.36304367 87.92133438 4.35383392 88.796633 4.34434509 89.69845581 C4.38727642 95.4939076 5.09720164 100.88352607 7.73553467 106.12025452 C11.94354603 109.62693065 15.55903981 111.23462833 20.99984741 111.27174377 C21.86918411 111.28008743 22.73852081 111.28843109 23.63420105 111.29702759 C25.06035484 111.30330421 25.06035484 111.30330421 26.51531982 111.30970764 C27.51876938 111.31800095 28.52221893 111.32629425 29.55607605 111.33483887 C31.73648115 111.35224565 33.91690503 111.36741075 36.09733963 111.38061523 C39.54241112 111.40161309 42.98738781 111.42863653 46.43240356 111.45729065 C54.9865042 111.52718295 63.54067188 111.58661639 72.09484863 111.64631653 C79.32418228 111.69715139 86.55346434 111.75193832 93.78272629 111.81213379 C97.18687175 111.83880686 100.59102177 111.85955945 103.99520874 111.88014221 C106.06832104 111.89673647 108.14143116 111.91360753 110.21453857 111.93080139 C111.64676506 111.93707802 111.64676506 111.93707802 113.10792542 111.94348145 C114.40347099 111.95599693 114.40347099 111.95599693 115.72518921 111.96876526 C116.85729796 111.97649586 116.85729796 111.97649586 118.0122776 111.98438263 C119.73553467 112.12025452 119.73553467 112.12025452 120.73553467 113.12025452 C120.83660341 115.99289508 120.87523139 118.8409908 120.86834717 121.71400452 C120.86930389 122.57586365 120.87026062 123.43772278 120.87124634 124.32569885 C120.87192816 126.15158664 120.87007371 127.97747683 120.86590576 129.80335999 C120.86055753 132.6082653 120.86585066 135.41301047 120.87225342 138.21791077 C120.87159264 139.98744237 120.87031148 141.75697388 120.86834717 143.52650452 C120.8703714 144.37128357 120.87239563 145.21606262 120.8744812 146.08644104 C120.85048498 152.0053042 120.85048498 152.0053042 119.73553467 153.12025452 C118.17667548 153.22267099 116.61319073 153.25545001 115.05097961 153.26069641 C114.03752975 153.26640656 113.0240799 153.2721167 111.97991943 153.27799988 C110.85843506 153.27911774 109.73695068 153.2802356 108.58148193 153.28138733 C106.82045387 153.28883469 106.82045387 153.28883469 105.02384949 153.2964325 C101.79192952 153.30857059 98.5600458 153.31600838 95.32810712 153.32044315 C93.30668117 153.32337265 91.28526091 153.32747748 89.26383781 153.33194733 C82.93347593 153.34563719 76.60312705 153.35529339 70.27275139 153.35914922 C62.97778411 153.3636171 55.68300541 153.38109923 48.38809544 153.41014981 C42.74464972 153.43183815 37.10125673 153.44185749 31.45776981 153.44319034 C28.09049707 153.44423437 24.72340122 153.45005441 21.35617256 153.46800995 C17.58868457 153.48513495 13.82164971 153.48317341 10.05413818 153.47669983 C8.39923874 153.490522 8.39923874 153.490522 6.71090698 153.50462341 C-5.17106051 153.44092425 -15.60202631 150.2109606 -24.49493408 142.08119202 C-36.829503 128.98294435 -38.7404332 113.48067383 -38.66290283 96.21791077 C-38.66493014 94.60710519 -38.66784699 92.99630052 -38.67160034 91.38549805 C-38.67599415 88.02786931 -38.66968944 84.67048188 -38.65557861 81.31288147 C-38.63850231 77.04553245 -38.64833675 72.77875038 -38.66629601 68.51142216 C-38.677226 65.19019432 -38.67364546 61.86909706 -38.66591263 58.54786491 C-38.66393524 56.9760627 -38.66628151 55.40424796 -38.67335129 53.8324604 C-38.73106372 37.399711 -36.43633266 22.90997701 -25.07696533 10.24525452 C-18.29611369 3.95755572 -9.21654478 -0.00917983 0 0 Z " fill="#FDFEFE" transform="translate(637.2644653320313,653.8797454833984)"/>
<path d="M0 0 C23.70748882 20.60293672 39.56987903 48.09802586 42.49609375 79.72167969 C44.47414854 112.28350468 35.76231062 144.29068248 13.99609375 168.97167969 C12.50473096 170.56315117 11.00493886 172.14677306 9.49609375 173.72167969 C8.81160156 174.46933594 8.12710938 175.21699219 7.421875 175.98730469 C-10.07589455 194.48771907 -33.80359916 204.28521676 -58.50390625 208.72167969 C-59.52742187 208.90730469 -60.5509375 209.09292969 -61.60546875 209.28417969 C-94.16293022 212.93792286 -126.27808289 205.79137355 -152.50390625 185.72167969 C-156.6697661 182.22865631 -160.59051367 178.49224772 -164.50390625 174.72167969 C-165.14972656 174.13902344 -165.79554688 173.55636719 -166.4609375 172.95605469 C-184.5895697 156.14355269 -193.3974643 131.44470579 -197.50390625 107.72167969 C-197.68953125 106.77550781 -197.87515625 105.82933594 -198.06640625 104.85449219 C-202.12632087 75.78260358 -194.09243686 45.32865818 -177.01928711 21.62402344 C-157.41960441 -4.28081394 -128.80624247 -21.88227984 -96.50463867 -26.56835938 C-62.18037758 -30.81937207 -26.66529616 -22.66550173 0 0 Z M-104.50390625 -5.27832031 C-105.4990625 -5.01148438 -106.49421875 -4.74464844 -107.51953125 -4.46972656 C-132.91369441 3.16889203 -154.7555988 20.53481872 -167.48144531 43.78417969 C-175.4003603 58.79003197 -179.21656927 73.83988163 -178.97045898 90.68603516 C-178.94131268 92.85363869 -178.94995557 95.01880374 -178.96289062 97.18652344 C-178.92362427 123.60960227 -168.40286577 144.30985051 -150.32421875 162.97167969 C-128.51872158 183.37833364 -101.28823459 191.45990798 -71.90625 191.06542969 C-47.66475946 190.18936317 -26.51952607 179.41817733 -8.50390625 163.72167969 C-7.87871094 163.1815625 -7.25351562 162.64144531 -6.609375 162.08496094 C9.843854 146.78769651 20.50388747 122.94041473 21.65722656 100.60058594 C21.70314382 96.97419052 21.73136619 93.34834137 21.74609375 89.72167969 C21.76671875 88.48289062 21.78734375 87.24410156 21.80859375 85.96777344 C21.91975578 59.31667625 10.28572422 36.93536026 -7.9765625 18.18261719 C-29.63636796 -2.31495481 -57.77328724 -9.16681083 -86.70166016 -8.41894531 C-92.81580314 -8.11211953 -98.60380715 -6.90861085 -104.50390625 -5.27832031 Z " fill="#FBFDFE" transform="translate(589.50390625,296.2783203125)"/>
<path d="M0 0 C1.08381454 -0.00043808 2.16762909 -0.00087616 3.2842865 -0.00132751 C6.84465944 0.00075221 10.40455369 0.0240453 13.96484375 0.04760742 C16.44205468 0.05320626 18.91926893 0.057475 21.39648438 0.06047058 C27.9000982 0.07189657 34.4035094 0.1013447 40.90704346 0.13458252 C47.54998404 0.16533171 54.1929445 0.17898627 60.8359375 0.1940918 C73.85817603 0.22621636 86.8802113 0.27896622 99.90234375 0.34057617 C99.90234375 11.56057617 99.90234375 22.78057617 99.90234375 34.34057617 C95.8817981 34.36244995 95.8817981 34.36244995 91.7800293 34.38476562 C82.93500358 34.43504918 74.09015506 34.50163301 65.24530315 34.57629108 C59.88140546 34.62106397 54.51758494 34.66030476 49.15356445 34.68701172 C43.97927482 34.71297575 38.80528107 34.75332893 33.63117409 34.80376244 C31.65481045 34.82047796 29.67839557 34.83196296 27.70197105 34.83819008 C24.93861062 34.84778035 22.17601525 34.87577813 19.4128418 34.90820312 C18.5914119 34.90676804 17.76998199 34.90533295 16.92366028 34.90385437 C11.81825043 34.98230615 11.81825043 34.98230615 7.90234375 38.34057617 C7.57234375 45.27057617 7.24234375 52.20057617 6.90234375 59.34057617 C33.96234375 59.34057617 61.02234375 59.34057617 88.90234375 59.34057617 C88.90234375 69.90057617 88.90234375 80.46057617 88.90234375 91.34057617 C85.27504272 91.3781604 85.27504272 91.3781604 81.57446289 91.41650391 C73.60360393 91.49981031 65.63281175 91.58851744 57.66204166 91.67991543 C52.82720838 91.73518745 47.9923691 91.78861414 43.1574707 91.83789062 C38.49551891 91.88547125 33.83364308 91.9378115 29.17178154 91.99351692 C27.3891227 92.01396913 25.606443 92.03267737 23.82374763 92.04965019 C21.33562774 92.07363103 18.84765277 92.10369377 16.35961914 92.13525391 C15.24292343 92.1438871 15.24292343 92.1438871 14.10366821 92.1526947 C10.71520892 91.90506927 10.71520892 91.90506927 7.90234375 93.34057617 C7.77943657 94.99701983 7.72450467 96.6585661 7.69702148 98.31933594 C7.67707626 99.38036026 7.65713104 100.44138458 7.63658142 101.53456116 C7.61151268 103.26578468 7.61151268 103.26578468 7.5859375 105.03198242 C7.5651564 106.20695786 7.54437531 107.38193329 7.52296448 108.59251404 C7.45734251 112.36263941 7.39852545 116.13283699 7.33984375 119.90307617 C7.29667055 122.4519119 7.25305667 125.00074021 7.20898438 127.54956055 C7.10081535 133.81315936 7.00183582 140.07680937 6.90234375 146.34057617 C-6.29765625 146.34057617 -19.49765625 146.34057617 -33.09765625 146.34057617 C-33.16550464 130.73683814 -33.22071427 115.13321792 -33.25309277 99.52937508 C-33.26852952 92.28344549 -33.28955757 85.0376144 -33.32397461 77.79174805 C-33.35397518 71.47264755 -33.37325442 65.15361843 -33.37992173 58.8344487 C-33.38381611 55.49169346 -33.3944998 52.14930325 -33.41484642 48.8065834 C-33.43670758 45.06535116 -33.43961946 41.32453807 -33.43823242 37.58325195 C-33.44901825 36.48776535 -33.45980408 35.39227875 -33.47091675 34.26359558 C-33.4285696 23.66796662 -31.30317084 15.26296593 -24.09765625 7.34057617 C-17.10394867 0.53091353 -9.26217035 -0.09899244 0 0 Z " fill="#FEFEFE" transform="translate(334.09765625,833.659423828125)"/>
<path d="M0 0 C1.91482056 -0.0715534 3.82876632 -0.17364881 5.74023438 -0.30761719 C21.08670841 -1.3614466 21.08670841 -1.3614466 25.74145508 2.39434814 C28.94796431 6.15237594 31.03802303 10.41380894 33.02896118 14.90701294 C34.30834432 17.73008883 35.89124827 20.3368211 37.49584961 22.9855957 C38.52936483 24.80575606 39.55805824 26.6286632 40.58178711 28.4543457 C41.1302832 29.42847412 41.6787793 30.40260254 42.24389648 31.40625 C47.32258085 40.4906046 51.96646841 49.7436838 56.48022461 59.1184082 C56.92624023 60.03364258 57.37225586 60.94887695 57.83178711 61.8918457 C58.20045898 62.66399414 58.56913086 63.43614258 58.94897461 64.23168945 C59.84745999 66.12726034 59.84745999 66.12726034 61.95678711 66.9543457 C62.17850586 66.17833008 62.40022461 65.40231445 62.62866211 64.6027832 C64.41374282 59.69906149 66.78105147 55.19362701 69.20678711 50.5793457 C69.99110107 49.08032715 69.99110107 49.08032715 70.79125977 47.55102539 C75.8266048 38.02614002 81.23746699 28.73639085 86.73022461 19.4699707 C89.51408201 14.76812113 92.12785387 9.99056695 94.68188477 5.16040039 C95.95678711 2.9543457 95.95678711 2.9543457 97.95678711 0.9543457 C100.96987662 0.77888088 103.88989165 0.72307125 106.90209961 0.7590332 C108.22961746 0.76327805 108.22961746 0.76327805 109.58395386 0.76760864 C112.41670123 0.7788233 115.24913495 0.80393 118.08178711 0.8293457 C119.9997513 0.83937385 121.91772044 0.84849999 123.83569336 0.85668945 C128.54284587 0.87876681 133.24976327 0.91330525 137.95678711 0.9543457 C138.95678711 3.9543457 138.95678711 3.9543457 137.54272461 7.0090332 C136.81750085 8.28920188 136.07939041 9.56211618 135.33178711 10.8293457 C134.72488037 11.8812207 134.72488037 11.8812207 134.10571289 12.9543457 C129.16427079 21.44334763 123.95837933 29.77405305 118.74536133 38.09790039 C116.8966974 41.05031208 115.05322894 44.00591857 113.21069336 46.9621582 C108.37854206 54.71007071 103.54478299 62.45683677 98.65600586 70.16918945 C98.13530518 70.99080566 97.61460449 71.81242188 97.078125 72.65893555 C96.1376886 74.14086323 95.19569759 75.62180667 94.25146484 77.10131836 C93.34351954 78.53109257 92.45283327 79.97192487 91.57666016 81.42138672 C89.95678711 83.9543457 89.95678711 83.9543457 87.65917969 86.95410156 C79.18924837 98.54815243 79.51435086 110.46142428 79.39428711 124.3918457 C79.34288343 126.68425502 79.28757412 128.97658025 79.22827148 131.26879883 C79.08552372 136.8319405 79.02292987 142.38768567 78.95678711 147.9543457 C66.08678711 147.9543457 53.21678711 147.9543457 39.95678711 147.9543457 C39.98901367 144.83094727 40.02124023 141.70754883 40.05444336 138.48950195 C40.05502833 135.40446518 40.0401762 132.31985219 40.02392578 129.23486328 C40.02087715 127.11991654 40.03343109 125.00487911 40.06298828 122.89013672 C40.24654552 108.809628 38.87596227 98.58982847 31.09255981 86.69802856 C29.50212255 84.25632682 28.08893757 81.72129706 26.65600586 79.18481445 C25.65633082 77.50130515 24.65243334 75.82029586 23.64428711 74.1418457 C23.09651611 73.22226074 22.54874512 72.30267578 21.984375 71.35522461 C20.31299436 68.55222251 18.635616 65.75289172 16.95678711 62.9543457 C15.93066933 61.2395475 14.90462552 59.52470503 13.87866211 57.80981445 C10.91085514 52.85428723 7.93465966 47.90382899 4.95678711 42.9543457 C1.43517816 37.10075409 -2.08289396 31.24510308 -5.58959961 25.38256836 C-6.56624464 23.75110858 -7.54445937 22.12058754 -8.52416992 20.4909668 C-9.93140172 18.14840341 -11.33188036 15.80193168 -12.73071289 13.4543457 C-13.15304199 12.75414307 -13.57537109 12.05394043 -14.01049805 11.33251953 C-15.84026868 8.24712133 -17.42685596 5.50531159 -18.04321289 1.9543457 C-14.95213779 -1.13672939 -4.3265105 0.12847377 0 0 Z " fill="#FCFDFE" transform="translate(591.043212890625,833.045654296875)"/>
<path d="M0 0 C12.87 0 25.74 0 39 0 C39.06058594 4.62386719 39.12117188 9.24773438 39.18359375 14.01171875 C39.40347328 30.56185767 39.64585925 47.11161599 39.90279007 63.6612196 C39.9709456 68.06284024 40.03545858 72.46449407 40.09716797 76.86621094 C40.16098291 81.34031719 40.23793441 85.81390992 40.33084106 90.2875061 C40.36005904 91.79276701 40.38428621 93.29813384 40.40328979 94.80355835 C40.42976312 96.82889728 40.47595301 98.85395098 40.5234375 100.87890625 C40.5531665 102.49647827 40.5531665 102.49647827 40.58349609 104.14672852 C41.09111192 107.62416474 41.72982859 109.29461104 44 112 C46.89851296 112.51196581 49.22369681 112.68139525 52.12744141 112.64355469 C53.36926933 112.6568708 53.36926933 112.6568708 54.63618469 112.67045593 C57.37504966 112.69417488 60.11263573 112.68294014 62.8515625 112.671875 C64.75061441 112.68244857 66.64965464 112.69535752 68.54867554 112.71051025 C73.54937188 112.74477308 78.54967831 112.75009084 83.55047607 112.74859619 C90.60797563 112.7518186 97.6653659 112.79441637 104.7227478 112.83233643 C108.48323694 112.85242357 112.24351824 112.86168729 116.00405884 112.86248779 C117.71315517 112.86630661 119.42225145 112.87015045 121.13134766 112.87402344 C122.3111042 112.87087379 122.3111042 112.87087379 123.51469421 112.86766052 C128.88699285 112.88699285 128.88699285 112.88699285 130 114 C130.10023409 116.26774891 130.13081341 118.53863163 130.1328125 120.80859375 C130.13376923 121.49051285 130.13472595 122.17243195 130.13571167 122.87501526 C130.13639339 124.32007947 130.13453969 125.76514672 130.13037109 127.21020508 C130.12503084 129.42471193 130.13031205 131.63901519 130.13671875 133.85351562 C130.13605781 135.25520878 130.13477631 136.65690181 130.1328125 138.05859375 C130.13168457 139.34048584 130.13055664 140.62237793 130.12939453 141.94311523 C130 145 130 145 129 147 C116.1861738 147.06974493 103.37239333 147.12293522 90.55841541 147.15543652 C84.60731578 147.17104149 78.65634676 147.19218482 72.70532227 147.22631836 C66.9540702 147.25909676 61.20294317 147.27689181 55.45160484 147.28463173 C53.26574424 147.29014221 51.07988989 147.30090216 48.89408302 147.31719017 C17.77053779 147.53972974 17.77053779 147.53972974 8.421875 138.46875 C2.20415996 131.8284718 -0.12969049 123.85441332 -0.12025452 114.84306335 C-0.12231651 113.31820564 -0.12231651 113.31820564 -0.12442017 111.76254272 C-0.12082489 110.65843048 -0.11722961 109.55431824 -0.11352539 108.41674805 C-0.11367142 107.24558945 -0.11381744 106.07443085 -0.1139679 104.86778259 C-0.11327157 100.99907576 -0.10549222 97.13041716 -0.09765625 93.26171875 C-0.09579108 90.57843443 -0.09431844 87.89515278 -0.09336853 85.21186829 C-0.0902633 78.87256835 -0.08206082 72.53328571 -0.07201904 66.19399339 C-0.06083279 58.97515383 -0.05534112 51.75631343 -0.05032361 44.53746736 C-0.03987753 29.69163411 -0.0215421 14.8458218 0 0 Z " fill="#FCFDFE" transform="translate(461,834)"/>
<path d="M0 0 C13.86 0 27.72 0 42 0 C42 50.49 42 100.98 42 153 C28.14 153 14.28 153 0 153 C0 102.51 0 52.02 0 0 Z " fill="#FBFDFE" transform="translate(92,654)"/>
<path d="M0 0 C4.38479468 1.46159823 5.38983075 4.86613877 7.4375 8.75 C8.33448916 10.40963777 9.23298707 12.06846079 10.1328125 13.7265625 C10.60235352 14.59571289 11.07189453 15.46486328 11.55566406 16.36035156 C13.90556178 20.65499222 16.36405297 24.88604801 18.8125 29.125 C23.77343164 37.755464 28.55084136 46.47652219 33.26904297 55.24169922 C36.60698546 61.44102313 39.99578951 67.60775901 43.4375 73.75 C54 92.65763307 54 92.65763307 54 96 C46.50325651 93.53974274 39.06155544 90.93096333 31.62573242 88.29370117 C29.57087763 87.565469 27.51495537 86.84030828 25.45898438 86.11523438 C24.79168304 85.87872162 24.12438171 85.64220886 23.43685913 85.39852905 C22.11445947 84.92991415 20.79124335 84.46359647 19.4671936 83.99966431 C15.01464937 82.42200791 10.73731256 80.60930746 6.51928711 78.48413086 C-0.27905579 77.17769477 -7.87824194 80.85360472 -14.19921875 83.15234375 C-15.45724052 83.60354332 -15.45724052 83.60354332 -16.74067688 84.06385803 C-18.49871757 84.6957913 -20.25580506 85.33038223 -22.01196289 85.9675293 C-24.68844641 86.9378431 -27.3683408 87.89823149 -30.04882812 88.85742188 C-31.7658355 89.47597851 -33.48263958 90.09509979 -35.19921875 90.71484375 C-35.99309494 90.9993187 -36.78697113 91.28379364 -37.60490417 91.57688904 C-41.89804504 93.14035136 -45.91261861 94.94487688 -50 97 C-50.66 97 -51.32 97 -52 97 C-51.45832769 92.48620301 -50.31495764 89.26220837 -48.078125 85.31640625 C-47.47162109 84.23617187 -46.86511719 83.1559375 -46.24023438 82.04296875 C-45.57697806 80.8827238 -44.91356253 79.72256985 -44.25 78.5625 C-43.56493752 77.34941975 -42.880704 76.135871 -42.19726562 74.921875 C-40.46597337 71.85114614 -38.72471768 68.78620572 -36.98022461 65.72296143 C-35.52844328 63.17113483 -34.08446412 60.6149205 -32.640625 58.05859375 C-31.07141588 55.28045681 -29.50154374 52.50272307 -27.92797852 49.72705078 C-23.63767032 42.15452884 -19.40672202 34.54974482 -15.1875 26.9375 C-10.18934677 17.92048841 -5.16295925 8.92383692 0 0 Z " fill="#FCFDFE" transform="translate(510,336)"/>
<path d="M0 0 C0.33 0.66 0.66 1.32 1 2 C0.28735352 3.87939453 0.28735352 3.87939453 -0.87109375 6.1328125 C-1.48500977 7.34130859 -1.48500977 7.34130859 -2.11132812 8.57421875 C-2.54896484 9.41597656 -2.98660156 10.25773438 -3.4375 11.125 C-3.87126953 11.97449219 -4.30503906 12.82398438 -4.75195312 13.69921875 C-5.82759468 15.80322092 -6.91050766 17.9031458 -8 20 C-8.99 19.67 -9.98 19.34 -11 19 C-11 18.34 -11 17.68 -11 17 C-10.01 17 -9.02 17 -8 17 C-7.690625 15.8553125 -7.690625 15.8553125 -7.375 14.6875 C-5.44105609 9.50101406 -2.7214854 4.80966916 0 0 Z " fill="#0661D6" transform="translate(661,880)"/>
<path d="M0 0 C0.99 0.33 1.98 0.66 3 1 C-0.465 3.97 -0.465 3.97 -4 7 C-4.66 6.67 -5.32 6.34 -6 6 C-4.02 4.02 -2.04 2.04 0 0 Z " fill="#0365D7" transform="translate(445,312)"/>
<path d="M0 0 C3.36720387 1.39332574 4.9859524 2.9789286 7 6 C4 6 4 6 1.8125 4.125 C0 2 0 2 0 0 Z " fill="#2378DC" transform="translate(709,369)"/>
</svg>
