<?xml version="1.0" encoding="utf-8"?>
<!-- Generator: Adobe Illustrator 21.0.2, SVG Export Plug-In . SVG Version: 6.00 Build 0)  -->
<svg version="1.1" id="Layer_1" xmlns="http://www.w3.org/2000/svg" xmlns:xlink="http://www.w3.org/1999/xlink" x="0px" y="0px"
	 viewBox="0 0 72 72" style="enable-background:new 0 0 72 72;" xml:space="preserve">
<style type="text/css">
	.st0{fill:none;stroke:#FFFFFF;stroke-width:3;stroke-miterlimit:10;}
	.st1{fill:none;stroke:#FFFFFF;stroke-width:4;stroke-linecap:round;stroke-miterlimit:10;}
</style>
<g>
	<path class="st0" d="M11.301,25.324c-0.002,0-0.003-0.001-0.005-0.002c-0.661-0.209-1.373,0.125-1.635,0.767
		c-0.263,0.645,0.015,1.383,0.637,1.694l17.549,8.787l-6.483,1.559c-0.471,0.113-0.809,0.527-0.826,1.011
		c-0.017,0.484,0.291,0.92,0.753,1.066l3.924,1.24c0.113,0.036,0.23,0.053,0.349,0.05l15.64-0.341l14.367,4.514
		c5.503,1.648,6.57-0.248,6.766-0.868c0.152-0.481,0.209-1.273-0.383-2.314c-0.601-1.056-1.738-2.157-3.476-3.365
		c-0.58-0.403-0.844-0.682-1.124-0.978c-0.983-1.038-1.736-1.656-6.908-3.291l-28.289-8.941l-3.472-10.965
		c-0.131-0.413-0.455-0.737-0.869-0.868l-1.849-0.584c-0.381-0.12-0.795-0.064-1.129,0.154c-0.334,0.218-0.553,0.575-0.597,0.971
		l-1.231,11.251L11.301,25.324z"/>
	<line class="st1" x1="7.607" y1="58.566" x2="64.393" y2="58.566"/>
</g>
</svg>
