<?xml version="1.0" encoding="utf-8"?>
<!-- Generator: Adobe Illustrator 19.1.0, SVG Export Plug-In . SVG Version: 6.00 Build 0)  -->
<svg version="1.1" id="Layer_1" xmlns="http://www.w3.org/2000/svg" xmlns:xlink="http://www.w3.org/1999/xlink" x="0px" y="0px"
	 viewBox="194 896 72 72" style="enable-background:new 194 896 72 72;" xml:space="preserve">
<style type="text/css">
	.st0{fill:#FFFFFF;}
</style>
<path class="st0" d="M194,943.5c-0.1-0.9,0.2-1.6,1-2l67.5-45c0.4-0.3,0.8-0.4,1.3-0.4s0.9,0.1,1.3,0.4c0.7,0.5,1.1,1.2,1,2.2
	l-11.2,67.5c-0.2,0.7-0.6,1.2-1.1,1.5c-0.4,0.2-0.7,0.3-1.1,0.3c-0.3,0-0.6,0-0.8-0.1l-21.8-8.7l-4.6,7.7c-0.5,0.7-1.1,1.1-2,1.1
	s-1.5-0.4-2-1.1l-8.3-14.5l-17.6-7C194.6,945,194.1,944.3,194,943.5L194,943.5z M201,942.7l13.6,5.5c0.1,0.1,0.2,0.2,0.4,0.3
	l0.2,0.1l38-40.6L201,942.7z M216.9,950.1l6.3,11l36.3-56.6L216.9,950.1z M230.1,954.6c0.6,0.1,1,0.2,1.4,0.3l19.1,7.7l9-53.8
	L230.1,954.6z"/>
</svg>
