<?xml version="1.0" standalone="no"?>
<!DOCTYPE svg PUBLIC "-//W3C//DTD SVG 20010904//EN"
 "http://www.w3.org/TR/2001/REC-SVG-20010904/DTD/svg10.dtd">
<svg version="1.0" xmlns="http://www.w3.org/2000/svg"
 width="1797.000000pt" height="1636.000000pt" viewBox="0 0 1797.000000 1636.000000"
 preserveAspectRatio="xMidYMid meet">

<g transform="translate(0.000000,1636.000000) scale(0.100000,-0.100000)"
fill="#000000" stroke="none">
<path d="M7825 16350 c-1893 -107 -3658 -827 -5064 -2066 -275 -242 -606 -580
-842 -861 l-95 -113 -194 -4 c-216 -5 -314 -20 -482 -76 -221 -73 -382 -211
-464 -397 -62 -140 -90 -375 -60 -513 27 -128 109 -278 213 -391 l53 -57 -61
-123 c-406 -821 -676 -1748 -778 -2674 -37 -330 -46 -504 -45 -895 0 -391 9
-569 45 -895 184 -1665 883 -3236 2004 -4505 165 -186 509 -530 695 -695 1809
-1598 4225 -2332 6618 -2009 572 77 1161 221 1699 415 1405 507 2628 1366
3579 2514 710 858 1257 1903 1559 2982 l49 172 54 12 c61 12 384 120 507 169
297 117 698 390 930 631 104 109 160 189 191 274 49 134 44 214 -18 281 -48
53 -11 39 -790 295 l-618 203 0 156 c-1 1006 -203 2061 -572 2985 -522 1308
-1344 2432 -2434 3326 -1213 995 -2722 1632 -4294 1814 -389 44 -1022 65
-1385 45z m633 -247 l53 -6 -6 -126 c-3 -69 -8 -147 -11 -173 l-5 -47 52 26
c101 53 241 39 306 -30 70 -73 75 -107 61 -429 l-12 -268 -79 0 -78 0 8 178
c4 97 8 226 8 285 0 107 -1 109 -28 133 -22 19 -39 24 -83 24 -61 0 -96 -15
-134 -55 -24 -26 -25 -32 -37 -273 -6 -136 -12 -253 -12 -259 -1 -9 -23 -13
-76 -13 l-75 0 0 63 c0 34 9 247 20 472 11 226 20 431 20 458 0 53 1 53 108
40z m791 -95 c36 -6 68 -13 69 -14 4 -2 30 -549 32 -659 1 -49 4 -45 160 273
133 270 162 323 177 318 10 -3 39 -8 65 -11 l47 -7 6 -52 c8 -72 55 -626 55
-651 0 -11 63 126 140 304 77 178 141 326 144 328 5 5 139 -19 148 -27 7 -5
-384 -893 -402 -913 -4 -4 -36 -3 -72 4 l-66 12 -5 41 c-3 23 -18 182 -33 354
-16 171 -31 312 -34 312 -3 0 -76 -142 -163 -315 -88 -177 -163 -315 -170
-315 -8 0 -39 5 -70 11 -69 14 -60 -37 -87 504 -11 226 -22 434 -25 463 -6 59
-10 57 84 40z m-1256 -214 c69 -23 141 -93 166 -160 36 -94 28 -104 -75 -104
-51 0 -52 0 -58 34 -14 74 -99 125 -179 107 -95 -22 -131 -82 -131 -221 0
-142 33 -219 111 -259 34 -17 100 -13 143 9 42 21 60 46 70 95 6 30 7 30 78
33 l72 3 0 -37 c0 -54 -34 -117 -91 -168 -62 -56 -121 -76 -220 -76 -68 0 -85
4 -140 33 -118 60 -169 157 -176 332 -4 95 -2 119 17 175 24 73 54 117 106
157 78 59 212 80 307 47z m-549 -32 c3 -5 8 -39 12 -75 l7 -67 -43 0 c-59 0
-123 -32 -144 -73 -17 -31 -17 -40 18 -281 20 -137 36 -252 36 -257 0 -6 -100
-22 -145 -24 -10 0 -115 724 -105 730 3 2 38 7 78 10 71 7 72 7 72 -16 l0 -23
28 27 c15 14 43 33 62 41 38 16 116 21 124 8z m3161 -57 c55 -54 16 -145 -60
-145 -53 0 -100 48 -91 92 15 76 100 105 151 53z m-3844 -80 c54 -19 106 -67
129 -120 10 -22 39 -126 64 -232 25 -105 56 -214 70 -242 15 -28 26 -54 26
-59 0 -5 -33 -16 -72 -25 -73 -16 -73 -16 -91 7 l-18 22 -37 -35 c-57 -53
-115 -75 -202 -75 -65 -1 -82 3 -123 27 -56 33 -92 83 -106 149 -33 148 77
268 289 314 41 9 76 17 77 18 1 1 -2 19 -8 40 -16 58 -52 86 -111 86 -88 0
-152 -48 -150 -112 1 -24 -5 -29 -41 -39 -23 -6 -58 -12 -77 -13 -33 -1 -35 1
-38 33 -4 44 23 114 61 157 81 93 246 138 358 99z m3741 -145 l65 -20 -104
-342 c-57 -189 -105 -348 -107 -354 -5 -14 -146 25 -146 41 -1 28 206 695 216
695 7 0 41 -9 76 -20z m-4485 -65 c77 -23 144 -89 192 -188 22 -45 43 -92 46
-104 7 -24 22 -17 -260 -118 -88 -31 -164 -61 -169 -66 -5 -5 0 -22 14 -42 89
-130 276 -108 342 40 l18 42 59 -20 60 -20 -13 -44 c-25 -81 -89 -149 -181
-192 -52 -24 -72 -28 -150 -28 -81 0 -95 3 -143 29 -174 97 -261 359 -180 538
66 142 221 216 365 173z m4876 -62 c19 -6 21 -16 8 -42 -9 -16 -3 -17 72 -13
62 3 92 0 122 -12 125 -52 180 -146 155 -263 -16 -73 -193 -523 -206 -523 -14
0 -115 40 -127 50 -5 4 32 111 81 237 50 127 93 245 96 264 8 45 -10 78 -59
106 -51 29 -99 29 -155 1 l-43 -23 -95 -241 -94 -241 -70 26 c-38 15 -70 29
-71 32 -1 2 58 158 132 346 l134 342 51 -21 c28 -11 59 -23 69 -25z m-5695
-36 c66 -18 126 -59 163 -114 l29 -42 -22 -15 c-13 -8 -44 -25 -70 -37 l-48
-23 -35 42 c-48 55 -96 69 -169 48 -141 -41 -205 -158 -133 -241 38 -45 112
-49 286 -15 69 13 185 13 233 0 59 -17 119 -69 152 -133 57 -111 32 -222 -71
-318 -168 -157 -418 -180 -537 -49 -66 73 -66 75 15 116 67 33 73 35 82 18 53
-94 172 -104 295 -25 96 63 116 142 54 212 -38 43 -86 46 -256 19 -146 -24
-227 -23 -288 3 -127 53 -185 213 -124 342 43 94 151 178 267 209 69 19 112
19 177 3z m6537 -330 c54 -20 116 -68 145 -114 27 -42 29 -44 41 -25 12 20 14
19 76 -11 35 -17 63 -34 63 -37 0 -14 -343 -640 -372 -679 -18 -25 -57 -58
-88 -75 -49 -28 -64 -31 -135 -31 -67 0 -89 5 -136 28 -104 51 -184 143 -204
235 -6 31 -5 33 39 51 70 31 79 30 86 -4 23 -107 132 -188 229 -170 34 7 111
72 111 95 0 6 -19 10 -43 10 -96 0 -204 67 -249 154 -49 96 -30 252 47 381
104 173 249 245 390 192z m-3095 -338 c1443 -97 2830 -650 3923 -1564 104 -87
126 -109 116 -121 -6 -8 -15 -14 -19 -14 -21 0 -441 -232 -1170 -645 -283
-161 -529 -299 -546 -308 -31 -16 -31 -16 -65 19 -49 50 -177 110 -302 141
l-107 27 -163 -66 c-144 -59 -163 -65 -171 -50 -5 9 -59 105 -119 212 -61 107
-335 596 -609 1085 -274 490 -509 900 -523 912 -58 51 -153 37 -299 -47 -166
-95 -292 -220 -347 -345 -45 -101 -54 -54 240 -1269 149 -615 271 -1124 271
-1130 0 -8 -846 -364 -1002 -421 -10 -4 -866 320 -2130 805 -1162 447 -2138
821 -2168 832 -30 11 -59 24 -63 28 -5 4 52 63 125 130 1210 1115 2752 1741
4443 1804 133 5 519 -3 685 -15z m248 -529 c30 -52 69 -123 88 -157 l35 -62
-100 -53 c-56 -29 -101 -57 -101 -61 0 -7 710 -1288 762 -1374 l19 -33 101 51
c55 27 104 49 109 47 8 -3 279 -481 275 -485 -1 -2 -279 -117 -617 -257 -533
-222 -615 -253 -621 -238 -22 52 -540 2234 -539 2270 2 130 143 289 361 406
70 38 93 46 130 44 l45 -3 53 -95z m518 -924 c206 -367 374 -671 374 -675 0
-3 -38 -26 -85 -51 -55 -30 -87 -42 -94 -35 -8 8 -230 404 -718 1282 l-34 62
83 44 c46 24 87 44 91 43 5 -1 177 -302 383 -670z m-7515 0 c116 -30 1218
-443 1219 -456 0 -3 -69 -26 -152 -50 -84 -24 -157 -45 -161 -48 -5 -2 493
-197 1107 -432 l1116 -428 178 46 177 46 1140 -438 c627 -241 1159 -445 1182
-453 l41 -14 949 389 c521 215 1136 467 1365 562 388 159 421 171 460 165 113
-19 263 -82 307 -129 l21 -22 -288 -158 c-421 -233 -419 -232 -661 -391 -234
-154 -251 -171 -251 -242 1 -46 51 -93 99 -93 25 0 926 449 1091 544 l115 66
3 -58 c2 -31 1 -76 -3 -99 -6 -41 -13 -47 -649 -566 l-644 -526 -373 130
c-263 92 -378 128 -389 121 -8 -5 -16 -21 -18 -36 -3 -22 2 -29 30 -40 18 -8
285 -102 593 -209 1102 -384 1860 -650 1868 -657 5 -4 -66 -47 -157 -96 -91
-49 -162 -92 -158 -95 4 -3 1048 -389 2320 -858 l2313 -852 67 60 c37 33 92
85 122 116 30 31 71 70 91 86 l37 29 368 -126 c203 -69 609 -204 903 -300 293
-95 548 -183 567 -194 65 -41 65 -132 -1 -267 -61 -123 -276 -334 -511 -500
-254 -179 -470 -287 -795 -396 -320 -108 -356 -111 -829 -66 -513 48 -1100
142 -1920 305 -794 158 -1324 280 -1605 369 -1721 544 -3378 1163 -5160 1926
-573 245 -607 256 -705 223 -46 -16 -56 -23 -58 -45 -5 -39 19 -54 64 -39 83
28 136 13 484 -138 179 -77 396 -170 483 -207 87 -37 155 -71 150 -75 -83 -74
-1037 -800 -1268 -965 -582 -417 -1318 -852 -2110 -1248 -884 -441 -1380 -605
-1887 -624 -242 -9 -365 18 -508 113 -94 61 -155 118 -201 185 -37 55 -89 171
-103 230 l-6 27 58 -24 c109 -44 247 -54 472 -34 315 29 641 111 1005 255 446
177 745 354 966 575 185 185 299 367 365 585 24 79 27 108 28 230 1 134 0 143
-28 203 -52 113 -216 243 -399 318 -92 37 -307 95 -431 115 -62 9 -75 14 -64
24 7 7 164 101 348 210 524 310 1353 800 1376 815 12 7 29 26 38 41 35 59 10
125 -68 178 -42 29 -330 159 -846 381 -390 168 -901 397 -1150 515 -534 254
-1125 572 -1410 759 -69 46 -184 122 -257 169 -565 371 -735 663 -628 1082 46
180 166 327 335 408 125 61 267 98 465 121 17 1 77 4 135 4 89 1 124 -4 231
-32z m11204 -162 c-151 -135 -489 -342 -1345 -824 -267 -150 -615 -347 -774
-437 -319 -181 -1242 -648 -1251 -633 -3 5 -2 18 4 27 17 33 463 315 716 454
138 75 419 232 625 349 1276 724 1416 801 1702 945 172 86 329 154 353 154 6
0 -8 -16 -30 -35z m-49 -396 c308 -315 551 -616 780 -963 579 -881 921 -1835
1024 -2863 12 -117 19 -216 16 -219 -7 -7 -527 173 -2266 784 -696 245 -1512
532 -1815 638 -302 106 -562 198 -577 204 l-28 10 30 48 c55 86 94 247 127
523 l8 65 330 271 c281 230 332 277 344 310 9 25 15 80 15 151 l0 112 256 144
c140 80 433 245 650 367 386 218 787 454 892 525 29 19 58 35 64 35 6 0 73
-64 150 -142z m-8843 -314 c1240 -476 1112 -425 1096 -434 -8 -4 -75 -22 -149
-40 l-135 -32 -185 72 c-102 39 -579 222 -1060 407 -481 184 -876 336 -878
338 -1 1 60 20 135 42 76 23 139 41 141 42 2 1 468 -177 1035 -395z m-1908
-1370 c413 -221 953 -476 1666 -785 1014 -439 1054 -459 1054 -503 0 -12 -87
-69 -275 -180 -151 -90 -570 -338 -930 -551 -360 -214 -693 -411 -740 -439
-103 -60 -176 -114 -423 -308 -104 -82 -199 -153 -211 -158 -12 -4 -28 -19
-35 -33 -19 -35 -41 -43 -41 -14 0 46 -11 50 -116 45 -115 -7 -185 -29 -444
-143 l-165 -72 3 -64 c4 -76 41 -417 47 -440 3 -9 -23 -50 -67 -103 -72 -87
-73 -87 -80 -59 -13 50 -47 303 -65 483 -25 247 -25 881 0 1130 68 670 216
1261 467 1865 32 78 190 415 194 415 1 0 73 -39 161 -86z m7940 -291 c-28
-191 -88 -367 -136 -395 -15 -10 -346 102 -342 116 3 9 487 405 491 401 2 -2
-4 -57 -13 -122z m2061 -1269 c1375 -484 2683 -939 3499 -1216 83 -28 152 -53
154 -55 9 -6 -263 -258 -278 -258 -27 0 -4550 1669 -4543 1676 10 9 286 159
293 159 4 0 398 -138 875 -306z m-4541 -937 c1332 -555 3041 -1178 4390 -1600
302 -95 818 -214 1610 -372 321 -64 811 -155 836 -155 11 0 -88 -288 -163
-474 -202 -500 -476 -991 -791 -1416 -83 -112 -84 -115 -64 -127 21 -12 20
-12 -8 -8 -27 5 -35 -1 -81 -63 -142 -187 -467 -533 -699 -746 -1415 -1295
-3363 -1934 -5305 -1740 -1603 160 -3069 854 -4176 1976 -419 424 -732 835
-1025 1345 -84 147 -269 511 -283 559 -6 21 -4 21 85 19 l91 -2 112 -219 c62
-121 139 -264 171 -319 61 -105 232 -374 262 -412 l18 -22 210 125 c366 218
652 351 888 414 109 28 237 53 244 46 2 -2 -26 -22 -61 -46 -91 -58 -186 -162
-230 -250 -20 -40 -36 -81 -36 -91 0 -10 -4 -20 -8 -23 -5 -3 -13 27 -19 65
-6 39 -14 73 -17 76 -13 14 -190 -22 -310 -62 -72 -23 -232 -88 -356 -142
-124 -55 -240 -105 -257 -112 -18 -8 -33 -17 -33 -21 0 -13 200 -276 315 -414
l107 -128 66 7 c129 13 359 56 539 100 394 97 716 218 1333 500 578 264 811
350 1111 411 112 22 169 27 347 32 116 2 212 1 212 -2 0 -4 -15 -19 -32 -34
-66 -54 -191 -178 -225 -225 -49 -66 -74 -137 -74 -213 -1 -34 2 -72 5 -82 11
-32 113 -56 241 -57 133 0 193 17 394 109 142 66 239 102 248 93 3 -3 18 -45
34 -92 62 -183 171 -295 346 -356 32 -11 128 -33 213 -49 l155 -29 165 19
c383 44 724 122 1115 253 236 80 417 151 845 334 428 184 596 251 777 311 150
50 375 107 508 128 122 19 499 31 508 16 4 -5 -19 -29 -51 -53 -101 -76 -226
-209 -258 -274 -36 -74 -48 -210 -20 -238 24 -24 145 -47 249 -47 122 0 211
23 391 101 126 55 269 109 286 109 3 0 12 -23 20 -52 32 -128 108 -244 203
-312 104 -74 180 -100 410 -141 l128 -23 63 82 c136 175 275 378 400 584 60
99 65 112 41 112 -48 0 -153 88 -190 160 -14 28 -18 30 -34 18 -250 -183 -410
-259 -650 -308 -123 -24 -297 -40 -436 -39 l-110 1 55 18 c30 10 181 59 335
109 424 138 621 242 816 428 l96 92 21 -106 c23 -117 62 -207 116 -268 35 -39
36 -40 51 -20 36 45 302 592 293 601 -2 1 -41 -7 -88 -17 -237 -53 -556 -98
-840 -119 -80 -6 -150 -13 -156 -15 -20 -6 -93 -125 -116 -187 -24 -67 -30
-63 -43 30 -7 51 -8 52 -40 52 -115 0 -323 -66 -605 -191 -229 -101 -372 -160
-377 -155 -4 4 313 195 465 281 46 25 137 72 201 104 l118 58 -221 7 c-275 8
-563 29 -859 62 -126 14 -231 23 -234 20 -9 -9 116 -84 170 -102 48 -16 50
-18 27 -26 -14 -6 -71 -8 -127 -6 -90 4 -109 8 -168 37 -38 19 -89 56 -119 85
-28 29 -60 55 -70 59 -11 5 -43 -8 -94 -38 -102 -58 -280 -134 -422 -179 -202
-64 -450 -105 -743 -122 -138 -8 -138 -5 3 -99 95 -64 216 -125 407 -206 158
-67 253 -111 253 -119 0 -14 -306 13 -462 41 -366 65 -563 207 -609 438 -17
88 -6 262 25 386 13 55 23 102 21 104 -2 2 -100 -24 -217 -58 -826 -237 -1264
-271 -1447 -115 -120 103 -133 286 -40 551 16 45 29 84 29 86 0 12 -245 -54
-640 -170 -595 -175 -705 -206 -895 -254 -313 -78 -413 -93 -605 -94 -153 0
-169 2 -218 24 -134 61 -164 181 -93 381 16 46 27 87 25 90 -13 12 -184 2
-249 -15 -157 -40 -369 -138 -765 -352 -329 -179 -696 -358 -888 -434 -87 -35
-91 -35 -65 -6 12 12 34 43 50 69 28 46 31 48 517 292 829 417 1073 525 1408
621 121 34 369 88 376 80 2 -2 -15 -32 -37 -67 -22 -34 -61 -108 -88 -163 -44
-91 -48 -106 -48 -172 0 -62 3 -75 24 -97 35 -37 84 -50 191 -48 165 2 304 33
971 223 431 122 701 192 849 220 36 7 68 15 72 18 4 3 -148 54 -338 112 l-345
106 -46 -45 c-61 -62 -110 -138 -138 -214 -25 -69 -26 -68 -43 37 l-7 49 -50
-3 c-142 -8 -276 -52 -637 -210 -152 -66 -289 -123 -305 -126 -37 -9 365 233
548 328 158 83 335 162 444 197 39 12 73 25 77 29 6 5 -277 99 -472 157 -42
13 -44 12 -25 -2 18 -15 109 -60 160 -79 18 -7 17 -9 -10 -15 -52 -13 -149
-11 -208 5 -87 23 -136 52 -204 121 l-62 63 -143 -74 c-170 -88 -287 -134
-453 -180 -146 -40 -457 -93 -438 -74 4 4 86 53 181 109 126 73 204 112 286
140 112 39 257 99 331 138 28 14 35 22 25 26 -8 3 -33 12 -55 19 l-39 14 124
83 c323 216 626 439 1223 903 352 273 411 315 430 308 12 -5 103 -43 202 -84z
m-4366 -22 c226 -46 365 -87 471 -140 91 -46 219 -143 254 -193 114 -166 46
-500 -162 -792 -64 -89 -221 -250 -313 -320 -404 -304 -1134 -592 -1660 -654
-381 -45 -556 -21 -626 85 -25 39 -28 51 -27 128 1 106 12 133 122 296 220
328 636 770 1047 1112 128 106 277 225 445 352 98 74 249 151 295 151 18 0 87
-11 154 -25z m1350 -2485 c48 -164 127 -288 233 -363 79 -57 139 -83 243 -107
231 -54 472 -32 1118 101 432 89 572 109 787 116 102 3 182 3 179 -1 -3 -3
-41 -11 -85 -17 -146 -20 -287 -59 -644 -179 -484 -162 -741 -223 -1120 -266
-154 -17 -156 -17 -255 4 -283 61 -453 182 -527 374 -11 29 -25 98 -32 154
l-11 101 -175 -79 c-952 -430 -1687 -583 -2051 -427 -55 24 -63 39 -20 39 16
0 82 10 148 21 65 12 163 24 219 28 95 6 104 9 170 48 111 67 144 76 226 59
39 -8 72 -16 74 -19 2 -2 -55 -23 -128 -46 l-133 -42 130 5 c96 3 155 11 226
30 179 47 584 203 1109 427 151 65 280 118 286 118 5 1 21 -35 33 -79z m-1255
50 c-19 -19 -555 -396 -611 -430 -69 -42 -143 -50 -229 -25 -69 20 -154 64
-204 104 l-34 29 49 7 c281 38 642 149 985 303 53 24 57 25 44 12z m-11 -142
c-32 -110 -92 -193 -156 -217 -32 -12 -142 -13 -171 -2 -15 6 15 32 160 139
98 73 179 132 181 132 1 0 -5 -24 -14 -52z m4275 -85 c28 -111 67 -188 126
-251 58 -62 98 -88 180 -118 52 -19 57 -23 36 -27 -106 -23 -208 -12 -299 30
-35 16 -81 52 -122 93 l-65 66 -92 -51 c-254 -144 -558 -239 -893 -280 -116
-14 -498 -35 -614 -34 -78 1 -41 12 300 89 744 170 1048 284 1332 500 49 36
89 66 89 66 1 -1 11 -38 22 -83z m1108 -743 c-124 -83 -203 -185 -263 -340 -9
-22 -12 -16 -23 48 l-12 72 -46 0 c-124 -1 -285 -54 -661 -219 -140 -61 -266
-114 -280 -117 -25 -6 -25 -6 -6 8 55 40 418 251 550 319 192 100 322 157 461
203 118 39 267 74 322 75 32 1 30 -1 -42 -49z"/>
<path d="M6723 15239 c-84 -21 -108 -32 -145 -67 -63 -58 -17 -162 72 -162 50
0 109 29 144 70 29 35 32 62 13 131 l-12 47 -72 -19z"/>
<path d="M5865 15276 c-62 -27 -95 -85 -95 -162 0 -53 -19 -55 173 15 l128 47
-23 34 c-48 71 -116 96 -183 66z"/>
<path d="M11635 14850 c-46 -10 -70 -26 -110 -72 -61 -72 -100 -163 -100 -233
0 -69 18 -105 67 -135 47 -28 98 -34 144 -15 36 14 45 27 112 150 39 74 72
147 72 161 0 86 -98 163 -185 144z"/>
<path d="M8213 6413 c-223 -259 -261 -412 -114 -453 87 -24 305 -8 541 40 209
42 719 165 712 171 -4 4 -106 32 -227 63 -121 32 -357 96 -525 143 -168 47
-312 88 -321 90 -10 3 -34 -17 -66 -54z"/>
<path d="M9767 5999 c-127 -167 -152 -322 -71 -450 l23 -36 229 53 c292 67
434 105 597 159 143 48 309 115 301 122 -2 3 -109 25 -238 49 -128 25 -348 70
-488 100 -140 30 -266 57 -280 60 -21 5 -32 -4 -73 -57z"/>
<path d="M11430 5075 c-367 -140 -1307 -459 -1721 -584 -756 -228 -1339 -349
-1564 -326 -50 5 -83 0 -200 -31 -118 -32 -157 -38 -245 -38 -94 -1 -111 2
-162 26 -109 51 -186 133 -270 285 -22 40 -45 73 -52 73 -7 0 -97 -32 -199
-70 -103 -39 -221 -80 -264 -91 -145 -38 -361 -23 -449 30 -37 22 -79 99 -100
182 -29 112 -3 262 68 403 19 37 19 38 1 31 -500 -201 -1378 -513 -1858 -660
-494 -151 -756 -213 -1115 -263 l-55 -7 145 -149 c371 -381 814 -735 1259
-1006 l103 -63 132 32 c276 69 596 216 1076 496 478 279 545 316 752 420 115
56 265 124 334 149 169 63 394 121 394 102 0 -2 -20 -42 -45 -89 -64 -120 -95
-214 -95 -288 0 -55 3 -64 30 -89 85 -79 259 -49 875 153 538 177 724 228 960
267 139 23 350 36 382 23 22 -8 20 -12 -48 -93 -191 -229 -281 -378 -282 -469
-1 -85 42 -111 185 -111 123 0 300 37 694 144 337 91 476 122 608 136 137 14
138 12 48 -86 -151 -165 -214 -286 -215 -414 -1 -103 30 -169 120 -259 82 -81
148 -125 317 -212 l130 -67 70 35 c497 250 977 571 1396 936 151 132 491 472
614 616 53 62 96 114 94 116 -2 2 -50 -8 -108 -21 -148 -35 -288 -31 -375 11
-83 39 -195 155 -260 267 -27 48 -53 87 -57 88 -5 0 -101 -33 -215 -74 -269
-95 -337 -111 -488 -111 -98 0 -134 4 -195 23 -85 27 -94 33 -126 84 -87 137
-84 319 7 501 31 61 28 65 -31 42z m-5836 -992 c22 -96 63 -184 113 -242 46
-54 136 -114 197 -131 25 -7 46 -16 46 -21 0 -12 -124 -22 -177 -14 -116 17
-216 72 -281 154 l-38 47 -103 -57 c-282 -157 -620 -255 -996 -288 -150 -13
-552 -26 -544 -17 3 3 150 40 325 80 381 89 487 115 619 156 309 95 542 206
730 348 44 33 82 61 85 61 3 1 14 -34 24 -76z"/>
<path d="M8960 3774 c-63 -18 -329 -106 -590 -194 -628 -211 -819 -260 -1014
-260 -145 0 -212 29 -254 110 -21 40 -23 55 -19 130 3 49 14 110 26 145 12 33
19 65 17 72 -7 17 -95 17 -171 -1 -132 -32 -245 -90 -630 -326 -497 -305 -717
-420 -1040 -542 l-130 -49 110 4 c95 4 124 10 215 42 141 50 380 156 762 340
l318 153 6 -27 c76 -352 262 -511 599 -511 164 0 289 21 714 121 139 33 306
69 370 80 132 23 406 37 381 20 -8 -6 -27 -11 -42 -11 -62 0 -274 -66 -510
-159 -385 -151 -584 -207 -894 -252 l-146 -21 -91 21 c-188 44 -338 150 -401
285 -29 62 -55 180 -56 254 0 24 -4 42 -8 40 -4 -1 -89 -44 -188 -95 -522
-267 -933 -405 -1254 -422 l-115 -6 215 -107 c419 -208 816 -360 1246 -477
1465 -398 3014 -294 4417 297 l157 66 -110 27 c-269 67 -412 189 -450 387 -16
81 -8 257 18 377 11 50 19 91 17 92 -1 2 -46 -12 -101 -31 -279 -97 -589 -181
-759 -207 -44 -6 -127 -12 -185 -12 -217 -1 -333 70 -371 225 -21 89 2 266 55
416 8 23 12 42 8 41 -4 0 -59 -16 -122 -35z m394 -957 c43 -190 148 -320 304
-374 28 -10 52 -21 52 -25 0 -3 -30 -10 -67 -14 -154 -16 -319 52 -398 165
l-27 41 -42 -26 c-281 -172 -660 -288 -1061 -323 -152 -13 -552 -26 -544 -17
3 3 141 37 305 75 619 143 814 203 1078 330 97 47 277 161 341 215 17 14 33
25 36 26 4 0 14 -33 23 -73z"/>
<path d="M3170 8401 c-92 -28 -196 -99 -434 -295 -554 -453 -1029 -932 -1238
-1246 -119 -180 -167 -302 -144 -370 23 -68 32 -64 182 71 144 129 427 390
769 709 516 481 804 722 1065 893 78 50 227 130 297 158 28 12 28 12 -32 31
-141 45 -392 71 -465 49z"/>
<path d="M3639 8239 c-374 -183 -647 -403 -1384 -1114 -353 -341 -575 -546
-717 -665 -43 -36 -78 -67 -78 -71 0 -15 133 -42 227 -47 122 -6 232 11 488
74 408 101 646 180 898 296 322 149 555 297 697 444 288 298 402 571 344 824
-18 81 -57 144 -123 199 -52 44 -187 121 -212 121 -9 0 -72 -27 -140 -61z"/>
</g>
</svg>
