<svg width="24" height="24" xmlns="http://www.w3.org/2000/svg">
  <path fill-rule="evenodd" clip-rule="evenodd" d="M10.985 34.358c7.369.036 12.21-5.56 12.305-12.376.104-7.401-5.99-12.36-12.371-12.36C3.796 9.62-1.435 15.442-1.445 21.917c-.012 7.16 5.402 12.405 12.43 12.44ZM5.718 20.65l3.44 3.44 6.953-6.952a1.756 1.756 0 0 1 2.483 2.483L10.4 27.815a1.756 1.756 0 0 1-2.483 0l-4.682-4.682a1.756 1.756 0 0 1 2.483-2.483z" transform="matrix(.49009 0 0 .49009 12.589 5.65)"/>
  <path d="m11.655 5.768 3.347 3.348s-2.373.755-3.911 3.306c-1.538 2.552-1.103 4.997-1.103 4.997L4.996 22.41H.004v-4.993l11.65-11.65Zm1.664-1.664 2.496-2.497c.46-.46 1.204-.46 1.664 0l3.329 3.329c.46.46.46 1.204 0 1.664l-2.029 2.028s-.204-.042-.503-.054c-.3-.012-.496-.009-.496-.009z"/>
</svg>
