<?xml version="1.0" encoding="UTF-8" standalone="no"?>
<svg
   xmlns:dc="http://purl.org/dc/elements/1.1/"
   xmlns:cc="http://creativecommons.org/ns#"
   xmlns:rdf="http://www.w3.org/1999/02/22-rdf-syntax-ns#"
   xmlns:svg="http://www.w3.org/2000/svg"
   xmlns="http://www.w3.org/2000/svg"
   xml:space="preserve"
   enable-background="new 0 0 612 792"
   viewBox="0 0 269.88187 269.72479"
   height="269.72479"
   width="269.88187"
   y="0px"
   x="0px"
   id="Layer_1"
   version="1.1"><metadata
     id="metadata83"><rdf:RDF><cc:Work
         rdf:about=""><dc:format>image/svg+xml</dc:format><dc:type
           rdf:resource="http://purl.org/dc/dcmitype/StillImage" /><dc:title></dc:title></cc:Work></rdf:RDF></metadata><defs
     id="defs81" /><g
     transform="translate(-171.00344,-210.41458)"
     id="g3448"><path
       style="fill:#005478"
       id="path5"
       d="m 440.274,333.235 c -1.717,-17.775 -6.262,-34.136 -13.533,-48.983 -6.666,-12.826 -15.451,-24.542 -26.26,-34.945 l -0.201,-0.403 c -2.627,-2.324 -5.354,-4.646 -8.182,-7.171 -28.58,-23.835 -61.303,-34.036 -98.369,-30.703 -36.966,3.434 -67.466,19.492 -91.503,48.074 -7.071,8.483 -12.928,17.473 -17.674,26.966 -6.465,12.624 -10.605,26.158 -12.424,40.5 -1.313,9.998 -1.514,20.401 -0.403,31.006 3.232,37.066 19.189,67.465 47.873,91.402 26.057,21.714 55.549,32.016 88.473,31.106 3.232,-0.101 6.565,-0.201 9.999,-0.504 11.917,-1.011 23.329,-3.435 34.138,-7.172 21.916,-7.675 41.003,-21.311 57.263,-40.803 23.836,-28.48 34.136,-61.304 30.803,-98.37 l 0,0 z m -25.55,-42.317 c 6.563,13.23 10.604,27.774 12.018,43.63 2.929,33.329 -6.262,62.82 -27.773,88.372 -14.443,17.372 -31.41,29.592 -50.903,36.661 -9.896,3.435 -20.4,5.556 -31.41,6.465 -2.929,0.303 -5.857,0.606 -8.685,0.808 -29.693,0.808 -56.356,-8.685 -79.889,-28.481 -25.754,-21.411 -40.095,-48.78 -43.025,-82.11 -0.807,-8.786 -0.707,-17.371 0.203,-25.753 1.516,-13.433 5.251,-26.158 11.211,-38.177 4.341,-8.787 9.695,-17.069 16.158,-24.845 21.514,-25.654 48.985,-39.995 82.415,-43.024 33.328,-3.131 62.82,6.059 88.372,27.572 2.222,1.817 4.343,3.636 6.361,5.554 0.104,0.102 0.305,0.102 0.506,0.203 10.198,9.997 18.38,21.005 24.441,33.125 l 0,0 z" /><path
       style="fill:#005478"
       id="path7"
       d="m 420.379,378.987 c 9.291,-31.611 6.059,-61.911 -9.697,-90.896 -15.855,-28.683 -39.69,-47.772 -71.505,-57.266 -31.512,-9.19 -61.708,-5.858 -90.594,9.797 -28.885,15.856 -47.973,39.691 -57.264,71.304 -9.091,31.814 -5.758,62.012 9.997,90.695 15.756,28.985 39.492,48.175 71.103,57.366 31.511,9.19 61.708,5.857 90.694,-9.999 28.885,-15.757 47.973,-39.389 57.266,-71.001 l 0,0 z m -12.422,-89.584 c 15.451,28.279 18.48,57.871 9.29,88.775 -8.888,30.703 -27.368,53.73 -55.446,68.98 -28.178,15.452 -57.569,18.785 -88.371,9.898 -30.805,-9.191 -53.933,-27.774 -69.386,-55.952 -15.351,-27.977 -18.583,-57.468 -9.796,-88.271 9.089,-30.805 27.672,-54.033 55.85,-69.486 28.179,-15.25 57.567,-18.483 88.171,-9.494 31.005,9.193 54.234,27.674 69.688,55.55 l 0,0 z" /><path
       style="fill:#005478"
       id="path9"
       d="m 405.734,294.554 c -0.101,-0.101 -0.304,-0.202 -0.605,-0.303 -10.403,-5.455 -24.239,-3.636 -41.51,5.353 -0.91,0.403 -1.818,0.808 -2.627,1.312 -0.706,0.304 -1.313,0.607 -1.817,0.91 -2.728,1.616 -5.455,3.333 -8.282,5.251 -1.011,0.708 -2.019,1.313 -3.029,2.021 -0.81,0.504 -1.616,1.111 -2.526,1.615 -0.302,0.202 -0.505,0.405 -0.706,0.607 -0.201,0.201 -0.404,0.403 -0.706,0.605 -0.707,0.504 -1.313,1.01 -1.921,1.515 -3.836,2.929 -7.27,5.555 -10.2,7.777 l -5.15,3.636 5.05,7.676 c 0.201,-0.203 0.404,-0.405 0.605,-0.505 4.143,-2.525 8.989,-5.15 14.544,-7.878 1.212,-0.605 2.424,-1.211 3.738,-1.818 0.302,-0.101 0.505,-0.201 0.706,-0.302 1.313,-0.505 2.524,-1.01 3.737,-1.616 0.504,-0.303 1.111,-0.505 1.614,-0.708 3.333,-1.515 6.767,-3.03 10.505,-4.443 0.706,-0.304 1.313,-0.607 1.92,-0.809 0.907,-0.404 1.817,-0.807 2.828,-1.11 9.29,-3.535 19.592,-7.272 31.005,-11.21 3.333,-1.011 5.151,-2.222 5.453,-3.536 0.303,-1.212 -0.506,-2.526 -2.626,-4.04 l 0,0 z m -38.681,15.856 c 12.018,-4.848 22.421,-7.777 31.41,-8.887 -10.404,3.029 -20.504,6.564 -30.501,10.604 -0.607,0.303 -1.214,0.505 -1.92,0.808 -3.434,1.515 -6.867,3.03 -10.301,4.646 -1.817,0.807 -3.637,1.616 -5.354,2.525 -1.513,0.707 -2.928,1.414 -4.341,2.121 -4.344,2.122 -8.586,4.343 -12.727,6.666 l -0.807,-1.414 c 4.341,-2.425 8.685,-4.646 12.824,-6.767 1.415,-0.708 2.828,-1.414 4.243,-2.121 1.817,-0.909 3.635,-1.818 5.352,-2.727 3.536,-1.717 6.869,-3.232 10.202,-4.646 0.708,-0.202 1.313,-0.505 1.92,-0.808 l 0,0 z" /><path
       style="fill:#005478"
       id="path11"
       d="m 398.463,301.523 c -8.989,1.11 -19.393,4.04 -31.41,8.887 -0.606,0.303 -1.212,0.605 -1.919,0.808 -3.333,1.414 -6.666,2.929 -10.202,4.646 -1.717,0.909 -3.534,1.818 -5.352,2.727 -1.415,0.708 -2.828,1.414 -4.243,2.121 -4.14,2.121 -8.483,4.342 -12.824,6.767 l 0.807,1.414 c 4.141,-2.323 8.383,-4.544 12.727,-6.666 1.413,-0.707 2.828,-1.414 4.341,-2.121 1.718,-0.909 3.537,-1.718 5.354,-2.525 3.434,-1.616 6.867,-3.131 10.301,-4.646 0.706,-0.303 1.313,-0.505 1.92,-0.808 9.996,-4.04 20.096,-7.575 30.5,-10.604 l 0,0 z" /><path
       style="fill:#005478"
       id="path13"
       d="m 316.958,329.701 -0.101,0 c 0,0.202 0,0.404 0.101,0.606 0,0.101 0,0.303 0.101,0.403 0.505,4.344 2.424,7.474 5.96,9.494 l 0.505,0.202 c 1.313,-2.222 3.434,-4.343 6.362,-6.464 0.101,-0.101 0.302,-0.303 0.404,-0.404 l -5.05,-7.675 c -0.203,0 -0.404,0.102 -0.505,0.303 -3.536,2.019 -6.161,3.232 -7.777,3.535 l 0,0 z" /><path
       style="fill:#005478"
       id="path15"
       d="m 326.653,324.853 -0.505,0.303 c -0.201,0.101 -0.506,0.303 -0.908,0.605 l 0,0.101 5.05,7.675 c 0.402,-0.303 0.808,-0.606 1.212,-0.807 0.101,-0.102 0.101,-0.102 0.201,-0.202 l -5.05,-7.675 0,0 z" /><path
       style="fill:#005478"
       id="path17"
       d="m 323.421,340.406 0.103,0 -0.505,-0.202 c 0.1,0.101 0.201,0.101 0.402,0.202 l 0,0 z" /><path
       style="fill:#005478"
       id="path19"
       d="m 209.8,288.09 c 0,0.303 0.103,0.706 0.304,1.009 1.516,11.413 11.01,21.916 28.278,31.511 1.111,0.607 2.122,1.111 3.132,1.616 0.606,0.303 1.918,1.01 4.04,2.02 1.516,0.707 3.029,1.515 4.544,2.222 0.707,0.303 1.313,0.505 2.021,0.808 2.222,0.909 3.735,1.516 4.443,1.819 l 21.613,7.877 c 0.404,0.101 0.807,0.303 1.11,0.504 l 2.929,-8.887 -0.605,-0.202 c -0.101,-0.101 -0.303,-0.101 -0.405,-0.101 -0.907,-0.404 -1.817,-0.808 -2.727,-1.313 -2.828,-1.414 -5.757,-3.03 -8.887,-4.747 -1.415,-0.909 -2.93,-1.817 -4.443,-2.727 -0.305,-0.101 -0.506,-0.302 -0.707,-0.404 -0.203,-0.101 -0.404,-0.202 -0.607,-0.403 -1.313,-0.708 -2.524,-1.516 -3.635,-2.222 -1.516,-0.91 -2.929,-1.818 -4.344,-2.828 -2.119,-1.313 -4.141,-2.828 -6.262,-4.344 -0.706,-0.303 -1.313,-0.707 -1.817,-1.211 -0.91,-0.707 -1.717,-1.313 -2.627,-2.02 -8.483,-5.958 -17.673,-12.725 -27.572,-20.502 -4.847,-3.938 -7.473,-3.434 -7.777,1.515 0.001,0.303 0.001,0.707 0.001,1.01 l 0,0 z m 36.864,22.22 c 0.506,0.303 1.011,0.706 1.616,1.211 2.122,1.516 4.344,2.929 6.563,4.343 2.627,1.717 5.253,3.333 7.98,4.848 0.505,0.303 0.908,0.505 1.413,0.808 4.344,2.525 8.888,4.948 13.634,7.373 l -0.605,1.616 c -4.847,-2.626 -9.392,-5.151 -13.734,-7.474 -0.506,-0.303 -0.91,-0.505 -1.415,-0.808 -2.726,-1.616 -5.453,-3.231 -7.979,-4.747 -2.323,-1.414 -4.646,-2.828 -6.767,-4.242 -0.606,-0.505 -1.111,-1.009 -1.616,-1.313 -10.402,-7.07 -18.583,-14.038 -24.44,-20.805 8.18,6.968 16.563,13.332 25.35,19.19 l 0,0 z" /><path
       style="fill:#005478"
       id="path21"
       d="m 248.28,311.521 c -0.605,-0.505 -1.11,-0.909 -1.616,-1.211 -8.787,-5.858 -17.17,-12.221 -25.35,-19.189 5.857,6.767 14.039,13.735 24.44,20.805 0.505,0.303 1.01,0.808 1.616,1.313 2.121,1.414 4.443,2.828 6.767,4.242 2.525,1.516 5.253,3.131 7.979,4.747 0.505,0.303 0.909,0.505 1.415,0.808 4.343,2.323 8.888,4.848 13.734,7.474 l 0.605,-1.616 c -4.746,-2.424 -9.29,-4.848 -13.634,-7.373 -0.505,-0.303 -0.908,-0.505 -1.413,-0.808 -2.728,-1.515 -5.354,-3.131 -7.98,-4.848 -2.219,-1.415 -4.441,-2.828 -6.563,-4.344 l 0,0 z" /><path
       style="fill:#005478"
       id="path23"
       d="m 283.73,329.196 -1.516,-0.606 -2.929,8.887 0.101,0 c 0.506,0.202 1.011,0.404 1.516,0.605 l 2.828,-8.886 0,0 z" /><path
       style="fill:#005478"
       id="path25"
       d="m 286.458,330.205 -0.104,0 -0.101,-0.101 c -0.101,0 -0.201,0 -0.302,0 l -2.222,-0.909 -2.828,8.887 c 0.101,0.102 0.101,0.102 0.201,0.102 3.132,1.515 5.354,2.728 6.666,3.636 0.101,0.101 0.201,0.101 0.305,0.202 0,0.101 0,0.101 0.101,0.201 3.333,-2.625 5.05,-5.656 5.352,-9.089 0,-0.403 0,-0.808 0,-1.111 0,-0.303 0,-0.505 -0.101,-0.708 -0.101,-0.101 -0.201,-0.201 -0.302,-0.302 -0.103,0 -0.203,0 -0.305,0 -1.917,0.001 -4.038,-0.303 -6.36,-0.808 l 0,0 z" /><path
       style="fill:#005478"
       id="path27"
       d="m 344.025,310.006 c 0.304,-0.303 0.706,-0.605 1.11,-0.909 -6.362,-7.474 -14.745,-12.726 -24.945,-15.655 -13.837,-4.04 -27.066,-2.626 -39.692,4.342 -8.18,4.344 -14.544,10.202 -19.089,17.474 l 1.111,0.707 c 4.444,-6.969 10.604,-12.625 18.583,-16.967 12.222,-6.767 25.149,-8.282 38.783,-4.343 9.797,2.929 17.878,7.978 24.139,15.351 l 0,0 z" /><path
       style="fill:#005478"
       id="path29"
       d="m 315.543,329.296 c -2.929,-2.121 -6.262,-3.131 -9.997,-3.03 -4.142,0 -7.676,1.213 -10.808,3.637 1.01,6.262 -1.212,11.009 -6.664,14.14 l -0.104,0.101 c 0.104,4.747 1.82,8.888 5.153,12.221 1.918,1.918 4.039,3.231 6.463,4.14 4.745,-3.737 9.694,-4.14 14.948,-1.313 1.312,-0.808 2.523,-1.818 3.635,-2.93 3.434,-3.434 5.15,-7.575 5.15,-12.523 0,-0.607 0,-1.111 -0.101,-1.616 -5.553,-2.625 -8.077,-6.868 -7.675,-12.827 l 0,0 z m -18.784,14.948 c 0,-2.423 0.909,-4.545 2.626,-6.362 1.818,-1.717 3.939,-2.626 6.362,-2.626 2.424,-0.101 4.545,0.808 6.262,2.526 1.717,1.817 2.627,3.939 2.627,6.362 0.101,2.424 -0.81,4.544 -2.526,6.261 -1.717,1.717 -3.838,2.627 -6.262,2.728 -2.423,0 -4.544,-0.909 -6.362,-2.625 -1.717,-1.718 -2.627,-3.84 -2.727,-6.264 l 0,0 z" /><path
       style="fill:#005478"
       id="path31"
       d="m 301.304,339.8 c -1.313,1.212 -1.919,2.727 -1.919,4.443 0,1.716 0.707,3.232 2.02,4.444 1.211,1.212 2.727,1.819 4.443,1.819 1.716,0 3.232,-0.607 4.444,-1.919 1.111,-1.211 1.717,-2.727 1.717,-4.444 0,-1.717 -0.605,-3.231 -1.817,-4.444 -1.212,-1.211 -2.728,-1.817 -4.444,-1.817 -1.716,0 -3.233,0.605 -4.444,1.918 l 0,0 z" /><path
       style="fill:#005478"
       id="path33"
       d="m 301.304,361.313 c -0.101,0.102 -0.202,0.102 -0.303,0.102 1.413,1.918 2.424,4.342 3.029,7.473 l 0.101,0.404 0,0.303 c 0,0.101 0,0.303 0.101,0.403 l 9.192,-0.707 -0.103,-0.707 c -0.402,-4.142 -0.402,-6.969 0,-8.484 -0.101,-0.102 -0.101,-0.102 -0.201,-0.102 -4.545,-1.515 -8.383,-1.211 -11.615,1.111 -0.101,0.103 -0.101,0.103 -0.201,0.204 l 0,0 z" /><path
       style="fill:#005478"
       id="path35"
       d="m 313.625,370.907 -0.201,-1.615 -9.192,0.707 c 0,0.203 0,0.405 0.101,0.708 0.103,0.303 0.103,0.606 0.103,0.909 l 9.189,-0.709 0,0 z" /><path
       style="fill:#005478"
       id="path37"
       d="m 313.826,372.927 -0.201,-2.02 -9.19,0.708 c 0.102,0.303 0.102,0.505 0.202,0.808 0,0.101 0,0.303 0,0.404 0.605,5.252 0.909,11.21 0.807,17.978 l 0,0.101 c 0,0.102 0,0.303 0,0.505 0,1.313 0,2.728 -0.101,4.242 -0.101,0.909 -0.101,1.919 -0.101,2.828 -0.101,3.333 -0.302,6.767 -0.404,10.302 -0.101,0.606 -0.101,1.212 -0.201,1.92 -0.101,1.009 -0.101,2.02 -0.202,3.131 -0.708,10.604 -1.92,22.421 -3.637,35.55 -0.706,4.142 -0.101,6.464 1.616,6.767 0.91,0.303 2.223,0 3.738,-0.808 0.201,-0.201 0.402,-0.403 0.706,-0.504 0.201,-0.103 0.404,-0.203 0.706,-0.506 9.293,-7.372 13.434,-21.411 12.423,-41.913 0,-1.011 0,-2.021 -0.101,-3.03 0,-0.707 0,-1.313 -0.101,-2.02 -0.304,-3.333 -0.808,-6.666 -1.313,-10.201 -0.103,-0.909 -0.304,-1.818 -0.404,-2.727 -0.101,-0.303 -0.101,-0.405 -0.101,-0.505 -0.304,-1.313 -0.506,-2.525 -0.606,-3.636 -0.103,-0.202 -0.103,-0.403 -0.103,-0.606 -0.101,-0.101 -0.101,-0.101 -0.101,-0.202 -1.511,-6.567 -2.622,-12.021 -3.331,-16.566 l 0,0 z m -6.867,3.132 1.516,0 c 0.404,5.05 0.706,9.998 0.807,14.745 0,0.101 0,0.101 0,0.202 0.101,2.323 0.101,4.747 0.204,7.069 0,3.636 -0.104,7.17 -0.204,10.604 0,0.707 0,1.313 -0.101,1.919 -0.505,14.644 -2.322,26.765 -5.655,36.157 2.121,-12.02 3.434,-24.038 3.938,-36.056 0,-0.708 0,-1.313 0,-1.92 0.101,-3.535 0.201,-7.069 0.201,-10.604 0,-2.322 0,-4.645 0,-6.969 0,-0.101 0,-0.303 0,-0.403 -0.101,-4.949 -0.302,-9.897 -0.706,-14.744 l 0,0 z" /><path
       style="fill:#005478"
       id="path39"
       d="m 308.475,376.059 -1.516,0 c 0.404,4.847 0.605,9.796 0.706,14.745 0,0.101 0,0.303 0,0.403 0,2.324 0,4.646 0,6.969 0,3.535 -0.101,7.069 -0.201,10.604 0,0.606 0,1.212 0,1.92 -0.505,12.018 -1.817,24.036 -3.938,36.056 3.333,-9.393 5.15,-21.514 5.655,-36.157 0.101,-0.606 0.101,-1.212 0.101,-1.919 0.101,-3.435 0.204,-6.969 0.204,-10.604 -0.104,-2.322 -0.104,-4.747 -0.204,-7.069 0,-0.102 0,-0.102 0,-0.202 -0.101,-4.748 -0.403,-9.697 -0.807,-14.746 l 0,0 z" /><path
       style="fill:#005478"
       id="path41"
       d="m 256.259,330.71 c -0.505,-0.101 -0.909,-0.303 -1.313,-0.505 -3.637,13.635 -2.121,26.462 4.646,38.682 6.968,12.725 17.473,21.209 31.31,25.35 4.342,1.313 8.584,2.02 12.825,2.222 l 0,-1.616 c -4.14,-0.202 -8.28,-0.909 -12.523,-2.121 -13.433,-3.838 -23.633,-11.918 -30.399,-24.341 -6.464,-12.017 -7.98,-24.541 -4.546,-37.671 l 0,0 z" /><path
       style="fill:#005478"
       id="path43"
       d="m 319.382,393.025 0.304,1.515 c 3.735,-1.111 7.473,-2.726 11.211,-4.747 12.724,-6.867 21.106,-17.27 25.046,-31.309 3.737,-12.422 3.031,-24.239 -2.121,-35.652 l -1.413,0.505 c 5.05,11.211 5.756,22.725 2.222,34.744 -3.938,13.533 -12.12,23.633 -24.442,30.4 -3.536,1.919 -7.17,3.434 -10.807,4.544 l 0,0 z" /></g></svg>