<?xml version="1.0" encoding="utf-8"?>
<!-- Generator: Adobe Illustrator 19.1.0, SVG Export Plug-In . SVG Version: 6.00 Build 0)  -->
<svg version="1.1" id="Layer_1" xmlns="http://www.w3.org/2000/svg" xmlns:xlink="http://www.w3.org/1999/xlink" x="0px" y="0px"
	 viewBox="-49 653 72 72" style="enable-background:new -49 653 72 72;" xml:space="preserve">
<style type="text/css">
	.st0{fill:#FFFFFF;}
</style>
<path class="st0" d="M-13,725c-18.5,0-33.6-15.1-33.6-33.6c0-9.6,4.1-18.7,11.3-25.1c2-1.8,5-1.6,6.8,0.4c1.8,2,1.6,5-0.4,6.8
	c-5.1,4.6-8.1,11.1-8.1,17.9c0,13.2,10.8,24,24,24c13.2,0,24-10.8,24-24c0-6.8-2.9-13.4-8-17.9c-2-1.8-2.2-4.8-0.4-6.8
	c1.8-2,4.8-2.2,6.8-0.4c7.2,6.4,11.3,15.5,11.3,25.1C20.6,709.9,5.5,725-13,725z M-8.2,681.8v-24c0-2.7-2.1-4.8-4.8-4.8
	s-4.8,2.1-4.8,4.8v24c0,2.7,2.1,4.8,4.8,4.8S-8.2,684.5-8.2,681.8z"/>
</svg>
