<svg xmlns="http://www.w3.org/2000/svg" xml:space="preserve" id="Layer_1" x="0" y="0" version="1.1" viewBox="0 0 215 215">
    <style>
        .st1{fill:#5ecbf1}
    </style>
    <path d="m164.063 148.971-10.179-10.179a53.56 53.56 0 0 0 9.511-30.54h-.044c0-27.905-21.19-50.857-48.345-53.617v23.318c15.334 2.768 26.72 16.891 25.137 33.349a30.2 30.2 0 0 1-3.088 10.66l-11.846-11.846-16.406 16.406 10.812 10.812a30 30 0 0 1-7.02 1.557c-16.415 1.601-30.514-9.699-33.36-24.959H55.903c2.84 27.071 25.752 48.171 53.597 48.171v.044a53.55 53.55 0 0 0 27.417-7.511l10.74 10.74z" style="fill:#231f20"/>
    <path d="M103.747 39.064c-.129 0-.377.018-.385.019-33.409 2.944-60.044 29.582-62.971 63.031l-.022.358a3.909 3.909 0 1 0 7.804.45l-.002-.001c2.546-29.719 26.159-53.412 55.822-56.045a3.914 3.914 0 0 0 3.662-3.903 3.907 3.907 0 0 0-3.908-3.909" class="st1"/>
    <path d="M103.752 54.604a4 4 0 0 0-.475.03c-25.063 2.893-45.007 23.272-47.393 47.639 0 0-.03.32-.03.486a3.909 3.909 0 0 0 7.813.186l.001-.063c2.451-21.156 19.198-37.949 40.325-40.463V62.4c1.982-.124 3.569-1.709 3.662-3.7q.004-.092.004-.185a3.91 3.91 0 0 0-3.907-3.911" class="st1"/>
    <path d="M103.747 70.208c-.247 0-.494.024-.729.068-16.101 2.732-28.851 15.534-31.505 31.664q-.012.064-.023.129a5 5 0 0 0-.071.704 3.909 3.909 0 0 0 7.801.356c.005-.057.031-.316.038-.357 2.255-12.578 12.164-22.477 24.735-24.752 0 0 .142-.013.212-.022a3.91 3.91 0 0 0 3.45-3.883 3.907 3.907 0 0 0-3.908-3.907" class="st1"/>
    <path d="M211.5 151.5c0 33-27 60-60 60h-88c-33 0-60-27-60-60v-88c0-33 27-60 60-60h88c33 0 60 27 60 60z" style="fill:none;stroke:#231f20;stroke-width:8;stroke-miterlimit:10"/>
</svg>
