<?xml version="1.0" encoding="utf-8"?>
<!-- Generator: Adobe Illustrator 21.1.0, SVG Export Plug-In . SVG Version: 6.00 Build 0)  -->
<svg version="1.1" id="Layer_1" xmlns="http://www.w3.org/2000/svg" xmlns:xlink="http://www.w3.org/1999/xlink" x="0px" y="0px"
	 width="72px" height="72px" viewBox="0 0 72 72" style="enable-background:new 0 0 72 72;" xml:space="preserve">
<style type="text/css">
	.st0{fill:#FFFFFF;}
	.st1{fill:#4B2C6D;stroke:#FFFFFF;stroke-width:3;stroke-miterlimit:10;}
	.st2{fill:#5ECBF1;}
</style>
<rect x="10.555" y="10.213" class="st0" width="50.924" height="50.582"/>
<path class="st1" d="M50.296,1.8H21.704C10.726,1.8,1.8,10.726,1.8,21.704v28.591C1.8,61.274,10.726,70.2,21.704,70.2h28.591
	c10.978,0,19.904-8.926,19.904-19.904V21.704C70.2,10.726,61.274,1.8,50.296,1.8z M49.748,55.802l-3.659-3.659
	c-2.736,1.642-5.951,2.565-9.371,2.565l0,0c-9.508,0-17.374-7.216-18.331-16.484h7.969c0.958,5.233,5.78,9.097,11.423,8.55
	c0.821-0.068,1.642-0.274,2.394-0.547l-3.728-3.728l5.609-5.609l4.07,4.036c0.547-1.129,0.923-2.36,1.06-3.659
	c0.547-5.643-3.352-10.465-8.584-11.389v-7.969c9.268,0.958,16.519,8.789,16.519,18.331l0,0c0,3.865-1.197,7.49-3.249,10.431
	l3.488,3.488L49.748,55.802z"/>
<path class="st2" d="M34.7,12.607c-0.034,0-0.137,0-0.137,0c-11.423,0.992-20.52,10.123-21.546,21.546c0,0,0,0.103,0,0.137
	c0,0,0,0.068,0,0.103c0,0.752,0.616,1.334,1.334,1.334c0.718,0,1.3-0.581,1.334-1.265l0,0c0.855-10.157,8.96-18.263,19.084-19.152
	l0,0c0.684-0.034,1.231-0.581,1.265-1.265c0-0.034,0-0.034,0-0.068C36.068,13.189,35.453,12.607,34.7,12.607z"/>
<path class="st2" d="M34.7,17.908c-0.034,0-0.103,0-0.137,0h-0.034c-8.584,0.992-15.39,7.969-16.211,16.279c0,0,0,0.103,0,0.171
	c0,0.752,0.616,1.334,1.334,1.334c0.718,0,1.3-0.581,1.334-1.265c0,0,0,0,0-0.034c0.855-7.25,6.566-12.996,13.783-13.851l0,0
	c0.684-0.034,1.231-0.581,1.265-1.265c0-0.034,0-0.034,0-0.068C36.068,18.49,35.453,17.908,34.7,17.908z"/>
<path class="st2" d="M34.7,23.243c-0.068,0-0.171,0-0.239,0.034c-5.506,0.923-9.85,5.301-10.773,10.807v0.034
	c0,0.068-0.034,0.205-0.034,0.239c0,0.752,0.581,1.334,1.334,1.334c0.068,0,0.103,0,0.171,0c0.616-0.068,1.129-0.581,1.163-1.197
	c0-0.034,0-0.103,0-0.137c0.787-4.275,4.172-7.661,8.482-8.447c0,0,0.034,0,0.068,0c0.65-0.068,1.163-0.616,1.163-1.265
	c0-0.034,0-0.034,0-0.068C36.068,23.859,35.453,23.243,34.7,23.243z"/>
</svg>
