<svg id="svg" version="1.1" xmlns="http://www.w3.org/2000/svg" xmlns:xlink="http://www.w3.org/1999/xlink" width="400" height="400" viewBox="0, 0, 400,400"><g id="svgg"><path id="path0" d="M100.314 199.747 C 45.572 309.171,0.890 398.807,1.020 398.937 C 1.150 399.067,45.974 376.829,100.628 349.519 L 200.000 299.864 200.000 298.213 L 200.000 296.563 197.376 296.563 L 194.752 296.563 106.048 340.859 C 57.261 365.223,16.342 385.597,15.119 386.136 L 12.894 387.116 15.940 380.823 C 17.616 377.363,45.245 321.938,77.339 257.656 C 170.824 70.415,194.487 22.699,198.257 13.827 L 200.017 9.685 199.930 5.239 L 199.844 0.794 100.314 199.747 M200.313 6.196 L 200.313 10.517 203.394 17.368 C 209.712 31.415,231.288 75.424,243.904 100.000 C 248.184 108.336,256.627 125.000,262.667 137.031 C 268.708 149.063,274.638 160.734,275.847 162.969 C 277.055 165.203,282.298 175.750,287.497 186.406 C 301.405 214.915,310.294 232.506,315.685 242.189 C 318.674 247.558,320.807 251.782,321.369 253.439 C 322.718 257.426,327.745 267.714,358.667 329.771 C 374.233 361.012,386.883 386.658,386.778 386.763 C 386.673 386.868,345.854 366.616,296.068 341.758 L 205.549 296.562 202.931 296.562 L 200.313 296.563 200.313 298.219 L 200.313 299.875 299.381 349.359 C 353.868 376.575,398.537 398.755,398.645 398.646 C 398.849 398.443,200.790 1.875,200.485 1.875 C 200.390 1.875,200.313 3.819,200.313 6.196 M198.906 140.818 C 170.257 144.825,148.274 161.640,138.285 187.188 C 135.890 193.311,133.550 204.794,134.183 207.313 C 135.304 211.774,141.758 210.879,142.325 206.185 C 146.002 175.783,168.491 153.096,198.867 149.145 C 203.566 148.533,204.596 148.035,205.293 146.035 C 206.528 142.489,203.667 140.152,198.906 140.818 M197.813 157.013 C 174.251 161.221,155.505 178.913,151.227 200.978 C 149.933 207.656,150.870 210.000,154.833 210.000 C 157.393 210.000,158.375 208.724,159.086 204.478 C 162.616 183.375,179.650 167.403,201.700 164.521 C 204.439 164.163,206.086 161.833,205.346 159.362 C 204.616 156.926,202.315 156.209,197.813 157.013 M213.438 168.557 L 213.438 180.540 215.703 181.083 C 234.999 185.708,245.433 206.092,237.743 224.141 C 236.921 226.071,237.560 226.463,230.468 219.687 L 224.253 213.749 220.642 217.259 C 218.656 219.189,214.752 222.998,211.966 225.723 L 206.900 230.678 212.510 236.155 C 215.595 239.167,218.049 241.745,217.963 241.884 C 217.877 242.023,216.578 242.419,215.075 242.765 C 197.872 246.722,180.369 236.453,176.013 219.847 L 175.480 217.813 163.060 217.813 L 150.641 217.813 150.781 218.672 C 157.122 257.586,198.553 278.963,233.593 261.400 L 236.919 259.733 242.537 265.236 L 248.156 270.738 251.187 267.793 C 252.855 266.173,256.774 262.327,259.898 259.247 L 265.577 253.648 260.225 248.441 L 254.872 243.235 256.367 240.914 C 278.165 207.062,255.865 161.780,214.922 156.757 L 213.438 156.574 213.438 168.557 M196.952 173.591 C 182.784 177.252,171.706 188.115,167.949 202.031 C 166.450 207.582,167.471 210.002,171.313 209.999 C 174.054 209.996,174.703 209.178,175.892 204.219 C 178.581 193.011,188.105 183.972,200.313 181.041 C 205.088 179.894,206.670 177.928,205.162 175.012 C 203.936 172.641,201.955 172.298,196.952 173.591 " stroke="none" fill="#f9f8f9" fill-rule="evenodd"></path><path id="path1" d="M99.904 199.878 C 44.938 309.812,0.028 399.819,0.104 399.896 C 0.180 399.972,45.188 377.562,100.121 350.096 L 200.000 300.157 299.879 350.096 C 354.812 377.562,399.820 399.972,399.896 399.896 C 400.055 399.737,200.238 0.000,200.000 0.000 C 199.914 0.000,154.871 89.945,99.904 199.878 M198.257 13.827 C 194.487 22.699,170.824 70.415,77.339 257.656 C 45.245 321.938,17.616 377.363,15.940 380.823 L 12.894 387.116 15.119 386.136 C 16.342 385.597,57.261 365.223,106.048 340.859 L 194.752 296.563 197.376 296.563 L 200.000 296.563 200.000 298.213 L 200.000 299.864 100.628 349.519 C 45.974 376.829,1.150 399.067,1.020 398.937 C 0.890 398.807,45.572 309.171,100.314 199.747 L 199.844 0.794 199.930 5.239 L 200.017 9.685 198.257 13.827 M299.749 200.162 C 354.250 309.221,398.753 398.538,398.645 398.646 C 398.537 398.755,353.868 376.575,299.381 349.359 L 200.313 299.875 200.313 298.219 L 200.313 296.563 202.931 296.562 L 205.549 296.562 296.068 341.758 C 345.854 366.616,386.673 386.868,386.778 386.763 C 386.883 386.658,374.233 361.012,358.667 329.771 C 327.745 267.714,322.718 257.426,321.369 253.439 C 320.807 251.782,318.674 247.558,315.685 242.189 C 310.294 232.506,301.405 214.915,287.497 186.406 C 282.298 175.750,277.055 165.203,275.847 162.969 C 274.638 160.734,268.708 149.063,262.667 137.031 C 256.627 125.000,248.184 108.336,243.904 100.000 C 231.288 75.424,209.712 31.415,203.394 17.368 L 200.313 10.517 200.313 6.196 C 200.313 3.819,200.390 1.875,200.485 1.875 C 200.579 1.875,245.248 91.104,299.749 200.162 M204.005 141.522 C 205.379 142.500,205.895 144.308,205.293 146.035 C 204.596 148.035,203.566 148.533,198.867 149.145 C 168.491 153.096,146.002 175.783,142.325 206.185 C 141.758 210.879,135.304 211.774,134.183 207.313 C 133.550 204.794,135.890 193.311,138.285 187.188 C 148.274 161.640,170.257 144.825,198.906 140.818 C 200.940 140.533,203.020 140.820,204.005 141.522 M204.015 157.466 C 206.924 159.538,205.450 164.031,201.700 164.521 C 179.650 167.403,162.616 183.375,159.086 204.478 C 158.375 208.724,157.393 210.000,154.833 210.000 C 150.870 210.000,149.933 207.656,151.227 200.978 C 155.169 180.646,171.787 163.549,192.912 158.092 C 199.238 156.458,202.353 156.282,204.015 157.466 M219.531 157.549 C 257.788 165.017,277.098 208.719,256.367 240.914 L 254.872 243.235 260.225 248.441 L 265.577 253.648 259.898 259.247 C 256.774 262.327,252.855 266.173,251.187 267.793 L 248.156 270.738 242.537 265.236 L 236.919 259.733 233.593 261.400 C 198.553 278.963,157.122 257.586,150.781 218.672 L 150.641 217.813 163.060 217.813 L 175.480 217.813 176.013 219.847 C 180.369 236.453,197.872 246.722,215.075 242.765 C 216.578 242.419,217.877 242.023,217.963 241.884 C 218.049 241.745,215.595 239.167,212.510 236.155 L 206.900 230.678 211.966 225.723 C 214.752 222.998,218.656 219.189,220.642 217.259 L 224.253 213.749 230.468 219.687 C 237.560 226.463,236.921 226.071,237.743 224.141 C 245.433 206.092,234.999 185.708,215.703 181.083 L 213.438 180.540 213.438 168.557 L 213.438 156.574 214.922 156.757 C 215.738 156.857,217.813 157.213,219.531 157.549 M203.870 173.465 C 207.478 176.303,205.881 179.704,200.313 181.041 C 188.105 183.972,178.581 193.011,175.892 204.219 C 174.703 209.178,174.054 209.996,171.313 209.999 C 162.392 210.007,169.658 190.422,182.138 180.819 C 189.362 175.261,201.102 171.288,203.870 173.465 " stroke="none" fill="#246c34" fill-rule="evenodd"></path></g></svg>