<?xml version="1.0" encoding="UTF-8" standalone="no"?>
<!-- Generator: Adobe Illustrator 21.1.0, SVG Export Plug-In . SVG Version: 6.00 Build 0)  -->

<svg
   version="1.1"
   id="Layer_1"
   x="0px"
   y="0px"
   width="72px"
   height="72px"
   viewBox="0 0 72 72"
   style="enable-background:new 0 0 72 72;"
   xml:space="preserve"
   sodipodi:docname="QGCLogoFull.svg"
   inkscape:version="1.1.2 (0a00cf5339, 2022-02-04)"
   xmlns:inkscape="http://www.inkscape.org/namespaces/inkscape"
   xmlns:sodipodi="http://sodipodi.sourceforge.net/DTD/sodipodi-0.dtd"
   xmlns="http://www.w3.org/2000/svg"
   xmlns:svg="http://www.w3.org/2000/svg"><defs
   id="defs888" /><sodipodi:namedview
   id="namedview886"
   pagecolor="#ffffff"
   bordercolor="#666666"
   borderopacity="1.0"
   inkscape:pageshadow="2"
   inkscape:pageopacity="0.0"
   inkscape:pagecheckerboard="0"
   showgrid="false"
   inkscape:zoom="6.7941301"
   inkscape:cx="34.147124"
   inkscape:cy="31.276999"
   inkscape:window-width="1530"
   inkscape:window-height="936"
   inkscape:window-x="1213"
   inkscape:window-y="827"
   inkscape:window-maximized="1"
   inkscape:current-layer="Layer_1" />
<style
   type="text/css"
   id="style873">
	.st0{fill:#FFFFFF;}
	.st1{fill:#4B2C6D;stroke:#FFFFFF;stroke-width:3;stroke-miterlimit:10;}
	.st2{fill:#5ECBF1;}
</style>
<path
   class="st1"
   d="M 50.922152,0.30147095 H 21.077891 C 9.7630982,0.8030901 0.73897519,9.4171093 0.30214268,21.07722 V 50.920438 C 0.78013706,62.411422 9.7661164,71.245728 21.077891,71.697228 H 50.921109 C 62.368522,71.365538 71.454145,61.862542 71.696858,50.92148 V 21.07722 C 71.342419,10.283715 62.924681,0.73473088 50.922152,0.30147095 Z"
   id="path877-3"
   style="fill:#ffffff;fill-opacity:1;stroke:none;stroke-width:3.1314;stroke-miterlimit:10;stroke-opacity:0.35713"
   sodipodi:nodetypes="ccccccccc" /><path
   class="st1"
   d="M 49.668853,3.301809 H 22.331103 C 11.473752,2.9232085 2.931357,11.796596 3.3002347,22.332677 V 49.669471 C 2.9534837,60.291263 11.703245,69.057815 22.331103,68.701296 H 49.667897 C 60.45552,68.864553 69.013231,60.491276 68.698766,49.670427 V 22.332677 C 68.978869,11.496201 60.226564,3.0188177 49.668853,3.301809 Z"
   id="path877-1"
   style="fill:#4b2c6d;fill-opacity:0.99611115;stroke:none;stroke-width:2.8684;stroke-miterlimit:10;stroke-opacity:1"
   sodipodi:nodetypes="ccccccccc" />

<path
   class="st2"
   d="M34.7,12.607c-0.034,0-0.137,0-0.137,0c-11.423,0.992-20.52,10.123-21.546,21.546c0,0,0,0.103,0,0.137  c0,0,0,0.068,0,0.103c0,0.752,0.616,1.334,1.334,1.334c0.718,0,1.3-0.581,1.334-1.265l0,0c0.855-10.157,8.96-18.263,19.084-19.152  l0,0c0.684-0.034,1.231-0.581,1.265-1.265c0-0.034,0-0.034,0-0.068C36.068,13.189,35.453,12.607,34.7,12.607z"
   id="path879" />
<path
   class="st2"
   d="M34.7,17.908c-0.034,0-0.103,0-0.137,0h-0.034c-8.584,0.992-15.39,7.969-16.211,16.279c0,0,0,0.103,0,0.171  c0,0.752,0.616,1.334,1.334,1.334c0.718,0,1.3-0.581,1.334-1.265c0,0,0,0,0-0.034c0.855-7.25,6.566-12.996,13.783-13.851l0,0  c0.684-0.034,1.231-0.581,1.265-1.265c0-0.034,0-0.034,0-0.068C36.068,18.49,35.453,17.908,34.7,17.908z"
   id="path881" />
<path
   class="st2"
   d="m 34.7,23.243 c -0.068,0 -0.171,0 -0.239,0.034 -5.506,0.923 -9.85,5.301 -10.773,10.807 v 0.034 c 0,0.068 -0.034,0.205 -0.034,0.239 0,0.752 0.581,1.334 1.334,1.334 h 0.171 c 0.616,-0.068 1.129,-0.581 1.163,-1.197 v -0.137 c 0.787,-4.275 4.172,-7.661 8.482,-8.447 h 0.068 c 0.65,-0.068 1.163,-0.616 1.163,-1.265 V 24.577 C 36.068,23.859 35.453,23.243 34.7,23.243 Z"
   id="path883"
   sodipodi:nodetypes="sccssscccccscs" /><path
   class="st2"
   d="m 49.748,55.802 -3.658998,-3.659 c -2.736,1.642 -5.951,2.565 -9.371,2.565 v 0 c -9.508,0 -17.374,-7.216 -18.331,-16.484 h 7.969 c 0.958,5.233 5.78,9.097 11.423,8.55 0.821,-0.068 1.642,-0.274 2.394,-0.547 l -3.728,-3.728 5.609,-5.609 4.07,4.036 c 0.547,-1.129 0.923,-2.36 1.06,-3.659 0.547,-5.643 -3.352,-10.465 -8.584,-11.389 V 17.909 C 47.868,18.867 55.119,26.698 55.119,36.24 v 0 c 0,3.865 -1.197,7.49 -3.249,10.431 l 3.488,3.488 z"
   id="path883-3"
   style="fill:#ffffff;fill-opacity:1"
   sodipodi:nodetypes="ccssccccccccccssccc" />
</svg>
