<svg xmlns="http://www.w3.org/2000/svg" xml:space="preserve" id="Layer_1" x="0" y="0" version="1.1" viewBox="0 0 72 72">
    <style id="style2" type="text/css">
        .st0{fill:#c72b27}.st1{fill:#7f0036}.st2{fill:#ee3424}
    </style>
    <g id="g16">
        <g id="g8">
            <path id="polygon4" d="M35.5 2.118v51.573L1.118 70.882z" class="st0" style="fill:#4b2c6d;fill-opacity:1"/>
            <path id="path6" d="M35 4.236v49.146L2.236 69.764zM36 0 0 72l36-18z" class="st1" style="fill:#4e005b;fill-opacity:1"/>
        </g>
        <g id="g14">
            <path id="polygon10" d="M36.5 53.691V2.118l34.382 68.764z" class="st2" style="fill:#4b2c6d;fill-opacity:1"/>
            <path id="path12" d="m37 4.236 32.764 65.528L37 53.382zM36 0v54l36 18z" class="st1" style="fill:#4e005b;fill-opacity:1"/>
        </g>
        <rect id="rect4" width="28.494" height="27.41" x="22.747" y="24.021" class="st0" rx="12.432" ry="13.705" style="fill:#fff;fill-opacity:1;stroke-width:.55064428"/>
        <path id="path6-4" d="m40.481 11.732-4.48-9.957-5.435 12.538c-2.38 5.491-3.98 6.04-6.029 11.992l-6.69 19.436c-1.937 5.632 6.12 7.71 12.263 7.697l14.25-.03c6.142-.013 15.907-3.464 13.095-8.72l-6.703-12.534c-2.822-5.186-9.25-14.512-10.27-20.422m4.195 36.993-2.047-1.983c-1.53.89-3.33 1.39-5.243 1.39-5.32 0-9.722-3.91-10.257-8.932h4.459c.536 2.835 3.234 4.93 6.391 4.633.46-.037.92-.149 1.34-.297l-2.086-2.02 3.138-3.04 2.278 2.188a5.9 5.9 0 0 0 .593-1.983c.306-3.058-1.876-5.67-4.803-6.172v-4.318c5.185.52 9.243 4.763 9.243 9.934a9.66 9.66 0 0 1-1.818 5.652l1.951 1.89z" class="st1" style="fill:#4b2c6d;fill-opacity:1;stroke-width:.55064428"/>
        <path id="path8" d="M36.257 25.318h-.077c-6.392.538-11.482 5.486-12.056 11.676v.13c0 .407.345.723.747.723a.743.743 0 0 0 .746-.686c.478-5.504 5.013-9.897 10.678-10.378a.734.734 0 0 0 .708-.686v-.037c.019-.427-.325-.742-.746-.742" class="st2" style="fill:#fff;fill-opacity:1;stroke-width:.55064428"/>
        <path id="path10" d="M36.257 28.19h-.097c-4.802.538-8.61 4.319-9.07 8.822v.093c0 .407.345.723.747.723a.743.743 0 0 0 .746-.686v-.018c.478-3.929 3.674-7.043 7.712-7.506a.734.734 0 0 0 .708-.686v-.036c.019-.39-.325-.705-.746-.705" class="st2" style="fill:#fff;fill-opacity:1;stroke-width:.55064428"/>
        <path id="path12-3" d="M36.257 31.082c-.039 0-.096 0-.134.018-3.081.5-5.512 2.873-6.028 5.856v.019c0 .037-.02.11-.02.13 0 .407.326.722.747.722h.096c.345-.037.632-.315.65-.649v-.074c.441-2.316 2.335-4.151 4.747-4.577h.038c.363-.037.65-.334.65-.686v-.037c.019-.389-.325-.722-.746-.722" class="st2" style="fill:#fff;fill-opacity:.94117647;stroke-width:.55064428"/>
        <path id="path3789" d="m53.932 62.91-17.866-8.935v-.572h.99l16.322 8.16c8.978 4.49 16.323 8.145 16.323 8.124s-2.624-5.286-5.83-11.699c-3.796-7.592-5.874-11.828-5.955-12.14-.152-.585-.27-.82-1.429-2.854-1.419-2.488-6.051-12.207-6.599-13.218-.946-1.747-1.52-2.896-2.883-5.7-.809-1.664-1.74-3.3-4.967-9.762-2.22-4.447-4.471-9.057-5.004-10.244l-.968-2.16.004-.815.004-.815L53.96 36.04c9.837 19.669 17.875 35.77 17.862 35.783-.013.011-8.063-4-17.89-8.913" style="fill:#f9f9f9;stroke-width:.07627118"/>
        <path id="path3791" d="M.146 71.803c.002-.031 8.066-16.171 17.92-35.866L35.98.127l.004.83.004.83-.696 1.61c-.42.97-7.137 14.493-16.86 33.94C9.543 55.117 2.284 69.681 2.303 69.7s7.382-3.64 16.364-8.132l16.33-8.165h.992v.572l-17.885 8.943C8.267 67.836.2 71.86.18 71.86s-.036-.026-.034-.058" style="fill:#f9f9f9;stroke-width:.07627118"/>
    </g>
</svg>
