<svg id="svg" version="1.1" xmlns="http://www.w3.org/2000/svg" xmlns:xlink="http://www.w3.org/1999/xlink" width="400" height="400" viewBox="0, 0, 400,400"><g id="svgg"><path id="path0" d="M105.031 1.577 C 50.519 8.186,7.938 50.986,1.550 105.590 C 0.552 114.126,0.552 285.874,1.550 294.410 C 7.959 349.196,50.804 392.041,105.590 398.450 C 114.126 399.448,285.874 399.448,294.410 398.450 C 349.254 392.034,392.034 349.254,398.450 294.410 C 399.448 285.874,399.448 114.126,398.450 105.590 C 392.041 50.804,349.196 7.959,294.410 1.550 C 286.389 0.612,112.788 0.636,105.031 1.577 M292.937 16.562 C 341.133 22.578,378.407 60.374,383.607 108.500 C 384.392 115.772,384.236 286.543,383.438 292.937 C 377.484 340.639,340.639 377.484,292.937 383.438 C 285.383 384.381,114.617 384.381,107.063 383.438 C 59.361 377.484,22.516 340.639,16.562 292.937 C 15.619 285.383,15.619 114.617,16.562 107.063 C 22.542 59.154,59.605 22.310,107.743 16.420 C 113.589 15.705,287.136 15.838,292.937 16.562 M124.455 99.314 C 121.004 100.562,118.873 102.029,115.737 105.317 C 112.687 108.514,112.690 108.717,115.824 112.572 C 117.227 114.297,119.515 117.201,120.909 119.027 C 122.303 120.852,124.003 123.011,124.688 123.826 L 125.932 125.307 131.661 123.244 C 137.086 121.291,139.622 120.335,145.796 117.915 C 148.817 116.731,149.133 116.020,148.234 112.434 C 146.785 106.660,142.606 101.180,138.569 99.762 C 137.433 99.363,136.159 98.855,135.736 98.633 C 134.221 97.838,127.396 98.250,124.455 99.314 M260.841 98.673 C 260.690 98.916,260.174 99.115,259.694 99.115 C 255.401 99.115,249.083 106.798,247.821 113.552 C 247.404 115.784,247.047 115.466,251.991 117.274 C 253.208 117.720,255.996 118.764,258.186 119.595 C 263.883 121.758,275.550 125.669,276.210 125.637 C 276.518 125.623,278.917 122.322,281.541 118.302 L 286.312 110.994 283.978 108.300 C 279.649 103.303,273.722 99.132,270.933 99.119 C 270.400 99.117,269.841 98.916,269.690 98.673 C 269.539 98.428,267.556 98.230,265.265 98.230 C 262.975 98.230,260.992 98.428,260.841 98.673 M300.664 114.869 C 284.754 118.695,279.192 135.273,288.538 151.008 C 294.538 161.110,301.388 164.039,307.818 159.251 C 310.176 157.495,312.204 156.454,318.453 153.794 C 328.727 149.421,330.340 146.367,327.045 137.534 C 321.869 123.660,309.238 112.808,300.664 114.869 M95.050 115.695 C 84.322 118.649,76.039 128.463,74.099 140.515 C 72.715 149.118,74.892 152.923,82.420 155.058 C 83.825 155.456,86.437 156.670,88.225 157.756 C 98.081 163.740,102.200 163.826,107.707 158.165 C 114.514 151.166,118.787 140.467,117.717 133.101 C 115.851 120.259,105.985 112.683,95.050 115.695 M186.283 118.601 C 161.383 120.739,132.123 129.211,127.157 135.721 C 125.594 137.770,124.942 140.841,125.441 143.797 C 125.813 145.998,125.677 146.002,132.287 143.571 C 145.932 138.553,157.296 135.193,165.929 133.623 C 168.728 133.114,173.108 132.312,175.664 131.841 C 206.355 126.185,239.580 129.995,268.851 142.525 C 277.292 146.139,276.383 146.011,276.739 143.636 C 277.920 135.761,272.212 131.985,248.451 124.922 C 230.721 119.652,204.775 117.014,186.283 118.601 M193.969 138.084 C 163.368 139.538,134.694 148.365,115.929 162.108 C 110.030 166.429,107.079 169.014,107.086 169.855 C 107.092 170.464,118.265 178.101,120.055 178.720 C 120.341 178.819,124.060 181.123,128.319 183.840 C 136.444 189.023,141.785 192.255,142.949 192.692 C 143.496 192.897,143.947 192.042,145.099 188.622 C 158.652 148.379,207.956 135.517,239.023 164.119 C 246.239 170.763,252.741 181.395,254.606 189.598 C 255.192 192.181,255.872 192.485,258.014 191.123 C 258.838 190.599,263.894 187.425,269.248 184.069 C 289.631 171.295,293.363 168.897,293.363 168.572 C 293.363 168.388,291.720 166.847,289.712 165.148 C 274.869 152.587,257.296 144.699,235.232 140.693 C 225.845 138.988,206.277 137.226,201.770 137.679 C 201.405 137.715,197.895 137.898,193.969 138.084 M193.805 155.138 C 151.993 160.315,133.929 210.757,162.919 241.383 C 184.422 264.100,220.501 262.228,240.282 237.368 C 251.460 223.321,254.051 202.957,246.811 186.064 C 237.893 165.257,215.867 152.406,193.805 155.138 M69.039 161.492 C 67.081 163.587,66.814 165.673,66.818 178.846 C 66.823 196.829,69.419 212.275,74.463 224.336 C 74.718 224.945,74.959 225.542,75.000 225.664 C 76.688 230.700,84.045 243.633,88.970 250.221 C 102.884 268.836,124.026 284.729,143.987 291.579 C 146.686 292.505,149.445 293.481,150.119 293.748 C 155.165 295.743,171.625 299.193,182.080 300.446 C 207.664 303.513,232.662 300.873,255.752 292.665 C 257.577 292.016,260.069 291.137,261.288 290.712 C 265.374 289.286,272.169 285.669,282.437 279.455 C 294.486 272.163,308.220 256.775,317.415 240.265 C 323.302 229.694,328.982 214.203,331.124 202.876 C 331.493 200.929,332.057 197.942,332.379 196.239 C 333.211 191.838,333.194 169.254,332.356 165.992 C 330.254 157.806,324.324 158.820,309.436 169.912 C 307.313 171.493,303.131 174.480,300.142 176.549 C 297.154 178.617,292.188 182.102,289.108 184.292 C 273.942 195.074,269.529 198.180,267.699 199.360 C 266.604 200.066,263.792 201.999,261.450 203.655 L 257.191 206.666 256.898 210.302 C 252.860 260.355,192.473 281.605,157.856 245.155 C 149.366 236.215,144.249 225.041,142.839 212.364 L 142.307 207.584 137.636 204.229 C 131.875 200.091,121.105 192.585,115.487 188.793 C 109.817 184.966,100.221 177.986,92.727 172.239 C 77.787 160.780,72.109 158.204,69.039 161.492 " stroke="none" fill="#000000" fill-rule="evenodd"></path></g></svg>