<svg id="svg" version="1.1" xmlns="http://www.w3.org/2000/svg" xmlns:xlink="http://www.w3.org/1999/xlink" width="400" height="400" viewBox="0, 0, 400,400"><g id="svgg"><path id="path0" d="M104.800 1.400 C 104.800 1.893,104.089 2.000,100.800 2.000 C 97.511 2.000,96.800 2.107,96.800 2.600 C 96.800 3.076,96.226 3.200,94.033 3.200 C 90.912 3.200,90.000 3.436,90.000 4.243 C 90.000 4.645,89.443 4.800,88.000 4.800 C 86.489 4.800,86.000 4.947,86.000 5.400 C 86.000 5.853,85.511 6.000,84.000 6.000 C 82.489 6.000,82.000 6.147,82.000 6.600 C 82.000 7.046,81.529 7.200,80.163 7.200 C 78.662 7.200,78.287 7.346,78.116 8.000 C 77.943 8.662,77.570 8.800,75.953 8.800 C 74.484 8.800,74.000 8.949,74.000 9.400 C 74.000 9.801,73.599 10.000,72.787 10.000 C 72.079 10.000,71.479 10.249,71.345 10.600 C 71.213 10.942,70.617 11.200,69.957 11.200 C 69.067 11.200,68.800 11.384,68.800 12.000 C 68.800 12.648,68.533 12.800,67.400 12.800 C 66.422 12.800,66.000 12.981,66.000 13.400 C 66.000 13.819,65.578 14.000,64.600 14.000 C 63.622 14.000,63.200 14.181,63.200 14.600 C 63.200 15.000,62.800 15.200,62.000 15.200 C 61.067 15.200,60.800 15.378,60.800 16.000 C 60.800 16.648,60.533 16.800,59.400 16.800 C 58.422 16.800,58.000 16.981,58.000 17.400 C 58.000 17.730,57.730 18.000,57.400 18.000 C 57.070 18.000,56.800 18.270,56.800 18.600 C 56.800 19.004,56.396 19.200,55.563 19.200 C 54.662 19.200,54.268 19.417,54.116 20.000 C 54.001 20.440,53.658 20.800,53.353 20.800 C 53.049 20.800,52.800 21.070,52.800 21.400 C 52.800 21.819,52.378 22.000,51.400 22.000 C 50.422 22.000,50.000 22.181,50.000 22.600 C 50.000 22.930,49.730 23.200,49.400 23.200 C 49.067 23.200,48.800 23.556,48.800 24.000 C 48.800 24.648,48.533 24.800,47.400 24.800 C 46.422 24.800,46.000 24.981,46.000 25.400 C 46.000 25.730,45.730 26.000,45.400 26.000 C 45.070 26.000,44.800 26.249,44.800 26.553 C 44.800 26.858,44.440 27.201,44.000 27.316 C 43.560 27.431,43.200 27.812,43.200 28.163 C 43.200 28.513,42.930 28.800,42.600 28.800 C 42.270 28.800,42.000 29.070,42.000 29.400 C 42.000 29.730,41.730 30.000,41.400 30.000 C 41.070 30.000,40.800 30.249,40.800 30.553 C 40.800 30.858,40.440 31.201,40.000 31.316 C 39.560 31.431,39.200 31.812,39.200 32.163 C 39.200 32.513,38.930 32.800,38.600 32.800 C 38.270 32.800,38.000 33.070,38.000 33.400 C 38.000 33.770,37.624 34.000,37.018 34.000 C 35.753 34.000,34.000 35.753,34.000 37.018 C 34.000 37.624,33.770 38.000,33.400 38.000 C 33.070 38.000,32.800 38.270,32.800 38.600 C 32.800 38.930,32.513 39.200,32.163 39.200 C 31.812 39.200,31.431 39.560,31.316 40.000 C 31.201 40.440,30.858 40.800,30.553 40.800 C 30.249 40.800,30.000 41.070,30.000 41.400 C 30.000 41.730,29.730 42.000,29.400 42.000 C 29.070 42.000,28.800 42.270,28.800 42.600 C 28.800 42.930,28.513 43.200,28.163 43.200 C 27.812 43.200,27.431 43.560,27.316 44.000 C 27.201 44.440,26.858 44.800,26.553 44.800 C 26.249 44.800,26.000 45.070,26.000 45.400 C 26.000 45.730,25.730 46.000,25.400 46.000 C 24.981 46.000,24.800 46.422,24.800 47.400 C 24.800 48.533,24.648 48.800,24.000 48.800 C 23.556 48.800,23.200 49.067,23.200 49.400 C 23.200 49.730,22.930 50.000,22.600 50.000 C 22.181 50.000,22.000 50.422,22.000 51.400 C 22.000 52.378,21.819 52.800,21.400 52.800 C 21.070 52.800,20.800 53.049,20.800 53.353 C 20.800 53.658,20.440 54.001,20.000 54.116 C 19.417 54.268,19.200 54.662,19.200 55.563 C 19.200 56.396,19.004 56.800,18.600 56.800 C 18.270 56.800,18.000 57.070,18.000 57.400 C 18.000 57.730,17.730 58.000,17.400 58.000 C 16.981 58.000,16.800 58.422,16.800 59.400 C 16.800 60.533,16.648 60.800,16.000 60.800 C 15.378 60.800,15.200 61.067,15.200 62.000 C 15.200 62.800,15.000 63.200,14.600 63.200 C 14.181 63.200,14.000 63.622,14.000 64.600 C 14.000 65.578,13.819 66.000,13.400 66.000 C 12.981 66.000,12.800 66.422,12.800 67.400 C 12.800 68.533,12.648 68.800,12.000 68.800 C 11.384 68.800,11.200 69.067,11.200 69.957 C 11.200 70.617,10.942 71.213,10.600 71.345 C 10.249 71.479,10.000 72.079,10.000 72.787 C 10.000 73.599,9.801 74.000,9.400 74.000 C 8.949 74.000,8.800 74.484,8.800 75.953 C 8.800 77.570,8.662 77.943,8.000 78.116 C 7.346 78.287,7.200 78.662,7.200 80.163 C 7.200 81.529,7.046 82.000,6.600 82.000 C 6.147 82.000,6.000 82.489,6.000 84.000 C 6.000 85.511,5.853 86.000,5.400 86.000 C 4.947 86.000,4.800 86.489,4.800 88.000 C 4.800 89.443,4.645 90.000,4.243 90.000 C 3.436 90.000,3.200 90.912,3.200 94.033 C 3.200 96.226,3.076 96.800,2.600 96.800 C 2.107 96.800,2.000 97.511,2.000 100.800 C 2.000 104.089,1.893 104.800,1.400 104.800 C 0.868 104.800,0.800 115.644,0.800 200.000 C 0.800 284.356,0.868 295.200,1.400 295.200 C 1.893 295.200,2.000 295.911,2.000 299.200 C 2.000 302.489,2.107 303.200,2.600 303.200 C 3.076 303.200,3.200 303.774,3.200 305.967 C 3.200 309.088,3.436 310.000,4.243 310.000 C 4.645 310.000,4.800 310.557,4.800 312.000 C 4.800 313.511,4.947 314.000,5.400 314.000 C 5.853 314.000,6.000 314.489,6.000 316.000 C 6.000 317.511,6.147 318.000,6.600 318.000 C 7.046 318.000,7.200 318.471,7.200 319.837 C 7.200 321.338,7.346 321.713,8.000 321.884 C 8.662 322.057,8.800 322.430,8.800 324.047 C 8.800 325.516,8.949 326.000,9.400 326.000 C 9.801 326.000,10.000 326.401,10.000 327.213 C 10.000 327.921,10.249 328.521,10.600 328.655 C 10.942 328.787,11.200 329.383,11.200 330.043 C 11.200 330.933,11.384 331.200,12.000 331.200 C 12.648 331.200,12.800 331.467,12.800 332.600 C 12.800 333.578,12.981 334.000,13.400 334.000 C 13.819 334.000,14.000 334.422,14.000 335.400 C 14.000 336.378,14.181 336.800,14.600 336.800 C 15.000 336.800,15.200 337.200,15.200 338.000 C 15.200 338.933,15.378 339.200,16.000 339.200 C 16.648 339.200,16.800 339.467,16.800 340.600 C 16.800 341.578,16.981 342.000,17.400 342.000 C 17.730 342.000,18.000 342.270,18.000 342.600 C 18.000 342.930,18.270 343.200,18.600 343.200 C 19.004 343.200,19.200 343.604,19.200 344.437 C 19.200 345.338,19.417 345.732,20.000 345.884 C 20.440 345.999,20.800 346.342,20.800 346.647 C 20.800 346.951,21.070 347.200,21.400 347.200 C 21.819 347.200,22.000 347.622,22.000 348.600 C 22.000 349.578,22.181 350.000,22.600 350.000 C 22.930 350.000,23.200 350.270,23.200 350.600 C 23.200 350.933,23.556 351.200,24.000 351.200 C 24.648 351.200,24.800 351.467,24.800 352.600 C 24.800 353.578,24.981 354.000,25.400 354.000 C 25.730 354.000,26.000 354.270,26.000 354.600 C 26.000 354.930,26.270 355.200,26.600 355.200 C 26.930 355.200,27.200 355.487,27.200 355.837 C 27.200 356.188,27.560 356.569,28.000 356.684 C 28.440 356.799,28.800 357.142,28.800 357.447 C 28.800 357.751,29.070 358.000,29.400 358.000 C 29.730 358.000,30.000 358.270,30.000 358.600 C 30.000 358.930,30.270 359.200,30.600 359.200 C 30.930 359.200,31.200 359.487,31.200 359.837 C 31.200 360.188,31.560 360.569,32.000 360.684 C 32.440 360.799,32.800 361.142,32.800 361.447 C 32.800 361.751,33.070 362.000,33.400 362.000 C 33.770 362.000,34.000 362.376,34.000 362.982 C 34.000 364.247,35.753 366.000,37.018 366.000 C 37.624 366.000,38.000 366.230,38.000 366.600 C 38.000 366.930,38.270 367.200,38.600 367.200 C 38.930 367.200,39.200 367.487,39.200 367.837 C 39.200 368.188,39.560 368.569,40.000 368.684 C 40.440 368.799,40.800 369.142,40.800 369.447 C 40.800 369.751,41.070 370.000,41.400 370.000 C 41.730 370.000,42.000 370.270,42.000 370.600 C 42.000 370.930,42.270 371.200,42.600 371.200 C 42.930 371.200,43.200 371.487,43.200 371.837 C 43.200 372.188,43.560 372.569,44.000 372.684 C 44.440 372.799,44.800 373.142,44.800 373.447 C 44.800 373.751,45.070 374.000,45.400 374.000 C 45.730 374.000,46.000 374.270,46.000 374.600 C 46.000 375.019,46.422 375.200,47.400 375.200 C 48.533 375.200,48.800 375.352,48.800 376.000 C 48.800 376.444,49.067 376.800,49.400 376.800 C 49.730 376.800,50.000 377.070,50.000 377.400 C 50.000 377.819,50.422 378.000,51.400 378.000 C 52.378 378.000,52.800 378.181,52.800 378.600 C 52.800 378.930,53.049 379.200,53.353 379.200 C 53.658 379.200,54.001 379.560,54.116 380.000 C 54.268 380.583,54.662 380.800,55.563 380.800 C 56.396 380.800,56.800 380.996,56.800 381.400 C 56.800 381.730,57.070 382.000,57.400 382.000 C 57.730 382.000,58.000 382.270,58.000 382.600 C 58.000 383.019,58.422 383.200,59.400 383.200 C 60.533 383.200,60.800 383.352,60.800 384.000 C 60.800 384.622,61.067 384.800,62.000 384.800 C 62.800 384.800,63.200 385.000,63.200 385.400 C 63.200 385.819,63.622 386.000,64.600 386.000 C 65.578 386.000,66.000 386.181,66.000 386.600 C 66.000 387.019,66.422 387.200,67.400 387.200 C 68.533 387.200,68.800 387.352,68.800 388.000 C 68.800 388.616,69.067 388.800,69.957 388.800 C 70.617 388.800,71.213 389.058,71.345 389.400 C 71.479 389.751,72.079 390.000,72.787 390.000 C 73.599 390.000,74.000 390.199,74.000 390.600 C 74.000 391.051,74.484 391.200,75.953 391.200 C 77.570 391.200,77.943 391.338,78.116 392.000 C 78.287 392.654,78.662 392.800,80.163 392.800 C 81.529 392.800,82.000 392.954,82.000 393.400 C 82.000 393.853,82.489 394.000,84.000 394.000 C 85.511 394.000,86.000 394.147,86.000 394.600 C 86.000 395.053,86.489 395.200,88.000 395.200 C 89.443 395.200,90.000 395.355,90.000 395.757 C 90.000 396.564,90.912 396.800,94.033 396.800 C 96.226 396.800,96.800 396.924,96.800 397.400 C 96.800 397.893,97.511 398.000,100.800 398.000 C 104.089 398.000,104.800 398.107,104.800 398.600 C 104.800 399.132,115.644 399.200,200.000 399.200 C 284.356 399.200,295.200 399.132,295.200 398.600 C 295.200 398.107,295.911 398.000,299.200 398.000 C 302.489 398.000,303.200 397.893,303.200 397.400 C 303.200 396.924,303.774 396.800,305.967 396.800 C 309.088 396.800,310.000 396.564,310.000 395.757 C 310.000 395.355,310.557 395.200,312.000 395.200 C 313.511 395.200,314.000 395.053,314.000 394.600 C 314.000 394.147,314.489 394.000,316.000 394.000 C 317.511 394.000,318.000 393.853,318.000 393.400 C 318.000 392.954,318.471 392.800,319.837 392.800 C 321.338 392.800,321.713 392.654,321.884 392.000 C 322.057 391.338,322.430 391.200,324.047 391.200 C 325.516 391.200,326.000 391.051,326.000 390.600 C 326.000 390.199,326.401 390.000,327.213 390.000 C 327.921 390.000,328.521 389.751,328.655 389.400 C 328.787 389.058,329.383 388.800,330.043 388.800 C 330.933 388.800,331.200 388.616,331.200 388.000 C 331.200 387.352,331.467 387.200,332.600 387.200 C 333.578 387.200,334.000 387.019,334.000 386.600 C 334.000 386.181,334.422 386.000,335.400 386.000 C 336.378 386.000,336.800 385.819,336.800 385.400 C 336.800 385.000,337.200 384.800,338.000 384.800 C 338.933 384.800,339.200 384.622,339.200 384.000 C 339.200 383.352,339.467 383.200,340.600 383.200 C 341.578 383.200,342.000 383.019,342.000 382.600 C 342.000 382.270,342.270 382.000,342.600 382.000 C 342.930 382.000,343.200 381.730,343.200 381.400 C 343.200 380.996,343.604 380.800,344.437 380.800 C 345.338 380.800,345.732 380.583,345.884 380.000 C 345.999 379.560,346.342 379.200,346.647 379.200 C 346.951 379.200,347.200 378.930,347.200 378.600 C 347.200 378.181,347.622 378.000,348.600 378.000 C 349.578 378.000,350.000 377.819,350.000 377.400 C 350.000 377.070,350.270 376.800,350.600 376.800 C 350.933 376.800,351.200 376.444,351.200 376.000 C 351.200 375.352,351.467 375.200,352.600 375.200 C 353.578 375.200,354.000 375.019,354.000 374.600 C 354.000 374.270,354.270 374.000,354.600 374.000 C 354.930 374.000,355.200 373.751,355.200 373.447 C 355.200 373.142,355.560 372.799,356.000 372.684 C 356.440 372.569,356.800 372.188,356.800 371.837 C 356.800 371.487,357.070 371.200,357.400 371.200 C 357.730 371.200,358.000 370.930,358.000 370.600 C 358.000 370.270,358.270 370.000,358.600 370.000 C 358.930 370.000,359.200 369.751,359.200 369.447 C 359.200 369.142,359.560 368.799,360.000 368.684 C 360.440 368.569,360.800 368.188,360.800 367.837 C 360.800 367.487,361.070 367.200,361.400 367.200 C 361.730 367.200,362.000 366.930,362.000 366.600 C 362.000 366.230,362.376 366.000,362.982 366.000 C 364.247 366.000,366.000 364.247,366.000 362.982 C 366.000 362.376,366.230 362.000,366.600 362.000 C 366.930 362.000,367.200 361.751,367.200 361.447 C 367.200 361.142,367.560 360.799,368.000 360.684 C 368.440 360.569,368.800 360.188,368.800 359.837 C 368.800 359.487,369.070 359.200,369.400 359.200 C 369.730 359.200,370.000 358.930,370.000 358.600 C 370.000 358.270,370.270 358.000,370.600 358.000 C 370.930 358.000,371.200 357.751,371.200 357.447 C 371.200 357.142,371.560 356.799,372.000 356.684 C 372.440 356.569,372.800 356.188,372.800 355.837 C 372.800 355.487,373.070 355.200,373.400 355.200 C 373.730 355.200,374.000 354.930,374.000 354.600 C 374.000 354.270,374.270 354.000,374.600 354.000 C 375.019 354.000,375.200 353.578,375.200 352.600 C 375.200 351.467,375.352 351.200,376.000 351.200 C 376.444 351.200,376.800 350.933,376.800 350.600 C 376.800 350.270,377.070 350.000,377.400 350.000 C 377.819 350.000,378.000 349.578,378.000 348.600 C 378.000 347.622,378.181 347.200,378.600 347.200 C 378.930 347.200,379.200 346.951,379.200 346.647 C 379.200 346.342,379.560 345.999,380.000 345.884 C 380.583 345.732,380.800 345.338,380.800 344.437 C 380.800 343.604,380.996 343.200,381.400 343.200 C 381.730 343.200,382.000 342.930,382.000 342.600 C 382.000 342.270,382.270 342.000,382.600 342.000 C 383.019 342.000,383.200 341.578,383.200 340.600 C 383.200 339.467,383.352 339.200,384.000 339.200 C 384.622 339.200,384.800 338.933,384.800 338.000 C 384.800 337.200,385.000 336.800,385.400 336.800 C 385.819 336.800,386.000 336.378,386.000 335.400 C 386.000 334.422,386.181 334.000,386.600 334.000 C 387.019 334.000,387.200 333.578,387.200 332.600 C 387.200 331.467,387.352 331.200,388.000 331.200 C 388.616 331.200,388.800 330.933,388.800 330.043 C 388.800 329.383,389.058 328.787,389.400 328.655 C 389.751 328.521,390.000 327.921,390.000 327.213 C 390.000 326.401,390.199 326.000,390.600 326.000 C 391.051 326.000,391.200 325.516,391.200 324.047 C 391.200 322.430,391.338 322.057,392.000 321.884 C 392.654 321.713,392.800 321.338,392.800 319.837 C 392.800 318.471,392.954 318.000,393.400 318.000 C 393.853 318.000,394.000 317.511,394.000 316.000 C 394.000 314.489,394.147 314.000,394.600 314.000 C 395.053 314.000,395.200 313.511,395.200 312.000 C 395.200 310.557,395.355 310.000,395.757 310.000 C 396.564 310.000,396.800 309.088,396.800 305.967 C 396.800 303.774,396.924 303.200,397.400 303.200 C 397.893 303.200,398.000 302.489,398.000 299.200 C 398.000 295.911,398.107 295.200,398.600 295.200 C 399.132 295.200,399.200 284.356,399.200 200.000 C 399.200 115.644,399.132 104.800,398.600 104.800 C 398.107 104.800,398.000 104.089,398.000 100.800 C 398.000 97.511,397.893 96.800,397.400 96.800 C 396.924 96.800,396.800 96.226,396.800 94.033 C 396.800 90.912,396.564 90.000,395.757 90.000 C 395.355 90.000,395.200 89.443,395.200 88.000 C 395.200 86.489,395.053 86.000,394.600 86.000 C 394.147 86.000,394.000 85.511,394.000 84.000 C 394.000 82.489,393.853 82.000,393.400 82.000 C 392.954 82.000,392.800 81.529,392.800 80.163 C 392.800 78.662,392.654 78.287,392.000 78.116 C 391.338 77.943,391.200 77.570,391.200 75.953 C 391.200 74.484,391.051 74.000,390.600 74.000 C 390.199 74.000,390.000 73.599,390.000 72.787 C 390.000 72.079,389.751 71.479,389.400 71.345 C 389.058 71.213,388.800 70.617,388.800 69.957 C 388.800 69.067,388.616 68.800,388.000 68.800 C 387.352 68.800,387.200 68.533,387.200 67.400 C 387.200 66.422,387.019 66.000,386.600 66.000 C 386.181 66.000,386.000 65.578,386.000 64.600 C 386.000 63.622,385.819 63.200,385.400 63.200 C 385.000 63.200,384.800 62.800,384.800 62.000 C 384.800 61.067,384.622 60.800,384.000 60.800 C 383.352 60.800,383.200 60.533,383.200 59.400 C 383.200 58.422,383.019 58.000,382.600 58.000 C 382.270 58.000,382.000 57.730,382.000 57.400 C 382.000 57.070,381.730 56.800,381.400 56.800 C 380.996 56.800,380.800 56.396,380.800 55.563 C 380.800 54.662,380.583 54.268,380.000 54.116 C 379.560 54.001,379.200 53.658,379.200 53.353 C 379.200 53.049,378.930 52.800,378.600 52.800 C 378.181 52.800,378.000 52.378,378.000 51.400 C 378.000 50.422,377.819 50.000,377.400 50.000 C 377.070 50.000,376.800 49.730,376.800 49.400 C 376.800 49.067,376.444 48.800,376.000 48.800 C 375.352 48.800,375.200 48.533,375.200 47.400 C 375.200 46.422,375.019 46.000,374.600 46.000 C 374.270 46.000,374.000 45.730,374.000 45.400 C 374.000 45.070,373.730 44.800,373.400 44.800 C 373.070 44.800,372.800 44.513,372.800 44.163 C 372.800 43.812,372.440 43.431,372.000 43.316 C 371.560 43.201,371.200 42.858,371.200 42.553 C 371.200 42.249,370.930 42.000,370.600 42.000 C 370.270 42.000,370.000 41.730,370.000 41.400 C 370.000 41.070,369.730 40.800,369.400 40.800 C 369.070 40.800,368.800 40.513,368.800 40.163 C 368.800 39.812,368.440 39.431,368.000 39.316 C 367.560 39.201,367.200 38.858,367.200 38.553 C 367.200 38.249,366.930 38.000,366.600 38.000 C 366.230 38.000,366.000 37.624,366.000 37.018 C 366.000 35.753,364.247 34.000,362.982 34.000 C 362.376 34.000,362.000 33.770,362.000 33.400 C 362.000 33.070,361.730 32.800,361.400 32.800 C 361.070 32.800,360.800 32.513,360.800 32.163 C 360.800 31.812,360.440 31.431,360.000 31.316 C 359.560 31.201,359.200 30.858,359.200 30.553 C 359.200 30.249,358.930 30.000,358.600 30.000 C 358.270 30.000,358.000 29.730,358.000 29.400 C 358.000 29.070,357.730 28.800,357.400 28.800 C 357.070 28.800,356.800 28.513,356.800 28.163 C 356.800 27.812,356.440 27.431,356.000 27.316 C 355.560 27.201,355.200 26.858,355.200 26.553 C 355.200 26.249,354.930 26.000,354.600 26.000 C 354.270 26.000,354.000 25.730,354.000 25.400 C 354.000 24.981,353.578 24.800,352.600 24.800 C 351.467 24.800,351.200 24.648,351.200 24.000 C 351.200 23.556,350.933 23.200,350.600 23.200 C 350.270 23.200,350.000 22.930,350.000 22.600 C 350.000 22.181,349.578 22.000,348.600 22.000 C 347.622 22.000,347.200 21.819,347.200 21.400 C 347.200 21.070,346.951 20.800,346.647 20.800 C 346.342 20.800,345.999 20.440,345.884 20.000 C 345.732 19.417,345.338 19.200,344.437 19.200 C 343.604 19.200,343.200 19.004,343.200 18.600 C 343.200 18.270,342.930 18.000,342.600 18.000 C 342.270 18.000,342.000 17.730,342.000 17.400 C 342.000 16.981,341.578 16.800,340.600 16.800 C 339.467 16.800,339.200 16.648,339.200 16.000 C 339.200 15.378,338.933 15.200,338.000 15.200 C 337.200 15.200,336.800 15.000,336.800 14.600 C 336.800 14.181,336.378 14.000,335.400 14.000 C 334.422 14.000,334.000 13.819,334.000 13.400 C 334.000 12.981,333.578 12.800,332.600 12.800 C 331.467 12.800,331.200 12.648,331.200 12.000 C 331.200 11.384,330.933 11.200,330.043 11.200 C 329.383 11.200,328.787 10.942,328.655 10.600 C 328.521 10.249,327.921 10.000,327.213 10.000 C 326.401 10.000,326.000 9.801,326.000 9.400 C 326.000 8.949,325.516 8.800,324.047 8.800 C 322.430 8.800,322.057 8.662,321.884 8.000 C 321.713 7.346,321.338 7.200,319.837 7.200 C 318.471 7.200,318.000 7.046,318.000 6.600 C 318.000 6.147,317.511 6.000,316.000 6.000 C 314.489 6.000,314.000 5.853,314.000 5.400 C 314.000 4.947,313.511 4.800,312.000 4.800 C 310.557 4.800,310.000 4.645,310.000 4.243 C 310.000 3.436,309.088 3.200,305.967 3.200 C 303.774 3.200,303.200 3.076,303.200 2.600 C 303.200 2.107,302.489 2.000,299.200 2.000 C 295.911 2.000,295.200 1.893,295.200 1.400 C 295.200 0.868,284.356 0.800,200.000 0.800 C 115.644 0.800,104.800 0.868,104.800 1.400 M287.800 18.794 C 294.853 19.340,305.669 21.541,311.600 23.637 C 317.259 25.637,326.585 29.782,329.791 31.721 C 342.939 39.676,352.523 48.176,361.330 59.692 C 362.798 61.612,364.000 63.279,364.000 63.396 C 364.000 63.513,364.596 64.461,365.325 65.504 C 366.053 66.547,366.775 67.670,366.929 68.000 C 367.083 68.330,367.560 69.140,367.989 69.800 C 369.013 71.374,372.861 79.200,373.989 82.000 C 375.423 85.562,375.513 85.807,376.588 89.075 C 378.348 94.429,378.436 94.734,378.801 96.691 C 378.996 97.741,379.335 99.410,379.553 100.400 C 381.512 109.264,381.400 103.211,381.400 200.000 C 381.400 296.789,381.512 290.736,379.553 299.600 C 379.335 300.590,378.996 302.259,378.801 303.309 C 378.605 304.359,378.259 305.799,378.030 306.509 C 377.802 307.219,377.157 309.240,376.597 311.000 C 376.037 312.760,375.404 314.513,375.190 314.895 C 374.975 315.277,374.800 315.781,374.800 316.015 C 374.800 316.614,372.620 321.402,369.963 326.636 C 361.012 344.275,344.275 361.012,326.636 369.963 C 321.402 372.620,316.614 374.800,316.015 374.800 C 315.781 374.800,315.277 374.975,314.895 375.190 C 314.513 375.404,312.760 376.037,311.000 376.597 C 309.240 377.157,307.219 377.802,306.509 378.030 C 305.799 378.259,304.359 378.605,303.309 378.801 C 302.259 378.996,300.590 379.335,299.600 379.553 C 290.736 381.512,296.789 381.400,200.000 381.400 C 103.211 381.400,109.264 381.512,100.400 379.553 C 99.410 379.335,97.741 378.996,96.691 378.801 C 94.734 378.436,94.429 378.348,89.075 376.588 C 85.807 375.513,85.562 375.423,82.000 373.989 C 79.200 372.861,71.374 369.013,69.800 367.989 C 69.140 367.560,68.330 367.083,68.000 366.929 C 67.670 366.775,66.547 366.053,65.504 365.325 C 64.461 364.596,63.513 364.000,63.396 364.000 C 63.279 364.000,61.612 362.798,59.692 361.330 C 48.176 352.523,39.676 342.939,31.721 329.791 C 29.782 326.585,25.637 317.259,23.637 311.600 C 21.541 305.669,19.340 294.853,18.794 287.800 C 18.390 282.578,18.390 117.422,18.794 112.200 C 19.238 106.470,20.852 97.629,22.249 93.286 C 22.552 92.343,22.800 91.306,22.800 90.981 C 22.800 90.655,22.975 90.077,23.190 89.695 C 23.404 89.313,24.055 87.560,24.637 85.800 C 25.554 83.025,30.079 72.923,31.176 71.200 C 31.387 70.870,32.321 69.340,33.252 67.800 C 41.412 54.307,54.307 41.412,67.800 33.252 C 69.340 32.321,70.870 31.387,71.200 31.176 C 72.923 30.079,83.025 25.554,85.800 24.637 C 87.560 24.055,89.313 23.404,89.695 23.190 C 90.077 22.975,90.655 22.800,90.981 22.800 C 91.306 22.800,92.343 22.552,93.286 22.249 C 97.492 20.897,106.568 19.213,111.800 18.815 C 116.811 18.433,282.882 18.414,287.800 18.794 M132.022 106.436 C 127.927 107.239,120.000 112.931,120.000 115.068 C 120.000 115.604,122.848 119.405,127.718 125.370 C 128.423 126.234,129.450 127.532,130.000 128.255 C 131.404 130.102,132.588 129.984,138.600 127.399 C 139.260 127.115,140.970 126.468,142.400 125.960 C 143.830 125.453,145.450 124.805,146.000 124.521 C 146.550 124.237,147.270 123.993,147.600 123.979 C 151.263 123.820,152.527 121.447,151.157 117.305 C 148.282 108.617,141.256 104.626,132.022 106.436 M256.800 106.438 C 253.767 107.028,248.000 111.036,248.000 112.555 C 248.000 112.765,247.753 113.221,247.452 113.569 C 246.739 114.388,245.200 118.917,245.200 120.191 C 245.200 121.245,246.215 121.960,248.800 122.727 C 249.570 122.956,251.460 123.609,253.000 124.180 C 254.540 124.750,256.880 125.589,258.200 126.044 C 259.520 126.499,261.167 127.125,261.860 127.435 C 262.554 127.746,263.270 128.000,263.453 128.000 C 263.827 128.000,267.830 129.506,268.895 130.047 C 270.832 131.032,270.872 130.994,275.993 123.200 C 277.511 120.890,278.956 118.770,279.204 118.488 C 279.872 117.728,279.588 117.053,277.600 114.675 C 271.866 107.818,264.567 104.927,256.800 106.438 M293.800 121.463 C 280.186 123.458,274.241 141.076,282.847 153.920 C 283.481 154.866,284.000 155.781,284.000 155.954 C 284.000 156.661,289.922 162.350,291.484 163.144 C 294.108 164.478,298.590 163.895,300.000 162.036 C 300.574 161.280,305.036 158.774,308.200 157.431 C 313.863 155.027,315.170 154.314,317.149 152.545 L 319.000 150.890 318.990 147.945 C 318.975 143.684,316.466 137.298,313.167 133.123 C 312.525 132.311,312.000 131.542,312.000 131.414 C 312.000 130.920,306.126 125.072,304.604 124.051 C 301.602 122.037,297.154 120.972,293.800 121.463 M101.400 122.534 C 96.362 124.408,89.340 129.847,87.969 132.938 C 87.759 133.412,87.179 134.520,86.680 135.400 C 81.009 145.412,82.642 155.602,90.200 157.367 C 91.537 157.679,93.786 158.751,96.200 160.228 C 101.705 163.594,103.233 164.161,106.859 164.181 L 110.319 164.200 112.259 162.567 C 114.327 160.828,117.732 156.585,118.655 154.600 C 118.961 153.940,119.383 153.130,119.592 152.800 C 119.961 152.219,120.683 150.542,122.177 146.800 C 122.572 145.810,123.080 144.603,123.306 144.118 C 124.068 142.478,122.793 134.450,121.219 130.977 C 117.794 123.423,109.038 119.693,101.400 122.534 M183.800 125.208 C 174.010 126.272,171.360 126.742,160.800 129.288 C 151.922 131.429,142.139 134.679,137.226 137.120 C 133.266 139.087,131.200 142.221,131.200 146.257 C 131.200 149.151,132.238 149.118,139.800 145.979 C 143.775 144.329,158.493 139.971,164.600 138.635 C 196.427 131.672,219.170 131.979,247.000 139.746 C 249.284 140.384,256.202 142.687,257.400 143.209 C 257.840 143.400,259.593 144.100,261.295 144.764 C 262.997 145.428,265.345 146.424,266.512 146.976 C 269.990 148.621,270.576 148.542,270.727 146.409 C 271.054 141.815,268.939 139.149,263.200 136.924 C 257.082 134.552,255.596 133.997,253.200 133.189 C 247.828 131.379,239.213 129.096,231.600 127.464 C 218.015 124.552,198.367 123.624,183.800 125.208 M186.400 143.459 C 170.158 145.377,160.143 147.632,146.800 152.379 C 144.930 153.044,143.040 153.756,142.600 153.962 C 142.160 154.167,140.585 154.890,139.100 155.568 C 135.481 157.219,131.581 159.124,130.602 159.717 C 123.051 164.293,114.706 170.635,114.480 171.970 C 114.392 172.489,115.399 173.309,118.248 175.039 C 123.892 178.466,126.937 180.355,136.682 186.473 C 148.347 193.796,147.270 193.545,148.747 189.279 C 150.375 184.575,150.938 183.108,151.385 182.407 C 151.593 182.080,152.176 181.035,152.682 180.085 C 155.017 175.692,158.301 171.276,161.816 167.800 C 164.043 165.598,167.206 162.800,167.468 162.800 C 167.587 162.800,168.422 162.215,169.323 161.500 C 171.223 159.992,171.329 159.930,175.696 157.752 C 184.829 153.198,189.197 152.200,200.000 152.200 C 208.405 152.200,209.076 152.286,216.000 154.244 C 224.857 156.748,236.115 164.362,241.600 171.557 C 242.150 172.279,242.851 173.137,243.158 173.464 C 243.876 174.230,245.600 176.768,245.600 177.060 C 245.600 177.183,246.140 178.084,246.800 179.062 C 247.460 180.040,248.000 181.090,248.000 181.396 C 248.000 181.702,248.165 182.054,248.366 182.179 C 248.567 182.303,249.221 183.709,249.819 185.302 C 250.418 186.896,251.153 188.767,251.454 189.460 C 251.754 190.154,252.000 190.908,252.000 191.137 C 252.000 191.366,252.185 191.667,252.412 191.808 C 252.731 192.005,278.717 176.196,283.600 172.834 C 284.150 172.456,284.915 172.029,285.300 171.886 C 288.940 170.531,273.133 159.103,259.800 153.450 C 257.820 152.611,255.660 151.684,255.000 151.391 C 252.684 150.362,242.090 147.262,237.400 146.241 C 222.655 143.030,200.342 141.812,186.400 143.459 M195.400 158.801 C 181.801 160.027,168.696 167.851,161.087 179.286 C 158.787 182.743,156.000 187.971,156.000 188.828 C 156.000 189.076,155.753 189.846,155.451 190.540 C 147.800 208.091,156.883 234.301,174.404 245.226 C 178.015 247.478,178.128 247.542,180.000 248.411 C 199.276 257.354,222.757 252.149,236.000 235.996 C 236.990 234.788,237.894 233.710,238.009 233.600 C 238.124 233.490,238.572 232.860,239.004 232.200 C 242.001 227.625,244.084 222.878,246.064 216.117 C 247.182 212.299,247.069 199.192,245.881 194.800 C 245.156 192.120,243.703 187.792,243.219 186.873 C 243.024 186.503,242.480 185.410,242.009 184.444 C 236.322 172.764,223.296 162.378,211.372 160.017 C 210.067 159.759,208.460 159.395,207.800 159.208 C 206.008 158.702,199.039 158.473,195.400 158.801 M80.000 163.682 C 75.770 165.395,75.079 184.482,78.554 203.600 C 79.466 208.615,82.366 218.884,83.429 220.862 C 83.743 221.446,84.000 222.150,84.000 222.428 C 84.000 222.705,84.630 224.259,85.400 225.881 C 86.170 227.503,86.800 229.083,86.800 229.392 C 86.800 229.700,86.949 230.045,87.131 230.157 C 87.313 230.270,88.234 231.855,89.179 233.681 C 90.124 235.506,91.145 237.284,91.449 237.631 C 91.752 237.979,92.000 238.405,92.000 238.578 C 92.000 240.218,101.681 252.500,107.625 258.400 C 116.340 267.051,125.402 273.910,133.800 278.209 C 134.900 278.772,136.070 279.402,136.400 279.607 C 136.730 279.813,138.440 280.636,140.200 281.437 C 141.960 282.237,143.878 283.141,144.462 283.446 C 145.046 283.751,145.738 284.000,146.001 284.000 C 146.264 284.000,147.046 284.267,147.740 284.593 C 151.113 286.182,165.049 290.095,169.272 290.639 C 170.443 290.790,171.815 291.068,172.323 291.256 C 172.831 291.444,175.600 291.873,178.478 292.209 C 181.355 292.545,183.827 292.893,183.971 292.982 C 184.337 293.208,199.511 294.036,203.177 294.030 C 218.841 294.003,236.209 291.190,250.200 286.415 C 266.159 280.969,279.191 273.092,290.400 262.116 C 294.852 257.757,302.800 248.232,302.800 247.257 C 302.800 247.053,303.070 246.782,303.400 246.655 C 303.730 246.529,304.000 246.255,304.000 246.047 C 304.000 245.840,304.630 244.713,305.400 243.544 C 306.170 242.375,306.800 241.189,306.800 240.909 C 306.800 240.629,306.955 240.400,307.144 240.400 C 307.686 240.400,314.800 225.830,314.800 224.720 C 314.800 224.412,314.967 223.989,315.172 223.780 C 315.643 223.299,316.517 220.872,319.260 212.425 C 320.254 209.363,321.817 201.943,322.383 197.600 C 323.434 189.528,323.601 187.362,323.597 181.800 C 323.584 160.460,319.938 159.086,301.029 173.295 C 300.074 174.013,298.897 174.870,298.415 175.200 C 297.934 175.530,296.667 176.430,295.600 177.200 C 294.533 177.970,292.792 179.198,291.730 179.930 C 290.669 180.661,286.338 183.721,282.106 186.730 C 277.875 189.738,273.399 192.920,272.160 193.800 C 270.921 194.680,269.487 195.670,268.974 196.000 C 268.460 196.330,266.906 197.400,265.520 198.377 C 264.134 199.354,261.427 201.215,259.505 202.512 C 253.702 206.427,253.767 206.336,253.490 211.001 C 253.208 215.770,251.679 222.055,249.744 226.400 C 247.188 232.140,245.957 234.235,242.577 238.600 C 239.054 243.148,235.298 246.760,231.276 249.468 C 230.024 250.311,228.909 251.119,228.798 251.265 C 228.687 251.411,226.881 252.427,224.785 253.524 C 195.539 268.823,158.680 253.714,148.861 222.400 C 147.272 217.331,146.835 215.363,146.595 212.200 C 146.461 210.440,146.276 208.621,146.183 208.158 C 146.019 207.343,144.069 205.761,138.591 202.000 C 137.149 201.010,134.176 198.940,131.984 197.400 C 129.793 195.860,125.919 193.160,123.376 191.400 C 120.833 189.640,117.867 187.570,116.785 186.800 C 115.703 186.030,113.548 184.500,111.997 183.400 C 110.446 182.300,106.347 179.255,102.889 176.634 C 87.629 165.069,83.018 162.460,80.000 163.682 " stroke="none" fill="#f9faf9" fill-rule="evenodd"></path><path id="path1" d="M111.800 18.815 C 106.568 19.213,97.492 20.897,93.286 22.249 C 92.343 22.552,91.306 22.800,90.981 22.800 C 90.655 22.800,90.077 22.975,89.695 23.190 C 89.313 23.404,87.560 24.055,85.800 24.637 C 83.025 25.554,72.923 30.079,71.200 31.176 C 70.870 31.387,69.340 32.321,67.800 33.252 C 54.307 41.412,41.412 54.307,33.252 67.800 C 32.321 69.340,31.387 70.870,31.176 71.200 C 30.079 72.923,25.554 83.025,24.637 85.800 C 24.055 87.560,23.404 89.313,23.190 89.695 C 22.975 90.077,22.800 90.655,22.800 90.981 C 22.800 91.306,22.552 92.343,22.249 93.286 C 20.852 97.629,19.238 106.470,18.794 112.200 C 18.390 117.422,18.390 282.578,18.794 287.800 C 19.340 294.853,21.541 305.669,23.637 311.600 C 25.637 317.259,29.782 326.585,31.721 329.791 C 39.676 342.939,48.176 352.523,59.692 361.330 C 61.612 362.798,63.279 364.000,63.396 364.000 C 63.513 364.000,64.461 364.596,65.504 365.325 C 66.547 366.053,67.670 366.775,68.000 366.929 C 68.330 367.083,69.140 367.560,69.800 367.989 C 71.374 369.013,79.200 372.861,82.000 373.989 C 85.562 375.423,85.807 375.513,89.075 376.588 C 94.429 378.348,94.734 378.436,96.691 378.801 C 97.741 378.996,99.410 379.335,100.400 379.553 C 109.264 381.512,103.211 381.400,200.000 381.400 C 296.789 381.400,290.736 381.512,299.600 379.553 C 300.590 379.335,302.259 378.996,303.309 378.801 C 304.359 378.605,305.799 378.259,306.509 378.030 C 307.219 377.802,309.240 377.157,311.000 376.597 C 312.760 376.037,314.513 375.404,314.895 375.190 C 315.277 374.975,315.781 374.800,316.015 374.800 C 316.614 374.800,321.402 372.620,326.636 369.963 C 344.275 361.012,361.012 344.275,369.963 326.636 C 372.620 321.402,374.800 316.614,374.800 316.015 C 374.800 315.781,374.975 315.277,375.190 314.895 C 375.404 314.513,376.037 312.760,376.597 311.000 C 377.157 309.240,377.802 307.219,378.030 306.509 C 378.259 305.799,378.605 304.359,378.801 303.309 C 378.996 302.259,379.335 300.590,379.553 299.600 C 381.512 290.736,381.400 296.789,381.400 200.000 C 381.400 103.211,381.512 109.264,379.553 100.400 C 379.335 99.410,378.996 97.741,378.801 96.691 C 378.436 94.734,378.348 94.429,376.588 89.075 C 375.513 85.807,375.423 85.562,373.989 82.000 C 372.861 79.200,369.013 71.374,367.989 69.800 C 367.560 69.140,367.083 68.330,366.929 68.000 C 366.775 67.670,366.053 66.547,365.325 65.504 C 364.596 64.461,364.000 63.513,364.000 63.396 C 364.000 63.279,362.798 61.612,361.330 59.692 C 352.523 48.176,342.939 39.676,329.791 31.721 C 326.585 29.782,317.259 25.637,311.600 23.637 C 305.669 21.541,294.853 19.340,287.800 18.794 C 282.882 18.414,116.811 18.433,111.800 18.815 M140.000 106.419 C 145.391 107.616,149.171 111.304,151.157 117.305 C 152.527 121.447,151.263 123.820,147.600 123.979 C 147.270 123.993,146.550 124.237,146.000 124.521 C 145.450 124.805,143.830 125.453,142.400 125.960 C 140.970 126.468,139.260 127.115,138.600 127.399 C 132.588 129.984,131.404 130.102,130.000 128.255 C 129.450 127.532,128.423 126.234,127.718 125.370 C 118.868 114.531,119.158 115.286,122.552 111.893 C 127.381 107.063,133.813 105.046,140.000 106.419 M264.880 106.438 C 271.234 107.750,281.242 116.170,279.204 118.488 C 278.956 118.770,277.511 120.890,275.993 123.200 C 270.872 130.994,270.832 131.032,268.895 130.047 C 267.830 129.506,263.827 128.000,263.453 128.000 C 263.270 128.000,262.554 127.746,261.860 127.435 C 261.167 127.125,259.520 126.499,258.200 126.044 C 256.880 125.589,254.540 124.750,253.000 124.180 C 251.460 123.609,249.570 122.956,248.800 122.727 C 246.215 121.960,245.200 121.245,245.200 120.191 C 245.200 118.917,246.739 114.388,247.452 113.569 C 247.753 113.221,248.000 112.765,248.000 112.555 C 248.000 111.937,252.077 108.246,253.600 107.486 C 256.373 106.103,261.121 105.661,264.880 106.438 M301.200 122.312 C 304.142 123.396,312.000 130.018,312.000 131.414 C 312.000 131.542,312.525 132.311,313.167 133.123 C 316.466 137.298,318.975 143.684,318.990 147.945 L 319.000 150.890 317.149 152.545 C 315.170 154.314,313.863 155.027,308.200 157.431 C 305.036 158.774,300.574 161.280,300.000 162.036 C 298.590 163.895,294.108 164.478,291.484 163.144 C 289.922 162.350,284.000 156.661,284.000 155.954 C 284.000 155.781,283.481 154.866,282.847 153.920 C 272.121 137.913,284.708 116.235,301.200 122.312 M111.429 122.260 C 115.823 123.731,119.362 126.883,121.219 130.977 C 122.793 134.450,124.068 142.478,123.306 144.118 C 123.080 144.603,122.572 145.810,122.177 146.800 C 120.683 150.542,119.961 152.219,119.592 152.800 C 119.383 153.130,118.961 153.940,118.655 154.600 C 117.732 156.585,114.327 160.828,112.259 162.567 L 110.319 164.200 106.859 164.181 C 103.233 164.161,101.705 163.594,96.200 160.228 C 93.786 158.751,91.537 157.679,90.200 157.367 C 82.642 155.602,81.009 145.412,86.680 135.400 C 87.179 134.520,87.759 133.412,87.969 132.938 C 91.067 125.953,104.372 119.897,111.429 122.260 M214.400 125.009 C 224.344 125.982,229.444 126.841,238.600 129.088 C 245.090 130.681,249.089 131.804,253.200 133.189 C 255.596 133.997,257.082 134.552,263.200 136.924 C 268.939 139.149,271.054 141.815,270.727 146.409 C 270.576 148.542,269.990 148.621,266.512 146.976 C 265.345 146.424,262.997 145.428,261.295 144.764 C 259.593 144.100,257.840 143.400,257.400 143.209 C 256.202 142.687,249.284 140.384,247.000 139.746 C 219.170 131.979,196.427 131.672,164.600 138.635 C 158.493 139.971,143.775 144.329,139.800 145.979 C 132.238 149.118,131.200 149.151,131.200 146.257 C 131.200 140.949,133.944 138.103,142.000 135.057 C 149.767 132.119,158.068 129.758,168.800 127.433 C 181.391 124.705,200.763 123.675,214.400 125.009 M219.400 143.426 C 228.109 144.404,236.770 145.912,242.200 147.397 C 246.210 148.494,253.831 150.871,255.000 151.391 C 255.660 151.684,257.820 152.611,259.800 153.450 C 267.130 156.558,272.546 159.655,278.523 164.157 C 285.731 169.585,287.146 171.199,285.300 171.886 C 284.915 172.029,284.150 172.456,283.600 172.834 C 278.717 176.196,252.731 192.005,252.412 191.808 C 252.185 191.667,252.000 191.366,252.000 191.137 C 252.000 190.908,251.754 190.154,251.454 189.460 C 251.153 188.767,250.418 186.896,249.819 185.302 C 249.221 183.709,248.567 182.303,248.366 182.179 C 248.165 182.054,248.000 181.702,248.000 181.396 C 248.000 181.090,247.460 180.040,246.800 179.062 C 246.140 178.084,245.600 177.183,245.600 177.060 C 245.600 176.768,243.876 174.230,243.158 173.464 C 242.851 173.137,242.150 172.279,241.600 171.557 C 237.724 166.473,230.342 160.621,223.800 157.448 C 218.514 154.883,217.869 154.655,211.000 152.911 C 206.881 151.865,193.059 151.887,188.800 152.946 C 183.099 154.363,180.803 155.206,175.696 157.752 C 171.329 159.930,171.223 159.992,169.323 161.500 C 168.422 162.215,167.587 162.800,167.468 162.800 C 167.206 162.800,164.043 165.598,161.816 167.800 C 158.301 171.276,155.017 175.692,152.682 180.085 C 152.176 181.035,151.593 182.080,151.385 182.407 C 150.938 183.108,150.375 184.575,148.747 189.279 C 147.270 193.545,148.347 193.796,136.682 186.473 C 126.937 180.355,123.892 178.466,118.248 175.039 C 115.399 173.309,114.392 172.489,114.480 171.970 C 114.706 170.635,123.051 164.293,130.602 159.717 C 131.581 159.124,135.481 157.219,139.100 155.568 C 140.585 154.890,142.160 154.167,142.600 153.962 C 143.040 153.756,144.930 153.044,146.800 152.379 C 160.143 147.632,170.158 145.377,186.400 143.459 C 193.179 142.658,212.392 142.639,219.400 143.426 M207.800 159.208 C 208.460 159.395,210.067 159.759,211.372 160.017 C 223.296 162.378,236.322 172.764,242.009 184.444 C 242.480 185.410,243.024 186.503,243.219 186.873 C 243.703 187.792,245.156 192.120,245.881 194.800 C 247.069 199.192,247.182 212.299,246.064 216.117 C 244.084 222.878,242.001 227.625,239.004 232.200 C 238.572 232.860,238.124 233.490,238.009 233.600 C 237.894 233.710,236.990 234.788,236.000 235.996 C 222.757 252.149,199.276 257.354,180.000 248.411 C 178.128 247.542,178.015 247.478,174.404 245.226 C 156.883 234.301,147.800 208.091,155.451 190.540 C 155.753 189.846,156.000 189.076,156.000 188.828 C 156.000 187.971,158.787 182.743,161.087 179.286 C 168.696 167.851,181.801 160.027,195.400 158.801 C 199.039 158.473,206.008 158.702,207.800 159.208 M85.562 164.690 C 88.649 166.160,93.286 169.356,102.889 176.634 C 106.347 179.255,110.446 182.300,111.997 183.400 C 113.548 184.500,115.703 186.030,116.785 186.800 C 117.867 187.570,120.833 189.640,123.376 191.400 C 125.919 193.160,129.793 195.860,131.984 197.400 C 134.176 198.940,137.149 201.010,138.591 202.000 C 144.069 205.761,146.019 207.343,146.183 208.158 C 146.276 208.621,146.461 210.440,146.595 212.200 C 147.245 220.774,151.343 230.735,157.480 238.661 C 173.409 259.232,201.863 265.515,224.785 253.524 C 226.881 252.427,228.687 251.411,228.798 251.265 C 228.909 251.119,230.024 250.311,231.276 249.468 C 239.897 243.664,247.572 233.403,251.002 223.094 C 252.450 218.741,253.267 214.770,253.490 211.001 C 253.767 206.336,253.702 206.427,259.505 202.512 C 261.427 201.215,264.134 199.354,265.520 198.377 C 266.906 197.400,268.460 196.330,268.974 196.000 C 269.487 195.670,270.921 194.680,272.160 193.800 C 273.399 192.920,277.875 189.738,282.106 186.730 C 286.338 183.721,290.669 180.661,291.730 179.930 C 292.792 179.198,294.533 177.970,295.600 177.200 C 296.667 176.430,297.934 175.530,298.415 175.200 C 298.897 174.870,300.074 174.013,301.029 173.295 C 317.070 161.241,321.623 160.879,323.032 171.548 C 324.390 181.835,323.381 195.411,320.276 208.625 C 319.700 211.077,319.596 211.422,317.825 216.800 C 316.244 221.600,315.570 223.374,315.172 223.780 C 314.967 223.989,314.800 224.412,314.800 224.720 C 314.800 225.830,307.686 240.400,307.144 240.400 C 306.955 240.400,306.800 240.629,306.800 240.909 C 306.800 241.189,306.170 242.375,305.400 243.544 C 304.630 244.713,304.000 245.840,304.000 246.047 C 304.000 246.255,303.730 246.529,303.400 246.655 C 303.070 246.782,302.800 247.053,302.800 247.257 C 302.800 248.232,294.852 257.757,290.400 262.116 C 279.191 273.092,266.159 280.969,250.200 286.415 C 236.209 291.190,218.841 294.003,203.177 294.030 C 199.511 294.036,184.337 293.208,183.971 292.982 C 183.827 292.893,181.355 292.545,178.478 292.209 C 175.600 291.873,172.831 291.444,172.323 291.256 C 171.815 291.068,170.443 290.790,169.272 290.639 C 165.049 290.095,151.113 286.182,147.740 284.593 C 147.046 284.267,146.264 284.000,146.001 284.000 C 145.738 284.000,145.046 283.751,144.462 283.446 C 143.878 283.141,141.960 282.237,140.200 281.437 C 138.440 280.636,136.730 279.813,136.400 279.607 C 136.070 279.402,134.900 278.772,133.800 278.209 C 121.737 272.033,108.278 260.568,98.683 248.293 C 95.631 244.389,92.000 239.110,92.000 238.578 C 92.000 238.405,91.752 237.979,91.449 237.631 C 91.145 237.284,90.124 235.506,89.179 233.681 C 88.234 231.855,87.313 230.270,87.131 230.157 C 86.949 230.045,86.800 229.700,86.800 229.392 C 86.800 229.083,86.170 227.503,85.400 225.881 C 84.630 224.259,84.000 222.705,84.000 222.428 C 84.000 222.150,83.743 221.446,83.429 220.862 C 82.882 219.844,80.686 212.791,79.612 208.600 C 77.833 201.659,76.415 188.718,76.407 179.335 C 76.393 164.389,78.352 161.256,85.562 164.690 " stroke="none" fill="#246c34" fill-rule="evenodd"></path></g></svg>