<svg xmlns="http://www.w3.org/2000/svg" width="97.454" height="98.742">
    <path d="m232.813 302.188-9.688 21.437 66.656 90.969c-7.25 13.571-14.332 27.2-19.906 38.594l-27.281-12.844-8.5 11.875 25.281 25c-.656 2.2-.792 3.61-.312 4 4.92 4.01 1.133 1.467 7.156 5.281.628.398 2.121-.39 4.281-2.031l30.063 16.125 9.125-11.406-20.563-22.625c8.765-9.256 19.082-20.763 29.313-32.532l103.75 28.594 19.593-17.156-91.718-49c7.977-9.828 14.029-17.647 16.187-21.094 9.602-15.34 33.98-62.201 18.188-69.312-15.794-7.112-50.74 31.06-60.22 46.593-1.756 2.88-5.285 8.992-9.812 17.031z" style="fill:#000;fill-opacity:.53376202;stroke:#000;stroke-width:1px;stroke-linecap:butt;stroke-linejoin:miter;stroke-opacity:.61093247" transform="matrix(.38944 0 0 .38944 -84.013 -117.49)"/>
    <path d="M388.472 426.942c-14.145 20.089-37.174 14.73-37.174 14.73s2.227-11.07 2.303-11.15c0 0 15.504 4.193 25.838-9.505 10.334-13.697.552-32.592.552-32.592l10.327-3.81c8.458 20.149 5.656 30.557-1.846 42.327z" style="fill:#000;fill-opacity:.53376202;stroke:#000;stroke-width:.324599px;stroke-linecap:butt;stroke-linejoin:miter;stroke-opacity:1" transform="matrix(.38944 0 0 .38944 -84.013 -117.49)"/>
    <text xml:space="preserve" x="213.861" y="554.342" style="font-size:40px;font-style:normal;font-variant:normal;font-weight:600;font-stretch:normal;text-align:start;line-height:125%;letter-spacing:0;word-spacing:0;writing-mode:lr-tb;text-anchor:start;fill:#000;fill-opacity:.53697749;stroke:#000;stroke-opacity:.67845662;font-family:Open Sans;-inkscape-font-specification:Open Sans Semi-Bold" transform="matrix(.38944 0 0 .38944 -84.013 -117.49)"><tspan x="213.861" y="554.342">Connect Link</tspan></text>
    <path d="M411.474 444.923c-23.427 33.272-61.568 24.397-61.568 24.397s3.688-18.335 3.813-18.466c0 0 25.68 6.944 42.794-15.743 17.116-22.687.914-53.98.914-53.98l17.104-6.311c14.008 33.372 9.367 50.61-3.057 70.103z" style="fill:#000;fill-opacity:.53376202;stroke:#000;stroke-width:.53760475px;stroke-linecap:butt;stroke-linejoin:miter;stroke-opacity:1" transform="matrix(.38944 0 0 .38944 -84.013 -117.49)"/>
    <path d="M446.806 470.862c-37.666 53.495-98.989 39.226-98.989 39.226s5.93-29.479 6.132-29.69c0 0 41.286 11.164 68.804-25.311 27.517-36.475 1.468-86.788 1.468-86.788l27.5-10.147c22.522 53.654 15.06 81.369-4.915 112.71z" style="fill:#000;fill-opacity:.53376202;stroke:#000;stroke-width:.86435539px;stroke-linecap:butt;stroke-linejoin:miter;stroke-opacity:1" transform="matrix(.38944 0 0 .38944 -84.013 -117.49)"/>
</svg>
