<?xml version="1.0" encoding="utf-8"?>
<!-- Generator: Adobe Illustrator 21.0.2, SVG Export Plug-In . SVG Version: 6.00 Build 0)  -->
<svg version="1.1" id="Layer_1" xmlns="http://www.w3.org/2000/svg" xmlns:xlink="http://www.w3.org/1999/xlink" x="0px" y="0px"
	 viewBox="0 0 72 72" style="enable-background:new 0 0 72 72;" xml:space="preserve">
<style type="text/css">
	.st0{fill:none;stroke:#FFFFFF;stroke-width:3;stroke-miterlimit:10;}
	.st1{fill:none;stroke:#FFFFFF;stroke-width:4;stroke-linecap:round;stroke-miterlimit:10;}
</style>
<g>
	<path class="st0" d="M13.866,40.628c-0.002,0.001-0.003,0.002-0.005,0.003c-0.615,0.32-0.883,1.059-0.614,1.699
		c0.27,0.642,0.988,0.967,1.649,0.748l18.622-6.196l-3.482,5.686c-0.253,0.413-0.199,0.944,0.131,1.299
		c0.33,0.354,0.856,0.445,1.286,0.221l3.652-1.898c0.105-0.054,0.2-0.126,0.282-0.211l10.818-11.301l13.351-6.966
		c5.056-2.726,4.471-4.821,4.171-5.398c-0.232-0.447-0.752-1.048-1.907-1.365c-1.171-0.322-2.754-0.296-4.837,0.079
		c-0.696,0.125-1.079,0.114-1.486,0.103c-1.429-0.039-2.398,0.057-7.212,2.558L21.959,33.369L11.751,28.07
		c-0.385-0.2-0.843-0.2-1.228,0.001l-1.72,0.894c-0.354,0.184-0.607,0.517-0.689,0.908c-0.082,0.391,0.015,0.797,0.265,1.109
		l7.086,8.826L13.866,40.628z"/>
	<line class="st1" x1="7.607" y1="55.275" x2="64.393" y2="55.275"/>
</g>
</svg>
