<svg class="svg-icon" style="width:1em;height:1em;vertical-align:middle;fill:currentColor;overflow:hidden" viewBox="0 0 1024 1024" xmlns="http://www.w3.org/2000/svg">
  <path d="M801.646 386.303 620.16 492.523l-160.854-92.587-169.167 99.49 1.387-95.636 167.78-97.72 160.854 93.866 144.237-79.886s32.313-13.941 49.07 16.36c17.698 32-11.82 49.893-11.82 49.893z" transform="translate(-389.162 -203.608) scale(1.33524)" style="overflow:hidden"/>
  <path d="m804.456 1448.24-.568-254.312 173.903-99.92 160.853 93.867 329.434-191.645 105.608 106.748.018 345.707" transform="translate(-1076.45 -905.611) scale(1.33524)" style="overflow:hidden"/>
  <g>
    <path transform="rotate(15.073 554.968 2503.56) scale(.74528)" d="M448 64 223 317l81 179L496 16 15.88 208 195 289z"/>
  </g>
</svg>
