<svg xmlns="http://www.w3.org/2000/svg" xml:space="preserve" enable-background="new -89 46 72 72" viewBox="-89 46 72 72">
    <defs>
        <filter id="a" width="3.548" height="3.268" x="-1.274" y="-1.134" style="color-interpolation-filters:sRGB">
            <feBlend in2="BackgroundImage" mode="lighten"/>
        </filter>
    </defs>
    <path d="M-81.92 46.487c.487-.487 57.353-.487 57.84 0l2.542 2.542c.487.487.487 4.115 0 4.602l-2.542 2.542c-.487.487-57.353.487-57.84 0l-2.542-2.542c-.487-.487-.487-4.115 0-4.602z" style="fill:#fff;stroke-width:1.1104244" transform="matrix(.8307 0 0 .8295 -8.638 16.906)"/>
    <path d="M-29.68 62.692c-2.59-2.911-44.048-2.911-46.64 0s-2.591 49.487 0 52.398c2.592 2.91 44.05 2.91 46.64 0s2.591-49.486 0-52.398m-4.605 45.527c-.358 2.113-6.094 2.113-6.453 0s-.359-35.924 0-38.037c.359-2.114 6.095-2.114 6.453 0s.358 35.925 0 38.037m-15.489 0c-.358 2.113-6.094 2.113-6.453 0s-.359-35.924 0-38.037c.359-2.114 6.095-2.114 6.453 0s.358 35.925 0 38.037m-14.829 0c-.358 2.113-6.094 2.113-6.453 0s-.359-35.924 0-38.037c.359-2.114 6.095-2.114 6.453 0s.358 35.925 0 38.037" style="fill:#fff;filter:url(#a)" transform="matrix(1 0 0 .76115 .67 21.432)"/>
    <path d="M-81.92 46.487c.487-.487 57.353-.487 57.84 0l2.542 2.542c.487.487.487 4.115 0 4.602l-2.542 2.542c-.487.487-57.353.487-57.84 0l-2.542-2.542c-.487-.487-.487-4.115 0-4.602z" style="fill:#fff;stroke-width:1.1104244" transform="matrix(.20525 0 0 .52829 -41.787 26.698)"/>
</svg>
