<?xml version="1.0" standalone="no"?>
<!DOCTYPE svg PUBLIC "-//W3C//DTD SVG 20010904//EN"
 "http://www.w3.org/TR/2001/REC-SVG-20010904/DTD/svg10.dtd">
<svg version="1.0" xmlns="http://www.w3.org/2000/svg"
 width="1360.000000pt" height="576.000000pt" viewBox="0 0 1360.000000 576.000000"
 preserveAspectRatio="xMidYMid meet">
<metadata>
Created by potrace 1.16, written by Peter Selinger 2001-2019
</metadata>
<g transform="translate(0.000000,576.000000) scale(0.100000,-0.100000)"
fill="#000000" stroke="none">
<path d="M845 5529 c-10 -16 -68 -40 -132 -54 -18 -3 -33 -10 -33 -15 0 -4
-23 -11 -51 -15 -40 -6 -52 -12 -59 -30 -5 -13 -23 -31 -39 -41 -17 -10 -31
-23 -31 -29 -1 -17 -29 39 -30 58 0 9 5 17 12 17 9 0 9 3 1 11 -6 6 -23 9 -38
7 -24 -2 -31 -11 -46 -53 -10 -27 -18 -45 -18 -40 -1 6 -15 16 -32 24 -28 12
-57 57 -45 69 3 3 9 -4 13 -14 8 -23 42 -54 57 -53 6 0 1 7 -12 16 -12 8 -22
20 -22 25 0 21 -28 33 -79 35 -30 1 -57 6 -60 11 -3 5 -37 17 -75 27 -37 10
-74 24 -81 32 -29 28 -34 4 -10 -45 11 -21 25 -32 45 -36 17 -3 43 -9 60 -12
43 -8 37 -24 -10 -24 -22 0 -40 5 -40 10 0 6 -9 10 -20 10 -27 0 -25 -11 8
-48 21 -24 38 -32 72 -35 l45 -4 -47 -1 -48 -2 20 -20 c32 -32 65 -41 102 -28
18 6 36 16 40 22 5 8 8 7 8 -1 0 -6 -13 -20 -29 -29 -24 -14 -27 -19 -16 -31
17 -16 62 -17 68 0 2 6 8 9 12 5 4 -4 2 -14 -5 -23 -11 -13 -7 -15 30 -15 41
0 42 -1 36 -26 -6 -22 -4 -25 10 -20 13 5 15 2 9 -21 -3 -16 -14 -36 -22 -46
-9 -9 -13 -20 -8 -25 4 -4 10 -1 12 6 7 19 23 14 23 -8 0 -22 16 -27 23 -7 2
6 7 -3 11 -21 9 -37 26 -34 26 6 0 20 3 23 12 14 18 -18 28 -14 28 11 0 17 2
19 10 7 5 -8 12 -11 16 -8 4 4 0 18 -8 30 -23 36 -29 68 -10 61 12 -5 14 -1
10 20 -5 28 -2 30 45 27 30 -2 32 2 16 33 -9 20 -9 20 4 5 17 -22 53 -23 73
-3 13 12 12 15 -7 25 -30 16 -18 22 19 9 33 -11 58 -3 93 32 19 19 18 19 -28
21 l-48 1 43 4 c65 6 141 83 82 83 -11 0 -20 -4 -20 -10 0 -5 -18 -10 -40 -10
-53 0 -51 16 3 25 23 3 50 9 59 11 22 7 61 69 56 91 -3 16 -5 17 -13 2z"/>
</g>
</svg>
