<svg xmlns="http://www.w3.org/2000/svg" xml:space="preserve" id="Layer_1" x="0" y="0" version="1.1" viewBox="0 0 72 72">
    <style>
        .st0{fill:#fff}
    </style>
    <path d="M61.452 7.063c-.11 0-.323.015-.33.016-28.594 2.52-51.39 25.319-53.895 53.948l-.019.306-.008.226a3.346 3.346 0 0 0 6.687.16l-.002-.001c2.179-25.436 22.389-45.714 47.777-47.968a3.35 3.35 0 0 0 3.131-3.181q.004-.079.003-.159a3.344 3.344 0 0 0-3.344-3.347" class="st0"/>
    <path d="M61.456 20.364a3 3 0 0 0-.406.026c-21.451 2.476-38.521 19.918-40.563 40.773 0 0-.026.274-.026.416a3.346 3.346 0 0 0 6.687.16l.001-.054c2.098-18.107 16.431-32.48 34.513-34.632v-.016a3.337 3.337 0 0 0 3.134-3.167q.004-.078.003-.158a3.343 3.343 0 0 0-3.343-3.348" class="st0"/>
    <path d="M61.452 33.719c-.211 0-.423.021-.624.058-13.781 2.338-24.693 13.295-26.965 27.101q-.01.056-.02.11a4 4 0 0 0-.061.603 3.346 3.346 0 0 0 6.677.305c.004-.049.027-.27.033-.306 1.93-10.765 10.411-19.238 21.17-21.185 0 0 .122-.011.181-.019a3.346 3.346 0 0 0 2.949-3.164q.004-.079.003-.159a3.34 3.34 0 0 0-3.343-3.344" class="st0"/>
</svg>
