<?xml version="1.0" encoding="utf-8"?>
<!-- Generator: Adobe Illustrator 21.0.0, SVG Export Plug-In . SVG Version: 6.00 Build 0)  -->
<svg version="1.1" id="Layer_1" xmlns="http://www.w3.org/2000/svg" xmlns:xlink="http://www.w3.org/1999/xlink" x="0px" y="0px"
	 viewBox="0 0 72 72" style="enable-background:new 0 0 72 72;" xml:space="preserve">
<style type="text/css">
	.st0{fill:#FFFFFF;}
</style>
<path class="st0" d="M61.452,7.063c-0.11,0-0.323,0.015-0.33,0.016C32.528,9.599,9.732,32.398,7.227,61.027
	c-0.002,0.02-0.018,0.282-0.019,0.306C7.207,61.351,7.2,61.496,7.2,61.559c0,1.848,1.498,3.346,3.346,3.346
	c1.795,0,3.259-1.413,3.341-3.186l-0.002-0.001c2.179-25.436,22.389-45.714,47.777-47.968l0,0c1.696-0.107,3.051-1.479,3.131-3.181
	c0.003-0.053,0.003-0.105,0.003-0.159C64.797,8.561,63.3,7.063,61.452,7.063z"/>
<path class="st0" d="M61.456,20.364c-0.12,0-0.238,0.009-0.354,0.021c-0.002,0-0.048,0.004-0.052,0.005
	c-21.451,2.476-38.521,19.918-40.563,40.773c0,0-0.026,0.274-0.026,0.416c0,1.848,1.498,3.346,3.346,3.346
	c1.795,0,3.259-1.413,3.341-3.186c0.001-0.018,0.001-0.036,0.001-0.054c2.098-18.107,16.431-32.48,34.513-34.632v-0.016
	c1.696-0.106,3.055-1.463,3.134-3.167c0.003-0.052,0.003-0.105,0.003-0.158C64.801,21.862,63.303,20.364,61.456,20.364z"/>
<path class="st0" d="M61.452,33.719c-0.211,0-0.423,0.021-0.624,0.058c-13.781,2.338-24.693,13.295-26.965,27.101
	c-0.008,0.037-0.013,0.074-0.02,0.11c-0.036,0.202-0.061,0.481-0.061,0.603c0,1.848,1.498,3.346,3.346,3.346
	c0.133,0,0.264-0.008,0.392-0.023c1.563-0.182,2.797-1.443,2.939-3.018c0.004-0.049,0.027-0.27,0.033-0.306
	c1.93-10.765,10.411-19.238,21.17-21.185c0,0,0.122-0.011,0.181-0.019c1.611-0.188,2.872-1.521,2.949-3.164
	c0.003-0.053,0.003-0.105,0.003-0.159C64.797,35.217,63.3,33.719,61.452,33.719z"/>
</svg>
