<svg xmlns="http://www.w3.org/2000/svg" width="598.826" height="255.679" viewBox="0 0 158.439 67.648">
    <path d="M114.848 67.251c-2.712-.836-4.754-3.605-4.754-6.446 0-1.77.26-2.635 1.207-4.013.357-.519 4.927-4.448 10.155-8.73l9.506-7.789-62.755-.132C.949 40 4.818 40.083 2.805 38.735 1.232 37.682.4 36.328.001 34.17c-.505-2.733.985-5.692 3.56-7.069l1.096-.586 63.453-.132 63.452-.133-10.08-7.246c-5.544-3.986-10.417-7.677-10.829-8.203-1.586-2.022-1.877-4.905-.731-7.248 1.162-2.376 3.236-3.663 5.968-3.706 1.48-.022 1.987.098 3.206.761 1.36.74 35.986 25.515 37.199 26.616.308.28.891 1.116 1.296 1.86 1.397 2.566.795 6.166-1.369 8.188-2.596 2.426-35.61 29.197-36.471 29.575-1.544.678-3.493.84-4.903.404" style="fill:#000;stroke-width:.26458332" transform="translate(.097 .155)"/>
</svg>
