<?xml version="1.0" encoding="UTF-8" standalone="no"?>
<svg
   xmlns:dc="http://purl.org/dc/elements/1.1/"
   xmlns:cc="http://creativecommons.org/ns#"
   xmlns:rdf="http://www.w3.org/1999/02/22-rdf-syntax-ns#"
   xmlns:svg="http://www.w3.org/2000/svg"
   xmlns="http://www.w3.org/2000/svg"
   id="svg8"
   version="1.1"
   viewBox="0 0 158.43947 67.648445"
   height="67.648445mm"
   width="158.43947mm">
  <defs
     id="defs2" />
  <metadata
     id="metadata5">
    <rdf:RDF>
      <cc:Work
         rdf:about="">
        <dc:format>image/svg+xml</dc:format>
        <dc:type
           rdf:resource="http://purl.org/dc/dcmitype/StillImage" />
        <dc:title></dc:title>
      </cc:Work>
    </rdf:RDF>
  </metadata>
  <g
     transform="translate(0.09652586,0.15508566)"
     id="layer1">
    <path
       id="path78"
       d="m 114.84811,67.251388 c -2.71248,-0.83619 -4.7544,-3.60494 -4.7544,-6.446773 0,-1.769748 0.26045,-2.635012 1.20768,-4.012261 0.35692,-0.518945 4.92663,-4.448008 10.15491,-8.73125 l 9.50596,-7.787716 -62.755621,-0.132292 C 0.94854643,39.999314 4.8180651,40.082501 2.8051761,38.735071 1.2320842,37.682042 0.40019498,36.327625 0.00135558,34.170104 -0.50386682,31.437103 0.98609883,28.478453 3.5612081,27.101241 l 1.096051,-0.586187 63.4525079,-0.132292 63.452503,-0.132291 -10.0799,-7.246909 c -5.54395,-3.985799 -10.41707,-7.676737 -10.82916,-8.202083 -1.58663,-2.0226625 -1.87744,-4.9054775 -0.7312,-7.2483085 1.16241,-2.375873 3.23639,-3.66360901 5.96827,-3.70570501 1.47984,-0.0228 1.98655,0.09743 3.20605,0.76074404 1.35951,0.73946297 35.98582,25.51456047 37.19864,26.61559147 0.30835,0.279927 0.89141,1.116696 1.29568,1.859484 1.39722,2.567144 0.7956,6.166766 -1.36862,8.188783 -2.59621,2.425621 -35.60909,29.1965 -36.47102,29.57516 -1.54372,0.67819 -3.49279,0.83885 -4.9029,0.40416 z"
       style="fill:#000000;stroke-width:0.26458332" />
  </g>
</svg>
