<svg xmlns="http://www.w3.org/2000/svg" width="428.253" height="428.253">
    <path d="M213.591 427.145c0-.155-6.938-39.514-7.05-39.994-.117-.5-.159-.507-4.28-.75-24.736-1.455-50.62-9.11-72.893-21.555-46.052-25.732-78.09-70.844-86.98-122.47a182 182 0 0 1-2.226-19.05c-.09-1.406-.19-2.584-.222-2.616-.057-.057-39.542-7.048-39.807-7.048-.073 0-.133-.241-.133-.536 0-.294.06-.535.133-.535.18 0 39.742-6.982 39.772-7.019.013-.016.116-1.515.23-3.33 1.144-18.324 4.775-35.254 11.118-51.837 8.095-21.163 20.203-40.523 35.62-56.954 24.964-26.61 57.438-44.74 92.758-51.792 8.37-1.67 16.983-2.777 24.544-3.154 2.026-.1 2.464-.171 2.533-.408.086-.293 6.883-38.798 6.883-38.99 0-.06.241-.107.535-.107s.536.048.536.106c0 .192 6.797 38.698 6.882 38.99.07.235.51.306 2.534.406 7.67.377 17.082 1.606 25.468 3.325 30.341 6.22 58.83 20.758 81.993 41.841 2.504 2.28 8.799 8.576 11.24 11.243 21.179 23.139 35.903 51.952 42.101 82.384 1.719 8.439 2.723 16.072 3.253 24.724.121 1.987.28 3.613.353 3.613s8.79 1.524 19.37 3.388 19.498 3.432 19.817 3.487c.498.086.58.173.58.62 0 .446-.082.533-.58.619-.32.055-9.237 1.624-19.817 3.487s-19.306 3.388-19.389 3.388-.203.783-.267 1.74c-.282 4.243-.669 8.434-1.09 11.821-5.525 44.482-28.002 85.03-62.938 113.54-21.893 17.867-47.951 30.163-75.696 35.72-7.84 1.57-17.03 2.755-23.766 3.065-1.392.064-2.628.176-2.746.249-.127.078-1.665 8.344-3.756 20.18-1.948 11.027-3.543 20.11-3.544 20.183-.002.074-.243.134-.538.134-.294 0-.535-.049-.535-.108m0-109.409V215l-15.448 15.448-15.448 15.449 15.403 87.287c8.472 48.009 15.424 87.288 15.448 87.288s.045-46.231.045-102.736m-18.816 2.618c-3.292-18.688-6.046-34.2-6.12-34.47-.123-.448-.545.152-4.768 6.78-2.548 4-4.981 7.815-5.407 8.478-.715 1.115-.804 1.19-1.166 1.002a5 5 0 0 1-.448-.25c-.03-.026 1.756-8.227 3.97-18.225s4.026-18.451 4.026-18.784c0-.56-.345-2.89-.445-3.007-.024-.028-13.713 9.516-30.42 21.21l-30.376 21.263-.362-.362-.362-.362 21.27-30.368c11.7-16.702 21.245-30.388 21.214-30.412-.158-.124-2.26-.457-2.886-.457-.394 0-8.899 1.813-18.9 4.029-10.002 2.215-18.207 4.002-18.234 3.97a5 5 0 0 1-.253-.45c-.188-.363-.112-.45 1.002-1.167.663-.426 4.483-2.86 8.488-5.407 6.695-4.26 7.24-4.644 6.78-4.77-.781-.214-69.342-12.278-69.468-12.223-.323.138 1.227 10.685 2.34 15.93 4.75 22.38 14.86 43.33 29.485 61.098 5.905 7.174 13.655 14.83 20.904 20.65 21.078 16.924 46.516 27.534 73.25 30.553 2.55.288 2.77.29 2.818.02.03-.16-2.64-15.58-5.932-34.269m37.017 34.079c40.826-4.85 78.317-28.015 101.334-62.615 12.543-18.854 20.094-39.172 22.94-61.723.253-2.002.426-3.673.386-3.713-.074-.075-68.67 11.97-69.57 12.216-.45.122.184.566 7.206 5.041 4.235 2.7 8.049 5.128 8.476 5.397.731.46.764.515.565.952-.169.37-.303.444-.666.369-.25-.052-8.435-1.865-18.187-4.03s-18.016-3.937-18.364-3.937c-.599 0-2.917.344-3.04.452-.031.027 9.512 13.718 21.206 30.424 21.134 30.19 21.262 30.377 20.913 30.725-.348.349-.535.221-30.725-20.913-16.706-11.694-30.397-21.237-30.424-21.206-.105.12-.452 2.435-.452 3.016 0 .335 1.812 8.788 4.026 18.784 2.215 9.997 4.001 18.196 3.97 18.222-.03.026-.232.138-.447.25-.363.189-.451.113-1.167-1.002-.426-.663-2.86-4.477-5.407-8.477-4.22-6.624-4.645-7.227-4.767-6.78-.197.716-12.089 68.29-12.089 68.69 0 .389-.259.397 4.283-.142m41.487-81.351c-14.623-14.623-26.627-26.587-26.677-26.587-.049 0-.647 3.184-1.33 7.076-1.215 6.931-1.234 7.081-.892 7.31.192.128 12.714 8.9 27.828 19.494s27.52 19.27 27.569 19.278c.049.01-11.875-11.948-26.498-26.571m-92.521-27.48c0-.12-13.842-2.554-14.07-2.473-.1.035-8.945 12.59-19.656 27.9l-19.474 27.837 26.6-26.587c14.63-14.623 26.6-26.627 26.6-26.677M247.77 295.7c-.133-.32-1.704-4.113-3.49-8.431-1.788-4.319-3.307-7.957-3.377-8.085s-.312.854-.538 2.182l-.412 2.415 3.98 6.25c2.188 3.437 4 6.249 4.028 6.249s-.059-.261-.191-.58m-64.535-9.338c2.072-5.013 3.768-9.304 3.768-9.537 0-.575-1.474-8.93-1.56-8.845-.074.075-6.11 27.215-6.112 27.482 0 .09.03.13.067.09.038-.042 1.764-4.177 3.837-9.19m112.882-38.704c-3.94-1.732-17.94-7.408-18.273-7.408-.571 0-8.955 1.47-8.87 1.555.094.094 27.095 6.094 27.412 6.091.147-.002.026-.108-.27-.238m-154.616-4.997c3.484-1.443 6.44-2.683 6.57-2.754.128-.072-.85-.317-2.177-.545l-2.41-.415-6.122 3.893c-3.367 2.141-6.202 3.964-6.3 4.05-.19.168.557-.134 10.439-4.229m192.12-13.39c47.581-8.393 86.833-15.33 87.226-15.415.406-.088-43.52-.163-102.067-.174l-102.78-.02 15.434 15.436c8.489 8.489 15.488 15.435 15.554 15.435s39.051-6.868 86.633-15.261m-136.818-32.127-15.448-15.449-86.083 15.188C47.927 205.236 8.628 212.18 7.94 212.314c-1.062.206 14.215.246 101.531.26l102.78.017zm33.566-102.87c-8.353-47.346-15.297-86.645-15.43-87.332-.208-1.062-.247 14.215-.261 101.531l-.017 102.78 15.448-15.448 15.448-15.448zm-123.9 99.585c18.924-3.334 34.633-6.125 34.908-6.2.46-.127-.085-.51-6.78-4.77a5156 5156 0 0 1-8.488-5.407c-1.114-.716-1.19-.805-1.002-1.167.113-.216.226-.418.253-.45s8.232 1.755 18.233 3.97 18.507 4.028 18.901 4.028c.626 0 2.728-.332 2.886-.456.031-.024-9.512-13.713-21.207-30.42-21.225-30.32-21.262-30.375-20.908-30.73.354-.353.409-.316 30.73 20.908 16.708 11.694 30.397 21.24 30.42 21.21.102-.117.446-2.446.446-3.009 0-.335-1.811-8.788-4.026-18.785s-4-18.196-3.97-18.221c.03-.026.232-.138.448-.25.362-.189.45-.113 1.166 1.001.426.663 2.86 4.477 5.407 8.474 2.549 3.998 4.667 7.17 4.709 7.048.166-.484 12.455-70.351 12.387-70.426-.119-.131-5.43.487-9.072 1.056a142.65 142.65 0 0 0-63.524 26.832c-31.009 23.283-51.348 58.225-56.104 96.386-.543 4.353-.624 5.442-.408 5.442.104 0 15.672-2.729 34.596-6.064m250.05 5.484c-.002-1.111-.717-6.674-1.348-10.483-6.386-38.555-28.488-72.857-61.194-94.97-8.644-5.845-18.419-10.965-28.104-14.721-8.966-3.478-18.351-6.051-28.119-7.71-2.766-.47-8.973-1.261-9.898-1.261-.647 0-.703.036-.615.402.053.22 2.864 16.091 6.246 35.268 3.382 19.176 6.172 34.89 6.2 34.918s2.135-3.216 4.68-7.209 4.976-7.8 5.4-8.458c.739-1.152.787-1.19 1.226-.99.364.165.437.3.362.662-.052.25-1.865 8.444-4.03 18.207s-3.936 18.028-3.936 18.365c0 .583.346 2.898.452 3.019.027.031 13.718-9.512 30.424-21.207 30.19-21.134 30.377-21.26 30.725-20.913.349.349.221.536-20.913 30.726-11.694 16.706-21.237 30.397-21.206 30.424.123.107 2.441.451 3.04.451.348 0 8.612-1.77 18.364-3.936s17.936-3.978 18.187-4.03c.363-.075.497 0 .666.37.198.436.166.49-.565.951-8.333 5.253-16.118 10.32-15.945 10.379.303.103 69.198 12.29 69.59 12.31.236.012.311-.124.31-.564m-65.59-15.948c3.345-2.123 6.161-3.933 6.26-4.024.098-.091-.906.285-2.23.835-1.326.55-5.258 2.18-8.74 3.621s-6.212 2.643-6.067 2.67c3.115.58 3.902.716 4.264.735.28.014 2.562-1.33 6.513-3.837m-135.956 1.896c2.202-.393 4.106-.72 4.232-.726s.068-.084-.128-.171c-.445-.199-27.226-6.107-27.308-6.025-.142.141 18.085 7.598 18.615 7.616.322.01 2.387-.301 4.589-.694m126.247-30.067 19.474-27.836-26.6 26.587c-14.63 14.623-26.6 26.627-26.6 26.676 0 .133 13.215 2.473 13.772 2.439.426-.026 2.665-3.153 19.954-27.866m-98.245 17.483c.754-4.295 1.172-7.111 1.071-7.204-.091-.084-12.25-8.605-27.021-18.936a127033 127033 0 0 1-27.747-19.41c-.49-.345 11.072 11.35 25.695 25.988s26.627 26.614 26.676 26.614c.05 0 .646-3.173 1.326-7.052m62.92-28.123c1.664-7.495 3.005-13.69 2.98-13.765-.08-.244-7.627 18.165-7.627 18.606 0 .568 1.472 8.937 1.557 8.852.036-.037 1.427-6.199 3.09-13.693m-57.998.25.405-2.361-3.89-6.115c-2.138-3.364-3.958-6.194-4.044-6.29s.357 1.068.984 2.587c3.963 9.601 6.066 14.629 6.1 14.587.023-.026.223-1.11.445-2.408" style="fill:#b7b7b7;stroke-width:.17843866;fill-opacity:1;opacity:1"/>
</svg>
