<?xml version="1.0" encoding="UTF-8" standalone="no"?>
<!-- Created with Inkscape (http://www.inkscape.org/) -->

<svg
   xmlns:dc="http://purl.org/dc/elements/1.1/"
   xmlns:cc="http://creativecommons.org/ns#"
   xmlns:rdf="http://www.w3.org/1999/02/22-rdf-syntax-ns#"
   xmlns:svg="http://www.w3.org/2000/svg"
   xmlns="http://www.w3.org/2000/svg"
   xmlns:sodipodi="http://sodipodi.sourceforge.net/DTD/sodipodi-0.dtd"
   xmlns:inkscape="http://www.inkscape.org/namespaces/inkscape"
   version="1.1"
   id="svg2"
   width="96"
   height="96"
   viewBox="0 0 96 96"
   sodipodi:docname="wind-rose.svg"
   inkscape:version="0.92.1 r">
  <metadata
     id="metadata8">
    <rdf:RDF>
      <cc:Work
         rdf:about="">
        <dc:format>image/svg+xml</dc:format>
        <dc:type
           rdf:resource="http://purl.org/dc/dcmitype/StillImage" />
        <dc:title></dc:title>
      </cc:Work>
    </rdf:RDF>
  </metadata>
  <defs
     id="defs6" />
  <sodipodi:namedview
     pagecolor="#ffffff"
     bordercolor="#666666"
     borderopacity="1"
     objecttolerance="10"
     gridtolerance="10"
     guidetolerance="10"
     inkscape:pageopacity="0"
     inkscape:pageshadow="2"
     inkscape:window-width="1366"
     inkscape:window-height="742"
     id="namedview4"
     showgrid="false"
     inkscape:zoom="4.9166667"
     inkscape:cx="56.751221"
     inkscape:cy="42.564788"
     inkscape:window-x="0"
     inkscape:window-y="0"
     inkscape:window-maximized="1"
     inkscape:current-layer="svg2" />
  <g
     id="g12"
     transform="translate(0.20338941,-0.16949152)">
    <path
       style="fill:#b9b9b9;fill-opacity:1;stroke-width:1.33333337"
       d="m 40.73888,84 c -3.408767,-6.6 -6.694073,-12 -7.300683,-12 -0.606609,0 -3.562796,0.867892 -6.569302,1.928649 -3.006507,1.060758 -5.777868,1.424646 -6.158582,0.80864 C 20.329601,74.121283 20.90996,71.089503 22,68 23.09004,64.910497 23.734605,61.982605 23.432368,61.493575 23.130131,61.004544 17.734205,57.957443 11.441423,54.722237 5.1486401,51.487032 0,48.357056 0,47.766737 c 0,-0.59032 5.4,-3.785352 12,-7.10007 6.6,-3.314719 12,-6.245304 12,-6.512412 0,-0.267108 -0.911623,-3.069464 -2.025828,-6.227459 -1.114205,-3.157993 -1.522583,-6.245052 -0.907505,-6.860129 0.615077,-0.615078 3.702136,-0.2067 6.860129,0.907505 C 31.084791,23.088377 33.887147,24 34.154255,24 c 0.267108,0 3.197693,-5.4 6.512412,-12 3.314718,-6.6 6.497313,-12 7.072432,-12 0.575118,0 3.692524,5.4 6.927568,12 3.235044,6.6 6.283034,12 6.773313,12 0.490279,0 3.43074,-0.895925 6.534357,-1.990945 3.103618,-1.09502 6.146946,-1.679454 6.762952,-1.298742 0.616006,0.380714 0.252118,3.152075 -0.80864,6.158582 C 72.867892,29.875401 72,33.036408 72,33.893353 c 0,0.856946 5.4,4.204936 12,7.43998 6.6,3.235044 12,6.235044 12,6.666667 0,0.431623 -5.4,3.431623 -12,6.666667 -6.6,3.235044 -12,6.34986 -12,6.921813 0,0.571955 0.719285,3.729243 1.598411,7.016196 0.879126,3.286953 1.27272,6.301971 0.874653,6.700039 -0.398068,0.398066 -3.292788,-0.182648 -6.432713,-1.290479 C 64.900425,72.906407 61.930259,72 61.43998,72 60.949701,72 57.901711,77.4 54.666667,84 51.431623,90.6 48.36894,96 47.860704,96 47.352467,96 44.147647,90.6 40.73888,84 Z m 5.927787,-11.333333 c 0,-14.97813 2.451644,-14.700927 2.948089,0.333333 L 50,84.666667 55.304912,74.308007 c 4.659087,-9.097584 5.094224,-10.696027 3.574283,-13.129839 -2.244799,-3.594493 -0.909436,-4.888828 2.169278,-2.102629 2.233518,2.021305 3.035018,1.845716 11.674842,-2.557682 5.102177,-2.60039 9.846685,-5.280704 10.543352,-5.956253 0.775248,-0.751748 -3.233699,-1.228271 -10.333334,-1.228271 -15.181525,0 -15.126204,-2.446406 0.06667,-2.948089 L 84.666667,46 73.866692,40.419023 C 63.894189,35.265649 62.900587,35.004175 60.898437,37.006324 58.052145,39.852617 56.670729,38.358148 58.879195,34.821832 60.399136,32.38802 59.963999,30.789577 55.304912,21.691993 L 50,11.333333 49.614756,23 C 49.118311,38.03426 46.666667,38.311463 46.666667,23.333333 46.666667,17.1 46.198237,12 45.625713,12 c -0.572524,0 -3.30222,4.569941 -6.06599,10.155425 -4.77695,9.654044 -4.912472,10.279812 -2.745,12.674842 2.967641,3.279206 1.29475,4.952097 -1.984456,1.984456 -2.39503,-2.167472 -3.020798,-2.03195 -12.674842,2.745 C 16.569941,42.323493 12,45.053189 12,45.625713 c 0,0.572524 5.1,1.040954 11.333333,1.040954 6.666667,0 11.333334,0.54902 11.333334,1.333333 0,0.784313 -4.666667,1.333333 -11.333334,1.333333 C 17.1,49.333333 12,49.801763 12,50.374287 c 0,0.572524 4.569941,3.30222 10.155425,6.06599 9.654044,4.77695 10.279812,4.912472 12.674842,2.745 3.279206,-2.967641 4.952097,-1.29475 1.984456,1.984456 -2.167472,2.39503 -2.03195,3.020798 2.745,12.674842 C 42.323493,79.430059 45.053189,84 45.625713,84 c 0.572524,0 1.040954,-5.1 1.040954,-11.333333 z m -2.21608,-17.998175 c -5.8331,-2.352219 -5.498867,-11.16234 0.510144,-13.446961 7.833114,-2.978146 13.605124,7.896161 6.742594,12.702864 -3.339906,2.339361 -3.305506,2.335832 -7.252738,0.744097 z M 51.333333,48 c 0,-2.443637 -0.802317,-3.447263 -3.005961,-3.760183 -1.803039,-0.256033 -3.327448,0.410932 -3.809319,1.666667 -1.327557,3.459561 0.533178,6.318913 3.809319,5.853699 C 50.531016,51.447263 51.333333,50.443637 51.333333,48 Z M 30.775716,69.333333 c 1.926396,0 1.429703,-3.502998 -0.753619,-5.314994 -1.640868,-1.361799 -2.208868,-1.034027 -3.333333,1.92354 -1.80042,4.735464 -1.725664,5.152162 0.753619,4.200773 1.159978,-0.445125 2.659978,-0.809319 3.333333,-0.809319 z M 68.241217,65.041217 C 66.608409,63.408409 64,64.806361 64,67.314257 c 0,2.445071 4.543805,3.25675 5.12504,0.915507 0.252105,-1.015492 -0.145615,-2.450339 -0.883823,-3.188547 z M 31.637199,29.756939 c 0.495124,-1.487135 -4.628812,-5.20977 -5.69851,-4.140072 -0.274773,0.274773 -0.145809,1.85244 0.286588,3.505925 0.811182,3.101965 4.448395,3.528159 5.411922,0.634147 z m 37.460566,-0.867427 c 0.249426,-1.286097 -0.419777,-2.222845 -1.587977,-2.222845 -2.476981,0 -3.971943,2.173529 -2.799623,4.070381 1.206042,1.951417 3.868238,0.830416 4.3876,-1.847536 z M 23.927708,88.223932 C 12.346157,80.846253 -0.68192659,62.623693 5.6666667,62.681964 c 0.9166666,0.0084 2.8377292,2.458852 4.2690278,5.44542 C 12.927872,74.370901 25.347435,86.284755 30.109811,87.480036 33.450725,88.318552 34.659881,92 31.594375,92 30.637947,92 27.187947,90.300769 23.927708,88.223932 Z m 38.738959,2.570012 c 0,-0.663329 3.185721,-3.003964 7.07938,-5.201409 7.914,-4.466386 14.984916,-11.825196 17.771974,-18.495566 C 89.446968,62.480349 92,61.145927 92,64.754321 c 0,5.773414 -10.155039,18.132972 -19.126249,23.2783 -7.038967,4.037112 -10.207084,4.894183 -10.207084,2.761323 z M 4,31.933787 C 4,29.710119 8.0282577,22.429065 12.186659,17.136445 16.716576,11.370977 27.712481,4 31.783396,4 36.067571,4 35.281691,5.8794829 29.930517,8.4312793 23.082125,11.69705 12.801331,21.787757 10.005427,27.987965 7.8137661,32.8482 4,35.354008 4,31.933787 Z M 87.595543,28.653431 C 84.287497,21.716387 75.250915,12.520713 68.558001,9.2807293 62.443155,6.3205827 60.911381,4 65.072292,4 c 3.50596,0 13.5884,6.764574 18.586189,12.469964 4.981844,5.687187 9.949511,14.810932 8.728836,16.031607 -1.591792,1.591793 -2.573669,0.803274 -4.791774,-3.84814 z"
       id="path26"
       inkscape:connector-curvature="0" />
    <path
       style="fill:#a3a3a3;fill-opacity:1;stroke-width:1.33333337"
       d="M 41.221488,84.517107 C 37.983003,78.201516 34.706621,72.784633 33.94064,72.479589 c -0.765981,-0.305044 -3.900415,0.33015 -6.965408,1.411543 -3.064992,1.081392 -5.884205,1.462163 -6.264919,0.846157 -0.380712,-0.616006 0.203722,-3.659334 1.298742,-6.762952 1.09502,-3.103617 1.982085,-6.017505 1.971257,-6.475306 -0.0108,-0.4578 -5.410828,-3.525464 -11.999999,-6.817032 C 5.3911407,51.390431 0,48.246452 0,47.69538 c 0,-0.551073 5.4,-3.713995 12,-7.028713 6.6,-3.314719 12,-6.245304 12,-6.512412 0,-0.267108 -0.911623,-3.069464 -2.025828,-6.227459 -1.114205,-3.157993 -1.522583,-6.245052 -0.907505,-6.860129 0.615077,-0.615078 3.702136,-0.2067 6.860129,0.907505 C 31.084791,23.088377 33.887147,24 34.154255,24 c 0.267108,0 3.197693,-5.4 6.512412,-12 3.314718,-6.6 6.497313,-12 7.072432,-12 0.575118,0 3.692524,5.4 6.927568,12 3.235044,6.6 6.283034,12 6.773313,12 0.490279,0 3.460445,-0.906407 6.600371,-2.014236 3.139925,-1.107831 6.034645,-1.688545 6.432713,-1.290479 0.398067,0.398068 0.0045,3.413086 -0.874653,6.700039 C 72.719285,30.682277 72,33.839565 72,34.41152 c 0,0.571953 5.4,3.686769 12,6.921813 6.6,3.235044 12,6.235044 12,6.666667 0,0.431623 -5.442381,3.452396 -12.094179,6.712829 -11.20829,5.493835 -12.037788,6.173168 -11.32432,9.274282 0.423423,1.840422 1.144495,5.297372 1.602383,7.682109 l 0.832524,4.335885 -5.675839,-2.002552 C 66.218857,72.901149 62.963592,72 62.106647,72 c -0.856946,0 -4.204936,5.4 -7.43998,12 -3.235044,6.6 -6.2588,12 -6.71946,12 -0.46066,0 -3.487234,-5.167301 -6.725719,-11.482893 z m 5.445179,-11.85044 C 46.666667,66 47.215687,61.333333 48,61.333333 c 0.786717,0 1.333333,4.755556 1.333333,11.6 0,13.256271 0.514908,13.234222 7.212668,-0.308856 4.23316,-8.559577 4.428202,-9.475509 2.477098,-11.632652 -2.865787,-3.168414 -1.021394,-4.673573 2.17844,-1.777764 2.43769,2.206079 3.000345,2.082103 12.643717,-2.785952 5.550872,-2.802126 10.1065,-5.544776 10.123619,-6.094776 0.01712,-0.55 -5.068875,-1 -11.302208,-1 C 66,49.333333 61.333333,48.784313 61.333333,48 61.333333,47.215687 66,46.666667 72.666667,46.666667 78.9,46.666667 84,46.198237 84,45.625713 c 0,-0.572524 -4.569941,-3.30222 -10.155425,-6.06599 -9.654044,-4.77695 -10.279812,-4.912472 -12.674842,-2.745 -3.176816,2.874978 -4.99615,1.343877 -2.146634,-1.806548 1.951104,-2.157143 1.756062,-3.073075 -2.477098,-11.632652 -6.69776,-13.5430777 -7.212668,-13.5651267 -7.212668,-0.308856 0,6.844444 -0.546616,11.6 -1.333333,11.6 C 47.215687,34.666667 46.666667,30 46.666667,23.333333 46.666667,17.1 46.198237,12 45.625713,12 c -0.572524,0 -3.30222,4.569941 -6.06599,10.155425 -4.77695,9.654044 -4.912472,10.279812 -2.745,12.674842 2.967641,3.279206 1.29475,4.952097 -1.984456,1.984456 -2.39503,-2.167472 -3.020798,-2.03195 -12.674842,2.745 C 16.569941,42.323493 12,45.053189 12,45.625713 c 0,0.572524 4.8,1.040954 10.666667,1.040954 6.222222,0 10.666666,0.555556 10.666666,1.333333 0,0.777777 -4.444444,1.333333 -10.666666,1.333333 C 16.8,49.333333 12,49.801763 12,50.374287 c 0,0.572524 4.569941,3.30222 10.155425,6.06599 9.654044,4.77695 10.279812,4.912472 12.674842,2.745 3.279206,-2.967641 4.952097,-1.29475 1.984456,1.984456 -2.167472,2.39503 -2.03195,3.020798 2.745,12.674842 C 42.323493,79.430059 45.053189,84 45.625713,84 c 0.572524,0 1.040954,-5.1 1.040954,-11.333333 z M 45.016351,54.569019 c -5.84123,-3.403146 -5.62263,-10.056902 0.43695,-13.299891 7.021259,-3.757663 12.845555,8.035577 6.250024,12.655267 -3.443849,2.412165 -3.623416,2.429476 -6.686974,0.644624 z M 51.333333,48 c 0,-2.443637 -0.802317,-3.447263 -3.005961,-3.760183 -1.803039,-0.256033 -3.327448,0.410932 -3.809319,1.666667 -1.327557,3.459561 0.533178,6.318913 3.809319,5.853699 C 50.531016,51.447263 51.333333,50.443637 51.333333,48 Z M 30.775716,69.333333 c 1.926396,0 1.429703,-3.502998 -0.753619,-5.314994 -1.640868,-1.361799 -2.208868,-1.034027 -3.333333,1.92354 -1.80042,4.735464 -1.725664,5.152162 0.753619,4.200773 1.159978,-0.445125 2.659978,-0.809319 3.333333,-0.809319 z m 37.3398,-4.417817 c -1.068307,-1.068307 -2.075055,-0.860739 -3.698299,0.762505 -2.08498,2.08498 -2.01916,2.309612 1.009524,3.445302 2.475027,0.92808 3.34814,0.748064 3.698299,-0.762504 0.252105,-1.087574 -0.20218,-2.637959 -1.009524,-3.445303 z M 31.715921,29.157081 c 0.251435,-1.305597 -0.763796,-2.453422 -2.593129,-2.931804 -3.720803,-0.973012 -3.870527,-0.823288 -2.897515,2.897515 0.891926,3.410732 4.835658,3.43536 5.490644,0.03429 z M 69.079087,28.33304 c 0.330649,-2.23796 -0.131987,-2.649053 -2.333334,-2.073387 -2.712624,0.709367 -3.608673,3.09965 -1.829086,4.879236 1.56976,1.56976 3.73121,0.112747 4.16242,-2.805849 z M 23.927708,88.223932 C 14.694713,82.342331 4,69.007137 4,63.376159 4,61.098149 7.8445287,63.199039 8.5071536,65.839147 9.6480691,70.384916 20.628321,82.141092 27.487689,86.160949 33.255584,89.54116 34.98492,92 31.594375,92 30.637947,92 27.187947,90.300769 23.927708,88.223932 Z m 38.738959,2.570012 c 0,-0.663329 3.185721,-3.003964 7.07938,-5.201409 7.745297,-4.371176 14.580804,-11.391447 17.929876,-18.414524 1.18322,-2.481239 2.640182,-4.511344 3.237693,-4.511344 4.318003,0 -4.955513,16.06628 -12.559159,21.758626 -8.032012,6.013036 -15.68779,9.120994 -15.68779,6.368651 z M 4,31.933787 C 4,30.05178 7.7683409,22.875069 11.206575,18.209045 15.110991,12.910365 25.564532,5.4870936 30.516452,4.4967096 36.113908,3.3772185 35.776403,5.6435707 29.930517,8.4312793 23.195879,11.642805 12.908721,21.666501 9.89741,27.951325 7.5419571,32.867325 4,35.259173 4,31.933787 Z M 87.595543,28.653431 C 84.366645,21.882363 75.598221,12.864753 68.668572,9.1885824 62.34054,5.8315692 61.071053,4 65.072292,4 c 3.50596,0 13.5884,6.764574 18.586189,12.469964 4.981844,5.687187 9.949511,14.810932 8.728836,16.031607 -1.591792,1.591793 -2.573669,0.803274 -4.791774,-3.84814 z"
       id="path24"
       inkscape:connector-curvature="0" />
    <path
       style="fill:#8c8c8c;fill-opacity:1;stroke-width:1.33333337"
       d="m 41.318001,84.019688 c -3.291568,-6.589172 -6.659232,-11.989172 -7.483698,-12 -0.824468,-0.0108 -3.958902,0.848204 -6.965408,1.908961 -3.006507,1.060758 -5.749168,1.471084 -6.094803,0.911835 -0.345635,-0.559248 0.212463,-3.37714 1.240217,-6.261983 1.027754,-2.884842 1.894979,-5.871741 1.927167,-6.637553 C 23.973664,61.175137 18.6,57.901711 12,54.666667 5.4,51.431623 0,48.314217 0,47.739099 0,47.16398 5.4,43.981385 12,40.666667 c 6.6,-3.314719 12,-6.245304 12,-6.512412 0,-0.267108 -0.911623,-3.069464 -2.025828,-6.227459 -1.114205,-3.157993 -1.522583,-6.245052 -0.907505,-6.860129 0.615077,-0.615078 3.702136,-0.2067 6.860129,0.907505 C 31.084791,23.088377 33.887147,24 34.154255,24 c 0.267108,0 3.197693,-5.4 6.512412,-12 3.314718,-6.6 6.497313,-12 7.072432,-12 0.575118,0 3.692524,5.4 6.927568,12 3.235044,6.6 6.583034,12 7.43998,12 0.856945,0 4.11221,-0.901149 7.233922,-2.002553 l 5.675839,-2.002552 -0.832524,4.335885 c -0.457888,2.384737 -1.17896,5.841687 -1.602383,7.682109 -0.713468,3.101114 0.116027,3.780447 11.32432,9.274282 C 90.557619,44.547604 96,47.568377 96,48 c 0,0.431623 -5.442381,3.452396 -12.094179,6.712829 -11.20829,5.493835 -12.037788,6.173168 -11.32432,9.274282 0.423423,1.840422 1.144495,5.297372 1.602383,7.682109 l 0.832524,4.335885 -5.675839,-2.002552 C 66.218857,72.901149 62.963592,72 62.106647,72 c -0.856946,0 -4.204936,5.4 -7.43998,12 -3.235044,6.6 -6.21537,12 -6.622947,12 -0.407577,0 -3.434151,-5.39114 -6.725719,-11.980312 z M 46.666667,72.587977 C 46.666667,65.319488 47.15078,61.475153 48,62 c 0.733333,0.453225 1.333333,5.588635 1.333333,11.412023 0,5.823388 0.46843,10.587977 1.040954,10.587977 0.572524,0 3.30222,-4.569941 6.06599,-10.155425 4.77695,-9.654044 4.912472,-10.279812 2.745,-12.674842 -2.967641,-3.279206 -1.29475,-4.952097 1.984456,-1.984456 2.39503,2.167472 3.020798,2.03195 12.674842,-2.745 C 79.430059,53.676507 84,50.946811 84,50.374287 84,49.801763 78.9,49.333333 72.666667,49.333333 66,49.333333 61.333333,48.784313 61.333333,48 61.333333,47.215687 66,46.666667 72.666667,46.666667 78.9,46.666667 84,46.198237 84,45.625713 c 0,-0.572524 -4.569941,-3.30222 -10.155425,-6.06599 -9.654044,-4.77695 -10.279812,-4.912472 -12.674842,-2.745 -3.279206,2.967641 -4.952097,1.29475 -1.984456,-1.984456 2.167472,-2.39503 2.03195,-3.020798 -2.745,-12.674842 C 53.676507,16.569941 50.946811,12 50.374287,12 49.801763,12 49.333333,16.764589 49.333333,22.587977 49.333333,28.411365 48.733333,33.546775 48,34 47.15078,34.524847 46.666667,30.680512 46.666667,23.412023 46.666667,17.135411 46.198237,12 45.625713,12 c -0.572524,0 -3.30222,4.569941 -6.06599,10.155425 -4.77695,9.654044 -4.912472,10.279812 -2.745,12.674842 2.967641,3.279206 1.29475,4.952097 -1.984456,1.984456 -2.39503,-2.167472 -3.020798,-2.03195 -12.674842,2.745 C 16.569941,42.323493 12,45.053189 12,45.625713 c 0,0.572524 4.8,1.040954 10.666667,1.040954 6.222222,0 10.666666,0.555556 10.666666,1.333333 0,0.777777 -4.444444,1.333333 -10.666666,1.333333 C 16.8,49.333333 12,49.801763 12,50.374287 c 0,0.572524 4.569941,3.30222 10.155425,6.06599 9.654044,4.77695 10.279812,4.912472 12.674842,2.745 3.279206,-2.967641 4.952097,-1.29475 1.984456,1.984456 -2.167472,2.39503 -2.03195,3.020798 2.745,12.674842 C 42.323493,79.430059 45.053189,84 45.625713,84 c 0.572524,0 1.040954,-5.135411 1.040954,-11.412023 z M 45.016351,54.569019 c -5.84123,-3.403146 -5.62263,-10.056902 0.43695,-13.299891 7.021259,-3.757663 12.845555,8.035577 6.250024,12.655267 -3.443849,2.412165 -3.623416,2.429476 -6.686974,0.644624 z M 51.333333,48 c 0,-2.443637 -0.802317,-3.447263 -3.005961,-3.760183 -1.803039,-0.256033 -3.327448,0.410932 -3.809319,1.666667 -1.327557,3.459561 0.533178,6.318913 3.809319,5.853699 C 50.531016,51.447263 51.333333,50.443637 51.333333,48 Z M 30.089169,69.299431 c 3.525684,-1.340462 3.54788,-1.42052 1.13352,-4.088358 -2.32795,-2.572357 -2.556252,-2.593018 -4.175968,-0.377924 -1.644738,2.249314 -2.341192,5.833518 -1.133521,5.833518 0.318928,0 2.198113,-0.615256 4.175969,-1.367236 z m 39.200859,-2.713682 c -1.659771,-3.10131 -3.069521,-3.261296 -5.278961,-0.599084 -1.364392,1.643992 -1.105075,2.191946 1.503406,3.176783 4.126512,1.557972 5.49051,0.626724 3.775555,-2.577699 z M 31.715921,29.157081 c 0.251435,-1.305597 -0.763796,-2.453422 -2.593129,-2.931804 -3.720803,-0.973012 -3.870527,-0.823288 -2.897515,2.897515 0.891926,3.410732 4.835658,3.43536 5.490644,0.03429 z M 69.079087,28.33304 c 0.330649,-2.23796 -0.131987,-2.649053 -2.333334,-2.073387 -2.712624,0.709367 -3.608673,3.09965 -1.829086,4.879236 1.56976,1.56976 3.73121,0.112747 4.16242,-2.805849 z M 23.927708,88.223932 C 16.671761,83.601749 8.3836679,74.577244 5.8704401,68.562243 3.536776,62.976999 3.5435957,62.666667 6,62.666667 c 1.1,0 2,0.744804 2,1.655121 0,4.134897 10.091704,15.982905 17.517892,20.566611 C 33.096001,89.565873 35.175832,92 31.594375,92 30.637947,92 27.187947,90.300769 23.927708,88.223932 Z m 38.738959,2.570012 c 0,-0.663329 3.185721,-3.003964 7.07938,-5.201409 7.745297,-4.371176 14.580804,-11.391447 17.929876,-18.414524 1.18322,-2.481239 2.640182,-4.511344 3.237693,-4.511344 4.318003,0 -4.955513,16.06628 -12.559159,21.758626 -8.032012,6.013036 -15.68779,9.120994 -15.68779,6.368651 z M 4,31.946883 C 4,25.738461 16.159333,11.346892 25.378571,6.6435883 32.364196,3.0797883 37.215891,3.5816165 31.333333,7.2595108 19.610741,14.588713 16.725392,17.173769 11.648625,24.895532 6.4060623,32.869471 4,35.087647 4,31.946883 Z M 87.595543,28.653431 C 84.366645,21.882363 75.598221,12.864753 68.668572,9.1885824 62.513105,5.9231147 61.062313,4 64.754321,4 72.677903,4 92,23.096599 92,30.927708 c 0,3.827195 -1.983199,2.803155 -4.404457,-2.274277 z"
       id="path22"
       inkscape:connector-curvature="0" />
    <path
       style="fill:#767676;fill-opacity:1;stroke-width:1.33333337"
       d="M 41.310904,83.95424 C 38.088197,77.379408 34.750299,72 33.893353,72 c -0.856945,0 -3.979273,0.854245 -6.938505,1.898324 -2.959232,1.044077 -5.688915,1.589832 -6.065959,1.212787 -0.377045,-0.377044 0.16871,-3.106727 1.212787,-6.065959 C 23.145755,66.08592 24,62.963592 24,62.106647 24,61.249701 18.6,57.901711 12,54.666667 5.4,51.431623 0,48.36894 0,47.860704 0,47.352467 5.4,44.147647 12,40.73888 c 6.6,-3.408767 12,-6.394073 12,-6.634016 0,-0.239943 -0.895925,-2.975584 -1.990945,-6.079201 -1.09502,-3.103618 -1.679454,-6.146946 -1.298742,-6.762952 0.380714,-0.616006 3.152075,-0.252118 6.158582,0.80864 C 29.875401,23.132108 32.853813,24 33.487588,24 34.121363,24 37.376219,18.551673 40.720603,11.892608 45.232579,2.9087245 47.218711,0.13163669 48.419276,1.1280172 49.309163,1.8665579 52.399004,7.3148843 55.285589,13.235409 58.172176,19.155935 61.238357,24 62.099328,24 c 0.860971,0 4.119529,-0.901149 7.241241,-2.002553 l 5.675839,-2.002552 -0.832524,4.335885 c -0.457888,2.384737 -1.17896,5.841687 -1.602383,7.682109 -0.713468,3.101114 0.116027,3.780447 11.32432,9.274282 C 90.557619,44.547604 96,47.568377 96,48 c 0,0.431623 -5.445823,3.454084 -12.101828,6.716579 -11.919171,5.842277 -12.088099,5.99232 -11.192179,9.940948 2.601239,11.464566 2.818714,10.525238 -2.177917,9.406934 -2.490443,-0.55739 -5.736989,-1.292893 -7.214549,-1.63445 -2.241694,-0.518198 -3.563115,1.177016 -7.981375,10.239078 -2.912195,5.973051 -5.939948,11.395435 -6.72834,12.049743 -0.956805,0.794077 -3.381777,-2.785265 -7.292908,-10.764592 z m 5.355763,-10.620907 c 0,-6.222222 0.555556,-10.666666 1.333333,-10.666666 0.777777,0 1.333333,4.444444 1.333333,10.666666 C 49.333333,79.2 49.801763,84 50.374287,84 c 0.572524,0 3.30222,-4.569941 6.06599,-10.155425 4.77695,-9.654044 4.912472,-10.279812 2.745,-12.674842 -2.967641,-3.279206 -1.29475,-4.952097 1.984456,-1.984456 2.39503,2.167472 3.020798,2.03195 12.674842,-2.745 C 79.430059,53.676507 84,50.946811 84,50.374287 84,49.801763 78.9,49.333333 72.666667,49.333333 66,49.333333 61.333333,48.784313 61.333333,48 61.333333,47.215687 66,46.666667 72.666667,46.666667 78.9,46.666667 84,46.198237 84,45.625713 c 0,-0.572524 -4.569941,-3.30222 -10.155425,-6.06599 -9.654044,-4.77695 -10.279812,-4.912472 -12.674842,-2.745 -3.279206,2.967641 -4.952097,1.29475 -1.984456,-1.984456 2.167472,-2.39503 2.03195,-3.020798 -2.745,-12.674842 C 53.676507,16.569941 50.946811,12 50.374287,12 c -0.572524,0 -1.040954,4.8 -1.040954,10.666667 0,6.222222 -0.555556,10.666666 -1.333333,10.666666 -0.777777,0 -1.333333,-4.444444 -1.333333,-10.666666 C 46.666667,16.8 46.198237,12 45.625713,12 c -0.572524,0 -3.30222,4.569941 -6.06599,10.155425 -4.77695,9.654044 -4.912472,10.279812 -2.745,12.674842 2.967641,3.279206 1.29475,4.952097 -1.984456,1.984456 -2.39503,-2.167472 -3.020798,-2.03195 -12.674842,2.745 C 16.569941,42.323493 12,45.053189 12,45.625713 c 0,0.572524 4.8,1.040954 10.666667,1.040954 6.222222,0 10.666666,0.555556 10.666666,1.333333 0,0.777777 -4.444444,1.333333 -10.666666,1.333333 C 16.8,49.333333 12,49.801763 12,50.374287 c 0,0.572524 4.569941,3.30222 10.155425,6.06599 9.654044,4.77695 10.279812,4.912472 12.674842,2.745 3.279206,-2.967641 4.952097,-1.29475 1.984456,1.984456 -2.167472,2.39503 -2.03195,3.020798 2.745,12.674842 C 42.323493,79.430059 45.053189,84 45.625713,84 c 0.572524,0 1.040954,-4.8 1.040954,-10.666667 z m -4.789276,-22 c -2.023223,-3.087828 -2.023223,-3.578838 0,-6.666666 1.461793,-2.230979 3.408556,-3.333334 5.88668,-3.333334 4.631412,0 6.902596,2.193555 6.902596,6.666667 0,4.473112 -2.271184,6.666667 -6.902596,6.666667 -2.478124,0 -4.424887,-1.102355 -5.88668,-3.333334 z M 51.333333,48 c 0,-2.443637 -0.802317,-3.447263 -3.005961,-3.760183 -1.803039,-0.256033 -3.327448,0.410932 -3.809319,1.666667 -1.327557,3.459561 0.533178,6.318913 3.809319,5.853699 C 50.531016,51.447263 51.333333,50.443637 51.333333,48 Z M 32.419048,68.031093 c 0.597143,-0.551386 0.03775,-2.050489 -1.243101,-3.331337 -2.216199,-2.216199 -2.413776,-2.212625 -4.085715,0.07389 -2.804033,3.834744 -2.231071,6.215984 1.243101,5.166348 1.65,-0.498506 3.488572,-1.35751 4.085715,-1.908897 z m 37.723604,0.526524 c -0.445125,-1.159978 -0.809319,-2.659978 -0.809319,-3.333333 0,-2.064507 -4.997358,-1.356332 -5.835141,0.826896 -0.509708,1.328276 0.262361,2.473268 2.190681,3.248819 4.392692,1.766696 5.355047,1.606285 4.453779,-0.742382 z M 32,28.658916 c 0,-1.512301 -5.263759,-3.839603 -6.312411,-2.790949 -0.235876,0.235876 0.197866,2.077292 0.963871,4.092036 1.156615,3.042129 1.728063,3.384874 3.370637,2.021658 C 31.109944,31.078828 32,29.583593 32,28.658916 Z M 69.079087,28.33304 c 0.330649,-2.23796 -0.131987,-2.649053 -2.333334,-2.073387 -2.712624,0.709367 -3.608673,3.09965 -1.829086,4.879236 1.56976,1.56976 3.73121,0.112747 4.16242,-2.805849 z M 27.229707,90.10876 C 19.096076,86.567096 7.2781965,73.712143 4.7594796,65.666667 3.0336667,60.153944 6.2353635,62.581977 11.113624,70.485384 15.972361,78.35716 21.00626,83.052827 29,87.169956 c 2.383333,1.227521 4.333333,2.816449 4.333333,3.530951 0,1.68798 -1.115788,1.579732 -6.103626,-0.592147 z m 35.43696,0.651445 c 0,-0.681888 2.740057,-2.608246 6.089016,-4.280798 6.917913,-3.454972 15.538318,-12.209435 18.83986,-19.132838 1.227429,-2.573946 2.720562,-4.679902 3.318073,-4.679902 4.271947,0 -4.315003,15.069253 -12.050061,21.146673 -8.237522,6.472205 -16.196888,9.885988 -16.196888,6.946865 z M 4,31.540048 C 4,30.553741 6.2935364,26.203741 9.0967475,21.873381 13.976897,14.334597 20.444381,8.7328613 28.338968,5.2069588 32.591067,3.3078744 35.206943,4.9112581 31.519392,7.1563785 19.800809,14.291096 16.372487,17.341167 11.524938,24.944817 6.3008531,33.139088 4,35.155671 4,31.540048 Z M 87.595543,28.653431 C 84.366645,21.882363 75.598221,12.864753 68.668572,9.1885824 62.513105,5.9231147 61.062313,4 64.754321,4 72.550009,4 92,23.199836 92,30.89526 c 0,3.857149 -1.975569,2.851603 -4.404457,-2.241829 z"
       id="path20"
       inkscape:connector-curvature="0" />
    <path
       style="fill:#606060;fill-opacity:1;stroke-width:1.33333337"
       d="M 41.026472,83.333333 C 37.935055,77.1 34.714864,72 33.870492,72 c -0.844372,0 -3.956412,0.854245 -6.915644,1.898324 -2.959232,1.044077 -5.688915,1.589832 -6.065959,1.212787 -0.377045,-0.377044 0.16871,-3.106727 1.212787,-6.065959 C 23.145755,66.08592 24,62.963592 24,62.106647 24,61.249701 18.6,57.901711 12,54.666667 5.4,51.431623 0,48.451297 0,48.04372 c 0,-0.407577 5.3911407,-3.434151 11.980313,-6.725719 6.589171,-3.291568 11.989171,-6.359232 11.999999,-6.817032 0.0108,-0.457801 -0.876237,-3.371689 -1.971257,-6.475306 -1.09502,-3.103618 -1.679454,-6.146946 -1.298742,-6.762952 0.380714,-0.616006 3.199927,-0.235235 6.264919,0.846157 3.064993,1.081393 6.199427,1.716587 6.965408,1.411543 0.765981,-0.305044 4.039019,-5.715451 7.273415,-12.023128 4.016229,-7.8323929 6.347181,-11.08137583 7.35196,-10.2474833 0.809181,0.6715603 3.855633,6.1115291 6.769896,12.0888193 5.192342,10.649744 5.379237,10.849521 9.314706,9.95677 2.208827,-0.501066 5.452527,-1.233989 7.208222,-1.628716 3.443384,-0.774164 3.38068,-1.490334 0.847154,9.6758 -0.89592,3.948628 -0.726992,4.098671 11.192179,9.940948 C 90.554177,44.545916 96,47.568377 96,48 c 0,0.431623 -5.445823,3.454084 -12.101828,6.716579 -11.919171,5.842277 -12.088099,5.99232 -11.192179,9.940948 2.601239,11.464566 2.818714,10.525238 -2.177917,9.406934 C 68.037633,73.507071 64.8,72.774705 63.333333,72.436981 61.114236,71.925997 59.717213,73.739964 55.009719,83.244801 51.898397,89.526828 48.744024,94.666667 48,94.666667 c -0.744024,0 -3.882111,-5.1 -6.973528,-11.333334 z m 5.640195,-10 c 0,-6.222222 0.555556,-10.666666 1.333333,-10.666666 0.777777,0 1.333333,4.444444 1.333333,10.666666 C 49.333333,79.2 49.801763,84 50.374287,84 c 0.572524,0 3.30222,-4.569941 6.06599,-10.155425 4.77695,-9.654044 4.912472,-10.279812 2.745,-12.674842 -2.967641,-3.279206 -1.29475,-4.952097 1.984456,-1.984456 2.39503,2.167472 3.020798,2.03195 12.674842,-2.745 C 79.430059,53.676507 84,50.946811 84,50.374287 84,49.801763 79.2,49.333333 73.333333,49.333333 67.111111,49.333333 62.666667,48.777777 62.666667,48 c 0,-0.777777 4.444444,-1.333333 10.666666,-1.333333 C 79.2,46.666667 84,46.198237 84,45.625713 c 0,-0.572524 -4.569941,-3.30222 -10.155425,-6.06599 -9.654044,-4.77695 -10.279812,-4.912472 -12.674842,-2.745 -3.279206,2.967641 -4.952097,1.29475 -1.984456,-1.984456 2.167472,-2.39503 2.03195,-3.020798 -2.745,-12.674842 C 53.676507,16.569941 50.946811,12 50.374287,12 c -0.572524,0 -1.040954,4.8 -1.040954,10.666667 0,6.222222 -0.555556,10.666666 -1.333333,10.666666 -0.777777,0 -1.333333,-4.444444 -1.333333,-10.666666 C 46.666667,16.8 46.198237,12 45.625713,12 c -0.572524,0 -3.30222,4.569941 -6.06599,10.155425 -4.77695,9.654044 -4.912472,10.279812 -2.745,12.674842 2.967641,3.279206 1.29475,4.952097 -1.984456,1.984456 -2.39503,-2.167472 -3.020798,-2.03195 -12.674842,2.745 C 16.569941,42.323493 12,45.053189 12,45.625713 c 0,0.572524 4.8,1.040954 10.666667,1.040954 6.222222,0 10.666666,0.555556 10.666666,1.333333 0,0.777777 -4.444444,1.333333 -10.666666,1.333333 C 16.8,49.333333 12,49.801763 12,50.374287 c 0,0.572524 4.569941,3.30222 10.155425,6.06599 9.654044,4.77695 10.279812,4.912472 12.674842,2.745 3.279206,-2.967641 4.952097,-1.29475 1.984456,1.984456 -2.167472,2.39503 -2.03195,3.020798 2.745,12.674842 C 42.323493,79.430059 45.053189,84 45.625713,84 c 0.572524,0 1.040954,-4.8 1.040954,-10.666667 z m -4.789276,-22 c -2.023223,-3.087828 -2.023223,-3.578838 0,-6.666666 1.461793,-2.230979 3.408556,-3.333334 5.88668,-3.333334 4.631412,0 6.902596,2.193555 6.902596,6.666667 0,4.473112 -2.271184,6.666667 -6.902596,6.666667 -2.478124,0 -4.424887,-1.102355 -5.88668,-3.333334 z M 51.333333,48 c 0,-2.443637 -0.802317,-3.447263 -3.005961,-3.760183 -1.803039,-0.256033 -3.327448,0.410932 -3.809319,1.666667 -1.327557,3.459561 0.533178,6.318913 3.809319,5.853699 C 50.531016,51.447263 51.333333,50.443637 51.333333,48 Z M 32.419048,68.031093 c 0.597143,-0.551386 0.03775,-2.050489 -1.243101,-3.331337 -2.216199,-2.216199 -2.413776,-2.212625 -4.085715,0.07389 -2.804033,3.834744 -2.231071,6.215984 1.243101,5.166348 1.65,-0.498506 3.488572,-1.35751 4.085715,-1.908897 z M 70.666667,70.0868 c 0,-2.977444 -2.91071,-7.242793 -4.520891,-6.624908 -3.392251,1.301729 -3.646869,4.555135 -0.456903,5.838107 3.410104,1.371509 4.977794,1.619301 4.977794,0.786801 z M 32,28.658916 c 0,-1.512301 -5.263759,-3.839603 -6.312411,-2.790949 -0.235876,0.235876 0.197866,2.077292 0.963871,4.092036 1.156615,3.042129 1.728063,3.384874 3.370637,2.021658 C 31.109944,31.078828 32,29.583593 32,28.658916 Z m 37.290028,0.755335 c 1.714955,-3.204423 0.350957,-4.135671 -3.775555,-2.577699 -2.608481,0.984837 -2.867798,1.532791 -1.503406,3.176783 2.20944,2.662212 3.61919,2.502226 5.278961,-0.599084 z M 27.104647,89.853784 C 20.080765,86.38976 12.101187,78.747704 7.9491877,71.508565 3.7188063,64.132767 3.2805709,62.666667 5.3062348,62.666667 c 0.7184292,0 2.5433239,2.424894 4.0553213,5.388654 3.5163209,6.892558 11.6905649,15.066803 18.5831229,18.583123 2.96376,1.511997 5.388654,3.336892 5.388654,4.055321 0,1.778419 -1.265489,1.607759 -6.228686,-0.839981 z m 35.56202,0.931824 c 0,-0.667915 2.6511,-2.497767 5.891334,-4.066337 6.692914,-3.239984 15.729496,-12.435658 19.037542,-19.372702 2.641334,-5.538937 5.080426,-6.22136 3.784736,-1.058914 -1.165916,4.645376 -8.696475,14.900397 -13.589324,18.50577 -7.810103,5.754998 -15.124288,8.65285 -15.124288,5.992183 z M 4,31.933787 C 4,26.524771 17.465237,10.68067 25.580728,6.5404556 35.832585,1.3103479 36.358899,4.7045873 26.186272,10.445663 18.986244,14.509107 12.906259,21.003209 8.8151131,29 6.6747263,33.183724 4,34.8134 4,31.933787 Z M 87.595543,28.653431 C 84.366645,21.882363 75.598221,12.864753 68.668572,9.1885824 62.368997,5.8466659 61.069652,4 65.017797,4 72.681432,4 92,23.507209 92,31.245679 c 0,3.534454 -2.061385,2.321224 -4.404457,-2.592248 z"
       id="path18"
       inkscape:connector-curvature="0" />
    <path
       style="fill:#494949;fill-opacity:1;stroke-width:1.33333337"
       d="M 40.990281,83.244801 C 35.778037,72.720832 35.071293,71.883013 32,72.587148 c -1.833333,0.420317 -5.284483,1.138848 -7.66922,1.596736 l -4.335885,0.832524 2.002552,-5.675839 C 23.098851,66.218857 24,62.963592 24,62.106647 24,61.249701 18.6,57.901711 12,54.666667 5.4,51.431623 0,48.431623 0,48 c 0,-0.431623 5.4,-3.431623 12,-6.666667 6.6,-3.235044 12,-6.583034 12,-7.43998 0,-0.856945 -0.854245,-3.979273 -1.898324,-6.938505 -1.044077,-2.959232 -1.589832,-5.688915 -1.212787,-6.065959 0.377044,-0.377045 3.106727,0.16871 6.065959,1.212787 C 29.91408,23.145755 33.02612,24 33.870492,24 34.714864,24 37.935055,18.9 41.026472,12.666667 44.117889,6.4333333 47.255976,1.3333333 48,1.3333333 c 0.744024,0 3.898397,5.1429283 7.009719,11.4287297 5.54581,11.204197 5.735533,11.410985 9.656948,10.525513 2.2,-0.496769 5.436477,-1.226176 7.192172,-1.620903 3.44372,-0.774238 3.378349,-1.514546 0.853585,9.66666 -0.885472,3.921415 -0.678684,4.111138 10.525513,9.656948 6.285802,3.111322 11.42873,6.265695 11.42873,7.009719 0,0.744024 -5.142928,3.898397 -11.42873,7.009719 -11.204197,5.54581 -11.410985,5.735533 -10.525513,9.656948 2.590561,11.472596 2.812853,10.516226 -2.184348,9.397794 C 68.037633,73.507071 64.8,72.774705 63.333333,72.436981 61.114236,71.925997 59.717213,73.739964 55.009719,83.244801 51.898397,89.526828 48.744024,94.666667 48,94.666667 c -0.744024,0 -3.898397,-5.139839 -7.009719,-11.421866 z m 5.676386,-9.911468 c 0,-6.222222 0.555556,-10.666666 1.333333,-10.666666 0.777777,0 1.333333,4.444444 1.333333,10.666666 C 49.333333,79.2 49.801763,84 50.374287,84 c 0.572524,0 3.30222,-4.569941 6.06599,-10.155425 4.77695,-9.654044 4.912472,-10.279812 2.745,-12.674842 -2.967641,-3.279206 -1.29475,-4.952097 1.984456,-1.984456 2.39503,2.167472 3.020798,2.03195 12.674842,-2.745 C 79.430059,53.676507 84,50.946811 84,50.374287 84,49.801763 79.2,49.333333 73.333333,49.333333 67.111111,49.333333 62.666667,48.777777 62.666667,48 c 0,-0.777777 4.444444,-1.333333 10.666666,-1.333333 C 79.2,46.666667 84,46.198237 84,45.625713 c 0,-0.572524 -4.569941,-3.30222 -10.155425,-6.06599 -9.654044,-4.77695 -10.279812,-4.912472 -12.674842,-2.745 -3.279206,2.967641 -4.952097,1.29475 -1.984456,-1.984456 2.167472,-2.39503 2.03195,-3.020798 -2.745,-12.674842 C 53.676507,16.569941 50.946811,12 50.374287,12 c -0.572524,0 -1.040954,4.8 -1.040954,10.666667 0,6.222222 -0.555556,10.666666 -1.333333,10.666666 -0.777777,0 -1.333333,-4.444444 -1.333333,-10.666666 C 46.666667,16.8 46.198237,12 45.625713,12 c -0.572524,0 -3.30222,4.569941 -6.06599,10.155425 -4.77695,9.654044 -4.912472,10.279812 -2.745,12.674842 2.967641,3.279206 1.29475,4.952097 -1.984456,1.984456 -2.39503,-2.167472 -3.020798,-2.03195 -12.674842,2.745 C 16.569941,42.323493 12,45.053189 12,45.625713 c 0,0.572524 4.8,1.040954 10.666667,1.040954 6.222222,0 10.666666,0.555556 10.666666,1.333333 0,0.777777 -4.444444,1.333333 -10.666666,1.333333 C 16.8,49.333333 12,49.801763 12,50.374287 c 0,0.572524 4.569941,3.30222 10.155425,6.06599 9.654044,4.77695 10.279812,4.912472 12.674842,2.745 3.279206,-2.967641 4.952097,-1.29475 1.984456,1.984456 -2.167472,2.39503 -2.03195,3.020798 2.745,12.674842 C 42.323493,79.430059 45.053189,84 45.625713,84 c 0.572524,0 1.040954,-4.8 1.040954,-10.666667 z m -4.789276,-22 c -2.023223,-3.087828 -2.023223,-3.578838 0,-6.666666 1.461793,-2.230979 3.408556,-3.333334 5.88668,-3.333334 4.631412,0 6.902596,2.193555 6.902596,6.666667 0,4.473112 -2.271184,6.666667 -6.902596,6.666667 -2.478124,0 -4.424887,-1.102355 -5.88668,-3.333334 z M 51.333333,48 c 0,-2.443637 -0.802317,-3.447263 -3.005961,-3.760183 -1.803039,-0.256033 -3.327448,0.410932 -3.809319,1.666667 -1.327557,3.459561 0.533178,6.318913 3.809319,5.853699 C 50.531016,51.447263 51.333333,50.443637 51.333333,48 Z M 32.419048,68.031093 c 0.597143,-0.551386 0.03775,-2.050489 -1.243101,-3.331337 -2.216199,-2.216199 -2.413776,-2.212625 -4.085715,0.07389 -2.804033,3.834744 -2.231071,6.215984 1.243101,5.166348 1.65,-0.498506 3.488572,-1.35751 4.085715,-1.908897 z M 70.666667,70.0868 c 0,-2.977444 -2.91071,-7.242793 -4.520891,-6.624908 -3.392251,1.301729 -3.646869,4.555135 -0.456903,5.838107 3.410104,1.371509 4.977794,1.619301 4.977794,0.786801 z M 32,28.658916 c 0,-1.512301 -5.263759,-3.839603 -6.312411,-2.790949 -0.235876,0.235876 0.197866,2.077292 0.963871,4.092036 1.156615,3.042129 1.728063,3.384874 3.370637,2.021658 C 31.109944,31.078828 32,29.583593 32,28.658916 Z m 37.981768,-0.457209 c 0.851043,-2.810887 0.627412,-3.034518 -2.183475,-2.183475 -4.770686,1.444407 -5.52136,2.734892 -3.036388,5.219863 2.484971,2.484972 3.775456,1.734298 5.219863,-3.036388 z M 27.104647,89.853784 C 20.080765,86.38976 12.101187,78.747704 7.9491877,71.508565 3.7188063,64.132767 3.2805709,62.666667 5.3062348,62.666667 c 0.7184292,0 2.5433239,2.424894 4.0553213,5.388654 3.5163209,6.892558 11.6905649,15.066803 18.5831229,18.583123 2.96376,1.511997 5.388654,3.336892 5.388654,4.055321 0,1.778419 -1.265489,1.607759 -6.228686,-0.839981 z m 35.56202,0.931824 c 0,-0.667915 2.6511,-2.497767 5.891334,-4.066337 C 75.250915,83.479287 84.287497,74.283613 87.595543,67.346569 89.740868,62.847776 92,61.1585 92,64.053117 92,67.107601 86.259759,76.406908 81.333333,81.333333 74.20274,88.463927 62.666667,94.305469 62.666667,90.785608 Z M 4.7288443,30.333333 C 7.7309352,20.420477 24.694916,4 31.933787,4 34.854035,4 33.159088,6.6242384 28.948263,8.6224064 21.575177,12.121164 14.705256,18.638687 10.458266,26.16394 6.3528473,33.438343 3.0635852,35.831992 4.7288443,30.333333 Z M 87.88488,29 C 85.363429,22.833836 74.274843,11.496227 67.996697,8.6651772 61.910604,5.9207319 60.799043,3.242168 66.321412,4.6281945 75.194885,6.8552948 92,24.044964 92,30.894392 92,34.744571 89.824385,33.743029 87.88488,29 Z"
       id="path16"
       inkscape:connector-curvature="0" />
    <path
       style="fill:#333333;fill-opacity:1;stroke-width:1.33333337"
       d="M 40.990281,83.220953 C 34.822644,70.741961 35.209775,70.949987 24.124651,74.158187 20.652275,75.163144 20.686612,75.824972 23.563019,63.333333 24.074003,61.114236 22.260036,59.717213 12.755198,55.009719 6.4731725,51.898397 1.3333333,48.744024 1.3333333,48 c 0,-0.744024 5.1429283,-3.898397 11.4287297,-7.009719 11.204197,-5.54581 11.410985,-5.735533 10.525513,-9.656948 -2.542141,-11.258164 -2.611007,-10.490246 0.850851,-9.487917 11.068101,3.204605 10.685217,3.410599 16.851854,-9.06637 C 44.101603,6.4839041 47.255976,1.3333333 48,1.3333333 c 0.744024,0 3.898397,5.1429283 7.009719,11.4287297 5.54581,11.204197 5.735533,11.410985 9.656948,10.525513 11.258164,-2.542141 10.490246,-2.611007 9.487917,0.850851 -3.204605,11.068101 -3.410599,10.685217 9.066369,16.851854 6.295143,3.111322 11.445714,6.265695 11.445714,7.009719 0,0.744024 -5.150571,3.898397 -11.445714,7.009719 -12.478992,6.167637 -12.270966,5.780506 -9.062766,16.86563 1.004957,3.472376 1.666785,3.438039 -10.824854,0.561632 -2.219097,-0.510984 -3.61612,1.302983 -8.323614,10.80782 C 51.898397,89.526828 48.744024,94.666667 48,94.666667 c -0.744024,0 -3.898397,-5.150571 -7.009719,-11.445714 z m 5.676386,-9.88762 c 0,-6.222222 0.555556,-10.666666 1.333333,-10.666666 0.777777,0 1.333333,4.444444 1.333333,10.666666 C 49.333333,79.2 49.801763,84 50.374287,84 c 0.572524,0 3.30222,-4.569941 6.06599,-10.155425 4.77695,-9.654044 4.912472,-10.279812 2.745,-12.674842 -2.967641,-3.279206 -1.29475,-4.952097 1.984456,-1.984456 2.39503,2.167472 3.020798,2.03195 12.674842,-2.745 C 79.430059,53.676507 84,50.946811 84,50.374287 84,49.801763 79.2,49.333333 73.333333,49.333333 67.111111,49.333333 62.666667,48.777777 62.666667,48 c 0,-0.777777 4.444444,-1.333333 10.666666,-1.333333 C 79.2,46.666667 84,46.198237 84,45.625713 c 0,-0.572524 -4.569941,-3.30222 -10.155425,-6.06599 -9.654044,-4.77695 -10.279812,-4.912472 -12.674842,-2.745 -3.279206,2.967641 -4.952097,1.29475 -1.984456,-1.984456 2.167472,-2.39503 2.03195,-3.020798 -2.745,-12.674842 C 53.676507,16.569941 50.946811,12 50.374287,12 c -0.572524,0 -1.040954,4.8 -1.040954,10.666667 0,6.222222 -0.555556,10.666666 -1.333333,10.666666 -0.777777,0 -1.333333,-4.444444 -1.333333,-10.666666 C 46.666667,16.8 46.198237,12 45.625713,12 c -0.572524,0 -3.30222,4.569941 -6.06599,10.155425 -4.77695,9.654044 -4.912472,10.279812 -2.745,12.674842 2.967641,3.279206 1.29475,4.952097 -1.984456,1.984456 -2.39503,-2.167472 -3.020798,-2.03195 -12.674842,2.745 C 16.569941,42.323493 12,45.053189 12,45.625713 c 0,0.572524 4.8,1.040954 10.666667,1.040954 6.222222,0 10.666666,0.555556 10.666666,1.333333 0,0.777777 -4.444444,1.333333 -10.666666,1.333333 C 16.8,49.333333 12,49.801763 12,50.374287 c 0,0.572524 4.569941,3.30222 10.155425,6.06599 9.654044,4.77695 10.279812,4.912472 12.674842,2.745 3.279206,-2.967641 4.952097,-1.29475 1.984456,1.984456 -2.167472,2.39503 -2.03195,3.020798 2.745,12.674842 C 42.323493,79.430059 45.053189,84 45.625713,84 c 0.572524,0 1.040954,-4.8 1.040954,-10.666667 z m -4.789276,-22 c -2.023223,-3.087828 -2.023223,-3.578838 0,-6.666666 1.461793,-2.230979 3.408556,-3.333334 5.88668,-3.333334 4.631412,0 6.902596,2.193555 6.902596,6.666667 0,4.473112 -2.271184,6.666667 -6.902596,6.666667 -2.478124,0 -4.424887,-1.102355 -5.88668,-3.333334 z M 51.333333,48 c 0,-2.443637 -0.802317,-3.447263 -3.005961,-3.760183 -1.803039,-0.256033 -3.327448,0.410932 -3.809319,1.666667 -1.327557,3.459561 0.533178,6.318913 3.809319,5.853699 C 50.531016,51.447263 51.333333,50.443637 51.333333,48 Z M 31.226357,68.909768 c 2.251468,-1.646313 2.261514,-1.898088 0.159602,-4 -2.340151,-2.340151 -4.706222,-2.960999 -4.737499,-1.243101 -0.01,0.55 -0.379992,2.35 -0.822175,4 -0.929918,3.46998 1.568186,4.045045 5.400072,1.243101 z M 69.939991,67.666667 C 68.549921,63.065701 67.232033,62.291776 64.847619,64.676191 62.04146,67.482349 62.086648,68.986228 65,69.747565 c 5.071575,1.325342 5.867773,0.989955 4.939991,-2.080898 z M 32.538108,29.854224 c 0.479676,-1.250016 -0.497485,-2.411715 -2.748493,-3.267545 -4.413579,-1.67804 -5.287152,-0.804128 -3.380096,3.381404 1.586917,3.482904 4.771082,3.423748 6.128589,-0.113854 z m 36.865531,-0.03915 c 1.64522,-4.327256 1.191564,-4.849264 -3.246307,-3.735429 -4.017137,1.008237 -4.342579,2.211289 -1.395427,5.158441 2.779824,2.779826 3.078648,2.688216 4.641734,-1.423012 z M 24.562885,88.09162 C 16.941284,83.720063 10.635796,77.113469 6.6748525,69.349379 3.6324544,63.385787 3.4851789,62.666667 5.3062348,62.666667 c 0.7184292,0 2.4897504,2.319881 3.9362692,5.155293 4.087512,8.012185 9.205232,13.365019 16.964941,17.744327 3.919239,2.211881 7.125888,4.564328 7.125888,5.227657 0,1.916468 -1.550954,1.438593 -8.770448,-2.702324 z m 38.103782,2.821996 c 0,-0.597511 2.131266,-2.102713 4.736149,-3.344895 6.848392,-3.26577 17.129187,-13.356478 19.925091,-19.556686 1.325733,-2.939952 2.9193,-5.345368 3.541258,-5.345368 3.840604,0 -2.505694,11.38126 -10.533348,18.89019 -8.50602,7.956386 -17.66915,12.808752 -17.66915,9.356759 z M 4,32.613549 C 4,30.460076 10.075564,20.519455 14.144219,16.015941 18.700724,10.972434 29.006164,4 31.904093,4 34.798285,4 33.206463,6.2332673 28.821989,8.3240773 21.798912,11.673149 14.778641,18.508656 10.407466,26.253953 7.0154951,32.264195 4,35.257161 4,32.613549 Z M 87.292997,27.910551 C 84.209868,21.073391 76.356363,12.916216 69.478817,9.407554 64.049225,6.6375827 61.364411,4 63.974428,4 67.099404,4 76.352477,9.6858108 81.333333,14.666667 86.259759,19.593092 92,28.892399 92,31.946883 c 0,3.119502 -2.413397,1.049974 -4.707003,-4.036332 z"
       id="path14"
       inkscape:connector-curvature="0" />
  </g>
</svg>
