<?xml version="1.0" encoding="utf-8"?><!-- Uploaded to: SVG Repo, www.svgrepo.com, Generator: SVG Repo Mixer Tools -->
<svg width="800px" height="800px" viewBox="0 0 24 24" fill="none" xmlns="http://www.w3.org/2000/svg"><path fill-rule="evenodd" clip-rule="evenodd" d="M11 2a1 1 0 0 1 2 0v2.062A8.004 8.004 0 0 1 19.938 11H22a1 1 0 0 1 0 2h-2.062A8.004 8.004 0 0 1 13 19.938V22a1 1 0 0 1-2 0v-2.062A8.004 8.004 0 0 1 4.062 13H2a1 1 0 0 1 0-2h2.062A8.004 8.004 0 0 1 11 4.062V2zm7 10a6 6 0 1 0-12 0 6 6 0 0 0 12 0zm-3 0a3 3 0 1 1-6 0 3 3 0 0 1 6 0z" fill="#000000"/></svg>