<svg xmlns="http://www.w3.org/2000/svg" xmlns:xlink="http://www.w3.org/1999/xlink" width="72" zoomAndPan="magnify" viewBox="0 0 54 54" height="72" preserveAspectRatio="xMidYMid meet" version="1.0"><defs><clipPath id="6dbb1f1bf9"><path d="M 1.78125 1.289062 L 52.589844 1.289062 L 52.589844 52 L 1.78125 52 Z M 1.78125 1.289062 " clip-rule="nonzero"/></clipPath></defs><g clip-path="url(#6dbb1f1bf9)"><path fill="#ffffff" d="M 26.992188 1.285156 C 40.917969 1.285156 52.207031 12.574219 52.207031 26.5 C 52.207031 40.425781 40.917969 51.714844 26.992188 51.714844 C 13.066406 51.714844 1.777344 40.425781 1.777344 26.5 C 1.777344 12.574219 13.066406 1.285156 26.992188 1.285156 Z M 20.359375 22.980469 C 20.320312 20.457031 26.097656 19.070312 28.71875 19.761719 C 35.359375 21.519531 25.746094 36.972656 27.410156 39.257812 C 28.335938 40.527344 32.53125 39.523438 32.53125 40.679688 C 32.53125 41.835938 29.683594 44.839844 24.828125 43.839844 C 19.972656 42.835938 21.285156 39.449219 21.9375 36.710938 C 22.59375 33.976562 25.40625 26.425781 25.40625 25.117188 C 25.40625 21.007812 20.292969 24.0625 20.355469 22.976562 Z M 29.828125 8.957031 C 31.925781 8.957031 33.625 10.65625 33.625 12.75 C 33.625 14.847656 31.925781 16.546875 29.828125 16.546875 C 27.734375 16.546875 26.035156 14.847656 26.035156 12.75 C 26.035156 10.65625 27.734375 8.957031 29.828125 8.957031 Z M 29.828125 8.957031 " fill-opacity="1" fill-rule="evenodd"/></g></svg>