<svg xmlns="http://www.w3.org/2000/svg" xmlns:xlink="http://www.w3.org/1999/xlink" width="72" zoomAndPan="magnify" viewBox="0 0 54 54" height="72" preserveAspectRatio="xMidYMid meet" version="1.0"><defs><clipPath id="d7444e9e13"><path d="M 1.851562 1.363281 L 25 1.363281 L 25 24 L 1.851562 24 Z M 1.851562 1.363281 " clip-rule="nonzero"/></clipPath><clipPath id="015d686ec2"><path d="M 29 29 L 51.925781 29 L 51.925781 51.433594 L 29 51.433594 Z M 29 29 " clip-rule="nonzero"/></clipPath></defs><path fill="#ffffff" d="M 39.46875 5.859375 L 35.136719 10.191406 L 43.308594 18.363281 L 47.640625 14.03125 C 49.898438 11.773438 49.898438 8.101562 47.640625 5.859375 C 45.398438 3.613281 41.726562 3.613281 39.46875 5.859375 Z M 39.46875 5.859375 " fill-opacity="1" fill-rule="nonzero"/><path fill="#ffffff" d="M 4.746094 47.328125 C 4.578125 47.75 4.675781 48.203125 4.988281 48.511719 C 5.199219 48.726562 5.480469 48.835938 5.761719 48.835938 C 5.902344 48.835938 6.046875 48.808594 6.171875 48.753906 L 17.308594 44.320312 L 40.980469 20.722656 L 32.792969 12.546875 L 9.25 36.09375 Z M 13.300781 39.988281 C 13.371094 40 13.414062 40.042969 13.441406 40.074219 C 13.496094 40.128906 13.511719 40.171875 13.527344 40.226562 L 13.539062 40.328125 C 13.570312 40.480469 13.640625 40.835938 13.640625 40.835938 C 13.710938 41.160156 13.863281 41.457031 14.105469 41.695312 C 14.289062 41.878906 14.515625 42.019531 14.769531 42.089844 L 9.363281 44.125 L 11.394531 38.730469 C 11.480469 38.984375 11.621094 39.210938 11.804688 39.394531 C 12.03125 39.621094 12.339844 39.789062 12.664062 39.859375 C 12.664062 39.859375 13.019531 39.929688 13.171875 39.960938 Z M 13.300781 39.988281 " fill-opacity="1" fill-rule="nonzero"/><g clip-path="url(#d7444e9e13)"><path fill="#ffffff" d="M 5.578125 19.734375 C 8.457031 22.613281 11.746094 22.570312 15.359375 21.355469 L 17.957031 23.953125 L 24.449219 17.460938 L 21.855469 14.863281 C 23.066406 11.25 23.109375 7.960938 20.230469 5.082031 L 18.453125 3.304688 C 16.53125 1.382812 12.539062 0.523438 10.617188 2.441406 L 9.871094 3.191406 L 14.105469 7.425781 C 15.8125 9.132812 15.8125 11.898438 14.105469 13.605469 C 12.398438 15.316406 9.628906 15.316406 7.921875 13.605469 L 3.6875 9.371094 L 2.941406 10.121094 C 1.019531 12.039062 1.867188 16.035156 3.800781 17.953125 Z M 5.578125 19.734375 " fill-opacity="1" fill-rule="nonzero"/></g><g clip-path="url(#015d686ec2)"><path fill="#ffffff" d="M 50.195312 35.0625 L 48.433594 33.28125 C 45.554688 30.402344 42.265625 30.445312 38.652344 31.660156 L 36.054688 29.0625 L 29.5625 35.542969 L 32.15625 38.136719 C 30.945312 41.753906 30.902344 45.039062 33.78125 47.921875 L 35.558594 49.699219 C 37.480469 51.617188 41.472656 52.480469 43.394531 50.558594 L 44.140625 49.8125 L 39.90625 45.578125 C 38.199219 43.871094 38.199219 41.101562 39.90625 39.394531 C 41.613281 37.6875 44.382812 37.6875 46.089844 39.394531 L 50.324219 43.628906 L 51.070312 42.882812 C 52.992188 40.960938 52.128906 36.980469 50.195312 35.0625 Z M 50.195312 35.0625 " fill-opacity="1" fill-rule="nonzero"/></g></svg>