<svg xmlns="http://www.w3.org/2000/svg" xmlns:xlink="http://www.w3.org/1999/xlink" width="72" zoomAndPan="magnify" viewBox="0 0 54 54" height="72" preserveAspectRatio="xMidYMid meet" version="1.0"><defs><clipPath id="d28978ddb7"><path d="M 1.558594 1.066406 L 52.367188 1.066406 L 52.367188 51.875 L 1.558594 51.875 Z M 1.558594 1.066406 " clip-rule="nonzero"/></clipPath></defs><g clip-path="url(#d28978ddb7)"><path fill="#ffffff" d="M 46.433594 16.839844 L 48.925781 12.449219 L 41.058594 4.578125 L 36.664062 7.070312 C 35.78125 6.613281 34.851562 6.242188 33.898438 5.917969 L 32.558594 1.066406 L 21.433594 1.066406 L 20.09375 5.917969 C 19.144531 6.242188 18.210938 6.613281 17.332031 7.070312 L 12.9375 4.578125 L 5.070312 12.449219 L 7.5625 16.839844 C 7.105469 17.722656 6.730469 18.65625 6.410156 19.605469 L 1.558594 20.945312 L 1.558594 32.070312 L 6.410156 33.410156 C 6.730469 34.359375 7.105469 35.292969 7.5625 36.171875 L 5.070312 40.566406 L 12.9375 48.433594 L 17.332031 45.941406 C 18.210938 46.398438 19.144531 46.773438 20.09375 47.09375 L 21.433594 51.945312 L 32.558594 51.945312 L 33.898438 47.09375 C 34.851562 46.773438 35.78125 46.398438 36.664062 45.941406 L 41.058594 48.433594 L 48.925781 40.566406 L 46.433594 36.171875 C 46.890625 35.292969 47.265625 34.359375 47.585938 33.410156 L 52.4375 32.070312 L 52.4375 20.945312 L 47.585938 19.605469 C 47.265625 18.65625 46.890625 17.722656 46.433594 16.839844 Z M 26.996094 36.988281 C 21.214844 36.988281 16.515625 32.289062 16.515625 26.507812 C 16.515625 20.722656 21.214844 16.027344 26.996094 16.027344 C 32.78125 16.027344 37.480469 20.722656 37.480469 26.507812 C 37.480469 32.289062 32.78125 36.988281 26.996094 36.988281 Z M 26.996094 36.988281 " fill-opacity="1" fill-rule="nonzero"/></g></svg>