<svg xmlns="http://www.w3.org/2000/svg" xmlns:xlink="http://www.w3.org/1999/xlink" width="72" zoomAndPan="magnify" viewBox="0 0 54 54" height="72" preserveAspectRatio="xMidYMid meet" version="1.0"><defs><clipPath id="82f71b6ea5"><path d="M 2 30 L 19 30 L 19 51.507812 L 2 51.507812 Z M 2 30 " clip-rule="nonzero"/></clipPath><clipPath id="41744bf9c3"><path d="M 17 32 L 34 32 L 34 51.507812 L 17 51.507812 Z M 17 32 " clip-rule="nonzero"/></clipPath><clipPath id="c06d0807c0"><path d="M 13 1.4375 L 41 1.4375 L 41 37 L 13 37 Z M 13 1.4375 " clip-rule="nonzero"/></clipPath></defs><g clip-path="url(#82f71b6ea5)"><path fill="#ffffff" d="M 9.519531 30.304688 C 8.898438 30.199219 8.273438 30.511719 7.960938 31.136719 L 2.136719 45.074219 C 1.925781 45.699219 2.238281 46.324219 2.757812 46.53125 L 16.386719 51.003906 L 18.988281 32.382812 Z M 9.519531 30.304688 " fill-opacity="1" fill-rule="nonzero"/></g><path fill="#ffffff" d="M 51.652344 47.78125 L 45.308594 32.488281 C 45.097656 32.074219 44.785156 31.761719 44.371094 31.65625 L 34.800781 29.785156 C 34.070312 30.824219 33.34375 31.761719 32.617188 32.59375 L 34.28125 44.765625 L 50.300781 49.132812 C 51.238281 49.550781 52.070312 48.71875 51.652344 47.78125 Z M 51.652344 47.78125 " fill-opacity="1" fill-rule="nonzero"/><g clip-path="url(#41744bf9c3)"><path fill="#ffffff" d="M 29.183594 37.066406 C 28.765625 37.585938 28.039062 37.898438 27.308594 37.898438 C 26.582031 37.898438 25.851562 37.585938 25.4375 37.066406 C 24.398438 35.921875 23.042969 34.257812 21.589844 32.382812 L 19.921875 32.800781 L 17.324219 51.527344 L 33.34375 45.285156 L 31.78125 33.839844 C 30.847656 35.089844 29.910156 36.128906 29.183594 37.066406 Z M 29.183594 37.066406 " fill-opacity="1" fill-rule="nonzero"/></g><g clip-path="url(#c06d0807c0)"><path fill="#ffffff" d="M 28.351562 36.335938 C 31.574219 32.59375 40.730469 21.253906 40.730469 15.011719 C 40.730469 7.625 34.695312 1.488281 27.207031 1.488281 C 19.820312 1.488281 13.683594 7.523438 13.683594 15.011719 C 13.683594 21.148438 22.835938 32.488281 26.0625 36.335938 C 26.789062 36.960938 27.828125 36.960938 28.351562 36.335938 Z M 19.921875 14.59375 C 19.921875 10.539062 23.253906 7.210938 27.308594 7.210938 C 31.367188 7.210938 34.695312 10.539062 34.695312 14.59375 C 34.695312 18.652344 31.367188 21.980469 27.308594 21.980469 C 23.253906 21.980469 19.921875 18.757812 19.921875 14.59375 Z M 19.921875 14.59375 " fill-opacity="1" fill-rule="nonzero"/></g></svg>