<svg xmlns="http://www.w3.org/2000/svg" xmlns:xlink="http://www.w3.org/1999/xlink" width="72" zoomAndPan="magnify" viewBox="0 0 54 54" height="72" preserveAspectRatio="xMidYMid meet" version="1.0"><defs><clipPath id="2362a510aa"><path d="M 4.085938 30 L 49.738281 30 L 49.738281 52.414062 L 4.085938 52.414062 Z M 4.085938 30 " clip-rule="nonzero"/></clipPath><clipPath id="2784cec6cf"><path d="M 14 0.871094 L 40 0.871094 L 40 26 L 14 26 Z M 14 0.871094 " clip-rule="nonzero"/></clipPath></defs><g clip-path="url(#2362a510aa)"><path fill="#ffffff" d="M 34.195312 30.25 L 19.800781 30.25 C 19.285156 30.25 18.773438 30.277344 18.261719 30.328125 C 17.75 30.378906 17.242188 30.453125 16.738281 30.554688 C 16.230469 30.65625 15.734375 30.78125 15.242188 30.929688 C 14.75 31.078125 14.265625 31.253906 13.789062 31.449219 C 13.3125 31.648438 12.851562 31.867188 12.394531 32.109375 C 11.941406 32.351562 11.5 32.617188 11.074219 32.902344 C 10.644531 33.1875 10.234375 33.496094 9.835938 33.820312 C 9.4375 34.148438 9.058594 34.492188 8.691406 34.855469 C 8.328125 35.222656 7.984375 35.601562 7.65625 36 C 7.332031 36.398438 7.023438 36.808594 6.738281 37.238281 C 6.453125 37.664062 6.1875 38.105469 5.945312 38.558594 C 5.703125 39.015625 5.484375 39.476562 5.285156 39.953125 C 5.089844 40.429688 4.914062 40.914062 4.765625 41.40625 C 4.617188 41.898438 4.492188 42.394531 4.390625 42.902344 C 4.289062 43.40625 4.214844 43.914062 4.164062 44.425781 C 4.113281 44.9375 4.085938 45.449219 4.085938 45.964844 L 4.085938 50.765625 C 4.085938 50.945312 4.121094 51.117188 4.1875 51.28125 C 4.257812 51.449219 4.355469 51.59375 4.480469 51.71875 C 4.605469 51.847656 4.753906 51.945312 4.917969 52.011719 C 5.082031 52.082031 5.253906 52.113281 5.433594 52.113281 L 48.566406 52.113281 C 48.742188 52.113281 48.914062 52.082031 49.082031 52.011719 C 49.246094 51.945312 49.390625 51.847656 49.519531 51.71875 C 49.644531 51.59375 49.742188 51.449219 49.808594 51.28125 C 49.878906 51.117188 49.914062 50.945312 49.914062 50.765625 L 49.914062 45.964844 C 49.910156 45.449219 49.886719 44.9375 49.835938 44.425781 C 49.785156 43.914062 49.707031 43.40625 49.609375 42.902344 C 49.507812 42.394531 49.382812 41.898438 49.230469 41.40625 C 49.082031 40.914062 48.910156 40.429688 48.710938 39.953125 C 48.515625 39.476562 48.292969 39.015625 48.050781 38.558594 C 47.808594 38.105469 47.546875 37.664062 47.257812 37.238281 C 46.972656 36.808594 46.667969 36.398438 46.339844 36 C 46.015625 35.601562 45.667969 35.222656 45.304688 34.855469 C 44.941406 34.492188 44.558594 34.148438 44.164062 33.820312 C 43.765625 33.496094 43.351562 33.1875 42.925781 32.902344 C 42.496094 32.617188 42.054688 32.351562 41.601562 32.109375 C 41.148438 31.867188 40.683594 31.648438 40.207031 31.449219 C 39.734375 31.253906 39.25 31.078125 38.757812 30.929688 C 38.265625 30.78125 37.765625 30.65625 37.261719 30.554688 C 36.757812 30.453125 36.25 30.378906 35.738281 30.328125 C 35.222656 30.277344 34.710938 30.25 34.195312 30.25 Z M 34.195312 30.25 " fill-opacity="1" fill-rule="nonzero"/></g><g clip-path="url(#2784cec6cf)"><path fill="#ffffff" d="M 39.128906 13.027344 C 39.128906 13.824219 39.050781 14.613281 38.898438 15.394531 C 38.742188 16.175781 38.511719 16.933594 38.207031 17.667969 C 37.902344 18.40625 37.527344 19.105469 37.085938 19.765625 C 36.644531 20.429688 36.140625 21.039062 35.578125 21.605469 C 35.011719 22.167969 34.402344 22.671875 33.738281 23.113281 C 33.078125 23.554688 32.378906 23.929688 31.640625 24.234375 C 30.90625 24.539062 30.148438 24.769531 29.367188 24.925781 C 28.585938 25.078125 27.796875 25.15625 27 25.15625 C 26.203125 25.15625 25.414062 25.078125 24.632812 24.925781 C 23.851562 24.769531 23.09375 24.539062 22.355469 24.234375 C 21.621094 23.929688 20.921875 23.554688 20.257812 23.113281 C 19.597656 22.671875 18.984375 22.167969 18.421875 21.605469 C 17.859375 21.039062 17.355469 20.429688 16.914062 19.765625 C 16.46875 19.105469 16.097656 18.40625 15.792969 17.667969 C 15.488281 16.933594 15.257812 16.175781 15.101562 15.394531 C 14.945312 14.613281 14.867188 13.824219 14.867188 13.027344 C 14.867188 12.230469 14.945312 11.441406 15.101562 10.660156 C 15.257812 9.878906 15.488281 9.121094 15.792969 8.382812 C 16.097656 7.648438 16.46875 6.949219 16.914062 6.285156 C 17.355469 5.625 17.859375 5.011719 18.421875 4.449219 C 18.984375 3.886719 19.597656 3.382812 20.257812 2.941406 C 20.921875 2.496094 21.621094 2.125 22.355469 1.820312 C 23.09375 1.515625 23.851562 1.285156 24.632812 1.128906 C 25.414062 0.972656 26.203125 0.894531 27 0.894531 C 27.796875 0.894531 28.585938 0.972656 29.367188 1.128906 C 30.148438 1.285156 30.90625 1.515625 31.640625 1.820312 C 32.378906 2.125 33.078125 2.496094 33.738281 2.941406 C 34.402344 3.382812 35.011719 3.886719 35.578125 4.449219 C 36.140625 5.011719 36.644531 5.625 37.085938 6.285156 C 37.527344 6.949219 37.902344 7.648438 38.207031 8.382812 C 38.511719 9.121094 38.742188 9.878906 38.898438 10.660156 C 39.050781 11.441406 39.128906 12.230469 39.128906 13.027344 Z M 39.128906 13.027344 " fill-opacity="1" fill-rule="nonzero"/></g></svg>