<svg xmlns="http://www.w3.org/2000/svg" xmlns:xlink="http://www.w3.org/1999/xlink" width="72" zoomAndPan="magnify" viewBox="0 0 54 54" height="72" preserveAspectRatio="xMidYMid meet" version="1.0"><defs><clipPath id="de641725ab"><path d="M 1.960938 8 L 52.035156 8 L 52.035156 52 L 1.960938 52 Z M 1.960938 8 " clip-rule="nonzero"/></clipPath><clipPath id="d3e21956ac"><path d="M 9 1.375 L 46 1.375 L 46 38 L 9 38 Z M 9 1.375 " clip-rule="nonzero"/></clipPath></defs><g clip-path="url(#de641725ab)"><path fill="#ffffff" d="M 49.625 8.878906 C 51.070312 8.878906 52.25 10.0625 52.25 11.503906 L 52.25 39.710938 L 1.960938 39.710938 L 1.960938 11.503906 C 1.960938 10.0625 3.144531 8.878906 4.585938 8.878906 L 10.121094 8.878906 L 12.363281 11.125 C 11.734375 12.25 11.238281 13.449219 10.882812 14.691406 L 7.53125 14.691406 L 7.53125 23.949219 L 10.882812 23.949219 C 11.238281 25.191406 11.734375 26.386719 12.363281 27.515625 L 9.992188 29.890625 L 16.539062 36.4375 L 18.910156 34.0625 C 20.039062 34.691406 21.234375 35.1875 22.476562 35.542969 L 22.476562 38.894531 L 31.734375 38.894531 L 31.734375 35.542969 C 32.976562 35.1875 34.175781 34.691406 35.304688 34.0625 L 37.675781 36.433594 L 44.222656 29.890625 L 41.851562 27.515625 C 42.476562 26.386719 42.972656 25.191406 43.328125 23.949219 L 46.683594 23.949219 L 46.683594 14.691406 L 43.328125 14.691406 C 42.972656 13.449219 42.476562 12.25 41.851562 11.125 L 44.09375 8.878906 Z M 52.25 41.335938 L 1.960938 41.335938 L 1.960938 43.109375 C 1.960938 44.550781 3.144531 45.734375 4.585938 45.734375 L 49.625 45.734375 C 51.070312 45.734375 52.25 44.550781 52.25 43.109375 Z M 37.53125 47.363281 L 39.789062 51.234375 C 39.957031 51.527344 39.726562 51.847656 39.433594 51.847656 L 14.777344 51.847656 C 14.484375 51.847656 14.253906 51.527344 14.425781 51.234375 L 16.679688 47.363281 Z M 37.53125 47.363281 " fill-opacity="1" fill-rule="evenodd"/></g><g clip-path="url(#d3e21956ac)"><path fill="#ffffff" d="M 24.113281 1.378906 L 30.101562 1.378906 L 30.101562 4.382812 C 32.082031 4.777344 33.925781 5.558594 35.550781 6.640625 L 37.675781 4.515625 L 41.910156 8.75 L 39.785156 10.875 C 40.867188 12.5 41.648438 14.34375 42.042969 16.324219 L 45.046875 16.324219 L 45.046875 22.3125 L 42.042969 22.3125 C 41.648438 24.296875 40.867188 26.140625 39.785156 27.761719 L 41.910156 29.890625 L 37.675781 34.121094 L 35.550781 31.996094 C 33.925781 33.082031 32.082031 33.859375 30.101562 34.257812 L 30.101562 37.261719 L 24.113281 37.261719 L 24.113281 34.257812 C 22.128906 33.859375 20.285156 33.082031 18.664062 31.996094 L 16.539062 34.121094 L 12.304688 29.890625 L 14.429688 27.765625 C 13.34375 26.140625 12.566406 24.296875 12.167969 22.3125 L 9.164062 22.3125 L 9.164062 16.324219 L 12.167969 16.324219 C 12.566406 14.34375 13.34375 12.5 14.429688 10.875 L 12.304688 8.75 L 16.539062 4.515625 L 18.664062 6.640625 C 20.285156 5.558594 22.128906 4.777344 24.113281 4.382812 Z M 22.355469 25.363281 L 31.859375 25.363281 C 32.308594 25.363281 32.675781 25 32.675781 24.546875 C 32.675781 24.097656 32.308594 23.730469 31.859375 23.730469 L 22.355469 23.730469 C 21.902344 23.730469 21.535156 24.097656 21.535156 24.546875 C 21.535156 25 21.902344 25.363281 22.355469 25.363281 Z M 28.777344 18.605469 L 28.734375 10.777344 C 28.734375 10.53125 28.480469 10.328125 28.167969 10.328125 L 26.046875 10.332031 C 25.738281 10.332031 25.484375 10.535156 25.484375 10.78125 L 25.527344 18.613281 L 23.9375 18.613281 C 23.585938 18.613281 23.371094 18.9375 23.597656 19.167969 L 26.820312 22.480469 C 26.992188 22.65625 27.328125 22.65625 27.5 22.476562 L 30.707031 19.15625 C 30.929688 18.925781 30.714844 18.601562 30.363281 18.605469 Z M 27.105469 8.101562 C 20.910156 8.101562 15.886719 13.125 15.886719 19.320312 C 15.886719 25.515625 20.910156 30.539062 27.105469 30.539062 C 33.300781 30.539062 38.324219 25.515625 38.324219 19.320312 C 38.324219 13.125 33.300781 8.101562 27.105469 8.101562 Z M 27.105469 8.101562 " fill-opacity="1" fill-rule="evenodd"/></g></svg>