<svg xmlns="http://www.w3.org/2000/svg" xmlns:xlink="http://www.w3.org/1999/xlink" width="72" zoomAndPan="magnify" viewBox="0 0 54 54" height="72" preserveAspectRatio="xMidYMid meet" version="1.0"><defs><clipPath id="6475e5fa11"><path d="M 1.582031 8 L 52.390625 8 L 52.390625 44.773438 L 1.582031 44.773438 Z M 1.582031 8 " clip-rule="nonzero"/></clipPath></defs><g clip-path="url(#6475e5fa11)"><path fill="#ffffff" d="M 47.839844 15.964844 L 38.898438 15.964844 L 35.773438 10.183594 C 35.417969 9.53125 34.921875 9.011719 34.285156 8.632812 C 33.648438 8.25 32.957031 8.058594 32.214844 8.054688 L 21.832031 8.054688 C 21.078125 8.054688 20.375 8.253906 19.730469 8.644531 C 19.082031 9.039062 18.585938 9.570312 18.234375 10.242188 L 15.253906 15.964844 L 13.273438 15.964844 C 13.265625 15.800781 13.230469 15.640625 13.160156 15.492188 C 13.09375 15.339844 13 15.207031 12.882812 15.09375 C 12.761719 14.980469 12.628906 14.894531 12.472656 14.832031 C 12.320312 14.769531 12.164062 14.738281 11.996094 14.738281 L 11.3125 14.738281 C 11.183594 14.421875 10.949219 14.265625 10.609375 14.265625 L 8.742188 14.265625 C 8.402344 14.265625 8.171875 14.425781 8.042969 14.738281 L 7.375 14.738281 C 7.210938 14.738281 7.054688 14.769531 6.902344 14.832031 C 6.746094 14.894531 6.613281 14.980469 6.492188 15.09375 C 6.375 15.210938 6.28125 15.339844 6.214844 15.492188 C 6.148438 15.640625 6.113281 15.800781 6.105469 15.964844 C 5.808594 15.96875 5.511719 16 5.21875 16.0625 C 4.929688 16.121094 4.644531 16.210938 4.371094 16.328125 C 4.097656 16.441406 3.835938 16.585938 3.589844 16.753906 C 3.339844 16.921875 3.113281 17.109375 2.902344 17.320312 C 2.695312 17.535156 2.507812 17.765625 2.34375 18.011719 C 2.175781 18.261719 2.039062 18.523438 1.925781 18.800781 C 1.8125 19.074219 1.726562 19.359375 1.667969 19.652344 C 1.609375 19.945312 1.582031 20.242188 1.582031 20.539062 L 1.582031 40.402344 C 1.582031 40.703125 1.609375 41.003906 1.667969 41.296875 C 1.726562 41.589844 1.816406 41.878906 1.929688 42.15625 C 2.046875 42.433594 2.1875 42.695312 2.351562 42.945312 C 2.519531 43.195312 2.710938 43.425781 2.921875 43.640625 C 3.132812 43.851562 3.367188 44.042969 3.613281 44.207031 C 3.863281 44.375 4.128906 44.515625 4.40625 44.632812 C 4.683594 44.746094 4.96875 44.832031 5.265625 44.890625 C 5.558594 44.949219 5.855469 44.980469 6.15625 44.980469 L 47.839844 44.980469 C 48.140625 44.980469 48.4375 44.949219 48.730469 44.890625 C 49.027344 44.832031 49.3125 44.746094 49.589844 44.632812 C 49.867188 44.515625 50.132812 44.375 50.378906 44.207031 C 50.628906 44.042969 50.863281 43.851562 51.074219 43.640625 C 51.285156 43.425781 51.476562 43.195312 51.644531 42.945312 C 51.808594 42.695312 51.949219 42.433594 52.066406 42.15625 C 52.179688 41.878906 52.265625 41.589844 52.324219 41.296875 C 52.382812 41.003906 52.414062 40.703125 52.414062 40.402344 L 52.414062 20.511719 C 52.414062 20.214844 52.382812 19.917969 52.320312 19.625 C 52.261719 19.332031 52.175781 19.046875 52.058594 18.769531 C 51.941406 18.496094 51.800781 18.234375 51.632812 17.984375 C 51.46875 17.734375 51.277344 17.507812 51.066406 17.296875 C 50.851562 17.085938 50.621094 16.894531 50.371094 16.730469 C 50.125 16.5625 49.859375 16.425781 49.582031 16.308594 C 49.308594 16.195312 49.023438 16.109375 48.726562 16.050781 C 48.433594 15.992188 48.136719 15.964844 47.839844 15.964844 Z M 26.996094 41.378906 C 26.183594 41.378906 25.375 41.300781 24.574219 41.140625 C 23.773438 40.984375 22.996094 40.746094 22.242188 40.4375 C 21.488281 40.125 20.769531 39.742188 20.089844 39.289062 C 19.414062 38.835938 18.785156 38.320312 18.207031 37.742188 C 17.628906 37.167969 17.113281 36.539062 16.660156 35.859375 C 16.207031 35.179688 15.824219 34.464844 15.511719 33.710938 C 15.199219 32.957031 14.964844 32.179688 14.804688 31.378906 C 14.644531 30.578125 14.566406 29.769531 14.5625 28.957031 C 14.5625 28.140625 14.644531 27.332031 14.800781 26.53125 C 14.960938 25.730469 15.195312 24.953125 15.507812 24.199219 C 15.820312 23.445312 16.203125 22.726562 16.65625 22.050781 C 17.109375 21.371094 17.625 20.742188 18.203125 20.164062 C 18.78125 19.589844 19.40625 19.074219 20.085938 18.621094 C 20.765625 18.164062 21.480469 17.78125 22.234375 17.46875 C 22.988281 17.15625 23.765625 16.921875 24.566406 16.761719 C 25.367188 16.601562 26.175781 16.523438 26.992188 16.523438 C 27.808594 16.523438 28.617188 16.601562 29.414062 16.761719 C 30.214844 16.921875 30.992188 17.15625 31.746094 17.46875 C 32.5 17.78125 33.21875 18.164062 33.898438 18.617188 C 34.574219 19.070312 35.203125 19.585938 35.78125 20.164062 C 36.359375 20.738281 36.871094 21.367188 37.328125 22.046875 C 37.78125 22.726562 38.164062 23.441406 38.476562 24.195312 C 38.789062 24.949219 39.023438 25.726562 39.183594 26.527344 C 39.339844 27.328125 39.421875 28.136719 39.421875 28.953125 C 39.421875 29.769531 39.339844 30.574219 39.183594 31.375 C 39.023438 32.175781 38.789062 32.953125 38.476562 33.707031 C 38.164062 34.460938 37.78125 35.175781 37.328125 35.855469 C 36.875 36.535156 36.359375 37.160156 35.78125 37.738281 C 35.207031 38.316406 34.578125 38.832031 33.898438 39.285156 C 33.222656 39.738281 32.507812 40.121094 31.753906 40.433594 C 31 40.746094 30.222656 40.980469 29.421875 41.140625 C 28.621094 41.300781 27.8125 41.378906 26.996094 41.378906 Z M 47.707031 23.117188 C 47.429688 23.117188 47.167969 23.066406 46.910156 22.960938 C 46.65625 22.855469 46.433594 22.707031 46.238281 22.511719 C 46.042969 22.316406 45.890625 22.09375 45.785156 21.839844 C 45.679688 21.585938 45.628906 21.320312 45.628906 21.042969 C 45.628906 20.769531 45.679688 20.503906 45.785156 20.25 C 45.890625 19.996094 46.039062 19.769531 46.234375 19.574219 C 46.429688 19.382812 46.65625 19.230469 46.910156 19.125 C 47.164062 19.019531 47.429688 18.96875 47.703125 18.96875 C 47.980469 18.96875 48.242188 19.023438 48.496094 19.128906 C 48.753906 19.234375 48.976562 19.382812 49.171875 19.578125 C 49.363281 19.773438 49.515625 19.996094 49.621094 20.253906 C 49.722656 20.507812 49.777344 20.773438 49.777344 21.046875 C 49.777344 21.320312 49.722656 21.585938 49.617188 21.839844 C 49.511719 22.09375 49.363281 22.316406 49.167969 22.511719 C 48.976562 22.703125 48.753906 22.855469 48.5 22.957031 C 48.246094 23.0625 47.980469 23.117188 47.707031 23.117188 Z M 47.707031 23.117188 " fill-opacity="1" fill-rule="nonzero"/></g><path fill="#ffffff" d="M 35.660156 28.953125 C 35.660156 29.519531 35.605469 30.082031 35.492188 30.640625 C 35.382812 31.199219 35.21875 31.742188 35 32.265625 C 34.78125 32.792969 34.515625 33.292969 34.199219 33.765625 C 33.882812 34.238281 33.523438 34.675781 33.121094 35.078125 C 32.71875 35.480469 32.28125 35.835938 31.808594 36.152344 C 31.335938 36.46875 30.839844 36.738281 30.3125 36.953125 C 29.789062 37.171875 29.246094 37.335938 28.6875 37.445312 C 28.128906 37.558594 27.566406 37.613281 26.996094 37.613281 C 26.429688 37.613281 25.867188 37.558594 25.308594 37.445312 C 24.75 37.335938 24.207031 37.171875 23.683594 36.953125 C 23.15625 36.738281 22.660156 36.46875 22.1875 36.152344 C 21.710938 35.835938 21.273438 35.480469 20.875 35.078125 C 20.472656 34.675781 20.113281 34.238281 19.796875 33.765625 C 19.480469 33.292969 19.214844 32.792969 18.996094 32.265625 C 18.777344 31.742188 18.613281 31.199219 18.503906 30.640625 C 18.390625 30.082031 18.335938 29.519531 18.335938 28.953125 C 18.335938 28.382812 18.390625 27.820312 18.503906 27.261719 C 18.613281 26.703125 18.777344 26.164062 18.996094 25.636719 C 19.214844 25.113281 19.480469 24.613281 19.796875 24.140625 C 20.113281 23.667969 20.472656 23.230469 20.875 22.828125 C 21.273438 22.425781 21.710938 22.066406 22.1875 21.75 C 22.660156 21.433594 23.15625 21.167969 23.683594 20.949219 C 24.207031 20.730469 24.75 20.566406 25.308594 20.457031 C 25.867188 20.34375 26.429688 20.289062 26.996094 20.289062 C 27.566406 20.289062 28.128906 20.34375 28.6875 20.457031 C 29.246094 20.566406 29.789062 20.730469 30.3125 20.949219 C 30.839844 21.167969 31.335938 21.433594 31.808594 21.75 C 32.28125 22.066406 32.71875 22.425781 33.121094 22.828125 C 33.523438 23.230469 33.882812 23.667969 34.199219 24.140625 C 34.515625 24.613281 34.78125 25.113281 35 25.636719 C 35.21875 26.164062 35.382812 26.703125 35.492188 27.261719 C 35.605469 27.820312 35.660156 28.382812 35.660156 28.953125 Z M 35.660156 28.953125 " fill-opacity="1" fill-rule="nonzero"/></svg>