<svg xmlns="http://www.w3.org/2000/svg" xmlns:xlink="http://www.w3.org/1999/xlink" width="72" zoomAndPan="magnify" viewBox="0 0 54 54" height="72" preserveAspectRatio="xMidYMid meet" version="1.0"><path fill="#ffffff" d="M 48.183594 5.992188 C 43.066406 0.878906 34.746094 0.878906 29.636719 5.992188 L 23.355469 12.269531 C 22.417969 13.207031 22.417969 14.730469 23.355469 15.667969 C 24.296875 16.605469 25.816406 16.605469 26.753906 15.667969 L 33.035156 9.386719 C 41.039062 1.867188 52.324219 13.144531 44.785156 21.140625 C 44.785156 21.140625 37.445312 28.480469 37.445312 28.480469 C 33.730469 32.296875 27.097656 31.46875 24.4375 26.859375 C 23.761719 25.714844 22.285156 25.34375 21.144531 26.019531 C 18.632812 27.601562 20.773438 30.414062 22.296875 31.875 C 24.851562 34.433594 28.210938 35.710938 31.570312 35.710938 C 34.929688 35.710938 38.285156 34.433594 40.84375 31.875 L 48.183594 24.539062 C 53.273438 19.652344 53.273438 10.875 48.183594 5.992188 Z M 48.183594 5.992188 " fill-opacity="1" fill-rule="nonzero"/><path fill="#ffffff" d="M 27.65625 38.269531 L 21.375 44.550781 C 13.425781 52.09375 2.078125 40.75 9.621094 32.800781 C 9.621094 32.800781 16.960938 25.457031 16.960938 25.457031 C 20.671875 21.648438 27.296875 22.460938 29.957031 27.066406 C 30.632812 28.207031 32.109375 28.585938 33.25 27.90625 C 35.753906 26.332031 33.625 23.511719 32.109375 22.0625 C 26.996094 16.949219 18.679688 16.949219 13.566406 22.0625 C 13.566406 22.0625 6.226562 29.402344 6.226562 29.402344 C -2.035156 37.550781 4.023438 51.914062 15.5 51.78125 C 18.855469 51.78125 22.214844 50.503906 24.769531 47.945312 L 31.050781 41.667969 C 33.242188 39.394531 29.925781 36.078125 27.65625 38.269531 Z M 27.65625 38.269531 " fill-opacity="1" fill-rule="nonzero"/></svg>