<svg xmlns="http://www.w3.org/2000/svg" xmlns:xlink="http://www.w3.org/1999/xlink" width="72" zoomAndPan="magnify" viewBox="0 0 54 54" height="72" preserveAspectRatio="xMidYMid meet" version="1.0"><defs><clipPath id="3019bd0cf9"><path d="M 1.742188 3.398438 L 52.550781 3.398438 L 52.550781 49.789062 L 1.742188 49.789062 Z M 1.742188 3.398438 " clip-rule="nonzero"/></clipPath></defs><g clip-path="url(#3019bd0cf9)"><path fill="#ffffff" d="M 49.964844 33.511719 C 51.230469 33.511719 52.261719 32.484375 52.261719 31.214844 C 52.261719 29.949219 51.230469 28.921875 49.964844 28.921875 L 43.007812 28.921875 C 42.902344 27.191406 42.578125 25.527344 42.023438 23.976562 L 46.398438 21.789062 C 46.84375 21.566406 47.203125 21.207031 47.425781 20.761719 L 49.722656 16.171875 C 50.289062 15.035156 49.828125 13.65625 48.695312 13.089844 C 47.558594 12.523438 46.179688 12.984375 45.613281 14.113281 L 43.660156 18.023438 L 39.917969 19.890625 C 38.859375 18.359375 37.578125 17.011719 36.113281 15.925781 C 35.378906 15.382812 34.460938 15.144531 33.546875 15.144531 L 33.46875 15.144531 C 33.726562 14.421875 33.890625 13.65625 33.890625 12.847656 C 33.890625 11.785156 33.632812 10.792969 33.199219 9.898438 L 35.515625 7.582031 C 36.414062 6.683594 36.414062 5.234375 35.515625 4.335938 C 34.617188 3.4375 33.167969 3.4375 32.269531 4.335938 L 29.953125 6.652344 C 29.054688 6.21875 28.066406 5.960938 27.003906 5.960938 C 25.941406 5.960938 24.949219 6.21875 24.054688 6.652344 L 21.738281 4.335938 C 20.839844 3.4375 19.390625 3.4375 18.492188 4.335938 C 17.59375 5.234375 17.59375 6.683594 18.492188 7.582031 L 20.804688 9.898438 C 20.375 10.792969 20.117188 11.785156 20.117188 12.847656 C 20.117188 13.65625 20.28125 14.421875 20.539062 15.144531 L 20.460938 15.144531 C 19.546875 15.144531 18.628906 15.382812 17.894531 15.929688 C 16.425781 17.015625 15.148438 18.363281 14.085938 19.894531 L 10.347656 18.023438 L 8.394531 14.117188 C 7.824219 12.984375 6.445312 12.523438 5.3125 13.089844 C 4.179688 13.65625 3.71875 15.035156 4.285156 16.171875 L 6.582031 20.761719 C 6.804688 21.207031 7.164062 21.566406 7.605469 21.789062 L 11.980469 23.976562 C 11.433594 25.527344 11.105469 27.191406 10.996094 28.921875 L 4.042969 28.921875 C 2.777344 28.921875 1.746094 29.949219 1.746094 31.214844 C 1.746094 32.484375 2.777344 33.511719 4.042969 33.511719 L 11.253906 33.511719 C 11.542969 35.023438 12.027344 36.457031 12.65625 37.796875 L 7.960938 39.609375 C 7.390625 39.828125 6.933594 40.265625 6.6875 40.824219 L 4.242188 46.359375 C 3.726562 47.519531 4.25 48.878906 5.410156 49.390625 C 5.710938 49.523438 6.027344 49.585938 6.339844 49.585938 C 7.222656 49.585938 8.0625 49.074219 8.441406 48.214844 L 10.503906 43.550781 L 15.207031 41.734375 C 18.144531 45.140625 22.332031 47.289062 27.003906 47.289062 C 31.675781 47.289062 35.863281 45.140625 38.800781 41.734375 L 43.503906 43.550781 L 45.566406 48.214844 C 45.945312 49.074219 46.789062 49.585938 47.667969 49.585938 C 47.976562 49.585938 48.292969 49.519531 48.597656 49.386719 C 49.753906 48.875 50.277344 47.519531 49.765625 46.359375 L 47.320312 40.820312 C 47.074219 40.261719 46.613281 39.828125 46.046875 39.609375 L 41.351562 37.792969 C 41.980469 36.453125 42.46875 35.023438 42.753906 33.511719 Z M 29.300781 42.441406 L 29.300781 26.625 C 29.300781 25.355469 28.269531 24.328125 27.003906 24.328125 C 25.734375 24.328125 24.707031 25.355469 24.707031 26.625 L 24.707031 42.441406 C 19.476562 41.269531 15.523438 36.167969 15.523438 30.066406 C 15.523438 25.953125 17.371094 22.109375 20.472656 19.734375 L 33.535156 19.734375 C 36.636719 22.109375 38.484375 25.953125 38.484375 30.066406 C 38.484375 36.167969 34.53125 41.269531 29.300781 42.441406 Z M 29.300781 42.441406 " fill-opacity="1" fill-rule="nonzero"/></g></svg>