<svg xmlns="http://www.w3.org/2000/svg" xmlns:xlink="http://www.w3.org/1999/xlink" width="72" zoomAndPan="magnify" viewBox="0 0 54 54" height="72" preserveAspectRatio="xMidYMid meet" version="1.0"><defs><clipPath id="4a196eb74b"><path d="M 1.949219 20 L 25 20 L 25 50.90625 L 1.949219 50.90625 Z M 1.949219 20 " clip-rule="nonzero"/></clipPath><clipPath id="d4a155d4dc"><path d="M 28 2.304688 L 52.023438 2.304688 L 52.023438 33 L 28 33 Z M 28 2.304688 " clip-rule="nonzero"/></clipPath><clipPath id="30c656a18c"><path d="M 45 2.304688 L 52.023438 2.304688 L 52.023438 10 L 45 10 Z M 45 2.304688 " clip-rule="nonzero"/></clipPath></defs><path fill="#ffffff" d="M 21.152344 30.886719 L 5.796875 30.886719 C 5.351562 30.886719 4.980469 30.523438 4.980469 30.066406 C 4.980469 29.609375 5.339844 29.25 5.796875 29.25 L 21.152344 29.25 C 21.601562 29.25 21.972656 29.609375 21.972656 30.066406 C 21.972656 30.523438 21.601562 30.886719 21.152344 30.886719 Z M 21.152344 30.886719 " fill-opacity="1" fill-rule="nonzero"/><path fill="#ffffff" d="M 21.152344 35.136719 L 5.796875 35.136719 C 5.351562 35.136719 4.980469 34.777344 4.980469 34.320312 C 4.980469 33.863281 5.339844 33.5 5.796875 33.5 L 21.152344 33.5 C 21.601562 33.5 21.972656 33.863281 21.972656 34.320312 C 21.972656 34.777344 21.601562 35.136719 21.152344 35.136719 Z M 21.152344 35.136719 " fill-opacity="1" fill-rule="nonzero"/><path fill="#ffffff" d="M 21.152344 39.378906 L 5.796875 39.378906 C 5.351562 39.378906 4.980469 39.015625 4.980469 38.558594 C 4.980469 38.101562 5.339844 37.742188 5.796875 37.742188 L 21.152344 37.742188 C 21.601562 37.742188 21.972656 38.101562 21.972656 38.558594 C 21.972656 39.015625 21.601562 39.378906 21.152344 39.378906 Z M 21.152344 39.378906 " fill-opacity="1" fill-rule="nonzero"/><path fill="#ffffff" d="M 21.152344 43.628906 L 5.796875 43.628906 C 5.351562 43.628906 4.980469 43.265625 4.980469 42.808594 C 4.980469 42.351562 5.339844 41.992188 5.796875 41.992188 L 21.152344 41.992188 C 21.601562 41.992188 21.972656 42.351562 21.972656 42.808594 C 21.972656 43.265625 21.601562 43.628906 21.152344 43.628906 Z M 21.152344 43.628906 " fill-opacity="1" fill-rule="nonzero"/><path fill="#ffffff" d="M 21.152344 47.878906 L 5.796875 47.878906 C 5.351562 47.878906 4.980469 47.515625 4.980469 47.058594 C 4.980469 46.601562 5.339844 46.242188 5.796875 46.242188 L 21.152344 46.242188 C 21.601562 46.242188 21.972656 46.601562 21.972656 47.058594 C 21.972656 47.515625 21.601562 47.878906 21.152344 47.878906 Z M 21.152344 47.878906 " fill-opacity="1" fill-rule="nonzero"/><g clip-path="url(#4a196eb74b)"><path fill="#ffffff" d="M 24.183594 50.707031 L 2.769531 50.707031 C 2.324219 50.707031 1.949219 50.34375 1.949219 49.886719 L 1.949219 21.800781 C 1.949219 21.355469 2.3125 20.980469 2.769531 20.980469 L 19.558594 20.980469 C 19.785156 20.980469 19.984375 21.066406 20.144531 21.226562 L 24.757812 25.902344 C 24.90625 26.050781 24.992188 26.261719 24.992188 26.476562 L 24.992188 49.886719 C 25 50.34375 24.628906 50.707031 24.183594 50.707031 Z M 3.585938 49.070312 L 23.363281 49.070312 L 23.363281 26.816406 L 19.21875 22.617188 L 3.585938 22.617188 Z M 3.585938 49.070312 " fill-opacity="1" fill-rule="nonzero"/></g><path fill="#ffffff" d="M 24.183594 27.941406 L 19.558594 27.941406 C 19.113281 27.941406 18.742188 27.582031 18.742188 27.125 L 18.742188 21.800781 C 18.742188 21.355469 19.101562 20.980469 19.558594 20.980469 C 20.015625 20.980469 20.378906 21.34375 20.378906 21.800781 L 20.378906 26.304688 L 24.183594 26.304688 C 24.628906 26.304688 25 26.667969 25 27.125 C 25 27.582031 24.628906 27.941406 24.183594 27.941406 Z M 24.183594 27.941406 " fill-opacity="1" fill-rule="nonzero"/><path fill="#ffffff" d="M 48.199219 12.203125 L 32.84375 12.203125 C 32.398438 12.203125 32.027344 11.84375 32.027344 11.386719 C 32.027344 10.929688 32.386719 10.566406 32.84375 10.566406 L 48.1875 10.566406 C 48.636719 10.566406 49.007812 10.929688 49.007812 11.386719 C 49.007812 11.84375 48.644531 12.203125 48.199219 12.203125 Z M 48.199219 12.203125 " fill-opacity="1" fill-rule="nonzero"/><path fill="#ffffff" d="M 48.199219 16.453125 L 32.84375 16.453125 C 32.398438 16.453125 32.027344 16.09375 32.027344 15.636719 C 32.027344 15.179688 32.386719 14.816406 32.84375 14.816406 L 48.1875 14.816406 C 48.636719 14.816406 49.007812 15.179688 49.007812 15.636719 C 49.007812 16.09375 48.644531 16.453125 48.199219 16.453125 Z M 48.199219 16.453125 " fill-opacity="1" fill-rule="nonzero"/><path fill="#ffffff" d="M 48.199219 20.707031 L 32.84375 20.707031 C 32.398438 20.707031 32.027344 20.34375 32.027344 19.886719 C 32.027344 19.429688 32.386719 19.070312 32.84375 19.070312 L 48.1875 19.070312 C 48.636719 19.070312 49.007812 19.429688 49.007812 19.886719 C 49.007812 20.34375 48.644531 20.707031 48.199219 20.707031 Z M 48.199219 20.707031 " fill-opacity="1" fill-rule="nonzero"/><path fill="#ffffff" d="M 48.199219 24.945312 L 32.84375 24.945312 C 32.398438 24.945312 32.027344 24.585938 32.027344 24.128906 C 32.027344 23.671875 32.386719 23.308594 32.84375 23.308594 L 48.1875 23.308594 C 48.636719 23.308594 49.007812 23.671875 49.007812 24.128906 C 49.007812 24.585938 48.644531 24.945312 48.199219 24.945312 Z M 48.199219 24.945312 " fill-opacity="1" fill-rule="nonzero"/><path fill="#ffffff" d="M 48.199219 29.195312 L 32.84375 29.195312 C 32.398438 29.195312 32.027344 28.835938 32.027344 28.378906 C 32.027344 27.921875 32.386719 27.558594 32.84375 27.558594 L 48.1875 27.558594 C 48.636719 27.558594 49.007812 27.921875 49.007812 28.378906 C 49.007812 28.835938 48.644531 29.195312 48.199219 29.195312 Z M 48.199219 29.195312 " fill-opacity="1" fill-rule="nonzero"/><g clip-path="url(#d4a155d4dc)"><path fill="#ffffff" d="M 51.230469 32.023438 L 29.816406 32.023438 C 29.367188 32.023438 28.996094 31.660156 28.996094 31.203125 L 28.996094 3.128906 C 28.996094 2.683594 29.359375 2.308594 29.816406 2.308594 L 46.605469 2.308594 C 46.828125 2.308594 47.03125 2.394531 47.191406 2.554688 L 51.800781 7.230469 C 51.953125 7.378906 52.035156 7.589844 52.035156 7.804688 L 52.035156 31.214844 C 52.046875 31.660156 51.675781 32.023438 51.230469 32.023438 Z M 30.632812 30.398438 L 50.410156 30.398438 L 50.410156 8.132812 L 46.265625 3.9375 L 30.632812 3.9375 Z M 30.632812 30.398438 " fill-opacity="1" fill-rule="nonzero"/></g><g clip-path="url(#30c656a18c)"><path fill="#ffffff" d="M 51.230469 9.261719 L 46.617188 9.261719 C 46.171875 9.261719 45.796875 8.898438 45.796875 8.441406 L 45.796875 3.128906 C 45.796875 2.683594 46.160156 2.308594 46.617188 2.308594 C 47.074219 2.308594 47.433594 2.671875 47.433594 3.128906 L 47.433594 7.632812 L 51.230469 7.632812 C 51.675781 7.632812 52.046875 7.996094 52.046875 8.453125 C 52.046875 8.910156 51.675781 9.261719 51.230469 9.261719 Z M 51.230469 9.261719 " fill-opacity="1" fill-rule="nonzero"/></g><path fill="#ffffff" d="M 14.789062 16.835938 C 14.5 16.835938 14.234375 16.6875 14.078125 16.433594 L 12.417969 13.554688 C 12.3125 13.363281 12.28125 13.140625 12.332031 12.9375 C 12.386719 12.722656 12.523438 12.554688 12.714844 12.4375 L 17.679688 9.570312 L 17.253906 8.835938 C 17.117188 8.589844 17.105469 8.28125 17.242188 8.039062 C 17.382812 7.792969 17.636719 7.625 17.914062 7.613281 L 25.246094 7.21875 C 25.554688 7.210938 25.839844 7.359375 26 7.625 C 26.148438 7.890625 26.148438 8.21875 25.980469 8.472656 L 21.972656 14.625 C 21.8125 14.859375 21.546875 15.007812 21.269531 15 C 20.984375 14.988281 20.730469 14.839844 20.589844 14.59375 L 20.164062 13.863281 L 15.203125 16.730469 C 15.066406 16.804688 14.925781 16.835938 14.789062 16.835938 Z M 14.234375 13.4375 L 15.085938 14.902344 L 20.050781 12.035156 C 20.238281 11.925781 20.464844 11.894531 20.664062 11.949219 C 20.878906 12.003906 21.046875 12.140625 21.164062 12.332031 L 21.335938 12.617188 L 23.738281 8.929688 L 19.335938 9.164062 L 19.507812 9.453125 C 19.613281 9.644531 19.644531 9.867188 19.59375 10.066406 C 19.539062 10.28125 19.402344 10.449219 19.210938 10.566406 Z M 14.234375 13.4375 " fill-opacity="1" fill-rule="nonzero"/></svg>