<svg xmlns="http://www.w3.org/2000/svg" xmlns:xlink="http://www.w3.org/1999/xlink" width="72" zoomAndPan="magnify" viewBox="0 0 54 54" height="72" preserveAspectRatio="xMidYMid meet" version="1.0"><defs><clipPath id="d7abd0a37c"><path d="M 1.957031 6.058594 L 52 6.058594 L 52 47 L 1.957031 47 Z M 1.957031 6.058594 " clip-rule="nonzero"/></clipPath></defs><g clip-path="url(#d7abd0a37c)"><path fill="#ffffff" d="M 51.679688 42.929688 C 50.40625 40.640625 49.140625 38.335938 47.847656 36.050781 C 48.273438 27.441406 48.210938 18.664062 48.210938 10.054688 C 48.214844 9.757812 48.214844 9.4375 48.203125 9.125 C 48.128906 7.378906 46.574219 5.984375 44.839844 6.058594 C 35.160156 6.058594 21.90625 6.09375 12.203125 6.125 C 11.851562 6.128906 11.070312 6.128906 10.734375 6.136719 C 9.863281 6.160156 9.007812 6.558594 8.441406 7.222656 C 7.902344 7.828125 7.628906 8.65625 7.664062 9.460938 C 7.667969 10 7.722656 24.410156 7.734375 25.335938 C 7.742188 28.296875 7.765625 31.3125 7.789062 34.277344 C 7.769531 35.695312 8.839844 37 10.238281 37.25 C 10.488281 37.292969 10.730469 37.308594 10.988281 37.300781 C 15.09375 37.285156 22.300781 37.203125 26.414062 37.171875 C 26.796875 37.15625 26.785156 36.601562 26.414062 36.59375 C 26.414062 36.59375 19.261719 36.523438 19.261719 36.523438 C 18.1875 36.503906 11.5 36.488281 10.585938 36.445312 C 9.507812 36.332031 8.660156 35.359375 8.691406 34.277344 C 8.722656 29.308594 8.765625 21.652344 8.796875 15.261719 L 46.863281 15.261719 C 46.859375 21.78125 46.886719 28.386719 47.175781 34.878906 C 45.558594 32.058594 43.882812 29.273438 42.082031 26.570312 C 41.894531 26.296875 41.484375 26.539062 41.617188 26.828125 C 43.617188 31.175781 45.902344 35.363281 48.242188 39.527344 C 48.621094 40.199219 49.628906 42.007812 49.992188 42.648438 L 50.28125 43.167969 C 50.308594 43.21875 50.472656 43.5 50.480469 43.539062 C 50.621094 43.8125 50.679688 44.125 50.621094 44.421875 C 50.519531 45.03125 50.003906 45.546875 49.390625 45.617188 C 49.320312 45.621094 49.257812 45.625 49.179688 45.632812 C 49.179688 45.632812 48.582031 45.632812 48.582031 45.632812 C 42.730469 45.636719 34.140625 45.667969 28.296875 45.699219 C 27.996094 45.699219 27.464844 45.714844 27.175781 45.695312 C 26.085938 45.585938 25.476562 44.339844 26.023438 43.402344 C 29.503906 37.082031 33.160156 30.375 36.605469 24.03125 L 36.746094 23.773438 C 36.746094 23.773438 36.882812 23.5625 36.882812 23.5625 C 37.621094 22.539062 39.257812 22.644531 39.871094 23.75 C 40.058594 24.066406 40.542969 23.808594 40.375 23.464844 C 40.164062 23.070312 39.832031 22.726562 39.429688 22.507812 C 38.296875 21.867188 36.769531 22.28125 36.128906 23.421875 C 32.484375 29.769531 28.636719 36.480469 25.03125 42.847656 C 25.03125 42.851562 25.03125 42.851562 25.027344 42.855469 C 20.683594 42.757812 16.335938 42.695312 11.992188 42.644531 C 10.875 42.628906 8.003906 42.601562 6.921875 42.589844 L 6.5 42.585938 C 6.402344 42.585938 6.207031 42.582031 6.113281 42.570312 C 5.398438 42.53125 4.71875 42.214844 4.210938 41.722656 C 3.605469 41.148438 3.285156 40.332031 3.292969 39.503906 L 3.296875 39.082031 C 3.296875 39.082031 3.304688 37.390625 3.304688 37.390625 C 3.328125 31.148438 3.378906 23.324219 3.335938 17.109375 C 3.335938 17.109375 3.316406 16.265625 3.316406 16.265625 C 3.308594 16.03125 3.304688 15.757812 3.339844 15.527344 C 3.496094 14.171875 4.585938 13.050781 5.910156 12.753906 C 6.027344 12.722656 6.152344 12.710938 6.273438 12.6875 L 6.285156 12.683594 C 6.289062 12.566406 6.292969 12.949219 6.296875 12.417969 C 6.292969 11.886719 6.289062 12.269531 6.28125 12.152344 C 6.136719 12.144531 5.984375 12.125 5.839844 12.132812 L 5.609375 12.144531 L 5.492188 12.152344 C 5.492188 12.152344 5.378906 12.171875 5.378906 12.171875 C 3.808594 12.386719 2.5 13.664062 2.148438 15.199219 L 2.125 15.320312 C 2.125 15.320312 2.082031 15.566406 2.082031 15.566406 C 2.023438 15.972656 2.03125 16.703125 2.015625 17.113281 C 1.96875 23.335938 2.027344 31.136719 2.046875 37.394531 C 2.058594 37.988281 2.035156 39.429688 2.089844 39.992188 C 2.324219 42.101562 4.164062 43.742188 6.285156 43.722656 C 12.414062 43.664062 18.640625 43.59375 24.769531 43.457031 C 24.308594 45.058594 25.460938 46.8125 27.222656 46.882812 C 31.511719 46.933594 39.441406 46.9375 43.804688 46.957031 C 44.484375 46.941406 48.988281 47 49.558594 46.941406 C 51.429688 46.714844 52.554688 44.601562 51.675781 42.933594 Z M 44.554688 12.796875 L 33.613281 12.796875 L 33.613281 9.121094 L 44.554688 9.121094 Z M 44.554688 12.796875 " fill-opacity="1" fill-rule="nonzero"/></g><path fill="#ffffff" d="M 38.230469 39.253906 C 36.257812 39.273438 35.265625 41.695312 36.714844 43.054688 C 38.03125 44.285156 40.230469 43.347656 40.136719 41.539062 C 40.601562 40.308594 39.503906 39.234375 38.230469 39.253906 Z M 38.230469 39.253906 " fill-opacity="1" fill-rule="nonzero"/><path fill="#ffffff" d="M 40.253906 28.316406 C 40.257812 27.964844 39.972656 27.675781 39.621094 27.683594 C 38.929688 27.6875 37.535156 27.714844 36.84375 27.726562 C 36.515625 27.71875 36.246094 27.988281 36.253906 28.316406 C 36.253906 28.316406 36.296875 30.710938 36.296875 30.710938 C 36.328125 32.25 36.433594 36.300781 36.476562 37.894531 C 36.472656 38.097656 36.636719 38.265625 36.84375 38.261719 C 37.828125 38.242188 38.835938 38.167969 39.804688 38.097656 C 40.320312 35.742188 40.238281 33.246094 40.273438 30.835938 C 40.273438 29.992188 40.265625 29.152344 40.253906 28.316406 Z M 39.570312 33.519531 C 39.570312 33.640625 39.539062 33.753906 39.480469 33.859375 C 39.445312 33.90625 39.40625 33.953125 39.375 33.996094 C 39.289062 34.082031 39.1875 34.140625 39.074219 34.171875 C 39.015625 34.179688 38.953125 34.1875 38.894531 34.195312 C 38.800781 34.199219 38.714844 34.179688 38.632812 34.136719 C 38.550781 34.109375 38.476562 34.0625 38.414062 33.996094 C 38.347656 33.933594 38.300781 33.863281 38.273438 33.777344 C 38.230469 33.695312 38.214844 33.609375 38.214844 33.515625 L 38.214844 33.46875 C 38.214844 33.347656 38.246094 33.234375 38.308594 33.125 L 38.414062 32.988281 C 38.5 32.90625 38.597656 32.847656 38.714844 32.816406 C 38.773438 32.808594 38.832031 32.800781 38.894531 32.792969 C 38.988281 32.789062 39.074219 32.808594 39.15625 32.851562 C 39.238281 32.878906 39.3125 32.925781 39.375 32.992188 C 39.441406 33.050781 39.484375 33.125 39.511719 33.210938 C 39.554688 33.289062 39.574219 33.378906 39.570312 33.46875 Z M 39.570312 31.507812 C 39.570312 32.378906 38.21875 32.378906 38.21875 31.507812 L 38.21875 29.742188 C 38.21875 28.871094 39.570312 28.871094 39.570312 29.742188 Z M 39.570312 31.507812 " fill-opacity="1" fill-rule="nonzero"/></svg>