<svg xmlns="http://www.w3.org/2000/svg" xmlns:xlink="http://www.w3.org/1999/xlink" width="72" zoomAndPan="magnify" viewBox="0 0 54 54" height="72" preserveAspectRatio="xMidYMid meet" version="1.0"><path fill="#ffffff" d="M 42.84375 35.3125 L 39.324219 31.785156 L 42.84375 28.265625 C 43.425781 27.691406 43.945312 27.0625 44.402344 26.382812 C 44.863281 25.703125 45.25 24.984375 45.566406 24.226562 C 45.882812 23.472656 46.121094 22.691406 46.28125 21.886719 C 46.445312 21.085938 46.527344 20.273438 46.527344 19.453125 C 46.53125 18.632812 46.453125 17.820312 46.292969 17.019531 C 46.132812 16.214844 45.898438 15.433594 45.585938 14.675781 C 45.273438 13.917969 44.890625 13.199219 44.433594 12.515625 C 43.980469 11.835938 43.460938 11.203125 42.882812 10.625 C 42.304688 10.042969 41.671875 9.527344 40.992188 9.074219 C 40.308594 8.617188 39.589844 8.234375 38.832031 7.921875 C 38.074219 7.609375 37.292969 7.371094 36.488281 7.214844 C 35.683594 7.054688 34.871094 6.976562 34.054688 6.976562 C 33.234375 6.980469 32.421875 7.0625 31.617188 7.222656 C 30.816406 7.386719 30.035156 7.625 29.277344 7.941406 C 28.523438 8.257812 27.804688 8.644531 27.125 9.101562 C 26.445312 9.5625 25.816406 10.082031 25.238281 10.664062 L 21.71875 14.183594 L 18.195312 10.664062 L 21.722656 7.144531 C 22.125 6.742188 22.546875 6.359375 22.988281 5.996094 C 23.429688 5.632812 23.886719 5.292969 24.363281 4.976562 C 24.835938 4.660156 25.328125 4.367188 25.828125 4.097656 C 26.332031 3.828125 26.847656 3.585938 27.375 3.367188 C 27.902344 3.148438 28.441406 2.957031 28.988281 2.789062 C 29.53125 2.625 30.085938 2.488281 30.644531 2.375 C 31.207031 2.265625 31.769531 2.179688 32.335938 2.125 C 32.90625 2.066406 33.476562 2.039062 34.046875 2.039062 C 34.617188 2.039062 35.1875 2.066406 35.753906 2.125 C 36.320312 2.179688 36.886719 2.265625 37.445312 2.375 C 38.003906 2.488281 38.558594 2.625 39.105469 2.789062 C 39.652344 2.957031 40.1875 3.148438 40.714844 3.367188 C 41.242188 3.585938 41.757812 3.828125 42.261719 4.097656 C 42.765625 4.367188 43.253906 4.660156 43.726562 4.976562 C 44.203125 5.292969 44.660156 5.632812 45.101562 5.996094 C 45.542969 6.359375 45.964844 6.742188 46.371094 7.144531 C 46.773438 7.546875 47.15625 7.972656 47.519531 8.414062 C 47.878906 8.851562 48.21875 9.3125 48.535156 9.785156 C 48.855469 10.261719 49.148438 10.75 49.414062 11.253906 C 49.683594 11.757812 49.929688 12.273438 50.148438 12.800781 C 50.367188 13.328125 50.558594 13.863281 50.722656 14.410156 C 50.890625 14.957031 51.027344 15.507812 51.140625 16.070312 C 51.25 16.628906 51.332031 17.191406 51.390625 17.761719 C 51.445312 18.328125 51.472656 18.898438 51.472656 19.46875 C 51.472656 20.039062 51.445312 20.609375 51.390625 21.175781 C 51.332031 21.746094 51.25 22.308594 51.140625 22.867188 C 51.027344 23.429688 50.890625 23.980469 50.722656 24.527344 C 50.558594 25.074219 50.367188 25.609375 50.148438 26.136719 C 49.929688 26.664062 49.683594 27.179688 49.414062 27.683594 C 49.148438 28.1875 48.855469 28.675781 48.535156 29.152344 C 48.21875 29.625 47.878906 30.082031 47.519531 30.523438 C 47.15625 30.964844 46.773438 31.386719 46.371094 31.792969 L 42.847656 35.3125 Z M 35.804688 42.351562 L 32.28125 45.875 C 31.875 46.277344 31.453125 46.660156 31.011719 47.019531 C 30.570312 47.382812 30.113281 47.722656 29.640625 48.039062 C 29.164062 48.355469 28.675781 48.648438 28.171875 48.917969 C 27.667969 49.1875 27.152344 49.429688 26.625 49.648438 C 26.097656 49.867188 25.5625 50.058594 25.015625 50.222656 C 24.46875 50.390625 23.917969 50.527344 23.359375 50.640625 C 22.796875 50.75 22.234375 50.835938 21.667969 50.890625 C 21.097656 50.945312 20.527344 50.972656 19.957031 50.972656 C 19.386719 50.972656 18.816406 50.945312 18.25 50.890625 C 17.683594 50.832031 17.117188 50.75 16.558594 50.636719 C 16 50.527344 15.445312 50.386719 14.898438 50.222656 C 14.355469 50.058594 13.816406 49.863281 13.289062 49.644531 C 12.761719 49.429688 12.246094 49.183594 11.746094 48.914062 C 11.242188 48.644531 10.753906 48.351562 10.277344 48.035156 C 9.804688 47.71875 9.34375 47.378906 8.90625 47.015625 C 8.464844 46.65625 8.042969 46.273438 7.636719 45.867188 C 7.234375 45.464844 6.851562 45.042969 6.488281 44.601562 C 6.128906 44.160156 5.789062 43.703125 5.46875 43.230469 C 5.152344 42.753906 4.859375 42.265625 4.589844 41.761719 C 4.324219 41.257812 4.078125 40.742188 3.859375 40.214844 C 3.640625 39.6875 3.449219 39.152344 3.285156 38.605469 C 3.117188 38.058594 2.980469 37.507812 2.867188 36.949219 C 2.757812 36.386719 2.671875 35.824219 2.617188 35.257812 C 2.5625 34.6875 2.53125 34.117188 2.53125 33.546875 C 2.53125 32.976562 2.5625 32.410156 2.617188 31.839844 C 2.671875 31.273438 2.757812 30.707031 2.867188 30.148438 C 2.976562 29.589844 3.117188 29.035156 3.28125 28.492188 C 3.449219 27.945312 3.640625 27.40625 3.859375 26.878906 C 4.074219 26.351562 4.320312 25.835938 4.589844 25.335938 C 4.859375 24.832031 5.148438 24.34375 5.46875 23.867188 C 5.785156 23.394531 6.125 22.933594 6.484375 22.492188 C 6.847656 22.050781 7.230469 21.628906 7.632812 21.226562 L 11.15625 17.707031 L 14.675781 21.230469 L 11.15625 24.75 C 10.574219 25.328125 10.054688 25.957031 9.597656 26.636719 C 9.136719 27.316406 8.75 28.035156 8.433594 28.789062 C 8.117188 29.546875 7.878906 30.328125 7.71875 31.128906 C 7.554688 31.933594 7.472656 32.746094 7.472656 33.566406 C 7.46875 34.382812 7.546875 35.195312 7.707031 36 C 7.867188 36.804688 8.101562 37.585938 8.414062 38.34375 C 8.726562 39.101562 9.109375 39.820312 9.566406 40.5 C 10.019531 41.183594 10.539062 41.8125 11.117188 42.394531 C 11.699219 42.972656 12.328125 43.492188 13.007812 43.945312 C 13.691406 44.402344 14.410156 44.785156 15.167969 45.097656 C 15.925781 45.410156 16.707031 45.644531 17.511719 45.804688 C 18.316406 45.964844 19.128906 46.042969 19.945312 46.039062 C 20.765625 46.039062 21.578125 45.957031 22.382812 45.792969 C 23.183594 45.632812 23.964844 45.394531 24.722656 45.078125 C 25.476562 44.761719 26.195312 44.375 26.875 43.914062 C 27.554688 43.457031 28.183594 42.9375 28.761719 42.355469 L 32.28125 38.835938 L 35.804688 42.355469 Z M 34.039062 15.945312 L 37.5625 19.46875 L 19.960938 37.070312 L 16.4375 33.550781 L 34.039062 15.949219 Z M 34.039062 15.945312 " fill-opacity="1" fill-rule="nonzero"/></svg>