<svg xmlns="http://www.w3.org/2000/svg" xmlns:xlink="http://www.w3.org/1999/xlink" width="72" zoomAndPan="magnify" viewBox="0 0 54 54" height="72" preserveAspectRatio="xMidYMid meet" version="1.0"><defs><clipPath id="47a3a492cf"><path d="M 1.742188 1.25 L 52.550781 1.25 L 52.550781 52 L 1.742188 52 Z M 1.742188 1.25 " clip-rule="nonzero"/></clipPath></defs><g clip-path="url(#47a3a492cf)"><path fill="#ffffff" d="M 26.996094 1.25 C 13.070312 1.25 1.742188 12.578125 1.742188 26.507812 C 1.742188 40.433594 13.070312 51.761719 26.996094 51.761719 C 40.925781 51.761719 52.253906 40.433594 52.253906 26.507812 C 52.253906 12.578125 40.925781 1.25 26.996094 1.25 Z M 26.996094 49.988281 C 14.03125 49.988281 3.515625 39.472656 3.515625 26.507812 C 3.515625 13.539062 14.03125 3.023438 26.996094 3.023438 C 39.964844 3.023438 50.480469 13.539062 50.480469 26.507812 C 50.480469 39.472656 39.964844 49.988281 26.996094 49.988281 Z M 26.996094 49.988281 " fill-opacity="1" fill-rule="nonzero"/></g><path fill="#ffffff" d="M 26.996094 14.464844 C 26.996094 14.464844 17.179688 14.53125 19.347656 24.96875 C 19.988281 28.058594 26.996094 35.246094 26.996094 35.246094 C 26.996094 35.246094 34.007812 28.058594 34.648438 24.96875 C 36.816406 14.53125 26.996094 14.464844 26.996094 14.464844 Z M 26.996094 24.445312 C 26.636719 24.445312 26.289062 24.375 25.953125 24.238281 C 25.621094 24.101562 25.324219 23.902344 25.070312 23.648438 C 24.8125 23.390625 24.617188 23.097656 24.476562 22.761719 C 24.339844 22.425781 24.269531 22.078125 24.269531 21.71875 C 24.269531 21.355469 24.339844 21.007812 24.480469 20.675781 C 24.617188 20.339844 24.816406 20.046875 25.070312 19.789062 C 25.328125 19.535156 25.625 19.335938 25.957031 19.199219 C 26.292969 19.0625 26.640625 18.992188 27 18.992188 C 27.363281 18.992188 27.710938 19.0625 28.046875 19.203125 C 28.378906 19.339844 28.675781 19.539062 28.929688 19.796875 C 29.183594 20.050781 29.382812 20.347656 29.519531 20.679688 C 29.65625 21.015625 29.726562 21.363281 29.722656 21.726562 C 29.722656 22.085938 29.652344 22.433594 29.515625 22.765625 C 29.375 23.101562 29.179688 23.394531 28.921875 23.648438 C 28.667969 23.90625 28.375 24.101562 28.039062 24.238281 C 27.707031 24.378906 27.359375 24.445312 26.996094 24.445312 Z M 26.996094 24.445312 " fill-opacity="1" fill-rule="nonzero"/><path fill="#ffffff" d="M 32.644531 30.125 C 32.457031 30.375 32.261719 30.621094 32.0625 30.867188 C 34.429688 31.539062 35.980469 32.664062 35.980469 33.9375 C 35.980469 36 31.960938 37.664062 26.996094 37.664062 C 22.035156 37.664062 18.015625 36 18.015625 33.9375 C 18.015625 32.664062 19.566406 31.539062 21.933594 30.867188 C 21.734375 30.621094 21.539062 30.375 21.351562 30.125 C 18.90625 30.886719 17.128906 32.171875 17.128906 33.9375 C 17.128906 36.933594 22.21875 38.550781 26.996094 38.550781 C 31.777344 38.550781 36.867188 36.933594 36.867188 33.9375 C 36.867188 32.171875 35.089844 30.886719 32.644531 30.125 Z M 32.644531 30.125 " fill-opacity="1" fill-rule="nonzero"/></svg>