<svg xmlns="http://www.w3.org/2000/svg" xmlns:xlink="http://www.w3.org/1999/xlink" width="72" zoomAndPan="magnify" viewBox="0 0 54 54" height="72" preserveAspectRatio="xMidYMid meet" version="1.0"><defs><clipPath id="2dc8db2fee"><path d="M 11 1.429688 L 23 1.429688 L 23 23 L 11 23 Z M 11 1.429688 " clip-rule="nonzero"/></clipPath><clipPath id="100506d75c"><path d="M 31 1.429688 L 43 1.429688 L 43 23 L 31 23 Z M 31 1.429688 " clip-rule="nonzero"/></clipPath><clipPath id="8264f13ded"><path d="M 12 7 L 42 7 L 42 51.503906 L 12 51.503906 Z M 12 7 " clip-rule="nonzero"/></clipPath></defs><g clip-path="url(#2dc8db2fee)"><path fill="#ffffff" d="M 21.609375 6.398438 C 21.449219 6.398438 21.347656 6.503906 21.242188 6.605469 C 18.15625 9.691406 18.15625 14.660156 21.242188 17.746094 C 21.449219 18.007812 21.921875 18.007812 22.128906 17.746094 C 22.339844 17.539062 22.339844 17.117188 22.128906 16.855469 C 19.515625 14.242188 19.515625 10.058594 22.128906 7.445312 C 22.496094 7.128906 22.128906 6.34375 21.609375 6.398438 Z M 19.097656 3.835938 C 19.097656 3.835938 19.046875 3.835938 18.992188 3.886719 C 18.886719 3.941406 18.730469 3.992188 18.679688 4.097656 C 14.179688 8.542969 14.128906 15.8125 18.625 20.308594 C 18.886719 20.570312 19.304688 20.519531 19.515625 20.257812 C 19.726562 20.046875 19.726562 19.679688 19.464844 19.417969 C 15.4375 15.394531 15.4375 8.960938 19.464844 4.933594 C 20.039062 4.621094 19.671875 3.730469 19.097656 3.835938 Z M 16.691406 1.429688 C 16.640625 1.429688 16.585938 1.429688 16.535156 1.480469 C 16.429688 1.535156 16.273438 1.585938 16.222656 1.691406 C 10.363281 7.496094 10.363281 16.910156 16.222656 22.714844 C 16.484375 22.976562 16.953125 22.976562 17.164062 22.664062 C 17.371094 22.402344 17.320312 22.035156 17.109375 21.824219 C 11.722656 16.492188 11.722656 7.863281 17.109375 2.527344 C 17.476562 2.214844 17.214844 1.429688 16.691406 1.429688 Z M 16.691406 1.429688 " fill-opacity="1" fill-rule="nonzero"/></g><g clip-path="url(#100506d75c)"><path fill="#ffffff" d="M 32.382812 6.398438 C 32.539062 6.398438 32.640625 6.503906 32.746094 6.605469 C 35.832031 9.691406 35.832031 14.660156 32.746094 17.746094 C 32.539062 18.007812 32.066406 18.007812 31.859375 17.746094 C 31.648438 17.539062 31.648438 17.117188 31.859375 16.855469 C 34.472656 14.242188 34.472656 10.058594 31.859375 7.445312 C 31.492188 7.128906 31.859375 6.34375 32.382812 6.398438 Z M 34.890625 3.835938 C 34.890625 3.835938 34.945312 3.835938 34.996094 3.886719 C 35.101562 3.941406 35.257812 3.992188 35.308594 4.097656 C 39.808594 8.542969 39.859375 15.8125 35.363281 20.308594 C 35.101562 20.570312 34.683594 20.519531 34.472656 20.257812 C 34.261719 20.046875 34.261719 19.679688 34.523438 19.417969 C 38.550781 15.394531 38.550781 8.960938 34.523438 4.933594 C 33.949219 4.621094 34.316406 3.730469 34.890625 3.835938 Z M 37.296875 1.429688 C 37.347656 1.429688 37.402344 1.429688 37.453125 1.480469 C 37.558594 1.535156 37.714844 1.585938 37.769531 1.691406 C 43.625 7.496094 43.625 16.910156 37.769531 22.714844 C 37.507812 22.976562 37.035156 22.976562 36.828125 22.664062 C 36.617188 22.402344 36.667969 22.035156 36.878906 21.824219 C 42.265625 16.492188 42.265625 7.863281 36.878906 2.527344 C 36.511719 2.214844 36.773438 1.429688 37.296875 1.429688 Z M 37.296875 1.429688 " fill-opacity="1" fill-rule="nonzero"/></g><g clip-path="url(#8264f13ded)"><path fill="#ffffff" d="M 14.859375 51.582031 L 17.527344 42.746094 L 36.40625 42.746094 L 39.128906 51.582031 L 41.324219 51.582031 L 30.238281 15.289062 C 31.125 14.453125 31.699219 13.25 31.699219 11.890625 C 31.699219 9.273438 29.609375 7.183594 26.996094 7.183594 C 24.378906 7.183594 22.289062 9.273438 22.289062 11.890625 C 22.289062 13.25 22.863281 14.453125 23.75 15.289062 L 12.664062 51.582031 Z M 35.78125 40.652344 L 28.300781 40.652344 L 33.113281 31.761719 Z M 26.996094 38.664062 L 22.496094 30.296875 L 31.492188 30.296875 Z M 32.640625 30.296875 Z M 26.996094 9.273438 C 28.457031 9.273438 29.609375 10.425781 29.609375 11.890625 C 29.609375 13.351562 28.457031 14.503906 26.996094 14.503906 C 25.53125 14.503906 24.378906 13.351562 24.378906 11.890625 C 24.378906 10.425781 25.53125 9.273438 26.996094 9.273438 Z M 25.582031 16.386719 C 26 16.542969 26.472656 16.597656 26.996094 16.597656 C 27.515625 16.597656 27.9375 16.542969 28.40625 16.386719 L 32.015625 28.257812 L 21.972656 28.257812 Z M 21.347656 30.296875 Z M 20.929688 31.761719 L 25.738281 40.652344 L 18.207031 40.652344 Z M 20.929688 31.761719 " fill-opacity="1" fill-rule="nonzero"/></g></svg>