<svg xmlns="http://www.w3.org/2000/svg" xml:space="preserve" id="svg3852" x="0" y="0" version="1.1" viewBox="-250 452 72 72">
    <style>
        .st0{display:none}.st1{display:inline}.st2,.st3,.st4,.st5{fill:none;stroke:#eb008b;stroke-width:.25;stroke-linecap:round;stroke-linejoin:round;stroke-miterlimit:10}.st3,.st4,.st5{fill:#fff;stroke:#fff;stroke-width:1.5}.st4,.st5{fill:none;stroke-width:3.9}.st5{stroke-width:4.5}
    </style>
    <path id="rect3882" d="M-245.5 497.4h22.3v11.1h-22.3z" class="st3" transform="rotate(134.999 -234.374 502.936)"/>
    <path id="rect3884" d="M-210.1 462h22.3v11.1h-22.3z" class="st3" transform="rotate(-45.001 -198.945 467.531)"/>
    <path id="path3886" d="M-230.5 471.4c-3.2 3.2-3.2 8.6 0 11.8l15.8 15.7 11.8-11.8-15.7-15.7c-3.3-3.2-8.6-3.2-11.9 0" class="st3"/>
    <path id="path3888" d="M-208.8 493.1c-4.3 4.3-4.3 11.4 0 15.7l15.7-15.7c-4.3-4.3-11.4-4.3-15.7 0" class="st3"/>
    <path id="path3890" d="M-207.1 516.3c5.7 5.7 15 5.7 20.7 0s5.7-15 0-20.7" class="st4"/>
    <path id="path3892" d="M-201.9 509.4c2.5 2.5 6.4 2.5 8.9 0s2.5-6.4 0-8.9" class="st4"/>
    <path id="line3894" d="m-226.5 495 4-3.9" class="st5"/>
    <path id="line3896" d="m-210.7 479.3 3.9-3.9" class="st5"/>
</svg>
