<?xml version="1.0" encoding="utf-8"?>
<!-- Generator: Adobe Illustrator 23.0.6, SVG Export Plug-In . SVG Version: 6.00 Build 0)  -->
<svg version="1.1" id="Layer_1" xmlns="http://www.w3.org/2000/svg" xmlns:xlink="http://www.w3.org/1999/xlink" x="0px" y="0px"
	 viewBox="0 0 288 288" style="enable-background:new 0 0 288 288;" xml:space="preserve">
<style type="text/css">
	.st0{fill:#07916D;}
	.st1{fill:#FFFFFF;}
</style>
<rect x="45" y="94.5" class="st0" width="128.1" height="136.1"/>
<path class="st1" d="M251.5,247H4.5c-1.3,0-2.3,0.5-3.2,1.3C0.5,249.3,0,250.7,0,252c1.3,20.2,18.4,36,38.7,36h178.7
	c20.2,0,37.3-15.8,38.7-36c0-1.3-0.5-2.7-1.3-3.6C253.8,247.5,252.9,247,251.5,247L251.5,247z M137.7,272.3h-19.8
	c-2.7,0-4.5-2.3-4.5-4.5c0-2.2,1.8-4.5,4.5-4.5h19.8c2.3,0,4.5,2.3,4.5,4.5C142.2,270,140.4,272.3,137.7,272.3z"/>
<path class="st1" d="M274.5,0h-74.7c-7.6,0-13.5,6.3-13.5,13.5v106.2l101.7,0V13.5C288,6.3,281.7,0,274.5,0L274.5,0z"/>
<path class="st1" d="M186.3,147.2c0,7.6,5.8,13.5,13.5,13.5l74.7,0c7.6,0,13.5-6.3,13.5-13.5v-18.4H186.3V147.2z M230.4,140h13.5
	c2.7,0,4.5,1.8,4.5,4.5c0,2.7-1.8,4.5-4.5,4.5h-13.5c-2.7,0-4.5-1.8-4.5-4.5C225.9,141.7,227.7,140,230.4,140z"/>
<path class="st1" d="M18.9,238.1h218.2c2.7,0,4.5-2.3,4.5-4.5v-63.9h-41.8c-12.6,0-22.5-10.3-22.5-22.5V77.4l-149.9,0
	c-7.2,0-13.1,5.8-13.1,13.1v143.1C14.4,236.3,16.2,238.1,18.9,238.1L18.9,238.1z M102.6,135.4l27-12.1l-8.6-3.2
	c-2.3-0.9-3.6-3.6-2.7-5.8c0.9-2.3,3.6-3.6,5.8-2.7l18.4,6.8c0.9,0.5,2.3,1.3,2.7,2.3c0.5,0.9,0.5,2.3,0,3.6l-6.8,18.4
	c-0.9,2.3-3.6,3.6-5.8,2.7c-2.2-0.9-3.6-3.6-2.7-5.8l3.2-8.6l-27,12.1c-2.3,0.9-5,0-5.8-2.3C99,139,100.4,136.4,102.6,135.4
	L102.6,135.4z M81,190.8l6.8-18.4c0.9-2.3,3.6-3.6,5.8-2.7c2.3,0.9,3.6,3.6,2.7,5.8l-3.2,8.6l27-12.1c2.3-0.9,5,0,5.8,2.3
	c0.9,2.3,0,5-2.2,5.8l-27,12.1l8.6,3.2c2.3,0.9,3.6,3.6,2.7,5.8c-0.9,2.3-3.6,3.6-5.8,2.7l-18.4-6.8c-0.9-0.5-2.3-1.3-2.7-2.3
	C81.4,193.9,80.6,193.1,81,190.8L81,190.8z"/>
</svg>
