<svg id="proposal" xmlns="http://www.w3.org/2000/svg" viewBox="0 0 292.04 291.78"><defs><style>.cls-1{fill:none;stroke:#aaa;}.cls-1,.cls-3{stroke-miterlimit:10;}.cls-2{fill:#fff;}.cls-3{font-size:81.95px;fill:#ff442b;stroke:#000;font-family:Open Sans;font-weight:700;}</style></defs><title>AirframeUnknown</title><path class="cls-1" d="M519.57,666.42a50.8,50.8,0,0,0-33.68,12.84l-27-26.81a9.86,9.86,0,0,0,.66-3.52V597.74a9.86,9.86,0,0,0-.83-4l27.14-27a51,51,0,1,0-4.52-4.54l-27,26.79a9.86,9.86,0,0,0-4.75-1.21H398.5a9.87,9.87,0,0,0-3.21.54L369,562.25a51,51,0,1,0-4.52,4.54l25.71,25.56a9.85,9.85,0,0,0-1.61,5.4v51.19a9.85,9.85,0,0,0,1.36,5l-25.47,25.32a51,51,0,1,0,4.52,4.54l25.81-25.66a9.87,9.87,0,0,0,3.68.71h51.19a9.84,9.84,0,0,0,5.13-1.45l26.55,26.41A51,51,0,1,0,519.57,666.42Z" transform="translate(-279.18 -477.13)"/><path class="cls-1" d="M519.73,517.41a11.21,11.21,0,1,0,11.2,11.26A11.18,11.18,0,0,0,519.73,517.41Z" transform="translate(-279.18 -477.13)"/><path class="cls-1" d="M330.66,517.41a11.21,11.21,0,1,1-11.2,11.26A11.18,11.18,0,0,1,330.66,517.41Z" transform="translate(-279.18 -477.13)"/><path class="cls-1" d="M330.66,728.62a11.21,11.21,0,1,0-11.2-11.26A11.18,11.18,0,0,0,330.66,728.62Z" transform="translate(-279.18 -477.13)"/><path class="cls-1" d="M519.73,728.62a11.21,11.21,0,1,1,11.2-11.26A11.18,11.18,0,0,1,519.73,728.62Z" transform="translate(-279.18 -477.13)"/><path class="cls-2" d="M425.2,672a48.49,48.49,0,0,1-.13-97h0.13a48.49,48.49,0,0,1,.13,97H425.2Z" transform="translate(-279.18 -477.13)"/><path d="M425.2,575.48a48,48,0,0,1,.13,96H425.2a48,48,0,0,1-.13-96h0.13m0-1h-0.14a49,49,0,0,0,.14,98h0.14a49,49,0,0,0-.14-98h0Z" transform="translate(-279.18 -477.13)"/><text class="cls-3" transform="translate(126.59 177.65)">?</text></svg>