<?xml version="1.0" encoding="utf-8"?>
<!-- Generator: Adobe Illustrator 19.2.0, SVG Export Plug-In . SVG Version: 6.00 Build 0)  -->
<!DOCTYPE svg PUBLIC "-//W3C//DTD SVG 1.1//EN" "http://www.w3.org/Graphics/SVG/1.1/DTD/svg11.dtd">
<svg version="1.1" id="draw" xmlns="http://www.w3.org/2000/svg" xmlns:xlink="http://www.w3.org/1999/xlink" x="0px" y="0px"
	 viewBox="0 0 292.04 291.775" enable-background="new 0 0 292.04 291.775" xml:space="preserve">
<title>AirframeUnknown</title>
<path fill="none" stroke="#AAAAAA" stroke-miterlimit="10" d="M240.395,189.29c-12.42,0.019-24.402,4.586-33.683,12.84
	l-26.953-26.806c0.432-1.125,0.655-2.319,0.657-3.524v-51.187c0-1.367-0.283-2.719-0.833-3.97l27.141-26.984
	c21.094,18.672,53.33,16.71,72.003-4.384c18.672-21.094,16.71-53.33-4.384-72.003c-21.094-18.672-53.33-16.71-72.003,4.384
	c-17.035,19.244-17.092,48.156-0.134,67.467l-26.954,26.794c-1.455-0.796-3.087-1.212-4.746-1.21h-51.182
	c-1.093,0.002-2.178,0.186-3.211,0.543L89.83,85.123c18.601-21.18,16.51-53.429-4.67-72.03c-21.18-18.601-53.429-16.51-72.03,4.67
	c-18.601,21.18-16.51,53.429,4.67,72.03c19.324,16.971,48.256,16.913,67.512-0.134l25.71,25.557c-1.049,1.605-1.607,3.482-1.605,5.4
	v51.188c0,1.759,0.471,3.485,1.364,5l-25.469,25.317c-21.093-18.672-53.329-16.709-72.001,4.384s-16.709,53.329,4.384,72.001
	c21.093,18.672,53.329,16.709,72.001-4.384c17.035-19.243,17.092-48.154,0.134-67.465l25.813-25.66
	c1.17,0.471,2.419,0.713,3.68,0.714h51.188c1.812,0,3.588-0.501,5.134-1.446l26.553,26.408
	c-18.566,21.182-16.446,53.403,4.736,71.969c21.182,18.566,53.403,16.446,71.969-4.736c18.566-21.182,16.446-53.403-4.736-71.969
	C264.826,193.749,252.817,189.252,240.395,189.29z"/>
<path fill="none" stroke="#AAAAAA" stroke-miterlimit="10" d="M240.553,40.28c-6.193-0.007-11.219,5.007-11.226,11.2
	c-0.007,6.193,5.007,11.219,11.2,11.226c6.18,0.007,11.201-4.988,11.226-11.168c0.043-6.174-4.927-11.215-11.102-11.258
	C240.619,40.28,240.586,40.28,240.553,40.28z"/>
<path fill="none" stroke="#AAAAAA" stroke-miterlimit="10" d="M51.487,40.28c6.193-0.007,11.219,5.007,11.226,11.2
	c0.007,6.193-5.007,11.219-11.2,11.226c-6.18,0.007-11.201-4.988-11.226-11.168c-0.043-6.174,4.927-11.215,11.102-11.258
	C51.421,40.28,51.454,40.28,51.487,40.28z"/>
<path fill="none" stroke="#AAAAAA" stroke-miterlimit="10" d="M51.487,251.496c6.193,0.007,11.219-5.007,11.226-11.2
	c0.007-6.193-5.007-11.219-11.2-11.226c-6.18-0.007-11.201,4.988-11.226,11.168c-0.043,6.174,4.927,11.215,11.102,11.258
	C51.421,251.496,51.454,251.496,51.487,251.496z"/>
<path fill="none" stroke="#AAAAAA" stroke-miterlimit="10" d="M240.553,251.496c-6.193,0.007-11.219-5.007-11.226-11.2
	c-0.007-6.193,5.007-11.219,11.2-11.226c6.18-0.007,11.201,4.988,11.226,11.168c0.043,6.174-4.927,11.215-11.102,11.258
	C240.619,251.496,240.586,251.496,240.553,251.496z"/>
<path fill="#FFFFFF" d="M146.024,194.838c-26.782,0.037-48.523-21.644-48.56-48.426c-0.037-26.782,21.644-48.523,48.426-48.56h0.134
	c26.782-0.037,48.523,21.644,48.56,48.426c0.037,26.782-21.644,48.523-48.426,48.56l0,0H146.024z"/>
<path d="M146.024,98.352c26.506-0.036,48.023,21.421,48.059,47.927c0.036,26.506-21.421,48.023-47.927,48.059h-0.132
	c-26.506,0.037-48.023-21.421-48.06-47.927s21.421-48.023,47.927-48.06l0,0H146.024 M146.024,97.352h-0.135
	c-27.058,0.038-48.963,22.003-48.925,49.061c0.038,27.058,22.003,48.963,49.061,48.925l0,0h0.135
	c27.058-0.038,48.963-22.003,48.925-49.061C195.047,119.219,173.082,97.314,146.024,97.352L146.024,97.352z"/>
<path fill="#FF442B" stroke="#000000" stroke-miterlimit="10" d="M137.638,158.247v-2.961c-0.057-2.334,0.509-4.641,1.641-6.683
	c1.577-2.394,3.617-4.448,6-6.042c2.079-1.345,3.947-2.99,5.545-4.881c0.883-1.221,1.353-2.693,1.34-4.2
	c0.084-1.563-0.642-3.059-1.92-3.961c-1.605-0.995-3.477-1.47-5.362-1.36c-4,0-8.562,1.307-13.685,3.921l-4.361-8.763
	c5.766-3.286,12.29-5.009,18.927-5c5.495,0,9.861,1.32,13.1,3.961c3.201,2.553,5.005,6.471,4.862,10.563
	c0.07,2.672-0.624,5.308-2,7.6c-1.333,2.133-3.867,4.533-7.6,7.2c-1.813,1.208-3.45,2.663-4.862,4.322
	c-0.728,1.159-1.084,2.513-1.021,3.881v2.4h-10.6L137.638,158.247z M136.358,171.932c-0.137-1.871,0.516-3.714,1.8-5.082
	c1.455-1.237,3.337-1.855,5.242-1.721c1.88-0.119,3.73,0.515,5.142,1.761c2.435,2.9,2.427,7.133-0.02,10.023
	c-1.391,1.275-3.239,1.932-5.122,1.821c-1.901,0.12-3.772-0.521-5.2-1.781c-1.289-1.343-1.957-3.163-1.843-5.021H136.358z"/>
</svg>
