<?xml version="1.0" encoding="utf-8"?>
<!-- Generator: Adobe Illustrator 23.0.3, SVG Export Plug-In . SVG Version: 6.00 Build 0)  -->
<svg version="1.1" id="draw" xmlns="http://www.w3.org/2000/svg" xmlns:xlink="http://www.w3.org/1999/xlink" x="0px" y="0px"
	 viewBox="0 0 72 72" style="enable-background:new 0 0 72 72;" xml:space="preserve">
<style type="text/css">
	.st0{fill:#FF442B;stroke:#000000;stroke-linejoin:round;stroke-miterlimit:10;}
	.st1{fill:#FF442B;stroke:#000000;stroke-miterlimit:10;}
</style>
<title>AirframeUnknown</title>
<g>
	<g>
		<path d="M36,57.1C18.8,57.1,0.5,52.9,0.5,45c0-4.2,5.7-7.9,15.7-10.2c0.6-0.1,1.2,0.2,1.3,0.8c0.1,0.6-0.2,1.2-0.8,1.3
			C8.2,38.8,2.7,42,2.7,45c0,4.7,13.7,10,33.3,10s33.3-5.3,33.3-10c0-3-5.5-6.2-14-8.1c-0.6-0.1-0.9-0.7-0.8-1.3
			c0.1-0.6,0.7-0.9,1.3-0.8c10,2.2,15.7,5.9,15.7,10.2C71.4,52.9,53.2,57.1,36,57.1z"/>
		<path d="M36,47.8c-10.2,0-21-2.6-21-7.5c0-0.6,0.5-1.1,1.1-1.1s1.1,0.5,1.1,1.1c0,2.2,7.2,5.3,18.8,5.3s18.8-3.1,18.8-5.3
			c0-0.6,0.5-1.1,1.1-1.1s1.1,0.5,1.1,1.1C56.9,45.2,46.1,47.8,36,47.8z"/>
		<path d="M56,41.4c-0.6,0-1.1-0.5-1.1-1.1c0-10.4-8.5-18.9-18.9-18.9c-10.4,0-18.9,8.5-18.9,18.9c0,0.6-0.1,1-0.7,1
			c-0.6,0-1.4-0.4-1.4-1c0-11.6,9.4-21.1,21.1-21.1S57,28.7,57,40.3C57,40.9,56.6,41.4,56,41.4z"/>
	</g>
	<g>
		<path d="M61.3,63.5H58c-0.4,0-0.8-0.2-1-0.6l-3.9-7.8c-0.3-0.5-0.1-1.2,0.5-1.4c0.5-0.3,1.2-0.1,1.4,0.5l3.6,7.2h2.7
			c0.6,0,1.1,0.5,1.1,1.1S61.9,63.5,61.3,63.5z"/>
		<path d="M14,63.5h-3.3c-0.6,0-1.1-0.5-1.1-1.1s0.5-1.1,1.1-1.1h2.7l3.6-7.2c0.3-0.5,0.9-0.7,1.4-0.5c0.5,0.3,0.7,0.9,0.5,1.4
			l-3.9,7.8C14.8,63.3,14.4,63.5,14,63.5z"/>
	</g>
	<path d="M36,21.4c-0.6,0-1.1-0.5-1.1-1.1v-5.9c0-0.6,0.5-1.1,1.1-1.1s1.1,0.5,1.1,1.1v5.9C37.1,20.9,36.6,21.4,36,21.4z"/>
	<path d="M36,15.5c-1.9,0-3.5-1.6-3.5-3.5s1.6-3.5,3.5-3.5s3.5,1.6,3.5,3.5S37.9,15.5,36,15.5z M36,10.7c-0.7,0-1.3,0.6-1.3,1.3
		c0,0.7,0.6,1.3,1.3,1.3s1.3-0.6,1.3-1.3C37.3,11.3,36.7,10.7,36,10.7z"/>
</g>
<path class="st0" d="M34.2,36.7v-0.9c0-0.7,0.2-1.4,0.5-2c0.5-0.7,1.1-1.3,1.8-1.8c0.6-0.4,1.2-0.9,1.7-1.5c0.3-0.4,0.4-0.8,0.4-1.3
	c0-0.5-0.2-0.9-0.6-1.2c-0.5-0.3-1-0.4-1.6-0.4c-1.2,0-2.6,0.4-4.1,1.2l-1.3-2.6c1.7-1,3.7-1.5,5.7-1.5c1.7,0,3,0.4,4,1.2
	c1,0.8,1.5,2,1.5,3.2c0,0.8-0.2,1.6-0.6,2.3c-0.4,0.6-1.2,1.4-2.3,2.2c-0.5,0.4-1,0.8-1.5,1.3c-0.2,0.3-0.3,0.8-0.3,1.2v0.7
	L34.2,36.7L34.2,36.7z"/>
<path class="st1" d="M33.8,40.9c0-0.6,0.2-1.1,0.5-1.5c0.4-0.4,1-0.6,1.6-0.5c0.6,0,1.1,0.2,1.6,0.5c0.7,0.9,0.7,2.2,0,3
	c-0.4,0.4-1,0.6-1.5,0.5c-0.6,0-1.1-0.2-1.6-0.5C33.9,42,33.7,41.4,33.8,40.9L33.8,40.9z"/>
</svg>
