<svg xmlns="http://www.w3.org/2000/svg" xml:space="preserve" id="draw" x="0" y="0" version="1.1" viewBox="0 0 288 288">
    <style>
        .st0{fill:#fff}
    </style>
    <path d="M144 229.8c-69.8 0-144-17.3-144-49.3 0-17.2 23.3-32.3 63.9-41.3 2.3-.5 4.7 1 5.2 3.3.5 2.4-1 4.7-3.3 5.2-34.7 7.7-57.1 20.5-57.1 32.8C8.7 199.7 64.3 221 144 221s135.3-21.4 135.3-40.5c0-12.2-22.4-25.1-57.1-32.8-2.4-.5-3.8-2.9-3.3-5.2.5-2.4 2.9-3.8 5.2-3.3 40.6 9 63.9 24.1 63.9 41.3 0 32-74.2 49.3-144 49.3" class="st0"/>
    <path d="M144 191.9c-41.3 0-85.1-10.6-85.1-30.3 0-2.4 2-4.4 4.4-4.4s4.4 2 4.4 4.4c0 9 29.1 21.6 76.4 21.6s76.4-12.6 76.4-21.6c0-2.4 2-4.4 4.4-4.4s4.4 2 4.4 4.4c-.2 19.6-44.1 30.3-85.3 30.3" class="st0"/>
    <path d="M225.2 165.9c-2.4 0-4.4-2-4.4-4.4 0-42.4-34.5-76.8-76.8-76.8-42.4 0-76.8 34.5-76.8 76.8 0 2.4-.5 4.1-2.9 4.1s-5.8-1.7-5.8-4.1C58.4 114.4 96.8 76 144 76s85.6 38.4 85.6 85.6c-.1 2.4-2 4.3-4.4 4.3M246.9 255.5h-13.6c-1.6 0-3.2-.9-3.9-2.4l-16-31.6c-1.1-2.1-.2-4.8 1.9-5.9s4.8-.2 5.9 1.9l14.8 29.2h10.9c2.4 0 4.4 2 4.4 4.4-.1 2.4-2 4.4-4.4 4.4M54.7 255.6H41.1c-2.4 0-4.4-2-4.4-4.4s2-4.4 4.4-4.4H52l14.8-29.2c1.1-2.1 3.7-3 5.9-1.9s3 3.7 1.9 5.9l-16 31.6c-.8 1.5-2.3 2.4-3.9 2.4" class="st0"/>
    <path d="M144 84.7c-2.4 0-4.4-2-4.4-4.4v-24c0-2.4 2-4.4 4.4-4.4s4.4 2 4.4 4.4v24c-.1 2.5-2 4.4-4.4 4.4" class="st0"/>
    <path d="M144 60.7c-7.8 0-14.2-6.4-14.2-14.2s6.4-14.2 14.2-14.2 14.2 6.4 14.2 14.2-6.4 14.2-14.2 14.2m0-19.6c-3 0-5.5 2.4-5.5 5.5 0 3 2.4 5.5 5.5 5.5s5.5-2.4 5.5-5.5c-.1-3.1-2.5-5.5-5.5-5.5" class="st0"/>
    <path d="M136.6 147v-3.6c-.1-2.9.6-5.7 2-8.2 1.9-2.9 4.4-5.5 7.4-7.4 2.5-1.6 4.8-3.7 6.8-6 1.1-1.5 1.7-3.3 1.6-5.1.1-1.9-.8-3.8-2.4-4.9-2-1.2-4.3-1.8-6.6-1.7q-7.35 0-16.8 4.8l-5.3-10.7c7.1-4 15.1-6.1 23.2-6.1 6.7 0 12.1 1.6 16.1 4.9 3.9 3.1 6.1 7.9 6 13 .1 3.3-.8 6.5-2.5 9.3-1.6 2.6-4.7 5.6-9.3 8.8-2.2 1.5-4.2 3.3-6 5.3-.9 1.4-1.3 3.1-1.3 4.8v2.9l-12.9-.1z" style="fill:#ff442b;stroke:#000;stroke-linejoin:round;stroke-miterlimit:10"/>
    <path d="M135 163.7c-.2-2.3.6-4.6 2.2-6.2 1.8-1.5 4.1-2.3 6.4-2.1 2.3-.1 4.6.6 6.3 2.2 3 3.6 3 8.7 0 12.3-1.7 1.6-4 2.4-6.3 2.2-2.3.1-4.6-.6-6.4-2.2-1.5-1.7-2.3-3.9-2.2-6.2z" style="fill:#ff442b;stroke:#000;stroke-miterlimit:10"/>
</svg>
