<svg xmlns="http://www.w3.org/2000/svg" xml:space="preserve" width="231.69" height="259.179">
    <path d="m116.418 164.468 87.763 23.096v57.995h-90.329z" style="fill:#4ec3e8;fill-opacity:1;stroke:#000;stroke-width:.46402889;stroke-linecap:butt;stroke-linejoin:miter;stroke-miterlimit:4;stroke-dasharray:none;stroke-opacity:1"/>
    <path d="m111.286 164.468-87.763 23.096v57.995h90.33Z" style="fill:#4ec3e8;fill-opacity:1;stroke:#000;stroke-width:.46402889;stroke-linecap:butt;stroke-linejoin:miter;stroke-miterlimit:4;stroke-dasharray:none;stroke-opacity:1"/>
    <path d="M23.579 75.1H206.11v5.013H23.579z" style="fill:#fff;fill-opacity:1;stroke:#000;stroke-width:.36464161;stroke-miterlimit:4;stroke-dasharray:none;stroke-opacity:1"/>
    <g style="opacity:.8">
        <ellipse cx="50.994" cy="50.994" rx="50.993" ry="51.004" style="fill:#159e1f" transform="rotate(-45.162 88.14 50.612)scale(.46865)"/>
    </g>
    <path d="M73.23 133.203c7.201-7.643 8.442-12.486 9.723-19l-12.187-.125c2.57 4.09 3.318 10.99 2.465 19.125" style="opacity:1;fill:#fff;fill-opacity:1;fill-rule:evenodd;stroke:none;stroke-width:1px;stroke-linecap:butt;stroke-linejoin:miter;stroke-opacity:1" transform="rotate(82.829 16.01 69.272)scale(.54622)"/>
    <path d="M223.947 38.426a34.1 34.1 0 0 1-11.584 9.19" style="opacity:1;fill:none;fill-opacity:1;fill-rule:evenodd;stroke:#ffffec;stroke-width:2.51338577;stroke-linecap:butt;stroke-linejoin:miter;stroke-miterlimit:4;stroke-dasharray:none;stroke-opacity:1" transform="rotate(18.682 -136.4 -213.14)scale(.54622)"/>
    <path d="M73.23 133.203c7.201-7.643 8.442-12.486 9.723-19l-12.187-.125c2.57 4.09 3.318 10.99 2.465 19.125" style="opacity:1;fill:#fff;fill-opacity:1;fill-rule:evenodd;stroke:none;stroke-width:1px;stroke-linecap:butt;stroke-linejoin:miter;stroke-opacity:1" transform="rotate(-96.529 31.267 70.459)scale(.54622)"/>
    <path d="M223.947 38.426a34.1 34.1 0 0 1-11.584 9.19" style="opacity:1;fill:none;fill-opacity:1;fill-rule:evenodd;stroke:#ffffec;stroke-width:2.51338577;stroke-linecap:butt;stroke-linejoin:miter;stroke-miterlimit:4;stroke-dasharray:none;stroke-opacity:1" transform="rotate(-160.676 71.956 51.333)scale(.54622)"/>
    <g style="font-style:normal;font-variant:normal;font-weight:400;font-stretch:normal;font-size:33.33333588px;line-height:125%;font-family:sans-serif;-inkscape-font-specification:sans-serif;letter-spacing:0;word-spacing:0;fill:#fff;fill-opacity:1;stroke:none;stroke-width:1px;stroke-linecap:butt;stroke-linejoin:miter;stroke-opacity:1">
        <path d="M44.183 269.769q.267-8.167 7.8-8.2 4.034 0 6.167 2.667 1.4 1.833 1.4 4.266-.033 4.4-5 7.134l-3.333 1.8q-3.1 1.666-3.9 3.533-.267.6-.367 1.333h12.433v2.9H43.65q.233-4.266 1.9-6.5 1.433-1.866 4.733-3.733l3.067-1.733q3.167-1.867 3.2-4.667 0-2.4-2-3.7-1.167-.733-2.667-.733-4.366 0-4.766 5.433v.2z" aria-label="2" style="font-style:normal;font-variant:normal;font-weight:400;font-stretch:normal;font-size:33.33333588px;font-family:FreeSans;-inkscape-font-specification:FreeSans;fill:#fff;fill-opacity:1" transform="matrix(.6174 0 0 .6174 -21.918 -90.942)"/>
    </g>
    <g style="opacity:.8">
        <ellipse cx="240.427" cy="51.629" rx="50.993" ry="51.004" style="fill:#4ec3e8" transform="rotate(-44.838 223.958 -64.786)scale(.46865)"/>
    </g>
    <path d="M73.23 133.203c7.201-7.643 8.442-12.486 9.723-19l-12.187-.125c2.57 4.09 3.318 10.99 2.465 19.125" style="opacity:1;fill:#fff;fill-opacity:1;fill-rule:evenodd;stroke:none;stroke-width:1px;stroke-linecap:butt;stroke-linejoin:miter;stroke-opacity:1" transform="matrix(-.06819 .54195 .54195 .06819 150.76 44.739)"/>
    <path d="M223.947 38.426a34.1 34.1 0 0 1-11.584 9.19" style="opacity:1;fill:none;fill-opacity:1;fill-rule:evenodd;stroke:#ffffec;stroke-width:2.51338577;stroke-linecap:butt;stroke-linejoin:miter;stroke-miterlimit:4;stroke-dasharray:none;stroke-opacity:1" transform="matrix(-.51744 .17496 .17496 .51744 308.958 32.46)"/>
    <path d="M73.23 133.203c7.201-7.643 8.442-12.486 9.723-19l-12.187-.125c2.57 4.09 3.318 10.99 2.465 19.125" style="opacity:1;fill:#fff;fill-opacity:1;fill-rule:evenodd;stroke:none;stroke-width:1px;stroke-linecap:butt;stroke-linejoin:miter;stroke-opacity:1" transform="scale(.54622 -.54622)rotate(83.471 355.569 172.325)"/>
    <path d="M223.947 38.426a34.1 34.1 0 0 1-11.584 9.19" style="opacity:1;fill:none;fill-opacity:1;fill-rule:evenodd;stroke:#ffffec;stroke-width:2.51338577;stroke-linecap:butt;stroke-linejoin:miter;stroke-miterlimit:4;stroke-dasharray:none;stroke-opacity:1" transform="scale(.54622 -.54622)rotate(19.324 762.987 465.41)"/>
    <g aria-label="2" style="font-style:normal;font-variant:normal;font-weight:400;font-stretch:normal;font-size:33.33333588px;line-height:125%;font-family:sans-serif;-inkscape-font-specification:sans-serif;letter-spacing:0;word-spacing:0;fill:#fff;fill-opacity:1;stroke:none;stroke-width:1px;stroke-linecap:butt;stroke-linejoin:miter;stroke-opacity:1">
        <path d="M241.08 13.716h-5.233v-2.1q3.4-.433 4.4-1.2 1-.733 1.7-3.1l.133-.4h1.934V30.55h-2.934z" aria-label="1" style="font-style:normal;font-variant:normal;font-weight:400;font-stretch:normal;font-size:33.33333588px;font-family:FreeSans;-inkscape-font-specification:FreeSans;fill:#fff;fill-opacity:1" transform="matrix(.66142 0 0 .66142 62.926 64.195)"/>
    </g>
    <g style="opacity:1;stroke:#000;stroke-width:.26952961;stroke-miterlimit:4;stroke-dasharray:none;stroke-opacity:1">
        <ellipse cx="240.427" cy="51.629" rx="50.993" ry="51.004" style="fill:#4ec3e8;stroke:#000;stroke-width:.2695311;stroke-miterlimit:4;stroke-dasharray:none;stroke-opacity:1" transform="scale(1.35784 2.5344)rotate(-44.838 162.183 239.578)"/>
    </g>
    <path stroke-miterlimit="10" d="M27.962 73.741a5.132 5.132 0 1 0-.02 7.268 5.117 5.117 0 0 0 .02-7.268zM210.324 73.548a5.132 5.132 0 1 0-.02 7.267 5.117 5.117 0 0 0 .052-7.236z" style="fill:#fff;stroke:#000;stroke-width:.45766735;stroke-miterlimit:10"/>
    <path stroke-miterlimit="10" d="m127.468 168.211 18.177-51 18.178 51z" style="fill:#ff442b;stroke:#000;stroke-miterlimit:10" transform="matrix(.57542 0 0 .57542 31.802 -6.245)"/>
    <path d="M113.519 180.069v65.695l2.652-.02V180.07z" style="fill:none;stroke:#000;stroke-width:.5;stroke-linecap:butt;stroke-linejoin:miter;stroke-miterlimit:4;stroke-dasharray:none;stroke-opacity:1"/>
</svg>
