<svg xmlns="http://www.w3.org/2000/svg" xml:space="preserve" width="161.994" height="305.808">
    <path d="M50.274 279.305s-15.666.669-28.332 26l59.055.002h59.055c-12.667-25.332-28.332-26-28.332-26l-21.256-.002V218.75c0-16.083 1.7-16.817 2.976-19.049.843-1.477 27.942-30.738 27.942-30.738V59.75c0-47.25-40.385-47.258-40.385-47.258S40.612 12.5 40.612 59.75v109.213s27.099 29.262 27.94 30.738c1.274 2.232 2.978 2.966 2.978 19.05v60.554z" style="fill:#4ec3e8;stroke:#000;stroke-linecap:round;stroke-linejoin:round"/>
    <g style="opacity:.8" transform="translate(.002 1.433)">
        <ellipse cx="80.998" cy="132.01" rx="80.989" ry="81.006" style="fill:#159e1f" transform="rotate(-44.838 81.006 132.017)"/>
    </g>
    <path stroke-miterlimit="10" d="M88.943 124.55c-4.374-4.385-11.473-4.394-15.858-.02-4.384 4.373-4.393 11.472-.02 15.856 4.365 4.376 11.447 4.395 15.835.042 4.396-4.335 4.446-11.414.11-15.81z" style="fill:#fff;stroke:#000;stroke-miterlimit:10"/>
    <g stroke-miterlimit="10">
        <path d="M154.731 258.153h78.11v13l-78.11.016z" style="fill:#159e1f;stroke:#000;stroke-miterlimit:10" transform="translate(-112.789 34.139)"/>
        <path d="m191.395 270.987-2-25.667h8.833l-2 25.667z" style="fill:#159e1f;stroke:#000;stroke-miterlimit:10" transform="translate(-112.789 34.139)"/>
    </g>
    <ellipse cx="80.997" cy="6.069" rx="35.607" ry="6.069" style="opacity:.8;fill:#4ec3e8;stroke-width:1.18758416"/>
</svg>
