<svg xmlns="http://www.w3.org/2000/svg" xml:space="preserve" viewBox="0 0 110 343.949">
    <path fill="#4EC3E8" stroke="#000" stroke-miterlimit="10" d="M54.989.5s3.355.53 13.772 19.425 35.312 61.453 37.783 140.918 4.237 177.295 1.766 180.12-52.967 2.472-52.967 2.472h-.684s-50.5.353-52.967-2.472-.706-100.655 1.766-180.12S30.824 38.82 41.241 19.925 55.013.5 55.013.5h-.024z"/>
    <path fill="#4EC3E8" stroke="#000" stroke-miterlimit="10" d="M91.735 182.739c-11.3-39.2-36.018-35.494-36.018-35.494s-24.718-3.708-36.018 35.494-1.059 143.39 1.059 160.342c6.938 0 25.051.162 36.017.267v.087l3.612-.052 5.216.052-.006-.122c7.806-.1 18.889-.231 25.078-.231 2.12-16.953 12.36-121.14 1.06-160.343z"/>
    <path fill="#FFF" stroke="#000" stroke-miterlimit="10" d="M55.717 190.155c18.783 0 34.82 19.645 41.233 47.343-.1-21.692-1.475-41.785-5.215-54.759-11.3-39.2-36.018-35.494-36.018-35.494s-24.718-3.708-36.018 35.494c-3.74 12.974-5.119 33.068-5.215 54.76 6.416-27.698 22.45-47.344 41.233-47.344z"/>
    <path fill="#159E1F" stroke="#000" stroke-miterlimit="10" d="m55.717 308.009-44.097 8.377v14.323l44.097.133v.012l44.098-.133v-14.324z"/>
</svg>
