<?xml version="1.0" encoding="utf-8"?>
<!-- Generator: Adobe Illustrator 19.2.0, SVG Export Plug-In . SVG Version: 6.00 Build 0)  -->
<!DOCTYPE svg PUBLIC "-//W3C//DTD SVG 1.1//EN" "http://www.w3.org/Graphics/SVG/1.1/DTD/svg11.dtd">
<svg version="1.1" id="draw" xmlns="http://www.w3.org/2000/svg" xmlns:xlink="http://www.w3.org/1999/xlink" x="0px" y="0px"
	 viewBox="0 0 110 343.949" enable-background="new 0 0 110 343.949" xml:space="preserve">
<title>Boat</title>
<path fill="#4EC3E8" stroke="#000000" stroke-miterlimit="10" d="M54.989,0.5c0,0,3.355,0.53,13.772,19.425
	s35.312,61.453,37.783,140.918s4.237,177.295,1.766,180.12s-52.967,2.472-52.967,2.472h-0.684c0,0-50.5,0.353-52.967-2.472
	s-0.706-100.655,1.766-180.12S30.824,38.82,41.241,19.925S55.013,0.5,55.013,0.5h-0.022H54.989z"/>
<path fill="#4EC3E8" stroke="#000000" stroke-miterlimit="10" d="M91.735,182.739c-11.3-39.2-36.018-35.494-36.018-35.494
	s-24.718-3.708-36.018,35.494s-1.059,143.39,1.059,160.342c6.938,0,25.051,0.162,36.017,0.267v0.087l3.612-0.052l5.216,0.052
	l-0.006-0.122c7.806-0.1,18.889-0.231,25.078-0.231C92.795,326.129,103.035,221.942,91.735,182.739z"/>
<path fill="#FFFFFF" stroke="#000000" stroke-miterlimit="10" d="M55.717,190.155c18.783,0,34.82,19.645,41.233,47.343
	c-0.1-21.692-1.475-41.785-5.215-54.759c-11.3-39.2-36.018-35.494-36.018-35.494s-24.718-3.708-36.018,35.494
	c-3.74,12.974-5.119,33.068-5.215,54.76C20.9,209.801,36.934,190.155,55.717,190.155z"/>
<polygon fill="#159E1F" stroke="#000000" stroke-miterlimit="10" points="55.717,308.009 11.62,316.386 11.62,330.709 
	55.717,330.842 55.717,330.854 99.815,330.721 99.815,316.397 "/>
</svg>
