<svg id="proposal" xmlns="http://www.w3.org/2000/svg" viewBox="0 0 110 343.95"><defs><style>.cls-1{fill:#4ec3e8;}.cls-1,.cls-2,.cls-3{stroke:#000;stroke-miterlimit:10;}.cls-2{fill:#fff;}.cls-3{fill:#159e1f;}</style></defs><title>AirframeBoat</title><path class="cls-1" d="M2073.56,2105.13s3.35,0.53,13.77,19.42,35.31,61.45,37.78,140.92,4.24,177.29,1.77,180.12-53,2.47-53,2.47h-0.68s-50.5.35-53-2.47-0.71-100.66,1.77-180.12,27.37-122,37.78-140.92,13.77-19.42,13.77-19.42h0Z" transform="translate(-2018.57 -2104.63)"/><path class="cls-1" d="M2110.3,2287.37c-11.3-39.2-36-35.49-36-35.49s-24.72-3.71-36,35.49-1.06,143.39,1.06,160.34c6.94,0,25.05.16,36,.27v0.09l3.61-.05,5.22,0.05v-0.12c7.81-.1,18.89-0.23,25.08-0.23C2111.36,2430.76,2121.6,2326.57,2110.3,2287.37Z" transform="translate(-2018.57 -2104.63)"/><path class="cls-2" d="M2074.28,2294.78c18.78,0,34.82,19.64,41.23,47.34-0.1-21.69-1.48-41.79-5.22-54.76-11.3-39.2-36-35.49-36-35.49s-24.72-3.71-36,35.49c-3.74,13-5.12,33.07-5.22,54.76C2039.46,2314.43,2055.5,2294.78,2074.28,2294.78Z" transform="translate(-2018.57 -2104.63)"/><polygon class="cls-3" points="55.72 308.01 11.62 316.39 11.62 330.71 55.72 330.84 55.72 330.85 99.81 330.72 99.81 316.4 55.72 308.01"/></svg>