<svg xmlns="http://www.w3.org/2000/svg" xml:space="preserve" viewBox="0 0 162 331.846">
    <path fill="#4EC3E8" stroke="#000" stroke-linecap="round" stroke-linejoin="round" d="M129.876 54.897h7v89.242h-7zM22.876 54.897h7v89.242h-7zM29.876 63.897h100v5h-100zM29.876 130.139h100v5h-100z"/>
    <path fill="#4EC3E8" stroke="#000" stroke-linecap="round" stroke-linejoin="round" d="M85 331.344c4.938 0 4.463-6.183 4.463-6.183v-34.2s33.037 4 39.287 4a3.74 3.74 0 0 0 4.093-4.207v-14.34c0-3.343-4.093-3.093-4.093-3.093l-39.283-4v-62.562c0-16.083 1.7-16.817 2.977-19.049.843-1.477 27.941-30.738 27.941-30.738V47.759C120.385.509 80 .5 80 .5S39.615.509 39.615 47.759v109.213s27.1 29.262 27.941 30.738c1.274 2.232 2.977 2.966 2.977 19.049v62.562l-39.283 4s-4.093-.249-4.093 3.093v14.345a3.74 3.74 0 0 0 4.093 4.207c6.25 0 39.287-4 39.287-4v34.2s-.475 6.183 4.463 6.183h10z"/>
    <path fill="#FFF" stroke="#000" stroke-miterlimit="10" d="M111.671 37.077c0-28.669-31.67-28.675-31.67-28.675s-31.67.005-31.67 28.675h63.341z"/>
    <ellipse cx="80.999" cy="162.012" fill="#4EC3E8" opacity=".8" rx="80.989" ry="81.006" transform="rotate(-44.838 81.007 162.021)"/>
    <ellipse cx="80.999" cy="132.011" fill="#159E1F" opacity=".8" rx="80.989" ry="81.006" transform="rotate(-44.838 81.008 132.018)"/>
    <path fill="#FFF" stroke="#000" stroke-miterlimit="10" d="M87.944 123.116c-4.374-4.384-11.473-4.393-15.858-.02s-4.393 11.473-.02 15.857c4.365 4.376 11.447 4.395 15.835.042 4.396-4.335 4.446-11.414.111-15.811z"/>
</svg>
