<svg xmlns="http://www.w3.org/2000/svg" xml:space="preserve" viewBox="0 0 369.157 333.567">
    <path fill="#FFF" stroke="#000" stroke-miterlimit="10" stroke-width=".99998" d="m114.856 52.75 5.868-3.389 133.572 231.347-5.868 3.388z"/>
    <path fill="#FFF" stroke="#000" stroke-miterlimit="10" d="M51 163.344h267.161v6.777H51z"/>
    <path fill="#FFF" stroke="#000" stroke-miterlimit="10" stroke-width=".99998" d="m114.851 280.724 133.58-231.362 5.87 3.389-133.58 231.361z"/>
    <path fill="#FFF" stroke="#000" stroke-miterlimit="10" d="m227.78 173.736-36.195 36.195c-3.869 3.869-10.141 3.869-14.009 0l-36.195-36.195c-3.869-3.869-3.869-10.141 0-14.009l36.195-36.195c3.869-3.869 10.141-3.869 14.009 0l36.195 36.195c3.869 3.869 3.869 10.141 0 14.009z"/>
    <path fill="#FF442B" stroke="#000" stroke-miterlimit="10" d="m166.403 188.733 18.177-51 18.178 51z"/>
    <ellipse cx="251.394" cy="51.026" fill="#4EC3E8" opacity=".8" rx="50.993" ry="51.004" transform="rotate(-44.838 251.412 51.024)"/>
    <path fill="#FFF" stroke="#000" stroke-miterlimit="10" d="M259.33 43.098c-4.374-4.384-11.473-4.393-15.858-.019s-4.393 11.473-.019 15.858c4.365 4.375 11.447 4.394 15.835.042 4.397-4.335 4.446-11.414.111-15.811z"/>
    <ellipse cx="51.002" cy="166.743" fill="#4EC3E8" opacity=".8" rx="50.993" ry="51.004" transform="rotate(-44.838 51.009 166.753)"/>
    <path fill="#FFF" stroke="#000" stroke-miterlimit="10" d="M43.06 174.65c4.374 4.384 11.473 4.393 15.858.019s4.393-11.473.019-15.858c-4.365-4.375-11.447-4.394-15.835-.042-4.397 4.335-4.446 11.414-.111 15.811z"/>
    <ellipse cx="117.759" cy="50.989" fill="#159E1F" opacity=".8" rx="50.993" ry="51.004" transform="rotate(-45.162 117.75 50.99)"/>
    <path fill="#FFF" stroke="#000" stroke-miterlimit="10" d="M125.679 43.06c4.384 4.374 4.393 11.473.019 15.858s-11.473 4.393-15.858.019c-4.375-4.365-4.394-11.447-.042-15.835 4.335-4.397 11.414-4.446 15.811-.111z"/>
    <ellipse cx="251.456" cy="282.556" fill="#4EC3E8" opacity=".8" rx="50.993" ry="51.004" transform="rotate(-45.162 251.43 282.547)"/>
    <path fill="#FFF" stroke="#000" stroke-miterlimit="10" d="M243.54 290.508c-4.384-4.374-4.393-11.473-.02-15.858s11.473-4.393 15.857-.02c4.376 4.365 4.395 11.447.042 15.835-4.335 4.397-11.414 4.446-15.811.111z"/>
    <ellipse cx="318.157" cy="166.721" fill="#159E1F" opacity=".8" rx="50.993" ry="51.004" transform="rotate(-45.162 318.132 166.721)"/>
    <path fill="#FFF" stroke="#000" stroke-miterlimit="10" d="M326.078 158.793c4.384 4.374 4.393 11.473.02 15.858s-11.473 4.393-15.857.02c-4.376-4.365-4.395-11.447-.042-15.835 4.335-4.397 11.414-4.446 15.811-.111z"/>
    <ellipse cx="117.759" cy="282.454" fill="#159E1F" opacity=".8" rx="50.993" ry="51.004" transform="rotate(-45.162 117.742 282.44)"/>
    <path fill="#FFF" stroke="#000" stroke-miterlimit="10" d="M125.68 274.525c4.384 4.374 4.393 11.473.019 15.858s-11.473 4.393-15.858.019c-4.375-4.365-4.394-11.447-.042-15.835 4.335-4.397 11.414-4.446 15.811-.111z"/>
</svg>
