<?xml version="1.0" encoding="utf-8"?>
<!-- Generator: Adobe Illustrator 19.2.0, SVG Export Plug-In . SVG Version: 6.00 Build 0)  -->
<!DOCTYPE svg PUBLIC "-//W3C//DTD SVG 1.1//EN" "http://www.w3.org/Graphics/SVG/1.1/DTD/svg11.dtd">
<svg version="1.1" id="draw" xmlns="http://www.w3.org/2000/svg" xmlns:xlink="http://www.w3.org/1999/xlink" x="0px" y="0px"
	 viewBox="0 0 334.357 369.857" enable-background="new 0 0 334.357 369.857" xml:space="preserve">
<title>HexaRotorPlus</title>
<rect x="164.067" y="51.713" fill="#FFFFFF" stroke="#000000" stroke-miterlimit="10" width="6.777" height="267.144"/>
<rect x="164.068" y="51.705" transform="matrix(0.5 -0.866 0.866 0.5 -76.7338 237.6638)" fill="#FFFFFF" stroke="#000000" stroke-miterlimit="10" width="6.777" height="267.161"/>
<rect x="33.875" y="181.896" transform="matrix(0.866 -0.5 0.5 0.866 -70.2073 108.5511)" fill="#FFFFFF" stroke="#000000" stroke-miterlimit="10" width="267.161" height="6.777"/>
<path fill="#FFFFFF" stroke="#000000" stroke-miterlimit="10" d="M210.656,192.289l-36.195,36.195
	c-3.869,3.869-10.141,3.869-14.009,0l-36.195-36.195c-3.869-3.869-3.869-10.141,0-14.009l36.195-36.195
	c3.869-3.869,10.141-3.869,14.009,0l36.195,36.195C214.524,182.149,214.524,188.421,210.656,192.289z"/>
<polygon fill="#FF442B" stroke="#000000" stroke-miterlimit="10" points="149.278,207.285 167.456,156.285 185.633,207.285 "/>
<g opacity="0.8">
	
		<ellipse transform="matrix(0.7091 -0.7051 0.7051 0.7091 -1.0807 234.2134)" fill="#4EC3E8" cx="283.293" cy="118.416" rx="50.993" ry="51.004"/>
</g>
<path fill="#FFFFFF" stroke="#000000" stroke-miterlimit="10" d="M291.233,110.49c-4.374-4.384-11.473-4.393-15.858-0.019
	c-4.384,4.374-4.393,11.473-0.019,15.858c4.365,4.375,11.447,4.394,15.835,0.042c4.397-4.335,4.446-11.414,0.111-15.811
	C291.279,110.536,291.256,110.513,291.233,110.49z"/>
<g opacity="0.8">
	
		<ellipse transform="matrix(0.7091 -0.7051 0.7051 0.7091 -68.6616 70.4139)" fill="#4EC3E8" cx="51.001" cy="118.415" rx="50.993" ry="51.004"/>
</g>
<path fill="#FFFFFF" stroke="#000000" stroke-miterlimit="10" d="M43.06,126.324c4.374,4.384,11.473,4.393,15.858,0.019
	c4.384-4.374,4.393-11.473,0.019-15.858c-4.365-4.375-11.447-4.394-15.835-0.042c-4.397,4.335-4.446,11.414-0.111,15.811
	C43.014,126.278,43.037,126.301,43.06,126.324z"/>
<g opacity="0.8">
	
		<ellipse transform="matrix(0.7051 -0.7091 0.7091 0.7051 13.2533 133.8533)" fill="#159E1F" cx="167.57" cy="50.991" rx="50.993" ry="51.004"/>
</g>
<path fill="#FFFFFF" stroke="#000000" stroke-miterlimit="10" d="M175.49,43.06c4.384,4.374,4.393,11.473,0.019,15.858
	c-4.374,4.384-11.473,4.393-15.858,0.019c-4.375-4.365-4.394-11.447-0.042-15.835c4.335-4.397,11.414-4.446,15.811-0.111
	C175.444,43.014,175.467,43.037,175.49,43.06z"/>
<g opacity="0.8">
	
		<ellipse transform="matrix(0.7051 -0.7091 0.7091 0.7051 -176.7077 212.7515)" fill="#4EC3E8" cx="167.455" cy="318.846" rx="50.993" ry="51.004"/>
</g>
<path fill="#FFFFFF" stroke="#000000" stroke-miterlimit="10" d="M159.539,326.798c-4.384-4.374-4.393-11.473-0.019-15.858
	c4.374-4.384,11.473-4.393,15.858-0.019c4.375,4.365,4.394,11.447,0.042,15.835c-4.335,4.397-11.414,4.446-15.811,0.111
	C159.585,326.844,159.562,326.821,159.539,326.798z"/>
<g opacity="0.8">
	
		<ellipse transform="matrix(0.7051 -0.7091 0.7091 0.7051 -95.2711 275.2816)" fill="#159E1F" cx="283.359" cy="252.193" rx="50.993" ry="51.004"/>
</g>
<path fill="#FFFFFF" stroke="#000000" stroke-miterlimit="10" d="M291.277,244.262c4.384,4.374,4.393,11.473,0.019,15.858
	c-4.374,4.384-11.473,4.393-15.858,0.019c-4.375-4.365-4.394-11.447-0.042-15.835c4.335-4.397,11.414-4.446,15.811-0.111
	C291.231,244.216,291.254,244.239,291.277,244.262z"/>
<g opacity="0.8">
	
		<ellipse transform="matrix(0.7051 -0.7091 0.7091 0.7051 -163.6216 110.9148)" fill="#159E1F" cx="51.552" cy="252.194" rx="50.993" ry="51.004"/>
</g>
<path fill="#FFFFFF" stroke="#000000" stroke-miterlimit="10" d="M59.469,244.262c4.384,4.374,4.393,11.473,0.019,15.858
	c-4.374,4.384-11.473,4.393-15.858,0.019c-4.375-4.365-4.394-11.447-0.042-15.835c4.335-4.397,11.414-4.446,15.811-0.111
	C59.423,244.216,59.446,244.239,59.469,244.262z"/>
</svg>
