<svg xmlns="http://www.w3.org/2000/svg" xml:space="preserve" viewBox="0 0 334.357 369.857">
    <path fill="#FFF" stroke="#000" stroke-miterlimit="10" d="M164.067 51.713h6.777v267.144h-6.777z"/>
    <path fill="#FFF" stroke="#000" stroke-miterlimit="10" stroke-width=".99998" d="m50.077 121.433 3.388-5.868 231.362 133.58-3.389 5.869z"/>
    <path fill="#FFF" stroke="#000" stroke-miterlimit="10" stroke-width=".99998" d="m50.076 249.136 231.362-133.581 3.388 5.869-231.361 133.58z"/>
    <path fill="#FFF" stroke="#000" stroke-miterlimit="10" d="m210.656 192.289-36.195 36.195c-3.869 3.869-10.141 3.869-14.009 0l-36.195-36.195c-3.869-3.869-3.869-10.141 0-14.009l36.195-36.195c3.869-3.869 10.141-3.869 14.009 0l36.195 36.195c3.868 3.869 3.868 10.141 0 14.009z"/>
    <path fill="#FF442B" stroke="#000" stroke-miterlimit="10" d="m149.278 207.285 18.178-51 18.177 51z"/>
    <ellipse cx="283.293" cy="118.416" fill="#4EC3E8" opacity=".8" rx="50.993" ry="51.004" transform="rotate(-44.838 283.315 118.419)"/>
    <path fill="#FFF" stroke="#000" stroke-miterlimit="10" d="M291.233 110.49c-4.374-4.384-11.473-4.393-15.858-.019s-4.393 11.473-.019 15.858c4.365 4.375 11.447 4.394 15.835.042 4.397-4.335 4.446-11.414.111-15.811z"/>
    <ellipse cx="51.001" cy="118.415" fill="#4EC3E8" opacity=".8" rx="50.993" ry="51.004" transform="rotate(-44.838 51.007 118.422)"/>
    <path fill="#FFF" stroke="#000" stroke-miterlimit="10" d="M43.06 126.324c4.374 4.384 11.473 4.393 15.858.019s4.393-11.473.019-15.858c-4.365-4.375-11.447-4.394-15.835-.042-4.397 4.335-4.446 11.414-.111 15.811z"/>
    <ellipse cx="167.57" cy="50.991" fill="#159E1F" opacity=".8" rx="50.993" ry="51.004" transform="rotate(-45.162 167.558 50.994)"/>
    <path fill="#FFF" stroke="#000" stroke-miterlimit="10" d="M175.49 43.06c4.384 4.374 4.393 11.473.019 15.858s-11.473 4.393-15.858.019c-4.375-4.365-4.394-11.447-.042-15.835 4.335-4.397 11.414-4.446 15.811-.111z"/>
    <ellipse cx="167.455" cy="318.846" fill="#4EC3E8" opacity=".8" rx="50.993" ry="51.004" transform="rotate(-45.162 167.434 318.833)"/>
    <path fill="#FFF" stroke="#000" stroke-miterlimit="10" d="M159.539 326.798c-4.384-4.374-4.393-11.473-.019-15.858s11.473-4.393 15.858-.019c4.375 4.365 4.394 11.447.042 15.835-4.335 4.397-11.414 4.446-15.811.111z"/>
    <ellipse cx="283.359" cy="252.193" fill="#159E1F" opacity=".8" rx="50.993" ry="51.004" transform="rotate(-45.162 283.333 252.187)"/>
    <path fill="#FFF" stroke="#000" stroke-miterlimit="10" d="M291.277 244.262c4.384 4.374 4.393 11.473.019 15.858s-11.473 4.393-15.858.019c-4.375-4.365-4.394-11.447-.042-15.835 4.335-4.397 11.414-4.446 15.811-.111z"/>
    <ellipse cx="51.552" cy="252.194" fill="#159E1F" opacity=".8" rx="50.993" ry="51.004" transform="rotate(-45.162 51.54 252.18)"/>
    <path fill="#FFF" stroke="#000" stroke-miterlimit="10" d="M59.469 244.262c4.384 4.374 4.393 11.473.019 15.858s-11.473 4.393-15.858.019c-4.375-4.365-4.394-11.447-.042-15.835 4.335-4.397 11.414-4.446 15.811-.111z"/>
</svg>
