<svg xmlns="http://www.w3.org/2000/svg" xml:space="preserve" viewBox="0 0 292.891 321.77">
    <ellipse cx="50.998" cy="80.988" fill="#4EC3E8" opacity=".8" rx="50.993" ry="51.004" transform="rotate(-45.162 50.992 80.985)"/>
    <ellipse cx="53.018" cy="270.783" fill="#159E1F" opacity=".8" rx="50.993" ry="51.004" transform="rotate(-44.838 53.027 270.8)"/>
    <ellipse cx="241.845" cy="270.616" fill="#4EC3E8" opacity=".8" rx="50.993" ry="51.004" transform="rotate(-45.162 241.821 270.608)"/>
    <ellipse cx="241.891" cy="81.633" fill="#159E1F" opacity=".8" rx="50.993" ry="51.004" transform="rotate(-44.838 241.91 81.633)"/>
    <path fill="#FFF" stroke="#000" stroke-miterlimit="10" stroke-width=".99999" d="M50.267 238.265 239.164 49.367l4.792 4.792L55.06 243.057z"/>
    <path fill="#FFF" stroke="#000" stroke-miterlimit="10" stroke-width=".99999" d="m50.26 54.153 4.792-4.792 188.91 188.91-4.792 4.791z"/>
    <path fill="#FFF" stroke="#000" stroke-miterlimit="10" d="m190.313 153.216-36.195 36.195c-3.869 3.869-10.141 3.869-14.009 0l-36.195-36.195c-3.869-3.869-3.869-10.141 0-14.009l36.195-36.195c3.869-3.869 10.141-3.869 14.009 0l36.195 36.195c3.869 3.868 3.869 10.14 0 14.009z"/>
    <path fill="#FF442B" stroke="#000" stroke-miterlimit="10" d="m128.936 168.211 18.177-51 18.178 51z"/>
    <ellipse cx="241.891" cy="51.633" fill="#4EC3E8" opacity=".8" rx="50.993" ry="51.004" transform="rotate(-44.838 241.908 51.631)"/>
    <path fill="#FFF" stroke="#000" stroke-miterlimit="10" d="M249.832 43.704c-4.374-4.384-11.473-4.393-15.858-.019s-4.393 11.473-.019 15.858c4.365 4.375 11.447 4.394 15.835.042 4.397-4.335 4.446-11.414.111-15.811z"/>
    <ellipse cx="53.018" cy="240.783" fill="#4EC3E8" opacity=".8" rx="50.993" ry="51.004" transform="rotate(-44.838 53.026 240.798)"/>
    <path fill="#FFF" stroke="#000" stroke-miterlimit="10" d="M45.08 248.69c4.374 4.384 11.473 4.393 15.858.019s4.393-11.473.019-15.858c-4.365-4.375-11.447-4.394-15.835-.042-4.397 4.335-4.446 11.414-.111 15.811z"/>
    <ellipse cx="52.464" cy="50.99" fill="#159E1F" opacity=".8" rx="50.993" ry="51.004" transform="rotate(-45.162 52.46 50.989)"/>
    <path fill="#FFF" stroke="#000" stroke-miterlimit="10" d="M60.382 43.059c4.384 4.374 4.393 11.473.019 15.858s-11.473 4.393-15.858.019c-4.375-4.365-4.394-11.447-.042-15.835 4.335-4.397 11.414-4.446 15.811-.111z"/>
    <ellipse cx="241.845" cy="240.616" fill="#159E1F" opacity=".8" rx="50.993" ry="51.004" transform="rotate(-45.162 241.822 240.61)"/>
    <path fill="#FFF" stroke="#000" stroke-miterlimit="10" d="M233.927 248.565c-4.384-4.374-4.393-11.473-.019-15.858s11.473-4.393 15.858-.019c4.375 4.365 4.394 11.447.042 15.835-4.335 4.397-11.414 4.446-15.811.111z"/>
</svg>
