<?xml version="1.0" encoding="utf-8"?>
<!-- Generator: Adobe Illustrator 19.2.0, SVG Export Plug-In . SVG Version: 6.00 Build 0)  -->
<!DOCTYPE svg PUBLIC "-//W3C//DTD SVG 1.1//EN" "http://www.w3.org/Graphics/SVG/1.1/DTD/svg11.dtd">
<svg version="1.1" id="draw" xmlns="http://www.w3.org/2000/svg" xmlns:xlink="http://www.w3.org/1999/xlink" x="0px" y="0px"
	 viewBox="0 0 292.891 321.77" enable-background="new 0 0 292.891 321.77" xml:space="preserve">
<title>OctoRotorXCoaxial</title>
<g opacity="0.8">
	
		<ellipse transform="matrix(0.7051 -0.7091 0.7091 0.7051 -42.389 60.0411)" fill="#4EC3E8" cx="50.998" cy="80.988" rx="50.993" ry="51.004"/>
</g>
<g opacity="0.8">
	
		<ellipse transform="matrix(0.7091 -0.7051 0.7051 0.7091 -175.5156 116.1654)" fill="#159E1F" cx="53.018" cy="270.783" rx="50.993" ry="51.004"/>
</g>
<g opacity="0.8">
	
		<ellipse transform="matrix(0.7051 -0.7091 0.7091 0.7051 -120.5748 251.2775)" fill="#4EC3E8" cx="241.845" cy="270.616" rx="50.993" ry="51.004"/>
</g>
<g opacity="0.8">
	
		<ellipse transform="matrix(0.7091 -0.7051 0.7051 0.7091 12.8117 194.3173)" fill="#159E1F" cx="241.891" cy="81.633" rx="50.993" ry="51.004"/>
</g>
<rect x="13.541" y="142.823" transform="matrix(0.7071 -0.7071 0.7071 0.7071 -60.2984 146.8492)" fill="#FFFFFF" stroke="#000000" stroke-miterlimit="10" width="267.144" height="6.777"/>
<rect x="143.725" y="12.631" transform="matrix(0.7071 -0.7071 0.7071 0.7071 -60.2989 146.8491)" fill="#FFFFFF" stroke="#000000" stroke-miterlimit="10" width="6.777" height="267.161"/>
<path fill="#FFFFFF" stroke="#000000" stroke-miterlimit="10" d="M190.313,153.216l-36.195,36.195
	c-3.869,3.869-10.141,3.869-14.009,0l-36.195-36.195c-3.869-3.869-3.869-10.141,0-14.009l36.195-36.195
	c3.869-3.869,10.141-3.869,14.009,0l36.195,36.195C194.182,143.075,194.182,149.347,190.313,153.216z"/>
<polygon fill="#FF442B" stroke="#000000" stroke-miterlimit="10" points="128.936,168.211 147.113,117.211 165.291,168.211 "/>
<g opacity="0.8">
	
		<ellipse transform="matrix(0.7091 -0.7051 0.7051 0.7091 33.9659 185.5891)" fill="#4EC3E8" cx="241.891" cy="51.633" rx="50.993" ry="51.004"/>
</g>
<path fill="#FFFFFF" stroke="#000000" stroke-miterlimit="10" d="M249.832,43.704c-4.374-4.384-11.473-4.393-15.858-0.019
	c-4.384,4.374-4.393,11.473-0.019,15.858c4.365,4.375,11.447,4.394,15.835,0.042c4.397-4.335,4.446-11.414,0.111-15.811
	C249.878,43.75,249.855,43.727,249.832,43.704z"/>
<g opacity="0.8">
	
		<ellipse transform="matrix(0.7091 -0.7051 0.7051 0.7091 -154.3615 107.4372)" fill="#4EC3E8" cx="53.018" cy="240.783" rx="50.993" ry="51.004"/>
</g>
<path fill="#FFFFFF" stroke="#000000" stroke-miterlimit="10" d="M45.08,248.69c4.374,4.384,11.473,4.393,15.858,0.019
	c4.384-4.374,4.393-11.473,0.019-15.858c-4.365-4.375-11.447-4.394-15.835-0.042c-4.397,4.335-4.446,11.414-0.111,15.811
	C45.034,248.644,45.057,248.667,45.08,248.69z"/>
<g opacity="0.8">
	
		<ellipse transform="matrix(0.7051 -0.7091 0.7091 0.7051 -20.6859 52.2355)" fill="#159E1F" cx="52.464" cy="50.99" rx="50.993" ry="51.004"/>
</g>
<path fill="#FFFFFF" stroke="#000000" stroke-miterlimit="10" d="M60.382,43.059c4.384,4.374,4.393,11.473,0.019,15.858
	c-4.374,4.384-11.473,4.393-15.858,0.019c-4.375-4.365-4.394-11.447-0.042-15.835c4.335-4.397,11.414-4.446,15.811-0.111
	C60.336,43.013,60.359,43.036,60.382,43.059z"/>
<g opacity="0.8">
	
		<ellipse transform="matrix(0.7051 -0.7091 0.7091 0.7051 -99.3026 242.4316)" fill="#159E1F" cx="241.845" cy="240.616" rx="50.993" ry="51.004"/>
</g>
<path fill="#FFFFFF" stroke="#000000" stroke-miterlimit="10" d="M233.927,248.565c-4.384-4.374-4.393-11.473-0.019-15.858
	c4.374-4.384,11.473-4.393,15.858-0.019c4.375,4.365,4.394,11.447,0.042,15.835c-4.335,4.397-11.414,4.446-15.811,0.111
	C233.973,248.611,233.95,248.588,233.927,248.565z"/>
</svg>
