<svg xmlns="http://www.w3.org/2000/svg" xml:space="preserve" viewBox="0 0 386.761 385.608">
    <path fill="#FFF" stroke="#000" stroke-miterlimit="10" stroke-width="1.00003" d="m131.485 52.216 6.261-2.593 117.544 283.77-6.261 2.594z"/>
    <path fill="#FFF" stroke="#000" stroke-miterlimit="10" stroke-width="1.00003" d="M50.198 248.45 333.984 130.9l2.594 6.26L52.79 254.712z"/>
    <path fill="#FFF" stroke="#000" stroke-miterlimit="10" stroke-width="1.00003" d="m131.484 333.391 117.544-283.77 6.261 2.593-117.544 283.77z"/>
    <path fill="#FFF" stroke="#000" stroke-miterlimit="10" stroke-width="1.00003" d="m50.198 137.16 2.593-6.262 283.786 117.55-2.593 6.262z"/>
    <path fill="#FFF" stroke="#000" stroke-miterlimit="10" d="m236.581 199.808-36.195 36.195c-3.869 3.869-10.141 3.869-14.009 0l-36.195-36.195c-3.869-3.869-3.869-10.141 0-14.009l36.195-36.195c3.869-3.869 10.141-3.869 14.009 0l36.195 36.195c3.868 3.869 3.868 10.141 0 14.009z"/>
    <path fill="#FF442B" stroke="#000" stroke-miterlimit="10" d="m175.203 214.804 18.177-51 18.178 51z"/>
    <ellipse cx="335.757" cy="251.788" fill="#159E1F" opacity=".8" rx="50.993" ry="51.004" transform="rotate(-44.838 335.784 251.798)"/>
    <path fill="#FFF" stroke="#000" stroke-miterlimit="10" d="M343.7 243.863c-4.374-4.384-11.473-4.393-15.858-.019s-4.393 11.473-.019 15.858c4.365 4.375 11.447 4.394 15.835.042 4.397-4.335 4.446-11.414.111-15.811z"/>
    <ellipse cx="50.995" cy="133.835" fill="#159E1F" opacity=".8" rx="50.993" ry="51.004" transform="rotate(-44.838 51.002 133.843)"/>
    <path fill="#FFF" stroke="#000" stroke-miterlimit="10" d="M43.06 141.746c4.374 4.384 11.473 4.393 15.858.019s4.393-11.473.019-15.858c-4.365-4.375-11.447-4.394-15.835-.042-4.397 4.335-4.446 11.414-.111 15.811z"/>
    <ellipse cx="252.121" cy="50.992" fill="#159E1F" opacity=".8" rx="50.993" ry="51.004" transform="rotate(-45.162 252.104 50.997)"/>
    <path fill="#FFF" stroke="#000" stroke-miterlimit="10" d="M260.035 43.06c4.384 4.374 4.393 11.473.019 15.858s-11.473 4.393-15.858.019c-4.376-4.365-4.394-11.447-.042-15.835 4.335-4.397 11.414-4.446 15.811-.111z"/>
    <ellipse cx="134.648" cy="334.601" fill="#159E1F" opacity=".8" rx="50.993" ry="51.004" transform="rotate(-45.162 134.629 334.585)"/>
    <path fill="#FFF" stroke="#000" stroke-miterlimit="10" d="M126.726 342.549c-4.384-4.374-4.393-11.473-.019-15.858s11.473-4.393 15.858-.019c4.376 4.365 4.394 11.447.042 15.835-4.335 4.397-11.414 4.446-15.811.111z"/>
    <ellipse cx="335.506" cy="133.939" fill="#4EC3E8" opacity=".8" rx="50.993" ry="51.004" transform="rotate(-44.838 335.532 133.942)"/>
    <path fill="#FFF" stroke="#000" stroke-miterlimit="10" d="M343.451 126.015c-4.374-4.384-11.473-4.393-15.858-.019s-4.393 11.473-.019 15.858c4.365 4.375 11.447 4.394 15.835.042 4.397-4.335 4.446-11.414.111-15.811z"/>
    <ellipse cx="134.639" cy="51.006" fill="#4EC3E8" opacity=".8" rx="50.993" ry="51.004" transform="rotate(-44.838 134.649 51.007)"/>
    <path fill="#FFF" stroke="#000" stroke-miterlimit="10" d="M142.584 43.083c-4.374-4.384-11.473-4.393-15.858-.019s-4.393 11.473-.019 15.858c4.365 4.375 11.447 4.394 15.835.042 4.397-4.335 4.446-11.414.111-15.811z"/>
    <ellipse cx="252.113" cy="334.616" fill="#4EC3E8" opacity=".8" rx="50.993" ry="51.004" transform="rotate(-44.838 252.137 334.634)"/>
    <path fill="#FFF" stroke="#000" stroke-miterlimit="10" d="M260.058 326.691c-4.374-4.384-11.473-4.393-15.858-.019s-4.393 11.473-.019 15.858c4.365 4.375 11.447 4.394 15.835.042 4.397-4.335 4.446-11.414.111-15.811z"/>
    <ellipse cx="50.995" cy="251.788" fill="#4EC3E8" opacity=".8" rx="50.993" ry="51.004" transform="rotate(-44.838 51.004 251.803)"/>
    <path fill="#FFF" stroke="#000" stroke-miterlimit="10" d="M58.94 243.863c-4.374-4.384-11.473-4.393-15.858-.019s-4.393 11.473-.019 15.858c4.365 4.375 11.447 4.394 15.835.042 4.397-4.335 4.446-11.414.111-15.811z"/>
</svg>
