<svg xmlns="http://www.w3.org/2000/svg" xml:space="preserve" viewBox="0 0 369.161 399.857">
    <ellipse cx="50.997" cy="215.55" fill="#159E1F" opacity=".8" rx="50.993" ry="51.004" transform="rotate(-44.838 51.005 215.564)"/>
    <ellipse cx="184.583" cy="348.848" fill="#4EC3E8" opacity=".8" rx="50.993" ry="51.004" transform="rotate(-45.162 184.56 348.832)"/>
    <ellipse cx="318.159" cy="215.294" fill="#159E1F" opacity=".8" rx="50.993" ry="51.004" transform="rotate(-44.838 318.185 215.302)"/>
    <ellipse cx="184.699" cy="80.991" fill="#4EC3E8" opacity=".8" rx="50.993" ry="51.004" transform="rotate(-45.162 184.685 80.993)"/>
    <path fill="#FFF" stroke="#000" stroke-miterlimit="10" d="M181.192 51.713h6.777v267.144h-6.777z"/>
    <path fill="#FFF" stroke="#000" stroke-miterlimit="10" d="M51 181.896h267.161v6.777H51z"/>
    <path fill="#FFF" stroke="#000" stroke-miterlimit="10" d="m227.781 192.289-36.195 36.195c-3.869 3.869-10.141 3.869-14.009 0l-36.195-36.195c-3.869-3.869-3.869-10.141 0-14.009l36.195-36.195c3.869-3.869 10.141-3.869 14.009 0l36.195 36.195c3.868 3.868 3.868 10.14 0 14.009z"/>
    <path fill="#FF442B" stroke="#000" stroke-miterlimit="10" d="m166.403 207.285 18.177-51 18.178 51z"/>
    <ellipse cx="318.159" cy="185.294" fill="#4EC3E8" opacity=".8" rx="50.993" ry="51.004" transform="rotate(-44.838 318.184 185.3)"/>
    <path fill="#FFF" stroke="#000" stroke-miterlimit="10" d="M326.101 177.367c-4.374-4.384-11.473-4.393-15.858-.019s-4.393 11.473-.019 15.858c4.365 4.375 11.447 4.394 15.835.042 4.397-4.335 4.446-11.414.111-15.811z"/>
    <ellipse cx="50.997" cy="185.55" fill="#4EC3E8" opacity=".8" rx="50.993" ry="51.004" transform="rotate(-44.838 51.004 185.562)"/>
    <path fill="#FFF" stroke="#000" stroke-miterlimit="10" d="M43.06 193.458c4.374 4.384 11.473 4.393 15.858.019s4.393-11.473.019-15.858c-4.365-4.375-11.447-4.394-15.835-.042-4.397 4.335-4.446 11.414-.111 15.811z"/>
    <ellipse cx="184.698" cy="50.991" fill="#159E1F" opacity=".8" rx="50.993" ry="51.004" transform="rotate(-45.162 184.685 50.994)"/>
    <path fill="#FFF" stroke="#000" stroke-miterlimit="10" d="M192.614 43.059c4.384 4.374 4.393 11.473.019 15.858s-11.473 4.393-15.858.019c-4.375-4.365-4.394-11.447-.042-15.835 4.335-4.397 11.414-4.446 15.811-.111z"/>
    <ellipse cx="184.583" cy="318.847" fill="#159E1F" opacity=".8" rx="50.993" ry="51.004" transform="rotate(-45.162 184.561 318.834)"/>
    <path fill="#FFF" stroke="#000" stroke-miterlimit="10" d="M176.663 326.797c-4.384-4.374-4.393-11.473-.019-15.858s11.473-4.393 15.858-.019c4.375 4.365 4.394 11.447.042 15.835-4.335 4.397-11.414 4.446-15.811.111z"/>
</svg>
