<?xml version="1.0" encoding="utf-8"?>
<!-- Generator: Adobe Illustrator 19.2.0, SVG Export Plug-In . SVG Version: 6.00 Build 0)  -->
<!DOCTYPE svg PUBLIC "-//W3C//DTD SVG 1.1//EN" "http://www.w3.org/Graphics/SVG/1.1/DTD/svg11.dtd">
<svg version="1.1" id="draw" xmlns="http://www.w3.org/2000/svg" xmlns:xlink="http://www.w3.org/1999/xlink" x="0px" y="0px"
	 viewBox="0 0 386.761 385.608" enable-background="new 0 0 386.761 385.608" xml:space="preserve">
<title>OctoRotorX</title>
<rect x="189.992" y="39.232" transform="matrix(0.9239 -0.3827 0.3827 0.9239 -59.0628 88.6798)" fill="#FFFFFF" stroke="#000000" stroke-miterlimit="10" width="6.777" height="307.144"/>
<rect x="39.8" y="189.416" transform="matrix(0.9239 -0.3827 0.3827 0.9239 -59.0628 88.6798)" fill="#FFFFFF" stroke="#000000" stroke-miterlimit="10" width="307.161" height="6.777"/>
<rect x="39.808" y="189.415" transform="matrix(0.3827 -0.9239 0.9239 0.3827 -58.7511 297.6806)" fill="#FFFFFF" stroke="#000000" stroke-miterlimit="10" width="307.144" height="6.777"/>
<rect x="189.992" y="39.224" transform="matrix(0.3827 -0.9239 0.9239 0.3827 -58.7513 297.6817)" fill="#FFFFFF" stroke="#000000" stroke-miterlimit="10" width="6.777" height="307.161"/>
<path fill="#FFFFFF" stroke="#000000" stroke-miterlimit="10" d="M236.581,199.808l-36.195,36.195
	c-3.869,3.869-10.141,3.869-14.009,0l-36.195-36.195c-3.869-3.869-3.869-10.141,0-14.009l36.195-36.195
	c3.869-3.869,10.141-3.869,14.009,0l36.195,36.195C240.449,189.668,240.449,195.94,236.581,199.808z"/>
<polygon fill="#FF442B" stroke="#000000" stroke-miterlimit="10" points="175.203,214.804 193.38,163.804 211.558,214.804 "/>
<g opacity="0.8">
	
		<ellipse transform="matrix(0.7091 -0.7051 0.7051 0.7091 -79.863 310.0096)" fill="#159E1F" cx="335.757" cy="251.788" rx="50.993" ry="51.004"/>
</g>
<path fill="#FFFFFF" stroke="#000000" stroke-miterlimit="10" d="M343.7,243.863c-4.374-4.384-11.473-4.393-15.858-0.019
	c-4.384,4.374-4.393,11.473-0.019,15.858c4.365,4.375,11.447,4.394,15.835,0.042c4.397-4.335,4.446-11.414,0.111-15.811
	C343.746,243.909,343.723,243.886,343.7,243.863z"/>
<g opacity="0.8">
	
		<ellipse transform="matrix(0.7091 -0.7051 0.7051 0.7091 -79.5361 74.8961)" fill="#159E1F" cx="50.995" cy="133.835" rx="50.993" ry="51.004"/>
</g>
<path fill="#FFFFFF" stroke="#000000" stroke-miterlimit="10" d="M43.06,141.746c4.374,4.384,11.473,4.393,15.858,0.019
	c4.384-4.374,4.393-11.473,0.019-15.858c-4.365-4.375-11.447-4.394-15.835-0.042c-4.397,4.335-4.446,11.414-0.111,15.811
	C43.014,141.7,43.037,141.723,43.06,141.746z"/>
<g opacity="0.8">
	
		<ellipse transform="matrix(0.7051 -0.7091 0.7091 0.7051 38.1833 193.8062)" fill="#159E1F" cx="252.121" cy="50.992" rx="50.993" ry="51.004"/>
</g>
<path fill="#FFFFFF" stroke="#000000" stroke-miterlimit="10" d="M260.035,43.06c4.384,4.374,4.393,11.473,0.019,15.858
	c-4.374,4.384-11.473,4.393-15.858,0.019c-4.376-4.365-4.394-11.447-0.042-15.835c4.335-4.397,11.414-4.446,15.811-0.111
	C259.989,43.014,260.012,43.037,260.035,43.06z"/>
<g opacity="0.8">
	
		<ellipse transform="matrix(0.7051 -0.7091 0.7091 0.7051 -197.5522 194.1346)" fill="#159E1F" cx="134.648" cy="334.601" rx="50.993" ry="51.004"/>
</g>
<path fill="#FFFFFF" stroke="#000000" stroke-miterlimit="10" d="M126.726,342.549c-4.384-4.374-4.393-11.473-0.019-15.858
	c4.374-4.384,11.473-4.393,15.858-0.019c4.376,4.365,4.394,11.447,0.042,15.835c-4.335,4.397-11.414,4.446-15.811,0.111
	C126.772,342.595,126.749,342.572,126.726,342.549z"/>
<g opacity="0.8">
	
		<ellipse transform="matrix(0.7091 -0.7051 0.7051 0.7091 3.1639 275.5469)" fill="#4EC3E8" cx="335.506" cy="133.939" rx="50.993" ry="51.004"/>
</g>
<path fill="#FFFFFF" stroke="#000000" stroke-miterlimit="10" d="M343.451,126.015c-4.374-4.384-11.473-4.393-15.858-0.019
	c-4.384,4.374-4.393,11.473-0.019,15.858c4.365,4.375,11.447,4.394,15.835,0.042c4.397-4.335,4.446-11.414,0.111-15.811
	C343.497,126.061,343.474,126.038,343.451,126.015z"/>
<g opacity="0.8">
	
		<ellipse transform="matrix(0.7091 -0.7051 0.7051 0.7091 3.2043 109.7788)" fill="#4EC3E8" cx="134.639" cy="51.006" rx="50.993" ry="51.004"/>
</g>
<path fill="#FFFFFF" stroke="#000000" stroke-miterlimit="10" d="M142.584,43.083c-4.374-4.384-11.473-4.393-15.858-0.019
	c-4.384,4.374-4.393,11.473-0.019,15.858c4.365,4.375,11.447,4.394,15.835,0.042c4.397-4.335,4.446-11.414,0.111-15.811
	C142.63,43.129,142.607,43.106,142.584,43.083z"/>
<g opacity="0.8">
	
		<ellipse transform="matrix(0.7091 -0.7051 0.7051 0.7091 -162.6039 275.1265)" fill="#4EC3E8" cx="252.113" cy="334.616" rx="50.993" ry="51.004"/>
</g>
<path fill="#FFFFFF" stroke="#000000" stroke-miterlimit="10" d="M260.058,326.691c-4.374-4.384-11.473-4.393-15.858-0.019
	c-4.384,4.374-4.393,11.473-0.019,15.858c4.365,4.375,11.447,4.394,15.835,0.042c4.397-4.335,4.446-11.414,0.111-15.811
	C260.104,326.737,260.081,326.714,260.058,326.691z"/>
<g opacity="0.8">
	
		<ellipse transform="matrix(0.7091 -0.7051 0.7051 0.7091 -162.7096 109.2125)" fill="#4EC3E8" cx="50.995" cy="251.788" rx="50.993" ry="51.004"/>
</g>
<path fill="#FFFFFF" stroke="#000000" stroke-miterlimit="10" d="M58.94,243.863c-4.374-4.384-11.473-4.393-15.858-0.019
	c-4.384,4.374-4.393,11.473-0.019,15.858c4.365,4.375,11.447,4.394,15.835,0.042c4.397-4.335,4.446-11.414,0.111-15.811
	C58.986,243.909,58.963,243.886,58.94,243.863z"/>
</svg>
