<svg xmlns="http://www.w3.org/2000/svg" xml:space="preserve" viewBox="0 0 409.161 409.857">
    <path fill="#FFF" stroke="#000" stroke-miterlimit="10" d="M201.192 51.713h6.777v307.144h-6.777z"/>
    <path fill="#FFF" stroke="#000" stroke-miterlimit="10" d="M50.999 201.896H358.16v6.777H50.999z"/>
    <path fill="#FFF" stroke="#000" stroke-miterlimit="10" stroke-width=".99999" d="M93.591 311.48 310.773 94.3l4.792 4.792L98.383 316.272z"/>
    <path fill="#FFF" stroke="#000" stroke-miterlimit="10" stroke-width=".99999" d="m93.585 99.084 4.792-4.792 217.194 217.193-4.792 4.792z"/>
    <path fill="#FFF" stroke="#000" stroke-miterlimit="10" d="m247.781 212.289-36.195 36.195c-3.869 3.869-10.141 3.869-14.009 0l-36.195-36.195c-3.869-3.869-3.869-10.141 0-14.009l36.195-36.195c3.869-3.869 10.141-3.869 14.009 0l36.195 36.195c3.868 3.869 3.868 10.141 0 14.009z"/>
    <path fill="#FF442B" stroke="#000" stroke-miterlimit="10" d="m186.403 227.285 18.177-51 18.178 51z"/>
    <ellipse cx="358.165" cy="205.298" fill="#159E1F" opacity=".8" rx="50.993" ry="51.004" transform="rotate(-44.838 358.194 205.305)"/>
    <path fill="#FFF" stroke="#000" stroke-miterlimit="10" d="M366.101 197.368c-4.374-4.384-11.473-4.393-15.858-.019s-4.393 11.473-.019 15.858c4.365 4.375 11.447 4.394 15.835.042 4.397-4.335 4.446-11.414.111-15.811z"/>
    <ellipse cx="51.003" cy="205.554" fill="#159E1F" opacity=".8" rx="50.993" ry="51.004" transform="rotate(-44.838 51.01 205.566)"/>
    <path fill="#FFF" stroke="#000" stroke-miterlimit="10" d="M43.059 213.455c4.374 4.384 11.473 4.393 15.858.019s4.393-11.473.019-15.858c-4.365-4.375-11.447-4.394-15.835-.042-4.397 4.335-4.446 11.414-.111 15.811z"/>
    <ellipse cx="204.691" cy="50.988" fill="#159E1F" opacity=".8" rx="50.993" ry="51.004" transform="rotate(-45.162 204.677 50.992)"/>
    <path fill="#FFF" stroke="#000" stroke-miterlimit="10" d="M212.614 43.055c4.384 4.374 4.393 11.473.02 15.858s-11.473 4.393-15.857.02c-4.376-4.365-4.395-11.447-.042-15.835 4.335-4.397 11.414-4.446 15.811-.111z"/>
    <ellipse cx="204.576" cy="358.843" fill="#159E1F" opacity=".8" rx="50.993" ry="51.004" transform="rotate(-45.162 204.552 358.828)"/>
    <path fill="#FFF" stroke="#000" stroke-miterlimit="10" d="M196.663 366.797c-4.384-4.374-4.393-11.473-.02-15.858s11.473-4.393 15.857-.02c4.376 4.365 4.395 11.447.042 15.835-4.335 4.397-11.414 4.446-15.811.111z"/>
    <ellipse cx="312.74" cy="97.142" fill="#4EC3E8" opacity=".8" rx="50.993" ry="51.004" transform="rotate(-44.838 312.763 97.142)"/>
    <path fill="#FFF" stroke="#000" stroke-miterlimit="10" d="M320.675 89.213c-4.374-4.384-11.473-4.393-15.858-.019s-4.393 11.473-.019 15.858c4.365 4.375 11.447 4.394 15.835.042 4.397-4.335 4.446-11.414.111-15.811z"/>
    <ellipse cx="97.39" cy="97.141" fill="#4EC3E8" opacity=".8" rx="50.993" ry="51.004" transform="rotate(-44.838 97.399 97.146)"/>
    <path fill="#FFF" stroke="#000" stroke-miterlimit="10" d="M105.322 89.213c-4.374-4.384-11.473-4.393-15.858-.019s-4.393 11.473-.019 15.858c4.365 4.375 11.447 4.394 15.835.042 4.397-4.335 4.446-11.414.111-15.811z"/>
    <ellipse cx="312.741" cy="313.453" fill="#4EC3E8" opacity=".8" rx="50.993" ry="51.004" transform="rotate(-44.838 312.768 313.468)"/>
    <path fill="#FFF" stroke="#000" stroke-miterlimit="10" d="M320.675 305.523c-4.374-4.384-11.473-4.393-15.858-.019s-4.393 11.473-.019 15.858c4.365 4.375 11.447 4.394 15.835.042 4.397-4.335 4.446-11.414.111-15.811z"/>
    <ellipse cx="96.254" cy="313.452" fill="#4EC3E8" opacity=".8" rx="50.993" ry="51.004" transform="rotate(-44.838 96.267 313.472)"/>
    <path fill="#FFF" stroke="#000" stroke-miterlimit="10" d="M104.189 305.523c-4.374-4.384-11.473-4.393-15.858-.019s-4.393 11.473-.019 15.858c4.365 4.375 11.447 4.394 15.835.042 4.397-4.335 4.446-11.414.111-15.811z"/>
</svg>
