<?xml version="1.0" encoding="utf-8"?>
<!-- Generator: Adobe Illustrator 19.2.0, SVG Export Plug-In . SVG Version: 6.00 Build 0)  -->
<!DOCTYPE svg PUBLIC "-//W3C//DTD SVG 1.1//EN" "http://www.w3.org/Graphics/SVG/1.1/DTD/svg11.dtd">
<svg version="1.1" id="draw" xmlns="http://www.w3.org/2000/svg" xmlns:xlink="http://www.w3.org/1999/xlink" x="0px" y="0px"
	 viewBox="0 0 409.161 409.857" enable-background="new 0 0 409.161 409.857" xml:space="preserve">
<title>OctoRotorPlus</title>
<rect x="201.192" y="51.713" fill="#FFFFFF" stroke="#000000" stroke-miterlimit="10" width="6.777" height="307.144"/>
<rect x="50.999" y="201.896" fill="#FFFFFF" stroke="#000000" stroke-miterlimit="10" width="307.161" height="6.777"/>
<rect x="51.009" y="201.897" transform="matrix(0.7071 -0.7071 0.7071 0.7071 -85.2384 204.7872)" fill="#FFFFFF" stroke="#000000" stroke-miterlimit="10" width="307.144" height="6.777"/>
<rect x="201.192" y="51.704" transform="matrix(0.7071 -0.7071 0.7071 0.7071 -85.2376 204.7867)" fill="#FFFFFF" stroke="#000000" stroke-miterlimit="10" width="6.777" height="307.161"/>
<path fill="#FFFFFF" stroke="#000000" stroke-miterlimit="10" d="M247.781,212.289l-36.195,36.195
	c-3.869,3.869-10.141,3.869-14.009,0l-36.195-36.195c-3.869-3.869-3.869-10.141,0-14.009l36.195-36.195
	c3.869-3.869,10.141-3.869,14.009,0l36.195,36.195C251.649,202.149,251.649,208.421,247.781,212.289z"/>
<polygon fill="#FF442B" stroke="#000000" stroke-miterlimit="10" points="186.403,227.285 204.58,176.285 222.758,227.285 "/>
<g opacity="0.8">
	
		<ellipse transform="matrix(0.7091 -0.7051 0.7051 0.7091 -40.5618 312.2855)" fill="#159E1F" cx="358.165" cy="205.298" rx="50.993" ry="51.004"/>
</g>
<path fill="#FFFFFF" stroke="#000000" stroke-miterlimit="10" d="M366.101,197.368c-4.374-4.384-11.473-4.393-15.858-0.019
	c-4.384,4.374-4.393,11.473-0.019,15.858c4.365,4.375,11.447,4.394,15.835,0.042c4.397-4.335,4.446-11.414,0.111-15.811
	C366.147,197.414,366.124,197.391,366.101,197.368z"/>
<g opacity="0.8">
	
		<ellipse transform="matrix(0.7091 -0.7051 0.7051 0.7091 -130.1058 95.767)" fill="#159E1F" cx="51.003" cy="205.554" rx="50.993" ry="51.004"/>
</g>
<path fill="#FFFFFF" stroke="#000000" stroke-miterlimit="10" d="M43.059,213.455c4.374,4.384,11.473,4.393,15.858,0.019
	c4.384-4.374,4.393-11.473,0.019-15.858c-4.365-4.375-11.447-4.394-15.835-0.042c-4.397,4.335-4.446,11.414-0.111,15.811
	C43.013,213.409,43.036,213.432,43.059,213.455z"/>
<g opacity="0.8">
	
		<ellipse transform="matrix(0.7051 -0.7091 0.7091 0.7051 24.2009 160.1738)" fill="#159E1F" cx="204.691" cy="50.988" rx="50.993" ry="51.004"/>
</g>
<path fill="#FFFFFF" stroke="#000000" stroke-miterlimit="10" d="M212.614,43.055c4.384,4.374,4.393,11.473,0.02,15.858
	c-4.374,4.384-11.473,4.393-15.857,0.02c-4.376-4.365-4.395-11.447-0.042-15.835c4.335-4.397,11.414-4.446,15.811-0.111
	C212.568,43.009,212.591,43.032,212.614,43.055z"/>
<g opacity="0.8">
	
		<ellipse transform="matrix(0.7051 -0.7091 0.7091 0.7051 -194.1228 250.866)" fill="#159E1F" cx="204.576" cy="358.843" rx="50.993" ry="51.004"/>
</g>
<path fill="#FFFFFF" stroke="#000000" stroke-miterlimit="10" d="M196.663,366.797c-4.384-4.374-4.393-11.473-0.02-15.858
	c4.374-4.384,11.473-4.393,15.857-0.02c4.376,4.365,4.395,11.447,0.042,15.835c-4.335,4.397-11.414,4.446-15.811,0.111
	C196.709,366.843,196.686,366.82,196.663,366.797z"/>
<g opacity="0.8">
	
		<ellipse transform="matrix(0.7091 -0.7051 0.7051 0.7091 22.4877 248.7881)" fill="#4EC3E8" cx="312.74" cy="97.142" rx="50.993" ry="51.004"/>
</g>
<path fill="#FFFFFF" stroke="#000000" stroke-miterlimit="10" d="M320.675,89.213c-4.374-4.384-11.473-4.393-15.858-0.019
	c-4.384,4.374-4.393,11.473-0.019,15.858c4.365,4.375,11.447,4.394,15.835,0.042c4.397-4.335,4.446-11.414,0.111-15.811
	C320.721,89.259,320.698,89.236,320.675,89.213z"/>
<g opacity="0.8">
	
		<ellipse transform="matrix(0.7091 -0.7051 0.7051 0.7091 -40.1643 96.9355)" fill="#4EC3E8" cx="97.39" cy="97.141" rx="50.993" ry="51.004"/>
</g>
<path fill="#FFFFFF" stroke="#000000" stroke-miterlimit="10" d="M105.322,89.213c-4.374-4.384-11.473-4.393-15.858-0.019
	c-4.384,4.374-4.393,11.473-0.019,15.858c4.365,4.375,11.447,4.394,15.835,0.042c4.397-4.335,4.446-11.414,0.111-15.811
	C105.368,89.259,105.345,89.236,105.322,89.213z"/>
<g opacity="0.8">
	
		<ellipse transform="matrix(0.7091 -0.7051 0.7051 0.7091 -130.0422 311.7207)" fill="#4EC3E8" cx="312.741" cy="313.453" rx="50.993" ry="51.004"/>
</g>
<path fill="#FFFFFF" stroke="#000000" stroke-miterlimit="10" d="M320.675,305.523c-4.374-4.384-11.473-4.393-15.858-0.019
	c-4.384,4.374-4.393,11.473-0.019,15.858c4.365,4.375,11.447,4.394,15.835,0.042c4.397-4.335,4.446-11.414,0.111-15.811
	C320.721,305.569,320.698,305.546,320.675,305.523z"/>
<g opacity="0.8">
	
		<ellipse transform="matrix(0.7091 -0.7051 0.7051 0.7091 -193.0249 159.0664)" fill="#4EC3E8" cx="96.254" cy="313.452" rx="50.993" ry="51.004"/>
</g>
<path fill="#FFFFFF" stroke="#000000" stroke-miterlimit="10" d="M104.189,305.523c-4.374-4.384-11.473-4.393-15.858-0.019
	c-4.384,4.374-4.393,11.473-0.019,15.858c4.365,4.375,11.447,4.394,15.835,0.042c4.397-4.335,4.446-11.414,0.111-15.811
	C104.235,305.569,104.212,305.546,104.189,305.523z"/>
</svg>
