<?xml version="1.0" encoding="utf-8"?>
<!-- Generator: Adobe Illustrator 19.2.0, SVG Export Plug-In . SVG Version: 6.00 Build 0)  -->
<!DOCTYPE svg PUBLIC "-//W3C//DTD SVG 1.1//EN" "http://www.w3.org/Graphics/SVG/1.1/DTD/svg11.dtd">
<svg version="1.1" id="draw" xmlns="http://www.w3.org/2000/svg" xmlns:xlink="http://www.w3.org/1999/xlink" x="0px" y="0px"
	 viewBox="0 0 369.161 399.857" enable-background="new 0 0 369.161 399.857" xml:space="preserve">
<title>OctoRotorPlusCoaxial</title>
<g opacity="0.8">
	
		<ellipse transform="matrix(0.7091 -0.7051 0.7051 0.7091 -137.1567 98.6708)" fill="#159E1F" cx="50.997" cy="215.55" rx="50.993" ry="51.004"/>
</g>
<g opacity="0.8">
	
		<ellipse transform="matrix(0.7051 -0.7091 0.7091 0.7051 -192.9302 233.7424)" fill="#4EC3E8" cx="184.583" cy="348.848" rx="50.993" ry="51.004"/>
</g>
<g opacity="0.8">
	
		<ellipse transform="matrix(0.7091 -0.7051 0.7051 0.7091 -59.2497 286.9837)" fill="#159E1F" cx="318.159" cy="215.294" rx="50.993" ry="51.004"/>
</g>
<g opacity="0.8">
	
		<ellipse transform="matrix(0.7051 -0.7091 0.7091 0.7051 -2.9682 154.8451)" fill="#4EC3E8" cx="184.699" cy="80.991" rx="50.993" ry="51.004"/>
</g>
<rect x="181.192" y="51.713" fill="#FFFFFF" stroke="#000000" stroke-miterlimit="10" width="6.777" height="267.144"/>
<rect x="51" y="181.896" fill="#FFFFFF" stroke="#000000" stroke-miterlimit="10" width="267.161" height="6.777"/>
<path fill="#FFFFFF" stroke="#000000" stroke-miterlimit="10" d="M227.781,192.289l-36.195,36.195
	c-3.869,3.869-10.141,3.869-14.009,0l-36.195-36.195c-3.869-3.869-3.869-10.141,0-14.009l36.195-36.195
	c3.869-3.869,10.141-3.869,14.009,0l36.195,36.195C231.649,182.148,231.649,188.42,227.781,192.289z"/>
<polygon fill="#FF442B" stroke="#000000" stroke-miterlimit="10" points="166.403,207.285 184.58,156.285 202.758,207.285 "/>
<g opacity="0.8">
	
		<ellipse transform="matrix(0.7091 -0.7051 0.7051 0.7091 -38.0955 278.2556)" fill="#4EC3E8" cx="318.159" cy="185.294" rx="50.993" ry="51.004"/>
</g>
<path fill="#FFFFFF" stroke="#000000" stroke-miterlimit="10" d="M326.101,177.367c-4.374-4.384-11.473-4.393-15.858-0.019
	c-4.384,4.374-4.393,11.473-0.019,15.858c4.365,4.375,11.447,4.394,15.835,0.042c4.397-4.335,4.446-11.414,0.111-15.811
	C326.147,177.413,326.124,177.39,326.101,177.367z"/>
<g opacity="0.8">
	
		<ellipse transform="matrix(0.7091 -0.7051 0.7051 0.7091 -116.0025 89.9427)" fill="#4EC3E8" cx="50.997" cy="185.55" rx="50.993" ry="51.004"/>
</g>
<path fill="#FFFFFF" stroke="#000000" stroke-miterlimit="10" d="M43.06,193.458c4.374,4.384,11.473,4.393,15.858,0.019
	c4.384-4.374,4.393-11.473,0.019-15.858c-4.365-4.375-11.447-4.394-15.835-0.042c-4.397,4.335-4.446,11.414-0.111,15.811
	C43.014,193.412,43.037,193.435,43.06,193.458z"/>
<g opacity="0.8">
	
		<ellipse transform="matrix(0.7051 -0.7091 0.7091 0.7051 18.3037 145.9986)" fill="#159E1F" cx="184.698" cy="50.991" rx="50.993" ry="51.004"/>
</g>
<path fill="#FFFFFF" stroke="#000000" stroke-miterlimit="10" d="M192.614,43.059c4.384,4.374,4.393,11.473,0.019,15.858
	c-4.374,4.384-11.473,4.393-15.858,0.019c-4.375-4.365-4.394-11.447-0.042-15.835c4.335-4.397,11.414-4.446,15.811-0.111
	C192.568,43.013,192.591,43.036,192.614,43.059z"/>
<g opacity="0.8">
	
		<ellipse transform="matrix(0.7051 -0.7091 0.7091 0.7051 -171.6581 224.8966)" fill="#159E1F" cx="184.583" cy="318.847" rx="50.993" ry="51.004"/>
</g>
<path fill="#FFFFFF" stroke="#000000" stroke-miterlimit="10" d="M176.663,326.797c-4.384-4.374-4.393-11.473-0.019-15.858
	c4.374-4.384,11.473-4.393,15.858-0.019c4.375,4.365,4.394,11.447,0.042,15.835c-4.335,4.397-11.414,4.446-15.811,0.111
	C176.709,326.843,176.686,326.82,176.663,326.797z"/>
</svg>
