<svg id="proposal" xmlns="http://www.w3.org/2000/svg" viewBox="0 0 420 229.82"><defs><style>.cls-1,.cls-3{fill:#4ec3e8;}.cls-1,.cls-2,.cls-3{stroke:#000;stroke-miterlimit:10;}.cls-2{fill:#159e1f;}.cls-3{opacity:0.8;}</style></defs><title>AirframeInvertedVTail</title><path class="cls-1" d="M1168.4,1668.19c-16.29-1.16-182.26,3.95-182.26,3.95s4.66-31.33-5.35-46.65c-5.75-8.8-7.24-10.94-7.67-11.16a0.91,0.91,0,0,0-1,0c-0.39.14-1.81,2.16-7.7,11.17-10,15.32-5.35,46.65-5.35,46.65s-166-5.11-182.26-3.95-13.5,21.12-13.5,21.12l201.11,22.75s4-.7,4,5.8,4.25,15.55,4.25,15.55,4.25-9.05,4.25-15.55,4-5.8,4-5.8l201.11-22.75S1184.7,1669.35,1168.4,1668.19Z" transform="translate(-762.59 -1613.65)"/><polygon class="cls-1" points="252.41 94.3 252.41 198.91 210 212.13 167.59 198.91 167.59 94.64 165.48 94.3 165.48 223.28 210 229.31 254.52 223.28 254.52 94.3 252.41 94.3"/><polygon class="cls-2" points="387.89 79.21 387.89 73.69 284.54 81 284.54 90.9 387.89 79.21"/><polygon class="cls-2" points="277.45 91.7 277.45 81.23 219.95 86.47 219.95 98.21 277.45 91.7"/><path class="cls-2" d="M975.82,1842.52v-8.78l38.37-8.88v12.46Z" transform="translate(-762.59 -1613.65)"/><polygon class="cls-2" points="32.19 79.21 32.19 73.69 135.53 81 135.53 90.9 32.19 79.21"/><polygon class="cls-2" points="142.63 91.7 142.63 81.23 200.12 86.47 200.12 98.21 142.63 91.7"/><polygon class="cls-2" points="206.84 228.88 206.84 220.09 168.47 211.21 168.47 223.67 206.84 228.88"/><ellipse class="cls-3" cx="209.87" cy="118.37" rx="25.25" ry="6.07"/></svg>