<svg xmlns="http://www.w3.org/2000/svg" xml:space="preserve" viewBox="0 0 387.573 271.669">
    <path fill="#4EC3E8" stroke="#000" stroke-miterlimit="10" d="M193.786 271.168h59.055c-12.667-25.332-28.333-26-28.333-26h-23l5.333-124.667s143-6.167 180-7.333c-17-42.167-70.667-43.833-70.667-43.833H211.341V32.002s.663-31.681-15.167-31.5h-4.776c-15.811.236-15.167 31.5-15.167 31.5v37.333H71.398S17.73 71.001.73 113.167c37 1.167 180 7.333 180 7.333l5.333 124.667h-23s-15.667.669-28.333 26l59.056.001"/>
    <path fill="#159E1F" stroke="#000" stroke-miterlimit="10" d="M51.153 115.073c38.73 1.558 86.711 3.593 112.028 4.675l.24-11.262-112-5s-.17 7.141-.268 11.587zM336.33 115.18c-38.73 1.558-86.711 3.593-112.028 4.675l-.24-11.262 112-5s.175 7.141.268 11.587zM154.731 271.169v-13.016h78.11v13z"/>
    <path fill="#159E1F" stroke="#000" stroke-miterlimit="10" d="M196.228 270.987h-4.833l-2-25.667h8.833z"/>
</svg>
