<svg xmlns="http://www.w3.org/2000/svg" xml:space="preserve" viewBox="0 0 420 229.815">
    <path fill="#4EC3E8" stroke="#000" stroke-miterlimit="10" d="M405.817 54.537c-16.294-1.161-182.258 3.946-182.258 3.946s4.655-31.334-5.354-46.653c-5.75-8.8-7.236-10.936-7.67-11.16a.91.91 0 0 0-1.041-.013c-.393.137-1.809 2.157-7.7 11.173-10.009 15.319-5.354 46.653-5.354 46.653S30.475 53.377 14.182 54.537.682 75.658.682 75.658l201.113 22.746s3.957-.7 3.957 5.8S210 119.756 210 119.756s4.248-9.052 4.248-15.551 3.957-5.8 3.957-5.8l201.113-22.746c0-.001 2.793-19.961-13.501-21.122z"/>
    <path fill="#4EC3E8" stroke="#000" stroke-miterlimit="10" d="M252.405 94.297v104.608L210 212.135l-42.405-13.23V94.645l-2.112-.348v128.979L210 229.311l44.517-6.035V94.297z"/>
    <path fill="#159E1F" stroke="#000" stroke-miterlimit="10" d="M387.889 79.213v-5.528l-103.345 7.311v9.905zM277.448 91.704V81.229l-57.497 5.237v11.741zM213.236 228.868v-8.783l38.372-8.883v12.466zM32.185 79.213v-5.528l103.344 7.311v9.905zM142.625 91.704V81.229l57.498 5.237v11.741zM206.838 228.882v-8.792l-38.372-8.883v12.463z"/>
    <ellipse cx="209.869" cy="118.371" fill="#4EC3E8" opacity=".8" rx="25.247" ry="6.069"/>
</svg>
