<svg id="proposal" xmlns="http://www.w3.org/2000/svg" viewBox="0 0 387.57 271.67"><defs><style>.cls-1{fill:#4ec3e8;}.cls-1,.cls-2{stroke:#000;stroke-miterlimit:10;}.cls-2{fill:#159e1f;}</style></defs><title>AirframeStandardPlane</title><path class="cls-1" d="M2076.12,1311.33h59.05c-12.67-25.33-28.33-26-28.33-26h-23l5.33-124.67s143-6.17,180-7.33c-17-42.17-70.67-43.83-70.67-43.83H2093.67v-37.33s0.66-31.68-15.17-31.5h-4.78c-15.81.24-15.17,31.5-15.17,31.5v37.33H1953.73s-53.67,1.67-70.67,43.83c37,1.17,180,7.33,180,7.33l5.33,124.67h-23s-15.67.67-28.33,26h59.05" transform="translate(-1882.33 -1040.17)"/><path class="cls-2" d="M1933.49,1155.24c38.73,1.56,86.71,3.59,112,4.67l0.24-11.26-112-5S1933.58,1150.79,1933.49,1155.24Z" transform="translate(-1882.33 -1040.17)"/><path class="cls-2" d="M2218.67,1155.35c-38.73,1.56-86.71,3.59-112,4.67l-0.24-11.26,112-5S2218.57,1150.9,2218.67,1155.35Z" transform="translate(-1882.33 -1040.17)"/><polygon class="cls-2" points="154.73 271.17 154.73 258.15 232.84 258.15 232.84 271.15 154.73 271.17"/><polygon class="cls-2" points="196.23 270.99 191.4 270.99 189.4 245.32 198.23 245.32 196.23 270.99"/></svg>