<svg xmlns="http://www.w3.org/2000/svg" xml:space="preserve" width="491.376" height="80.02mm" fill-rule="evenodd" stroke-linejoin="round" stroke-width="28.222" preserveAspectRatio="xMidYMid" version="1.2" viewBox="2500 2000 13001 8002">
    <defs class="ClipPathGroup">
        <clipPath id="a" clipPathUnits="userSpaceOnUse">
            <path d="M2500 2000h13001v8002H2500z"/>
        </clipPath>
    </defs>
    <g class="SlideGroup">
        <g class="Slide" clip-path="url(#a)">
            <g class="Page">
                <g class="com.sun.star.drawing.ClosedBezierShape">
                    <path fill="none" d="M2499 1999h13003v7903H2499z" class="BoundingBox"/>
                    <path fill="#4EC3E8" d="M9000 9600c100 0 400-26 400-13v-300c600 200 1800 700 1800 600s-100-600-100-700-100-300-300-400-1300-1000-1300-900V6787h5000c800 0 1000-400 1000-700s-200-700-1100-1100-2500-500-2700-500-2100 0-2100-100V3187c0-400-300-1187-600-1187s-600 787-600 1187v1200c0 100-1900 100-2100 100s-1800 100-2700 500-1100 800-1100 1100 200 700 1000 700l900 13 4100-13v1100c0-100-1100 800-1300 900s-300 300-300 400-100 600-100 700 1200-400 1800-600v300c0-13 300 13 400 13"/>
                    <path fill="none" stroke="#000" d="M9000 9600c100 0 400-26 400-13v-300c600 200 1800 700 1800 600s-100-600-100-700-100-300-300-400-1300-1000-1300-900V6787h5000c800 0 1000-400 1000-700s-200-700-1100-1100-2500-500-2700-500-2100 0-2100-100V3187c0-400-300-1187-600-1187s-600 787-600 1187v1200c0 100-1900 100-2100 100s-1800 100-2700 500-1100 800-1100 1100 200 700 1000 700l900 13 4100-13v1100c0-100-1100 800-1300 900s-300 300-300 400-100 600-100 700 1200-400 1800-600v300c0-13 300 13 400 13Z"/>
                </g>
                <g class="com.sun.star.drawing.PolyPolygonShape">
                    <path fill="none" d="M3999 6399h2403v403H3999z" class="BoundingBox"/>
                    <path fill="#159E1F" d="M4000 6800v-400h2400v400z"/>
                    <path fill="none" stroke="#000" d="M4000 6800v-400h2400v400z"/>
                </g>
                <g class="com.sun.star.drawing.PolyPolygonShape">
                    <path fill="none" d="M7199 8999h1103v803H7199z" class="BoundingBox"/>
                    <path fill="#159E1F" d="M7200 9800v-400l1100-400v400z"/>
                    <path fill="none" stroke="#000" d="M7200 9800v-400l1100-400v400z"/>
                </g>
                <g class="com.sun.star.drawing.CustomShape">
                    <path fill="none" d="M7999 9699h2004v304H7999z" class="BoundingBox"/>
                    <path fill="#4EC3E8" d="M9000 9700c567 0 1000 65 1000 150s-433 150-1000 150-1000-65-1000-150 433-150 1000-150m1001 301"/>
                    <path fill="none" stroke="#3465A4" d="M9000 9700c567 0 1000 65 1000 150s-433 150-1000 150-1000-65-1000-150 433-150 1000-150ZM8000 9700ZM10001 10001Z"/>
                </g>
                <g class="com.sun.star.drawing.PolyPolygonShape">
                    <path fill="none" d="M9699 8999h1103v803H9699z" class="BoundingBox"/>
                    <path fill="#159E1F" d="M9700 9400v-400l1100 400v400z"/>
                    <path fill="none" stroke="#000" d="M9700 9400v-400l1100 400v400z"/>
                </g>
                <g class="com.sun.star.drawing.PolyPolygonShape">
                    <path fill="none" d="M11599 6399h2403v403h-2403z" class="BoundingBox"/>
                    <path fill="#159E1F" d="M14000 6800v-400h-2400v400z"/>
                    <path fill="none" stroke="#000" d="M14000 6800v-400h-2400v400z"/>
                </g>
            </g>
        </g>
    </g>
</svg>
