<?xml version="1.0" encoding="utf-8"?>
<!-- Generator: Adobe Illustrator 26.2.1, SVG Export Plug-In . SVG Version: 6.00 Build 0)  -->
<svg version="1.1"
	 id="draw" xmlns:cc="http://creativecommons.org/ns#" xmlns:dc="http://purl.org/dc/elements/1.1/" xmlns:inkscape="http://www.inkscape.org/namespaces/inkscape" xmlns:rdf="http://www.w3.org/1999/02/22-rdf-syntax-ns#" xmlns:sodipodi="http://sodipodi.sourceforge.net/DTD/sodipodi-0.dtd" xmlns:svg="http://www.w3.org/2000/svg"
	 xmlns="http://www.w3.org/2000/svg" xmlns:xlink="http://www.w3.org/1999/xlink" x="0px" y="0px" viewBox="0 0 292.9 321.8"
	 style="enable-background:new 0 0 292.9 321.8;" xml:space="preserve">
<style type="text/css">
	.st0{fill:#FFFFFF;stroke:#000000;stroke-miterlimit:9.9999;}
	.st1{opacity:0.8;}
	.st2{fill:#159E1F;}
	.st3{fill:#4EC3E8;}
	.st4{fill:#FFFFFF;stroke:#000000;stroke-miterlimit:10;}
	.st5{fill:#4EC3E8;stroke:#000000;stroke-miterlimit:10;}
	.st6{fill:#159E1F;stroke:#000000;stroke-miterlimit:10;}
	.st7{fill:#FF442B;stroke:#000000;stroke-miterlimit:10;}
</style>
<rect id="rect13164_00000016775711050653148870000016150153960893651350_" x="67" y="264.2" class="st0" width="160" height="5"/>
<rect id="rect13164_00000144298133465782451800000015819238047519378101_" x="32" y="106.2" class="st0" width="230" height="5"/>
<rect id="rect13164_00000029031440606840967230000010716699067194374072_" x="32" y="187.2" class="st0" width="230" height="5"/>
<rect id="rect13164_00000172437758771273694920000015414756274132692659_" x="66.4" y="28.9" class="st0" width="160" height="5"/>
<sodipodi:namedview  bordercolor="#666666" borderopacity="1" gridtolerance="10" guidetolerance="10" id="namedview13195" inkscape:current-layer="draw" inkscape:cx="108.47754" inkscape:cy="174.51965" inkscape:pageopacity="0" inkscape:pageshadow="2" inkscape:window-height="1019" inkscape:window-maximized="1" inkscape:window-width="1920" inkscape:window-x="1920" inkscape:window-y="0" inkscape:zoom="2.0744905" objecttolerance="10" pagecolor="#ffffff" showgrid="false">
	</sodipodi:namedview>
<g id="g13160" class="st1">
	<ellipse id="ellipse13158" class="st2" cx="230" cy="46.2" rx="30.5" ry="30.5"/>
</g>
<g id="g13172" class="st1">
	<ellipse id="ellipse13170" class="st3" cx="230" cy="31.8" rx="30.5" ry="30.5"/>
</g>
<path id="path13174" class="st4" d="M234.1,27.9c-2.1-2.2-5.7-2.2-7.9,0s-2.2,5.7,0,7.9c2.1,2.2,5.7,2.2,7.9,0
	C236.3,33.6,236.3,30,234.1,27.9C234.2,27.9,234.2,27.9,234.1,27.9z"/>
<g id="g13172_00000041977440568404910250000012265111573981924238_" class="st1">
	
		<ellipse id="ellipse13170_00000117659389414668979730000001833071945521060736_" class="st3" cx="261" cy="122.5" rx="30.5" ry="30.5"/>
</g>
<g id="g13160_00000005264152441456500820000015398451167349387449_" class="st1">
	
		<ellipse id="ellipse13158_00000062157988671478734170000012241513239944163726_" class="st2" cx="261" cy="107.5" rx="30.5" ry="30.5"/>
</g>
<g id="g13172_00000179647378669641359230000002037176741453783186_" class="st1">
	
		<ellipse id="ellipse13170_00000093866521393991802300000003233066719722716075_" class="st3" cx="230" cy="281.8" rx="30.5" ry="30.5"/>
</g>
<g id="g13160_00000046299276063112408240000015574310831519389360_" class="st1">
	
		<ellipse id="ellipse13158_00000034780614538435368580000008076313834747986088_" class="st2" cx="230" cy="266.8" rx="30.5" ry="30.5"/>
</g>
<path id="path13174_00000126313285779878773750000007397399529131436468_" class="st4" d="M264.9,104.4c-2.1-2.2-5.7-2.2-7.9,0
	c-2.2,2.2-2.2,5.7,0,7.9c2.1,2.2,5.7,2.2,7.9,0C267.2,110.1,267.2,106.5,264.9,104.4C265,104.4,265,104.4,264.9,104.4z"/>
<g id="g13160_00000014602574651150873670000012120315082209780405_" class="st1">
	
		<ellipse id="ellipse13158_00000051377848997115308200000005098496144463457470_" class="st2" cx="261.2" cy="205.2" rx="30.5" ry="30.5"/>
</g>
<g id="g13172_00000083060992463607484690000006559726085903068069_" class="st1">
	
		<ellipse id="ellipse13170_00000052803869905975926400000013956951706873045385_" class="st3" cx="261.1" cy="190.8" rx="30.5" ry="30.5"/>
</g>
<path id="path13174_00000183949300244229386000000009479861633680404913_" class="st4" d="M265.2,186.9c-2.1-2.2-5.7-2.2-7.9,0
	c-2.2,2.2-2.2,5.7,0,7.9c2.1,2.2,5.7,2.2,7.9,0C267.4,192.6,267.4,189,265.2,186.9C265.3,186.9,265.3,186.9,265.2,186.9z"/>
<path id="path13174_00000011725323686096205240000011112464220045992341_" class="st4" d="M234.6,262.2c-2.1-2.2-5.7-2.2-7.9,0
	c-2.2,2.2-2.2,5.7,0,7.9c2.1,2.2,5.7,2.2,7.9,0C236.9,267.9,236.9,264.4,234.6,262.2C234.7,262.2,234.7,262.2,234.6,262.2z"/>
<g id="g13172_00000064318565005845528520000010063842224788028819_" class="st1">
	
		<ellipse id="ellipse13170_00000040568549671991314770000004994631646533756059_" class="st3" cx="61.7" cy="46.5" rx="30.5" ry="30.5"/>
</g>
<g id="g13160_00000181809994952634983960000006847284079911684483_" class="st1">
	
		<ellipse id="ellipse13158_00000011736805701008744140000017923677679734660503_" class="st2" cx="61.6" cy="31.5" rx="30.5" ry="30.5"/>
</g>
<path id="path13174_00000162323048757477924740000010556290855743874440_" class="st4" d="M65.6,27c-2.1-2.2-5.7-2.2-7.9,0
	c-2.2,2.2-2.2,5.7,0,7.9c2.1,2.2,5.7,2.2,7.9,0C67.8,32.7,67.8,29.1,65.6,27C65.7,27,65.7,27,65.6,27z"/>
<g id="g13160_00000009560857699474575050000012025903892973615775_" class="st1">
	
		<ellipse id="ellipse13158_00000168801701739012993110000012881289995327991187_" class="st2" cx="32.4" cy="122.2" rx="30.5" ry="30.5"/>
</g>
<g id="g13172_00000136395898752958165940000000516854998853009561_" class="st1">
	
		<ellipse id="ellipse13170_00000000216319524251898610000002824599429914899644_" class="st3" cx="33.3" cy="107.8" rx="30.5" ry="30.5"/>
</g>
<path id="path13174_00000148651992833652681160000001727129300314694546_" class="st4" d="M36.4,103.9c-2.1-2.2-5.7-2.2-7.9,0
	s-2.2,5.7,0,7.9c2.1,2.2,5.7,2.2,7.9,0C38.6,109.6,38.6,106,36.4,103.9C36.5,103.9,36.5,103.9,36.4,103.9z"/>
<g id="g13172_00000082337692127598523160000000832035560669945507_" class="st1">
	
		<ellipse id="ellipse13170_00000087385698855790167650000018020862245343490480_" class="st3" cx="32.1" cy="205.5" rx="30.5" ry="30.5"/>
</g>
<g id="g13160_00000111187964399418084340000011162007131509972883_" class="st1">
	
		<ellipse id="ellipse13158_00000174599238018414052690000005070151851523687848_" class="st2" cx="32.1" cy="190.5" rx="30.5" ry="30.5"/>
</g>
<path id="path13174_00000037683186162849156740000011232978139658385281_" class="st4" d="M36,186c-2.1-2.2-5.7-2.2-7.9,0
	s-2.2,5.7,0,7.9c2.1,2.2,5.7,2.2,7.9,0C38.2,191.7,38.2,188.1,36,186C36.1,186,36.1,186,36,186z"/>
<g id="g13160_00000104706297342454814180000008372743216125698467_" class="st1">
	
		<ellipse id="ellipse13158_00000144300909685873545000000016462707137190627490_" class="st2" cx="61.7" cy="281.1" rx="30.5" ry="30.5"/>
</g>
<g id="g13172_00000128482375078458080050000003635146676499641534_" class="st1">
	
		<ellipse id="ellipse13170_00000134946694693183476210000001161949993977368232_" class="st3" cx="61.6" cy="266.8" rx="30.5" ry="30.5"/>
</g>
<path id="path13174_00000026129508035631226940000010201063456095903381_" class="st4" d="M65.7,262.8c-2.1-2.2-5.7-2.2-7.9,0
	c-2.2,2.2-2.2,5.7,0,7.9c2.1,2.2,5.7,2.2,7.9,0C68,268.5,68,265,65.7,262.8C65.8,262.8,65.8,262.8,65.7,262.8z"/>
<path class="st5" d="M172.5,292.9H153l0.5-13H172c5.5,0,9.9-16.2,9.9-36.3V56.2c0-20-4.4-36.3-9.9-36.3l-51.2,0
	c-5.5,0-9.9,16.2-9.9,36.3v187.4c0,20,4.4,36.3,9.9,36.3h18.6l0.5,13h-19.5c0,0-13.3,0.7-24,26h100
	C185.7,293.6,172.5,292.9,172.5,292.9z"/>
<polygon class="st6" points="107.8,318.8 107.8,305.8 185.9,305.8 185.9,318.8 "/>
<polygon class="st6" points="149.3,318.6 144.4,318.6 142.4,292.9 151.3,292.9 "/>
<polygon id="polygon13168" class="st7" points="128.3,161.8 146.4,110.8 164.6,161.8 "/>
</svg>
