<svg xmlns="http://www.w3.org/2000/svg" xml:space="preserve" viewBox="0 0 369.157 369.144">
    <path fill="#FFF" stroke="#000" stroke-miterlimit="10" d="M181.189 51h6.777v267.144h-6.777z"/>
    <path fill="#FFF" stroke="#000" stroke-miterlimit="10" d="M50.997 47.611h267.161v6.777H50.997zM50.997 314.755h267.161v6.777H50.997zM227.777 191.576l-36.195 36.195c-3.869 3.869-10.141 3.869-14.009 0l-36.195-36.195c-3.869-3.869-3.869-10.141 0-14.009l36.195-36.195c3.869-3.869 10.141-3.869 14.009 0l36.195 36.195c3.869 3.868 3.869 10.14 0 14.009z"/>
    <path fill="#FF442B" stroke="#000" stroke-miterlimit="10" d="m166.4 206.572 18.177-51 18.178 51z"/>
    <ellipse cx="318.156" cy="318.151" fill="#4EC3E8" opacity=".8" rx="50.993" ry="51.004" transform="rotate(-44.838 318.184 318.166)"/>
    <path fill="#FFF" stroke="#000" stroke-miterlimit="10" d="M326.098 310.226c-4.374-4.384-11.473-4.393-15.858-.019s-4.393 11.473-.019 15.858c4.365 4.375 11.447 4.394 15.835.042 4.397-4.335 4.446-11.414.111-15.811z"/>
    <ellipse cx="51.756" cy="51.052" fill="#4EC3E8" opacity=".8" rx="50.993" ry="51.004" transform="rotate(-44.838 51.76 51.055)"/>
    <path fill="#FFF" stroke="#000" stroke-miterlimit="10" d="M43.056 58.964c4.374 4.384 11.473 4.393 15.858.019s4.393-11.473.019-15.858c-4.365-4.375-11.447-4.394-15.835-.042-4.397 4.335-4.446 11.414-.111 15.811z"/>
    <ellipse cx="318.157" cy="50.993" fill="#159E1F" opacity=".8" rx="50.993" ry="51.004" transform="rotate(-45.162 318.136 51)"/>
    <path fill="#FFF" stroke="#000" stroke-miterlimit="10" d="M326.074 43.059c4.384 4.374 4.393 11.473.019 15.858s-11.473 4.393-15.858.019c-4.375-4.365-4.394-11.447-.042-15.835 4.335-4.397 11.414-4.446 15.811-.111z"/>
    <ellipse cx="50.998" cy="318.136" fill="#159E1F" opacity=".8" rx="50.993" ry="51.004" transform="rotate(-45.162 50.984 318.118)"/>
    <path fill="#FFF" stroke="#000" stroke-miterlimit="10" d="M43.079 326.084c-4.384-4.374-4.393-11.473-.019-15.858s11.473-4.393 15.858-.019c4.375 4.365 4.394 11.447.042 15.835-4.335 4.397-11.414 4.446-15.811.111z"/>
</svg>
