<?xml version="1.0" encoding="utf-8"?>
<!-- Generator: Adobe Illustrator 19.2.0, SVG Export Plug-In . SVG Version: 6.00 Build 0)  -->
<!DOCTYPE svg PUBLIC "-//W3C//DTD SVG 1.1//EN" "http://www.w3.org/Graphics/SVG/1.1/DTD/svg11.dtd">
<svg version="1.1" id="draw" xmlns="http://www.w3.org/2000/svg" xmlns:xlink="http://www.w3.org/1999/xlink" x="0px" y="0px"
	 viewBox="0 0 343.449 290.159" enable-background="new 0 0 343.449 290.159" xml:space="preserve">
<title>QuadRotorATail</title>
<rect x="168.017" y="120.306" fill="#FFFFFF" stroke="#000000" stroke-linecap="round" stroke-linejoin="round" width="6.777" height="124.019"/>
<rect x="99.396" y="240.937" fill="#FFFFFF" stroke="#000000" stroke-linecap="round" stroke-linejoin="round" width="144.019" height="6.777"/>
<rect x="163.792" y="84.83" transform="matrix(0.8696 -0.4938 0.4938 0.8696 -13.4872 125.372)" fill="#FFFFFF" stroke="#000000" stroke-miterlimit="10" width="133.635" height="6.78"/>
<rect x="110.332" y="20.066" transform="matrix(0.4969 -0.8678 0.8678 0.4969 -18.2093 142.4156)" fill="#FFFFFF" stroke="#000000" stroke-miterlimit="10" width="6.777" height="133.692"/>
<path fill="#FFFFFF" stroke="#000000" stroke-miterlimit="10" d="M214.838,127.079l-36.195,36.195
	c-3.869,3.869-10.141,3.869-14.009,0l-36.195-36.195c-3.869-3.869-3.869-10.141,0-14.009l36.195-36.195
	c3.869-3.869,10.141-3.869,14.009,0l36.195,36.195C218.706,116.938,218.706,123.21,214.838,127.079z"/>
<polygon fill="#FF442B" stroke="#000000" stroke-miterlimit="10" points="153.46,142.074 171.637,91.074 189.815,142.074 "/>
<g opacity="0.8">
	
		<ellipse transform="matrix(0.7091 -0.7051 0.7051 0.7091 48.7251 221.2251)" fill="#4EC3E8" cx="292.456" cy="51.565" rx="50.993" ry="51.004"/>
</g>
<path fill="#FFFFFF" stroke="#000000" stroke-miterlimit="10" d="M300.324,42.677c-4.374-4.384-11.473-4.393-15.858-0.019
	c-4.384,4.374-4.393,11.473-0.019,15.858c4.365,4.375,11.447,4.394,15.835,0.042c4.397-4.335,4.446-11.414,0.111-15.811
	C300.37,42.723,300.347,42.7,300.324,42.677z"/>
<g opacity="0.8">
	
		<ellipse transform="matrix(0.7051 -0.7091 0.7091 0.7051 -21.1206 51.19)" fill="#159E1F" cx="50.99" cy="50.99" rx="50.993" ry="51.004"/>
</g>
<path fill="#FFFFFF" stroke="#000000" stroke-miterlimit="10" d="M58.914,43.059c4.384,4.374,4.393,11.473,0.02,15.858
	s-11.473,4.393-15.857,0.02c-4.376-4.365-4.395-11.447-0.042-15.835c4.335-4.397,11.414-4.446,15.811-0.111
	C58.868,43.013,58.891,43.036,58.914,43.059z"/>
<g opacity="0.8">
	<path fill="#159E1F" d="M270.879,216.141c-19.876-19.96-48.7-23.523-64.372-7.957s-12.272,44.365,7.6,64.326
		s48.7,23.523,64.372,7.957S290.754,236.101,270.879,216.141z"/>
</g>
<path fill="#FFFFFF" stroke="#000000" stroke-miterlimit="10" d="M248.562,237.254c-4.366-4.394-10.7-5.176-14.137-1.747
	s-2.692,9.77,1.674,14.164s10.7,5.176,14.137,1.747S252.924,241.647,248.562,237.254z"/>
<g opacity="0.8">
	<path fill="#4EC3E8" d="M135.936,207.951c-15.567-15.675-44.365-12.273-64.322,7.6s-23.516,48.686-7.949,64.361
		s44.365,12.273,64.322-7.6S151.503,223.626,135.936,207.951z"/>
</g>
<path fill="#FFFFFF" stroke="#000000" stroke-miterlimit="10" d="M107.781,235.161c-3.417-3.453-9.742-2.706-14.126,1.668
	s-5.168,10.719-1.75,14.171s9.742,2.706,14.126-1.668S111.199,238.614,107.781,235.161z"/>
</svg>
