<svg xmlns="http://www.w3.org/2000/svg" xml:space="preserve" viewBox="0 0 343.449 290.159">
    <path fill="#FFF" stroke="#000" stroke-linecap="round" stroke-linejoin="round" d="M168.017 120.306h6.777v124.019h-6.777z"/>
    <path fill="#FFF" stroke="#000" stroke-linecap="round" stroke-linejoin="round" d="M99.396 240.937h144.019v6.777H99.396z"/>
    <path fill="#FFF" stroke="#000" stroke-miterlimit="10" stroke-width="1.00002" d="m170.835 118.26 116.21-65.99 3.347 5.897-116.209 65.989z"/>
    <path fill="#FFF" stroke="#000" stroke-miterlimit="10" stroke-width=".99999" d="m54.028 56.64 3.367-5.88 116.018 66.43-3.367 5.882z"/>
    <path fill="#FFF" stroke="#000" stroke-miterlimit="10" d="m214.838 127.079-36.195 36.195c-3.869 3.869-10.141 3.869-14.009 0l-36.195-36.195c-3.869-3.869-3.869-10.141 0-14.009l36.195-36.195c3.869-3.869 10.141-3.869 14.009 0l36.195 36.195c3.868 3.868 3.868 10.14 0 14.009z"/>
    <path fill="#FF442B" stroke="#000" stroke-miterlimit="10" d="m153.46 142.074 18.177-51 18.178 51z"/>
    <ellipse cx="292.456" cy="51.565" fill="#4EC3E8" opacity=".8" rx="50.993" ry="51.004" transform="rotate(-44.838 292.477 51.562)"/>
    <path fill="#FFF" stroke="#000" stroke-miterlimit="10" d="M300.324 42.677c-4.374-4.384-11.473-4.393-15.858-.019s-4.393 11.473-.019 15.858c4.365 4.375 11.447 4.394 15.835.042 4.397-4.335 4.446-11.414.111-15.811z"/>
    <ellipse cx="50.99" cy="50.99" fill="#159E1F" opacity=".8" rx="50.993" ry="51.004" transform="rotate(-45.162 50.985 50.989)"/>
    <path fill="#FFF" stroke="#000" stroke-miterlimit="10" d="M58.914 43.059c4.384 4.374 4.393 11.473.02 15.858s-11.473 4.393-15.857.02c-4.376-4.365-4.395-11.447-.042-15.835 4.335-4.397 11.414-4.446 15.811-.111z"/>
    <path fill="#159E1F" d="M270.879 216.141c-19.876-19.96-48.7-23.523-64.372-7.957s-12.272 44.365 7.6 64.326 48.7 23.523 64.372 7.957 12.275-44.366-7.6-64.326" opacity=".8"/>
    <path fill="#FFF" stroke="#000" stroke-miterlimit="10" d="M248.562 237.254c-4.366-4.394-10.7-5.176-14.137-1.747s-2.692 9.77 1.674 14.164 10.7 5.176 14.137 1.747 2.688-9.771-1.674-14.164z"/>
    <path fill="#4EC3E8" d="M135.936 207.951c-15.567-15.675-44.365-12.273-64.322 7.6s-23.516 48.686-7.949 64.361 44.365 12.273 64.322-7.6 23.516-48.686 7.949-64.361" opacity=".8"/>
    <path fill="#FFF" stroke="#000" stroke-miterlimit="10" d="M107.781 235.161c-3.417-3.453-9.742-2.706-14.126 1.668s-5.168 10.719-1.75 14.171 9.742 2.706 14.126-1.668 5.168-10.718 1.75-14.171z"/>
</svg>
