<svg xmlns="http://www.w3.org/2000/svg" xml:space="preserve" viewBox="0 0 343.449 265.633">
    <path fill="#FFF" stroke="#000" stroke-miterlimit="10" stroke-width=".99999" d="m74.79 212.127 94.448-94.449 4.792 4.792-94.448 94.449z"/>
    <path fill="#FFF" stroke="#000" stroke-miterlimit="10" stroke-width="1.00001" d="m169.974 117.185 116.167-65.93 3.345 5.893L173.32 123.08z"/>
    <path fill="#FFF" stroke="#000" stroke-miterlimit="10" stroke-width=".99999" d="m169.318 122.55 4.792-4.792 94.376 94.376-4.792 4.792z"/>
    <path fill="#FFF" stroke="#000" stroke-miterlimit="10" stroke-width=".99999" d="m54.032 56.641 3.367-5.88 116.018 66.43-3.367 5.882z"/>
    <path fill="#FFF" stroke="#000" stroke-miterlimit="10" d="m214.838 127.079-36.195 36.195c-3.869 3.869-10.141 3.869-14.009 0l-36.195-36.195c-3.869-3.869-3.869-10.141 0-14.009l36.195-36.195c3.869-3.869 10.141-3.869 14.009 0l36.195 36.195c3.869 3.869 3.869 10.141 0 14.009z"/>
    <path fill="#FF442B" stroke="#000" stroke-miterlimit="10" d="m153.46 142.074 18.177-51 18.178 51z"/>
    <ellipse cx="292.447" cy="51.559" fill="#4EC3E8" opacity=".8" rx="50.993" ry="51.004" transform="rotate(-44.838 292.468 51.557)"/>
    <path fill="#FFF" stroke="#000" stroke-miterlimit="10" d="M300.322 42.673c-4.374-4.384-11.473-4.393-15.858-.019s-4.393 11.473-.019 15.858c4.365 4.375 11.447 4.394 15.835.042 4.397-4.335 4.446-11.414.111-15.811z"/>
    <ellipse cx="77.541" cy="214.641" fill="#4EC3E8" opacity=".8" rx="50.993" ry="51.004" transform="rotate(-44.838 77.55 214.654)"/>
    <path fill="#FFF" stroke="#000" stroke-miterlimit="10" d="M69.604 222.554c4.374 4.384 11.473 4.393 15.858.019s4.393-11.473.019-15.858c-4.365-4.375-11.447-4.394-15.835-.042-4.397 4.335-4.446 11.414-.111 15.811z"/>
    <ellipse cx="50.999" cy="50.996" fill="#159E1F" opacity=".8" rx="50.993" ry="51.004" transform="rotate(-45.162 50.995 50.994)"/>
    <path fill="#FFF" stroke="#000" stroke-miterlimit="10" d="M58.914 43.059c4.384 4.374 4.393 11.473.019 15.858s-11.473 4.393-15.858.019c-4.376-4.365-4.394-11.447-.042-15.835 4.335-4.397 11.414-4.446 15.811-.111z"/>
    <ellipse cx="266.371" cy="214.484" fill="#159E1F" opacity=".8" rx="50.993" ry="51.004" transform="rotate(-45.162 266.348 214.48)"/>
    <path fill="#FFF" stroke="#000" stroke-miterlimit="10" d="M258.451 222.431c-4.384-4.374-4.393-11.473-.019-15.858s11.473-4.393 15.858-.02c4.376 4.365 4.394 11.447.042 15.835-4.335 4.397-11.414 4.446-15.811.111z"/>
</svg>
