<svg xmlns="http://www.w3.org/2000/svg" xml:space="preserve" viewBox="0 0 369.161 369.857">
    <path fill="#FFF" stroke="#000" stroke-miterlimit="10" d="M181.192 51.713h6.777v267.144h-6.777z"/>
    <path fill="#FFF" stroke="#000" stroke-miterlimit="10" d="M50.999 181.896H318.16v6.777H50.999z"/>
    <path fill="#FFF" stroke="#000" stroke-miterlimit="10" d="m227.78 192.289-36.195 36.195c-3.869 3.869-10.141 3.869-14.009 0l-36.195-36.195c-3.869-3.869-3.869-10.141 0-14.009l36.195-36.195c3.869-3.869 10.141-3.869 14.009 0l36.195 36.195c3.869 3.868 3.869 10.14 0 14.009z"/>
    <path fill="#FF442B" stroke="#000" stroke-miterlimit="10" d="m166.403 207.285 18.177-51 18.178 51z"/>
    <ellipse cx="318.162" cy="185.291" fill="#4EC3E8" opacity=".8" rx="50.993" ry="51.004" transform="rotate(-44.838 318.187 185.297)"/>
    <path fill="#FFF" stroke="#000" stroke-miterlimit="10" d="M326.101 177.368c-4.374-4.384-11.473-4.393-15.858-.019s-4.393 11.473-.019 15.858c4.365 4.375 11.447 4.394 15.835.042 4.397-4.335 4.446-11.414.111-15.811z"/>
    <ellipse cx="51" cy="185.546" fill="#4EC3E8" opacity=".8" rx="50.993" ry="51.004" transform="rotate(-44.838 51.008 185.557)"/>
    <path fill="#FFF" stroke="#000" stroke-miterlimit="10" d="M43.059 193.459c4.374 4.384 11.473 4.393 15.858.019s4.393-11.473.019-15.858c-4.365-4.375-11.447-4.394-15.835-.042-4.397 4.335-4.446 11.414-.111 15.811z"/>
    <ellipse cx="184.694" cy="50.996" fill="#159E1F" opacity=".8" rx="50.993" ry="51.004" transform="rotate(-45.162 184.681 50.999)"/>
    <path fill="#FFF" stroke="#000" stroke-miterlimit="10" d="M192.614 43.06c4.384 4.374 4.393 11.473.019 15.858s-11.473 4.393-15.858.019c-4.375-4.365-4.394-11.447-.042-15.835 4.335-4.397 11.414-4.446 15.811-.111z"/>
    <ellipse cx="184.58" cy="318.851" fill="#159E1F" opacity=".8" rx="50.993" ry="51.004" transform="rotate(-45.162 184.558 318.838)"/>
    <path fill="#FFF" stroke="#000" stroke-miterlimit="10" d="M176.663 326.797c-4.384-4.374-4.393-11.473-.019-15.858s11.473-4.393 15.858-.019c4.375 4.365 4.394 11.447.042 15.835-4.335 4.397-11.414 4.446-15.811.111z"/>
</svg>
