<svg xmlns="http://www.w3.org/2000/svg" xml:space="preserve" viewBox="0 0 343.449 290.162">
    <path fill="#FFF" stroke="#000" stroke-linecap="round" stroke-linejoin="round" d="M168.017 120.306h6.777v124.019h-6.777z"/>
    <path fill="#FFF" stroke="#000" stroke-linecap="round" stroke-linejoin="round" d="M99.396 240.937h144.019v6.777H99.396z"/>
    <path fill="#FFF" stroke="#000" stroke-miterlimit="10" stroke-width="1.00001" d="m169.98 117.175 116.168-65.93 3.345 5.893-116.167 65.931z"/>
    <path fill="#FFF" stroke="#000" stroke-miterlimit="10" stroke-width=".99999" d="m54.03 56.641 3.367-5.88 116.018 66.43-3.368 5.882z"/>
    <path fill="#FFF" stroke="#000" stroke-miterlimit="10" d="m214.837 127.08-36.195 36.195c-3.869 3.869-10.141 3.869-14.009 0l-36.195-36.195c-3.869-3.869-3.869-10.141 0-14.009l36.195-36.195c3.869-3.869 10.141-3.869 14.009 0l36.195 36.195c3.869 3.868 3.869 10.14 0 14.009z"/>
    <path fill="#FF442B" stroke="#000" stroke-miterlimit="10" d="m153.46 142.074 18.177-51 18.178 51z"/>
    <ellipse cx="292.455" cy="51.563" fill="#4EC3E8" opacity=".8" rx="50.993" ry="51.004" transform="rotate(-44.838 292.476 51.56)"/>
    <path fill="#FFF" stroke="#000" stroke-miterlimit="10" d="M300.324 42.677c-4.374-4.384-11.473-4.393-15.858-.019s-4.393 11.473-.019 15.858c4.365 4.375 11.447 4.394 15.835.042 4.397-4.335 4.446-11.414.111-15.811z"/>
    <ellipse cx="50.992" cy="50.992" fill="#159E1F" opacity=".8" rx="50.993" ry="51.004" transform="rotate(-45.162 50.987 50.991)"/>
    <path fill="#FFF" stroke="#000" stroke-miterlimit="10" d="M58.914 43.059c4.384 4.374 4.393 11.473.019 15.858s-11.473 4.393-15.858.019c-4.375-4.365-4.394-11.447-.042-15.835 4.335-4.397 11.414-4.446 15.811-.111z"/>
    <path fill="#159E1F" d="M270.679 272.709c19.96-19.876 23.523-48.7 7.957-64.372s-44.365-12.272-64.326 7.6-23.523 48.7-7.957 64.372 44.365 12.276 64.326-7.6" opacity=".8"/>
    <path fill="#FFF" stroke="#000" stroke-miterlimit="10" d="M249.566 250.392c4.394-4.366 5.176-10.7 1.747-14.137s-9.77-2.692-14.164 1.674-5.176 10.7-1.747 14.137 9.77 2.692 14.164-1.674z"/>
    <path fill="#4EC3E8" d="M63.824 207.794c-15.675 15.567-12.273 44.365 7.6 64.322s48.686 23.516 64.361 7.949 12.273-44.365-7.6-64.322-48.689-23.516-64.361-7.949" opacity=".8"/>
    <path fill="#FFF" stroke="#000" stroke-miterlimit="10" d="M91.032 235.949c-3.453 3.417-2.706 9.742 1.668 14.126s10.719 5.168 14.171 1.75 2.706-9.742-1.668-14.126-10.719-5.167-14.171-1.75z"/>
</svg>
