<svg xmlns="http://www.w3.org/2000/svg" xml:space="preserve" viewBox="0 0 291.424 291.77">
    <path fill="#FFF" stroke="#000" stroke-miterlimit="10" stroke-width=".99999" d="M48.798 238.263 237.695 49.366l4.792 4.792L53.59 243.055z"/>
    <path fill="#FFF" stroke="#000" stroke-miterlimit="10" stroke-width=".99999" d="m48.793 54.153 4.792-4.792 188.91 188.91-4.793 4.791z"/>
    <path fill="#FFF" stroke="#000" stroke-miterlimit="10" d="M188.845 153.215 152.65 189.41c-3.869 3.869-10.141 3.869-14.009 0l-36.195-36.195c-3.869-3.869-3.869-10.141 0-14.009l36.195-36.195c3.869-3.869 10.141-3.869 14.009 0l36.195 36.195c3.869 3.869 3.869 10.141 0 14.009z"/>
    <path fill="#FF442B" stroke="#000" stroke-miterlimit="10" d="m127.468 168.211 18.177-51 18.178 51z"/>
    <ellipse cx="240.427" cy="51.629" fill="#4EC3E8" opacity=".8" rx="50.993" ry="51.004" transform="rotate(-44.838 240.445 51.627)"/>
    <path fill="#FFF" stroke="#000" stroke-miterlimit="10" d="M248.364 43.704c-4.374-4.384-11.473-4.393-15.858-.019s-4.393 11.473-.019 15.858c4.365 4.375 11.447 4.394 15.835.042 4.397-4.335 4.446-11.414.111-15.811z"/>
    <ellipse cx="51.554" cy="240.78" fill="#4EC3E8" opacity=".8" rx="50.993" ry="51.004" transform="rotate(-44.838 51.563 240.796)"/>
    <path fill="#FFF" stroke="#000" stroke-miterlimit="10" d="M43.612 248.69c4.374 4.384 11.473 4.393 15.858.019s4.393-11.473.019-15.858c-4.365-4.375-11.447-4.394-15.835-.042-4.397 4.335-4.446 11.414-.111 15.811z"/>
    <ellipse cx="50.994" cy="50.994" fill="#159E1F" opacity=".8" rx="50.993" ry="51.004" transform="rotate(-45.162 50.989 50.993)"/>
    <path fill="#FFF" stroke="#000" stroke-miterlimit="10" d="M58.914 43.059c4.384 4.374 4.393 11.473.019 15.858s-11.473 4.393-15.858.019c-4.375-4.365-4.394-11.447-.042-15.835 4.335-4.397 11.414-4.446 15.811-.111z"/>
    <ellipse cx="240.373" cy="240.62" fill="#159E1F" opacity=".8" rx="50.993" ry="51.004" transform="rotate(-45.162 240.35 240.613)"/>
    <path fill="#FFF" stroke="#000" stroke-miterlimit="10" d="M232.459 248.567c-4.384-4.374-4.393-11.473-.019-15.858s11.473-4.393 15.858-.019c4.375 4.365 4.394 11.447.042 15.835-4.335 4.397-11.414 4.446-15.811.111z"/>
</svg>
