<?xml version="1.0" encoding="utf-8"?>
<!-- Generator: Adobe Illustrator 19.2.0, SVG Export Plug-In . SVG Version: 6.00 Build 0)  -->
<!DOCTYPE svg PUBLIC "-//W3C//DTD SVG 1.1//EN" "http://www.w3.org/Graphics/SVG/1.1/DTD/svg11.dtd">
<svg version="1.1" id="draw" xmlns="http://www.w3.org/2000/svg" xmlns:xlink="http://www.w3.org/1999/xlink" x="0px" y="0px"
	 viewBox="0 0 291.424 291.77" enable-background="new 0 0 291.424 291.77" xml:space="preserve">
<title>QuadRotorX</title>
<rect x="12.073" y="142.822" transform="matrix(0.7071 -0.7071 0.7071 0.7071 -60.7283 145.8108)" fill="#FFFFFF" stroke="#000000" stroke-miterlimit="10" width="267.144" height="6.777"/>
<rect x="142.257" y="12.631" transform="matrix(0.7071 -0.7071 0.7071 0.7071 -60.7285 145.8111)" fill="#FFFFFF" stroke="#000000" stroke-miterlimit="10" width="6.777" height="267.161"/>
<path fill="#FFFFFF" stroke="#000000" stroke-miterlimit="10" d="M188.845,153.215l-36.195,36.195
	c-3.869,3.869-10.141,3.869-14.009,0l-36.195-36.195c-3.869-3.869-3.869-10.141,0-14.009l36.195-36.195
	c3.869-3.869,10.141-3.869,14.009,0l36.195,36.195C192.714,143.075,192.714,149.347,188.845,153.215z"/>
<polygon fill="#FF442B" stroke="#000000" stroke-miterlimit="10" points="127.468,168.211 145.645,117.211 163.823,168.211 "/>
<g opacity="0.8">
	
		<ellipse transform="matrix(0.7091 -0.7051 0.7051 0.7091 33.5429 184.5558)" fill="#4EC3E8" cx="240.427" cy="51.629" rx="50.993" ry="51.004"/>
</g>
<path fill="#FFFFFF" stroke="#000000" stroke-miterlimit="10" d="M248.364,43.704c-4.374-4.384-11.473-4.393-15.858-0.019
	c-4.384,4.374-4.393,11.473-0.019,15.858c4.365,4.375,11.447,4.394,15.835,0.042c4.397-4.335,4.446-11.414,0.111-15.811
	C248.41,43.75,248.387,43.727,248.364,43.704z"/>
<g opacity="0.8">
	
		<ellipse transform="matrix(0.7091 -0.7051 0.7051 0.7091 -154.7855 106.4043)" fill="#4EC3E8" cx="51.554" cy="240.78" rx="50.993" ry="51.004"/>
</g>
<path fill="#FFFFFF" stroke="#000000" stroke-miterlimit="10" d="M43.612,248.69c4.374,4.384,11.473,4.393,15.858,0.019
	c4.384-4.374,4.393-11.473,0.019-15.858c-4.365-4.375-11.447-4.394-15.835-0.042c-4.397,4.335-4.446,11.414-0.111,15.811
	C43.566,248.644,43.589,248.667,43.612,248.69z"/>
<g opacity="0.8">
	
		<ellipse transform="matrix(0.7051 -0.7091 0.7091 0.7051 -21.1223 51.1938)" fill="#159E1F" cx="50.994" cy="50.994" rx="50.993" ry="51.004"/>
</g>
<path fill="#FFFFFF" stroke="#000000" stroke-miterlimit="10" d="M58.914,43.059c4.384,4.374,4.393,11.473,0.019,15.858
	c-4.374,4.384-11.473,4.393-15.858,0.019c-4.375-4.365-4.394-11.447-0.042-15.835c4.335-4.397,11.414-4.446,15.811-0.111
	C58.868,43.013,58.891,43.036,58.914,43.059z"/>
<g opacity="0.8">
	
		<ellipse transform="matrix(0.7051 -0.7091 0.7091 0.7051 -99.7395 241.3889)" fill="#159E1F" cx="240.373" cy="240.62" rx="50.993" ry="51.004"/>
</g>
<path fill="#FFFFFF" stroke="#000000" stroke-miterlimit="10" d="M232.459,248.567c-4.384-4.374-4.393-11.473-0.019-15.858
	c4.374-4.384,11.473-4.393,15.858-0.019c4.375,4.365,4.394,11.447,0.042,15.835c-4.335,4.397-11.414,4.446-15.811,0.111
	C232.505,248.613,232.482,248.59,232.459,248.567z"/>
</svg>
