<svg xmlns="http://www.w3.org/2000/svg" xml:space="preserve" viewBox="0 0 163.4 251.747">
    <path fill="#159E1F" stroke="#000" stroke-miterlimit="10" d="M155.25 75.28H8.15c-3.53 0-6.767-2.429-6.767-5.588s2.942-5.588 6.767-5.588h147.1c3.53 0 6.767 2.429 6.767 5.588s-3.236 5.588-6.767 5.588zM155.25 199.112H8.15c-3.53 0-6.767-2.429-6.767-5.588s2.942-5.588 6.767-5.588h147.1c3.53 0 6.767 2.429 6.767 5.588s-3.236 5.588-6.767 5.588z"/>
    <path fill="#159E1F" stroke="#000" stroke-miterlimit="10" d="M81.7 199.112c-3.53 0-6.767-2.429-6.767-5.588V69.692c0-2.915 2.942-5.588 6.767-5.588s6.767 2.429 6.767 5.588v123.833c-.295 2.915-3.237 5.587-6.767 5.587z"/>
    <ellipse cx="81.7" cy="69.692" fill="#159E1F" stroke="#000" stroke-miterlimit="10" rx="15.593" ry="12.876"/>
    <ellipse cx="81.7" cy="193.525" fill="#159E1F" stroke="#000" stroke-miterlimit="10" rx="15.593" ry="12.876"/>
    <path fill="#159E1F" stroke="#000" stroke-miterlimit="10" d="M29.332 97.145H4.619C2.56 97.145.5 95.687.5 93.745v-48.1c0-1.7 1.765-3.4 4.119-3.4h24.713c2.059 0 4.119 1.458 4.119 3.4v48.1a4.12 4.12 0 0 1-4.119 3.4zM158.781 97.145h-24.713c-2.059 0-4.119-1.458-4.119-3.4v-48.1c0-1.7 1.765-3.4 4.119-3.4h24.713c2.059 0 4.119 1.458 4.119 3.4v48.1a4.12 4.12 0 0 1-4.119 3.4zM29.332 221.954H4.619c-2.059 0-4.119-1.458-4.119-3.4v-48.1c0-1.7 1.765-3.4 4.119-3.4h24.713c2.059 0 4.119 1.458 4.119 3.4v48.1a4.356 4.356 0 0 1-4.119 3.4zM158.781 221.954h-24.713c-2.059 0-4.119-1.458-4.119-3.4v-48.1c0-1.7 1.765-3.4 4.119-3.4h24.713c2.059 0 4.119 1.458 4.119 3.4v48.1a4.356 4.356 0 0 1-4.119 3.4z"/>
    <path fill="#4EC3E8" stroke="#000" stroke-miterlimit="10" d="M131.404 246.212s3.7-3.249 3.7-6.368V44.724c0-13.842-5.28-29.606-12.254-34.946C111.223-.59 81.925.531 81.698.539 81.47.531 52.173-.589 40.546 9.778c-6.974 5.34-12.254 21.1-12.254 34.946v195.119c0 3.119 3.7 6.368 3.7 6.368v5.035h99.409v-5.035z"/>
    <path fill="#FFF" stroke="#000" stroke-miterlimit="10" d="M40.778 18.344c-.389-2.339 5.848-9.748 19.491-9.748v14.52l-9.747 1.558s-9.355-3.989-9.744-6.33zM112.875 24.677l-9.744-1.558V8.599c13.646 0 19.883 7.407 19.491 9.748s-9.747 6.33-9.747 6.33zM64.148 174.995h15.964v60.489H64.148zM83.291 174.995h15.964v60.489H83.291zM102.435 174.995h14.477l-.131 57.628-14.346 2.61zM127.794 178.891l-3.9 9.1s-4.157-19.233-4.157-25.21-1.3-43.4 1.3-56.661 3.638-17.153 3.638-17.153l2.08 1.041zM115.878 101.958H47.532l-7.795-26.249 18.706-9.096h46.519000000000005l18.711 9.096zM36.644 90.006l2.08-1.039s1.039 3.9 3.638 17.153 1.3 50.682 1.3 56.661-4.157 25.21-4.157 25.21l-3.9-9.1zM46.488 174.995h14.477v60.238l-14.346-2.61z"/>
</svg>
