<svg id="proposal" xmlns="http://www.w3.org/2000/svg" viewBox="0 0 163.4 251.75"><defs><style>.cls-1{fill:#159e1f;}.cls-1,.cls-2,.cls-3{stroke:#000;stroke-miterlimit:10;}.cls-2{fill:#4ec3e8;}.cls-3{fill:#fff;}</style></defs><title>AirframeRover</title><path class="cls-1" d="M1593.44,2225.22h-147.1c-3.53,0-6.77-2.43-6.77-5.59s2.94-5.59,6.77-5.59h147.1c3.53,0,6.77,2.43,6.77,5.59S1597,2225.22,1593.44,2225.22Z" transform="translate(-1438.19 -2149.94)"/><path class="cls-1" d="M1593.44,2349h-147.1c-3.53,0-6.77-2.43-6.77-5.59s2.94-5.59,6.77-5.59h147.1c3.53,0,6.77,2.43,6.77,5.59S1597,2349,1593.44,2349Z" transform="translate(-1438.19 -2149.94)"/><path class="cls-1" d="M1519.89,2349c-3.53,0-6.77-2.43-6.77-5.59V2219.63c0-2.92,2.94-5.59,6.77-5.59s6.77,2.43,6.77,5.59v123.83C1526.36,2346.38,1523.42,2349,1519.89,2349Z" transform="translate(-1438.19 -2149.94)"/><ellipse class="cls-1" cx="81.7" cy="69.69" rx="15.59" ry="12.88"/><ellipse class="cls-1" cx="81.7" cy="193.53" rx="15.59" ry="12.88"/><path class="cls-1" d="M1467.52,2247.08h-24.71c-2.06,0-4.12-1.46-4.12-3.4v-48.1c0-1.7,1.77-3.4,4.12-3.4h24.71c2.06,0,4.12,1.46,4.12,3.4v48.1A4.12,4.12,0,0,1,1467.52,2247.08Z" transform="translate(-1438.19 -2149.94)"/><path class="cls-1" d="M1597,2247.08h-24.71c-2.06,0-4.12-1.46-4.12-3.4v-48.1c0-1.7,1.77-3.4,4.12-3.4H1597c2.06,0,4.12,1.46,4.12,3.4v48.1A4.12,4.12,0,0,1,1597,2247.08Z" transform="translate(-1438.19 -2149.94)"/><path class="cls-1" d="M1467.52,2371.89h-24.71c-2.06,0-4.12-1.46-4.12-3.4v-48.1c0-1.7,1.77-3.4,4.12-3.4h24.71c2.06,0,4.12,1.46,4.12,3.4v48.1A4.36,4.36,0,0,1,1467.52,2371.89Z" transform="translate(-1438.19 -2149.94)"/><path class="cls-1" d="M1597,2371.89h-24.71c-2.06,0-4.12-1.46-4.12-3.4v-48.1c0-1.7,1.77-3.4,4.12-3.4H1597c2.06,0,4.12,1.46,4.12,3.4v48.1A4.36,4.36,0,0,1,1597,2371.89Z" transform="translate(-1438.19 -2149.94)"/><path class="cls-2" d="M1569.6,2396.15s3.7-3.25,3.7-6.37V2194.66c0-13.84-5.28-29.61-12.25-34.95-11.63-10.37-40.92-9.25-41.15-9.24s-29.52-1.13-41.15,9.24c-7,5.34-12.25,21.1-12.25,34.95v195.12c0,3.12,3.7,6.37,3.7,6.37v5h99.41v-5Z" transform="translate(-1438.19 -2149.94)"/><path class="cls-3" d="M1479,2168.28c-0.39-2.34,5.85-9.75,19.49-9.75v14.52l-9.75,1.56S1479.36,2170.62,1479,2168.28Z" transform="translate(-1438.19 -2149.94)"/><path class="cls-3" d="M1551.07,2174.61l-9.74-1.56v-14.52c13.65,0,19.88,7.41,19.49,9.75S1551.07,2174.61,1551.07,2174.61Z" transform="translate(-1438.19 -2149.94)"/><rect class="cls-3" x="64.15" y="174.99" width="15.96" height="60.49"/><rect class="cls-3" x="83.29" y="174.99" width="15.96" height="60.49"/><polygon class="cls-3" points="102.44 175 116.91 175 116.78 232.62 102.44 235.23 102.44 175"/><path class="cls-3" d="M1566,2328.83l-3.9,9.1s-4.16-19.23-4.16-25.21-1.3-43.4,1.3-56.66,3.64-17.15,3.64-17.15l2.08,1Z" transform="translate(-1438.19 -2149.94)"/><polygon class="cls-3" points="115.88 101.96 82.09 101.96 81.31 101.96 47.53 101.96 39.74 75.71 58.44 66.61 101.08 66.61 104.96 66.61 123.67 75.71 115.88 101.96"/><path class="cls-3" d="M1474.84,2239.94l2.08-1s1,3.9,3.64,17.15,1.3,50.68,1.3,56.66-4.16,25.21-4.16,25.21l-3.9-9.1Z" transform="translate(-1438.19 -2149.94)"/><polygon class="cls-3" points="46.49 175 60.97 175 60.97 235.23 46.62 232.62 46.49 175"/></svg>