<?xml version="1.0" encoding="utf-8"?>
<!-- Generator: Adobe Illustrator 19.2.1, SVG Export Plug-In . SVG Version: 6.00 Build 0)  -->
<svg version="1.1" id="Layer_1" xmlns="http://www.w3.org/2000/svg" xmlns:xlink="http://www.w3.org/1999/xlink" x="0px" y="0px"
	 viewBox="0 0 59.671 87.808" style="enable-background:new 0 0 59.671 87.808;" xml:space="preserve">
<style type="text/css">
	.st0{fill:#FFFFFF;stroke:#FFFFFF;}
	.st1{fill:none;stroke:#FFFFFF;stroke-width:3;stroke-linecap:round;}
	.st2{fill:none;stroke:#FFFFFF;stroke-width:3;}
	.st3{fill:#FFFFFF;stroke:#FFFFFF;stroke-width:3;}
	.st4{fill:#FFFFFF;}
</style>
<sodipodi:namedview  bordercolor="#666666" borderopacity="1.0" id="base" inkscape:current-layer="layer1" inkscape:cx="282.69484" inkscape:cy="221.0125" inkscape:document-units="px" inkscape:guide-bbox="true" inkscape:pageopacity="0.0" inkscape:pageshadow="2" inkscape:window-height="1017" inkscape:window-maximized="1" inkscape:window-width="1920" inkscape:window-x="-8" inkscape:window-y="-8" inkscape:zoom="2.8" pagecolor="#ffffff" showgrid="true" showguides="true">
	<sodipodi:guide  id="guide2985" orientation="1,0" position="250,420"></sodipodi:guide>
	<inkscape:grid  empspacing="10" enabled="true" id="grid2987" snapvisiblegridlinesonly="true" type="xygrid" visible="true">
		</inkscape:grid>
	<sodipodi:guide  id="guide2989" orientation="0,1" position="270,250"></sodipodi:guide>
</sodipodi:namedview>
<g>
	<defs>
		
		
			<inkscape:path-effect  copytype="repeated" effect="skeletal" fuse_tolerance="0" id="path-effect4881" is_visible="true" normal_offset="0" pattern="M 0,0 1,0" prop_scale="1" prop_units="false" scale_y_rel="false" spacing="0" tang_offset="0" vertical_pattern="false">
			</inkscape:path-effect>
		
			<inkscape:path-effect  bendpath="m 110,180 140,0" effect="bend_path" id="path-effect3765" is_visible="true" prop_scale="1" scale_y_rel="false" vertical="false">
			</inkscape:path-effect>
	</defs>
	<g>
		<g>
			
				<path id="path2991_3_" sodipodi:cx="110" sodipodi:cy="110" sodipodi:rx="20" sodipodi:ry="20" sodipodi:type="arc" class="st0" d="
				M18.734,7.918c-0.169,0.83-1.147,1.355-2.178,1.136c-1.031-0.218-1.679-1.087-1.455-1.906c0.225-0.819,1.193-1.288,2.168-1.081
				C18.245,6.273,18.903,7.087,18.734,7.918z"/>
			
				<path id="path3761_3_" sodipodi:cx="110" sodipodi:cy="110" sodipodi:end="6.4866523" sodipodi:open="true" sodipodi:rx="50" sodipodi:ry="50" sodipodi:start="1.374765" sodipodi:type="arc" class="st1" d="
				M17.012,12.188c-3.308-0.136-5.924-2.602-5.69-5.147c0.234-2.545,2.84-4.234,5.668-4.091s5.181,2.08,5.427,4.618
				c0.059,0.614-0.023,1.229-0.256,1.807"/>
			
				<path id="path2991-6_3_" inkscape:transform-center-x="-140.5" inkscape:transform-center-y="-140.5" sodipodi:cx="110" sodipodi:cy="110" sodipodi:rx="20" sodipodi:ry="20" sodipodi:type="arc" class="st0" d="
				M43.115,9.054c-1.031,0.218-2.009-0.306-2.178-1.136c-0.169-0.83,0.489-1.644,1.464-1.851c0.976-0.207,1.944,0.263,2.168,1.081
				C44.794,7.967,44.146,8.835,43.115,9.054z"/>
			
				<path id="path3761-1_3_" inkscape:transform-center-x="-140.5" inkscape:transform-center-y="-140.50478" sodipodi:cx="110" sodipodi:cy="110" sodipodi:end="6.4866523" sodipodi:open="true" sodipodi:rx="50" sodipodi:ry="50" sodipodi:start="1.374765" sodipodi:type="arc" class="st1" d="
				M37.498,9.343c-0.942-2.394,0.618-4.969,3.233-5.979c2.615-1.011,5.647-0.216,7.03,1.977c1.384,2.192,0.25,5.149-2.807,6.362
				c-0.74,0.293-1.54,0.46-2.34,0.488"/>
			
				<path id="path2991-9_3_" sodipodi:cx="110" sodipodi:cy="110" sodipodi:rx="20" sodipodi:ry="20" sodipodi:type="arc" class="st0" d="
				M45.245,29.041c-0.169-0.83,0.806-1.701,2.171-1.99s2.647,0.103,2.872,0.921s-0.737,1.765-2.158,2.066
				C46.71,30.34,45.415,29.872,45.245,29.041z"/>
			
				<path id="path3761-2_3_" sodipodi:cx="110" sodipodi:cy="110" sodipodi:end="6.4866523" sodipodi:open="true" sodipodi:rx="50" sodipodi:ry="50" sodipodi:start="1.374765" sodipodi:type="arc" class="st1" d="
				M45.334,24.432c3.764-1.233,7.892-0.762,9.499,1.362c1.607,2.124-0.252,5.327-4.451,6.802c-4.199,1.475-8.784,0.445-9.957-1.921
				c-0.284-0.572-0.359-1.188-0.237-1.809"/>
			
				<path id="path2991-6-9_3_" inkscape:transform-center-x="140.5" inkscape:transform-center-y="140.50002" sodipodi:cx="110" sodipodi:cy="110" sodipodi:rx="20" sodipodi:ry="20" sodipodi:type="arc" class="st0" d="
				M12.254,27.051c1.365,0.289,2.341,1.159,2.171,1.99c-0.169,0.83-1.465,1.298-2.885,0.997c-1.42-0.301-2.382-1.247-2.158-2.066
				C9.608,27.154,10.889,26.762,12.254,27.051z"/>
			
				<path id="path3761-1-5_3_" inkscape:transform-center-x="140.5" inkscape:transform-center-y="140.50476" sodipodi:cx="110" sodipodi:cy="110" sodipodi:end="6.4866523" sodipodi:open="true" sodipodi:rx="50" sodipodi:ry="50" sodipodi:start="1.374765" sodipodi:type="arc" class="st1" d="
				M19.49,28.9c0.476,2.566-2.624,4.715-7.081,4.356c-4.457-0.359-8.169-3.149-8.159-5.762c0.01-2.613,3.343-4.056,7.313-3.651
				c0.96,0.098,1.916,0.303,2.825,0.604"/>
		</g>
		<path class="st2" d="M11.897,28.545C23.883,24.596,34.911,17.522,42.758,7.56"/>
		<path class="st2" d="M47.777,28.545C35.791,24.596,24.763,17.522,16.915,7.56"/>
		<path class="st3" d="M38.681,19.141c0.453,3.364-3.496,6.665-8.845,6.665s-9.299-3.302-8.845-6.665
			c0.453-3.364,4.404-5.613,8.845-5.613C34.276,13.527,38.228,15.777,38.681,19.141z"/>
	</g>
</g>
<path class="st4" d="M32.086,85.338c-0.605,0.63-1.343,0.939-2.213,0.927c-0.87-0.013-1.62-0.322-2.251-0.927
	s-0.946-1.343-0.946-2.213s0.315-1.62,0.946-2.251c0.605-0.63,1.343-0.946,2.213-0.946s1.62,0.315,2.251,0.946
	c0.63,0.605,0.946,1.349,0.946,2.232S32.716,84.733,32.086,85.338z M43.206,72.894c-0.832,0-1.563-0.315-2.194-0.946
	c-3.076-3.051-6.796-4.577-11.158-4.577s-8.082,1.526-11.158,4.577c-0.63,0.63-1.374,0.939-2.232,0.927
	c-0.857-0.013-1.601-0.322-2.232-0.927c-0.63-0.63-0.946-1.368-0.946-2.213s0.315-1.582,0.946-2.213
	c2.824-2.824,6.128-4.734,9.91-5.731c3.782-0.996,7.571-0.996,11.366,0c3.795,0.996,7.105,2.906,9.929,5.731
	c0.63,0.63,0.946,1.368,0.946,2.213s-0.315,1.582-0.946,2.213C44.808,72.579,44.064,72.894,43.206,72.894z M23.159,79.589
	c-0.857,0-1.601-0.315-2.232-0.946c-0.63-0.63-0.946-1.374-0.946-2.232c0-0.857,0.315-1.601,0.946-2.232
	c1.614-1.614,3.505-2.705,5.674-3.272c2.169-0.567,4.337-0.567,6.506,0c2.169,0.567,4.06,1.658,5.674,3.272
	c0.63,0.63,0.946,1.374,0.946,2.232c0,0.857-0.315,1.601-0.946,2.232c-0.63,0.63-1.374,0.946-2.232,0.946
	c-0.857,0-1.601-0.315-2.232-0.946c-1.236-1.236-2.723-1.853-4.463-1.853s-3.228,0.618-4.463,1.853
	C24.761,79.274,24.017,79.589,23.159,79.589z"/>
</svg>
