<svg xmlns="http://www.w3.org/2000/svg" xml:space="preserve" id="Layer_1" x="0" y="0" version="1.1" viewBox="0 0 59.671 87.808">
    <style>
        .st0{fill:#fff;stroke:#fff}.st1{stroke-linecap:round}.st1,.st2{fill:none;stroke:#fff;stroke-width:3}
    </style>
    <path id="path2991_3_" d="M18.734 7.918c-.169.83-1.147 1.355-2.178 1.136-1.031-.218-1.679-1.087-1.455-1.906.225-.819 1.193-1.288 2.168-1.081.976.206 1.634 1.02 1.465 1.851z" class="st0"/>
    <path id="path3761_3_" d="M17.012 12.188c-3.308-.136-5.924-2.602-5.69-5.147s2.84-4.234 5.668-4.091 5.181 2.08 5.427 4.618a3.8 3.8 0 0 1-.256 1.807" class="st1"/>
    <path id="path2991-6_3_" d="M43.115 9.054c-1.031.218-2.009-.306-2.178-1.136s.489-1.644 1.464-1.851c.976-.207 1.944.263 2.168 1.081.225.819-.423 1.687-1.454 1.906z" class="st0"/>
    <path id="path3761-1_3_" d="M37.498 9.343c-.942-2.394.618-4.969 3.233-5.979 2.615-1.011 5.647-.216 7.03 1.977s.25 5.149-2.807 6.362c-.74.293-1.54.46-2.34.488" class="st1"/>
    <path id="path2991-9_3_" d="M45.245 29.041c-.169-.83.806-1.701 2.171-1.99s2.647.103 2.872.921-.737 1.765-2.158 2.066c-1.42.302-2.715-.166-2.885-.997z" class="st0"/>
    <path id="path3761-2_3_" d="M45.334 24.432c3.764-1.233 7.892-.762 9.499 1.362s-.252 5.327-4.451 6.802-8.784.445-9.957-1.921a2.8 2.8 0 0 1-.237-1.809" class="st1"/>
    <path id="path2991-6-9_3_" d="M12.254 27.051c1.365.289 2.341 1.159 2.171 1.99-.169.83-1.465 1.298-2.885.997s-2.382-1.247-2.158-2.066c.226-.818 1.507-1.21 2.872-.921z" class="st0"/>
    <path id="path3761-1-5_3_" d="M19.49 28.9c.476 2.566-2.624 4.715-7.081 4.356S4.24 30.107 4.25 27.494s3.343-4.056 7.313-3.651c.96.098 1.916.303 2.825.604" class="st1"/>
    <path d="M11.897 28.545C23.883 24.596 34.911 17.522 42.758 7.56" class="st2"/>
    <path d="M47.777 28.545C35.791 24.596 24.763 17.522 16.915 7.56" class="st2"/>
    <path d="M38.681 19.141c.453 3.364-3.496 6.665-8.845 6.665s-9.299-3.302-8.845-6.665 4.404-5.613 8.845-5.613c4.44-.001 8.392 2.249 8.845 5.613z" style="fill:#fff;stroke:#fff;stroke-width:3"/>
    <path d="M32.086 85.338a2.9 2.9 0 0 1-2.213.927q-1.305-.02-2.251-.927c-.946-.907-.946-1.343-.946-2.213s.315-1.62.946-2.251q.908-.945 2.213-.946c1.305-.001 1.62.315 2.251.946q.945.907.946 2.232c.001 1.325-.316 1.627-.946 2.232m11.12-12.444q-1.248 0-2.194-.946-4.615-4.577-11.158-4.577c-6.543 0-8.082 1.526-11.158 4.577q-.945.945-2.232.927-1.285-.02-2.232-.927-.946-.945-.946-2.213c0-1.268.315-1.582.946-2.213q4.236-4.236 9.91-5.731 5.673-1.494 11.366 0t9.929 5.731q.946.945.946 2.213c0 1.268-.315 1.582-.946 2.213q-.944.946-2.231.946m-20.047 6.695q-1.285 0-2.232-.946-.945-.945-.946-2.232 0-1.285.946-2.232 2.42-2.421 5.674-3.272a12.66 12.66 0 0 1 6.506 0q3.253.85 5.674 3.272.945.945.946 2.232 0 1.285-.946 2.232-.945.945-2.232.946-1.286 0-2.232-.946-1.853-1.853-4.463-1.853c-2.61 0-3.228.618-4.463 1.853q-.945.946-2.232.946" style="fill:#fff"/>
</svg>
