<svg xmlns="http://www.w3.org/2000/svg" width="290.465" height="230" viewBox="0 0 76.852 60.854">
    <g transform="translate(5.353 -2.646)">
        <path d="M56.885 59.531s14.552-7.937 14.552-13.229V19.844c0-5.292-14.552-13.23-14.552-13.23zM9.26 6.615S-5.292 14.552-5.292 19.844v26.458c0 5.292 14.552 13.23 14.552 13.23z" style="fill:#fff;fill-opacity:1;stroke:#000;stroke-width:.123;stroke-linecap:butt;stroke-linejoin:miter;stroke-miterlimit:4;stroke-dasharray:none;stroke-opacity:1"/>
        <rect width="47.567" height="60.731" x="9.289" y="2.707" rx="2.646" ry="2.646" style="opacity:1;fill:#fff;fill-opacity:1;stroke:#000;stroke-width:.123;stroke-miterlimit:4;stroke-dasharray:none;stroke-opacity:1"/>
        <path stroke-miterlimit="10" d="M163.823 168.211h-36.355l18.177-51z" style="fill:#ff442b;stroke:#000;stroke-miterlimit:10" transform="matrix(.15225 0 0 .15225 10.899 11.42)"/>
        <ellipse cx="-16.275" cy="20.12" rx="6.323" ry="6.324" style="opacity:.8;fill:#4ec3e8;stroke-width:.123996" transform="rotate(-44.838)"/>
        <path stroke-miterlimit="10" d="M3.606 24.783a1.358 1.358 0 1 0 .009.009z" style="fill:#fff;stroke:#000;stroke-width:.121091;stroke-miterlimit:10"/>
        <g transform="matrix(-1 0 0 1 8.97 0)">
            <ellipse cx="-24.191" cy="32.973" rx="6.323" ry="6.324" style="opacity:.8;fill:#159e1f;stroke-width:.124;stroke-miterlimit:4;stroke-dasharray:none" transform="rotate(-45.162)"/>
            <path stroke-miterlimit="10" d="M7.284 39.445a1.358 1.358 0 1 0 .008.008z" style="fill:#fff;stroke:#000;stroke-width:.121091;stroke-miterlimit:10"/>
        </g>
        <ellipse cx="26.52" cy="63.179" rx="6.323" ry="6.324" style="opacity:.8;fill:#159e1f;stroke-width:.124;stroke-miterlimit:4;stroke-dasharray:none" transform="rotate(-45.162)"/>
        <path stroke-miterlimit="10" d="M64.46 24.783a1.358 1.358 0 1 0 .009.009z" style="fill:#fff;stroke:#000;stroke-width:.121091;stroke-miterlimit:10"/>
        <g transform="translate(3.678)">
            <ellipse cx="13.932" cy="70.831" rx="6.323" ry="6.324" style="opacity:.8;fill:#4ec3e8;stroke-width:.123996" transform="rotate(-44.838)"/>
            <path stroke-miterlimit="10" d="M60.783 39.445a1.358 1.358 0 1 0 .008.008z" style="fill:#fff;stroke:#000;stroke-width:.121091;stroke-miterlimit:10"/>
        </g>
        <path d="M67.737 1.807h12.647v5.292H67.737z" style="opacity:.8;fill:#4ec3e8;fill-opacity:1;stroke-width:.265112" transform="rotate(45)"/>
        <path d="M-33.612-44.965h12.647v5.292h-12.647z" style="opacity:.8;fill:#159e1f;fill-opacity:1;stroke-width:.265112" transform="rotate(135)"/>
        <path d="M20.965-53.871h12.647v5.292H20.965z" style="opacity:.8;fill:#4ec3e8;fill-opacity:1;stroke-width:.265112" transform="rotate(135)"/>
        <path d="M13.16-7.099h12.647v5.292H13.16z" style="opacity:.8;fill:#159e1f;fill-opacity:1;stroke-width:.265112" transform="rotate(45)"/>
        <g style="font-style:normal;font-variant:normal;font-weight:400;font-stretch:normal;font-size:33.3333px;line-height:125%;font-family:sans-serif;-inkscape-font-specification:sans-serif;letter-spacing:0;word-spacing:0;fill:#fff;fill-opacity:1;stroke:none;stroke-width:2px;stroke-linecap:butt;stroke-linejoin:miter;stroke-opacity:1">
            <path d="M349.13 161.565h-5.233v-2.1q3.4-.433 4.4-1.2 1-.733 1.7-3.1l.134-.4h1.933v23.633h-2.933z" aria-label="1" style="font-style:normal;font-variant:normal;font-weight:400;font-stretch:normal;font-size:33.3333px;font-family:FreeSans;-inkscape-font-specification:FreeSans;fill:#fff;fill-opacity:1;stroke-width:2px" transform="translate(3.185 -11.409)scale(.13229)"/>
        </g>
        <g style="font-style:normal;font-variant:normal;font-weight:400;font-stretch:normal;font-size:33.3333px;line-height:125%;font-family:sans-serif;-inkscape-font-specification:sans-serif;letter-spacing:0;word-spacing:0;fill:#fff;fill-opacity:1;stroke:none;stroke-width:2px;stroke-linecap:butt;stroke-linejoin:miter;stroke-opacity:1">
            <path d="M13.414 163.09q.266-8.167 7.8-8.2 4.033 0 6.166 2.667 1.4 1.833 1.4 4.266-.033 4.4-5 7.134l-3.333 1.8q-3.1 1.666-3.9 3.533-.267.6-.367 1.333h12.434v2.9H12.88q.234-4.266 1.9-6.5 1.434-1.866 4.734-3.733l3.066-1.733q3.167-1.867 3.2-4.667 0-2.4-2-3.7-1.166-.733-2.666-.733-4.367 0-4.767 5.433v.2z" aria-label="2" style="font-style:normal;font-variant:normal;font-weight:400;font-stretch:normal;font-size:33.3333px;font-family:FreeSans;-inkscape-font-specification:FreeSans;fill:#fff;fill-opacity:1;stroke-width:2px" transform="translate(14.17 -11.425)scale(.13229)"/>
        </g>
        <g style="font-style:normal;font-variant:normal;font-weight:400;font-stretch:normal;font-size:33.3333px;line-height:125%;font-family:sans-serif;-inkscape-font-specification:sans-serif;letter-spacing:0;word-spacing:0;fill:#fff;fill-opacity:1;stroke:none;stroke-width:2px;stroke-linecap:butt;stroke-linejoin:miter;stroke-opacity:1">
            <path d="M119.018 9.656q-3.8 0-4.4 3.667-.066.633-.1 1.4h-2.933q.133-7 6.333-7.6.534-.034 1.067-.034 4.667 0 6.4 3.134.8 1.466.8 3.366-.033 3.6-3.3 4.9 3.1 1.067 3.767 3.6.233.9.233 2.034 0 4.1-3.133 6.1-2.034 1.266-4.867 1.266-6.533 0-7.633-6.133-.1-.733-.167-1.5h2.933q.267 4.4 3.767 4.933.567.1 1.2.1 3.467 0 4.533-2.633.367-.967.367-2.1-.067-4.267-4.9-4.3l-1.233.033h-.367v-2.5q3.767-.066 4.9-1.1.9-.866.9-2.6 0-2.833-2.333-3.733-.834-.3-1.834-.3" aria-label="3" style="font-style:normal;font-variant:normal;font-weight:400;font-stretch:normal;font-size:33.3333px;font-family:FreeSans;-inkscape-font-specification:FreeSans;fill:#fff;fill-opacity:1;stroke-width:2px" transform="translate(33.48 52.965)scale(.13229)"/>
        </g>
        <g style="font-style:normal;font-variant:normal;font-weight:400;font-stretch:normal;font-size:33.3333px;line-height:125%;font-family:sans-serif;-inkscape-font-specification:sans-serif;letter-spacing:0;word-spacing:0;fill:#fff;fill-opacity:1;stroke:none;stroke-width:2px;stroke-linecap:butt;stroke-linejoin:miter;stroke-opacity:1">
            <path d="M253.446 321.29h-9.966v-3.1l10.733-14.866h2.167v15.333h3.5v2.634h-3.5v5.666h-2.934zm0-2.633v-10.333l-7.4 10.333z" aria-label="4" style="font-style:normal;font-variant:normal;font-weight:400;font-stretch:normal;font-size:33.3333px;font-family:FreeSans;-inkscape-font-specification:FreeSans;fill:#fff;fill-opacity:1;stroke-width:2px" transform="translate(-16.37 13.827)scale(.13229)"/>
        </g>
        <g style="font-style:normal;font-variant:normal;font-weight:400;font-stretch:normal;font-size:33.3333px;line-height:125%;font-family:sans-serif;-inkscape-font-specification:sans-serif;letter-spacing:0;word-spacing:0;fill:#fff;fill-opacity:1;stroke:none;stroke-width:2px;stroke-linecap:butt;stroke-linejoin:miter;stroke-opacity:1">
            <path d="M258.609 6.59v2.9h-9.833l-.934 6.6q2-1.434 4.367-1.434 4 0 6.133 2.9 1.5 2.067 1.5 4.967 0 4.3-2.9 6.7-2.166 1.766-5.2 1.766-6.533 0-7.766-6.266-.034-.1-.067-.3h2.933q1.1 3.933 4.834 3.966 3.366 0 4.633-2.7.533-1.233.533-2.766 0-3.634-2.533-5.034-1.167-.633-2.633-.633-2.134 0-3.634 1.433-.333.367-.7.767h-2.7l1.767-12.867z" aria-label="5" style="font-style:normal;font-variant:normal;font-weight:400;font-stretch:normal;font-size:33.3333px;font-family:FreeSans;-inkscape-font-specification:FreeSans;fill:#fff;fill-opacity:1;stroke-width:2px" transform="translate(34.148 22.65)scale(.13229)"/>
        </g>
        <g style="font-style:normal;font-variant:normal;font-weight:400;font-stretch:normal;font-size:33.3333px;line-height:125%;font-family:sans-serif;-inkscape-font-specification:sans-serif;letter-spacing:0;word-spacing:0;fill:#fff;fill-opacity:1;stroke:none;stroke-width:2px;stroke-linecap:butt;stroke-linejoin:miter;stroke-opacity:1">
            <path d="M110.67 315.836q0-10.3 5.7-12.4 1.3-.467 2.766-.467 3.833 0 5.667 3.1.766 1.333 1.033 3.067h-2.933q-.6-2.934-3.034-3.467-.466-.1-.933-.1-3.7 0-4.833 4.8-.4 1.833-.434 4.167 1.967-2.634 5.434-2.634 3.7 0 5.766 2.767 1.467 2 1.467 4.733 0 3.967-2.733 6.234-2.1 1.733-5 1.733-7.9-.067-7.934-11.533m8.066-1.334q-2.833 0-4.167 2.2-.733 1.2-.733 2.767 0 2.867 2.033 4.4 1.2.9 2.767.9 2.533 0 3.867-2.1.833-1.333.833-3.033 0-3.4-2.367-4.634-1-.5-2.233-.5" aria-label="6" style="font-style:normal;font-variant:normal;font-weight:400;font-stretch:normal;font-size:33.3333px;font-family:FreeSans;-inkscape-font-specification:FreeSans;fill:#fff;fill-opacity:1;stroke-width:2px" transform="translate(-16.36 -16.475)scale(.13229)"/>
        </g>
        <g style="font-style:normal;font-variant:normal;font-weight:400;font-stretch:normal;font-size:33.3907px;line-height:125%;font-family:sans-serif;-inkscape-font-specification:sans-serif;letter-spacing:0;word-spacing:0;fill:#fff;fill-opacity:1;stroke:none;stroke-width:2.00344px;stroke-linecap:butt;stroke-linejoin:miter;stroke-opacity:1">
            <path d="M325.55 223.447v2.47q-6.744 8.983-8.948 18.032-.4 1.57-.668 3.172h-3.138q1.669-7.28 4.774-12.99 1.87-3.405 4.942-7.78h-12.788v-2.904z" aria-label="7" style="font-style:normal;font-variant:normal;font-weight:400;font-stretch:normal;font-size:33.3907px;font-family:FreeSans;-inkscape-font-specification:FreeSans;fill:#fff;fill-opacity:1;stroke-width:2.00344px" transform="translate(25.448 8.561)scale(.13229)"/>
        </g>
        <g style="font-style:normal;font-variant:normal;font-weight:400;font-stretch:normal;font-size:33.3907px;line-height:125%;font-family:sans-serif;-inkscape-font-specification:sans-serif;letter-spacing:0;word-spacing:0;fill:#fff;fill-opacity:1;stroke:none;stroke-width:2.00344px;stroke-linecap:butt;stroke-linejoin:miter;stroke-opacity:1">
            <path d="M54.806 234.726q4.04 1.97 4.074 5.91 0 3.74-2.872 5.777-2.103 1.536-5.075 1.536-4.14 0-6.378-2.738-1.57-1.937-1.57-4.608.034-3.94 4.041-5.877-2.404-1.502-2.938-3.105-.267-.768-.267-1.803 0-3.306 2.704-5.075 1.87-1.236 4.408-1.236 3.873 0 5.843 2.538 1.27 1.636 1.27 3.773 0 2.27-1.503 3.64-.668.634-1.737 1.268m-3.873-8.614q-2.705 0-3.706 1.97-.401.801-.401 1.77 0 2.337 2.037 3.272.935.434 2.07.434 2.671 0 3.673-1.904.434-.801.434-1.77 0-2.504-2.17-3.405-.869-.367-1.937-.367m0 9.917q-2.972 0-4.274 2.137-.668 1.101-.668 2.504 0 2.738 2.204 4.007 1.169.668 2.671.668 3.039 0 4.34-2.17.669-1.103.669-2.505 0-2.738-2.237-4.007-1.202-.634-2.705-.634" aria-label="8" style="font-style:normal;font-variant:normal;font-weight:400;font-stretch:normal;font-size:33.3907px;font-family:FreeSans;-inkscape-font-specification:FreeSans;fill:#fff;fill-opacity:1;stroke-width:2.00344px" transform="translate(-7.25 8.635)scale(.13229)"/>
        </g>
        <path d="M.048 18.393c.91-.858 1.486-1.006 2.262-1.158l.015 1.451c-.487-.306-1.309-.395-2.277-.293" style="fill:#fff;fill-opacity:1;fill-rule:evenodd;stroke:none;stroke-width:.119062px;stroke-linecap:butt;stroke-linejoin:miter;stroke-opacity:1" transform="matrix(-1 0 0 1 4.915 2.815)"/>
        <path d="M223.947 38.426a34.1 34.1 0 0 1-11.584 9.19" style="fill:none;fill-opacity:1;fill-rule:evenodd;stroke:#ffffec;stroke-width:2.51339;stroke-linecap:butt;stroke-linejoin:miter;stroke-miterlimit:4;stroke-dasharray:none;stroke-opacity:1" transform="rotate(-154.15 15.677 15.817)scale(.11906)"/>
        <path d="M4.491 27.463c-.91.857-1.487 1.005-2.262 1.157l-.015-1.45c.487.306 1.308.395 2.277.293" style="fill:#fff;fill-opacity:1;fill-rule:evenodd;stroke:none;stroke-width:.119062px;stroke-linecap:butt;stroke-linejoin:miter;stroke-opacity:1" transform="matrix(-1 0 0 1 4.915 2.815)"/>
        <path d="M223.947 38.426a34.1 34.1 0 0 1-11.584 9.19" style="fill:none;fill-opacity:1;fill-rule:evenodd;stroke:#ffffec;stroke-width:2.51339;stroke-linecap:butt;stroke-linejoin:miter;stroke-miterlimit:4;stroke-dasharray:none;stroke-opacity:1" transform="scale(.11906)rotate(25.853 -340.997 -260.65)"/>
        <path d="M.048 18.393c.91-.858 1.486-1.006 2.262-1.158l.015 1.451c-.487-.306-1.309-.395-2.277-.293" style="fill:#fff;fill-opacity:1;fill-rule:evenodd;stroke:none;stroke-width:.119062px;stroke-linecap:butt;stroke-linejoin:miter;stroke-opacity:1" transform="matrix(-1 0 0 1 65.77 17.476)"/>
        <path d="M223.947 38.426a34.1 34.1 0 0 1-11.584 9.19" style="fill:none;fill-opacity:1;fill-rule:evenodd;stroke:#ffffec;stroke-width:2.51339;stroke-linecap:butt;stroke-linejoin:miter;stroke-miterlimit:4;stroke-dasharray:none;stroke-opacity:1" transform="rotate(-154.15 47.786 16.163)scale(.11906)"/>
        <path d="M4.491 27.463c-.91.857-1.487 1.005-2.262 1.157l-.015-1.45c.487.306 1.308.395 2.277.293" style="fill:#fff;fill-opacity:1;fill-rule:evenodd;stroke:none;stroke-width:.119062px;stroke-linecap:butt;stroke-linejoin:miter;stroke-opacity:1" transform="matrix(-1 0 0 1 65.77 17.476)"/>
        <path d="M223.947 38.426a34.1 34.1 0 0 1-11.584 9.19" style="fill:none;fill-opacity:1;fill-rule:evenodd;stroke:#ffffec;stroke-width:2.51339;stroke-linecap:butt;stroke-linejoin:miter;stroke-miterlimit:4;stroke-dasharray:none;stroke-opacity:1" transform="matrix(.10715 .05192 -.05192 .10715 43.258 29.26)"/>
        <path d="M.048 18.393c.91-.858 1.486-1.006 2.262-1.158l.015 1.451c-.487-.306-1.309-.395-2.277-.293" style="fill:#fff;fill-opacity:1;fill-rule:evenodd;stroke:none;stroke-width:.119062px;stroke-linecap:butt;stroke-linejoin:miter;stroke-opacity:1" transform="translate(.376 17.476)"/>
        <path d="M223.947 38.426a34.1 34.1 0 0 1-11.584 9.19" style="fill:none;fill-opacity:1;fill-rule:evenodd;stroke:#ffffec;stroke-width:2.51339;stroke-linecap:butt;stroke-linejoin:miter;stroke-miterlimit:4;stroke-dasharray:none;stroke-opacity:1" transform="scale(.11906 -.11906)rotate(25.853 869.275 -538.427)"/>
        <path d="M4.491 27.463c-.91.857-1.487 1.005-2.262 1.157l-.015-1.45c.487.306 1.308.395 2.277.293" style="fill:#fff;fill-opacity:1;fill-rule:evenodd;stroke:none;stroke-width:.119062px;stroke-linecap:butt;stroke-linejoin:miter;stroke-opacity:1" transform="translate(.376 17.476)"/>
        <path d="M223.947 38.426a34.1 34.1 0 0 1-11.584 9.19" style="fill:none;fill-opacity:1;fill-rule:evenodd;stroke:#ffffec;stroke-width:2.51339;stroke-linecap:butt;stroke-linejoin:miter;stroke-miterlimit:4;stroke-dasharray:none;stroke-opacity:1" transform="matrix(-.10715 .05192 .05192 .10715 22.888 29.26)"/>
        <path d="M.048 18.393c.91-.858 1.486-1.006 2.262-1.158l.015 1.451c-.487-.306-1.309-.395-2.277-.293" style="fill:#fff;fill-opacity:1;fill-rule:evenodd;stroke:none;stroke-width:.119062px;stroke-linecap:butt;stroke-linejoin:miter;stroke-opacity:1" transform="translate(61.23 2.815)"/>
        <path d="M223.947 38.426a34.1 34.1 0 0 1-11.584 9.19" style="fill:none;fill-opacity:1;fill-rule:evenodd;stroke:#ffffec;stroke-width:2.51339;stroke-linecap:butt;stroke-linejoin:miter;stroke-miterlimit:4;stroke-dasharray:none;stroke-opacity:1" transform="scale(.11906 -.11906)rotate(25.853 856.576 636.592)"/>
        <path d="M4.491 27.463c-.91.857-1.487 1.005-2.262 1.157l-.015-1.45c.487.306 1.308.395 2.277.293" style="fill:#fff;fill-opacity:1;fill-rule:evenodd;stroke:none;stroke-width:.119062px;stroke-linecap:butt;stroke-linejoin:miter;stroke-opacity:1" transform="translate(61.23 2.815)"/>
        <path d="M223.947 38.426a34.1 34.1 0 0 1-11.584 9.19" style="fill:none;fill-opacity:1;fill-rule:evenodd;stroke:#ffffec;stroke-width:2.51339;stroke-linecap:butt;stroke-linejoin:miter;stroke-miterlimit:4;stroke-dasharray:none;stroke-opacity:1" transform="matrix(-.10715 .05192 .05192 .10715 83.742 14.598)"/>
    </g>
</svg>
