<svg xmlns="http://www.w3.org/2000/svg" xml:space="preserve" viewBox="0 0 387.573 324.704">
    <g style="opacity:.8">
        <ellipse cx="50.998" cy="80.988" rx="50.993" ry="51.004" style="fill:#4ec3e8" transform="scale(.94101 .93544)rotate(-45.162 68.166 7.709)"/>
    </g>
    <g style="opacity:.8">
        <ellipse cx="53.018" cy="270.783" rx="50.993" ry="51.004" style="fill:#159e1f" transform="scale(.94101 .93544)rotate(-44.838 87.32 206.935)"/>
    </g>
    <path stroke-miterlimit="10" d="M97.976 48.493H104v196.954h-6.024z" style="fill:#fff;stroke:#000;stroke-width:.99031782;stroke-miterlimit:10"/>
    <g style="opacity:.8">
        <ellipse cx="53.018" cy="240.783" rx="50.993" ry="51.004" style="fill:#4ec3e8" transform="scale(.94101 .93544)rotate(-44.838 93.911 179.912)"/>
    </g>
    <g style="opacity:.8">
        <ellipse cx="52.464" cy="50.99" rx="50.993" ry="51.004" style="fill:#159e1f" transform="scale(.94101 .93544)rotate(-45.162 80.8 -15.639)"/>
    </g>
    <path stroke-miterlimit="10" d="M109.144 40.7a10.446 10.446 0 0 1 .018 14.833c-4.116 4.101-10.797 4.11-14.923.018a10.446 10.446 0 0 1-.04-14.813c4.08-4.113 10.741-4.159 14.879-.103z" style="fill:#fff;stroke:#000;stroke-width:.93822801;stroke-miterlimit:10"/>
    <g style="opacity:.8">
        <ellipse cx="241.891" cy="81.633" rx="50.993" ry="51.004" style="fill:#159e1f" transform="scale(.94101 .93544)rotate(-44.838 258.365 6.22)"/>
    </g>
    <g style="opacity:.8">
        <ellipse cx="241.845" cy="270.616" rx="50.993" ry="51.004" style="fill:#4ec3e8" transform="matrix(.66351 -.66333 .66728 .65958 -59.75 238.13)"/>
    </g>
    <path stroke-miterlimit="10" d="M278.652 50.403h6.024v195.044h-6.024z" style="fill:#fff;stroke:#000;stroke-width:.98550457;stroke-miterlimit:10"/>
    <g style="opacity:.8">
        <ellipse cx="241.845" cy="240.616" rx="50.993" ry="51.004" style="fill:#159e1f" transform="scale(.94101 .93544)rotate(-45.162 285.808 178.404)"/>
    </g>
    <path stroke-miterlimit="10" d="M191.11 324.234h55.572c-11.92-23.697-26.661-24.321-26.661-24.321H198.38l5.018-116.62s134.566-5.769 169.384-6.86c-15.998-39.445-66.5-41.003-66.5-41.003H207.63v-34.923s.624-29.636-14.272-29.467h-4.494c-14.879.221-14.273 29.467-14.273 29.467v34.923h-98.65s-50.501 1.56-66.498 41.003c34.817 1.092 169.383 6.86 169.383 6.86l5.018 116.62h-21.643s-14.743.625-26.662 24.321h55.572" style="fill:#4ec3e8;stroke:#000;stroke-width:.93822801;stroke-miterlimit:10"/>
    <path stroke-miterlimit="10" d="M273.842 244.535a10.446 10.446 0 0 1-.018-14.834c4.116-4.101 10.796-4.11 14.923-.018a10.446 10.446 0 0 1 .04 14.813c-4.08 4.113-10.742 4.159-14.88.104zM94.011 243.034c4.116 4.1 10.797 4.11 14.923.018a10.446 10.446 0 0 0 .018-14.835c-4.108-4.092-10.772-4.11-14.901-.039a10.415 10.415 0 0 0-.105 14.79z" style="fill:#fff;stroke:#000;stroke-width:.93822801;stroke-miterlimit:10"/>
    <path stroke-miterlimit="10" d="M56.89 178.216c36.446 1.457 81.597 3.36 105.42 4.373l.227-10.535-105.394-4.678s-.161 6.68-.252 10.84z" style="fill:#159e1f;stroke:#000;stroke-width:.93822801;stroke-miterlimit:10"/>
    <g style="opacity:.8">
        <ellipse cx="241.891" cy="51.633" rx="50.993" ry="51.004" style="fill:#4ec3e8" transform="scale(.94101 .93544)rotate(-44.838 270.783 -19.025)"/>
    </g>
    <path stroke-miterlimit="10" d="M325.25 178.316c-36.445 1.457-81.596 3.36-105.42 4.373l-.225-10.535 105.394-4.677s.16 6.68.252 10.839z" style="fill:#159e1f;stroke:#000;stroke-width:.93822801;stroke-miterlimit:10"/>
    <path stroke-miterlimit="10" d="M289.88 40.7c-4.116-4.1-10.796-4.109-14.922-.017a10.446 10.446 0 0 0-.018 14.834c4.107 4.093 10.772 4.11 14.9.04a10.415 10.415 0 0 0 .04-14.856z" style="fill:#fff;stroke:#000;stroke-width:.93822801;stroke-miterlimit:10"/>
    <path stroke-miterlimit="10" d="M232.841 311.188v13l-78.11.016v-13.016z" style="fill:#159e1f;stroke:#000;stroke-miterlimit:10" transform="matrix(.94102 0 0 .93545 8.755 20.96)"/>
    <path stroke-miterlimit="10" d="M189.395 298.355h8.833l-2 25.667h-4.833z" style="fill:#159e1f;stroke:#000;stroke-miterlimit:10" transform="matrix(.94102 0 0 .93545 8.755 20.96)"/>
</svg>
