<svg xmlns="http://www.w3.org/2000/svg" xml:space="preserve" viewBox="0 0 433.662 366.158">
    <path fill="#FFF" stroke="#000" stroke-miterlimit="10" d="M119.349 51.786h194.965v6.11H119.349zM214.357 174.37h6.12v104.473h-6.12z"/>
    <path fill="#159E1F" d="M255.339 349.285c-18.851 20.925-51.095 22.606-72.02 3.755s-22.606-51.095-3.755-72.02 51.095-22.606 72.02-3.755a51 51 0 0 1 3.755 3.755c17.471 19.401 17.471 48.864 0 68.265" opacity=".8"/>
    <ellipse cx="114.844" cy="80.559" fill="#159E1F" opacity=".8" rx="51.004" ry="50.993" transform="rotate(-45.001 114.85 80.563)"/>
    <ellipse cx="318.822" cy="80.559" fill="#159E1F" opacity=".8" rx="51.004" ry="50.993" transform="rotate(-45.001 318.837 80.561)"/>
    <path fill="#4EC3E8" stroke="#000" stroke-miterlimit="10" d="M227.402 211.885c117.211 5.687 205.717 76.149 205.717 76.149s-.8-20.38-1.595-33.809-4.253-18.01-4.253-18.01-94.221-100-101.264-106.956-7.575-10.585-25.382-10.585c-66.712 0-57.808-63.51-57.808-71.251s-3.522-10.98-4.917-12.639-3.721-7.267-8.505-21.012C225.235 1.822 218.668.62 217.023.51V.501h-.386V.51c-1.645.11-8.213 1.311-12.372 13.262-4.784 13.745-7.11 19.353-8.505 21.012s-4.917 4.9-4.917 12.639 8.9 71.251-57.808 71.251c-17.808 0-18.339 3.634-25.382 10.585S6.389 236.215 6.389 236.215s-3.455 4.582-4.253 18.01S.541 288.034.541 288.034s88.506-70.461 205.717-76.149h21.144z"/>
    <path fill="#159E1F" stroke="#000" stroke-miterlimit="10" d="M299.525 223.521c50.117 13.578 90.1 35.681 112.8 50.161l-.235-20.146-92.154-61.557zM134.187 223.521c-50.117 13.578-90.1 35.681-112.8 50.161l.676-20.44 91.713-61.262z"/>
    <path fill="#4EC3E8" d="M255.339 319.285c-18.851 20.925-51.095 22.606-72.02 3.755s-22.606-51.095-3.755-72.02 51.095-22.606 72.02-3.755a51 51 0 0 1 3.755 3.755c17.471 19.401 17.471 48.864 0 68.265" opacity=".8"/>
    <ellipse cx="114.843" cy="54.559" fill="#4EC3E8" opacity=".8" rx="51.004" ry="50.993" transform="rotate(-45.001 114.85 54.561)"/>
    <ellipse cx="318.822" cy="54.559" fill="#4EC3E8" opacity=".8" rx="51.004" ry="50.993" transform="rotate(-45.001 318.837 54.56)"/>
    <path fill="#FFF" stroke="#000" stroke-miterlimit="10" d="M225.363 293.1c-4.385 4.373-11.485 4.363-15.858-.022s-4.363-11.485.022-15.858c4.376-4.364 11.459-4.364 15.835 0 4.385 4.347 4.416 11.426.069 15.811zM122.761 62.507c-4.385 4.373-11.485 4.363-15.858-.022s-4.363-11.485.022-15.858c4.376-4.364 11.459-4.364 15.835 0 4.385 4.347 4.416 11.426.069 15.811zM326.739 62.507c-4.385 4.373-11.485 4.363-15.858-.022s-4.363-11.485.022-15.858c4.376-4.364 11.459-4.364 15.835 0 4.385 4.347 4.416 11.426.069 15.811z"/>
</svg>
