<?xml version="1.0" encoding="utf-8"?>
<!-- Generator: Adobe Illustrator 19.2.0, SVG Export Plug-In . SVG Version: 6.00 Build 0)  -->
<!DOCTYPE svg PUBLIC "-//W3C//DTD SVG 1.1//EN" "http://www.w3.org/Graphics/SVG/1.1/DTD/svg11.dtd">
<svg version="1.1" id="draw" xmlns="http://www.w3.org/2000/svg" xmlns:xlink="http://www.w3.org/1999/xlink" x="0px" y="0px"
	 viewBox="0 0 387.573 324.704" enable-background="new 0 0 387.573 324.704" xml:space="preserve">
<title>VTOLPlane</title>
<rect x="94.814" y="51" fill="#FFFFFF" stroke="#000000" stroke-miterlimit="10" width="6.402" height="188.979"/>
<rect x="286.814" y="51" fill="#FFFFFF" stroke="#000000" stroke-miterlimit="10" width="6.402" height="188.979"/>
<g opacity="0.8">
	
		<ellipse transform="matrix(0.7071 -0.7071 0.7071 0.7071 -7.3479 84.2497)" fill="#159E1F" cx="98.019" cy="50.994" rx="50.993" ry="51.004"/>
</g>
<g opacity="0.8">
	
		<ellipse transform="matrix(0.7071 -0.7071 0.7071 0.7071 -140.9801 139.6049)" fill="#4EC3E8" cx="98.02" cy="239.972" rx="50.993" ry="51.004"/>
</g>
<path fill="#FFFFFF" stroke="#000000" stroke-miterlimit="10" d="M90.077,58.918c-4.373-4.385-4.363-11.485,0.022-15.858
	c4.385-4.373,11.485-4.363,15.858,0.022c4.364,4.376,4.364,11.459,0,15.835c-4.347,4.385-11.426,4.416-15.811,0.069
	C90.123,58.964,90.1,58.941,90.077,58.918z"/>
<path fill="#FFFFFF" stroke="#000000" stroke-miterlimit="10" d="M90.077,247.898c-4.373-4.385-4.363-11.485,0.022-15.858
	c4.385-4.373,11.485-4.363,15.858,0.022c4.364,4.376,4.364,11.459,0,15.835c-4.347,4.385-11.426,4.416-15.811,0.069
	C90.123,247.944,90.1,247.921,90.077,247.898z"/>
<g opacity="0.8">
	
		<ellipse transform="matrix(0.7071 -0.7071 0.7071 0.7071 48.8925 220.0187)" fill="#4EC3E8" cx="290.019" cy="50.994" rx="50.993" ry="51.004"/>
</g>
<g opacity="0.8">
	
		<ellipse transform="matrix(0.7071 -0.7071 0.7071 0.7071 -84.7391 275.3736)" fill="#159E1F" cx="290.019" cy="239.971" rx="50.993" ry="51.004"/>
</g>
<path fill="#FFFFFF" stroke="#000000" stroke-miterlimit="10" d="M282.077,58.918c-4.373-4.385-4.363-11.485,0.022-15.858
	c4.385-4.373,11.485-4.363,15.858,0.022c4.364,4.376,4.364,11.459,0,15.835c-4.347,4.385-11.426,4.416-15.811,0.069
	C282.123,58.964,282.1,58.941,282.077,58.918z"/>
<path fill="#FFFFFF" stroke="#000000" stroke-miterlimit="10" d="M282.077,247.898c-4.373-4.385-4.363-11.485,0.022-15.858
	c4.385-4.373,11.485-4.363,15.858,0.022c4.364,4.376,4.364,11.459,0,15.835c-4.347,4.385-11.426,4.416-15.811,0.069
	C282.123,247.944,282.1,247.921,282.077,247.898z"/>
<path fill="#4EC3E8" stroke="#000000" stroke-miterlimit="10" d="M193.786,324.203h59.055c-12.667-25.332-28.333-26-28.333-26
	h-22.997l5.333-124.667c0,0,143-6.167,180-7.333c-17-42.167-70.667-43.833-70.667-43.833H211.341V85.037
	c0,0,0.663-31.681-15.167-31.5h-4.776c-15.811,0.236-15.167,31.5-15.167,31.5v37.333H71.398c0,0-53.667,1.667-70.667,43.833
	c37,1.167,180,7.333,180,7.333l5.333,124.667h-23c0,0-15.667,0.669-28.333,26H193.786"/>
<path fill="#159E1F" stroke="#000000" stroke-miterlimit="10" d="M51.153,168.108c38.73,1.558,86.711,3.593,112.028,4.675
	l0.24-11.262l-112-5C51.421,156.521,51.25,163.662,51.153,168.108z"/>
<path fill="#159E1F" stroke="#000000" stroke-miterlimit="10" d="M336.334,168.215c-38.73,1.558-86.711,3.593-112.028,4.675
	l-0.24-11.262l112-5C336.066,156.628,336.237,163.769,336.334,168.215z"/>
<polygon fill="#159E1F" stroke="#000000" stroke-miterlimit="10" points="154.731,324.204 154.731,311.188 232.841,311.188 
	232.841,324.188 "/>
<polygon fill="#159E1F" stroke="#000000" stroke-miterlimit="10" points="196.228,324.022 191.395,324.022 189.395,298.355 
	198.228,298.355 "/>
</svg>
