<?xml version="1.0" encoding="UTF-8" standalone="no"?>
<!-- Generator: Adobe Illustrator 19.2.0, SVG Export Plug-In . SVG Version: 6.00 Build 0)  -->

<svg
   xmlns:dc="http://purl.org/dc/elements/1.1/"
   xmlns:cc="http://creativecommons.org/ns#"
   xmlns:rdf="http://www.w3.org/1999/02/22-rdf-syntax-ns#"
   xmlns:svg="http://www.w3.org/2000/svg"
   xmlns="http://www.w3.org/2000/svg"
   xmlns:sodipodi="http://sodipodi.sourceforge.net/DTD/sodipodi-0.dtd"
   xmlns:inkscape="http://www.inkscape.org/namespaces/inkscape"
   version="1.1"
   id="draw"
   x="0px"
   y="0px"
   viewBox="0 0 387.573 324.704"
   enable-background="new 0 0 387.573 324.704"
   xml:space="preserve"
   sodipodi:docname="VTOLPlaneOcto.svg"
   inkscape:version="0.92.4 (unknown)"><metadata
   id="metadata31106"><rdf:RDF><cc:Work
       rdf:about=""><dc:format>image/svg+xml</dc:format><dc:type
         rdf:resource="http://purl.org/dc/dcmitype/StillImage" /><dc:title>VTOLPlane</dc:title></cc:Work></rdf:RDF></metadata><defs
   id="defs31104" /><sodipodi:namedview
   pagecolor="#ffffff"
   bordercolor="#666666"
   borderopacity="1"
   objecttolerance="10"
   gridtolerance="10"
   guidetolerance="10"
   inkscape:pageopacity="0"
   inkscape:pageshadow="2"
   inkscape:window-width="2499"
   inkscape:window-height="1385"
   id="namedview31102"
   showgrid="false"
   inkscape:zoom="5.8145263"
   inkscape:cx="224.7944"
   inkscape:cy="86.919919"
   inkscape:window-x="1920"
   inkscape:window-y="27"
   inkscape:window-maximized="1"
   inkscape:current-layer="draw" /><title
   id="title31061">VTOLPlane</title>
<g
   transform="matrix(0.94101707,0,0,0.93544727,52.323311,0.41970752)"
   style="opacity:0.8"
   id="g13148"><ellipse
     style="fill:#4ec3e8"
     transform="matrix(0.7051,-0.7091,0.7091,0.7051,-42.389,60.0411)"
     cx="50.998001"
     cy="80.987999"
     rx="50.993"
     ry="51.004002"
     id="ellipse13146" /></g><g
   transform="matrix(0.94101707,0,0,0.93544727,51.590216,10.39745)"
   style="opacity:0.8"
   id="g13152"><ellipse
     style="fill:#159e1f"
     transform="matrix(0.7091,-0.7051,0.7051,0.7091,-175.5156,116.1654)"
     cx="53.018002"
     cy="270.78299"
     rx="50.993"
     ry="51.004002"
     id="ellipse13150" /></g><rect
   x="97.976318"
   y="48.492847"
   stroke-miterlimit="10"
   width="6.0243912"
   height="196.95419"
   id="rect31063"
   style="fill:#ffffff;stroke:#000000;stroke-width:0.99031782;stroke-miterlimit:10" /><g
   transform="matrix(0.94101707,0,0,0.93544727,51.590216,10.39745)"
   style="opacity:0.8"
   id="g13178"><ellipse
     style="fill:#4ec3e8"
     transform="matrix(0.7091,-0.7051,0.7051,0.7091,-154.3615,107.4372)"
     cx="53.018002"
     cy="240.783"
     rx="50.993"
     ry="51.004002"
     id="ellipse13176" /></g><path
   sodipodi:nodetypes="cccc"
   inkscape:connector-curvature="0"
   id="path17111"
   d="m 138.86762,88.332514 c -0.29513,9.834905 -2.69591,13.866626 -6.18423,19.030796 l -8.20643,-7.992185 c 4.43973,-1.006579 9.53699,-5.082968 14.39066,-11.038611 z"
   style="opacity:1;fill:#ffffff;fill-opacity:1;fill-rule:evenodd;stroke:none;stroke-width:0.93984187px;stroke-linecap:butt;stroke-linejoin:miter;stroke-opacity:1" /><g
   transform="matrix(0.94101707,0,0,0.93544727,52.323311,0.41970752)"
   style="opacity:0.8"
   id="g13184"><ellipse
     style="fill:#159e1f"
     transform="matrix(0.7051,-0.7091,0.7091,0.7051,-20.6859,52.2355)"
     cx="52.464001"
     cy="50.990002"
     rx="50.993"
     ry="51.004002"
     id="ellipse13182" /></g><path
   inkscape:connector-curvature="0"
   style="fill:#ffffff;stroke:#000000;stroke-width:0.93822801;stroke-miterlimit:10"
   stroke-miterlimit="10"
   d="m 109.14381,40.699131 c 4.12541,4.091647 4.13388,10.732387 0.0179,14.834323 -4.116,4.101001 -10.796285,4.10942 -14.922645,0.01777 -4.11695,-4.083228 -4.13483,-10.708065 -0.0395,-14.812808 4.07931,-4.113162 10.740765,-4.158998 14.878415,-0.103835 0.0226,0.02152 0.0442,0.04303 0.0659,0.06455 z"
   id="path13186" /><path
   sodipodi:nodetypes="cccc"
   inkscape:connector-curvature="0"
   id="path7676"
   d="m 137.19854,65.571102 c 6.77538,-7.149474 7.9436,-11.680109 9.14828,-17.773265 l -11.46807,-0.11693 c 2.41919,3.825957 3.12269,10.280267 2.31979,17.890195 z"
   style="opacity:1;fill:#ffffff;fill-opacity:1;fill-rule:evenodd;stroke:none;stroke-width:0.93822801px;stroke-linecap:butt;stroke-linejoin:miter;stroke-opacity:1" /><path
   sodipodi:type="spiral"
   style="opacity:1;fill:none;fill-opacity:1;fill-rule:evenodd;stroke:#ffffec;stroke-width:2.51338577;stroke-linecap:butt;stroke-linejoin:miter;stroke-miterlimit:4;stroke-dasharray:none;stroke-opacity:1"
   id="path7711"
   sodipodi:cx="197.5222"
   sodipodi:cy="17.012539"
   sodipodi:expansion="0"
   sodipodi:revolution="8.0200005"
   sodipodi:radius="34.011444"
   sodipodi:argument="-17.855951"
   sodipodi:t0="0.99130303"
   d="m 223.94673,38.425681 c -3.13084,3.863564 -7.10954,7.019918 -11.58403,9.189766"
   transform="matrix(0.41034266,-0.84182413,0.84683648,0.40791387,13.275545,207.15132)" /><path
   style="opacity:1;fill:#ffffff;fill-opacity:1;fill-rule:evenodd;stroke:none;stroke-width:0.93822801px;stroke-linecap:butt;stroke-linejoin:miter;stroke-opacity:1"
   d="m 65.509883,30.660812 c -6.775389,7.149472 -7.943605,11.680107 -9.148286,17.773262 l 11.468071,0.116931 C 65.410474,44.725048 64.706979,38.270738 65.509883,30.660812 Z"
   id="path7831"
   inkscape:connector-curvature="0"
   sodipodi:nodetypes="cccc" /><path
   transform="matrix(-0.41034267,0.84182412,-0.84683648,-0.40791389,189.43287,-110.91941)"
   d="m 223.94673,38.425681 c -3.13084,3.863564 -7.10954,7.019918 -11.58403,9.189766"
   sodipodi:t0="0.99130303"
   sodipodi:argument="-17.855951"
   sodipodi:radius="34.011444"
   sodipodi:revolution="8.0200005"
   sodipodi:expansion="0"
   sodipodi:cy="17.012539"
   sodipodi:cx="197.5222"
   id="path7833"
   style="opacity:1;fill:none;fill-opacity:1;fill-rule:evenodd;stroke:#ffffec;stroke-width:2.51338577;stroke-linecap:butt;stroke-linejoin:miter;stroke-miterlimit:4;stroke-dasharray:none;stroke-opacity:1"
   sodipodi:type="spiral" /><path
   style="opacity:1;fill:#ffffff;fill-opacity:1;fill-rule:evenodd;stroke:none;stroke-width:0.93822801px;stroke-linecap:butt;stroke-linejoin:miter;stroke-opacity:1"
   d="m 137.19854,65.571102 c 6.77538,-7.149474 7.9436,-11.680109 9.14828,-17.773265 l -11.46807,-0.11693 c 2.41919,3.825957 3.12269,10.280267 2.31979,17.890195 z"
   id="path14492"
   inkscape:connector-curvature="0"
   sodipodi:nodetypes="cccc" /><path
   transform="matrix(0.41034266,-0.84182413,0.84683648,0.40791387,13.275545,207.15132)"
   d="m 223.94673,38.425681 c -3.13084,3.863564 -7.10954,7.019918 -11.58403,9.189766"
   sodipodi:t0="0.99130303"
   sodipodi:argument="-17.855951"
   sodipodi:radius="34.011444"
   sodipodi:revolution="8.0200005"
   sodipodi:expansion="0"
   sodipodi:cy="17.012539"
   sodipodi:cx="197.5222"
   id="path14494"
   style="opacity:1;fill:none;fill-opacity:1;fill-rule:evenodd;stroke:#ffffec;stroke-width:2.51338577;stroke-linecap:butt;stroke-linejoin:miter;stroke-miterlimit:4;stroke-dasharray:none;stroke-opacity:1"
   sodipodi:type="spiral" /><path
   sodipodi:nodetypes="cccc"
   inkscape:connector-curvature="0"
   id="path14496"
   d="m 65.509883,30.660812 c -6.775389,7.149472 -7.943605,11.680107 -9.148286,17.773262 l 11.468071,0.116931 C 65.410474,44.725048 64.706979,38.270738 65.509883,30.660812 Z"
   style="opacity:1;fill:#ffffff;fill-opacity:1;fill-rule:evenodd;stroke:none;stroke-width:0.93822801px;stroke-linecap:butt;stroke-linejoin:miter;stroke-opacity:1" /><path
   sodipodi:type="spiral"
   style="opacity:1;fill:none;fill-opacity:1;fill-rule:evenodd;stroke:#ffffec;stroke-width:2.51338577;stroke-linecap:butt;stroke-linejoin:miter;stroke-miterlimit:4;stroke-dasharray:none;stroke-opacity:1"
   id="path14498"
   sodipodi:cx="197.5222"
   sodipodi:cy="17.012539"
   sodipodi:expansion="0"
   sodipodi:revolution="8.0200005"
   sodipodi:radius="34.011444"
   sodipodi:argument="-17.855951"
   sodipodi:t0="0.99130303"
   d="m 223.94673,38.425681 c -3.13084,3.863564 -7.10954,7.019918 -11.58403,9.189766"
   transform="matrix(-0.41034267,0.84182412,-0.84683648,-0.40791389,189.43287,-110.91941)" /><g
   transform="matrix(0.94101707,0,0,0.93544727,52.323311,0.41970752)"
   aria-label="2"
   style="font-style:normal;font-variant:normal;font-weight:normal;font-stretch:normal;font-size:33.33333588px;line-height:125%;font-family:sans-serif;-inkscape-font-specification:sans-serif;letter-spacing:0px;word-spacing:0px;fill:#ffffff;fill-opacity:1;stroke:none;stroke-width:1px;stroke-linecap:butt;stroke-linejoin:miter;stroke-opacity:1"
   id="text14502"><path
     inkscape:connector-curvature="0"
     d="m 46.114657,15.460476 q 0.266667,-8.1666675 7.800001,-8.2000009 4.033333,0 6.166667,2.6666669 1.4,1.833333 1.4,4.266667 -0.03333,4.4 -5,7.133334 l -3.333334,1.8 q -3.1,1.666667 -3.9,3.533334 -0.266667,0.6 -0.366667,1.333333 h 12.433334 v 2.9 H 45.581324 q 0.233333,-4.266667 1.9,-6.5 1.433333,-1.866667 4.733334,-3.733334 l 3.066667,-1.733333 q 3.166666,-1.866667 3.2,-4.666667 0,-2.400001 -2,-3.700001 -1.166667,-0.733333 -2.666667,-0.733333 -4.366667,0 -4.766667,5.433334 0,0.1 0,0.2 z"
     style="font-style:normal;font-variant:normal;font-weight:normal;font-stretch:normal;font-size:33.33333588px;font-family:FreeSans;-inkscape-font-specification:FreeSans;fill:#ffffff;fill-opacity:1"
     id="path17162" /></g><path
   style="opacity:1;fill:#ffffff;fill-opacity:1;fill-rule:evenodd;stroke:none;stroke-width:0.93984187px;stroke-linecap:butt;stroke-linejoin:miter;stroke-opacity:1"
   d="M 85.067357,112.53133 C 75.173909,112.23795 71.118181,109.85137 65.92325,106.3837 l 8.039786,-8.157853 c 1.012572,4.413453 5.113233,9.480543 11.104321,14.305483 z"
   id="path17107"
   inkscape:connector-curvature="0"
   sodipodi:nodetypes="cccc" /><path
   transform="matrix(-0.89048907,-0.30734866,-0.30917867,0.88521833,273.72653,125.55793)"
   d="m 223.94673,38.425681 c -3.13084,3.863564 -7.10954,7.019918 -11.58403,9.189766"
   sodipodi:t0="0.99130303"
   sodipodi:argument="-17.855951"
   sodipodi:radius="34.011444"
   sodipodi:revolution="8.0200005"
   sodipodi:expansion="0"
   sodipodi:cy="17.012539"
   sodipodi:cx="197.5222"
   id="path17109"
   style="opacity:1;fill:none;fill-opacity:1;fill-rule:evenodd;stroke:#ffffec;stroke-width:2.51338577;stroke-linecap:butt;stroke-linejoin:miter;stroke-miterlimit:4;stroke-dasharray:none;stroke-opacity:1"
   sodipodi:type="spiral" /><path
   sodipodi:type="spiral"
   style="opacity:1;fill:none;fill-opacity:1;fill-rule:evenodd;stroke:#ffffec;stroke-width:2.51338577;stroke-linecap:butt;stroke-linejoin:miter;stroke-miterlimit:4;stroke-dasharray:none;stroke-opacity:1"
   id="path17113"
   sodipodi:cx="197.5222"
   sodipodi:cy="17.012539"
   sodipodi:expansion="0"
   sodipodi:revolution="8.0200005"
   sodipodi:radius="34.011444"
   sodipodi:argument="-17.855951"
   sodipodi:t0="0.99130303"
   d="m 223.94673,38.425681 c -3.13084,3.863564 -7.10954,7.019918 -11.58403,9.189766"
   transform="matrix(-0.30917866,0.88521833,0.89048907,0.30734865,151.97176,-99.209994)" /><g
   transform="matrix(0.94101707,0,0,0.93544727,41.913347,-1.159899)"
   aria-label="5"
   style="font-style:normal;font-variant:normal;font-weight:normal;font-stretch:normal;font-size:33.39067459px;line-height:125%;font-family:sans-serif;-inkscape-font-specification:sans-serif;letter-spacing:0px;word-spacing:0px;fill:#ffffff;fill-opacity:1;stroke:none;stroke-width:1.00172007px;stroke-linecap:butt;stroke-linejoin:miter;stroke-opacity:1"
   id="text17117"><path
     inkscape:connector-curvature="0"
     d="m 57.058958,105.12231 v 2.90499 h -9.850249 l -0.934939,6.61135 q 2.003441,-1.4358 4.374179,-1.4358 4.006881,0 6.143884,2.90499 1.50258,2.07022 1.50258,4.97521 0,4.3074 -2.904989,6.71152 -2.170393,1.76971 -5.208945,1.76971 -6.544572,0 -7.780027,-6.27745 -0.03339,-0.10017 -0.06678,-0.30051 h 2.938379 q 1.101892,3.9401 4.841648,3.97349 3.372458,0 4.641304,-2.70465 0.53425,-1.23545 0.53425,-2.77142 0,-3.63959 -2.537691,-5.04199 -1.168673,-0.63443 -2.637863,-0.63443 -2.137003,0 -3.639584,1.4358 -0.333906,0.3673 -0.701204,0.76799 h -2.704644 l 1.769705,-12.8888 z"
     style="font-style:normal;font-variant:normal;font-weight:normal;font-stretch:normal;font-size:33.39067459px;font-family:FreeSans;-inkscape-font-specification:FreeSans;fill:#ffffff;fill-opacity:1;stroke-width:1.00172007px"
     id="path17159" /></g><g
   transform="matrix(0.94101707,0,0,0.93544727,54.784087,-0.18209844)"
   style="opacity:0.8"
   id="g13160"><ellipse
     style="fill:#159e1f"
     transform="matrix(0.7091,-0.7051,0.7051,0.7091,12.8117,194.3173)"
     cx="241.89101"
     cy="81.633003"
     rx="50.993"
     ry="51.004002"
     id="ellipse13158" /></g><g
   transform="matrix(0.94101707,0,0,0.93544727,53.712714,12.015759)"
   style="opacity:0.8"
   id="g13156"><ellipse
     style="fill:#4ec3e8"
     transform="matrix(0.7051,-0.7091,0.7091,0.7051,-120.5748,251.2775)"
     cx="241.845"
     cy="270.616"
     rx="50.993"
     ry="51.004002"
     id="ellipse13154" /></g><rect
   x="278.65158"
   y="50.402733"
   stroke-miterlimit="10"
   width="6.0243912"
   height="195.04433"
   id="rect31065"
   style="fill:#ffffff;stroke:#000000;stroke-width:0.98550457;stroke-miterlimit:10" /><g
   transform="matrix(0.94101707,0,0,0.93544727,53.712714,12.015759)"
   style="opacity:0.8"
   id="g13190"><ellipse
     style="fill:#159e1f"
     transform="matrix(0.7051,-0.7091,0.7091,0.7051,-99.3026,242.4316)"
     cx="241.845"
     cy="240.616"
     rx="50.993"
     ry="51.004002"
     id="ellipse13188" /></g><path
   stroke-miterlimit="10"
   d="m 191.11066,324.23416 h 55.57177 c -11.91987,-23.69675 -26.66184,-24.32163 -26.66184,-24.32163 h -21.64057 l 5.01845,-116.6194 c 0,0 134.56544,-5.76891 169.38307,-6.85964 -15.99729,-39.445 -66.49886,-41.00346 -66.49886,-41.00346 h -98.65246 v -34.92305 c 0,0 0.62389,-29.635907 -14.27241,-29.466591 h -4.49429 c -14.87843,0.220765 -14.27241,29.466591 -14.27241,29.466591 v 34.92305 H 75.941462 c 0,0 -50.501563,1.55939 -66.4988526,41.00346 34.8176316,1.09167 169.3830806,6.85964 169.3830806,6.85964 l 5.01844,116.6194 h -21.64339 c 0,0 -14.74292,0.62581 -26.66184,24.32163 h 55.57176"
   id="path31091"
   inkscape:connector-curvature="0"
   style="fill:#4ec3e8;stroke:#000000;stroke-width:0.93822801;stroke-miterlimit:10" /><path
   inkscape:connector-curvature="0"
   style="fill:#ffffff;stroke:#000000;stroke-width:0.93822801;stroke-miterlimit:10"
   stroke-miterlimit="10"
   d="m 273.84202,244.5352 c -4.12542,-4.09165 -4.13389,-10.73239 -0.0179,-14.83432 4.116,-4.10101 10.79628,-4.10942 14.92264,-0.0178 4.11695,4.08323 4.13483,10.70807 0.0395,14.81281 -4.07931,4.11316 -10.74077,4.159 -14.87842,0.10383 -0.0226,-0.0215 -0.0442,-0.043 -0.0659,-0.0645 z"
   id="path13192" /><path
   inkscape:connector-curvature="0"
   style="fill:#ffffff;stroke:#000000;stroke-width:0.93822801;stroke-miterlimit:10"
   stroke-miterlimit="10"
   d="m 94.011265,243.03383 c 4.11601,4.101 10.796295,4.10942 14.922655,0.0178 4.12542,-4.09165 4.13389,-10.73239 0.0179,-14.83432 -4.10754,-4.09258 -10.771825,-4.11036 -14.901015,-0.0393 -4.13765,4.05516 -4.18376,10.67719 -0.10445,14.79036 0.0216,0.0225 0.0433,0.044 0.0649,0.0655 z"
   id="path13180" /><path
   style="opacity:1;fill:#ffffff;fill-opacity:1;fill-rule:evenodd;stroke:none;stroke-width:0.93984187px;stroke-linecap:butt;stroke-linejoin:miter;stroke-opacity:1"
   d="m 243.40172,88.407101 c 0.29513,9.834908 2.69591,13.866629 6.18423,19.030799 l 8.20643,-7.992186 c -4.43973,-1.006578 -9.53699,-5.082967 -14.39066,-11.038613 z"
   id="path7831-5"
   inkscape:connector-curvature="0"
   sodipodi:nodetypes="cccc" /><path
   stroke-miterlimit="10"
   d="m 56.890572,178.21552 c 36.445593,1.45742 81.596538,3.36106 105.420268,4.37321 l 0.22584,-10.535 -105.393916,-4.67724 c 0,0 -0.160914,6.68003 -0.252192,10.83903 z"
   id="path31093"
   inkscape:connector-curvature="0"
   style="fill:#159e1f;stroke:#000000;stroke-width:0.93822801;stroke-miterlimit:10" /><g
   transform="matrix(0.94101707,0,0,0.93544727,54.784087,-0.18209844)"
   style="opacity:0.8"
   id="g13172"><ellipse
     style="fill:#4ec3e8"
     transform="matrix(0.7091,-0.7051,0.7051,0.7091,33.9659,185.5891)"
     cx="241.89101"
     cy="51.632999"
     rx="50.993"
     ry="51.004002"
     id="ellipse13170" /></g><path
   stroke-miterlimit="10"
   d="m 325.25077,178.31561 c -36.4456,1.45743 -81.59654,3.36106 -105.42026,4.37322 l -0.22585,-10.53501 105.39391,-4.67724 c 0,0 0.16092,6.68003 0.2522,10.83903 z"
   id="path31095"
   inkscape:connector-curvature="0"
   style="fill:#159e1f;stroke:#000000;stroke-width:0.93822801;stroke-miterlimit:10" /><path
   inkscape:connector-curvature="0"
   style="fill:#ffffff;stroke:#000000;stroke-width:0.93822801;stroke-miterlimit:10"
   stroke-miterlimit="10"
   d="m 289.88028,40.700689 c -4.11601,-4.101001 -10.79629,-4.10942 -14.92265,-0.01777 -4.12542,4.091647 -4.13389,10.732387 -0.0179,14.834323 4.10754,4.092582 10.77182,4.110355 14.901,0.03929 4.13766,-4.055164 4.18377,-10.677195 0.10446,-14.790357 -0.0217,-0.02245 -0.0433,-0.04397 -0.0649,-0.06548 z"
   id="path13174" /><path
   style="opacity:1;fill:#ffffff;fill-opacity:1;fill-rule:evenodd;stroke:none;stroke-width:0.93822801px;stroke-linecap:butt;stroke-linejoin:miter;stroke-opacity:1"
   d="m 245.6444,65.437348 c -6.77538,-7.149475 -7.94359,-11.680108 -9.14828,-17.773265 l 11.46807,-0.116931 c -2.4192,3.82596 -3.12269,10.280266 -2.31979,17.890196 z"
   id="path7870"
   inkscape:connector-curvature="0"
   sodipodi:nodetypes="cccc" /><path
   transform="matrix(-0.41034266,-0.84182412,-0.84683648,0.40791388,369.5674,207.01759)"
   d="m 223.94673,38.425681 c -3.13084,3.863564 -7.10954,7.019918 -11.58403,9.189766"
   sodipodi:t0="0.99130303"
   sodipodi:argument="-17.855951"
   sodipodi:radius="34.011444"
   sodipodi:revolution="8.0200005"
   sodipodi:expansion="0"
   sodipodi:cy="17.012539"
   sodipodi:cx="197.5222"
   id="path7872"
   style="opacity:1;fill:none;fill-opacity:1;fill-rule:evenodd;stroke:#ffffec;stroke-width:2.51338577;stroke-linecap:butt;stroke-linejoin:miter;stroke-miterlimit:4;stroke-dasharray:none;stroke-opacity:1"
   sodipodi:type="spiral" /><path
   sodipodi:nodetypes="cccc"
   inkscape:connector-curvature="0"
   id="path7874"
   d="m 317.33305,30.527053 c 6.77539,7.149474 7.9436,11.680117 9.14828,17.773265 l -11.46807,0.116931 c 2.4192,-3.825952 3.12269,-10.280267 2.31979,-17.890196 z"
   style="opacity:1;fill:#ffffff;fill-opacity:1;fill-rule:evenodd;stroke:none;stroke-width:0.93822801px;stroke-linecap:butt;stroke-linejoin:miter;stroke-opacity:1" /><path
   sodipodi:type="spiral"
   style="opacity:1;fill:none;fill-opacity:1;fill-rule:evenodd;stroke:#ffffec;stroke-width:2.51338577;stroke-linecap:butt;stroke-linejoin:miter;stroke-miterlimit:4;stroke-dasharray:none;stroke-opacity:1"
   id="path7876"
   sodipodi:cx="197.5222"
   sodipodi:cy="17.012539"
   sodipodi:expansion="0"
   sodipodi:revolution="8.0200005"
   sodipodi:radius="34.011444"
   sodipodi:argument="-17.855951"
   sodipodi:t0="0.99130303"
   d="m 223.94673,38.425681 c -3.13084,3.863564 -7.10954,7.019918 -11.58403,9.189766"
   transform="matrix(0.41034267,0.84182412,0.84683648,-0.40791388,193.41007,-111.05316)" /><g
   transform="matrix(0.94101707,0,0,0.93544727,54.784087,-0.18209844)"
   aria-label="1"
   style="font-style:normal;font-variant:normal;font-weight:normal;font-stretch:normal;font-size:33.33333588px;line-height:125%;font-family:sans-serif;-inkscape-font-specification:sans-serif;letter-spacing:0px;word-spacing:0px;fill:#ffffff;fill-opacity:1;stroke:none;stroke-width:1px;stroke-linecap:butt;stroke-linejoin:miter;stroke-opacity:1"
   id="text7991"><path
     inkscape:connector-curvature="0"
     d="m 242.64841,13.680272 h -5.23333 v -2.1 q 3.4,-0.433333 4.4,-1.2 1,-0.7333332 1.7,-3.1000001 0.0667,-0.2 0.13333,-0.4 h 1.93333 V 30.513607 h -2.93333 z"
     style="font-style:normal;font-variant:normal;font-weight:normal;font-stretch:normal;font-size:33.33333588px;font-family:FreeSans;-inkscape-font-specification:FreeSans;fill:#ffffff;fill-opacity:1"
     id="path17156" /></g><path
   sodipodi:nodetypes="cccc"
   inkscape:connector-curvature="0"
   id="path7676-20"
   d="m 297.20198,112.60592 c 9.89345,-0.29338 13.94918,-2.67996 19.14411,-6.14763 l -8.03979,-8.157853 c -1.01257,4.413453 -5.11323,9.480543 -11.10432,14.305483 z"
   style="opacity:1;fill:#ffffff;fill-opacity:1;fill-rule:evenodd;stroke:none;stroke-width:0.93984187px;stroke-linecap:butt;stroke-linejoin:miter;stroke-opacity:1" /><polygon
   stroke-miterlimit="10"
   points="232.841,311.188 232.841,324.188 154.731,324.204 154.731,311.188 "
   id="polygon31097"
   transform="matrix(0.94101707,0,0,0.93544727,8.7547264,20.959348)"
   style="fill:#159e1f;stroke:#000000;stroke-miterlimit:10" /><path
   sodipodi:type="spiral"
   style="opacity:1;fill:none;fill-opacity:1;fill-rule:evenodd;stroke:#ffffec;stroke-width:2.51338577;stroke-linecap:butt;stroke-linejoin:miter;stroke-miterlimit:4;stroke-dasharray:none;stroke-opacity:1"
   id="path7711-8"
   sodipodi:cx="197.5222"
   sodipodi:cy="17.012539"
   sodipodi:expansion="0"
   sodipodi:revolution="8.0200005"
   sodipodi:radius="34.011444"
   sodipodi:argument="-17.855951"
   sodipodi:t0="0.99130303"
   d="m 223.94673,38.425681 c -3.13084,3.863564 -7.10954,7.019918 -11.58403,9.189766"
   transform="matrix(0.89048907,-0.30734866,0.30917867,0.88521833,108.54282,125.63252)" /><polygon
   stroke-miterlimit="10"
   points="189.395,298.355 198.228,298.355 196.228,324.022 191.395,324.022 "
   id="polygon31099"
   transform="matrix(0.94101707,0,0,0.93544727,8.7547264,20.959348)"
   style="fill:#159e1f;stroke:#000000;stroke-miterlimit:10" /><path
   transform="matrix(0.30917866,0.88521833,-0.89048907,0.30734865,230.29758,-99.135401)"
   d="m 223.94673,38.425681 c -3.13084,3.863564 -7.10954,7.019918 -11.58403,9.189766"
   sodipodi:t0="0.99130303"
   sodipodi:argument="-17.855951"
   sodipodi:radius="34.011444"
   sodipodi:revolution="8.0200005"
   sodipodi:expansion="0"
   sodipodi:cy="17.012539"
   sodipodi:cx="197.5222"
   id="path7833-2"
   style="opacity:1;fill:none;fill-opacity:1;fill-rule:evenodd;stroke:#ffffec;stroke-width:2.51338577;stroke-linecap:butt;stroke-linejoin:miter;stroke-miterlimit:4;stroke-dasharray:none;stroke-opacity:1"
   sodipodi:type="spiral" /><g
   transform="matrix(0.94101707,0,0,0.93544727,66.34227,-1.4334593)"
   aria-label="6"
   style="font-style:normal;font-variant:normal;font-weight:normal;font-stretch:normal;font-size:33.39067459px;line-height:125%;font-family:sans-serif;-inkscape-font-specification:sans-serif;letter-spacing:0px;word-spacing:0px;fill:#ffffff;fill-opacity:1;stroke:none;stroke-width:1.00172007px;stroke-linecap:butt;stroke-linejoin:miter;stroke-opacity:1"
   id="text11694"><path
     inkscape:connector-curvature="0"
     d="m 233.49104,118.73418 q 0,-10.31772 5.7098,-12.42134 1.30224,-0.46746 2.77143,-0.46746 3.83992,0 5.67641,3.10533 0.76799,1.33562 1.03511,3.07194 h -2.93838 q -0.60103,-2.93838 -3.03855,-3.47263 -0.46747,-0.10017 -0.93494,-0.10017 -3.70636,0 -4.84164,4.80825 -0.40069,1.83649 -0.43408,4.17384 1.97005,-2.63786 5.44268,-2.63786 3.70636,0 5.77658,2.77142 1.46919,2.00344 1.46919,4.74148 0,3.97349 -2.73803,6.24405 -2.10361,1.73632 -5.0086,1.73632 -7.91359,-0.0668 -7.94698,-11.55317 z m 8.08054,-1.33563 q -2.83821,0 -4.17384,2.20378 -0.73459,1.20207 -0.73459,2.77143 0,2.8716 2.03683,4.40757 1.20207,0.90155 2.77143,0.90155 2.53769,0 3.87332,-2.10362 0.83476,-1.33562 0.83476,-3.03855 0,-3.40585 -2.37074,-4.6413 -1.00172,-0.50086 -2.23717,-0.50086 z"
     style="font-style:normal;font-variant:normal;font-weight:normal;font-stretch:normal;font-size:33.39067459px;font-family:FreeSans;-inkscape-font-specification:FreeSans;fill:#ffffff;fill-opacity:1;stroke-width:1.00172007px"
     id="path17153" /></g><path
   style="opacity:1;fill:#ffffff;fill-opacity:1;fill-rule:evenodd;stroke:none;stroke-width:0.93822801px;stroke-linecap:butt;stroke-linejoin:miter;stroke-opacity:1"
   d="m 64.38095,252.84256 c -6.775389,-7.14947 -7.943605,-11.6801 -9.148286,-17.77326 l 11.468072,-0.11693 c -2.419195,3.82596 -3.12269,10.28026 -2.319786,17.89019 z"
   id="path7870-5"
   inkscape:connector-curvature="0"
   sodipodi:nodetypes="cccc" /><path
   transform="matrix(-0.41034266,-0.84182412,-0.84683648,0.40791388,188.30395,394.4228)"
   d="m 223.94673,38.425681 c -3.13084,3.863564 -7.10954,7.019918 -11.58403,9.189766"
   sodipodi:t0="0.99130303"
   sodipodi:argument="-17.855951"
   sodipodi:radius="34.011444"
   sodipodi:revolution="8.0200005"
   sodipodi:expansion="0"
   sodipodi:cy="17.012539"
   sodipodi:cx="197.5222"
   id="path7872-2"
   style="opacity:1;fill:none;fill-opacity:1;fill-rule:evenodd;stroke:#ffffec;stroke-width:2.51338577;stroke-linecap:butt;stroke-linejoin:miter;stroke-miterlimit:4;stroke-dasharray:none;stroke-opacity:1"
   sodipodi:type="spiral" /><path
   sodipodi:nodetypes="cccc"
   inkscape:connector-curvature="0"
   id="path7874-1"
   d="m 136.06961,217.93227 c 6.77539,7.14947 7.9436,11.68012 9.14828,17.77326 l -11.46807,0.11693 c 2.4192,-3.82595 3.12269,-10.28026 2.31979,-17.89019 z"
   style="opacity:1;fill:#ffffff;fill-opacity:1;fill-rule:evenodd;stroke:none;stroke-width:0.93822801px;stroke-linecap:butt;stroke-linejoin:miter;stroke-opacity:1" /><path
   sodipodi:type="spiral"
   style="opacity:1;fill:none;fill-opacity:1;fill-rule:evenodd;stroke:#ffffec;stroke-width:2.51338577;stroke-linecap:butt;stroke-linejoin:miter;stroke-miterlimit:4;stroke-dasharray:none;stroke-opacity:1"
   id="path7876-6"
   sodipodi:cx="197.5222"
   sodipodi:cy="17.012539"
   sodipodi:expansion="0"
   sodipodi:revolution="8.0200005"
   sodipodi:radius="34.011444"
   sodipodi:argument="-17.855951"
   sodipodi:t0="0.99130303"
   d="m 223.94673,38.425681 c -3.13084,3.863564 -7.10954,7.019918 -11.58403,9.189766"
   transform="matrix(0.41034267,0.84182412,0.84683648,-0.40791388,12.146618,76.352057)" /><g
   transform="matrix(0.94101707,0,0,0.93544727,51.590216,10.39745)"
   aria-label="3"
   style="font-style:normal;font-variant:normal;font-weight:normal;font-stretch:normal;font-size:33.33333588px;line-height:125%;font-family:sans-serif;-inkscape-font-specification:sans-serif;letter-spacing:0px;word-spacing:0px;fill:#ffffff;fill-opacity:1;stroke:none;stroke-width:1px;stroke-linecap:butt;stroke-linejoin:miter;stroke-opacity:1"
   id="text7991-1"><path
     inkscape:connector-curvature="0"
     d="m 53.084771,264.09944 q -3.8,0 -4.4,3.66667 -0.06667,0.63333 -0.1,1.4 h -2.933334 q 0.133333,-7 6.333334,-7.6 0.533333,-0.0333 1.066667,-0.0333 4.666667,0 6.4,3.13334 0.8,1.46666 0.8,3.36666 -0.03333,3.6 -3.3,4.9 3.1,1.06667 3.766667,3.6 0.233333,0.9 0.233333,2.03334 0,4.1 -3.133333,6.1 -2.033334,1.26666 -4.866667,1.26666 -6.533334,0 -7.633334,-6.13333 -0.1,-0.73333 -0.166667,-1.5 h 2.933334 q 0.266666,4.4 3.766666,4.93333 0.566667,0.1 1.200001,0.1 3.466666,0 4.533333,-2.63333 0.366667,-0.96667 0.366667,-2.1 -0.06667,-4.26667 -4.9,-4.3 l -1.233334,0.0333 h -0.366667 v -2.5 q 3.766667,-0.0667 4.900001,-1.1 0.9,-0.86666 0.9,-2.6 0,-2.83333 -2.333334,-3.73333 -0.833333,-0.3 -1.833333,-0.3 z"
     style="font-style:normal;font-variant:normal;font-weight:normal;font-stretch:normal;font-size:33.33333588px;font-family:FreeSans;-inkscape-font-specification:FreeSans;fill:#ffffff;fill-opacity:1"
     id="path17144" /></g><path
   style="opacity:1;fill:#ffffff;fill-opacity:1;fill-rule:evenodd;stroke:none;stroke-width:0.93984187px;stroke-linecap:butt;stroke-linejoin:miter;stroke-opacity:1"
   d="m 116.45967,299.92215 c 9.89345,-0.29339 13.94917,-2.67997 19.14411,-6.14764 l -8.03979,-8.15785 c -1.01257,4.41345 -5.11323,9.48054 -11.10432,14.30549 z"
   id="path17071"
   inkscape:connector-curvature="0"
   sodipodi:nodetypes="cccc" /><path
   transform="matrix(0.89048907,-0.30734866,0.30917867,0.88521833,-72.199524,312.94874)"
   d="m 223.94673,38.425681 c -3.13084,3.863564 -7.10954,7.019918 -11.58403,9.189766"
   sodipodi:t0="0.99130303"
   sodipodi:argument="-17.855951"
   sodipodi:radius="34.011444"
   sodipodi:revolution="8.0200005"
   sodipodi:expansion="0"
   sodipodi:cy="17.012539"
   sodipodi:cx="197.5222"
   id="path17073"
   style="opacity:1;fill:none;fill-opacity:1;fill-rule:evenodd;stroke:#ffffec;stroke-width:2.51338577;stroke-linecap:butt;stroke-linejoin:miter;stroke-miterlimit:4;stroke-dasharray:none;stroke-opacity:1"
   sodipodi:type="spiral" /><path
   sodipodi:nodetypes="cccc"
   inkscape:connector-curvature="0"
   id="path17075"
   d="m 62.659399,275.72333 c 0.295131,9.8349 2.69591,13.86662 6.184223,19.0308 l 8.206431,-7.99219 c -4.439728,-1.00658 -9.536982,-5.08297 -14.390654,-11.03861 z"
   style="opacity:1;fill:#ffffff;fill-opacity:1;fill-rule:evenodd;stroke:none;stroke-width:0.93984187px;stroke-linecap:butt;stroke-linejoin:miter;stroke-opacity:1" /><path
   sodipodi:type="spiral"
   style="opacity:1;fill:none;fill-opacity:1;fill-rule:evenodd;stroke:#ffffec;stroke-width:2.51338577;stroke-linecap:butt;stroke-linejoin:miter;stroke-miterlimit:4;stroke-dasharray:none;stroke-opacity:1"
   id="path17077"
   sodipodi:cx="197.5222"
   sodipodi:cy="17.012539"
   sodipodi:expansion="0"
   sodipodi:revolution="8.0200005"
   sodipodi:radius="34.011444"
   sodipodi:argument="-17.855951"
   sodipodi:t0="0.99130303"
   d="m 223.94673,38.425681 c -3.13084,3.863564 -7.10954,7.019918 -11.58403,9.189766"
   transform="matrix(0.30917866,0.88521833,-0.89048907,0.30734865,49.555255,88.180826)" /><g
   transform="matrix(0.94101707,0,0,0.93544727,51.590216,10.39745)"
   aria-label="8"
   style="font-style:normal;font-variant:normal;font-weight:normal;font-stretch:normal;font-size:33.39067459px;line-height:125%;font-family:sans-serif;-inkscape-font-specification:sans-serif;letter-spacing:0px;word-spacing:0px;fill:#ffffff;fill-opacity:1;stroke:none;stroke-width:1.00172007px;stroke-linecap:butt;stroke-linejoin:miter;stroke-opacity:1"
   id="text17081"><path
     inkscape:connector-curvature="0"
     d="m 56.433817,305.99746 q 4.040272,1.97005 4.073662,5.91015 0,3.73975 -2.871598,5.77658 -2.103612,1.53597 -5.075382,1.53597 -4.140444,0 -6.377619,-2.73803 -1.569362,-1.93666 -1.569362,-4.60791 0.03339,-3.9401 4.040272,-5.87676 -2.404129,-1.50258 -2.93838,-3.10534 -0.267125,-0.76798 -0.267125,-1.80309 0,-3.30568 2.704645,-5.07538 1.869877,-1.23546 4.407569,-1.23546 3.873318,0 5.843368,2.53769 1.268845,1.63614 1.268845,3.77315 0,2.27056 -1.50258,3.63958 -0.667813,0.63442 -1.736315,1.26885 z m -3.873318,-8.6148 q -2.704645,0 -3.706365,1.97005 -0.400688,0.80138 -0.400688,1.76971 0,2.33735 2.036831,3.27228 0.934939,0.43408 2.070222,0.43408 2.671254,0 3.672974,-1.90326 0.434079,-0.80138 0.434079,-1.76971 0,-2.5043 -2.170394,-3.40585 -0.868158,-0.3673 -1.936659,-0.3673 z m 0,9.91703 q -2.97177,0 -4.274007,2.13701 -0.667813,1.10189 -0.667813,2.5043 0,2.73803 2.203784,4.00688 1.168674,0.66781 2.671254,0.66781 3.038552,0 4.340788,-2.17039 0.667814,-1.10189 0.667814,-2.5043 0,-2.73804 -2.237176,-4.00688 -1.202064,-0.63443 -2.704644,-0.63443 z"
     style="font-style:normal;font-variant:normal;font-weight:normal;font-stretch:normal;font-size:33.39067459px;font-family:FreeSans;-inkscape-font-specification:FreeSans;fill:#ffffff;fill-opacity:1;stroke-width:1.00172007px"
     id="path17141" /></g><path
   sodipodi:nodetypes="cccc"
   inkscape:connector-curvature="0"
   id="path7676-2"
   d="m 316.62799,254.66974 c 6.77539,-7.14947 7.94361,-11.68011 9.14829,-17.77326 l -11.46807,-0.11693 c 2.41919,3.82596 3.12269,10.28026 2.31978,17.89019 z"
   style="opacity:1;fill:#ffffff;fill-opacity:1;fill-rule:evenodd;stroke:none;stroke-width:0.93822801px;stroke-linecap:butt;stroke-linejoin:miter;stroke-opacity:1" /><path
   sodipodi:type="spiral"
   style="opacity:1;fill:none;fill-opacity:1;fill-rule:evenodd;stroke:#ffffec;stroke-width:2.51338577;stroke-linecap:butt;stroke-linejoin:miter;stroke-miterlimit:4;stroke-dasharray:none;stroke-opacity:1"
   id="path7711-9"
   sodipodi:cx="197.5222"
   sodipodi:cy="17.012539"
   sodipodi:expansion="0"
   sodipodi:revolution="8.0200005"
   sodipodi:radius="34.011444"
   sodipodi:argument="-17.855951"
   sodipodi:t0="0.99130303"
   d="m 223.94673,38.425681 c -3.13084,3.863564 -7.10954,7.019918 -11.58403,9.189766"
   transform="matrix(0.41034266,-0.84182413,0.84683648,0.40791387,192.70501,396.24997)" /><path
   style="opacity:1;fill:#ffffff;fill-opacity:1;fill-rule:evenodd;stroke:none;stroke-width:0.93822801px;stroke-linecap:butt;stroke-linejoin:miter;stroke-opacity:1"
   d="m 244.93934,219.75945 c -6.77538,7.14947 -7.9436,11.6801 -9.14828,17.77326 l 11.46807,0.11693 c -2.41919,-3.82596 -3.12269,-10.28026 -2.31979,-17.89019 z"
   id="path7831-7"
   inkscape:connector-curvature="0"
   sodipodi:nodetypes="cccc" /><path
   transform="matrix(-0.41034267,0.84182412,-0.84683648,-0.40791389,368.86232,78.1792)"
   d="m 223.94673,38.425681 c -3.13084,3.863564 -7.10954,7.019918 -11.58403,9.189766"
   sodipodi:t0="0.99130303"
   sodipodi:argument="-17.855951"
   sodipodi:radius="34.011444"
   sodipodi:revolution="8.0200005"
   sodipodi:expansion="0"
   sodipodi:cy="17.012539"
   sodipodi:cx="197.5222"
   id="path7833-9"
   style="opacity:1;fill:none;fill-opacity:1;fill-rule:evenodd;stroke:#ffffec;stroke-width:2.51338577;stroke-linecap:butt;stroke-linejoin:miter;stroke-miterlimit:4;stroke-dasharray:none;stroke-opacity:1"
   sodipodi:type="spiral" /><g
   transform="matrix(0.94101707,0,0,0.93544727,53.712714,12.015759)"
   aria-label="4"
   style="font-style:normal;font-variant:normal;font-weight:normal;font-stretch:normal;font-size:33.33333588px;line-height:125%;font-family:sans-serif;-inkscape-font-specification:sans-serif;letter-spacing:0px;word-spacing:0px;fill:#ffffff;fill-opacity:1;stroke:none;stroke-width:1px;stroke-linecap:butt;stroke-linejoin:miter;stroke-opacity:1"
   id="text7999-0"><path
     inkscape:connector-curvature="0"
     d="m 244.11048,279.23281 h -9.96667 v -3.1 l 10.73334,-14.86667 h 2.16666 v 15.33333 h 3.5 v 2.63334 h -3.5 v 5.66667 h -2.93333 z m 0,-2.63334 v -10.33333 l -7.4,10.33333 z"
     style="font-style:normal;font-variant:normal;font-weight:normal;font-stretch:normal;font-size:33.33333588px;font-family:FreeSans;-inkscape-font-specification:FreeSans;fill:#ffffff;fill-opacity:1"
     id="path17147" /></g><path
   sodipodi:nodetypes="cccc"
   inkscape:connector-curvature="0"
   id="path17123"
   d="m 266.15876,301.09175 c -9.89345,-0.29338 -13.94917,-2.67996 -19.14411,-6.14764 l 8.03979,-8.15785 c 1.01257,4.41345 5.11323,9.48055 11.10432,14.30549 z"
   style="opacity:1;fill:#ffffff;fill-opacity:1;fill-rule:evenodd;stroke:none;stroke-width:0.93984187px;stroke-linecap:butt;stroke-linejoin:miter;stroke-opacity:1" /><path
   sodipodi:type="spiral"
   style="opacity:1;fill:none;fill-opacity:1;fill-rule:evenodd;stroke:#ffffec;stroke-width:2.51338577;stroke-linecap:butt;stroke-linejoin:miter;stroke-miterlimit:4;stroke-dasharray:none;stroke-opacity:1"
   id="path17125"
   sodipodi:cx="197.5222"
   sodipodi:cy="17.012539"
   sodipodi:expansion="0"
   sodipodi:revolution="8.0200005"
   sodipodi:radius="34.011444"
   sodipodi:argument="-17.855951"
   sodipodi:t0="0.99130303"
   d="m 223.94673,38.425681 c -3.13084,3.863564 -7.10954,7.019918 -11.58403,9.189766"
   transform="matrix(-0.89048907,-0.30734866,-0.30917867,0.88521833,454.81793,314.11834)" /><path
   style="opacity:1;fill:#ffffff;fill-opacity:1;fill-rule:evenodd;stroke:none;stroke-width:0.93984187px;stroke-linecap:butt;stroke-linejoin:miter;stroke-opacity:1"
   d="m 319.95902,276.89293 c -0.29513,9.83491 -2.69591,13.86663 -6.18422,19.0308 l -8.20643,-7.99219 c 4.43973,-1.00658 9.53698,-5.08298 14.39065,-11.03861 z"
   id="path17127"
   inkscape:connector-curvature="0"
   sodipodi:nodetypes="cccc" /><path
   transform="matrix(-0.30917866,0.88521833,0.89048907,0.30734865,333.06316,89.350419)"
   d="m 223.94673,38.425681 c -3.13084,3.863564 -7.10954,7.019918 -11.58403,9.189766"
   sodipodi:t0="0.99130303"
   sodipodi:argument="-17.855951"
   sodipodi:radius="34.011444"
   sodipodi:revolution="8.0200005"
   sodipodi:expansion="0"
   sodipodi:cy="17.012539"
   sodipodi:cx="197.5222"
   id="path17129"
   style="opacity:1;fill:none;fill-opacity:1;fill-rule:evenodd;stroke:#ffffec;stroke-width:2.51338577;stroke-linecap:butt;stroke-linejoin:miter;stroke-miterlimit:4;stroke-dasharray:none;stroke-opacity:1"
   sodipodi:type="spiral" /><g
   transform="matrix(0.94101707,0,0,0.93544727,53.712714,12.015759)"
   aria-label="7"
   style="font-style:normal;font-variant:normal;font-weight:normal;font-stretch:normal;font-size:33.39067459px;line-height:125%;font-family:sans-serif;-inkscape-font-specification:sans-serif;letter-spacing:0px;word-spacing:0px;fill:#ffffff;fill-opacity:1;stroke:none;stroke-width:1.00172007px;stroke-linecap:butt;stroke-linejoin:miter;stroke-opacity:1"
   id="text17133"><path
     inkscape:connector-curvature="0"
     d="m 249.49387,294.29852 v 2.47091 q -6.74491,8.98209 -8.9487,18.03096 -0.40069,1.56936 -0.66781,3.17211 h -3.13872 q 1.66953,-7.27916 4.77486,-12.98897 1.86988,-3.40585 4.94182,-7.78003 h -12.78863 v -2.90498 z"
     style="font-style:normal;font-variant:normal;font-weight:normal;font-stretch:normal;font-size:33.39067459px;font-family:FreeSans;-inkscape-font-specification:FreeSans;fill:#ffffff;fill-opacity:1;stroke-width:1.00172007px"
     id="path17150" /></g></svg>