<svg xmlns="http://www.w3.org/2000/svg" xml:space="preserve" viewBox="0 0 387.573 324.704">
    <path fill="#FFF" stroke="#000" stroke-miterlimit="10" d="M94.814 51h6.402v188.979h-6.402zM286.814 51h6.402v188.979h-6.402z"/>
    <ellipse cx="98.019" cy="50.994" fill="#159E1F" opacity=".8" rx="50.993" ry="51.004" transform="rotate(-45.001 98.024 50.996)"/>
    <ellipse cx="98.02" cy="239.972" fill="#4EC3E8" opacity=".8" rx="50.993" ry="51.004" transform="rotate(-45.001 98.026 239.983)"/>
    <path fill="#FFF" stroke="#000" stroke-miterlimit="10" d="M90.077 58.918c-4.373-4.385-4.363-11.485.022-15.858s11.485-4.363 15.858.022c4.364 4.376 4.364 11.459 0 15.835-4.347 4.385-11.426 4.416-15.811.069zM90.077 247.898c-4.373-4.385-4.363-11.485.022-15.858s11.485-4.363 15.858.022c4.364 4.376 4.364 11.459 0 15.835-4.347 4.385-11.426 4.416-15.811.069z"/>
    <ellipse cx="290.019" cy="50.994" fill="#4EC3E8" opacity=".8" rx="50.993" ry="51.004" transform="rotate(-45.001 290.033 50.994)"/>
    <ellipse cx="290.019" cy="239.971" fill="#159E1F" opacity=".8" rx="50.993" ry="51.004" transform="rotate(-45.001 290.034 239.98)"/>
    <path fill="#FFF" stroke="#000" stroke-miterlimit="10" d="M282.077 58.918c-4.373-4.385-4.363-11.485.022-15.858s11.485-4.363 15.858.022c4.364 4.376 4.364 11.459 0 15.835-4.347 4.385-11.426 4.416-15.811.069zM282.077 247.898c-4.373-4.385-4.363-11.485.022-15.858s11.485-4.363 15.858.022c4.364 4.376 4.364 11.459 0 15.835-4.347 4.385-11.426 4.416-15.811.069z"/>
    <path fill="#4EC3E8" stroke="#000" stroke-miterlimit="10" d="M193.786 324.203h59.055c-12.667-25.332-28.333-26-28.333-26h-22.997l5.333-124.667s143-6.167 180-7.333c-17-42.167-70.667-43.833-70.667-43.833H211.341V85.037s.663-31.681-15.167-31.5h-4.776c-15.811.236-15.167 31.5-15.167 31.5v37.333H71.398S17.731 124.037.731 166.203c37 1.167 180 7.333 180 7.333l5.333 124.667h-23s-15.667.669-28.333 26h59.055"/>
    <path fill="#159E1F" stroke="#000" stroke-miterlimit="10" d="M51.153 168.108c38.73 1.558 86.711 3.593 112.028 4.675l.24-11.262-112-5s-.171 7.141-.268 11.587zM336.334 168.215c-38.73 1.558-86.711 3.593-112.028 4.675l-.24-11.262 112-5s.171 7.141.268 11.587zM154.731 324.204v-13.016h78.11v13z"/>
    <path fill="#159E1F" stroke="#000" stroke-miterlimit="10" d="M196.228 324.022h-4.833l-2-25.667h8.833z"/>
</svg>
