<svg xmlns="http://www.w3.org/2000/svg" xml:space="preserve" viewBox="0 0 427.045 211.791">
    <path fill="#FFF" stroke="#000" stroke-miterlimit="10" d="M76.358 51h6.402v103.979h-6.402zM346.358 51h6.402v103.979h-6.402z"/>
    <ellipse cx="79.564" cy="50.993" fill="#4EC3E8" opacity=".8" rx="50.993" ry="51.004" transform="rotate(-45.001 79.568 50.995)"/>
    <path fill="#FFF" stroke="#000" stroke-miterlimit="10" d="M71.621 58.918c-4.373-4.385-4.363-11.485.022-15.858s11.485-4.363 15.858.022c4.364 4.376 4.364 11.459 0 15.835-4.347 4.385-11.426 4.416-15.811.069z"/>
    <ellipse cx="349.564" cy="50.993" fill="#159E1F" opacity=".8" rx="50.993" ry="51.004" transform="rotate(-45.001 349.58 50.993)"/>
    <path fill="#FFF" stroke="#000" stroke-miterlimit="10" d="M341.621 58.918c-4.373-4.385-4.363-11.485.022-15.858s11.485-4.363 15.858.022c4.364 4.376 4.364 11.459 0 15.835-4.347 4.385-11.426 4.416-15.811.069z"/>
    <path fill="#4EC3E8" stroke="#000" stroke-miterlimit="10" d="M.5 164.626v46.536l195.382-44.384h37.87l192.793 44.384v-46.536L214.476 61.325z"/>
    <path fill="#159E1F" stroke="#000" stroke-miterlimit="10" d="M169.83 149.586 20.5 188.244v18.375l149.33-33.923zM260.758 149.875l149.33 38.658v18.841l-149.33-34.389z"/>
</svg>
