<?xml version="1.0" encoding="utf-8"?>
<!-- Generator: Adobe Illustrator 19.2.0, SVG Export Plug-In . SVG Version: 6.00 Build 0)  -->
<!DOCTYPE svg PUBLIC "-//W3C//DTD SVG 1.1//EN" "http://www.w3.org/Graphics/SVG/1.1/DTD/svg11.dtd">
<svg version="1.1" id="draw" xmlns="http://www.w3.org/2000/svg" xmlns:xlink="http://www.w3.org/1999/xlink" x="0px" y="0px"
	 viewBox="0 0 433.662 366.158" enable-background="new 0 0 433.662 366.158" xml:space="preserve">
<title>VTOLTiltRotor</title>
<rect x="119.349" y="51.786" fill="#FFFFFF" stroke="#000000" stroke-miterlimit="10" width="194.965" height="6.11"/>
<rect x="214.357" y="174.37" fill="#FFFFFF" stroke="#000000" stroke-miterlimit="10" width="6.12" height="104.473"/>
<g opacity="0.8">
	<path fill="#159E1F" d="M255.339,349.285c-18.851,20.925-51.095,22.606-72.02,3.755c-20.925-18.851-22.606-51.095-3.755-72.02
		s51.095-22.606,72.02-3.755c1.316,1.186,2.57,2.439,3.755,3.755C272.81,300.421,272.81,329.884,255.339,349.285z"/>
</g>
<g opacity="0.8">
	
		<ellipse transform="matrix(0.7071 -0.7071 0.7071 0.7071 -23.3263 104.807)" fill="#159E1F" cx="114.844" cy="80.559" rx="51.004" ry="50.993"/>
</g>
<g opacity="0.8">
	
		<ellipse transform="matrix(0.7071 -0.7071 0.7071 0.7071 36.4228 249.0463)" fill="#159E1F" cx="318.822" cy="80.559" rx="51.004" ry="50.993"/>
</g>
<path fill="#4EC3E8" stroke="#000000" stroke-miterlimit="10" d="M227.402,211.885c117.211,5.687,205.717,76.149,205.717,76.149
	s-0.8-20.38-1.595-33.809s-4.253-18.01-4.253-18.01s-94.221-100-101.264-106.956s-7.575-10.585-25.382-10.585
	c-66.712,0-57.808-63.51-57.808-71.251s-3.522-10.98-4.917-12.639s-3.721-7.267-8.505-21.012
	c-4.16-11.95-10.727-13.152-12.372-13.262V0.501c0,0-0.068,0-0.193,0s-0.193,0-0.193,0V0.51c-1.645,0.11-8.213,1.311-12.372,13.262
	c-4.784,13.745-7.11,19.353-8.505,21.012s-4.917,4.9-4.917,12.639s8.9,71.251-57.808,71.251c-17.808,0-18.339,3.634-25.382,10.585
	S6.389,236.215,6.389,236.215s-3.455,4.582-4.253,18.01s-1.595,33.809-1.595,33.809s88.506-70.461,205.717-76.149H227.402
	L227.402,211.885z"/>
<path fill="#159E1F" stroke="#000000" stroke-miterlimit="10" d="M299.525,223.521c50.117,13.578,90.1,35.681,112.8,50.161
	l-0.235-20.146l-92.154-61.557L299.525,223.521z"/>
<path fill="#159E1F" stroke="#000000" stroke-miterlimit="10" d="M134.187,223.521c-50.117,13.578-90.1,35.681-112.8,50.161
	l0.676-20.44l91.713-61.262L134.187,223.521z"/>
<g opacity="0.8">
	<path fill="#4EC3E8" d="M255.339,319.285c-18.851,20.925-51.095,22.606-72.02,3.755c-20.925-18.851-22.606-51.095-3.755-72.02
		s51.095-22.606,72.02-3.755c1.316,1.186,2.57,2.439,3.755,3.755C272.81,270.421,272.81,299.884,255.339,319.285z"/>
</g>
<g opacity="0.8">
	
		<ellipse transform="matrix(0.7071 -0.7071 0.7071 0.7071 -4.9409 97.1908)" fill="#4EC3E8" cx="114.843" cy="54.559" rx="51.004" ry="50.993"/>
</g>
<g opacity="0.8">
	
		<ellipse transform="matrix(0.7071 -0.7071 0.7071 0.7071 54.8082 241.4301)" fill="#4EC3E8" cx="318.822" cy="54.559" rx="51.004" ry="50.993"/>
</g>
<path fill="#FFFFFF" stroke="#000000" stroke-miterlimit="10" d="M225.363,293.1c-4.385,4.373-11.485,4.363-15.858-0.022
	c-4.373-4.385-4.363-11.485,0.022-15.858c4.376-4.364,11.459-4.364,15.835,0c4.385,4.347,4.416,11.426,0.069,15.811
	C225.409,293.054,225.386,293.077,225.363,293.1z"/>
<path fill="#FFFFFF" stroke="#000000" stroke-miterlimit="10" d="M122.761,62.507c-4.385,4.373-11.485,4.363-15.858-0.022
	c-4.373-4.385-4.363-11.485,0.022-15.858c4.376-4.364,11.459-4.364,15.835,0c4.385,4.347,4.416,11.426,0.069,15.811
	C122.807,62.461,122.784,62.484,122.761,62.507z"/>
<path fill="#FFFFFF" stroke="#000000" stroke-miterlimit="10" d="M326.739,62.507c-4.385,4.373-11.485,4.363-15.858-0.022
	c-4.373-4.385-4.363-11.485,0.022-15.858c4.376-4.364,11.459-4.364,15.835,0c4.385,4.347,4.416,11.426,0.069,15.811
	C326.785,62.461,326.762,62.484,326.739,62.507z"/>
</svg>
