<svg xmlns="http://www.w3.org/2000/svg" xml:space="preserve" viewBox="0 0 72 72">
    <path d="M40.896 61.416q-1.975 2.057-4.814 2.016t-4.896-2.016-2.057-4.814c0-2.839.686-3.525 2.057-4.896q1.975-2.057 4.814-2.057c2.839 0 3.525.686 4.896 2.057q2.057 1.975 2.057 4.855t-2.057 4.855m24.192-27.072q-2.715 0-4.772-2.057-10.038-9.957-24.274-9.957c-14.236 0-17.581 3.319-24.274 9.957q-2.057 2.057-4.855 2.016c-2.798-.041-3.483-.699-4.855-2.016Q.001 30.23.001 27.473c0-2.757.686-3.442 2.057-4.814q9.216-9.216 21.559-12.466c12.343-3.25 16.471-2.167 24.726 0s15.456 6.322 21.6 12.466Q72 24.716 72 27.473c0 2.757-.686 3.442-2.057 4.814q-2.058 2.057-4.855 2.057M21.477 48.908q-2.797 0-4.855-2.057-2.057-2.057-2.057-4.855 0-2.797 2.057-4.855 5.266-5.266 12.343-7.118 7.077-1.851 14.153 0t12.343 7.118q2.057 2.057 2.057 4.855 0 2.797-2.057 4.855-2.057 2.057-4.855 2.057c-2.798 0-3.483-.686-4.855-2.057q-4.032-4.032-9.71-4.032c-5.678 0-7.022 1.344-9.71 4.032q-2.056 2.057-4.854 2.057" style="fill:#fff"/>
</svg>
