<?xml version="1.0" encoding="utf-8"?>
<!-- Generator: Adobe Illustrator 19.2.0, SVG Export Plug-In . SVG Version: 6.00 Build 0)  -->
<svg version="1.1" id="Layer_1" xmlns="http://www.w3.org/2000/svg" xmlns:xlink="http://www.w3.org/1999/xlink" x="0px" y="0px"
	 viewBox="0 0 72 72" style="enable-background:new 0 0 72 72;" xml:space="preserve">
<style type="text/css">
	.st0{fill:#FFFFFF;}
</style>
<path class="st0" d="M40.896,61.416c-1.317,1.371-2.921,2.043-4.814,2.016c-1.893-0.027-3.525-0.699-4.896-2.016
	c-1.371-1.317-2.057-2.921-2.057-4.814s0.686-3.525,2.057-4.896c1.317-1.371,2.921-2.057,4.814-2.057s3.525,0.686,4.896,2.057
	c1.371,1.317,2.057,2.935,2.057,4.855C42.953,58.481,42.267,60.099,40.896,61.416z M65.088,34.344c-1.81,0-3.401-0.686-4.772-2.057
	c-6.692-6.638-14.784-9.957-24.274-9.957s-17.581,3.319-24.274,9.957c-1.371,1.371-2.99,2.043-4.855,2.016s-3.483-0.699-4.855-2.016
	c-1.371-1.371-2.057-2.976-2.057-4.814s0.686-3.442,2.057-4.814c6.144-6.144,13.33-10.299,21.559-12.466s16.471-2.167,24.726,0
	s15.456,6.322,21.6,12.466c1.371,1.371,2.057,2.976,2.057,4.814s-0.686,3.442-2.057,4.814
	C68.571,33.658,66.953,34.344,65.088,34.344z M21.477,48.908c-1.865,0-3.483-0.686-4.855-2.057c-1.371-1.371-2.057-2.99-2.057-4.855
	c0-1.865,0.686-3.483,2.057-4.855c3.511-3.511,7.625-5.883,12.343-7.118c4.718-1.234,9.435-1.234,14.153,0
	c4.718,1.234,8.832,3.607,12.343,7.118c1.371,1.371,2.057,2.99,2.057,4.855c0,1.865-0.686,3.483-2.057,4.855
	c-1.371,1.371-2.99,2.057-4.855,2.057s-3.483-0.686-4.855-2.057c-2.688-2.688-5.924-4.032-9.71-4.032s-7.022,1.344-9.71,4.032
	C24.96,48.222,23.342,48.908,21.477,48.908z"/>
</svg>
