<?xml version="1.0" encoding="utf-8"?>
<!-- Generator: Adobe Illustrator 19.2.0, SVG Export Plug-In . SVG Version: 6.00 Build 0)  -->
<!DOCTYPE svg PUBLIC "-//W3C//DTD SVG 1.1//EN" "http://www.w3.org/Graphics/SVG/1.1/DTD/svg11.dtd">
<svg version="1.1" id="draw" xmlns="http://www.w3.org/2000/svg" xmlns:xlink="http://www.w3.org/1999/xlink" x="0px" y="0px"
	 viewBox="0 0 343.449 335.834" enable-background="new 0 0 343.449 335.834" xml:space="preserve">
<title>Y6A</title>
<g opacity="0.8">
	
		<ellipse transform="matrix(0.7051 -0.7091 0.7091 0.7051 -42.3899 60.0457)" fill="#4EC3E8" cx="51.003" cy="80.992" rx="50.993" ry="51.004"/>
</g>
<g opacity="0.8">
	
		<ellipse transform="matrix(0.7091 -0.7051 0.7051 0.7091 -151.0087 203.6918)" fill="#159E1F" cx="171.342" cy="284.847" rx="50.993" ry="51.004"/>
</g>
<g opacity="0.8">
	
		<ellipse transform="matrix(0.7091 -0.7051 0.7051 0.7091 27.568 229.9434)" fill="#4EC3E8" cx="292.443" cy="81.563" rx="50.993" ry="51.004"/>
</g>
<rect x="168.017" y="120.306" fill="#FFFFFF" stroke="#000000" stroke-miterlimit="10" width="6.777" height="133.572"/>
<rect x="162.944" y="83.78" transform="matrix(0.8697 -0.4936 0.4936 0.8697 -13.0898 124.7563)" fill="#FFFFFF" stroke="#000000" stroke-miterlimit="10" width="133.572" height="6.777"/>
<rect x="110.338" y="20.065" transform="matrix(0.4969 -0.8678 0.8678 0.4969 -18.2055 142.4201)" fill="#FFFFFF" stroke="#000000" stroke-miterlimit="10" width="6.777" height="133.692"/>
<path fill="#FFFFFF" stroke="#000000" stroke-miterlimit="10" d="M214.837,127.08l-36.195,36.195
	c-3.869,3.869-10.141,3.869-14.009,0l-36.195-36.195c-3.869-3.869-3.869-10.141,0-14.009l36.195-36.195
	c3.869-3.869,10.141-3.869,14.009,0l36.195,36.195C218.706,116.939,218.706,123.211,214.837,127.08z"/>
<polygon fill="#FF442B" stroke="#000000" stroke-miterlimit="10" points="153.46,142.074 171.637,91.074 189.815,142.074 "/>
<g opacity="0.8">
	
		<ellipse transform="matrix(0.7091 -0.7051 0.7051 0.7091 48.7224 221.216)" fill="#159E1F" cx="292.444" cy="51.563" rx="50.993" ry="51.004"/>
</g>
<path fill="#FFFFFF" stroke="#000000" stroke-miterlimit="10" d="M300.321,42.677c-4.374-4.384-11.473-4.393-15.858-0.02
	s-4.393,11.473-0.02,15.857c4.365,4.376,11.447,4.395,15.835,0.042c4.397-4.335,4.446-11.414,0.111-15.811
	C300.367,42.723,300.344,42.7,300.321,42.677z"/>
<g opacity="0.8">
	
		<ellipse transform="matrix(0.7051 -0.7091 0.7091 0.7051 -21.1177 51.1998)" fill="#159E1F" cx="51.003" cy="50.992" rx="50.993" ry="51.004"/>
</g>
<path fill="#FFFFFF" stroke="#000000" stroke-miterlimit="10" d="M58.914,43.061c4.384,4.374,4.393,11.473,0.019,15.858
	c-4.374,4.384-11.473,4.393-15.858,0.019c-4.376-4.365-4.394-11.447-0.042-15.835c4.335-4.397,11.414-4.446,15.811-0.111
	C58.868,43.015,58.891,43.038,58.914,43.061z"/>
<g opacity="0.8">
	
		<ellipse transform="matrix(0.7091 -0.7051 0.7051 0.7091 -129.8542 194.9643)" fill="#4EC3E8" cx="171.342" cy="254.847" rx="50.993" ry="51.004"/>
</g>
<path fill="#FFFFFF" stroke="#000000" stroke-miterlimit="10" d="M179.221,245.961c-4.374-4.384-11.473-4.393-15.858-0.02
	c-4.384,4.374-4.393,11.473-0.02,15.857c4.365,4.376,11.447,4.395,15.835,0.042c4.397-4.335,4.446-11.414,0.111-15.811
	C179.267,246.007,179.244,245.984,179.221,245.961z"/>
</svg>
