<svg xmlns="http://www.w3.org/2000/svg" xml:space="preserve" viewBox="0 0 343.449 335.834">
    <ellipse cx="51.003" cy="80.992" fill="#4EC3E8" opacity=".8" rx="50.993" ry="51.004" transform="rotate(-45.162 50.997 80.989)"/>
    <ellipse cx="171.342" cy="284.847" fill="#159E1F" opacity=".8" rx="50.993" ry="51.004" transform="rotate(-44.838 171.359 284.863)"/>
    <ellipse cx="292.443" cy="81.563" fill="#4EC3E8" opacity=".8" rx="50.993" ry="51.004" transform="rotate(-44.838 292.465 81.563)"/>
    <path fill="#FFF" stroke="#000" stroke-miterlimit="10" d="M168.017 120.306h6.777v133.572h-6.777z"/>
    <path fill="#FFF" stroke="#000" stroke-miterlimit="10" stroke-width="1.00001" d="m169.976 117.19 116.168-65.93 3.345 5.893-116.167 65.932z"/>
    <path fill="#FFF" stroke="#000" stroke-miterlimit="10" stroke-width=".99999" d="m54.034 56.64 3.367-5.882L173.42 117.19l-3.367 5.88z"/>
    <path fill="#FFF" stroke="#000" stroke-miterlimit="10" d="m214.837 127.08-36.195 36.195c-3.869 3.869-10.141 3.869-14.009 0l-36.195-36.195c-3.869-3.869-3.869-10.141 0-14.009l36.195-36.195c3.869-3.869 10.141-3.869 14.009 0l36.195 36.195c3.869 3.868 3.869 10.14 0 14.009z"/>
    <path fill="#FF442B" stroke="#000" stroke-miterlimit="10" d="m153.46 142.074 18.177-51 18.178 51z"/>
    <ellipse cx="292.444" cy="51.563" fill="#159E1F" opacity=".8" rx="50.993" ry="51.004" transform="rotate(-44.838 292.465 51.56)"/>
    <path fill="#FFF" stroke="#000" stroke-miterlimit="10" d="M300.321 42.677c-4.374-4.384-11.473-4.393-15.858-.02s-4.393 11.473-.02 15.857c4.365 4.376 11.447 4.395 15.835.042 4.397-4.335 4.446-11.414.111-15.811z"/>
    <ellipse cx="51.003" cy="50.992" fill="#159E1F" opacity=".8" rx="50.993" ry="51.004" transform="rotate(-45.162 50.998 50.99)"/>
    <path fill="#FFF" stroke="#000" stroke-miterlimit="10" d="M58.914 43.061c4.384 4.374 4.393 11.473.019 15.858s-11.473 4.393-15.858.019c-4.376-4.365-4.394-11.447-.042-15.835 4.335-4.397 11.414-4.446 15.811-.111z"/>
    <ellipse cx="171.342" cy="254.847" fill="#4EC3E8" opacity=".8" rx="50.993" ry="51.004" transform="rotate(-44.838 171.359 254.861)"/>
    <path fill="#FFF" stroke="#000" stroke-miterlimit="10" d="M179.221 245.961c-4.374-4.384-11.473-4.393-15.858-.02s-4.393 11.473-.02 15.857c4.365 4.376 11.447 4.395 15.835.042 4.397-4.335 4.446-11.414.111-15.811z"/>
</svg>
