<?xml version="1.0" encoding="utf-8"?>
<!-- Generator: Adobe Illustrator 19.2.0, SVG Export Plug-In . SVG Version: 6.00 Build 0)  -->
<!DOCTYPE svg PUBLIC "-//W3C//DTD SVG 1.1//EN" "http://www.w3.org/Graphics/SVG/1.1/DTD/svg11.dtd">
<svg version="1.1" id="draw" xmlns="http://www.w3.org/2000/svg" xmlns:xlink="http://www.w3.org/1999/xlink" x="0px" y="0px"
	 viewBox="0 0 343.449 335.834" enable-background="new 0 0 343.449 335.834" xml:space="preserve">
<title>Y6B</title>
<g opacity="0.8">
	
		<ellipse transform="matrix(0.7051 -0.7091 0.7091 0.7051 -42.389 60.0438)" fill="#4EC3E8" cx="51.001" cy="80.99" rx="50.993" ry="51.004"/>
</g>
<g opacity="0.8">
	
		<ellipse transform="matrix(0.7091 -0.7051 0.7051 0.7091 -151.009 203.6939)" fill="#4EC3E8" cx="171.344" cy="284.849" rx="50.993" ry="51.004"/>
</g>
<g opacity="0.8">
	
		<ellipse transform="matrix(0.7091 -0.7051 0.7051 0.7091 27.5671 229.9452)" fill="#4EC3E8" cx="292.445" cy="81.565" rx="50.993" ry="51.004"/>
</g>
<rect x="168.017" y="120.306" fill="#FFFFFF" stroke="#000000" stroke-miterlimit="10" width="6.777" height="133.572"/>
<rect x="162.947" y="83.779" transform="matrix(0.8697 -0.4936 0.4936 0.8697 -13.0887 124.7573)" fill="#FFFFFF" stroke="#000000" stroke-miterlimit="10" width="133.572" height="6.777"/>
<rect x="110.336" y="20.065" transform="matrix(0.4969 -0.8678 0.8678 0.4969 -18.2063 142.4191)" fill="#FFFFFF" stroke="#000000" stroke-miterlimit="10" width="6.777" height="133.692"/>
<path fill="#FFFFFF" stroke="#000000" stroke-miterlimit="10" d="M214.837,127.079l-36.195,36.195
	c-3.869,3.869-10.141,3.869-14.009,0l-36.195-36.195c-3.869-3.869-3.869-10.141,0-14.009l36.195-36.195
	c3.869-3.869,10.141-3.869,14.009,0l36.195,36.195C218.706,116.938,218.706,123.21,214.837,127.079z"/>
<polygon fill="#FF442B" stroke="#000000" stroke-miterlimit="10" points="153.46,142.074 171.637,91.074 189.815,142.074 "/>
<g opacity="0.8">
	
		<ellipse transform="matrix(0.7091 -0.7051 0.7051 0.7091 48.7212 221.217)" fill="#159E1F" cx="292.445" cy="51.565" rx="50.993" ry="51.004"/>
</g>
<path fill="#FFFFFF" stroke="#000000" stroke-miterlimit="10" d="M300.322,42.677c-4.374-4.384-11.473-4.393-15.858-0.02
	c-4.384,4.374-4.393,11.473-0.02,15.857c4.365,4.376,11.447,4.395,15.835,0.042c4.397-4.335,4.446-11.414,0.111-15.811
	C300.368,42.723,300.345,42.7,300.322,42.677z"/>
<g opacity="0.8">
	
		<ellipse transform="matrix(0.7051 -0.7091 0.7091 0.7051 -21.1168 51.1979)" fill="#159E1F" cx="51.001" cy="50.99" rx="50.993" ry="51.004"/>
</g>
<path fill="#FFFFFF" stroke="#000000" stroke-miterlimit="10" d="M58.914,43.059c4.384,4.374,4.393,11.473,0.019,15.858
	c-4.374,4.384-11.473,4.393-15.858,0.019c-4.375-4.365-4.394-11.447-0.042-15.835c4.335-4.397,11.414-4.446,15.811-0.111
	C58.868,43.013,58.891,43.036,58.914,43.059z"/>
<g opacity="0.8">
	
		<ellipse transform="matrix(0.7091 -0.7051 0.7051 0.7091 -129.8548 194.9657)" fill="#159E1F" cx="171.344" cy="254.849" rx="50.993" ry="51.004"/>
</g>
<path fill="#FFFFFF" stroke="#000000" stroke-miterlimit="10" d="M179.221,245.961c-4.374-4.384-11.473-4.393-15.858-0.02
	s-4.393,11.473-0.02,15.858c4.365,4.375,11.447,4.394,15.835,0.042c4.397-4.335,4.446-11.414,0.111-15.811
	C179.267,246.007,179.244,245.984,179.221,245.961z"/>
</svg>
