<svg xmlns="http://www.w3.org/2000/svg" xml:space="preserve" viewBox="0 0 343.449 305.834">
    <g style="opacity:.8">
        <ellipse cx="50.996" cy="50.988" rx="50.993" ry="51.004" style="fill:#4ec3e8" transform="rotate(-45.162 172.981 -240.2)"/>
    </g>
    <path fill="#FFF" stroke="#000" stroke-miterlimit="10" d="M168.017 120.306h6.777v133.572h-6.777z"/>
    <path fill="#FFF" stroke="#000" stroke-miterlimit="10" stroke-width="1.00001" d="m169.988 117.182 116.167-65.931 3.345 5.894-116.167 65.931z"/>
    <path fill="#FFF" stroke="#000" stroke-miterlimit="10" stroke-width=".99999" d="m54.03 56.638 3.367-5.881 116.018 66.432-3.367 5.88z"/>
    <path fill="#FFF" stroke="#000" stroke-miterlimit="10" d="m214.838 127.079-36.195 36.195c-3.869 3.869-10.141 3.869-14.009 0l-36.195-36.195c-3.869-3.869-3.869-10.141 0-14.009l36.195-36.195c3.869-3.869 10.141-3.869 14.009 0l36.195 36.195c3.868 3.868 3.868 10.14 0 14.009z"/>
    <path fill="#FF442B" stroke="#000" stroke-miterlimit="10" d="m153.46 142.074 18.177-51 18.178 51z"/>
    <path fill="#FFF" stroke="#000" stroke-miterlimit="10" d="M300.324 42.677c-4.374-4.384-11.473-4.393-15.858-.019s-4.393 11.473-.019 15.858c4.365 4.375 11.447 4.394 15.835.042 4.397-4.335 4.446-11.414.111-15.811z"/>
    <ellipse cx="50.994" cy="50.986" fill="#159E1F" opacity=".8" rx="50.993" ry="51.004" transform="rotate(-45.162 50.989 50.985)"/>
    <path fill="#FFF" stroke="#000" stroke-miterlimit="10" d="M58.914 43.059c4.384 4.374 4.393 11.473.02 15.858s-11.473 4.393-15.857.02c-4.376-4.365-4.395-11.447-.042-15.835 4.335-4.397 11.414-4.446 15.811-.111z"/>
    <ellipse cx="171.352" cy="254.853" fill="#159E1F" opacity=".8" rx="50.993" ry="51.004" transform="rotate(-44.838 171.368 254.867)"/>
    <path fill="#FFF" stroke="#000" stroke-miterlimit="10" d="M179.224 245.961c-4.374-4.384-11.473-4.393-15.858-.019s-4.393 11.473-.019 15.858c4.365 4.375 11.447 4.394 15.835.042 4.397-4.335 4.446-11.414.111-15.811z"/>
</svg>
