<?xml version="1.0" encoding="utf-8"?>
<!-- Generator: Adobe Illustrator 19.2.0, SVG Export Plug-In . SVG Version: 6.00 Build 0)  -->
<!DOCTYPE svg PUBLIC "-//W3C//DTD SVG 1.1//EN" "http://www.w3.org/Graphics/SVG/1.1/DTD/svg11.dtd">
<svg version="1.1" id="draw" xmlns="http://www.w3.org/2000/svg" xmlns:xlink="http://www.w3.org/1999/xlink" x="0px" y="0px"
	 viewBox="0 0 343.449 305.834" enable-background="new 0 0 343.449 305.834" xml:space="preserve">
<title>YPlus</title>
<rect x="168.017" y="120.306" fill="#FFFFFF" stroke="#000000" stroke-miterlimit="10" width="6.777" height="133.572"/>
<rect x="162.951" y="83.772" transform="matrix(0.8697 -0.4936 0.4936 0.8697 -13.085 124.7584)" fill="#FFFFFF" stroke="#000000" stroke-miterlimit="10" width="133.572" height="6.777"/>
<rect x="110.335" y="20.065" transform="matrix(0.4969 -0.8678 0.8678 0.4969 -18.2066 142.4172)" fill="#FFFFFF" stroke="#000000" stroke-miterlimit="10" width="6.777" height="133.692"/>
<path fill="#FFFFFF" stroke="#000000" stroke-miterlimit="10" d="M214.837,127.079l-36.195,36.195
	c-3.869,3.869-10.141,3.869-14.009,0l-36.195-36.195c-3.869-3.869-3.869-10.141,0-14.009l36.195-36.195
	c3.869-3.869,10.141-3.869,14.009,0l36.195,36.195C218.705,116.938,218.705,123.21,214.837,127.079z"/>
<polygon fill="#FF442B" stroke="#000000" stroke-miterlimit="10" points="153.46,142.074 171.637,91.074 189.815,142.074 "/>
<g opacity="0.8">
	
		<ellipse transform="matrix(0.7091 -0.7051 0.7051 0.7091 48.7216 221.2214)" fill="#4EC3E8" cx="292.45" cy="51.567" rx="50.993" ry="51.004"/>
</g>
<path fill="#FFFFFF" stroke="#000000" stroke-miterlimit="10" d="M300.322,42.677c-4.374-4.384-11.473-4.393-15.858-0.019
	c-4.384,4.374-4.393,11.473-0.019,15.858c4.365,4.375,11.447,4.394,15.835,0.042c4.397-4.335,4.446-11.414,0.111-15.811
	C300.368,42.723,300.345,42.7,300.322,42.677z"/>
<g opacity="0.8">
	
		<ellipse transform="matrix(0.7051 -0.7091 0.7091 0.7051 -21.1175 51.1935)" fill="#4EC3E8" cx="50.996" cy="50.988" rx="50.993" ry="51.004"/>
</g>
<path fill="#FFFFFF" stroke="#000000" stroke-miterlimit="10" d="M58.914,43.059c4.384,4.374,4.393,11.473,0.019,15.858
	c-4.374,4.384-11.473,4.393-15.858,0.019c-4.375-4.365-4.394-11.447-0.042-15.835c4.335-4.397,11.414-4.446,15.811-0.111
	C58.868,43.013,58.891,43.036,58.914,43.059z"/>
<g opacity="0.8">
	
		<ellipse transform="matrix(0.7091 -0.7051 0.7051 0.7091 -129.8543 194.9702)" fill="#4EC3E8" cx="171.349" cy="254.85" rx="50.993" ry="51.004"/>
</g>
<path fill="#FFFFFF" stroke="#000000" stroke-miterlimit="10" d="M179.221,245.961c-4.374-4.384-11.473-4.393-15.858-0.019
	c-4.384,4.374-4.393,11.473-0.019,15.858c4.365,4.375,11.447,4.394,15.835,0.042c4.397-4.335,4.446-11.414,0.111-15.811
	C179.267,246.007,179.244,245.984,179.221,245.961z"/>
</svg>
