<?xml version="1.0" encoding="UTF-8" standalone="no"?>
<!-- Generator: Adobe Illustrator 19.2.0, SVG Export Plug-In . SVG Version: 6.00 Build 0)  -->

<svg
   xmlns:dc="http://purl.org/dc/elements/1.1/"
   xmlns:cc="http://creativecommons.org/ns#"
   xmlns:rdf="http://www.w3.org/1999/02/22-rdf-syntax-ns#"
   xmlns:svg="http://www.w3.org/2000/svg"
   xmlns="http://www.w3.org/2000/svg"
   xmlns:sodipodi="http://sodipodi.sourceforge.net/DTD/sodipodi-0.dtd"
   xmlns:inkscape="http://www.inkscape.org/namespaces/inkscape"
   version="1.1"
   id="draw"
   x="0px"
   y="0px"
   viewBox="0 0 343.449 305.834"
   enable-background="new 0 0 343.449 305.834"
   xml:space="preserve"
   sodipodi:docname="YPlus.svg"
   inkscape:version="0.92.4 (5da689c313, 2019-01-14)"
   inkscape:export-filename="\\nask.man.ac.uk\home$\Desktop\YPlus2.png"
   inkscape:export-xdpi="60.013401"
   inkscape:export-ydpi="60.013401"><metadata
     id="metadata41471"><rdf:RDF><cc:Work
         rdf:about=""><dc:format>image/svg+xml</dc:format><dc:type
           rdf:resource="http://purl.org/dc/dcmitype/StillImage" /><dc:title>YPlus</dc:title></cc:Work></rdf:RDF></metadata><defs
     id="defs41469" /><sodipodi:namedview
     pagecolor="#ffffff"
     bordercolor="#666666"
     borderopacity="1"
     objecttolerance="10"
     gridtolerance="10"
     guidetolerance="10"
     inkscape:pageopacity="0"
     inkscape:pageshadow="2"
     inkscape:window-width="1920"
     inkscape:window-height="1001"
     id="namedview41467"
     showgrid="false"
     inkscape:zoom="2.1825852"
     inkscape:cx="210.05676"
     inkscape:cy="157.88035"
     inkscape:window-x="-9"
     inkscape:window-y="-9"
     inkscape:window-maximized="1"
     inkscape:current-layer="draw" /><title
     id="title41436">YPlus</title><rect
     x="168.017"
     y="120.306"
     fill="#FFFFFF"
     stroke="#000000"
     stroke-miterlimit="10"
     width="6.777"
     height="133.572"
     id="rect41438" /><rect
     x="162.951"
     y="83.772"
     transform="matrix(0.8697 -0.4936 0.4936 0.8697 -13.085 124.7584)"
     fill="#FFFFFF"
     stroke="#000000"
     stroke-miterlimit="10"
     width="133.572"
     height="6.777"
     id="rect41440" /><rect
     x="110.335"
     y="20.065"
     transform="matrix(0.4969 -0.8678 0.8678 0.4969 -18.2066 142.4172)"
     fill="#FFFFFF"
     stroke="#000000"
     stroke-miterlimit="10"
     width="6.777"
     height="133.692"
     id="rect41442" /><path
     fill="#FFFFFF"
     stroke="#000000"
     stroke-miterlimit="10"
     d="M214.837,127.079l-36.195,36.195  c-3.869,3.869-10.141,3.869-14.009,0l-36.195-36.195c-3.869-3.869-3.869-10.141,0-14.009l36.195-36.195  c3.869-3.869,10.141-3.869,14.009,0l36.195,36.195C218.705,116.938,218.705,123.21,214.837,127.079z"
     id="path41444" /><polygon
     fill="#FF442B"
     stroke="#000000"
     stroke-miterlimit="10"
     points="153.46,142.074 171.637,91.074 189.815,142.074 "
     id="polygon41446" /><g
     opacity="0.8"
     id="g41456"><ellipse
       transform="matrix(0.7051 -0.7091 0.7091 0.7051 -21.1175 51.1935)"
       fill="#4EC3E8"
       cx="50.996"
       cy="50.988"
       rx="50.993"
       ry="51.004"
       id="ellipse41454" /></g><path
     fill="#FFFFFF"
     stroke="#000000"
     stroke-miterlimit="10"
     d="M58.914,43.059c4.384,4.374,4.393,11.473,0.019,15.858  c-4.374,4.384-11.473,4.393-15.858,0.019c-4.375-4.365-4.394-11.447-0.042-15.835c4.335-4.397,11.414-4.446,15.811-0.111  C58.868,43.013,58.891,43.036,58.914,43.059z"
     id="path41458" /><g
     opacity="0.8"
     id="g41462"><ellipse
       transform="matrix(0.7091 -0.7051 0.7051 0.7091 -129.8543 194.9702)"
       fill="#4EC3E8"
       cx="171.349"
       cy="254.85"
       rx="50.993"
       ry="51.004"
       id="ellipse41460" /></g><path
     fill="#FFFFFF"
     stroke="#000000"
     stroke-miterlimit="10"
     d="M179.221,245.961c-4.374-4.384-11.473-4.393-15.858-0.019  c-4.384,4.374-4.393,11.473-0.019,15.858c4.365,4.375,11.447,4.394,15.835,0.042c4.397-4.335,4.446-11.414,0.111-15.811  C179.267,246.007,179.244,245.984,179.221,245.961z"
     id="path41464" /><g
     transform="translate(241.37185,0.28067)"
     style="opacity:0.8"
     id="g40598"><ellipse
       style="fill:#159e1f"
       transform="matrix(0.7051,-0.7091,0.7091,0.7051,-21.1165,51.1916)"
       cx="50.993999"
       cy="50.986"
       rx="50.993"
       ry="51.004002"
       id="ellipse40596" /></g><path
     stroke-miterlimit="10"
     d="m 300.322,42.677 c -4.374,-4.384 -11.473,-4.393 -15.858,-0.019 -4.384,4.374 -4.393,11.473 -0.019,15.858 4.365,4.375 11.447,4.394 15.835,0.042 4.397,-4.335 4.446,-11.414 0.111,-15.811 -0.023,-0.024 -0.046,-0.047 -0.069,-0.07 z"
     id="path41452"
     inkscape:connector-curvature="0"
     style="fill:#ffffff;stroke:#000000;stroke-miterlimit:10" /></svg>