<svg xmlns="http://www.w3.org/2000/svg" xml:space="preserve" viewBox="0 0 343.449 305.834">
    <path fill="#FFF" stroke="#000" stroke-miterlimit="10" d="M168.017 120.306h6.777v133.572h-6.777z"/>
    <path fill="#FFF" stroke="#000" stroke-miterlimit="10" stroke-width="1.00001" d="m169.983 117.182 116.168-65.93 3.345 5.893-116.168 65.931z"/>
    <path fill="#FFF" stroke="#000" stroke-miterlimit="10" stroke-width=".99999" d="m54.031 56.639 3.368-5.881 116.018 66.431-3.368 5.881z"/>
    <path fill="#FFF" stroke="#000" stroke-miterlimit="10" d="m214.837 127.079-36.195 36.195c-3.869 3.869-10.141 3.869-14.009 0l-36.195-36.195c-3.869-3.869-3.869-10.141 0-14.009l36.195-36.195c3.869-3.869 10.141-3.869 14.009 0l36.195 36.195c3.868 3.868 3.868 10.14 0 14.009z"/>
    <path fill="#FF442B" stroke="#000" stroke-miterlimit="10" d="m153.46 142.074 18.177-51 18.178 51z"/>
    <ellipse cx="50.996" cy="50.988" fill="#4EC3E8" opacity=".8" rx="50.993" ry="51.004" transform="rotate(-45.162 50.99 50.987)"/>
    <path fill="#FFF" stroke="#000" stroke-miterlimit="10" d="M58.914 43.059c4.384 4.374 4.393 11.473.019 15.858s-11.473 4.393-15.858.019c-4.375-4.365-4.394-11.447-.042-15.835 4.335-4.397 11.414-4.446 15.811-.111z"/>
    <ellipse cx="171.349" cy="254.85" fill="#4EC3E8" opacity=".8" rx="50.993" ry="51.004" transform="rotate(-44.838 171.366 254.864)"/>
    <path fill="#FFF" stroke="#000" stroke-miterlimit="10" d="M179.221 245.961c-4.374-4.384-11.473-4.393-15.858-.019s-4.393 11.473-.019 15.858c4.365 4.375 11.447 4.394 15.835.042 4.397-4.335 4.446-11.414.111-15.811z"/>
    <g style="opacity:.8">
        <ellipse cx="50.994" cy="50.986" rx="50.993" ry="51.004" style="fill:#159e1f" transform="rotate(-45.162 172.015 -239.075)"/>
    </g>
    <path stroke-miterlimit="10" d="M300.322 42.677c-4.374-4.384-11.473-4.393-15.858-.019s-4.393 11.473-.019 15.858c4.365 4.375 11.447 4.394 15.835.042 4.397-4.335 4.446-11.414.111-15.811z" style="fill:#fff;stroke:#000;stroke-miterlimit:10"/>
</svg>
