<?xml version="1.0" encoding="UTF-8"?>
<svg id="Capa_2" data-name="Capa 2" xmlns="http://www.w3.org/2000/svg" viewBox="0 0 80 80">
  <defs>
    <style>
      .cls-1 {
        fill: #fff;
      }

      .cls-2 {
        opacity: .6;
      }

      .cls-3 {
        fill: none;
      }
    </style>
  </defs>
  <g id="Capa_1-2" data-name="Capa 1">
    <g>
      <g class="cls-2">
        <rect class="cls-3" width="80" height="80"/>
      </g>
      <g>
        <g>
          <path class="cls-1" d="m16.86,58.51c0-8.48,4.58-15.88,11.39-19.91h-8.46c-3.49,0-6.31,2.83-6.31,6.31v25.75c0,3.49,2.83,6.31,6.31,6.31h6.31c-5.6-4.22-9.24-10.91-9.24-18.47Z"/>
          <path class="cls-1" d="m40,37.03c-11.87,0-21.49,9.62-21.49,21.49s9.62,21.49,21.49,21.49,21.49-9.62,21.49-21.49-9.62-21.49-21.49-21.49Zm0,39.89c-10.17,0-18.41-8.24-18.41-18.41s8.24-18.41,18.41-18.41,18.41,8.24,18.41,18.41-8.24,18.41-18.41,18.41Z"/>
          <path class="cls-1" d="m60.21,38.6h-8.46c6.81,4.03,11.39,11.42,11.39,19.91,0,7.55-3.64,14.24-9.24,18.47h6.31c3.49,0,6.31-2.83,6.31-6.31v-25.75c0-3.49-2.83-6.31-6.31-6.31Zm2.24,5.97c-1.04,0-1.89-.85-1.89-1.89s.85-1.89,1.89-1.89,1.89.85,1.89,1.89-.85,1.89-1.89,1.89Z"/>
        </g>
        <g>
          <path class="cls-1" d="m50.74,5.24V1.97c0-1.09-.65-1.97-1.45-1.97h-18.59c-.8,0-1.45.88-1.45,1.97v3.27h21.48Z"/>
          <rect class="cls-1" x="29.26" y="6.64" width="21.48" height="4.65"/>
          <path class="cls-1" d="m29.26,12.7v3.27c0,1.09.65,1.97,1.45,1.97h18.59c.8,0,1.45-.88,1.45-1.97v-3.27h-21.48Z"/>
        </g>
        <path class="cls-1" d="m37.45,34.72v-13.39h5.09v13.39c1.47.14,2.89.43,4.28.81.05-.18.08-.38.08-.57v-15.53h-13.82v15.53c0,.2.03.39.08.57,1.39-.38,2.81-.67,4.28-.81Z"/>
      </g>
    </g>
  </g>
</svg>