<svg xmlns="http://www.w3.org/2000/svg" id="Capa_2" data-name="Capa 2" viewBox="0 0 80 80">
    <defs>
        <style>
            .cls-1{fill:#fff}
        </style>
    </defs>
    <g id="Capa_1-2" data-name="Capa 1">
        <g style="opacity:.6">
            <path d="M0 0h80v80H0z" style="fill:none"/>
        </g>
        <path d="M16.86 58.51c0-8.48 4.58-15.88 11.39-19.91h-8.46a6.31 6.31 0 0 0-6.31 6.31v25.75a6.31 6.31 0 0 0 6.31 6.31h6.31c-5.6-4.22-9.24-10.91-9.24-18.47Z" class="cls-1"/>
        <path d="M40 37.03c-11.87 0-21.49 9.62-21.49 21.49S28.13 80.01 40 80.01s21.49-9.62 21.49-21.49S51.87 37.03 40 37.03m0 39.89c-10.17 0-18.41-8.24-18.41-18.41S29.83 40.1 40 40.1s18.41 8.24 18.41 18.41S50.17 76.92 40 76.92" class="cls-1"/>
        <path d="M60.21 38.6h-8.46c6.81 4.03 11.39 11.42 11.39 19.91 0 7.55-3.64 14.24-9.24 18.47h6.31a6.31 6.31 0 0 0 6.31-6.31V44.92a6.31 6.31 0 0 0-6.31-6.31Zm2.24 5.97c-1.04 0-1.89-.85-1.89-1.89s.85-1.89 1.89-1.89 1.89.85 1.89 1.89-.85 1.89-1.89 1.89M50.74 5.24V1.97C50.74.88 50.09 0 49.29 0H30.7c-.8 0-1.45.88-1.45 1.97v3.27h21.48ZM29.26 6.64h21.48v4.65H29.26zM29.26 12.7v3.27c0 1.09.65 1.97 1.45 1.97H49.3c.8 0 1.45-.88 1.45-1.97V12.7H29.27ZM37.45 34.72V21.33h5.09v13.39c1.47.14 2.89.43 4.28.81.05-.18.08-.38.08-.57V19.43H33.08v15.53c0 .2.03.39.08.57 1.39-.38 2.81-.67 4.28-.81Z" class="cls-1"/>
    </g>
</svg>
