<?xml version="1.0" encoding="UTF-8"?>
<svg id="Capa_2" data-name="Capa 2" xmlns="http://www.w3.org/2000/svg" viewBox="0 0 27.35 22.06">
  <defs>
    <style>
      .cls-1 {
        fill: #fff;
      }

      .cls-2 {
        fill: #00d413;
      }
    </style>
  </defs>
  <g id="Toolbar">
    <g>
      <path class="cls-2" d="m12.78,2.28c.05-.15.15-.23.3-.24L26.89,0c.08-.02.15,0,.23.03s.13.08.17.16c.07.13.08.27,0,.42l-6.71,9.68c-.08.09-.18.14-.28.15-.08,0-.13,0-.19-.03-.05-.02-.09-.04-.12-.07l-2.75-2.96-1.28.86c-.13.07-.25.09-.39.02s-.2-.17-.23-.32l-.22-2.87-2.22-2.38c-.13-.14-.15-.28-.11-.41h0Zm1.15.39l1.71,1.86s.02.05.04.08l.02.03,8.9-3.52-10.67,1.56Zm1.93,2.32l.17,2.17L25.84,1.03l-9.98,3.96Zm1.72,1.67c.09.06.14.1.2.15l2.4,2.6,5.36-7.71-7.96,4.95Z"/>
      <path class="cls-1" d="m25.38,11.44H8.7c-.46,0-.83.37-.83.83v8.96c0,.46.37.83.83.83h16.68c.46,0,.83-.37.83-.83v-8.96c0-.46-.37-.83-.83-.83Zm-4.86,9.47c0,.09-.07.16-.16.16h-6.64c-.09,0-.16-.07-.16-.16v-.6c0-.09.07-.16.16-.16h6.64c.09,0,.16.07.16.16v.6Zm3.36-2.05c0,.46-.37.83-.83.83h-12.02c-.46,0-.83-.37-.83-.83v-5.34c0-.46.37-.83.83-.83h12.02c.46,0,.83.37.83.83v5.34Z"/>
      <g>
        <rect class="cls-2" x="4.57" y="20.39" width="2.49" height=".83"/>
        <polygon class="cls-2" points="2.08 21.22 0 21.22 0 19.14 .83 19.14 .83 20.39 2.08 20.39 2.08 21.22"/>
        <path class="cls-2" d="m.83,16.43h-.83v-2.71h.83v2.71Zm0-5.42h-.83v-2.71h.83v2.71Z"/>
        <polygon class="cls-2" points=".83 5.59 0 5.59 0 3.51 2.08 3.51 2.08 4.34 .83 4.34 .83 5.59"/>
        <path class="cls-2" d="m12.4,4.34h-2.58v-.83h2.58v.83Zm-5.16,0h-2.58v-.83h2.58v.83Z"/>
      </g>
    </g>
  </g>
</svg>