<svg width="24" height="24" viewBox="0 0 24 24" fill="none" xmlns="http://www.w3.org/2000/svg">
<path fill-rule="evenodd" clip-rule="evenodd" d="M4.28572 12C4.28572 7.73944 7.73925 4.28572 12 4.28572C16.2606 4.28572 19.7143 7.73944 19.7143 12C19.7143 16.2606 16.2606 19.7143 12 19.7143C7.73944 19.7143 4.28572 16.2606 4.28572 12ZM18.5275 12C18.5275 8.40103 15.599 5.47254 12 5.47254C8.40101 5.47254 5.47252 8.40103 5.47252 12C5.47252 15.599 8.40101 18.5275 12 18.5275C15.599 18.5275 18.5275 15.599 18.5275 12Z" fill="white"/>
<path d="M10.7153 14.8921L10.7161 14.8929L15.8572 9.93369L15.0004 9.10715L10.7153 13.2413L8.99884 11.5853L8.14287 12.4111L10.7145 14.8921L10.7152 14.8913L10.7153 14.8921Z" fill="white"/>
</svg>
