<svg width="24" height="24" viewBox="0 0 24 24" fill="none" xmlns="http://www.w3.org/2000/svg">
<path fill-rule="evenodd" clip-rule="evenodd" d="M13.2245 9.7824L14.3795 8.95061C14.1022 8.53498 13.9638 8.07288 13.9638 7.51841C13.9638 6.13209 15.0729 5.02361 16.4586 5.02361C17.8908 5.02361 18.9999 6.13267 18.9999 7.51841C18.9999 8.95061 17.8908 10.0597 16.4586 10.0597C15.9965 10.0597 15.5344 9.92133 15.1647 9.69L14.287 10.8915V13.2939L15.0723 14.3565C15.442 14.0792 15.95 13.9408 16.4586 13.9408C17.8449 13.9408 18.9534 15.0958 18.9534 16.4821C18.9534 17.8684 17.8444 18.9769 16.4586 18.9769C15.0723 18.9769 13.9173 17.8678 13.9173 16.4821C13.9173 15.9741 14.1022 15.5119 14.333 15.0958L13.1315 14.264H10.775L9.71244 15.0493C9.98971 15.4649 10.1746 15.927 10.1746 16.4815C10.1746 17.8678 9.01956 18.9763 7.63328 18.9763C6.247 18.9763 5.13848 17.8672 5.13848 16.4815C5.13848 15.0952 6.24754 13.9402 7.63328 13.9402C8.14132 13.9402 8.60343 14.0786 8.97312 14.3559L9.80491 13.2009V10.752L8.92718 9.64291C8.51155 9.87368 8.04945 10.0585 7.49498 10.0585C6.10866 10.0585 5.00018 8.94947 5.00018 7.51726C5.00018 6.13094 6.10925 5.02246 7.49498 5.02246C8.92718 5.02246 10.0363 6.13153 10.0363 7.51726C10.0363 8.02531 9.8979 8.5339 9.62063 8.90358L10.8681 9.78131H13.2245L13.2245 9.7824ZM15.3497 14.7261L16.135 15.8352L16.7354 16.4356C16.7814 16.574 16.5047 16.8513 16.4122 16.8053L15.7653 16.1124L14.7027 15.3731C14.5179 15.6963 14.3795 16.0659 14.3795 16.4821C14.3795 17.5912 15.3037 18.5149 16.4588 18.5149C17.5679 18.5149 18.4916 17.5907 18.4916 16.4821C18.4916 15.3271 17.5674 14.4028 16.4588 14.4028C16.0432 14.4028 15.6735 14.5412 15.3497 14.726L15.3497 14.7261ZM14.7492 8.67333L15.7658 7.93396L16.3663 7.33348C16.5047 7.19512 16.7819 7.56426 16.736 7.65669L16.1355 8.30364L15.4426 9.32028C15.7199 9.50512 16.0896 9.59755 16.4593 9.59755C17.6143 9.59755 18.5385 8.67332 18.5385 7.51827C18.5385 6.4092 17.6143 5.48547 16.4593 5.48547C15.3502 5.48547 14.4265 6.40969 14.4265 7.51827C14.4265 7.9339 14.5648 8.35006 14.7497 8.67327L14.7492 8.67333ZM8.6505 9.2738L7.86519 8.21123L7.26471 7.6567C7.21877 7.56428 7.49549 7.28702 7.6344 7.3335L8.23487 7.93397L9.25151 8.67334C9.43635 8.35013 9.57471 7.93397 9.57471 7.51834C9.57471 6.40927 8.65049 5.48554 7.49543 5.48554C6.38637 5.48554 5.46263 6.40976 5.46263 7.51834C5.46263 8.67334 6.38686 9.59762 7.49543 9.59762C7.95754 9.59762 8.32723 9.45926 8.65043 9.27442L8.6505 9.2738ZM9.34339 15.3266L8.23432 16.1119L7.63385 16.8048C7.49549 16.8507 7.21822 16.574 7.26417 16.4351L7.86464 15.8346L8.69644 14.7255C8.37323 14.5407 8.04948 14.4023 7.63386 14.4023C6.5248 14.4023 5.60106 15.3266 5.60106 16.4816C5.60106 17.6367 6.52529 18.5144 7.63386 18.5144C8.78886 18.5144 9.71314 17.6367 9.71314 16.4816C9.71314 16.066 9.57478 15.6498 9.34346 15.3266L9.34339 15.3266Z" fill="white"/>
</svg>
