<svg width="24" height="24" viewBox="0 0 24 24" fill="none" xmlns="http://www.w3.org/2000/svg">
<g clip-path="url(#clip0)">
<path d="M14.1058 11.7848C14.3939 10.9712 14.5716 10.1702 14.5716 9.42837C14.5716 6.58796 12.2694 4.28571 9.42899 4.28571C6.58797 4.28571 4.28572 6.58796 4.28572 9.42837C4.28572 13.4284 9.42837 19.143 9.42837 19.143C9.42837 19.143 10.0304 18.474 10.8224 17.4338C10.6627 16.9854 10.5717 16.5033 10.5717 16C10.5717 13.89 12.0976 12.1398 14.1057 11.7849L14.1058 11.7848ZM7.14301 9.42837C7.14301 8.16635 8.16576 7.14247 9.42891 7.14247C10.6915 7.14247 11.7148 8.16581 11.7148 9.42837C11.7148 10.691 10.6921 11.7143 9.42891 11.7143C8.16576 11.7143 7.14301 10.6915 7.14301 9.42837Z" fill="white"/>
<path d="M15.1429 12.2858C13.0914 12.2858 11.4286 13.9485 11.4286 16C11.4286 18.0516 13.0914 19.7143 15.1429 19.7143C17.1945 19.7143 18.8572 18.0516 18.8572 16C18.8572 13.9485 17.1945 12.2858 15.1429 12.2858V12.2858ZM17.7146 16.2858H15.4287V18.5717H14.8573V16.2858H12.5714V15.7144H14.8573V13.4285H15.4287V15.7144H17.7146V16.2858Z" fill="white"/>
</g>
<defs>
<clipPath id="clip0">
<rect width="15.4286" height="15.4286" fill="white" transform="matrix(-1 0 0 1 19.7143 4.28571)"/>
</clipPath>
</defs>
</svg>
