<svg width="24" height="24" viewBox="0 0 24 24" fill="none" xmlns="http://www.w3.org/2000/svg">
<path fill-rule="evenodd" clip-rule="evenodd" d="M20 12C20 12.3401 19.7248 12.6154 19.3846 12.6154H17.8137C17.5265 15.3485 15.3486 17.5264 12.6154 17.8137V19.3846C12.6154 19.7248 12.3401 20 12 20C11.6599 20 11.3846 19.7248 11.3846 19.3846V17.8137C8.65151 17.5265 6.47364 15.3486 6.18627 12.6154H4.61537C4.27523 12.6154 4 12.3401 4 12C4 11.6599 4.27523 11.3846 4.61537 11.3846H6.18627C6.47352 8.65151 8.65136 6.47364 11.3846 6.18627V4.61537C11.3846 4.27523 11.6599 4 12 4C12.3401 4 12.6154 4.27523 12.6154 4.61537V6.18627C15.3485 6.47352 17.5264 8.65136 17.8137 11.3846H19.3846C19.7248 11.3846 20 11.6599 20 12ZM14.4616 12C14.4616 13.3594 13.3595 14.4615 12.0002 14.4615C10.6408 14.4615 9.53866 13.3594 9.53866 12C9.53866 10.6406 10.6408 9.53851 12.0002 9.53851C13.3595 9.53851 14.4616 10.6406 14.4616 12ZM12.0002 7.3847C14.5446 7.3847 16.6154 9.45559 16.6154 12C16.6154 14.5444 14.5446 16.6153 12.0002 16.6153C9.45574 16.6153 7.38486 14.5444 7.38486 12C7.38486 9.45559 9.45574 7.3847 12.0002 7.3847Z" fill="white"/>
</svg>
