<svg width="24" height="24" viewBox="0 0 24 24" fill="none" xmlns="http://www.w3.org/2000/svg">
<g clip-path="url(#clip0)">
<path fill-rule="evenodd" clip-rule="evenodd" d="M17.505 15.9285V8.0714C18.3925 8.0714 19.1126 7.36812 19.1126 6.49971C19.1126 5.63235 18.3924 4.92857 17.505 4.92857C16.6163 4.92857 15.8967 5.63241 15.8967 6.49971H7.85691C7.85691 5.63235 7.13727 4.92857 6.24866 4.92857C5.36057 4.92857 4.64099 5.63241 4.64099 6.49971C4.64099 7.36816 5.36063 8.0714 6.24866 8.0714V15.9285C5.36057 15.9285 4.64099 16.6323 4.64099 17.5002C4.64099 18.368 5.36063 19.0713 6.24866 19.0713C7.13731 19.0713 7.85691 18.368 7.85691 17.5002H15.8967C15.8967 18.3681 16.6163 19.0713 17.505 19.0713C18.3925 19.0713 19.1126 18.368 19.1126 17.5002C19.1126 16.6323 18.3924 15.9285 17.505 15.9285ZM7.05313 7.85318C7.29395 7.71617 7.4935 7.52115 7.63426 7.28581H9.46465L7.05307 9.64258L7.05313 7.85318ZM10.2692 7.28577L7.05313 10.4287V11.9999L11.8769 7.28577H10.2692ZM7.05313 12.7855L12.6808 7.28577H14.289L7.05313 14.3572V12.7855ZM7.05313 16.1461C7.17354 16.2152 7.28377 16.2981 7.38101 16.3936L16.3728 7.60621C16.275 7.5112 16.1902 7.40346 16.1195 7.28579H15.0929L7.05313 15.1429V16.1461ZM16.7005 16.1461C16.4597 16.2837 16.2602 16.4787 16.1194 16.7141H15.0928L16.7005 15.1429L16.7005 16.1461ZM14.289 16.7141L16.7005 14.3573V12.7856L12.6807 16.7141H14.289ZM16.7005 12L11.8768 16.7141H10.2691L16.7005 10.4289V12ZM9.46465 16.7141L16.7005 9.64267V8.07154L7.85698 16.7141H9.46465Z" fill="white"/>
</g>
<defs>
<clipPath id="clip0">
<rect width="15.4286" height="15.4286" fill="white" transform="translate(4.28571 4.28571)"/>
</clipPath>
</defs>
</svg>
