<svg width="24" height="24" viewBox="0 0 24 24" fill="none" xmlns="http://www.w3.org/2000/svg">
<path fill-rule="evenodd" clip-rule="evenodd" d="M4.28572 12C4.28572 7.73943 7.73925 4.28571 12 4.28571C16.2606 4.28571 19.7143 7.73943 19.7143 12C19.7143 16.2606 16.2606 19.7143 12 19.7143C7.73944 19.7143 4.28572 16.2606 4.28572 12ZM18.5275 12C18.5275 8.40103 15.599 5.47254 12 5.47254C8.40101 5.47254 5.47252 8.40103 5.47252 12C5.47252 15.599 8.40101 18.5275 12 18.5275C15.599 18.5275 18.5275 15.599 18.5275 12Z" fill="white"/>
<g clip-path="url(#clip0)">
<path d="M11.7371 7.80859C11.7532 7.80859 11.7715 7.81405 11.7852 7.8246L13.6223 9.2402C13.6407 9.25426 13.6512 9.27419 13.6512 9.29762C13.6512 9.32106 13.641 9.34411 13.6223 9.35817L11.7852 10.7703C11.7586 10.791 11.7196 10.7937 11.6926 10.7734C11.6657 10.7531 11.6547 10.7152 11.6672 10.6839L12.0379 9.74761H11.6C10.5273 9.81089 9.67304 10.7011 9.67304 11.7894C9.67304 12.3945 9.93827 12.9644 10.4016 13.355L9.82344 14.0425C9.15742 13.4812 8.77544 12.6601 8.77544 11.7898C8.77544 10.3546 9.80824 9.15781 11.1688 8.89801C11.2309 8.88356 11.3099 8.87379 11.3829 8.86598C11.4934 8.85348 11.6079 8.84372 11.7216 8.84372V8.84997H12.038L11.6673 7.91364C11.6548 7.88239 11.6661 7.84449 11.6927 7.82418C11.7059 7.81403 11.7216 7.80817 11.7376 7.80817L11.7371 7.80859ZM14.0859 9.85039C14.6762 10.4121 14.9996 11.1703 14.9996 11.9848C14.9996 13.42 13.9672 14.6168 12.6062 14.8766C12.5441 14.891 12.4652 14.9039 12.3922 14.9117C12.2816 14.9242 12.1672 14.9309 12.0535 14.9309V14.9246L11.7371 14.9278L12.1078 15.8641C12.1203 15.8953 12.1089 15.9301 12.0824 15.9504C12.0691 15.9606 12.0535 15.9664 12.0375 15.9664C12.0214 15.9664 12.0031 15.961 11.9894 15.9504L10.1523 14.5344C10.134 14.5204 10.1238 14.5004 10.1238 14.477C10.1238 14.4536 10.134 14.4305 10.1527 14.4164L11.9898 13.0039C12.0164 12.9832 12.0554 12.9836 12.0824 13.0039C12.1093 13.0243 12.1203 13.059 12.1078 13.0903L11.7371 14.0266H12.175C13.2477 13.9633 14.102 13.0731 14.102 11.9848C14.102 11.4184 13.8766 10.8926 13.466 10.502L14.0859 9.85039Z" fill="white"/>
</g>
<defs>
<clipPath id="clip0">
<rect width="9" height="9" fill="white" transform="translate(7.5 7.5)"/>
</clipPath>
</defs>
</svg>
