<svg width="24" height="24" viewBox="0 0 24 24" fill="none" xmlns="http://www.w3.org/2000/svg">
<path d="M11.6993 3.70456C11.7314 3.70456 11.7681 3.71568 11.7954 3.73713L15.4684 6.61623C15.5051 6.64483 15.5262 6.68535 15.5262 6.73302C15.5262 6.78069 15.5059 6.82756 15.4684 6.85616L11.7954 9.72815C11.7423 9.77025 11.6642 9.77581 11.6103 9.7345C11.5564 9.69319 11.5345 9.61613 11.5595 9.55257L12.3007 7.64822H11.4252C9.28047 7.77693 7.57241 9.58753 7.57241 11.8009C7.57241 13.0315 8.1027 14.1907 9.02899 14.9851L7.87311 16.3834C6.54149 15.2417 5.77777 13.5718 5.77777 11.8017C5.77777 8.88276 7.84272 6.44867 10.5631 5.92028C10.6872 5.89088 10.845 5.87102 10.991 5.85513C11.2121 5.82971 11.4409 5.80984 11.6682 5.80984V5.82256H12.3008L11.5596 3.91821C11.5346 3.85465 11.5573 3.77759 11.6104 3.73628C11.6369 3.71562 11.6682 3.7037 11.7002 3.7037L11.6993 3.70456ZM16.3955 7.85725C17.5755 8.9997 18.2222 10.5417 18.2222 12.1983C18.2222 15.1172 16.1581 17.5513 13.4369 18.0797C13.3127 18.1091 13.155 18.1353 13.0089 18.1512C12.7879 18.1767 12.5591 18.1902 12.3318 18.1902V18.1774L11.6992 18.1838L12.4404 20.0881C12.4653 20.1517 12.4427 20.2224 12.3896 20.2637C12.363 20.2844 12.3318 20.2963 12.2998 20.2963C12.2678 20.2963 12.231 20.2852 12.2037 20.2637L8.53067 17.3838C8.49396 17.3552 8.47365 17.3147 8.47365 17.267C8.47365 17.2194 8.49396 17.1725 8.53145 17.1439L12.2045 14.2711C12.2576 14.229 12.3357 14.2298 12.3896 14.2711C12.4435 14.3124 12.4653 14.3831 12.4404 14.4467L11.6992 16.351H12.5747C14.7194 16.2223 16.4275 14.4117 16.4275 12.1983C16.4275 11.0463 15.9768 9.97695 15.156 9.18253L16.3955 7.85725Z" fill="white"/>
</svg>
