<svg width="24" height="24" viewBox="0 0 24 24" fill="none" xmlns="http://www.w3.org/2000/svg">
<path fill-rule="evenodd" clip-rule="evenodd" d="M4.28571 12C4.28571 7.73943 7.73924 4.28571 12 4.28571C16.2606 4.28571 19.7143 7.73943 19.7143 12C19.7143 16.2606 16.2606 19.7143 12 19.7143C7.73943 19.7143 4.28571 16.2606 4.28571 12ZM18.5275 12C18.5275 8.40103 15.599 5.47254 12 5.47254C8.40099 5.47254 5.47251 8.40103 5.47251 12C5.47251 15.599 8.40099 18.5275 12 18.5275C15.599 18.5275 18.5275 15.599 18.5275 12Z" fill="white"/>
<g clip-path="url(#clip0)">
<path d="M12.6947 15.3553C12.6947 15.7388 12.3836 16.05 11.9997 16.05C11.6157 16.05 11.305 15.7392 11.305 15.3553C11.305 14.9714 11.6157 14.6602 11.9997 14.6602C12.3836 14.6606 12.6947 14.9714 12.6947 15.3553V15.3553Z" fill="white"/>
<path d="M12.9544 8.87394C12.9372 8.67636 12.8613 8.49039 12.7453 8.33816C12.5681 8.10472 12.2974 7.94968 12 7.95004C11.7113 7.94968 11.448 8.09558 11.2708 8.31706C11.1457 8.47316 11.0634 8.66722 11.0455 8.87359C11.0405 8.92808 11.0412 8.98714 11.0455 9.04023L11.4406 13.5666C11.4526 13.7034 11.5127 13.824 11.6023 13.9136C11.705 14.0163 11.8463 14.0788 12 14.0785C12.1381 14.0788 12.2668 14.0282 12.3656 13.9431C12.4728 13.851 12.5459 13.7185 12.5593 13.5663L12.9544 9.03988C12.9587 8.9875 12.959 8.92844 12.9544 8.87394Z" fill="white"/>
</g>
<defs>
<clipPath id="clip0">
<rect width="9" height="9" fill="white" transform="translate(7.5 7.5)"/>
</clipPath>
</defs>
</svg>
