<svg width="24" height="24" viewBox="0 0 24 24" fill="none" xmlns="http://www.w3.org/2000/svg">
<path fill-rule="evenodd" clip-rule="evenodd" d="M11.3825 18.0825C11.3727 18.0627 11.362 18.0429 11.3522 18.0222C11.2497 17.8203 11.1237 17.5967 10.9704 17.3524C10.9568 17.3307 10.9431 17.309 10.9294 17.2873C10.7703 17.0354 10.5819 16.7619 10.3593 16.4666C10.3427 16.444 10.3261 16.4213 10.3085 16.4006C10.0791 16.0978 9.81543 15.7732 9.51082 15.4271C9.49129 15.4044 9.47176 15.3827 9.45224 15.361C9.29895 15.1874 9.13688 15.0101 8.96309 14.8252C8.6907 14.5365 8.39584 14.2356 8.06876 13.9205C7.10314 12.9904 6.50465 11.7037 6.50465 10.2812C6.50465 7.44262 8.88596 5.14285 11.8227 5.14285C14.7616 5.14285 17.1429 7.44272 17.1429 10.2812C17.1429 11.7037 16.5444 12.9905 15.5787 13.9205C13.1466 16.2704 12.2904 17.8789 11.9888 18.7241C11.9849 18.7402 11.981 18.7553 11.9722 18.7694C11.9429 18.8204 11.8882 18.8571 11.8228 18.8571C11.7574 18.8571 11.7027 18.8213 11.6744 18.7694C11.6695 18.7553 11.6636 18.7392 11.6578 18.7241C11.6187 18.6147 11.5699 18.4921 11.5104 18.3572C11.4742 18.2713 11.4303 18.1789 11.3824 18.0827L11.3825 18.0825ZM14.0489 10.281C14.0489 9.09427 13.053 8.13208 11.8248 8.13208C10.5965 8.13208 9.60065 9.09429 9.60065 10.281C9.60065 11.4687 10.5965 12.4299 11.8248 12.4299C13.053 12.4299 14.0489 11.4677 14.0489 10.281Z" fill="white"/>
</svg>
