<svg width="24" height="24" viewBox="0 0 24 24" fill="none" xmlns="http://www.w3.org/2000/svg">
<path fill-rule="evenodd" clip-rule="evenodd" d="M9.0154 14.3883C9.98007 14.1126 10.9847 14 11.9884 14L11.9742 14.0006C13.0606 14.0006 14.1471 14.1223 15.1836 14.4465C16.156 14.7503 17.2519 15.2522 17.7696 16.1564C17.9998 16.5588 18.0701 17.0268 17.9227 17.4686C17.7811 17.8937 17.4733 18.2491 17.1253 18.5334C16.4044 19.1231 15.4888 19.4659 14.5846 19.6881C12.6533 20.1616 10.6409 20.0965 8.74913 19.4891C7.89499 19.2144 7.00384 18.7919 6.43457 18.0931C6.14552 17.7377 5.9627 17.2999 6.00645 16.842C6.04968 16.3916 6.29604 15.9862 6.61271 15.6636C7.24711 15.0168 8.14612 14.6367 9.0154 14.3883ZM9.12787 18.9407C10.0212 19.2361 10.9769 19.376 11.9196 19.384H11.9196C12.4915 19.4103 13.0816 19.3391 13.6425 19.2396C14.2206 19.1371 14.7941 18.9887 15.3347 18.763C16.0702 18.4566 16.9124 17.9491 17.1368 17.1514C17.3926 16.2447 16.6082 15.5091 15.8702 15.1021C14.2097 14.1863 12.1285 14.108 10.2884 14.4216C9.3753 14.5766 8.47372 14.8199 7.71902 15.3647C7.37579 15.6121 7.0638 15.9292 6.91068 16.3225C6.74663 16.744 6.81433 17.1954 7.05652 17.5746C7.50279 18.2733 8.35131 18.6838 9.12787 18.9407Z" fill="white"/>
<path fill-rule="evenodd" clip-rule="evenodd" d="M14.1063 15.34H13.3026C13.343 15.6423 13.3839 15.945 13.4243 16.2472H10.5767C10.6176 15.945 10.658 15.6423 10.6984 15.34C10.5969 15.34 9.89225 15.3326 9.89081 15.3334C9.88744 15.335 9.78017 15.8666 9.72485 16.1214C9.5945 16.7231 9.46415 17.3247 9.33331 17.9261C9.43144 17.9261 10.3487 17.943 10.3511 17.9252C10.3959 17.5916 10.4406 17.2576 10.4853 16.9236C10.4959 16.8452 10.5065 16.7664 10.5171 16.6881C10.519 16.6728 10.532 16.5866 10.531 16.5837C10.5305 16.5821 10.7326 16.5837 10.772 16.5837H12.124H13.3251C13.3593 16.5837 13.466 16.5648 13.4709 16.6002C13.4896 16.7405 13.5089 16.8807 13.5276 17.0209C13.5363 17.0864 13.6286 17.9256 13.6503 17.9256H14.6666C14.48 17.0642 14.2934 16.2019 14.1063 15.34" fill="white"/>
<path fill-rule="evenodd" clip-rule="evenodd" d="M10.8541 6.8618L11.7725 4L12.6437 6.87359L13.4331 9.47813L14.7838 9.47944L13.2527 11.1319L11.7212 12.7841L10.1941 11.1289L8.66669 9.47354L10.0157 9.47485L10.8541 6.8618Z" fill="white"/>
</svg>
