<svg width="24" height="24" viewBox="0 0 24 24" fill="none" xmlns="http://www.w3.org/2000/svg">
<path d="M17.7685 16.6906L14.9031 13.8077C16.2932 11.886 16.1384 9.17468 14.4057 7.44125C12.484 5.51958 9.36124 5.51958 7.43872 7.44125C5.51705 9.36291 5.51705 12.4857 7.43872 14.4082C9.17214 16.1417 11.8826 16.2958 13.8051 14.9056L16.6881 17.7885C16.9971 18.0975 17.4777 18.0975 17.786 17.7885C18.0775 17.4795 18.0776 16.9996 17.7686 16.6906H17.7685ZM8.21095 13.6361C6.71823 12.1434 6.71823 9.70695 8.21095 8.21341C9.70367 6.7207 12.1401 6.7207 13.6336 8.21341C15.1263 9.70613 15.1263 12.1425 13.6336 13.6361C12.1402 15.1288 9.7038 15.1288 8.21095 13.6361V13.6361Z" fill="white"/>
<path d="M12.8781 10.3583H11.5053V8.98558C11.5053 8.67658 11.2479 8.40244 10.9222 8.40244C10.6132 8.40244 10.3391 8.65983 10.3391 8.98558V10.3583H8.96632C8.65732 10.3583 8.38318 10.6157 8.38318 10.9415C8.38318 11.2505 8.64057 11.5246 8.96632 11.5246H10.3391V12.8973C10.3391 13.2063 10.5964 13.4805 10.9222 13.4805C11.2312 13.4805 11.5053 13.2231 11.5053 12.8973V11.5246H12.8781C13.1871 11.5246 13.4612 11.2672 13.4612 10.9415C13.4445 10.6157 13.1871 10.3583 12.8781 10.3583Z" fill="white"/>
</svg>
