<?xml version="1.0" encoding="UTF-8"?>
<svg id="Capa_2" data-name="Capa 2" xmlns="http://www.w3.org/2000/svg" viewBox="0 0 10 10">
  <defs>
    <style>
      .cls-1 {
        fill: #fff;
      }

      .cls-2 {
        fill: none;
      }
    </style>
  </defs>
  <g id="Telemtría">
    <g>
      <g>
        <path class="cls-1" d="m1.07,5c0-1.44.78-2.69,1.93-3.38h-1.44c-.59,0-1.07.48-1.07,1.07v4.37c0,.59.48,1.07,1.07,1.07h1.07c-.95-.72-1.57-1.85-1.57-3.13Z"/>
        <path class="cls-1" d="m5,1.35c-2.01,0-3.65,1.63-3.65,3.65s1.63,3.65,3.65,3.65,3.65-1.63,3.65-3.65-1.63-3.65-3.65-3.65Zm0,6.77c-1.72,0-3.12-1.4-3.12-3.12s1.4-3.12,3.12-3.12,3.12,1.4,3.12,3.12-1.4,3.12-3.12,3.12Z"/>
        <path class="cls-1" d="m8.43,1.62h-1.44c1.16.68,1.93,1.94,1.93,3.38,0,1.28-.62,2.42-1.57,3.13h1.07c.59,0,1.07-.48,1.07-1.07V2.69c0-.59-.48-1.07-1.07-1.07Zm.38,1.01c-.18,0-.32-.14-.32-.32s.14-.32.32-.32.32.14.32.32-.14.32-.32.32Z"/>
      </g>
      <rect class="cls-2" width="10" height="10"/>
    </g>
  </g>
</svg>