<?xml version="1.0" encoding="UTF-8"?>
<svg id="Capa_2" data-name="Capa 2" xmlns="http://www.w3.org/2000/svg" viewBox="0 0 10 10">
  <defs>
    <style>
      .cls-1 {
        fill: #fff;
      }

      .cls-2 {
        fill: none;
      }
    </style>
  </defs>
  <g id="Telemtría">
    <g>
      <g>
        <g>
          <path class="cls-1" d="m1.96,6.84c0-1.11.6-2.08,1.49-2.61h-1.11c-.46,0-.83.37-.83.83v3.38c0,.46.37.83.83.83h.83c-.73-.55-1.21-1.43-1.21-2.42Z"/>
          <path class="cls-1" d="m5,4.02c-1.56,0-2.82,1.26-2.82,2.82s1.26,2.82,2.82,2.82,2.82-1.26,2.82-2.82-1.26-2.82-2.82-2.82Zm0,5.23c-1.33,0-2.42-1.08-2.42-2.42s1.08-2.42,2.42-2.42,2.42,1.08,2.42,2.42-1.08,2.42-2.42,2.42Z"/>
          <path class="cls-1" d="m7.65,4.23h-1.11c.89.53,1.49,1.5,1.49,2.61,0,.99-.48,1.87-1.21,2.42h.83c.46,0,.83-.37.83-.83v-3.38c0-.46-.37-.83-.83-.83Zm.29.78c-.14,0-.25-.11-.25-.25s.11-.25.25-.25.25.11.25.25-.11.25-.25.25Z"/>
        </g>
        <g>
          <path class="cls-1" d="m6.41,1.03v-.43c0-.14-.08-.26-.19-.26h-2.44c-.1,0-.19.12-.19.26v.43h2.82Z"/>
          <path class="cls-1" d="m3.59,1.32v.43c0,.14.08.26.19.26h2.44c.1,0,.19-.12.19-.26v-.43h-2.82Z"/>
        </g>
        <path class="cls-1" d="m4.67,3.72v-1.3h.67v1.3c.19.02.38.06.56.11,0-.02.01-.05.01-.08v-1.58h-1.81v1.58s0,.05.01.08c.18-.05.37-.09.56-.11Z"/>
      </g>
      <rect class="cls-2" width="10" height="10"/>
    </g>
  </g>
</svg>