<svg xmlns="http://www.w3.org/2000/svg" id="Capa_2" data-name="Capa 2" viewBox="0 0 10 10">
    <defs>
        <style>
            .cls-1{fill:#fff}
        </style>
    </defs>
    <g id="Telemtría">
        <path d="M1.96 6.84c0-1.11.6-2.08 1.49-2.61H2.34c-.46 0-.83.37-.83.83v3.38c0 .46.37.83.83.83h.83a3.03 3.03 0 0 1-1.21-2.42Z" class="cls-1"/>
        <path d="M5 4.02c-1.56 0-2.82 1.26-2.82 2.82S3.44 9.66 5 9.66 7.82 8.4 7.82 6.84 6.56 4.02 5 4.02m0 5.23c-1.33 0-2.42-1.08-2.42-2.42S3.66 4.41 5 4.41s2.42 1.08 2.42 2.42S6.34 9.25 5 9.25" class="cls-1"/>
        <path d="M7.65 4.23H6.54c.89.53 1.49 1.5 1.49 2.61 0 .99-.48 1.87-1.21 2.42h.83c.46 0 .83-.37.83-.83V5.05c0-.46-.37-.83-.83-.83Zm.29.78c-.14 0-.25-.11-.25-.25s.11-.25.25-.25.25.11.25.25-.11.25-.25.25M6.41 1.03V.6c0-.14-.08-.26-.19-.26H3.78c-.1 0-.19.12-.19.26v.43zM3.59 1.32v.43c0 .14.08.26.19.26h2.44c.1 0 .19-.12.19-.26v-.43zM4.67 3.72v-1.3h.67v1.3c.19.02.38.06.56.11 0-.02.01-.05.01-.08V2.17H4.1v1.58s0 .05.01.08c.18-.05.37-.09.56-.11" class="cls-1"/>
        <path d="M0 0h10v10H0z" style="fill:none"/>
    </g>
</svg>
