<?xml version="1.0" encoding="UTF-8"?>
<svg version="1.1" xmlns="http://www.w3.org/2000/svg" width="448" height="276">
<path d="M0 0 C14.22492293 10.9919859 22.31833015 24.43196844 25.12890625 42.12890625 C25.69347669 45.08176658 25.69347669 45.08176658 27.875 46.25390625 C28.57625 46.50011719 29.2775 46.74632812 30 47 C30.55558594 47.39960937 31.11117187 47.79921875 31.68359375 48.2109375 C35.08100993 50.46579278 37.07411879 51.17488867 41.1640625 50.40234375 C43.37835134 49.69224422 45.57714831 48.93123069 47.75390625 48.11328125 C55.39430209 45.49292889 63.3939972 45.78184579 71.37597656 45.75976562 C73.467216 45.75015073 75.55743157 45.71910708 77.6484375 45.6875 C88.95972903 45.59822448 102.14422798 45.86975326 111.6796875 52.66015625 C113.59356736 54.60234794 114 56.31399251 114 59 C106.67118114 65.02591773 98.49838688 67.63322579 89 67 C89 66.34 89 65.68 89 65 C93.29 64.01 97.58 63.02 102 62 C102.33 60.68 102.66 59.36 103 58 C101.45983306 57.5160345 99.91777806 57.03807613 98.375 56.5625 C97.51648438 56.29566406 96.65796875 56.02882813 95.7734375 55.75390625 C88.79834374 53.85785964 82.06085661 53.81675702 74.875 53.8125 C73.81023437 53.80025391 72.74546875 53.78800781 71.6484375 53.77539062 C64.24489822 53.76191331 57.25950348 54.56001083 50 56 C59.3971159 60.39293552 59.3971159 60.39293552 69.375 60 C73.79018861 58.78201693 76.53039104 59.21585808 81 60 C81.55485582 71.73417302 81.55485582 71.73417302 78 76 C77 77 77 77 73.625 77.25 C70 77 70 77 68.0625 75.625 C67 74 67 74 67 72 C64.70776656 71.30282301 62.41366817 70.61277665 60.1171875 69.9296875 C57.93197115 69.27795631 55.74991538 68.61557762 53.5703125 67.9453125 C46.73596762 65.89650452 40.1731769 64.01247509 33 64 C31.90365234 63.95166016 31.90365234 63.95166016 30.78515625 63.90234375 C28.2212893 64.09809523 27.03355555 64.39794382 25 66 C23.44510835 69.32535826 22.40542472 72.68300015 21.328125 76.19140625 C16.80692156 90.16699539 4.67741669 101.31191403 -8 108 C-23.81935766 114.9865813 -41.30577684 116.91421638 -57.9375 111.24609375 C-75.98883412 103.90122693 -88.15486047 90.70185331 -96 73 C-97.07097095 70.35052971 -98.05110419 67.69686179 -99 65 C-113.29572871 63.95055825 -126.84825711 67.52374825 -140 73 C-140.7734375 74.0828125 -140.7734375 74.0828125 -141.5625 75.1875 C-143 77 -143 77 -146.4375 77.5625 C-150 77 -150 77 -152.4375 75.25 C-154.82587184 70.28218657 -154.31110039 65.41833171 -154 60 C-149.05313841 59.23238355 -144.92057839 58.67984482 -140 60 C-139.67 60.66 -139.34 61.32 -139 62 C-136.51960151 61.19110952 -134.04069788 60.37808099 -131.5625 59.5625 C-130.85544922 59.33240234 -130.14839844 59.10230469 -129.41992188 58.86523438 C-125.93693205 57.92578853 -125.93693205 57.92578853 -123 56 C-131.17906999 54.40704178 -139.04557406 53.64474513 -147.375 53.6875 C-149.00429443 53.69160889 -149.00429443 53.69160889 -150.66650391 53.69580078 C-164.47178157 53.86040911 -164.47178157 53.86040911 -177 59 C-177 59.66 -177 60.32 -177 61 C-176.41992188 61.19335938 -175.83984375 61.38671875 -175.2421875 61.5859375 C-170.828125 63.05729167 -166.4140625 64.52864583 -162 66 C-162 66.33 -162 66.66 -162 67 C-169.86697223 67.73181137 -178.54057873 65.55493646 -184.8984375 60.859375 C-185.59195313 60.24578125 -186.28546875 59.6321875 -187 59 C-187 56.25 -187 56.25 -186 53 C-175.61536489 45.87328963 -161.87395031 45.49835503 -149.66870117 45.60888672 C-147.56688329 45.62496647 -145.4669946 45.60893509 -143.36523438 45.58984375 C-132.8789951 45.57363225 -122.67524941 46.61338542 -112.7277832 50.16992188 C-109.99907252 51.32706863 -109.99907252 51.32706863 -107.515625 49.8828125 C-106.76796875 49.30273438 -106.0203125 48.72265625 -105.25 48.125 C-101.13004484 45 -101.13004484 45 -99 45 C-98.86464844 44.15179688 -98.72929687 43.30359375 -98.58984375 42.4296875 C-95.24537084 24.20531414 -86.22227008 9.689439 -71.03515625 -1.0625 C-48.89826868 -15.19364058 -21.78310521 -14.49435626 0 0 Z M-74 18 C-83.92086239 30.17774103 -86.85438426 43.66768616 -86 59 C-83.83726501 72.40214517 -77.06723938 83.6744135 -66.39453125 92.04296875 C-53.24362306 100.94307833 -39.00980277 103.26524182 -23.5 100.33984375 C-9.18600496 96.03446243 1.37518159 87.02129909 8.48828125 74.08984375 C14.22696306 62.36039334 14.90528537 48.68077462 11.4375 36.125 C6.66378615 22.78521427 -1.75043289 12.75175996 -14.5625 6.5625 C-35.14814987 -2.10893478 -58.36323725 1.26108657 -74 18 Z " fill="#3878B5" transform="translate(261,52)"/>
<path d="M0 0 C0 6.27 0 12.54 0 19 C6.39949476 20.77763743 12.81270753 22.49017968 19.25 24.125 C19.91064453 24.29547852 20.57128906 24.46595703 21.25195312 24.64160156 C28.81734261 26.54620162 36.10908485 27.22465028 43.875 27.3125 C45.14537109 27.35600586 45.14537109 27.35600586 46.44140625 27.40039062 C54.60671039 27.48166854 61.17164466 24.96998166 67.4375 19.6875 C81.48259832 8.3349853 96.64697497 0.06010253 115 -1 C116.04027344 -1.061875 116.04027344 -1.061875 117.1015625 -1.125 C134.62055826 -1.63464351 152.05191292 4.10713173 165.640625 15.09375 C168.28106248 17.2270836 170.96654645 19.28281573 173.6875 21.3125 C174.55761719 21.96863281 175.42773438 22.62476562 176.32421875 23.30078125 C182.21670549 27.04272539 187.65396127 27.35710728 194.4375 27.3125 C195.32348877 27.30758545 196.20947754 27.3026709 197.12231445 27.29760742 C209.81651725 27.07425909 221.55579084 23.70495253 233.61328125 19.98828125 C237 19 237 19 239 19 C239 12.73 239 6.46 239 0 C251.18003093 -3.04500773 262.82881866 -2.73726875 275 0 C275.08789715 4.31236921 275.1406923 8.6245045 275.1875 12.9375 C275.22520508 14.75604492 275.22520508 14.75604492 275.26367188 16.61132812 C275.32684319 24.38140023 275.31438738 31.84195037 270.28125 38.15625 C269.6934375 38.5996875 269.105625 39.043125 268.5 39.5 C267.9121875 39.9640625 267.324375 40.428125 266.71875 40.90625 C262.22135908 43.76822604 257.13393814 43.4630924 252 43 C248.598315 41.66362375 246.56521154 40.56521154 244 38 C237.6386959 38.40649208 231.34358833 41.18807112 225.5 43.5625 C224.63777832 43.91111084 223.77555664 44.25972168 222.88720703 44.61889648 C211.21351063 49.44455278 199.92982126 55.06611293 189.8828125 62.78515625 C188 64 188 64 185 64 C184.79246094 63.06800781 184.58492187 62.13601562 184.37109375 61.17578125 C181.37498936 48.77767563 176.67641268 38.52289196 168 29 C168 28.34 168 27.68 168 27 C167.09894531 26.58814453 167.09894531 26.58814453 166.1796875 26.16796875 C164 25 164 25 161.125 22.3125 C148.07178645 10.85935779 129.88648373 6.97261438 113 8 C98.91615113 9.97859381 84.95991384 14.82378415 74.84375 25.21484375 C73 27 73 27 71 27 C70.73832031 27.56589844 70.47664063 28.13179687 70.20703125 28.71484375 C68.89772431 31.19362873 67.35895758 33.31288857 65.6875 35.5625 C59.46401268 44.39959322 56.25749521 53.48337595 54 64 C50.00172857 63.37676824 47.35458099 61.33303828 44.0625 59.0625 C32.1232108 51.13676886 18.8873489 45.19011176 5.4375 40.3125 C4.74164795 40.05637939 4.0457959 39.80025879 3.32885742 39.53637695 C-1.35005513 37.91149603 -1.35005513 37.91149603 -6 39 C-6.845625 39.680625 -7.69125 40.36125 -8.5625 41.0625 C-13.40783492 43.79350695 -17.55486476 43.65829247 -23 43 C-28.1955971 41.2681343 -30.90169545 38.47532879 -34 34 C-36.71801574 27.20496066 -36.22346968 20.2848721 -36.125 13.0625 C-36.11597656 11.80630859 -36.10695313 10.55011719 -36.09765625 9.25585938 C-36.07419249 6.17037478 -36.04136201 3.08528795 -36 0 C-23.69147737 -2.46535482 -12.31449479 -3.03126025 0 0 Z " fill="#397AB8" transform="translate(105,30)"/>
<path d="M0 0 C1.26085419 0.0001133 1.26085419 0.0001133 2.54718018 0.00022888 C3.89426056 0.00797081 3.89426056 0.00797081 5.26855469 0.01586914 C6.19512878 0.01728409 7.12170288 0.01869904 8.07635498 0.02015686 C11.03107961 0.02574715 13.98572802 0.03829789 16.94042969 0.05102539 C18.94563693 0.05604165 20.95084535 0.06060433 22.95605469 0.06469727 C27.86754232 0.07571341 32.77897309 0.09297139 37.69042969 0.11352539 C37.69042969 6.05352539 37.69042969 11.99352539 37.69042969 18.11352539 C35.10070312 18.16250977 32.51097656 18.21149414 29.84277344 18.26196289 C27.31740856 18.31606869 24.79213371 18.37333834 22.2668457 18.4309082 C20.52016996 18.46904452 18.77341977 18.50392341 17.02661133 18.53540039 C14.50672922 18.58138626 11.98735279 18.63932287 9.46777344 18.69946289 C8.30797218 18.7167897 8.30797218 18.7167897 7.1247406 18.73446655 C1.26433024 18.89177321 -3.74767598 20.25956061 -9.30957031 22.11352539 C-14.09337389 32.42921706 -13.17225429 44.28456343 -10.35644531 54.96899414 C-9.04564137 57.6541858 -8.00621251 57.94921154 -5.30957031 59.11352539 C3.38154572 61.69762192 12.26223343 61.55973578 21.25292969 61.73852539 C22.84995451 61.77677748 24.4469603 61.81583321 26.04394531 61.85571289 C29.92599858 61.95241167 33.80788884 62.03259475 37.69042969 62.11352539 C37.69042969 67.72352539 37.69042969 73.33352539 37.69042969 79.11352539 C31.46491638 79.2378826 25.24013904 79.32822147 19.01367188 79.38818359 C16.8992858 79.41320114 14.7849851 79.44722631 12.67089844 79.49072266 C9.61729777 79.55193871 6.5648483 79.57986331 3.51074219 79.60180664 C2.11168137 79.64051628 2.11168137 79.64051628 0.68435669 79.68000793 C-7.54623945 79.68346095 -13.17305281 76.65184295 -20.05957031 72.42602539 C-29.85904791 62.35434009 -31.82051722 50.09156323 -31.72924805 36.60498047 C-31.42956268 26.35496993 -29.28162489 17.03248014 -22.50878906 9.05493164 C-16.36929043 3.63516109 -8.23370372 -0.02480031 0 0 Z " fill="#DA3136" transform="translate(57.3095703125,196.886474609375)"/>
<path d="M0 0 C1.10769241 -0.00570007 2.21538483 -0.01140015 3.35664368 -0.01727295 C5.69551658 -0.02667397 8.03440243 -0.03323731 10.37329102 -0.03710938 C13.87085597 -0.04672401 17.36780913 -0.07775762 20.86523438 -0.109375 C44.85515233 -0.22280978 77.17848143 0.02674769 97.109375 15.671875 C99.65432222 18.26510035 100.23080673 20.09848176 100.48828125 23.703125 C98.44677761 29.41933518 94.93345439 31.81311067 89.6328125 34.546875 C76.60398844 40.31401979 61.56460066 44.45557116 47.23828125 44.203125 C47.73328125 43.213125 47.73328125 43.213125 48.23828125 42.203125 C50.24438477 41.58056641 50.24438477 41.58056641 52.8671875 41.0546875 C54.29708008 40.75304688 54.29708008 40.75304688 55.75585938 40.4453125 C57.75802275 40.03948593 59.76061699 39.63577822 61.76367188 39.234375 C67.85999316 37.94406185 72.7553977 36.15496379 78.23828125 33.203125 C78.89828125 33.203125 79.55828125 33.203125 80.23828125 33.203125 C80.23828125 30.893125 80.23828125 28.583125 80.23828125 26.203125 C48.95925179 7.47316724 -1.05603462 10.85902896 -34.88671875 19.140625 C-42.70839831 21.32822849 -42.70839831 21.32822849 -49.76171875 25.203125 C-50.8965081 28.32446244 -50.8965081 28.32446244 -50.76171875 31.203125 C-42.82983614 39.13500761 -29.36185729 40.29162461 -18.76171875 42.203125 C-18.76171875 42.863125 -18.76171875 43.523125 -18.76171875 44.203125 C-34.48125733 43.8516719 -56.80314806 39.98894275 -68.54296875 28.73828125 C-70.57471131 26.17906707 -70.96416491 24.44226354 -70.76171875 21.203125 C-67.04258195 13.27974661 -59.97134156 10.47387338 -52.13671875 7.640625 C-35.44365238 2.12302279 -17.50617777 0.07184536 0 0 Z " fill="#397AB8" transform="translate(346.76171875,-0.203125)"/>
<path d="M0 0 C3.43554776 0.00314966 6.87022259 -0.02035034 10.30566406 -0.0456543 C34.19090954 -0.11449526 66.38299866 0.22241247 86.20800781 15.78442383 C88.75295503 18.37764918 89.32943955 20.21103059 89.58691406 23.81567383 C87.54541043 29.53188401 84.0320872 31.9256595 78.73144531 34.65942383 C65.70262125 40.42656862 50.66323347 44.56811999 36.33691406 44.31567383 C36.83191406 43.32567383 36.83191406 43.32567383 37.33691406 42.31567383 C39.3112793 41.70898438 39.3112793 41.70898438 41.89550781 41.20239258 C42.83974609 41.00581055 43.78398438 40.80922852 44.75683594 40.60668945 C46.73250214 40.21155621 48.70904219 39.8207615 50.68652344 39.43481445 C57.51818118 38.00214718 63.25050667 35.73056971 69.33691406 32.31567383 C69.33691406 30.33567383 69.33691406 28.35567383 69.33691406 26.31567383 C38.02175595 7.56408215 -11.83073196 11.06472015 -45.72558594 19.19067383 C-51.55639579 20.78257747 -56.6551988 22.92143921 -61.66308594 26.31567383 C-61.66308594 28.62567383 -61.66308594 30.93567383 -61.66308594 33.31567383 C-51.16630253 37.57880788 -40.78350592 40.31035219 -29.66308594 42.31567383 C-29.66308594 42.97567383 -29.66308594 43.63567383 -29.66308594 44.31567383 C-46.14935402 43.68036485 -67.36978297 40.12498849 -79.66308594 28.31567383 C-81.66308594 25.31567383 -81.66308594 25.31567383 -81.72558594 22.00317383 C-80.25380352 16.89522307 -78.16071881 15.02431215 -73.66308594 12.31567383 C-62.9044994 6.93638056 -51.49750891 4.15787256 -39.66308594 2.31567383 C-38.5182373 2.13689697 -37.37338867 1.95812012 -36.19384766 1.77392578 C-24.15774998 0.05758318 -12.14004231 -0.02318113 0 0 Z " fill="#397AB8" transform="translate(83.6630859375,-0.315673828125)"/>
<path d="M0 0 C4.95 0 9.9 0 15 0 C15.01458252 1.67022217 15.02916504 3.34044434 15.04418945 5.0612793 C15.10216183 11.25811166 15.17939573 17.45458027 15.26245117 23.65112305 C15.29735011 26.33306601 15.3249887 29.01493801 15.34643555 31.69702148 C15.37997146 35.55222433 15.43228927 39.40678475 15.48828125 43.26171875 C15.49467117 44.46084396 15.5010611 45.65996918 15.50764465 46.89543152 C15.53733589 48.5766082 15.53733589 48.5766082 15.56762695 50.29174805 C15.57873001 51.27547897 15.58983307 52.2592099 15.60127258 53.27275085 C16.07049311 56.48216466 17.11406421 58.3819769 19 61 C23.50107817 63.8163646 28.79709717 63.3312196 33.9375 63.3125 C34.81857422 63.32861328 35.69964844 63.34472656 36.60742188 63.36132812 C41.78195923 63.36520418 45.60719273 63.04540473 50 60 C52.0661279 56.8019335 52.26799221 54.16857632 52.31884766 50.40527344 C52.33871735 49.28441345 52.35858704 48.16355347 52.37905884 47.00872803 C52.39061005 45.80444153 52.40216125 44.60015503 52.4140625 43.359375 C52.43342865 42.12205627 52.4527948 40.88473755 52.4727478 39.60992432 C52.52237989 36.32861429 52.56366067 33.04733888 52.60089111 29.76586914 C52.64097656 26.41411724 52.69221225 23.06255655 52.7421875 19.7109375 C52.83824506 13.14072463 52.9222768 6.57045431 53 0 C57.95 0 62.9 0 68 0 C68.07458695 7.75551287 68.12880853 15.51081333 68.16479492 23.26660156 C68.17980939 25.90075319 68.20022713 28.53488012 68.22631836 31.16894531 C68.26302525 34.97206751 68.27980049 38.77485694 68.29296875 42.578125 C68.30845261 43.74112122 68.32393646 44.90411743 68.33988953 46.10235596 C68.34159151 54.51681208 68.04439245 64.46966373 62.8125 71.5 C56.96435057 76.69835505 51.37139438 78.61823465 43.625 78.53125 C42.47185303 78.53699036 42.47185303 78.53699036 41.29541016 78.54284668 C39.6819527 78.54554943 38.06845018 78.53830381 36.45507812 78.52148438 C34.00550321 78.50004816 31.55886026 78.52133907 29.109375 78.546875 C27.53124362 78.54423143 25.95311404 78.53910584 24.375 78.53125 C23.65393066 78.53934692 22.93286133 78.54744385 22.18994141 78.55578613 C15.89920905 78.44154854 10.82616243 76.34058626 5.9765625 72.32421875 C5.30753906 71.51404297 5.30753906 71.51404297 4.625 70.6875 C3.93277344 69.88892578 3.93277344 69.88892578 3.2265625 69.07421875 C-0.96280128 61.98965771 -0.25971366 54.15406019 -0.1953125 46.19140625 C-0.19157667 44.85619825 -0.18873239 43.52098749 -0.18673706 42.18577576 C-0.17914541 38.69231434 -0.15953606 35.19902245 -0.1373291 31.70562744 C-0.11677371 28.13255099 -0.10771473 24.55944682 -0.09765625 20.98632812 C-0.07628532 13.99080927 -0.04114028 6.99543026 0 0 Z " fill="#3A7BB8" transform="translate(198,198)"/>
<path d="M0 0 C5.7551128 5.7551128 8.66751506 12.84845025 11.42578125 20.38671875 C11.77706589 21.32441605 12.12835052 22.26211334 12.49028015 23.22822571 C13.6059404 26.21164979 14.70954089 29.19936018 15.8125 32.1875 C16.54019268 34.1415827 17.2687025 36.0953613 17.99804688 38.04882812 C19.08467164 40.96014118 20.17024829 43.87181073 21.25149536 46.78512573 C24.14807415 54.58724992 27.10514047 62.36538612 30.0974884 70.13127136 C30.4136058 70.95524918 30.72972321 71.77922699 31.05541992 72.62817383 C31.33528244 73.35434402 31.61514496 74.08051422 31.90348816 74.82868958 C32.5 76.5 32.5 76.5 32.5 77.5 C26.89 77.5 21.28 77.5 15.5 77.5 C11.54 66.94 7.58 56.38 3.5 45.5 C0.53 47.48 -2.44 49.46 -5.5 51.5 C-7.48 52.82 -9.46 54.14 -11.5 55.5 C-15.79 52.2 -20.08 48.9 -24.5 45.5 C-28.96873543 56.11324665 -33.23971732 66.80172191 -37.5 77.5 C-43.11 77.5 -48.72 77.5 -54.5 77.5 C-46.58013764 56.28006482 -38.52932376 35.0834513 -29.9375 14.125 C-29.65213379 13.40852295 -29.36676758 12.6920459 -29.07275391 11.95385742 C-26.84618016 6.62809819 -24.2479016 2.04096265 -19.08984375 -0.8515625 C-12.78331003 -2.43057396 -5.99473578 -2.56917248 0 0 Z M-12.5 13.5 C-15.60717291 19.5044017 -18.25900082 25.59214652 -20.75 31.875 C-21.11351562 32.77605469 -21.47703125 33.67710937 -21.8515625 34.60546875 C-22.19445312 35.46527344 -22.53734375 36.32507813 -22.890625 37.2109375 C-23.20032227 37.98743652 -23.51001953 38.76393555 -23.82910156 39.56396484 C-24.60914325 41.47346112 -24.60914325 41.47346112 -24.5 43.5 C-15.59 43.5 -6.68 43.5 2.5 43.5 C1.29951095 37.49755475 -0.66676945 31.99405318 -2.75 26.25 C-3.13285156 25.13625 -3.51570313 24.0225 -3.91015625 22.875 C-4.29558594 21.81796875 -4.68101562 20.7609375 -5.078125 19.671875 C-5.42262695 18.7034668 -5.76712891 17.73505859 -6.12207031 16.73730469 C-7.32441218 14.23588213 -7.32441218 14.23588213 -10.15136719 13.67675781 C-10.92641602 13.61842773 -11.70146484 13.56009766 -12.5 13.5 Z " fill="#3A7BB9" transform="translate(319.5,198.5)"/>
<path d="M0 0 C5.28 0 10.56 0 16 0 C16.47832275 1.2689209 16.95664551 2.5378418 17.44946289 3.84521484 C19.2582591 8.64293179 21.06829231 13.44018132 22.87866211 18.23730469 C23.65568189 20.29675163 24.43238506 22.35631806 25.20874023 24.41601562 C27.07994624 29.38009413 28.95633831 34.34204929 30.84423828 39.29980469 C32.2547299 43.00831301 33.63132309 46.72659504 34.97998047 50.45800781 C35.58948216 52.11003935 36.19901791 53.76205832 36.80859375 55.4140625 C37.07446793 56.17310883 37.3403421 56.93215515 37.61427307 57.71420288 C38.43552688 60.02411852 38.43552688 60.02411852 40 63 C42.07299514 64.08989359 42.07299514 64.08989359 44 64 C51.16344729 46.88938238 58.14187057 29.71762179 64.8972168 12.44165039 C65.16477783 11.75794373 65.43233887 11.07423706 65.70800781 10.36981201 C66.43437921 8.51238805 67.1590208 6.65428788 67.88354492 4.79614258 C69 2 69 2 70 0 C75.28 0 80.56 0 86 0 C85.25842071 4.44947573 84.57526453 7.49443005 82.94628906 11.53955078 C82.30992523 13.13248459 82.30992523 13.13248459 81.66070557 14.75759888 C80.97014069 16.45926712 80.97014069 16.45926712 80.265625 18.1953125 C79.79058533 19.3791452 79.31554565 20.56297791 78.82611084 21.78268433 C77.56322735 24.92639263 76.29508213 28.0678725 75.02441406 31.20843506 C74.00087145 33.74155783 72.98235964 36.27668718 71.96417618 38.81196785 C68.9913538 46.21416866 66.01133141 53.61336814 63 61 C62.54959351 62.11003891 62.09918701 63.22007782 61.63513184 64.36375427 C61.19576294 65.43553421 60.75639404 66.50731415 60.30371094 67.61157227 C59.9118158 68.5708815 59.51992065 69.53019073 59.1161499 70.51856995 C57.53920082 74.02445104 56.29233365 75.94676475 53 78 C49.3097113 78.71848343 45.75000944 78.74394648 42 78.6875 C41.01515625 78.71521484 40.0303125 78.74292969 39.015625 78.77148438 C38.06171875 78.76826172 37.1078125 78.76503906 36.125 78.76171875 C35.26132812 78.76131592 34.39765625 78.76091309 33.5078125 78.76049805 C29.80055269 77.63626574 28.0199126 75.14244665 26 72 C24.4453125 68.73730469 24.4453125 68.73730469 23.125 65.171875 C22.8784819 64.51730316 22.63196381 63.86273132 22.37797546 63.18832397 C21.57402329 61.0462409 20.78692269 58.89839082 20 56.75 C19.44104353 55.24939587 18.88088349 53.74923955 18.31958008 52.24951172 C17.4444394 49.91014069 16.57045731 47.57038819 15.7011261 45.22885132 C13.60212629 39.57900723 11.44700111 33.952922 9.26171875 28.3359375 C8.65682599 26.77639629 8.05200717 25.21682641 7.44726562 23.65722656 C6.57235992 21.40145576 5.69587171 19.14638071 4.8137207 16.89343262 C3.99852698 14.80889923 3.19174084 12.72129103 2.38671875 10.6328125 C1.69388794 8.85221436 1.69388794 8.85221436 0.98706055 7.03564453 C0 4 0 4 0 0 Z " fill="#397AB8" transform="translate(332,198)"/>
<path d="M0 0 C23.1 0 46.2 0 70 0 C70 5.94 70 11.88 70 18 C60.43 18 50.86 18 41 18 C41 38.13 41 58.26 41 79 C35.06 79 29.12 79 23 79 C23 58.87 23 38.74 23 18 C15.41 18 7.82 18 0 18 C0 12.06 0 6.12 0 0 Z " fill="#DE3237" transform="translate(98,197)"/>
<path d="M0 0 C3.79645836 1.51858334 7.0700645 3.06098028 10.60546875 5.046875 C11.67216797 5.645 12.73886719 6.243125 13.83789062 6.859375 C14.94326172 7.48328125 16.04863281 8.1071875 17.1875 8.75 C18.27353516 9.3584375 19.35957031 9.966875 20.47851562 10.59375 C23.66021898 12.38238324 26.83215897 14.18694316 30 16 C30.9998291 16.56783203 31.9996582 17.13566406 33.02978516 17.72070312 C34.40142822 18.51637695 34.40142822 18.51637695 35.80078125 19.328125 C36.61329346 19.79637695 37.42580566 20.26462891 38.26293945 20.74707031 C38.83616943 21.16053711 39.40939941 21.57400391 40 22 C40 22.66 40 23.32 40 24 C38.48329636 24.79955001 36.96138002 25.58921388 35.4375 26.375 C34.16712891 27.03628906 34.16712891 27.03628906 32.87109375 27.7109375 C27.098249 30.30282698 21.8767386 31.29278854 15.5625 31.3125 C13.70818359 31.33763672 13.70818359 31.33763672 11.81640625 31.36328125 C8 31 8 31 0 28 C0 18.76 0 9.52 0 0 Z " fill="#3F70B2" transform="translate(209,115)"/>
<path d="M0 0 C1 1 1 1 1.11352539 3.68383789 C1.10828857 4.85164795 1.10305176 6.01945801 1.09765625 7.22265625 C1.09443359 8.48271484 1.09121094 9.74277344 1.08789062 11.04101562 C1.07953403 12.38151109 1.07106907 13.72200588 1.0625 15.0625 C1.0574866 16.40689942 1.05292342 17.7513006 1.04882812 19.09570312 C1.03699488 22.39717941 1.02050971 25.69856803 1 29 C-2.69523502 28.3203976 -5.49529903 26.71352316 -8.7265625 24.83203125 C-9.84160156 24.18556641 -10.95664063 23.53910156 -12.10546875 22.87304688 C-13.27867868 22.18625402 -14.4518556 21.49940478 -15.625 20.8125 C-16.76324219 20.15185547 -17.90148437 19.49121094 -19.07421875 18.81054688 C-25.74950954 14.92876182 -32.3912624 10.99399254 -39 7 C-36.13401313 4.02053866 -33.94845192 2.27946182 -30.0625 0.8125 C-29.22847656 0.48894531 -28.39445313 0.16539063 -27.53515625 -0.16796875 C-18.60890089 -3.097541 -8.93581257 -2.84699145 0 0 Z " fill="#409FD5" transform="translate(239,63)"/>
<path d="M0 0 C0.70387862 12.25270197 -2.65818725 23.20094099 -10.75 32.5 C-11.82499002 33.67435884 -12.90539593 34.84390132 -14 36 C-19.665256 35.10331379 -23.85598718 32.48656672 -28.75 29.625 C-29.62527344 29.13 -30.50054687 28.635 -31.40234375 28.125 C-32.23378906 27.64289063 -33.06523437 27.16078125 -33.921875 26.6640625 C-34.68081055 26.22529785 -35.43974609 25.7865332 -36.22167969 25.33447266 C-38 24 -38 24 -39 21 C-38.26475098 20.57702637 -37.52950195 20.15405273 -36.77197266 19.71826172 C-33.99453344 18.11987054 -31.21757435 16.52064907 -28.44091797 14.92089844 C-27.24839573 14.2340518 -26.05569303 13.54751835 -24.86279297 12.86132812 C-23.12938559 11.86414507 -21.39672209 10.8656693 -19.6640625 9.8671875 C-18.53774414 9.2184668 -17.41142578 8.56974609 -16.25097656 7.90136719 C-12.4569258 5.68237745 -8.71914678 3.38009361 -5.00146484 1.03564453 C-3 0 -3 0 0 0 Z " fill="#3D98CC" transform="translate(267,100)"/>
<path d="M0 0 C5.07634826 1.7989503 9.63713611 4.49026455 14.3125 7.125 C15.14845703 7.59292969 15.98441406 8.06085938 16.84570312 8.54296875 C18.89866233 9.6926259 20.95002202 10.84503802 23 12 C23 13.32 23 14.64 23 16 C22.19369141 16.45850342 21.38738281 16.91700684 20.55664062 17.3894043 C17.5291808 19.11202198 14.50259414 20.83615493 11.4765625 22.5612793 C10.1735171 23.30373834 8.87013914 24.04561407 7.56640625 24.78686523 C5.67878066 25.86023515 3.79216913 26.93535359 1.90625 28.01171875 C1.29773193 28.35886932 0.68921387 28.7060199 0.06225586 29.06369019 C-3.26998134 30.97484969 -6.54714156 32.94704087 -9.78125 35.01953125 C-13 37 -13 37 -15 37 C-15.96466575 25.12925201 -12.50895058 14.23735353 -5 5 C-3.39708617 3.22130972 -1.7720473 1.61569018 0 0 Z " fill="#3D6DAD" transform="translate(197,71)"/>
<path d="M0 0 C-0.33 14.85 -0.66 29.7 -1 45 C-13.04428748 40.18228501 -19.10834134 31.61583608 -24.3359375 20.140625 C-25.67666924 15.81873682 -25.67666924 15.81873682 -25 13 C-22.50093799 10.88639743 -19.69012017 9.41380915 -16.8125 7.875 C-16.04357422 7.44574219 -15.27464844 7.01648438 -14.48242188 6.57421875 C-12.99131501 5.74227071 -11.49550031 4.91869256 -9.99462891 4.10449219 C-8.34341434 3.19015991 -6.73347805 2.20172832 -5.13671875 1.1953125 C-3 0 -3 0 0 0 Z " fill="#3F9DD2" transform="translate(208,97)"/>
<path d="M0 0 C10.77025595 4.30810238 18.02621456 13.42677938 22.875 23.75 C23.96460616 26.89775113 24.39263557 28.729759 24 32 C22.5234375 33.51953125 22.5234375 33.51953125 20.375 34.8125 C19.56804687 35.30621094 18.76109375 35.79992187 17.9296875 36.30859375 C16.96289062 36.86675781 15.99609375 37.42492187 15 38 C13.7734263 38.720033 12.54686446 39.44008621 11.3203125 40.16015625 C1.28167879 46 1.28167879 46 0 46 C0 30.82 0 15.64 0 0 Z " fill="#3E6FB1" transform="translate(242,65)"/>
<path d="M0 0 C9.24 0 18.48 0 28 0 C25.83691123 4.32617755 24.26104984 5.53880244 20.375 8.25 C19.37210937 8.95640625 18.36921875 9.6628125 17.3359375 10.390625 C16.56507813 10.92171875 15.79421875 11.4528125 15 12 C9.74218646 8.59994725 4.66602987 5.1874627 0 1 C0 0.67 0 0.34 0 0 Z " fill="#3877B3" transform="translate(294,242)"/>
<path d="M0 0 C1 1 1 1 1.11352539 3.68383789 C1.10828857 4.85164795 1.10305176 6.01945801 1.09765625 7.22265625 C1.09443359 8.48271484 1.09121094 9.74277344 1.08789062 11.04101562 C1.07953403 12.38151109 1.07106907 13.72200588 1.0625 15.0625 C1.0574866 16.40689942 1.05292342 17.7513006 1.04882812 19.09570312 C1.03699488 22.39717941 1.02050971 25.69856803 1 29 C-0.32 28.67 -1.64 28.34 -3 28 C-2.34 27.67 -1.68 27.34 -1 27 C-1 18.42 -1 9.84 -1 1 C-6.445 0.87625 -6.445 0.87625 -12 0.75 C-13.12792969 0.71358398 -14.25585938 0.67716797 -15.41796875 0.63964844 C-21.58135087 0.57227719 -27.07360343 0.93572283 -32 5 C-33.21682283 7.05552909 -33.21682283 7.05552909 -34 9 C-36.475 8.01 -36.475 8.01 -39 7 C-30.47662633 -3.84793012 -11.98469406 -3.81837927 0 0 Z " fill="#2F77A0" transform="translate(239,63)"/>
<path d="M0 0 C2.25 0.7578125 2.25 0.7578125 5 2.125 C13.32027116 5.86502337 22.07490301 7.32887828 31 9 C31 9.66 31 10.32 31 11 C18.05510299 10.71058157 5.17473345 7.26313956 -7 3 C-6.401875 2.87625 -5.80375 2.7525 -5.1875 2.625 C-2.73768652 2.04524015 -2.73768652 2.04524015 0 0 Z " fill="#2E6396" transform="translate(297,33)"/>
<path d="M0 0 C1.98 0.99 1.98 0.99 4 2 C3.34 2 2.68 2 2 2 C2 10.58 2 19.16 2 28 C12.395 28.99 12.395 28.99 23 30 C23 30.33 23 30.66 23 31 C20.66593337 31.08205703 18.33483606 31.1409805 16 31.1875 C14.700625 31.22230469 13.40125 31.25710937 12.0625 31.29296875 C8 31 8 31 0 28 C0 18.76 0 9.52 0 0 Z " fill="#1F3859" transform="translate(209,115)"/>
<path d="M0 0 C9.24 0 18.48 0 28 0 C25.75 4.5 25.75 4.5 22 6 C22 4.68 22 3.36 22 2 C20.80761719 2.0721875 19.61523438 2.144375 18.38671875 2.21875 C16.82031529 2.31254661 15.25390889 2.40629405 13.6875 2.5 C12.50897461 2.57154297 12.50897461 2.57154297 11.30664062 2.64453125 C10.1706543 2.71220703 10.1706543 2.71220703 9.01171875 2.78125 C8.31522217 2.82314453 7.61872559 2.86503906 6.90112305 2.90820312 C5.26903034 2.98700971 3.63399421 3 2 3 C1.34 2.01 0.68 1.02 0 0 Z " fill="#1E3F5F" transform="translate(294,242)"/>
<path d="M0 0 C-0.33 14.85 -0.66 29.7 -1 45 C-2.32 44.34 -3.64 43.68 -5 43 C-4.01 43 -3.02 43 -2 43 C-2 29.47 -2 15.94 -2 2 C-3.32 2.33 -4.64 2.66 -6 3 C-3.375 0 -3.375 0 0 0 Z " fill="#3485B1" transform="translate(208,97)"/>
<path d="M0 0 C0.66 0 1.32 0 2 0 C2 9.24 2 18.48 2 28 C0.68 27.67 -0.64 27.34 -2 27 C-1.34 26.67 -0.68 26.34 0 26 C0 17.42 0 8.84 0 0 Z " fill="#256284" transform="translate(238,64)"/>
<path d="M0 0 C1.58748047 0.29777344 1.58748047 0.29777344 3.20703125 0.6015625 C4.80611328 0.92253906 4.80611328 0.92253906 6.4375 1.25 C7.43136719 1.44335938 8.42523438 1.63671875 9.44921875 1.8359375 C11.78138834 2.2950522 14.11038018 2.76604145 16.4375 3.25 C16.4375 3.91 16.4375 4.57 16.4375 5.25 C7.83441968 4.80046968 -0.22182321 3.38898002 -8.5625 1.25 C-4.92534679 -1.17476881 -4.15413315 -0.8015798 0 0 Z " fill="#1C405F" transform="translate(37.5625,38.75)"/>
<path d="M0 0 C5.28 0 10.56 0 16 0 C15 6 15 6 13 8 C13.33 6.02 13.66 4.04 14 2 C7.565 2.495 7.565 2.495 1 3 C0.67 3.99 0.34 4.98 0 6 C-0.66 6 -1.32 6 -2 6 C-1.34 4.02 -0.68 2.04 0 0 Z " fill="#2B5C8B" transform="translate(402,198)"/>
<path d="M0 0 C0.33 0.99 0.66 1.98 1 3 C3.01508358 3.73323796 3.01508358 3.73323796 5 4 C-8.6332574 8.59225513 -8.6332574 8.59225513 -15 8 C-15 7.34 -15 6.68 -15 6 C-14.08476562 5.81824219 -13.16953125 5.63648437 -12.2265625 5.44921875 C-10.44378906 5.07216797 -10.44378906 5.07216797 -8.625 4.6875 C-7.44164062 4.44386719 -6.25828125 4.20023437 -5.0390625 3.94921875 C-1.72074996 3.26236391 -1.72074996 3.26236391 0 0 Z " fill="#1C3F63" transform="translate(365,111)"/>
<path d="M0 0 C0 0.33 0 0.66 0 1 C-2.70726366 1.5064814 -5.41557124 2.005351 -8.125 2.5 C-9.26582031 2.71462891 -9.26582031 2.71462891 -10.4296875 2.93359375 C-14.68042914 3.70312456 -18.65859197 4.16644376 -23 4 C-22.67 3.34 -22.34 2.68 -22 2 C-19.609896 1.32349924 -17.30614099 0.78341758 -14.875 0.3125 C-14.22273438 0.17005859 -13.57046875 0.02761719 -12.8984375 -0.11914062 C-8.22089525 -1.05186482 -4.60619635 -0.8913289 0 0 Z " fill="#173751" transform="translate(417,40)"/>
<path d="M0 0 C0 0.33 0 0.66 0 1 C-2.70726366 1.5064814 -5.41557124 2.005351 -8.125 2.5 C-9.26582031 2.71462891 -9.26582031 2.71462891 -10.4296875 2.93359375 C-14.68042914 3.70312456 -18.65859197 4.16644376 -23 4 C-22.67 3.34 -22.34 2.68 -22 2 C-19.609896 1.32349924 -17.30614099 0.78341758 -14.875 0.3125 C-14.22273437 0.17005859 -13.57046875 0.02761719 -12.8984375 -0.11914062 C-8.22089525 -1.05186482 -4.60619635 -0.8913289 0 0 Z " fill="#173750" transform="translate(143,40)"/>
<path d="M0 0 C0 0.33 0 0.66 0 1 C-3.63 1.33 -7.26 1.66 -11 2 C-11.33 5.96 -11.66 9.92 -12 14 C-14 12 -14 12 -14.1953125 9.1796875 C-14.17210938 8.08914062 -14.14890625 6.99859375 -14.125 5.875 C-14.10695313 4.77929688 -14.08890625 3.68359375 -14.0703125 2.5546875 C-14.04710938 1.71164063 -14.02390625 0.86859375 -14 0 C-8.97703996 -1.13016601 -5.02125926 -0.77916092 0 0 Z " fill="#2A5C8B" transform="translate(121,112)"/>
<path d="M0 0 C0.7425 0.185625 1.485 0.37125 2.25 0.5625 C2.8275 0.706875 3.405 0.85125 4 1 C-1.82254243 2.96818336 -6.83381819 4.40214229 -13 4 C-11.72807637 1.45615274 -10.80051531 1.30631844 -8.1875 0.3125 C-7.50042969 0.04050781 -6.81335938 -0.23148438 -6.10546875 -0.51171875 C-3.64454031 -1.08243499 -2.38191405 -0.77213324 0 0 Z " fill="#2E6495" transform="translate(426,36)"/>
<path d="M0 0 C0.7425 0.185625 1.485 0.37125 2.25 0.5625 C2.8275 0.706875 3.405 0.85125 4 1 C-1.82254243 2.96818336 -6.83381819 4.40214229 -13 4 C-11.72807637 1.45615274 -10.80051531 1.30631844 -8.1875 0.3125 C-7.50042969 0.04050781 -6.81335938 -0.23148438 -6.10546875 -0.51171875 C-3.64454031 -1.08243499 -2.38191405 -0.77213324 0 0 Z " fill="#2D6395" transform="translate(152,36)"/>
<path d="M0 0 C0.11138159 5.45769811 -0.08342019 10.61509359 -1 16 C-1.33 16 -1.66 16 -2 16 C-2 11.38 -2 6.76 -2 2 C-3.32 2.33 -4.64 2.66 -6 3 C-3.375 0 -3.375 0 0 0 Z " fill="#245B7B" transform="translate(208,97)"/>
<path d="M0 0 C2.25 0.25 2.25 0.25 4 1 C2.515 3.475 2.515 3.475 1 6 C-1.475 5.01 -1.475 5.01 -4 4 C-2.25 1.9375 -2.25 1.9375 0 0 Z " fill="#3380AD" transform="translate(204,66)"/>
<path d="M0 0 C3.63 0.66 7.26 1.32 11 2 C11 2.66 11 3.32 11 4 C7.04 3.67 3.08 3.34 -1 3 C-0.67 2.01 -0.34 1.02 0 0 Z " fill="#0C1F2D" transform="translate(317,40)"/>
<path d="M0 0 C1.98 0.66 3.96 1.32 6 2 C6 2.66 6 3.32 6 4 C1.17639811 4.19294408 -2.49646738 3.75747614 -7 2 C-3.98968256 1.06576355 -3.13349732 0.95550089 0 2 C0 1.34 0 0.68 0 0 Z " fill="#2E6495" transform="translate(26,35)"/>
<path d="M0 0 C0.99 0.66 1.98 1.32 3 2 C3 2.66 3 3.32 3 4 C-3.625 4.25 -3.625 4.25 -7 2 C-6.21625 2.04125 -5.4325 2.0825 -4.625 2.125 C-1.83883881 2.28728734 -1.83883881 2.28728734 0 0 Z " fill="#326CA2" transform="translate(297,33)"/>
<path d="M0 0 C0 0.66 0 1.32 0 2 C-3.3 1.67 -6.6 1.34 -10 1 C-6.1496895 -1.56687367 -4.41430237 -0.83288724 0 0 Z " fill="#275681" transform="translate(317,40)"/>
<path d="M0 0 C6.15234375 0.5859375 6.15234375 0.5859375 8 1 C8.33 1.66 8.66 2.32 9 3 C2.25 3.125 2.25 3.125 0 2 C0 1.34 0 0.68 0 0 Z " fill="#162E42" transform="translate(90,116)"/>
<path d="M0 0 C3.1875 0.875 3.1875 0.875 6 2 C6 2.66 6 3.32 6 4 C1.545 3.01 1.545 3.01 -3 2 C-2.01 1.34 -1.02 0.68 0 0 Z " fill="#275A85" transform="translate(84,114)"/>
</svg>
