<?xml version="1.0" encoding="utf-8"?>
<!-- Generator: Adobe Illustrator 21.0.0, SVG Export Plug-In . SVG Version: 6.00 Build 0)  -->
<svg version="1.1" id="Layer_1" xmlns="http://www.w3.org/2000/svg" xmlns:xlink="http://www.w3.org/1999/xlink" x="0px" y="0px"
	 viewBox="0 0 72 72" style="enable-background:new 0 0 72 72;" xml:space="preserve">
<style type="text/css">
	.st0{fill:#FFFFFF;}
</style>
<g>
	<path class="st0" d="M52.2,7.941L68.4,36L52.2,64.059H19.8L3.6,36L19.8,7.941H52.2 M52.2,4.941H19.8
		c-1.072,0-2.062,0.572-2.598,1.5L1.002,34.5c-0.536,0.928-0.536,2.072,0,3l16.2,28.059c0.536,0.928,1.526,1.5,2.598,1.5h32.4
		c1.072,0,2.062-0.572,2.598-1.5l16.2-28.059c0.536-0.928,0.536-2.072,0-3l-16.2-28.059C54.262,5.513,53.272,4.941,52.2,4.941
		L52.2,4.941z"/>
</g>
<g>
	<rect x="16.422" y="17.754" class="st0" width="6.261" height="36.492"/>
	<rect x="49.317" y="17.754" class="st0" width="6.261" height="36.492"/>
	
		<rect x="33.017" y="17.754" transform="matrix(4.474471e-11 -1 1 4.474471e-11 0.1472 72.1472)" class="st0" width="6.261" height="36.492"/>
</g>
</svg>
