<?xml version="1.0" encoding="utf-8"?>
<!-- Generator: Adobe Illustrator 21.0.0, SVG Export Plug-In . SVG Version: 6.00 Build 0)  -->
<svg version="1.1" id="Layer_1" xmlns="http://www.w3.org/2000/svg" xmlns:xlink="http://www.w3.org/1999/xlink" x="0px" y="0px"
	 viewBox="0 0 72 72" style="enable-background:new 0 0 72 72;" xml:space="preserve">
<style type="text/css">
	.st0{fill:#FFFFFF;}
</style>
<g>
	<path class="st0" d="M60.742,39.708l11.086,22.774c0.451,0.926-0.023,1.684-1.053,1.684H1.223c-1.03,0-1.504-0.758-1.053-1.684
		l11.086-22.774c0.176-0.362,0.65-0.659,1.053-0.659h9.506c0.293,0,0.689,0.183,0.88,0.405c0.645,0.745,1.302,1.473,1.957,2.194
		c0.622,0.684,1.248,1.377,1.868,2.086H15.239c-0.403,0-0.877,0.296-1.053,0.659L6.842,59.481h58.314l-7.344-15.087
		c-0.176-0.362-0.65-0.659-1.053-0.659H45.452c0.62-0.709,1.246-1.402,1.868-2.086c0.657-0.723,1.318-1.45,1.964-2.195
		c0.192-0.221,0.586-0.404,0.879-0.404h9.526C60.092,39.05,60.566,39.346,60.742,39.708z M52.298,24.144
		c0,12.444-10.36,14.778-15.232,26.737c-0.396,0.972-1.764,0.967-2.16-0.005C30.511,40.094,21.655,37.138,19.96,27.532
		c-1.668-9.456,4.879-18.719,14.439-19.623C44.121,6.99,52.298,14.612,52.298,24.144z M44.601,24.144
		c0-4.757-3.856-8.614-8.614-8.614s-8.614,3.856-8.614,8.614c0,4.757,3.856,8.614,8.614,8.614S44.601,28.902,44.601,24.144z"/>
</g>
</svg>
