<?xml version="1.0" encoding="utf-8"?>
<!-- Generator: Adobe Illustrator 23.0.4, SVG Export Plug-In . SVG Version: 6.00 Build 0)  -->
<svg version="1.1"
	 id="Layer_1" xmlns:cc="http://creativecommons.org/ns#" xmlns:dc="http://purl.org/dc/elements/1.1/" xmlns:inkscape="http://www.inkscape.org/namespaces/inkscape" xmlns:rdf="http://www.w3.org/1999/02/22-rdf-syntax-ns#" xmlns:sodipodi="http://sodipodi.sourceforge.net/DTD/sodipodi-0.dtd" xmlns:svg="http://www.w3.org/2000/svg"
	 xmlns="http://www.w3.org/2000/svg" xmlns:xlink="http://www.w3.org/1999/xlink" x="0px" y="0px" viewBox="0 0 288 288"
	 style="enable-background:new 0 0 288 288;" xml:space="preserve">
<g transform="translate(0,-952.36218)">
	<path d="M102.3,978.9c-3.2,0.1-5.5,2.1-6.7,4.1l-13.1,26.2H30.3c-16.7,0-30.3,13.7-30.3,30.3v144c0,16.7,13.7,30.3,30.3,30.3h227.4
		c16.7,0,30.3-13.7,30.3-30.3v-144c0-16.7-13.7-30.3-30.3-30.3h-52.1L192.4,983c-1.3-2.5-4-4.1-6.7-4.1H102.3z M106.9,994h74.1
		l13,26.1c1.2,2.5,3.9,4.2,6.7,4.3h56.8c8.5,0,15.2,6.6,15.2,15.2v144c0,8.5-6.6,15.2-15.2,15.2H30.3c-8.5,0-15.2-6.6-15.2-15.2
		v-144c0-8.5,6.6-15.2,15.2-15.2h56.8c2.8,0,5.5-1.7,6.7-4.3L106.9,994z M144,1047.1c-35.5,0-64.4,28.9-64.4,64.4
		c0,35.5,28.9,64.4,64.4,64.4c35.5,0,64.4-28.9,64.4-64.4C208.4,1076,179.5,1047.1,144,1047.1z M144,1062.3
		c27.3,0,49.3,22,49.3,49.3c0,27.3-22,49.3-49.3,49.3c-27.3,0-49.3-22-49.3-49.3C94.7,1084.2,116.7,1062.3,144,1062.3z"/>
</g>
</svg>
