<?xml version="1.0" encoding="utf-8"?>
<!-- Generator: Adobe Illustrator 23.0.3, SVG Export Plug-In . SVG Version: 6.00 Build 0)  -->
<svg version="1.1" id="Layer_1" xmlns="http://www.w3.org/2000/svg" xmlns:xlink="http://www.w3.org/1999/xlink" x="0px" y="0px"
	 viewBox="0 0 72 72" style="enable-background:new 0 0 72 72;" xml:space="preserve">
<style type="text/css">
	.st0{fill:#FFFFFF;}
</style>
<path class="st0" d="M36,5.3c4.2,0,8.2,0.8,12,2.4c3.7,1.5,6.9,3.8,9.8,6.6c2.8,2.8,5,6.1,6.6,9.8c1.6,3.8,2.4,7.8,2.4,12
	c0,4.1-0.8,8.2-2.4,12c-1.5,3.7-3.8,6.9-6.6,9.8c-2.8,2.8-6.1,5-9.8,6.6c-3.8,1.6-7.8,2.4-12,2.4c-4.2,0-8.2-0.8-12-2.4
	c-3.7-1.5-6.9-3.8-9.8-6.6c-2.8-2.8-5-6.1-6.6-9.8c-1.6-3.8-2.4-7.8-2.4-12c0-4.1,0.8-8.2,2.4-12c1.5-3.7,3.8-6.9,6.6-9.8
	c2.8-2.8,6.1-5,9.8-6.6C27.8,6.1,31.9,5.3,36,5.3z M36,0C16.1,0,0,16.1,0,36s16.1,36,36,36s36-16.1,36-36S55.9,0,36,0z"/>
<path class="st0" d="M45.2,47.9c-0.7,0-1.4-0.3-1.9-0.8l-10-10V13.5c0-1.5,1.2-2.6,2.6-2.6c1.5,0,2.6,1.2,2.6,2.6v21.3l8.4,8.4
	c1,1,1,2.7,0,3.7C46.6,47.6,45.9,47.9,45.2,47.9L45.2,47.9z"/>
</svg>
