<svg xmlns="http://www.w3.org/2000/svg" xml:space="preserve" viewBox="0 0 1000 1000">
    <path d="M141.19 279.27c-2.68 2.87-3.26 9.2-3.64 36.59l-.57 33.33-8.43 2.49c-20.31 5.94-26.44 20.5-21.07 49.61 9 48.85 45.4 67.24 68.77 35.05 8.24-11.3 15.32-35.05 15.32-51.53V371.6h154.59l4.79 10.92 4.79 10.92-11.3 8.24c-29.5 21.65-52.1 54.21-63.02 90.61-4.21 13.79-4.41 17.43-5.17 102.1-.58 92.71-.58 93.29 8.04 93.29 7.85 0 8.81-3.26 8.81-29.12v-24.52h19.16v-44.06h-19.73l1.15-37.93c1.15-41.95 3.26-53.64 13.79-76.43 10.91-23.75 28.53-45.59 49.03-60.72l7.09-5.17 3.45 7.28c2.11 4.02 5.75 8.24 8.43 9.58 6.9 3.45 242.13 3.45 249.02 0 2.68-1.34 6.32-5.56 8.43-9.58l3.45-7.28 7.09 5.17c20.3 15.13 38.12 36.97 48.85 60.53 10.92 23.75 12.83 34.86 13.98 76.62l1.15 37.93H687.7v44.06h19.16v24.52c0 25.86.96 29.12 8.81 29.12 8.62 0 8.62-.57 8.05-93.29-.76-84.67-.96-88.31-5.17-102.1-11.11-36.78-33.52-68.77-63.6-90.99l-10.92-8.04 4.79-10.92 4.98-10.73H808l.77 16.67c2.3 41.57 24.33 69.92 49.42 63.21 8.43-2.3 14.94-7.28 21.45-16.86 11.68-17.43 18.58-54.21 12.45-66.28-4.41-8.62-13.98-15.71-22.6-17.05l-7.47-1.34v-33.91c0-30.46-.38-34.29-3.45-36.97-4.21-3.83-9.96-4.21-14.75-.77-3.06 2.49-3.45 5.75-3.26 36.4l.19 33.91-109.38-.38-109.57-.57-1.72-6.7c-3.07-11.69-2.11-11.49-46.17-11.49h-40.42l-4.6-6.71c-5.56-8.24-18.01-14.37-28.92-14.37-10.92 0-24.14 6.51-29.31 14.56l-4.21 6.51h-40.42c-44.06 0-43.1-.19-46.17 11.49l-1.72 6.7-109.57.57-109.57.38v-34.48c0-31.99-.19-34.48-3.64-36.4-5.55-2.86-10.73-2.29-14.17 1.54"/>
    <path d="M29.7 300.73c-18.2 3.83-23.37 8.62-17.24 15.32 10.15 11.11 45.78 16.86 83.71 13.6 13.98-1.34 26.24-3.07 27.01-3.83.96-.96 1.34-5.36.96-9.96-.57-8.04-.77-8.43-7.28-9-3.64-.38-13.6-1.92-22.03-3.45-18.96-3.45-54.79-4.98-65.13-2.68M192.52 300.73c-8.24.96-16.28 2.3-17.62 2.68-2.68 1.15-3.64 18.39-.96 18.39.77 0 11.69 1.72 24.33 3.64 32.95 5.36 50 6.51 64.56 4.21 31.99-4.6 32.56-16.67 1.53-26.05-12.65-3.83-50-5.36-71.84-2.87M743.25 301.69c-18.01 4.02-29.69 10.54-29.69 16.28 0 5.94 6.51 9.19 23.56 11.69 14.56 2.3 31.61 1.15 64.55-4.21 12.64-1.92 23.75-3.64 24.52-3.64s1.34-4.02.96-9c-.57-9-.76-9.19-8.24-10.54-17.62-3.07-63.02-3.46-75.66-.58M928.1 299.96c-3.06.38-13.41 2.11-22.99 3.64-9.39 1.53-19.73 3.06-22.99 3.26-5.56.57-5.75.96-6.32 10.54-.38 7.47.19 10.15 1.92 10.15 1.34 0 13.41.96 26.82 2.11 27.58 2.49 52.1.38 69.34-5.94 28.35-10.73 18.01-22.6-20.88-23.94-10.53-.39-21.64-.2-24.9.18M458.4 484.62c-3.45 1.92-7.47 6.13-9 9.19l-2.87 5.56-38.69.19c-21.45.19-41.76 1.34-45.02 2.3-8.24 2.68-19.16 15.13-21.65 24.33-2.87 10.34-2.87 162.63 0 171.25 3.45 10.15 11.11 18.96 19.73 22.99 7.47 3.45 14.94 3.64 139.07 3.64s131.6-.19 139.07-3.64c9.39-4.21 16.86-13.41 19.73-24.14 2.87-10.15 2.87-159.95 0-170.1-2.49-9-12.07-20.31-20.5-23.75-4.6-1.92-16.09-2.68-42.14-2.68-19.73 0-37.74-.38-39.84-.96-2.3-.58-4.98-3.07-6.32-5.75-1.15-2.49-4.79-6.32-8.24-8.43-5.75-3.45-9.77-3.83-41.76-3.83-31.8 0-36.01.38-41.57 3.83m166.27 49.62c6.51 6.7 7.09 13.03 1.53 20.11-8.05 10.15-26.63 4.02-26.63-8.81.01-15.52 14.38-21.84 25.1-11.3m-91.75 4.78c32.75 15.71 51.91 51.53 45.78 85.24-7.28 39.65-39.46 67.24-78.73 67.24-39.08 0-72.41-28.35-79.11-67.62-6.13-36.59 16.47-74.33 52.87-87.73 15.32-5.75 44.44-4.4 59.19 2.87"/>
    <path d="M483.12 564.88c-12.64 4.41-23.75 14.75-29.31 27.78-7.66 18.01-2.49 42.53 12.07 56.13 17.05 15.9 46.16 16.47 66.09 1.34 16.09-12.26 22.41-38.31 13.98-57.85-5.55-12.83-18.39-24.33-31.22-28.16-12.46-3.64-19.16-3.64-31.61.76"/>
</svg>
