<?xml version="1.0" encoding="utf-8"?>
<!-- Svg Vector Icons : http://www.onlinewebfonts.com/icon -->
<!DOCTYPE svg PUBLIC "-//W3C//DTD SVG 1.1//EN" "http://www.w3.org/Graphics/SVG/1.1/DTD/svg11.dtd">
<svg version="1.1" xmlns="http://www.w3.org/2000/svg" xmlns:xlink="http://www.w3.org/1999/xlink" x="0px" y="0px" viewBox="0 0 1000 1000" enable-background="new 0 0 1000 1000" xml:space="preserve">
<metadata> Svg Vector Icons : http://www.onlinewebfonts.com/icon </metadata>
<g><g transform="translate(0.000000,511.000000) scale(0.100000,-0.100000)"><path d="M1411.9,2317.3c-26.8-28.7-32.6-92-36.4-365.9l-5.7-333.3l-84.3-24.9c-203.1-59.4-264.4-205-210.7-496.1c90-488.5,454-672.4,687.7-350.5c82.4,113,153.2,350.5,153.2,515.3V1394h773.9h772l47.9-109.2l47.9-109.2l-113-82.4c-295-216.5-521-542.1-630.2-906.1c-42.1-137.9-44.1-174.3-51.7-1021c-5.8-927.1-5.8-932.9,80.4-932.9c78.5,0,88.1,32.6,88.1,291.2v245.2h95.8h95.8v220.3v220.3h-97.7h-99.6l11.5,379.3c11.5,419.5,32.6,536.4,137.9,764.3C3183.8,591.3,3360,809.7,3565,961l70.9,51.7l34.5-72.8c21.1-40.2,57.5-82.4,84.3-95.8c69-34.5,2421.3-34.5,2490.2,0c26.8,13.4,63.2,55.6,84.3,95.8l34.5,72.8l70.9-51.7c203-151.3,381.2-369.7,488.5-605.3c109.2-237.5,128.3-348.6,139.8-766.2l11.5-379.3h-99.6H6877v-220.3v-220.3h95.8h95.8v-245.2c0-258.6,9.6-291.2,88.1-291.2c86.2,0,86.2,5.7,80.5,932.9c-7.6,846.7-9.6,883.1-51.7,1021c-111.1,367.8-335.2,687.7-636,909.9l-109.2,80.4l47.9,109.2l49.8,107.3H7308h772l7.7-166.7c23-415.7,243.3-699.2,494.2-632.1c84.3,23,149.4,72.8,214.5,168.6c116.8,174.3,185.8,542.1,124.5,662.8c-44.1,86.2-139.8,157.1-226,170.5l-74.7,13.4v339.1c0,304.6-3.8,342.9-34.5,369.7c-42.1,38.3-99.6,42.1-147.5,7.7c-30.6-24.9-34.5-57.5-32.6-364l1.9-339.1l-1093.8,3.8l-1095.7,5.7l-17.2,67c-30.7,116.9-21.1,114.9-461.7,114.9h-404.2l-46,67.1c-55.6,82.4-180.1,143.7-289.2,143.7c-109.2,0-241.4-65.1-293.1-145.6l-42.1-65.1h-404.2c-440.6,0-431,1.9-461.7-114.9l-17.2-67l-1095.7-5.7l-1095.7-3.8v344.8c0,319.9-1.9,344.8-36.4,364C1498.1,2361.3,1446.3,2355.6,1411.9,2317.3z"/><path d="M297,2102.7c-182-38.3-233.7-86.2-172.4-153.2c101.5-111.1,457.8-168.6,837.1-136c139.8,13.4,262.4,30.7,270.1,38.3c9.6,9.6,13.4,53.6,9.6,99.6c-5.7,80.4-7.7,84.3-72.8,90c-36.4,3.8-136,19.2-220.3,34.5C758.7,2110.4,400.4,2125.7,297,2102.7z"/><path d="M1925.2,2102.7c-82.4-9.6-162.8-23-176.2-26.8c-26.8-11.5-36.4-183.9-9.6-183.9c7.7,0,116.9-17.2,243.3-36.4c329.5-53.6,500-65.1,645.6-42.1c319.9,46,325.6,166.7,15.3,260.5C2517.1,2112.3,2143.6,2127.6,1925.2,2102.7z"/><path d="M7432.5,2093.1c-180.1-40.2-296.9-105.4-296.9-162.8c0-59.4,65.1-91.9,235.6-116.9c145.6-23,316.1-11.5,645.5,42.1c126.4,19.2,237.5,36.4,245.2,36.4c7.7,0,13.4,40.2,9.6,90c-5.7,90-7.6,91.9-82.4,105.4C8012.9,2118,7558.9,2121.9,7432.5,2093.1z"/><path d="M9281,2110.4c-30.6-3.8-134.1-21.1-229.9-36.4c-93.9-15.3-197.3-30.6-229.9-32.6c-55.6-5.7-57.5-9.6-63.2-105.4c-3.8-74.7,1.9-101.5,19.2-101.5c13.4,0,134.1-9.6,268.2-21.1c275.8-24.9,521-3.8,693.4,59.4c283.5,107.3,180.1,226-208.8,239.4C9424.7,2116.1,9313.6,2114.2,9281,2110.4z"/><path d="M4584,263.8c-34.5-19.2-74.7-61.3-90-91.9l-28.7-55.6l-386.9-1.9c-214.5-1.9-417.6-13.4-450.2-23c-82.4-26.8-191.6-151.3-216.5-243.3c-28.7-103.4-28.7-1626.3,0-1712.5c34.5-101.5,111.1-189.6,197.3-229.9c74.7-34.5,149.4-36.4,1390.7-36.4c1241.3,0,1316,1.9,1390.7,36.4c93.9,42.1,168.6,134.1,197.3,241.4c28.7,101.5,28.7,1599.5,0,1701c-24.9,90-120.7,203.1-205,237.5c-46,19.2-160.9,26.8-421.4,26.8c-197.3,0-377.4,3.8-398.4,9.6c-23,5.8-49.8,30.7-63.2,57.5c-11.5,24.9-47.9,63.2-82.4,84.3c-57.5,34.5-97.7,38.3-417.6,38.3C4681.7,302.1,4639.6,298.3,4584,263.8z M6246.7-232.4c65.1-67,70.9-130.3,15.3-201.1c-80.5-101.5-266.3-40.2-266.3,88.1C5995.8-190.2,6139.5-127,6246.7-232.4z M5329.2-280.2c327.5-157.1,519.1-515.3,457.8-852.4c-72.8-396.5-394.6-672.4-787.3-672.4c-390.8,0-724.1,283.5-791.1,676.2c-61.3,365.9,164.7,743.3,528.7,877.3C4890.5-194,5181.7-207.5,5329.2-280.2z"/><path d="M4831.2-538.8c-126.4-44.1-237.5-147.5-293.1-277.8c-76.6-180.1-24.9-425.3,120.7-561.3c170.5-159,461.6-164.7,660.9-13.4c160.9,122.6,224.1,383.1,139.8,578.5c-55.5,128.3-183.9,243.3-312.2,281.6C5022.7-494.8,4955.7-494.8,4831.2-538.8z"/></g></g>
</svg>