<?xml version="1.0" encoding="utf-8"?>
<!-- Generator: Adobe Illustrator 23.0.4, SVG Export Plug-In . SVG Version: 6.00 Build 0)  -->
<svg version="1.1" id="Layer_1" xmlns="http://www.w3.org/2000/svg" xmlns:xlink="http://www.w3.org/1999/xlink" x="0px" y="0px"
	 viewBox="0 0 72 72" style="enable-background:new 0 0 72 72;" xml:space="preserve">
<style type="text/css">
	.st0{fill-rule:evenodd;clip-rule:evenodd;fill:#FFFFFF;}
</style>
<title>670134</title>
<desc>Created with Sketch.</desc>
<path class="st0" d="M19.589,25.301L19.589,25.301c1.113-0.307,2.259,0.344,2.57,1.453c0.307,1.109-0.345,2.258-1.453,2.565
	c-7.701,2.139-13.367,9.206-13.359,17.587c0,3.427,0.996,6.588,2.637,9.322l0.775-4.4c0.198-1.135,1.281-1.895,2.416-1.693
	c1.135,0.198,1.895,1.281,1.693,2.416L13.26,61.67l-0.378,0.595c-0.09,0.157-0.067,0.352-0.202,0.487
	c-0.041,0.041-0.101,0.022-0.146,0.06l-0.131,0.206l-0.79,0.176c-0.191,0.037-0.341,0.127-0.532,0.116l-0.236,0.052l-9.119-1.607
	c-1.135-0.198-1.895-1.281-1.693-2.416c0.198-1.135,1.281-1.895,2.416-1.693l3.959,0.697c-2.007-3.36-3.232-7.247-3.232-11.438
	C3.178,36.604,10.118,27.927,19.589,25.301z M69.549,57.648L69.549,57.648c1.135-0.202,2.218,0.554,2.42,1.689
	c0.199,1.135-0.558,2.213-1.693,2.416l-9.119,1.607l-0.236-0.052c-0.191,0.015-0.345-0.075-0.532-0.116l-0.79-0.176l-0.131-0.206
	c-0.041-0.037-0.105-0.019-0.146-0.06c-0.135-0.135-0.112-0.33-0.202-0.487l-0.378-0.595l-1.607-9.119
	c-0.199-1.135,0.558-2.213,1.693-2.416c1.135-0.199,2.213,0.558,2.416,1.693l0.775,4.404c1.64-2.734,2.64-5.895,2.64-9.322
	c0.003-8.385-5.663-15.453-13.363-17.587c-1.112-0.307-1.76-1.457-1.453-2.565c0.307-1.112,1.457-1.76,2.565-1.453
	c9.471,2.625,16.411,11.303,16.415,21.605c0,4.191-1.225,8.079-3.232,11.438L69.549,57.648z M41.772,20.352l-4.565-4.566
	l0.004,28.939l4.565-4.565c0.813-0.813,2.135-0.813,2.947,0c0.813,0.813,0.813,2.131,0,2.947L36.6,51.23
	c-0.378,0.378-0.899,0.61-1.476,0.61c-0.577,0-1.097-0.232-1.476-0.61l-8.157-8.157c-0.813-0.813-0.813-2.135,0-2.947
	c0.813-0.813,2.131-0.813,2.947,0l4.599,4.599V15.719l-4.599,4.599c-0.813,0.813-2.135,0.813-2.947,0
	c-0.813-0.813-0.813-2.135,0-2.947l8.123-8.123c0.412-0.412,0.951-0.607,1.491-0.603c0.004,0,0.007-0.007,0.015-0.007
	c0.599,0,1.12,0.262,1.498,0.667l8.101,8.101c0.813,0.813,0.813,2.135,0,2.947C43.907,21.164,42.585,21.164,41.772,20.352z"/>
</svg>
