<?xml version="1.0" encoding="utf-8"?>
<!-- Generator: Adobe Illustrator 23.1.1, SVG Export Plug-In . SVG Version: 6.00 Build 0)  -->
<svg version="1.1" id="Layer_1" xmlns="http://www.w3.org/2000/svg" xmlns:xlink="http://www.w3.org/1999/xlink" x="0px" y="0px"
	 viewBox="0 0 288 288" style="enable-background:new 0 0 288 288;" xml:space="preserve">
<g>
	<g>
		<g>
			<path d="M232.6,288H55.4c-6.1,0-11.1-5-11.1-11.1V121.8c0-6.1,5-11.1,11.1-11.1h177.2c6.1,0,11.1,5,11.1,11.1v155.1
				C243.7,283,238.7,288,232.6,288z M66.5,265.8h155.1V132.9H66.5V265.8z"/>
		</g>
		<g>
			<path d="M210.5,132.9H77.5c-6.1,0-11.1-5-11.1-11.1V77.5C66.5,34.8,101.2,0,144,0s77.5,34.8,77.5,77.5c0,6.1-5,11.1-11.1,11.1
				c-6.1,0-11.1-5-11.1-11.1c0-30.5-24.8-55.4-55.4-55.4c-30.5,0-55.4,24.8-55.4,55.4v33.2h121.8c6.1,0,11.1,5,11.1,11.1
				C221.5,128,216.6,132.9,210.5,132.9z"/>
		</g>
		<g>
			<path d="M144,232.6c-6.1,0-11.1-5-11.1-11.1v-44.3c0-6.1,5-11.1,11.1-11.1s11.1,5,11.1,11.1v44.3
				C155.1,227.7,150.1,232.6,144,232.6z"/>
		</g>
	</g>
</g>
</svg>
