<?xml version="1.0" encoding="utf-8"?>
<!-- Generator: Adobe Illustrator 23.0.6, SVG Export Plug-In . SVG Version: 6.00 Build 0)  -->
<svg version="1.1" id="Layer_1" xmlns="http://www.w3.org/2000/svg" xmlns:xlink="http://www.w3.org/1999/xlink" x="0px" y="0px"
	 viewBox="0 0 288 288" style="enable-background:new 0 0 288 288;" xml:space="preserve">
<style type="text/css">
	.st0{fill:#FFFFFF;}
	.st1{fill-rule:evenodd;clip-rule:evenodd;fill:#FFFFFF;}
</style>
<path class="st0" d="M95.992,203.994h-71.99c-13.259,0-24.001,10.743-24.001,24.001v47.988c0,6.594,5.399,11.993,11.993,11.993
	h11.993l6.636-13.258c2.953-5.906,10.771-10.729,17.365-10.729h24.016c6.594,0,14.411,4.823,17.364,10.729l6.636,13.258H108
	c6.594,0,11.993-5.399,11.993-11.993v-47.988C119.993,214.751,109.25,203.994,95.992,203.994L95.992,203.994z M30.006,245.993
	c-6.623,0-11.993-5.37-11.993-12.007c0-6.623,5.37-11.993,11.993-11.993c6.622,0,11.994,5.37,11.994,11.993
	C41.999,240.623,36.642,245.993,30.006,245.993z M90.002,245.993c-6.623,0-11.993-5.37-11.993-12.007
	c0-6.623,5.37-11.993,11.993-11.993c6.622,0,11.993,5.37,11.993,11.993C101.996,240.623,96.624,245.993,90.002,245.993z"/>
<path class="st1" d="M287.974,0.034v24.001l-0.002-0.014h-29.991v24.001h5.99c13.274,0,24.001,10.743,24.001,24.001L288,96.025
	c0,13.259-10.742,24.001-24.001,24.001h-19.586c12.443,25.38,19.586,53.81,19.586,83.983c0,19.868-16.128,35.995-35.995,35.995
	h-35.995v-23.987h35.995c6.622,0,12.008-5.385,12.008-12.008c-0.029-30.426-8.296-58.884-22.526-83.49
	c-5.722,1.013-11.853,3.712-15.114,6.96c-4.093,4.106-7.452,7.467-7.452,7.467c-5.849,5.864-12.767,10.658-20.36,14.214
	c3.403,5.499,5.456,11.924,5.456,18.87c0,19.881-16.128,35.995-35.995,35.995c-19.896,0-36.009-16.114-36.009-35.995
	c0-6.946,2.053-13.372,5.456-18.87c-7.594-3.571-14.511-8.352-20.374-14.229c0,0-3.361-3.346-7.452-7.452
	c-3.234-3.234-9.323-5.933-15.003-6.96c-10.376,18.037-17.59,38.09-20.697,59.503H25.644c2.672-21.316,9.013-41.451,18.081-59.996
	H24.014c-13.274,0-24.001-10.742-24.001-24.001V72.024C0.012,58.779,10.74,48.037,24,48.037h6.004V24.036H0.012V0.034L83.996,0.02
	v24.001H54.005v24.001l0.182,0.014h11.994c6.594,0,15.34-3.346,19.446-7.452l7.452-7.452c13.037-13.034,31.032-21.091,50.915-21.091
	s37.88,8.057,50.9,21.077c0,0,3.346,3.36,7.452,7.465c4.091,4.106,12.866,7.452,19.446,7.452h12.19V24.036h-29.991V0.034H287.974z
	 M132.001,168.015c0,6.623,5.357,11.993,11.993,11.993c6.622,0,12.008-5.37,11.993-11.993c0-6.636-5.372-12.008-11.993-12.008
	S132.001,161.379,132.001,168.015z M195.332,70.369l-26.937-19.418c-2.131-1.46-4.936,0.338-4.49,2.806l2.245,13.022h-28.953
	c-1.569,0-2.92,1.346-2.92,2.919v5.836c0,1.569,1.346,2.92,2.92,2.92h28.844l-2.245,13.021c-0.448,2.583,2.468,4.376,4.49,2.806
	l27.05-19.418c1.68-1.013,1.68-3.372-0.004-4.493V70.369z M149.315,90.91h-28.953l2.245-13.022c0.446-2.582-2.468-4.376-4.49-2.806
	L91.18,94.391c-1.571,1.122-1.571,3.59,0,4.713l27.05,19.418c2.131,1.46,4.937-0.338,4.49-2.806l-2.245-13.022h28.844
	c1.569,0,2.92-1.346,2.92-2.919v-5.836c-0.119-1.683-1.351-3.03-2.925-3.03V90.91z"/>
</svg>
