<?xml version="1.0" encoding="utf-8"?>
<!-- Generator: Adobe Illustrator 23.0.6, SVG Export Plug-In . SVG Version: 6.00 Build 0)  -->
<svg version="1.1" id="Layer_1" xmlns="http://www.w3.org/2000/svg" xmlns:xlink="http://www.w3.org/1999/xlink" x="0px" y="0px"
	 viewBox="0 0 360 72" style="enable-background:new 0 0 360 72;" xml:space="preserve">
<style type="text/css">
	.st0{fill:#FFFFFF;}
	.st1{fill-rule:evenodd;clip-rule:evenodd;fill:#FFFFFF;}
	
		.st2{fill:none;stroke:#FFFFFF;stroke-width:2;stroke-linecap:round;stroke-linejoin:round;stroke-miterlimit:4.2573;stroke-dasharray:2,6,2,6;}
	.st3{fill:#0CA678;}
</style>
<path class="st0" d="M349.779,17.419h-30.656c-5.646,0-10.221,4.605-10.221,10.288v20.571c0,2.827,2.299,5.141,5.107,5.141h5.107
	l2.825-5.684c1.258-2.531,4.587-4.599,7.395-4.599h10.226c2.808,0,6.137,2.067,7.395,4.599l2.825,5.684h5.107
	c2.808,0,5.107-2.314,5.107-5.141V27.708C360,22.03,355.426,17.419,349.779,17.419L349.779,17.419z M321.681,35.422
	c-2.821,0-5.107-2.302-5.107-5.147c0-2.839,2.287-5.141,5.107-5.141c2.82,0,5.107,2.302,5.107,5.141
	C326.788,33.12,324.506,35.422,321.681,35.422z M347.229,35.422c-2.821,0-5.107-2.302-5.107-5.147c0-2.839,2.287-5.141,5.107-5.141
	c2.82,0,5.107,2.302,5.107,5.141C352.337,33.12,350.049,35.422,347.229,35.422z"/>
<path class="st1" d="M39.568,25.298l5.557-4.015c-1.334-2.006-2-4.237-2-6.913c0-6.691,5.336-12.042,12.003-12.042
	c6.891,0,12.227,5.353,12.227,12.042c0,6.913-5.336,12.266-12.227,12.266c-2.223,0-4.447-0.668-6.225-1.784l-4.223,5.799v11.596
	l3.778,5.129c1.779-1.338,4.223-2.006,6.67-2.006c6.67,0,12.003,5.575,12.003,12.266s-5.336,12.042-12.003,12.042
	c-6.67,0-12.226-5.353-12.226-12.042c0-2.452,0.889-4.683,2-6.691l-5.781-4.015H27.784l-5.112,3.791
	c1.334,2.006,2.223,4.237,2.223,6.913c0,6.691-5.557,12.042-12.227,12.042c-6.67,0-12.003-5.353-12.003-12.042
	c0-6.691,5.336-12.266,12.003-12.266c2.444,0,4.668,0.668,6.446,2.006l4.002-5.575v-11.82l-4.223-5.353
	c-2,1.114-4.223,2.006-6.891,2.006C5.333,26.631,0,21.277,0,14.364C0,7.673,5.336,2.323,12.003,2.323
	c6.891,0,12.227,5.353,12.227,12.042c0,2.452-0.666,4.907-2,6.691l6.002,4.237h11.337L39.568,25.298z M49.793,49.16l3.778,5.353
	l2.889,2.898c0.221,0.668-1.11,2.006-1.555,1.784l-3.113-3.344l-5.112-3.569c-0.889,1.56-1.555,3.344-1.555,5.353
	c0,5.353,4.447,9.812,10.004,9.812c5.336,0,9.78-4.461,9.78-9.812c0-5.575-4.447-10.036-9.78-10.036
	C53.129,47.599,51.351,48.267,49.793,49.16L49.793,49.16z M46.904,19.944l4.891-3.569l2.889-2.898c0.666-0.668,2,1.114,1.779,1.56
	l-2.889,3.123l-3.334,4.907c1.334,0.892,3.113,1.338,4.891,1.338c5.557,0,10.004-4.461,10.004-10.036
	c0-5.353-4.447-9.812-10.004-9.812c-5.336,0-9.78,4.461-9.78,9.812c0,2.006,0.666,4.015,1.555,5.575L46.904,19.944z M17.562,22.843
	l-3.778-5.129l-2.889-2.677c-0.221-0.446,1.11-1.784,1.779-1.56l2.889,2.898l4.891,3.569c0.889-1.56,1.555-3.569,1.555-5.575
	c0-5.353-4.447-9.812-10.004-9.812c-5.336,0-9.78,4.461-9.78,9.812c0,5.575,4.447,10.036,9.78,10.036
	c2.223,0,4.002-0.668,5.557-1.56L17.562,22.843z M20.896,52.058l-5.336,3.79l-2.889,3.345c-0.666,0.222-2-1.114-1.779-1.784
	l2.889-2.898l4.002-5.353c-1.555-0.892-3.113-1.56-5.112-1.56c-5.336,0-9.78,4.461-9.78,10.036c0,5.575,4.447,9.812,9.78,9.812
	c5.557,0,10.004-4.237,10.004-9.812C22.675,55.627,22.009,53.618,20.896,52.058L20.896,52.058z"/>
<line class="st2" x1="81.29" y1="34.839" x2="297.29" y2="34.839"/>
<rect x="184.065" y="26.323" class="st0" width="19.355" height="18.387"/>
<path class="st3" d="M206.948,24.149l-13.7-7.298c-0.426-0.238-0.948-0.238-1.375,0l-13.271,7.298
	c-0.474,0.238-0.758,0.711-0.758,1.232v10.334c0,8.105,4.833,15.5,12.277,18.769l1.849,0.806c0.188,0.094,0.379,0.094,0.568,0.094
	c0.188,0,0.379-0.047,0.568-0.094l2.085-0.9c7.587-3.223,12.516-10.617,12.516-18.864V25.383
	C207.706,24.861,207.422,24.387,206.948,24.149L206.948,24.149z M199.931,34.198l-8.389,6.826c-0.285,0.238-0.568,0.332-0.9,0.332
	c-0.379,0-0.806-0.189-1.09-0.521l-3.601-4.219c-0.521-0.617-0.427-1.517,0.141-1.991c0.618-0.521,1.518-0.426,1.992,0.142
	l2.701,3.175l7.3-5.971c0.617-0.474,1.517-0.426,1.99,0.189C200.642,32.825,200.548,33.725,199.931,34.198L199.931,34.198z"/>
</svg>
