<?xml version="1.0" encoding="utf-8"?>
<!-- Generator: Adobe Illustrator 23.0.6, SVG Export Plug-In . SVG Version: 6.00 Build 0)  -->
<svg version="1.1" id="Layer_1" xmlns="http://www.w3.org/2000/svg" xmlns:xlink="http://www.w3.org/1999/xlink" x="0px" y="0px"
	 viewBox="0 0 288 288" style="enable-background:new 0 0 288 288;" xml:space="preserve">
<style type="text/css">
	.st0{fill:#69BD48;}
	.st1{fill:#231F20;}
</style>
<rect x="44.998" y="94.501" class="st0" width="128.109" height="136.125"/>
<path class="st1" d="M251.546,247.045H4.502c-1.346,0-2.251,0.452-3.156,1.345C0.453,249.296,0,250.652,0,251.999
	c1.346,20.244,18.446,35.999,38.702,35.999h178.652c20.244,0,37.344-15.755,38.702-35.999c0-1.346-0.452-2.704-1.345-3.596
	c-0.917-0.906-1.81-1.358-3.168-1.358H251.546z M137.7,272.255h-19.803c-2.703,0-4.501-2.251-4.501-4.502
	c0-2.25,1.798-4.501,4.501-4.501H137.7c2.251,0,4.502,2.251,4.502,4.501C142.202,270.004,140.404,272.255,137.7,272.255z"/>
<path class="st1" d="M274.495,0.002h-74.689c-7.645,0-13.504,6.3-13.504,13.504v106.201L288,119.696V13.507
	c0-7.205-6.299-13.504-13.504-13.504L274.495,0.002z"/>
<path class="st1" d="M186.296,147.156c0,7.645,5.847,13.504,13.505,13.504l74.689-0.011c7.645,0,13.504-6.3,13.504-13.505v-18.446
	H186.296V147.156z M230.395,139.952h13.505c2.703,0,4.501,1.798,4.501,4.501c0,2.704-1.798,4.502-4.501,4.502h-13.505
	c-2.703,0-4.501-1.798-4.501-4.502C225.894,141.75,227.703,139.952,230.395,139.952z"/>
<path class="st1" d="M18.899,238.054h218.247c2.704,0,4.502-2.251,4.502-4.502V169.65h-41.847c-12.6,0-22.495-10.349-22.495-22.495
	V77.408L27.448,77.396c-7.205,0-13.052,5.847-13.052,13.052v143.106c0,2.704,1.798,4.502,4.501,4.502L18.899,238.054z
	 M102.606,135.45l26.997-12.146l-8.551-3.156c-2.25-0.905-3.596-3.597-2.703-5.848c0.905-2.251,3.596-3.596,5.847-2.703
	l18.446,6.752c0.906,0.452,2.251,1.346,2.704,2.251c0.452,0.905,0.452,2.251,0,3.596l-6.752,18.446
	c-0.906,2.251-3.597,3.596-5.848,2.704c-2.25-0.906-3.596-3.596-2.703-5.847l3.156-8.551l-26.997,12.147
	c-2.251,0.905-4.954,0-5.847-2.251C98.997,139.046,100.355,136.354,102.606,135.45L102.606,135.45z M81.004,190.802l6.752-18.446
	c0.905-2.251,3.596-3.596,5.847-2.704c2.251,0.906,3.596,3.597,2.703,5.847l-3.156,8.551l26.996-12.147
	c2.251-0.905,4.954,0,5.847,2.251c0.906,2.251,0,4.954-2.25,5.847l-26.997,12.147l8.55,3.156c2.251,0.905,3.596,3.596,2.703,5.847
	c-0.905,2.251-3.596,3.596-5.847,2.703l-18.446-6.752c-0.905-0.453-2.251-1.345-2.703-2.251
	C81.445,193.946,80.551,193.053,81.004,190.802L81.004,190.802z"/>
</svg>
