<?xml version="1.0" encoding="utf-8"?>
<!-- Generator: Adobe Illustrator 23.0.6, SVG Export Plug-In . SVG Version: 6.00 Build 0)  -->
<svg version="1.1" id="Layer_1" xmlns="http://www.w3.org/2000/svg" xmlns:xlink="http://www.w3.org/1999/xlink" x="0px" y="0px"
	 viewBox="0 0 288 288" style="enable-background:new 0 0 288 288;" xml:space="preserve">
<style type="text/css">
	.st0{fill:#FFFFFF;}
</style>
<path class="st0" d="M106.783,143.429c-1.327-5.063-2.711-10.125-4.095-15.256c-29.464-2.025-52.834-26.495-52.834-56.465
	c0-31.299,25.438-56.736,56.736-56.736s56.647,25.438,56.647,56.736c0,17.247-7.752,32.684-19.902,43.067
	c0.675,1.744,1.373,3.499,2.048,5.209c1.496,3.792,2.576,6.345,3.814,9.394c17.641-13.062,29.116-34.032,29.116-57.669
	c-0.011-39.614-32.108-71.71-71.722-71.71s-71.71,32.099-71.71,71.71c0,39.614,32.108,71.71,71.71,71.71
	c0.068,0.011,0.124,0.011,0.191,0.011L106.783,143.429z"/>
<path class="st0" d="M231.879,162.801c-13.321-4.534-33.3-7.223-50.043-8.562c-16.932-1.35-30.42-1.485-30.42-1.485h-1.395
	l-0.461-1.215c0,0-5.659-13.467-11.633-28.644c-5.974-15.177-12.274-31.86-13.669-39.536c-1.294-7.054-2.588-12.736-4.748-16.28
	c-2.16-3.533-4.759-5.265-10.508-4.927c-2.599,0.157-4.039,1.181-5.209,2.88c-1.17,1.699-1.924,4.264-2.228,7.256
	c-0.607,5.985,0.45,13.478,1.204,18.699c3.454,23.874,11.937,46.632,16.561,70.687c2.756,14.322,3.893,28.925,6.514,42.888
	l0.743,4.185l-3.724-1.958c-1.766-0.923-3.015-2.531-4.275-4.467c-1.271-1.935-2.464-4.286-3.724-6.694
	c-2.509-4.815-5.186-10.036-7.628-12.927c-3.78-4.478-8.449-9.473-13.388-12.466c-4.883-2.959-9.676-3.915-14.885-1.305
	c-2.306,2.093-3.139,3.983-3.162,6.143c-0.022,2.25,0.889,4.86,2.329,7.628c2.869,5.535,7.752,11.397,9.203,17.483
	c3.611,15.154,12.781,26.978,20.926,39.904c6.368,10.105,11.093,21.23,20.926,26.227c12.972,6.592,24.256,17.01,37.116,19.16
	c15.616,2.61,33.076,3.397,48.084,1.394c14.873-1.981,27.103-6.851,32.828-14.604c12.297-49.862,4.534-82.32-15.335-109.468V162.801
	z"/>
</svg>
