<svg width="24" height="24" viewBox="0 0 24 24" fill="none" xmlns="http://www.w3.org/2000/svg">
<g clip-path="url(#clip0)">
<path fill-rule="evenodd" clip-rule="evenodd" d="M12.4096 0.110527L20.9044 4.63512H20.9046C21.1983 4.78248 21.3749 5.07608 21.3749 5.40007V11.6886C21.3749 16.8015 18.318 21.3856 13.6137 23.3835L12.3209 23.9415C12.2039 23.9708 12.0858 24 11.9687 24C11.8517 24 11.7336 24 11.6165 23.9415L10.47 23.442C5.85448 21.4149 2.85715 16.8307 2.85715 11.8055V5.39895C2.85715 5.07609 3.0338 4.78249 3.32746 4.63512L11.5567 0.110527C11.8222 -0.0368424 12.1452 -0.0368424 12.4096 0.110527ZM3.83334 11.1167L7.39474 7.58333V9.35H18.079V11.1167H3.83334ZM6.50439 14.65V12.8833H20.75L17.1886 16.4167V14.65H6.50439Z" fill="white"/>
</g>
<defs>
<clipPath id="clip0">
<rect width="24" height="24" fill="white"/>
</clipPath>
</defs>
</svg>
