<svg width="288" height="288" viewBox="0 0 288 288" fill="none" xmlns="http://www.w3.org/2000/svg">
<path d="M79.2 0H7.2C5.3 0 3.5 0.8 2.1 2.1C0.8 3.5 0 5.3 0 7.2V280.8C0 282.7 0.8 284.6 2.1 285.9C3.5 287.3 5.3 288 7.2 288H79.2C81.1 288 82.9 287.2 84.3 285.9C85.7 284.6 86.4 282.7 86.4 280.8V7.2C86.4 5.3 85.6 3.4 84.3 2.1C82.9 0.8 81.1 0 79.2 0ZM43.2 259.2C37.4 259.2 32.1 255.7 29.9 250.3C27.7 244.9 28.9 238.7 33 234.6C37.1 230.5 43.3 229.3 48.7 231.5C54.1 233.7 57.6 239 57.6 244.8C57.6 252.7 51.2 259.2 43.2 259.2Z" fill="white"/>
<path d="M280.8 201.6H217.8L100.8 269.2V288H280.8C282.7 288 284.6 287.2 285.9 285.9C287.3 284.5 288 282.7 288 280.8V208.8C288 206.9 287.2 205.1 285.9 203.7C284.5 202.4 282.7 201.6 280.8 201.6Z" fill="white"/>
<path d="M130.3 235.5L278 150.2C281.4 148.2 282.6 143.8 280.6 140.4L244.6 78C242.6 74.6 238.2 73.4 234.8 75.4L216.7 85.8L130.3 235.5Z" fill="white"/>
<path d="M219.6 37.6L157.2 1.60002C153.8 -0.399984 149.4 0.800016 147.4 4.20002L100.8 85V257.8L222.2 47.5C223.2 45.9 223.4 43.9 222.9 42C222.5 40.1 221.3 38.6 219.6 37.6Z" fill="white"/>
</svg>
