<svg width="288" height="288" viewBox="0 0 288 288" fill="none" xmlns="http://www.w3.org/2000/svg">
<path d="M186.43 115.034C188.205 116.655 190.424 117.446 192.643 117.446C195.151 117.446 197.64 116.423 199.454 114.436C202.889 110.673 202.619 104.827 198.856 101.392L198.219 100.814C194.418 97.4369 188.572 97.7842 185.195 101.605C181.818 105.425 182.166 111.252 185.986 114.629L186.43 115.034Z" fill="white"/>
<path d="M201.614 136.186C203.1 139.697 206.515 141.82 210.123 141.82C211.32 141.82 212.535 141.588 213.712 141.086C218.401 139.099 220.601 133.696 218.613 128.988L218.227 128.12C216.124 123.47 210.76 121.637 206.129 123.74C201.479 125.843 199.53 131.535 201.614 136.185L201.614 136.186Z" fill="white"/>
<path d="M80.1481 126.731C81.7882 127.908 83.6599 128.468 85.5313 128.468C88.387 128.468 91.2232 127.136 93.0371 124.628L93.3844 124.165C96.4331 120.074 95.584 114.305 91.5127 111.256C87.4414 108.207 81.6527 109.037 78.604 113.128L78.0637 113.861C75.0729 117.99 76.0184 123.759 80.1476 126.731L80.1481 126.731Z" fill="white"/>
<path d="M92.7688 198.005C89.7973 193.856 84.0281 192.93 79.8793 195.902C75.7501 198.873 74.8048 204.642 77.7761 208.772L78.2006 209.37C79.9951 211.878 82.8315 213.21 85.7064 213.21C87.5781 213.21 89.4497 212.65 91.0896 211.473C95.2188 208.502 96.1641 202.732 93.1928 198.603L92.7688 198.005Z" fill="white"/>
<path d="M82.3658 174.102C81.3625 169.105 76.5193 165.921 71.5219 166.905C66.5245 167.908 63.2826 172.79 64.2863 177.807L64.46 178.636C65.4055 182.901 69.1102 185.622 73.2782 185.622C73.9728 185.622 74.6868 185.544 75.3814 185.39C80.3596 184.29 83.4661 179.081 82.3665 174.102L82.3658 174.102Z" fill="white"/>
<path d="M71.6767 155.46C72.2363 155.576 72.8152 155.634 73.3747 155.634C77.7355 155.634 81.6911 152.373 82.5595 147.954C83.6593 142.976 80.5335 138.055 75.5551 136.936C70.5769 135.856 65.6566 138.962 64.5373 143.94L64.3443 144.867C63.3602 149.864 66.6598 154.476 71.6767 155.46L71.6767 155.46Z" fill="white"/>
<path d="M107.781 108.341C109.344 108.341 110.926 107.936 112.373 107.106L113.01 106.739C117.428 104.192 118.953 98.5584 116.406 94.1394C113.859 89.7207 108.225 88.1965 103.806 90.7434L103.169 91.11C98.7503 93.657 97.2261 99.291 99.773 103.71C101.471 106.681 104.578 108.341 107.781 108.341H107.781Z" fill="white"/>
<path d="M136.242 99C136.57 99 136.918 98.9807 137.246 98.9421L137.883 98.8842C142.957 98.3825 146.662 93.8675 146.18 88.8118C145.678 83.7373 141.086 80.0519 136.107 80.534L135.278 80.6304C130.203 81.19 126.556 85.7242 127.097 90.7992C127.598 95.5072 131.592 98.9999 136.243 98.9999L136.242 99Z" fill="white"/>
<path d="M112.622 216.049L112.062 215.721C107.663 213.136 102.009 214.622 99.4236 219.002C96.838 223.401 98.3045 229.055 102.704 231.64L103.418 232.045C104.865 232.875 106.447 233.28 108.01 233.28C111.213 233.28 114.319 231.621 116.018 228.649C118.565 224.231 117.04 218.577 112.622 216.049V216.049Z" fill="white"/>
<path d="M213.711 182.415C209.061 180.312 203.6 182.415 201.516 187.066L201.227 187.702C199.124 192.353 201.188 197.813 205.838 199.917C207.073 200.476 208.366 200.727 209.64 200.727C213.151 200.727 216.509 198.72 218.052 195.305L218.38 194.591C220.445 189.96 218.361 184.499 213.711 182.416L213.711 182.415Z" fill="white"/>
<path d="M185.693 208.62C181.853 211.978 181.448 217.805 184.805 221.645C186.639 223.748 189.186 224.809 191.771 224.809C193.913 224.809 196.074 224.056 197.83 222.532L198.544 221.895C202.307 218.461 202.384 212.807 198.949 209.044C195.476 205.282 189.456 205.185 185.693 208.62L185.693 208.62Z" fill="white"/>
<path d="M216.141 151.967C211.048 151.967 206.918 156.097 206.918 161.191V162.02C206.802 167.114 210.854 171.34 215.948 171.456H216.161C221.158 171.456 225.268 167.443 225.384 162.426L225.403 161.191C225.384 156.117 221.255 151.968 216.141 151.968L216.141 151.967Z" fill="white"/>
<path d="M136.915 224.017C131.782 223.419 127.267 227.027 126.65 232.083C126.033 237.138 129.66 241.73 134.715 242.348L135.642 242.444C135.95 242.483 136.24 242.502 136.529 242.502C141.199 242.502 144.98 238.913 145.444 234.147C145.965 229.053 141.99 224.519 136.915 224.017L136.915 224.017Z" fill="white"/>
<path d="M163.466 221.335L162.848 221.528C157.986 223.071 155.304 228.262 156.847 233.124C158.102 237.061 161.729 239.569 165.646 239.569C166.572 239.569 167.518 239.434 168.444 239.125L169.235 238.875C174.078 237.273 176.702 232.063 175.101 227.22C173.538 222.396 168.328 219.753 163.465 221.335L163.466 221.335Z" fill="white"/>
<path d="M163.293 101.608L163.871 101.801C164.836 102.129 165.82 102.284 166.785 102.284C170.644 102.284 174.252 99.833 175.526 95.9741C177.146 91.131 174.522 85.9017 169.698 84.3003L168.888 84.0302C163.987 82.4865 158.835 85.1686 157.291 90.0308C155.748 94.874 158.43 100.064 163.292 101.608L163.293 101.608Z" fill="white"/>
<path d="M144.018 53.5997C84.2389 53.5997 35.6182 102.224 35.6182 162C35.6182 221.779 84.2428 270.38 144.018 270.38C203.798 270.38 252.418 221.755 252.418 162C252.399 102.22 203.774 53.5997 144.018 53.5997V53.5997ZM144.018 251.936C94.4294 251.936 54.0825 211.589 54.0825 162C54.0825 112.411 94.4294 72.0641 144.018 72.0641C193.607 72.0641 233.954 112.411 233.954 162C233.954 211.589 193.607 251.936 144.018 251.936V251.936Z" fill="white"/>
<path d="M144.018 36.4643C213.252 36.4643 269.553 92.7859 269.553 162H288C288 82.6004 223.4 18 144 18C64.6005 18 0 82.6004 0 162H18.4466C18.4851 92.7662 74.7879 36.4643 144.022 36.4643H144.018Z" fill="white"/>
</svg>
