<?xml version="1.0" encoding="utf-8"?>
<!-- Generator: Adobe Illustrator 18.1.1, SVG Export Plug-In . SVG Version: 6.00 Build 0)  -->
<svg version="1.1"
	 id="svg4264" sodipodi:docname="battery_100.svg" inkscape:version="0.91 r13725" xmlns:rdf="http://www.w3.org/1999/02/22-rdf-syntax-ns#" xmlns:dc="http://purl.org/dc/elements/1.1/" xmlns:inkscape="http://www.inkscape.org/namespaces/inkscape" xmlns:sodipodi="http://sodipodi.sourceforge.net/DTD/sodipodi-0.dtd" xmlns:svg="http://www.w3.org/2000/svg" xmlns:cc="http://creativecommons.org/ns#"
	 xmlns="http://www.w3.org/2000/svg" xmlns:xlink="http://www.w3.org/1999/xlink" x="0px" y="0px" viewBox="-142 87 326.32 620"
	 enable-background="new -142 87 326.32 620" xml:space="preserve">
<title  id="title4294">Battery</title>
<sodipodi:namedview  inkscape:window-maximized="0" inkscape:window-y="65" inkscape:window-x="2776" inkscape:window-height="1259" inkscape:window-width="2003" fit-margin-bottom="0.02" fit-margin-right="0.02" inkscape:current-layer="layer1" inkscape:pageshadow="2" inkscape:document-units="in" inkscape:pageopacity="0.0" units="in" borderopacity="1.0" bordercolor="#666666" pagecolor="#ffffff" showgrid="false" inkscape:cy="393.84035" inkscape:zoom="1.2144444" inkscape:cx="202.22082" id="base" fit-margin-top="0.02" fit-margin-left="0.02" showborder="true">
	</sodipodi:namedview>
<path id="rect4970" inkscape:connector-curvature="0" fill="#E6E7E8" stroke="#E6E7E8" stroke-width="6" d="M-127.68,667.88v-502
	c0-14.8,13.12-26.8,29.28-26.8h239.2c16.16,0,29.28,12,29.28,26.8v502c0,14.8-13.12,26.8-29.28,26.8H-98.4
	C-114.64,694.68-127.68,682.68-127.68,667.88z"/>
<path id="rect4360" inkscape:connector-curvature="0" fill="none" d="M-140.56,677.64V156.12c0-15.36,14.24-27.92,31.76-27.92
	h259.92c17.6,0,31.76,12.56,31.76,27.92v521.52c0,15.36-14.24,27.92-31.76,27.92h-259.84C-126.32,705.48-140.56,693-140.56,677.64z"
	/>
<path id="path4671" sodipodi:nodetypes="ccccc" inkscape:connector-curvature="0" fill="#09753B" d="M-91.36,363.32v-90.08h225.12
	v90.08H-91.36z"/>
<path id="path4673" sodipodi:nodetypes="ccccc" inkscape:connector-curvature="0" fill="#09753B" d="M-91.36,466.28V376.2h225.12
	v90.08H-91.36z"/>
<path id="path4675" sodipodi:nodetypes="ccccc" inkscape:connector-curvature="0" fill="#09753B" d="M-91.36,569.16v-90.08h225.12
	v90.08H-91.36z"/>
<path id="path4679" sodipodi:nodetypes="ccccc" inkscape:connector-curvature="0" fill="#09753B" d="M-91.36,672.04v-90.08h225.12
	v90.08H-91.36z"/>
<g id="g4222" transform="translate(-127.22081,216.20249)">
	
		<path id="path4224" inkscape:connector-curvature="0" fill="#E6E7E8" stroke="#E6E7E8" stroke-width="6" stroke-miterlimit="10" d="
		M229.861-81.283c0,2.24-1.68,3.92-3.92,3.92H70.901c-2.24,0-3.92-1.68-3.92-3.92v-40.16c0-2.24,1.68-3.92,3.92-3.92h155.04
		c2.24,0,3.92,1.68,3.92,3.92L229.861-81.283L229.861-81.283L229.861-81.283z"/>
</g>
</svg>
