<?xml version="1.0" encoding="utf-8"?>
<!-- Generator: Adobe Illustrator 21.0.2, SVG Export Plug-In . SVG Version: 6.00 Build 0)  -->
<svg version="1.1" id="Layer_1" xmlns="http://www.w3.org/2000/svg" xmlns:xlink="http://www.w3.org/1999/xlink" x="0px" y="0px"
	 viewBox="0 0 72 72" style="enable-background:new 0 0 72 72;" xml:space="preserve">
<style type="text/css">
	.st0{fill-rule:evenodd;clip-rule:evenodd;fill:#E8E9EB;}
	.st1{fill-rule:evenodd;clip-rule:evenodd;fill:#00FF00;}
</style>
<g id="形状_106">
	<g>
		<path class="st0" d="M71.29,30.037h-3.979c0-1.596,0.023-3.075-0.01-4.554c-0.017-0.695-0.053-1.412-0.235-2.077
			c-0.791-2.895-3.033-4.522-6.213-4.524c-17.694-0.007-35.388-0.01-53.081,0.001c-3.872,0.002-6.405,2.498-6.422,6.379
			c-0.034,7.953-0.013,15.906-0.007,23.859c0.001,1.46,0.333,2.829,1.26,4.006c1.377,1.751,3.213,2.398,5.407,2.394
			c17.532-0.02,35.063-0.011,52.594-0.012c0.378,0,0.758-0.005,1.135-0.038c2.057-0.182,3.604-1.182,4.69-2.919
			c0.698-1.117,0.876-2.359,0.882-3.639c0.007-1.58,0.002-3.159,0.002-4.836h3.979V30.037z M63.269,48.843
			c0,1.927-0.711,2.65-2.617,2.65c-17.556,0.002-35.111,0.002-52.666,0c-1.865,0-2.614-0.737-2.615-2.573
			c-0.002-7.817-0.002-15.634,0-23.451C5.372,23.637,6.122,22.9,7.99,22.9c8.791-0.002,17.583-0.001,26.374-0.001
			c8.737,0,17.475-0.001,26.211,0c1.983,0,2.694,0.701,2.694,2.655V48.843z M7.818,49.305h8.731v-24.18H7.818V49.305z
			 M18.861,49.278h8.732v-24.18h-8.732V49.278z M40.907,49.23h8.747V25.121h-8.747V49.23z M51.975,49.281h8.727V25.099h-8.727
			V49.281z M29.896,49.259h8.784V25.142h-8.784V49.259z"/>
	</g>
</g>
<g id="形状_107">
	<g>
		<path class="st1" d="M7.979,48.862h8.802V25.563H7.979V48.862z M30.237,48.818h8.856V25.579h-8.856V48.818z M19.112,48.836h8.803
			V25.537h-8.803V48.836z M52.496,25.538v23.301h8.798V25.538H52.496z M41.338,48.79h8.819V25.56h-8.819V48.79z"/>
	</g>
</g>
</svg>
