<?xml version="1.0" encoding="utf-8"?>
<!-- Generator: Adobe Illustrator 19.2.1, SVG Export Plug-In . SVG Version: 6.00 Build 0)  -->
<svg version="1.1" id="Layer_1" xmlns="http://www.w3.org/2000/svg" xmlns:xlink="http://www.w3.org/1999/xlink" x="0px" y="0px"
	 viewBox="194 896 97.2 97.4" style="enable-background:new 194 896 97.2 97.4;" xml:space="preserve">
<style type="text/css">
	.st0{fill:none;stroke:#000000;stroke-width:5.4819;stroke-linecap:round;stroke-linejoin:round;stroke-miterlimit:10;}
	.st1{fill:none;stroke:#CB2027;stroke-width:6;stroke-linecap:round;stroke-miterlimit:10;}
	.st2{fill:none;stroke:#CB2027;stroke-width:6;stroke-miterlimit:10;}
</style>
<g>
	<path d="M206.2,923.3c0.3-0.6,0.8-0.9,1.5-0.9l62.1,0c0.4,0,0.7,0.1,1,0.3c0.3,0.2,0.5,0.5,0.6,0.8c0.3,0.6,0.1,1.3-0.4,1.9
		l-37.2,38.7c-0.4,0.3-0.9,0.5-1.4,0.5c-0.3,0-0.6-0.1-0.8-0.3c-0.2-0.1-0.3-0.3-0.5-0.5l-9.6-15l-6.3,3c-0.6,0.3-1.2,0.2-1.7-0.1
		c-0.5-0.4-0.8-0.9-0.7-1.6l1.3-12.9l-7.8-12.1C205.9,924.6,205.9,924,206.2,923.3L206.2,923.3z M210.9,925.9l6,9.4
		c0,0.1,0,0.2,0.1,0.3l0.1,0.2l41.8-9.9L210.9,925.9z M217.5,937.5l-1,9.8l47.9-20.9L217.5,937.5z M223.6,946.1
		c0.3,0.3,0.6,0.6,0.7,0.8l8.4,13.2l29.7-30.9L223.6,946.1z"/>
	<g>
		<path id="path3890" inkscape:connector-curvature="0" class="st0" d="M254,962.6c5.8,5.8,15.2,5.8,21,0c5.8-5.8,5.8-15.2,0-21"/>
		<path id="path3892" inkscape:connector-curvature="0" class="st0" d="M259.2,955.7c2.5,2.5,6.5,2.5,9,0c2.5-2.5,2.5-6.5,0-9"/>
	</g>
</g>
<g>
	<line class="st1" x1="212.6" y1="974.6" x2="272.3" y2="914.8"/>
	<circle class="st2" cx="242.6" cy="944.7" r="43.2"/>
</g>
</svg>
