<svg xmlns="http://www.w3.org/2000/svg" xml:space="preserve" id="Capa_1" x="0" y="0" version="1.1" viewBox="0 0 72 72">
    <style>
        .st0{fill:#fff}
    </style>
    <path d="M18.333 42.453h11.67c1.611 0 2.918-1.3 2.918-2.904a2.91 2.91 0 0 0-2.918-2.904h-11.67a2.91 2.91 0 0 0-2.918 2.904 2.91 2.91 0 0 0 2.918 2.904" class="st0"/>
    <path d="m69.345 65.243-6.017-5.989a14.06 14.06 0 0 0 2.333-7.767c0-6.833-4.876-12.553-11.346-13.897V25.998c0-.77-.307-1.509-.854-2.053L32.065 2.65a2.92 2.92 0 0 0-2.063-.85H4.718A2.91 2.91 0 0 0 1.8 4.704V62.78a2.91 2.91 0 0 0 2.918 2.904h46.68c2.88 0 5.56-.856 7.805-2.323l6.017 5.989c.57.567 1.316.851 2.063.851s1.493-.284 2.063-.851a2.894 2.894 0 0 0-.001-4.107m-9.519-13.756c0 4.626-3.781 8.389-8.428 8.389s-8.428-3.763-8.428-8.389 3.781-8.389 8.428-8.389 8.428 3.763 8.428 8.389M32.92 11.714l11.434 11.38H32.92zM7.635 7.608h19.45v18.391a2.91 2.91 0 0 0 2.918 2.904H48.48v8.688c-5.419 1.126-9.716 5.322-10.97 10.67H18.333a2.91 2.91 0 0 0-2.918 2.904 2.91 2.91 0 0 0 2.918 2.904h19.042a14.1 14.1 0 0 0 2.525 5.808H7.635z" class="st0"/>
</svg>
