<svg xmlns="http://www.w3.org/2000/svg" xml:space="preserve" id="Layer_1" x="0" y="0" version="1.1" viewBox="-255 447 72 72">
    <style>
        .st0{fill:#fff}
    </style>
    <path d="M-240.7 462.4c-7.9 0-14.3 6.4-14.3 14.3s6.4 14.3 14.3 14.3c1.3 0 2.4-1 2.6-2.2V465c0-1.4-1.2-2.6-2.6-2.6M-183 450.8c0-1.4-1.2-2.6-2.6-2.6-.6 0-1.1.2-1.6.5l-22.9 13.2h-20.6c-1.4 0-2.6 1.2-2.6 2.6v24.7c.2 1.3 1.2 2.3 2.6 2.3h18.3l25 14.5c.5.4 1.1.7 1.8.7 1.4 0 2.6-1.2 2.6-2.6v-53.300000000000004M-213.1 511.3c0-.1-.1-.1-.1-.1v-.1l-7.9-13.8c-.4-.6-1.1-1-1.8-1h-6.9c-.4 0-.7.1-1.1.3-1.2.7-1.7 2.3-1 3.6.1.1.1.2.2.3l9.3 16 .1.2c.8 1.1 2.3 1.5 3.4.8.1-.1.3-.2.4-.3l4.8-2.8c.9-.7 1.2-2 .6-3.1" class="st0"/>
</svg>
