<svg xmlns="http://www.w3.org/2000/svg" xml:space="preserve" viewBox="0 0 288 288">
    <path d="M188.3 144c0 24.5-19.8 44.3-44.3 44.3S99.7 168.5 99.7 144s19.8-44.3 44.3-44.3 44.3 19.8 44.3 44.3m99.7 0c0 6.1-5 11.1-11.1 11.1h-28.3c-5.2 49.2-44.4 88.4-93.6 93.6V277c0 6.1-5 11.1-11.1 11.1s-11.1-5-11.1-11.1v-28.3c-49.2-5.2-88.4-44.4-93.6-93.6H11.1C5 155.1 0 150.1 0 144s5-11.1 11.1-11.1h28.3c5.2-49.2 44.4-88.4 93.6-93.6V11.1C132.9 5 137.9 0 144 0s11.1 5 11.1 11.1v28.3c49.2 5.2 88.4 44.4 93.6 93.6H277c6-.1 11 4.9 11 11m-60.9 0c0-45.8-37.3-83.1-83.1-83.1S60.9 98.2 60.9 144s37.3 83.1 83.1 83.1 83.1-37.3 83.1-83.1"/>
</svg>
