<svg xmlns="http://www.w3.org/2000/svg" xml:space="preserve" id="svg3852" width="72" height="72" x="0" y="0" version="1.1" viewBox="-250 452 72 72">
    <style>
        .st0{display:none}.st1{display:inline}.st2{fill:none;stroke:#eb008b;stroke-width:.25;stroke-linecap:round;stroke-linejoin:round;stroke-miterlimit:10}.st4{fill:#fff}
    </style>
    <path d="M-191.329 453.029h-45.342c-6.367 0-11.529 5.162-11.529 11.529v27.036c0 6.367 5.162 11.529 11.529 11.529h8.873l10.29 17.822c1.559 2.701 5.458 2.701 7.017 0l10.29-17.822h8.873c6.367 0 11.529-5.162 11.529-11.529v-27.036c-.001-6.367-5.163-11.529-11.53-11.529m-39.576 34.93-2.984-5.521q-.567-1.072-1.011-1.392a2.34 2.34 0 0 0-1.368-.419h-.493v7.332h-5.607v-18.066h9.304q2.588 0 3.956.444a4.2 4.2 0 0 1 2.206 1.645q.838 1.2.838 2.926 0 1.503-.641 2.594a5 5 0 0 1-1.763 1.768q-.715.432-1.961.715.998.333 1.453.666.308.222.893.95.584.728.782 1.123l2.704 5.234h-6.308zm23.572-13.604h-5.694v13.605h-5.582v-13.605h-5.693v-4.461h16.969zm14.825 13.604-3.808-7.429-2.885 3.021v4.408h-5.582v-18.066h5.582v6.827l5.847-6.827h7.424l-6.592 6.82 6.889 11.247h-6.875z" class="st4"/>
    <path d="M-234.308 473.542h-2.452v3.672h2.354q.382 0 1.479-.246.555-.113.906-.567c.351-.454.351-.653.351-1.047q0-.875-.555-1.343-.556-.47-2.083-.469" class="st4"/>
</svg>
