<?xml version="1.0" encoding="UTF-8" standalone="no"?>
<svg width="200px" height="200px" viewBox="0 0 200 200" version="1.1" xmlns="http://www.w3.org/2000/svg" xmlns:xlink="http://www.w3.org/1999/xlink">
    <!-- Generator: Sketch 3.8.3 (29802) - http://www.bohemiancoding.com/sketch -->
    <title>clear</title>
    <desc>Created with Sketch.</desc>
    <defs></defs>
    <g id="Page-1" stroke="none" stroke-width="1" fill="none" fill-rule="evenodd">
        <g id="clear" fill="#000000">
            <path d="M139.080049,135.171053 C136.594416,135.513158 134.135201,135.684211 131.770657,135.684211 C102.634361,135.684211 78.9316737,112.074561 78.9316737,83.0526316 C78.9316737,69.0635965 84.3850971,55.8969298 94.2835999,45.9692982 C95.7785028,44.4692982 96.1483757,42.1820175 95.2038789,40.2894737 C94.2571804,38.3969298 92.1920569,37.3179825 90.0939089,37.6074561 C59.2535558,41.8486842 36,68.4561404 36,99.5 C36,133.962719 64.1477666,162 98.7462924,162 C115.584315,162 131.391977,155.447368 143.26974,143.539474 C144.764643,142.039474 145.134516,139.752193 144.190019,137.859649 C143.234514,135.967105 141.187004,134.870614 139.080049,135.171053 L139.080049,135.171053 Z M98.7462924,152.131579 C69.6099965,152.131579 45.9073093,128.52193 45.9073093,99.5 C45.9073093,78.2039474 58.9012959,59.3837719 77.7538047,51.2105263 C72.0604043,60.754386 69.0243644,71.6754386 69.0243644,83.0526316 C69.0243644,115.236842 93.5768785,141.826754 125.01167,145.192982 C117.107839,149.723684 108.112002,152.131579 98.7462924,152.131579 Z M106.718374,66.3486842 L115.885937,70.9144737 L120.469719,80.0460526 C120.892431,80.8859649 121.751065,81.4078947 122.688957,81.4078947 C123.626849,81.4078947 124.485482,80.8859649 124.908194,80.0460526 L129.491976,70.9144737 L138.659539,66.3486842 C139.493955,65.9276316 140.026748,65.0723684 140.026748,64.1381579 C140.026748,63.2039474 139.493955,62.3486842 138.659539,61.9276316 L129.491976,57.3618421 L124.908194,48.2302632 C124.485482,47.3991228 123.626849,46.8684211 122.688957,46.8684211 C121.751065,46.8684211 120.892431,47.3991228 120.469719,48.2302632 L115.885937,57.3618421 L106.718374,61.9276316 C105.883958,62.3486842 105.351165,63.2039474 105.351165,64.1381579 C105.351165,65.0723684 105.883958,65.9276316 106.718374,66.3486842 Z M163.427812,96.4671053 L154.260249,91.9013158 L149.676467,82.7697368 C149.253755,81.9385965 148.395122,81.4078947 147.45723,81.4078947 C146.519338,81.4078947 145.660704,81.9385965 145.237993,82.7697368 L140.654211,91.9013158 L131.486647,96.4671053 C130.652232,96.8881579 130.119439,97.7434211 130.119439,98.6776316 C130.119439,99.6118421 130.652232,100.467105 131.486647,100.888158 L140.654211,105.453947 L145.237993,114.585526 C145.660704,115.425439 146.519338,115.947368 147.45723,115.947368 C148.395122,115.947368 149.253755,115.425439 149.676467,114.585526 L154.260249,105.453947 L163.427812,100.888158 C164.262228,100.467105 164.795021,99.6118421 164.795021,98.6776316 C164.795021,97.7434211 164.262228,96.8881579 163.427812,96.4671053 Z" id="Combined-Shape"></path>
        </g>
    </g>
</svg>