<?xml version="1.0" encoding="UTF-8" standalone="no"?>
<svg width="200px" height="200px" viewBox="0 0 200 200" version="1.1" xmlns="http://www.w3.org/2000/svg" xmlns:xlink="http://www.w3.org/1999/xlink">
    <!-- Generator: Sketch 3.8.3 (29802) - http://www.bohemiancoding.com/sketch -->
    <title>cloudy_wind</title>
    <desc>Created with Sketch.</desc>
    <defs></defs>
    <g id="Page-1" stroke="none" stroke-width="1" fill="none" fill-rule="evenodd">
        <g id="cloudy_wind" fill="#000000">
            <path d="M124.662047,118.269983 C122.237589,118.269983 120.266993,119.973066 120.266993,122.068399 L114.52193,122.068399 C114.52193,117.237327 119.072131,113.312831 124.662047,113.312831 C131.24768,113.312831 136.610665,117.947778 136.610665,123.639398 C136.610665,130.417709 130.233437,135.929214 122.392735,135.929214 L80.4244307,135.929215 L80.4244307,130.964057 L122.383473,130.964057 C127.058717,130.964057 130.867918,127.681969 130.867918,123.631393 C130.867918,120.677515 128.082223,118.269983 124.662047,118.269983 Z M88.5360014,140.267974 L103.198531,140.267974 C111.039232,140.267974 117.41646,145.779479 117.41646,152.555789 C117.41646,158.255414 112.053476,162.882356 105.467842,162.882356 C99.8779262,162.882356 95.3277257,158.959862 95.3277257,154.126788 L101.072788,154.126788 C101.072788,156.22212 103.043384,157.9192 105.467842,157.9192 C108.888018,157.9192 111.673713,155.511669 111.673713,152.555789 C111.673713,148.523224 107.873775,145.23113 103.189268,145.23113 L80.5897525,145.231131 L80.5897525,140.267974 L88.5360014,140.267974 Z M136.743333,71.4731163 C132.746667,71.4731163 128.75,71.9687442 125,73.2245581 C116.496667,54.8997209 97.7466667,42.8372093 77.5,42.8372093 C48.5033333,42.8372093 25,66.4498605 25,95.5813953 C25,118.681674 40.2466667,139.28707 62.2533333,146.061767 C64.2566667,146.560744 66.25,145.56614 67.0066667,143.55014 C67.5,141.537488 66.51,139.534884 64.5066667,138.774698 C45.4933333,133.008 32.5,115.426605 32.5,95.5813953 C32.5,70.7129302 52.7466667,50.372093 77.5,50.372093 C95,50.372093 111.003333,60.6664186 118.256667,76.4963721 L119.753333,79.5036279 C120.506667,81.2584186 122.5,82.0152558 124.256667,81.5196279 L127.5,80.5116279 C130.493333,79.5036279 133.75,79.008 137.006667,79.008 C154.01,79.008 167.76,92.8219535 167.76,109.904372 C167.76,126.976744 153.75,140.790698 136.743333,140.790698 C134.74,140.790698 132.993333,142.54214 132.993333,144.55814 C132.993333,146.57414 134.74,148.325581 136.743333,148.325581 C157.746667,148.325581 175,130.992 175,109.890977 C175,88.8066977 157.746667,71.4731163 136.743333,71.4731163 Z" id="Combined-Shape"></path>
        </g>
    </g>
</svg>