<?xml version="1.0" encoding="UTF-8" standalone="no"?>
<svg width="200px" height="200px" viewBox="0 0 200 200" version="1.1" xmlns="http://www.w3.org/2000/svg" xmlns:xlink="http://www.w3.org/1999/xlink">
    <!-- Generator: Sketch 3.8.3 (29802) - http://www.bohemiancoding.com/sketch -->
    <title>cloudy</title>
    <desc>Created with Sketch.</desc>
    <defs></defs>
    <g id="Page-1" stroke="none" stroke-width="1" fill="none" fill-rule="evenodd">
        <g id="cloudy" fill="#000000">
            <path d="M34.3834206,79.3084956 C34.8737603,52.4241531 56.7166359,30.7848837 83.59375,30.7848837 C102.575,30.7848837 120.153125,42.0934884 128.125,59.2730233 C131.640625,58.0956977 135.3875,57.6310465 139.134375,57.6310465 C158.825,57.6310465 175,73.8812791 175,93.6477907 C175,103.031314 171.360627,111.620143 165.432975,118.056899 C165.559915,119.279214 165.625,120.518928 165.625,121.772791 C165.625,141.555 149.45,157.805233 129.759375,157.805233 C129.674794,157.805233 129.773562,156.162128 129.759377,154.461916 C129.744132,152.634728 129.62364,150.741279 129.759375,150.741279 C145.703125,150.741279 158.8375,137.790698 158.8375,121.785349 C158.8375,105.770581 145.946875,92.82 130.00625,92.82 C126.953125,92.82 123.9,93.2846512 121.09375,94.2296512 L118.053125,95.1746512 C116.40625,95.6393023 114.5375,94.9297674 113.83125,93.2846512 L112.428125,90.4653488 C105.628125,75.6247674 90.625,65.9738372 74.21875,65.9738372 C51.0125,65.9738372 32.03125,85.0433721 32.03125,108.357558 C32.03125,126.962442 44.2125,143.445 62.0375,148.851279 C63.368361,149.356288 129.759377,150.741282 129.759377,150.741282 C129.759377,150.741282 129.877031,157.675774 129.759377,157.805231 C98.3466797,157.805231 62.0374985,157.805231 59.925,155.682907 C39.29375,149.331628 25,130.01407 25,108.357558 C25,97.502013 28.4812461,87.4639091 34.3834206,79.3084956 Z M42.5313723,70.5182517 C46.9310306,51.8463071 63.7117675,37.8488372 83.59375,37.8488372 C100,37.8488372 115.003125,47.4997674 121.803125,62.3403488 L123.20625,65.1596512 C123.9125,66.8047674 125.78125,67.5143023 127.428125,67.0496512 L130.46875,66.1046512 C133.275,65.1596512 136.328125,64.695 139.38125,64.695 C155.321875,64.695 168.2125,77.6455814 168.2125,93.6603488 C168.2125,99.5077692 166.459396,104.947456 163.456673,109.496852 C158.417224,95.7021578 145.164186,85.7560465 129.759375,85.7560465 C126.0125,85.7560465 122.265625,86.2206977 118.75,87.3980233 C110.778125,70.2184884 93.2,58.9098837 74.21875,58.9098837 C62.148228,58.9098837 51.0930673,63.2743328 42.5313723,70.5182517 Z" id="Combined-Shape"></path>
        </g>
    </g>
</svg>