<?xml version="1.0" encoding="UTF-8" standalone="no"?>
<svg width="200px" height="200px" viewBox="0 0 200 200" version="1.1" xmlns="http://www.w3.org/2000/svg" xmlns:xlink="http://www.w3.org/1999/xlink">
    <!-- Generator: Sketch 3.8.3 (29802) - http://www.bohemiancoding.com/sketch -->
    <title>drizzle_day</title>
    <desc>Created with Sketch.</desc>
    <defs></defs>
    <g id="Page-1" stroke="none" stroke-width="1" fill="none" fill-rule="evenodd">
        <g id="drizzle_day" stroke="#000000" stroke-width="2" fill="#000000">
            <path d="M138.468111,60.4555535 C134.338222,60.4555535 130.208333,60.9677023 126.333333,62.2653767 C117.546556,43.3297116 98.1715556,30.8651163 77.25,30.8651163 C47.2867778,30.8651163 23,55.2648558 23,85.3674419 C23,109.23773 38.7548889,130.529972 61.4951111,137.530493 C63.5652222,138.046102 65.625,137.018344 66.4068889,134.935144 C66.9166667,132.855405 65.8936667,130.786047 63.8235556,130.000521 C44.1764444,124.0416 30.75,105.874158 30.75,85.3674419 C30.75,59.6700279 51.6715556,38.6511628 77.25,38.6511628 C95.3333333,38.6511628 111.870111,49.2886326 119.365222,65.6462512 L120.911778,68.7537488 C121.690222,70.5670326 123.75,71.3490977 125.565222,70.8369488 L128.916667,69.7953488 C132.009778,68.7537488 135.375,68.2416 138.740222,68.2416 C156.310333,68.2416 170.518667,82.5160186 170.518667,100.167851 C170.518667,117.809302 156.041667,132.083721 138.468111,132.083721 C136.398,132.083721 134.593111,133.893544 134.593111,135.976744 C134.593111,138.059944 136.398,139.869767 138.468111,139.869767 C160.171556,139.869767 178,121.9584 178,100.154009 C178,78.3669209 160.171556,60.4555535 138.468111,60.4555535 Z M100.5,101.348059 C104.833795,101.348059 108.348059,97.8337945 108.348059,93.5 C108.348059,89.1662055 104.833795,85.6519409 100.5,85.6519409 C96.1662055,85.6519409 92.6519409,89.1662055 92.6519409,93.5 C92.6519409,97.8337945 96.1662055,101.348059 100.5,101.348059 Z M106.924991,93.5 C106.924991,97.0421678 104.042168,99.9249912 100.5,99.9249912 C96.9593824,99.9249912 94.0750088,97.0421678 94.0750088,93.5 C94.0750088,89.9578322 96.9578322,87.0750088 100.5,87.0750088 C104.042168,87.0750088 106.924991,89.9578322 106.924991,93.5 Z M99.7874326,105.548021 L99.7874326,110.229057 C99.7874326,110.620736 100.106254,110.939557 100.5,110.939557 C100.893746,110.939557 101.212567,110.620736 101.212567,110.22699 L101.212567,105.548021 C101.212567,105.156858 100.893746,104.83597 100.5,104.83597 C100.106254,104.83597 99.7874326,105.154791 99.7874326,105.548021 Z M100.5,82.1640295 C100.893746,82.1640295 101.212567,81.8452086 101.212567,81.4519789 L101.212567,76.7730103 C101.212567,76.3792638 100.893746,76.0604429 100.5,76.0604429 C100.106254,76.0604429 99.7874326,76.3792638 99.7874326,76.7730103 L99.7874326,81.4540458 C99.7874326,81.8452086 100.106254,82.1640295 100.5,82.1640295 Z M83.7730103,94.2125674 L88.4540458,94.2125674 C88.8472755,94.2125674 89.1660964,93.8937464 89.1660964,93.5 C89.1660964,93.1062536 88.8472755,92.7874326 88.4540458,92.7874326 L83.7730103,92.7874326 C83.3792638,92.7874326 83.0604429,93.1062536 83.0604429,93.5 C83.0604429,93.8937464 83.3792638,94.2125674 83.7730103,94.2125674 Z M117.22699,92.7874326 L112.548021,92.7874326 C112.154791,92.7874326 111.83597,93.1062536 111.83597,93.5 C111.83597,93.8937464 112.154791,94.2125674 112.548021,94.2125674 L117.229057,94.2125674 C117.620736,94.2125674 117.939557,93.8937464 117.939557,93.5 C117.939557,93.1062536 117.620736,92.7874326 117.22699,92.7874326 Z M91.4774191,101.515479 L88.167262,104.825636 C87.8887458,105.104152 87.8887458,105.554222 88.167262,105.832738 C88.4457781,106.111254 88.8958479,106.111254 89.1743641,105.832738 L92.4845212,102.522581 C92.7630374,102.244065 92.7630374,101.793995 92.4845212,101.515479 C92.206005,101.23903 91.7559353,101.23903 91.4774191,101.515479 Z M109.522581,85.4845212 L112.832738,82.1743641 C113.111254,81.8958479 113.111254,81.4457781 112.832738,81.167262 C112.554222,80.8887458 112.104152,80.8887458 111.825636,81.167262 L108.515479,84.4774191 C108.236963,84.7559353 108.236963,85.206005 108.515479,85.4845212 C108.793995,85.7630374 109.244065,85.7630374 109.522581,85.4845212 Z M91.4774191,85.4845212 C91.7559353,85.7630374 92.206005,85.7630374 92.4845212,85.4845212 C92.7630374,85.206005 92.7630374,84.7559353 92.4845212,84.4774191 L89.1743641,81.1693289 C88.8958479,80.8908127 88.4457781,80.8908127 88.167262,81.1693289 C87.8887458,81.447845 87.8887458,81.8979148 88.167262,82.176431 L91.4774191,85.4845212 Z M108.515479,101.515479 C108.236963,101.793995 108.236963,102.244065 108.515479,102.522581 L111.825636,105.832738 C112.104152,106.109187 112.554222,106.109187 112.832738,105.832738 C113.111254,105.554222 113.111254,105.104152 112.832738,104.825636 L109.522581,101.515479 C109.244065,101.236963 108.793995,101.236963 108.515479,101.515479 Z M89.4166667,127.737209 C87.8701111,127.737209 86.8333333,128.132384 86.8333333,128.721863 L86.8333333,155.307511 C86.8333333,155.89699 87.8701111,156.292164 89.4166667,156.292164 C90.9632222,156.292164 92,155.89699 92,155.307511 L92,128.721863 C92,128.132384 90.9632222,127.737209 89.4166667,127.737209 Z M109.416667,127.737209 C107.870111,127.737209 106.833333,128.132384 106.833333,128.721863 L106.833333,155.307511 C106.833333,155.89699 107.870111,156.292164 109.416667,156.292164 C110.963222,156.292164 112,155.89699 112,155.307511 L112,128.721863 C112,128.132384 110.963222,127.737209 109.416667,127.737209 Z" id="Combined-Shape"></path>
        </g>
    </g>
</svg>