<?xml version="1.0" encoding="UTF-8" standalone="no"?>
<svg width="200px" height="200px" viewBox="0 0 200 200" version="1.1" xmlns="http://www.w3.org/2000/svg" xmlns:xlink="http://www.w3.org/1999/xlink">
    <!-- Generator: Sketch 3.8.3 (29802) - http://www.bohemiancoding.com/sketch -->
    <title>drizzle</title>
    <desc>Created with Sketch.</desc>
    <defs></defs>
    <g id="Page-1" stroke="none" stroke-width="1" fill="none" fill-rule="evenodd">
        <g id="drizzle" stroke="#000000" stroke-width="2" fill="#000000">
            <path d="M136.743333,57.4731163 C132.746667,57.4731163 128.75,57.9687442 125,59.2245581 C116.496667,40.8997209 97.7466667,28.8372093 77.5,28.8372093 C48.5033333,28.8372093 25,52.4498605 25,81.5813953 C25,104.681674 40.2466667,125.28707 62.2533333,132.061767 C64.2566667,132.560744 66.25,131.56614 67.0066667,129.55014 C67.5,127.537488 66.51,125.534884 64.5066667,124.774698 C45.4933333,119.008 32.5,101.426605 32.5,81.5813953 C32.5,56.7129302 52.7466667,36.372093 77.5,36.372093 C95,36.372093 111.003333,46.6664186 118.256667,62.4963721 L119.753333,65.5036279 C120.506667,67.2584186 122.5,68.0152558 124.256667,67.5196279 L127.5,66.5116279 C130.493333,65.5036279 133.75,65.008 137.006667,65.008 C154.01,65.008 167.76,78.8219535 167.76,95.9043721 C167.76,112.976744 153.75,126.790698 136.743333,126.790698 C134.74,126.790698 132.993333,128.54214 132.993333,130.55814 C132.993333,132.57414 134.74,134.325581 136.743333,134.325581 C157.746667,134.325581 175,116.992 175,95.8909767 C175,74.8066977 157.746667,57.4731163 136.743333,57.4731163 Z M82,99.1627907 L82,133.069767 C82,133.821581 83.204,134.325581 85,134.325581 C86.796,134.325581 88,133.821581 88,133.069767 L88,99.1627907 C88,98.4109767 86.796,97.9069767 85,97.9069767 C83.204,97.9069767 82,98.4109767 82,99.1627907 Z M99,109.162791 L99,143.069767 C99,143.821581 100.204,144.325581 102,144.325581 C103.796,144.325581 105,143.821581 105,143.069767 L105,109.162791 C105,108.410977 103.796,107.906977 102,107.906977 C100.204,107.906977 99,108.410977 99,109.162791 Z" id="Combined-Shape"></path>
        </g>
    </g>
</svg>