<?xml version="1.0" encoding="UTF-8" standalone="no"?>
<svg width="200px" height="200px" viewBox="0 0 200 200" version="1.1" xmlns="http://www.w3.org/2000/svg" xmlns:xlink="http://www.w3.org/1999/xlink">
    <!-- Generator: Sketch 3.8.3 (29802) - http://www.bohemiancoding.com/sketch -->
    <title>frigid</title>
    <desc>Created with Sketch.</desc>
    <defs></defs>
    <g id="Page-1" stroke="none" stroke-width="1" fill="none" fill-rule="evenodd">
        <g id="frigid">
            <circle id="Oval-20" stroke="#000000" stroke-width="8" cx="100" cy="100" r="72"></circle>
            <polygon id="Page-1" fill="#000000" points="142.116201 111.22128 138.648062 105.213969 127.268231 111.786401 106.572939 99.8414499 127.268231 87.8964986 138.63774 94.4586095 142.105879 88.4616194 134.201929 83.8942045 146.25784 76.9295418 142.792281 70.9325518 130.715727 77.8972145 130.715727 68.7339995 123.789771 68.7339995 123.789771 81.8995086 103.066093 93.8651036 103.066093 69.9339136 114.476889 63.3511591 111.019072 57.354169 103.066093 61.9396472 103.066093 48 96.1401374 48 96.1401374 61.921584 88.2284457 57.354169 84.7706287 63.3614809 96.1401374 69.9235918 96.1401374 93.8134944 75.4474252 81.8685431 75.4474252 68.7339995 68.5111476 68.7339995 68.5111476 77.8662489 56.4655583 70.9119081 53 76.9088981 65.0636525 83.8735608 57.141639 88.4512976 60.6097778 94.4586095 71.9999301 87.8758549 92.7132859 99.8414499 71.9999301 111.807045 60.5891341 105.22429 57.1313171 111.231602 65.0636525 115.809339 53.0103218 122.774002 56.4758802 128.770992 68.5111476 121.816651 68.5111476 130.9489 75.4474252 130.9489 75.4474252 117.814357 96.1401374 105.869405 96.1401374 129.76963 84.7809506 136.321419 88.2387675 142.318409 96.1401374 137.761316 96.1401374 151.6829 103.066093 151.6829 103.066093 137.750994 110.998428 142.328731 114.466567 136.321419 103.066093 129.748986 103.066093 105.817796 123.789771 117.783391 123.789771 130.9489 130.715727 130.9489 130.715727 121.785685 142.792281 128.750348 146.247518 122.753358 134.201929 115.788695"></polygon>
        </g>
    </g>
</svg>