<?xml version="1.0" encoding="UTF-8" standalone="no"?>
<svg width="200px" height="200px" viewBox="0 0 200 200" version="1.1" xmlns="http://www.w3.org/2000/svg" xmlns:xlink="http://www.w3.org/1999/xlink">
    <!-- Generator: Sketch 3.8.3 (29802) - http://www.bohemiancoding.com/sketch -->
    <title>hail</title>
    <desc>Created with Sketch.</desc>
    <defs></defs>
    <g id="Page-1" stroke="none" stroke-width="1" fill="none" fill-rule="evenodd">
        <g id="hail" stroke="#000000" stroke-width="2" fill="#000000">
            <path d="M136.743333,56.4731163 C132.746667,56.4731163 128.75,56.9687442 125,58.2245581 C116.496667,39.8997209 97.7466667,27.8372093 77.5,27.8372093 C48.5033333,27.8372093 25,51.4498605 25,80.5813953 C25,103.681674 40.2466667,124.28707 62.2533333,131.061767 C64.2566667,131.560744 66.25,130.56614 67.0066667,128.55014 C67.5,126.537488 66.51,124.534884 64.5066667,123.774698 C45.4933333,118.008 32.5,100.426605 32.5,80.5813953 C32.5,55.7129302 52.7466667,35.372093 77.5,35.372093 C95,35.372093 111.003333,45.6664186 118.256667,61.4963721 L119.753333,64.5036279 C120.506667,66.2584186 122.5,67.0152558 124.256667,66.5196279 L127.5,65.5116279 C130.493333,64.5036279 133.75,64.008 137.006667,64.008 C154.01,64.008 167.76,77.8219535 167.76,94.9043721 C167.76,111.976744 153.75,125.790698 136.743333,125.790698 C134.74,125.790698 132.993333,127.54214 132.993333,129.55814 C132.993333,131.57414 134.74,133.325581 136.743333,133.325581 C157.746667,133.325581 175,115.992 175,94.8909767 C175,73.8066977 157.746667,56.4731163 136.743333,56.4731163 Z M91,135 C97.627417,135 103,129.627417 103,123 C103,116.372583 97.627417,111 91,111 C84.372583,111 79,116.372583 79,123 C79,129.627417 84.372583,135 91,135 Z M121,162 C127.627417,162 133,156.627417 133,150 C133,143.372583 127.627417,138 121,138 C114.372583,138 109,143.372583 109,150 C109,156.627417 114.372583,162 121,162 Z M79,171 C85.627417,171 91,165.627417 91,159 C91,152.372583 85.627417,147 79,147 C72.372583,147 67,152.372583 67,159 C67,165.627417 72.372583,171 79,171 Z M79,168 C83.9705627,168 88,163.970563 88,159 C88,154.029437 83.9705627,150 79,150 C74.0294373,150 70,154.029437 70,159 C70,163.970563 74.0294373,168 79,168 Z M91,132 C95.9705627,132 100,127.970563 100,123 C100,118.029437 95.9705627,114 91,114 C86.0294373,114 82,118.029437 82,123 C82,127.970563 86.0294373,132 91,132 Z M121,159 C125.970563,159 130,154.970563 130,150 C130,145.029437 125.970563,141 121,141 C116.029437,141 112,145.029437 112,150 C112,154.970563 116.029437,159 121,159 Z" id="Combined-Shape"></path>
        </g>
    </g>
</svg>