<?xml version="1.0" encoding="UTF-8" standalone="no"?>
<svg width="200px" height="200px" viewBox="0 0 200 200" version="1.1" xmlns="http://www.w3.org/2000/svg" xmlns:xlink="http://www.w3.org/1999/xlink">
    <!-- Generator: Sketch 3.8.3 (29802) - http://www.bohemiancoding.com/sketch -->
    <title>heavy_rain</title>
    <desc>Created with Sketch.</desc>
    <defs></defs>
    <g id="Page-1" stroke="none" stroke-width="1" fill="none" fill-rule="evenodd">
        <g id="heavy_rain" stroke="#000000" stroke-width="2" fill="#000000">
            <path d="M82.5,78.9069767 C81.0033333,78.9069767 80,79.6026992 80,80.6405045 L80,127.445753 C80,128.483558 81.0033333,129.179281 82.5,129.179281 C83.9966667,129.179281 85,128.483558 85,127.445753 L85,80.6405045 C85,79.6026992 83.9966667,78.9069767 82.5,78.9069767 Z M100,78.9069767 C98.5033333,78.9069767 97.5,79.6026992 97.5,80.6405045 L97.5,118.778114 C97.5,119.81592 98.5033333,120.511642 100,120.511642 C101.496667,120.511642 102.5,119.81592 102.5,118.778114 L102.5,80.6405045 C102.5,79.6026992 101.496667,78.9069767 100,78.9069767 Z M117.5,78.9069767 C116.003333,78.9069767 115,79.9149767 115,81.4186047 L115,124.116279 C115,125.619907 116.003333,126.627907 117.5,126.627907 C118.996667,126.627907 120,125.619907 120,124.116279 L120,81.4186047 C120,79.9149767 118.996667,78.9069767 117.5,78.9069767 Z M82.5,140.050576 C81.0033333,140.050576 80,140.335794 80,140.761252 L80,159.949481 C80,160.374939 81.0033333,160.660156 82.5,160.660156 C83.9966667,160.660156 85,160.374939 85,159.949481 L85,140.761252 C85,140.335794 83.9966667,140.050576 82.5,140.050576 Z M117.5,137.221036 C116.003333,137.221036 115,137.506254 115,137.931712 L115,150.013189 C115,150.438647 116.003333,150.723865 117.5,150.723865 C118.996667,150.723865 120,150.438647 120,150.013189 L120,137.931712 C120,137.506254 118.996667,137.221036 117.5,137.221036 Z M99.5,133.227629 C98.0033333,133.227629 97,133.662962 97,134.312344 L97,152.752495 C97,153.401877 98.0033333,153.837209 99.5,153.837209 C100.996667,153.837209 102,153.401877 102,152.752495 L102,134.312344 C102,133.662962 100.996667,133.227629 99.5,133.227629 Z M136.743333,38.4731163 C132.746667,38.4731163 128.75,38.9687442 125,40.2245581 C116.496667,21.8997209 97.7466667,9.8372093 77.5,9.8372093 C48.5033333,9.8372093 25,33.4498605 25,62.5813953 C25,85.6816744 40.2466667,106.28707 62.2533333,113.061767 C64.2566667,113.560744 66.25,112.56614 67.0066667,110.55014 C67.5,108.537488 66.51,106.534884 64.5066667,105.774698 C45.4933333,100.008 32.5,82.4266047 32.5,62.5813953 C32.5,37.7129302 52.7466667,17.372093 77.5,17.372093 C95,17.372093 111.003333,27.6664186 118.256667,43.4963721 L119.753333,46.5036279 C120.506667,48.2584186 122.5,49.0152558 124.256667,48.5196279 L127.5,47.5116279 C130.493333,46.5036279 133.75,46.008 137.006667,46.008 C154.01,46.008 167.76,59.8219535 167.76,76.9043721 C167.76,93.9767442 153.75,107.790698 136.743333,107.790698 C134.74,107.790698 132.993333,109.54214 132.993333,111.55814 C132.993333,113.57414 134.74,115.325581 136.743333,115.325581 C157.746667,115.325581 175,97.992 175,76.8909767 C175,55.8066977 157.746667,38.4731163 136.743333,38.4731163 Z" id="Combined-Shape"></path>
        </g>
    </g>
</svg>