<?xml version="1.0" encoding="UTF-8" standalone="no"?>
<svg width="200px" height="200px" viewBox="0 0 200 200" version="1.1" xmlns="http://www.w3.org/2000/svg" xmlns:xlink="http://www.w3.org/1999/xlink">
    <!-- Generator: Sketch 3.8.3 (29802) - http://www.bohemiancoding.com/sketch -->
    <title>hurricane</title>
    <desc>Created with Sketch.</desc>
    <defs></defs>
    <g id="Page-1" stroke="none" stroke-width="1" fill="none" fill-rule="evenodd">
        <g id="hurricane" stroke="#000000" stroke-width="10">
            <path d="M123.834774,129.120996 C138.923096,114.032674 138.842336,89.4889106 123.654391,74.3009657 C108.466446,59.1130209 83.9226822,59.0322607 68.8343601,74.1205827 C53.746038,89.2089048 53.8267982,113.752669 69.0147431,128.940613 C84.2026879,144.128558 108.746452,144.209318 123.834774,129.120996 Z M109.575407,114.86163 C116.840155,107.596882 116.80127,95.7795145 109.488556,88.4668003 C102.175842,81.1540861 90.3584742,81.1152016 83.0937266,88.3799492 C75.8289789,95.6446969 75.8678635,107.462065 83.1805777,114.774779 C90.4932918,122.087493 102.31066,122.126378 109.575407,114.86163 Z" id="Combined-Shape"></path>
            <path d="M60.497097,46.7210811 L134.273507,46.7210811" id="Path-265" transform="translate(97.416004, 46.721081) rotate(-45.000000) translate(-97.416004, -46.721081) "></path>
            <path d="M63.9473147,153.165308 L137.723725,153.165308" id="Path-265" transform="translate(100.866222, 153.165308) rotate(-45.000000) translate(-100.866222, -153.165308) "></path>
        </g>
    </g>
</svg>