<?xml version="1.0" encoding="UTF-8" standalone="no"?>
<svg width="200px" height="200px" viewBox="0 0 200 200" version="1.1" xmlns="http://www.w3.org/2000/svg" xmlns:xlink="http://www.w3.org/1999/xlink">
    <!-- Generator: Sketch 3.8.3 (29802) - http://www.bohemiancoding.com/sketch -->
    <title>isolated_thunderstorms</title>
    <desc>Created with Sketch.</desc>
    <defs></defs>
    <g id="Page-1" stroke="none" stroke-width="1" fill="none" fill-rule="evenodd">
        <g id="isolated_thunderstorms" stroke="#000000" stroke-width="2" fill="#000000">
            <path d="M138.468111,60.4555535 C134.338222,60.4555535 130.208333,60.9677023 126.333333,62.2653767 C117.546556,43.3297116 98.1715556,30.8651163 77.25,30.8651163 C47.2867778,30.8651163 23,55.2648558 23,85.3674419 C23,109.23773 38.7548889,130.529972 61.4951111,137.530493 C63.5652222,138.046102 65.625,137.018344 66.4068889,134.935144 C66.9166667,132.855405 65.8936667,130.786047 63.8235556,130.000521 C44.1764444,124.0416 30.75,105.874158 30.75,85.3674419 C30.75,59.6700279 51.6715556,38.6511628 77.25,38.6511628 C95.3333333,38.6511628 111.870111,49.2886326 119.365222,65.6462512 L120.911778,68.7537488 C121.690222,70.5670326 123.75,71.3490977 125.565222,70.8369488 L128.916667,69.7953488 C132.009778,68.7537488 135.375,68.2416 138.740222,68.2416 C156.310333,68.2416 170.518667,82.5160186 170.518667,100.167851 C170.518667,117.809302 156.041667,132.083721 138.468111,132.083721 C136.398,132.083721 134.593111,133.893544 134.593111,135.976744 C134.593111,138.059944 136.398,139.869767 138.468111,139.869767 C160.171556,139.869767 178,121.9584 178,100.154009 C178,78.3669209 160.171556,60.4555535 138.468111,60.4555535 Z M109.416667,127.737209 C107.870111,127.737209 106.833333,128.132384 106.833333,128.721863 L106.833333,155.307511 C106.833333,155.89699 107.870111,156.292164 109.416667,156.292164 C110.963222,156.292164 112,155.89699 112,155.307511 L112,128.721863 C112,128.132384 110.963222,127.737209 109.416667,127.737209 Z M75.5,102.868809 C84.5390572,102.868809 91.8688089,95.5390572 91.8688089,86.5 C91.8688089,77.4609428 84.5390572,70.1311911 75.5,70.1311911 C66.4609428,70.1311911 59.1311911,77.4609428 59.1311911,86.5 C59.1311911,95.5390572 66.4609428,102.868809 75.5,102.868809 Z M75.5,73.0993041 C82.88795,73.0993041 88.9006959,79.11205 88.9006959,86.5 C88.9006959,93.88795 82.88795,99.9006959 75.5,99.9006959 C68.1152832,99.9006959 62.0993041,93.88795 62.0993041,86.5 C62.0993041,79.11205 68.11205,73.0993041 75.5,73.0993041 Z M74.013788,111.62873 L74.013788,121.392032 C74.013788,122.208964 74.6787574,122.873933 75.5,122.873933 C76.3212426,122.873933 76.986212,122.208964 76.986212,121.387721 L76.986212,111.62873 C76.986212,110.812876 76.3212426,110.143596 75.5,110.143596 C74.6787574,110.143596 74.013788,110.808565 74.013788,111.62873 Z M75.5,62.8564044 C76.3212426,62.8564044 76.986212,62.1914351 76.986212,61.3712702 L76.986212,51.6122786 C76.986212,50.791036 76.3212426,50.1260666 75.5,50.1260666 C74.6787574,50.1260666 74.013788,50.791036 74.013788,51.6122786 L74.013788,61.3755812 C74.013788,62.1914351 74.6787574,62.8564044 75.5,62.8564044 Z M40.6122786,87.986212 L50.3755812,87.986212 C51.195746,87.986212 51.8607154,87.3212426 51.8607154,86.5 C51.8607154,85.6787574 51.195746,85.013788 50.3755812,85.013788 L40.6122786,85.013788 C39.791036,85.013788 39.1260666,85.6787574 39.1260666,86.5 C39.1260666,87.3212426 39.791036,87.986212 40.6122786,87.986212 Z M110.387721,85.013788 L100.62873,85.013788 C99.8085649,85.013788 99.1435956,85.6787574 99.1435956,86.5 C99.1435956,87.3212426 99.8085649,87.986212 100.62873,87.986212 L110.392032,87.986212 C111.208964,87.986212 111.873933,87.3212426 111.873933,86.5 C111.873933,85.6787574 111.208964,85.013788 110.387721,85.013788 Z M56.6814741,103.217999 L49.7774321,110.122041 C49.1965269,110.702946 49.1965269,111.641663 49.7774321,112.222568 C50.3583373,112.803473 51.2970542,112.803473 51.8779594,112.222568 L58.7820014,105.318526 C59.3629065,104.737621 59.3629065,103.798904 58.7820014,103.217999 C58.2010962,102.641404 57.2623792,102.641404 56.6814741,103.217999 Z M94.3185259,69.7820014 L101.222568,62.8779594 C101.803473,62.2970542 101.803473,61.3583373 101.222568,60.7774321 C100.641663,60.1965269 99.7029458,60.1965269 99.1220406,60.7774321 L92.2179986,67.6814741 C91.6370935,68.2623792 91.6370935,69.2010962 92.2179986,69.7820014 C92.7989038,70.3629065 93.7376208,70.3629065 94.3185259,69.7820014 Z M56.6814741,69.7820014 C57.2623792,70.3629065 58.2010962,70.3629065 58.7820014,69.7820014 C59.3629065,69.2010962 59.3629065,68.2623792 58.7820014,67.6814741 L51.8779594,60.7817431 C51.2970542,60.2008379 50.3583373,60.2008379 49.7774321,60.7817431 C49.1965269,61.3626482 49.1965269,62.3013652 49.7774321,62.8822704 L56.6814741,69.7820014 Z M92.2179986,103.217999 C91.6370935,103.798904 91.6370935,104.737621 92.2179986,105.318526 L99.1220406,112.222568 C99.7029458,112.799162 100.641663,112.799162 101.222568,112.222568 C101.803473,111.641663 101.803473,110.702946 101.222568,110.122041 L94.3185259,103.217999 C93.7376208,102.637093 92.7989038,102.637093 92.2179986,103.217999 Z M97.9001502,143.443326 L90.8151512,144.078606 L94.3108931,124.165195 L76.2673424,151.85801 L83.3549694,151.224936 L79.8163981,170.685915 L97.9001502,143.443326 Z" id="Combined-Shape"></path>
        </g>
    </g>
</svg>