<?xml version="1.0" encoding="UTF-8" standalone="no"?>
<svg width="200px" height="200px" viewBox="0 0 200 200" version="1.1" xmlns="http://www.w3.org/2000/svg" xmlns:xlink="http://www.w3.org/1999/xlink">
    <!-- Generator: Sketch 3.8.3 (29802) - http://www.bohemiancoding.com/sketch -->
    <title>mostly_cloudy_day</title>
    <desc>Created with Sketch.</desc>
    <defs></defs>
    <g id="Page-1" stroke="none" stroke-width="1" fill="none" fill-rule="evenodd">
        <g id="mostly_cloudy_day" stroke="#000000" stroke-width="2" fill="#000000">
            <path d="M34.3834206,79.3084956 C34.8737603,52.4241531 56.7166359,30.7848837 83.59375,30.7848837 C102.575,30.7848837 120.153125,42.0934884 128.125,59.2730233 C131.640625,58.0956977 135.3875,57.6310465 139.134375,57.6310465 C158.825,57.6310465 175,73.8812791 175,93.6477907 C175,103.031314 171.360627,111.620143 165.432975,118.056899 C165.559915,119.279214 165.625,120.518928 165.625,121.772791 C165.625,141.555 149.45,157.805233 129.759375,157.805233 C127.88125,157.805233 126.24375,156.163256 126.24375,154.273256 C126.24375,152.383256 127.88125,150.741279 129.759375,150.741279 C145.703125,150.741279 158.8375,137.790698 158.8375,121.785349 C158.8375,105.770581 145.946875,92.82 130.00625,92.82 C126.953125,92.82 123.9,93.2846512 121.09375,94.2296512 L118.053125,95.1746512 C116.40625,95.6393023 114.5375,94.9297674 113.83125,93.2846512 L112.428125,90.4653488 C105.628125,75.6247674 90.625,65.9738372 74.21875,65.9738372 C51.0125,65.9738372 32.03125,85.0433721 32.03125,108.357558 C32.03125,126.962442 44.2125,143.445 62.0375,148.851279 C63.915625,149.563953 64.84375,151.441395 64.38125,153.328256 C63.671875,155.218256 61.803125,156.150698 59.925,155.682907 C39.29375,149.331628 25,130.01407 25,108.357558 C25,97.502013 28.4812461,87.4639091 34.3834206,79.3084956 Z M42.5313723,70.5182517 C46.9310306,51.8463071 63.7117675,37.8488372 83.59375,37.8488372 C100,37.8488372 115.003125,47.4997674 121.803125,62.3403488 L123.20625,65.1596512 C123.9125,66.8047674 125.78125,67.5143023 127.428125,67.0496512 L130.46875,66.1046512 C133.275,65.1596512 136.328125,64.695 139.38125,64.695 C155.321875,64.695 168.2125,77.6455814 168.2125,93.6603488 C168.2125,99.5077692 166.459396,104.947456 163.456673,109.496852 C158.417224,95.7021578 145.164186,85.7560465 129.759375,85.7560465 C126.0125,85.7560465 122.265625,86.2206977 118.75,87.3980233 C110.778125,70.2184884 93.2,58.9098837 74.21875,58.9098837 C62.148228,58.9098837 51.0930673,63.2743328 42.5313723,70.5182517 Z M95.9609375,160.245164 C103.29665,160.245164 109.245164,154.29665 109.245164,146.960938 C109.245164,139.625225 103.29665,133.676711 95.9609375,133.676711 C88.6252247,133.676711 82.6767111,139.625225 82.6767111,146.960938 C82.6767111,154.29665 88.6252247,160.245164 95.9609375,160.245164 Z M106.83637,146.960938 C106.83637,152.956682 101.956682,157.83637 95.9609375,157.83637 C89.9678167,157.83637 85.0855049,152.956682 85.0855049,146.960938 C85.0855049,140.965193 89.9651927,136.085505 95.9609375,136.085505 C101.956682,136.085505 106.83637,140.965193 106.83637,146.960938 Z M94.7547913,167.354342 L94.7547913,175.277821 C94.7547913,175.940808 95.2944521,176.480469 95.9609375,176.480469 C96.6274229,176.480469 97.1670837,175.940808 97.1670837,175.274323 L97.1670837,167.354342 C97.1670837,166.69223 96.6274229,166.14907 95.9609375,166.14907 C95.2944521,166.14907 94.7547913,166.688731 94.7547913,167.354342 Z M95.9609375,127.772805 C96.6274229,127.772805 97.1670837,127.233144 97.1670837,126.567533 L97.1670837,118.647552 C97.1670837,117.981067 96.6274229,117.441406 95.9609375,117.441406 C95.2944521,117.441406 94.7547913,117.981067 94.7547913,118.647552 L94.7547913,126.571032 C94.7547913,127.233144 95.2944521,127.772805 95.9609375,127.772805 Z M67.6475524,148.167084 L75.5710319,148.167084 C76.2366427,148.167084 76.7763035,147.627423 76.7763035,146.960937 C76.7763035,146.294452 76.2366427,145.754791 75.5710319,145.754791 L67.6475524,145.754791 C66.981067,145.754791 66.4414062,146.294452 66.4414062,146.960937 C66.4414062,147.627423 66.981067,148.167084 67.6475524,148.167084 Z M124.274323,145.754791 L116.354342,145.754791 C115.688731,145.754791 115.14907,146.294452 115.14907,146.960937 C115.14907,147.627423 115.688731,148.167084 116.354342,148.167084 L124.277821,148.167084 C124.940808,148.167084 125.480469,147.627423 125.480469,146.960937 C125.480469,146.294452 124.940808,145.754791 124.274323,145.754791 Z M80.6886253,160.528551 L75.0855997,166.131577 C74.6141618,166.603015 74.6141618,167.364837 75.0855997,167.836275 C75.5570375,168.307713 76.3188601,168.307713 76.7902979,167.836275 L82.3933236,162.23325 C82.8647615,161.761812 82.8647615,160.999989 82.3933236,160.528551 C81.9218858,160.060612 81.1600632,160.060612 80.6886253,160.528551 Z M111.23325,133.393324 L116.836275,127.790298 C117.307713,127.31886 117.307713,126.557037 116.836275,126.0856 C116.364837,125.614162 115.603015,125.614162 115.131577,126.0856 L109.528551,131.688625 C109.057114,132.160063 109.057114,132.921886 109.528551,133.393324 C109.999989,133.864761 110.761812,133.864761 111.23325,133.393324 Z M80.6886253,133.393324 C81.1600632,133.864761 81.9218858,133.864761 82.3933236,133.393324 C82.8647615,132.921886 82.8647615,132.160063 82.3933236,131.688625 L76.7902979,126.089098 C76.3188601,125.61766 75.5570375,125.61766 75.0855997,126.089098 C74.6141618,126.560536 74.6141618,127.322359 75.0855997,127.793797 L80.6886253,133.393324 Z M109.528551,160.528551 C109.057114,160.999989 109.057114,161.761812 109.528551,162.23325 L115.131577,167.836275 C115.603015,168.304215 116.364837,168.304215 116.836275,167.836275 C117.307713,167.364837 117.307713,166.603015 116.836275,166.131577 L111.23325,160.528551 C110.761812,160.057114 109.999989,160.057114 109.528551,160.528551 Z" id="Combined-Shape"></path>
        </g>
    </g>
</svg>