<?xml version="1.0" encoding="UTF-8" standalone="no"?>
<svg width="200px" height="200px" viewBox="0 0 200 200" version="1.1" xmlns="http://www.w3.org/2000/svg" xmlns:xlink="http://www.w3.org/1999/xlink">
    <!-- Generator: Sketch 3.8.3 (29802) - http://www.bohemiancoding.com/sketch -->
    <title>mostly_clear</title>
    <desc>Created with Sketch.</desc>
    <defs></defs>
    <g id="Page-1" stroke="none" stroke-width="1" fill="none" fill-rule="evenodd">
        <g id="mostly_clear" fill="#000000">
            <path d="M139.080049,135.171053 C136.594416,135.513158 134.135201,135.684211 131.770657,135.684211 C102.634361,135.684211 78.9316737,112.074561 78.9316737,83.0526316 C78.9316737,69.0635965 84.3850971,55.8969298 94.2835999,45.9692982 C95.7785028,44.4692982 96.1483757,42.1820175 95.2038789,40.2894737 C94.2571804,38.3969298 92.1920569,37.3179825 90.0939089,37.6074561 C59.2535558,41.8486842 36,68.4561404 36,99.5 C36,133.962719 64.1477666,162 98.7462924,162 C115.584315,162 131.391977,155.447368 143.26974,143.539474 C144.764643,142.039474 145.134516,139.752193 144.190019,137.859649 C143.234514,135.967105 141.187004,134.870614 139.080049,135.171053 L139.080049,135.171053 Z M98.7462924,152.131579 C69.6099965,152.131579 45.9073093,128.52193 45.9073093,99.5 C45.9073093,78.2039474 58.9012959,59.3837719 77.7538047,51.2105263 C72.0604043,60.754386 69.0243644,71.6754386 69.0243644,83.0526316 C69.0243644,115.236842 93.5768785,141.826754 125.01167,145.192982 C117.107839,149.723684 108.112002,152.131579 98.7462924,152.131579 Z M136.333333,65.2990967 C132.478489,56.9073488 123.978489,51.3833949 114.8,51.3833949 C101.654844,51.3833949 91,62.1966651 91,75.5372745 C91,86.115907 97.9118222,95.5520226 107.888178,98.6544542 C108.796356,98.8829576 141.313956,100.614368 141.656979,99.6911532 C141.674879,99.6173828 141.892262,96.2405994 141.656979,96.2405994 C140.479492,96.2405994 109.574092,95.5720638 108.909689,95.3173849 C100.290311,92.6765607 94.4,84.6252676 94.4,75.5372745 C94.4,64.148912 103.578489,54.8339491 114.8,54.8339491 C122.733333,54.8339491 129.988178,59.548173 133.276356,66.797404 L133.954844,68.1745586 C134.296356,68.9781543 135.2,69.3247433 135.996356,69.0977735 L137.466667,68.6361661 C138.823644,68.1745586 140.3,67.9475888 141.776356,67.9475888 C149.484533,67.9475888 155.717867,74.2736049 155.717867,82.0963947 C155.717867,89.9145838 149.366667,96.2405999 141.656978,96.2405999 C141.604332,96.2405999 141.63852,99.6911541 141.656978,99.6911541 C151.178489,99.6911541 159,91.7533458 159,82.0902604 C159,72.4348429 151.178489,64.4970346 141.656978,64.4970346 C139.845156,64.4970346 138.033333,64.7240043 136.333333,65.2990967 Z" id="Combined-Shape"></path>
        </g>
    </g>
</svg>