<?xml version="1.0" encoding="UTF-8" standalone="no"?>
<svg width="200px" height="200px" viewBox="0 0 200 200" version="1.1" xmlns="http://www.w3.org/2000/svg" xmlns:xlink="http://www.w3.org/1999/xlink">
    <!-- Generator: Sketch 3.8.3 (29802) - http://www.bohemiancoding.com/sketch -->
    <title>mostly_cloudy_night</title>
    <desc>Created with Sketch.</desc>
    <defs></defs>
    <g id="Page-1" stroke="none" stroke-width="1" fill="none" fill-rule="evenodd">
        <g id="mostly_cloudy_night" stroke="#000000" stroke-width="2" fill="#000000">
            <path d="M34.3834206,79.3084956 C34.8737603,52.4241531 56.7166359,30.7848837 83.59375,30.7848837 C102.575,30.7848837 120.153125,42.0934884 128.125,59.2730233 C131.640625,58.0956977 135.3875,57.6310465 139.134375,57.6310465 C158.825,57.6310465 175,73.8812791 175,93.6477907 C175,103.031314 171.360627,111.620143 165.432975,118.056899 C165.559915,119.279214 165.625,120.518928 165.625,121.772791 C165.625,141.555 149.45,157.805233 129.759375,157.805233 C127.88125,157.805233 126.24375,156.163256 126.24375,154.273256 C126.24375,152.383256 127.88125,150.741279 129.759375,150.741279 C145.703125,150.741279 158.8375,137.790698 158.8375,121.785349 C158.8375,105.770581 145.946875,92.82 130.00625,92.82 C126.953125,92.82 123.9,93.2846512 121.09375,94.2296512 L118.053125,95.1746512 C116.40625,95.6393023 114.5375,94.9297674 113.83125,93.2846512 L112.428125,90.4653488 C105.628125,75.6247674 90.625,65.9738372 74.21875,65.9738372 C51.0125,65.9738372 32.03125,85.0433721 32.03125,108.357558 C32.03125,126.962442 44.2125,143.445 62.0375,148.851279 C63.915625,149.563953 64.84375,151.441395 64.38125,153.328256 C63.671875,155.218256 61.803125,156.150698 59.925,155.682907 C39.29375,149.331628 25,130.01407 25,108.357558 C25,97.502013 28.4812461,87.4639091 34.3834206,79.3084956 Z M42.5313723,70.5182517 C46.9310306,51.8463071 63.7117675,37.8488372 83.59375,37.8488372 C100,37.8488372 115.003125,47.4997674 121.803125,62.3403488 L123.20625,65.1596512 C123.9125,66.8047674 125.78125,67.5143023 127.428125,67.0496512 L130.46875,66.1046512 C133.275,65.1596512 136.328125,64.695 139.38125,64.695 C155.321875,64.695 168.2125,77.6455814 168.2125,93.6603488 C168.2125,99.5077692 166.459396,104.947456 163.456673,109.496852 C158.417224,95.7021578 145.164186,85.7560465 129.759375,85.7560465 C126.0125,85.7560465 122.265625,86.2206977 118.75,87.3980233 C110.778125,70.2184884 93.2,58.9098837 74.21875,58.9098837 C62.148228,58.9098837 51.0930673,63.2743328 42.5313723,70.5182517 Z M120.116687,166.940424 C118.775321,168.288249 117.21582,169.444786 115.511563,170.422547 C112.10111,172.358664 108.093714,173.46335 103.980881,173.577018 C99.8666967,173.703468 95.6444233,172.842422 91.7886187,171.066489 C89.8568992,170.184962 88.0239276,169.065251 86.3282646,167.763325 C85.4805957,167.11352 84.6767064,166.405617 83.9029797,165.665929 C83.5188176,165.295706 83.1511177,164.908215 82.7851909,164.516539 L82.2498737,163.922003 L81.6752743,163.249561 L81.2793892,162.751124 L80.7525576,162.060163 C80.4281909,161.616998 80.1256138,161.188873 79.8290316,160.741804 C79.248216,159.845929 78.7086936,158.919066 78.2214737,157.966751 C77.2613728,156.057744 76.5055263,154.045261 75.9999959,151.982646 C74.9813255,147.859271 74.9227721,143.55059 75.8238144,139.5289 C76.7066716,135.506618 78.5498837,131.776728 81.0964932,128.790115 C82.3789865,127.303387 83.8116503,125.989166 85.390004,124.927572 C86.9609902,123.858356 88.65115,123.021096 90.4422648,122.526963 C89.6216345,124.191975 88.9050338,125.768385 88.3315405,127.327044 C87.764426,128.89189 87.3139152,130.412801 87.0120103,131.921485 C86.3833237,134.924248 86.2512183,137.81472 86.496216,140.543582 C86.7541047,143.274568 87.3883374,145.838542 88.3586637,148.195511 C88.846697,149.372019 89.4057022,150.504709 90.0575438,151.575555 C90.3757404,152.114819 90.7173328,152.64135 91.0838772,153.14942 C91.2614151,153.404655 91.4517231,153.666752 91.6328322,153.902596 L91.8802238,154.21806 L92.2809691,154.711879 L92.5289532,155.009158 L92.837204,155.365652 C93.0457598,155.600786 93.2645908,155.825032 93.4784532,156.053125 C93.9059484,156.513277 94.362726,156.940981 94.8271255,157.361317 C95.7566965,158.20188 96.7622704,158.967225 97.8267344,159.669988 C99.9599801,161.067037 102.360384,162.180982 104.992267,162.948367 C107.62859,163.702535 110.493184,164.115315 113.563739,164.061555 C115.101692,164.045318 116.684277,163.887437 118.325079,163.622995 C119.961505,163.344214 121.638015,162.936234 123.429021,162.44133 C122.60487,164.103689 121.459356,165.60186 120.116687,166.940424 Z" id="Combined-Shape"></path>
        </g>
    </g>
</svg>