<?xml version="1.0" encoding="UTF-8" standalone="no"?>
<svg width="200px" height="200px" viewBox="0 0 200 200" version="1.1" xmlns="http://www.w3.org/2000/svg" xmlns:xlink="http://www.w3.org/1999/xlink">
    <!-- Generator: Sketch 3.8.3 (29802) - http://www.bohemiancoding.com/sketch -->
    <title>mostly_sunny</title>
    <desc>Created with Sketch.</desc>
    <defs></defs>
    <g id="Page-1" stroke="none" stroke-width="1" fill="none" fill-rule="evenodd">
        <g id="mostly_sunny" stroke="#000000" stroke-width="3" fill="#000000">
            <path d="M101,139.871486 C113.629915,139.871486 123.871486,129.629915 123.871486,117 C123.871486,104.370085 113.629915,94.1285136 101,94.1285136 C88.3700845,94.1285136 78.1285136,104.370085 78.1285136,117 C78.1285136,129.629915 88.3700845,139.871486 101,139.871486 L101,139.871486 Z M101,98.2757399 C111.322889,98.2757399 119.72426,106.677111 119.72426,117 C119.72426,127.322889 111.322889,135.72426 101,135.72426 C90.6816286,135.72426 82.2757399,127.322889 82.2757399,117 C82.2757399,106.677111 90.6771109,98.2757399 101,98.2757399 Z M98.9233751,152.111376 L98.9233751,165.753251 C98.9233751,166.894717 99.8525104,167.823852 101,167.823852 C102.14749,167.823852 103.076625,166.894717 103.076625,165.747227 L103.076625,152.111376 C103.076625,150.971416 102.14749,150.036257 101,150.036257 C99.8525104,150.036257 98.9233751,150.965392 98.9233751,152.111376 Z M101,83.9637432 C102.14749,83.9637432 103.076625,83.0346079 103.076625,81.8886241 L103.076625,68.2527729 C103.076625,67.1052832 102.14749,66.1761479 101,66.1761479 C99.8525104,66.1761479 98.9233751,67.1052832 98.9233751,68.2527729 L98.9233751,81.8946477 C98.9233751,83.0346079 99.8525104,83.9637432 101,83.9637432 Z M52.2527729,119.076625 L65.8946477,119.076625 C67.0406315,119.076625 67.9697668,118.14749 67.9697668,117 C67.9697668,115.85251 67.0406315,114.923375 65.8946477,114.923375 L52.2527729,114.923375 C51.1052832,114.923375 50.1761479,115.85251 50.1761479,117 C50.1761479,118.14749 51.1052832,119.076625 52.2527729,119.076625 Z M149.747227,114.923375 L136.111376,114.923375 C134.965392,114.923375 134.036257,115.85251 134.036257,117 C134.036257,118.14749 134.965392,119.076625 136.111376,119.076625 L149.753251,119.076625 C150.894717,119.076625 151.823852,118.14749 151.823852,117 C151.823852,115.85251 150.894717,114.923375 149.747227,114.923375 Z M74.7056213,140.359395 L65.0588777,150.006139 C64.247202,150.817815 64.247202,152.129447 65.0588777,152.941122 C65.8705534,153.752798 67.1821853,153.752798 67.993861,152.941122 L77.6406046,143.294379 C78.4522804,142.482703 78.4522804,141.171071 77.6406046,140.359395 C76.8289289,139.553743 75.517297,139.553743 74.7056213,140.359395 Z M127.294379,93.6406046 L136.941122,83.993861 C137.752798,83.1821853 137.752798,81.8705534 136.941122,81.0588777 C136.129447,80.247202 134.817815,80.247202 134.006139,81.0588777 L124.359395,90.7056213 C123.54772,91.517297 123.54772,92.8289289 124.359395,93.6406046 C125.171071,94.4522804 126.482703,94.4522804 127.294379,93.6406046 Z M74.7056213,93.6406046 C75.517297,94.4522804 76.8289289,94.4522804 77.6406046,93.6406046 C78.4522804,92.8289289 78.4522804,91.517297 77.6406046,90.7056213 L67.993861,81.0649013 C67.1821853,80.2532255 65.8705534,80.2532255 65.0588777,81.0649013 C64.247202,81.876577 64.247202,83.1882089 65.0588777,83.9998846 L74.7056213,93.6406046 Z M124.359395,140.359395 C123.54772,141.171071 123.54772,142.482703 124.359395,143.294379 L134.006139,152.941122 C134.817815,153.746774 136.129447,153.746774 136.941122,152.941122 C137.752798,152.129447 137.752798,150.817815 136.941122,150.006139 L127.294379,140.359395 C126.482703,139.54772 125.171071,139.54772 124.359395,140.359395 Z M117.036303,43.9161801 C115.282447,43.9161801 113.52859,44.1324039 111.882979,44.6802682 C108.151463,36.6858312 99.9234043,31.4234112 91.0385638,31.4234112 C78.3139628,31.4234112 68,41.7247225 68,54.4337152 C68,64.5114978 74.6906915,73.5008566 84.3478723,76.4564023 C85.2269947,76.674087 86.1017287,76.2401784 86.4337766,75.3606735 C86.650266,74.4826295 86.2158245,73.6089685 85.3367021,73.2773279 C76.9930851,70.7615347 71.2912234,63.0914333 71.2912234,54.4337152 C71.2912234,43.5845395 80.1760638,34.7105975 91.0385638,34.7105975 C98.7180851,34.7105975 105.740824,39.2016245 108.923803,46.1076376 L109.580585,47.4195901 C109.91117,48.1851393 110.785904,48.5153189 111.556782,48.2990951 L112.980053,47.8593426 C114.293617,47.4195901 115.722739,47.2033663 117.151862,47.2033663 C124.613431,47.2033663 130.64734,53.2298745 130.64734,60.682291 C130.64734,68.1303247 124.499335,74.1568328 117.036303,74.1568328 C116.157181,74.1568328 115.390691,74.920921 115.390691,75.800426 C115.390691,76.6799309 116.157181,77.4440191 117.036303,77.4440191 C126.253191,77.4440191 133.824468,69.8820297 133.824468,60.6764472 C133.824468,51.4781695 126.253191,43.9161801 117.036303,43.9161801 Z" id="Combined-Shape"></path>
        </g>
    </g>
</svg>