<?xml version="1.0" encoding="UTF-8" standalone="no"?>
<svg width="200px" height="200px" viewBox="0 0 200 200" version="1.1" xmlns="http://www.w3.org/2000/svg" xmlns:xlink="http://www.w3.org/1999/xlink">
    <!-- Generator: Sketch 3.8.3 (29802) - http://www.bohemiancoding.com/sketch -->
    <title>partly_cloudy_day</title>
    <desc>Created with Sketch.</desc>
    <defs></defs>
    <g id="Page-1" stroke="none" stroke-width="1" fill="none" fill-rule="evenodd">
        <g id="partly_cloudy_day" stroke="#000000" stroke-width="4" fill="#000000">
            <path d="M57.457023,103.370349 C57.846697,81.9045564 75.2052735,64.6266901 96.5645695,64.6266901 C111.649007,64.6266901 125.618377,73.6560411 131.953642,87.3730341 C134.747517,86.4329989 137.725166,86.0619984 140.702815,86.0619984 C156.350993,86.0619984 169.205298,99.0369903 169.205298,114.819554 C169.205298,122.311825 166.313081,129.169572 161.602364,134.308997 C161.703243,135.284954 161.754967,136.274803 161.754967,137.275949 C161.754967,153.071047 148.900662,166.046038 133.252483,166.046038 C133.185266,166.046038 133.263758,164.734102 133.252485,163.376569 C133.24037,161.917651 133.144614,160.405827 133.252483,160.405827 C145.923013,160.405827 156.360927,150.065441 156.360927,137.285976 C156.360927,124.498991 146.116722,114.158605 133.448675,114.158605 C131.022351,114.158605 128.596026,114.529605 126.365894,115.28414 L123.949503,116.038675 C122.640728,116.409676 121.155629,115.843148 120.594371,114.529605 L119.479305,112.278534 C114.075331,100.429078 102.152318,92.7232964 89.1142384,92.7232964 C70.6721854,92.7232964 55.5877483,107.949359 55.5877483,126.564562 C55.5877483,141.419624 65.2682119,154.580116 79.4337748,158.896758 C80.4914127,159.299982 133.252485,160.40583 133.252485,160.40583 C133.252485,160.40583 133.345985,165.942672 133.252485,166.046037 C108.288752,166.046037 79.4337736,166.046037 77.7549669,164.351468 C61.3592715,159.280292 50,143.856195 50,126.564562 C50,117.896956 52.7665532,109.882036 57.457023,103.370349 Z M63.9322164,96.3517823 C67.4286336,81.4431754 80.7643186,70.266901 96.5645695,70.266901 C109.602649,70.266901 121.525662,77.9726825 126.929636,89.822139 L128.044702,92.0732098 C128.60596,93.3867523 130.09106,93.9532802 131.399834,93.5822796 L133.816225,92.8277447 C136.046358,92.0732098 138.472682,91.7022093 140.899007,91.7022093 C153.567053,91.7022093 163.811258,102.042596 163.811258,114.829581 C163.811258,119.498451 162.418063,123.841767 160.031793,127.47423 C156.026933,116.459862 145.494717,108.518394 133.252483,108.518394 C130.274834,108.518394 127.297185,108.889394 124.503311,109.829429 C118.168046,96.1124365 104.198675,87.0830855 89.1142384,87.0830855 C79.5217706,87.0830855 70.7362124,90.5678781 63.9322164,96.3517823 Z M86.1071429,58.9783168 C87.5009876,58.9783168 88.6295994,57.849705 88.6295994,56.4576894 L88.6295994,39.8943509 C88.6295994,38.5005062 87.5009876,37.3718944 86.1071429,37.3718944 C84.7132981,37.3718944 83.5846863,38.5005062 83.5846863,39.8943509 L83.5846863,56.4650062 C83.5846863,57.849705 84.7132981,58.9783168 86.1071429,58.9783168 Z M26.8943509,101.629599 L43.4650062,101.629599 C44.8570217,101.629599 45.9856335,100.500988 45.9856335,99.1071429 C45.9856335,97.7132981 44.8570217,96.5846863 43.4650062,96.5846863 L26.8943509,96.5846863 C25.5005062,96.5846863 24.3718944,97.7132981 24.3718944,99.1071429 C24.3718944,100.500988 25.5005062,101.629599 26.8943509,101.629599 Z M54.1676118,70.7327081 C55.1535466,71.7186429 56.7467733,71.7186429 57.7327081,70.7327081 C58.7186429,69.7467733 58.7186429,68.1535466 57.7327081,67.1676118 L46.0149006,55.4571211 C45.0289658,54.4711863 43.4357391,54.4711863 42.4498043,55.4571211 C41.4638696,56.4430559 41.4638696,58.0362826 42.4498043,59.0222174 L54.1676118,70.7327081 Z" id="Combined-Shape"></path>
        </g>
    </g>
</svg>