<?xml version="1.0" encoding="UTF-8" standalone="no"?>
<svg width="200px" height="200px" viewBox="0 0 200 200" version="1.1" xmlns="http://www.w3.org/2000/svg" xmlns:xlink="http://www.w3.org/1999/xlink">
    <!-- Generator: Sketch 3.8.3 (29802) - http://www.bohemiancoding.com/sketch -->
    <title>partyly_cloudy_night</title>
    <desc>Created with Sketch.</desc>
    <defs></defs>
    <g id="Page-1" stroke="none" stroke-width="1" fill="none" fill-rule="evenodd">
        <g id="partyly_cloudy_night" stroke="#000000" stroke-width="3" fill="#000000">
            <path d="M113.573693,147.889257 C112.554621,148.913236 111.369826,149.791888 110.075058,150.534719 C107.484046,152.005638 104.43952,152.844897 101.314892,152.931254 C98.1892373,153.027322 94.9814641,152.373162 92.052107,151.023939 C90.5845284,150.354219 89.1919712,149.503545 87.903731,148.514437 C87.2597345,148.020763 86.6489985,147.482951 86.0611777,146.92099 C85.7693196,146.639721 85.4899682,146.345334 85.2119639,146.047768 L84.8052692,145.596083 L84.3687308,145.085211 L84.0679664,144.706535 L83.6677185,144.181593 C83.4212884,143.84491 83.1914125,143.519652 82.9660912,143.180001 C82.5248302,142.499382 82.1149407,141.795219 81.7447868,141.07172 C81.0153727,139.621396 80.441136,138.09246 80.0570711,136.525436 C79.2831602,133.392799 79.2386757,130.11938 79.9232214,127.063995 C80.5939514,124.00816 81.9942886,121.174464 83.9290155,118.905455 C84.9033597,117.775948 85.9917924,116.7775 87.1909096,115.970979 C88.3844295,115.158667 89.6684887,114.522578 91.0292462,114.147172 C90.4057915,115.412126 89.861371,116.609767 89.4256729,117.793921 C88.994821,118.982776 88.6525559,120.138253 88.4231908,121.28444 C87.9455609,123.565718 87.8451969,125.761687 88.0313281,127.834876 C88.2272531,129.909679 88.7090964,131.857597 89.4462791,133.64825 C89.817051,134.542074 90.2417421,135.402608 90.7369634,136.216159 C90.9787058,136.625852 91.2382227,137.025871 91.5166961,137.411866 C91.6515764,137.605774 91.7961585,137.804897 91.9337518,137.984073 L92.1217018,138.22374 L92.4261587,138.598907 L92.6145587,138.824758 L92.8487451,139.095596 C93.0071904,139.274234 93.1734422,139.444599 93.3359191,139.617887 C93.6606986,139.967477 94.0077246,140.292415 94.3605413,140.611755 C95.066761,141.250354 95.8307222,141.831807 96.6394237,142.365714 C98.2601071,143.427089 100.083757,144.273383 102.083269,144.856386 C104.086153,145.429347 106.262462,145.742947 108.595244,145.702104 C109.763668,145.689769 110.965999,145.569823 112.21256,145.368919 C113.455797,145.157121 114.729486,144.847168 116.090161,144.471176 C115.464031,145.734114 114.593753,146.872315 113.573693,147.889257 Z M134.759375,71.7560465 C131.0125,71.7560465 127.265625,72.2206977 123.75,73.3980233 C115.778125,56.2184884 98.2,44.9098837 79.21875,44.9098837 C52.034375,44.9098837 30,67.0467442 30,94.3575581 C30,116.01407 44.29375,135.331628 64.925,141.682907 C66.803125,142.150698 68.671875,141.218256 69.38125,139.328256 C69.84375,137.441395 68.915625,135.563953 67.0375,134.851279 C49.2125,129.445 37.03125,112.962442 37.03125,94.3575581 C37.03125,71.0433721 56.0125,51.9738372 79.21875,51.9738372 C95.625,51.9738372 110.628125,61.6247674 117.428125,76.4653488 L118.83125,79.2846512 C119.5375,80.9297674 121.40625,81.6393023 123.053125,81.1746512 L126.09375,80.2296512 C128.9,79.2846512 131.953125,78.82 135.00625,78.82 C150.946875,78.82 163.8375,91.7705814 163.8375,107.785349 C163.8375,123.790698 150.703125,136.741279 134.759375,136.741279 C132.88125,136.741279 131.24375,138.383256 131.24375,140.273256 C131.24375,142.163256 132.88125,143.805233 134.759375,143.805233 C154.45,143.805233 170.625,127.555 170.625,107.772791 C170.625,88.0062791 154.45,71.7560465 134.759375,71.7560465 Z" id="Combined-Shape"></path>
        </g>
    </g>
</svg>