<?xml version="1.0" encoding="UTF-8" standalone="no"?>
<svg width="200px" height="200px" viewBox="0 0 200 200" version="1.1" xmlns="http://www.w3.org/2000/svg" xmlns:xlink="http://www.w3.org/1999/xlink">
    <!-- Generator: Sketch 3.8.3 (29802) - http://www.bohemiancoding.com/sketch -->
    <title>rain_snow</title>
    <desc>Created with Sketch.</desc>
    <defs></defs>
    <g id="Page-1" stroke="none" stroke-width="1" fill="none" fill-rule="evenodd">
        <g id="rain_snow" fill="#000000">
            <path d="M136.743333,59.4731163 C132.746667,59.4731163 128.75,59.9687442 125,61.2245581 C116.496667,42.8997209 97.7466667,30.8372093 77.5,30.8372093 C48.5033333,30.8372093 25,54.4498605 25,83.5813953 C25,106.681674 40.2466667,127.28707 62.2533333,134.061767 C64.2566667,134.560744 66.25,133.56614 67.0066667,131.55014 C67.5,129.537488 66.51,127.534884 64.5066667,126.774698 C45.4933333,121.008 32.5,103.426605 32.5,83.5813953 C32.5,58.7129302 52.7466667,38.372093 77.5,38.372093 C95,38.372093 111.003333,48.6664186 118.256667,64.4963721 L119.753333,67.5036279 C120.506667,69.2584186 122.5,70.0152558 124.256667,69.5196279 L127.5,68.5116279 C130.493333,67.5036279 133.75,67.008 137.006667,67.008 C154.01,67.008 167.76,80.8219535 167.76,97.9043721 C167.76,114.976744 153.75,128.790698 136.743333,128.790698 C134.74,128.790698 132.993333,130.54214 132.993333,132.55814 C132.993333,134.57414 134.74,136.325581 136.743333,136.325581 C157.746667,136.325581 175,118.992 175,97.8909767 C175,76.8066977 157.746667,59.4731163 136.743333,59.4731163 Z M87.5,111 C86.0033333,111 85,111.382427 85,111.952891 L85,128.152031 C85,128.722495 86.0033333,129.104921 87.5,129.104921 C88.9966667,129.104921 90,128.722495 90,128.152031 L90,111.952891 C90,111.382427 88.9966667,111 87.5,111 Z M105.5,144 C104.003333,144 103,144.382427 103,144.952891 L103,161.152031 C103,161.722495 104.003333,162.104921 105.5,162.104921 C106.996667,162.104921 108,161.722495 108,161.152031 L108,144.952891 C108,144.382427 106.996667,144 105.5,144 Z" id="Combined-Shape" stroke="#000000" stroke-width="2"></path>
            <polygon id="Page-1" points="122.934145 127.270061 122.041616 125.724073 119.113005 127.415495 113.78705 124.34145 119.113005 121.267405 122.03896 122.95617 122.931489 121.412839 120.897399 120.23741 124 118.445047 123.108135 116.901716 120.000221 118.694079 120.000221 116.335916 118.21782 116.335916 118.21782 119.724073 112.88456 122.803431 112.88456 116.644715 115.82114 114.950636 114.931267 113.407305 112.88456 114.587382 112.88456 111 111.102158 111 111.102158 114.582734 109.066076 113.407305 108.176204 114.953293 111.102158 116.642059 111.102158 122.790149 105.776868 119.716104 105.776868 116.335916 103.99181 116.335916 103.99181 118.68611 100.891865 116.896403 100 118.439734 103.104593 120.232097 101.065855 121.410183 101.958384 122.95617 104.889651 121.262092 110.220255 124.34145 104.889651 127.420808 101.953071 125.726729 101.063199 127.272717 103.104593 128.450802 100.002656 130.243165 100.894521 131.786497 103.99181 129.99679 103.99181 132.346984 105.776868 132.346984 105.776868 128.966796 111.102158 125.89275 111.102158 132.043498 108.17886 133.729607 109.068733 135.272939 111.102158 134.100166 111.102158 137.6829 112.88456 137.6829 112.88456 134.09751 114.925955 135.275595 115.818484 133.729607 112.88456 132.038185 112.88456 125.879469 118.21782 128.958827 118.21782 132.346984 120.000221 132.346984 120.000221 129.988821 123.108135 131.781184 123.997344 130.237853 120.897399 128.44549"></polygon>
            <polygon id="Page-1" points="89.934145 160.270061 89.0416159 158.724073 86.113005 160.415495 80.7870504 157.34145 86.113005 154.267405 89.0389596 155.95617 89.9314887 154.412839 87.897399 153.23741 91 151.445047 90.108135 149.901716 87.0002214 151.694079 87.0002214 149.335916 85.2178196 149.335916 85.2178196 152.724073 79.88456 155.803431 79.88456 149.644715 82.82114 147.950636 81.9312673 146.407305 79.88456 147.587382 79.88456 144 78.1021583 144 78.1021583 147.582734 76.0660764 146.407305 75.1762037 147.953293 78.1021583 149.642059 78.1021583 155.790149 72.7768677 152.716104 72.7768677 149.335916 70.9918096 149.335916 70.9918096 151.68611 67.891865 149.896403 67 151.439734 70.1045932 153.232097 68.065855 154.410183 68.9583841 155.95617 71.8896514 154.262092 77.2202546 157.34145 71.8896514 160.420808 68.9530714 158.726729 68.0631987 160.272717 70.1045932 161.450802 67.0026563 163.243165 67.8945213 164.786497 70.9918096 162.99679 70.9918096 165.346984 72.7768677 165.346984 72.7768677 161.966796 78.1021583 158.89275 78.1021583 165.043498 75.17886 166.729607 76.0687327 168.272939 78.1021583 167.100166 78.1021583 170.6829 79.88456 170.6829 79.88456 167.09751 81.9259546 168.275595 82.8184837 166.729607 79.88456 165.038185 79.88456 158.879469 85.2178196 161.958827 85.2178196 165.346984 87.0002214 165.346984 87.0002214 162.988821 90.108135 164.781184 90.9973437 163.237853 87.897399 161.44549"></polygon>
        </g>
    </g>
</svg>