<?xml version="1.0" encoding="UTF-8" standalone="no"?>
<svg width="200px" height="200px" viewBox="0 0 200 200" version="1.1" xmlns="http://www.w3.org/2000/svg" xmlns:xlink="http://www.w3.org/1999/xlink">
    <!-- Generator: Sketch 3.8.3 (29802) - http://www.bohemiancoding.com/sketch -->
    <title>rain</title>
    <desc>Created with Sketch.</desc>
    <defs></defs>
    <g id="Page-1" stroke="none" stroke-width="1" fill="none" fill-rule="evenodd">
        <g id="rain" stroke="#000000" stroke-width="2" fill="#000000">
            <path d="M82.5,97.9069767 C81.0033333,97.9069767 80,98.9149767 80,100.418605 L80,168.232558 C80,169.736186 81.0033333,170.744186 82.5,170.744186 C83.9966667,170.744186 85,169.736186 85,168.232558 L85,100.418605 C85,98.9149767 83.9966667,97.9069767 82.5,97.9069767 Z M100,97.9069767 C98.5033333,97.9069767 97.5,98.9149767 97.5,100.418605 L97.5,155.674419 C97.5,157.178047 98.5033333,158.186047 100,158.186047 C101.496667,158.186047 102.5,157.178047 102.5,155.674419 L102.5,100.418605 C102.5,98.9149767 101.496667,97.9069767 100,97.9069767 Z M117.5,97.9069767 C116.003333,97.9069767 115,98.9149767 115,100.418605 L115,143.116279 C115,144.619907 116.003333,145.627907 117.5,145.627907 C118.996667,145.627907 120,144.619907 120,143.116279 L120,100.418605 C120,98.9149767 118.996667,97.9069767 117.5,97.9069767 Z M136.743333,57.4731163 C132.746667,57.4731163 128.75,57.9687442 125,59.2245581 C116.496667,40.8997209 97.7466667,28.8372093 77.5,28.8372093 C48.5033333,28.8372093 25,52.4498605 25,81.5813953 C25,104.681674 40.2466667,125.28707 62.2533333,132.061767 C64.2566667,132.560744 66.25,131.56614 67.0066667,129.55014 C67.5,127.537488 66.51,125.534884 64.5066667,124.774698 C45.4933333,119.008 32.5,101.426605 32.5,81.5813953 C32.5,56.7129302 52.7466667,36.372093 77.5,36.372093 C95,36.372093 111.003333,46.6664186 118.256667,62.4963721 L119.753333,65.5036279 C120.506667,67.2584186 122.5,68.0152558 124.256667,67.5196279 L127.5,66.5116279 C130.493333,65.5036279 133.75,65.008 137.006667,65.008 C154.01,65.008 167.76,78.8219535 167.76,95.9043721 C167.76,112.976744 153.75,126.790698 136.743333,126.790698 C134.74,126.790698 132.993333,128.54214 132.993333,130.55814 C132.993333,132.57414 134.74,134.325581 136.743333,134.325581 C157.746667,134.325581 175,116.992 175,95.8909767 C175,74.8066977 157.746667,57.4731163 136.743333,57.4731163 Z" id="Combined-Shape"></path>
        </g>
    </g>
</svg>