<?xml version="1.0" encoding="UTF-8" standalone="no"?>
<svg width="200px" height="200px" viewBox="0 0 200 200" version="1.1" xmlns="http://www.w3.org/2000/svg" xmlns:xlink="http://www.w3.org/1999/xlink">
    <!-- Generator: Sketch 3.8.3 (29802) - http://www.bohemiancoding.com/sketch -->
    <title>scattered_thunderstorms_night</title>
    <desc>Created with Sketch.</desc>
    <defs></defs>
    <g id="Page-1" stroke="none" stroke-width="1" fill="none" fill-rule="evenodd">
        <g id="scattered_thunderstorms_night" stroke="#000000" stroke-width="2" fill="#000000">
            <path d="M138.468111,60.4555535 C134.338222,60.4555535 130.208333,60.9677023 126.333333,62.2653767 C117.546556,43.3297116 98.1715556,30.8651163 77.25,30.8651163 C47.2867778,30.8651163 23,55.2648558 23,85.3674419 C23,109.23773 38.7548889,130.529972 61.4951111,137.530493 C63.5652222,138.046102 65.625,137.018344 66.4068889,134.935144 C66.9166667,132.855405 65.8936667,130.786047 63.8235556,130.000521 C44.1764444,124.0416 30.75,105.874158 30.75,85.3674419 C30.75,59.6700279 51.6715556,38.6511628 77.25,38.6511628 C95.3333333,38.6511628 111.870111,49.2886326 119.365222,65.6462512 L120.911778,68.7537488 C121.690222,70.5670326 123.75,71.3490977 125.565222,70.8369488 L128.916667,69.7953488 C132.009778,68.7537488 135.375,68.2416 138.740222,68.2416 C156.310333,68.2416 170.518667,82.5160186 170.518667,100.167851 C170.518667,117.809302 156.041667,132.083721 138.468111,132.083721 C136.398,132.083721 134.593111,133.893544 134.593111,135.976744 C134.593111,138.059944 136.398,139.869767 138.468111,139.869767 C160.171556,139.869767 178,121.9584 178,100.154009 C178,78.3669209 160.171556,60.4555535 138.468111,60.4555535 Z M109.416667,127.737209 C107.870111,127.737209 106.833333,128.132384 106.833333,128.721863 L106.833333,155.307511 C106.833333,155.89699 107.870111,156.292164 109.416667,156.292164 C110.963222,156.292164 112,155.89699 112,155.307511 L112,128.721863 C112,128.132384 110.963222,127.737209 109.416667,127.737209 Z M121.416667,137.737209 C119.870111,137.737209 118.833333,138.132384 118.833333,138.721863 L118.833333,165.307511 C118.833333,165.89699 119.870111,166.292164 121.416667,166.292164 C122.963222,166.292164 124,165.89699 124,165.307511 L124,138.721863 C124,138.132384 122.963222,137.737209 121.416667,137.737209 Z M97.9001502,143.443326 L90.8151512,144.078606 L94.3108931,124.165195 L76.2673424,151.85801 L83.3549694,151.224936 L79.8163981,170.685915 L97.9001502,143.443326 Z M118.573693,109.889257 C117.554621,110.913236 116.369826,111.791888 115.075058,112.534719 C112.484046,114.005638 109.43952,114.844897 106.314892,114.931254 C103.189237,115.027322 99.9814641,114.373162 97.052107,113.023939 C95.5845284,112.354219 94.1919712,111.503545 92.903731,110.514437 C92.2597345,110.020763 91.6489985,109.482951 91.0611777,108.92099 C90.7693196,108.639721 90.4899682,108.345334 90.2119639,108.047768 L89.8052692,107.596083 L89.3687308,107.085211 L89.0679664,106.706535 L88.6677185,106.181593 C88.4212884,105.84491 88.1914125,105.519652 87.9660912,105.180001 C87.5248302,104.499382 87.1149407,103.795219 86.7447868,103.07172 C86.0153727,101.621396 85.441136,100.09246 85.0570711,98.5254363 C84.2831602,95.3927992 84.2386757,92.11938 84.9232214,89.0639952 C85.5939514,86.0081604 86.9942886,83.1744644 88.9290155,80.9054549 C89.9033597,79.7759483 90.9917924,78.7774996 92.1909096,77.9709785 C93.3844295,77.1586668 94.6684887,76.5225779 96.0292462,76.1471721 C95.4057915,77.412126 94.861371,78.6097667 94.4256729,79.7939211 C93.994821,80.9827759 93.6525559,82.138253 93.4231908,83.2844402 C92.9455609,85.5657184 92.8451969,87.7616868 93.0313281,89.834876 C93.2272531,91.9096785 93.7090964,93.8575972 94.4462791,95.6482497 C94.817051,96.5420735 95.2417421,97.4026084 95.7369634,98.2161589 C95.9787058,98.6258517 96.2382227,99.0258712 96.5166961,99.4118658 C96.6515764,99.6057743 96.7961585,99.8048966 96.9337518,99.9840734 L97.1217018,100.22374 L97.4261587,100.598907 L97.6145587,100.824758 L97.8487451,101.095596 C98.0071904,101.274234 98.1734422,101.444599 98.3359191,101.617887 C98.6606986,101.967477 99.0077246,102.292415 99.3605413,102.611755 C100.066761,103.250354 100.830722,103.831807 101.639424,104.365714 C103.260107,105.427089 105.083757,106.273383 107.083269,106.856386 C109.086153,107.429347 111.262462,107.742947 113.595244,107.702104 C114.763668,107.689769 115.965999,107.569823 117.21256,107.368919 C118.455797,107.157121 119.729486,106.847168 121.090161,106.471176 C120.464031,107.734114 119.593753,108.872315 118.573693,109.889257 Z" id="Combined-Shape"></path>
        </g>
    </g>
</svg>