<?xml version="1.0" encoding="UTF-8" standalone="no"?>
<svg width="200px" height="200px" viewBox="0 0 200 200" version="1.1" xmlns="http://www.w3.org/2000/svg" xmlns:xlink="http://www.w3.org/1999/xlink">
    <!-- Generator: Sketch 3.8.3 (29802) - http://www.bohemiancoding.com/sketch -->
    <title>scattered_thunderstorms_day</title>
    <desc>Created with Sketch.</desc>
    <defs></defs>
    <g id="Page-1" stroke="none" stroke-width="1" fill="none" fill-rule="evenodd">
        <g id="scattered_thunderstorms_day" stroke-width="2" fill="#000000">
            <path d="M138.468111,60.4555535 C134.338222,60.4555535 130.208333,60.9677023 126.333333,62.2653767 C117.546556,43.3297116 98.1715556,30.8651163 77.25,30.8651163 C47.2867778,30.8651163 23,55.2648558 23,85.3674419 C23,109.23773 38.7548889,130.529972 61.4951111,137.530493 C63.5652222,138.046102 65.625,137.018344 66.4068889,134.935144 C66.9166667,132.855405 65.8936667,130.786047 63.8235556,130.000521 C44.1764444,124.0416 30.75,105.874158 30.75,85.3674419 C30.75,59.6700279 51.6715556,38.6511628 77.25,38.6511628 C95.3333333,38.6511628 111.870111,49.2886326 119.365222,65.6462512 L120.911778,68.7537488 C121.690222,70.5670326 123.75,71.3490977 125.565222,70.8369488 L128.916667,69.7953488 C132.009778,68.7537488 135.375,68.2416 138.740222,68.2416 C156.310333,68.2416 170.518667,82.5160186 170.518667,100.167851 C170.518667,117.809302 156.041667,132.083721 138.468111,132.083721 C136.398,132.083721 134.593111,133.893544 134.593111,135.976744 C134.593111,138.059944 136.398,139.869767 138.468111,139.869767 C160.171556,139.869767 178,121.9584 178,100.154009 C178,78.3669209 160.171556,60.4555535 138.468111,60.4555535 L138.468111,60.4555535 Z" id="Fill-4" stroke="#152F64"></path>
            <path d="M138.468111,60.4555535 C134.338222,60.4555535 130.208333,60.9677023 126.333333,62.2653767 C117.546556,43.3297116 98.1715556,30.8651163 77.25,30.8651163 C47.2867778,30.8651163 23,55.2648558 23,85.3674419 C23,109.23773 38.7548889,130.529972 61.4951111,137.530493 C63.5652222,138.046102 65.625,137.018344 66.4068889,134.935144 C66.9166667,132.855405 65.8936667,130.786047 63.8235556,130.000521 C44.1764444,124.0416 30.75,105.874158 30.75,85.3674419 C30.75,59.6700279 51.6715556,38.6511628 77.25,38.6511628 C95.3333333,38.6511628 111.870111,49.2886326 119.365222,65.6462512 L120.911778,68.7537488 C121.690222,70.5670326 123.75,71.3490977 125.565222,70.8369488 L128.916667,69.7953488 C132.009778,68.7537488 135.375,68.2416 138.740222,68.2416 C156.310333,68.2416 170.518667,82.5160186 170.518667,100.167851 C170.518667,117.809302 156.041667,132.083721 138.468111,132.083721 C136.398,132.083721 134.593111,133.893544 134.593111,135.976744 C134.593111,138.059944 136.398,139.869767 138.468111,139.869767 C160.171556,139.869767 178,121.9584 178,100.154009 C178,78.3669209 160.171556,60.4555535 138.468111,60.4555535 Z M109.416667,127.737209 C107.870111,127.737209 106.833333,128.132384 106.833333,128.721863 L106.833333,155.307511 C106.833333,155.89699 107.870111,156.292164 109.416667,156.292164 C110.963222,156.292164 112,155.89699 112,155.307511 L112,128.721863 C112,128.132384 110.963222,127.737209 109.416667,127.737209 Z M121.416667,137.737209 C119.870111,137.737209 118.833333,138.132384 118.833333,138.721863 L118.833333,165.307511 C118.833333,165.89699 119.870111,166.292164 121.416667,166.292164 C122.963222,166.292164 124,165.89699 124,165.307511 L124,138.721863 C124,138.132384 122.963222,137.737209 121.416667,137.737209 Z M97.9001502,143.443326 L90.8151512,144.078606 L94.3108931,124.165195 L76.2673424,151.85801 L83.3549694,151.224936 L79.8163981,170.685915 L97.9001502,143.443326 Z" id="Combined-Shape" stroke="#000000"></path>
        </g>
    </g>
</svg>