<?xml version="1.0" encoding="UTF-8" standalone="no"?>
<svg width="200px" height="200px" viewBox="0 0 200 200" version="1.1" xmlns="http://www.w3.org/2000/svg" xmlns:xlink="http://www.w3.org/1999/xlink">
    <!-- Generator: Sketch 3.8.3 (29802) - http://www.bohemiancoding.com/sketch -->
    <title>snow_storm</title>
    <desc>Created with Sketch.</desc>
    <defs></defs>
    <g id="Page-1" stroke="none" stroke-width="1" fill="none" fill-rule="evenodd">
        <g id="snow_storm" fill="#000000">
            <path d="M111.712302,97.0503004 C110.367107,96.3942049 109.023439,96.8603569 108.364292,98.2118087 L84.1417376,147.875405 C83.4825905,149.226857 83.9425024,150.572674 85.2876975,151.228769 C86.6328926,151.884865 87.9765608,151.418713 88.6357079,150.067261 L112.858262,100.403664 C113.517409,99.0522126 113.057498,97.7063959 111.712302,97.0503004 Z M136.743333,59.4731163 C132.746667,59.4731163 128.75,59.9687442 125,61.2245581 C116.496667,42.8997209 97.7466667,30.8372093 77.5,30.8372093 C48.5033333,30.8372093 25,54.4498605 25,83.5813953 C25,106.681674 40.2466667,127.28707 62.2533333,134.061767 C64.2566667,134.560744 66.25,133.56614 67.0066667,131.55014 C67.5,129.537488 66.51,127.534884 64.5066667,126.774698 C45.4933333,121.008 32.5,103.426605 32.5,83.5813953 C32.5,58.7129302 52.7466667,38.372093 77.5,38.372093 C95,38.372093 111.003333,48.6664186 118.256667,64.4963721 L119.753333,67.5036279 C120.506667,69.2584186 122.5,70.0152558 124.256667,69.5196279 L127.5,68.5116279 C130.493333,67.5036279 133.75,67.008 137.006667,67.008 C154.01,67.008 167.76,80.8219535 167.76,97.9043721 C167.76,114.976744 153.75,128.790698 136.743333,128.790698 C134.74,128.790698 132.993333,130.54214 132.993333,132.55814 C132.993333,134.57414 134.74,136.325581 136.743333,136.325581 C157.746667,136.325581 175,118.992 175,97.8909767 C175,76.8066977 157.746667,59.4731163 136.743333,59.4731163 Z M130.959739,96.4148211 C129.614544,95.7587256 128.270876,96.2248777 127.611729,97.5763295 L108.894301,135.952745 C108.235154,137.304197 108.695065,138.650014 110.040261,139.306109 C111.385456,139.962205 112.729124,139.496053 113.388271,138.144601 L132.105699,99.7681852 C132.764846,98.4167334 132.304935,97.0709166 130.959739,96.4148211 Z M90.1790676,96.0732559 L74.3269622,128.574888 C73.975476,129.295542 74.6416372,130.218485 75.9868323,130.874581 C77.3320274,131.530676 78.4694462,131.487398 78.8209324,130.766744 L94.6730378,98.2651117 C95.024524,97.5444582 94.3583628,96.6215151 93.0131677,95.9654196 C91.6679726,95.3093241 90.5305538,95.3526024 90.1790676,96.0732559 Z" id="Combined-Shape" stroke="#000000"></path>
            <polygon id="Page-1" points="79.2006087 147.202546 78.531212 146.043055 76.3347537 147.311621 72.3402878 145.006087 76.3347537 142.700553 78.5292197 143.967128 79.1986165 142.809629 77.6730493 141.928058 80 140.583785 79.3311013 139.426287 77.000166 140.770559 77.000166 139.001937 75.6633647 139.001937 75.6633647 141.543055 71.66342 143.852573 71.66342 139.233536 73.865855 137.962977 73.1984505 136.805479 71.66342 137.690537 71.66342 135 70.3266187 135 70.3266187 137.68705 68.7995573 136.805479 68.1321527 137.96497 70.3266187 139.231544 70.3266187 143.842612 66.3326508 141.537078 66.3326508 139.001937 64.9938572 139.001937 64.9938572 140.764582 62.6688987 139.422302 62 140.579801 64.3284449 141.924073 62.7993913 142.807637 63.468788 143.967128 65.6672385 142.696569 69.6651909 145.006087 65.6672385 147.315606 63.4648035 146.045047 62.797399 147.204538 64.3284449 148.088102 62.0019923 149.432374 62.670891 150.589873 64.9938572 149.247593 64.9938572 151.010238 66.3326508 151.010238 66.3326508 148.475097 70.3266187 146.169563 70.3266187 150.782623 68.134145 152.047205 68.8015495 153.204704 70.3266187 152.325125 70.3266187 155.012175 71.66342 155.012175 71.66342 152.323132 73.194466 153.206696 73.8638628 152.047205 71.66342 150.778639 71.66342 146.159602 75.6633647 148.46912 75.6633647 151.010238 77.000166 151.010238 77.000166 149.241616 79.3311013 150.585888 79.9980077 149.42839 77.6730493 148.084117"></polygon>
            <polygon id="Page-1" points="93.2006087 167.202546 92.531212 166.043055 90.3347537 167.311621 86.3402878 165.006087 90.3347537 162.700553 92.5292197 163.967128 93.1986165 162.809629 91.6730493 161.928058 94 160.583785 93.3311013 159.426287 91.000166 160.770559 91.000166 159.001937 89.6633647 159.001937 89.6633647 161.543055 85.66342 163.852573 85.66342 159.233536 87.865855 157.962977 87.1984505 156.805479 85.66342 157.690537 85.66342 155 84.3266187 155 84.3266187 157.68705 82.7995573 156.805479 82.1321527 157.96497 84.3266187 159.231544 84.3266187 163.842612 80.3326508 161.537078 80.3326508 159.001937 78.9938572 159.001937 78.9938572 160.764582 76.6688987 159.422302 76 160.579801 78.3284449 161.924073 76.7993913 162.807637 77.468788 163.967128 79.6672385 162.696569 83.6651909 165.006087 79.6672385 167.315606 77.4648035 166.045047 76.797399 167.204538 78.3284449 168.088102 76.0019923 169.432374 76.670891 170.589873 78.9938572 169.247593 78.9938572 171.010238 80.3326508 171.010238 80.3326508 168.475097 84.3266187 166.169563 84.3266187 170.782623 82.134145 172.047205 82.8015495 173.204704 84.3266187 172.325125 84.3266187 175.012175 85.66342 175.012175 85.66342 172.323132 87.194466 173.206696 87.8638628 172.047205 85.66342 170.778639 85.66342 166.159602 89.6633647 168.46912 89.6633647 171.010238 91.000166 171.010238 91.000166 169.241616 93.3311013 170.585888 93.9980077 169.42839 91.6730493 168.084117"></polygon>
            <polygon id="Page-1" points="115.200609 157.202546 114.531212 156.043055 112.334754 157.311621 108.340288 155.006087 112.334754 152.700553 114.52922 153.967128 115.198616 152.809629 113.673049 151.928058 116 150.583785 115.331101 149.426287 113.000166 150.770559 113.000166 149.001937 111.663365 149.001937 111.663365 151.543055 107.66342 153.852573 107.66342 149.233536 109.865855 147.962977 109.19845 146.805479 107.66342 147.690537 107.66342 145 106.326619 145 106.326619 147.68705 104.799557 146.805479 104.132153 147.96497 106.326619 149.231544 106.326619 153.842612 102.332651 151.537078 102.332651 149.001937 100.993857 149.001937 100.993857 150.764582 98.6688987 149.422302 98 150.579801 100.328445 151.924073 98.7993913 152.807637 99.468788 153.967128 101.667239 152.696569 105.665191 155.006087 101.667239 157.315606 99.4648035 156.045047 98.797399 157.204538 100.328445 158.088102 98.0019923 159.432374 98.670891 160.589873 100.993857 159.247593 100.993857 161.010238 102.332651 161.010238 102.332651 158.475097 106.326619 156.169563 106.326619 160.782623 104.134145 162.047205 104.80155 163.204704 106.326619 162.325125 106.326619 165.012175 107.66342 165.012175 107.66342 162.323132 109.194466 163.206696 109.863863 162.047205 107.66342 160.778639 107.66342 156.159602 111.663365 158.46912 111.663365 161.010238 113.000166 161.010238 113.000166 159.241616 115.331101 160.585888 115.998008 159.42839 113.673049 158.084117"></polygon>
        </g>
    </g>
</svg>