<?xml version="1.0" encoding="UTF-8" standalone="no"?>
<svg width="200px" height="200px" viewBox="0 0 200 200" version="1.1" xmlns="http://www.w3.org/2000/svg" xmlns:xlink="http://www.w3.org/1999/xlink">
    <!-- Generator: Sketch 3.8.3 (29802) - http://www.bohemiancoding.com/sketch -->
    <title>snow</title>
    <desc>Created with Sketch.</desc>
    <defs></defs>
    <g id="Page-1" stroke="none" stroke-width="1" fill="none" fill-rule="evenodd">
        <g id="snow" fill="#000000">
            <path d="M136.743333,59.4731163 C132.746667,59.4731163 128.75,59.9687442 125,61.2245581 C116.496667,42.8997209 97.7466667,30.8372093 77.5,30.8372093 C48.5033333,30.8372093 25,54.4498605 25,83.5813953 C25,106.681674 40.2466667,127.28707 62.2533333,134.061767 C64.2566667,134.560744 66.25,133.56614 67.0066667,131.55014 C67.5,129.537488 66.51,127.534884 64.5066667,126.774698 C45.4933333,121.008 32.5,103.426605 32.5,83.5813953 C32.5,58.7129302 52.7466667,38.372093 77.5,38.372093 C95,38.372093 111.003333,48.6664186 118.256667,64.4963721 L119.753333,67.5036279 C120.506667,69.2584186 122.5,70.0152558 124.256667,69.5196279 L127.5,68.5116279 C130.493333,67.5036279 133.75,67.008 137.006667,67.008 C154.01,67.008 167.76,80.8219535 167.76,97.9043721 C167.76,114.976744 153.75,128.790698 136.743333,128.790698 C134.74,128.790698 132.993333,130.54214 132.993333,132.55814 C132.993333,134.57414 134.74,136.325581 136.743333,136.325581 C157.746667,136.325581 175,118.992 175,97.8909767 C175,76.8066977 157.746667,59.4731163 136.743333,59.4731163 L136.743333,59.4731163 Z" id="Fill-4" stroke="#000000" stroke-width="2"></path>
            <polygon id="Page-1" points="98.934145 127.270061 98.0416159 125.724073 95.113005 127.415495 89.7870504 124.34145 95.113005 121.267405 98.0389596 122.95617 98.9314887 121.412839 96.897399 120.23741 100 118.445047 99.108135 116.901716 96.0002214 118.694079 96.0002214 116.335916 94.2178196 116.335916 94.2178196 119.724073 88.88456 122.803431 88.88456 116.644715 91.82114 114.950636 90.9312673 113.407305 88.88456 114.587382 88.88456 111 87.1021583 111 87.1021583 114.582734 85.0660764 113.407305 84.1762037 114.953293 87.1021583 116.642059 87.1021583 122.790149 81.7768677 119.716104 81.7768677 116.335916 79.9918096 116.335916 79.9918096 118.68611 76.891865 116.896403 76 118.439734 79.1045932 120.232097 77.065855 121.410183 77.9583841 122.95617 80.8896514 121.262092 86.2202546 124.34145 80.8896514 127.420808 77.9530714 125.726729 77.0631987 127.272717 79.1045932 128.450802 76.0026563 130.243165 76.8945213 131.786497 79.9918096 129.99679 79.9918096 132.346984 81.7768677 132.346984 81.7768677 128.966796 87.1021583 125.89275 87.1021583 132.043498 84.17886 133.729607 85.0687327 135.272939 87.1021583 134.100166 87.1021583 137.6829 88.88456 137.6829 88.88456 134.09751 90.9259546 135.275595 91.8184837 133.729607 88.88456 132.038185 88.88456 125.879469 94.2178196 128.958827 94.2178196 132.346984 96.0002214 132.346984 96.0002214 129.988821 99.108135 131.781184 99.9973437 130.237853 96.897399 128.44549"></polygon>
            <polygon id="Page-1" points="122.934145 145.270061 122.041616 143.724073 119.113005 145.415495 113.78705 142.34145 119.113005 139.267405 122.03896 140.95617 122.931489 139.412839 120.897399 138.23741 124 136.445047 123.108135 134.901716 120.000221 136.694079 120.000221 134.335916 118.21782 134.335916 118.21782 137.724073 112.88456 140.803431 112.88456 134.644715 115.82114 132.950636 114.931267 131.407305 112.88456 132.587382 112.88456 129 111.102158 129 111.102158 132.582734 109.066076 131.407305 108.176204 132.953293 111.102158 134.642059 111.102158 140.790149 105.776868 137.716104 105.776868 134.335916 103.99181 134.335916 103.99181 136.68611 100.891865 134.896403 100 136.439734 103.104593 138.232097 101.065855 139.410183 101.958384 140.95617 104.889651 139.262092 110.220255 142.34145 104.889651 145.420808 101.953071 143.726729 101.063199 145.272717 103.104593 146.450802 100.002656 148.243165 100.894521 149.786497 103.99181 147.99679 103.99181 150.346984 105.776868 150.346984 105.776868 146.966796 111.102158 143.89275 111.102158 150.043498 108.17886 151.729607 109.068733 153.272939 111.102158 152.100166 111.102158 155.6829 112.88456 155.6829 112.88456 152.09751 114.925955 153.275595 115.818484 151.729607 112.88456 150.038185 112.88456 143.879469 118.21782 146.958827 118.21782 150.346984 120.000221 150.346984 120.000221 147.988821 123.108135 149.781184 123.997344 148.237853 120.897399 146.44549"></polygon>
            <polygon id="Page-1" points="89.934145 160.270061 89.0416159 158.724073 86.113005 160.415495 80.7870504 157.34145 86.113005 154.267405 89.0389596 155.95617 89.9314887 154.412839 87.897399 153.23741 91 151.445047 90.108135 149.901716 87.0002214 151.694079 87.0002214 149.335916 85.2178196 149.335916 85.2178196 152.724073 79.88456 155.803431 79.88456 149.644715 82.82114 147.950636 81.9312673 146.407305 79.88456 147.587382 79.88456 144 78.1021583 144 78.1021583 147.582734 76.0660764 146.407305 75.1762037 147.953293 78.1021583 149.642059 78.1021583 155.790149 72.7768677 152.716104 72.7768677 149.335916 70.9918096 149.335916 70.9918096 151.68611 67.891865 149.896403 67 151.439734 70.1045932 153.232097 68.065855 154.410183 68.9583841 155.95617 71.8896514 154.262092 77.2202546 157.34145 71.8896514 160.420808 68.9530714 158.726729 68.0631987 160.272717 70.1045932 161.450802 67.0026563 163.243165 67.8945213 164.786497 70.9918096 162.99679 70.9918096 165.346984 72.7768677 165.346984 72.7768677 161.966796 78.1021583 158.89275 78.1021583 165.043498 75.17886 166.729607 76.0687327 168.272939 78.1021583 167.100166 78.1021583 170.6829 79.88456 170.6829 79.88456 167.09751 81.9259546 168.275595 82.8184837 166.729607 79.88456 165.038185 79.88456 158.879469 85.2178196 161.958827 85.2178196 165.346984 87.0002214 165.346984 87.0002214 162.988821 90.108135 164.781184 90.9973437 163.237853 87.897399 161.44549"></polygon>
        </g>
    </g>
</svg>