<?xml version="1.0" encoding="UTF-8" standalone="no"?>
<svg width="200px" height="200px" viewBox="0 0 200 200" version="1.1" xmlns="http://www.w3.org/2000/svg" xmlns:xlink="http://www.w3.org/1999/xlink">
    <!-- Generator: Sketch 3.8.3 (29802) - http://www.bohemiancoding.com/sketch -->
    <title>sunny</title>
    <desc>Created with Sketch.</desc>
    <defs></defs>
    <g id="Page-1" stroke="none" stroke-width="1" fill="none" fill-rule="evenodd">
        <g id="sunny" stroke="#000000" fill="#000000">
            <path d="M100.5,135.25569 C119.692519,135.25569 135.25569,119.692519 135.25569,100.5 C135.25569,81.3074814 119.692519,65.7443099 100.5,65.7443099 C81.3074814,65.7443099 65.7443099,81.3074814 65.7443099,100.5 C65.7443099,119.692519 81.3074814,135.25569 100.5,135.25569 L100.5,135.25569 Z M100.5,72.0464676 C116.186743,72.0464676 128.953532,84.8132568 128.953532,100.5 C128.953532,116.186743 116.186743,128.953532 100.5,128.953532 C84.8201219,128.953532 72.0464676,116.186743 72.0464676,100.5 C72.0464676,84.8132568 84.8132568,72.0464676 100.5,72.0464676 Z M97.3443444,153.855522 L97.3443444,174.585822 C97.3443444,176.320403 98.7562657,177.732324 100.5,177.732324 C102.243734,177.732324 103.655656,176.320403 103.655656,174.576669 L103.655656,153.855522 C103.655656,152.12323 102.243734,150.702155 100.5,150.702155 C98.7562657,150.702155 97.3443444,152.114076 97.3443444,153.855522 Z M100.5,50.297845 C102.243734,50.297845 103.655656,48.8859237 103.655656,47.1444779 L103.655656,26.4233313 C103.655656,24.679597 102.243734,23.2676757 100.5,23.2676757 C98.7562657,23.2676757 97.3443444,24.679597 97.3443444,26.4233313 L97.3443444,47.1536313 C97.3443444,48.8859237 98.7562657,50.297845 100.5,50.297845 Z M26.4233313,103.655656 L47.1536313,103.655656 C48.8950772,103.655656 50.3069985,102.243734 50.3069985,100.5 C50.3069985,98.7562657 48.8950772,97.3443444 47.1536313,97.3443444 L26.4233313,97.3443444 C24.679597,97.3443444 23.2676757,98.7562657 23.2676757,100.5 C23.2676757,102.243734 24.679597,103.655656 26.4233313,103.655656 Z M174.576669,97.3443444 L153.855522,97.3443444 C152.114076,97.3443444 150.702155,98.7562657 150.702155,100.5 C150.702155,102.243734 152.114076,103.655656 153.855522,103.655656 L174.585822,103.655656 C176.320403,103.655656 177.732324,102.243734 177.732324,100.5 C177.732324,98.7562657 176.320403,97.3443444 174.576669,97.3443444 Z M60.5428559,135.99712 L45.8835886,150.656388 C44.6501598,151.889816 44.6501598,153.882983 45.8835886,155.116411 C47.1170175,156.34984 49.1101835,156.34984 50.3436124,155.116411 L65.0028796,140.457144 C66.2363084,139.223715 66.2363084,137.230549 65.0028796,135.99712 C63.7694508,134.772845 61.7762847,134.772845 60.5428559,135.99712 Z M140.457144,65.0028796 L155.116411,50.3436124 C156.34984,49.1101835 156.34984,47.1170175 155.116411,45.8835886 C153.882983,44.6501598 151.889816,44.6501598 150.656388,45.8835886 L135.99712,60.5428559 C134.763692,61.7762847 134.763692,63.7694508 135.99712,65.0028796 C137.230549,66.2363084 139.223715,66.2363084 140.457144,65.0028796 Z M60.5428559,65.0028796 C61.7762847,66.2363084 63.7694508,66.2363084 65.0028796,65.0028796 C66.2363084,63.7694508 66.2363084,61.7762847 65.0028796,60.5428559 L50.3436124,45.8927421 C49.1101835,44.6593133 47.1170175,44.6593133 45.8835886,45.8927421 C44.6501598,47.1261709 44.6501598,49.119337 45.8835886,50.3527658 L60.5428559,65.0028796 Z M135.99712,135.99712 C134.763692,137.230549 134.763692,139.223715 135.99712,140.457144 L150.656388,155.116411 C151.889816,156.340687 153.882983,156.340687 155.116411,155.116411 C156.34984,153.882983 156.34984,151.889816 155.116411,150.656388 L140.457144,135.99712 C139.223715,134.763692 137.230549,134.763692 135.99712,135.99712 Z" id="Combined-Shape"></path>
        </g>
    </g>
</svg>