<?xml version="1.0" encoding="UTF-8" standalone="no"?>
<svg width="200px" height="200px" viewBox="0 0 200 200" version="1.1" xmlns="http://www.w3.org/2000/svg" xmlns:xlink="http://www.w3.org/1999/xlink">
    <!-- Generator: Sketch 3.8.3 (29802) - http://www.bohemiancoding.com/sketch -->
    <title>thunderstorm</title>
    <desc>Created with Sketch.</desc>
    <defs></defs>
    <g id="Page-1" stroke="none" stroke-width="1" fill="none" fill-rule="evenodd">
        <g id="thunderstorm" stroke="#000000" stroke-width="2" fill="#000000">
            <path d="M136.743333,52.4731163 C132.746667,52.4731163 128.75,52.9687442 125,54.2245581 C116.496667,35.8997209 97.7466667,23.8372093 77.5,23.8372093 C48.5033333,23.8372093 25,47.4498605 25,76.5813953 C25,99.6816744 40.2466667,120.28707 62.2533333,127.061767 C64.2566667,127.560744 66.25,126.56614 67.0066667,124.55014 C67.5,122.537488 66.51,120.534884 64.5066667,119.774698 C45.4933333,114.008 32.5,96.4266047 32.5,76.5813953 C32.5,51.7129302 52.7466667,31.372093 77.5,31.372093 C95,31.372093 111.003333,41.6664186 118.256667,57.4963721 L119.753333,60.5036279 C120.506667,62.2584186 122.5,63.0152558 124.256667,62.5196279 L127.5,61.5116279 C130.493333,60.5036279 133.75,60.008 137.006667,60.008 C154.01,60.008 167.76,73.8219535 167.76,90.9043721 C167.76,107.976744 153.75,121.790698 136.743333,121.790698 C134.74,121.790698 132.993333,123.54214 132.993333,125.55814 C132.993333,127.57414 134.74,129.325581 136.743333,129.325581 C157.746667,129.325581 175,111.992 175,90.8909767 C175,69.8066977 157.746667,52.4731163 136.743333,52.4731163 Z M117.423568,123.977604 L104.069969,125.174961 L110.658641,87.6427451 L76.6506837,139.837355 L90.0092363,138.644155 L83.3398403,175.323641 L117.423568,123.977604 Z" id="Combined-Shape"></path>
        </g>
    </g>
</svg>