<?xml version="1.0" encoding="UTF-8" standalone="no"?>
<svg width="200px" height="200px" viewBox="0 0 200 200" version="1.1" xmlns="http://www.w3.org/2000/svg" xmlns:xlink="http://www.w3.org/1999/xlink">
    <!-- Generator: Sketch 3.8.3 (29802) - http://www.bohemiancoding.com/sketch -->
    <title>tornado</title>
    <desc>Created with Sketch.</desc>
    <defs></defs>
    <g id="Page-1" stroke="none" stroke-width="1" fill="none" fill-rule="evenodd">
        <g id="tornado" fill="#000000">
            <path d="M60.937561,46.2941463 C58.0997561,46.2941463 55.7946341,43.9921951 55.7946341,41.1543902 C55.7946341,38.3197561 58.0997561,36.0146341 60.937561,36.0146341 L139.200732,36.0146341 C142.038537,36.0146341 144.340488,38.3197561 144.340488,41.1543902 C144.340488,43.9921951 142.05122,46.2941463 139.200732,46.2941463 L60.937561,46.2941463 Z M125.503171,62.9785366 L64.3682927,62.9785366 C61.5304878,62.9785366 59.2253659,60.6765854 59.2253659,57.8387805 C59.2253659,55.0041463 61.5304878,52.6990244 64.3682927,52.6990244 L125.503171,52.6990244 C128.337805,52.6990244 130.642927,55.0041463 130.642927,57.8387805 C130.642927,60.6765854 128.337805,62.9785366 125.503171,62.9785366 Z M116.932683,79.6502439 L74.6478049,79.6502439 C71.81,79.6502439 69.5080488,77.345122 69.5080488,74.5104878 C69.5080488,71.6726829 71.81,69.3707317 74.6478049,69.3707317 L116.932683,69.3707317 C119.767317,69.3707317 122.072439,71.6726829 122.072439,74.5104878 C122.072439,77.345122 119.767317,79.6502439 116.932683,79.6502439 Z M113.501951,96.3219512 L88.3580488,96.3219512 C85.5202439,96.3219512 83.2182927,94.0168293 83.2182927,91.1821951 C83.2182927,88.3443902 85.5202439,86.042439 88.3580488,86.042439 L113.501951,86.042439 C116.336585,86.042439 118.641707,88.3443902 118.641707,91.1821951 C118.641707,94.0295122 116.336585,96.3219512 113.501951,96.3219512 Z M111.792927,113.006341 L93.4978049,113.006341 C90.66,113.006341 88.3580488,110.70122 88.3580488,107.863415 C88.3580488,105.02878 90.66,102.723659 93.4978049,102.723659 L111.792927,102.723659 C114.627561,102.723659 116.932683,105.02878 116.932683,107.863415 C116.932683,110.713902 114.627561,113.006341 111.792927,113.006341 Z M103.219268,129.674878 L88.3580488,129.674878 C85.5202439,129.674878 83.2182927,127.372927 83.2182927,124.535122 C83.2182927,121.700488 85.5202439,119.395366 88.3580488,119.395366 L103.219268,119.395366 C106.057073,119.395366 108.362195,121.700488 108.362195,124.535122 C108.362195,127.372927 106.057073,129.674878 103.219268,129.674878 Z M94.6487805,146.359268 L83.2056098,146.359268 C80.3678049,146.359268 78.0658537,144.057317 78.0658537,141.219512 C78.0658537,138.381707 80.3678049,136.079756 83.2056098,136.079756 L94.6487805,136.079756 C97.4865854,136.079756 99.7885366,138.381707 99.7885366,141.219512 C99.7885366,144.057317 97.4865854,146.359268 94.6487805,146.359268 Z M86.0782927,162.954878 L81.4965854,162.954878 C78.6587805,162.954878 76.3568293,160.652927 76.3568293,157.815122 C76.3568293,154.980488 78.6587805,152.675366 81.4965854,152.675366 L86.0782927,152.675366 C88.9160976,152.675366 91.2180488,154.980488 91.2180488,157.815122 C91.2307317,160.652927 88.9287805,162.954878 86.0782927,162.954878 Z"></path>
        </g>
    </g>
</svg>