<?xml version="1.0" encoding="utf-8"?>
<!-- Generator: Adobe Illustrator 22.0.1, SVG Export Plug-In . SVG Version: 6.00 Build 0)  -->
<svg version="1.1" id="Layer_1" xmlns="http://www.w3.org/2000/svg" xmlns:xlink="http://www.w3.org/1999/xlink" x="0px" y="0px"
	 width="200px" height="200px" viewBox="0 0 200 200" style="enable-background:new 0 0 200 200;" xml:space="preserve">
<title>sunny</title>
<desc>Created with Sketch.</desc>
<g>
	<path d="M88.911,118.466l-0.468-4.671c-1.088-9.691,2.264-20.331,11.186-31.106c8.087-9.629,12.573-16.589,12.573-24.626
		c0-9.229-5.702-15.417-17.146-15.499c-6.398,0-13.603,2.088-18.166,5.566l-4.327-11.344c6.107-4.337,16.273-7.25,25.8-7.25
		c20.628,0,30.089,12.816,30.089,26.538c0,12.129-6.874,21.039-15.528,31.15c-7.908,9.491-10.797,17.445-10.195,26.632l0.238,4.609
		H88.911z M84.955,143.633c0-6.619,4.44-11.316,10.696-11.33c6.387,0,10.575,4.711,10.615,11.33c0,6.242-4.175,11.177-10.696,11.177
		C89.247,154.81,84.86,149.875,84.955,143.633z"/>
</g>
</svg>
