<?xml version="1.0" encoding="UTF-8" standalone="no"?>
<svg width="200px" height="200px" viewBox="0 0 200 200" version="1.1" xmlns="http://www.w3.org/2000/svg" xmlns:xlink="http://www.w3.org/1999/xlink">
    <!-- Generator: Sketch 3.8.3 (29802) - http://www.bohemiancoding.com/sketch -->
    <title>windy</title>
    <desc>Created with Sketch.</desc>
    <defs></defs>
    <g id="Page-1" stroke="none" stroke-width="1" fill="none" fill-rule="evenodd">
        <g id="windy" fill="#000000">
            <path d="M58.3543756,49.0668323 C64.6016084,49.0668323 69.6793497,53.4309829 69.6793497,58.8002727 L84.4829644,58.8002727 C84.4829644,46.4206494 72.7582152,36.3641286 58.3543756,36.3641286 C41.3848149,36.3641286 27.5657212,48.2411822 27.5657212,62.825958 C27.5657212,80.1953797 43.9982705,94.318612 64.2018333,94.318612 L172.343846,94.3186131 L172.343846,81.5953963 L64.2257004,81.5953951 C52.1787444,81.5953951 42.3633691,73.1850462 42.3633691,62.8054449 C42.3633691,55.2361309 49.5414217,49.0668323 58.3543756,49.0668323 Z M151.442321,105.436683 L113.660585,105.436683 C93.4570218,105.436683 77.0244725,119.559915 77.0244725,136.924209 C77.0244725,151.529497 90.8435662,163.386038 107.813127,163.386038 C122.216966,163.386038 133.941716,153.334645 133.941716,140.949894 L119.138101,140.949894 C119.138101,146.319184 114.06036,150.66795 107.813127,150.66795 C99.000173,150.66795 91.8221204,144.498651 91.8221204,136.924209 C91.8221204,126.590762 101.613629,118.154771 113.684452,118.154771 L171.917853,118.154772 L171.917853,105.436683 L151.442321,105.436683 Z" id="Combined-Shape"></path>
        </g>
    </g>
</svg>