<svg xmlns="http://www.w3.org/2000/svg" viewBox="0 0 72 72">
    <style>.s{fill:#fff}</style>
    <path d="M60.627 1.8H11.373C6.095 1.8 1.8 6.002 1.8 11.181V60.82c0 5.179 4.288 9.381 9.573 9.381h49.254c5.285 0 9.573-4.202 9.573-9.381V11.181c.007-5.179-4.288-9.381-9.573-9.381m5.634 59.019c0 3.043-2.529 5.521-5.634 5.521H11.373c-3.106 0-5.634-2.478-5.634-5.521V11.181c0-3.043 2.529-5.521 5.634-5.521h49.254c3.106 0 5.634 2.478 5.634 5.521z" class="s"/>
    <polyline points="14,50 22,38 30,42 40,28 48,34 58,22" fill="none" stroke="#fff" stroke-width="3" stroke-linecap="round" stroke-linejoin="round"/>
    <circle cx="14" cy="50" r="2.5" class="s"/>
    <circle cx="22" cy="38" r="2.5" class="s"/>
    <circle cx="30" cy="42" r="2.5" class="s"/>
    <circle cx="40" cy="28" r="2.5" class="s"/>
    <circle cx="48" cy="34" r="2.5" class="s"/>
    <circle cx="58" cy="22" r="2.5" class="s"/>
</svg>
