<svg xmlns="http://www.w3.org/2000/svg" xml:space="preserve" width="72" height="72">
    <circle cx="36" cy="36" r="36" style="fill:#404040"/>
    <circle cx="36" cy="36" r="30.6" style="fill:gray"/>
    <path d="M34.066 9.531c-1.349.775-2.116 2.277-2.116 3.833v11.91a4.74 4.74 0 0 1-2.227 4.018L12.838 39.845a5.29 5.29 0 0 0-2.488 4.489V46.8l18.25-5.703a2.58 2.58 0 0 1 3.35 2.463V54.9l-4.364 3.273a2.59 2.59 0 0 0-1.036 2.073V63L36 60.3l9.45 2.7v-2.754c0-.816-.384-1.584-1.036-2.073L40.05 54.9V43.56a2.58 2.58 0 0 1 3.35-2.463L61.65 46.8v-2.466c0-1.825-.94-3.522-2.488-4.489L42.277 29.292a4.74 4.74 0 0 1-2.227-4.018V13.05c0-2.795-3.164-5.138-5.984-3.519"/>
</svg>
