<?xml version="1.0" encoding="utf-8"?>
<!-- Generator: Adobe Illustrator 18.1.1, SVG Export Plug-In . SVG Version: 6.00 Build 0)  -->
<svg version="1.1" id="Layer_2" xmlns="http://www.w3.org/2000/svg" xmlns:xlink="http://www.w3.org/1999/xlink" x="0px" y="0px"
	 viewBox="0 0 288 288" enable-background="new 0 0 288 288" xml:space="preserve">
<g>
	<path fill="#BCBEC0" d="M131.601,164.5l-0.4-5.2c-1.2-10.801,2.4-22.602,12.399-34.603c9-10.601,14-18.401,14-27.401
		c0-10.201-6.399-17.001-18.999-17.201c-7.2,0-15.2,2.4-20.2,6.2l-4.8-12.601c6.6-4.8,18-8,28.6-8c23,0,33.399,14.201,33.399,29.402
		c0,13.601-7.6,23.401-17.199,34.802c-8.8,10.401-12,19.201-11.4,29.402l0.2,5.2H131.601z M127.201,192.502
		c0-7.4,5-12.602,12-12.602s11.8,5.201,11.8,12.602c0,7-4.6,12.4-12,12.4C132,204.902,127.201,199.502,127.201,192.502z"/>
</g>
</svg>
