<?xml version="1.0" encoding="utf-8"?>
<!-- Generator: Adobe Illustrator 18.1.1, SVG Export Plug-In . SVG Version: 6.00 Build 0)  -->
<svg version="1.1" id="Layer_2" xmlns="http://www.w3.org/2000/svg" xmlns:xlink="http://www.w3.org/1999/xlink" x="0px" y="0px"
	 viewBox="0 0 288 288" enable-background="new 0 0 288 288" xml:space="preserve">
<circle opacity="0.15" fill="none" stroke="#FFFFFF" stroke-width="3" stroke-miterlimit="10" cx="144" cy="144" r="126"/>
<circle fill="none" cx="144" cy="144" r="124.342"/>
<line fill="none" stroke="#FFFFFF" stroke-width="2" stroke-linecap="round" stroke-miterlimit="10" x1="144" y1="21.684" x2="144" y2="41.579"/>
<line fill="none" stroke="#FFFFFF" stroke-width="2" stroke-linecap="round" stroke-miterlimit="10" x1="82.842" y1="38.071" x2="92.789" y2="55.301"/>
<line fill="none" stroke="#FFFFFF" stroke-width="2" stroke-linecap="round" stroke-miterlimit="10" x1="38.071" y1="82.842" x2="55.301" y2="92.789"/>
<line fill="none" stroke="#FFFFFF" stroke-width="2" stroke-linecap="round" stroke-miterlimit="10" x1="21.684" y1="144" x2="41.579" y2="144"/>
<line fill="none" stroke="#FFFFFF" stroke-width="2" stroke-linecap="round" stroke-miterlimit="10" x1="38.071" y1="205.158" x2="55.301" y2="195.211"/>
<line fill="none" stroke="#FFFFFF" stroke-width="2" stroke-linecap="round" stroke-miterlimit="10" x1="82.842" y1="249.929" x2="92.789" y2="232.699"/>
<line fill="none" stroke="#FFFFFF" stroke-width="2" stroke-linecap="round" stroke-miterlimit="10" x1="144" y1="266.316" x2="144" y2="246.421"/>
<line fill="none" stroke="#FFFFFF" stroke-width="2" stroke-linecap="round" stroke-miterlimit="10" x1="205.158" y1="249.929" x2="195.211" y2="232.699"/>
<line fill="none" stroke="#FFFFFF" stroke-width="2" stroke-linecap="round" stroke-miterlimit="10" x1="249.929" y1="205.158" x2="232.699" y2="195.211"/>
<line fill="none" stroke="#FFFFFF" stroke-width="2" stroke-linecap="round" stroke-miterlimit="10" x1="266.316" y1="144" x2="246.421" y2="144"/>
<line fill="none" stroke="#FFFFFF" stroke-width="2" stroke-linecap="round" stroke-miterlimit="10" x1="249.929" y1="82.842" x2="232.699" y2="92.789"/>
<line fill="none" stroke="#FFFFFF" stroke-width="2" stroke-linecap="round" stroke-miterlimit="10" x1="205.158" y1="38.071" x2="195.211" y2="55.301"/>
<line fill="none" stroke="#FFFFFF" stroke-linecap="round" stroke-miterlimit="10" x1="144" y1="21.684" x2="144" y2="34.496"/>
<line fill="none" stroke="#FFFFFF" stroke-linecap="round" stroke-miterlimit="10" x1="122.76" y1="23.542" x2="124.985" y2="36.159"/>
<line fill="none" stroke="#FFFFFF" stroke-linecap="round" stroke-miterlimit="10" x1="102.166" y1="29.061" x2="106.547" y2="41.1"/>
<line fill="none" stroke="#FFFFFF" stroke-linecap="round" stroke-miterlimit="10" x1="82.842" y1="38.071" x2="89.248" y2="49.167"/>
<line fill="none" stroke="#FFFFFF" stroke-linecap="round" stroke-miterlimit="10" x1="65.377" y1="50.301" x2="73.612" y2="60.115"/>
<line fill="none" stroke="#FFFFFF" stroke-linecap="round" stroke-miterlimit="10" x1="50.301" y1="65.377" x2="60.115" y2="73.612"/>
<line fill="none" stroke="#FFFFFF" stroke-linecap="round" stroke-miterlimit="10" x1="38.071" y1="82.842" x2="49.167" y2="89.248"/>
<line fill="none" stroke="#FFFFFF" stroke-linecap="round" stroke-miterlimit="10" x1="29.061" y1="102.166" x2="41.1" y2="106.547"/>
<line fill="none" stroke="#FFFFFF" stroke-linecap="round" stroke-miterlimit="10" x1="23.542" y1="122.76" x2="36.159" y2="124.985"/>
<line fill="none" stroke="#FFFFFF" stroke-linecap="round" stroke-miterlimit="10" x1="21.684" y1="144" x2="34.496" y2="144"/>
<line fill="none" stroke="#FFFFFF" stroke-linecap="round" stroke-miterlimit="10" x1="23.542" y1="165.24" x2="36.159" y2="163.015"/>
<line fill="none" stroke="#FFFFFF" stroke-linecap="round" stroke-miterlimit="10" x1="29.061" y1="185.834" x2="41.1" y2="181.453"/>
<line fill="none" stroke="#FFFFFF" stroke-linecap="round" stroke-miterlimit="10" x1="38.071" y1="205.158" x2="49.167" y2="198.752"/>
<line fill="none" stroke="#FFFFFF" stroke-linecap="round" stroke-miterlimit="10" x1="50.301" y1="222.623" x2="60.115" y2="214.388"/>
<line fill="none" stroke="#FFFFFF" stroke-linecap="round" stroke-miterlimit="10" x1="65.377" y1="237.699" x2="73.612" y2="227.885"/>
<line fill="none" stroke="#FFFFFF" stroke-linecap="round" stroke-miterlimit="10" x1="82.842" y1="249.929" x2="89.248" y2="238.833"/>
<line fill="none" stroke="#FFFFFF" stroke-linecap="round" stroke-miterlimit="10" x1="102.166" y1="258.939" x2="106.547" y2="246.9"/>
<line fill="none" stroke="#FFFFFF" stroke-linecap="round" stroke-miterlimit="10" x1="122.76" y1="264.458" x2="124.985" y2="251.841"/>
<line fill="none" stroke="#FFFFFF" stroke-linecap="round" stroke-miterlimit="10" x1="144" y1="266.316" x2="144" y2="253.504"/>
<line fill="none" stroke="#FFFFFF" stroke-linecap="round" stroke-miterlimit="10" x1="165.24" y1="264.458" x2="163.015" y2="251.841"/>
<line fill="none" stroke="#FFFFFF" stroke-linecap="round" stroke-miterlimit="10" x1="185.834" y1="258.939" x2="181.453" y2="246.9"/>
<line fill="none" stroke="#FFFFFF" stroke-linecap="round" stroke-miterlimit="10" x1="205.158" y1="249.929" x2="198.752" y2="238.833"/>
<line fill="none" stroke="#FFFFFF" stroke-linecap="round" stroke-miterlimit="10" x1="222.623" y1="237.699" x2="214.388" y2="227.885"/>
<line fill="none" stroke="#FFFFFF" stroke-linecap="round" stroke-miterlimit="10" x1="237.699" y1="222.623" x2="227.885" y2="214.388"/>
<line fill="none" stroke="#FFFFFF" stroke-linecap="round" stroke-miterlimit="10" x1="249.929" y1="205.158" x2="238.833" y2="198.752"/>
<line fill="none" stroke="#FFFFFF" stroke-linecap="round" stroke-miterlimit="10" x1="258.939" y1="185.834" x2="246.9" y2="181.453"/>
<line fill="none" stroke="#FFFFFF" stroke-linecap="round" stroke-miterlimit="10" x1="264.458" y1="165.24" x2="251.841" y2="163.015"/>
<line fill="none" stroke="#FFFFFF" stroke-linecap="round" stroke-miterlimit="10" x1="266.316" y1="144" x2="253.504" y2="144"/>
<line fill="none" stroke="#FFFFFF" stroke-linecap="round" stroke-miterlimit="10" x1="264.458" y1="122.76" x2="251.841" y2="124.985"/>
<line fill="none" stroke="#FFFFFF" stroke-linecap="round" stroke-miterlimit="10" x1="258.939" y1="102.166" x2="246.9" y2="106.547"/>
<line fill="none" stroke="#FFFFFF" stroke-linecap="round" stroke-miterlimit="10" x1="249.929" y1="82.842" x2="238.833" y2="89.248"/>
<line fill="none" stroke="#FFFFFF" stroke-linecap="round" stroke-miterlimit="10" x1="237.699" y1="65.377" x2="227.885" y2="73.612"/>
<line fill="none" stroke="#FFFFFF" stroke-linecap="round" stroke-miterlimit="10" x1="222.623" y1="50.301" x2="214.388" y2="60.115"/>
<line fill="none" stroke="#FFFFFF" stroke-linecap="round" stroke-miterlimit="10" x1="205.158" y1="38.071" x2="198.752" y2="49.167"/>
<line fill="none" stroke="#FFFFFF" stroke-linecap="round" stroke-miterlimit="10" x1="185.834" y1="29.061" x2="181.453" y2="41.1"/>
<line fill="none" stroke="#FFFFFF" stroke-linecap="round" stroke-miterlimit="10" x1="165.24" y1="23.542" x2="163.015" y2="36.159"/>
<g>
	<path fill="#F1F2F2" d="M50.594,153.945l-5.279-19.895h2.701l3.026,13.042c0.326,1.366,0.606,2.723,0.841,4.071
		c0.507-2.126,0.805-3.352,0.896-3.678l3.786-13.435h3.176l2.85,10.07c0.715,2.497,1.23,4.845,1.547,7.043
		c0.253-1.258,0.584-2.701,0.991-4.329l3.121-12.784h2.646l-5.455,19.895h-2.538l-4.193-15.159
		c-0.353-1.267-0.561-2.045-0.624-2.334c-0.208,0.914-0.403,1.692-0.584,2.334l-4.221,15.159H50.594z"/>
</g>
<g>
	<path fill="#F1F2F2" d="M136.457,234.726l2.402-0.21c0.114,0.962,0.379,1.752,0.795,2.369c0.416,0.617,1.06,1.115,1.935,1.496
		c0.875,0.381,1.859,0.571,2.953,0.571c0.971,0,1.828-0.144,2.572-0.433c0.744-0.289,1.298-0.685,1.661-1.188
		c0.363-0.503,0.544-1.052,0.544-1.647c0-0.604-0.175-1.131-0.525-1.581c-0.35-0.451-0.927-0.829-1.732-1.135
		c-0.516-0.201-1.658-0.514-3.425-0.938s-3.005-0.825-3.714-1.201c-0.919-0.481-1.602-1.078-2.053-1.791
		c-0.451-0.713-0.677-1.511-0.677-2.395c0-0.971,0.276-1.879,0.827-2.723c0.551-0.844,1.356-1.485,2.415-1.923
		s2.235-0.656,3.53-0.656c1.426,0,2.684,0.23,3.774,0.689c1.089,0.459,1.926,1.135,2.512,2.028c0.586,0.892,0.901,1.903,0.945,3.031
		l-2.441,0.184c-0.131-1.216-0.575-2.135-1.331-2.756c-0.757-0.621-1.875-0.932-3.354-0.932c-1.54,0-2.661,0.282-3.365,0.846
		c-0.704,0.564-1.057,1.245-1.057,2.041c0,0.691,0.249,1.26,0.748,1.706c0.49,0.446,1.77,0.903,3.839,1.371
		c2.069,0.468,3.488,0.877,4.258,1.227c1.12,0.516,1.947,1.17,2.48,1.962s0.801,1.704,0.801,2.736c0,1.024-0.293,1.988-0.879,2.894
		c-0.586,0.906-1.428,1.61-2.525,2.113c-1.098,0.503-2.334,0.755-3.708,0.755c-1.741,0-3.199-0.254-4.376-0.761
		s-2.1-1.271-2.769-2.29C136.845,237.164,136.492,236.012,136.457,234.726z"/>
</g>
<g>
	<path fill="#F1F2F2" d="M227.472,154.355v-19.895h14.385v2.348h-11.752v6.093h11.006v2.334h-11.006v6.772h12.213v2.348H227.472z"/>
</g>
<g>
	<path fill="#F1F2F2" d="M136.071,67.065V47.17h2.701l10.45,15.62V47.17h2.524v19.895h-2.701l-10.45-15.634v15.634H136.071z"/>
</g>
<polygon fill="#F1F2F2" points="139.026,268.342 144,258.395 148.974,268.342 "/>
<polygon fill="#F1F2F2" points="268.342,148.974 258.395,144 268.342,139.026 "/>
<polygon fill="#F1F2F2" points="148.974,19.658 144,29.605 139.026,19.658 "/>
<polygon fill="#F1F2F2" points="19.658,139.026 29.605,144 19.658,148.974 "/>
</svg>
