<?xml version="1.0" encoding="utf-8"?>
<!-- Generator: Adobe Illustrator 19.1.0, SVG Export Plug-In . SVG Version: 6.00 Build 0)  -->
<svg version="1.1" id="Layer_2" xmlns="http://www.w3.org/2000/svg" xmlns:xlink="http://www.w3.org/1999/xlink" x="0px" y="0px"
	 viewBox="-161 253 288 288" enable-background="new -161 253 288 288" xml:space="preserve">
<circle opacity="0.15" fill="none" stroke="#FFFFFF" stroke-width="3" stroke-miterlimit="10" enable-background="new    " cx="-17" cy="397" r="138.6"/>
<circle fill="none" cx="-17" cy="397" r="136.776"/>
<line fill="none" stroke="#FFFFFF" stroke-width="2" stroke-linecap="round" stroke-miterlimit="10" x1="-17" y1="262.452" x2="-17" y2="284.337"/>
<line fill="none" stroke="#FFFFFF" stroke-width="2" stroke-linecap="round" stroke-miterlimit="10" x1="-84.274" y1="280.478" x2="-73.332" y2="299.431"/>
<line fill="none" stroke="#FFFFFF" stroke-width="2" stroke-linecap="round" stroke-miterlimit="10" x1="-133.522" y1="329.726" x2="-114.569" y2="340.668"/>
<line fill="none" stroke="#FFFFFF" stroke-width="2" stroke-linecap="round" stroke-miterlimit="10" x1="-151.548" y1="397" x2="-129.663" y2="397"/>
<line fill="none" stroke="#FFFFFF" stroke-width="2" stroke-linecap="round" stroke-miterlimit="10" x1="-133.522" y1="464.274" x2="-114.569" y2="453.332"/>
<line fill="none" stroke="#FFFFFF" stroke-width="2" stroke-linecap="round" stroke-miterlimit="10" x1="-84.274" y1="513.522" x2="-73.332" y2="494.569"/>
<line fill="none" stroke="#FFFFFF" stroke-width="2" stroke-linecap="round" stroke-miterlimit="10" x1="-17" y1="531.548" x2="-17" y2="509.663"/>
<line fill="none" stroke="#FFFFFF" stroke-width="2" stroke-linecap="round" stroke-miterlimit="10" x1="50.274" y1="513.522" x2="39.332" y2="494.569"/>
<line fill="none" stroke="#FFFFFF" stroke-width="2" stroke-linecap="round" stroke-miterlimit="10" x1="99.522" y1="464.274" x2="80.569" y2="453.332"/>
<line fill="none" stroke="#FFFFFF" stroke-width="2" stroke-linecap="round" stroke-miterlimit="10" x1="117.548" y1="397" x2="95.663" y2="397"/>
<line fill="none" stroke="#FFFFFF" stroke-width="2" stroke-linecap="round" stroke-miterlimit="10" x1="99.522" y1="329.726" x2="80.569" y2="340.668"/>
<line fill="none" stroke="#FFFFFF" stroke-width="2" stroke-linecap="round" stroke-miterlimit="10" x1="50.274" y1="280.478" x2="39.332" y2="299.431"/>
<line fill="none" stroke="#FFFFFF" stroke-linecap="round" stroke-miterlimit="10" x1="-17" y1="262.452" x2="-17" y2="276.546"/>
<line fill="none" stroke="#FFFFFF" stroke-linecap="round" stroke-miterlimit="10" x1="-40.364" y1="264.496" x2="-37.917" y2="278.375"/>
<line fill="none" stroke="#FFFFFF" stroke-linecap="round" stroke-miterlimit="10" x1="-63.017" y1="270.567" x2="-58.198" y2="283.81"/>
<line fill="none" stroke="#FFFFFF" stroke-linecap="round" stroke-miterlimit="10" x1="-84.274" y1="280.478" x2="-77.227" y2="292.684"/>
<line fill="none" stroke="#FFFFFF" stroke-linecap="round" stroke-miterlimit="10" x1="-103.485" y1="293.931" x2="-94.427" y2="304.727"/>
<line fill="none" stroke="#FFFFFF" stroke-linecap="round" stroke-miterlimit="10" x1="-120.069" y1="310.515" x2="-109.273" y2="319.573"/>
<line fill="none" stroke="#FFFFFF" stroke-linecap="round" stroke-miterlimit="10" x1="-133.522" y1="329.726" x2="-121.316" y2="336.773"/>
<line fill="none" stroke="#FFFFFF" stroke-linecap="round" stroke-miterlimit="10" x1="-143.433" y1="350.983" x2="-130.19" y2="355.802"/>
<line fill="none" stroke="#FFFFFF" stroke-linecap="round" stroke-miterlimit="10" x1="-149.504" y1="373.636" x2="-135.625" y2="376.083"/>
<line fill="none" stroke="#FFFFFF" stroke-linecap="round" stroke-miterlimit="10" x1="-151.548" y1="397" x2="-137.454" y2="397"/>
<line fill="none" stroke="#FFFFFF" stroke-linecap="round" stroke-miterlimit="10" x1="-149.504" y1="420.364" x2="-135.625" y2="417.917"/>
<line fill="none" stroke="#FFFFFF" stroke-linecap="round" stroke-miterlimit="10" x1="-143.433" y1="443.017" x2="-130.19" y2="438.198"/>
<line fill="none" stroke="#FFFFFF" stroke-linecap="round" stroke-miterlimit="10" x1="-133.522" y1="464.274" x2="-121.316" y2="457.227"/>
<line fill="none" stroke="#FFFFFF" stroke-linecap="round" stroke-miterlimit="10" x1="-120.069" y1="483.485" x2="-109.273" y2="474.427"/>
<line fill="none" stroke="#FFFFFF" stroke-linecap="round" stroke-miterlimit="10" x1="-103.485" y1="500.069" x2="-94.427" y2="489.273"/>
<line fill="none" stroke="#FFFFFF" stroke-linecap="round" stroke-miterlimit="10" x1="-84.274" y1="513.522" x2="-77.227" y2="501.316"/>
<line fill="none" stroke="#FFFFFF" stroke-linecap="round" stroke-miterlimit="10" x1="-63.017" y1="523.433" x2="-58.198" y2="510.19"/>
<line fill="none" stroke="#FFFFFF" stroke-linecap="round" stroke-miterlimit="10" x1="-40.364" y1="529.504" x2="-37.917" y2="515.625"/>
<line fill="none" stroke="#FFFFFF" stroke-linecap="round" stroke-miterlimit="10" x1="-17" y1="531.548" x2="-17" y2="517.454"/>
<line fill="none" stroke="#FFFFFF" stroke-linecap="round" stroke-miterlimit="10" x1="6.364" y1="529.504" x2="3.916" y2="515.625"/>
<line fill="none" stroke="#FFFFFF" stroke-linecap="round" stroke-miterlimit="10" x1="29.017" y1="523.433" x2="24.198" y2="510.19"/>
<line fill="none" stroke="#FFFFFF" stroke-linecap="round" stroke-miterlimit="10" x1="50.274" y1="513.522" x2="43.227" y2="501.316"/>
<line fill="none" stroke="#FFFFFF" stroke-linecap="round" stroke-miterlimit="10" x1="69.485" y1="500.069" x2="60.427" y2="489.273"/>
<line fill="none" stroke="#FFFFFF" stroke-linecap="round" stroke-miterlimit="10" x1="86.069" y1="483.485" x2="75.273" y2="474.427"/>
<line fill="none" stroke="#FFFFFF" stroke-linecap="round" stroke-miterlimit="10" x1="99.522" y1="464.274" x2="87.316" y2="457.227"/>
<line fill="none" stroke="#FFFFFF" stroke-linecap="round" stroke-miterlimit="10" x1="109.433" y1="443.017" x2="96.19" y2="438.198"/>
<line fill="none" stroke="#FFFFFF" stroke-linecap="round" stroke-miterlimit="10" x1="115.504" y1="420.364" x2="101.625" y2="417.917"/>
<line fill="none" stroke="#FFFFFF" stroke-linecap="round" stroke-miterlimit="10" x1="117.548" y1="397" x2="103.454" y2="397"/>
<line fill="none" stroke="#FFFFFF" stroke-linecap="round" stroke-miterlimit="10" x1="115.504" y1="373.636" x2="101.625" y2="376.083"/>
<line fill="none" stroke="#FFFFFF" stroke-linecap="round" stroke-miterlimit="10" x1="109.433" y1="350.983" x2="96.19" y2="355.802"/>
<line fill="none" stroke="#FFFFFF" stroke-linecap="round" stroke-miterlimit="10" x1="99.522" y1="329.726" x2="87.316" y2="336.773"/>
<line fill="none" stroke="#FFFFFF" stroke-linecap="round" stroke-miterlimit="10" x1="86.069" y1="310.515" x2="75.273" y2="319.573"/>
<line fill="none" stroke="#FFFFFF" stroke-linecap="round" stroke-miterlimit="10" x1="69.485" y1="293.931" x2="60.427" y2="304.727"/>
<line fill="none" stroke="#FFFFFF" stroke-linecap="round" stroke-miterlimit="10" x1="50.274" y1="280.478" x2="43.227" y2="292.684"/>
<line fill="none" stroke="#FFFFFF" stroke-linecap="round" stroke-miterlimit="10" x1="29.017" y1="270.567" x2="24.198" y2="283.81"/>
<line fill="none" stroke="#FFFFFF" stroke-linecap="round" stroke-miterlimit="10" x1="6.364" y1="264.496" x2="3.916" y2="278.375"/>
<g>
	<path fill="#F1F2F2" d="M-119.747,407.94l-5.807-21.885h2.971l3.329,14.346c0.359,1.503,0.667,2.995,0.925,4.478
		c0.558-2.339,0.885-3.687,0.986-4.046l4.165-14.779h3.494l3.135,11.077c0.787,2.747,1.353,5.329,1.702,7.747
		c0.278-1.384,0.642-2.971,1.09-4.762l3.433-14.062h2.911l-6.001,21.885h-2.792l-4.612-16.675c-0.388-1.394-0.617-2.25-0.686-2.567
		c-0.229,1.005-0.443,1.861-0.642,2.567l-4.643,16.675L-119.747,407.94L-119.747,407.94z"/>
</g>
<g>
	<path fill="#F1F2F2" d="M-25.297,496.799l2.642-0.231c0.125,1.058,0.417,1.927,0.874,2.606s1.166,1.227,2.128,1.646
		c0.962,0.419,2.045,0.628,3.248,0.628c1.068,0,2.011-0.158,2.829-0.476c0.818-0.318,1.428-0.753,1.827-1.307
		c0.399-0.553,0.598-1.157,0.598-1.812c0-0.664-0.193-1.244-0.577-1.739c-0.385-0.496-1.02-0.912-1.905-1.248
		c-0.568-0.221-1.824-0.565-3.768-1.032s-3.306-0.908-4.085-1.321c-1.011-0.529-1.762-1.186-2.258-1.97
		c-0.496-0.784-0.745-1.662-0.745-2.635c0-1.068,0.304-2.067,0.91-2.995s1.492-1.634,2.656-2.115
		c1.165-0.482,2.459-0.722,3.883-0.722c1.569,0,2.952,0.253,4.151,0.758c1.198,0.505,2.119,1.248,2.763,2.231
		c0.645,0.981,0.991,2.093,1.04,3.334l-2.685,0.202c-0.144-1.338-0.632-2.349-1.464-3.032c-0.833-0.683-2.062-1.025-3.689-1.025
		c-1.694,0-2.927,0.31-3.702,0.931c-0.774,0.62-1.163,1.37-1.163,2.245c0,0.76,0.274,1.386,0.823,1.877
		c0.539,0.491,1.947,0.993,4.223,1.508s3.837,0.965,4.684,1.35c1.232,0.568,2.142,1.287,2.728,2.158
		c0.586,0.871,0.881,1.874,0.881,3.01c0,1.126-0.322,2.187-0.967,3.183c-0.645,0.997-1.571,1.771-2.777,2.324
		c-1.208,0.553-2.567,0.831-4.079,0.831c-1.915,0-3.519-0.279-4.814-0.837s-2.31-1.398-3.046-2.519
		C-24.87,499.48-25.259,498.213-25.297,496.799z"/>
</g>
<g>
	<path fill="#F1F2F2" d="M74.819,408.391v-21.885h15.823v2.583H77.715v6.702h12.107v2.567H77.715v7.449H91.15v2.583H74.819
		L74.819,408.391z"/>
</g>
<g>
	<path fill="#F1F2F2" d="M-25.722,312.371v-21.884h2.971l11.495,17.182v-17.182h2.776v21.884h-2.971l-11.495-17.197v17.197H-25.722z
		"/>
</g>
<polygon fill="#F1F2F2" points="-22.471,533.776 -17,522.834 -11.529,533.776 "/>
<polygon fill="#F1F2F2" points="119.776,402.471 108.834,397 119.776,391.529 "/>
<polygon fill="#F1F2F2" points="-11.529,260.224 -17,271.165 -22.471,260.224 "/>
<polygon fill="#F1F2F2" points="-153.776,391.529 -142.835,397 -153.776,402.471 "/>
</svg>
