<svg xmlns="http://www.w3.org/2000/svg" xml:space="preserve" viewBox="-161 253 288 288">
    <circle cx="-17" cy="397" r="138.6" fill="none" stroke="#FFF" stroke-miterlimit="10" stroke-width="3" opacity=".15"/>
    <circle cx="-17" cy="397" r="136.776" fill="none"/>
    <path fill="none" stroke="#FFF" stroke-linecap="round" stroke-miterlimit="10" stroke-width="2" d="M-17 262.452v21.885M-84.274 280.478l10.942 18.953M-133.522 329.726l18.953 10.942M-151.548 397h21.885M-133.522 464.274l18.953-10.942M-84.274 513.522l10.942-18.953M-17 531.548v-21.885M50.274 513.522l-10.942-18.953M99.522 464.274l-18.953-10.942M117.548 397H95.663M99.522 329.726l-18.953 10.942M50.274 280.478l-10.942 18.953"/>
    <path fill="none" stroke="#FFF" stroke-linecap="round" stroke-miterlimit="10" d="M-17 262.452v14.094M-40.364 264.496l2.447 13.879M-63.017 270.567l4.819 13.243M-84.274 280.478l7.047 12.206M-103.485 293.931l9.058 10.796M-120.069 310.515l10.796 9.058M-133.522 329.726l12.206 7.047M-143.433 350.983l13.243 4.819M-149.504 373.636l13.879 2.447M-151.548 397h14.094M-149.504 420.364l13.879-2.447M-143.433 443.017l13.243-4.819M-133.522 464.274l12.206-7.047M-120.069 483.485l10.796-9.058M-103.485 500.069l9.058-10.796M-84.274 513.522l7.047-12.206M-63.017 523.433l4.819-13.243M-40.364 529.504l2.447-13.879M-17 531.548v-14.094M6.364 529.504l-2.448-13.879M29.017 523.433l-4.819-13.243M50.274 513.522l-7.047-12.206M69.485 500.069l-9.058-10.796M86.069 483.485l-10.796-9.058M99.522 464.274l-12.206-7.047M109.433 443.017l-13.243-4.819M115.504 420.364l-13.879-2.447M117.548 397h-14.094M115.504 373.636l-13.879 2.447M109.433 350.983l-13.243 4.819M99.522 329.726l-12.206 7.047M86.069 310.515l-10.796 9.058M69.485 293.931l-9.058 10.796M50.274 280.478l-7.047 12.206M29.017 270.567l-4.819 13.243M6.364 264.496l-2.448 13.879"/>
    <path fill="#F1F2F2" d="m-119.747 407.94-5.807-21.885h2.971l3.329 14.346a74 74 0 0 1 .925 4.478q.836-3.508.986-4.046l4.165-14.779h3.494l3.135 11.077q1.18 4.12 1.702 7.747.417-2.076 1.09-4.762l3.433-14.062h2.911l-6.001 21.885h-2.792l-4.612-16.675q-.582-2.091-.686-2.567a53 53 0 0 1-.642 2.567l-4.643 16.675zM-25.297 496.799l2.642-.231q.188 1.587.874 2.606c.686 1.019 1.166 1.227 2.128 1.646q1.443.628 3.248.628 1.602 0 2.829-.476t1.827-1.307a3.03 3.03 0 0 0 .598-1.812q0-.996-.577-1.739t-1.905-1.248q-.852-.332-3.768-1.032c-2.916-.7-3.306-.908-4.085-1.321q-1.515-.794-2.258-1.97t-.745-2.635q0-1.602.91-2.995c.91-1.393 1.492-1.634 2.656-2.115q1.747-.723 3.883-.722 2.353 0 4.151.758 1.797.757 2.763 2.231.967 1.472 1.04 3.334l-2.685.202q-.216-2.007-1.464-3.032-1.249-1.025-3.689-1.025-2.54 0-3.702.931t-1.163 2.245q0 1.14.823 1.877.809.736 4.223 1.508c3.414.772 3.837.965 4.684 1.35q1.848.852 2.728 2.158t.881 3.01q0 1.689-.967 3.183-.968 1.495-2.777 2.324-1.811.83-4.079.831-2.872 0-4.814-.837c-1.942-.837-2.31-1.398-3.046-2.519q-1.106-1.686-1.164-3.806M74.819 408.391v-21.885h15.823v2.583H77.715v6.702h12.107v2.567H77.715v7.449H91.15v2.583zM-25.722 312.371v-21.884h2.971l11.495 17.182v-17.182h2.776v21.884h-2.971l-11.495-17.197v17.197zM-22.471 533.776-17 522.834l5.471 10.942zM119.776 402.471 108.834 397l10.942-5.471zM-11.529 260.224-17 271.165l-5.471-10.941zM-153.776 391.529l10.941 5.471-10.941 5.471z"/>
</svg>
