<?xml version="1.0" encoding="UTF-8" standalone="no"?>
<!DOCTYPE svg PUBLIC "-//W3C//DTD SVG 1.1//EN" "http://www.w3.org/Graphics/SVG/1.1/DTD/svg11.dtd">
<svg width="100%" height="100%" viewBox="0 0 2208 2206" version="1.1" xmlns="http://www.w3.org/2000/svg" xmlns:xlink="http://www.w3.org/1999/xlink" xml:space="preserve" xmlns:serif="http://www.serif.com/" style="fill-rule:evenodd;clip-rule:evenodd;stroke-linecap:round;stroke-linejoin:round;stroke-miterlimit:1.5;">
    <g transform="matrix(1,0,0,1,-5034.85,-4755.69)">
        <g transform="matrix(1,0,0,1,250.314,-42.4226)">
            <path d="M5560.71,5286.52C5656.05,5240.49 6127.64,5236.61 6222.13,5286.52C6239.05,5295.46 6150.12,4820.37 6127.64,4814.08C6066.59,4796.99 5702.17,4794.19 5655.2,4814.08C5628.67,4825.31 5549.48,5291.94 5560.71,5286.52Z" style="fill:rgb(36,107,0);stroke:rgb(35,31,32);stroke-width:4.17px;"/>
            <g transform="matrix(0.973048,0,0,0.945818,2065.36,461.616)">
                <path d="M4174.8,4601.8C4116.76,4584.7 3742.18,4581.43 3689.28,4601.8C3790.92,4805.06 3794.75,4956 3786.38,5201.2C3783.21,5294.13 3543.62,5301.1 3543.62,5301.1L3932.04,5700.71L4320.46,5301.1C4320.46,5301.1 4077.09,5300.39 4077.7,5201.2C4079.22,4953.5 4079.34,4800.2 4174.8,4601.8Z" style="fill:url(#_Linear1);stroke:rgb(35,31,32);stroke-width:4.34px;"/>
            </g>
        </g>
        <g transform="matrix(6.12323e-17,1,-1,6.12323e-17,12040,-32.0953)">
            <path d="M5560.71,5286.52C5656.05,5240.49 6127.64,5236.61 6222.13,5286.52C6239.05,5295.46 6150.12,4820.37 6127.64,4814.08C6066.59,4796.99 5702.17,4794.19 5655.2,4814.08C5628.67,4825.31 5549.48,5291.94 5560.71,5286.52Z" style="fill:rgb(107,36,0);stroke:rgb(35,31,32);stroke-width:4.17px;"/>
            <g transform="matrix(0.973048,0,0,0.945818,2065.36,461.616)">
                <path d="M4174.8,4601.8C4116.76,4584.7 3742.18,4581.43 3689.28,4601.8C3790.92,4805.06 3794.75,4956 3786.38,5201.2C3783.21,5294.13 3543.62,5301.1 3543.62,5301.1L3932.04,5700.71L4320.46,5301.1C4320.46,5301.1 4077.09,5300.39 4077.7,5201.2C4079.22,4953.5 4079.34,4800.2 4174.8,4601.8Z" style="fill:url(#_Linear2);stroke:rgb(35,31,32);stroke-width:4.34px;"/>
            </g>
        </g>
        <g transform="matrix(6.12323e-17,-1,1,6.12323e-17,236.743,11750.7)">
            <path d="M5560.71,5286.52C5656.05,5240.49 6127.64,5236.61 6222.13,5286.52C6239.05,5295.46 6150.12,4820.37 6127.64,4814.08C6066.59,4796.99 5702.17,4794.19 5655.2,4814.08C5628.67,4825.31 5549.48,5291.94 5560.71,5286.52Z" style="fill:rgb(107,36,0);stroke:rgb(35,31,32);stroke-width:4.17px;"/>
            <g transform="matrix(0.973048,0,0,0.945818,2065.36,461.616)">
                <path d="M4174.8,4601.8C4116.76,4584.7 3742.18,4581.43 3689.28,4601.8C3790.92,4805.06 3794.75,4956 3786.38,5201.2C3783.21,5294.13 3543.62,5301.1 3543.62,5301.1L3932.04,5700.71L4320.46,5301.1C4320.46,5301.1 4077.09,5300.39 4077.7,5201.2C4079.22,4953.5 4079.34,4800.2 4174.8,4601.8Z" style="fill:url(#_Linear3);stroke:rgb(35,31,32);stroke-width:4.34px;"/>
            </g>
        </g>
        <g transform="matrix(-1,-1.22465e-16,1.22465e-16,-1,12033.2,11759.2)">
            <path d="M5560.71,5286.52C5656.05,5240.49 6127.64,5236.61 6222.13,5286.52C6239.05,5295.46 6150.12,4820.37 6127.64,4814.08C6066.59,4796.99 5702.17,4794.19 5655.2,4814.08C5628.67,4825.31 5549.48,5291.94 5560.71,5286.52Z" style="fill:rgb(36,107,0);stroke:rgb(35,31,32);stroke-width:4.17px;"/>
            <g transform="matrix(0.973048,0,0,0.945818,2065.36,461.616)">
                <path d="M4174.8,4601.8C4116.76,4584.7 3742.18,4581.43 3689.28,4601.8C3790.92,4805.06 3794.75,4956 3786.38,5201.2C3783.21,5294.13 3543.62,5301.1 3543.62,5301.1L3932.04,5700.71L4320.46,5301.1C4320.46,5301.1 4077.09,5300.39 4077.7,5201.2C4079.22,4953.5 4079.34,4800.2 4174.8,4601.8Z" style="fill:url(#_Linear4);stroke:rgb(35,31,32);stroke-width:4.34px;"/>
            </g>
        </g>
    </g>
    <defs>
        <linearGradient id="_Linear1" x1="0" y1="0" x2="1" y2="0" gradientUnits="userSpaceOnUse" gradientTransform="matrix(-0.536407,-887.001,862.178,-0.55185,3932.58,5542.99)"><stop offset="0" style="stop-color:rgb(0,199,65);stop-opacity:1"/><stop offset="0.2" style="stop-color:rgb(0,180,70);stop-opacity:1"/><stop offset="0.42" style="stop-color:rgb(0,161,75);stop-opacity:1"/><stop offset="1" style="stop-color:rgb(0,152,77);stop-opacity:1"/></linearGradient>
        <linearGradient id="_Linear2" x1="0" y1="0" x2="1" y2="0" gradientUnits="userSpaceOnUse" gradientTransform="matrix(-0.536407,-887.001,862.178,-0.55185,3932.58,5542.99)"><stop offset="0" style="stop-color:rgb(199,0,65);stop-opacity:1"/><stop offset="0.2" style="stop-color:rgb(180,0,70);stop-opacity:1"/><stop offset="0.42" style="stop-color:rgb(161,0,75);stop-opacity:1"/><stop offset="1" style="stop-color:rgb(152,0,77);stop-opacity:1"/></linearGradient>
        <linearGradient id="_Linear3" x1="0" y1="0" x2="1" y2="0" gradientUnits="userSpaceOnUse" gradientTransform="matrix(-0.536407,-887.001,862.178,-0.55185,3932.58,5542.99)"><stop offset="0" style="stop-color:rgb(199,0,65);stop-opacity:1"/><stop offset="0.2" style="stop-color:rgb(180,0,70);stop-opacity:1"/><stop offset="0.42" style="stop-color:rgb(161,0,75);stop-opacity:1"/><stop offset="1" style="stop-color:rgb(152,0,77);stop-opacity:1"/></linearGradient>
        <linearGradient id="_Linear4" x1="0" y1="0" x2="1" y2="0" gradientUnits="userSpaceOnUse" gradientTransform="matrix(-0.536407,-887.001,862.178,-0.55185,3932.58,5542.99)"><stop offset="0" style="stop-color:rgb(0,199,65);stop-opacity:1"/><stop offset="0.2" style="stop-color:rgb(0,180,70);stop-opacity:1"/><stop offset="0.42" style="stop-color:rgb(0,161,75);stop-opacity:1"/><stop offset="1" style="stop-color:rgb(0,152,77);stop-opacity:1"/></linearGradient>
    </defs>
</svg>
