<svg xmlns="http://www.w3.org/2000/svg" xml:space="preserve" viewBox="-89 46 72 72">
    <circle cx="-53" cy="82" r="22.38" fill="none" stroke="#FFF" stroke-miterlimit="10" stroke-width="2"/>
    <path fill="#FFF" d="M-54.662 89.026a40 40 0 0 1-.018-.987q0-1.937.548-3.344.402-1.06 1.297-2.138.657-.786 2.365-2.293c1.708-1.507 1.878-1.806 2.219-2.403a3.9 3.9 0 0 0 .511-1.955q0-1.919-1.498-3.372t-3.671-1.453q-2.1 0-3.507 1.316t-1.845 4.112l-3.379-.402q.457-3.746 2.712-5.738t5.964-1.992q3.927 0 6.265 2.138t2.338 5.172q0 1.755-.822 3.235c-.822 1.48-1.619 2.187-3.215 3.6q-1.608 1.425-2.1 2.102a4.7 4.7 0 0 0-.731 1.553q-.237.877-.274 2.851h-3.159zm-.201 6.597v-3.746h3.744v3.746z"/>
</svg>
