<?xml version="1.0" encoding="utf-8"?>
<!-- Generator: Adobe Illustrator 19.1.0, SVG Export Plug-In . SVG Version: 6.00 Build 0)  -->
<svg version="1.1" id="Layer_1" xmlns="http://www.w3.org/2000/svg" xmlns:xlink="http://www.w3.org/1999/xlink" x="0px" y="0px"
	 viewBox="-89 46 72 72" enable-background="new -89 46 72 72" xml:space="preserve">
<circle fill="none" stroke="#FFFFFF" stroke-width="2" stroke-miterlimit="10" cx="-53" cy="82" r="22.38"/>
<g>
	<path fill="#FFFFFF" d="M-54.662,89.026c-0.012-0.439-0.018-0.768-0.018-0.987c0-1.291,0.183-2.406,0.548-3.344
		c0.268-0.707,0.7-1.419,1.297-2.138c0.438-0.524,1.227-1.288,2.365-2.293s1.878-1.806,2.219-2.403
		c0.341-0.597,0.511-1.249,0.511-1.955c0-1.279-0.499-2.403-1.498-3.372c-0.998-0.969-2.222-1.453-3.671-1.453
		c-1.4,0-2.569,0.439-3.507,1.316c-0.938,0.877-1.553,2.248-1.845,4.112l-3.379-0.402c0.304-2.497,1.209-4.41,2.712-5.738
		c1.504-1.328,3.492-1.992,5.964-1.992c2.618,0,4.706,0.713,6.265,2.138c1.559,1.425,2.338,3.149,2.338,5.172
		c0,1.17-0.274,2.248-0.822,3.235s-1.619,2.187-3.215,3.6c-1.072,0.95-1.772,1.651-2.1,2.102c-0.329,0.451-0.572,0.969-0.731,1.553
		c-0.158,0.585-0.25,1.535-0.274,2.851H-54.662z M-54.863,95.623v-3.746h3.744v3.746H-54.863z"/>
</g>
</svg>
