<svg xmlns="http://www.w3.org/2000/svg" xml:space="preserve" viewBox="-89 46 72 72">
    <path fill="none" stroke="#FF0" stroke-miterlimit="10" stroke-width="3" d="M-56.963 64.442a17.94 17.94 0 0 0-10.749 7.186c-5.728 8.125-3.785 19.355 4.339 25.083l.022.014"/>
    <path fill="#FF0" d="m-59.303 88.472-10.128 15.149 12.637-2.511z"/>
    <path fill="none" stroke="#FF0" stroke-miterlimit="10" stroke-width="3" d="M-49.038 99.558a17.94 17.94 0 0 0 10.749-7.186c5.728-8.125 3.785-19.355-4.339-25.083l-.022-.014"/>
    <path fill="#FF0" d="m-46.698 75.528 10.128-15.149-12.637 2.511zM-55.822 95.415c0-1.722 1.195-2.966 2.822-2.966 1.722 0 2.822 1.244 2.822 2.966 0 1.674-1.1 2.965-2.822 2.965-1.674-.001-2.822-1.292-2.822-2.965m1.196-6.84-.669-22.955h4.591l-.669 22.955z"/>
</svg>
