<?xml version="1.0" encoding="utf-8"?>
<!-- Uploaded to: SVG Repo, www.svgrepo.com, Generator: SVG Repo Mixer Tools --><!--
Vectors and icons by <a href="https://www.behance.net/thtamtrn?ref=svgrepo.com" target="_blank">Thtamtrn</a> in CC Attribution License via <a href="https://www.svgrepo.com/" target="_blank">SVG Repo</a>-->
<svg width="800px" height="800px" viewBox="0 0 1024 1024" class="icon"  version="1.1" xmlns="http://www.w3.org/2000/svg"><path d="M755.2 390.3c0-11-9-20-20-20H286.5c-11 0-20 9-20 20s9 20 20 20h448.7c11 0 20-9 20-20zM679.5 527.1c0-11-9-20-20-20h-373c-11 0-20 9-20 20s9 20 20 20h372.9c11.1 0 20.1-9 20.1-20zM286.5 645.6c-11 0-20 9-20 20s9 20 20 20H529c11 0 20-9 20-20s-9-20-20-20H286.5z" fill="#666666" /><path d="M367.8 920.6h-141v-818H800v293c0 11 9 20 20 20s20-9 20-20V94.4c0-17.5-14.3-31.8-31.9-31.8H218.6c-17.6 0-31.9 14.3-31.9 31.8v834.4c0 17.5 14.3 31.8 31.9 31.8h149.1c11 0 20-9 20-20s-8.9-20-19.9-20zM820 790.7c-11 0-20 9-20 20v109.8H691.3c-11 0-20 9-20 20s9 20 20 20h116.9c17.6 0 31.9-14.3 31.9-31.9v-118c-0.1-10.9-9-19.9-20.1-19.9zM943.8 532.4l-40.4-39.7c-4.6-4.3-9.9-7.6-15.7-10s-11.8-3.6-17.7-3.6c-6 0-12 1.2-18 3.6s-11.1 5.7-15.5 10L581.3 742.6l106.6 106.6 255.8-250.7c9.2-9.1 13.9-20.1 13.9-33.1 0-12.9-4.6-23.9-13.8-33zM510.7 811.8L472.2 938l-6.1 18.8L620 915.7l38.6-37.7L552 771.4z" fill="#666666" /><path d="M726.5 298.4h-429c-14.8 0-26.8-12-26.8-26.8v-81.4c0-14.8 12-26.8 26.8-26.8h429c14.8 0 26.8 12 26.8 26.8v81.4c0 14.8-12 26.8-26.8 26.8z" fill="#CCCCCC" /></svg>
