<svg xmlns="http://www.w3.org/2000/svg" width="78.389" height="80.079">
    <path d="M.095 40.463V.928L1.745 1c2.62.116 5.178.293 6.088.42.462.066 1.676.23 2.7.365 3.125.413 7.3 1.302 10.496 2.234 11.944 3.484 22.624 9.536 31.612 17.915 1.084 1.011 2.659 2.587 4.199 4.202 1.443 1.514 3.729 4.282 5.305 6.425 6.52 8.864 10.97 18.583 13.454 29.382 1.097 4.773 1.86 11.298 1.87 15.986l.005 2.07H.094Zm59.45 21.718c.364-.225.726-.587.95-.95l.364-.587.04-3.09c.049-3.725-.024-4.22-.734-4.99-.891-.967.29-.885-15.322-1.064-7.687-.088-14.651-.163-15.476-.167l-1.5-.006-.035-3.689c-.02-2.029-.058-4.985-.086-6.568a1982 1982 0 0 1-.124-11.577c-.082-9.696-.071-9.574-.859-10.342-.81-.79-.955-.815-4.695-.815-3.736 0-3.85.02-4.68.809-.308.294-.524.638-.62.99-.214.79-.085 39.923.134 40.583.083.25.339.647.57.884.847.873.033.815 12.495.885 6.17.035 15.216.062 20.104.06l8.887-.003z" style="stroke-width:.11996762;fill:none"/>
    <path d="M.095 40.463V.928L1.745 1c2.62.116 5.178.293 6.088.42.462.066 1.676.23 2.7.365 3.125.413 7.3 1.302 10.496 2.234 11.944 3.484 22.624 9.536 31.612 17.915 1.084 1.011 2.659 2.587 4.199 4.202 1.443 1.514 3.729 4.282 5.305 6.425 6.52 8.864 10.97 18.583 13.454 29.382 1.097 4.773 1.86 11.298 1.87 15.986l.005 2.07H.094Zm59.45 21.718c.364-.225.726-.587.95-.95l.364-.587.04-3.09c.049-3.725-.024-4.22-.734-4.99-.891-.967.29-.885-15.322-1.064-7.687-.088-14.651-.163-15.476-.167l-1.5-.006-.035-3.689c-.02-2.029-.058-4.985-.086-6.568a1982 1982 0 0 1-.124-11.577c-.082-9.696-.071-9.574-.859-10.342-.81-.79-.955-.815-4.695-.815-3.736 0-3.85.02-4.68.809-.308.294-.524.638-.62.99-.214.79-.085 39.923.134 40.583.083.25.339.647.57.884.847.873.033.815 12.495.885 6.17.035 15.216.062 20.104.06l8.887-.003z" style="fill:none;stroke-width:.11996762"/>
    <path d="M-.007 1.02V80.09h78.358C78.351 36.385 43.305 1.02-.007 1.02" style="opacity:.5;stroke-width:1.09325325"/>
    <path stroke-miterlimit="10" d="M26.424 7.552 10 36l16.424 28.448M45.212 7.552 28.788 36l16.424 28.448M64 7.552 47.576 36 64 64.448" style="fill:none;stroke:#fff;stroke-width:7;stroke-linecap:round;stroke-linejoin:round;stroke-miterlimit:10" transform="matrix(.82528 0 0 .64905 .945 30.7)"/>
</svg>
