<svg xmlns="http://www.w3.org/2000/svg" xml:space="preserve" viewBox="0 0 288 159.854">
    <g fill="#FFF">
        <path d="M139.992 1.979q1.48 0 2.312 1.056.993 1.251.993 4.146 0 2.889-1 4.152-.827 1.042-2.306 1.042-1.487 0-2.396-1.143c-.909-1.143-.91-2.119-.91-4.073q0-2.874 1-4.139.828-1.041 2.307-1.041m0 1.618a.97.97 0 0 0-.632.226q-.279.227-.431.81-.201.757-.202 2.549c-.001 1.792.061 2.015.181 2.462q.181.67.455.892a.97.97 0 0 0 .628.223q.354 0 .632-.226c.278-.226.329-.42.431-.81q.201-.75.201-2.541c0-1.791-.06-2.016-.18-2.462q-.181-.67-.455-.896a.95.95 0 0 0-.628-.227M147.902 1.979q1.478 0 2.312 1.056.993 1.251.993 4.146 0 2.889-1 4.152-.827 1.042-2.306 1.042-1.487 0-2.396-1.143c-.909-1.143-.909-2.119-.909-4.073q0-2.874 1-4.139.827-1.041 2.306-1.041m0 1.618a.97.97 0 0 0-.632.226q-.279.227-.431.81-.202.757-.202 2.549c0 1.792.061 2.015.181 2.462q.181.67.455.892a.97.97 0 0 0 .629.223.98.98 0 0 0 .632-.226q.277-.225.431-.81.201-.75.201-2.541c0-1.791-.061-2.016-.181-2.462q-.18-.67-.455-.896a.95.95 0 0 0-.628-.227M103.549 17.83l-1.886.505-1.903-7.103a6.7 6.7 0 0 1-2.051 2.081l-.459-1.711q.673-.438 1.357-1.345.685-.906.766-1.891l1.53-.41zM105.715 14.539l1.826-.697q.25.615.746.882.496.266 1.013.128.59-.157.87-.748.282-.588.022-1.554-.242-.905-.771-1.25-.526-.344-1.177-.17-.811.219-1.264 1.108l-1.589.188-.404-5.376 4.982-1.335.473 1.764-3.555.952.152 1.749a2.96 2.96 0 0 1 1.204-.66q1.254-.336 2.37.342 1.117.68 1.507 2.134a3.68 3.68 0 0 1-.124 2.355q-.61 1.56-2.314 2.015-1.361.364-2.416-.136-1.053-.502-1.551-1.691M62.435 33.332l1.521-1.143q.439.58.974.713a1.33 1.33 0 0 0 1.021-.148q.523-.302.652-.905.128-.603-.261-1.277-.368-.637-.926-.812a1.26 1.26 0 0 0-1.052.11 3.3 3.3 0 0 0-.702.575l-.609-1.485q.696-.377.875-.902.178-.523-.124-1.047-.257-.444-.674-.557-.417-.111-.857.142a1.17 1.17 0 0 0-.564.728q-.135.479.133 1.094l-1.71.634q-.299-.893-.247-1.561.05-.667.479-1.279a3.6 3.6 0 0 1 1.156-1.032q1.244-.719 2.454-.359.995.292 1.467 1.11.67 1.16-.199 2.585.851-.276 1.632.028.782.303 1.242 1.103.67 1.16.295 2.468c-.375 1.308-.797 1.55-1.639 2.037q-1.198.69-2.382.457-1.186-.238-1.955-1.277M68.441 21.181q1.28-.74 2.53-.242 1.484.586 2.933 3.094 1.444 2.501 1.21 4.096-.194 1.316-1.475 2.055-1.287.744-2.646.208c-1.359-.536-1.848-1.38-2.824-3.073q-1.437-2.489-1.203-4.084.194-1.315 1.475-2.054m.81 1.401q-.307.177-.435.511c-.128.334-.075.528.031.916q.204.756 1.1 2.309.896 1.55 1.388 2.041t.84.545a.96.96 0 0 0 .655-.122q.307-.177.435-.511c.128-.334.074-.528-.031-.917q-.202-.75-1.097-2.301-.896-1.552-1.388-2.042-.49-.49-.842-.548a.96.96 0 0 0-.656.119M37.132 57.907l-1.449-1.449-2.945 2.946-1.208-1.208-1.448-7.694 1.158-1.159 4.566 4.566.895-.894 1.213 1.212-.895.894 1.449 1.449zm-2.661-2.661-2.46-2.46.805 4.115zM38.188 53.149l1.232-1.518q.527.408 1.088.391c.561-.017.688-.143.94-.395q.431-.433.38-1.083t-.759-1.357q-.661-.663-1.291-.698-.628-.034-1.104.442-.593.594-.54 1.591l-1.281.958-3.041-4.454 3.648-3.648 1.293 1.292-2.604 2.603 1.007 1.438q.232-.692.712-1.173.918-.918 2.225-.889t2.371 1.095q.89.888 1.07 2.102.252 1.656-.996 2.902-.997.997-2.16 1.09-1.163.091-2.19-.689M9.122 82.787l-.764 1.74q-.54-.231-.926-.118-.387.114-.619.517-.31.535-.042 1.183.27.648 1.733 1.622-.38-1.062.16-2 .611-1.059 1.854-1.348 1.242-.289 2.517.447 1.353.781 1.713 2.048.359 1.265-.359 2.511-.77 1.335-2.305 1.596-1.534.262-3.897-1.103-2.423-1.4-2.977-2.914-.552-1.514.273-2.945.58-1.005 1.522-1.338.943-.335 2.117.102m1.475 5.96q.825.476 1.491.355t.948-.607q.27-.469.084-.994c-.186-.525-.465-.686-1.021-1.007q-.861-.495-1.455-.391a1.22 1.22 0 0 0-.886.611 1.22 1.22 0 0 0-.093 1.044q.186.557.932.989M9.227 77.539q.74-1.281 2.07-1.475 1.579-.234 4.087 1.213 2.5 1.444 3.096 2.942.488 1.237-.25 2.518-.744 1.287-2.188 1.503c-1.444.216-2.291-.272-3.982-1.249q-2.49-1.437-3.084-2.935-.49-1.236.251-2.517m1.401.809a.98.98 0 0 0-.121.66q.056.354.485.777.555.554 2.106 1.449c1.551.895 1.775.955 2.223 1.074q.67.179.999.052a.96.96 0 0 0 .507-.433q.177-.308.121-.66c-.056-.352-.199-.495-.486-.778q-.547-.55-2.1-1.445-1.551-.896-2.223-1.074-.668-.178-1.002-.054a.97.97 0 0 0-.509.432M179.98 16.633l-1.885-.505 1.903-7.103a6.7 6.7 0 0 1-2.817.775l.458-1.71q.802-.043 1.849-.486 1.045-.442 1.608-1.255l1.529.41zM183.502 14.866l1.93.309q-.09.659.207 1.137a1.337 1.337 0 0 0 1.941.405q.536-.369.796-1.335.242-.906-.042-1.468c-.284-.562-.502-.619-.936-.735q-.811-.219-1.647.328l-1.47-.632 2.337-4.858 4.983 1.335-.473 1.764-3.555-.952-.742 1.59a3 3 0 0 1 1.372.03 2.94 2.94 0 0 1 1.882 1.481q.627 1.147.237 2.602a3.68 3.68 0 0 1-1.284 1.979q-1.308 1.045-3.012.588-1.362-.365-2.024-1.326-.662-.963-.5-2.242M212.79 25.957l1.751.745q-.282.671-.131 1.2t.639.81q.523.301 1.109.112.588-.19.977-.864.368-.638.24-1.209a1.26 1.26 0 0 0-.62-.854 3.4 3.4 0 0 0-.849-.322l.98-1.27q.676.414 1.219.307.544-.107.846-.631.255-.444.145-.862-.111-.416-.551-.671-.433-.249-.913-.126c-.48.123-.614.303-.88.662l-1.404-1.163q.623-.707 1.228-.995a2.55 2.55 0 0 1 1.349-.225q.744.066 1.471.485 1.245.72 1.539 1.947.244 1.006-.228 1.824-.67 1.16-2.339 1.12.664.599.791 1.427.13.829-.334 1.627-.669 1.161-1.99 1.49-1.319.328-2.582-.401-1.198-.691-1.588-1.834t.125-2.329M226.316 25.083q1.281.74 1.476 2.07.235 1.578-1.214 4.087-1.444 2.5-2.941 3.096-1.236.488-2.518-.25-1.286-.744-1.504-2.188c-.218-1.444.272-2.291 1.25-3.982q1.436-2.49 2.935-3.084 1.236-.489 2.516.251m-.808 1.401a.98.98 0 0 0-.66-.121q-.353.056-.777.485-.553.555-1.449 2.106t-1.074 2.223q-.179.67-.051.999.126.332.432.507a.98.98 0 0 0 .66.121q.354-.056.778-.486.55-.547 1.444-2.1.897-1.551 1.074-2.223.179-.668.055-1.002a.97.97 0 0 0-.432-.509M245.948 52.988l1.448-1.449-2.945-2.945 1.207-1.208 7.694-1.448 1.159 1.158-4.566 4.566.894.895-1.212 1.213-.895-.895-1.449 1.449zm2.661-2.661 2.461-2.46-4.115.805zM250.706 54.044l1.518 1.232q-.407.527-.391 1.088c.016.561.144.688.396.94q.431.431 1.083.38t1.356-.759q.664-.661.698-1.291.033-.628-.442-1.104-.594-.593-1.591-.54l-.958-1.281 4.455-3.041 3.648 3.648-1.293 1.293-2.602-2.604-1.438 1.007q.692.232 1.173.712.918.918.889 2.225t-1.094 2.371a3.67 3.67 0 0 1-2.102 1.07q-1.657.252-2.902-.996-.997-.997-1.091-2.16-.092-1.163.688-2.19M278.184 81.583l-1.125-1.531q.47-.352.564-.743.096-.392-.137-.796-.31-.533-1.004-.627-.696-.091-2.271.691 1.11.2 1.652 1.139.609 1.058.24 2.278-.37 1.22-1.646 1.956-1.352.782-2.629.459-1.276-.321-1.995-1.566-.772-1.334-.229-2.793.54-1.46 2.903-2.824 2.424-1.4 4.012-1.121c1.588.279 1.863.756 2.414 1.709q.581 1.004.397 1.988-.18.983-1.146 1.781m-5.899-1.703q-.824.477-1.053 1.113-.23.639.052 1.125.271.469.818.57t1.383-.381q.86-.498 1.065-1.064a1.22 1.22 0 0 0-.086-1.074 1.23 1.23 0 0 0-.857-.603q-.576-.115-1.322.314M282.677 84.297q.74 1.28.242 2.53-.586 1.484-3.094 2.933-2.501 1.444-4.096 1.21-1.315-.194-2.056-1.475-.742-1.287-.208-2.646c.534-1.359 1.38-1.848 3.073-2.824q2.488-1.437 4.084-1.203 1.315.194 2.055 1.475m-1.402.81a.97.97 0 0 0-.512-.435q-.334-.128-.915.031-.756.204-2.309 1.1-1.55.896-2.041 1.388t-.545.84a.96.96 0 0 0 .122.655q.176.307.511.435c.335.128.528.074.917-.031q.75-.202 2.301-1.097 1.551-.896 2.041-1.388.49-.49.549-.842a.95.95 0 0 0-.119-.656"/>
    </g>
    <path fill="none" d="M0 153.455h288v6.4H0z"/>
    <g fill="none" stroke="#FFF">
        <path stroke-width="4" d="M144.1 23.855v-7.5M108.9 28.455l-1.9-7.2M76.1 41.955l-3.7-6.5M47.9 63.555l-5.2-5.2M26.3 91.755l-6.5-3.7M179.3 28.455l1.9-7.2M212.1 42.155l3.7-6.5M240.3 63.755l5.2-5.2M261.9 91.955l6.5-3.7"/>
        <path stroke-linecap="round" stroke-linejoin="bevel" stroke-width="2" d="M262.4 92.955c-11.6-20.6-28.6-37.9-48.9-50s-44.1-19.1-69.5-19.1-49.2 6.9-69.4 19-37.2 29.3-48.9 50"/>
    </g>
</svg>
