<?xml version="1.0" encoding="UTF-8"?>
<svg id="Capa_2" data-name="Capa 2" xmlns="http://www.w3.org/2000/svg" viewBox="0 0 72 72">
  <defs>
    <style>
      .cls-1 {
        fill: #fff;
      }
    </style>
  </defs>
  <g id="Capa_5" data-name="Capa 5">
    <g>
      <path class="cls-1" d="m11.79,71.69L.15,56.33c-.26-.34-.19-.82.15-1.07l3.03-2.26c.34-.25.82-.19,1.08.15l11.63,15.36c.26.34.19.82-.15,1.07l-3.03,2.26c-.34.25-.82.19-1.08-.15Z"/>
      <path class="cls-1" d="m71.34,37.98c-1.59-1.68-3.97-.12-4.27.09l-15.92,13.82c-.88.94-2.01,1.38-2.77,1.49-.04,0-.08,0-.12,0h-13.56c-.47,0-.86-.38-.86-.85s.38-.85.86-.85h13.49c.17-.03.63-.14,1.12-.45,0,0,.02-.01.02-.02l.64-.56c.44-.52.78-1.28.78-2.41,0-2.83-2.28-3.21-2.68-3.26-.8,0-11.5.07-12.52.07-1.21,0-2.74-.63-2.91-.71-.03-.01-.05-.02-.08-.04,0,0-1.79-1-2.65-1.49-.58-.33-1.3-.25-1.31-.25-.04,0-.08,0-.12,0h-10.71c-2.79,0-4.07,1.47-4.12,1.53-.02.02-.04.05-.06.07l-7.67,7.48,12,15.83,2.66-2.19c.15-.13.35-.2.55-.2h29.15c.69-.09,2.15-.47,2.52-1.12.72-1.28,15.14-17.68,18.13-21.07.23-.34,2.03-3.22.41-4.92Z"/>
      <path class="cls-1" d="m52.55,13.89h-1.2c-.48,0-.9-.31-1.04-.77-.29-.96-.67-1.88-1.14-2.74-.23-.42-.15-.93.18-1.27l.85-.84c.42-.42.42-1.1,0-1.52l-3.37-3.35c-.42-.42-1.11-.42-1.53,0l-.85.84c-.34.34-.86.41-1.28.18-.87-.47-1.8-.85-2.76-1.13-.46-.14-.78-.55-.78-1.03v-1.19c0-.59-.48-1.07-1.08-1.07h-4.77c-.6,0-1.08.48-1.08,1.07v1.19c0,.48-.32.89-.78,1.03-.97.29-1.89.67-2.76,1.13-.42.23-.94.15-1.28-.18l-.85-.84c-.42-.42-1.11-.42-1.53,0l-3.37,3.35c-.42.42-.42,1.1,0,1.52l.85.84c.34.34.41.85.18,1.27-.47.87-.85,1.78-1.14,2.74-.14.46-.56.77-1.04.77h-1.2c-.6,0-1.08.48-1.08,1.07v4.73c0,.59.48,1.07,1.08,1.07h1.2c.48,0,.9.31,1.04.77.29.96.67,1.88,1.14,2.74.23.42.15.93-.18,1.27l-.85.84c-.42.42-.42,1.1,0,1.52l3.37,3.35c.42.42,1.11.42,1.53,0l.85-.84c.34-.34.86-.41,1.28-.18.87.47,1.8.85,2.76,1.13.46.14.78.55.78,1.03v1.19c0,.59.48,1.07,1.08,1.07h4.77c.6,0,1.08-.48,1.08-1.07v-1.19c0-.48.32-.89.78-1.03.97-.29,1.89-.67,2.76-1.13.42-.23.94-.15,1.28.18l.85.84c.42.42,1.11.42,1.53,0l3.37-3.35c.42-.42.42-1.1,0-1.52l-.85-.84c-.34-.34-.41-.85-.18-1.27.47-.87.85-1.78,1.14-2.74.14-.46.56-.77,1.04-.77h1.2c.6,0,1.08-.48,1.08-1.07v-4.73c0-.59-.48-1.07-1.08-1.07Zm-8.47,3.44c0,4.33-3.54,7.84-7.91,7.84s-7.91-3.51-7.91-7.84,3.54-7.84,7.91-7.84,7.91,3.51,7.91,7.84Z"/>
    </g>
  </g>
</svg>