<?xml version="1.0" encoding="UTF-8"?>
<svg id="Capa_2" data-name="Capa 2" xmlns="http://www.w3.org/2000/svg" viewBox="0 0 72 74">
  <defs>
    <style>
      .cls-1 {
        fill: #fff;
      }

      .cls-2 {
        fill: #ff1dbc;
      }

      .cls-3 {
        opacity: 0;
      }

      .cls-4 {
        fill: #1aeb00;
      }
    </style>
  </defs>
  <g id="Capa_5" data-name="Capa 5">
    <g>
      <g>
        <path class="cls-4" d="m46.92,44.92c-2.58-3.62-6.51-5.94-10.92-5.94s-8.34,2.32-10.92,5.94l10.92,10.15,10.92-10.15Z"/>
        <path class="cls-4" d="m36,34.3c5.68,0,10.76,3,14.09,7.67l5.45-5.07c-4.63-6.49-11.67-10.64-19.55-10.64s-14.92,4.16-19.55,10.64l5.45,5.07c3.34-4.68,8.41-7.67,14.09-7.67Z"/>
        <path class="cls-4" d="m36,21.97c9.05,0,17.14,4.77,22.45,12.23l5.46-5.07c-6.61-9.26-16.66-15.19-27.91-15.19s-21.3,5.93-27.91,15.19l5.46,5.07c5.32-7.45,13.4-12.23,22.45-12.23Z"/>
        <path class="cls-4" d="m36,10.04c12.31,0,23.32,6.49,30.55,16.63l5.45-5.07C63.48,9.65,50.51,2,36,2S8.52,9.65,0,21.6l5.45,5.07c7.23-10.14,18.24-16.63,30.55-16.63Z"/>
      </g>
      <path class="cls-1" d="m11.79,73.69L.15,58.33c-.26-.34-.19-.82.15-1.07l3.03-2.26c.34-.25.82-.19,1.08.15l11.63,15.36c.26.34.19.82-.15,1.07l-3.03,2.26c-.34.25-.82.19-1.08-.15Z"/>
      <path class="cls-1" d="m71.34,39.98c-1.59-1.68-3.97-.12-4.27.09l-15.92,13.82c-.88.94-2.01,1.38-2.77,1.49-.04,0-.08,0-.12,0h-13.56c-.47,0-.86-.38-.86-.85s.38-.85.86-.85h13.49c.17-.03.63-.14,1.12-.45,0,0,.02-.01.02-.02l.64-.56c.44-.52.78-1.28.78-2.41,0-2.83-2.28-3.21-2.68-3.26-.8,0-11.5.07-12.52.07-1.21,0-2.74-.63-2.91-.71-.03-.01-.05-.02-.08-.04,0,0-1.79-1-2.65-1.49-.58-.33-1.3-.25-1.31-.25-.04,0-.08,0-.12,0h-10.71c-2.79,0-4.07,1.47-4.12,1.53-.02.02-.04.05-.06.07l-7.67,7.48,12,15.83,2.66-2.19c.15-.13.35-.2.55-.2h29.15c.69-.09,2.15-.47,2.52-1.12.72-1.28,15.14-17.68,18.13-21.07.23-.34,2.03-3.22.41-4.92Z"/>
      <g>
        <path class="cls-1" d="m52.55,15.89h-1.2c-.48,0-.9-.31-1.04-.77-.29-.96-.67-1.88-1.14-2.74-.23-.42-.15-.93.18-1.27l.85-.84c.42-.42.42-1.1,0-1.52l-3.37-3.35c-.42-.42-1.11-.42-1.53,0l-.85.84c-.34.34-.86.41-1.28.18-.87-.47-1.8-.85-2.76-1.13-.46-.14-.78-.55-.78-1.03v-1.19c0-.59-.48-1.07-1.08-1.07h-4.77c-.6,0-1.08.48-1.08,1.07v1.19c0,.48-.32.89-.78,1.03-.97.29-1.89.67-2.76,1.13-.42.23-.94.15-1.28-.18l-.85-.84c-.42-.42-1.11-.42-1.53,0l-3.37,3.35c-.42.42-.42,1.1,0,1.52l.85.84c.34.34.41.85.18,1.27-.47.87-.85,1.78-1.14,2.74-.14.46-.56.77-1.04.77h-1.2c-.6,0-1.08.48-1.08,1.07v4.73c0,.59.48,1.07,1.08,1.07h1.2c.48,0,.9.31,1.04.77.29.96.67,1.88,1.14,2.74.23.42.15.93-.18,1.27l-.85.84c-.42.42-.42,1.1,0,1.52l3.37,3.35c.42.42,1.11.42,1.53,0l.85-.84c.34-.34.86-.41,1.28-.18.87.47,1.8.85,2.76,1.13.46.14.78.55.78,1.03v1.19c0,.59.48,1.07,1.08,1.07h4.77c.6,0,1.08-.48,1.08-1.07v-1.19c0-.48.32-.89.78-1.03.97-.29,1.89-.67,2.76-1.13.42-.23.94-.15,1.28.18l.85.84c.42.42,1.11.42,1.53,0l3.37-3.35c.42-.42.42-1.1,0-1.52l-.85-.84c-.34-.34-.41-.85-.18-1.27.47-.87.85-1.78,1.14-2.74.14-.46.56-.77,1.04-.77h1.2c.6,0,1.08-.48,1.08-1.07v-4.73c0-.59-.48-1.07-1.08-1.07Zm-8.47,3.44c0,4.33-3.54,7.84-7.91,7.84s-7.91-3.51-7.91-7.84,3.54-7.84,7.91-7.84,7.91,3.51,7.91,7.84Z"/>
        <g class="cls-3">
          <path class="cls-2" d="m38.55,2c.6,0,1.08.48,1.08,1.07v1.19c0,.48.32.89.78,1.03.97.29,1.89.67,2.76,1.13.16.09.34.13.52.13.28,0,.55-.11.76-.31l.85-.84c.21-.21.49-.31.77-.31s.55.1.77.31l3.37,3.35c.42.42.42,1.1,0,1.52l-.85.84c-.34.34-.41.85-.18,1.27.47.87.85,1.78,1.14,2.74.14.46.56.77,1.04.77h1.2c.6,0,1.08.48,1.08,1.07v4.73c0,.59-.48,1.07-1.08,1.07h-1.2c-.48,0-.9.31-1.04.77-.29.96-.67,1.88-1.14,2.74-.23.42-.15.93.18,1.27l.85.84c.42.42.42,1.1,0,1.52l-3.37,3.35c-.21.21-.49.31-.77.31s-.55-.1-.77-.31l-.85-.84c-.21-.21-.48-.31-.76-.31-.18,0-.35.04-.52.13-.87.47-1.8.85-2.76,1.14-.46.14-.78.55-.78,1.03v1.19c0,.59-.48,1.07-1.08,1.07h-4.77c-.6,0-1.08-.48-1.08-1.07v-1.19c0-.48-.32-.89-.78-1.03-.97-.29-1.89-.67-2.76-1.14-.16-.09-.34-.13-.52-.13-.28,0-.55.11-.76.31l-.85.84c-.21.21-.49.31-.77.31s-.55-.1-.77-.31l-3.37-3.35c-.42-.42-.42-1.1,0-1.52l.85-.84c.34-.34.41-.85.18-1.27-.47-.87-.85-1.78-1.14-2.74-.14-.46-.56-.77-1.04-.77h-1.2c-.6,0-1.08-.48-1.08-1.07v-4.73c0-.59.48-1.07,1.08-1.07h1.2c.48,0,.9-.31,1.04-.77.29-.96.67-1.88,1.14-2.74.23-.42.15-.93-.18-1.27l-.85-.84c-.42-.42-.42-1.1,0-1.52l3.37-3.35c.21-.21.49-.31.77-.31s.55.1.77.31l.85.84c.21.21.48.31.76.31.18,0,.35-.04.52-.13.87-.47,1.8-.85,2.76-1.13.46-.14.78-.55.78-1.03v-1.19c0-.59.48-1.07,1.08-1.07h4.77m-2.38,25.18c4.37,0,7.91-3.51,7.91-7.84s-3.54-7.84-7.91-7.84-7.91,3.51-7.91,7.84,3.54,7.84,7.91,7.84M38.55,0h-4.77c-1.7,0-3.08,1.38-3.08,3.07v.51c-.64.22-1.27.48-1.88.77l-.38-.37c-.58-.58-1.35-.9-2.17-.9s-1.59.32-2.17.89l-3.37,3.35c-.59.58-.91,1.35-.91,2.18,0,.82.32,1.6.91,2.18l.36.36c-.29.6-.55,1.22-.77,1.85h-.53c-1.7,0-3.08,1.38-3.08,3.07v4.73c0,1.7,1.38,3.07,3.08,3.07h.53c.22.63.48,1.25.77,1.85l-.36.36c-.59.58-.91,1.35-.91,2.18s.32,1.6.91,2.18l3.37,3.35c.58.58,1.35.9,2.17.9s1.59-.32,2.17-.89l.38-.37c.61.3,1.24.55,1.88.77v.51c0,1.7,1.38,3.07,3.08,3.07h4.77c1.7,0,3.08-1.38,3.08-3.07v-.51c.64-.22,1.27-.48,1.88-.77l.38.37c.58.58,1.35.9,2.17.9s1.59-.32,2.17-.89l3.37-3.35c.59-.58.91-1.36.91-2.18s-.32-1.6-.91-2.18l-.36-.36c.29-.6.55-1.22.77-1.85h.53c1.7,0,3.08-1.38,3.08-3.07v-4.73c0-1.7-1.38-3.07-3.08-3.07h-.53c-.22-.63-.48-1.25-.77-1.85l.36-.36c.59-.58.91-1.36.91-2.18s-.32-1.6-.91-2.18l-3.37-3.35c-.58-.58-1.35-.9-2.17-.9s-1.59.32-2.17.89l-.38.37c-.61-.3-1.24-.55-1.88-.77v-.51c0-1.7-1.38-3.07-3.08-3.07h0Zm-2.38,25.18c-3.26,0-5.91-2.62-5.91-5.84s2.65-5.84,5.91-5.84,5.91,2.62,5.91,5.84-2.65,5.84-5.91,5.84h0Z"/>
        </g>
      </g>
    </g>
  </g>
</svg>