<svg xmlns="http://www.w3.org/2000/svg" xml:space="preserve" viewBox="0 0 288 288">
    <path d="M140.4 228.7h-105c-11 0-20-8.8-20-19.6V33.2c0-10.8 9-19.6 20-19.6h174.5c11 0 20 8.8 20 19.6v107.2c4.9 1.9 9.6 4.3 14 7.2V33.2C243.9 14.9 228.7 0 210 0H35.3C16.6 0 1.4 14.9 1.4 33.2v175.9c0 18.3 15.2 33.2 33.9 33.2h111.8c-2.7-4.2-5-8.8-6.7-13.6" style="fill:#fff"/>
    <circle cx="193.7" cy="191.7" r="48.7" style="fill:none;stroke:#fff;stroke-width:10;stroke-miterlimit:10"/>
    <path d="m229.6 230 50.5 50.5" style="fill:none;stroke:#fff;stroke-width:10;stroke-linecap:round;stroke-miterlimit:10"/>
    <path d="m27.3 144.7 32.4-47.6 26 86.4L125 59.9l43.3 63.1 38.8-88.8" style="fill:none;stroke:#fff;stroke-width:10;stroke-linecap:round;stroke-linejoin:round;stroke-miterlimit:10"/>
</svg>
