<?xml version="1.0" encoding="utf-8"?>
<!-- Generator: Adobe Illustrator 19.1.0, SVG Export Plug-In . SVG Version: 6.00 Build 0)  -->
<svg version="1.1" id="Layer_1" xmlns="http://www.w3.org/2000/svg" xmlns:xlink="http://www.w3.org/1999/xlink" x="0px" y="0px"
	 viewBox="114 186 72 72" style="enable-background:new 114 186 72 72;" xml:space="preserve">
<style type="text/css">
	.st0{display:none;}
	.st1{display:inline;}
	.st2{display:inline;stroke:#FFFFFF;stroke-width:1.1959;stroke-miterlimit:10;}
	.st3{display:inline;fill:none;stroke:#FFFFFF;stroke-width:9.567;stroke-miterlimit:10;}
	.st4{display:inline;stroke:#FFFFFF;stroke-width:0.9229;stroke-miterlimit:10;}
	.st5{display:inline;fill:none;stroke:#FFFFFF;stroke-width:9.2289;stroke-miterlimit:10;}
	.st6{display:inline;stroke:#FFFFFF;stroke-width:1.3383;stroke-miterlimit:10;}
	.st7{display:inline;fill:#FFFFFF;}
	.st8{display:inline;opacity:0.7;stroke:#FFFFFF;stroke-width:1.494;stroke-miterlimit:10;enable-background:new    ;}
	.st9{display:inline;opacity:0.7;stroke:#FFFFFF;stroke-width:0.9492;stroke-miterlimit:10;enable-background:new    ;}
	.st10{display:inline;fill:none;stroke:#000000;stroke-width:23.0795;stroke-miterlimit:10;}
	.st11{enable-background:new    ;}
	.st12{fill:none;stroke:#000000;stroke-miterlimit:10;}
	.st13{display:inline;fill:#FFFFFF;stroke:#000000;stroke-miterlimit:10;}
	.st14{display:inline;stroke:#000000;stroke-width:19.9759;stroke-miterlimit:10;}
	.st15{display:inline;stroke:#000000;stroke-width:20.4762;stroke-miterlimit:10;}
	.st16{display:inline;stroke:#000000;stroke-miterlimit:10;}
</style>
<g id="Media_play_icon" class="st0">
	<polygon class="st1" points="389.5,36.1 138.1,181.2 138.1,-109 	"/>
</g>
<g id="Document_icon" class="st0">
	<rect x="153.8" y="-105.1" class="st2" width="219.9" height="282.3"/>
	<line class="st3" x1="194.1" y1="-63.2" x2="334" y2="-63.2"/>
	<line class="st3" x1="194.1" y1="-37.2" x2="297.3" y2="-37.2"/>
	<line class="st3" x1="194.1" y1="-11.2" x2="310.8" y2="-11.2"/>
	<line class="st3" x1="194.1" y1="14.9" x2="334" y2="14.9"/>
	<line class="st3" x1="194.1" y1="40.9" x2="252.4" y2="40.9"/>
	<line class="st3" x1="194.1" y1="67" x2="297.3" y2="67"/>
	<line class="st3" x1="194.1" y1="93" x2="310.8" y2="93"/>
</g>
<g id="Contact_icon" class="st0">
	<rect x="121.1" y="-72.8" class="st4" width="285.8" height="217.9"/>
	<polyline class="st5" points="395.7,-62.9 264,39.8 133,-62.9 	"/>
</g>
<g id="Image_icon" class="st0">
	<rect x="126.4" y="-105.4" class="st6" width="274.7" height="283"/>
	<rect x="153" y="-76.5" class="st7" width="220.5" height="220.5"/>
	<polygon class="st8" points="299.9,130.5 162.5,130.3 231.4,11.4 	"/>
	<polygon class="st9" points="352.6,129.9 265.3,129.8 309,54.2 	"/>
	<circle class="st9" cx="296.9" cy="-12.5" r="23.9"/>
</g>
<g id="Map_icon" class="st0">
	<circle class="st1" cx="263.8" cy="-10.1" r="99.2"/>
	<polygon class="st1" points="263.8,182 191.3,56.4 336.3,56.4 	"/>
	<circle class="st7" cx="263.8" cy="-11" r="34.3"/>
</g>
<g id="Calendar_icon" class="st0">
	<rect x="143.3" y="-82.8" class="st10" width="241.3" height="248.6"/>
	<text transform="matrix(1 0 0 1 164.4731 113.2056)" class="st1" style="font-family:'Futura-Medium'; font-size:172.5264px;">31</text>
	
		<text transform="matrix(1 0 0 1 164.4731 113.2056)" style="display:inline;fill:none;stroke:#000000;stroke-miterlimit:10; font-family:'Futura-Medium'; font-size:172.5264px;">31</text>
	<polyline class="st1" points="306.1,147.8 364.8,147.8 364.8,89.1 	"/>
	<rect x="131.9" y="-105" class="st1" width="263.7" height="66.4"/>
	<circle class="st13" cx="212.4" cy="-70" r="11.9"/>
	<circle class="st13" cx="313.1" cy="-71.8" r="11.9"/>
</g>
<g id="Company_icon" class="st0">
	<circle class="st14" cx="263.8" cy="-35.3" r="51.5"/>
	<path class="st15" d="M173.4,172.9c0-81.1,40.5-146.9,90.4-146.9s90.4,65.8,90.4,146.9"/>
	<polygon class="st16" points="202.7,173.1 216.3,173.2 209.9,116.5 	"/>
	<polygon class="st16" points="315.6,173.2 329.2,173.3 322.7,116.7 	"/>
</g>
<g id="BOOUm1.tif">
	<g>
		<path d="M146.9,188c2,0,4.1,0,6.1,0c1.3,1.1,2,2.6,2.3,4.3c0.2,1.6,1.2,2.6,2.7,3.2c1.1,0.4,2.2,0.7,3.2,1.3
			c2.5,1.5,4.8,0.9,7-0.5c2.3-1.4,2.9-1.3,4.8,0.5c0.5,0.5,1,1,1.5,1.5c2,2.1,2.2,3.4,0.5,5.9c-0.6,0.9-1.3,1.9-1.1,3
			c0.6,2.6,1.5,5.2,3,7.4c1,1.5,3,1.8,4.8,2.2c1.9,0.4,2.4,1.9,2.3,3.5c-0.1,2.3,1,5.1-1.8,6.7c-0.4,0.2-1,0.2-1.5,0.4
			c-1.3,0.4-2.7,0.8-3.7,1.8c-2.7,2.9-3.2,7.8-1.1,11.2c1,1.5,0.8,2.7-0.3,4c-0.5,0.6-1.1,1.2-1.7,1.8c-2.3,2.3-3.5,2.5-6.2,0.7
			c-1.6-1.1-3.2-1.2-4.9-0.5c-0.8,0.3-1.6,0.8-2.5,1c-3.1,0.8-4.6,2.8-5,5.8c-0.3,1.8-1.4,2.6-3.1,2.7c-0.8,0-1.5,0-2.3,0
			c-3.5,0-4.4-0.8-5-4.1c-0.2-0.9-0.4-1.8-1.2-2.3c-2.2-1.7-4.8-2.6-7.5-3.3c-1.7-0.4-3.3,0.8-4.7,1.7c-1.4,1-2.6,0.7-3.8-0.3
			c-0.6-0.5-1.2-1.1-1.8-1.7c-2.4-2.4-2.6-3.5-0.7-6.3c1-1.5,1.1-2.9,0.5-4.5c-0.4-0.9-0.9-1.9-1.1-2.8c-0.8-3.1-3-4.5-5.9-5
			c-0.9-0.1-1.6-0.4-2.1-1.2c-2.1-3.3-0.2-8.3,3.5-9.2c1.8-0.4,2.9-1.4,3.6-3.1c0.3-0.8,0.6-1.7,1-2.5c1.6-2.8,1.2-5.4-0.6-7.8
			c-1.1-1.4-0.8-2.7,0.3-4c0.6-0.6,1.1-1.2,1.7-1.8c2.3-2.2,3.5-2.4,6.2-0.6c1.5,1,3,1.3,4.7,0.5c0.9-0.4,1.9-0.9,2.8-1.1
			c3-0.7,4.4-2.9,4.8-5.7C145,189.4,145.7,188.6,146.9,188z M150,233.9c6.7,0,12.1-5.4,12.1-12c-0.1-6.5-5.5-11.9-12.1-11.9
			c-6.6,0-11.9,5.4-11.9,12C138.2,228.7,143.4,233.9,150,233.9z"/>
	</g>
</g>
</svg>
