<svg xmlns="http://www.w3.org/2000/svg" xml:space="preserve" id="Layer_1" x="0" y="0" version="1.1" viewBox="114 186 72 72">
    <style>
        .st0{display:none}.st1{display:inline}.st3{fill:none;stroke:#fff;stroke-width:9.567;stroke-miterlimit:10}.st3,.st7,.st9{display:inline}.st7{fill:#fff}.st9{opacity:.7;stroke:#fff;stroke-width:.9492;stroke-miterlimit:10;enable-background:new}.st13{fill:#fff}.st13,.st16{display:inline;stroke:#000;stroke-miterlimit:10}
    </style>
    <path id="BOOUm1.tif" d="M146.9 188h6.1c1.3 1.1 2 2.6 2.3 4.3.2 1.6 1.2 2.6 2.7 3.2 1.1.4 2.2.7 3.2 1.3 2.5 1.5 4.8.9 7-.5 2.3-1.4 2.9-1.3 4.8.5l1.5 1.5c2 2.1 2.2 3.4.5 5.9-.6.9-1.3 1.9-1.1 3 .6 2.6 1.5 5.2 3 7.4 1 1.5 3 1.8 4.8 2.2 1.9.4 2.4 1.9 2.3 3.5-.1 2.3 1 5.1-1.8 6.7-.4.2-1 .2-1.5.4-1.3.4-2.7.8-3.7 1.8-2.7 2.9-3.2 7.8-1.1 11.2 1 1.5.8 2.7-.3 4-.5.6-1.1 1.2-1.7 1.8-2.3 2.3-3.5 2.5-6.2.7-1.6-1.1-3.2-1.2-4.9-.5-.8.3-1.6.8-2.5 1-3.1.8-4.6 2.8-5 5.8-.3 1.8-1.4 2.6-3.1 2.7h-2.3c-3.5 0-4.4-.8-5-4.1-.2-.9-.4-1.8-1.2-2.3-2.2-1.7-4.8-2.6-7.5-3.3-1.7-.4-3.3.8-4.7 1.7-1.4 1-2.6.7-3.8-.3-.6-.5-1.2-1.1-1.8-1.7-2.4-2.4-2.6-3.5-.7-6.3 1-1.5 1.1-2.9.5-4.5-.4-.9-.9-1.9-1.1-2.8-.8-3.1-3-4.5-5.9-5-.9-.1-1.6-.4-2.1-1.2-2.1-3.3-.2-8.3 3.5-9.2 1.8-.4 2.9-1.4 3.6-3.1.3-.8.6-1.7 1-2.5 1.6-2.8 1.2-5.4-.6-7.8-1.1-1.4-.8-2.7.3-4 .6-.6 1.1-1.2 1.7-1.8 2.3-2.2 3.5-2.4 6.2-.6 1.5 1 3 1.3 4.7.5.9-.4 1.9-.9 2.8-1.1 3-.7 4.4-2.9 4.8-5.7.4-1.4 1.1-2.2 2.3-2.8m3.1 45.9c6.7 0 12.1-5.4 12.1-12-.1-6.5-5.5-11.9-12.1-11.9s-11.9 5.4-11.9 12c.1 6.7 5.3 11.9 11.9 11.9"/>
</svg>
